<?xml version="1.0" encoding="UTF-8"?>
<svg width="96px" height="96px" viewBox="0 0 96 96" version="1.1" xmlns="http://www.w3.org/2000/svg" xmlns:xlink="http://www.w3.org/1999/xlink">
    <title>Air Jordan 13 Retro CNY</title>
    <defs>
        <rect id="path-1" x="0" y="0" width="96" height="96"></rect>
    </defs>
    <g id="icon" stroke="none" stroke-width="1" fill="none" fill-rule="evenodd">
        <g id="画板" transform="translate(-390.000000, -230.000000)">
            <g id="Air-Jordan-13-Retro-CNY" transform="translate(390.000000, 230.000000)">
                <g id="#" opacity="0">
                    <use fill="#FFFFFF" fill-rule="evenodd" xlink:href="#path-1"></use>
                    <rect stroke-opacity="0.5" stroke="#DDDDDD" stroke-width="6" stroke-linejoin="square" x="3" y="3" width="90" height="90"></rect>
                    <rect stroke-opacity="0.507785184" stroke="#DDDDDD" stroke-width="12" stroke-linejoin="square" x="6" y="6" width="84" height="84"></rect>
                    <rect stroke-opacity="0.319406703" stroke="#979797" stroke-width="10" stroke-linejoin="square" x="5" y="5" width="86" height="86"></rect>
                </g>
                <path d="M86,68 C86,68 86.2692871,70.6580811 83.2613525,71.3806152 C80.253418,72.1031494 78.298584,72 76.887085,72 C75.4755859,72 74.2250977,72 72.8879395,72 C71.5507812,72 68.1047363,71.5936279 67.112915,71.1020508 C66.1210938,70.6104736 65.598877,71.121582 65.2973633,71.3806152 C64.9958496,71.6396484 62.397583,72 60.4317627,72 C58.4659424,72 56.1434326,71.2791941 55.0345459,70.6408691 C53.9256592,70.0025442 52.345459,69.3382568 51.0080566,69.3382568 C49.6706543,69.3382568 47.4775391,70.651001 46.4984131,71.1020508 C45.5192871,71.5531006 44.0788574,72 43.2757568,72 C42.4726563,72 36.2883301,72 34.8188477,72 C33.3493652,72 26.6645508,70.7020264 25.5422363,69.7890625 C25.0524902,69.4377441 23.5753174,69.3382568 22.925293,69.3382568 C22.2752686,69.3382568 19.8619385,68.9603271 17.6567383,67.7904053 C16.8690186,67.4464111 14.8206787,67.604126 12.7592773,66.5267334 C10.697876,65.4493408 9.93237305,64.1987305 9.96618652,62.652832 C9.98872884,61.6222331 10.3816325,60.6159261 11.1448975,59.6339111 L22.925293,63.4868164 L34.8188477,64.2822266 L47.0842285,67.7904053 L53.7634277,66.8637695 L57.9519043,64.6872559 L66.4736328,64.2822266 L76.0976562,61.9023438 L84.4821777,63.4868164 C85.0443115,64.2244059 85.4383545,65.0019671 85.6643066,65.8194998 C86.0032349,67.0457989 86,68 86,68 Z" id="Path-7" fill="#FC8C97"></path>
                <path d="M84.0846123,63.4106287 L84.4821777,63.4868164 C85.0443115,64.2244059 85.4383545,65.0019671 85.6643066,65.8194998 C85.9655762,66.9095434 85.9964946,67.7845961 85.999646,67.9655949 L86,68 C86,68 86.2692871,70.6580811 83.2613525,71.3806152 C80.3841977,72.0717349 78.4705603,72.0074087 77.0743167,72.0005086 L72.8879395,72 L72.8879395,72 C71.5507812,72 68.1047363,71.5936279 67.112915,71.1020508 C66.1210937,70.6104736 65.598877,71.121582 65.2973633,71.3806152 C64.9958496,71.6396484 62.397583,72 60.4317627,72 C58.4659424,72 56.1434326,71.2791941 55.0345459,70.6408691 C53.9256592,70.0025442 52.345459,69.3382568 51.0080566,69.3382568 C49.6706543,69.3382568 47.4775391,70.651001 46.4984131,71.1020508 C45.5192871,71.5531006 44.0788574,72 43.2757568,72 L34.8188477,72 L34.8188477,72 C33.3493652,72 26.6645508,70.7020264 25.5422363,69.7890625 C25.0524902,69.4377441 23.5753174,69.3382568 22.925293,69.3382568 C22.2752686,69.3382568 19.8619385,68.9603271 17.6567383,67.7904053 C16.8690186,67.4464111 14.8206787,67.604126 12.7592773,66.5267334 C11.0981714,65.6585554 10.278539,64.6779009 10.0405468,63.5208972 C12.1758119,65.0734167 15.6656733,64.9428341 16.6471354,65.281901 C17.7109375,65.6494141 20.5452474,67.288737 22.3001302,67.0595703 C24.055013,66.8304036 27.2161458,68.1484375 29.1409505,69.1835937 C31.0657552,70.21875 42.632487,70.5875651 44.1861979,69.8030599 C45.7399089,69.0185547 52.5507812,66.5263672 53.811849,67.3715891 C55.0729167,68.216811 57.6832682,70.2757161 60.624349,70.2376302 C63.5654297,70.1995443 65.4733073,68.8108724 65.9065755,68.3336589 C66.1528728,68.0623802 70.4078776,63.5055339 74.2636719,64.0989583 C71.5869141,66.0735677 70.8730983,67.8105654 72.7158203,68.8066406 C74.4700521,69.7548828 81.3841146,69.5771484 82.6350911,68.0963542 C83.4690755,67.109158 83.7261285,65.9312066 83.40625,64.5625 C83.6185901,64.0764219 83.8447108,63.6924648 84.0846123,63.4106287 Z" id="Combined-Shape" fill="#F27287"></path>
                <path d="M10.2541925,64.1916625 C11.9847374,65.5012541 14.6451965,66.4527544 15.1575521,66.5667318 C15.7721354,66.7034505 17.0094401,65.8971354 18.5963542,67.1617839 C20.1832682,68.4264323 22.2399089,69.0139974 24.2851563,67.8958333 C26.3304036,66.7776693 26.3375651,68.7713469 27.2014974,69.5745443 C28.0654297,70.3777417 32.5950521,71.133138 36.1917318,71.233724 C39.7884115,71.3343099 44.0309245,71.6748047 45.4840495,70.8414714 C46.9371745,70.008138 51.3782552,68.0667318 52.6490885,67.8580729 C53.9199219,67.6494141 55.1396484,70.1129557 56.9541016,70.7109375 C58.7685547,71.3089193 63.1969401,71.2102865 64.1129557,70.9970703 C65.0289714,70.7838542 66.1145833,69.8639323 66.3896484,69.1490885 C66.6647135,68.4342448 67.6328125,67.2552083 68.2695313,68.703776 C68.90625,70.1523438 70.2294922,70.5328776 71.656901,70.773112 C73.0843099,71.0133464 78.9088542,70.9742839 81.8297526,70.8557943 C83.4996852,70.7880515 84.8808202,70.0435217 85.9731575,68.6222047 C85.8556065,69.4520462 85.3440961,70.8803206 83.2613525,71.3806152 C80.3841977,72.0717349 78.4705603,72.0074087 77.0743167,72.0005086 L72.8879395,72 L72.8879395,72 C71.5507812,72 68.1047363,71.5936279 67.112915,71.1020508 C66.1210937,70.6104736 65.598877,71.121582 65.2973633,71.3806152 C64.9958496,71.6396484 62.397583,72 60.4317627,72 C58.4659424,72 56.1434326,71.2791941 55.0345459,70.6408691 C53.9256592,70.0025442 52.345459,69.3382568 51.0080566,69.3382568 C49.6706543,69.3382568 47.4775391,70.651001 46.4984131,71.1020508 C45.5192871,71.5531006 44.0788574,72 43.2757568,72 L34.8188477,72 L34.8188477,72 C33.3493652,72 26.6645508,70.7020264 25.5422363,69.7890625 C25.0524902,69.4377441 23.5753174,69.3382568 22.925293,69.3382568 C22.2752686,69.3382568 19.8619385,68.9603271 17.6567383,67.7904053 C16.8690186,67.4464111 14.8206787,67.604126 12.7592773,66.5267334 C11.4399805,65.8372021 10.6514836,65.0767209 10.2636107,64.2132896 Z" id="Combined-Shape" fill="#D94A5C"></path>
                <path d="M75.4536497,72 L72.8879395,72 C71.5507812,72 68.1047363,71.5936279 67.112915,71.1020508 C66.1210937,70.6104736 65.598877,71.121582 65.2973633,71.3806152 C65.212916,71.4531647 64.9483032,71.5336619 64.5678803,71.6119639 C65.2455671,71.1590482 66.0621456,70.4074105 66.2257487,69.777181 C66.4602865,68.8736979 68.1461589,69.2430013 68.4851888,69.8331706 C68.777636,70.3422505 70.5445553,71.5955302 75.4536497,72 L75.4536497,72 Z M60.2075412,71.9969576 C58.2922066,71.9456602 56.1015439,71.2550811 55.0345459,70.6408691 C53.9256592,70.0025442 52.345459,69.3382568 51.0080566,69.3382568 C49.6706543,69.3382568 47.4775391,70.651001 46.4984131,71.1020508 C46.0736807,71.2977105 45.5621441,71.4925892 45.0534807,71.6505469 C46.0487865,71.2723047 46.8082491,70.7861415 47.3318685,70.1920573 C47.548143,69.9466782 47.8381997,69.7245281 48.1796474,69.5305566 C48.535295,69.3724484 48.9001231,69.2143241 49.2621232,69.0617231 C50.9906849,68.4976759 53.2366228,68.4942021 54.4207357,69.4003906 C56.1612956,70.7324219 57.2683919,71.3292643 58.3426107,71.7089844 C58.7157995,71.840901 59.42122,71.9359662 60.2075412,71.9969576 L60.2075412,71.9969576 Z" id="Shape" fill="#A32332"></path>
                <path d="M51.7622386,69.1005366 C51.4445515,69.0178646 51.1353387,68.9692383 50.8452148,68.9692383 C50.4817394,68.9692383 50.0670866,69.093458 49.6362662,69.2834318 C48.4752208,69.3699584 47.4485574,69.4345151 46.9804688,69.5013021 C45.6663411,69.6888021 42.1300456,67.7166341 39.3320313,67.1248372 C36.5340169,66.5330404 32.0193685,66.2005208 29.5003255,67.0423177 C26.9812826,67.8841146 25.2858073,69.0504557 24.2535807,68.8457031 C23.2213542,68.6409505 21.5263672,65.7542318 20.9436849,64.891276 C20.3610026,64.0283203 13.1448568,62.797526 11.4072266,61.71875 C10.9829713,61.4553589 10.6687437,61.1171024 10.4645436,60.7039807 C10.6433251,60.3441423 10.8701097,59.9874525 11.1448975,59.6339111 L22.925293,63.4868164 L34.8188477,64.2822266 L47.0842285,67.7904053 L53.7634277,66.8637695 L57.9519043,64.6872559 L66.4736328,64.2822266 L76.0976562,61.9023438 L82.8636096,63.180946 C83.6673482,63.5322746 84.3878095,63.905561 85.0249936,64.3008051 C85.3067748,64.7907055 85.5198792,65.296937 85.6643066,65.8194998 C85.6740471,65.8547424 85.6835049,65.8897602 85.6926884,65.9245372 C85.0912435,65.6711542 84.370764,65.3462651 83.53125,64.9498698 C80.3582357,63.4516602 76.3649089,63.7167969 74.9938151,64.0126953 C73.6227214,64.3085937 70.2021484,66.5004883 69.4267578,67.9451497 C68.6513672,69.3898112 65.9650065,69.9379883 65.1000977,68.457194 C64.2351888,66.9763997 61.3146159,66.0385742 59.3128255,66.2159831 C57.3110352,66.3933919 55.4770508,67.7682292 54.7441406,68.4560547 C54.4276323,68.7530932 53.1816808,68.9535448 51.7622386,69.1005366 L51.7622386,69.1005366 Z" id="Path" fill="#FBBDC3"></path>
                <path d="M11.1295166,60.4017029 C10.8699341,59.8249207 11.451355,58.9909058 11.6141663,58.7686768 C11.7769775,58.5464478 12.6751709,57.0688477 14.1379395,56.5487061 C15.600708,56.0285645 21.8116455,54.2750244 22.4414062,54.0751953 C22.8612467,53.9419759 23.3912354,53.9419759 24.0313721,54.0751953 C32.3804118,57.7791341 38.490804,59.3436279 42.3625488,58.7686768 C48.170166,57.90625 53.3227539,59.5717773 56.1394043,62.4179688 C58.9560547,65.2641602 44.8077799,65.5611165 37.1391602,64.5396322 C34.4488125,64.1812694 29.400942,63.2313118 27.9985352,64.0142415 C25.8444824,65.2167969 22.8137638,65.9734569 22.5224609,65.402181 C21.3046875,63.0139974 19.3415527,63.1008301 17.3652344,62.6416829 C13.5168723,61.7476142 11.3890991,60.9784851 11.1295166,60.4017029 Z" id="Path-8" fill="#E2DED8"></path>
                <path d="M12.4454698,57.7097357 C12.8680761,57.2650967 13.4384583,56.7974325 14.1379395,56.5487061 C15.600708,56.0285645 21.8116455,54.2750244 22.4414062,54.0751953 C22.8612467,53.9419759 23.3912354,53.9419759 24.0313721,54.0751953 C27.5381185,55.630916 30.6499337,56.8092064 33.3668178,57.6100665 C33.3852492,57.6788894 33.4036016,57.7481033 33.421875,57.8177083 C23.7134332,60.124349 17.2374132,60.6975369 13.9938151,59.5372721 C12.80106,59.1106127 12.2849449,58.5014339 12.4454698,57.7097357 L12.4454698,57.7097357 Z" id="Path" fill="#EDE9E2"></path>
                <path d="M12.8795037,57.2976738 C12.528055,58.5856198 13.240421,59.3872199 15.0166016,59.702474 C19.0743815,60.4226888 23.0183919,63.7054036 25.0481771,63.3177083 C27.0779622,62.930013 29.8177083,61.1554362 31.8470052,61.5760091 C39.1367188,62.4366862 43.0709635,61.2604167 40.2625326,61.1622721 C37.4541016,61.0641276 26.1416016,59.9142253 29.6788737,58.4501953 C30.5026668,58.1092383 32.2490814,57.9196982 34.3692396,57.8932643 C37.6562805,58.7800831 40.3207169,59.0718873 42.3625488,58.7686768 C42.6918862,58.7197704 43.0191172,58.6789934 43.3439351,58.6461 C44.5226947,58.8741312 45.6000626,59.1551495 46.4871419,59.4910482 C48.8406121,60.3822057 49.519619,62.51475 47.8854167,63.3177083 C46.8142459,63.8440235 45.1245643,64.4358893 43.0707753,65.0163564 C40.9428422,64.934518 38.8750014,64.7708517 37.1391602,64.5396322 C34.4488125,64.1812694 29.400942,63.2313118 27.9985352,64.0142415 C25.8444824,65.2167969 22.8137638,65.9734569 22.5224609,65.402181 C21.3046875,63.0139974 19.3415527,63.1008301 17.3652344,62.6416829 C13.5168723,61.7476142 11.3890991,60.9784851 11.1295166,60.4017029 C10.8699341,59.8249207 11.451355,58.9909058 11.6141663,58.7686768 C11.7232052,58.6198442 12.1620875,57.9079359 12.8795037,57.2976738 Z" id="Path" fill="#D5D2CC"></path>
                <path d="M33.1018066,63.6274414 C34.4328613,62.9567057 35.8605143,62.6213379 37.3847656,62.6213379 C39.6711426,62.6213379 42.7258301,62.9907227 45.3164063,59.3847656 C47.9069824,55.7788086 57.8671875,53.7438965 65.8461914,55.0856934 C73.8251953,56.4274902 74.7973633,52.717041 73.7661133,49.5292969 C72.7348633,46.3415527 77.3288574,38.1166992 79.871582,38.1166992 C81.5667318,38.1166992 83.0641276,39.4974772 84.3637695,42.2590332 C84.5934245,45.7469889 84.8394368,48.6180013 85.1018066,50.8720703 C85.4953613,54.2531738 86.5773926,58.810791 85.1018066,63.0080566 C85.3193359,63.604248 79.907959,62.2346191 76.3349609,62.6213379 C72.7619629,63.0080566 65.1300456,64.859375 59.910319,64.859375 C54.6905924,64.859375 50.5151367,66.3737793 48.454834,67.1171875 C46.3945312,67.8605957 42.0447591,66.6731771 38.3094076,65.3626302 C35.8191732,64.4889323 34.0833062,63.910536 33.1018066,63.6274414 Z" id="Path-10" fill="#BA9863"></path>
                <path d="M79.871582,38.1166992 C81.5667318,38.1166992 83.0641276,39.4974772 84.3637695,42.2590332 C84.3937074,42.7137232 84.4239232,43.1579291 84.4544169,43.5916507 C84.2810962,43.5700966 84.1629805,43.5228413 84.0999349,43.4501953 C82.2582114,41.3280189 81.3071498,39.7502331 80.5332031,39.6640625 C79.2643229,39.5227865 77.4635417,41.311849 76.7392578,43.8531901 C76.014974,46.3945313 77.1995443,48.5045573 78.7483724,49.4261068 C80.2972005,50.3476563 82.3860677,49.3694661 83.1005859,48.2604167 C83.8151042,47.1513672 82.9824219,49.6988932 82.4586589,50.3870443 C81.9348958,51.0751953 81.8307292,51.5745443 83.0380859,52.4296875 C83.9933749,53.1062968 85.0153022,53.6378096 85.6130497,54.6517769 C85.9294947,57.2542763 86.0728627,60.1338997 85.1499377,62.8683494 C84.4640271,62.904077 83.4880362,62.9036314 82.3167704,62.9147369 C80.5184924,62.690655 78.1812818,62.4215038 76.3349609,62.6213379 C72.7619629,63.0080566 65.1300456,64.859375 59.910319,64.859375 C57.6878108,64.859375 55.654626,65.1339323 53.893431,65.5066265 L53.9759115,65.496582 C52.3186493,65.6585648 47.9902734,67.442369 44.5312045,67.1106093 C44.016494,67.0177388 43.4810279,66.9021622 42.9337868,66.76854 L42.984375,66.7849935 C42.6157513,66.6559108 41.8521691,66.4557288 40.898868,66.2101617 C40.0263564,65.9477774 39.1522413,65.6583381 38.3094076,65.3626302 C35.8191732,64.4889323 34.0833062,63.910536 33.1018066,63.6274414 C33.5603442,63.3963784 34.0303456,63.205115 34.5118107,63.0536513 C37.7323498,63.7421719 44.3855652,65.8848208 45.4093424,65.6113281 C47.8315727,64.9642515 50.5360181,63.2520751 53.9980469,62.7526042 C58.5693359,62.093099 62.7923944,62.0519087 61.844401,60.5514323 C60.641276,58.6471354 57.6448568,58.5221354 54.3196615,58.8450521 C51.6219583,59.1070317 47.7329923,59.848516 44.7688972,60.0799248 C44.9542886,59.8665199 45.136467,59.6352324 45.3164063,59.3847656 C47.9069824,55.7788086 57.8671875,53.7438965 65.8461914,55.0856934 C73.8251953,56.4274902 74.7973633,52.717041 73.7661133,49.5292969 C72.7348633,46.3415527 77.3288574,38.1166992 79.871582,38.1166992 Z" id="Combined-Shape" fill="#A3804A"></path>
                <path d="M44.8323257,60.0073191 C44.995257,59.8142289 45.1567134,59.6070503 45.3164063,59.3847656 C47.9069824,55.7788086 57.8671875,53.7438965 65.8461914,55.0856934 C73.8251953,56.4274902 74.7973633,52.717041 73.7661133,49.5292969 C72.7348633,46.3415527 77.3288574,38.1166992 79.871582,38.1166992 C81.5667318,38.1166992 83.0641276,39.4974772 84.3637695,42.2590332 C84.3826845,42.5463106 84.4017105,42.8294028 84.4208474,43.10831 C84.3647834,43.1353038 84.3014323,43.1366897 84.2307943,43.1124674 C83.8510742,42.9822591 81.8263346,40.2311198 81.253418,39.8177083 C80.6805013,39.4042969 79.6969401,39.1583659 78.8818359,39.8177083 C78.0667318,40.4770508 75.1647135,44.9654948 75.9269206,47.5738932 C76.6891276,50.1822917 80.1787109,50.9350586 80.7654622,50.761556 C81.3522135,50.5880534 80.273112,51.2027995 81.1848958,52.0348307 C82.0966797,52.866862 84.4978841,53.7706706 85.0861003,54.7185872 C85.4159922,55.2502117 85.650126,55.8195022 85.7885015,56.4264585 C85.8914109,57.8501936 85.8911379,59.3247306 85.6575012,60.7884352 C85.365587,61.0532466 84.8405206,61.2000606 84.3261719,61.1207682 C83.6494141,61.0164388 78.4796549,60.4573568 75.0750326,59.8007812 C71.6704102,59.1442057 68.5419922,58.652181 61.983724,58.3258464 C55.4254557,57.9995117 47.3474935,59.5537109 45.7613932,59.8723958 C45.5096155,59.9229839 45.1999264,59.9679583 44.8323257,60.0073191 L44.8323257,60.0073191 Z" id="Path" fill="#82602B"></path>
                <path d="M22.4660645,65.3826904 C23.0612793,65.6011149 24.3484294,65.3009033 26.3275146,64.4820557 C29.2961426,63.2537842 30.5385742,62.2906494 33.7468262,62.8618164 C36.9550781,63.4329834 43.2104492,66.265625 44.9962158,66.265625 C46.7819824,66.265625 50.6986084,63.7305908 53.8239746,63.7305908 C56.9493408,63.7305908 59.548584,64.9492187 63.99646,63.1704102 C68.4443359,61.3916016 71.7763672,60.5007324 77.0650635,61.0666504 C82.3537598,61.6325684 85.6171875,62.6948242 85.9544678,63.3468018 C86.291748,63.9987793 85.9307861,65.5043945 85.7664795,66.5270996 C85.5046387,66.2122803 82.5084229,63.4790039 78.4580078,63.1704102 C74.4075928,62.8618164 72.2661133,64.1557617 70.6320801,66.265625 C68.9980469,68.3754883 68.1712646,70.0726318 67.6619873,70.3574219 C67.3224691,70.5472819 66.8588867,70.6396891 66.2712402,70.6346436 C66.1246745,70.075236 65.8812256,69.5706787 65.5408936,69.1209717 C65.0303955,68.4464111 62.6677246,65.3826904 59.7698975,65.585083 C56.8720703,65.7874756 55.1158902,67.6280518 54.697876,68.5373535 C54.2798618,69.4466553 53.7115479,69.5843506 52.8969727,69.3526611 C52.0823975,69.1209717 50.7349854,68.9746094 49.647583,69.3526611 C48.5601807,69.7307129 47.135498,70.1330566 46.8598633,69.9318848 C46.5842285,69.7307129 42.1804199,66.5270996 37.0812988,65.9887695 C31.9821777,65.4504395 28.7177734,65.7561035 25.8220215,68.8780518 C25.5773926,69.213501 24.3708496,69.164917 23.7069092,68.5373535 C23.0429687,67.90979 22.4660645,66.2008509 22.4660645,65.9887695 C22.4660645,65.847382 22.4660645,65.6453556 22.4660645,65.3826904 Z" id="Path-11" fill="#BC9056"></path>
                <path d="M77.0650635,61.0666504 C81.5381329,61.545292 84.5624417,62.3789853 85.5929384,63.0192075 C85.484627,63.1397823 85.1010176,63.0956192 84.4418945,62.8868815 C82.8152669,62.3717448 81.1805013,62.1476237 79.9371745,61.9401042 C78.6938477,61.7325846 76.793457,61.6497396 74.828776,61.5869141 C72.8640951,61.5240885 69.8203125,61.6552734 67.8237305,62.3211263 C65.8271484,62.9869792 63.0258789,64.1425781 62.0818685,64.5252279 C61.1378581,64.9078776 59.4191081,65.1625977 57.9700521,64.7542318 C56.5209961,64.3458659 53.4654948,64.2096354 51.7939453,64.6111654 C50.1223958,65.0126953 47.2942708,67.1272786 44.5638021,66.7791341 C41.8333333,66.4309896 38.5349935,64.9475911 37.3395182,64.5120443 C36.144043,64.0764974 33.0045573,63.1258443 29.7244466,64.0934245 C27.6034728,64.7190778 25.961927,64.9594449 26.0302407,64.6026672 C26.1278642,64.5640593 26.2267933,64.5237292 26.3275146,64.4820557 C29.2961426,63.2537842 30.5385742,62.2906494 33.7468262,62.8618164 C36.9550781,63.4329834 43.2104492,66.265625 44.9962158,66.265625 C46.7819824,66.265625 50.6986084,63.7305908 53.8239746,63.7305908 C56.9493408,63.7305908 59.548584,64.9492187 63.99646,63.1704102 C68.4443359,61.3916016 71.7763672,60.5007324 77.0650635,61.0666504 Z" id="Combined-Shape" fill="#DDB686"></path>
                <path d="M72.5776367,63.9562174 C75.0128581,62.558431 77.8663737,62.273112 81.1342773,63.4235026 C83.0922407,64.1127588 84.6548086,65.0408385 85.8219811,66.2077418 C85.8010631,66.3191521 85.782801,66.4255084 85.7664795,66.5270996 C85.5046387,66.2122803 82.5084229,63.4790039 78.4580078,63.1704102 C74.4075928,62.8618164 72.2661133,64.1557617 70.6320801,66.265625 C68.9980469,68.3754883 68.1712646,70.0726318 67.6619873,70.3574219 C67.3224691,70.5472819 66.8588867,70.6396891 66.2712402,70.6346436 C66.1246745,70.075236 65.8812256,69.5706787 65.5408936,69.1209717 C65.0303955,68.4464111 62.6677246,65.3826904 59.7698975,65.585083 C56.8720703,65.7874756 55.1158902,67.6280518 54.697876,68.5373535 C54.2798618,69.4466553 53.7115479,69.5843506 52.8969727,69.3526611 C52.0823975,69.1209717 50.7349854,68.9746094 49.647583,69.3526611 C48.5601807,69.7307129 47.135498,70.1330566 46.8598633,69.9318848 C46.5842285,69.7307129 42.1804199,66.5270996 37.0812988,65.9887695 C31.9821777,65.4504395 28.7177734,65.7561035 25.8220215,68.8780518 C25.5773926,69.213501 24.3708496,69.164917 23.7069092,68.5373535 C23.0429687,67.90979 22.4660645,66.2008509 22.4660645,65.9887695 L22.4660645,65.3826904 L22.4660645,65.3826904 C22.6211872,65.4396154 22.8233069,65.4613142 23.0724234,65.4477867 C22.660085,65.7765078 22.7353699,66.3816827 23.2986654,67.2623698 C24.3426107,68.8945313 25.7486979,68.2700195 26.6987305,67.3626302 C27.648763,66.4552409 31.0102539,65.3134766 34.7421875,65.3935547 C38.4741211,65.4736328 40.7270508,66.222819 43.2338867,67.3168945 C45.7407227,68.4109701 47.1749674,69.3250326 48.0175781,68.944987 C49.5131836,68.0348307 52.3862305,68.3994141 53.1054688,68.4947917 C53.824707,68.5901693 54.285319,67.4804688 56.667806,66.1378581 C59.050293,64.7952474 61.7045898,65.3653971 62.9083659,66.0973307 C64.1121419,66.8292643 65.6321615,68.351237 66.2029622,68.7827148 C66.773763,69.2141927 67.9075521,68.7473958 68.3958333,68.3209635 C68.8841146,67.8945313 70.1424154,65.3540039 72.5776367,63.9562174 Z" id="Combined-Shape" fill="#A37030"></path>
                <path d="M67.6619873,70.3574219 C67.3224691,70.5472819 66.8588867,70.6396891 66.2712402,70.6346436 C66.1246745,70.075236 65.8812256,69.5706787 65.5408936,69.1209717 C65.4130186,68.9520007 65.1689282,68.6331206 64.829322,68.2532163 C65.2895312,68.6190686 65.6384015,68.8921071 65.8754883,69.0725911 C66.6056315,69.628418 67.5662435,69.2895508 67.9760742,69.0725911 C68.2291197,68.9386318 68.9106314,68.2762448 70.0206091,67.0854303 C68.783322,68.8027478 68.1033954,70.1105846 67.6619873,70.3574219 Z M54.697876,68.5373535 C54.2798618,69.4466553 53.7115479,69.5843506 52.8969727,69.3526611 C52.0823975,69.1209717 50.7349854,68.9746094 49.647583,69.3526611 C48.5601807,69.7307129 47.135498,70.1330566 46.8598633,69.9318848 C46.7093558,69.8220369 45.3279946,68.8169831 43.2746732,67.8394677 C44.4945581,68.2736975 45.2819339,68.5761923 45.6373698,68.7473958 C46.3966471,69.1131185 47.5678711,69.4819336 48.1570638,69.3103841 C48.7462565,69.1388346 50.3250326,68.819987 51.112793,68.7473958 C51.9005534,68.6748047 53.6668294,68.8133138 53.9568685,68.6232096 C54.1344812,68.5067945 54.7111455,68.1103476 55.22851,67.7563928 C54.9755847,68.0472725 54.7981947,68.3191312 54.697876,68.5373535 Z" id="Combined-Shape" fill="#8D4725"></path>
                <path d="M28.9382324,51.3012695 C27.9476725,51.6961263 27.4523926,52.0181478 27.4523926,52.267334 C27.4523926,52.6411133 24.9147949,53.4746094 23.8161621,54.0061035 C22.7175293,54.5375977 18.7096354,56.2567546 22.8111979,58.1178385 C26.9127604,59.9789225 35.7976888,61.1845703 38.7347005,61.1845703 C41.6717122,61.1845703 53.8380534,58.0500488 56.3151042,57.5429688 C58.7921549,57.0358887 65.2125651,57.130778 70.328776,57.9567057 C75.444987,58.7826335 82.7124837,60.4177246 83.9720052,60.7988281 C85.2315267,61.1799316 85.6861572,60.7420654 85.8057861,60.4362793 C85.925415,60.1304932 85.9203491,57.1932484 85.8057861,56.6210938 C85.6912231,56.0489391 85.0168457,54.9077759 83.9178467,54.2157593 C82.8188477,53.5237427 79.4074707,52.0039063 76.9891357,50.2158203 C74.5708008,48.4277344 75.0476481,44.8372396 76.6774089,42.4046224 C77.763916,40.7828776 78.8837077,39.6935764 80.0367839,39.1367188 C80.6696506,39.1044651 81.1443685,39.3747559 81.4609375,39.9475911 C81.935791,40.8068441 83.8203125,42.6560059 84.1828613,42.8345947 C84.5454102,43.0131836 84.8339844,42.6071777 84.7227783,41.9099121 C84.6115723,41.2126465 83.1103516,37.9488525 81.0882568,37.1986084 C79.0661621,36.4483643 76.0758057,38.3565674 74.3685303,37.9067383 C72.6612549,37.4569092 71.4825439,36.3830566 70.3046875,33.6405029 C69.1268311,30.8979492 66.8464355,27.4302979 64.9833984,27.8586426 C63.7413737,28.1442057 63.1542969,28.4350993 63.222168,28.7313232 L62.6513672,28.9940186 C62.7490234,28.9503174 62.6813558,29.2100016 62.4483643,29.7730713 C62.098877,30.6176758 61.0490723,32.2866211 60.8165283,32.4604492 C60.661499,32.5763346 60.5100098,32.6323242 60.3620605,32.628418 L59.182251,34.3164063 L58.9326172,34.9984131 C58.6337891,35.3053792 58.3826904,35.5600586 58.1793213,35.7624512 C57.8742676,36.06604 57.5390625,36.6765137 57.6986084,37.4438477 C57.723999,37.7004395 55.6568604,38.9816895 54.6424561,39.6337891 C53.6280518,40.2858887 50.1436043,42.5100684 43.3479004,45.5947266 C36.5521965,48.6793847 31.0219727,50.7336426 30.3383789,50.982666 C29.8826497,51.1486816 29.4159342,51.2548828 28.9382324,51.3012695 Z" id="Path-12" fill="#746959"></path>
                <path d="M28.9382324,51.3012695 C27.9476725,51.6961263 27.4523926,52.0181478 27.4523926,52.267334 C27.4523926,52.6411133 24.9147949,53.4746094 23.8161621,54.0061035 C22.7175293,54.5375977 18.8134766,55.7661133 22.9150391,57.6271973 C27.0166016,59.4882813 35.8520508,60.6003418 38.7890625,60.6003418 C41.7260742,60.6003418 53.6325684,57.7209473 56.1096191,57.2138672 C58.5866699,56.7067871 65.1884766,56.8012695 70.3046875,57.6271973 C75.4208984,58.453125 82.9233398,60.2192383 84.1828613,60.6003418 C85.4423828,60.9814453 85.6861572,60.7420654 85.8057861,60.4362793 C85.925415,60.1304932 85.9203491,57.1932484 85.8057861,56.6210938 C85.6912231,56.0489391 85.0168457,54.9077759 83.9178467,54.2157593 C82.8188477,53.5237427 79.4074707,52.0039063 76.9891357,50.2158203 C74.5708008,48.4277344 74.989624,44.3425293 76.6193848,41.9099121 C77.7058919,40.2881673 78.8660889,39.2128906 80.0999756,38.684082 C80.87854,38.7686361 81.4261068,39.0973307 81.7426758,39.670166 C82.2175293,40.5294189 83.8203125,42.6560059 84.1828613,42.8345947 C84.5454102,43.0131836 84.8339844,42.6071777 84.7227783,41.9099121 C84.6115723,41.2126465 83.1103516,37.9488525 81.0882568,37.1986084 C79.0661621,36.4483643 76.0758057,38.3565674 74.3685303,37.9067383 C72.6612549,37.4569092 71.4825439,36.3830566 70.3046875,33.6405029 C69.1268311,30.8979492 66.8464355,27.4302979 64.9833984,27.8586426 C63.7413737,28.1442057 63.1542969,28.4350993 63.222168,28.7313232 L62.6513672,28.9940186 C62.7490234,28.9503174 62.6813558,29.2100016 62.4483643,29.7730713 C62.098877,30.6176758 61.0490723,32.2866211 60.8165283,32.4604492 C60.661499,32.5763346 60.5100098,32.6323242 60.3620605,32.628418 L59.182251,34.3164063 L58.9326172,34.9984131 C58.6337891,35.3053792 58.3826904,35.5600586 58.1793213,35.7624512 C57.8742676,36.06604 57.5390625,36.6765137 57.6986084,37.4438477 C57.723999,37.7004395 55.6568604,38.9816895 54.6424561,39.6337891 C53.6280518,40.2858887 50.1436043,42.5100684 43.3479004,45.5947266 C36.5521965,48.6793847 31.0219727,50.7336426 30.3383789,50.982666 C29.8826497,51.1486816 29.4159342,51.2548828 28.9382324,51.3012695 Z" id="Path-12" fill="#E7E5DB"></path>
                <path d="M29.7303874,51.1359049 C29.6851038,52.0936716 29.0738441,52.7336429 28.7900391,52.8136393 C28.2625167,52.9623326 27.7250869,52.9274177 27.4112971,52.3588108 C27.4381359,52.3259496 27.4523926,52.2953504 27.4523926,52.267334 C27.4523926,52.0181478 27.9476725,51.6961263 28.9382324,51.3012695 C29.0540244,51.2900257 29.169171,51.2752674 29.283672,51.2569948 L29.7303874,51.1359049 Z" id="Path" fill="#696867"></path>
                <path d="M58.1764864,35.8019393 C58.5625295,35.5772386 58.8663808,35.4534081 58.9296875,35.5247396 C59.0914714,35.7070313 59.237793,37.6894531 58.9296875,38.2841797 C58.621582,38.8789063 54.7443034,41.2514648 53.2705078,42.1359049 C51.7967122,43.0203451 41.1067708,48.2299805 39.9498698,48.683431 C38.7929688,49.1368815 28.5488281,53.6438802 28.1803385,53.1321615 C27.9901797,52.8680893 28.5020674,52.213659 29.7160017,51.1688705 C29.9259979,51.1199677 30.1333008,51.057373 30.3383789,50.982666 C31.0219727,50.7336426 36.5521965,48.6793847 43.3479004,45.5947266 C50.1436043,42.5100684 53.6280518,40.2858887 54.6424561,39.6337891 C55.6568604,38.9816895 57.723999,37.7004395 57.6986084,37.4438477 C57.5526196,36.7417165 57.820873,36.1709204 58.1012261,35.8463974 Z" id="Combined-Shape" fill="#C4C3C0"></path>
                <path d="M65.5325521,32.4322917 C67.796875,30.7174479 71.7988281,37.2161458 71.4915365,40.9765625 C71.1842448,44.7369792 73.4973958,47.6666667 75.3066406,49.6575521 C77.1158854,51.6484375 78.2154948,52.125651 81.9772135,53.9967448 C83.637011,54.8223346 85.0236633,56.0440167 85.8675502,57.3273525 C85.9161346,58.4000767 85.8980311,60.2004898 85.8057861,60.4362793 C85.6861572,60.7420654 85.4423828,60.9814453 84.1828613,60.6003418 C82.9233398,60.2192383 75.4208984,58.453125 70.3046875,57.6271973 C65.1884766,56.8012695 58.5866699,56.7067871 56.1096191,57.2138672 C56.0105371,57.2341504 55.896368,57.2582293 55.7682893,57.2857678 L55.7496198,57.2896927 C56.2819531,55.2820052 62.8415365,52.0235677 59.7207031,50.9147135 C55.8196615,49.5286458 54.343099,45.889974 56.7259115,42.3105469 C59.108724,38.7311198 63.2682292,34.1471354 65.5325521,32.4322917 Z" id="Combined-Shape" fill="#DCDACE"></path>
                <path d="M49.8122473,56.9792036 C49.5653637,57.0342268 49.3320872,57.0861097 49.1178986,57.1335964 C48.9247007,56.6025887 48.510859,56.1776977 47.9876369,55.9675664 C47.9002526,55.9768582 47.8123929,55.9807129 47.7236328,55.9807129 C47.4292092,55.9807129 47.1446918,55.9382998 46.8758569,55.8592502 L46.8042135,55.8724302 C45.9105485,56.072316 45.2426758,56.8702724 45.2426758,57.8242187 L45.2463986,57.9609368 C44.6673119,58.0794932 44.1194681,58.18879 43.6047996,58.288365 C43.6277153,58.1727167 43.6386719,58.053092 43.6386719,57.9309082 C43.6386719,56.8263387 42.7432414,55.9309082 41.6386719,55.9309082 C40.5341024,55.9309082 39.6386719,56.8263387 39.6386719,57.9309082 C39.6386719,58.2878013 39.7321526,58.6228608 39.8959644,58.9129371 C39.4258976,58.9705051 39.0545152,59.0003418 38.7890625,59.0003418 L38.8348675,59.0002737 C38.8034153,58.9178565 38.7754926,58.833696 38.7512842,58.7479773 C38.7174529,58.8338577 38.6797708,58.9177946 38.6384508,58.9995763 C38.2837018,58.9964616 37.8931094,58.9821736 37.474102,58.9577171 C37.7767619,58.6065781 37.9614258,58.1480965 37.9614258,57.6464844 C37.9614258,56.5419149 37.0659953,55.6464844 35.9614258,55.6464844 C34.8568563,55.6464844 33.9614258,56.5419149 33.9614258,57.6464844 C33.9614258,58.0079798 34.057333,58.347075 34.2250908,58.639713 C33.5332403,58.5503613 32.8173604,58.4459661 32.0965034,58.3291298 C32.483606,58.0681266 32.7437833,57.6345078 32.791188,57.0926691 C32.855143,56.3616604 32.5062997,55.7235395 31.9300248,55.3868968 C31.4446938,55.3992324 30.9766243,55.3180652 30.5515479,55.1631129 L30.5079404,55.1683734 C29.5805215,55.3177163 28.8781801,55.9237007 28.8209903,56.5773836 C28.784339,56.9963095 29.0045577,57.4572496 29.3934492,57.834734 C28.7021351,57.6935258 28.0259756,57.5426284 27.3826142,57.3846983 C27.4503234,57.223221 27.4938423,57.0447985 27.5106412,56.8527857 C27.5770199,56.0940747 27.1987206,55.4354251 26.5829929,55.1100514 C26.2860816,55.0849886 25.9994507,55.024338 25.7290547,54.9339745 L25.7970615,54.9056077 L25.7970615,54.9056077 L25.9819332,54.8313238 C26.06686,54.7972017 26.06686,54.7972017 26.1521538,54.7628327 C26.8101831,54.4974201 27.2252999,54.3199254 27.581203,54.1428353 C27.8408206,54.013655 28.0538498,53.8912739 28.238925,53.7555524 C28.5092649,53.5573037 28.7281063,53.3497819 28.8704288,53.0809707 C28.9907767,53.0186273 29.1481808,52.9458787 29.3397472,52.8655502 C29.4460693,52.8515492 29.5519651,52.8352087 29.6574182,52.8165336 C29.6501895,52.8779927 29.6399352,52.9385895 29.6277304,52.9984169 C29.7366985,53.4623868 30.1417594,53.8882925 30.6960272,54.1429984 C30.8105174,54.1341633 30.9258956,54.131646 31.0423525,54.1345241 C31.430167,54.1441084 31.7944678,54.225905 32.1232352,54.3665794 C33.0773574,54.23868 33.703997,53.4407322 33.5843581,52.4663518 C33.5432029,52.1311696 33.4209962,51.8343112 33.2394668,51.5916542 C33.5413537,51.4742359 33.8597118,51.3491936 34.1911104,51.2180107 C34.1953762,51.2230112 34.1984405,51.2281269 34.2014894,51.2332546 L34.2179233,51.2073948 C34.517815,51.0886361 34.8282759,50.964892 35.1471387,50.8368946 C36.0160908,50.4880811 36.8990722,50.1271891 37.7926957,49.7549862 C38.5837254,49.9644655 39.2381733,50.5154121 39.5771357,51.2754746 C39.7995,50.855101 40.1202675,50.4939678 40.5082854,50.2223244 C40.1205785,49.8917924 39.8182021,49.4638018 39.6388469,48.9762011 L40.5595563,48.5796148 C40.7335366,49.0960175 41.1126,49.5181033 41.5998972,49.7490228 C41.8019345,49.7042741 42.0117274,49.6816406 42.2268066,49.6816406 C42.5426445,49.6816406 42.8470828,49.7304477 43.1329908,49.8209311 C43.9042217,49.545053 44.4553223,48.8072216 44.4553223,47.9406738 C44.4553223,47.5862911 44.363152,47.2534359 44.201476,46.9647728 C44.5107972,46.823276 44.8142501,46.6836989 45.1132229,46.5448952 C45.2189951,46.7489818 45.3036275,46.9669613 45.362031,47.1954373 C45.4568845,46.8351267 45.6175835,46.5014011 45.8304462,46.2077806 C46.7220848,45.7889882 47.5705881,45.3767605 48.3793224,44.9720745 L48.2597656,44.9680176 C48.5715353,44.9680176 48.8721972,45.0155754 49.1548926,45.1038323 C49.8532951,44.9654046 50.4199917,44.4625275 50.649677,43.8017284 C51.0934359,43.5649979 51.52275,43.3318965 51.9383525,43.1017216 C51.957517,43.0911077 51.9766014,43.0805296 51.995607,43.0699869 C51.9934323,43.0764395 51.9934082,43.0821622 51.9934082,43.0878906 C51.9934082,44.1924601 52.8888387,45.0878906 53.9934082,45.0878906 C55.0979777,45.0878906 55.9934082,44.1924601 55.9934082,43.0878906 C55.9934082,42.3307903 55.5727275,41.6719453 54.9523647,41.3323542 C55.138763,41.2156318 55.3227293,41.0985607 55.5076518,40.9796851 C55.4896509,40.9912569 55.6519455,40.8876866 55.8700134,40.7482285 C56.1694402,40.9877992 56.4208162,41.2832111 56.6095725,41.6185777 C56.8587431,41.0961017 57.2554464,40.6569371 57.7456283,40.3548447 C57.5200086,40.2430508 57.310477,40.103645 57.1214426,39.9410419 C57.4168422,39.7448435 57.6717862,39.5712145 57.8911647,39.4147465 L57.9883716,39.3442915 C58.301724,39.5480999 58.6757309,39.6665039 59.0773926,39.6665039 C60.1819621,39.6665039 61.0773926,38.7710734 61.0773926,37.6665039 C61.0773926,36.9728448 60.7242599,36.3616643 60.1879627,36.0029306 L60.3175974,35.869475 L60.605624,35.0843878 C61.0409414,35.3425873 61.4053621,35.707738 61.6626829,36.1436369 C61.9445472,35.5341045 62.4272555,35.0360361 63.0253541,34.7325211 C62.5412223,34.498367 62.1295703,34.1375818 61.8333464,33.6931279 C62.0176498,33.5346081 62.2589518,33.2357012 62.5151066,32.8704975 C62.8321857,33.5555983 63.5262886,34.0314941 64.331543,34.0314941 C65.4361125,34.0314941 66.331543,33.1360636 66.331543,32.0314941 C66.331543,30.9269246 65.4361125,30.0314941 64.331543,30.0314941 L64.2140547,30.0359395 L65.0721111,29.6412499 L65.0378639,29.4917775 C65.1317976,29.4676293 65.2332569,29.4429408 65.3419125,29.417959 C65.6360388,29.3503342 66.4240432,30.1413906 67.2609328,31.3839594 C67.3073746,31.5926343 67.331543,31.8092418 67.331543,32.0314941 C67.331543,33.20047 66.6629441,34.2132863 65.6872924,34.7083969 C66.3261458,35.0174836 66.8384393,35.5466639 67.1261683,36.1973456 C67.4518864,35.4001431 68.1124675,34.775049 68.9333179,34.4957991 C69.0758452,34.8193901 69.2209128,35.1232794 69.369174,35.4102804 C68.5220545,35.6405506 67.8999023,36.4159545 67.8999023,37.3366699 C67.8999023,38.4412394 68.7953328,39.3366699 69.8999023,39.3366699 C70.6442316,39.3366699 71.2935924,38.9300619 71.6379822,38.3268485 C71.9019857,38.5348999 72.1804037,38.7166965 72.473811,38.8752228 C72.2262072,39.2923219 71.8781292,39.6437218 71.4637168,39.8973462 C72.0168684,40.1747863 72.4724456,40.6199064 72.7641401,41.1657897 C73.1046389,40.416893 73.7450879,39.833425 74.5321092,39.5677458 C74.9977221,39.6284801 75.4561831,39.5975242 76.0877781,39.4714391 C76.1972982,39.4921746 76.3034567,39.51987 76.4071606,39.5530537 C76.169282,39.8235689 75.9369466,40.1139787 75.7091158,40.4229035 C75.6388783,40.4149006 75.5658794,40.4108887 75.4919434,40.4108887 C74.3873739,40.4108887 73.4919434,41.3063192 73.4919434,42.4108887 C73.4919434,42.9370851 73.6951517,43.4158197 74.0273737,43.7728976 C73.9254594,44.1375754 73.844862,44.5070057 73.7867199,44.8771324 C73.3947051,44.6080782 73.0706845,44.2460906 72.8447905,43.8237311 L72.8115316,43.8969607 C72.4766784,44.5797014 71.8900305,45.1165448 71.1726461,45.3864331 C71.8089605,45.666362 72.3288902,46.1626385 72.6406995,46.7817153 C72.8875967,46.3165521 73.2538562,45.9245565 73.6985924,45.6460733 C73.6661853,46.0923666 73.6673791,46.536054 73.703224,46.9710175 C73.4429357,47.3077423 73.2878418,47.7312181 73.2878418,48.190918 C73.2878418,49.1007972 73.8954355,49.8687652 74.727021,50.1112204 C75.0742411,50.6402777 75.5096067,51.1117336 76.0378964,51.5023442 C76.1177461,51.5613841 76.1988817,51.6203884 76.2813193,51.6793848 C76.098304,51.6237912 75.903002,51.59375 75.7006836,51.59375 C74.5961141,51.59375 73.7006836,52.4891805 73.7006836,53.59375 C73.7006836,54.6983195 74.5961141,55.59375 75.7006836,55.59375 C76.8052531,55.59375 77.7006836,54.6983195 77.7006836,53.59375 C77.7006836,53.1174677 77.5341988,52.6800701 77.2562494,52.3365773 C77.6577957,52.5968747 78.087677,52.8581199 78.5449761,53.1234764 C78.6159936,53.1646856 78.6949719,53.209767 78.7806908,53.2581094 L78.7805176,53.2785645 L78.7805176,53.2785645 C78.7805176,54.383134 79.6759481,55.2785645 80.7805176,55.2785645 C81.1935305,55.2785645 81.5773035,55.1533735 81.8959593,54.9388688 C82.3002663,55.1532731 82.6409635,55.3348195 82.851766,55.4496801 C82.7864362,55.5111153 82.7194727,55.5695669 82.6499925,55.624997 C83.2396901,55.9121902 83.7215289,56.3864332 84.017746,56.970698 C84.0610086,56.8914306 84.107756,56.8143375 84.1577826,56.7396233 C84.2005873,56.8184291 84.2267707,56.884506 84.2369267,56.9352277 C84.2614388,57.0576468 84.2936184,57.8312531 84.2936184,58.6297751 L84.2934406,58.8002502 L84.2934406,58.8002502 L84.2921958,58.9668273 C84.0195641,58.8911658 83.6859992,58.8038783 83.3028284,58.7075989 C83.3277713,58.5841515 83.340332,58.4562623 83.340332,58.3254395 C83.340332,57.22087 82.4449015,56.3254395 81.340332,56.3254395 C80.4179448,56.3254395 79.6413971,56.9498531 79.4103295,57.79904 C79.0917239,57.7285798 78.7647775,57.6569512 78.4336328,57.5851609 C78.5961873,56.9405379 78.9678796,56.3799296 79.4718402,55.978223 C79.0187363,55.7588699 78.6292001,55.4280544 78.3385892,55.0216601 C77.8314572,55.9583428 76.8402741,56.59375 75.7006836,56.59375 C74.4149036,56.59375 73.3180493,55.784863 72.8912335,54.6482019 C72.5483366,55.3467324 71.9413707,55.8923187 71.200435,56.1550047 C70.9791534,56.1164258 70.7654984,56.080873 70.5596798,56.047647 C69.8807023,55.9380373 69.1685278,55.8401311 68.4374578,55.7541788 C68.0604462,55.4823641 67.7502077,55.1238914 67.5342739,54.708541 C67.3853447,55.0409402 67.1773991,55.3411608 66.9237542,55.5959624 C66.3241486,55.5398427 65.7199523,55.492073 65.1171865,55.4521443 C66.0711207,55.3006937 66.7998047,54.4744572 66.7998047,53.4780273 C66.7998047,52.3734578 65.9043742,51.4780273 64.7998047,51.4780273 C63.6952352,51.4780273 62.7998047,52.3734578 62.7998047,53.4780273 C62.7998047,54.3907962 63.4112638,55.1607511 64.2469137,55.4006239 C63.6366688,55.3669476 63.0306016,55.3421917 62.4373346,55.325778 C62.2922705,55.1421244 62.1685844,54.9397607 62.0698104,54.7236267 C61.9873332,54.932451 61.8819844,55.1297667 61.7568477,55.312503 C61.2766955,55.302318 60.8091811,55.2998183 60.3565611,55.303055 C60.9140338,54.9483641 61.2827148,54.3257088 61.2827148,53.6169434 C61.2827148,52.5123739 60.3872843,51.6169434 59.2827148,51.6169434 C58.1781453,51.6169434 57.2827148,52.5123739 57.2827148,53.6169434 C57.2827148,54.3675485 57.6962086,55.0215771 58.3078364,55.3636695 C57.8094375,55.391081 57.3467895,55.4280528 56.927397,55.4745179 C56.6948846,55.1811543 56.515912,54.8413319 56.406242,54.4717084 C56.2296871,54.9496867 55.9349271,55.3702391 55.5574588,55.6979598 C55.0675305,55.8028659 53.981579,56.0459655 52.7733309,56.316678 C51.6243257,55.9923969 50.756609,55.0007838 50.6131759,53.7872986 C50.4018021,54.5488837 49.8969997,55.1881999 49.2283897,55.5766087 C49.6301505,55.9307206 49.9361507,56.3916167 50.1024281,56.9150248 Z M39.4563441,53.8345654 C39.0609315,54.5000962 38.3838473,54.972837 37.5544047,55.1056242 C38.1759588,55.4939658 38.6445739,56.1062304 38.8488135,56.8294153 C39.14933,56.0645824 39.7568313,55.4534859 40.5194661,55.1466387 C40.0502664,54.82334 39.6785464,54.3679018 39.4563441,53.8345654 Z M44.9099474,54.0238156 L44.8446864,54.1479015 C44.5118982,54.7407924 43.9835287,55.2091381 43.3470071,55.4655097 C43.8241353,55.7956807 44.2003762,56.2613893 44.4209359,56.8067309 C44.6602128,56.1388359 45.1317444,55.5804617 45.7379189,55.2283229 C45.37049,54.9047158 45.083509,54.4918062 44.9099474,54.0238156 Z M34.3264273,53.8939841 L34.3028768,53.9452047 C34.0470288,54.4415784 33.638019,54.8446337 33.1256127,55.0972212 C33.313304,55.3127485 33.4668122,55.558177 33.5796307,55.8253974 C34.0017741,55.270275 34.6160821,54.8676915 35.3233106,54.7144916 C34.9251143,54.5042102 34.5829647,54.223036 34.3264273,53.8939841 Z M53.5922852,51.4313965 C52.4877157,51.4313965 51.5922852,52.326827 51.5922852,53.4313965 C51.5922852,54.535966 52.4877157,55.4313965 53.5922852,55.4313965 C54.6968547,55.4313965 55.5922852,54.535966 55.5922852,53.4313965 C55.5922852,52.326827 54.6968547,51.4313965 53.5922852,51.4313965 Z M29.0929595,54.1302677 L29.0359486,54.2010604 C28.744009,54.536317 28.365615,54.797736 27.9264303,54.9558456 C28.0422599,55.1016475 28.1429588,55.2601617 28.2269241,55.4285784 C28.5057378,55.0293387 28.9165319,54.6973961 29.4059648,54.4694616 C29.2904799,54.364467 29.1860115,54.2505394 29.0929595,54.1302677 Z M70.1977539,51.3266602 C69.0931844,51.3266602 68.1977539,52.2220907 68.1977539,53.3266602 C68.1977539,54.4312297 69.0931844,55.3266602 70.1977539,55.3266602 C71.3023234,55.3266602 72.1977539,54.4312297 72.1977539,53.3266602 C72.1977539,52.2220907 71.3023234,51.3266602 70.1977539,51.3266602 Z M47.7236328,50.9807129 C46.6190633,50.9807129 45.7236328,51.8761434 45.7236328,52.9807129 C45.7236328,53.8219794 46.243046,54.5419304 46.9786717,54.8373653 C47.0657174,54.8280883 47.1537447,54.8242187 47.2426758,54.8242187 C47.5370905,54.8242187 47.8215997,54.8666293 48.0904275,54.9456743 C49.019894,54.7747975 49.7236328,53.9599387 49.7236328,52.9807129 C49.7236328,51.8761434 48.8282023,50.9807129 47.7236328,50.9807129 Z M41.5481338,50.8010654 L41.5141556,50.8123388 C40.7614749,51.0994571 40.2268066,51.8281096 40.2268066,52.6816406 C40.2268066,53.7862101 41.1222371,54.6816406 42.2268066,54.6816406 C43.3313761,54.6816406 44.2268066,53.7862101 44.2268066,52.6816406 C44.2268066,51.883099 43.758812,51.1938635 43.0821345,50.8732456 C42.8801944,50.9180403 42.6704015,50.9406738 42.4553223,50.9406738 C42.1391146,50.9406738 41.8343331,50.8917524 41.5481338,50.8010654 Z M36.6795855,50.6936472 C35.5310531,50.9172528 34.7338506,51.8327417 34.8320204,52.6322703 C34.9315168,53.4426037 35.9466513,54.1737734 37.128996,54.1427293 C38.2054284,54.1144661 38.9404152,53.2704244 38.8117083,52.2221912 C38.6816754,51.1631581 37.7425121,50.486708 36.6795855,50.6936472 Z M50.772619,49.6045224 L50.7002926,49.7130713 C50.4186822,50.106214 50.0444349,50.4284888 49.6094637,50.6479825 C50.2028542,51.1274797 50.6095872,51.8297834 50.7030973,52.6278297 C50.9140879,51.8605305 51.4237153,51.2172998 52.0986352,50.8290801 C51.540841,50.5675536 51.0773986,50.137257 50.772619,49.6045224 Z M56.0749691,49.4338179 C55.8097992,49.9739222 55.3899539,50.4210992 54.8730789,50.7186779 C55.6375473,51.0792394 56.2247238,51.7541575 56.468758,52.5766314 C56.6918914,51.9709094 57.1059506,51.457084 57.6377224,51.1077535 C56.9197262,50.7804823 56.3540414,50.1772414 56.0749691,49.4338179 Z M61.7567566,49.2458442 L61.7096256,49.391415 C61.4881425,50.009773 61.0694075,50.5342448 60.5292472,50.8890037 C61.18485,51.1874224 61.7132613,51.7161023 62.0127092,52.371344 C62.2339398,51.8084917 62.6231947,51.3289956 63.1179856,50.9934199 C62.4662888,50.6111364 61.97213,49.9877747 61.7567566,49.2458442 Z M72.6073678,49.5396067 L72.5775965,49.5956554 C72.3348373,50.028152 71.9880038,50.3943747 71.5710336,50.660386 C72.2290096,50.9982752 72.7448792,51.5733985 73.0073063,52.2724809 C73.2705192,51.7348063 73.6916641,51.2870758 74.210068,50.9896906 C73.512509,50.7227328 72.9410022,50.2013927 72.6073678,49.5396067 Z M67.3696977,49.6442226 L67.3332601,49.727283 C67.1021682,50.1984621 66.7511521,50.6001535 66.3200027,50.8925664 C66.8049278,51.1766631 67.2027492,51.5950044 67.4632847,52.0961465 C67.701826,51.5609482 68.0955127,51.1088661 68.5864147,50.795683 C68.0794274,50.5356857 67.6569854,50.1343618 67.3696977,49.6442226 Z M45.3530569,48.7132541 L45.3326944,48.7924021 C45.1380109,49.4511179 44.7232876,50.0154007 44.1736476,50.4001272 C44.5597339,50.7286691 44.8611974,51.1545523 45.0408656,51.6395459 C45.3279928,51.0627276 45.7976736,50.591539 46.3739347,50.3007479 C45.8799519,49.9016468 45.5152997,49.3479518 45.3530569,48.7132541 Z M64.6381836,46.407959 C63.5336141,46.407959 62.6381836,47.3033895 62.6381836,48.407959 C62.6381836,49.5125285 63.5336141,50.407959 64.6381836,50.407959 C65.7427531,50.407959 66.6381836,49.5125285 66.6381836,48.407959 C66.6381836,47.3033895 65.7427531,46.407959 64.6381836,46.407959 Z M58.8845215,46.3796387 C57.779952,46.3796387 56.8845215,47.2750692 56.8845215,48.3796387 C56.8845215,49.4842082 57.779952,50.3796387 58.8845215,50.3796387 C59.989091,50.3796387 60.8845215,49.4842082 60.8845215,48.3796387 C60.8845215,47.2750692 59.989091,46.3796387 58.8845215,46.3796387 Z M69.9597168,46.1293945 C68.8551473,46.1293945 67.9597168,47.024825 67.9597168,48.1293945 C67.9597168,49.233964 68.8551473,50.1293945 69.9597168,50.1293945 C71.0642863,50.1293945 71.9597168,49.233964 71.9597168,48.1293945 C71.9597168,47.024825 71.0642863,46.1293945 69.9597168,46.1293945 Z M53.378418,46.1169434 C52.2738485,46.1169434 51.378418,47.0123739 51.378418,48.1169434 C51.378418,49.2215129 52.2738485,50.1169434 53.378418,50.1169434 C54.4829875,50.1169434 55.378418,49.2215129 55.378418,48.1169434 C55.378418,47.0123739 54.4829875,46.1169434 53.378418,46.1169434 Z M47.8648828,46.0092048 L47.8213034,46.0162291 C46.9276384,46.2161148 46.2597656,47.0140712 46.2597656,47.9680176 C46.2597656,49.0725871 47.1551961,49.9680176 48.2597656,49.9680176 C49.3643351,49.9680176 50.2597656,49.0725871 50.2597656,47.9680176 C50.2597656,47.1432315 49.7605037,46.4350542 49.0477082,46.1292143 C48.9527801,46.1404233 48.8569317,46.1450195 48.7600098,46.1450195 C48.4482401,46.1450195 48.1475782,46.0974617 47.8648828,46.0092048 Z M61.9786721,44.2929191 L61.9352626,44.3769054 C61.5808821,45.0082647 61.0047173,45.4983929 60.3123433,45.741715 C61.0097878,46.118661 61.5405456,46.7652728 61.7659485,47.5417534 C62.0496608,46.5963327 62.7884728,45.8473211 63.7279832,45.5485236 C63.0004073,45.3610449 62.3806116,44.9049172 61.9786721,44.2929191 Z M56.7006463,44.3789404 L56.6884847,44.4072146 C56.3902669,45.0152585 55.8923368,45.5075832 55.2802072,45.798676 C55.6847313,46.1286475 56.0008078,46.5641798 56.1879704,47.0627641 C56.5320682,46.3597818 57.1433165,45.810822 57.889561,45.5485682 C57.3913718,45.2796453 56.9782023,44.8725286 56.7006463,44.3789404 Z M67.3149103,43.6529046 C66.9993073,44.536162 66.2894323,45.2238502 65.3992412,45.5073094 C66.1765705,45.7086527 66.8308108,46.2157472 67.2276129,46.8921252 C67.5529968,46.1704917 68.1575853,45.6012295 68.9035258,45.3205981 C68.1763823,45.0004651 67.6011835,44.398303 67.3149103,43.6529046 Z M51.3922558,44.5835623 L51.3778895,44.6112804 C51.1153061,45.0790953 50.7309568,45.4693703 50.2677907,45.7391563 C50.5033018,45.9512345 50.705761,46.2013641 50.8649851,46.4794261 C51.1655838,46.017918 51.590304,45.6445539 52.091619,45.406158 C51.8116271,45.1783893 51.5740647,44.8990686 51.3922558,44.5835623 Z M59.3173828,40.9106445 C58.2128133,40.9106445 57.3173828,41.806075 57.3173828,42.9106445 C57.3173828,44.015214 58.2128133,44.9106445 59.3173828,44.9106445 C60.4219523,44.9106445 61.3173828,44.015214 61.3173828,42.9106445 C61.3173828,41.806075 60.4219523,40.9106445 59.3173828,40.9106445 Z M64.4880371,40.6481934 C63.3834676,40.6481934 62.4880371,41.5436239 62.4880371,42.6481934 C62.4880371,43.7527629 63.3834676,44.6481934 64.4880371,44.6481934 C65.5926066,44.6481934 66.4880371,43.7527629 66.4880371,42.6481934 C66.4880371,41.5436239 65.5926066,40.6481934 64.4880371,40.6481934 Z M70.1164551,40.5776367 C69.0118856,40.5776367 68.1164551,41.4730672 68.1164551,42.5776367 C68.1164551,43.6822062 69.0118856,44.5776367 70.1164551,44.5776367 C71.2210246,44.5776367 72.1164551,43.6822062 72.1164551,42.5776367 C72.1164551,41.4730672 71.2210246,40.5776367 70.1164551,40.5776367 Z M67.1548376,38.5487481 L67.1453486,38.5771592 C66.892284,39.1754713 66.4506388,39.6745998 65.8949256,40.0000323 C66.5302923,40.3358358 67.0297411,40.8956219 67.2899667,41.573928 C67.520256,40.9210236 67.9715732,40.372269 68.5536343,40.0163526 C67.9333604,39.7062448 67.436501,39.1857128 67.1548376,38.5487481 Z M61.7958132,38.9322909 L61.7724691,38.9858279 C61.5218383,39.4968454 61.1301466,39.9261281 60.6481555,40.2229146 C61.1275433,40.4588128 61.5345381,40.8210996 61.8265726,41.2656521 C62.0865226,40.762884 62.4859848,40.3437534 62.973209,40.0581743 C62.4846507,39.7991014 62.0765105,39.4077893 61.7958132,38.9322909 Z M64.3811035,35.4094238 C63.276534,35.4094238 62.3811035,36.3048543 62.3811035,37.4094238 C62.3811035,38.5139933 63.276534,39.4094238 64.3811035,39.4094238 C65.485673,39.4094238 66.3811035,38.5139933 66.3811035,37.4094238 C66.3811035,36.3048543 65.485673,35.4094238 64.3811035,35.4094238 Z" id="Combined-Shape" fill="#CDC9C4" fill-rule="nonzero"></path>
                <path d="M35.8242537,56.4183547 L36.0323954,56.6063175 L36.4011184,56.9769942 L37.1469727,57.5283203 L36.894024,57.746648 L36.4379883,58.1029829 L35.8242537,58.7395463 L35.2271626,58.084058 L34.5015348,57.6295806 L34.7544834,57.4632836 L35.2105191,57.1376482 L35.8242537,56.4183547 Z M41.7296792,56.7222494 L41.9613342,56.9188631 L42.3717111,57.3066001 L43.2018229,57.8833008 L42.9202992,58.1116769 L42.4127462,58.484412 L42.3768093,58.5188745 C41.9925281,58.5884984 41.6328063,58.6509869 41.2987894,58.7060659 L41.065136,58.4646161 L40.2575356,57.9892216 L40.5390593,57.8152708 L41.0466123,57.4746481 L41.7296792,56.7222494 Z M81.2137287,57.1504149 L81.4453837,57.4319387 L81.8557606,57.9394917 L82.573335,58.5278987 C81.9467706,58.376233 81.2323546,58.2093464 80.4632731,58.0349569 L80.5306618,57.9805267 L81.2137287,57.1504149 Z M30.7993514,55.883371 L31.007493,56.0713338 L31.3762161,56.4420105 L32.1220703,56.9933366 L31.8691216,57.2116643 L31.413086,57.5679992 L30.8797208,58.120799 C30.8169948,58.1094801 30.7543056,58.0980768 30.6916644,58.0865906 L30.2022603,57.5490743 L29.4766324,57.0945969 L29.7295811,56.9282999 L30.1856167,56.6026645 L30.7993514,55.883371 Z M25.5729516,55.3754069 L25.7810933,55.5720207 L26.1498163,55.9597577 L26.8956706,56.5364583 L26.6427219,56.7648344 L26.2446697,57.0880642 C25.579618,56.9035167 24.9677361,56.7118884 24.4318085,56.5161743 L24.5031814,56.4684283 L24.959217,56.1278057 L25.5729516,55.3754069 Z M59.1845946,52.2311034 L59.4162496,52.5126271 L59.8266265,53.0201802 L60.6567383,53.7032471 L60.3752145,53.9349021 L59.8676615,54.3452789 L59.1845946,55.1753908 L58.5200514,54.3677903 L57.7124509,53.7032471 L57.9939747,53.4715921 L58.5015277,53.0612152 L59.1845946,52.2311034 Z M64.7782225,52.2240233 L65.0098775,52.5055471 L65.4202544,53.0131001 L66.2503662,53.696167 L65.9688425,53.927822 L65.4612894,54.3381989 L64.7782225,55.1683107 L64.1136793,54.3607102 L63.3060789,53.696167 L63.5876026,53.464512 L64.0951556,53.0541351 L64.7782225,52.2240233 Z M70.2015624,52.1275878 L70.4332174,52.4091115 L70.8435942,52.9166645 L71.6737061,53.5997314 L71.3921823,53.8313864 L70.8846293,54.2417633 L70.2015624,55.0718751 L69.5370192,54.2642746 L68.7294187,53.5997314 L69.0109424,53.3680764 L69.5184955,52.9576996 L70.2015624,52.1275878 Z M75.709619,52.1126952 L75.941274,52.3942189 L76.3516509,52.901772 L77.1817627,53.5848389 L76.900239,53.8164939 L76.3926859,54.2268707 L75.709619,55.0569825 L75.0450758,54.2493821 L74.2374753,53.5848389 L74.5189991,53.3531839 L75.0265521,52.942807 L75.709619,52.1126952 Z M53.5659423,52.0150389 L53.7975973,52.2965627 L54.2079741,52.8041157 L55.0380859,53.4871826 L54.7565622,53.7188376 L54.2490092,54.1292145 L53.5659423,54.9593263 L52.9013991,54.1517258 L52.0937986,53.4871826 L52.3753223,53.2555276 L52.8828753,52.8451508 L53.5659423,52.0150389 Z M47.7334227,51.4970946 L47.9650777,51.7786183 L48.3754546,52.2861714 L49.2055664,52.9692383 L48.9240427,53.2008933 L48.4164896,53.6112701 L47.7334227,54.441382 L47.0688795,53.6337815 L46.261279,52.9692383 L46.5428028,52.7375833 L47.0503558,52.3272064 L47.7334227,51.4970946 Z M42.2228026,51.4852989 L42.4544576,51.6819126 L42.8648345,52.0696496 L43.6949463,52.6463503 L43.4134225,52.8747264 L42.9058695,53.2474615 L42.2228026,53.9133225 L41.5582594,53.2276656 L40.7506589,52.7522711 L41.0321827,52.5783203 L41.5397357,52.2376976 L42.2228026,51.4852989 Z M36.5217843,51.1774496 L36.729926,51.3740633 L37.098649,51.7618003 L37.8445033,52.338501 L37.5915546,52.5668771 L37.1355189,52.9396122 L36.5217843,53.6054732 L35.9246932,52.9198163 L35.1990654,52.4444218 L35.452014,52.270471 L35.9080497,51.9298483 L36.5217843,51.1774496 Z M32.1994301,51.9936819 L32.2992197,52.1141925 L32.9423504,52.7620206 L32.6601324,52.905885 L32.1614195,53.108022 L31.4754205,53.4641588 L30.9928333,52.762536 L30.7188085,52.5417001 L30.8860299,52.4860217 C31.2253211,52.3624228 31.6714781,52.1954866 32.1994301,51.9936819 Z M58.870522,46.9079192 L59.1021769,47.1894429 L59.5125538,47.696996 L60.3426656,48.3800629 L60.0611419,48.6117179 L59.5535889,49.0220947 L58.870522,49.8522065 L58.2059787,49.0446061 L57.3983783,48.3800629 L57.679902,48.1484079 L58.187455,47.738031 L58.870522,46.9079192 Z M64.594214,46.8969727 L64.825869,47.1784964 L65.2362459,47.6860494 L66.0663577,48.3691163 L65.7848339,48.6007713 L65.2772809,49.0111482 L64.594214,49.84126 L63.9296708,49.0336595 L63.1220703,48.3691163 L63.4035941,48.1374613 L63.9111471,47.7270845 L64.594214,46.8969727 Z M69.9782958,46.7794432 L70.2099508,47.060967 L70.6203276,47.56852 L71.4504395,48.2515869 L71.1689157,48.4832419 L70.6613627,48.8936188 L69.9782958,49.7237306 L69.3137526,48.9161301 L68.5061521,48.2515869 L68.7876758,48.0199319 L69.2952289,47.6095551 L69.9782958,46.7794432 Z M53.4344725,46.7324462 L53.6661275,47.0139699 L54.0765044,47.5215229 L54.9066162,48.2045898 L54.6250925,48.4362448 L54.1175394,48.8466217 L53.4344725,49.6767335 L52.7699293,48.869133 L51.9623289,48.2045898 L52.2438526,47.9729348 L52.7514056,47.562558 L53.4344725,46.7324462 Z M48.1957349,46.9289558 L48.439998,47.1596698 L48.8665886,47.5756192 L49.7163289,48.1354055 L49.4186194,48.3252512 L48.8881635,48.6615629 L48.1856094,49.3418553 L47.5079419,48.6800113 L46.6650155,48.1354055 L46.9524139,47.9455599 L47.476786,47.6092482 L48.1957349,46.9289558 Z M42.9458085,47.5297001 L43.0534023,47.6549598 L43.8014072,48.2972286 L43.4953377,48.4521947 L42.9478696,48.7007131 L42.1894503,49.1891087 L41.6185344,48.4764463 L41.3185359,48.2502723 C42.2105466,47.8602894 43.108486,47.4605153 44.0092213,47.0516599 L42.9458085,47.5297001 Z M54.1681844,41.8162992 L54.5483061,42.2869852 L55.378418,42.9700521 L55.0968942,43.2017071 L54.5893412,43.6120839 L53.9062743,44.4421958 L53.2417311,43.6345953 L52.4341306,42.9700521 L52.7156543,42.7383971 L53.0234496,42.4904002 C53.4362323,42.2533459 53.8120263,42.0317217 54.1681844,41.8162992 Z M59.2630451,41.4175048 L59.4947001,41.6990285 L59.905077,42.2065815 L60.7351888,42.8896484 L60.4536651,43.1213034 L59.946112,43.5316803 L59.2630451,44.3617921 L58.5985019,43.5541916 L57.7909014,42.8896484 L58.0724252,42.6579934 L58.5799782,42.2476166 L59.2630451,41.4175048 Z M64.3608641,41.2868081 L64.5925191,41.5683319 L65.002896,42.0758849 L65.8330078,42.7589518 L65.5514841,42.9906068 L65.043931,43.4009837 L64.3608641,44.2310955 L63.6963209,43.423495 L62.8887205,42.7589518 L63.1702442,42.5272968 L63.6777972,42.11692 L64.3608641,41.2868081 Z M70.1587157,41.1565998 L70.3903707,41.4381235 L70.8007476,41.9456766 L71.6308594,42.6287435 L71.3493356,42.8603985 L70.8417826,43.2707753 L70.1587157,44.1008872 L69.4941725,43.2932867 L68.686572,42.6287435 L68.9680958,42.3970885 L69.4756488,41.9867116 L70.1587157,41.1565998 Z M74.9888063,41.5005786 C74.7638449,41.8855182 74.5664027,42.2864383 74.3975526,42.6977985 L74.0075356,42.3769531 L74.2890593,42.1452981 L74.7966123,41.7349213 Z M59.4810996,36.7232495 L59.7048817,36.9974344 L60.5349935,37.6805013 L60.2534698,37.9121563 L59.7459167,38.3225332 L59.0628498,39.152645 L58.7242031,38.7408572 C58.8204299,38.6439774 58.9058298,38.5448464 58.9850194,38.4301394 C59.2026695,38.1148711 59.3387842,37.770885 59.290832,37.2862917 C59.2440926,37.0170767 59.2755018,36.9288499 59.307966,36.8965417 C59.3625198,36.8422497 59.4202267,36.7844898 59.4810996,36.7232495 Z M64.2138915,35.8677001 L64.4455465,36.1492238 L64.8559233,36.6567768 L65.6860352,37.3398438 L65.4045114,37.5714987 L64.8969584,37.9818756 L64.2138915,38.8119874 L63.5493483,38.004387 L62.7417478,37.3398438 L63.0232715,37.1081888 L63.5308246,36.6978119 L64.2138915,35.8677001 Z M69.7765407,36.1425644 C70.1443503,36.754581 70.5343372,37.2749946 70.9574012,37.7142308 L70.8002787,37.8407623 L70.1172118,38.6708741 L69.4526686,37.8632737 L68.6450681,37.1987305 L68.9265918,36.9670755 L69.4341449,36.5566986 Z" id="Combined-Shape" fill="#D0CDC4" fill-rule="nonzero"></path>
                <path d="M81.2137287,57.1504149 L81.4453837,57.4319387 L81.8557606,57.9394917 L82.573335,58.5278987 L82.3957831,58.4850781 C82.0468491,58.4012259 81.6729289,58.3130989 81.2793344,58.2219323 C81.0160577,58.1609495 80.7432887,58.0984505 80.4632731,58.0349569 L80.5306618,57.9805267 L81.2137287,57.1504149 Z M60.6235241,53.6758665 L60.6567383,53.7032471 L60.3752145,53.9349021 L59.8676615,54.3452789 L59.1845946,55.1753908 L58.5200514,54.3677903 L58.1818577,54.088758 C59.0649818,53.9412074 59.8887659,53.8061486 60.6235241,53.6758665 Z M64.8874047,52.3559129 L65.0098775,52.5055471 L65.4202544,53.0131001 L66.2503662,53.696167 L65.9688425,53.927822 L65.4612894,54.3381989 L64.7782225,55.1683107 L64.1136793,54.3607102 L63.3060789,53.696167 L63.5876026,53.464512 L64.0951556,53.0541351 L64.4820616,52.5848991 C64.6303756,52.5110715 64.7664678,52.4350759 64.8874047,52.3559129 Z M70.2015624,52.1275878 L70.4332174,52.4091115 L70.8435942,52.9166645 L71.6737061,53.5997314 L71.3921823,53.8313864 L70.8846293,54.2417633 L70.2015624,55.0718751 L69.5370192,54.2642746 L68.7294187,53.5997314 L69.0109424,53.3680764 L69.5184955,52.9576996 L70.2015624,52.1275878 Z M75.3196615,53.0449219 C75.8096306,53.382822 76.3024183,53.6659263 76.7955029,53.9023202 L76.3926859,54.2268707 L75.709619,55.0569825 L75.0450758,54.2493821 L74.2374753,53.5848389 L74.5189991,53.3531839 L75.0265521,52.942807 L75.0812172,52.8757542 C75.1592306,52.9326998 75.2387102,52.989095 75.3196615,53.0449219 Z M64.594214,46.8969727 L64.825869,47.1784964 L65.2362459,47.6860494 L66.0663577,48.3691163 L65.7848339,48.6007713 L65.2772809,49.0111482 L64.594214,49.84126 L63.9296708,49.0336595 L63.1220703,48.3691163 L63.4035941,48.1374613 L63.9111471,47.7270845 L64.594214,46.8969727 Z M69.9782958,46.7794432 L70.2099508,47.060967 L70.6203276,47.56852 L71.4504395,48.2515869 L71.1689157,48.4832419 L70.6613627,48.8936188 L69.9782958,49.7237306 L69.3137526,48.9161301 L68.5061521,48.2515869 L68.7876758,48.0199319 L69.2952289,47.6095551 L69.9782958,46.7794432 Z M59.6125129,41.845156 L59.905077,42.2065815 L60.7351888,42.8896484 L60.4536651,43.1213034 L59.946112,43.5316803 L59.2630451,44.3617921 L58.7047428,43.6845232 C58.8693755,43.0525734 59.1960038,42.432815 59.6125129,41.845156 Z M64.3608641,41.2868081 L64.5925191,41.5683319 L65.002896,42.0758849 L65.8330078,42.7589518 L65.5514841,42.9906068 L65.043931,43.4009837 L64.3608641,44.2310955 L63.6963209,43.423495 L62.8887205,42.7589518 L63.1702442,42.5272968 L63.6777972,42.11692 L64.3608641,41.2868081 Z M70.1587157,41.1565998 L70.3903707,41.4381235 L70.8007476,41.9456766 L71.6308594,42.6287435 L71.3493356,42.8603985 L70.8417826,43.2707753 L70.1587157,44.1008872 L69.4941725,43.2932867 L68.686572,42.6287435 L68.9680958,42.3970885 L69.4756488,41.9867116 L70.1587157,41.1565998 Z M64.8166257,36.607805 L64.8559233,36.6567768 L65.6860352,37.3398438 L65.4045114,37.5714987 L64.8969584,37.9818756 L64.2138915,38.8119874 L63.5493483,38.004387 L63.5390222,37.9954684 C63.9863907,37.5563355 64.4155257,37.0919786 64.8166257,36.607805 Z M70.455157,38.2616851 L70.1172118,38.6708741 L69.4526686,37.8632737 L68.6450681,37.1987305 L68.9265918,36.9670755 L69.4341449,36.5566986 L69.451665,36.5348125 C69.678451,37.2271328 70.0275163,37.7995037 70.455157,38.2616851 Z" id="Combined-Shape" fill="#C4C2BD" fill-rule="nonzero"></path>
                <path d="M82.5112305,46.2872314 C82.5268555,44.232666 81.4680176,42.7736816 79.855835,42.8735352 C78.2436523,42.9733887 77.6154785,44.9710693 77.9313965,46.7624512 C78.2473145,48.553833 79.6784668,48.8032227 80.3391113,48.7735596 C80.9997559,48.7438965 82.4956055,48.3417969 82.5112305,46.2872314 Z" id="Path-13" fill="#172B0F"></path>
                <path d="M81.7942708,45.9601237 C81.8243001,44.6646322 80.7755534,43.2763672 79.8470866,43.4106445 C78.9186198,43.5449219 78.1486816,45.1426595 78.3378092,46.3838704 C78.5269368,47.6250814 79.5923665,48.171875 80.2757161,48.1730154 C80.9590658,48.1741536 81.7642415,47.2556152 81.7942708,45.9601237 Z" id="Path-13" fill="#073921"></path>
                <path d="M79.855835,42.8735352 C80.0218997,42.8632496 80.1820934,42.8695038 80.3358464,42.8912449 C80.3450816,43.7952397 79.9918276,44.3227285 79.3352323,44.3024353 C78.8974512,44.2889049 78.6429244,43.9364411 78.519646,43.5899494 C78.8447472,43.1777891 79.2895984,42.9086061 79.855835,42.8735352 Z" id="Combined-Shape" fill="#D7E3E1"></path>
                <path d="M82.5112305,46.2872314 C82.5268555,44.232666 81.4680176,42.7736816 79.855835,42.8735352 C78.2436523,42.9733887 77.6154785,44.9710693 77.9313965,46.7624512 C78.2473145,48.553833 79.6784668,48.8032227 80.3391113,48.7735596 C80.9997559,48.7438965 82.4956055,48.3417969 82.5112305,46.2872314 Z M82.9112189,46.2902734 C82.8967343,48.1948859 81.732891,49.1113816 80.3570533,49.173157 C79.0471134,49.2319736 77.8348466,48.5181362 77.5374752,46.8319209 C77.1513161,44.6422434 78.0433899,42.5850258 79.8311076,42.4743002 C81.6834505,42.3595719 82.9286882,43.9931918 82.9112189,46.2902734 Z" id="Path-13" fill="#805529" fill-rule="nonzero"></path>
                <path d="M82.0957473,47.825265 L82.0335539,47.9145408 C81.5336727,48.5815062 80.7638114,48.7544904 80.3391113,48.7735596 C79.6784668,48.8032227 78.2473145,48.553833 77.9313965,46.7624512 L77.9713965,46.9544512 L78.0259548,46.9469808 C79.5254907,46.7654345 80.8820883,47.0581959 82.0957473,47.825265 Z" id="Combined-Shape" fill="#425F5A"></path>
                <path d="M64.9833984,27.8586426 C66.8464355,27.4302979 69.1268311,30.8979492 70.3046875,33.6405029 C71.4825439,36.3830566 72.6612549,37.4569092 74.3685303,37.9067383 C76.0758057,38.3565674 79.0661621,36.4483643 81.0882568,37.1986084 C83.1103516,37.9488525 84.6115723,41.2126465 84.7227783,41.9099121 C84.8339844,42.6071777 84.5454102,43.0131836 84.1828613,42.8345947 C83.8203125,42.6560059 82.2175293,40.5294189 81.7426758,39.670166 C81.4261068,39.0973307 80.87854,38.7686361 80.0999756,38.684082 C80.0304232,38.7138902 79.9611049,38.7454347 79.8920207,38.7787156 C78.9123207,38.7242813 77.4300092,39.0176993 76.1791992,39.2083333 C74.7161458,39.4313151 71.6652018,39.7711589 69.6941732,36.007487 C67.7231445,32.2438151 65.8056641,30.2721354 64.890625,30.5955404 C63.9755859,30.9189453 61.9778646,33.3966471 61.3867188,34.3424479 C60.7955729,35.2882487 60.2247721,36.7177734 59.5600586,37.2804362 C58.8953451,37.843099 57.9462891,38.4319661 57.5885417,38.4052734 C57.4252759,38.3930916 57.250671,38.2714841 57.0647268,38.0404508 C57.4475881,37.759764 57.707716,37.5358869 57.6986084,37.4438477 C57.5390625,36.6765137 57.8742676,36.06604 58.1793213,35.7624512 C58.3826904,35.5600586 58.6337891,35.3053792 58.9326172,34.9984131 L58.9326172,34.9984131 L59.182251,34.3164063 L60.3620605,32.628418 C60.5100098,32.6323242 60.661499,32.5763346 60.8165283,32.4604492 C61.0490723,32.2866211 62.098877,30.6176758 62.4483643,29.7730713 C62.6813558,29.2100016 62.7490234,28.9503174 62.6513672,28.9940186 L62.6513672,28.9940186 L63.222168,28.7313232 C63.1542969,28.4350993 63.7413737,28.1442057 64.9833984,27.8586426 Z" id="Combined-Shape" fill="#CFCDC2"></path>
                <path d="M69.4537949,31.9011325 L69.5115684,32.0066203 C68.3230553,30.4638742 66.6910043,28.7243286 66.5017904,28.5691732 C66.2657878,28.375651 64.8640951,28.2001953 64.4072266,28.2485352 C64.1026476,28.2807617 63.4755317,28.7606879 62.5258789,29.6883138 C62.5140215,29.6812512 62.5022608,29.6741738 62.490597,29.6670817 L62.4483643,29.7730713 C62.6619398,29.2569241 62.7365974,28.9957049 62.672337,28.9894138 L62.6513672,28.9940186 L63.222168,28.7313232 C63.1542969,28.4350993 63.7413737,28.1442057 64.9833984,27.8586426 C66.4642741,27.5181634 68.2088456,29.6392571 69.4537949,31.9011325 Z" id="Combined-Shape" fill="#F6F5EC"></path>
                <path d="M65.4550781,28.7421875 C66.3704427,28.9637044 67.6388346,29.8767904 68.3473307,30.7705078 C68.7379767,31.26328 69.4465522,32.3458192 70.473057,34.0181255 C71.5957922,36.4837325 72.7424059,37.4782907 74.3685303,37.9067383 C76.0758057,38.3565674 79.0661621,36.4483643 81.0882568,37.1986084 C83.1103516,37.9488525 84.6115723,41.2126465 84.7227783,41.9099121 C84.7794788,42.2654258 84.73225,42.545222 84.6242771,42.7104195 C84.5624372,42.2395916 84.3974678,41.7263394 84.1313477,41.1704102 C83.6468099,40.1582031 82.0605469,37.5361328 80.3147786,37.5112305 C78.5690104,37.4863281 76.3198242,38.2796224 75.3448893,38.2576497 C74.3699544,38.2356771 72.1157227,37.9104818 70.7252604,35.4295247 C69.3347982,32.9485677 68.008138,30.8414714 67.241862,30.1940104 C66.4755859,29.5465495 65.7825521,29.0974935 65.086263,29.1422526 C64.389974,29.1870117 63.4545898,29.9915365 63.0418294,30.5463867 C62.7666558,30.9162869 62.7666558,30.6627062 63.0418294,29.7856445 C64.0404188,28.9423286 64.8448351,28.5945095 65.4550781,28.7421875 Z" id="Combined-Shape" fill="#F5F4EE"></path>
                <path d="M64.0364583,30.6982422 C64.9949544,29.9005534 65.8995768,30.3185221 66.5026042,30.9620768 C67.1056315,31.6056315 67.5769857,31.6743164 69.0528971,34.2895508 C70.5288086,36.9047852 71.7486979,38.0642904 72.8429362,38.6201172 C73.9371745,39.175944 75.7636719,39.1049805 77.3907878,38.7996419 C79.0179036,38.4943034 79.8263346,38.464681 80.605957,38.7643229 C80.6740756,38.7905038 80.7376118,38.8184047 80.7967617,38.8476256 C80.5889924,38.7665498 80.3570792,38.7120041 80.0999756,38.684082 C80.0304232,38.7138902 79.9611049,38.7454347 79.8920207,38.7787156 C78.9123207,38.7242813 77.4300092,39.0176993 76.1791992,39.2083333 C74.7161458,39.4313151 71.6652018,39.7711589 69.6941732,36.007487 C67.7231445,32.2438151 65.8056641,30.2721354 64.890625,30.5955404 C63.9755859,30.9189453 61.9778646,33.3966471 61.3867187,34.3424479 C60.7955729,35.2882487 60.2247721,36.7177734 59.5600586,37.2804362 C59.3597582,37.4499852 59.1336391,37.6219137 58.9056604,37.7786619 C58.9618953,37.6459384 59.0725854,37.4951 59.2498372,37.3250326 C60.3260091,36.2924805 60.5430406,35.4565382 60.8769531,34.8517253 C62.0622204,32.7048607 63.5379112,31.1131478 64.0364583,30.6982422 Z" id="Combined-Shape" fill="#928879"></path>
                <path d="M63.5075684,29.1908366 C63.4966634,29.4265137 62.4157715,31.5926921 62.1332194,31.9955241 C61.8506673,32.3983561 61.0891113,33.5211589 60.7766927,33.8747559 C60.4642741,34.2283529 60.3199056,34.4290365 59.9763997,34.620931 C59.6328939,34.8128255 59.1264648,35.2775065 58.9748535,35.2871094 C58.9344238,35.2896701 58.8660428,35.2556771 58.7697103,35.1851302 L58.7590479,35.1763184 L58.7590479,35.1763184 L58.9326172,34.9984131 L59.182251,34.3164063 L60.3620605,32.628418 C60.5100098,32.6323242 60.661499,32.5763346 60.8165283,32.4604492 C61.0490723,32.2866211 62.098877,30.6176758 62.4483643,29.7730713 C62.6619398,29.2569241 62.7365974,28.9957049 62.672337,28.9894138 L62.6513672,28.9940186 L62.9837213,28.8416566 C63.3382757,28.9594024 63.5128914,29.0757957 63.5075684,29.1908366 Z" id="Combined-Shape" fill="#262327"></path>
                <path d="M65.1977539,33.2071126 C65.52889,32.9102376 65.5752767,32.0365397 65.0989583,31.9772949 C64.62264,31.9180501 63.9444173,32.5092773 63.9960938,32.9659017 C64.0477702,33.422526 64.8666178,33.5039876 65.1977539,33.2071126 Z" id="Path-21" fill="#575151"></path>
                <path d="M61.8628743,35.566569 C62.3175184,35.3962131 62.5455479,35.1953396 62.5469628,34.9639486 C62.5490723,34.616862 62.0313314,34.2775065 61.6180013,34.3064779 C61.2046712,34.3354492 59.3091634,35.0614421 58.7137044,35.3103027 C58.1182454,35.5591634 57.6671549,36.863444 57.7286784,37.3424479 C57.717041,37.5695801 58.6687012,36.7596029 58.9193522,36.605306 C59.1700033,36.4510091 59.2546387,36.1748861 60.2258301,35.8566081 C60.873291,35.6444227 61.4189724,35.5477431 61.8628743,35.566569 Z" id="Path-23" fill="#EDEAE5"></path>
                <path d="M62.3979884,34.6317853 C62.4902257,34.7326484 62.5476683,34.8478661 62.5469628,34.9639486 C62.5455479,35.1953396 62.3175184,35.3962131 61.8628743,35.566569 C61.4189724,35.5477431 60.873291,35.6444227 60.2258301,35.8566081 C59.2546387,36.1748861 59.1700033,36.4510091 58.9193522,36.605306 C58.6687012,36.7596029 57.717041,37.5695801 57.7286784,37.3424479 L57.7381684,37.3705381 C58.3284707,36.8791307 58.6730721,36.5371528 58.7719727,36.3446045 C58.9282633,36.0403239 59.5852051,35.6627197 59.8962809,35.5708415 C60.2073568,35.4789632 61.6532389,35.1740316 61.9370931,35.1357015 C62.1263292,35.1101481 62.2862278,34.9264459 62.4167887,34.5845947 Z" id="Combined-Shape" fill="#94918A"></path>
            </g>
        </g>
    </g>
</svg>