<?xml version="1.0" encoding="UTF-8"?>
<svg width="96px" height="96px" viewBox="0 0 96 96" version="1.1" xmlns="http://www.w3.org/2000/svg" xmlns:xlink="http://www.w3.org/1999/xlink">
    <title>Air Jordan XXXIII PF</title>
    <defs>
        <rect id="path-1" x="0" y="0" width="96" height="96"></rect>
    </defs>
    <g id="icon" stroke="none" stroke-width="1" fill="none" fill-rule="evenodd">
        <g id="画板" transform="translate(-738.000000, -230.000000)">
            <g id="Air-Jordan-XXXIII-PF" transform="translate(738.000000, 230.000000)">
                <g id="#" opacity="0">
                    <use fill="#FFFFFF" fill-rule="evenodd" xlink:href="#path-1"></use>
                    <rect stroke-opacity="0.5" stroke="#DDDDDD" stroke-width="6" stroke-linejoin="square" x="3" y="3" width="90" height="90"></rect>
                    <rect stroke-opacity="0.507785184" stroke="#DDDDDD" stroke-width="12" stroke-linejoin="square" x="6" y="6" width="84" height="84"></rect>
                    <rect stroke-opacity="0.319406703" stroke="#979797" stroke-width="10" stroke-linejoin="square" x="5" y="5" width="86" height="86"></rect>
                </g>
                <path d="M62.8439732,18.6473214 C63.8243469,18.917295 64.3975789,20.2414487 63.0125616,23.7802231 L62.8439732,24.1984375 C61.8502232,26.5962153 60.9496121,28.1229468 60.1421399,28.7786319 L59.9705357,28.9058036 C59.6808408,29.0848214 59.6321987,29.4500744 59.8246094,30.0015625 C60.1132254,30.8287946 61.0016741,32.7535714 61.4723214,34.3791295 L61.9681775,36.1285322 C62.2967324,37.3176277 62.5836124,38.4329055 62.6029576,38.7575335 C62.6223028,39.0821615 62.6499256,39.3389881 62.6858259,39.5280134 C63.5103051,39.4628348 64.299349,39.6501302 65.0529576,40.0898996 C66.1833705,40.7495536 68.6546317,42.5013393 69.9488281,43.0629464 C71.2430246,43.6245536 74.0473772,44.3554129 75.1999442,42.8898996 L75.8492784,42.040235 C76.903483,40.6299511 78.0853466,38.9286535 78.2989955,38.6496094 C78.4719494,38.4237165 79.2582403,37.7904948 80.6578683,36.7499442 L80.5889335,36.1833252 C80.5330671,35.6790213 80.5164062,35.3616629 80.5389509,35.23125 L80.6156711,34.9708203 C80.8480974,34.2651555 81.5262663,32.4613324 81.6765625,32.1498326 C81.8541853,31.7816964 82.3635045,30.9806362 82.8647879,30.6636719 C83.3660714,30.3467076 84.2204241,30.309096 84.5560268,30.4828683 C84.8916295,30.6566406 85.661942,31.1691964 85.5758371,31.7810826 L85.4756593,32.5851893 C85.3898624,33.218564 85.246782,33.9848586 84.9308594,34.5139509 C84.9670201,34.7203869 84.8705171,35.0136719 84.6413504,35.3938058 C84.7515811,35.8224516 84.7515811,36.1102493 84.6413504,36.2571987 L84.514624,36.405385 C84.3438442,36.5915458 84.040904,36.8916295 83.6058036,37.3056362 L83.0101066,38.5416729 C82.7130436,39.142635 82.5042274,39.5334933 82.3836581,39.7142477 L82.3373884,39.7788504 C82.0921875,40.0892857 82.0513951,40.2547433 82.0545759,40.5503906 C82.0577567,40.8460379 81.5554687,42.259375 81.5160156,42.7877232 C81.4765625,43.3160714 81.3538504,43.7982143 81.2479911,43.8710938 C81.3612807,44.0166155 81.9291946,48.3893828 81.9425948,49.1717337 L81.9399554,49.2642857 C81.8921903,49.6470424 82.3692552,52.3546431 82.4095695,55.1166709 L82.4121652,55.5529018 C82.4173735,55.8511905 82.2981771,57.8075149 82.0545759,61.421875 C76.4180093,62.6112689 70.992082,63.3159866 65.776794,63.5360279 L61.6517277,63.6443099 C54.8840229,63.7858306 41.9398458,64.0073701 22.8191964,64.3089286 L15.2097312,62.9981994 C13.1027576,62.6247073 11.9007788,62.3950248 11.6037946,62.3091518 C11.0469494,62.1481399 10.7717512,61.852381 10.7780893,61.421875 C11.0001738,59.9901786 12.1035714,58.9794643 14.0883929,58.3897321 L18.3431809,57.0720043 C22.6851991,55.7035629 28.4051077,53.8581014 29.2118304,53.5314732 C30.3546875,53.06875 30.8212054,52.1042411 31.6515625,51.803125 C32.2051339,51.602381 33.055506,51.5069196 34.2026786,51.5167411 L37.0901786,50.1189732 L37.2690848,49.2642857 L40.2788595,47.6095889 C40.801432,47.3292635 41.1235404,47.1645702 41.2451847,47.1155091 L41.4581312,47.0499286 C41.730317,46.9696786 42.1609598,46.8867857 42.6641741,47.3169643 C42.9582961,47.0983631 43.2774926,46.8790551 43.6217634,46.6590402 L43.4745536,46.321317 L44.7097098,45.6066895 L46.1078365,44.3662752 C47.976817,42.6910789 49.1934756,41.5207729 49.7578125,40.8553571 C50.7996652,39.6268973 55.5741071,29.3756696 55.8341518,28.2506696 C56.0941964,27.1256696 56.7200893,25.9198661 57.8761161,26.1921875 L58.0493827,25.2401402 C58.2942941,23.9498744 58.7611607,21.8401228 59.5131696,20.6674107 C60.5158482,19.1037946 61.8258929,18.3669643 62.8439732,18.6473214 Z M83.4111328,31.0528429 C83.4938151,31.0421007 84.8968099,31.6976997 84.6148003,32.5641276 C84.426794,33.1417462 84.0970414,33.791956 83.6255425,34.5147569 L83.6255425,34.5147569 L83.6255425,34.9752604 L81.9703776,35.930447 L82.2411966,34.023769 C82.303554,33.6113301 82.3580224,33.2756981 82.4046021,33.0168728 L82.4046021,33.0168728 L82.4960937,32.5641276 C82.6524523,31.9178602 83.3284505,31.0635851 83.4111328,31.0528429 Z M61.132921,19.8949653 C62.5495877,18.2105035 63.1678602,19.4290365 63.2111545,20.4441189 C63.2477881,21.3030349 62.5698438,23.0396744 62.1383869,23.9650079 L62.1383869,23.9650079 L61.9332682,24.3791233 C61.8569291,24.5205666 61.7208157,24.7583699 61.5249282,25.0925331 L61.5249282,25.0925331 L59.3641493,28.6971571 C59.2635272,28.4517144 59.1842448,28.2344473 59.1263021,28.0453559 C59.039388,27.7617188 59.0745443,27.2509766 59.0248481,27.0060764 C58.9917173,26.8428096 58.81977,26.6740451 58.5090061,26.499783 C58.5917607,26.2527488 58.655816,25.9851707 58.7011719,25.6970486 L58.7011719,25.6970486 L58.7179184,25.6084785 C58.8650846,24.9013241 59.7870877,21.495204 61.132921,19.8949653 Z" id="形状" fill="#F0F4F6"></path>
                <path d="M63.4529419,56.5092761 C64.1701864,57.3123368 65.6706384,59.6049024 67.954298,63.386973 L65.2191894,63.5501883 L65.2191894,63.5501883 L61.6517277,63.6443099 L25.2781669,64.2700487 C24.4701858,64.2828574 23.650529,64.2958173 22.8191964,64.3089286 L15.2097312,62.9981994 L12.4895054,62.4998162 C12.4019481,62.4827541 12.3203875,62.4666449 12.2448237,62.4514887 C11.7592629,62.244226 11.2978917,62.0271289 10.8613766,61.800992 C10.8040354,61.6889581 10.7760173,61.5626173 10.7779823,61.421875 C10.9853682,60.085625 11.9603687,59.1160972 13.7031809,58.5132917 L14.1940897,58.357861 C14.0362071,59.0799269 14.707676,59.5374628 16.2084961,59.7304687 C18.4138997,60.0140843 21.8554612,60.1830722 26.5331804,60.2374323 L31.1978072,59.6023296 C40.3230307,58.3276531 46.255223,57.2877642 48.994384,56.4826629 L49.2494963,56.4054829 C53.784668,54.9912109 62.3770752,55.3046851 63.4529419,56.5092761 Z" id="路径" fill="#E3E7EA"></path>
                <path d="M62.8439732,18.6473214 C63.8243469,18.917295 64.3975789,20.2414487 63.0125616,23.7802231 L62.8439732,24.1984375 C61.8502232,26.5962153 60.9496121,28.1229468 60.1421399,28.7786319 L59.9705357,28.9058036 C59.6808408,29.0848214 59.6321987,29.4500744 59.8246094,30.0015625 C60.1132254,30.8287946 61.0016741,32.7535714 61.4723214,34.3791295 L61.9681775,36.1285322 C62.2967324,37.3176277 62.5836124,38.4329055 62.6029576,38.7575335 C62.6223028,39.0821615 62.6499256,39.3389881 62.6858259,39.5280134 L62.8948708,39.5203984 L63.0227178,40.3626786 C63.1589816,41.3235142 63.2439357,42.1838909 63.2125797,42.6910511 C63.1079545,44.383286 47.7952178,53.1976799 42.509233,53.7848011 C37.3914942,54.353235 31.4051924,53.8056742 30.4614594,52.6863305 L30.9246594,52.2640551 C31.1526356,52.0672008 31.3830804,51.9004859 31.6515625,51.803125 C32.2051339,51.602381 33.055506,51.5069196 34.2026786,51.5167411 L37.0901786,50.1189732 L37.2690848,49.2642857 L40.2788595,47.6095889 L41.0918249,47.1858796 C41.1593092,47.1529834 41.2104292,47.1295266 41.2451847,47.1155091 L41.4581313,47.0499286 C41.730317,46.9696786 42.1609598,46.8867857 42.6641741,47.3169643 C42.9582961,47.0983631 43.2774926,46.8790551 43.6217634,46.6590402 L43.4745536,46.321317 L44.7097098,45.6066895 L46.1078365,44.3662752 L46.9241241,43.6289579 C48.3357339,42.3429348 49.2802967,41.4184012 49.7578125,40.8553571 C50.7996652,39.6268973 55.5741071,29.3756696 55.8341518,28.2506696 C56.0941964,27.1256696 56.7200893,25.9198661 57.8761161,26.1921875 L58.0493827,25.2401402 C58.2942941,23.9498744 58.7611607,21.8401228 59.5131696,20.6674107 C60.5158482,19.1037946 61.8258929,18.3669643 62.8439732,18.6473214 Z M63.2111545,20.4441189 C63.1678602,19.4290365 62.5495877,18.2105035 61.132921,19.8949653 C59.945421,21.3069406 59.0878927,24.1248789 58.801461,25.2541622 L58.7179184,25.6084785 L58.6495829,25.9783227 C58.6110348,26.1612735 58.5641758,26.3350936 58.5090061,26.499783 C58.81977,26.6740451 58.9917173,26.8428096 59.0248481,27.0060764 C59.0745443,27.2509766 59.039388,27.7617188 59.1263021,28.0453559 C59.1649306,28.1714169 59.2130433,28.3100003 59.2706404,28.4611063 L59.3641493,28.6971571 L61.5249282,25.0925331 L61.9332682,24.3791233 L62.1383869,23.9650079 L62.2742575,23.6647577 C62.6982869,22.7011237 63.2441248,21.2171433 63.2111545,20.4441189 Z" id="形状" fill="#33A59D"></path>
                <path d="M51.2338794,38.2866738 L60.3020922,43.7010498 L56.4033403,47.7467899 C53.9780471,46.1437462 51.7181121,45.2399497 49.6235352,45.0354004 C48.9709831,44.9716744 47.1102246,45.4730578 44.0412598,46.5395508 C41.7191446,47.8391856 45.5213623,47.4523926 46.0030518,47.6549072 C46.325376,47.9830437 47.6934995,49.0224273 47.4039307,49.7540283 C46.7326128,51.4501252 43.4517437,53.6801152 42.509233,53.7848011 C37.3914942,54.353235 31.4051924,53.8056742 30.4614594,52.6863305 L30.9246594,52.2640551 C31.1526356,52.0672008 31.3830804,51.9004859 31.6515625,51.803125 C32.2051339,51.602381 33.055506,51.5069196 34.2026786,51.5167411 L37.0901786,50.1189732 L37.2690848,49.2642857 L40.2788595,47.6095889 L41.0918249,47.1858796 L41.2451847,47.1155091 L41.4581313,47.0499286 C41.730317,46.9696786 42.1609598,46.8867857 42.6641741,47.3169643 C42.9582961,47.0983631 43.2774926,46.8790551 43.6217634,46.6590402 L43.4745536,46.321317 L44.7097098,45.6066895 L46.1078365,44.3662752 L46.9241241,43.6289579 L47.9748605,42.6574201 C48.8162109,41.8655314 49.4105283,41.2648438 49.7578125,40.8553571 C50.0360212,40.5273183 50.5803875,39.5558979 51.2338794,38.2866738 Z" id="路径" fill="#A2DED8"></path>
                <path d="M57.3930664,28.6971571 L58.6264685,32.6062295 C58.9973604,33.8107669 59.2074015,34.5410237 59.2565918,34.797 L59.5116933,36.188323 C59.6607929,36.9739736 59.8369323,37.8025818 59.9769724,38.0527344 L60.1159079,38.3082903 C60.3718548,38.7507344 60.8649914,39.3185402 62.3140681,38.8324798 L62.6009839,38.7314394 L62.6029576,38.7575335 C62.6223028,39.0821615 62.6499256,39.3389881 62.6858259,39.5280134 L62.8948708,39.5203984 L63.0227178,40.3626786 C63.0461977,40.5282423 63.0681542,40.6908233 63.0882546,40.8491283 C62.7668147,41.2944301 62.3480039,41.7207273 61.8648682,42.0354004 C59.9884033,43.2575684 56.4833984,46.5409092 54.7753906,46.1602861 C53.1176183,45.7908579 54.3550892,43.4985738 55.0933546,37.0954845 L55.159,36.502 C55.6431693,31.9314121 56.3878581,29.3297978 57.3930664,28.6971571 Z" id="路径" fill="#188F87"></path>
                <path d="M57.9530521,30.4711571 L58.0610521,30.8171571 L58.0919487,30.9989966 C58.4492677,33.2163818 58.6200656,34.8601986 58.6043423,35.930447 C58.5786133,37.6817627 57.7142334,41.0706787 57.3381348,41.9923096 C57.0874023,42.6067301 56.3414307,43.5975342 55.1002197,44.9647217 L53.9530521,44.8057767 C53.9781329,43.5510435 54.5639748,41.3427508 55.0165628,37.7335593 L57.9530521,30.4711571 Z" id="路径" fill="#066A63"></path>
                <path d="M58.5090061,26.499783 C58.81977,26.6740451 58.9917173,26.8428096 59.0248481,27.0060764 C59.0745443,27.2509766 59.039388,27.7617188 59.1263021,28.0453559 L59.191358,28.2438392 L59.191358,28.2438392 L59.2990396,28.5331071 C59.3338521,28.7409099 59.4331812,29.0500195 59.5970268,29.4604357 L59.8246094,30.0015625 C60.1132254,30.8287946 61.0016741,32.7535714 61.4723214,34.3791295 L61.9681775,36.1285322 C62.2967324,37.3176277 62.5836124,38.4329055 62.6029576,38.7575335 C62.6223028,39.0821615 62.6499256,39.3389881 62.6858259,39.5280134 L62.8948708,39.5203984 L62.9598736,39.953783 L61.3309659,42.5589489 C61.25073,40.9451152 61.1207084,39.5921693 60.9409012,38.500111 L60.8607929,38.0480587 C60.5281672,36.3037405 59.2170928,32.6730587 58.5090061,31.0527128 C57.8009193,29.4323668 58.0227273,28.0662879 58.022964,27.7329545 C58.0230767,27.5742244 58.1057692,27.3191499 58.2710413,26.967731 L58.5090061,26.499783 Z" id="路径" fill="#2BB2A1"></path>
                <path d="M58.0203596,29.1707968 L58.0145396,29.0673324 L59.3202947,31.9970963 C59.509812,32.4300398 59.6477574,32.7520933 59.7341309,32.9632568 L59.9141011,33.4425222 C60.3646897,34.7101562 61.1610596,37.3222168 61.3581543,38.4406738 C61.4882545,39.1789557 61.536856,40.4588238 61.503959,42.2802782 L61.3309659,42.5589489 C61.25073,40.9451152 61.1207084,39.5921693 60.9409012,38.500111 L60.8607929,38.0480587 C60.5281672,36.3037405 59.2170928,32.6730587 58.5090061,31.0527128 C58.2055403,30.3582788 58.0728716,29.7105469 58.0203596,29.1707968 Z" id="路径" fill="#1C7066"></path>
                <path d="M58.5202365,27.0942383 C58.567295,26.7879459 58.8813775,27.3264535 59.08186,27.7797294 C59.088888,27.8795708 59.1033319,27.9703947 59.1263021,28.0453559 L59.191358,28.2438392 L59.2990396,28.5331071 C59.3338521,28.7409099 59.4331812,29.0500195 59.5970268,29.4604357 L59.8246094,30.0015625 C60.1132254,30.8287946 61.0016741,32.7535714 61.4723214,34.3791295 L62.0912441,36.577888 L62.0912441,36.577888 L61.1618336,34.2541972 C60.9762376,33.7809568 60.8590892,33.4710166 60.8101807,33.3240356 C60.6305072,32.7840776 59.2197876,30.1694946 59.0127563,29.4336548 L58.8599639,28.8881485 C58.6715127,28.2037647 58.4720263,27.4080268 58.5202365,27.0942383 Z" id="路径" fill="#A5E5DF"></path>
                <path d="M84.5560268,30.4828683 C84.8916295,30.6566406 85.661942,31.1691964 85.5758371,31.7810826 L85.4756593,32.5851893 C85.3898624,33.218564 85.246782,33.9848586 84.9308594,34.5139509 C84.9670201,34.7203869 84.8705171,35.0136719 84.6413504,35.3938058 C84.672727,35.5158174 84.6951723,35.6264171 84.7086866,35.7256049 C84.3749078,35.6738495 84.1386045,35.6912432 83.9958496,35.7734375 C83.6245117,35.9872437 81.3810425,37.0010376 80.7096558,37.7368164 L79.9373108,38.608986 C79.2561617,39.3949113 78.4487246,40.3663929 78.2100174,40.7742544 L78.1524658,40.8883057 C78.0204301,41.2362227 77.1821188,42.4538483 76.7738331,43.0795792 L76.4492459,43.6018153 C76.0434952,44.2010315 74.8010387,45.5675659 71.9918823,45.0219116 C68.9018104,44.4216919 65.3845384,42.1758868 64.4593589,41.7735751 L64.3495483,41.7304688 C63.6351929,41.4926147 63.4428101,41.1989746 62.3893433,41.2773438 C61.3358765,41.3557129 57.0062256,43.7973022 55.6843262,44.7497559 C54.3624268,45.7022095 52.2108765,48.1862793 51.5194702,48.5949707 C50.828064,49.0036621 44.8046875,50.5864258 44.1618652,50.6503906 C43.519043,50.7143555 42.501709,49.7365723 43.2932129,49.4294434 L43.7595578,49.2659862 C44.7268631,48.9431394 46.8992143,48.2708185 50.2766113,47.2490234 L52.6720195,45.4592634 C54.3667706,44.1753162 55.307966,43.4101679 55.4956055,43.1638184 C55.8896484,42.6464844 60.5217285,39.4763184 61.9831543,39.4775391 L62.4162238,39.4894877 C62.498603,39.4934188 62.5860826,39.4983198 62.6786627,39.5041906 L62.6858259,39.5280134 L62.9070552,39.5198781 L63.7843807,39.5961924 L63.7843807,39.5961924 C64.2180392,39.6843859 64.640798,39.8493833 65.0529576,40.0898996 C66.1833705,40.7495536 68.6546317,42.5013393 69.9488281,43.0629464 C71.2430246,43.6245536 74.0473772,44.3554129 75.1999442,42.8898996 L75.8492784,42.040235 L76.9054481,40.5964009 C77.5838127,39.6537808 78.1565629,38.8356388 78.2989955,38.6496094 C78.4719494,38.4237165 79.2582403,37.7904948 80.6578683,36.7499442 L80.5889335,36.1833252 L80.5461356,35.7413365 C80.526316,35.4882208 80.5239211,35.318192 80.5389509,35.23125 L80.6156711,34.9708203 L81.0679322,33.704172 C81.3215936,33.0210535 81.5888897,32.3315408 81.6765625,32.1498326 C81.8541853,31.7816964 82.3635045,30.9806362 82.8647879,30.6636719 C83.3660714,30.3467076 84.2204241,30.309096 84.5560268,30.4828683 Z M83.4111328,31.0528429 C83.3367188,31.0625109 82.7817187,31.7554405 82.5574775,32.3650587 L82.4960937,32.5641276 L82.4046021,33.0168728 L82.2411966,34.023769 L81.9703776,35.930447 L83.6255425,34.9752604 L83.6255425,34.5147569 L83.8914323,34.0897873 C84.2232726,33.5347758 84.4643953,33.0262225 84.6148003,32.5641276 C84.8968099,31.6976997 83.4938151,31.0421007 83.4111328,31.0528429 Z" id="形状" fill="#5BB5AC"></path>
                <path d="M55.0558333,42.9101562 C55.366837,43.5641822 55.6181234,43.811144 55.8096924,43.6510419 C56.0970459,43.4108887 59.8681003,41.5684814 60.3020922,41.2476807 C60.736084,40.9268799 61.6591797,40.3339719 62.5793457,40.451416 C63.4995117,40.5688602 65.1343994,41.2746234 67.5437012,42.6964548 C69.9530029,44.1182861 72.1923828,44.7885818 73.7785645,44.5926514 C75.3647461,44.3967209 76.1361623,43.6003854 76.7963867,42.2946777 C77.4566112,40.98897 79.0802311,38.3485569 79.2359774,38.3725207 C79.3917236,38.3964844 81.4512007,36.9399414 81.5755149,36.848877 C81.658391,36.7881673 82.2369812,36.4145417 83.3112854,35.728 L84.7240234,35.5821035 L83.3112854,36.577888 C80.4170756,39.2353272 78.9497477,40.6081411 78.9093018,40.69633 C78.8688558,40.7845189 78.2507037,42.1285833 77.0548454,44.7285232 L74.4155273,46.1907968 C71.1661956,45.5271406 69.5067964,45.1839193 69.4373298,45.1611328 C69.3678632,45.1383464 67.5350416,44.2709517 63.9388649,42.5589489 L60.8607929,42.5589489 C58.7620235,43.6762251 57.6559181,44.2559611 57.5424766,44.2981567 C57.4290352,44.3403524 56.6001541,44.7058576 55.0558333,45.3946724 C54.2611897,44.6986961 53.8935959,44.3331909 53.9530521,44.2981567 C54.0125082,44.2631226 54.380102,43.8004557 55.0558333,42.9101562 Z" id="路径-427" fill="#25837C"></path>
                <path d="M61.4946316,39.5560173 L61.8928002,39.5330788 L61.8928002,39.5330788 L62.6786627,39.5041906 L62.6858259,39.5280134 L62.9070552,39.5198781 L63.7843807,39.5961924 C64.2180392,39.6843859 64.640798,39.8493833 65.0529576,40.0898996 C66.1833705,40.7495536 68.6546317,42.5013393 69.9488281,43.0629464 C71.2430246,43.6245536 74.0473772,44.3554129 75.1999442,42.8898996 L75.8492784,42.040235 L76.9054481,40.5964009 L78.2989955,38.6496094 L78.2989955,38.6496094 C78.4719494,38.4237165 79.2582403,37.7904948 80.6578683,36.7499442 L80.653918,36.732808 L81.9703776,35.930447 L83.5185726,35.036808 C83.7111205,35.0396712 83.9182065,35.0625062 83.9354248,35.1379395 C83.9620622,35.2546376 83.5769979,35.4329358 83.3871383,35.5417259 L83.3112854,35.5897217 C83.1853638,35.6853638 81.4509277,36.3515015 81.0549316,36.7640991 C80.6589355,37.1766968 79.0340576,38.3104858 78.7325439,38.6645508 C78.4310303,39.0186157 77.2457886,40.7404175 76.9139404,41.2753906 L76.4550872,42.0366689 C76.0746392,42.6485038 75.5653483,43.3758624 75.0487061,43.6600952 C74.2737427,44.0864445 73.1323242,44.3881226 71.3582764,43.9233398 C69.8972958,43.5405776 67.5295364,42.1222181 66.3939279,41.3908593 L65.8546753,41.0322876 C65.2362061,40.5977783 64.1240234,40.1211548 62.9452515,39.9103394 C61.8450643,39.7135783 59.8274816,40.616712 59.0367651,41.1640746 L58.7787901,41.3542737 C58.840439,41.2805695 59.8810478,40.3792305 60.5925923,39.8955743 C60.9254548,39.7450855 61.2316474,39.6276448 61.4946316,39.5560173 Z" id="路径" fill="#A2E8E1"></path>
                <path d="M84.6660001,35.5314794 L84.6413504,35.3938058 C84.7515811,35.8224516 84.7515811,36.1102493 84.6413504,36.2571987 L84.514624,36.405385 L84.2462513,36.6834609 C84.0803464,36.8498404 83.8668638,37.0572321 83.6058036,37.3056362 L83.0101066,38.5416729 L82.7424592,39.0726004 C82.583638,39.3798623 82.4640376,39.5937447 82.3836581,39.7142477 L82.3373884,39.7788504 C82.0921875,40.0892857 82.0513951,40.2547433 82.0545759,40.5503906 C82.0577567,40.8460379 81.5554687,42.259375 81.5160156,42.7877232 C81.4765625,43.3160714 81.3538504,43.7982143 81.2479911,43.8710938 C81.3612807,44.0166155 81.9291946,48.3893828 81.9425948,49.1717337 L81.9399554,49.2642857 C81.8921903,49.6470424 82.3692552,52.3546431 82.4095695,55.1166709 L82.4097651,55.6994078 C82.3915685,56.2663944 82.2765037,58.1244153 82.0645709,61.2734706 C81.7363113,61.3961608 81.4126053,61.5092229 81.0927986,61.6182612 L82.0545759,61.421875 C76.4180093,62.6112689 70.992082,63.3159866 65.776794,63.5360279 L61.6517277,63.6443099 L26.5338241,64.2501154 L26.5338241,64.2501154 C26.5167832,62.8026282 26.8380953,61.1299044 27.496582,59.2336426 C28.3615102,56.7428858 30.077945,53.4387387 30.9976763,52.2046429 C31.2005269,52.0335822 31.4107433,51.8904543 31.6515625,51.803125 C32.0388331,51.6626873 32.5713639,51.5737772 33.2491549,51.5363945 L33.4017334,51.6254883 C33.9763184,52.0112305 34.8990479,51.9599609 36.2611084,51.9066162 C37.6231689,51.8532715 43.262085,50.2601318 45.0599365,49.951416 L45.5838267,49.8548285 C47.5936741,49.464616 51.2873482,48.5690759 51.416748,48.5009766 C51.5039626,48.4550781 51.0450764,47.9752739 50.0400896,47.0615639 L49.7774658,46.8240967 L49.3363037,46.4090576 L53.7770996,43.6623535 L55.0888672,44.807251 L58.1445855,42.8414035 C59.858742,41.7495162 60.9269206,41.0949843 61.3491211,40.8778076 C62.2990723,40.3891602 64.0437012,40.9925537 65.0102539,41.4488939 C65.9768066,41.9052341 67.1107178,43.0557861 69.75,44.1884766 C72.3892822,45.321167 74.3874512,44.895752 75.5202637,44.1884766 C76.5397949,43.5519287 76.853147,42.6161792 77.2144148,41.9924062 L77.6092654,41.3685246 C78.1509128,40.4736192 79.0834961,38.8064779 79.5998535,38.357666 C80.2194824,37.8190918 83.1245117,36.0600586 83.3112854,35.930447 C83.4168453,35.8571938 83.8684169,35.7242046 84.6660001,35.5314794 Z" id="路径" fill="#EEF4F6"></path>
                <path d="M62.5396729,44.1919843 L75.253418,51.2929688 L73.7951898,52.154069 C71.671871,53.3871424 69.836658,54.3566194 68.2895508,55.0625 C66.6350055,55.8174001 65.0680093,56.3388538 63.5885622,56.626861 L62.9598736,56.736 L58.7787901,50.3074456 L55.0262451,44.7348633 L55.8231804,44.3339843 L62.5396729,44.1919843 Z" id="路径" fill="#A4B6BB"></path>
                <path d="M54.6016965,45.3946724 C53.9121094,45.4116211 53.9223938,45.1208878 53.1290436,45.3946724 C52.4482332,45.6296196 51.0756741,46.5551403 49.8446217,46.8887865 L49.3363037,46.4090576 L53.7770996,43.6623535 L55.0888672,44.807251 L55.1772065,44.7512876 C55.1510968,45.1714226 54.9592602,45.3858842 54.6016965,45.3946724 Z" id="路径" fill="#ADB4B7"></path>
                <path d="M65.0102539,41.4488939 C65.9768066,41.9052341 67.1107178,43.0557861 69.75,44.1884766 C72.3892822,45.321167 74.3874512,44.895752 75.5202637,44.1884766 C76.4722419,43.5941057 76.8085219,42.7388691 77.1430149,42.120329 L77.7552426,43.111068 C78.814832,44.8477421 79.5289566,46.1463891 79.8991078,47.0105802 C80.781614,49.0709651 78.4453125,51.265625 75.9396193,51.212 C74.6251176,51.183868 62.7596942,61.5849448 54.9936523,64.2236328 C53.1116974,64.8630695 50.9002717,63.6970538 48.359375,60.7255859 C47.6606028,58.6070486 47.6428619,57.1690603 48.3061523,56.4116211 C51.4821914,52.7847686 61.2380537,51.6341248 63.5288086,49.746582 C66.1018413,47.6264473 61.0042534,44.9785571 60.6235352,44.6762695 C59.6014246,43.864721 59.0361557,43.0878129 58.9277287,42.345545 L60.7072733,41.2434116 C60.9937753,41.0723849 61.2076917,40.9505578 61.3491211,40.8778076 C62.2990723,40.3891602 64.0437012,40.9925537 65.0102539,41.4488939 Z" id="路径" fill="#DADEDF"></path>
                <path d="M69.75,44.1884766 C72.3892822,45.321167 74.3874512,44.895752 75.5202637,44.1884766 C75.6460281,44.1099551 75.7610469,44.0268809 75.8667356,43.9404011 C75.2444317,44.6891677 74.4826356,45.1735759 73.579834,45.3946724 C71.9894158,45.7841665 69.5901741,44.536391 68.5156072,43.7854917 L67.4712905,43.019229 L67.4712905,43.019229 C68.0795087,43.3894119 68.8216244,43.7900493 69.75,44.1884766 Z" id="路径" fill="#B1B8BB"></path>
                <path d="M68.6323982,47.1170654 L71.3440555,48.3694299 C75.2428447,50.1995718 78.4412041,49.9160283 77.6192126,48.0739179 L77.2521973,47.2836914 C76.2434082,45.1889881 81.776274,51.0815015 81.5755149,52.4153845 L81.5256856,52.8623906 C81.4030518,54.3289026 81.4830322,56.7895874 80.7106934,56.5921631 L80.0534238,56.4416743 C77.8987514,55.9776719 71.5577319,54.8166583 68.6323982,55.9851074 C65.460277,57.2521294 63.5339292,57.7774357 60.5205113,56.7834936 L59.9769724,56.5921631 C56.7873183,55.4017652 52.5325522,55.9050895 50.7806625,56.5092956 L50.5576172,56.5921631 C49.5003255,57.0173747 48.3640971,57.3747965 47.1489319,57.6644287 L46.296875,54.9658203 L47.9645703,54.2050825 C51.1953776,52.7130425 53.7986849,51.3976172 55.7744922,50.2588064 L56.2553711,49.9777832 C59.763916,47.8977051 62.8395034,44.4851074 68.6323982,47.1170654 Z" id="路径" fill="#E3E8EB"></path>
                <path d="M66.4322272,46.3645978 L75.253418,51.2929688 L73.7951898,52.154069 C71.671871,53.3871424 69.836658,54.3566194 68.2895508,55.0625 C66.6350055,55.8174001 65.0680093,56.3388538 63.5885622,56.626861 L62.9598736,56.736 L58.7787901,50.3074456 L57.9861368,48.8622056 L58.6774986,48.3998884 C60.8765432,46.9452646 63.1959904,45.6451928 66.4322272,46.3645978 Z" id="路径" fill="#C2CACF"></path>
                <path d="M50.1622314,51.212 C49.6221924,51.3376465 48.5454102,51.6983228 48,52.4153845 C47.4545898,53.1324463 47.7010566,54.2817383 48.6508789,54.6459961 C49.6007012,55.0102539 53.1242676,53.7892111 53.3609619,52.6062755 C53.5976563,51.4233398 53.0247112,50.9303237 52.1487692,51.0274177 C51.2728271,51.1245117 50.7022705,51.0863535 50.1622314,51.212 Z" id="路径-421" fill="#D8DFE4"></path>
                <path d="M50.8496704,51.7038574 C50.1343079,51.7798157 48.1214363,52.3925171 49.0712585,52.7567749 C50.0210808,53.1210327 52.9610291,52.5970764 53.248291,52.2731018 C53.535553,51.9491272 53.1524658,51.266449 52.6786194,51.4134216 C52.2047729,51.5603943 51.565033,51.6278992 50.8496704,51.7038574 Z" id="路径-421" fill="#939EA4"></path>
                <path d="M42.0415543,46.9999328 C42.4011516,47.2092151 42.7245148,47.4158121 43.0116438,47.6197237 C43.9964582,48.3191133 46.2789338,51.7130977 47.6145835,53.9210332 L48.0216536,54.6077608 C49.241136,56.7149385 52.4098372,63.316501 52.5682844,63.7222627 C52.5791829,63.7501723 52.5712326,63.780821 52.5444336,63.814209 L24.3401917,64.2444254 C24.0779097,64.1311785 23.9128248,64.0105087 23.8432617,63.8811035 C24.9423013,58.9808509 26.8934297,55.9595636 28.3388012,54.0229908 L28.7368295,53.4985142 C29.8796866,53.035791 30.3462045,52.0712821 31.1765616,51.770166 C31.7301331,51.569422 33.055506,51.5069196 34.2026786,51.5167411 C34.8914528,52.0048479 35.5477702,52.1373291 36.1716309,51.9141846 C36.7954915,51.69104 37.1016741,51.0926363 37.0901786,50.1189732 L37.2690848,49.2642857 L40.703101,47.5989415 L41.5160663,47.1752321 C41.5835507,47.142336 41.6346706,47.1188792 41.6694261,47.1048617 L41.8823727,47.0392811 L42.0415543,46.9999328 Z" id="路径" fill="#AEAEBF"></path>
                <path d="M41.6173128,47.0105802 C41.9769102,47.2198626 42.3002734,47.4264595 42.5874023,47.6303711 C43.5722168,48.3297607 45.8546924,51.7237451 47.190342,53.9316807 L47.5974121,54.6184082 C48.8168945,56.7255859 51.9855957,63.3271484 52.144043,63.7329102 C52.1549415,63.7608197 52.1469912,63.7914684 52.1201921,63.8248564 L24.8151926,64.2773844 C24.5529106,64.1641374 24.3878257,64.0434677 24.3182626,63.9140625 C25.4173022,59.0138099 27.3684305,55.9925226 28.8138021,54.0559498 L29.2118304,53.5314732 C30.3546875,53.06875 30.8212054,52.1042411 31.6515625,51.803125 C32.2051339,51.602381 33.055506,51.5069196 34.2026786,51.5167411 C34.8914528,52.0048479 35.5477702,52.1373291 36.1716309,51.9141846 C36.7954915,51.69104 37.1016741,51.0926363 37.0901786,50.1189732 L37.2690848,49.2642857 L40.2788595,47.6095889 L41.0918249,47.1858796 C41.1593092,47.1529834 41.2104292,47.1295266 41.2451847,47.1155091 L41.4581312,47.0499286 L41.6173128,47.0105802 Z" id="路径" fill="#F4F4F7"></path>
                <path d="M47.4380182,54.3530647 L47.5974121,54.6184082 L47.9468764,55.2452849 C48.7178783,56.6670405 51.255127,61.1616211 52.0371094,63.4350586 C50.4740793,63.6637258 46.1911304,63.8650612 39.1882626,64.0390647 L24.8151926,64.2773844 C24.5529106,64.1641374 24.3878257,64.0434677 24.3182626,63.9140625 C24.6354514,62.4998229 25.0236133,61.2420882 25.4501073,60.1217654 L26.4832792,59.9595476 C32.0516648,59.0590964 36.1882193,58.1116982 38.8929427,57.117353 L39.3081055,56.9599609 C41.770823,55.9963911 44.4807939,55.1274256 47.4380182,54.3530647 Z" id="路径" fill="#EAEAF2"></path>
                <path d="M42.2017355,48.1371968 L42.93,48.448 L43.1843567,48.1941343 L43.4471803,48.4952933 L43.4471803,48.4952933 L43.324,48.618 L43.6757681,48.7728688 C43.8427616,48.9801367 44.0176246,49.206334 44.1974786,49.4464841 L43.4340998,49.1037519 L43.02,48.922 L41.8463735,50.1275307 L41.1,50.91 L41.5134561,51.1369579 C42.0861403,51.4556178 42.5852545,51.7557354 43.0109022,52.0374022 L43.372,52.284 L44.8835422,50.3939639 L45.1115146,50.7209355 L45.1115146,50.7209355 L43.684,52.516 L43.869935,52.6542319 C44.4383416,53.0875684 45.1072162,53.6211795 45.8371168,54.2214282 L46.164,54.492 L46.9241864,53.4963622 L47.1476251,53.8611936 L47.1476251,53.8611936 L46.472,54.748 L47.2346377,55.388866 L48.6692747,56.6193956 L49.1707687,57.6049478 L49.1707687,57.6049478 L48.87,57.34 L47.2681447,59.3557644 L46.726,60.026 L50.8868794,63.8440142 L50.3628794,63.8540142 L46.482,60.332 L44.566,62.696 L45.5203299,63.6347171 L45.8148794,63.9280142 L45.2888794,63.9380142 L44.324,62.99 L43.5248794,63.9660142 L43.0008794,63.9740142 L44.036,62.712 L43.9963461,62.6721187 C43.4739017,62.1686373 42.9652212,61.6860572 42.4703228,61.2243844 L41.72,60.53 L39.238,63.43 L39.8348794,64.0280142 L39.2788794,64.0360142 L38.976,63.734 L38.7068794,64.0460142 L38.1708794,64.0540142 L38.69,63.452 L38.4776297,63.2435886 C38.0786335,62.8551186 37.6848881,62.4800937 37.2964295,62.1185124 L36.502,61.394 L35.4990439,62.6636785 L34.686,63.702 L35.1068794,64.1060142 L34.5388794,64.1160142 L34.44,64.02 L34.3608794,64.1180142 L33.8508794,64.1260142 L34.148,63.744 L33.8242337,63.4380094 C33.2465129,62.8965868 32.6886742,62.3873663 32.1507491,61.9103577 L31.9,61.69 L31.688946,61.9769157 C31.3472984,62.4410617 31.02901,62.8834432 30.7404824,63.2948769 L30.1268794,64.1880142 L29.2648794,64.2020142 L28.9959448,63.9750037 C28.5549337,63.6099651 28.0604721,63.22193 27.5126064,62.8109589 L26.928,62.378 L26.4891479,62.9914287 L26.1118293,63.5298249 L26.1118293,63.5298249 L25.6088794,64.2620142 L25.1208794,64.2700142 L25.4066633,63.8482656 C25.6576465,63.4809182 25.9099231,63.1178808 26.1634932,62.7591536 L26.604,62.144 L26.4483641,62.0318284 L25.5714978,61.4136689 C25.4197463,61.308238 25.2651915,61.2016054 25.107834,61.0937718 L25.2407837,60.7000489 L25.7085536,61.021906 L25.7085536,61.021906 L26.838,61.82 L26.9280841,61.695903 C27.4403986,60.9956899 27.9578876,60.3127184 28.4805521,59.6469896 L28.842,59.194 L28.7109322,59.097551 C27.9237555,58.519528 27.1991726,58.0424531 26.5373588,57.6663808 L26.7256648,57.3139462 L26.7256648,57.3139462 C27.2500503,57.6108022 27.81431,57.9712977 28.4163419,58.3936317 L29.09,58.882 L29.2684308,58.6613288 C29.532351,58.337086 29.7975652,58.017154 30.0640736,57.7015331 L30.704,56.954 L30.4015169,56.7713058 C29.4884115,56.2350741 28.6207734,55.809473 27.7994558,55.4944717 L28.0225276,55.1665988 L28.0225276,55.1665988 C28.8276506,55.481335 29.6724788,55.8950844 30.5548952,56.4081221 L30.966,56.654 L31.6786547,55.8595408 L32.4975945,54.9773461 L33.274,54.172 L32.9468243,54.0277884 L32.6570952,53.9117008 C31.6575294,53.5340389 30.9113566,53.1289913 30.4252696,52.716457 L30.724872,52.4435129 L30.724872,52.4435129 C31.0978248,52.7545769 31.6642755,53.0764836 32.4249905,53.3901641 L32.7984712,53.5375179 C32.9925455,53.6108442 33.1942769,53.6959535 33.4036902,53.7928782 L33.572,53.874 L34.1587768,53.2905642 C34.4382299,53.0180573 34.7189778,52.7498621 35.0010207,52.4859789 L35.458,52.064 L35.3020719,51.9982389 C35.5986116,52.0434865 35.8884646,52.0154684 36.1716309,51.9141846 L36.2648794,51.8720142 L36.168,51.958 L36.5924325,52.1669029 C37.1143276,52.4306373 37.643743,52.7189409 38.1701594,53.0278086 L38.44,53.188 L39.7667398,51.7501416 L40.45,51.018 L40.401099,50.9928443 C39.4932997,50.5195831 38.4370613,50.0081861 37.2326787,49.458914 L37.2690848,49.2642857 L37.4994664,49.1409991 C38.6733728,49.6779749 39.7065396,50.1792449 40.5992393,50.6450501 L40.732,50.716 L41.5605796,49.8476451 L42.626,48.752 L41.6424565,48.338294 C41.0356501,48.0890267 40.5080114,47.8848586 40.060104,47.7259164 L40.5333722,47.4726778 L41.3120014,47.7729128 C41.5900385,47.8836601 41.8865931,48.0050823 42.2017355,48.1371968 Z M29.1624158,59.4349282 L28.7931566,59.8965667 L28.0175167,60.9023757 L27.16,62.054 L27.189534,62.0741858 C27.9738865,62.6473713 28.663379,63.1801931 29.2581215,63.6727941 L29.728,64.072 L30.3815905,63.1139484 L31.0021487,62.2411152 L31.0021487,62.2411152 L31.598,61.426 L31.1014599,60.9992927 C30.4196472,60.4205528 29.7732742,59.8990901 29.1624158,59.4349282 Z M33.848,59.152 L33.1213882,60.0821895 L32.14,61.368 L32.4057402,61.6017936 C32.7672634,61.922251 33.137581,62.2570552 33.5167023,62.6062092 L34.394,63.426 L36.204,61.126 L36.1469506,61.0740984 C35.6431524,60.6278381 35.1488172,60.2054754 34.6640307,59.8070072 L33.848,59.152 Z M39.098,58.222 L37.485472,60.179244 L36.754,61.08 L36.9725583,61.2776323 C37.3599888,61.6292917 37.7525819,61.9944696 38.1503445,62.3731642 L38.952,63.148 L41.424,60.262 L41.202883,60.060519 C40.7321176,59.6354387 40.2751504,59.2312711 39.8319997,58.8480223 L39.098,58.222 Z M43.874,57.976 L41.972,60.238 L43.1360634,61.3236232 L43.7141821,61.8739473 L43.7141821,61.8739473 L44.276,62.416 L46.184,60.062 L43.874,57.976 Z M31.048,57.166 L30.3673435,57.962379 L29.5764325,58.9165681 L29.412,59.122 L29.8590631,59.4673205 C30.3354784,59.8404328 30.8316281,60.245809 31.3475441,60.683459 L31.838,61.104 L32.7834463,59.8645762 L32.7834463,59.8645762 L33.532,58.908 L33.4134557,58.8159086 C32.7114397,58.2809256 32.0310767,57.7996991 31.3726557,57.3722185 L31.048,57.166 Z M37.0151115,56.5518249 L36.384,56.084 L36.3581466,56.1145252 C35.884241,56.6640144 35.4084389,57.2307243 34.9395218,57.8020577 L34.096,58.842 L34.1635216,58.8936842 C34.6457352,59.2724263 35.1370963,59.6752087 35.6376213,60.1020274 L36.454,60.814 L37.4549349,59.5869036 L38.792,57.966 L38.7004761,57.8900458 C38.1113166,57.4025884 37.5495115,56.9565091 37.0151115,56.5518249 Z M41.208,55.612 L39.348,57.918 L40.3104644,58.745803 C40.4615994,58.8780017 40.6142931,59.012588 40.7685478,59.1495649 L41.676,59.968 L43.0206818,58.3781961 L43.576,57.708 L41.8512035,56.1594956 C41.7087588,56.0319475 41.562901,55.905463 41.414019,55.7801892 L41.208,55.612 Z M46.22,55.068 L45.8742281,55.5117275 L45.0434763,56.549252 L44.128,57.668 L46.43,59.758 L48.568,57.076 L47.1090354,55.8190822 L46.22,55.068 Z M33.8865362,54.4821445 L33.65,54.358 L33.6073238,54.4036986 C33.0571506,54.9624039 32.512065,55.5383125 31.972068,56.1314254 L31.31,56.868 L31.5474423,57.0168371 C32.2193927,57.4497021 32.911857,57.9366748 33.6248896,58.4777416 L33.78,58.596 L33.914154,58.429931 C34.3780439,57.8518136 34.8534351,57.2720474 35.3315896,56.7030972 L36.056,55.85 L35.6874576,55.5929336 C35.0383116,55.14904 34.4379643,54.7787636 33.8865362,54.4821445 Z M38.514,53.702 L37.4175292,54.9125489 L36.644,55.782 L36.6997232,55.8221098 C37.2229532,56.2044623 37.7735844,56.6288673 38.3517811,57.0955387 L39.04,57.662 L40.9,55.364 L40.4875515,55.0442522 C40.0092861,54.6847253 39.510808,54.3387437 39.0026228,54.0102807 L38.514,53.702 Z M43.436,52.828 L41.46,55.3 L41.6724564,55.4748817 L42.1180348,55.8615005 L43.83,57.4 L44.8175981,56.1923104 L45.914,54.812 L44.8731974,53.9570064 L44.0013209,53.2618991 L44.0013209,53.2618991 L43.436,52.828 Z M35.85,52.248 L35.2731047,52.779191 L34.8537981,53.1756415 L34.8537981,53.1756415 L33.948,54.062 L34.0550013,54.1191313 C34.5945269,54.4085427 35.1784443,54.7661982 35.807098,55.1925466 L36.318,55.548 L36.7656057,55.0411599 L38.164,53.49 L37.9764225,53.3778901 C37.5173481,53.1082555 37.0561378,52.8545557 36.6001701,52.6195812 L35.85,52.248 Z M40.816,51.212 L39.5655937,52.5563284 L38.788,53.402 L39.2158767,53.6717759 C39.7336191,54.0062822 40.2413497,54.3586825 40.7285492,54.7249717 L41.152,55.05 L43.122,52.596 L43.0825986,52.5697965 C42.6248555,52.2493743 42.0606225,51.9014304 41.3900783,51.5261224 L40.816,51.212 Z" id="形状" fill="#DDDDE2"></path>
                <path d="M32.4830322,54.078125 C33.2310181,53.6348267 33.2879028,53.0871582 33.2036743,52.7147217 C33.1194458,52.3422852 32.1654663,52.2659912 31.4047241,52.6768799 C30.6439819,53.0877686 30.3372192,53.5812988 30.453125,54.0014648 C30.5690308,54.4216309 31.7350464,54.5214233 32.4830322,54.078125 Z" id="椭圆形" fill="#8E8E8E"></path>
                <path d="M32.4343262,53.828064 C33.182312,53.3847656 33.2391968,52.8370972 33.1549683,52.4646606 C33.0707397,52.0922241 32.1167603,52.0159302 31.3560181,52.4268188 C30.5952759,52.8377075 30.2885132,53.3312378 30.4044189,53.7514038 C30.5203247,54.1715698 31.6863403,54.2713623 32.4343262,53.828064 Z" id="椭圆形" fill="#E6E5E5"></path>
                <path d="M32.1800537,53.5489502 C32.8832397,53.1950684 32.9266357,52.8527832 32.8406982,52.5665894 C32.7547607,52.2803955 31.9810791,52.2160645 31.418396,52.5344849 C30.8557129,52.8529053 30.6716919,53.3564453 30.8126221,53.5680542 C30.9535522,53.7796631 31.4768677,53.902832 32.1800537,53.5489502 Z" id="椭圆形" fill="#979696"></path>
                <path d="M32.1652832,53.2553711 C32.8684692,52.9014893 32.9118652,52.5592041 32.8259277,52.2730103 C32.7399902,51.9868164 31.9663086,51.9224854 31.4036255,52.2409058 C30.8409424,52.5593262 30.6569214,53.0628662 30.7978516,53.2744751 C30.9387817,53.486084 31.4620972,53.6092529 32.1652832,53.2553711 Z" id="椭圆形" fill="#EDEDED"></path>
                <path d="M84.6413504,35.3938058 C84.7515811,35.8224516 84.7515811,36.1102493 84.6413504,36.2571987 L84.514624,36.405385 L84.2462513,36.6834609 L83.792678,37.1270229 C83.7333601,37.1839974 83.6710686,37.2435352 83.6058036,37.3056362 L83.0101066,38.5416729 L82.7424592,39.0726004 L82.533643,39.4634587 C82.4738428,39.5703999 82.4238478,39.6539962 82.3836581,39.7142477 L82.3373884,39.7788504 C82.0921875,40.0892857 82.0513951,40.2547433 82.0545759,40.5503906 C82.0577567,40.8460379 81.5554687,42.259375 81.5160156,42.7877232 C81.4765625,43.3160714 81.3538504,43.7982143 81.2479911,43.8710937 C81.3612807,44.0166155 81.9291946,48.3893828 81.9425948,49.1717337 L81.9399554,49.2642857 C81.8921903,49.6470424 82.3692552,52.3546431 82.4095695,55.1166709 L82.4097651,55.6994078 L82.3380149,57.0564883 C82.2803853,58.0154244 82.1892373,59.4210851 82.0645709,61.2734706 L81.5755149,61.4509854 L81.0982637,61.6158058 L80.3478429,61.7684627 L80.3478429,61.7684627 L80.3835638,60.9310722 C80.4442633,58.8956309 80.4386541,53.7836692 80.4501953,52.8654785 C80.4628906,51.8554688 79.9372559,51.527832 79.2675781,50.6533878 L78.9318916,50.1930101 C78.0734299,48.9783978 76.4652018,46.4987467 76.1088867,45.6066895 C75.9456732,45.1980741 75.8261201,44.6725438 75.7502275,44.0300986 L75.5202637,44.1884766 C76.5397949,43.5519287 76.853147,42.6161792 77.2144148,41.9924062 L77.6092654,41.3685246 L78.3952332,40.0513611 C78.8303833,39.3348389 79.2900391,38.6269531 79.5998535,38.357666 C80.2194824,37.8190918 83.1245117,36.0600586 83.3112854,35.930447 C83.4168453,35.8571938 83.8684169,35.7242046 84.6660001,35.5314794 L84.6413504,35.3938058 Z" id="路径" fill="#E6E4E7"></path>
                <path d="M82.4095695,55.1166709 L82.4097651,55.6994078 L82.3916827,55.9986602 L81.9194462,55.5323202 C81.5654307,55.1765613 81.3102024,54.9029468 81.1537615,54.7114769 C80.7868943,54.2624636 81.7178404,51.817157 82.040209,50.4118749 L82.1882883,51.7308022 C82.2918839,52.7243857 82.3920355,53.9153805 82.4095695,55.1166709 Z M79.8390926,38.1704891 C80.1579256,38.745646 80.4062386,39.8507761 80.5840316,41.4858794 L80.6352539,41.9923096 L82.0359511,40.6996231 C81.9450022,41.1691901 81.5507842,42.3221092 81.5160156,42.7877232 C81.4765625,43.3160714 81.3538504,43.7982143 81.2479911,43.8710937 C81.3612807,44.0166155 81.9291946,48.3893828 81.9425948,49.1717337 L81.9399554,49.2642857 C81.0750963,48.2263236 77.3883257,44.7975125 76.5137257,44.2430107 C76.3446632,44.1358241 76.2840302,43.871062 76.3046781,43.5062923 C76.7458961,42.9833445 76.9691095,42.4159558 77.2144148,41.9924062 L77.6092654,41.3685246 L78.3952332,40.0513611 L78.7234664,39.5223069 C79.0508461,39.0083084 79.3674927,38.5596313 79.5998535,38.357666 L79.7415944,38.2430769 L79.8390926,38.1704891 Z" id="形状" fill="#D7D5D8"></path>
                <path d="M84.4522637,35.5821035 L83.6471884,36.2178734 L83.539334,36.2590712 L81.475851,37.5550576 L79.9699458,38.5778858 C79.9161312,38.6167139 79.880236,38.6439402 79.8622602,38.6595646 C79.6924131,38.8071936 79.4367246,39.151791 79.1009645,39.6746887 L78.7387275,40.2563284 L77.9472602,41.5824393 L77.4976065,42.3055319 L77.2513835,42.7783419 C77.139766,42.9905104 77.0423886,43.1609738 76.9337461,43.3281576 C76.7417517,43.6236071 76.5285775,43.8833603 76.2801468,44.1117023 L76.176,44.198 L76.1954849,44.3351554 C76.2482471,44.6729746 76.3151598,44.9682467 76.3955258,45.220466 L76.4803503,45.4583155 C76.7350002,46.0958477 77.8270311,47.8680452 78.8116983,49.3169065 L79.2550965,49.9573438 L79.5851486,50.4101821 L80.3634909,51.3672184 L80.3634909,51.3672184 C80.7041005,51.8310672 80.857748,52.2671197 80.8501637,52.8705059 L80.8148782,59.2238945 L80.7906566,60.6711599 L80.7906566,60.6711599 L80.768,61.276 L80.9676897,61.2377179 L82.0542637,61.2761035 L81.5755149,61.4509854 L81.0982637,61.6158058 L80.3478429,61.7684627 L80.3835638,60.9310722 L80.4167701,59.0520983 L80.4501953,52.8654785 L80.4501953,52.8654785 C80.4628906,51.8554687 79.9372559,51.527832 79.2675781,50.6533878 L78.9318916,50.1930101 L78.5239112,49.6033274 L77.8726668,48.6240578 C77.1229971,47.4732036 76.3438198,46.1948591 76.1088867,45.6066895 C75.9456732,45.1980741 75.8261201,44.6725438 75.7502275,44.0300986 L75.5202637,44.1884766 C76.5397949,43.5519287 76.853147,42.6161792 77.2144148,41.9924062 L77.6092654,41.3685246 L78.3952332,40.0513611 L78.7234664,39.5223069 C79.0508461,39.0083084 79.3674927,38.5596313 79.5998535,38.357666 C80.2194824,37.8190918 83.1245117,36.0600586 83.3112854,35.930447 C83.3640653,35.8938204 83.5033482,35.8422598 83.729134,35.7757652 L84.4522637,35.5821035 Z" id="路径" fill="#A7B2BA" fill-rule="nonzero"></path>
                <path d="M76.4404475,43.3369984 L77.3190744,43.4762411 C77.9114758,43.5655866 78.4154285,43.6314149 78.8309326,43.673726 L81.2491078,43.8718058 L81.2695098,43.9280606 L81.3157222,44.1391632 C81.3245773,44.1856255 81.3339632,44.2373736 81.3438117,44.2938771 L80.6999512,44.2981567 C81.1311035,45.3363647 81.3562419,46.2405059 81.3753662,47.0105802 C81.1874387,47.8319888 80.9886923,48.5507346 80.7791268,49.1668178 L81.0764282,49.6621055 C81.2917382,50.0359351 81.5412159,50.4966802 81.8245589,51.0421799 L81.8550618,50.9036187 C81.9069232,50.6582533 81.9584091,50.4014398 82.0095195,50.1331782 L82.1070366,50.9895614 L82.1070366,50.9895614 L81.987843,51.3653549 L82.1916311,51.7632058 L82.276847,52.654781 L82.276847,52.654781 L81.8488645,51.7716689 L81.8488645,51.7716689 C81.5886877,52.5291645 81.3553291,53.0958941 81.1486816,53.4775391 C81.3436012,52.9665396 81.5338327,52.3126174 81.7193761,51.5157725 L81.2528466,50.5962043 C81.0331768,50.1758845 80.8338636,49.8144118 80.6547452,49.5102144 C80.471539,50.0092384 80.2801088,50.4289471 80.0806561,50.7722728 L79.9295654,51.0154912 L79.8518066,50.7476807 C80.1508008,50.1531407 80.3773117,49.6707786 80.5313393,49.3005944 L80.4067383,49.1054688 L80.4067383,49.1054688 C79.9594166,48.408776 79.4889922,47.7839032 79.0132299,47.2125041 C78.5687934,48.0259816 78.2286473,48.490497 78.0985107,48.5811343 C77.8939407,48.7236127 78.3995103,47.846179 78.8650157,47.0406564 C78.2139956,46.2708214 77.5558429,45.6009475 76.9365234,44.9805908 L77.4571962,45.3832252 C77.8614655,45.7018551 78.3778371,46.1406545 78.993075,46.8181564 L79.1259766,46.5878674 C79.405721,46.0993019 79.638361,45.4878488 79.8238966,44.7535078 L79.9295654,44.2981567 L77.4237061,43.7730713 L76.3641357,45.2717285 L77.1530762,43.7010498 L76.1951078,43.6317753 C76.2846873,43.5353475 76.3659374,43.4366591 76.4404475,43.3369984 Z M80.3487549,44.2981567 C79.9215526,45.3958129 79.5009431,46.2945264 79.138232,46.9812223 C79.5793951,47.4806995 80.0709139,48.1057174 80.6062012,48.8944092 L80.6576193,48.9737334 L80.6999512,48.8546143 C81.0761829,47.6970095 81.1542119,46.8344264 81.1537615,46.6277118 L81.1518555,46.5878674 L81.0967554,46.3678658 C80.9616467,45.8913021 80.6126265,44.836337 80.3487549,44.2981567 Z M83.6031078,37.3118058 L83.4071078,37.7138058 L81.7596193,38.5617334 L82.1523437,39.5970389 L82.9831078,38.5938058 L82.7424592,39.0726004 L82.533643,39.4634587 C82.4738428,39.5703999 82.4238478,39.6539962 82.3836581,39.7142477 L82.3373884,39.7788504 C82.1412277,40.0271987 82.0758884,40.1827612 82.0592277,40.3864237 L81.997313,40.4627448 C81.7837622,40.7319845 81.3946512,41.3248836 80.8299799,42.241442 L80.6352539,42.5589489 L80.8684082,43.7010498 L80.6352539,43.7010498 L80.3724365,42.5589489 L79.1864014,43.6899874 L80.2257544,42.3548186 C80.3045239,42.2582143 80.353418,42.2019531 80.3724365,42.1860352 C80.4239451,42.142924 80.3785255,41.3322899 80.2361776,39.7541327 L80.1976193,39.3637334 L80.2416193,39.3437334 L80.2296193,39.2617334 L81.6476193,38.4417334 L81.5755149,38.0772705 L81.7016193,38.4117334 L83.6031078,37.3118058 Z M81.6796193,38.6037334 L80.2416193,39.3437334 L80.6352539,41.9923096 L81.9703776,40.044 L81.6796193,38.6037334 Z" id="形状" fill="#8E8E8E"></path>
                <path d="M50.5209033,63.0784611 C51.4878434,62.0428567 52.2285563,61.4198606 52.743042,61.2094727 C53.5147705,60.8938908 64.5603027,55.2579346 66.0483398,54.2716064 C67.536377,53.2852783 74.1726074,49.5394962 75.4663086,50.1234131 C76.7600098,50.70733 79.4709473,52.9852295 80.3659668,53.5831299 C80.9663899,53.9842309 82.1133515,54.8006436 82.6679687,55.3569336 C82.9400906,55.6298762 82.8986159,55.8383889 82.9126587,55.90802 C82.9411011,56.0490519 82.9411011,57.7831828 82.9126587,61.1104126 C78.9434611,61.9605509 74.22111,62.505127 68.7456055,62.7441406 C63.2701009,62.9831543 57.1952002,63.0945945 50.5209033,63.0784611 Z" id="路径-411" fill="#999A9E"></path>
                <path d="M50.9679248,63.2629395 C51.9030453,62.4770095 52.6278483,61.9788506 53.142334,61.7684627 C53.9140625,61.4528809 64.8251953,55.8095703 66.3132324,54.8232422 C67.8012695,53.8369141 74.2265625,50.0694709 75.5202637,50.6533878 C76.8139648,51.2373047 79.8098145,53.7460938 80.704834,54.3439941 C81.5998535,54.9418945 82.8699951,55.6964722 82.9126587,55.90802 C82.9411011,56.0490519 82.9411011,57.7831828 82.9126587,61.1104126 C78.9434611,61.9605509 74.22111,62.505127 68.7456055,62.7441406 C63.2701009,62.9831543 57.3442074,63.1560872 50.9679248,63.2629395 Z" id="路径-411" fill="#D1CECA"></path>
                <path d="M68.3301703,53.898 L56.9080954,63.1411062 C54.973487,63.1883854 52.9934302,63.2289965 50.9679248,63.2629395 C51.7861552,62.5752508 52.4433613,62.1078868 52.9395432,61.8608474 L53.3797929,61.659499 C55.1093279,60.8317768 64.3112771,56.0632956 66.1579784,54.9221027 L66.4154682,54.7565863 L68.3301703,53.898 Z" id="路径" fill="#D9D6D4"></path>
                <path d="M75.5202637,50.6533878 C76.7277181,51.1983769 79.4179329,53.4201435 80.4989458,54.2000721 L80.704834,54.3439941 C81.5998535,54.9418945 82.8699951,55.6964722 82.9126587,55.90802 L82.9240041,56.093976 C82.940392,56.6363893 82.9366102,58.3085349 82.9126587,61.1104126 C78.9434611,61.9605509 74.22111,62.505127 68.7456055,62.7441406 L65.1817961,62.8880125 C64.5775904,62.9104891 63.9682659,62.9322147 63.3538227,62.9531893 L64.1618762,61.4911291 C66.5581719,57.2502973 68.7036245,54.3175332 70.5966797,52.690918 C70.9692157,52.370815 71.3323996,52.0748371 71.6858605,51.8025161 C73.3851675,50.9831498 74.9504593,50.3962044 75.5202637,50.6533878 Z" id="路径" fill="#C6C4BF"></path>
                <path d="M73.5720215,51.9123574 L75.253418,53.131 L75.253418,53.4775391 L71.1112061,57.976 C70.5251872,57.9615638 70.1831644,57.8995638 70.0851377,57.79 C69.9380976,57.6256543 68.3128947,55.8023068 67.6999512,55.4904785 C67.3858074,55.3306613 64.9707295,56.1758016 60.4547174,58.0258992 C63.1231762,56.6231088 65.6510959,55.2621317 66.3132324,54.8232422 C66.7762776,54.5163181 67.7174075,53.9400928 68.833227,53.3094826 C69.5514813,53.3437587 69.6774753,53.7195816 69.2119141,54.4372559 L69.2119141,54.4372559 L70.9682617,55.8654785 L73.4697266,53.2805176 L73.5720215,51.9123574 Z" id="形状结合" fill="#9A9CA3"></path>
                <path d="M80.4989458,54.2000721 L80.704834,54.3439941 C81.5998535,54.9418945 82.8699951,55.6964722 82.9126587,55.90802 L82.9240041,56.093976 L82.9325132,58.0816615 C82.9297556,58.8750074 82.9231375,59.8845911 82.9126587,61.1104126 C78.9434611,61.9605509 74.22111,62.505127 68.7456055,62.7441406 L65.5858227,62.8706026 L65.6210937,62.7832031 C66.719677,60.7310508 69.914711,60.3923203 71.5375002,60.0321375 L71.8068072,59.968 L72.5451799,59.7702886 C74.6281945,59.1978075 78.935503,57.9072602 79.2359774,57.1589607 C79.5159712,56.4616658 77.3302415,53.0309018 76.1993418,51.0306026 C77.5469174,51.8720433 79.5907897,53.5448561 80.4989458,54.2000721 Z" id="路径" fill="#B9B6B1"></path>
                <path d="M81.8234863,61.3894043 C78.2936509,56.9461693 76.2752338,54.5932041 75.7682351,54.3305088 C75.4622048,53.7066074 74.834031,53.0108066 74.5537575,52.9060703 C73.9180154,53.5570713 70.2337646,56.9349941 70.3048096,57.2093184 C70.3521729,57.3922012 70.6539307,57.7522786 71.210083,58.2895508 L71.447876,58.2895508 L75.1923828,62.3612061 L81.8234863,61.3894043 Z" id="路径-412" fill="#9BCBC5"></path>
                <path d="M81.5755149,61.4509854 C78.0456795,57.0077503 76.0272624,54.6547852 75.5202637,54.3920898 C75.2142334,53.7681885 74.5860596,53.0723877 74.3057861,52.9676514 C73.6700439,53.6186523 70.2337646,56.9349941 70.3048096,57.2093184 C70.3521729,57.3922012 70.6539307,57.7522786 71.210083,58.2895508 L71.447876,58.2895508 L75.1923828,62.3612061 L81.5755149,61.4509854 Z" id="路径-412" fill="#74B7AF"></path>
                <path d="M74.3057861,52.9676514 C74.5457463,53.0573229 75.0407235,53.580255 75.3702092,54.1203824 L71.3297236,58.2886514 L71.210083,58.2895508 C70.70449,57.8011216 70.4091403,57.4591342 70.3240341,57.2635887 L70.3048096,57.2093184 C70.2404251,56.960712 73.0565677,54.2137299 74.0583389,53.2163202 Z" id="形状结合" fill="#94D3CA"></path>
                <path d="M71.3343528,58.2876566 L75.3709862,54.1216566 L75.5202637,54.3920898 L75.5202637,54.3920898 C75.6873207,54.4786485 76.0184747,54.7921508 76.5137257,55.332597 L72.5683528,59.5056566 L71.447876,58.2895508 L71.3343528,58.2876566 Z" id="路径" fill="#68ACA3"></path>
                <path d="M74.3057861,52.9676514 C74.407861,53.0057961 74.5560814,53.1223395 74.7180793,53.2852557 L70.5455289,57.5911201 C70.4076033,57.4236727 70.3273635,57.2964054 70.3048096,57.2093184 C70.2337646,56.9349941 73.6700439,53.6186523 74.3057861,52.9676514 Z" id="路径" fill="#56928A"></path>
                <path d="M69.5338135,56.5921631 C64.7187093,52.2027021 61.752889,49.5323592 60.6363525,48.5811343 C58.9615479,47.1542969 55.0327148,43.5447776 53.7900391,42.5589489 C52.9615885,41.9017297 52.2006836,41.3017985 51.5073242,40.7591553 C53.7670898,37.6638325 54.9954427,36.161242 55.1923828,36.2513839 C55.487793,36.3865967 60.0680626,39.6872337 62.9676861,42.2226452 C65.8673096,44.7580566 71.770874,50.1224365 72.3383789,50.6340332 C72.7167155,50.9750977 73.1305339,51.3980306 73.579834,51.902832 L69.5338135,56.5921631 Z" id="路径-413" fill="#B1DED9"></path>
                <path d="M69.5338135,56.5921631 C64.7187093,52.2027021 61.752889,49.5323592 60.6363525,48.5811343 C58.9615479,47.1542969 55.0327148,43.5447776 53.7900391,42.5589489 C52.9615885,41.9017297 52.2006836,41.3017985 51.5073242,40.7591553 C53.7618815,37.888035 54.9876302,36.4975457 55.1845703,36.5876876 C55.4799805,36.7229004 60.0602501,40.0235374 62.9598736,42.5589489 C65.8594971,45.0943604 71.7630615,50.4587402 72.3305664,50.9703369 C72.708903,51.3114014 73.1227214,51.7343343 73.5720215,52.2391357 L69.5338135,56.5921631 Z" id="路径-413" fill="#79C3BA"></path>
                <path d="M55.1845703,36.5876876 L55.4085016,36.7277884 C55.91285,37.0653302 57.1592643,37.9610837 58.6043423,39.0570032 L58.3451756,39.7122284 C57.5604274,41.6371166 56.8318434,42.9715658 56.1594238,43.7155762 C55.9968761,43.8954299 55.8396783,44.0542326 55.6878304,44.1919843 L54.356376,43.0287267 C54.13354,42.8387977 53.9417671,42.6793164 53.7900391,42.5589489 L51.5073242,40.7591553 L51.5073242,40.7591553 L52.6836635,39.2796722 C54.191507,37.4120438 55.0251426,36.5147156 55.1845703,36.5876876 Z" id="路径" fill="#4B9A91"></path>
                <path d="M61.9121968,41.6663041 L62.4487023,42.1183488 L62.4487023,42.1183488 L63.878539,43.3675559 C66.9521489,46.0871799 71.8179814,50.5082496 72.3305664,50.9703369 C72.5636081,51.1804203 72.8101119,51.4215655 73.070078,51.6937726 L68.7448647,55.8732667 L63.1248772,50.7819116 C62.1628325,49.9182881 61.4326246,49.2701831 60.9342537,48.8375966 L60.4841286,48.4515216 C61.4609012,47.1555696 61.9369239,44.8938304 61.9121968,41.6663041 Z" id="路径" fill="#5DB5AB"></path>
                <path d="M70.7329102,50.7155762 C67.8777694,48.1419127 65.8171005,46.2947854 64.5509033,45.1741943 C63.2847062,44.0536033 61.5932592,42.6551251 59.4765625,40.9787598 L56.8543701,44.2207031 C58.4761274,45.5128594 59.980644,46.7562676 61.3679199,47.9509277 C62.7551958,49.1455878 64.8935422,51.0732408 67.782959,53.7338867 L70.7329102,50.7155762 Z" id="路径-414" fill="#A7D4CA"></path>
                <path d="M58.2140747,43.5721933 C61.904551,46.6889449 65.1195163,49.5271742 67.859118,52.0870752 C67.9801784,52.2001948 67.9866157,52.3900352 67.8734961,52.5110955 C67.7603765,52.6321559 67.5705361,52.6385932 67.4494757,52.5254736 C64.7177233,49.9729072 61.5101625,47.1412146 57.8269409,44.0305899 C57.7003582,43.9236858 57.6844055,43.7344074 57.7913095,43.6078247 C57.8982136,43.481242 58.087492,43.4652893 58.2140747,43.5721933 Z M59.3849689,43.1736158 L67.7328266,50.5658858 C68.0959402,50.8943999 68.3645113,51.1410137 68.5386163,51.3057968 C68.6589508,51.4196883 68.6641738,51.609566 68.5502823,51.7299005 C68.4363908,51.8502349 68.2465131,51.855458 68.1261786,51.7415665 L66.2220827,50.0158172 C64.6624638,48.6230372 62.2506853,46.4918836 58.9888104,43.6242358 C58.8643751,43.5148396 58.8521835,43.3252818 58.9615796,43.2008465 C59.0709758,43.0764112 59.2605336,43.0642196 59.3849689,43.1736158 Z M60.4726313,42.7690405 L67.6325171,48.9736801 C68.4724173,49.7128922 69.0426017,50.2246992 69.3435479,50.5095322 C69.4638824,50.6234237 69.4691054,50.8133014 69.3552139,50.9336358 C69.2413224,51.0539703 69.0514447,51.0591933 68.9311103,50.9453018 L67.2281708,49.4170645 C65.7199916,48.0898518 63.3367804,46.0246184 60.0813237,43.2238794 C59.9557235,43.1158228 59.9415015,42.9264064 60.0495581,42.8008062 C60.1576147,42.6752059 60.3470311,42.6609839 60.4726313,42.7690405 Z" id="形状结合" fill="#605F61" fill-rule="nonzero"></path>
                <path d="M68.5335212,55.7974247 C68.2353559,56.3888144 68.0974731,56.759847 68.119873,56.9105225 C68.1534729,57.1365356 68.4728523,57.8058472 69.1575928,58.3893433 C69.6140864,58.7783407 70.0716874,58.9763184 70.5303955,58.9832764 L71.1112061,58.4429932 L68.5335212,55.7974247 Z" id="路径-416" fill="#8A8585"></path>
                <path d="M72.6281738,51.4341431 C73.0777181,51.2046102 73.3503418,51.1008911 73.4460449,51.1229858 C73.5895996,51.1561279 74.2266235,51.4870605 74.8023682,52.0679932 C75.3781128,52.6489258 75.5429687,53.2561035 75.4985962,53.3490601 C75.4690145,53.4110311 75.3551025,53.5408529 75.1568604,53.7385254 L74.4975586,53.0828857 L74.3506037,52.9428855 L74.0136719,53.2374268 L73.2847595,52.5210571 L73.5904712,52.218726 L73.3226318,51.963562 L72.6281738,51.4341431 Z" id="路径-417" fill="#8A8585"></path>
                <path d="M68.6323982,55.6439712 C68.4105675,56.0184087 68.3108521,56.2809652 68.333252,56.4316406 C68.3668518,56.6576538 68.7525893,57.4049072 69.4373298,57.9884033 C69.8938235,58.3774007 70.3415934,58.6059163 70.7806396,58.6739502 L71.210083,58.2895508 L68.6323982,55.6439712 Z" id="路径-416" fill="#EBE4E4"></path>
                <path d="M72.6498413,51.4202271 C73.0993856,51.1906942 73.3720093,51.0869751 73.4677124,51.1090698 C73.6112671,51.1422119 74.248291,51.4731445 74.8240356,52.0540771 C75.3997803,52.6350098 75.5646362,53.2421875 75.5202637,53.335144 C75.490682,53.3971151 75.37677,53.5269368 75.1785278,53.7246094 L74.5192261,53.0689697 L73.3442993,51.949646 L72.6498413,51.4202271 Z" id="路径-417" fill="#EBE4E4"></path>
                <path d="M57.8370969,26.1835129 L57.9590929,26.5955132 C58.1915509,27.4361889 58.3458116,28.2332086 58.421875,28.9865723 C58.5852384,30.6045921 58.3989132,35.1315111 58.2139491,36.0443168 L57.7370152,37.8725411 C57.5231481,38.7172439 57.1761987,40.0796358 56.8201904,41.5178223 L55.3204022,43.3708033 C54.8751694,43.9416117 54.6070731,44.2655204 54.5161133,44.3425293 C54.2773438,44.5446777 50.6064453,46.0854492 50.255127,46.1726074 L45.2274233,47.1317653 C44.9884909,47.1800758 44.8263132,47.2153627 44.776123,47.2315275 C44.6099194,47.2850568 44.198057,47.1525672 43.5405359,46.8340586 L43.4125419,46.5422642 L44.6476981,45.8276367 L46.1078365,44.3662752 L46.9241241,43.6289579 L47.9748605,42.6574201 C48.8162109,41.8655314 49.4105283,41.2648438 49.7578125,40.8553571 C50.7996652,39.6268973 55.5741071,29.3756696 55.8341518,28.2506696 C56.0912554,27.1383929 56.705979,25.9471299 57.8370969,26.1835129 Z" id="路径" fill="#535D5C"></path>
                <path d="M57.8370969,26.1835129 L57.9590929,26.5955132 C58.1915509,27.4361889 58.3458116,28.2332086 58.421875,28.9865723 C58.5852384,30.6045921 58.1998165,35.28353 58.0148525,36.1963356 L57.5379185,38.02456 C57.3240515,38.8692628 57.0391138,40.0107075 56.6831055,41.4488939 L55.3824139,43.1498561 C54.9371811,43.7206644 54.6690848,44.0445731 54.578125,44.121582 C54.3393555,44.3237305 50.668457,45.864502 50.3171387,45.9516602 L45.289435,46.910818 C45.0505026,46.9591285 44.8883249,46.9944154 44.8381348,47.0105802 C44.6719311,47.0641096 44.2600687,46.93162 43.6025476,46.6131114 L43.4745536,46.321317 L44.7097098,45.6066895 L46.1078365,44.3662752 L46.9241241,43.6289579 L47.9748605,42.6574201 C48.8162109,41.8655314 49.4105283,41.2648438 49.7578125,40.8553571 C50.7996652,39.6268973 55.5741071,29.3756696 55.8341518,28.2506696 C56.0912554,27.1383929 56.705979,25.9471299 57.8370969,26.1835129 Z" id="路径" fill="#FCFCFC"></path>
                <path d="M49.5467912,45.0109671 C49.6921542,45.0904735 49.7455414,45.2727662 49.6660349,45.4181291 C49.5865284,45.5634921 49.4042358,45.6168793 49.2588728,45.5373728 C48.4468848,45.0932547 47.6958079,44.3997228 47.055447,43.5091655 L47.4895902,43.1073795 C48.1313857,43.9785508 48.8177533,44.6122187 49.5467912,45.0109671 Z M50.8839494,44.6000784 C51.0293124,44.6795849 51.0826996,44.8618775 51.0031931,45.0072404 C50.9236866,45.1526034 50.741394,45.2059906 50.596031,45.1264841 C49.7131813,44.6436082 48.7814544,43.8763063 47.7976911,42.8251345 L48.2341694,42.4134305 C49.1776733,43.4218043 50.0619824,44.1505023 50.8839494,44.6000784 Z M52.1529924,44.1652639 C52.2983553,44.2447704 52.3517425,44.4270631 52.2722361,44.572426 C52.1927296,44.7177889 52.0104369,44.7711761 51.865074,44.6916697 C50.961682,44.1975581 49.8441591,43.3518707 48.5075567,42.1531926 L48.9372819,41.7278574 L48.9372819,41.7278574 C50.2281186,42.8880702 51.3021812,43.6999115 52.1529924,44.1652639 Z" id="形状" fill="#F2F2F2"></path>
                <path d="M54.7172905,43.5013851 L56.9557865,40.352021 L56.6831055,41.4488939 L55.3824139,43.1498561 L54.8474171,43.8208938 C54.7133689,43.9828482 54.6236049,44.0830776 54.578125,44.121582 C54.3393555,44.3237305 50.668457,45.864502 50.3171387,45.9516602 L44.9930066,46.9727537 C44.9163218,46.9896349 44.8632299,47.0024978 44.8381348,47.0105802 C44.6719311,47.0641096 44.2600687,46.93162 43.6025476,46.6131114 L43.4745536,46.321317 L43.7849648,46.1357575 C44.0767166,46.2028724 44.3561925,46.581134 44.6340459,46.5878674 C44.9775391,46.5961914 49.9539824,45.6272355 50.4426894,45.3946724 L50.7338487,45.2674052 C51.3670015,44.9999364 52.9086901,44.4374622 53.8656006,44.0145874 C53.8620855,43.9059202 50.9319705,42.8204011 49.4415238,41.2190972 C49.3452876,41.1157031 49.6466256,40.8217184 49.7086188,40.9112615 C50.5269457,42.0932548 53.668464,43.5087919 54.3952637,43.8609009 C54.5024092,43.9128091 54.7147,43.5048981 54.7172905,43.5013851 Z" id="路径" fill="#C2BBBD"></path>
                <path d="M45.2172139,45.1552422 L46.6212139,46.5372422 L48.3958435,46.0082422 L51.5073242,49.8219606 L51.8477173,51.3532104 L49.9118042,52.0873543 L48,49.2948836 L45.5392139,46.8619362 L45.5482139,46.8582422 L45.5392139,46.8612422 L44.5692139,46.1492866 L44.9232139,45.4152422 L45.2172139,45.1552422 Z" id="形状结合" fill="#7B5A5A"></path>
                <path d="M57.8370969,26.1835129 L57.9181103,26.4397819 L57.7048799,26.6618948 L57.7048799,26.6618948 L56.932,27.52 L56.917544,28.0136607 C56.9075939,28.3874957 56.9009406,28.7422074 56.8975798,29.0777716 L56.896,29.946 L57.2589678,29.5488673 L57.4104393,29.3967837 L57.4104393,29.3967837 L57.4659916,29.3522671 C57.613284,29.2692313 57.930324,29.2550068 58.4404035,29.3064935 C58.4517263,29.4300056 58.4560896,29.5647526 58.4586178,29.7084286 L58.0690516,29.6755617 C57.849977,29.663785 57.7129285,29.6722409 57.6624264,29.7007114 L57.5833291,29.7717344 L57.2134477,30.177157 L57.2134477,30.177157 L56.906,30.53 L56.9168898,30.8611933 L56.9561119,31.5802141 C56.9724669,31.8006757 56.9921013,32.0019173 57.0150108,32.1839147 L57.0518309,32.4424747 L57.1004817,32.7129626 L57.1605792,32.9917356 L57.24,33.3 L57.4344334,33.1361516 C57.6056373,32.9901514 57.9056926,32.9094499 58.3454352,32.882148 L58.3188383,33.2875522 L58.3188383,33.2875522 C57.9927988,33.309913 57.7830476,33.3645569 57.6939846,33.4405086 L57.36,33.72 L57.432727,33.9549014 C57.4869673,34.120246 57.545486,34.2879166 57.6080388,34.4577897 L57.8075548,34.9738929 L58.0968158,35.6540013 L58.040357,36.0546215 C58.0315102,36.1087575 58.0229874,36.1561891 58.0148525,36.1963356 L57.9766679,36.3461366 L57.683423,35.7022486 L57.4366913,35.1237604 L57.2319426,34.5940373 L57.2319426,34.5940373 L57.028,34.002 L55.332,35.422 L55.3987702,35.9443038 L55.521779,36.7351451 L55.6975209,37.6840181 L55.8243388,38.296084 L55.856,38.424 L57.8126679,36.9681366 L57.6506679,37.5841366 L55.986,38.828 L56.0978104,39.0830388 C56.314432,39.5401803 56.6203999,39.9853165 56.9557865,40.352021 L56.8426415,40.8050938 L56.8426415,40.8050938 C56.3905385,40.3669032 55.9837953,39.7963516 55.7134371,39.2070952 L55.656,39.072 L54.6492264,39.8425351 L54.3021013,40.1229994 C54.2538248,40.1634072 54.2102922,40.2006939 54.1714359,40.2349303 L53.9422439,40.4424218 L53.888,40.486 L54.1489583,41.5409818 L54.4716739,42.7499393 L54.7037878,43.588211 C54.5722861,43.6330413 54.4406406,43.6653036 54.3204104,43.6899874 L53.9527478,42.3681264 L53.7616105,41.6407903 L53.7616105,41.6407903 L53.54,40.754 L53.4021199,40.8543895 L52.9079533,41.1880772 L52.3061066,41.5693654 L52.3061066,41.5693654 L51.458,42.078 L51.4464174,42.4692972 C51.2212211,42.3119205 51.0016211,42.1520911 50.7989391,41.9968523 L51.072,41.842 L51.1414637,40.933034 C51.1533074,40.8026546 51.1661462,40.6683719 51.1799496,40.5303047 L51.312814,39.3280984 L51.39,38.694 L50.7447752,39.2181485 L51.216337,38.3207243 L51.216337,38.3207243 L51.468,38.112 L51.5217898,37.7222943 L52.0989403,36.56451 L52.0989403,36.56451 L51.92,37.738 L53.008,36.838 L53.0128238,36.4938618 L53.0433606,35.8705174 L53.0433606,35.8705174 L53.114,35.072 L52.3972721,35.9545581 L53.1384599,34.4102867 L53.1384599,34.4102867 L53.212,34.322 L53.226381,34.2245182 L53.9095754,32.7621799 L53.9095754,32.7621799 L53.8470806,33.0325382 L53.8470806,33.0325382 L53.716,33.708 L54.732,32.486 L54.7301403,31.9238204 C54.7343682,31.5738097 54.746059,31.2225287 54.7656103,30.8699202 L55.1106375,30.0883956 C55.1635015,29.9664275 55.2139908,29.848839 55.262024,29.7359851 L55.287311,29.4705455 C55.2228498,30.0221088 55.1788508,30.5703863 55.1537953,31.1155766 L55.13,32.008 L56.502,30.396 L56.4976244,30.0490542 C56.494204,29.7483963 56.4941357,29.4286639 56.497415,29.0898328 L56.516,27.992 L55.4990352,29.1686203 L55.6851052,28.6976915 C55.7617908,28.4946274 55.8129606,28.3423463 55.8341518,28.2506696 L55.8586679,28.1461366 L56.536,27.386 L56.5646763,26.6436172 C56.6877285,26.5032252 56.8252657,26.3863599 56.9782315,26.3019744 L56.952,26.928 L57.439546,26.4140829 C57.5353098,26.3160185 57.6207316,26.2312149 57.6937275,26.1621366 L57.8370969,26.1835129 L57.8370969,26.1835129 Z M53.012,37.356 L51.842,38.324 L51.6714877,39.7030751 L51.5895553,40.4574877 L51.5895553,40.4574877 L51.488,41.594 L51.7424874,41.4447614 L52.3873394,41.0469024 C52.6828345,40.8600946 52.9378888,40.6915087 53.1523033,40.5413214 L53.44,40.33 L53.21855,39.3084205 C53.1165037,38.805141 53.051581,38.2614463 53.0227326,37.6856809 L53.012,37.356 Z M54.968,35.728 L53.404,37.03 L53.4054814,37.0785181 C53.4095894,37.660421 53.4486319,38.2128008 53.5235969,38.7273296 L53.6676744,39.5047684 L53.784,40.044 L54.1966386,39.6913522 C54.3750434,39.5472215 54.5954366,39.3754704 54.8612081,39.1729811 L55.512,38.682 L55.4328651,38.3782324 L55.2129145,37.2876269 L55.1273779,36.8018364 L55.1273779,36.8018364 L55.0025254,35.9991007 L54.968,35.728 Z M54.746,33.092 L53.59,34.492 L53.5730243,34.6131905 C53.5148283,35.043741 53.4715733,35.4661053 53.4435519,35.8778157 L53.412,36.502 L54.906,35.256 L54.899582,35.1924807 C54.8385144,34.6534021 54.7928275,34.1116228 54.7640708,33.5669202 L54.746,33.092 Z M56.52,30.978 L55.132,32.626 L55.1339411,32.742085 C55.1452541,33.2812999 55.1739922,33.8176264 55.2186366,34.3512633 L55.276,34.946 L56.9,33.586 L56.770963,33.0822848 C56.7251231,32.8850445 56.6869701,32.6928585 56.6569093,32.5060116 C56.6165033,32.2548626 56.5836733,31.9609864 56.5584049,31.6243014 L56.52,30.978 Z" id="形状" fill="#CAC7C8"></path>
                <path d="M57.8370969,26.1835129 L57.9590929,26.5955132 C58.1915509,27.4361889 58.3458116,28.2332086 58.421875,28.9865723 C58.5852384,30.6045921 58.1998165,35.28353 58.0148525,36.1963356 L57.5379185,38.02456 L56.7797704,41.0586371 L56.7797704,41.0586371 L56.6236572,40.69633 L57.3965061,37.004667 C57.5874476,36.0593762 57.7117142,35.3993491 57.7693061,35.0245857 L57.7999985,34.797 C57.8818573,34.0135557 58.1540527,31.5240479 58.2064209,31.0527128 C58.254425,30.6206556 57.9991209,28.4904548 57.9867992,27.7673042 L57.9898736,27.6072998 C58.0163258,27.2860921 57.815559,26.8014062 57.3875732,26.1532422 C57.5315241,26.145343 57.6792846,26.150533 57.8370969,26.1835129 Z" id="路径" fill="#99D0CA"></path>
                <path d="M55.7862865,28.4147763 L55.8096924,28.5106201 L55.7657471,28.8920288 C54.7097499,31.7040094 53.6188413,34.1926714 53.2283229,34.9138398 L52.8226986,35.6242888 C52.460858,36.2733428 52.0223999,37.1071167 51.5073242,38.1256104 L51.1896106,38.3725207 L51.8315755,37.1047843 C53.4588961,33.8360542 55.4238925,29.5160731 55.7862865,28.4147763 Z" id="路径" fill="#474747"></path>
                <path d="M41.5932521,47.4701412 C41.6933393,47.4234155 41.8123546,47.4666736 41.8590803,47.5667608 C41.8941246,47.6418261 41.878553,47.7275386 41.8263527,47.7854157 L41.7624608,47.832589 L38.2486044,49.473033 C38.1485172,49.5197587 38.0295018,49.4765007 37.9827761,49.3764135 C37.9477318,49.3013481 37.9633034,49.2156356 38.0155037,49.1577585 L38.0793956,49.1105852 L41.5932521,47.4701412 Z" id="路径" fill="#AA5E60" fill-rule="nonzero"></path>
                <path d="M52.663244,56.5092761 L52.5196388,56.5440429 L51.4196632,58.5478798 L51.635735,59.7771373 L54.8431733,58.9769167 L54.7560981,57.9587753 L52.663244,56.5092761 Z M52.64,56.736 L54.6016486,58.0588869 L54.7172905,58.897962 L51.7065093,59.6618206 L51.605476,58.5768627 L52.64,56.736 Z" id="路径-418" fill="#343434" fill-rule="nonzero"></path>
                <polygon id="路径-419" fill="#3B3B3B" fill-rule="nonzero" points="54.2516785 58.2423401 54.3195496 58.6929016 52.0064087 59.2938538 51.9385376 58.8432922"></polygon>
                <path d="M52.1487692,52.1304321 C52.0350227,50.9505412 51.8212077,50.1196086 51.5073242,49.6376343 C51.036499,48.9146729 48.503418,45.5688477 47.8587646,44.9262695 C47.4289958,44.4978841 47.1456502,44.1871134 47.008728,43.9939575 L47.008728,43.657959 C46.596578,43.1611328 46.3592936,42.9121501 46.296875,42.9110107 C46.2344564,42.9098714 45.9962362,42.9098714 45.5822144,42.9110107 L45.1669922,43.3312378 L45.3773193,43.5013851 L44.956604,43.9939575 L44.6828003,43.7572632 L44.128,44.4070435 C43.9880729,44.5579224 43.9880729,44.7309977 44.128,44.9262695 C44.2679271,45.1215413 44.410258,45.3097738 44.5549927,45.4909668 L44.9389038,45.649353 L45.1898804,45.5824585 C45.9314575,46.3569946 46.4036255,46.8685303 46.6063843,47.1170654 C46.9105225,47.4898682 48.7721558,49.6361694 48.8950195,49.907959 C49.0178833,50.1797485 49.616272,50.8408701 49.6943359,51.212 C49.7463786,51.4594199 49.7948812,51.765564 49.8398438,52.1304321 C49.890625,52.465777 49.993571,52.6243914 50.1486816,52.6062755 C50.3037923,52.5881595 50.9704882,52.4295451 52.1487692,52.1304321 Z" id="路径-420" fill="#AE303B"></path>
                <path d="M52.1109447,51.8010107 L52.1487692,52.1304321 L50.4264092,52.5520365 C50.2877907,52.5827611 50.1952148,52.6008407 50.1486816,52.6062755 C49.993571,52.6243914 49.890625,52.465777 49.8398437,52.1304321 L49.7989447,51.8215713 L49.7989447,51.8215713 L49.9703437,51.9873439 C50.0398,52.0583354 50.1214941,52.1451408 50.21517,52.248 L52.1109447,51.8010107 Z" id="路径" fill="#851B24"></path>
                <path d="M46.6512204,43.7010498 L46.7453114,43.7061768 C46.8007748,43.7118702 46.9076867,43.8136972 47.010286,43.9164197 L47.008728,43.9939575 C47.1000095,44.1227281 47.256368,44.303772 47.4778035,44.537089 L47.8587646,44.9262695 C48.503418,45.5688477 51.036499,48.9146729 51.5073242,49.6376343 C51.6365075,49.8359978 51.7487407,50.0934699 51.8440238,50.4100504 L51.8477173,50.4897461 C51.796936,50.7939453 51.5604858,51.1578369 51.5073242,51.0274177 C51.4541626,50.8969985 50.6480103,51.0531616 50.3053589,50.8444824 C50.0116577,50.6656145 49.5316374,50.2772889 49.3051226,49.9684302 L49.2150269,49.8219606 C49.1334886,49.6496162 48.5952723,49.0259026 48.0811505,48.4455524 L46.8148244,47.0256131 L46.8148244,47.0256131 L44.9439697,45.0158691 L46.348,43.7061768 L46.6512204,43.7010498 L46.6512204,43.7010498 Z" id="路径" fill="#D86F6D"></path>
                <path d="M46.296875,42.9110107 C46.3445103,42.9118802 46.4939891,43.0570962 46.7453114,43.3466586 C46.5299051,43.2893189 46.2271509,43.2999784 46.111145,43.3219604 C45.963623,43.3499146 44.8155518,44.4567871 44.6807251,44.5936279 C44.5458984,44.7304688 44.5073242,45.1112671 44.526062,45.2161865 C44.5335571,45.2581543 44.5736743,45.3291919 44.6464136,45.4292993 L44.7590547,45.5750107 L44.5549927,45.4909668 L44.3396935,45.2138977 L44.3396935,45.2138977 L44.128,44.9262695 C44.0160583,44.7700521 43.99367,44.6280404 44.060835,44.5002344 L44.128,44.4070435 L44.6828003,43.7572632 L44.956604,43.9939575 L45.3773193,43.5013851 L45.1669922,43.3312378 L45.5822144,42.9110107 L46.296875,42.9110107 Z" id="路径" fill="#E87D81"></path>
                <path d="M48.2039616,47.7110825 C49.2404856,46.6101725 51.2492385,46.9483551 52.6205945,48.086889 C53.4724737,48.7941404 53.7348108,50.0162949 53.47206,51.7017128 C53.4295241,51.9745595 53.1738561,52.1612633 52.9010094,52.1187274 C52.6281627,52.0761916 52.4414589,51.8205235 52.4839947,51.5476769 C52.6981319,50.1740914 52.5092565,49.294174 51.9818225,48.8562852 C50.9657995,48.0127575 49.5222295,47.769726 48.9320384,48.3965781 C48.3017515,49.0660166 48.2866273,49.4017287 48.6908794,50.0544117 C48.9204981,50.4251414 48.9415358,50.5303594 49.5004272,50.8049927 C49.7482642,50.9267771 49.8024902,51.5634155 49.835083,51.8668213 C49.8676758,52.1702271 49.6747267,52.0441047 49.4268897,51.9223203 C48.7099023,51.5700004 48.1773616,51.1244599 47.8407368,50.5809643 C47.2089965,49.5609915 47.2465242,48.7279933 48.2039616,47.7110825 Z" id="路径" fill="#FFD679" fill-rule="nonzero"></path>
                <path d="M52.5683599,50.6851336 L52.604028,50.7920557 C52.708432,51.056844 52.9998463,51.3401241 53.4824563,51.6311433 L53.47206,51.7017128 L53.47206,51.7017128 C53.45362,51.8199961 53.3951249,51.92209 53.3125396,51.9963361 L53.472852,52.0873543 C53.0491256,51.8528957 52.7268434,51.6148932 52.5075187,51.3694588 L52.4839947,51.5476769 C52.53278,51.2347431 52.5606477,50.9474322 52.5683599,50.6851336 Z M49.791955,51.5039475 L49.6459098,51.5346898 C49.3868172,51.5879961 49.1516148,51.6267716 48.939928,51.6508746 C48.7579679,51.5353475 48.5921844,51.4123873 48.4423522,51.2814124 C48.7569771,51.2835899 49.1788612,51.2282383 49.7049857,51.1131837 C49.7451795,51.2317334 49.7722259,51.3709011 49.791955,51.5039475 Z M52.5250465,49.9296812 L53.5659808,50.7524615 C53.5605995,50.9089094 53.5493614,51.0705131 53.5323399,51.2372139 L52.5701394,50.4724717 C52.5674378,50.276128 52.5522814,50.0952983 52.5250465,49.9296812 Z M48.9319522,50.5417709 L49.0440113,50.5321445 C49.1429298,50.6145302 49.2797523,50.6965554 49.5004272,50.8049927 L49.5468694,50.8391662 L49.5311021,50.8418781 C49.2272074,50.9496875 48.7596227,50.9751414 48.0729955,50.9009662 C47.9861739,50.7985519 47.9093819,50.6917948 47.8407368,50.5809643 L47.7855697,50.4870873 C48.2522411,50.5411542 48.6342366,50.5591916 48.9319522,50.5417709 Z M48.504613,49.7060615 L48.5090092,49.7164188 C48.5540285,49.8207991 48.6150821,49.9320336 48.6908794,50.0544117 C48.7140173,50.0917689 48.7350373,50.1264301 48.7547031,50.1588404 L48.9003467,50.1772248 C48.3522987,50.1243432 47.8939543,49.9609736 47.530164,49.6877811 L47.4417056,49.6115725 C47.4093038,49.4204391 47.4082443,49.2319546 47.4406569,49.0429672 C47.6972786,49.3720575 48.0497259,49.5925437 48.504613,49.7060615 Z M53.3308088,49.0897238 L52.284,49.09 L53.4817643,49.6074347 C53.5122024,49.7548251 53.5346657,49.9092155 53.5492651,50.0705171 L52.4476816,49.5958405 C52.3491459,49.2766086 52.1924905,49.031187 51.9818225,48.8562852 C51.9113049,48.7977397 51.8387277,48.7420869 51.7645193,48.6894168 L53.1356171,48.6887875 C53.2105131,48.8138227 53.2755285,48.947507 53.3308088,49.0897238 Z M48.172423,48.367184 C48.2607132,48.5875078 48.3721031,48.7707144 48.5264783,48.9256259 C48.4471101,49.0741201 48.4122794,49.2133258 48.4181385,49.3562434 C48.1471556,49.1654266 47.945162,48.8754088 47.8011258,48.5159737 C47.7743548,48.449168 47.7504254,48.3830165 47.7290691,48.3177406 C47.8113006,48.1828778 47.9120615,48.0454053 48.0308947,47.9047313 C48.063179,48.0517787 48.1087542,48.2083016 48.172423,48.367184 Z M48.966836,47.2034619 L49.0142986,47.1090339 C48.8312677,47.4326744 48.7789731,47.8135137 48.861908,48.25657 L48.9028694,48.4281662 L48.8210207,48.5183458 C48.7304375,48.6213698 48.6559642,48.7165634 48.5967458,48.8067686 L48.6537923,48.9633154 C48.4416921,48.4175427 48.3752256,47.9219994 48.458384,47.481143 C48.6156524,47.3652948 48.7857101,47.273013 48.966836,47.2034619 Z M52.6205945,48.086889 C52.6754503,48.1324317 52.7278616,48.1801095 52.7778455,48.2299086 L51.3776122,48.4490401 C51.1095464,48.3043532 50.8308686,48.1962278 50.5586394,48.1282519 L50.8556318,48.1292383 L52.4239455,47.9322982 C52.4907823,47.9820303 52.556387,48.0335824 52.6205945,48.086889 Z M50.3981415,47.0733284 L50.1511049,47.3341236 C50.1067223,47.3827014 50.0637701,47.4308341 50.0204071,47.4806394 C49.9034861,47.6149306 49.8013257,47.742243 49.7158323,47.8620557 C49.6621964,47.9372222 49.6160036,48.0083139 49.5777983,48.0741884 C49.3798598,48.1083999 49.2036819,48.1778734 49.0600784,48.2834584 C49.1021625,48.0916998 49.2156881,47.8743202 49.3902271,47.629717 C49.483927,47.4984036 49.5939177,47.361333 49.7187273,47.2179812 L49.882045,47.0383362 C50.0512058,47.0365753 50.2239139,47.0485075 50.3981415,47.0733284 Z M51.3917214,47.3480243 L50.4016797,48.0933707 C50.1913628,48.0524749 49.9869985,48.036527 49.7967315,48.04724 L50.936371,47.1893731 C51.0890252,47.2332767 51.2412557,47.2863378 51.3917214,47.3480243 Z" id="形状结合" fill="#545353" fill-rule="nonzero"></path>
                <path d="M10.8677979,60.720459 C10.3382568,61.1673991 10.0489909,61.5939128 10,62 C9.92651367,62.6091309 10,62.987915 10,63.6235352 C10,64.2591553 10.574707,66.1228027 13.6983643,67.5408936 C16.8220215,68.9589844 19.8466797,70.53125 20.7735596,70.8339844 C21.7004395,71.1367187 27.213501,72.0986328 30.0565186,72.0493164 C32.8995361,72 37.0064322,72.0493164 37.9973567,72.0493164 C38.9882812,72.0493164 40.430127,71.3414307 40.9,71.3343506 C41.369873,71.3272705 45.9423758,71.050293 47.714535,70.991333 C49.4866943,70.932373 54.1641846,70.9354248 56.6036377,71.3343506 C59.0430908,71.7332764 60.1407471,72 62,72 C63.8592529,72 76.8309326,72 77.984375,72 C79.1378174,72 82.9013256,71.9217098 83.494873,69.0358887 C83.6079915,68.4739583 83.4771322,68.2655436 83.1022949,68.4106445 L82.1059984,68.1699219 L61.8001709,68.1699219 C48.7090723,67.8163249 42.0683168,67.6066488 41.8779041,67.5408936 C41.6874915,67.4751383 40.7578568,67.084198 39.089,66.3680726 C31.8763464,65.9076844 28.1293538,65.6220703 27.8480225,65.5112305 C27.4260254,65.3449707 24.2347412,62.7023613 23.798584,62.416 C23.3624268,62.1296387 19.241333,61.878022 17.7393799,61.7534641 C16.7380778,61.6704255 14.4475505,61.3260905 10.8677979,60.720459 Z" id="路径-424" fill="#A9D5D5"></path>
                <path d="M13.2568359,62.9221538 L14.4154074,63.1245087 C18.2636396,63.7421847 21.9045632,63.8306467 23.2207031,64.565588 L23.5851141,64.7759215 C24.8755209,65.5490005 25.9595876,66.5483171 22.0355311,66.4028366 L21.652832,66.3858021 C18.943356,66.2463159 15.3313045,65.9387037 10.8166776,65.4629656 C10.2395231,64.7556506 10.0431449,64.1234387 10.0066307,63.7507627 L9.96825391,62.6515703 C9.96472656,62.4504492 9.97060547,62.2436523 10,62 C10.0271488,61.7749626 10.1280845,61.5436525 10.3028071,61.3060695 C10.5287171,62.052267 11.5128442,62.5906795 13.2568359,62.9221538 Z" id="路径" fill="#95CBCB"></path>
                <path d="M83.3096525,68.366064 C83.5220117,68.3710971 83.5837519,68.594372 83.494873,69.0358887 C82.9013256,71.9217098 79.1378174,72 77.984375,72 L62,72 C60.1407471,72 59.0430908,71.7332764 56.6036377,71.3343506 C54.1641846,70.9354248 49.4866943,70.932373 47.714535,70.991333 C45.9423758,71.050293 41.369873,71.3272705 40.9,71.3343506 C40.430127,71.3414307 38.9882813,72.0493164 37.9973567,72.0493164 C37.0064322,72.0493164 32.8995361,72 30.0565186,72.0493164 C27.213501,72.0986328 21.7004395,71.1367187 20.7735596,70.8339844 C20.0626396,70.6017861 18.1176088,69.62273 15.8403638,68.5392258 C17.8606902,68.9730236 20.4114448,69.4205475 23.4909668,69.8815918 C32.378418,71.2121582 37.3313066,70.8061523 39.5102539,70.4328613 C41.6892012,70.0595703 44.6496995,70.161377 47.0253906,69.9287109 C49.4010818,69.6960449 59.2816444,69.6140137 60.8607929,70.1086426 C62.4399414,70.6032715 66.8944839,70.932373 71.3577644,70.8469238 C75.8210449,70.7614746 79.8946812,70.8283691 81.1537615,70.1086426 C81.8384321,69.7172651 82.5397148,69.1377882 83.2576095,68.3702118 Z" id="形状结合" fill="#6BB7B0"></path>
                <path d="M58.5202365,70.3088379 L59.9314504,70.8358742 C60.8086453,71.1576063 61.6315059,71.416748 62.8373996,71.5932617 L64.0454711,71.7791563 C64.4650777,71.8466179 64.9016004,71.9195764 65.3550393,71.9980317 L62,72 C60.1407471,72 59.0430908,71.7332764 56.6036377,71.3343506 C54.3166504,70.9603577 50.0626383,70.9343009 48.0796061,70.9810862 L46.9724448,71.0209146 C45.156315,71.1015867 42.151507,71.2783534 41.1767052,71.3237122 C42.2116538,70.8523303 43.5241575,70.5144646 45.1156006,70.3088379 C48.3537598,69.8904428 56.95893,69.7398682 58.5202365,70.3088379 Z" id="路径" fill="#44A098"></path>
                <path d="M84,64 C84.0473248,65.5732422 84.0262377,66.5236816 83.9367387,66.8513184 C83.8472397,67.1789551 83.6387553,67.4000651 83.3112854,67.5146484 C83.2543396,67.6241862 83.2582947,67.7972717 83.3231506,68.033905 C83.4204346,68.388855 83.3241519,68.4217645 83.2571411,68.4248047 C75.332501,68.7843381 70.0244323,68.9395369 67.4377441,68.8820801 C63.5249023,68.795166 48.2643045,68.1738281 46.7453114,68.1503906 C45.7326494,68.1347656 43.9715456,68.1347656 41.462,68.1503906 C40.4485964,67.5096842 39.8538818,67.1708171 39.6778564,67.1337891 C39.4138184,67.0782471 29.2312012,66.8500977 29.1075439,66.8513184 C29.0251058,66.8521322 27.364502,65.5233223 24.1257324,62.8648889 C26.5212851,63.0077586 28.4493562,63.0460718 29.9099458,62.9798283 C32.1008301,62.8804631 48.9394746,62.5227971 51.9124863,62.5144963 C54.885498,62.5061955 66.105957,61.7648006 71.682373,61.4853516 C75.3999837,61.2990522 79.1228231,60.84668 82.8508911,60.1282349 C83.2368368,60.1608276 83.5009766,60.4442546 83.6433105,60.9785156 C83.7856445,61.5127767 83.904541,62.5199382 84,64 Z" id="路径-423" fill="#9A9A9B"></path>
                <path d="M84,64 C84.0473248,65.5732422 84.0262377,66.5236816 83.9367387,66.8513184 C83.8472397,67.1789551 83.6387553,67.4000651 83.3112854,67.5146484 C83.2543396,67.6241862 83.2582947,67.7972717 83.3231506,68.033905 C83.4204346,68.388855 83.3241519,68.4217645 83.2571411,68.4248047 C75.332501,68.7843381 70.0244323,68.9395369 67.4377441,68.8820801 C63.5249023,68.795166 48.2643045,68.1738281 46.7453114,68.1503906 C45.7326494,68.1347656 43.9715456,68.1347656 41.462,68.1503906 C40.4485964,67.5096842 39.8538818,67.1708171 39.6778564,67.1337891 C39.4138184,67.0782471 29.2312012,66.8500977 29.1075439,66.8513184 C29.0251058,66.8521322 27.5483398,65.6176927 24.6772461,63.148 C27.0727988,63.2908698 29.0008699,63.3291829 30.4614594,63.2629395 C32.6523437,63.1635742 49.4909883,62.8059082 52.464,62.7976074 C55.4370117,62.7893066 66.6574707,62.0479118 72.2338867,61.7684627 C75.9514974,61.5821634 79.5181986,61.0734558 82.9339905,60.2423401 C83.2645365,60.1988627 83.5009766,60.4442546 83.6433105,60.9785156 C83.7856445,61.5127767 83.904541,62.5199382 84,64 Z" id="路径-423" fill="#E8E7EA"></path>
                <path d="M83.6433105,60.9785156 C83.7856445,61.5127767 83.904541,62.5199382 84,64 L84.0234548,65.1482256 C84.0307343,66.0453395 84.0018289,66.6130371 83.9367387,66.8513184 C83.8472397,67.1789551 83.6387553,67.4000651 83.3112854,67.5146484 C83.268576,67.5968018 83.2601234,67.7147007 83.2859276,67.8683453 L83.3231506,68.033905 C83.4065369,68.3381478 83.3477109,68.4057895 83.2870025,68.4208212 L79.5915836,68.5842696 C75.559396,68.751233 72.3840969,68.8512726 70.0851377,68.8828441 L71.5812062,68.6608055 C72.3643398,68.5414451 73.2001113,68.4096068 74.0884695,68.2654419 C75.7401018,66.602478 76.026123,66.3293457 77.2150879,64.5959473 C78.0077311,63.4403483 78.376709,62.4339193 78.3220215,61.5766602 C79.7671124,61.3244255 80.8012107,61.1079541 81.4243164,60.9272461 C82.0474221,60.746538 82.5280981,60.5237068 82.8663444,60.2587525 L82.9339905,60.2423401 C83.2645365,60.1988627 83.5009766,60.4442546 83.6433105,60.9785156 Z M71.1255591,61.8259811 L71.8068072,61.7912619 L70.7789532,62.3500299 C68.8068103,63.4007411 67.336059,64.0505032 66.3666992,64.2993164 C64.7877968,64.7045856 63.2216125,67.4333053 62.8860447,68.7414338 L46.7453114,68.1503906 L45.438388,68.1398249 C45.3074438,68.1394045 45.1709911,68.139099 45.0290299,68.1389085 C48.1448434,67.6951817 52.5714931,67.1126147 53.7792969,66.4711914 C56.6791992,64.9311523 54.2953167,63.5435943 53.1568948,62.7850217 L54.572201,62.7367798 C58.6851577,62.5688326 66.3245355,62.0823305 71.1255591,61.8259811 Z" id="形状" fill="#DCDBDD"></path>
                <path d="M83.9367387,66.8513184 C83.8472397,67.1789551 83.6387553,67.4000651 83.3112854,67.5146484 C82.2099209,67.6895451 79.135854,67.8745731 77.4244971,67.9563723 L75.9789943,68.0102161 C74.2954308,68.0568445 70.4267212,68.0666347 68.3752441,68.0514526 L55.6793213,67.6115723 C53.9911073,67.5644954 42.1494454,67.1438373 40.1303711,67.086792 L39.736084,66.8729248 C46.7065562,66.9705236 70.7924194,67.9486694 73.3690796,67.8823242 C75.9457397,67.815979 81.9223194,67.4768735 83.1414795,67.2131958 C83.6206665,67.1095581 83.8015008,66.5962264 84.0127581,66.1347705 L83.9831055,66.5721016 C83.9704593,66.6914108 83.9550273,66.7843677 83.9367387,66.8513184 Z" id="路径" fill="#F5F4F6"></path>
                <path d="M39.7323523,66.8553077 L41.5777588,67.9296875 C43.9163462,67.8407841 46.6279741,67.8496174 49.7126425,67.9561873 L54.6977549,68.1659756 L62.5551758,68.3415527 C64.0839844,68.4121094 70.7435743,68.3358154 76.0175781,68.1273193 C79.8938349,67.9330335 82.3240976,67.7349269 83.3083662,67.5329993 C83.2678462,67.6013895 83.259941,67.7158476 83.285882,67.868632 L83.3231506,68.033905 C83.4065369,68.3381478 83.3477109,68.4057895 83.2870025,68.4208212 L80.0213706,68.5663559 C73.8714483,68.8243407 69.6549054,68.9313288 67.4377441,68.8820801 L60.2652936,68.6440917 C54.5501537,68.4344314 47.7344232,68.1656523 46.7453114,68.1503906 L44.0254808,68.139296 C43.2817034,68.1406828 42.4272098,68.144381 41.462,68.1503906 L40.6629828,67.6552515 C40.1294497,67.3335295 39.8010742,67.1597087 39.6778564,67.1337891 L39.2934713,67.1112026 C37.9668354,67.0565687 33.5659193,66.9506611 31.0031717,66.8923255 L39.7323523,66.8553077 Z" id="路径" fill="#8D9697"></path>
                <path d="M54.7874586,62.7289484 L46.7741496,63.4261165 L46.7741496,63.4261165 L45.9205151,63.4839222 C43.3251223,63.588837 27.2337159,63.8510352 27.16,64.0621829 C27.1090956,64.2079906 27.836181,65.1390322 29.3412562,66.8553077 L29.2740641,66.8542866 L29.2740641,66.8542866 L28.8398714,66.6636224 L28.8398714,66.6636224 L27.8697577,65.8688098 C27.1337501,65.2526337 26.0694151,64.3455331 24.6772461,63.148 C26.8066263,63.2749954 28.5666383,63.3193781 29.9572821,63.2811481 L33.205142,63.1797861 C36.8654618,63.0847944 43.1413313,62.9495705 47.627553,62.8679963 L52.9857318,62.7906833 C53.4718057,62.7803446 54.0821969,62.7589219 54.7874586,62.7289484 Z M83.1971731,60.2771051 C82.1820026,60.9406558 80.4503021,61.4306071 77.9957689,61.7520516 L77.4165039,61.8232422 C74.5748914,62.1505662 69.1352701,62.3426842 61.09764,62.3995962 L71.6002874,61.8009076 C71.8185791,61.7895143 72.0300052,61.7786798 72.2338867,61.7684627 C75.9514974,61.5821634 79.5181986,61.0734558 82.9339905,60.2423401 C83.0295896,60.2297657 83.1173171,60.2413541 83.1971731,60.2771051 Z" id="形状" fill="#F8F8F8"></path>
                <path d="M41.462,68.1503906 C41.7501221,68.2045898 44.9954834,70.1027832 45.1688232,70.1772461 C45.3421631,70.251709 49.0591592,70.1873779 50.8868794,70.1772461 C52.7145996,70.1671143 57.6750488,70.5554199 57.925293,70.5189209 C58.0921224,70.4945882 59.2059733,69.8835042 61.2668457,68.6856689 C53.5681152,68.380249 48.8508301,68.2018229 47.1149902,68.1503906 C44.5112305,68.0732422 41.1738779,68.0961914 41.462,68.1503906 Z" id="路径-425" fill="#D2D2D8"></path>
                <path d="M50.7447752,68.8828441 C53.5216088,68.9146209 56.4723971,69.1672392 59.5971399,69.6406992 L58.8165013,70.0787244 C58.3023358,70.3610175 58.0051955,70.5072668 57.925293,70.5189209 L57.758321,70.5193473 C56.8360499,70.4909013 52.5556674,70.1679953 50.8868794,70.1772461 L46.4201868,70.2126999 C45.724259,70.2123679 45.2294922,70.2033081 45.1688232,70.1772461 L44.6340459,69.8804978 L44.6340459,69.8804978 C46.1405381,69.1844061 48.1799664,68.8534936 50.7447752,68.8828441 Z" id="路径" fill="#B3BBC0"></path>
                <path d="M41.8913095,68.1157805 L44.9439697,69.8847656 L46.2907153,69.8496984 C49.0939725,69.7854083 51.1517341,69.7970974 52.464,69.8847656 L53.2020064,69.9395716 C55.340208,70.1117566 57.7801745,70.4053248 57.9898736,70.2521973 L58.6689686,69.8330602 C59.1174826,69.5652425 59.7811549,69.1751349 60.6599855,68.6627374 L61.2668457,68.6856689 L59.6122255,69.6367397 C58.6022991,70.2081318 58.0399882,70.5021922 57.925293,70.5189209 L57.758321,70.5193473 C56.8360499,70.4909013 52.5556674,70.1679953 50.8868794,70.1772461 L46.4201868,70.2126999 C45.724259,70.2123679 45.2294922,70.2033081 45.1688232,70.1772461 L42.4144947,68.629505 C42.0275943,68.4173751 41.7077623,68.2488597 41.549206,68.1812668 L41.462,68.1503906 C41.3874272,68.1363626 41.5557236,68.124428 41.8913095,68.1157805 Z" id="路径" fill="#848C91"></path>
            </g>
        </g>
    </g>
</svg>