<?xml version="1.0" encoding="UTF-8"?>
<svg width="96px" height="96px" viewBox="0 0 96 96" version="1.1" xmlns="http://www.w3.org/2000/svg" xmlns:xlink="http://www.w3.org/1999/xlink">
    <title>Air Jordan 12 Retro</title>
    <defs>
        <rect id="path-1" x="0" y="0" width="96" height="96"></rect>
    </defs>
    <g id="icon" stroke="none" stroke-width="1" fill="none" fill-rule="evenodd">
        <g id="画板" transform="translate(-506.000000, -230.000000)">
            <g id="Air-Jordan-12-Retro" transform="translate(506.000000, 230.000000)">
                <g id="#" opacity="0">
                    <use fill="#FFFFFF" fill-rule="evenodd" xlink:href="#path-1"></use>
                    <rect stroke-opacity="0.5" stroke="#DDDDDD" stroke-width="6" stroke-linejoin="square" x="3" y="3" width="90" height="90"></rect>
                    <rect stroke-opacity="0.507785184" stroke="#DDDDDD" stroke-width="12" stroke-linejoin="square" x="6" y="6" width="84" height="84"></rect>
                    <rect stroke-opacity="0.319406703" stroke="#979797" stroke-width="10" stroke-linejoin="square" x="5" y="5" width="86" height="86"></rect>
                </g>
                <path d="M10.9711914,60.5734863 C11.444987,57.5759277 12.9716797,55.8798014 15.5512695,55.4851074 C19.4206543,54.8930664 23.2546387,56.1364746 28.5305176,56.8432617 C33.8063965,57.5500488 41.317627,57.1149902 48.895752,55.4199219 C56.473877,53.7248535 60.7762451,54.0424805 62.7310791,55.3652344 C64.6859131,56.6879883 66.4696045,58.9534912 66.9361572,62.491333 C67.40271,66.0291748 74.6835938,63.4301758 77.3190918,62.8984375 C79.9545898,62.3666992 84.0026855,59.7128906 83.6456909,58.2210083 C83.4076945,57.2264201 82.1767578,52.1449788 79.9528809,42.9766846 C79.6022135,40.2867432 79.355306,38.5955404 79.2121582,37.9030762 C78.9974365,36.8643799 78.9678955,34.2333984 80.1273193,33.996582 C81.2867432,33.7597656 82.4450684,33.9779053 82.4234619,35.0092773 C82.4018555,36.0406494 81.0300293,40.017334 81.0743408,41.0922852 C81.1186523,42.1672363 82.0804443,46.6951904 82.244873,47.256958 C82.5137939,47.8671875 83.4575806,50.5655518 83.6275635,52.2398682 C83.9078979,52.9256592 84.4143066,57.2836914 84.2315674,58.5594482 C84.0488281,59.8352051 80.9229736,66.565918 76.4091797,66.5285645 C71.8953857,66.4912109 55.092041,66.8353271 51.2827148,66.7576904 C47.4733887,66.6800537 21.1348877,66.375 17.4117432,64.8669434 C14.9296468,63.8615723 12.7827962,62.4304199 10.9711914,60.5734863 Z M80.7388306,37.7183228 C81.2439575,36.4700724 81.4454346,35.6243286 81.3432617,35.1810913 C81.1900024,34.5162354 80.5199585,34.6521606 80.4352417,35.1810913 C80.3787638,35.5337118 80.4799601,36.3794556 80.7388306,37.7183228 Z" id="Shape" fill="#575B60"></path>
                <path d="M83.6609497,58.304447 C83.6573282,58.276255 83.652254,58.2484353 83.6456909,58.2210083 C83.4076945,57.2264201 82.1767578,52.1449788 79.9528809,42.9766846 C79.6022135,40.2867432 79.355306,38.5955404 79.2121582,37.9030762 C78.9974365,36.8643799 78.9678955,34.2333984 80.1273193,33.996582 C81.2867432,33.7597656 82.4450684,33.9779053 82.4234619,35.0092773 C82.4018555,36.0406494 81.0300293,40.017334 81.0743408,41.0922852 C81.1186523,42.1672363 82.0804443,46.6951904 82.244873,47.256958 C82.5137939,47.8671875 83.4575806,50.5655518 83.6275635,52.2398682 C83.8542697,52.7944668 84.2288273,55.7506908 84.267189,57.536179 C84.0952213,57.7961332 83.8908022,58.0559071 83.6609497,58.304447 Z M80.7388306,37.7183228 C81.2439575,36.4700724 81.4454346,35.6243286 81.3432617,35.1810913 C81.1900024,34.5162354 80.5199585,34.6521606 80.4352417,35.1810913 C80.3787638,35.5337118 80.4799601,36.3794556 80.7388306,37.7183228 Z" id="Shape" fill="#3F454D"></path>
                <path d="M62.7310791,55.3652344 C64.6859131,56.6879883 66.4696045,58.9534912 66.9361572,62.491333 C67.0947155,63.693671 68.0403187,64.1872131 69.3231474,64.2939887 C69.0551508,64.620019 68.7361059,64.8042141 68.3618164,64.8081055 C66.0605469,64.8320313 56.6118164,66.9604492 58.1791992,63.5693359 C59.746582,60.1782227 57.8657227,57.1640625 52.0522461,57.6411133 C47.8900205,57.9826633 39.3353956,58.1827975 38.9277447,56.951631 C42.1063179,56.6877394 45.4942964,56.1807565 48.895752,55.4199219 C56.473877,53.7248535 60.7762451,54.0424805 62.7310791,55.3652344 Z" id="Combined-Shape" fill="#484D53"></path>
                <path d="M11.3509156,59.0183702 C12.0573772,56.9832228 13.4574952,55.8054685 15.5512695,55.4851074 C19.4206543,54.8930664 23.2546387,56.1364746 28.5305176,56.8432617 C33.8063965,57.5500488 41.317627,57.1149902 48.895752,55.4199219 C56.473877,53.7248535 60.7762451,54.0424805 62.7310791,55.3652344 C64.1839229,56.3483126 65.5422353,57.8521228 66.3355697,60.0119658 C65.9673267,61.1230276 65.5713718,61.2424928 65.1477051,60.3703613 C64.359375,58.7475586 62.5161133,55.7944336 60.1242676,55.5 C57.7324219,55.2055664 51.5795898,56.1496582 46.203125,56.9023438 C40.8266602,57.6550293 33.6032715,58.0483896 29.8962402,57.7929687 C26.189209,57.5375479 22.3903809,56.4125977 17.762207,56.1818848 C14.9332607,56.0408628 12.7961636,56.9863579 11.3509156,59.0183702 Z" id="Path" fill="#454C55"></path>
                <path d="M14.9370117,58.753418 C16.7832031,59.5878906 18.0703125,60.2177734 26.1357422,61.4726563 C34.2011719,62.7275391 38.0800781,63.1723633 30.2753906,64.9887695 C22.4707031,66.8051758 20.7382812,64.3325195 14.9370117,62.8051758 C13.9445753,62.5438896 13.1278333,62.257096 12.4645642,61.9459035 C11.9438136,61.5175942 11.4459886,61.0601636 10.9711914,60.5734863 C11.2577384,58.7605916 11.9294052,57.4237237 12.9861916,56.5628825 C13.2849433,57.5707945 13.9352575,58.3006282 14.9370117,58.753418 Z" id="Combined-Shape" fill="#3D4147"></path>
                <path d="M66.9816895,62.5932617 C66.6873372,60.5772298 66.1529541,59.368571 65.37854,58.9672852 C64.2169189,58.3653564 59.0444336,58.9440918 54.9862061,60.2775879 C52.280721,61.1665853 49.4798991,62.1262614 46.5837402,63.1566162 L51.6049805,66.0866699 L66.9816895,62.5932617 Z" id="Path-58" fill="#3D4147"></path>
                <path d="M48.21875,63.0244141 C51.5117188,62.0218099 53.9689128,61.2237956 55.590332,60.6303711 C58.0224609,59.7402344 64.8200684,58.3718262 65.8330078,59.7871094 C66.8459473,61.2023926 67.1376953,63.7026367 66.8493652,64.151123 C66.5610352,64.5996094 53.0834961,66.4089355 51.7409668,66.017334 C50.8459473,65.7562663 49.671875,64.7586263 48.21875,63.0244141 Z" id="Path-33" fill="#F5F5F5"></path>
                <path d="M49.5845947,63.5280762 C55.2530518,61.6715495 58.7520345,60.6052246 60.081543,60.3291016 C62.0758057,59.914917 64.1401367,59.8656006 65.0808105,60.3282471 C65.7079264,60.6366781 66.1052653,62.1366374 66.2728271,64.828125 C57.9203695,65.7929688 53.1216634,66.1133626 51.876709,65.7893066 C50.6317546,65.4652507 49.8677165,64.7115072 49.5845947,63.5280762 Z" id="Path-34" fill="#9098A9"></path>
                <path d="M65.0808105,60.3282471 C65.5192487,60.5438817 65.8453745,61.3419219 66.0591879,62.7223675 L65.6114502,62.7228997 C65.4360758,61.6857908 65.1767985,61.0320638 64.8336182,60.7617187 C64.3188477,60.3562012 59.4650879,60.8620605 57.6870117,61.3656006 C56.6036355,61.6724059 54.0051637,62.6638712 49.8915964,64.3399964 C49.7578293,64.0972415 49.6559418,63.8263024 49.5845947,63.5280762 C55.2530518,61.6715495 58.7520345,60.6052246 60.081543,60.3291016 C62.0758057,59.914917 64.1401367,59.8656006 65.0808105,60.3282471 Z" id="Combined-Shape" fill="#4C5463"></path>
                <path d="M55.8876953,63.1102295 C55.5765346,63.2241841 55.3577993,63.2099987 55.2438447,62.898838 C55.1298901,62.5876773 55.4005092,62.3803121 55.7116699,62.2663574 C59.1880391,60.9932262 61.7268568,60.7144018 64.2462158,60.786499 C64.5774511,60.7959781 64.9263492,60.8307521 64.9168701,61.1619873 C64.9073911,61.4932226 64.8881686,61.5328175 64.5569333,61.5233385 C62.2078027,61.4561127 59.2319641,61.8854766 55.8876953,63.1102295 Z" id="Path" fill="#E7E7E7" fill-rule="nonzero"></path>
                <path d="M86,68 C85.2463379,70.6659342 82.5796712,71.9992676 78,72 C71.1304932,72.0010986 69.0166016,72 68,72 C66.9833984,72 63.2609863,71.7341309 62.5378418,71.0751953 C61.4780273,71.0720215 59.1464844,71.0234375 58.1850586,70.487793 C57.1455078,70.723877 54.4196777,71.5319824 53.9753418,71.4382324 C53.5310059,71.3444824 53.1826172,71.2050781 52.840332,71.4382324 C52.4980469,71.6713867 50.3028564,71.5125732 49.6968994,71.6053467 C49.3178711,71.8092041 48.0247803,71.9962158 46,72 C43.9752197,72.0037842 33.7453613,72 32.0053711,72 C30.2653809,72 26.2719727,71.4197998 21.9897461,70.2861328 C17.7075195,69.1524658 11.9725342,67.572998 10.8334961,66.0438232 C10.0741374,65.0243734 9.79630534,63.6764323 10,62 C10.329834,60.7366536 10.6598714,60.1317139 10.9901123,60.1851807 C11.4854736,60.2653809 12.3151855,60.8376465 14.9453125,61.4643555 C17.5754395,62.0910645 22.9509277,64.0195312 25.8256836,63.9047852 C28.7004395,63.7900391 32.9519043,63.0048828 34.296875,63.1433105 C35.6418457,63.2817383 38.5544434,64.699707 39.8447266,64.2287598 C41.1350098,63.7578125 42.5703125,62.1186523 45.9873047,62.1879883 C48.2652995,62.2342122 50.7832845,62.9471029 53.5412598,64.3266602 C58.8654785,61.9101563 63.0313314,61.1972656 66.0388184,62.1879883 C67.1967773,62.6425781 81.4643555,59.5812988 82.7038574,58.661377 C83.9433594,57.7414551 84.3061523,56.7431641 84.7927246,57.4279785 C85.0084045,57.731532 85.3942711,58.7132816 85.6789551,61.7290039 C85.7746079,62.7422765 85.8816229,64.8326086 86,68 Z" id="Path-31" fill="#484D54"></path>
                <path d="M85.9388547,68.2006068 C85.1096079,70.7328218 82.463323,71.9992862 78,72 C71.1304932,72.0010986 69.0166016,72 68,72 C66.9833984,72 63.2609863,71.7341309 62.5378418,71.0751953 C61.4780273,71.0720215 59.1464844,71.0234375 58.1850586,70.487793 C57.1455078,70.723877 54.4196777,71.5319824 53.9753418,71.4382324 C53.5310059,71.3444824 53.1826172,71.2050781 52.840332,71.4382324 C52.4980469,71.6713867 50.3028564,71.5125732 49.6968994,71.6053467 C49.3178711,71.8092041 48.0247803,71.9962158 46,72 C43.9752197,72.0037842 33.7453613,72 32.0053711,72 C30.2653809,72 26.2719727,71.4197998 21.9897461,70.2861328 C21.6361594,70.1925251 21.2726679,70.0958779 20.9026768,69.9964706 C24.1717941,70.6242297 29.8102743,71.4593786 31.3790283,71.4508057 C33.3894043,71.4398193 44.5058594,71.71875 44.8118896,71.6383057 C45.0159098,71.5846761 45.5843099,71.2639974 46.5170898,70.6762695 C46.2969564,71.1057943 46.2455648,71.363973 46.362915,71.4508057 C46.5389404,71.5810547 48.9580078,71.3344727 49.3432617,71.2709961 C49.6000977,71.2286784 50.0417887,70.9282633 50.668335,70.369751 C50.7226156,70.7714437 50.8400879,70.8736165 51.020752,70.6762695 C51.201416,70.4789225 51.5580241,69.7906494 52.0905762,68.6114502 L52.3721924,68.6114502 C51.9893799,69.6547445 51.7729085,70.3430176 51.7227783,70.6762695 C51.647583,71.1761475 52.5733643,71.1018066 53.0727539,70.9394531 C53.4056803,70.8312174 53.8612061,70.4169922 54.4393311,69.6967773 L54.0291748,70.6762695 C54.5544027,70.4178874 54.9836833,70.1810303 55.3170166,69.9656982 C55.6503499,69.7503662 56.4193929,68.3569743 57.6241455,65.7855225 L58.1547852,65.6160889 C56.932373,67.9443766 56.2616374,69.3330078 56.1425781,69.7819824 C55.9639893,70.4554443 57.1329346,70.1599121 57.6241455,69.9656982 C57.9516195,69.8362223 58.3553467,69.2759196 58.8353271,68.28479 C58.5699463,69.1023356 58.431071,69.6013997 58.4187012,69.7819824 C58.4001465,70.0528564 58.9464111,69.8544922 59.2873535,69.7819824 C59.5146484,69.7336426 60.2520345,68.046346 61.4995117,64.7200928 L61.7817383,64.7200928 C60.6346029,67.5578206 60.0218099,69.1641439 59.9433594,69.5390625 C59.8256836,70.1014404 61.8710938,70.5350342 62.1542969,70.3748779 C62.343099,70.2681071 62.8591309,69.1308187 63.7023926,66.9630127 C63.09375,69.1374105 62.8596191,70.2729899 63,70.369751 C63.8013916,70.4393311 64.1591797,70.2862549 64.2927246,69.7819824 C64.3817546,69.4458008 64.589681,67.6885579 64.9165039,64.5102539 L63.9450684,64.5102539 L65.2180176,64.1861572 C64.8825684,67.5819906 64.7005208,69.5033773 64.671875,69.9503174 C64.6289063,70.6207275 65.0942478,70.960436 67.0992432,71.1621094 C69.1042385,71.3637827 70.9012451,71.4685059 75.1749268,71.4508057 C79.4486084,71.4331055 82.2192383,70.9229736 83.6506348,70.3527832 C84.3729914,70.0650357 85.1357313,69.3476435 85.9388547,68.2006068 L85.9388547,68.2006068 Z" id="Path" fill="#2B323B"></path>
                <path d="M66.0388184,62.1879883 C66.1378687,62.2268733 66.3328404,62.2400332 66.6073745,62.2310086 C66.6076591,62.2375695 66.6068358,62.2440193 66.605957,62.2504883 C66.6597493,62.6526693 66.631429,62.8537598 66.5209961,62.8537598 C66.3553467,62.8537598 64.3070068,62.3156738 61.8513184,62.5037842 C59.3956299,62.6918945 55.2381592,64.3887939 54.1436768,64.810791 C53.0491943,65.2327881 46.7875977,67.2113037 41.2984619,67.605835 C37.6390381,67.8688558 34.1727295,67.7409261 30.8995361,67.2220459 C36.7725016,67.210734 40.458903,67.0218506 41.9587402,66.6553955 C43.4483063,66.29145 48.3666606,64.949716 52.3647916,63.7724884 C52.751136,63.9427931 53.1437046,64.1278004 53.5412598,64.3266602 C58.8654785,61.9101563 63.0313314,61.1972656 66.0388184,62.1879883 Z" id="Combined-Shape" fill="#CBCDD0"></path>
                <path d="M10.6833464,60.3249536 C10.7855822,60.2152131 10.8878375,60.1686221 10.9901123,60.1851807 C11.4854736,60.2653809 12.3151855,60.8376465 14.9453125,61.4643555 C17.5754395,62.0910645 22.9509277,64.0195312 25.8256836,63.9047852 C28.7004395,63.7900391 32.9519043,63.0048828 34.296875,63.1433105 C35.6418457,63.2817383 38.5544434,64.699707 39.8447266,64.2287598 C41.1350098,63.7578125 42.5703125,62.1186523 45.9873047,62.1879883 C48.2565742,62.2340352 50.7639989,62.9416515 53.509579,64.3108373 C53.1447236,64.470854 52.8029076,64.6221244 52.4841309,64.7646484 C52.0971945,64.9376464 47.0070492,66.8089233 40.3984375,67.4248047 C34.0808014,68.013569 26.2832684,67.3630995 23.8000488,66.894043 C18.7192383,65.9343262 10.9853516,63.5419922 10.657959,63.1904297 C10.4027516,62.9163815 10.3217076,61.1873122 10.6833464,60.3249536 L10.6833464,60.3249536 Z" id="Path" fill="#4F5356"></path>
                <path d="M10.5395245,60.8136668 C10.7827189,62.1777998 11.6040124,63.3845327 13.6557617,63.9447021 C16.3813477,64.6888428 18.6547852,65.0058594 23.7290039,65.8330078 C28.8032227,66.6601563 32.6655273,66.5708008 34.2412109,66.6225586 C35.8168945,66.6743164 41.2490234,66.0878906 43.5444336,65.4755859 C44.8397308,65.1300631 46.9054947,65.1923384 49.7417252,65.6624118 C47.5517737,66.2884992 44.2303701,67.0676924 40.3984375,67.4248047 C34.0808014,68.013569 26.2832684,67.3630995 23.8000488,66.894043 C18.7192383,65.9343262 10.9853516,63.5419922 10.657959,63.1904297 C10.4564795,62.9740759 10.3635506,61.8508529 10.5112983,60.9631788 Z" id="Combined-Shape" fill="#4A5960"></path>
                <path d="M10.9459229,62.9219971 C11.244873,63.2320557 14.9328613,64.4071045 16.057251,64.697876 C17.1816406,64.9886475 22.7785645,66.7115479 27.2062988,67.0671387 C29.9353565,67.286309 33.6869558,67.5073806 36.1234304,67.6473779 C30.9318382,67.7384205 25.7415906,67.2607818 23.8000488,66.894043 C18.7192383,65.9343262 10.9853516,63.5419922 10.657959,63.1904297 C10.4192166,62.934062 10.3328899,61.4043616 10.6188075,60.5020608 C10.6532349,61.92541 10.7620541,62.7312961 10.9459229,62.9219971 Z" id="Combined-Shape" fill="#202D36"></path>
                <path d="M14.1713767,61.2683618 C14.4104692,61.3327448 14.6678742,61.3982472 14.9453125,61.4643555 C17.5754395,62.0910645 22.9509277,64.0195312 25.8256836,63.9047852 C28.7004395,63.7900391 32.9519043,63.0048828 34.296875,63.1433105 C35.6418457,63.2817383 38.5544434,64.699707 39.8447266,64.2287598 C41.1350098,63.7578125 42.5703125,62.1186523 45.9873047,62.1879883 C48.2520331,62.233943 50.7539647,62.9388222 53.4930994,64.3026256 C53.2026574,64.4383786 52.9267241,64.5652553 52.6652994,64.6832559 C50.8623047,63.7452393 49.6155144,63.4508456 48.5604248,63.1394043 C46.6812744,62.5847168 44.6306152,62.640625 43.5845947,62.9584961 C42.5385742,63.2763672 41.2150879,64.0197754 40.4694824,64.4099121 C39.723877,64.8000488 38.9450684,64.741333 36.7570801,64.0875244 C34.5690918,63.4337158 34.7213135,63.2562256 32.4046631,63.4482422 C30.0880127,63.6402588 26.1835938,64.3182373 24.5900879,64.0959473 C22.6039899,63.8188916 19.5145264,62.8343506 14.1713767,61.2683618 Z" id="Path" fill="#DFDFDF"></path>
                <path d="M76.6939697,68.2574463 C74.8796387,68.4248047 68.2949219,68.4094238 67.7043457,68.2453613 C67.1137695,68.0812988 66.751709,66.3029785 66.8195801,65.4372559 C66.8874512,64.5715332 66.4395752,61.0455322 66.2120361,60.1849365 C65.9844971,59.3243408 62.9289551,54.3625488 59.1269531,54.5935059 C55.3249512,54.8244629 40.9023437,56.8522949 37.715332,57.0969238 C34.5283203,57.3415527 29.3115234,57.234375 24.6767578,56.2407227 C20.0419922,55.2470703 16.0758057,55.4226074 14.9855957,55.6993408 C14.2587891,55.8838298 13.7359212,56.0663249 13.4169922,56.2468262 C14.2644857,55.6888021 15.4853923,55.3060303 17.0797119,55.0985107 C19.4711914,54.7872314 25.5195312,53.4473877 25.7299805,53.3852539 C25.9404297,53.3231201 27.119873,52.9525146 27.3648682,53.0150146 C27.6098633,53.0775146 28.9819336,52.1561279 29.3624268,51.9959717 C29.7429199,51.8358154 30.6248779,51.1695557 30.8917236,51.5279541 C31.1585693,51.8863525 32.0668945,51.4835205 32.2513428,51.3654785 C32.435791,51.2474365 33.2806396,50.4338379 33.8585205,51.0163574 C34.4364014,51.598877 35.2061768,51.2304688 35.4173584,50.7431641 C35.62854,50.2558594 36.3405762,49.8416748 36.6124268,49.8070068 C36.8842773,49.7723389 37.4349365,49.131958 38.2642822,49.2174072 C39.0936279,49.3028564 39.6297607,48.5837402 40.0964355,48.4642334 C40.5631104,48.3447266 41.3920898,48.6835938 41.7672119,48.4642334 C42.142334,48.244873 42.9359131,48.0943604 43.3989258,47.6268311 C43.8619385,47.1593018 44.0804443,46.3321533 44.9493408,46.3709717 C45.8182373,46.40979 46.0316162,45.7347412 46.50354,45.6158447 C46.9754639,45.4969482 47.9998779,44.7121582 48.2646484,44.5533447 C48.5294189,44.3945313 49.5557861,43.4151611 50.1102295,43.4538574 C50.6646729,43.4925537 51.1291504,43.112915 51.1330566,42.6699219 C51.1369629,42.2269287 51.100708,41.1337891 51.878418,41.2296143 C52.6561279,41.3254395 53.0864258,41.2727051 53.8062744,40.4573975 C54.526123,39.6420898 54.4014893,38.3522949 54.6791992,38.1025391 C54.9569092,37.8527832 55.7196045,37.9338379 56.0294189,37.7037354 C56.3392334,37.4736328 58.1712646,35.3491211 58.2711182,34.9329834 C58.3709717,34.5168457 57.9326172,33.5997314 58.2711182,33.3322754 C58.6096191,33.0648193 59.203125,32.6116943 59.5870361,32.7407227 C60.0908203,32.8011475 61.1159668,32.4399414 61.5330811,32.5761719 C62.0079346,32.2420654 62.1324463,31.9334717 62.5321045,31.9538574 C62.9317627,31.9742432 64.3670654,32.8864746 65.1872559,33.7803955 C66.4897461,33.9262695 68.6662598,34.6005859 70.9281006,35.2800293 C73.1899414,35.9594727 75.5906982,37.0450439 76.6734619,36.9783936 C77.7562256,36.9117432 78.5479736,36.5837402 78.8292236,36.755127 C79.1104736,36.9265137 79.9927979,38.5108643 80.067749,39.5950928 C80.1427002,40.6793213 80.802124,42.3963623 80.7047119,42.6699219 C80.6072998,42.9434814 80.6009521,43.7141113 80.7047119,44.154541 C80.8084717,44.5949707 81.2501221,46.2602539 81.4230957,46.6333008 C81.5960693,47.0063477 82.4660645,49.2503027 82.7652588,50.1429736 C82.9647217,50.7380876 83.1393229,51.5471598 83.2890625,52.5701904 C83.548584,53.3023682 83.6996257,54.1451416 83.7421875,55.0985107 C83.8060303,56.5285645 83.9696045,58.3536377 84.0775146,58.5168457 C84.1854248,58.6800537 84.8144531,58.6600342 84.7663574,60.1081543 C84.7182617,61.5562744 84.5931396,63.8426514 84.7658691,64.909668 C84.9385986,65.9766846 84.7288818,66.9083252 83.5610352,67.2512207 C82.3931885,67.5941162 78.5083008,68.0900879 76.6939697,68.2574463 Z" id="Path-36" fill="#EDEDED"></path>
                <path d="M81.6958008,47.4533691 C81.4907227,49.1200358 80.6822917,50.5027669 79.2705078,51.6015625 C77.152832,53.2497559 72.7414551,54.2717285 70.8637695,55.5898438 C69.6119792,56.4685872 68.1713053,57.452474 66.541748,58.5415039 C69.4219564,55.8746745 71.4048665,54.2035319 72.4904785,53.5280762 C74.1188965,52.5148926 77.7333984,50.2719727 78.6281738,49.7426758 C79.2246908,49.3898112 80.2472331,48.626709 81.6958008,47.4533691 Z" id="Path-55" fill="#FAFAFA"></path>
                <path d="M83.3702698,53.0871887 C83.0195821,54.8833923 82.3108724,56.0003255 81.2441406,56.4379883 C79.644043,57.0944824 76.9160156,57.3447266 74.4702148,57.9946289 C72.839681,58.4278971 70.5761719,59.3312174 67.6796875,60.7045898 C69.8761393,58.7216797 71.3631999,57.575765 72.1408691,57.2668457 C73.307373,56.8034668 79.7287598,54.5273438 80.3337402,54.3117676 C80.7370605,54.1680501 81.7492371,53.7598572 83.3702698,53.0871887 Z" id="Path-54" fill="#F7F7F7"></path>
                <path d="M71.4536674,68.3748776 C76.1145467,68.0537185 79.1786562,67.6980464 80.6459961,67.3078613 C82.935791,66.6989746 83.9931641,66.4274902 83.9489746,64.1809082 C83.9047852,61.9343262 84.1103516,59.9814453 83.5705566,59.8320313 C83.0307617,59.6826172 78.0656738,60.3071289 74.2087402,61.8425293 C71.6374512,62.8661296 69.22111,63.8105469 66.9597168,64.6757813 C72.455485,61.8636068 76.1777344,60.2490234 78.1264648,59.8320313 C80.1942733,59.3895586 82.9572451,58.7529533 84.4380514,58.7838776 C84.6192282,58.9689629 84.7924517,59.3224783 84.7663574,60.1081543 C84.7182617,61.5562744 84.5931396,63.8426514 84.7658691,64.909668 C84.9385986,65.9766846 84.7288818,66.9083252 83.5610352,67.2512207 C82.3931885,67.5941162 78.5083008,68.0900879 76.6939697,68.2574463 C75.7420922,68.3452498 73.4771607,68.3827542 71.4536674,68.3748776 L71.4536674,68.3748776 Z" id="Path" fill="#D8D6D6"></path>
                <path d="M66.7927066,64.4713159 C66.6914467,63.0785689 66.3867719,60.8458204 66.2120361,60.1849365 C65.9844971,59.3243408 62.9289551,54.3625488 59.1269531,54.5935059 C55.3249512,54.8244629 40.9023438,56.8522949 37.715332,57.0969238 C35.8463961,57.2403798 33.2794343,57.2628524 30.5411606,57.0565174 C34.4585093,56.9292277 38.0728816,56.5690799 41.3842773,55.9760742 C48.6152344,54.6811523 56.7075195,52.1328125 61.2617188,53.0234375 C65.815918,53.9140625 66.4272461,55.7441406 67.7509766,59.1601563 C68.6334635,61.4375 70.3180339,62.3141276 72.8046875,61.7900391 L66.7927066,64.4713159 Z" id="Path" fill="#DCDCDC"></path>
                <path d="M70.4755859,37.1696777 C73.0332031,36.138916 75.6763874,37.0397693 76.6734619,36.9783936 C77.1944177,36.9463257 77.6480059,36.8537571 78.0097809,36.785418 C78.4981706,37.0893981 78.8864334,37.439987 79.2089844,37.8320312 C80.378418,39.253418 75.8945312,56.5063477 67.8535156,53.2011719 C59.8125,49.8959961 55.9111328,52.0458984 52.0268555,51.4707031 C48.1425781,50.8955078 56.2058105,43.2460937 60.2019043,40.0864258 C64.1973379,36.9272798 65.6816406,38.6147461 70.4755859,37.1696777 Z" id="Path" fill="#E1E0E0"></path>
                <path d="M32.5317993,52.0707397 C32.2711792,51.2449341 32.4162801,50.7914836 32.9671021,50.7103882 C33.517924,50.6292928 34.0318807,50.9882202 34.5089722,51.7871704 C35.2573039,51.6079305 35.6656494,51.5106812 35.7340088,51.4954224 C35.8365479,51.4725342 35.4487305,50.4453735 35.7340088,50.0616455 C36.0192871,49.6779175 36.805481,49.6365356 36.8521118,49.6585693 C36.8987427,49.680603 37.0530396,50.0048218 36.8521118,50.2556152 C36.6511841,50.5064087 36.0828857,51.2694092 36.4830933,51.2983398 C36.8833008,51.3272705 39.1503296,50.460144 39.2729492,50.3410645 C39.3955688,50.2219849 39.4136353,48.8301392 39.8647461,48.588501 C40.3158569,48.3468628 41.822998,48.315979 41.2547607,48.6293335 C40.6865234,48.942688 40.324646,49.0344238 40.0870972,50.0616455 C40.6066284,49.967041 43.4526367,49.0233154 43.5328979,48.9078369 C43.6131592,48.7923584 43.1572876,47.3481445 44.0681763,46.6029053 C44.9790649,45.857666 45.5432739,46.0626221 45.4810181,46.234375 C45.4187622,46.4061279 44.7664185,46.8456421 44.5517578,47.3546143 C44.3370972,47.8635864 44.4002075,48.456604 44.5995483,48.5110474 C44.7988892,48.5654907 47.5291138,47.1003418 47.6141357,46.9630127 C47.6991577,46.8256836 47.5447998,45.4460449 47.9465942,44.8126831 C48.3483887,44.1793213 48.9707031,43.6049194 48.9823608,43.7557373 C48.9940186,43.9065552 48.7062378,44.5097656 48.6224365,45.065918 C48.5386353,45.6220703 48.3769531,46.5167236 48.6224365,46.4483032 C48.8679199,46.3798828 51.7179565,44.7930908 51.7426147,44.5319824 C51.7672729,44.270874 51.0441895,43.5324097 51.0383301,42.2111206 C51.0324707,40.8898315 52.7221069,40.9642334 52.7914429,41.0808716 C52.8607788,41.1975098 52.1824341,41.5644531 52.0292358,41.8242798 C51.8760376,42.0841064 51.994812,43.4312134 52.37854,43.9666748 C52.296875,44.2305094 52.0848999,44.5125122 51.7426147,44.8126831 L47.2506714,47.5126343 L44.0681763,49.0003662 L40.0870972,50.3410645 L36.1784058,51.5888062 L33.7712402,52.1635132 L32.5317993,52.0707397 Z" id="Path-40" fill="#E2E2E2"></path>
                <path d="M50.1936848,45.9691061 C50.4040408,49.2639698 51.1478007,53.2721906 51.7855153,55.3900197 C51.5890575,55.414242 51.3912322,55.4387179 51.1922963,55.4634053 C50.5417388,53.285855 49.8484896,49.5328768 49.6163294,46.3260591 C48.3334053,47.105166 47.0611523,47.7837775 45.7995252,48.3618453 L45.7723223,48.3742939 C46.1962633,49.9544084 46.757824,51.5280632 47.4291552,53.0854484 C47.8656732,54.0981031 48.2563542,54.919125 48.7024174,55.7754138 C48.490985,55.8021015 48.2794921,55.8288308 48.0682258,55.855555 C47.6575741,55.0570274 47.2878161,54.2732835 46.8781664,53.3229592 C46.2089126,51.7703931 45.6465281,50.2006007 45.2176641,48.621819 C43.9447267,49.1771107 42.4713786,49.7377586 40.9911223,50.2522297 C41.3016599,50.4991194 41.6243195,50.827156 41.961449,51.2318984 C42.5092114,51.8895169 43.0828965,52.7323358 43.7137312,53.7750044 C43.9255978,54.1251858 44.5819627,55.2823122 45.1288961,56.2278031 C44.9117511,56.2552525 44.6964154,56.2824421 44.4832414,56.309314 C43.9522736,55.3911711 43.3766948,54.3770216 43.2003758,54.0855944 C42.5837784,53.066458 42.0255264,52.2463123 41.500429,51.6159043 C41.1810429,51.2324639 40.8803186,50.9279691 40.6006272,50.7083743 C40.5028401,50.6315986 40.406841,50.5570526 40.3125385,50.4847264 C39.0639236,50.9064524 37.8314909,51.2895929 36.7319437,51.6030676 C38.2937932,52.9000431 40.1619338,54.8814522 41.2558444,56.7100189 C41.0305632,56.7373075 40.8117202,56.7635993 40.600015,56.7887795 C39.4398817,54.9491189 37.4995417,52.9656009 36.0369552,51.7967489 C34.8105777,52.1302044 33.8056549,52.3566951 33.2155128,52.4247348 L33.2008376,52.4264203 C34.8214312,53.7916377 36.3280242,55.5822177 37.2852406,57.1233719 C37.0686661,57.1338191 36.835432,57.1412824 36.5878318,57.1459945 C35.5577292,55.5720636 33.9726718,53.7679536 32.3322896,52.4953001 C31.9331055,52.5077727 28.0993652,53.3181152 27.8400879,53.0755615 C27.5808105,52.8330078 28.6276855,52.5297852 29.7502441,52.4086914 C30.8728027,52.2875977 32.3653352,51.9187802 33.1467919,51.8286832 C35.0491789,51.6093501 41.5809044,49.6348012 45.5495959,47.8163773 C48.7456423,46.3519735 52.0189299,44.2268789 55.3686889,41.4402678 C55.4960627,41.3343075 55.6852173,41.3516666 55.7911776,41.4790404 C55.8971378,41.6064143 55.8797787,41.7955689 55.7524049,41.9015291 C55.69596,41.9484847 55.6395349,41.9952557 55.5831296,42.0418421 C55.2561545,44.1934752 55.0569802,46.2825375 55.0570801,47.8752253 C55.0571988,49.7684286 55.1274806,51.5867203 55.2485328,53.3864861 C55.2755631,53.7883637 55.3261445,54.4454724 55.3669303,54.9620185 C55.1720681,54.9842566 54.9731204,55.0072037 54.7704887,55.0307941 C54.7293422,54.5101468 54.6774986,53.8372951 54.6498854,53.4267511 C54.5279882,51.6144214 54.4571997,49.7830227 54.4570801,47.875263 C54.4569883,46.4115636 54.618719,44.5508109 54.8925634,42.6037646 C53.310694,43.8715814 51.7444275,44.9933902 50.1936848,45.9691061 Z M66.4582106,61.3530152 C68.9596841,58.6347496 71.67627,56.8213008 74.6072115,55.918137 C79.1972868,54.5037145 81.8070353,53.5595223 83.310434,52.6314491 C83.3761782,52.8229325 83.4346257,53.0218549 83.4857767,53.2282161 C81.9013599,54.1689152 79.2845273,55.1046722 74.7839017,56.4915309 C71.8296212,57.4018865 69.0898019,59.2798375 66.5635784,62.1316377 C66.5292747,61.8595371 66.493696,61.5963458 66.4582106,61.3530152 Z M65.6222268,58.9841542 C66.8213318,57.5806703 68.2621965,56.244609 69.9145617,54.9579814 C71.2340225,53.9305724 72.6247701,52.9811089 74.1649688,52.0240752 C74.9809535,51.5170466 77.0489539,50.2930738 77.1720353,50.2171151 C78.289762,49.5273188 78.5394412,49.3712624 79.065646,49.0251539 C80.1450134,48.3152054 80.9924462,47.6743781 81.6082272,47.0752961 C81.677222,47.24632 81.7587395,47.4520306 81.8465923,47.6767028 C81.2188631,48.2567336 80.4035844,48.8632864 79.3953635,49.5264386 C78.8623214,49.8770444 78.6105841,50.0343871 77.4871444,50.7277091 C77.3574793,50.8077309 75.290534,52.0310792 74.4816369,52.5337038 C72.9580974,53.4803859 71.5841933,54.4183505 70.2831857,55.4313906 C68.6005071,56.7416221 67.144392,58.1011271 65.9488909,59.5269125 C65.8583142,59.3638289 65.7489692,59.1809383 65.6222268,58.9841542 Z M63.9710634,56.9177233 C64.5873807,55.4904974 66.7425909,52.9524894 69.1764808,51.115993 C69.0389558,51.2197628 70.9579255,49.7834154 71.5714224,49.3135574 C72.6164977,48.5131672 73.5324072,47.7787656 74.4031404,47.0322812 C76.7366848,45.0317205 78.5343502,43.1179025 79.7199388,41.244 C79.7671472,41.5018725 79.8486722,41.7427423 79.9645136,41.9666094 C78.7478286,43.7688473 77.0042109,45.5926792 74.793658,47.4877985 C73.9136178,48.2422619 72.9894317,48.9832998 71.9362418,49.7899048 C71.3196234,50.2621534 69.3980113,51.7004786 69.5378746,51.5949445 C66.9895257,53.5178061 64.7528991,56.2476418 64.4279799,57.4089506 C64.2827702,57.2443258 64.1302958,57.079855 63.9710634,56.9177233 Z M62.0051032,55.3554634 C63.1511855,52.3608683 64.9123249,49.6123967 67.3084747,46.7793521 C68.5264702,45.339277 72.1505256,41.5208802 72.4632183,41.1609243 C73.6877486,39.7513078 74.2853972,38.6683577 74.5977322,37.2790111 C74.8091591,37.3420935 75.0025044,37.3994767 75.1744677,37.450077 C74.8400762,38.9129088 74.2026909,40.073438 72.9161762,41.5544077 C72.5909324,41.9288116 68.9705475,45.7433412 67.7665896,47.1668192 C65.3829576,49.9850637 63.6440294,52.7094454 62.5220798,55.6838095 C62.3537515,55.567507 62.181313,55.4575707 62.0051032,55.3554634 Z M58.7268456,54.6213266 C58.5360222,54.6359927 58.3270798,54.6537312 58.1017257,54.6742626 C58.8799222,51.0062697 60.9354853,45.3668108 62.8973851,41.2291359 C63.7998668,39.325789 64.9301531,37.2399538 66.2882771,34.9712953 C66.4875968,35.0103868 66.6952405,35.0536521 66.9102774,35.1008249 C65.5137969,37.4229355 64.3568689,39.5515132 63.439529,41.4861962 C61.5272383,45.5192448 59.520134,51.0077749 58.7268456,54.6213266 Z M34.094696,57.1222709 C32.1600818,56.1123657 29.2102694,55.1584073 27.2888257,54.9093271 C26.1750248,54.7649431 25.5835956,54.257512 25.7370732,53.5538657 C25.7504941,53.4923354 25.7698341,53.4313098 25.7946801,53.3710835 C25.9254504,53.3436949 26.2438866,53.279468 26.681881,53.192555 C26.4863165,53.3505369 26.3577826,53.5235949 26.3232905,53.68173 C26.2628344,53.9589021 26.5544603,54.2091097 27.3659594,54.3143057 C29.704404,54.6174425 33.4060793,55.8816056 35.3208803,57.1487035 C34.9301439,57.1441141 34.5194895,57.135108 34.094696,57.1222709 Z M28.7193648,56.8242163 C27.3045591,56.4099264 25.6881954,56.0080593 24.3622442,55.7698836 C23.3642382,55.5906155 21.9783267,55.5231694 20.5085019,55.5405115 C19.5880127,55.4284668 18.6676787,55.4028416 17.0108643,55.3862305 C14.5635986,55.3616943 13.8269713,56.0611165 13.7297974,56.0752563 C14.4472543,55.5946082 15.6222565,55.3361498 16.6942067,55.155876 C19.3236903,54.8868657 22.5570473,54.83602 24.4683222,55.1793352 C26.6175645,55.5653956 29.495784,56.3670539 31.147664,56.9881827 C30.3319275,56.9404585 29.5116842,56.8847069 28.7193648,56.8242163 Z" id="Shape" fill="#B5B5B5"></path>
                <path d="M80.6432112,43.0153628 C80.3211922,42.7675209 79.6071173,41.4171341 79.4919434,40.9050293 C79.364502,40.3383789 78.8968506,38.7229004 78.1281738,38.3532715 C77.3594971,37.9836426 72.232666,36.7487793 70.8433838,36.3122559 C69.4541016,35.8757324 66.1778564,34.9102783 65.4819336,34.836792 C64.7860107,34.7633057 62.9745294,34.7737351 62.3809814,34.84021 C61.2310791,34.9689941 59.9398193,36.2543945 59.3502197,37.0166016 C58.516399,38.0945264 56.7940674,41.2767334 55.2266846,42.5991211 C54.9230187,42.8553214 54.4784978,42.4702203 54.5178223,42.4210205 C56.4490967,40.0047607 57.2753906,38.9210205 58.5063477,36.9853516 C59.2027117,35.8903254 60.5947266,34.3494873 61.8088379,34.0771484 C62.6182454,33.8955892 63.4092611,33.8109538 64.1818848,33.8232422 C63.2574056,33.0280762 62.6210938,32.5681966 62.2729492,32.4436035 C62.0591232,32.36708 62.0780422,32.2205536 62.1435066,32.0686112 C62.2556788,31.9904637 62.3717423,31.9456777 62.5321045,31.9538574 C62.9317627,31.9742432 64.3670654,32.8864746 65.1872559,33.7803955 C66.4897461,33.9262695 68.6662598,34.6005859 70.9281006,35.2800293 C73.1899414,35.9594727 75.5906982,37.0450439 76.6734619,36.9783936 C77.7562256,36.9117432 78.5479736,36.5837402 78.8292236,36.755127 C79.1104736,36.9265137 79.9927979,38.5108643 80.067749,39.5950928 C80.1427002,40.6793213 80.802124,42.3963623 80.7047119,42.6699219 C80.6763168,42.7496631 80.6556593,42.8716401 80.6432112,43.0153628 L80.6432112,43.0153628 Z M61.5651,32.5533059 C60.3832124,33.8984096 58.1169814,36.4911269 57.5710449,36.8426514 C57.3982088,36.9539393 55.4584568,38.785601 55.7259521,38.2015381 C55.7862304,38.0699235 55.8547792,37.9221052 55.9307043,37.7609648 C55.9670987,37.7442871 56.0002641,37.725389 56.0294189,37.7037354 C56.3392334,37.4736328 58.1712646,35.3491211 58.2711182,34.9329834 C58.3447038,34.6263168 58.1260027,34.0475829 58.1413169,33.6572777 C58.2399749,33.5019976 58.3394274,33.3497925 58.4393203,33.2018036 C58.7831697,32.9418406 59.260785,32.6310732 59.5870361,32.7407227 C60.0908203,32.8011475 61.1159668,32.4399414 61.5330811,32.5761719 C61.5439346,32.5685354 61.554605,32.5609122 61.5651,32.5533059 L61.5651,32.5533059 Z" id="Shape" fill="#78788A"></path>
                <path d="M61.376709,42.3022461 C61.2685547,42.3942057 61.0432129,42.3942057 60.7006836,42.3022461 C60.1868896,42.1643066 58.9035645,41.5906982 58.8083496,41.3516846 C58.7131348,41.1126709 58.0932617,40.008667 58.3139648,39.8695068 C58.534668,39.7303467 59.5708008,38.9104004 59.7635498,39.2141113 C59.8761746,39.3915721 60.5838556,40.0107244 61.3251953,41.4586182 C61.3948567,41.5946722 61.4120279,41.8758816 61.376709,42.3022461 Z" id="Path-37" fill="#AAABB2"></path>
                <path d="M58.1278076,46.6744385 C58.0196533,46.7663981 57.7943115,46.7663981 57.4517822,46.6744385 C56.9379883,46.536499 55.6546631,45.9628906 55.5594482,45.723877 C55.4642334,45.4848633 55.0360107,44.3046875 55.2567139,44.1655273 C55.477417,44.0263672 56.3218994,43.2825928 56.5146484,43.5863037 C56.6272733,43.7637645 57.3349542,44.3829168 58.0762939,45.8308105 C58.1459553,45.9668646 58.1631266,46.2480739 58.1278076,46.6744385 Z" id="Path-37-Copy" fill="#AAABB2"></path>
                <path d="M61.3945312,42.3087158 C61.536499,42.2276611 62.548584,41.0007324 62.5717773,40.8737793 C62.5949707,40.7468262 61.3192139,39.4110107 61.2906494,39.2572021 C61.262085,39.1033936 60.8508301,37.4400635 60.7418213,37.1313477 C60.6328125,36.8226318 60.0845947,36.5537109 59.7570801,36.7462158 C59.4295654,36.9387207 58.5568848,38.2659912 58.546875,38.4591064 C58.5368652,38.6522217 58.9542236,40.2930908 59.1398926,40.4959717 C59.3255615,40.6988525 59.9008789,40.8331299 60.2164307,41.2341309 C60.5319824,41.6351318 61.2525635,42.3897705 61.3945312,42.3087158 Z" id="###" fill="#BFBFBF"></path>
                <path d="M61.5237691,39.5780568 C61.6590343,39.740469 61.8356314,39.9424663 62.0052162,40.1386528 L60.5864863,41.6619098 C60.4442359,41.5089037 60.3118252,41.3553576 60.2164307,41.2341309 C60.1917475,41.2027637 60.1654749,41.1730285 60.1379237,41.1447648 Z" id="Combined-Shape" fill="#929292"></path>
                <path d="M59.7772827,36.9016113 C59.7923172,37.3673038 59.8744576,37.667942 59.9512939,38.0012207 C60.06486,38.4938151 60.2099406,38.7796224 60.3865356,38.8586426 L59.0689965,40.3762098 C58.8653256,39.9406123 58.5379968,38.6303913 58.546875,38.4591064 C58.5568848,38.2659912 59.4295654,36.9387207 59.7570801,36.7462158 C59.7723875,36.7372185 59.788177,36.7292292 59.8043813,36.7222047 C59.7845381,36.7894683 59.7755628,36.8483364 59.7772827,36.9016113 Z" id="Combined-Shape" fill="#ECECEC"></path>
                <path d="M60.9627686,39.1098022 C61.1129149,39.1868635 61.2312454,39.2531517 61.3177599,39.3086668 C61.3516521,39.366591 61.4304134,39.466219 61.531122,39.5868757 L60.1363089,41.1431114 C59.9695719,40.972718 59.7563956,40.8559106 59.5653024,40.7573076 L60.9627686,39.1098022 Z" id="Combined-Shape" fill="#EBEBEB"></path>
                <path d="M61.0756836,39.0223389 C60.8071289,37.9429525 60.6466471,37.3393758 60.5942383,37.2116089 C60.5418294,37.083842 60.3466593,36.9742432 60.008728,36.8828125 C60.1035767,37.6588542 60.1859945,38.1502279 60.2559814,38.3569336 C60.3259684,38.5636393 60.5992025,38.7854411 61.0756836,39.0223389 Z" id="%%%" fill="#5F5F5F"></path>
                <path d="M58.1882324,46.6967773 C58.3302002,46.6157227 59.3422852,45.3887939 59.3654785,45.2618408 C59.3886719,45.1348877 58.112915,43.7990723 58.0843506,43.6452637 C58.0557861,43.4914551 57.6445312,41.828125 57.5355225,41.5194092 C57.4265137,41.2106934 56.8782959,40.9417725 56.5507812,41.1342773 C56.2232666,41.3267822 55.3505859,42.6540527 55.3405762,42.847168 C55.3305664,43.0402832 55.7479248,44.6811523 55.9335937,44.8840332 C56.1192627,45.0869141 56.6945801,45.2211914 57.0101318,45.6221924 C57.3256836,46.0231934 58.0462646,46.777832 58.1882324,46.6967773 Z" id="###" fill="#BFBFBF"></path>
                <path d="M58.3174703,43.9661183 C58.4527355,44.1285305 58.6293326,44.3305278 58.7989173,44.5267143 L57.3801874,46.0499714 C57.2379371,45.8969652 57.1055264,45.7434191 57.0101318,45.6221924 C56.9854487,45.5908252 56.9591761,45.56109 56.9316249,45.5328263 Z" id="Combined-Shape" fill="#929292"></path>
                <path d="M56.5709839,41.2896729 C56.5860184,41.7553654 56.6681588,42.0560036 56.7449951,42.3892822 C56.8585612,42.8818766 57.0036418,43.1676839 57.1802368,43.2467041 L55.8626977,44.7642714 C55.6590268,44.3286738 55.3316979,43.0184528 55.3405762,42.847168 C55.3505859,42.6540527 56.2232666,41.3267822 56.5507812,41.1342773 C56.5660887,41.12528 56.5818782,41.1172907 56.5980824,41.1102663 C56.5782393,41.1775298 56.5692639,41.236398 56.5709839,41.2896729 Z" id="Combined-Shape" fill="#ECECEC"></path>
                <path d="M57.7564697,43.4978638 C57.9066161,43.574925 58.0249465,43.6412132 58.111461,43.6967283 C58.1453533,43.7546525 58.2241146,43.8542806 58.3248232,43.9749372 L56.93001,45.5311729 C56.7632731,45.3607795 56.5500968,45.2439721 56.3590036,45.1453691 L57.7564697,43.4978638 Z" id="Combined-Shape" fill="#EBEBEB"></path>
                <path d="M57.8693848,43.4104004 C57.6008301,42.331014 57.4403483,41.7274373 57.3879395,41.5996704 C57.3355306,41.4719035 57.1403605,41.3623047 56.8024292,41.270874 C56.8972778,42.0469157 56.9796956,42.5382894 57.0496826,42.7449951 C57.1196696,42.9517008 57.3929036,43.1735026 57.8693848,43.4104004 Z" id="%%%" fill="#5F5F5F"></path>
                <path d="M58.7380371,38.8864746 C58.2525228,39.1540527 57.8954264,39.2802327 57.666748,39.2650146 C57.3237305,39.2421875 56.2559814,38.9020996 55.8624268,38.6340332 C55.4688721,38.3659668 54.9642334,37.9376221 54.7071533,38.1502686 C54.4500732,38.362915 54.4814453,38.9207764 55.0524902,39.371582 C55.6235352,39.8223877 57.2900391,40.2009888 57.8283691,40.1766968 C58.1872559,40.1605021 58.4904785,40.1232096 58.7380371,40.0648193 L58.7380371,38.8864746 Z" id="·12" fill="#6F707B"></path>
                <path d="M55.3981934,43.2768555 C54.7877604,43.2383626 54.3347575,43.1513265 54.0391846,43.0157471 C53.5958252,42.8123779 52.4597168,42.2038574 52.4423828,42.0415039 C52.4250488,41.8791504 52.307251,41.5756836 52.0014648,41.8662109 C51.6956787,42.1567383 51.4140625,42.5124512 52.0551758,43.0737305 C52.7562256,43.8656006 54.9561768,44.3560791 55.3981934,44.2930908 C55.3581543,43.9785563 55.3581543,43.6398112 55.3981934,43.2768555 Z" id="Path-44" fill="#6F707B"></path>
                <path d="M52.50354,45.1707764 C52.6583252,45.631307 52.6583252,45.9546305 52.50354,46.1407471 C52.2713623,46.4199219 51.3265381,45.9552002 50.9291992,45.6557617 C50.5318604,45.3563232 48.9536133,44.8951416 48.6071777,45.1707764 C48.2607422,45.4464111 48.6466064,44.0985107 48.8355713,44.0279541 C49.0245361,43.9573975 50.5355225,44.175293 50.9291992,44.3891602 C51.1916504,44.5317383 51.7164307,44.792277 52.50354,45.1707764 Z" id="Path-45" fill="#6F707B"></path>
                <path d="M47.2850342,47.6081543 C47.7027588,48.0275879 47.973877,48.4318848 47.8026123,48.6807861 C47.6313477,48.9296875 47.3703613,49.0378418 47.0092773,48.8497314 C46.6481934,48.6616211 46.1568604,48.0811768 45.5426025,47.8139648 C45.1330973,47.6358236 44.7392985,47.5864665 44.3612061,47.6658936 C44.5160726,47.1487223 44.7461751,46.8338623 45.0515137,46.7213135 C45.5095215,46.5524902 46.8673096,47.1887207 47.2850342,47.6081543 Z" id="Path-46" fill="#6F707B"></path>
                <path d="M43.5140381,50.0469971 C43.5950923,50.3450408 43.3267822,50.6710205 42.942749,50.644165 C42.5587158,50.6173096 41.8140869,49.7038574 41.5300293,49.5797119 C41.3406576,49.4969482 40.8963216,49.4969482 40.1970215,49.5797119 C40.5341797,49.0936279 40.8150228,48.835612 41.0395508,48.8056641 C41.3763428,48.7607422 42.0333252,48.7589111 42.5212402,49.0942383 C43.0091553,49.4295654 43.4329839,49.7489533 43.5140381,50.0469971 Z" id="Path-47" fill="#6F707B"></path>
                <path d="M39.2529297,51.5494385 C38.9243978,50.9545492 38.4992269,50.553833 37.977417,50.34729 C37.4556071,50.1407471 37.0362956,50.0270996 36.7194824,50.0063477 C36.4552409,50.3913574 36.3190511,50.6485392 36.3109131,50.7778931 C36.7159424,50.8000488 37.6940918,51.1624756 38.09021,51.6373291 C38.2815053,51.8666476 38.5025982,52.0438083 38.8618164,51.9675293 C39.1017253,51.9165853 39.2320964,51.7772217 39.2529297,51.5494385 Z" id="Path-48" fill="#6F707B"></path>
                <path d="M35.2484131,52.616333 C35.2125244,52.9108887 35.369873,53.1025391 34.8057861,53.0490723 C34.2416992,52.9956055 33.5322266,52.2700195 33.3773193,52.0822754 C33.2224121,51.8945312 32.7851562,51.8441162 32.9262695,51.6317139 C33.0673828,51.4193115 33.2634277,51.2879639 33.7406006,51.3504639 C34.2177734,51.4129639 35.2843018,52.3217773 35.2484131,52.616333 Z" id="Path-49" fill="#6F707B"></path>
                <path d="M30.5072021,54.3358154 C30.1665039,54.2984619 29.7770996,53.8829346 29.9073486,53.6002197 C30.0375977,53.3175049 29.7393799,52.3076172 29.8945313,51.9014893 C30.0496826,51.4953613 30.8051758,51.7414551 30.8289795,51.8050537 C30.8527832,51.8686523 31.0859375,53.1015625 31.017334,53.4671631 C30.9487305,53.8327637 30.8479004,54.3731689 30.5072021,54.3358154 Z" id="·123" fill="#6F707B"></path>
                <path d="M58.8970947,38.6347656 C58.4115804,38.9023437 58.054484,39.0285238 57.8258057,39.0133057 C57.4827881,38.9904785 56.4150391,38.6503906 56.0214844,38.3823242 C55.6279297,38.1142578 55.123291,37.6859131 54.8662109,37.8985596 C54.6091309,38.1112061 54.6405029,38.6690674 55.2115479,39.119873 C55.7825928,39.5706787 57.2857666,40.0827637 57.8240967,40.0584717 C58.1829834,40.042277 58.5406494,39.9604899 58.8970947,39.8131104 L58.8970947,38.6347656 Z" id="Path-43" fill="#D9D9D9"></path>
                <path d="M55.557251,43.0251465 C54.946818,42.9866536 54.4938151,42.8996175 54.1982422,42.7640381 C53.7548828,42.5606689 52.6187744,41.9521484 52.6014404,41.7897949 C52.5841064,41.6274414 52.4663086,41.3239746 52.1605225,41.614502 C51.8547363,41.9050293 51.5731201,42.2607422 52.2142334,42.8220215 C52.9152832,43.6138916 55.1152344,44.1043701 55.557251,44.0413818 C55.5172119,43.7268473 55.5172119,43.3881022 55.557251,43.0251465 Z" id="Path-44" fill="#D9D9D9"></path>
                <path d="M52.6625977,44.9190674 C52.8173828,45.379598 52.8173828,45.7029215 52.6625977,45.8890381 C52.4304199,46.1682129 51.4855957,45.7034912 51.0882568,45.4040527 C50.690918,45.1046143 49.1126709,44.6434326 48.7662354,44.9190674 C48.4197998,45.1947021 48.8056641,43.8468018 48.9946289,43.7762451 C49.1835938,43.7056885 50.6945801,43.923584 51.0882568,44.1374512 C51.350708,44.2800293 51.8754883,44.540568 52.6625977,44.9190674 Z" id="Path-45" fill="#D9D9D9"></path>
                <path d="M47.4440918,47.3564453 C47.8618164,47.7758789 48.1329346,48.1801758 47.9616699,48.4290771 C47.7904053,48.6779785 47.5294189,48.7861328 47.168335,48.5980225 C46.807251,48.4099121 46.315918,47.8294678 45.7016602,47.5622559 C45.2921549,47.3841146 44.8983561,47.3347575 44.5202637,47.4141846 C44.6751302,46.8970133 44.9052327,46.5821533 45.2105713,46.4696045 C45.6685791,46.3007812 47.0263672,46.9370117 47.4440918,47.3564453 Z" id="Path-46" fill="#D9D9D9"></path>
                <path d="M43.6730957,49.7952881 C43.7541499,50.0933318 43.4858398,50.4193115 43.1018066,50.3924561 C42.7177734,50.3656006 41.9731445,49.4521484 41.6890869,49.3280029 C41.4997152,49.2452393 41.0553792,49.2452393 40.3560791,49.3280029 C40.6932373,48.8419189 40.9740804,48.583903 41.1986084,48.5539551 C41.5354004,48.5090332 42.1923828,48.5072021 42.6802979,48.8425293 C43.1682129,49.1778564 43.5920415,49.4972443 43.6730957,49.7952881 Z" id="Path-47" fill="#D9D9D9"></path>
                <path d="M39.4119873,51.2977295 C39.0834554,50.7028402 38.6582845,50.302124 38.1364746,50.0955811 C37.6146647,49.8890381 37.1953532,49.7753906 36.87854,49.7546387 C36.6142985,50.1396484 36.4781087,50.3968302 36.4699707,50.5261841 C36.875,50.5483398 37.8531494,50.9107666 38.2492676,51.3856201 C38.4405629,51.6149387 38.6616558,51.7920993 39.020874,51.7158203 C39.2607829,51.6648763 39.391154,51.5255127 39.4119873,51.2977295 Z" id="Path-48" fill="#D9D9D9"></path>
                <path d="M35.4074707,52.364624 C35.371582,52.6591797 35.5289307,52.8508301 34.9648437,52.7973633 C34.4007568,52.7438965 33.6912842,52.0183105 33.536377,51.8305664 C33.3814697,51.6428223 32.9442139,51.5924072 33.0853271,51.3800049 C33.2264404,51.1676025 33.4224854,51.0362549 33.8996582,51.0987549 C34.3768311,51.1612549 35.4433594,52.0700684 35.4074707,52.364624 Z" id="Path-49" fill="#D9D9D9"></path>
                <path d="M30.6662598,54.0841064 C30.3255615,54.0467529 29.9361572,53.6312256 30.0664062,53.3485107 C30.1966553,53.0657959 29.8984375,52.0559082 30.0535889,51.6497803 C30.2087402,51.2436523 30.9642334,51.4897461 30.9880371,51.5533447 C31.0118408,51.6169434 31.2449951,52.8498535 31.1763916,53.2154541 C31.1077881,53.5810547 31.006958,54.12146 30.6662598,54.0841064 Z" id="Path-50" fill="#D9D9D9"></path>
                <path d="M57.2124634,42.4404297 C57.414856,42.5058594 57.8105469,41.9682007 57.8349609,41.3830566 C57.851237,40.9929606 57.6437378,40.5349528 57.2124634,40.0090332 C56.1463013,39.7040202 55.519633,39.4683431 55.3324585,39.302002 C54.8650513,38.9592285 54.6769409,38.9758301 55.3324585,39.6850586 C55.9879761,40.3942871 56.2539063,40.5188599 56.5275269,40.7803345 C56.7099406,40.9546509 56.806661,41.1879069 56.817688,41.4801025 C56.9459432,42.0767008 57.077535,42.3968099 57.2124634,42.4404297 Z" id="Path-51" fill="#6F707B"></path>
                <path d="M57.3231201,42.385498 C57.5255127,42.4509277 57.9212036,41.913269 57.9456177,41.328125 C57.9618937,40.938029 57.7543945,40.4800212 57.3231201,39.9541016 C56.256958,39.6490885 55.6302897,39.4134115 55.4431152,39.2470703 C54.975708,38.9042969 54.7875977,38.9208984 55.4431152,39.630127 C56.0986328,40.3393555 56.364563,40.4639282 56.6381836,40.7254028 C56.8205973,40.8997192 56.9173177,41.1329753 56.9283447,41.4251709 C57.0565999,42.0217692 57.1881917,42.3418783 57.3231201,42.385498 Z" id="Path-51" fill="#C9C9C9"></path>
                <path d="M60.508606,37.9251709 C60.7015991,37.9452515 61.1400146,37.6796265 61.2792969,37.2077026 C61.4185791,36.7357788 60.8620605,34.9746094 60.6021118,34.6414185 C60.3421631,34.3082275 59.5062866,33.2402954 59.8642578,32.9926758 C60.1029053,32.827596 60.2622681,32.7127279 60.3423462,32.6480713 C59.4964803,32.8213704 58.9900309,32.9362386 58.822998,32.9926758 C58.5724487,33.0773315 58.2319336,33.0834961 58.1115112,33.6310425 C57.9910889,34.1785889 58.1467896,34.467041 58.3012695,34.494873 C58.4557495,34.5227051 58.9348145,34.6552734 59.2229004,34.7729492 C59.5109863,34.890625 60.3212891,36.237915 60.3490601,36.5810547 C60.3675741,36.8098145 60.324117,36.9572754 60.218689,37.0234375 C60.2833049,37.6112061 60.3799438,37.9117839 60.508606,37.9251709 Z" id="Path-52" fill="#E2E2E2"></path>
                <path d="M59.4273769,34.9494936 C59.3469136,34.858168 59.2760272,34.7946502 59.2229004,34.7729492 C58.9348145,34.6552734 58.4557495,34.5227051 58.3012695,34.494873 C58.1467896,34.467041 57.9910889,34.1785889 58.1115112,33.6310425 C58.1910166,33.269541 58.3664584,33.1440233 58.5486068,33.0760993 C58.4496186,33.3705988 58.5211645,33.6143567 58.7632446,33.807373 C59.0168339,34.0095659 59.2382113,34.3902728 59.4273769,34.9494936 L59.4273769,34.9494936 Z" id="Path" fill="#D4D4D4"></path>
                <path d="M61.40802,35.7859497 C61.40802,35.7859497 62.0546875,35.8306274 62.2193604,35.746521 C62.3840332,35.6624146 62.2843628,34.6036377 62.2193604,34.1630249 C62.1543579,33.7224121 62.8596802,33.6479492 63.1745605,33.7660522 C62.9188232,33.4104614 62.2150269,33.1577148 61.9819336,33.1809692 C61.7488403,33.2042236 61.322937,33.3840332 61.2473755,33.7660522 C61.171814,34.1480713 61.166748,34.8111572 61.2473755,35.1027832 C61.3280029,35.3944092 61.40802,35.7859497 61.40802,35.7859497 Z" id="Path-53" fill="#E2E2E2"></path>
                <path d="M66.780303,64.3090734 C70.0323896,62.8306235 72.8620102,61.5908396 75.269165,60.5897217 C78.5916586,59.2079212 82.5070387,58.6378053 84.0930599,58.535832 C84.1937296,58.6385784 84.5129758,58.6874418 84.6740635,59.2016227 C84.5231501,59.1350864 84.3618981,59.0997391 84.1903076,59.0955811 C83.661377,59.0827637 78.6413574,59.8112793 75.4576416,61.050415 C73.4111525,61.8469302 70.5288,63.0786647 66.8105842,64.7456186 C66.8029309,64.6105713 66.7927023,64.4640803 66.780303,64.3090734 Z" id="Path" fill="#FFFFFF"></path>
                <path d="M66.9466882,66.8239339 C67.106332,66.8689516 67.3031797,66.8370234 67.5372314,66.7281494 C68.0594482,66.4852295 73.2023926,64.2258301 76.3800049,63.3684082 C78.4984131,62.7967936 80.2076416,62.4687093 81.5076904,62.3841552 C78.5363363,63.1610107 76.5279541,63.7063802 75.4825439,64.0202637 C73.9144287,64.4910889 67.600708,66.989502 67.3952637,67.2182617 C67.315748,67.3068015 67.2396747,67.4220851 67.1670438,67.5641125 C67.0780608,67.3431047 67.0038758,67.0871807 66.9466882,66.8239339 Z" id="Path" fill="#9C9C9C"></path>
                <path d="M57.4165649,38.4612427 C57.5953979,37.0648397 57.8980509,36.1555379 58.3245239,35.7333374 C58.9642334,35.1000366 59.5330811,34.9205322 59.5108032,35.1350708 C59.4885254,35.3496094 58.4691772,36.1365967 58.3155518,36.5271606 C58.1619263,36.9177246 57.8537598,38.0586548 57.8063965,38.1306152 C57.774821,38.1785889 57.6448771,38.288798 57.4165649,38.4612427 Z" id="Path-35" fill="#A85858"></path>
            </g>
        </g>
    </g>
</svg>