<?xml version="1.0" encoding="UTF-8"?>
<svg width="96px" height="96px" viewBox="0 0 96 96" version="1.1" xmlns="http://www.w3.org/2000/svg" xmlns:xlink="http://www.w3.org/1999/xlink">
    <title>Air Jordan XXXIV PF</title>
    <defs>
        <rect id="path-1" x="0" y="0" width="96" height="96"></rect>
    </defs>
    <g id="icon" stroke="none" stroke-width="1" fill="none" fill-rule="evenodd">
        <g id="画板" transform="translate(-854.000000, -54.000000)">
            <g id="Air-Jordan-XXXIV-PF" transform="translate(854.000000, 54.000000)">
                <g id="#" opacity="0">
                    <use fill="#FFFFFF" fill-rule="evenodd" xlink:href="#path-1"></use>
                    <rect stroke-opacity="0.5" stroke="#DDDDDD" stroke-width="6" stroke-linejoin="square" x="3" y="3" width="90" height="90"></rect>
                    <rect stroke-opacity="0.507785184" stroke="#DDDDDD" stroke-width="12" stroke-linejoin="square" x="6" y="6" width="84" height="84"></rect>
                    <rect stroke-opacity="0.319406703" stroke="#979797" stroke-width="10" stroke-linejoin="square" x="5" y="5" width="86" height="86"></rect>
                </g>
                <path d="M10.5204468,59.5925293 C10.892395,58.2124837 12.5952962,57.218099 15.6291504,56.609375 C20.1799316,55.6962891 27.317627,54.2280273 27.7683105,54.0305176 C28.2189941,53.8330078 30.989502,52.6616211 31.581543,52.6333008 C32.173584,52.6049805 33.954834,52.5102539 34.0927734,52.6333008 C34.2307129,52.7563477 42.9089355,50.9675293 46.7624512,49.177002 C50.6159668,47.3864746 52.6914063,45.6057129 53.0998535,45.1928711 C53.5083008,44.7800293 53.2410889,43.7923584 53.3724365,43.3756104 C53.5037842,42.9588623 53.6083984,42.2587891 54.3183594,40.8215332 C55.0283203,39.3842773 56.4980469,35.1157227 56.9284668,34.6179199 C57.2154134,34.2860514 57.7214355,33.7768555 58.4465332,33.090332 L60.307373,29.1984863 L65.5571289,30.5668945 L63.8972168,36.503418 C69.1008301,38.4886068 72.7521973,40.6612956 74.8513184,43.0214844 C78,46.5617676 79.6860352,50.958252 79.9226074,53.0141602 C80.0803223,54.3847656 80.3764648,56.773112 80.8110352,60.1791992 L80.8110352,61.2370605 C71.8730469,61.2779134 65.5996094,61.3941243 61.9907227,61.5856934 C56.5773926,61.8730469 46.6647949,63.8898926 41.9438477,64.1806641 C37.2229004,64.4714355 13.0141602,62.7834473 12.2358398,62.6408691 C11.4575195,62.498291 11.3376465,61.8762207 11.3068848,61.3166504 C11.286377,60.9436035 11.024231,60.3688965 10.5204468,59.5925293 Z" id="Path-5" fill="#F4F5F7"></path>
                <path d="M56.6308604,35.8282797 L56.6308604,36.3234863 L55.2777615,39.7357178 L55.2777615,42.1506348 L54.9816895,42.4202881 L54.5624457,40.2887825 C55.0960526,39.0595381 55.8561521,36.982054 56.3952976,35.6983235 C56.4643225,35.7376303 56.54284,35.7810128 56.6308604,35.8282797 Z" id="形状结合" fill="#BDBDBD"></path>
                <path d="M74.9060059,48.9570312 L75.7503045,52.9205874 C76.6993861,57.5124766 77.1511141,60.2925222 77.1054885,61.2607243 L72.0336765,61.3131832 C67.6200217,61.373558 64.2726915,61.4645606 61.9907227,61.5856934 C58.3818359,61.7772624 52.0607096,62.4448242 43.0273437,63.5883789 C35.2089844,65.2436523 29.4833984,61.9443359 45.5786133,56.5483398 C48.43069,55.5921678 55.5435564,52.6609077 63.1855469,49.9306641 C64.9324178,49.3065618 71.5872844,49.277265 74.9060059,48.9570312 Z" id="路径" fill="#DEE8EA"></path>
                <path d="M12.9031841,57.4016517 C13.1200053,58.1956409 14.1958641,58.9617954 15.2670898,58.9956055 C16.6362305,59.0388184 25.5986328,57.5769043 30.7836404,58.1381264 C34.2403122,58.5122745 36.4637992,60.5376544 37.4541016,64.2142661 L37.4388717,64.1563432 C28.8720525,63.8859753 12.8663312,62.7563669 12.2358398,62.6408691 C11.4575195,62.498291 10.8320923,61.7253418 10.8013306,61.1657715 C10.7808228,60.7927246 10.6889648,60.2652588 10.5257568,59.583374 C10.7625907,58.7001256 11.5501927,57.9749961 12.8885629,57.4079858 Z" id="形状结合" fill="#E8E9EA"></path>
                <path d="M71.6381836,50.9353027 C68.836263,53.4429525 66.7135417,56.5876465 65.2700195,60.3693848 C69.3619792,60.5803223 73.1336263,60.7105306 76.5849609,60.7600098 C77.2443034,56.4455566 77.2443034,53.7465007 76.5849609,52.6628418 C75.5959473,51.0373535 74.3054199,50.1140137 73.6687012,49.9995117 C73.244222,49.9231771 72.5673828,50.2351074 71.6381836,50.9353027 Z" id="路径-229" fill="#D9D9D9"></path>
                <path d="M73.5738787,49.9890971 L73.6687012,49.9995117 C73.6884395,50.0030613 73.708806,50.0073881 73.7297725,50.0124891 L73.6148911,50.1804876 L73.6148911,50.1804876 L73.4755859,50.3686523 C70.3865594,52.8508616 67.8811474,56.1959846 65.95935,60.4040214 L65.2700195,60.3693848 C66.7135417,56.5876465 68.836263,53.4429525 71.6381836,50.9353027 C72.5673828,50.2351074 73.244222,49.9231771 73.6687012,49.9995117 Z" id="形状结合" fill="#ABB9C1"></path>
                <path d="M80.9215088,39.3889771 C81.3297258,39.1888356 81.4907837,39.1622314 81.6129761,39.2229614 C81.7351685,39.2836914 83.2805176,41.4978027 82.9057617,44.1228027 C82.941569,44.4436035 83.3748169,45.9292603 84.2055054,48.5797729 C84.3370147,48.6799223 84.434854,48.7632353 84.4990234,48.8297119 C84.5631928,48.8961885 84.655478,49.009836 84.7758789,49.1706543 C85.0718564,50.740964 85.2552061,51.9370496 85.3259277,52.7589111 C85.3578707,53.130123 85.2033018,54.0077366 85.2324219,54.354248 C85.3582496,55.8515217 85.5000953,57.6223957 85.657959,59.6668701 L79.0566406,60.7600098 C78.5844727,57.3443197 77.9977214,54.2275391 77.2963867,51.409668 C76.2443848,47.1828613 80.5132918,39.5891185 80.9215088,39.3889771 Z" id="Path-6" fill="#DFE0E2"></path>
                <path d="M84.5200806,48.638855 L84.7758789,49.1706543 C85.0718564,50.740964 85.2552061,51.9370496 85.3259277,52.7589111 C85.3578707,53.130123 85.2033018,54.0077366 85.2324219,54.354248 L85.242561,54.4863305 L84.1404419,56.3231812 L84.0487061,56.8890381 L83.4310303,57.3529053 L83.312561,56.9353027 L84.4441528,54.0823975 L84.5058594,53.2450562 C84.2300212,53.3905233 84.0843506,53.3932495 84.0688477,53.2532349 C84.0533447,53.1132202 84.1455688,52.7713826 84.34552,52.2277222 L84.34552,52.2277222 L84.3623047,49.8039551 L84.0625,49.3095703 L84.1479492,48.4223186 L84.213908,48.4203305 C84.2814467,48.4829447 84.3835042,48.5557862 84.5200806,48.638855 Z" id="形状结合" fill="#A4A6A8"></path>
                <path d="M82.9057617,44.1228027 L82.9656738,44.4478769 C83.0321003,44.7607531 83.1514971,45.2659496 83.3238641,45.9634663 C80.3729677,48.1323851 78.4771517,50.1990315 77.6336495,52.1674805 L77.4452612,52.0195022 L77.2963867,51.409668 L77.2963867,51.409668 C76.8264113,49.521368 76.0960584,47.6703067 75.1053281,45.8564838 L82.8844939,42.292302 C82.9741174,42.860678 82.9976169,43.4793978 82.9057617,44.1228027 Z" id="路径" fill="#D1D2D4"></path>
                <path d="M82.9057617,44.1228027 C82.9113137,44.1725436 82.9258831,44.2550242 82.9494699,44.3702445 C81.2430953,45.3128153 78.963782,46.6184911 76.1123047,48.2878418 L76.2382722,48.2153668 C75.9850243,47.6058778 75.7033872,47.000449 75.3933609,46.3990804 L82.8276608,41.6618662 C82.9997061,42.462097 83.0257398,43.2824092 82.9057617,44.1228027 Z" id="形状结合" fill="#A6B7C0"></path>
                <path d="M81.4689941,38.3013085 L81.7000804,38.8931824 L81.7558594,39.1340332 L81.7558594,39.1340332 L81.8708809,39.3253085 L82.8646357,41.8461614 C82.9254991,42.1728263 82.9622175,42.5028119 82.9747908,42.8361183 C82.8958537,43.1605969 82.7971835,43.4400285 82.6787109,43.6779785 C79.8197881,44.9404089 77.5699478,46.2195081 75.9291902,47.5152761 C75.2713051,46.0542624 74.4443875,44.6177786 73.4528809,43.204834 L80.8164062,39.6066895 C80.8617988,39.3004658 80.8826572,38.9602225 80.8789815,38.5859595 L81.4689941,38.3013085 Z" id="路径" fill="#DFDFDF"></path>
                <path d="M81.2221436,38.4210885 C81.3443241,38.4621404 81.4601712,38.5064774 81.5696849,38.5540995 L81.7000804,38.8931824 L81.7558594,39.1340332 L81.8708809,39.3253085 L82.36473,40.5822813 C78.6805647,42.2904318 75.9032849,44.0266703 74.5757457,44.9377792 C74.2307783,44.3559086 73.8553919,43.7784316 73.4528809,43.204834 L80.8164062,39.6066895 C80.8617988,39.3004658 80.8826572,38.9602225 80.8789815,38.5859595 Z" id="形状结合" fill="#EAEFF1"></path>
                <path d="M82.1027832,33.9230957 C83.5268555,34.3325195 82.555603,36.5139771 81.8306274,37.5621948 C81.5691185,37.9403018 81.5958659,38.5246582 81.7558594,39.1340332 C82.76606,40.7002081 83.1508702,42.3523942 82.9102902,44.0905916 C82.6821205,44.1291791 82.4904016,44.0590608 82.3330078,43.8823242 C82.3624674,42.9622396 82.2402344,42.2046712 81.9663086,41.6096191 C81.7608643,41.1633301 81.5164185,40.7407532 81.2329712,40.3418884 L80.9365234,39.9509277 L73.9160156,43.3840332 L73.7126328,43.077146 L80.2498779,39.482666 C80.71521,38.9897461 80.8970313,38.6256478 80.8567187,38.0233301 L80.7858747,37.193441 C80.700165,35.8680692 80.8081721,33.5508922 82.1027832,33.9230957 Z M81.9549561,34.6793213 C81.6228027,34.9685465 81.4532674,35.9347738 81.4463501,37.5780029 C81.9569702,36.7401558 82.226298,36.1569147 82.2543335,35.8282797 C82.2963867,35.3353271 82.453186,34.2454834 81.9549561,34.6793213 Z" id="形状结合" fill="#40E5D5"></path>
                <path d="M82.1027832,33.9230957 C83.5268555,34.3325195 82.555603,36.5139771 81.8306274,37.5621948 C81.5691185,37.9403018 81.5958659,38.5246582 81.7558594,39.1340332 C82.76606,40.7002081 83.1508702,42.3523942 82.9102902,44.0905916 C82.6821205,44.1291791 82.4904016,44.0590608 82.3330078,43.8823242 C82.3624674,42.9622396 82.2402344,42.2046712 81.9663086,41.6096191 C81.7608643,41.1633301 81.5164185,40.7407532 81.2329712,40.3418884 L81.1038294,40.1710461 C81.0192788,39.8052437 80.8720141,39.3961802 80.6620353,38.9438558 C80.8230166,38.6706063 80.8813575,38.3914624 80.8567188,38.0233301 L80.7858747,37.193441 L80.7669662,36.7697565 C80.7336325,35.4315276 80.9376332,33.5881126 82.1027832,33.9230957 Z M81.9549561,34.6793213 C81.6228027,34.9685465 81.4532674,35.9347738 81.4463501,37.5780029 C81.9569702,36.7401558 82.226298,36.1569147 82.2543335,35.8282797 L82.3005263,35.3090309 C82.3325145,34.8369415 82.3108346,34.3694371 81.9549561,34.6793213 Z" id="形状" fill="#2BCABB"></path>
                <path d="M60.0250042,29.7884863 L61.3088379,30.0334473 L61.3088379,33.4736328 L60.4283181,35.6437051 C59.870728,36.9868254 59.5070114,37.7837607 59.3371683,38.0345108 L59.2956543,38.0893555 C58.996123,38.4263867 57.8656668,39.529543 58.4008135,37.5576962 L58.4765625,37.2949219 C58.8639505,36.018576 59.1174145,34.0679859 59.2369544,31.4431516 L60.0250042,29.7884863 Z" id="路径" fill="#A0DFDA"></path>
                <path d="M55.9291992,56.6645508 C52.8214409,57.4253337 49.3857312,58.3323975 45.6220703,59.3857422 C39.976579,60.9657593 39.5024414,61.9746094 44.5375977,61.3720703 C47.8943685,60.9703776 52.273597,60.6361491 57.675283,60.3693848 L55.9291992,56.6645508 Z" id="路径-241" fill="#C8DBDF"></path>
                <path d="M62.2895508,54.1608887 L58.2924805,58.7612305 C56.8949855,56.7577523 55.9373761,55.6597962 55.4196522,55.4673621 C54.9428711,55.7958984 55.7890625,57.1092607 56.1713867,58.1381264 C56.4262695,58.8240369 56.8235729,59.7834473 57.3632967,61.0163574 L58.6767578,61.1279297 C61.5595486,56.7113717 63.3263129,54.0799427 63.9770508,53.2336426 C64.6277886,52.3873425 64.0652886,52.6964245 62.2895508,54.1608887 Z" id="路径-240" fill="#B3E6E2"></path>
                <path d="M61.6759194,47.3215779 L61.9327393,52.0632324 C61.5371501,51.6691895 60.7930501,51.4640299 59.7004395,51.4477539 C58.6078288,51.4314779 54.876804,51.9054875 48.5073651,52.8697828 C56.122735,53.0994439 59.4731445,53.4926217 58.5585938,54.0493164 C57.644043,54.6060111 56.2966491,55.319363 54.516412,56.1893721 C62.3349601,54.179986 66.0185512,52.1142578 65.5671854,49.9921875 C65.1158196,47.8701172 63.8187309,46.979914 61.6759194,47.3215779 Z" id="路径-239" fill="#ADE6E6"></path>
                <path d="M50.5834982,52.8697828 C54.1357429,52.1160181 56.9362386,51.7121989 58.9849854,51.6583252 C61.0337321,51.6044515 61.9009603,51.9851481 61.5866699,52.800415 C62.5351742,52.2690706 62.9059831,50.9146598 62.6990967,48.7371826 C62.4922102,46.5597054 61.914476,44.6167419 60.965894,42.9082923 C58.2328448,46.582712 56.0830175,48.8012695 54.516412,49.5639648 C52.9498066,50.3266602 51.6388353,51.4285995 50.5834982,52.8697828 Z" id="路径-238" fill="#6ADFDE"></path>
                <path d="M59.2670898,35.9467773 C60.0022781,35.6648948 62.0998632,35.9273367 63.9539668,36.3002923 L63.8972168,36.503418 C69.6293945,38.1816406 72.640625,40.1738281 74.711792,42.7580566 C77.5897849,46.3489749 79.5291748,50.9989014 79.7657471,53.0548096 L80.3559961,56.5804102 C80.4855273,57.617168 80.637207,58.8167643 80.8110352,60.1791992 L74.6644287,60.5700073 C74.5081136,59.5748315 73.9650879,58.1591187 73.8059692,57.3529053 C73.6468506,56.5466919 73.3676758,56.161377 73.4873047,55.3991699 C73.552002,53.3503418 71.5627441,50.9824219 71.1708984,50.7839355 C70.7790527,50.5854492 66.8227539,52.3442383 63.875,51.2252139 C61.9098307,50.4791977 60.5826823,48.8745854 59.8935547,46.411377 C59.3151042,47.5199382 58.6261393,48.423584 57.8266602,49.1223145 C56.7364613,50.0751287 55.0320773,50.8778268 53.2707576,51.3077289 L49.7638228,52.07345 C46.6319416,52.7800394 42.2852365,53.8129106 41.178853,54.2230288 L41.0317383,54.2824707 C39.9221191,54.786377 31.7722168,56.8649902 29.8273926,56.4172363 C28.7140736,56.1609186 28.1797327,55.3006612 28.2243699,53.836464 L29.3655083,53.3694431 C29.9399295,53.1414557 30.5538716,52.9097959 31.0067583,52.7686944 C31.0008573,53.6749404 31.1609177,54.1780922 31.4824219,54.2824707 L31.5984608,54.3073922 C32.2418524,54.3910617 34.1439327,53.9331921 39.9975586,52.5786133 C46.2548828,51.1306152 50.9858398,48.2648926 52.3212891,47.2434082 C53.5931455,46.2705659 55.8599441,42.0194853 56.1885177,40.8670846 L56.2229004,40.7182617 C56.3566895,39.8503418 58.0776367,36.402832 59.2670898,35.9467773 Z" id="路径————" fill="#5EF4E6"></path>
                <path d="M71.1747437,49.9353027 C66.4890137,51.9978027 64.269043,51.355835 62.4025879,49.920166 C61.4489981,49.0508669 60.8182878,48.2290839 60.3806152,46.6646729 C59.7958984,47.6193848 58.5273437,48.8886719 57.8234863,49.4094238 C56.581502,50.3283113 55.7458496,51.1381836 50.1929932,53.1094971 C46.4910889,54.4237061 41.5534668,55.53361 35.380127,56.439209 C46.5517697,52.1312907 52.8869748,49.2845296 54.3857422,47.8989258 C55.8845096,46.513322 58.0778935,44.2759359 60.965894,41.1867676 C61.2706553,40.9101563 73.2390137,46.8911133 71.1747437,49.9353027 Z" id="路径" fill="#01BBA9"></path>
                <path d="M64.4399414,37.7961426 C69.6124252,39.1009175 73.5564185,41.4808843 76.2719213,44.936043 C78.2769329,48.0523018 79.5749781,51.3969504 79.7657471,53.0548096 L80.3559961,56.5804102 C80.4855273,57.617168 80.637207,58.8167643 80.8110352,60.1791992 L79.0185602,60.2926913 C77.3733276,52.202856 75.8100345,47.4995566 74.3286808,46.1827931 C72.7970603,44.8213477 69.7775065,42.446321 65.2700195,39.0577129 L64.4399414,37.7961426 Z" id="形状结合" fill="#41D0C2"></path>
                <path d="M31.0067583,52.7686944 C31.0008573,53.6749404 31.1609177,54.1780922 31.4824219,54.2824707 L31.5984608,54.3073922 C32.0423181,54.3651134 33.0852131,54.1651041 35.611278,53.5907532 C35.0773899,54.6230261 34.5015258,55.4521728 33.885753,56.0796463 C32.1279267,56.4013457 30.549701,56.5835323 29.8273926,56.4172363 C28.7140736,56.1609186 28.1797327,55.3006612 28.2243699,53.836464 L29.3655083,53.3694431 L30.3988246,52.9754534 C30.6186801,52.8960649 30.8256036,52.825135 31.0067583,52.7686944 Z" id="路径" fill="#B1F0EA"></path>
                <path d="M32.49823,52.3840942 C33.4534455,52.2060378 34.3942261,52.3029175 34.7113037,52.3840942 C35.0283813,52.465271 35.5090332,53.0560303 34.7113037,53.4860229 C34.179484,53.7726847 33.2427151,54.0720825 31.9009967,54.3842163 C31.3092784,54.3915812 30.975945,54.2731934 30.9009967,54.0290527 C30.8260484,53.7849121 30.8576864,53.4674479 30.9959106,53.0766602 C31.3606465,52.7336539 31.8614196,52.5027985 32.49823,52.3840942 Z" id="路径-249" fill="#E6E6E6"></path>
                <path d="M31.0299072,53.1909262 C31.159139,52.75456 31.2585042,52.517863 31.3280029,52.480835 C31.432251,52.425293 32.7502406,51.9658954 32.989563,52.1349487 C33.1491112,52.247651 32.9437076,52.6172188 32.3733521,53.2436523 L31.8254026,53.6473389 L31.0299072,53.6473389 L31.0299072,53.1909262 Z" id="路径-246" fill="#525252"></path>
                <path d="M32.631943,54.0290527 C34.104772,53.7365019 34.9064535,53.4571264 35.0369873,53.1909262 C35.2327881,52.791626 35.2733154,51.5214844 35.8793945,51.427002 C36.2834473,51.3640137 36.7368571,51.4616594 37.239624,51.7199392 C36.5115153,52.347494 36.2163493,52.837823 36.354126,53.1909262 C35.9210205,53.3332547 34.6802929,53.6126302 32.631943,54.0290527 Z" id="路径-247" fill="#525252"></path>
                <path d="M36.354126,53.1909262 C36.8556722,53.0260868 37.1508382,52.919039 37.239624,52.8697828 C37.3728027,52.7958984 38.0422363,52.050293 38.7932129,52.3793945 C38.8637695,52.5313314 39.0643717,52.5906169 39.3950195,52.557251 L40.9873047,52.1566162 C41.7154134,51.0808512 42.1910807,50.5650228 42.4143066,50.6091309 C42.6375326,50.6532389 43.0370687,50.8675944 43.612915,51.2521973 L45.665741,50.6091309 C45.8829651,49.7241211 46.1243896,49.1734212 46.3900146,48.9570312 C46.5570068,48.850179 47.0272217,48.920264 47.8006592,49.1672861 L47.8006592,49.5639648 L49.2479251,48.9570312 L49.2479251,48.7346191 L50.2762451,48.7346191 L50.5834982,48.2316895 L49.6337891,48 C49.7205404,47.5551999 49.9346924,47.3053687 50.2762451,47.2505064 C50.6177979,47.195644 51.0265706,47.1210937 51.5025635,47.0268555 L51.9559326,47.49646 L52.652832,47.0268555 L52.652832,46.2674561 L53.4616041,46.2674561 L54.0089111,45.5639648 L53.7651367,45.3807373 L54.3469238,44.1331787 L54.953125,44.1331787 L55.2777615,44.1331787 L56.1713867,43.6397705 L55.5982875,43.157959 L55.8544922,42.7023926 L56.6308604,42.7023926 L57.2072731,41.3391113 L55.4196522,41.9571533 L54.5657146,42.7023926 L54.5657146,43.6397705 L54.0089111,43.6397705 C53.0653076,44.4336344 52.5127767,44.9112956 52.3513184,45.0727539 C52.1091309,45.3149414 51.402832,46.2070312 51.362793,46.3011475 C51.3227539,46.3952637 49.990113,45.9923423 49.2479251,46.7063762 C48.7531333,47.1823988 48.3398855,47.6908366 48.008182,48.2316895 C47.1869721,47.8497721 46.647583,47.7725423 46.3900146,48 C46.0036621,48.3411865 44.8350501,49.223999 44.492171,49.5639648 C44.263585,49.7906087 44.0987117,50.0174561 43.9975511,50.2445068 C43.3303198,49.9362386 42.8025716,49.8331706 42.4143066,49.9353027 C41.8319092,50.088501 40.769165,50.2146603 39.7319336,51.4084776 C39.4936523,51.3027344 38.1407471,51.0956401 37.239624,51.7199392 C36.6388753,52.1361386 36.3437093,52.6264676 36.354126,53.1909262 Z" id="路径-248" fill="#525252"></path>
                <path d="M31.1561584,54.9449768 C30.481633,55.4360997 30.8249014,56.6982891 31.5249385,56.7466055 C32.2249756,56.7949219 35.2084961,56.8796099 39.7468262,55.7587891 C44.2851562,54.6379683 49.739382,53.2307129 54.0222168,51.1114502 C56.87744,49.6986084 59.0782457,47.5574137 60.6246338,44.6878662 C60.6545817,47.3083089 61.507487,49.1433512 63.1833496,50.1929932 C65.6971436,51.7674561 67.7231445,50.986669 70.9320068,50.0444336 C71.3217773,49.9972177 73.0673828,51.5687891 73.4528809,52.8697828 C73.7098796,53.7371118 73.9851481,55.0293861 74.2786865,56.7466055 C75.2037354,54.6416908 75.484904,53.0608317 75.1221924,52.0040283 C74.7594808,50.9472249 72.0201823,48.3705648 66.9042969,44.2740479 L59.965894,41.5639648 L51.3342285,48.9570312 L42.4674072,52.8697828 L33.7389476,55.1345825 C32.4667718,54.6807634 31.6058421,54.6175615 31.1561584,54.9449768 Z" id="路径-244" fill="#539FAC"></path>
                <path d="M30.7839355,55.7998047 C30.7868652,54.9523926 30.6186523,54.4733887 35.0356445,53.6064453 C39.4526367,52.739502 49.3276367,50.2023926 53.0244141,46.5686035 C56.7211914,42.9348145 59.3586426,38.2678223 59.6318359,36.7021484 C59.8139648,35.6583659 60.136556,33.1755371 60.5996094,29.2536621 L65.9265137,30.0615234 C65.0861816,33.2958984 64.5025228,35.3520508 64.1755371,36.2299805 C63.6850586,37.546875 63.9509277,37.2055664 64.7231445,37.6022949 C65.4953613,37.9990234 70.6401367,39.4682617 73.3486328,42.5267334 C76.0571289,45.5852051 78.454834,49.3798828 79.0861816,53.6064453 C79.5070801,56.4241536 79.8302409,58.6784668 80.0556641,60.3693848 L74.8217773,60.3693848 C74.0085856,57.9252523 73.7369995,56.5517171 74.007019,56.2487793 C74.2423706,56.026062 74.1801758,53.5991211 73.3486328,51.9770508 C72.5170898,50.3549805 71.387207,49.4001465 70.4628906,49.737793 C69.5385742,50.0754395 65.3969727,51.7092285 63.0561523,49.737793 C61.4956055,48.4235026 60.8056641,46.336263 60.9863281,43.4760742 C59.0188802,47.0926107 56.5242513,49.6011556 53.5024414,51.001709 C48.9697266,53.1025391 39.498291,55.7331543 35.967041,56.1867676 C32.435791,56.6403809 30.7810059,56.6472168 30.7839355,55.7998047 Z" id="Path-9" fill="#EBF3F6"></path>
                <path d="M79.0861816,53.6064453 L79.7382422,58.0698535 C79.8596875,58.9265072 79.9654948,59.6930176 80.0556641,60.3693848 L74.8217773,60.3693848 L74.5422182,59.5030193 C73.9915136,57.7346268 73.7983533,56.6729957 73.9627373,56.3181262 L74.007019,56.2487793 C74.2423706,56.026062 74.1801758,53.5991211 73.3486328,51.9770508 C73.047465,51.3895702 72.7071628,50.8896136 72.351666,50.5068856 L73.0325826,49.8441148 C74.4160613,48.4832883 75.2026133,47.611213 75.3929524,47.2298912 C75.5383932,46.9385181 75.600924,46.3138753 75.5805448,45.3559626 C77.2937487,47.8110169 78.6370048,50.5994273 79.0861816,53.6064453 Z" id="路径" fill="#DCE5E7"></path>
                <polygon id="路径" fill="#D6E1E4" points="60.2959751 31.7838704 65.1998961 32.799983 64.8275813 34.1381528 64.8275813 34.1381528 60.1473022 32.9841368"></polygon>
                <polygon id="路径" fill="#BBCCD1" points="60.4551702 30.4683604 65.5527322 31.4863454 65.1804137 32.8714018 65.1804137 32.8714018 60.2997546 31.7529688"></polygon>
                <path d="M64.0164774,37.3010512 L64.0260971,37.3082242 C64.0401852,37.3183028 64.0557412,37.3276722 64.0727357,37.3366122 C64.1104235,37.3564514 64.1553737,37.3742278 64.2071326,37.3929603 C64.3063565,37.4288505 64.4297095,37.4680461 64.5755265,37.5320797 L64.7231445,37.6022949 C65.4953613,37.9990234 70.6401367,39.4682617 73.3486328,42.5267334 L73.6116507,42.8279152 L73.6375733,42.85723 C73.6589735,42.8820281 73.6803506,42.9068723 73.7017039,42.9317624 C73.9104069,43.1750362 74.1166938,43.4225221 74.3200237,43.6742469 C70.5020396,42.30803 67.9480295,42.2621604 66.6568743,43.5367356 C65.3003383,44.875852 64.8380534,46.3636068 65.2700195,48 C63.4110777,47.4590178 61.9424433,47.7287583 61.1368747,46.301589 C60.9705052,45.4624523 60.9203361,44.5208289 60.9863281,43.4760742 C60.2347555,44.8576049 59.4062531,46.0774498 58.5008207,47.1356089 C56.956491,48.4079724 54.3283757,49.5314445 49.8846507,48.7625853 C51.1411646,48.0858768 52.2266485,47.3527762 53.0244141,46.5686035 C56.7211914,42.9348145 59.3586426,38.2678223 59.6318359,36.7021484 C59.7028995,36.2948827 59.7953473,35.6685332 59.9091794,34.8230999 L59.9098774,34.8179152 L64.2112452,36.1322668 L64.1755371,36.2299805 L64.1755371,36.2299805 C64.0260944,36.6312218 63.9468669,36.8785247 63.9307831,37.039668 C63.9273206,37.0743381 63.9267834,37.1050539 63.9291053,37.1324493 C63.9297974,37.1405344 63.930694,37.1480438 63.9318199,37.1553008 C63.9380416,37.1957102 63.9515299,37.2285159 63.9719454,37.2561161 C63.9764659,37.262269 63.9817649,37.2686297 63.9874619,37.2747256 L63.9940611,37.2814959 L64.0045214,37.291196 C64.0083664,37.2945599 64.0123521,37.2978422 64.0164774,37.3010512 Z" id="形状结合" fill="#D9E3E6"></path>
                <path d="M59.8963347,34.9182381 L64.1880599,36.1961234 L64.1755371,36.2299805 C63.7177572,37.459082 63.9188401,37.2437044 64.5755265,37.5320797 L64.7231445,37.6022949 C65.216577,37.8557972 67.4953152,38.5472028 69.7829687,39.8113222 L65.6041382,42.4202881 L63.3679199,46.1827931 C62.2196609,42.168563 60.8073681,39.4818915 59.1310417,38.1227785 C59.4004608,37.5318959 59.5722964,37.0433699 59.6318359,36.7021484 L59.7949719,35.6480744 C59.8265601,35.4273289 59.8603477,35.1840501 59.8963347,34.9182381 Z" id="路径" fill="#C6D2D6"></path>
                <polygon id="路径" fill="#90ABB3" points="59.967163 34.3875505 64.3525175 35.7171211 64.230136 36.0792002 64.230136 36.0792002 64.0594416 36.5524273 64.0594416 36.5524273 59.8291674 35.4064425"></polygon>
                <path d="M79.7363281,58.1381264 L79.7634126,58.2476952 L79.9902139,59.8828448 C80.0128765,60.0499006 80.0346932,60.2120806 80.0556641,60.3693848 L78.9819573,60.3681264 L78.7576294,58.2157593 L79.7363281,58.1381264 Z" id="路径" fill="#A3A3A3"></path>
                <path d="M66.5690918,49.5639648 C68.7782308,49.5639648 70.5690918,47.7731038 70.5690918,45.5639648 C70.5690918,43.3548258 68.7782308,41.5639648 66.5690918,41.5639648 C64.3599528,41.5639648 62.5690918,43.3548258 62.5690918,45.5639648 C62.5690918,47.7731038 64.3599528,49.5639648 66.5690918,49.5639648 Z" id="椭圆形" fill="#A6AFC1"></path>
                <path d="M66.6324463,49.1867676 C68.8415853,49.1867676 70.6324463,47.3959066 70.6324463,45.1867676 C70.6324463,42.9776286 68.8415853,41.1867676 66.6324463,41.1867676 C64.4233073,41.1867676 62.6324463,42.9776286 62.6324463,45.1867676 C62.6324463,47.3959066 64.4233073,49.1867676 66.6324463,49.1867676 Z" id="椭圆形" fill="#DCDFE5"></path>
                <path d="M66.6324463,41.1867676 C67.813804,41.1867676 68.8755479,41.6988957 69.6077771,42.5132514 C68.7929149,42.4633074 68.0227365,42.5330899 67.6574707,42.9082923 C66.78125,43.8083496 66.2285156,46.8728373 65.2700195,47.5152761 C64.8074142,47.8253405 64.204803,47.8610746 63.4621858,47.6224782 C62.940772,46.9480264 62.6324463,46.1034037 62.6324463,45.1867676 C62.6324463,42.9776286 64.4233073,41.1867676 66.6324463,41.1867676 Z" id="路径" fill="#D0D4DB"></path>
                <path d="M66.6324463,41.1867676 L66.842155,41.1921703 C66.9113342,41.1957435 66.9800486,41.2010742 67.0482545,41.2081188 L66.9248497,41.1972921 C66.9923718,41.2021704 67.0594294,41.2087247 67.1259811,41.2169136 L67.0482545,41.2081188 C67.1196929,41.2154973 67.1905735,41.2247559 67.2608459,41.2358443 L67.261152,41.2358926 L67.2799603,41.2389079 L67.2799603,41.2389079 C66.6893635,42.0273899 66.0739746,42.7735596 65.7810059,44.6072998 C65.521955,46.2287422 64.7018641,47.9042696 63.1806499,47.2083681 C62.831657,46.6138355 62.6324463,45.9235656 62.6324463,45.1867676 C62.6324463,42.9776286 64.4233073,41.1867676 66.6324463,41.1867676 L66.6324463,41.1867676 Z" id="形状结合" fill="#C8CBD2"></path>
                <path d="M66.6324463,41.1867676 C68.6112618,41.1867676 70.2544715,42.6236672 70.5756018,44.5109928 C69.9879792,42.7946031 68.9054948,41.9140619 67.3269043,41.8693848 C64.6413489,41.7933785 63.0407021,43.6785407 62.6332512,45.260748 L62.6324463,45.1867676 C62.6324463,42.9776286 64.4233073,41.1867676 66.6324463,41.1867676 Z" id="路径" fill="#9BA1AD"></path>
                <path d="M68.5262403,42.0917736 C68.8501943,42.1554232 69.1699593,42.2523447 69.4855352,42.3825382 C70.1950458,43.105385 70.6324463,44.0949961 70.6324463,45.1867676 C70.6324463,45.5306362 70.5890552,45.8643702 70.5074496,46.1827931 C70.5358891,45.9832553 70.5516357,45.7797825 70.5516357,45.5726318 C70.5516357,44.1668161 69.826411,42.9303857 68.7296776,42.2170566 L68.5262403,42.0917736 Z" id="路径" fill="#FFFFFF"></path>
                <path d="M76.7612305,58.1381264 C77.3135152,58.1381264 77.9711914,57.8618164 78.0165405,56.9020996 C78.0618896,55.9423828 77.3843384,55.3146973 76.6094971,55.3599854 C75.8346558,55.4052734 75.2705078,56.0180664 75.3526611,56.9508057 C75.4348145,57.8835449 76.2089457,58.1381264 76.7612305,58.1381264 Z" id="椭圆形" fill="#A8B4BC"></path>
                <path d="M76.7735559,57.8062622 C77.1866366,57.8062622 77.6785446,57.6075098 77.7124634,56.9171753 C77.7463822,56.2268408 77.2396086,55.7753399 76.6600671,55.8079161 C76.0805256,55.8404923 75.6585719,56.2812808 75.7200184,56.9522101 C75.7814649,57.6231393 76.3604753,57.8062622 76.7735559,57.8062622 Z" id="椭圆形" fill="#C0CEDB"></path>
                <path d="M76.7626953,57.1983643 C77.007019,57.1574097 77.0828247,57.0839844 77.055542,56.8300171 C77.0282593,56.5760498 76.9588013,56.3778687 76.6296997,56.4284058 C76.3005981,56.4789429 76.2922363,56.7741089 76.3217773,56.9359741 C76.3513184,57.0978394 76.5183716,57.2393188 76.7626953,57.1983643 Z" id="椭圆形" fill="#5D7A91"></path>
                <path d="M32.7301025,55.9683838 C33.2167358,55.8723145 33.7561951,55.7521362 33.7482605,55.3632813 C33.7403259,54.9744263 32.8499451,54.6741028 32.2411499,54.9111633 C31.6323547,55.1482239 31.4637146,55.5201111 31.5593262,55.7546387 C31.6549377,55.9891663 32.2434692,56.0644531 32.7301025,55.9683838 Z" id="路径-232" fill="#6D9BA8"></path>
                <path d="M32.7207031,55.7396851 C33.2073364,55.6436157 33.7467957,55.5234375 33.7388611,55.1345825 C33.7309265,54.7457275 32.8405457,54.4454041 32.2317505,54.6824646 C31.6229553,54.9195251 31.4543152,55.2914124 31.5499268,55.5259399 C31.6455383,55.7604675 32.2340698,55.8357544 32.7207031,55.7396851 Z" id="路径-232" fill="#B3D9E4"></path>
                <path d="M60.9143677,40.6416016 C61.9041138,40.677002 62.2294922,39.7447286 62.2294922,39.1924438 C62.2294922,38.6401591 61.8748779,37.8152466 61.0111694,37.805603 C60.1474609,37.7959595 59.7004395,38.6246562 59.7004395,39.1769409 C59.7004395,39.7292257 59.9246216,40.6062012 60.9143677,40.6416016 Z" id="椭圆形" fill="#A1A6AC"></path>
                <path d="M60.9742432,39.9026489 C61.2545166,39.9116211 61.5861816,39.6505127 61.585022,39.2492676 C61.5838623,38.8480225 61.2189941,38.6882935 60.9035034,38.7003784 C60.5880127,38.7124634 60.3295898,38.9611206 60.3476563,39.3314819 C60.3657227,39.7018433 60.6939697,39.8936768 60.9742432,39.9026489 Z" id="椭圆形" fill="#006E60"></path>
                <path d="M32.0063477,62.9406738 C35.0788574,62.8839518 39.5150146,62.4766439 45.3148193,61.71875 C49.2448709,61.2051875 56.2691473,59.7970302 65.4056396,59.4108887 C69.8189697,59.2243652 74.3631625,59.8990354 78.4284668,59.8499756 C81.1386696,59.8172691 83.5485004,59.6683397 85.657959,59.4031875 L85.4631348,60.3693848 L35.380127,64.6027051 L32.4680176,64.2663574 L32.0063477,62.9406738 Z" id="路径-256" fill="#98A8BD"></path>
                <path d="M85.9470215,65.7722168 C86.0275879,64.6870728 86.0288086,60.8990186 86,60.4637451 C85.9711914,60.0284716 85.9400635,59.3552856 85.3547363,59.4763184 C84.494873,59.7148437 79.8032227,60.6398633 70.0966797,60.0405273 C60.3901367,59.4411913 40.4826361,63.1271973 32.631943,63.1682129 C24.78125,63.2092285 13.5529785,60.7980957 12.2618408,59.973999 C11.4010824,59.4246012 10.8964945,59.1266162 10.7480774,59.080044 C10.666375,59.5548256 10.6376681,59.9295318 10.6619568,60.2041626 C10.8334838,62.14361 11.5084323,63.5156395 12.0722656,64.2828056 C13.0976563,65.6779785 18.758031,68.8630371 28.2217889,69.7045898 C34.5309609,70.265625 40.1870117,70.265625 45.1899414,69.7045898 C45.6612956,68.2273763 46.0975749,67.3305664 46.4987793,67.0141602 C47.1005859,66.5395508 56.0476074,63.4096054 63.3461914,64.2828056 C70.6447754,65.1560059 76.8054199,66.2580566 77.0794678,66.5561523 C77.2621663,66.7548828 77.5752417,66.9075521 78.0186939,67.0141602 C80.3373674,66.8626302 82.0328369,66.7421061 83.1051025,66.6525879 C84.713501,66.5183105 85.7996826,65.9173584 85.9470215,65.7722168 Z" id="路径-236" fill="#DFE4EA"></path>
                <path d="M85.8295257,61.8963597 L86.0168054,61.7089286 L86.0064722,63.7555547 C86.0011917,64.1746539 85.9938077,64.5780908 85.9840044,64.9271172 L85.9584935,65.5838842 C85.7978613,65.7578969 85.6415117,65.9108195 85.4894449,66.0426522 C85.0077602,66.2695861 84.1711341,66.5635901 83.1051025,66.6525879 L79.2216195,66.9345824 L79.2216195,66.9345824 L78.0539321,67.0122988 L77.9709309,67.0025127 L77.9709309,67.0025127 C77.5533627,66.8967471 77.2557354,66.7478875 77.0794678,66.5561523 C76.8054199,66.2580566 70.6447754,65.1560059 63.3461914,64.2828056 C57.3962265,63.5709538 50.3507322,65.5195389 47.6241242,66.5210921 L43.8222974,66.5507145 C40.5646346,66.5581114 36.8687532,66.5071306 36.3538597,66.2240795 C35.6395974,65.83143 44.0434552,64.7162243 50.3522401,64.2936911 L57.8911649,63.8778281 C63.9380097,63.5574144 70.9717152,63.2287871 74.3286808,63.3653641 L77.6983589,63.5051821 C80.5737944,63.6076297 82.6978002,63.5767347 84.0992971,62.9521388 C84.8037532,62.6381885 85.380496,62.2862621 85.8295257,61.8963597 Z" id="路径" fill="#D8DDE4"></path>
                <path d="M31.4268363,67.6743681 C35.4932716,67.9319327 38.2224121,68.0656918 39.6142578,68.0756456 C41.0061035,68.0855993 42.5712484,68.0855993 44.3096924,68.0756456 L44.9362132,68.0756456 C46.9074487,68.9963888 49.3550212,69.4617494 52.2789307,69.4717273 C55.2028402,69.4817053 61.9527588,69.0163447 72.5286865,68.0756456 L77.909346,66.7266846 C79.834935,66.7850749 81.4247233,66.7187907 82.6787109,66.527832 C83.9326986,66.3368734 85.0299665,66.0534169 85.9705149,65.6774626 C85.0444929,66.6143707 84.5622965,67.090861 84.5239258,67.1069336 C84.485555,67.1230062 81.4258176,68.1291504 75.3447135,70.1253662 L40.630127,70.2869087 L29.122583,68.9645739 L31.4268363,67.6743681 Z" id="路径-254" fill="#A6B1BF"></path>
                <path d="M31.4902564,63.1578557 L32.6879197,63.1678603 L32.631943,62.9521388 C33.1037755,64.613278 33.1037755,65.87146 32.631943,66.7266846 C32.1601106,67.5819092 31.3534749,68.3505149 30.2120361,69.0325016 C29.2974854,69.6101516 27.0940755,69.5601619 23.6018066,68.8825327 C20.1095378,68.2049035 17.1357422,66.9855855 14.6804199,65.2245787 C16.5875831,63.67092 18.55114,62.5942934 20.5710908,61.9946987 C24.0170036,62.5867237 28.0050299,63.0794517 31.4902564,63.1578557 L31.4902564,63.1578557 Z" id="路径" fill="#A6B1BF"></path>
                <path d="M10.7480774,59.080044 C10.8964945,59.1266162 11.4010824,59.4246012 12.2618408,59.973999 C12.683022,60.2428271 14.1616388,60.6805356 16.2355007,61.1469135 L14.2696532,62.155408 C13.3336047,62.6478169 12.8838994,62.9131961 12.9202881,62.9521388 L14.6635774,64.0980865 C16.7307271,65.4413158 19.8861215,67.4875706 19.7856445,67.5118408 L19.6770737,67.5260509 C19.4694068,67.5481773 18.9782371,67.5897217 18.2035645,67.6506842 C14.7515672,66.457767 12.6573601,65.0789003 12.0722656,64.2828056 C11.5084323,63.5156395 10.8334838,62.14361 10.6619568,60.2041626 C10.6376681,59.9295318 10.666375,59.5548256 10.7480774,59.080044 Z" id="路径" fill="#AAB2BD"></path>
                <path d="M85.2892456,59.5374146 C85.6184549,59.4446473 85.7689414,59.4894298 85.8428808,59.6274804 C84.8305608,59.9908026 83.3254129,60.265504 81.3267822,60.4526367 C77.3692627,60.8231812 71.2110596,59.8178711 62.984375,60.3123779 C54.7576904,60.8068848 48.380127,61.9329307 40.5192871,62.8919678 C33.0388105,63.8045998 32.4723476,63.7077696 32.0931648,63.6091615 L32.0358916,63.5942383 C31.8782227,63.5540688 31.675424,63.4094078 31.4274955,63.1602554 C31.8368521,63.1666725 32.2392165,63.1702647 32.631943,63.1682129 C40.4826361,63.1271973 60.3901367,59.4411913 70.0966797,60.0405273 C79.8032227,60.6398633 84.7185059,59.6982422 85.2892456,59.5374146 Z" id="形状结合" fill="#FFFFFF"></path>
                <path d="M10.7215576,59.083252 C11.4903964,59.8789876 11.8865959,60.3908691 11.9101563,60.6188965 C11.9454968,60.9609375 10.1710205,62.8984375 14.1760254,65.3387451 C18.1810303,67.7790527 25.1759033,69.1407471 27.4202881,68.9337158 C28.9165446,68.795695 30.3062337,68.4938965 31.5893555,68.0283203 C34.5116496,68.2650645 36.816744,68.4103282 38.5046387,68.4641113 C40.1925333,68.5178944 42.3017456,68.4662994 44.8322754,68.3093262 C46.4619954,69.4929199 48.2304688,70.0867513 50.1376953,70.0908203 C52.9985352,70.0969238 69.8195801,70.2497559 70.5690918,70.0908203 C71.3186035,69.9318848 74.9011573,69.4628906 78.0186939,66.9431152 C78.7138672,67.0168457 84.8249512,66.8662109 86,65.6813965 C85.1213379,67.7565918 83.7805176,71.4069824 76.0942383,71.6713867 C70.9700521,71.8476563 66.8209635,71.9545898 63.6469727,71.9921875 L61.965894,71.1635742 L51.315918,71.1635742 C49.6310221,71.726237 48.5847982,72.0024414 48.1772461,71.9921875 C47.565918,71.9768066 34.4990234,71.9921875 30.8569336,71.9921875 C27.2148437,71.9921875 15.4024658,70.9260254 12.1029053,65.9887695 C9.90319824,62.6972656 9.44274902,60.3954264 10.7215576,59.083252 Z" id="路径-235" fill="#C7D4DE"></path>
                <path d="M51.315918,71.1635742 L50.5266927,71.4210341 L50.3981312,71.4616177 C50.2451921,71.5096299 50.0995143,71.5543852 49.9610977,71.5958837 C49.8505096,71.6290354 49.745355,71.6598793 49.6447648,71.6886759 C49.5325418,71.720798 49.4267843,71.7501612 49.3266233,71.7770143 L49.4009398,71.7569098 C49.3287621,71.7766062 49.2593385,71.7950673 49.1926688,71.8122933 L49.3266233,71.7770143 C49.2631042,71.7940437 49.2018358,71.8100636 49.1428181,71.8250739 L49.1421258,71.82525 C49.0202054,71.8562589 48.9073076,71.8830865 48.8041247,71.9055567 L48.8635074,71.8923859 C48.8166498,71.9029607 48.7716607,71.9126975 48.72854,71.9215962 L48.8041247,71.9055567 C48.7591005,71.9153616 48.7159261,71.9243369 48.6746015,71.9324825 L48.6739716,71.9326066 C48.5429331,71.9584361 48.4300432,71.975967 48.335932,71.9850754 L48.3350108,71.9851643 L48.2803991,71.9896165 L48.2803991,71.9896165 L47.682555,71.9885902 C45.1624714,71.9795968 34.1521577,71.9921875 30.8569336,71.9921875 L30.1828814,71.9819967 L29.9164543,71.9733729 C29.8285436,71.9701632 29.7382732,71.9665195 29.645748,71.9624242 L29.6455806,71.9624168 C29.4704983,71.9546674 29.2871593,71.9452904 29.096443,71.9341737 L29.1643743,71.9380777 C29.0730069,71.9329019 28.9798946,71.9273227 28.885118,71.9213264 L29.096443,71.9341737 C28.9998919,71.9285457 28.90145,71.9224719 28.8012098,71.9159366 L28.8023681,71.9160121 C28.6740909,71.9076489 28.5440799,71.8986191 28.4113654,71.8888156 C28.2480813,71.876754 28.0806568,71.8635171 27.9094888,71.8490491 L27.5542472,71.8177187 C27.5060522,71.8132924 27.4575948,71.8087709 27.4088822,71.804153 C27.2071198,71.7850261 27.0009835,71.7642455 26.7909804,71.7417249 C26.5192595,71.7125886 26.2405188,71.6804721 25.9563932,71.6452438 L26.20085,71.6749515 C26.0962182,71.6624934 25.9907947,71.6496111 25.8846373,71.6362949 L25.8854489,71.6363967 C25.5981676,71.6003608 25.3063529,71.5612674 25.0103248,71.5188243 L25.009991,71.5187765 C24.7715781,71.484594 24.5300908,71.448185 24.2864566,71.4094975 C24.1995232,71.3956918 24.1129646,71.3817026 24.0261631,71.3674232 C23.594286,71.296379 23.1561017,71.218093 22.7151511,71.1320649 L22.9266056,71.1727706 C22.7567889,71.1405179 22.5864826,71.1071249 22.4158737,71.0725602 L22.7151511,71.1320649 C22.5621472,71.1022144 22.4088103,71.0714317 22.2552762,71.039694 L22.4158737,71.0725602 C22.3040667,71.0499085 22.1921298,71.0267536 22.0801156,71.0030867 L22.2552762,71.039694 C22.1139973,71.0104896 21.9725515,70.9804766 21.8310448,70.9496371 L22.0801156,71.0030867 C21.9307633,70.9715307 21.7812737,70.9390644 21.6317716,70.9056667 L21.6317713,70.9056666 C21.2650217,70.8237374 20.8981966,70.7362034 20.5331394,70.6427547 L20.9610814,70.7494402 C20.6203668,70.6667348 20.2805604,70.5790129 19.943147,70.4860246 L20.0763085,70.5224172 C19.9298965,70.4827371 19.7838969,70.442075 19.6384303,70.4004108 L19.943147,70.4860246 C19.8037473,70.4476072 19.664756,70.4082909 19.5262778,70.3680582 L19.6384303,70.4004108 C19.4988553,70.3604341 19.3597711,70.3195347 19.2212842,70.2776947 L19.5262778,70.3680582 C19.3785673,70.3251431 19.2314406,70.2811852 19.0850249,70.2361631 L19.2212842,70.2776947 C19.0731743,70.2329474 18.9257477,70.1871243 18.7791347,70.1402034 L19.0850249,70.2361631 C18.9287983,70.1881243 18.7733811,70.1388739 18.6189278,70.0883861 L18.6191568,70.0884609 C18.3402587,69.9972944 18.0647271,69.9021745 17.7932398,69.8028738 L17.9090101,69.8448783 C17.8021057,69.8064022 17.6958034,69.7672865 17.5901579,69.727522 L17.590051,69.7274818 C17.4428061,69.6720595 17.2967321,69.6153349 17.1520842,69.5573232 C16.965009,69.4822929 16.7805778,69.4052221 16.598845,69.3259508 L16.5802577,69.3178313 L16.5802577,69.3178313 C22.7164448,70.6459388 27.9359994,70.7970538 31.7794553,70.7895439 L68.2583182,70.6803318 C73.0895133,70.6517557 76.4746384,70.4332733 78.3803711,70.0771484 C80.5196678,69.6773774 82.7764072,69.2381777 84.9650285,67.7821715 C83.8241094,69.5570653 81.6424335,71.3940653 76.479626,71.6550485 L76.0942383,71.6713867 L76.0942383,71.6713867 L71.5126157,71.8181894 C71.0662678,71.8312942 70.6294892,71.8437185 70.2022801,71.8554624 L70.2020935,71.8554676 C70.0697994,71.8591043 69.9382389,71.8626807 69.8075986,71.8661917 C69.5895337,71.872052 69.3748859,71.8777079 69.1627818,71.8831829 C68.8385106,71.8915539 68.5192017,71.8995258 68.2058753,71.9070723 C67.9163329,71.9140463 67.631309,71.9206703 67.3514152,71.9269295 C67.2234685,71.929791 67.0955534,71.9325987 66.9687281,71.9353289 C66.6001505,71.943263 66.241163,71.9505354 65.891359,71.9571548 L65.8927923,71.9571276 C65.6028734,71.9626138 65.320634,71.9676287 65.0446408,71.9721994 C64.5588313,71.9802436 64.0932628,71.9869009 63.6469727,71.9921875 L61.965894,71.1635742 L51.315918,71.1635742 Z" id="形状结合" fill="#98A8BD"></path>
                <path d="M11.8486328,62.4291992 C11.6818848,61.5378418 14.1064453,60.0759277 20.6687012,59.8706055 C27.230957,59.6652832 31.5201266,60.3720703 32.380127,63.0949707 C33.2401273,65.8178711 31.78125,68.3417969 28.2446289,68.6818848 C24.7080078,69.0219727 18.4228516,67.43769 15.2941895,65.6660156 C12.1655273,63.8943412 12.0153809,63.3205566 11.8486328,62.4291992 Z" id="路径-234" fill="#D2DADC"></path>
                <path d="M32.380127,63.0949707 C32.4039364,63.1703554 32.5237769,63.7552991 31.8546143,63.9136353 C30.9239022,64.1338588 28.202317,64.0241364 26.7033691,63.8892822 C24.126709,63.6574707 22.085083,63.0959473 18.7138672,62.4648437 C15.7449377,61.9090497 13.4565263,61.8971682 11.8486328,62.4291992 C11.6870956,61.5656967 13.9574409,60.1667402 20.0655646,59.8934801 L20.6687012,59.8706055 C27.230957,59.6652832 31.5201266,60.3720703 32.380127,63.0949707 Z" id="路径" fill="#E2E7E8"></path>
                <path d="M32.2862349,62.837721 L32.3323663,62.9521388 C31.8615674,62.5219549 31.1061253,62.1470395 30.06604,61.8273926 C28.2252197,61.2616577 25.6349487,60.8282471 20.9768066,60.6559448 C18.1536902,60.5515192 15.2834271,60.9439332 12.3660172,61.8331869 L11.9798191,61.9565004 C12.5584849,61.1271449 14.9851227,60.1202273 20.0701264,59.8932763 L20.6687012,59.8706055 C27.0192714,59.6719065 31.2410407,60.3274203 32.2862349,62.837721 Z" id="路径" fill="#F5F6F6"></path>
                <path d="M16.7541504,62.6103516 C17.1417236,61.7205811 18.0228271,61.1159668 18.0133057,61.5731201 C17.3435059,63.8079834 19.015625,64.0736084 22.0516357,65.0798538 C25.0876465,66.0860991 29.1606445,66.2475586 29.1223145,67.1243887 C29.09412,67.7693576 28.1207194,68.3860596 27.567718,68.7223395 C24.1072278,68.8235165 18.716392,67.4545696 15.685076,65.8779564 C15.5957568,65.8035291 15.5144856,65.736615 15.4416504,65.6774626 C14.6289062,65.0174008 15.138916,64.7077637 16.5378418,64.2828056 C16.3249512,63.8543076 16.3665771,63.5001221 16.7541504,62.6103516 Z" id="形状结合" fill="#88C1C3"></path>
                <path d="M28.5308065,66.6045583 L28.5552814,66.612469 C28.9210588,66.7577946 29.1311599,66.9220433 29.1223145,67.1243887 C29.0941176,67.7694132 28.1205515,68.3861659 27.567575,68.7224265 C24.1121482,68.8251846 18.7135826,67.4543352 15.6811919,65.8759354 L15.4416504,65.6774626 C14.9270597,65.2595431 14.9427368,64.9821023 15.3785653,64.7269253 L15.7478374,64.8713032 C17.6510076,65.5766014 21.3117279,66.3750195 28.5308065,66.6045583 Z" id="路径" fill="#A4C2C5"></path>
                <path d="M71.1747437,62.4018555 C75.4500732,63.1401367 78.5829987,64.5297852 78.4647171,66.1506348 C78.3464355,67.7714844 74.3156738,69.8970947 70.2443848,70.2373047 C68.0597906,70.4198564 62.614976,70.3742692 57.7048028,70.2928141 L48.6237985,70.1253662 C46.4689941,70.1253662 44.2807543,68.8498202 44.5085449,68.0739746 L44.5919585,67.8399595 C44.9530948,66.9875858 46.266424,65.4361093 52.1704102,63.9094238 C58.6647949,62.2300698 66.8994141,61.6635742 71.1747437,62.4018555 Z M57.4968262,66.7266846 C57.286377,66.3970947 54.9589844,66.2843018 52.329834,66.4814453 C49.7006836,66.6785889 49.432373,67.2633057 49.2841797,67.7366943 C49.1359863,68.210083 49.4293213,68.5833407 50.401001,68.74646 C51.3726807,68.9095792 55.6751709,69.1880216 56.8135986,68.6455078 C57.9520264,68.102994 57.7072754,67.0562744 57.4968262,66.7266846 Z" id="形状" fill="#00B7AF"></path>
                <path d="M65.0373535,67.5844727 C66.4102783,68.1462402 65.008606,69.8963315 62.0604858,70.1975098 C61.4944495,70.2553357 60.9321965,70.3008953 60.3737268,70.3341886 C59.4818708,70.3208572 58.5847515,70.3074116 57.7048028,70.2928141 L56.2978128,70.2664635 L56.2508128,68.812344 C56.479416,68.7683482 56.6712443,68.7133463 56.8135986,68.6455078 C57.9520264,68.102994 57.7072754,67.0562744 57.4968262,66.7266846 C57.4682019,66.6818553 57.4004137,66.6410368 57.2980293,66.6044635 C61.6135513,66.9125986 64.1931653,67.2390513 65.0373535,67.5844727 Z" id="形状结合" fill="#00A099"></path>
                <path d="M57.7823423,69.6311035 C57.619094,69.8966245 57.4700411,70.1155919 57.3351834,70.2880055 L56.5982967,70.2716036 L56.3632967,68.7876036 L56.4151715,68.7772549 C56.572238,68.7400449 56.7068328,68.6963867 56.8135986,68.6455078 C57.9520264,68.102994 57.7072754,67.0562744 57.4968262,66.7266846 C58.2770856,67.1219084 58.3718879,68.0902443 57.7823423,69.6311035 Z" id="形状结合" fill="#57C9C4"></path>
                <path d="M52.0461426,65.1003418 C54.2918294,64.8127441 58.5529785,64.6924235 64.8295898,64.7393799 C69.0898747,64.8570409 75.306202,65.5093236 75.6143799,65.9466553 C75.9581168,66.4344482 75.4326172,66.9429932 71.5539551,67.7010498 C67.675293,68.4591064 65.1590576,67.7332764 62.7479248,67.2346191 C61.3816162,66.9520467 59.5072214,66.8023952 57.4891994,66.7174061 C57.286377,66.3970947 54.9589844,66.2843018 52.329834,66.4814453 C50.8781404,66.5902987 50.1462033,66.8173128 49.756827,67.0785041 C48.2086717,67.6232245 47.4088086,68.4522334 47.2244873,68.4985352 L47.0793771,68.5125814 C46.7362426,68.5240919 45.8866866,68.4761026 44.5307094,68.3686135 C44.4885369,68.2656009 44.4814516,68.1662532 44.5085449,68.0739746 C44.5669626,67.8750063 44.6722007,67.614643 44.9059404,67.3091354 L45.1497029,67.1611921 L45.4390869,67.0146484 C46.5006104,66.5254943 48.6776123,65.5317383 52.0461426,65.1003418 Z" id="路径" fill="#0ACAC7"></path>
                <path d="M71.1747437,62.4018555 C75.0542094,63.0717773 77.9930331,64.2780273 78.4156256,65.7066788 C78.372028,65.9068227 78.2135874,66.0623986 77.9698486,66.1617432 C75.1827393,67.8324252 71.1700033,68.4093295 65.9316406,67.8924561 L67.3403893,67.8229152 C68.6795338,67.7480695 69.8098657,67.6573094 70.731385,67.5506351 L71.1747437,67.4959717 C73.0915527,67.2440186 78.840715,66.086029 72.5727539,65.427002 C66.3047928,64.7679749 61.2434082,64.6679688 54.0134277,65.2011719 C50.8069841,65.4376436 48.6647949,65.7763672 46.9570313,66.5581055 C45.2492676,67.3398437 44.7981211,67.4379028 44.9704053,67.2277893 C45.6927022,66.3468943 47.4874848,65.1203606 52.1704102,63.9094238 C58.6647949,62.2300698 66.8994141,61.6635742 71.1747437,62.4018555 Z" id="路径" fill="#A1E7EA"></path>
                <path d="M64.2382487,70.3632933 L64.7057815,70.3123855 C69.679186,69.771984 73.0868291,69.1118659 74.9287109,68.3320312 C76.9056641,67.4950087 78.0536464,66.6023765 78.3726578,65.6541347 L78.3843392,65.6133579 C78.4502228,65.7891303 78.4780142,65.9684216 78.4647171,66.1506348 C78.3464355,67.7714844 74.3156738,69.8970947 70.2443848,70.2373047 L69.6154122,70.2792192 C68.3400817,70.3473429 66.4164378,70.3687173 64.2382487,70.3632933 Z" id="路径" fill="#A2ECEA"></path>
                <path d="M49.2841797,67.7366943 C49.1359863,68.210083 49.4293213,68.5833407 50.401001,68.74646 L50.5834982,68.7723887 L49.4746094,69.4971924 C49.1867769,69.6933068 48.8515802,69.8087276 48.4690192,69.8434548 L48.1732178,69.8543701 C46.6808454,69.8038509 46.1664251,69.5183812 45.7992268,69.1704016 L45.5384521,68.9003906 C45.1065674,68.4398193 45.4978027,68.364502 47.2751465,68.2440186 C48.0304789,67.7408647 48.8356305,67.3676547 49.6906013,67.1243887 C49.428047,67.3241369 49.3457471,67.5400233 49.2841797,67.7366943 Z" id="路径" fill="#007061"></path>
                <path d="M57.7564697,69.5491943 C57.6563464,69.8656574 57.5314217,70.1122409 57.3816955,70.2889448 L49.392141,70.1335602 L49.392141,70.1335602 C49.6428881,69.476101 50.0176303,69.0197805 50.5178598,68.76175 L50.401001,68.74646 C51.3672605,68.9086693 55.6272752,69.1849188 56.7942536,68.6545099 C57.5597673,68.8593666 57.880279,69.1578664 57.7564697,69.5491943 Z" id="路径" fill="#B1E0DB"></path>
                <polygon id="路径-230" fill="#90ABB3" points="60.4881458 30.1118164 65.6308899 31.229187 65.3756714 32.1182251 60.3910828 30.9439087"></polygon>
            </g>
        </g>
    </g>
</svg>