<?xml version="1.0" encoding="UTF-8"?>
<svg width="96px" height="96px" viewBox="0 0 96 96" version="1.1" xmlns="http://www.w3.org/2000/svg" xmlns:xlink="http://www.w3.org/1999/xlink">
    <title>AIR JORDAN 14 RETRO</title>
    <defs>
        <rect id="path-1" x="0" y="0" width="96" height="96"></rect>
    </defs>
    <g id="icon" stroke="none" stroke-width="1" fill="none" fill-rule="evenodd">
        <g id="画板" transform="translate(-622.000000, -758.000000)">
            <g id="AIR-JORDAN-14-RETRO" transform="translate(622.000000, 758.000000)">
                <g id="#" opacity="0">
                    <use fill="#FFFFFF" fill-rule="evenodd" xlink:href="#path-1"></use>
                    <rect stroke-opacity="0.5" stroke="#DDDDDD" stroke-width="6" stroke-linejoin="square" x="3" y="3" width="90" height="90"></rect>
                    <rect stroke-opacity="0.507785184" stroke="#DDDDDD" stroke-width="12" stroke-linejoin="square" x="6" y="6" width="84" height="84"></rect>
                    <rect stroke-opacity="0.319406703" stroke="#979797" stroke-width="10" stroke-linejoin="square" x="5" y="5" width="86" height="86"></rect>
                </g>
                <path d="M58.1565505,38.6216947 C58.2609675,38.3041366 58.3884215,37.9076773 58.5389123,37.4323167 C58.7646484,36.7192758 59.0556641,36.0510817 59.2224309,35.7873347 C59.3891977,35.5235877 60.6033278,34.2220553 60.7345628,33.8695162 C60.8657978,33.5169772 60.6576397,33.2965745 60.5911584,33.1892278 C60.524677,33.081881 60.9032076,32.8810847 61.1779597,32.7687049 C61.4527118,32.6563251 61.9138747,32.4591722 62.0620117,32.006573 C62.2101487,31.5539739 62.1891526,31.203463 61.6067082,30.8588116 C61.0242638,30.5141602 59.6811396,30.1079477 59.4971391,30.1145083 C59.3131385,30.1213942 58.7498498,30.265963 58.5389123,30.7128531 C58.3279748,31.1597431 58.389686,31.6985802 58.3687275,31.7824519 C58.3477689,31.8663236 58.2344501,31.7834285 58.1640249,31.8569712 C58.0935998,31.9305138 57.9035457,32.429049 57.8139648,32.6964017 C57.724384,32.9637545 57.8952825,32.7966121 57.4829477,33.1892278 C57.070613,33.5818434 56.7202524,33.6411884 56.5445838,33.8695162 C56.3689153,34.0978441 56.0721905,34.2888371 55.9895207,34.3649339 C55.906851,34.4410306 55.5980694,34.7762169 55.4840745,34.8903621 C55.3700796,35.0045072 54.9380258,35.1644005 54.8854417,35.3355995 C54.8328576,35.5067984 54.7201022,35.5082257 54.4617638,35.7095853 C54.2034255,35.910945 54.0930364,36.0887169 54.0996469,36.1484751 C54.1062575,36.2082332 54.1413762,36.502817 54.0486779,36.5491286 C53.9559796,36.5954402 53.580604,36.8428861 53.4396034,37.0697867 C53.2986028,37.2966872 53.236854,37.6661283 53.1173377,37.7432767 C52.9978215,37.8204252 52.2661508,39.0163011 51.6168119,39.5411659 C50.967473,40.0660306 50.1865234,40.955003 49.677509,41.5823317 C49.1684946,42.2096605 48.1591046,43.2642728 47.8363882,43.4161659 C47.5136719,43.5680589 45.1655649,44.1674429 44.5467248,44.4688251 C43.9278846,44.7702073 42.8138522,45.9721304 42.3582482,46.4707782 C42.0545122,46.8032101 41.8582232,47.0130459 41.769381,47.1002855 C41.1502404,47.5033303 40.6492137,47.8032352 40.2663011,48 C39.6919321,48.2951472 37.1315355,48.9344952 35.943134,49.4830228 C34.7547326,50.0315505 32.9501953,51.1361178 32.4684495,51.5313251 C32.1103516,51.7185998 31.2301683,51.3903996 30.6597806,51.6645132 C30.089393,51.9386268 29.2316707,52.7633714 28.8966346,53.0034555 C28.5615986,53.2435397 25.6310096,54.0714393 24.8272236,54.1984675 C24.0234375,54.3254958 21.7226563,54.9086538 19.6497897,55.3422476 C17.5769231,55.7758413 13.736854,56.3671124 12.5134465,57.3780799 C11.2900391,58.3890475 11.1165114,59.1178636 11.0313251,59.5583684 C10.9461388,59.9988732 13.215595,62.4765625 18.0932993,64.3799579 C22.9710036,66.2833534 28.0734675,66.8075421 34.7907151,66.8922776 C41.5079627,66.9770132 47.8285757,67.2896635 56.4420072,63.980018 C65.0554387,60.6703726 68.223107,60.9045974 71.0596454,61.5392127 C73.8961839,62.1738281 84.843149,63.8445012 85.2255108,63.5461238 C85.6078726,63.2477464 86,62.744366 86,62 C86,61.503756 85.9527494,60.8304537 85.8582482,59.9800931 C86.032477,57.5202073 85.9475661,55.527494 85.6035156,54.0019531 C85.0874399,51.7136418 82.4685998,42.8801082 82.2720853,42.3416466 C82.0755709,41.8031851 81.4221755,36.8152043 81.309345,36.6092248 C81.2566607,36.5244892 81.1854718,36.4582833 81.0957782,36.410607 C81.1098007,35.8501102 81.0634515,35.3917268 80.9567308,35.0354567 C80.7966496,34.5010517 80.7686298,33.9909105 80.5269681,33.9708534 C80.3658604,33.957482 80.2509766,33.957482 80.1823167,33.9708534 C79.5622746,34.124399 78.9782652,34.3305789 78.4302885,34.589393 C77.6083233,34.9776142 75.288762,36.9597356 74.2908654,38.0859375 C73.2929688,39.2121394 71.242488,41.1389724 70.0527344,41.5823317 C68.8629808,42.0256911 65.871244,42.1567007 62.8419471,40.8553185 C60.8224159,39.9877304 59.260617,39.2431891 58.1565505,38.6216947 Z" id="路径-1252" fill="#302B2B"></path>
                <path d="M59.4971391,30.1145083 C59.6811396,30.1079477 61.0242638,30.5141602 61.6067082,30.8588116 C62.1891526,31.203463 62.2101487,31.5539739 62.0620117,32.006573 L62.0855897,31.9148715 L61.4272426,31.5290388 C61.1532609,31.3719144 61.2077364,31.0714296 60.9920654,30.9577637 C60.6473943,30.7761104 59.7194255,30.5127978 59.5236816,30.4421387 C59.0192507,30.2600504 58.8535341,30.6421304 58.5441925,30.7054533 C58.7572329,30.2640699 59.3143471,30.121349 59.4971391,30.1145083 Z" id="路径" fill="#7B7B7B"></path>
                <path d="M80.8192653,34.4903226 L80.8812232,34.7524318 L80.8812232,34.7524318 L80.9567308,35.0354567 C81.0634515,35.3917268 81.1098007,35.8501102 81.0957782,36.410607 C81.1854718,36.4582833 81.2566607,36.5244892 81.309345,36.6092248 C81.416534,36.8049053 82.0115828,41.316342 82.2393062,42.2286599 L82.8304166,44.1607569 C83.6802208,47.0034572 85.2206207,52.3041738 85.6035156,54.0019531 C85.9475661,55.527494 86.032477,57.5202073 85.8582482,59.9800931 L85.8935684,60.3111841 L85.8935684,60.3111841 L85.2751867,61.1039219 C84.722564,61.799701 84.0766796,62.5832658 83.3375329,63.4536795 L82.3927683,63.3442103 C79.0183592,62.9311725 73.5693328,62.0653459 71.365255,61.6051004 L71.0596454,61.5392127 C69.5895158,61.2103024 68.030439,60.9889439 65.670357,61.3127716 L64.8962754,61.1786004 L62.5345656,61.9579973 L62.5345656,61.9579973 C61.0477301,62.3480845 59.3070627,62.9058219 57.2348008,63.6796209 L56.7734599,63.8545744 L51.6444772,65.5305162 L51.6444772,65.5305162 C50.3246572,65.8763531 49.0554074,66.139341 47.823576,66.3390856 L33.0884553,66.5808085 L33.0884553,66.5808085 L20.8625488,65.2077053 L17.1316605,63.7362818 C16.2374631,63.3796758 15.4238305,63.0516888 14.6907627,62.7523206 C12.1553362,61.2795597 10.9693064,59.879072 11.0313251,59.5583684 L11.1053344,59.243618 C11.1742153,59.0085536 11.293966,58.723103 11.53531,58.3877194 C12.1786212,59.0539974 13.3629956,59.6425855 15.0881348,60.1535053 C19.7475586,61.5334473 27.6961825,59.9337197 28.6637651,60.1535053 C29.6313477,60.373291 27.0731356,63.180737 28.6637651,63.2557738 C30.2543945,63.3308105 32.5907997,62.9963689 33.9543457,61.8908691 C35.2326701,60.8544631 36.5202505,60.1157295 38.4624246,60.5627381 L38.8597785,60.6682129 C41.0275879,61.3178711 40.0698988,59.229248 38.8597785,57.9643555 C37.6496582,56.6994629 36.2794997,55.6032231 33.7802528,55.3592287 C31.2810059,55.1152344 29.0253906,55.78974 26.9848633,55.2106934 C24.9814364,54.6421748 41.9485778,52.0255858 45.1927374,50.6672825 L45.3586426,50.5931367 C48.1337891,49.2583008 69.6289063,45.6705194 73.4562988,42.406915 C75.8919123,40.3300758 78.4176819,37.2444214 80.0793567,35.327042 L80.8192653,34.4903226 Z" id="路径" fill="#191818"></path>
                <path d="M82.0603444,41.601503 L82.0772905,41.3832251 L82.1537501,41.8171121 C82.189541,42.0095527 82.2213411,42.1621637 82.2476552,42.2611062 L82.5382412,43.1906159 C82.8168205,44.1066432 83.2721842,45.6391374 83.7513326,47.2863273 L83.5219131,47.421875 L83.5219131,47.421875 C83.3989139,47.4932355 83.0958937,46.3735232 82.9960938,45.9691311 C82.8962938,45.5647389 83.0887481,45.6286204 83.0620713,45.4363091 L82.9887168,45.1192807 C82.8573503,44.6072691 82.5968537,43.7112783 82.5779821,43.9167778 C82.5534489,44.1839272 82.4383098,44.3515625 82.332984,44.3291254 C82.2276582,44.3066883 82.1881669,44.0544017 82.206322,43.8153106 L82.2671089,43.0835783 C82.2876917,42.8780177 82.3107919,42.6988649 82.332984,42.6437214 C82.3847656,42.5150534 82.2137481,42.3605659 82.0986566,42.0948457 C82.0602928,42.0062722 82.0475221,41.8418247 82.0603444,41.601503 Z" id="路径" fill="#D9D9D9"></path>
                <path d="M81.309345,36.6092248 L79.8463379,38.2207189 C79.4166395,38.702908 78.9669122,39.2402547 78.8098145,39.5626221 C78.5270386,40.1428833 77.0079346,37.8551025 76.4190674,36.854187 C76.2845476,36.6255396 76.3902642,36.2780863 76.6452145,35.8779532 L77.1795235,35.4451881 C77.6967226,35.0386918 78.150355,34.721608 78.4302885,34.589393 C78.9782652,34.3305789 79.5622746,34.124399 80.1823167,33.9708534 C80.2509766,33.957482 80.3658604,33.957482 80.5269681,33.9708534 C80.647799,33.9808819 80.7152194,34.1134315 80.7724422,34.3102746 L80.9567308,35.0354567 C81.0634515,35.3917268 81.1098007,35.8501102 81.0957782,36.410607 C81.1854718,36.4582833 81.2566607,36.5244892 81.309345,36.6092248 Z" id="路径" fill="#B8B0B2"></path>
                <path d="M80.5269681,33.9708534 C80.647799,33.9808819 80.7152194,34.1134315 80.7724422,34.3102746 L80.9567308,35.0354567 C81.0634515,35.3917268 81.1098007,35.8501102 81.0957782,36.410607 C81.1854718,36.4582833 81.2566607,36.5244892 81.309345,36.6092248 L79.8463379,38.2207189 C79.4166395,38.702908 78.9669122,39.2402547 78.8098145,39.5626221 C78.644035,39.9028045 78.0533326,39.2572476 77.4742596,38.4631456 C77.6883451,38.0753866 77.8867988,37.756891 78.0689655,37.5025593 C78.4455165,36.9768384 78.812246,35.9043847 79.169154,34.2851982 C79.494782,34.1606701 79.8328254,34.0574005 80.1823167,33.9708534 C80.2509766,33.957482 80.3658604,33.957482 80.5269681,33.9708534 Z" id="路径" fill="#B3ACAE"></path>
                <path d="M80.2095789,35.4779527 L80.8077225,34.4498782 L80.9567308,35.0354567 C81.0634515,35.3917268 81.1098007,35.8501102 81.0957782,36.410607 C81.1854718,36.4582833 81.2566607,36.5244892 81.309345,36.6092248 L79.8463379,38.2207189 C79.4166395,38.702908 78.9669122,39.2402547 78.8098145,39.5626221 C78.683482,39.8218585 78.3103874,39.5086543 77.8837225,38.9935014 C77.9441607,38.7367297 78.059801,38.4948405 78.1814386,38.3391029 L79.1111261,37.1735419 C79.4717807,36.7135304 79.8094019,36.2617524 79.9026131,36.0573815 L80.0207818,35.8216927 C80.0719427,35.7251213 80.1348751,35.6105413 80.2095789,35.4779527 Z" id="路径" fill="#9F9A9C"></path>
                <path d="M81.0957782,36.410607 C81.1854718,36.4582833 81.2566607,36.5244892 81.309345,36.6092248 L79.8463379,38.2207189 C79.4166395,38.702908 78.9669122,39.2402547 78.8098145,39.5626221 C78.683482,39.8218585 78.3103874,39.5086543 77.8837225,38.9935014 C77.9441607,38.7367297 78.059801,38.4948405 78.1814386,38.3391029 L78.3112164,38.1802884 C78.7699646,38.3856606 78.9697525,38.1917909 79.2498653,37.9290477 L80.2761547,36.9367295 C80.4956328,36.7203085 80.6842883,36.5308164 80.7712823,36.4361193 C80.9013591,36.2945246 81.0123259,36.0264265 81.0852868,35.8153432 C81.09772,35.9995146 81.1011049,36.1976934 81.0957782,36.410607 Z" id="路径" fill="#8B898A"></path>
                <path d="M81.0957782,36.410607 C81.159407,36.4444286 81.2137232,36.4875753 81.2587271,36.5400471 L81.0460972,36.715985 C80.4202153,37.2616375 78.9904509,38.6477618 78.9478848,38.6600622 L81.0964123,36.2515461 L81.0964123,36.2515461 L81.0957782,36.410607 L81.0957782,36.410607 Z" id="路径" fill="#575757"></path>
                <path d="M80.5269681,33.9708534 C80.647799,33.9808819 80.7152194,34.1134315 80.7724422,34.3102746 L80.8214297,34.4989255 C80.7076393,34.3470461 80.5857525,34.2478785 80.4816137,34.3004445 L80.2430206,34.4367935 C79.7309612,34.7409409 78.6042961,35.4441308 77.9316657,35.8812923 L77.4499596,36.2051455 C77.1627096,36.4177362 78.3456406,35.1256442 79.2594727,34.247479 C79.5573518,34.1417281 79.8651193,34.0494034 80.1823167,33.9708534 C80.2509766,33.957482 80.3658604,33.957482 80.5269681,33.9708534 Z" id="路径" fill="#DED7DE"></path>
                <path d="M58.3618269,31.7921793 C58.7624824,31.8301877 59.0597491,31.9198761 59.2536272,32.0612444 C59.5492688,32.2768147 60.1796266,32.8071064 60.6680603,33.302707 C60.7443358,33.4231133 60.8309059,33.6107078 60.7345628,33.8695162 C60.6033278,34.2220553 59.3891977,35.5235877 59.2224309,35.7873347 C59.0794879,36.0134036 58.8452601,36.5366173 58.6391005,37.1305219 L58.1565505,38.6216947 L58.1565505,38.6216947 C58.3872247,38.7515444 58.6378799,38.8867654 58.9085163,39.0273577 C58.0115087,39.192846 57.6422113,38.8309927 57.8021763,37.9419643 C58.1143973,36.2067522 59.0398996,34.8660714 59.2536272,34.4483817 C59.4673549,34.030692 58.0549665,35.1939174 57.1994978,35.9040179 C56.344029,36.6141183 50.8803013,43.1470424 48.5145076,45.5817522 C46.1960298,47.9677679 27.5462002,53.9660022 25.7186586,54.4426387 L25.6280692,54.4648438 C24.4779576,54.7173549 22.6771763,55.8013393 24.2667411,56.1453683 C25.7427655,56.4648238 29.2509837,56.2345501 31.3070678,56.3398707 L31.7541853,56.3705357 C33.7056362,56.5452009 36.3582589,57.5276228 29.2416295,58.6707589 C22.125,59.8138951 14.7731585,58.734096 13.4606585,58.406529 C13.0070126,58.2933104 12.7077627,57.9392232 12.5629087,57.3442674 C13.8303423,56.3527005 17.6022266,55.7705485 19.6497897,55.3422476 L22.1362344,54.7889087 C23.1918145,54.5455304 24.1159673,54.328524 24.6470175,54.2297755 L24.8272236,54.1984675 C25.6310096,54.0714393 28.5615986,53.2435397 28.8966346,53.0034555 C29.2316707,52.7633714 30.089393,51.9386268 30.6597806,51.6645132 C31.2301683,51.3903996 32.1103516,51.7185998 32.4684495,51.5313251 C32.9501953,51.1361178 34.7547326,50.0315505 35.943134,49.4830228 C37.1315355,48.9344952 39.6919321,48.2951472 40.2663011,48 C40.6492137,47.8032352 41.1502404,47.5033303 41.769381,47.1002855 L42.7468694,46.0517576 C43.2845238,45.4824135 44.0654046,44.7032335 44.5467248,44.4688251 C45.1655649,44.1674429 47.5136719,43.5680589 47.8363882,43.4161659 C48.1268329,43.2794621 48.9734833,42.4115557 49.5109805,41.7820189 L49.677509,41.5823317 C50.1016877,41.0595578 50.7147102,40.3550869 51.2830431,39.8310436 L51.6168119,39.5411659 C52.20712,39.0640161 52.8654709,38.0323116 53.0700868,37.7907096 L53.1173377,37.7432767 C53.236854,37.6661283 53.2986028,37.2966872 53.4396034,37.0697867 C53.580604,36.8428861 53.9559796,36.5954402 54.0486779,36.5491286 C54.1413762,36.502817 54.1062575,36.2082332 54.0996469,36.1484751 C54.0930364,36.0887169 54.2034255,35.910945 54.4617638,35.7095853 C54.7201022,35.5082257 54.8328576,35.5067984 54.8854417,35.3355995 C54.9380258,35.1644005 55.3700796,35.0045072 55.4840745,34.8903621 L55.9895207,34.3649339 L55.9895207,34.3649339 L56.2971217,34.120625 C56.38468,34.0462049 56.4743164,33.9608474 56.5445838,33.8695162 C56.7202524,33.6411884 57.070613,33.5818434 57.4829477,33.1892278 L57.6960256,32.9841854 C57.8261132,32.8530273 57.7467792,32.8969163 57.8139648,32.6964017 L57.9288848,32.376291 C58.0169563,32.1439136 58.1170748,31.9059996 58.1640249,31.8569712 C58.2168438,31.8018142 58.2937904,31.8346534 58.3378044,31.819137 L58.3618269,31.7921793 Z" id="路径" fill="#383434"></path>
                <path d="M54.8807983,35.8467611 L55.6192182,36.2863115 C55.8872831,36.4515095 56.0707465,36.5961439 56.0380249,36.7272339 L56.0059536,36.8567847 C55.9657976,36.9891455 55.8931205,37.0391418 55.5471272,36.8321753 L55.3814087,36.7272339 C54.8174466,36.3539551 54.439551,36.2554863 54.1067963,36.1113082 L54.0996469,36.1484751 C54.0930364,36.0887169 54.2034255,35.910945 54.4617638,35.7095853 L54.589952,35.6147742 C54.6526997,35.6843431 54.7462932,35.7613964 54.8807983,35.8467611 Z M56.6433716,36.0725708 C56.5923462,36.2155151 56.9239502,36.5773315 56.0380249,36.0725708 C55.5122442,35.7730044 55.155467,35.4574006 54.9242946,35.2766042 L54.8854417,35.3355995 C54.9299836,35.1905839 55.2467982,35.0536802 55.4119472,34.9458216 C55.6124491,35.2587676 56.6868039,35.9508979 56.6433716,36.0725708 Z M56.3135663,34.3148193 L56.883049,34.6644043 C57.2674051,34.9131883 57.6509732,35.1979037 57.550415,35.2950439 C57.4099528,35.4307319 56.9404493,35.2435031 56.4167673,34.9389476 L56.2183838,34.8196411 C56.0011561,34.6848551 55.8549342,34.6241517 55.7482782,34.6100884 L55.9895207,34.3649339 L56.1808373,34.2076015 C56.210714,34.2434099 56.2540008,34.2795308 56.3135663,34.3148193 Z M58.3554687,34.4111938 L58.3344481,34.4988507 C58.3094169,34.6712688 58.3199663,34.8728243 57.727444,34.521234 L57.0125235,34.0711351 C56.7840211,33.9325166 56.658796,33.8700204 56.567182,33.8450654 L56.5445838,33.8695162 C56.6683074,33.7087047 56.8786852,33.6317154 57.1363379,33.4630803 L57.8204429,33.9114695 C58.1268989,34.1199156 58.3912848,34.3247643 58.3554687,34.4111938 Z M58.0759856,32.8349609 L58.3880572,32.9700049 C58.911948,33.1771015 59.6125515,33.400846 59.486647,33.5907595 C59.3327637,33.822876 59.3293428,34.2175903 58.6303697,33.8370361 C58.1112793,33.5544187 57.7624525,33.2820682 57.5830649,33.0927577 L57.6960256,32.9841854 C57.8000957,32.879259 57.7701359,32.8863626 57.7883883,32.7907377 L57.8263407,32.6531773 C57.8788003,32.7175829 57.9620152,32.7781774 58.0759856,32.8349609 Z" id="形状" fill="#4B4848"></path>
                <path d="M51.8181536,38.5585938 C51.4482422,39.1264648 51.0828857,39.9149962 51.189209,40.1312652 C51.2955322,40.3475342 52.2968641,40.9345703 52.3018744,41.2813721 C52.3068848,41.6281738 51.7259521,42.6342897 51.189209,42.5930238 C50.6524658,42.5517578 49.2151614,42.1859003 49.1264406,42.406915 C49.0377197,42.6279297 48.875,43.5115915 48.8737793,44.1013768 C48.8725586,44.6911621 47.9318416,45.4398458 47.3883451,45.5317515 C46.8448486,45.6236572 45.8203125,44.5042425 45.4069824,44.9384006 C44.9936523,45.3725586 43.6517334,45.128418 43.5560303,45.8220215 C43.4603271,46.515625 43.6811523,47.2424316 43.96521,47.8087158 C44.2492676,48.375 42.5289786,48.822626 41.9829341,48.5931367 C41.4368896,48.3636475 40.4349976,47.5801225 40.2137451,47.975708 C39.9924927,48.3712935 39.5125732,49.9025277 39.1695557,50.2532048 C38.8265381,50.6038818 43.4256217,50.1452637 48.5145076,45.8220215 C53.6033936,41.4987793 56.6042845,38.0892913 56.2912598,37.9012451 C55.978235,37.7131989 55.0784554,37.121582 54.6121037,36.8218994 C54.145752,36.5222168 53.9210872,36.4517822 54.3653898,36.8218994 C54.8096924,37.1920166 55.9068604,37.663208 55.3374023,37.9012451 C54.7679443,38.1392822 54.4887173,38.2829528 54.1154524,37.9988372 C53.7421875,37.7147217 53.6352821,36.8503042 53.4956055,37.2624512 C53.3559289,37.6745981 53.876778,38.6894531 54.0551493,38.9150391 C54.2335205,39.140625 52.8183632,39.6367085 52.5825215,39.6275583 C52.4660101,39.623038 52.2233441,39.384371 52.1097412,39.0496826 C51.9933895,38.706896 52.0053202,38.2712642 51.8181536,38.5585938 Z" id="路径-1269" fill="#181616"></path>
                <path d="M54.050572,39.7734375 C53.5887277,39.6094448 52.6761998,39.3427037 52.3726283,39.1461356 C52.0690569,38.9495675 52.9933297,38.0752302 52.864563,38.036377 C52.7357962,37.9975237 51.6347395,37.9513114 51.3795776,38.2158203 C51.1244158,38.4803292 50.9465681,39.0699637 50.9601004,39.403111 C50.9736328,39.7362584 53.0120675,40.7526507 53.4866071,40.8876256 C53.9611468,41.0226004 53.2668806,42.6833845 52.746303,42.8811384 C52.2257254,43.0788923 50.6182556,41.7886963 50.2852478,41.6763611 C49.95224,41.5640259 49.9126282,41.4649353 49.9623718,41.3337097 C50.0121155,41.2024841 50.0820705,41.0650155 49.6010437,41.17739 C49.1200169,41.2897644 48.1763393,41.6967773 48,42.1865234 C47.8236607,42.6762695 47.7464425,43.3059431 47.784389,43.7070312 C47.8223354,44.1081194 48.3066406,45.848284 48.3114537,45.9315709 C48.3162667,46.0148577 47.7174944,45.8162885 47.3225446,45.4876644 C46.9275949,45.1590402 46.4608677,44.6462751 46.1086775,44.6016323 C45.7564872,44.5569894 45.1116769,44.4785156 44.8272879,44.6016323 C44.542899,44.7247489 43.6382533,45.4448351 43.5652902,45.7609515 C43.492327,46.0770678 44.3995536,47.4872349 44.4350586,47.6590402 C44.4705636,47.8308454 45.1000279,48.1339983 45.1668527,47.6590402 C45.2336775,47.184082 45.1861049,45.937779 45.1668527,45.7609515 C45.1476004,45.5841239 45.7370954,45.6817104 45.9448242,45.7609515 C46.152553,45.8401925 46.8537249,46.5475725 46.7645787,46.8729074 C46.6754325,47.1982422 44.9208287,48.8100586 44.3187081,48.8743025 C43.7165876,48.9385463 42.2951311,47.7523717 42.0783343,47.4515904 C41.8615374,47.1508092 41.1928013,46.86649 40.8690011,46.9191546 C40.5452009,46.9718192 40.1664342,47.1720843 39.7993862,47.6590402 C39.4323382,48.1459961 38.8708845,48.7196568 38.5811244,49.3941825 C38.2913644,50.0687081 37.8849051,50.3253348 37.5696847,50.2276088 C37.2544643,50.1298828 36.3517718,49.762207 36.1674107,49.7605329 C35.9830497,49.7588588 34.9439872,50.1947545 34.7361886,50.3650949 C34.5283901,50.5354353 34.1925223,51.0581752 33.8219866,51.5668248 C33.4514509,52.0754743 35.5927037,52.046596 38.4789342,51.3144531 C39.0776358,51.162582 39.6346261,51.3223354 39.8971122,50.2677874 C40.1595982,49.2132394 40.4695871,48.3785575 40.5170898,48.1304408 C40.5645926,47.8823242 42.0157645,49.4467773 43.1135603,49.5391323 C44.211356,49.6314872 44.7760944,49.2224618 45.3205218,48.8743025 C46.7556501,47.956543 49.4546596,46.156808 49.4086914,45.680385 C49.3627232,45.2039621 49.2480469,43.5544782 49.2276786,43.1628069 C49.2140997,42.9016927 49.2140997,42.7331892 49.2276786,42.6572963 C49.608631,42.8106631 49.9467773,42.9421735 50.2421177,43.0518276 C50.6851283,43.2163086 52.5611747,43.9487305 53.0011161,43.7070312 C53.4410575,43.465332 54.9661691,41.5764509 54.9665552,41.105399 C54.9665552,40.6343471 54.5124163,39.9374302 54.050572,39.7734375 Z" id="路径-1253" fill="#4C484C"></path>
                <path d="M37.9003041,48.7815296 L38.8251828,48.4971751 L38.4207839,48.7642856 C38.1952894,48.9199999 38.0580043,49.0309955 38.0089286,49.0972726 C37.8884277,49.2600098 37.7508371,49.5601632 37.6392648,49.8189523 C37.5276925,50.0777414 37.2025321,50.0214844 36.834089,50.0223912 C36.4656459,50.023298 36.2255511,50.3115932 36.1456822,50.3681292 C36.0658133,50.4246652 36.2822963,50.0871931 36.31393,49.9574847 C36.3455636,49.8277762 36.1842215,49.8697684 35.9720633,49.8189523 C35.7599051,49.7681362 35.0336914,50.2381766 34.8570382,50.3681292 C34.680385,50.4980818 34.2438616,50.9737026 34.0996094,51.1532725 C33.9553571,51.3328425 32.379255,51.9988839 32.176409,52.0091378 C32.0748397,52.0142722 32.145152,51.814016 32.2598076,51.5842469 L32.3113148,51.5795734 L32.4684495,51.5313251 C32.9501953,51.1361178 34.7547326,50.0315505 35.943134,49.4830228 C36.4383013,49.2544697 37.1716622,49.0101491 37.9003041,48.7815296 L37.9003041,48.7815296 Z M45.499739,44.1277033 L47.173606,43.632325 L46.840394,43.8993642 L46.840394,43.8993642 L46.7744838,43.9567174 C46.5976563,44.116769 46.3122907,44.4583915 46.1660854,44.5286342 C46.01988,44.598877 45.4406041,44.5674526 45.2854004,44.7222028 C45.1819313,44.8253697 45.0970168,45.1078985 45.0306571,45.5697893 C44.8821266,45.0396322 44.7425595,44.776902 44.6119559,44.7815988 C44.4160505,44.788644 43.6923479,45.6321847 43.2268415,45.9476493 C43.0908941,46.0397782 42.8718652,46.1251547 42.6070352,46.2073814 L43.056656,45.7319031 C43.5520498,45.2232015 44.1507568,44.6616661 44.5467248,44.4688251 C44.7371371,44.3760921 45.091267,44.255146 45.499739,44.1277033 L45.499739,44.1277033 Z" id="形状" fill="#1D1A1A"></path>
                <path d="M37.4032157,49.4325126 C37.2501046,49.4491141 36.9372907,49.5408064 36.7889927,49.5733468 C36.6406948,49.6058873 36.459647,49.68607 36.5487932,49.7105887 C36.6379395,49.7351074 37.2971191,49.7786691 37.4354771,49.7530343 C37.5738351,49.7273996 37.6472517,49.5827985 37.6927316,49.5035226 C37.7382115,49.4242467 37.5563267,49.415911 37.4032157,49.4325126 Z" id="路径-1254" fill="#EBEAEA"></path>
                <path d="M61.2898865,30.8162537 C60.8089905,30.8396606 60.2791748,31.2244039 60.2420959,31.7921793 C60.2050171,32.3599548 60.7155762,32.6939392 61.0264282,32.6949463 C61.3372803,32.6959534 61.7901917,32.6506958 62.0381775,31.9920959 C62.2861633,31.3334961 61.7707825,30.7928467 61.2898865,30.8162537 Z" id="路径-1255" fill="#AE0D22"></path>
                <path d="M61.2898865,30.8162537 C61.6222617,30.8000757 61.9711103,31.0533473 62.0730088,31.4287794 C62.0273469,31.7801013 61.8606916,32.1700527 61.6815186,32.3327637 C61.4925232,32.5043945 60.7779541,32.5297546 60.5391488,32.1301464 C60.3355406,31.7894356 60.4774478,31.3296617 60.6726795,31.0417206 C60.8588788,30.9062078 61.0790828,30.8265143 61.2898865,30.8162537 Z" id="路径" fill="#C51B31"></path>
                <path d="M60.5057373,30.6752625 C60.3466492,30.6339722 60.3011934,30.5614624 60.1713639,30.6752625 C60.0415344,30.7890625 59.8114624,31.0620117 59.8766174,30.8669128 C59.9417725,30.671814 60.0871582,30.4977112 59.9776001,30.4828796 C59.868042,30.4680481 59.673645,30.5366516 59.5653992,30.6752625 C59.4571533,30.8138733 59.661499,30.2654114 59.4934387,30.3400269 C59.3253784,30.4146423 59.1555481,30.5186157 59.1546631,30.4828796 C59.1537781,30.4471436 59.3345032,30.2015991 59.1546631,30.2455444 C58.974823,30.2894897 58.6008911,30.5281298 58.5011292,30.8373718 C58.4013672,31.1466139 58.4019775,31.2189636 58.5788574,31.3387146 C58.7557373,31.4584656 58.8334961,31.3360901 58.85672,31.2189331 C58.8799438,31.1017761 59.0700989,30.8774719 59.0797424,31.0122681 C59.089386,31.1470642 59.0518494,31.445282 59.2168579,31.5175476 C59.3818665,31.5898132 59.4435694,31.2092285 59.4829083,31.1255798 C59.5222473,31.0419312 59.7016907,30.9245911 59.6493225,31.2189331 C59.5969543,31.5132751 59.649231,31.6969299 59.762207,31.6946106 C59.8751831,31.6922913 59.9477234,31.3365479 60.0794983,31.1199646 C60.2112732,30.9033813 60.6648254,30.7165527 60.5057373,30.6752625 Z" id="路径-1256" fill="#873446"></path>
                <path d="M44.373404,67.4886623 C44.2308498,65.8181212 44.1467226,63.2270389 41.6021341,60.1443407 C39.0575457,57.0616425 37.1030245,55.4623666 36.1124879,55.2197027 C35.1219512,54.9770389 32.3010671,54.7131288 29.7155107,55.1584413 C27.1299543,55.6037538 26.6905488,55.6092797 25.9936166,55.6410061 C25.2966845,55.6727325 25.6655869,55.3338415 24.786109,55.5696456 C23.9066311,55.8054497 23.5080983,55.5764101 23.6463415,55.2197027 C23.7845846,54.8629954 25.0567359,54.2253239 25.7168921,53.9271151 C26.0498809,53.7766959 27.9068823,53.0925855 29.0488758,52.7260861 C31.3531822,51.9865663 37.292016,50.4244882 42.902439,47.4251347 C48.512862,44.4257812 50.5089558,42.3293636 51.7640053,40.9697027 C53.0190549,39.6100419 54.0778392,38.6254764 55.2101753,38.3901486 C56.3425114,38.1548209 61.6837843,42.1712081 64.4848514,42.7237995 C67.2859184,43.276391 77.2848704,41.2566692 78.705221,41.8332698 C80.1255716,42.4098704 84.0224848,51.6306861 84.5301067,52.9344361 C85.0377287,54.238186 85.7114139,59.4524581 85.5904154,60.5682165 C85.5097497,61.3120554 85.3482597,62.4650343 85.1059451,64.0271532 C75.5556402,62.1155043 70.2761687,61.0752033 69.2675305,60.90625 C67.7545732,60.6528201 63.5598323,60.7103659 60.2985899,62.0356326 C57.0373476,63.3608994 44.5159581,69.1592035 44.373404,67.4886623 Z" id="路径-1257" fill="#92041A"></path>
                <path d="M51.2311198,46.3951823 C59.4354248,47.5163574 56.318929,51.2704582 52.2912598,55.1622314 C49.6838951,57.6816221 43.3626709,61.1934814 42.6311203,61.562531 C42.3426052,61.1031404 42.0028835,60.6298374 41.6021341,60.1443407 C39.0575457,57.0616425 37.1030245,55.4623666 36.1124879,55.2197027 L35.6592736,55.1291346 C34.4204072,54.922143 31.9778725,54.7687929 29.7155107,55.1584413 L28.8881609,55.2981082 C27.0230004,55.6054167 26.6085568,55.6130122 25.9936166,55.6410061 C25.3663777,55.6695598 25.6024647,55.3979135 25.0148152,55.5151999 L24.786109,55.5696456 C23.9066311,55.8054497 23.5080983,55.5764101 23.6463415,55.2197027 C23.7845846,54.8629954 25.0567359,54.2253239 25.7168921,53.9271151 L26.391898,53.6614846 C27.0435068,53.416409 28.0113602,53.0684214 28.7736655,52.8159135 L29.6191608,52.5479585 C32.2312074,51.7472611 37.7076029,50.2023139 42.902439,47.4251347 L43.847274,46.9098016 C46.5768869,46.3724591 49.1540892,46.1113417 51.2311198,46.3951823 Z" id="路径" fill="#A2001A"></path>
                <path d="M40.029109,49.5931367 L41.9966432,49.3804162 C47.0065628,48.8709122 48.7420819,49.0630891 48,51.9119433 C47.5099993,53.793057 45.1013524,56.2113079 40.7740594,59.166696 C38.6326942,56.7211032 36.9923175,55.4352454 36.1124879,55.2197027 L35.6592736,55.1291346 C34.4204072,54.922143 31.9778725,54.7687929 29.7155107,55.1584413 L28.1728118,55.4123953 C26.9004961,55.6080031 26.5207082,55.6170114 25.9936166,55.6410061 C25.3663777,55.6695598 25.6024647,55.3979135 25.0148152,55.5151999 L24.786109,55.5696456 C23.9066311,55.8054497 23.5080983,55.5764101 23.6463415,55.2197027 C23.7845846,54.8629954 25.0567359,54.2253239 25.7168921,53.9271151 L26.391898,53.6614846 L27.2922312,53.3306932 C27.7849018,53.1532957 28.3162823,52.9674182 28.7736655,52.8159135 L29.6191608,52.5479585 L32.1002098,51.7895925 C33.5647261,51.3310819 35.3270433,50.7476568 37.215322,50.0126619 C38.2210082,49.8321285 39.1683578,49.6894754 40.029109,49.5931367 Z" id="路径" fill="#B10122"></path>
                <path d="M47.3883451,49.483778 L47.3702763,49.5416816 C46.7943068,51.1382081 41.5138571,53.8919576 36.9384085,55.6011225 C36.6145832,55.4010159 36.3384525,55.2750601 36.1124879,55.2197027 L35.6592736,55.1291346 C34.4204072,54.922143 31.9778725,54.7687929 29.7155107,55.1584413 L28.1728118,55.4123953 L27.5082071,55.5089807 C26.7426888,55.6122059 26.4152899,55.6218103 25.9936166,55.6410061 C25.3663777,55.6695598 25.6024647,55.3979135 25.0148152,55.5151999 L24.786109,55.5696456 C23.9066311,55.8054497 23.5080983,55.5764101 23.6463415,55.2197027 C23.7845846,54.8629954 25.0567359,54.2253239 25.7168921,53.9271151 L26.391898,53.6614846 L27.2922312,53.3306932 L28.2957909,52.9772886 C28.4605215,52.9207358 28.6212044,52.8664151 28.7736655,52.8159135 L29.6191608,52.5479585 L32.1002098,51.7895925 L33.4244324,51.3653704 C34.5820471,50.9853231 35.8665515,50.5376582 37.215322,50.0126619 C38.2210082,49.8321285 39.1683578,49.6894754 40.029109,49.5931367 L41.9966432,49.3804162 C44.7163712,49.1038225 46.4711127,49.0340186 47.3883451,49.483778 Z" id="路径" fill="#C00024"></path>
                <path d="M55.6941732,39.6541341 C55.889974,39.9054362 53.4796549,42.1775716 52.1645508,43.3836263 C50.8494466,44.589681 48.101888,46.8244629 45.6503906,48.1756185 C43.1988932,49.5267741 38.8459473,51.2282715 34.1969401,52.7284342 L26.3075358,55.318278 L26.3075358,55.318278 C26.1685221,55.3687771 27.1748184,55.3491041 28.2816419,55.1982841 L29.7017729,54.9722622 C30.8188344,54.8072284 32.1534102,54.6812066 33.7802528,54.771403 L34.5920389,54.8229051 C36.0591734,54.9346361 36.6647019,55.1294621 37.7950033,55.960612 C39.1136882,56.9302868 41.2026367,59.2081706 42.1835937,60.4580078 C43.1645508,61.7078451 44.152181,63.9163411 44.3905436,65.3341471 C44.5608026,66.3468657 44.6447405,67.294231 44.6551396,67.7559723 L44.5463773,67.7203691 C44.4420368,67.671493 44.3825032,67.5952926 44.373404,67.4886623 L44.3085428,66.717607 C44.1566,65.067779 43.7832099,62.7866534 41.6021341,60.1443407 C39.0575457,57.0616425 37.1030245,55.4623666 36.1124879,55.2197027 L35.6592736,55.1291346 C34.4204072,54.922143 31.9778725,54.7687929 29.7155107,55.1584413 L28.8881609,55.2981082 C27.0230004,55.6054167 26.6085568,55.6130122 25.9936166,55.6410061 C25.3663777,55.6695598 25.6024647,55.3979135 25.0148152,55.5151999 L24.786109,55.5696456 C24.4038359,55.67214 24.1124271,55.6868121 23.9164674,55.6413508 C24.1865618,55.6076321 24.5286125,55.5178613 24.9468618,55.3536818 L25.2749023,55.2163086 C26.9724426,54.4633636 30.1533518,53.5328922 33.5212511,52.4722353 L34.1969401,52.2583822 C37.8098145,51.108724 42.8544922,49.2013346 45.7415365,47.4671224 C48.5030571,45.8083107 52.3465942,42.4911814 53.3980525,41.315191 L53.523763,41.168457 C54.3492839,40.1507161 55.4983724,39.402832 55.6941732,39.6541341 Z" id="路径" fill="#77101F"></path>
                <path d="M53.264974,41.305013 C53.6972656,40.9356225 54.1796875,40.4897461 54.1083984,40.2089844 C54.0371094,39.9282227 53.1995443,40.4441732 52.3680013,41.1783854 C51.5364583,41.9125977 49.7937826,43.8907878 46.7320964,45.9277344 C43.6704102,47.964681 40.0070191,49.5824691 37.6627604,50.3639323 C35.3185017,51.1453955 30.6170247,52.6526091 29.081543,53.0842798 C27.5460612,53.5159505 25.5060221,54.1386719 24.2255859,54.6940104 C22.9451497,55.249349 23.8544922,55.5727539 25.0507813,55.1975911 C26.2470703,54.8224284 30.8209635,53.2989909 34.789388,52.0219727 C38.7578125,50.7449544 43.6691292,48.5876949 45.6507161,47.367513 C47.6323031,46.1473312 50.7589518,43.6741536 51.5600586,42.9926758 C52.3611654,42.3111979 52.8326823,41.6744035 53.264974,41.305013 Z" id="路径-1258" fill="#D52B4F"></path>
                <path d="M52.3680013,41.1783854 C53.1995443,40.4441732 54.0371094,39.9282227 54.1083984,40.2089844 C54.1618652,40.4195557 53.9038696,40.723004 53.5891571,41.0174041 L53.264974,41.305013 C52.8326823,41.6744035 52.3611654,42.3111979 51.5600586,42.9926758 L50.9377512,43.5041163 C49.6910881,44.5080192 47.2826113,46.3626574 45.6507161,47.367513 C44.847541,47.8620761 43.5630593,48.5105857 42.0551384,49.1920314 L40.1352094,49.4186784 L40.1352094,49.4186784 C42.1957396,48.5515955 44.6086354,47.3404777 46.7320964,45.9277344 C49.7937826,43.8907878 51.5364583,41.9125977 52.3680013,41.1783854 Z" id="路径" fill="#D11940"></path>
                <path d="M54.1083984,40.2089844 C54.1618652,40.4195557 53.9038696,40.723004 53.5891571,41.0174041 L53.264974,41.305013 C52.8326823,41.6744035 52.3611654,42.3111979 51.5600586,42.9926758 L50.9377512,43.5041163 L49.8606044,44.3547612 C49.1798161,44.8832816 48.3868928,45.4829681 47.6076041,46.0434853 L46.4369102,46.1188871 L46.4369102,46.1188871 L46.7320964,45.9277344 L46.7320964,45.9277344 C49.7937826,43.8907878 51.5364583,41.9125977 52.3680013,41.1783854 C53.1995443,40.4441732 54.0371094,39.9282227 54.1083984,40.2089844 Z" id="路径" fill="#C20F35"></path>
                <path d="M52.9197635,41.6381961 L52.6689438,41.6404281 C52.41662,41.646597 52.1324887,41.6654222 51.8181536,41.6978822 L52.2060963,41.3258478 L52.2060963,41.3258478 L52.3680013,41.1783854 C53.1995443,40.4441732 54.0371094,39.9282227 54.1083984,40.2089844 C54.1618652,40.4195557 53.9038696,40.723004 53.5891571,41.0174041 L53.264974,41.305013 C53.1541157,41.3997407 53.0406778,41.5120538 52.9197635,41.6381961 Z" id="路径" fill="#AD072A"></path>
                <path d="M33.40305,52.7914117 L33.20639,52.8641856 C32.2067286,53.2061251 28.1637573,54.4890398 29.5895996,54.5195312 C31.1251221,54.5523682 33.8687744,54.2752686 36.056538,54.7821045 C37.515047,55.1199951 38.8342137,56.2913818 40.0140381,58.2962646 L39.9897897,58.2981613 C38.2317962,56.4143593 36.8815736,55.4081151 36.1124879,55.2197027 L35.6592736,55.1291346 C34.4204072,54.922143 31.9778725,54.7687929 29.7155107,55.1584413 L28.1728118,55.4123953 L27.5082071,55.5089807 C26.7426888,55.6122059 26.4152899,55.6218103 25.9936166,55.6410061 C25.3663777,55.6695598 25.6024647,55.3979135 25.0148152,55.5151999 L24.786109,55.5696456 C23.9066311,55.8054497 23.5080983,55.5764101 23.6463415,55.2197027 C23.709979,55.0554995 24.0138965,54.8317587 24.3877881,54.6090005 C24.1484087,54.9763574 24.3399416,55.253816 24.9715576,55.1036377 L33.3026945,52.8112863 C33.3669342,52.7957196 33.4017999,52.7886843 33.40305,52.7914117 Z" id="路径" fill="#920621"></path>
                <path d="M71.1191406,48.4971751 L71.5898493,47.935925 C73.8538389,45.3292096 77.0079227,42.9923661 78.834872,44.9384006 L79.1152327,45.2511744 C81.2066979,47.6742555 85.8665687,54.8002149 84.3163936,53.772355 L84.194987,53.6848958 C82.2119141,52.1597972 75.1464844,46.385498 76.2922363,53.8122559 C77.4379883,61.2390137 80.7630955,60.3712011 82.9140625,59.1967773 C83.8260905,58.6988118 84.9341707,56.9730901 85.6196423,54.076815 C85.9501649,55.5900922 86.0297454,57.5587733 85.8582482,59.9800931 L85.9369992,60.7714343 C85.9789997,61.2596488 86,61.6691707 86,62 C86,62.744366 85.6078726,63.2477464 85.2255108,63.5461238 C84.8537702,63.8362129 74.4961969,62.265124 71.3143975,61.5944312 L70.5959559,61.4403082 C67.8647447,60.8896304 64.5898478,60.8492723 56.4420072,63.980018 C53.0095576,65.2989107 49.017007,66.126779 44.4643555,66.463623 C44.5203857,65.8231201 44.154541,64.4190674 43.770752,63.4066162 C48.4501953,63.4628906 57.5982379,57.4186685 59.2041016,55.8898926 C62.2250977,53.013916 60.1670807,47.8324435 57.4274902,45.4643555 C55.3958457,43.7082122 53.9062661,41.4588826 53.8190918,40.2783203 C53.7887151,39.8669422 54.465685,39.8339264 54.6121037,39.6555286 C55.1787109,38.9651693 68.8417969,51.3094544 71.1191406,48.4971751 Z" id="路径" fill="#840010"></path>
                <path d="M64.4848514,42.7237995 C67.2859184,43.276391 77.2848704,41.2566692 78.705221,41.8332698 C80.1255716,42.4098704 84.0224848,51.6306861 84.5301067,52.9344361 C85.0377287,54.238186 85.7114139,59.4524581 85.5904154,60.5682165 L85.4828083,61.4484354 C85.3931092,62.126168 85.2674881,62.9857406 85.1059451,64.0271532 L84.5019833,63.9027721 C84.7861073,62.749199 84.9652965,61.757791 85.0395508,60.9285482 C85.1551107,59.6380208 84.9744466,58.1140951 84.8354492,57.1536458 C84.6964518,56.1931966 83.8264974,53.9042155 82.9034295,52.3641764 C81.9803615,50.8241374 80.1905111,48.6775671 79.1490072,47.748291 C78.1075033,46.819015 75.9353841,46.666748 75.306722,47.4152018 C74.7264185,48.1060822 74.3526147,50.0030231 74.3377129,51.4909812 L74.3847493,54.0960117 C74.413502,56.3058369 74.4239079,59.2270954 74.3553479,59.8817539 L74.2656549,60.4278256 C74.2182305,60.7597533 74.1620414,61.2276605 74.0970874,61.8315472 L69.3762884,60.9249365 L69.2675305,60.90625 C67.8266188,60.6648882 63.9532503,60.7055905 60.7704417,61.8548294 L60.2985899,62.0356326 C60.228633,62.0640609 60.1544151,62.0945474 60.0761498,62.1269744 L60.0498047,61.9053548 C60.0685764,61.2518175 60.3120931,60.6091037 60.7803548,59.9772135 C61.4827474,59.0293783 62.4673665,58.2324219 63.7871908,56.8693848 C65.107015,55.5063477 65.3833822,54.3208008 65.188151,53.2410641 C64.9929199,52.1613275 62.7456868,48.6328125 60.1552734,46.2073814 C57.6774867,43.8874038 54.9683605,42.0822323 54.374886,41.7475363 L54.3072917,41.7111003 C54.0551423,41.584456 53.7016726,41.4020861 53.5073853,41.2076111 C53.382439,41.0825441 53.5623779,40.897583 53.2779236,40.7916565 C53.0882874,40.7210388 52.9095154,40.7416992 52.7416077,40.8536377 C52.5370992,40.7698975 52.2495829,40.618337 52.0187073,40.7273865 C51.8055913,40.8280475 52.3046684,40.2902082 52.9449463,39.7891752 L53.1103821,39.6679077 C53.6332965,39.3101272 54.223185,39.000781 54.9707582,38.4554075 L55.2101753,38.3901486 C56.3425114,38.1548209 61.6837843,42.1712081 64.4848514,42.7237995 Z" id="路径" fill="#560002"></path>
                <path d="M60.1174316,62.5282389 C60.9777832,59.7252604 61.9379069,59.3565267 62.659668,58.5656738 C63.381429,57.774821 65.296875,55.9421387 65.4908854,54.5989583 C65.6848958,53.255778 64.921224,50.8194987 62.7692057,47.9970703 C60.6171875,45.1746419 58.4977214,43.8486328 56.8484701,42.616862 C55.1992188,41.3850911 53.3876953,40.4958496 53.2198893,40.4589844 C53.0520833,40.4221191 52.4983724,40.5428874 52.4846191,40.4589844 C52.4708659,40.3750814 52.597168,39.7360026 53.0581868,39.4586589 C53.5192057,39.1813151 55.6649577,37.8186318 56.2368978,37.9648579 C56.8088379,38.111084 58.840612,39.084554 60.1713639,39.8042806 C61.5021159,40.5240072 66.1416016,42.3393555 68.2509766,42.0004069 C70.3603516,41.6614583 73.7213542,38.9967731 74.4350586,37.9648579 C74.9108615,37.2769144 75.5046658,36.5708822 76.2164714,35.8467611 C77.1432292,36.8574864 77.9080404,37.7952535 78.5109049,38.6600622 C79.4152018,39.9572754 81.1040039,43.6473898 81.4594727,44.4041799 C81.8149414,45.1609701 83.3601074,48.3554688 84.1276855,50.6380208 C84.8952637,52.9205729 85.8280436,56.0701497 85.7912598,58.3791504 C85.7667372,59.9184842 85.5997179,61.8011518 85.2902018,64.0271532 L85.1059451,64.0271532 C85.4428671,61.4117746 85.5478516,59.529107 85.4208984,58.3791504 C85.2304688,56.6542155 84.2511393,53.6026204 83.3490397,52.0569661 C82.4469401,50.5113118 80.4005534,47.8063965 79.3421224,46.8008626 C78.2836914,45.7953288 76.2620443,45.6700033 75.3872884,46.4304199 C74.5125326,47.1908366 74.1991374,48.15389 74.235026,51.0337728 C74.2709147,53.9136556 74.2969564,56.166097 74.235026,58.0168457 C74.1937391,59.2506782 74.0930447,60.5734863 73.9329427,61.9852702 C69.5215929,61.6423882 66.7948676,61.5326606 65.7527669,61.6560872 C64.1896159,61.8412272 60.9081217,62.3851725 60.1174316,62.5282389 Z" id="路径-1259" fill="#A00019"></path>
                <path d="M74.2323101,50.5752751 L74.2683659,54.2029082 C74.2776725,55.6513379 74.2721842,56.9063965 74.235026,58.0168457 C74.1937391,59.2506782 74.0930447,60.5734863 73.9329427,61.9852702 L71.4882878,61.8075195 C68.6851628,61.6203044 66.8296391,61.5642385 65.9217167,61.6393219 L65.7527669,61.6560872 C64.1896159,61.8412272 60.9081217,62.3851725 60.1174316,62.5282389 C60.9299859,59.8809814 61.8315344,59.4050102 62.5372254,58.6940639 L63.5026602,57.6683742 C64.3354442,56.7675333 65.3523065,55.5583729 65.4908854,54.5989583 C65.5031914,54.513761 65.5116444,54.4241658 65.5161343,54.3303531 L65.7934908,54.724722 C66.6532483,55.9143957 67.3930908,56.5121361 69.6146276,55.665799 C72.1122206,54.714293 73.3642261,49.1506584 74.8720669,47.006214 C74.4218292,47.6812255 74.2346114,48.6614987 74.2323101,50.5752751 L74.2323101,50.5752751 Z" id="路径" fill="#95031A"></path>
                <path d="M76.2164714,35.8467611 C77.1432292,36.8574864 77.9080404,37.7952535 78.5109049,38.6600622 C79.0428443,39.4231288 79.8462387,41.0141889 80.4900199,42.3491339 L82.1386447,45.8494783 C82.706986,47.0776559 83.4747292,48.7992286 83.9928933,50.2497259 L84.1276855,50.6380208 C84.8138725,52.6785395 85.632084,55.4119592 85.7716095,57.6183189 C84.578225,52.7157373 82.5030278,49.0647867 79.3918023,46.2887479 C75.8795518,43.1548883 72.3630371,47.2304688 70.1801758,49.6083984 C68.7115257,51.2082924 62.0599241,45.2636867 57.5239258,42.0200195 C56.2404948,41.1022452 55.0121142,40.72808 54.1983762,40.5732628 C53.8462524,40.4295959 53.3826291,40.187466 53.033844,40.0609741 C52.8592904,39.9976698 52.6525662,40.1074553 52.5825215,40.0628005 C52.6659827,39.8502133 52.8158362,39.6044543 53.0581868,39.4586589 L53.7899325,39.0156455 C54.6168753,38.5258152 55.8283691,37.8604107 56.2368978,37.9648579 C56.7271322,38.0901945 58.2898976,38.8233023 59.5644218,39.4834426 L60.1713639,39.8042806 C61.5021159,40.5240072 66.1416016,42.3393555 68.2509766,42.0004069 C70.3603516,41.6614583 73.7213542,38.9967731 74.4350586,37.9648579 C74.9108615,37.2769144 75.5046658,36.5708822 76.2164714,35.8467611 Z" id="路径" fill="#B00A24"></path>
                <path d="M76.2164714,35.8467611 C76.9420884,36.6381216 77.5684271,37.3847564 78.0954876,38.0866655 C77.6578038,38.8204866 77.0373862,39.538784 76.3603991,40.1312652 C74.4544069,41.7993391 74.8861009,42.670795 75.7304642,42.7004035 L75.8479818,42.6992187 C80.2810059,43.321167 81.5977046,45.1036669 82.3555716,46.3173374 C82.9453954,47.6136657 83.6729789,49.2858568 84.1276855,50.6380208 C84.5790351,51.980202 85.0875057,53.6221698 85.4223813,55.216742 L85.0395121,54.0151701 C84.4769005,52.3046872 84.0470547,50.7374942 83.6434326,49.8417969 C82.571167,47.4622803 81.7514648,45.9945068 79.5965337,44.9198532 C77.4416026,43.8451996 75.6708984,43.6726888 74.4145508,44.1671549 L73.6646506,44.473915 C72.8832849,44.788666 72.2337351,44.9706131 71.3056003,44.5614977 L71.0183919,44.4205729 C69.6352539,43.6758982 68.2996419,43.6043294 67.2203776,43.9508464 L66.6420239,44.1357919 C65.497888,44.483159 63.7533645,44.8313888 61.6967773,43.6092122 C59.2545801,42.1578776 57.4936104,40.796875 56.4386997,40.4046224 C55.7436062,40.1461624 54.857781,40.3086498 54.093157,40.5357283 C53.6045532,40.1916809 53.107639,40.0757538 53.0895386,40.0717773 C52.9217326,40.0349121 52.4983724,40.5428874 52.4846191,40.4589844 C52.4801936,40.431986 52.2630648,40.2365701 52.2941284,40.1251526 C52.3596015,39.890317 52.7455149,39.6467588 53.0581868,39.4586589 L53.7899325,39.0156455 C54.6168753,38.5258152 55.8283691,37.8604107 56.2368978,37.9648579 C56.7271322,38.0901945 58.2898976,38.8233023 59.5644218,39.4834426 L60.1713639,39.8042806 C61.5021159,40.5240072 66.1416016,42.3393555 68.2509766,42.0004069 C70.3603516,41.6614583 73.7213542,38.9967731 74.4350586,37.9648579 C74.9108615,37.2769144 75.5046658,36.5708822 76.2164714,35.8467611 Z" id="路径" fill="#C60835"></path>
                <path d="M76.2164714,35.8467611 C76.4551242,36.1070367 76.6830377,36.3624741 76.9002121,36.6130735 L76.389211,37.2851877 C76.2341807,37.491254 76.094413,37.6793575 75.9697853,37.8495252 L75.1614535,38.9878546 C74.2767093,40.199894 72.6070312,42.2343967 71.0641276,43.0449219 C69.2838542,43.9801432 66.5283203,43.9425456 64.5480143,43.1717122 C62.5677083,42.4008789 57.730957,39.5569661 56.8974609,39.3048503 C56.1397372,39.075654 55.0683298,39.4528412 54.5272449,39.827811 L54.3816732,39.9396268 C54.0688477,40.2098165 53.6208259,40.2098165 53.0376078,39.9396268 C52.9760062,39.8244187 52.9275831,39.706028 52.8923387,39.5844549 L52.9720162,39.5173352 L52.9720162,39.5173352 L53.0581868,39.4586589 C53.5192057,39.1813151 55.6649577,37.8186318 56.2368978,37.9648579 C56.7271322,38.0901945 58.2898976,38.8233023 59.5644218,39.4834426 L60.1713639,39.8042806 C61.5021159,40.5240072 66.1416016,42.3393555 68.2509766,42.0004069 C70.3603516,41.6614583 73.7213542,38.9967731 74.4350586,37.9648579 C74.9108615,37.2769144 75.5046658,36.5708822 76.2164714,35.8467611 Z" id="路径" fill="#DA264F"></path>
                <path d="M76.2164714,35.8467611 C76.4203074,36.0690654 76.6163092,36.2878403 76.8044766,36.5030858 C76.7198635,36.6635694 76.6896159,36.7759654 76.7072754,36.842041 C76.7559814,37.0242818 76.4416234,36.9243164 76.3603991,36.9735718 L76.2018661,37.1076584 C75.9552277,37.3290281 75.4931079,37.7703475 75.2550182,38.0545186 L75.1566772,38.1817627 C74.9298706,38.5137329 73.194397,40.3778076 72.3649902,41.0513916 L71.9900625,41.3470804 C71.1971411,41.946872 70.1210414,42.5635114 68.3156738,42.5915527 C66.2094116,42.6242676 64.0932007,42.1104736 62.0203857,41.1338501 L61.0939986,40.6861002 C59.4539762,39.8749523 58.1503578,39.1405546 57.4381714,38.8665771 C56.5964966,38.5427856 56.215271,38.4655151 55.9906616,38.5205078 C55.7660522,38.5755005 56.180481,39.1429443 56.0478516,39.3835449 C55.9152222,39.6241455 55.663208,39.6556955 55.3591919,39.5878296 C55.0551758,39.5199636 55.0302376,39.3752441 54.6121037,39.3835449 C54.1939697,39.3918457 53.9378052,39.4595337 53.7564697,39.5878296 L53.3664122,39.8606596 C53.3312721,39.8840103 53.3009338,39.9033051 53.2774658,39.9168091 C53.2023682,39.960022 52.9859814,40.2018286 52.8049619,40.3165728 L52.6785889,40.3737183 C52.6452163,40.3804805 52.5765991,40.4765625 52.4990116,40.4669226 C52.421424,40.4572827 52.2741481,40.2780375 52.306427,40.1619263 C52.3722112,39.9252927 52.7489192,39.6447108 53.0581868,39.4586589 L53.7899325,39.0156455 C54.6168753,38.5258152 55.8283691,37.8604107 56.2368978,37.9648579 C56.7271322,38.0901945 58.2898976,38.8233023 59.5644218,39.4834426 L60.1713639,39.8042806 C61.5021159,40.5240072 66.1416016,42.3393555 68.2509766,42.0004069 C70.3603516,41.6614583 73.7213542,38.9967731 74.4350586,37.9648579 C74.9108615,37.2769144 75.5046658,36.5708822 76.2164714,35.8467611 Z" id="路径" fill="#461C22"></path>
                <path d="M62.436,61.046 L62.426554,61.0625675 L62.2521118,61.1896114 L61.9394445,61.0474132 C61.84071,60.995024 61.8481731,60.9736579 61.8680748,60.9166817 L61.8739138,60.8272543 L61.92,60.626 L61.9173777,60.5953739 L61.932,60.58 L62.0433588,60.2370272 C62.2108573,59.7717837 62.4342968,59.3379448 62.715515,58.9934404 L64.1285311,57.3492089 L64.2367995,57.2175149 C64.6395331,56.7201736 64.973391,56.2632844 65.2396873,55.8332477 C65.381726,55.6038722 65.5025352,55.3850609 65.6009345,55.1772686 C66.1886653,53.9361434 65.210101,51.1596786 63.3461504,48.4407908 C61.7544632,46.1190454 59.8797392,44.3217289 57.1517379,42.4048019 C55.657517,41.3548346 54.3455107,40.6274879 53.2193939,40.2219007 L52.8058208,40.0848863 L53.1806641,39.7619629 C54.4651457,40.148836 55.7675419,40.6988289 57.4966996,41.913883 C60.27964,43.8694148 62.2053361,45.7155987 63.8410241,48.1015269 C65.8204013,50.988784 66.8563564,53.9280828 66.1432061,55.4340595 C66.0346261,55.6633506 65.9030907,55.9015892 65.7498022,56.1491318 C65.5388536,56.4897886 65.2903319,56.8428867 65.0031704,57.2155944 L64.7030896,57.5951041 C64.3141554,58.0754043 63.2405891,59.299024 63.1803183,59.3728583 C62.9480996,59.6573362 62.7542632,60.0336965 62.6078871,60.4402705 L62.546,60.624 L70.0607731,61.606317 C71.8238903,61.8263181 73.1342658,61.9772136 73.1309379,61.9797187 C73.1971469,61.9298793 73.2762755,61.2195664 73.3053918,60.4459633 L73.3180677,59.6148737 L73.3347129,50.6585875 C73.3606793,48.4661474 73.7186631,46.7149459 74.6944281,45.84902 C75.9838783,44.7047197 77.9608392,44.8551603 79.6502962,46.1650978 C80.2928873,46.6633373 81.627718,48.2225806 82.9331868,50.5940755 C83.381723,51.4088794 84.0222937,52.8384041 84.8548991,54.8826497 C83.7644857,51.9359538 80.9034867,47.7538893 79.4329427,46.6136882 C77.9533281,45.466454 76.1429958,45.3657064 75.0926813,46.2977899 C74.2898506,47.0102482 73.9591458,48.6601664 73.9347113,50.6892556 L73.9166956,59.9303425 C73.9101573,61.2658011 73.8196017,62.2123156 73.4917835,62.4590834 C73.3405115,62.5729545 72.7143518,62.5416114 70.8967148,62.320411 L62.2654063,61.2001081 C62.6660925,61.2356477 62.4168006,61.23031 62.4245356,61.088413 L62.436,61.046 Z" id="路径" fill="#871521" fill-rule="nonzero"></path>
                <path d="M53.1806641,39.7619629 C54.4651457,40.148836 55.7675419,40.6988289 57.4966996,41.913883 C59.0064173,42.9747397 60.2638518,44.0034158 61.3595637,45.1035404 C62.1117385,46.2305294 62.8014808,47.3653306 63.3256909,48.4095287 L63.3461504,48.4407908 C61.7544632,46.1190454 59.8797392,44.3217289 57.1517379,42.4048019 C55.657517,41.3548346 54.3455107,40.6274879 53.2193939,40.2219007 L52.8058208,40.0848863 L53.1806641,39.7619629 Z" id="路径" fill="#911421" fill-rule="nonzero"></path>
                <path d="M68.4426401,44.380653 C66.4798791,45.1203916 65.4521901,45.5698231 65.3595732,45.7289477 C65.2206478,45.9676346 65.4822342,47.6632012 66.069469,48.7174858 C66.6567038,49.7717703 68.3545564,51.2054626 68.7873798,51.1305013 C69.2202032,51.0555399 71.3698368,49.2655983 71.5181885,45.6879883 C71.4965679,45.3312859 70.4713851,44.8955074 68.4426401,44.380653 Z" id="路径-1260" fill="#7A2121"></path>
                <path d="M68.4599288,44.6189616 C66.4971678,45.3587001 65.4694788,45.8081317 65.3768619,45.9672563 C65.2379365,46.2059432 65.4822342,47.6632012 66.069469,48.7174858 C66.6567038,49.7717703 68.3545564,51.2054626 68.7873798,51.1305013 C69.2202032,51.0555399 71.3871254,49.5039068 71.5354771,45.9262969 C71.5138565,45.5695944 70.4886738,45.133816 68.4599288,44.6189616 Z" id="路径-1260" fill="#060304"></path>
                <path d="M68.2686039,45.7443233 C67.1890737,45.8102518 66.300978,46.5975157 66.3679182,47.8898943 C66.4348584,49.1822729 67.4027091,49.9898831 68.6040355,49.9305306 C69.805362,49.8711781 70.5811601,48.9106902 70.5073067,47.7032936 C70.4334532,46.495897 69.348134,45.6783948 68.2686039,45.7443233 Z" id="路径-1261" fill="#C8C4C5"></path>
                <path d="M68.6813354,46.3811646 C68.7377523,46.28243 68.7723389,46.1975708 68.7850952,46.1265869 C68.8042297,46.0201111 68.7024231,45.9378357 68.5636902,45.9324341 C68.4249573,45.9270325 68.3800606,46.1168823 68.4371617,46.2480469 C68.4487734,46.2747198 68.4994031,46.3392079 68.5068665,46.3815308 C68.5361044,46.5473311 68.494618,46.7709011 68.4833374,46.8367615 C68.4691772,46.9194336 68.3631287,47.0700378 68.35849,47.0386353 C68.3538513,47.0072327 68.302063,46.7893066 68.1930847,46.8308105 C68.0841064,46.8723145 67.9526367,46.9926758 68.0033264,47.0989075 C68.0540161,47.2051392 68.0950012,47.1906433 68.0518799,47.2704773 C68.0087585,47.3503113 67.9194641,47.5534973 67.8327942,47.6937561 C67.7893739,47.7640235 67.7522519,47.8509124 67.679718,47.9437561 C67.6557301,47.9744608 67.5094817,48.082769 67.5456543,48.1145325 C67.5818269,48.146296 67.7466736,48.0975952 67.8023987,48.0514832 C67.8581238,48.0053711 68.0740967,47.5456848 68.0918579,47.5113831 C68.1096191,47.4770813 68.1999763,47.631012 68.1695682,47.7555237 C68.1391602,47.8800354 68.1320496,47.9700317 68.0518799,48.0514832 C67.9717102,48.1329346 67.8264465,48.2474365 67.700531,48.3451233 C67.5746155,48.4428101 67.3251648,48.7064819 67.2837219,48.7553711 C67.2422791,48.8042603 66.8807068,49.0021362 66.9703064,49.0165405 C67.059906,49.0309448 67.3379211,49.0624695 67.3535461,49.0165405 C67.3691711,48.9706116 67.4310608,48.8598022 67.4749451,48.8195496 C67.5188293,48.7792969 68.1322632,48.3516541 68.2257385,48.2730103 C68.3192139,48.1943665 68.3920288,48.1437073 68.5636902,48.1923523 C68.7353516,48.2409973 68.9171484,48.2470703 68.9530047,48.2730103 C68.9888611,48.2989502 69.5267029,48.5224915 69.5921936,48.6083984 C69.6576843,48.6943054 69.7371521,48.8590088 69.8556824,48.8195496 C69.9742126,48.7800903 70.2406311,48.6485901 70.1695862,48.6083984 C70.0985413,48.5682068 69.937561,48.6299744 69.8231201,48.5390625 C69.7086792,48.4481506 69.5129089,48.3018188 69.2867432,48.1705322 C69.0605774,48.0392456 68.7601929,47.8976777 68.7056274,47.8249817 C68.651062,47.7522856 68.7124023,47.4988403 68.6582642,47.3824463 C68.604126,47.2660522 68.6545715,47.1176147 68.6582642,46.9369202 C68.6607259,46.8164571 68.6684163,46.6312052 68.6813354,46.3811646 Z" id="路径-1262" fill="#332D2E"></path>
                <polygon id="路径-1263" fill="#332D2E" points="68.2248535 48.4841003 67.9079285 49.26297 67.6646118 49.4579773 68.1179199 49.4579773 68.3125916 49.0426941 68.9665833 49.0427551 69.1331787 48.4841003"></polygon>
                <polygon id="路径-1264" fill="#C8C4C5" points="68.4382611 48.6832275 68.3988953 48.81604 68.8303599 48.81604 68.8303599 48.6832275"></polygon>
                <path d="M52.8641968,39.166687 C52.4316969,39.3577881 52.4197388,39.4149544 52.2906494,39.6181335 C52.1615601,39.8213127 52.1751099,40.2630005 52.3590698,40.3607178 C52.5430298,40.4584351 53.0657349,39.810791 53.4324341,39.5245972 C53.7991333,39.2384033 55.2485962,38.2691868 55.9888306,38.3205566 C56.7290649,38.3719265 57.5750732,38.7635026 59.3040161,39.6051705 C61.032959,40.4468384 63.2110079,41.6640625 64.8962754,42.0321045 C66.581543,42.4001465 69.380249,42.7407227 70.9285278,41.7946167 C72.4768066,40.8485107 74.0424805,39.1531982 75.1558838,37.8320923 C76.2692871,36.5109863 78.1906738,35.4486694 78.4698486,35.2312012 C78.7490234,35.0137329 80.2590942,33.9719426 80.2745972,33.9608248 C80.2901001,33.949707 79.9636363,33.3687134 79.5965337,33.2833252 C79.2294312,33.197937 78.3930054,33.631958 77.6212158,34.1561279 C76.8494263,34.6802979 75.6087646,35.5081787 75.1160889,36.0124512 C74.6234131,36.5167236 72.8016357,38.6223145 72.3641357,39.079895 C71.9266357,39.5374756 70.6383057,40.859314 69.7978516,41.1663818 C68.9573975,41.4734497 66.6433716,41.6625977 65.0079346,41.1826172 C63.3724976,40.7026367 61.4360124,39.8599854 60.005249,39.1304932 C58.5744857,38.401001 57.2332955,37.6732788 56.4386997,37.534668 C55.644104,37.3960571 54.5394375,37.9330444 54.1154524,38.1887817 C53.6914673,38.444519 53.2966967,38.9755859 52.8641968,39.166687 Z" id="路径-1265" fill="#515155"></path>
                <path d="M80.029787,33.5907595 C80.1838375,33.768005 80.2833176,33.9545711 80.2745972,33.9608248 L78.5637088,35.1607342 L78.4698486,35.2312012 C78.1906738,35.4486694 76.2692871,36.5109863 75.1558838,37.8320923 C74.0424805,39.1531982 72.4768066,40.8485107 70.9285278,41.7946167 C69.380249,42.7407227 66.581543,42.4001465 64.8962754,42.0321045 C63.3982598,41.7049561 61.5108861,40.7068489 59.8956719,39.8979559 L59.3040161,39.6051705 C57.5750732,38.7635026 56.7290649,38.3719265 55.9888306,38.3205566 C55.3102824,38.2734676 54.0357853,39.0839546 53.5456294,39.439805 L53.4324341,39.5245972 C53.1798128,39.7217578 52.8066597,40.2040969 52.558075,40.3449097 C52.4458199,40.4084974 52.3237111,40.4496375 52.32318,40.2790222 C52.3227122,40.108407 52.3667921,39.9349852 52.4520264,39.8469849 C52.7454224,39.5440674 53.0801392,39.4398193 53.3425293,39.295105 C53.6049194,39.1503906 53.6473999,38.9814453 53.473938,38.8843994 C53.4390341,38.8648719 53.415802,38.8285545 53.4042824,38.782261 C53.5629806,38.640113 53.7189157,38.4884122 53.8767334,38.3599492 L54.1205935,38.185687 C54.4555842,38.2301287 54.7980285,38.4175962 54.9665552,38.3802098 C55.1862842,38.3314644 55.5202828,37.871122 56.4386997,37.9648579 C57.3571167,38.0585937 59.3468018,39.2379761 61.8032227,40.4065552 C64.2596436,41.5751343 66.5251465,42.0739746 68.9250488,41.8325195 C71.3249512,41.5910645 72.237915,40.1925049 73.1744385,39.2987061 C74.1109619,38.4049072 75.0089111,36.7319336 75.9069824,36.0959473 C76.8050537,35.4599609 78.13297,35.0227852 78.96521,34.4561768 C79.2426233,34.2673073 79.4959336,34.0728563 79.725141,33.8728237 L80.029787,33.5907595 Z" id="路径" fill="#39393B"></path>
                <path d="M11.2206421,58.8967035 C10.9688721,58.9067383 10.8224487,59.0204468 10.5828857,59.4553223 C10.3433228,59.8901978 10,60.758728 10,62 C10,63.241272 9.54150391,64.6497803 12.0528564,66.1414795 C14.564209,67.6331787 19.3625488,69.4490967 21.2666016,69.7962646 C23.1706543,70.1434326 23.6322021,69.9735107 24.2607422,70.1734619 C24.8892822,70.3734131 28.902832,71.1292725 31.6350098,71.4753418 C34.3671875,71.8214111 36.2610474,72 38,72 C39.7389526,72 40.8266602,72 41.9658203,72 C43.1049805,72 48.119873,71.5996094 50.1383057,70.9393311 C52.1567383,70.2790527 52.0217896,70.0039673 52.0172119,69.8914185 C52.0126343,69.7788696 51.8839722,69.649353 52.3562012,69.5963135 C52.6710205,69.5609538 52.9743449,69.5301717 53.2661743,69.5039673 L53.3955078,69.5963135 L54.4081421,69.5039673 L54.4980469,69.3820801 C55.9563395,69.3645426 56.875061,69.3645426 57.2542114,69.3820801 C57.822937,69.4083862 58.0153809,69.2874756 58.2564697,69.791626 C58.4975586,70.2957764 62.1739502,72 65.9921875,72 C69.8104248,72 73.5594482,72 76.0129395,72 C78.4664307,72 82.3967027,71.9090576 83.9034295,70.9393311 C85.4101563,69.9696045 86.0460205,68.3130493 86.1454468,66.0006714 C86.2936401,64.7124634 86.001709,63.2442017 86,62.9307251 C85.998291,62.6172485 86.0375977,61.5098877 86,61.3547363 C85.9624023,61.199585 85.8638306,62.4241333 85.6875,62.7855225 C85.5699463,63.0264486 85.212972,63.2230225 84.6165771,63.3752441 C75.7566373,62.5817871 70.0893207,62.1233724 67.6146276,62 C63.9025879,61.8149414 63.1704102,61.781113 60.2490234,64.0271532 C57.3276367,66.2731934 52.3037109,67.583252 47.3391113,67.7043457 C42.3745117,67.8254395 28.1187744,66.4376221 23.21521,64.8670654 C18.3116455,63.2965088 16.7176514,62.3934326 15.2919922,61.6993408 C13.866333,61.005249 12.5811157,60.2990112 12.140564,60.0205078 C11.7000122,59.7420044 11.2894897,59.4179687 11.2206421,58.8967035 Z" id="路径-1266" fill="#0F0807"></path>
                <path d="M73.5322349,63.2664411 L75.1791589,63.2557738 C76.2893997,63.2550452 77.2564931,63.3036806 77.9206543,63.6859131 C78.5187094,64.0301008 78.7453577,64.7681121 79.0480957,65.5542918 C79.5581055,66.878735 78.7388509,67.4003106 76.590332,67.1190186 L63.3028989,66.8795322 C62.3487432,66.8663755 61.5878688,66.868033 60.6431789,66.8935791 L59.2976074,66.9403014 C56.619873,67.0493041 61.9008789,67.6234131 63.6322021,67.7883499 C64.7864176,67.8983078 66.7976074,67.8875152 69.6657715,67.7559723 L65.2541431,68.617667 C64.4700781,68.775851 64.0289185,68.8711791 63.9306641,68.9036515 C63.6031494,69.0118929 60.8125,68.0009857 59.041626,67.6855469 C57.406973,67.3943725 56.5058168,67.5384025 56.0386009,67.7376166 L55.9306641,67.7883499 C55.5397061,67.9910046 55.2338948,68.1946191 55.5810931,68.2212523 L56.3188067,68.2293886 C57.2351377,68.2526386 58.8084905,68.3385573 59.7830811,68.5474854 L60.3967006,68.6917469 C61.3011549,68.9216515 62.0248779,69.179406 61.0984791,69.0201122 L60.4909668,68.9036515 C58.383667,68.472168 55.4498291,68.508667 54.9665552,68.4649658 L54.6676572,68.4225205 C54.3181111,68.3549336 53.9992209,68.2271255 54.0634445,68.07075 L54.1154524,68.0020752 C54.1931296,67.9316926 53.7050827,66.8355347 56.04257,66.7476142 L58.1373437,66.7203868 C59.9827688,66.6699869 61.3106203,66.5449568 60.5492592,66.4760805 L59.0399989,66.3620485 C56.8386041,66.1651118 57.0359293,65.9911145 57.1636963,65.9718018 L57.4303469,65.9425199 C57.9893851,65.8953414 59.0970153,65.8628758 60.3855709,65.9439684 L60.7771977,65.9718018 C61.2542486,66.0096436 61.8800971,66.043341 62.625055,66.0751154 L72.147184,66.3870448 C74.7467957,66.4904082 75.3541463,66.5780973 76.3289795,66.6685791 C77.108846,66.7409646 77.4853923,66.1800922 77.4586182,64.9859619 C76.2905099,65.2582833 75.2805749,65.4121019 74.4288131,65.4474176 L73.8382322,65.4544301 L73.8382322,65.4544301 L61.1263428,65.4483517 C58.5308838,65.4523675 58.6691895,65.1776123 59.2976074,64.9859619 C59.8362514,64.8216902 60.7291484,64.8735576 61.5192928,64.8606729 L62.2309838,64.8368218 C63.5704576,64.8094046 67.6259302,64.8408247 69.7573673,64.8466455 L70.7367857,64.8464533 L72.8368475,64.8183372 C74.63809,64.7826968 76.5364268,64.7195538 77.1367188,64.6580811 C78.0402832,64.5655518 77.5245361,64.1529541 77.1367188,64.0271532 C77.0074463,63.9852196 76.4443631,63.9704355 75.6875633,63.9696293 L64.5913057,64.0885668 C63.1926294,64.0934679 62.1238229,64.0808431 62.1154785,64.0271532 C62.0942383,63.890488 63.2913818,63.3999023 64.2028809,63.4052734 L65.6925718,63.488133 C66.3204996,63.5187211 67.1219601,63.5419982 68.09729,63.5239258 L69.0844992,63.4923953 C70.6325887,63.4266811 72.4164643,63.2914076 73.5322349,63.2664411 L73.5322349,63.2664411 Z" id="路径" fill="#292624"></path>
                <path d="M86.10826,66.5760987 C85.961598,68.2480698 85.4888783,69.5399576 84.5434367,70.4381645 C83.5184739,70.8244979 82.384927,71.0592255 81.1429443,71.1433105 C78.7304687,71.3066406 71.6981201,71.2106934 68.555542,71.0178223 C65.4129639,70.8249512 62.409668,70.262207 63.0789795,69.9001465 C63.748291,69.5380859 65.585083,69.1417236 66.8687744,68.8911133 C68.1524658,68.6405029 69.3632813,68.3234863 70.5517578,68.3105469 C71.7402344,68.2976074 73.7214355,68.9782715 75.8167725,69.2197266 C77.9121094,69.4611816 81.0109863,69.763916 82.5968018,69.6368408 C84.1826172,69.5097656 85.0321045,68.6958008 85.6563721,67.8787842 C85.8228434,67.6609131 85.9703651,67.1958545 86.0974557,66.626287 Z" id="形状结合" fill="#261F21"></path>
                <path d="M10.7143555,63.0283203 C11.0822754,64.0734863 18.427002,66.9594727 21.4331055,67.5488281 L22.3350769,67.7144243 C25.7118126,68.3029423 32.5661526,69.2270327 36.1769124,69.5946502 L37.6542639,69.7302457 C41.6396538,70.0611498 48.3060634,70.1928711 47.2480469,70.5175781 C46.0993432,70.8701172 41.684082,71.276123 41.1765137,71.295166 L40.5643528,71.2721178 C39.486611,71.2102381 37.2823057,71.0381115 35.4831349,70.884029 L32.9272262,70.6558843 C30.3231759,70.4344256 25.2922635,70.0628255 22.8178711,69.6455078 C22.4003724,69.7819053 20.8776256,69.5958776 18.9651881,69.1529792 C16.7377305,68.4089138 13.8255449,67.1944253 12.0528564,66.1414795 C9.66109212,64.7208136 9.96306806,63.3756043 9.99725117,62.1784532 L10,62 C10,60.8966471 10.2712674,60.0878062 10.4998017,59.6162585 L10.5828857,59.4553223 C10.6260597,59.3769491 10.6662086,59.3090072 10.7044942,59.2502234 C10.4934755,60.5455401 10.4526008,62.2847425 10.7143555,63.0283203 Z" id="路径" fill="#2B2728"></path>
                <path d="M11.2367401,58.9647422 L11.2701585,59.1084699 C11.3302727,59.2841878 11.4322762,59.4351576 11.5596744,59.569408 C11.6907621,59.7305813 11.8727771,59.8908449 12.1434326,60.034668 L12.2678916,60.0987902 L12.6598465,60.3262191 C13.1994637,60.6312341 14.0095391,61.0640655 14.9040187,61.5084982 L15.6685015,61.8848123 L15.6685015,61.8848123 C15.6551449,61.9088131 15.6096707,61.9122125 15.5481567,61.8979492 C15.2965088,61.8395996 13.4825439,61.0202637 12.7269897,60.6048584 C11.9714355,60.1894531 11.5460205,59.8911743 11.1619263,59.7169189 C10.777832,59.5426636 10.4868164,60.0302841 10.378479,60.8117119 L10.3401301,61.1403384 C10.2513951,62.0836486 10.2718219,63.8625847 11.6531372,64.734436 C13.2186279,65.7225342 14.1130371,66.8467407 12.7785034,66.3453369 L11.7477365,65.9506267 L11.7477365,65.9506267 C10.1505925,64.9028525 9.95822485,63.8991059 9.96758423,62.9682056 L10,62 C10,60.758728 10.3433228,59.8901978 10.5828857,59.4553223 C10.8224487,59.0204468 10.9688721,58.9067383 11.2206421,58.8967035 C11.2180136,58.918685 11.2273199,58.94151 11.2367401,58.9647422 Z" id="路径" fill="#4A4545"></path>
                <path d="M19.2709057,68.8432093 L19.4215088,68.8837891 C21.0249023,69.291748 22.2727051,69.5152588 22.5222168,69.0858154 L22.6833945,68.7887388 C22.858944,68.4356448 22.9681396,68.0810411 22.7733154,67.9481201 L22.6146966,67.838015 C22.3035678,67.6043652 21.9928662,67.1985044 24.4631348,67.2954624 C27.2702581,67.405642 28.9827028,67.9157239 28.7083263,68.2563816 L28.6555176,68.303833 C28.2652832,68.5747314 27.947002,68.9166455 27.6953613,69.2148252 L27.3756895,69.5992624 C27.1356066,69.8854947 26.9397176,70.1659342 27.5379639,70.2357178 L30.4789533,70.5269328 C32.7089289,70.7332521 35.4398843,70.9560759 35.8918168,70.8708496 C36.6342773,70.730835 36.1347367,69.8691406 36.0922852,69.7431641 L36.0513795,69.7141741 C35.6793438,69.5311166 33.0018374,68.8577729 36.6317869,68.8794789 L38.6747754,68.9219933 C42.5654869,69.0334644 46.1906433,69.2888641 45.4401855,69.4284668 L43.6515493,69.7208331 C42.8542206,69.8618345 42.0922006,70.0341233 41.904541,70.2357178 L41.7150992,70.4431746 C41.3845317,70.8153619 41.0322062,71.282959 41.4440918,71.295166 L41.8871192,71.2961401 C42.837709,71.2845066 44.9118365,71.1993767 46.7585449,70.8708496 C49.0009766,70.4719238 49.4943848,70.0577393 51.1765137,69.4848633 C51.6956893,69.3080497 51.9504466,69.4253184 52.0360453,69.6888487 C52.0011292,69.7189039 51.9957282,69.7525159 51.9994025,69.7871294 L52.0204336,69.93526 C52.0251932,70.0698529 51.932468,70.352417 50.1383057,70.9393311 C48.2261063,71.5648579 43.6245635,71.9571337 42.1768941,71.9966931 L38,72 C36.419134,72 34.7102454,71.8524059 32.3598779,71.5655636 L31.6350098,71.4753418 C29.0270219,71.1450029 25.2515029,70.4412809 24.3669954,70.204083 L24.2607422,70.1734619 C23.6322021,69.9735107 23.1706543,70.1434326 21.2666016,69.7962646 C19.4683295,69.4683838 15.0884249,67.8304142 12.4917026,66.3927906 L11.9505253,66.0797409 L11.9505253,66.0797409 L14.6990977,67.1740192 C16.9901383,68.0729897 18.5133981,68.6293697 19.2709057,68.8432093 L19.2709057,68.8432093 Z" id="路径" fill="#0F0807"></path>
                <path d="M15.6685015,61.7982788 C15.3236029,62.4370117 15.4549459,63.2664897 16.0625305,64.2867126 C16.9739075,65.8170471 19.5959778,66.6512756 20.3303833,66.8909912 C21.0647888,67.1307068 22.7436829,67.5722351 22.9584351,67.6381531 C23.1731873,67.704071 23.2510376,68.0523071 23.1188354,68.3719482 C22.9866333,68.6915894 22.8534241,69.0604248 22.7730408,69.1586304 C22.6926575,69.2568359 22.7210999,69.4519958 22.8475952,69.5778809 C22.9740906,69.7037659 23.2519226,69.7952271 23.5509338,69.7840881 C23.8499451,69.7729492 24.346344,69.8480225 24.5770569,69.9431152 C24.8077698,70.038208 25.4499512,70.2114563 25.8363037,70.1849976 C26.2226563,70.1585388 26.6357422,69.9012146 27.0994263,69.4891357 C27.5631104,69.0770569 28.0128174,68.3221436 28.1741943,68.316803 C28.3355713,68.3114624 30.2230835,68.4135742 32.6257935,68.6625977 C35.0285034,68.9116211 36.0255737,68.9958496 36.2599487,69.1586304 C36.4943237,69.3214111 36.5294189,69.6250916 36.5411682,69.8532715 C36.5529175,70.0814514 36.7179565,71.0150146 36.8807373,71.1887817 C37.0435181,71.3625488 37.3555603,71.3916931 37.7272034,71.3189697 C38.0988464,71.2462463 38.3427124,71.1095886 38.3939514,71.1384583 C38.4451904,71.1673279 38.8597412,71.3352661 39.1740112,71.3841248 C39.4882812,71.4329834 39.8108215,71.462616 39.9642639,71.3841248 C40.1177063,71.3056335 40.963562,70.5366211 41.2727661,70.1744385 C41.5819702,69.8122559 41.7557678,69.6419067 41.8329468,69.6304016 C41.9101257,69.6188965 43.8935547,69.7648926 46.0172729,69.803772 C48.1409912,69.8426514 50.868927,69.6936646 51.4251709,69.5778809 C51.9814148,69.4620972 52.2618103,69.3937683 52.5117493,69.2868652 C52.7616882,69.1799622 55.6362305,67.6796231 57.2685547,66.6984253 C58.9008789,65.7172274 62.4335327,63.3948364 63.1746216,63.1104736 C63.9157104,62.8261108 65.2218018,62.3040161 67.3103638,62.6918945 C69.3989258,63.0797729 73.2316284,63.9976196 74.2625732,64.2666626 C75.2935181,64.5357056 76.0124207,64.7178955 76.0358582,64.7738953 C76.0592957,64.829895 76.4110718,66.3612976 76.3814392,66.3874817 C76.3518066,66.4136658 74.6617126,66.9512939 74.0002747,67.0263062 C73.3388367,67.1013184 71.8609314,67.4650574 71.6959839,67.5108948 C71.5310364,67.5567322 71.9031982,67.677388 72.7186279,67.7951965 C73.5340576,67.9130051 76.461853,68.5616455 77.2900391,68.7572632 C78.1182251,68.9528809 79.4603882,69.1535034 79.8508911,69.1586304 C80.241394,69.1637573 81.6343384,69.0089111 82.4726562,68.7572632 C83.3109741,68.5056152 84.4913534,67.68927 84.8548991,67.2609253 C85.2184448,66.8325806 85.387146,66.2412952 85.5089722,66.1626093 C85.6307983,66.0839233 85.729465,66.1463013 85.7923143,65.9172363 C85.8551636,65.6881714 86.0268555,64.2669678 86,63.9384155 C85.9731445,63.6098633 85.6002808,63.0231934 85.5089722,62.9644165 C85.4176636,62.9056396 81.1036377,62.2075806 79.9520874,62.0010376 C78.8005371,61.7944946 74.9277344,61.3324585 74.1646118,61.1862183 C73.4014893,61.039978 68.1618652,59.6472778 67.1269531,59.4660645 C66.092041,59.2848511 63.9049072,59.2141724 61.5194092,60.0770264 C59.1339111,60.9398804 57.7717476,61.8473511 56.4386997,62.3036499 C55.1056519,62.7599487 50.7929077,64.1890869 49.6841431,64.5196533 C48.5753784,64.8502197 43.9490356,65.6818848 41.9984741,65.6531982 C40.0479126,65.6245117 40.2833252,65.4987793 40.3280029,65.0512085 C40.3726807,64.6036377 40.3833008,63.6763916 40.2437744,63.1104736 C40.104248,62.5445557 39.1124878,61.4581299 38.2936401,60.7678223 C37.4747925,60.0775146 36.531189,59.4102783 35.7889404,59.6050415 C35.0466919,59.7998047 34.8203125,60.3880005 34.7186279,61.0286865 C34.6169434,61.6693726 34.468811,62.15625 33.8831177,62.6918945 C33.2974243,63.2275391 32.4044783,63.8530884 31.9932853,64.1585083 C31.5820923,64.4639282 30.9960938,64.9522705 30.9093628,65.0512085 C30.8226318,65.1501465 28.9816284,65.1490479 27.7677002,65.1464844 C26.553772,65.1439209 25.3831177,65.2312012 25.3904419,65.135498 C25.3977661,65.0397949 26.5799561,63.9120483 27.2596436,63.2974243 C27.9393311,62.6828003 29.1265869,61.5922852 29.3571777,61.1862183 C29.5877686,60.7801514 29.4317017,60.3268433 28.5219727,60.1871948 C27.6122437,60.0475464 26.4280396,60.3748779 25.723938,60.5688477 C25.0198364,60.7628174 23.6177979,61.1751709 22.2912598,61.5910645 C20.9647217,62.006958 19.5180969,62.5916443 18.8034058,62.6165466 C18.0887146,62.641449 17.5073853,62.5122375 16.9301453,62.3041077 C16.5453186,62.1653544 16.1247707,61.9967448 15.6685015,61.7982788 Z" id="路径-1268" fill="#D2CDCE"></path>
                <path d="M50.1411743,65.7791748 L49.4403649,66.1188793 C46.7462334,67.3957629 42.8242849,68.9682007 42.348999,69.227356 C42.1121353,69.3565087 41.9450963,69.4905528 41.8478821,69.6294881 C41.7864726,69.6377672 41.6887594,69.7162376 41.5388245,69.8749447 L41.2727661,70.1744385 C40.963562,70.5366211 40.1177063,71.3056335 39.9642639,71.3841248 C39.8108215,71.462616 39.4882813,71.4329834 39.1740112,71.3841248 C38.8597412,71.3352661 38.4451904,71.1673279 38.3939514,71.1384583 C38.3427124,71.1095886 38.0988464,71.2462463 37.7272034,71.3189697 C37.3555603,71.3916931 37.0435181,71.3625488 36.8807373,71.1887817 C36.7412109,71.0398385 36.6000254,70.3326777 36.5551352,69.989978 L36.5411682,69.8532715 C36.5294189,69.6250916 36.4943237,69.3214111 36.2599487,69.1586304 C36.2179141,69.129436 36.1513469,69.1027683 36.056538,69.0772235 C36.3029436,69.0345274 36.5088763,68.9329747 36.6748047,68.776062 L37.4043748,68.0363821 C38.2155525,67.1978498 39.371303,65.9872611 39.645874,65.7791748 C39.7708574,65.684455 39.995975,65.5696231 40.3212269,65.4346792 C40.4193667,65.5802179 40.7879786,65.6353957 41.9984741,65.6531982 C43.9490356,65.6818848 48.5753784,64.8502197 49.6841431,64.5196533 L50.2380389,64.3482411 C51.824536,63.847003 55.2722828,62.7029114 56.4386997,62.3036499 C56.9994952,62.1116911 57.5654434,61.8398851 58.2105661,61.5251444 C56.2812365,62.6647743 52.3743416,64.6683568 50.1411743,65.7791748 Z M25.255029,65.0855365 L25.480484,65.0130396 L25.4017817,65.1109905 C25.3947098,65.1220438 25.39084,65.1302957 25.3904419,65.135498 C25.3836811,65.2238394 26.3806416,65.1562659 27.4888476,65.1473635 L29.1778659,65.1443554 C29.9004798,65.1386911 30.5636782,65.1228307 30.8105895,65.0820023 C30.8155511,65.3944861 30.704133,65.7980145 30.2163204,66.2464064 L29.4694829,66.9329301 C28.8574164,67.4998196 28.2384094,68.0928716 28.0733643,68.3574222 L28.0566192,68.389949 C27.8457799,68.5899841 27.4772429,69.1533678 27.0994263,69.4891357 C26.6357422,69.9012146 26.2226563,70.1585388 25.8363037,70.1849976 C25.5143433,70.2070465 25.0147239,70.09041 24.723613,69.9958882 L24.5770569,69.9431152 C24.3924866,69.867041 24.0378772,69.8037793 23.7503225,69.7872207 L23.5509338,69.7840881 C23.2519226,69.7952271 22.9740906,69.7037659 22.8475952,69.5778809 C22.7463989,69.4771729 22.7079565,69.3321289 22.7377837,69.2278584 L22.7730408,69.1586304 C22.8534241,69.0604248 22.9866333,68.6915894 23.1188354,68.3719482 C23.1963468,68.1845396 23.2016508,67.9873012 23.1494908,67.8428973 L23.4115601,67.3922119 C23.6835327,66.920715 24.5460205,65.6203063 24.7901611,65.3392334 C24.8624991,65.2559525 25.017455,65.1713869 25.255029,65.0855365 L25.255029,65.0855365 Z M75.603003,61.5891414 L74.3012277,61.210377 L75.6700338,61.4060571 C76.9890811,61.5833137 78.7692717,61.809901 79.6818508,61.9556333 L85.2328374,62.9033835 C85.3967061,62.9345765 85.4959281,62.9560198 85.5089722,62.9644165 C85.6002808,63.0231934 85.9731445,63.6098633 86,63.9384155 C86.0268555,64.2669678 85.8551636,65.6881714 85.7923143,65.9172363 C85.729465,66.1463013 85.6307983,66.0839233 85.5089722,66.1626093 L85.5268501,66.1513639 C85.3782277,65.8171887 85.2265978,65.5828513 85.0719604,65.4483517 C84.7001953,65.125 83.2463989,64.2064819 81.911499,63.6193237 C81.3893176,63.3896413 80.4443819,63.0733159 79.4672083,62.7658952 L75.603003,61.5891414 L75.603003,61.5891414 Z" id="形状" fill="#C4C0C7"></path>
                <path d="M36.7909911,68.702033 C37.1589355,69.1790771 37.1687623,69.9887457 37.9420166,69.786377 L38.3301787,69.6644113 C38.976017,69.4373654 39.5980799,69.1457969 39.9221191,69.6046143 C40.1398577,69.9129172 41.0696822,69.6859071 42.1551171,69.3455337 C42.0169271,69.4385539 41.9155094,69.5328375 41.8478821,69.6294881 C41.7864726,69.6377672 41.6887594,69.7162376 41.5388245,69.8749447 L41.2727661,70.1744385 C40.963562,70.5366211 40.1177063,71.3056335 39.9642639,71.3841248 C39.8108215,71.462616 39.4882812,71.4329834 39.1740112,71.3841248 C38.8597412,71.3352661 38.4451904,71.1673279 38.3939514,71.1384583 C38.3427124,71.1095886 38.0988464,71.2462463 37.7272034,71.3189697 C37.3555603,71.3916931 37.0435181,71.3625488 36.8807373,71.1887817 C36.7412109,71.0398385 36.6000254,70.3326777 36.5551352,69.989978 L36.5411682,69.8532715 C36.5294189,69.6250916 36.4943237,69.3214111 36.2599487,69.1586304 C36.2179141,69.129436 36.1513469,69.1027683 36.056538,69.0772235 C36.3029436,69.0345274 36.5088763,68.9329747 36.6748047,68.776062 L36.7716977,68.6813642 L36.7909911,68.702033 L36.7909911,68.702033 Z M23.6547825,66.9947949 L23.6481934,66.9212646 C23.6640138,67.3045131 23.7534384,67.688228 23.9164674,68.0724095 C24.1406321,68.600659 25.2530481,67.9560048 25.6729578,68.3908045 L25.7691214,68.5378418 C25.9258705,68.9003329 26.6490811,68.8934112 27.9387531,68.5170766 L27.4686527,69.0993834 C27.350273,69.2399998 27.2253652,69.3772131 27.0994263,69.4891357 C26.6357422,69.9012146 26.2226562,70.1585388 25.8363037,70.1849976 C25.5143433,70.2070465 25.0147239,70.09041 24.723613,69.9958882 L24.5770569,69.9431152 C24.3924866,69.867041 24.0378772,69.8037793 23.7503225,69.7872207 L23.5509338,69.7840881 C23.2519226,69.7952271 22.9740906,69.7037659 22.8475952,69.5778809 C22.7463989,69.4771729 22.7079565,69.3321289 22.7377837,69.2278584 L22.7730408,69.1586304 C22.8534241,69.0604248 22.9866333,68.6915894 23.1188354,68.3719482 C23.1963468,68.1845396 23.2016508,67.9873012 23.1494908,67.8428973 L23.5601181,67.1457983 C23.5896984,67.0981081 23.6213985,67.0475515 23.6547825,66.9947949 Z" id="形状" fill="#AFA8B3"></path>
                <path d="M30.8105895,65.0820023 C30.8155511,65.3944861 30.704133,65.7980145 30.2163204,66.2464064 L29.4694829,66.9329301 C29.2921552,67.0971691 29.114245,67.2636042 28.9469605,67.4236104 C26.9408722,66.9502611 24.9921512,66.0480287 25.6320801,65.7282715 C26.1676955,65.4606372 27.6280185,65.273348 28.8750139,65.1439398 L29.1778659,65.1443554 L30.0461098,65.1302917 C30.3924747,65.1205105 30.6694973,65.1053328 30.8105895,65.0820023 Z M58.2105661,61.5251444 C56.3248865,62.6389909 52.5501119,64.5781392 50.2952746,65.7024293 C48.1370457,66.3621206 46.080459,66.8624074 44.5446777,67.020752 L43.0911037,67.1620498 C40.9735811,67.3385806 39.4851404,67.2471121 40.242367,65.7364375 L40.3808471,65.4830851 L40.3808471,65.4830851 C40.528276,65.5938105 40.9438757,65.6376885 41.9984741,65.6531982 C43.9490356,65.6818848 48.5753784,64.8502197 49.6841431,64.5196533 L50.2380389,64.3482411 L52.9773152,63.4588013 C54.3607278,63.0031586 55.7721758,62.5317993 56.4386997,62.3036499 C56.9994952,62.1116911 57.5654434,61.8398851 58.2105661,61.5251444 Z M74.3012277,61.210377 L75.6700338,61.4060571 L78.9595114,61.8479286 C79.2334151,61.8868706 79.4790555,61.9232484 79.6818508,61.9556333 L85.2328374,62.9033835 L85.5081242,62.9639176 L85.5081242,62.9639176 C84.7136161,63.1963188 82.3352085,63.1874989 80.3418182,63.0477599 L79.4672083,62.7658952 L79.4672083,62.7658952 L75.603003,61.5891414 L74.3012277,61.210377 Z" id="形状" fill="#D0CCD2"></path>
                <path d="M38.1738892,70.8609619 C38.5354869,70.6963043 38.9080599,70.0082681 38.9338892,70.2499662 L38.9320679,70.3400269 C38.8882446,70.8012085 39.4048462,71.1602173 39.8109391,71.1552124 C39.9869126,71.1530436 40.2800722,71.0251128 40.5909404,70.8574066 L40.2022857,71.2025808 C40.0906447,71.2967975 40.0041091,71.3637425 39.9642639,71.3841248 C39.8108215,71.462616 39.4882812,71.4329834 39.1740112,71.3841248 C38.8597412,71.3352661 38.4451904,71.1673279 38.3939514,71.1384583 C38.3427124,71.1095886 38.0988464,71.2462463 37.7272034,71.3189697 C37.3555603,71.3916931 37.0435181,71.3625488 36.8807373,71.1887817 C36.8505694,71.1565778 36.820324,71.0982775 36.7909911,71.0232072 L36.9989624,71.0898437 L36.9989624,71.0898437 C37.3334961,71.2091675 37.7794189,71.0405884 38.1738892,70.8609619 Z M24.0128737,69.3574222 L24.2480847,69.2658705 C24.4385483,69.2017478 24.6143167,69.1824535 24.7691553,69.3160066 L24.8594971,69.4153442 C25.0934448,69.7337646 25.4725342,69.9314575 25.9279175,69.9100342 C26.1900641,69.8977016 26.5386776,69.8039383 26.8999737,69.6574612 L26.6517244,69.8468108 C26.3633219,70.0471124 26.0938721,70.1673584 25.8363037,70.1849976 C25.5143433,70.2070465 25.0147239,70.09041 24.723613,69.9958882 L24.5770569,69.9431152 C24.3924866,69.867041 24.0378772,69.8037793 23.7503225,69.7872207 L23.5509338,69.7840881 C23.2519226,69.7952271 22.9740906,69.7037659 22.8475952,69.5778809 C22.7756334,69.5062663 22.7354049,69.4122319 22.7288932,69.3263827 C22.8586176,69.4356775 22.9528086,69.5002557 23.0145264,69.5209961 C23.1941528,69.5813599 23.690918,69.4897461 24.0128737,69.3574222 Z" id="形状" fill="#827A87"></path>
                <path d="M56.4386997,62.6827357 L55.5082127,63.2652301 C53.3627434,64.6427218 52.9993287,65.1684068 54.4179688,64.8422852 C56.2368553,64.4241535 59.7733108,63.8457922 62.4328524,63.5019875 C61.0959767,64.2704759 58.5742826,65.913546 57.2685547,66.6984253 L56.4176617,67.1945022 C54.8953979,68.0609142 52.9794356,69.0626723 52.5724607,69.2586848 L52.5117493,69.2868652 C52.2618103,69.3937683 51.9814148,69.4620972 51.4251709,69.5778809 L51.1202031,69.6224244 C50.262371,69.7204365 48.1999498,69.8221253 46.4218731,69.8089143 L45.2204151,69.7843741 C44.4374962,69.7608942 43.7071683,69.7267828 43.1264027,69.6965704 L41.9616162,69.6340039 C42.0637842,69.4823145 42.1984863,69.3600098 42.3657227,69.2670898 L42.9055272,69.0116956 C43.9412118,68.5414986 46.1760332,67.5681807 47.8735973,66.8000133 L49.0841064,66.2426758 C50.4002686,65.6207682 52.8517996,64.4341215 56.4386997,62.6827357 Z M37.7196045,67.5379639 C38.3756534,67.4430291 37.7642852,67.997186 37.1728413,68.4885979 L36.6700532,68.9036515 C36.5080913,69.0401497 36.3877632,69.1277761 36.2871664,69.1875908 L36.2599487,69.1586304 C36.0988159,69.0467186 35.5771904,68.971935 34.4861467,68.8552037 L31.8011423,68.5807429 C29.8028541,68.3910351 28.3165858,68.3120907 28.1741943,68.316803 L28.2164307,68.1478271 C28.3515625,67.7109375 28.7714844,67.6888428 29.6540527,67.7883499 L30.0214947,67.8077447 C31.4794556,67.843661 35.916822,67.6878217 37.3582761,67.5740201 L37.7196045,67.5379639 Z M74.5979896,61.2566568 L75.4037831,61.3700809 L76.5098402,61.6732955 C77.5447587,61.9636849 78.3666083,62.2156323 78.9785156,62.4294434 L80.0364885,62.8125857 C83.3741193,64.0681436 84.8538483,65.1143261 85.4221971,66.1448336 L85.4596921,66.2164347 C85.3408756,66.3896722 85.1720137,66.8872876 84.8548991,67.2609253 C84.4913534,67.68927 83.3109741,68.5056152 82.4726562,68.7572632 C81.6343384,69.0089111 80.241394,69.1637573 79.8508911,69.1586304 L79.4656529,69.1284504 C78.9715957,69.0737086 78.1993327,68.9518824 77.5831268,68.8223794 L75.4659457,68.3479618 C74.5426382,68.1467975 73.5331759,67.9348624 72.9640555,67.8351383 L72.283313,67.7247911 C71.7758179,67.6321184 71.5640259,67.5475647 71.6959839,67.5108948 L72.2943778,67.3639498 C72.7516045,67.2565917 73.3690822,67.120282 73.8012394,67.0534668 L74.0002747,67.0263062 C74.6617126,66.9512939 76.3518066,66.4136658 76.3814392,66.3874817 C76.403224,66.3682321 76.2188699,65.535461 76.1103826,65.0734665 C76.62529,65.3999316 76.6369629,66.1553955 76.5256348,66.5412598 C76.4294944,66.874483 75.6611938,66.888916 75.2634277,67.3083496 C74.8656616,67.7277832 78.0671506,68.4547469 79.4130859,68.6503906 C80.7590213,68.8460344 83.6877441,67.669324 83.1308594,66.2426758 C82.7993803,65.3934804 80.3535664,63.9131474 75.7934176,61.8016768 L74.5979896,61.2566568 Z M16.4156356,64.7575749 C17.2548784,65.2291773 18.132893,65.4039908 18.7288818,65.5542918 C19.6779785,65.7936422 22.5395508,65.9016113 23.6195183,66.5808085 C24.633515,67.2185162 23.3926818,67.7195619 23.1722342,67.9466253 C23.1509736,67.792487 23.0748032,67.6738722 22.9584351,67.6381531 L20.7651424,67.0249935 L20.3303833,66.8909912 C19.6938985,66.6832377 17.6395677,66.0289389 16.5097888,64.8619616 L16.4156356,64.7575749 Z M35.7889404,59.6050415 C36.531189,59.4102783 37.4747925,60.0775146 38.2936401,60.7678223 C39.1124878,61.4581299 40.104248,62.5445557 40.2437744,63.1104736 C40.3587218,63.5766993 40.3717629,64.2881626 40.347809,64.7746168 C40.1481327,64.5727313 40.0931603,64.140754 40.0123291,63.8087158 C39.8856764,63.2884521 38.6949463,63.171875 37.7196045,63.2557738 C36.7442627,63.3396725 32.6315918,64.2692871 31.0880127,65.4483517 L30.7254213,65.718231 C29.7039432,66.4523613 30.4795033,65.5999396 30.8153076,65.2045898 L30.8561141,65.1383792 L30.8693319,65.0696915 L30.9093628,65.0512085 L31.0574913,64.9129343 C31.2781677,64.719532 31.6848905,64.3875732 31.9932853,64.1585083 L32.7253094,63.6217045 C33.1134264,63.3334164 33.5484358,62.9979771 33.8831177,62.6918945 C34.3955994,62.2232056 34.5730734,61.7918539 34.6775551,61.2621297 L34.7186279,61.0286865 C34.8203125,60.3880005 35.0466919,59.7998047 35.7889404,59.6050415 Z M28.5219727,60.1871948 C29.4317017,60.3268433 29.5877686,60.7801514 29.3571777,61.1862183 C29.1727051,61.5110718 28.3759668,62.2739722 27.7166504,62.8808257 L26.7274463,63.7877714 C26.4262146,63.6926854 26.246879,63.6136164 26.1876221,63.5501709 C25.9648438,63.3116455 26.3741455,62.2670898 24.4168701,62.130127 C22.4595947,61.9931641 20.7022705,62.8366699 19.2773438,63.0151367 C18.279895,63.1400635 17.2701245,62.8688989 16.3694137,62.5462341 L15.5150171,62.221997 C15.5455384,62.0724908 15.5966999,61.9312514 15.6685015,61.7982788 C16.1247707,61.9967448 16.5453186,62.1653544 16.9301453,62.3041077 C17.5073853,62.5122375 18.0887146,62.641449 18.8034058,62.6165466 C19.5180969,62.5916443 20.9647217,62.006958 22.2912598,61.5910645 L24.036817,61.057499 C24.7261903,60.851772 25.3327705,60.6766086 25.723938,60.5688477 L26.3302431,60.4077454 C26.8908629,60.2682896 27.5653336,60.1353664 28.169432,60.1555438 L28.5219727,60.1871948 Z" id="形状" fill="#DDD7D6"></path>
                <path d="M85.4221971,66.1448336 L85.4596921,66.2164347 C85.3408756,66.3896722 85.1720137,66.8872876 84.8548991,67.2609253 C84.4913534,67.68927 83.3109741,68.5056152 82.4726563,68.7572632 C82.0940434,68.870916 81.6023016,68.9648237 81.1408699,69.0331671 C83.1070234,68.4130463 84.2766992,67.0738353 84.3513184,66.1982422 C84.4032358,65.5890345 82.7376009,64.3217528 81.1780018,63.2642146 C83.7229669,64.3242158 84.9234691,65.2405597 85.4221971,66.1448336 Z M51.8510253,64.9151138 C51.4612117,65.5563164 51.7253881,65.903134 52.6435547,65.9555664 C53.8879236,66.0266268 57.5657676,65.4111739 60.0620112,64.9554135 L57.5902902,66.5029069 C57.4765774,66.5726292 57.3689703,66.638065 57.2685547,66.6984253 L56.4176617,67.1945022 C55.7812008,67.5567504 55.075918,67.9426583 54.4408764,68.2834435 L53.1113281,68.5029297 L53.1113281,68.5029297 C50.8112562,68.906487 45.6229294,68.8787847 43.5035469,68.7404327 L47.3265356,67.0464073 C47.5134319,66.9625788 47.6964402,66.8801789 47.8735973,66.8000133 L49.0841064,66.2426758 L51.8510253,64.9151138 Z" id="形状" fill="#E5E0DE"></path>
                <path d="M61.5194092,60.0770264 C63.9049072,59.2141724 66.092041,59.2848511 67.1269531,59.4660645 L67.5548869,59.5543151 C69.165025,59.9133533 73.4778015,61.0546021 74.1646118,61.1862183 L74.883406,61.2980192 C76.1766002,61.4814537 78.6040083,61.7822702 79.7057056,61.9594562 L84.7497216,62.8155928 C84.8589509,62.8348777 84.9590438,62.852792 85.0482172,62.8690626 C84.171875,63.1447144 81.383606,62.4447632 79.7318115,62.253479 L77.4095409,61.9639111 C76.9022347,61.9060327 76.6586304,61.8969759 76.930542,61.9981079 L77.4652894,62.1621995 C78.7261302,62.5241648 81.6185099,63.2930806 82.895874,63.9372559 C84.4287109,64.7102661 84.9837646,65.3738403 85.0635986,65.6151123 C85.1434326,65.8563843 84.6998291,65.1481934 83.2362061,64.258388 C81.772583,63.3685826 78.4099515,62.7273759 75.9642334,61.9727783 C74.995858,61.6739975 73.0640319,61.4173879 71.8001709,61.0130615 C69.538208,60.2894287 67.447998,59.9039307 65.7928467,59.8094482 C63.4534578,59.6759069 60.4298013,60.9905144 58.6129659,61.8523682 L49.1439998,66.4907561 C48.1417124,66.9741525 47.2643702,67.3902383 46.6527215,67.6667435 L43.3222982,69.1119081 C42.8554209,69.3210839 42.6323724,69.4394339 42.7537231,69.4442139 L46.6514237,69.8094853 L46.6514237,69.8094853 L46.3302305,69.8080636 L46.3302305,69.8080636 L45.1682332,69.7827912 C43.7805126,69.7402175 42.5658528,69.6650596 42.069231,69.6389788 C41.9379518,69.5609454 41.9701344,69.4764951 42.0743758,69.4017609 L42.1448364,69.3582153 C42.4230347,69.2072967 48.4378662,66.5013428 50.7419976,65.4483517 C52.378622,64.7004123 54.6071447,63.4084265 56.6315349,62.2321009 C57.9038646,61.7609837 59.2475627,60.8987717 61.5194092,60.0770264 Z" id="路径" fill="#E5E5E5"></path>
                <path d="M35.7889404,59.6050415 C36.531189,59.4102783 37.4747925,60.0775146 38.2936401,60.7678223 C39.1124878,61.4581299 40.104248,62.5445557 40.2437744,63.1104736 C40.3833008,63.6763916 40.3726807,64.6036377 40.3280029,65.0512085 L40.2997654,65.2577803 C40.2963829,65.2876843 40.2947231,65.3154262 40.2963772,65.3411566 L40.4595337,65.2726947 C40.0897827,65.3998989 39.7803141,65.6059163 39.5311279,65.8907471 L38.7340164,66.8481598 C38.418457,67.2259521 38.0820007,67.6155396 37.8115234,67.8763428 L36.7509011,68.9236528 C36.6941453,68.9828996 36.6571927,69.0236248 36.6461792,69.0398705 L36.5955809,69.1074868 C36.555208,69.1519975 36.4867839,69.2085533 36.3658265,69.2591155 L36.2599487,69.1586304 C36.0988159,69.0467186 35.5771904,68.971935 34.4861467,68.8552037 L31.7699912,68.5777906 C29.9753755,68.4079984 28.5994552,68.3279073 28.249641,68.3177247 L28.1741943,68.3574222 C28.4169057,68.2082775 28.891476,68.1593533 29.5979052,68.2106495 L35.8997179,68.8045464 C36.0581677,68.8171157 36.1554088,68.8234067 36.1734009,68.8216553 C36.3113403,68.8082275 37.6201782,67.6561156 38.2089844,66.9403014 L38.5106515,66.5609079 C39.1082825,65.7888249 39.8946392,64.6691941 39.9385376,64.4124146 C39.9904175,64.1089478 39.9899292,63.3643799 39.3737793,62.484375 C38.7576294,61.6043701 37.0432739,60.1608296 36.263855,60.2385254 C35.484436,60.3162212 35.4108414,61.0524292 35.2870857,61.6542358 C35.1908313,62.1223077 34.6164532,62.6318435 34.1349811,63.0408926 L33.2130164,63.8340507 C32.6773644,64.2867457 31.9953526,64.8432181 31.5917358,65.1447754 C31.0266724,65.5669556 30.5526123,65.8166653 30.1138306,66.2464064 C29.6750488,66.6761475 30.5623169,65.6165181 30.5557861,65.5542918 C30.5502601,65.5016387 29.9718307,65.4927531 28.8438301,65.529628 L27.8295692,65.5623569 C26.5291608,65.5712964 25.5319158,65.3395601 27.1023133,65.2831576 L29.7787717,65.2400665 C30.5101815,65.2144399 30.8337079,65.1597265 30.9578247,65.0130396 L30.970529,64.9908849 L31.237291,64.7592043 C31.4053336,64.6182307 31.6132768,64.4498235 31.8067074,64.3001826 L33.0228892,63.397843 C33.3246606,63.1675315 33.6321062,62.9214565 33.8831177,62.6918945 C34.3955994,62.2232056 34.5730734,61.7918539 34.6775551,61.2621297 L34.7186279,61.0286865 C34.8203125,60.3880005 35.0466919,59.7998047 35.7889404,59.6050415 Z M53.8223267,63.3867187 C51.9009665,64.014734 49.8006592,64.833374 47.9053345,65.1769409 L45.6446108,65.5870376 C44.7330618,65.7473269 43.8904427,65.8822927 43.2326519,65.9465859 L41.2776184,66.1036911 C40.821228,66.1290436 40.4562988,66.1119385 40.2429199,65.9763184 C39.9971531,65.820113 40.0175698,65.6238251 40.3041697,65.3874544 C40.355235,65.5690505 40.669415,65.633652 41.9984741,65.6531982 C43.8406711,65.6802911 48.0695989,64.9399715 49.4678408,64.5791541 L49.6841431,64.5196533 C50.7215955,64.2103479 54.5641413,62.9392397 56.1461546,62.4032148 C55.4988985,62.7369702 54.6952734,63.1013876 53.8223267,63.3867187 Z" id="形状" fill="#E5E5E5"></path>
                <path d="M28.169432,60.1555438 L28.5219727,60.1871948 C29.4317017,60.3268433 29.5877686,60.7801514 29.3571777,61.1862183 C29.1727051,61.5110718 28.3759668,62.2739722 27.7166504,62.8808257 L26.8071581,63.7133545 C26.3213921,64.1659149 25.7754972,64.6917828 25.5268887,64.9617127 C25.5113415,64.8750652 25.6244295,64.6975547 25.8630981,64.3535156 C26.1755371,63.9031372 28.932373,61.5983276 29.104187,61.3353271 C29.276001,61.0723267 29.1203613,60.8493042 28.7617798,60.9503784 C28.4031982,61.0514526 26.2929077,62.9533691 26.1174927,63.0841675 C25.9420776,63.2149658 27.5297852,61.647583 28.0725098,61.210377 L28.5502757,60.8332927 C28.7443736,60.6553614 28.7172721,60.5527213 28.1741943,60.4622803 C27.3294067,60.3215942 26.2157593,60.5647583 24.9447021,60.9503784 C23.8552246,61.2809099 22.3695218,61.7609452 21.1863241,62.2370472 L20.6231689,62.4740601 C19.3830566,63.0230103 18.694519,63.0117798 18.0516357,62.9141846 C17.4087524,62.8165894 15.8718262,62.3007813 15.7698975,62.230896 C15.6679687,62.1610107 15.5406659,62.5932617 15.7405396,63.2075195 C15.9404132,63.8217773 16.8013916,64.9879761 17.5220337,65.4483517 C18.1771629,65.8668751 19.980207,66.6086131 20.9394755,66.8753339 L21.1999512,66.9403014 C21.587283,67.0226011 21.9989686,67.2060801 22.4350082,67.4907386 L21.3482135,67.1926307 C21.0910505,67.1203335 20.838996,67.0477748 20.6231377,66.9824992 L19.9444751,66.7631568 C18.9271714,66.4164395 16.8523905,65.6130025 16.0625305,64.2867126 C15.4549459,63.2664897 15.3236029,62.4370117 15.6685015,61.7982788 C16.1247707,61.9967448 16.5453186,62.1653544 16.9301453,62.3041077 C17.5073853,62.5122375 18.0887146,62.641449 18.8034058,62.6165466 C19.5180969,62.5916443 20.9647217,62.006958 22.2912598,61.5910645 L24.036817,61.057499 C24.7261903,60.851772 25.3327705,60.6766086 25.723938,60.5688477 L26.3302431,60.4077454 C26.8908629,60.2682896 27.5653336,60.1353664 28.169432,60.1555438 L28.169432,60.1555438 Z" id="路径" fill="#E9E9E9"></path>
                <path d="M61.9474487,31.5354614 C61.8897095,31.9772136 61.7310994,32.2401785 61.4716187,32.3243561 C61.2121379,32.4085337 60.9013146,32.3729248 60.5391488,32.2175293 C60.7763553,32.5239258 61.085083,32.629659 61.465332,32.534729 C61.8455811,32.439799 62.0062866,32.1067098 61.9474487,31.5354614 Z" id="路径-1270" fill="#E73A51"></path>
                <path d="M61.3916321,31.0379333 C61.1987915,30.8956909 60.8028935,31.1157227 60.7402344,31.2302856 C60.6775752,31.3448486 61.5844727,31.1801758 61.3916321,31.0379333 Z" id="路径-1271" fill="#FFBDC6"></path>
                <path d="M76.2554932,64.5235596 C76.5627441,64.8677092 77.2150879,65.9035034 77.097229,66.6838379 C76.9793701,67.4641724 78.3933105,68.0663452 79.5199585,68.0724095 C80.6466064,68.0784302 82.5844116,66.8256836 81.1547241,65.6400757 C79.7250366,64.4544678 77.8898315,62.9468003 75.734375,62.1786004 C73.5789185,61.4104004 67.1663399,59.7301025 65.3388462,59.8913574 C63.5113525,60.0526123 61.2305908,60.8621826 59.4554443,61.7236328 C57.6802979,62.585083 55.1621949,64.117119 56.0445557,63.9742432 C56.9269164,63.8313673 61.8508301,63.3272473 62.6845703,63.0750732 C63.4785156,62.7460938 64.6251221,62.1517334 66.229248,62.331543 C67.833374,62.5113525 75.9482422,64.17941 76.2554932,64.5235596 Z" id="路径-1272" fill="#C8C4C3"></path>
                <path d="M37.7324219,66.8338623 C37.9609985,66.6469891 38.7810059,65.6333785 38.9552002,64.9995117 C39.1293945,64.365645 36.0192871,64.5325928 33.5427246,65.256958 C31.0661621,65.9813232 30.0774536,66.65979 29.5927124,67.0670776 C29.1079712,67.4743652 29.2005005,67.4856915 29.6558838,67.5194092 C30.1112671,67.5531268 32.7231445,67.395829 33.7598877,67.3684082 C34.7966309,67.3409874 37.5038452,67.0207355 37.7324219,66.8338623 Z" id="路径-1273" fill="#C8C4C3"></path>
                <path d="M25.0155029,64.519104 C25.3239136,64.1283569 25.7359619,63.5708008 25.7681885,63.4822998 C25.800415,63.3937988 24.9952393,62.883728 23.7327881,62.8693848 C22.4703369,62.8550415 20.5674438,63.6915283 18.989502,63.618103 C17.4115601,63.5446777 16.2786255,63.3449707 17.7776489,64.2955933 C19.2766724,65.2462158 20.9747925,65.0188599 22.1202393,65.2672119 C23.265686,65.515564 23.8824097,66.2527211 24.0334473,65.9879761 C24.1844848,65.7232311 24.7070923,64.9098511 25.0155029,64.519104 Z" id="路径-1274" fill="#C8C4C3"></path>
                <path d="M55.8549805,39.460083 C56.0079651,39.3285522 56.0479524,39.055481 55.7744187,38.6642456 C55.500885,38.2730103 53.9649963,37.9887085 53.5878601,37.9732361 C53.2107239,37.9577637 52.5108337,38.1841125 52.2039795,38.321106 C51.99941,38.4124349 51.8640035,38.5053711 51.79776,38.5999146 C51.797821,38.8005778 51.9018148,38.9505005 52.1097412,39.0496826 C52.3176676,39.1488647 52.4752611,39.2056013 52.5825215,39.2198924 C53.0686652,38.9651073 53.3792216,38.8296315 53.5141907,38.8134649 C53.7166443,38.7892151 54.9680176,39.2448425 55.1723938,39.3769836 C55.37677,39.5091248 55.7019958,39.5916138 55.8549805,39.460083 Z" id="路径-1275" fill="#474147"></path>
                <path d="M55.567197,38.491766 C55.6602954,38.5463317 55.732313,38.6040217 55.7744187,38.6642456 C56.0479524,39.055481 56.0079651,39.3285522 55.8549805,39.460083 C55.7325928,39.5653076 55.4999707,39.5335596 55.3071768,39.4489951 L55.1723938,39.3769836 C54.9680176,39.2448425 53.7166443,38.7892151 53.5141907,38.8134649 C53.3792216,38.8296315 53.0686652,38.9651073 52.5825215,39.2198924 C52.4752611,39.2056013 52.3176676,39.1488647 52.1097412,39.0496826 C51.9018148,38.9505005 51.797821,38.8005778 51.79776,38.5999146 C51.8184611,38.5703697 51.8459164,38.5409818 51.8801259,38.5117509 L51.8444824,38.4577026 C51.995064,38.6976318 52.1600318,38.8432617 52.339386,38.8945923 C52.6084173,38.9715881 53.0773621,38.4725037 53.7348328,38.6427002 C54.3923035,38.8128967 55.056427,39.1289805 55.3656921,39.1217041 C55.5645054,39.1170264 55.6313609,38.8683292 55.599297,38.6384419 L55.567197,38.491766 Z" id="路径" fill="#312C31"></path>
            </g>
        </g>
    </g>
</svg>