<?xml version="1.0" encoding="UTF-8"?>
<svg width="96px" height="96px" viewBox="0 0 96 96" version="1.1" xmlns="http://www.w3.org/2000/svg" xmlns:xlink="http://www.w3.org/1999/xlink">
    <title>Air Jordan OG</title>
    <defs>
        <rect id="path-1" x="0" y="0" width="96" height="96"></rect>
    </defs>
    <g id="icon" stroke="none" stroke-width="1" fill="none" fill-rule="evenodd">
        <g id="画板" transform="translate(-274.000000, -406.000000)">
            <g id="Air-Jordan-OG" transform="translate(274.000000, 406.000000)">
                <g id="#" opacity="0">
                    <use fill="#FFFFFF" fill-rule="evenodd" xlink:href="#path-1"></use>
                    <rect stroke-opacity="0.5" stroke="#DDDDDD" stroke-width="6" stroke-linejoin="square" x="3" y="3" width="90" height="90"></rect>
                    <rect stroke-opacity="0.507785184" stroke="#DDDDDD" stroke-width="12" stroke-linejoin="square" x="6" y="6" width="84" height="84"></rect>
                    <rect stroke-opacity="0.319406703" stroke="#979797" stroke-width="10" stroke-linejoin="square" x="5" y="5" width="86" height="86"></rect>
                </g>
                <path d="M11.2825928,61.0332031 C11.1641846,60.1556803 11.4385986,59.2030843 12.105835,58.175415 C13.1066895,56.6339111 16.020752,55.4848633 18.3192139,54.6538086 C20.6176758,53.8227539 36.3464355,48.1621094 37.6118164,47.5048828 C38.3843994,46.7149658 39.6094971,45.9744873 40.4388428,45.9744873 C41.2681885,45.9744873 42.1705322,45.4150391 42.5480957,44.9349365 C42.9256592,44.454834 43.6350098,44.1217041 43.9765625,44.1217041 C44.3181152,44.1217041 45.361084,42.5791016 46.8179932,42.7703857 C47.789266,42.8979085 48.5165609,42.590861 48.9998779,41.8492432 C49.3551839,40.3692627 49.6848145,39.5435791 49.9887695,39.3721924 C50.2927246,39.2008057 50.9832764,39.0784098 52.0604248,39.0050049 L52.5471191,37.0194092 C52.2579753,35.9510498 52.3466797,35.2233887 52.8132324,34.8364258 C53.3708496,33.9681396 54.4887695,34.1290283 54.4887695,34.1290283 C54.4887695,34.1290283 55.8974202,32.2629395 58.7147217,28.5307617 C58.6345622,28.0887044 58.7322184,27.8676758 59.0076904,27.8676758 C59.4208984,27.8676758 60.3577881,28.1782227 61.7562256,29.6444092 C62.6885173,30.6218669 63.5751953,31.5941569 64.4162598,32.5612793 C66.0013021,32.8533529 67.2543945,33.1073812 68.1755371,33.3233643 C69.557251,33.6473389 73.9453125,35.6462402 75.1807861,36.1645508 C76.4162598,36.6828613 77.0019531,36.8597412 77.4492188,35.6279297 C77.8964844,34.3961182 79.2490234,33.6143799 79.7519531,33.6143799 C80.0872396,33.6143799 80.3806966,33.8437907 80.6323242,34.3026123 C81.0097656,34.5123291 81.1984863,34.7856445 81.1984863,35.1225586 C81.1984863,35.6279297 81.3790283,36.8787842 81.5654297,37.5184326 C81.7518311,38.1580811 82.1829834,39.2296143 82.1829834,40.3828125 C82.1829834,41.5360107 82.0023193,42.5023193 82.0023193,42.5023193 C82.0023193,42.5023193 82.1162109,42.5916748 82.3439941,42.7703857 L82.1829834,43.9332275 C83.0823161,45.8728434 83.6410319,47.0633952 83.8591309,47.5048828 C84.1862793,48.1671143 84.7393799,50.1606445 84.7393799,51.0061035 C84.7393799,51.5697428 84.7938232,52.2100016 84.90271,52.9268799 C85.1920166,53.1295166 85.3366699,53.3846029 85.3366699,53.6921387 C85.3366699,54.1534424 85.2949219,54.3858643 85.1259766,54.6538086 C85.1433105,55.1292725 85.1259766,55.3294678 85.1259766,56.5209961 C85.1259766,57.3153483 85.1259766,58.0258382 85.1259766,58.6524658 L84.90271,59.1499023 L84.7393799,61.1903076 C81.2966715,63.8176676 76.0985514,65.1313477 69.1450195,65.1313477 C58.7147217,65.1313477 52.3374023,64.6882324 44.9746094,65.6105957 C37.6118164,66.532959 30.9099121,68.6484375 24.1660156,66.8898926 C20.016919,65.8079702 15.5747489,64.477184 11.7687988,62.0668945 C11.5566989,61.9325727 11.3946302,61.5880089 11.2825928,61.0332031 Z" id="路径-560" fill="#ECECF1"></path>
                <path d="M64.862793,35.1450533 L65.7475891,35.4491818 C67.5003583,36.030809 70.748415,37.0534064 71.8330346,37.5993764 L76.5398457,40.2930348 C78.0624314,41.1543982 79.9627564,42.225711 82.2408207,43.5069733 L82.1829834,43.9332275 L83.6537212,47.0795646 C83.7403304,47.2612283 83.8088003,47.4030011 83.8591309,47.5048828 C84.1862793,48.1671143 84.7393799,50.1606445 84.7393799,51.0061035 C84.7393799,51.5697428 84.7938232,52.2100016 84.90271,52.9268799 C85.1920166,53.1295166 85.3366699,53.3846029 85.3366699,53.6921387 C85.3366699,54.1534424 85.2949219,54.3858643 85.1259766,54.6538086 L85.1329821,55.2542997 C85.1317838,55.4217798 85.1293047,55.624966 85.1276406,55.9149063 L85.1259766,58.6524658 L84.90271,59.1499023 L84.7393799,61.1903076 C81.2966715,63.8176676 76.0985514,65.1313477 69.1450195,65.1313477 L66.8076808,65.1243049 C57.7277644,65.0712558 51.7710337,64.7591834 44.9746094,65.6105957 C37.6118164,66.532959 30.9099121,68.6484375 24.1660156,66.8898926 C20.016919,65.8079702 15.5747489,64.477184 11.7687988,62.0668945 C11.5566989,61.9325727 11.3946302,61.5880089 11.2825928,61.0332031 C11.1641846,60.1556803 11.4385986,59.2030843 12.105835,58.175415 C12.4722192,57.6111145 13.0949892,57.0994063 13.8500901,56.6366376 C13.2846034,57.6739575 13.8331349,58.2968659 15.494873,58.5053711 C18.4655762,58.8781175 22.8460657,58.8154672 26.6446769,58.9303585 L27.5810547,58.9631348 C31.5761719,59.1242676 49.152815,58.0262026 52.3599769,57.6153962 L52.9993869,57.5195356 C57.3260054,56.8046986 72.0934615,53.3773881 70.357666,51.2817383 C68.5217285,49.0651855 53.0244593,47.9562618 52.7516096,45.6478086 L52.4778045,43.2521272 C52.3908069,42.4201929 52.3506947,41.8699351 52.3599769,41.4863898 C52.3762207,40.8151855 58.4511487,35.8926456 59.4341925,35.1450533 C60.4172363,34.3974609 63.6491699,34.6944034 64.862793,35.1450533 Z" id="路径" fill="#E1E2E7"></path>
                <path d="M83.3406507,46.4100527 L83.8591309,47.5048828 L83.8591309,47.5048828 C84.1862793,48.1671143 84.7393799,50.1606445 84.7393799,51.0061035 C84.7393799,51.5697428 84.7938232,52.2100016 84.90271,52.9268799 C85.1920166,53.1295166 85.3366699,53.3846029 85.3366699,53.6921387 C85.3366699,54.1534424 85.2949219,54.3858643 85.1259766,54.6538086 L85.1329821,55.2542997 L85.1276406,55.9149063 L85.1276406,55.9149063 L85.1259766,58.6524658 L84.90271,59.1499023 L84.7393799,61.1903076 C81.2966715,63.8176676 76.0985514,65.1313477 69.1450195,65.1313477 L66.8076808,65.1243049 L63.637824,65.0961457 L63.637824,65.0961457 C61.4690583,64.5984829 59.7139931,63.922625 58.782994,63.0462344 C57.0406393,61.4060788 60.4827452,57.8986377 65.0504291,54.5756307 L65.8101315,54.3252242 C68.90649,53.2760029 71.0863777,52.161522 70.357666,51.2817383 L70.2319229,51.1541308 L71.312721,50.5146619 C74.5280614,48.6478211 77.4541378,47.2682123 78.8549392,47.0006252 C80.3841403,46.7085105 81.8276713,46.4819886 83.3406507,46.4100527 Z" id="路径" fill="#DBDCE1"></path>
                <path d="M71.2141113,62.8112793 C68.9364421,61.932373 68.0728353,61.0284831 68.623291,60.0996094 C69.4489746,58.7062988 71.264305,58.1237271 72.5100098,56.6540527 C73.3404796,55.6742699 74.1921235,53.787307 75.0649414,50.9931641 C75.1907002,48.5225446 74.2715377,47.2145821 72.3074539,47.0692766 C69.3613281,46.8513184 60.4136442,56.6969553 62.7230575,60.9977696 C65.0324707,65.298584 72.6971981,68.8089005 76.0639311,67.216584 C79.4306641,65.6242676 85.2084826,62.9120432 84.7231378,60.9977696 C84.237793,59.0834961 86.6489712,55.6673907 82.2413557,56.8524942 C77.8337402,58.0375977 72.9142271,56.7119238 74.1791992,58.9848633 C75.4441714,61.2578028 79.2248989,61.2103755 77.7561262,62.1841673 C76.7769444,62.8333617 74.5962728,63.0423991 71.2141113,62.8112793 Z" id="路径-574" fill="#D0D1D7"></path>
                <path d="M84.7489938,51.3770166 L84.7393799,51.0061035 C84.7393799,51.5697428 84.7938232,52.2100016 84.90271,52.9268799 C85.1920166,53.1295166 85.3366699,53.3846029 85.3366699,53.6921387 C85.3366699,54.1534424 85.2949219,54.3858643 85.1259766,54.6538086 L85.1329821,55.2542997 L85.1276406,55.9149063 L85.1276406,55.9149063 L85.1259766,58.6524658 L84.90271,59.1499023 L84.7393799,61.1903076 L84.5314608,61.3456959 C84.4241422,61.1249307 84.3136104,60.8779468 84.1998655,60.6047441 C83.7098341,59.3460254 83.2334443,58.782945 82.7706961,58.9155028 L82.6552932,58.9631348 C81.907022,59.3669434 76.6191406,60.2277832 75.6293899,59.8573357 L75.2385301,59.7026934 C74.4080912,59.3490768 73.7201772,58.8452273 73.8722761,57.6138628 C73.9892753,56.6666593 74.5749799,55.6690946 75.6293899,54.6211688 L77.1188784,54.0219177 C80.4778388,52.6882424 83.0212107,51.8066087 84.7489938,51.3770166 Z" id="路径" fill="#C3C1CE"></path>
                <path d="M85.1292935,55.1048037 L85.1329821,55.2542997 L85.1276406,55.9149063 L85.1259766,58.6524658 L84.9457519,59.0498144 C84.7738199,58.8271172 84.7434932,58.3734877 84.7564195,58.015376 C84.7682269,57.6882649 84.6205182,57.2729834 84.3132935,56.7695313 C84.4501343,56.5724284 84.5500895,56.5229742 84.6131592,56.6211688 L84.7150537,56.8064174 C84.7791064,56.9327493 84.8628174,57.1096426 84.9661865,57.3370972 L84.8853549,56.1848499 C84.8644497,55.8183124 84.8595129,55.5937319 84.8705444,55.5111084 C84.885437,55.3995667 84.9509079,55.2834991 85.066957,55.1629057 L85.1292935,55.1048037 Z" id="路径" fill="#272727"></path>
                <path d="M59.0076904,27.8676758 C59.4208984,27.8676758 60.3577881,28.1782227 61.7562256,29.6444092 C62.6885173,30.6218669 63.5751953,31.5941569 64.4162598,32.5612793 L64.4910633,32.5744254 C64.7064695,32.9383161 64.9061037,33.3065333 65.0899658,33.6790771 C65.3913167,34.3519287 65.4631755,35.259196 65.305542,36.4008789 C65.0690918,38.1134033 57.0177002,48 52.6542969,49.3741455 L52.100441,49.5356727 C46.8984764,50.9571132 29.4730547,53.5573869 28.7703857,52.9849854 C28.2807472,52.5861207 29.0131081,51.4404999 29.7538232,50.4997036 L35.2581776,48.4521159 C36.4887947,47.9831789 37.3529533,47.6393338 37.6118164,47.5048828 C38.3071411,46.7939575 39.3690027,46.1230774 40.1790148,45.9960106 L40.4388428,45.9744873 C41.176039,45.9744873 41.9709126,45.5324541 42.4036249,45.0970332 L42.5480957,44.9349365 C42.9256592,44.454834 43.6350098,44.1217041 43.9765625,44.1217041 C44.3181152,44.1217041 45.361084,42.5791016 46.8179932,42.7703857 C47.789266,42.8979085 48.5165609,42.590861 48.9998779,41.8492432 L49.1753913,41.1637777 C49.4643476,40.1122097 49.7354736,39.5150146 49.9887695,39.3721924 C50.2927246,39.2008057 50.9832764,39.0784098 52.0604248,39.0050049 L52.5471191,37.0194092 C52.2579753,35.9510498 52.3466797,35.2233887 52.8132324,34.8364258 C53.3708496,33.9681396 54.4887695,34.1290283 54.4887695,34.1290283 L58.7147217,28.5307617 L58.7147217,28.5307617 C58.6345622,28.0887044 58.7322184,27.8676758 59.0076904,27.8676758 Z" id="路径" fill="#F6F6F6"></path>
                <path d="M61.7562256,29.6444092 C62.6885173,30.6218669 63.5751953,31.5941569 64.4162598,32.5612793 L64.4910633,32.5744254 C64.7064695,32.9383161 64.9061037,33.3065333 65.0899658,33.6790771 C65.3913167,34.3519287 65.4631755,35.259196 65.305542,36.4008789 C65.0690918,38.1134033 57.0177002,48 52.6542969,49.3741455 L52.100441,49.5356727 L51.2935642,49.7423418 C48.6501879,50.3828743 44.0819853,51.1961222 39.7458656,51.8578356 L38.8897376,51.5107369 C37.6698862,50.9970507 36.7486785,50.5249891 36.2491072,50.2335527 C35.4908676,49.7912162 35.6367899,48.9781932 36.3241934,48.0405251 L37.0529146,47.7501414 C37.3210776,47.6401881 37.5117088,47.5568777 37.6118164,47.5048828 C38.3071411,46.7939575 39.3690027,46.1230774 40.1790148,45.9960106 L40.4388428,45.9744873 C41.176039,45.9744873 41.9709126,45.5324541 42.4036249,45.0970332 L42.5480957,44.9349365 C42.9256592,44.454834 43.6350098,44.1217041 43.9765625,44.1217041 C44.3181152,44.1217041 45.361084,42.5791016 46.8179932,42.7703857 C47.789266,42.8979085 48.5165609,42.590861 48.9998779,41.8492432 L49.1753913,41.1637777 L49.2333923,40.9667387 C50.2431655,40.3595358 51.1401167,39.6707644 51.884299,39.0180889 L52.0604248,39.0050049 L52.1086943,38.8182784 C52.8823719,38.1188459 53.4710225,37.4762404 53.8234756,37.0411863 C54.9301543,35.675146 58.03125,33.5244141 59.4341925,32.5015869 C60.1595686,31.9727453 60.8395869,30.924966 61.4742475,29.3582488 L61.7562256,29.6444092 L61.7562256,29.6444092 Z" id="路径" fill="#E1E1E7"></path>
                <path d="M49.9040527,44.460083 C49.444519,44.206665 48.8435669,42.2668457 49.0599976,41.6987305 C49.4822799,40.5902691 50.8033421,44.5344619 50.8952637,44.4230957 C51.5450451,43.6358626 52.8246133,44.194742 52.8034903,44.0333107 C52.6700785,43.013718 52.5906369,42.3319846 52.5651654,41.9881107 C52.5244723,41.4387411 50.199121,40.5607055 50.2587891,40.4797363 C50.2771873,40.4547701 52.8276722,40.7956688 53.2405662,40.3766999 C53.386674,40.2284425 52.3351387,37.1259561 52.6987305,36.7587891 C52.7893853,36.6672428 53.3760396,37.4628715 54.4586931,39.1456752 L55.7474808,37.854826 C54.3678429,36.5203096 53.7606097,35.7798012 53.9257812,35.6333008 C54.0909528,35.4868004 55.1796402,35.8002785 57.1918434,36.5737353 C58.2403667,35.7282863 59.0127226,35.1479624 59.5089111,34.8327637 C60.6525719,34.1062648 64.6900155,34.537116 65.326416,34.6512451 C62.619873,34.6800537 60.4540853,35.1984441 59.8509521,36.3448486 C59.6446614,36.7369554 59.7543945,37.5693359 58.9691162,37.8955078 C58.1838379,38.2216797 57.0517578,38.1923828 56.6538086,38.4836426 C56.2560728,38.7747462 55.8178636,39.1563085 55.7822266,39.5683594 C55.7261696,40.2165136 56.4412585,41.5633565 55.3271484,41.84729 C54.7485352,41.994751 54.6917579,42.7860858 54.69104,43.0570068 C54.6879883,44.2087402 57.8469238,44.442627 58.6853027,44.2657471 C59.5236816,44.0888672 59.3141098,43.0270996 58.730957,42.3885498 C58.1478042,41.75 61.84021,40.9648437 66.1710205,42.4007568 C70.5018311,43.8366699 74.1463623,44.9580078 75.4445801,46.9078369 C76.7427979,48.857666 78.8387451,49.9584961 77.1702881,51.9257813 C75.5018311,53.8930664 78.0072021,52.5423584 75.6832275,53.7801514 C73.3592529,55.0179443 76.1396484,50.7294922 73.7145996,49.0023193 C71.2895508,47.2751465 71.0771484,48.2455603 69.6811523,48.5170898 C68.3565622,48.7747305 44.9381981,47.0152707 42.9630127,46.5581055 C42.9191279,46.5479481 41.8856201,45.6872559 42.7711182,44.6810303 C43.1543679,44.2455288 44.0106226,43.9468055 44.7855225,43.9626465 C45.6289693,43.9798887 46.4854328,44.3638624 47.291748,44.49646 C48.831662,44.7496969 49.9109455,44.4638841 49.9040527,44.460083 Z" id="路径-579" fill="#BEBDC4"></path>
                <path d="M50.8952637,44.4230957 C51.3551739,43.8658982 52.1305883,43.9830625 52.5369931,44.0418709 L52.574138,44.4527274 C52.5948231,44.766389 52.5849859,44.9978683 52.5082538,45.0692766 C52.3261259,45.2387681 47.6144838,46.3570572 45.1884019,46.8443603 L44.1485505,46.73021 C44.0475961,46.7183394 43.951766,46.7067595 43.861323,46.6954899 C44.0890995,46.1850714 44.6816091,45.1903887 45.4028054,44.0358273 C46.0440974,44.1523629 46.6822499,44.3962288 47.291748,44.49646 C48.831662,44.7496969 49.9109455,44.4638841 49.9040527,44.460083 C49.444519,44.206665 48.8435669,42.2668457 49.0599976,41.6987305 C49.4822799,40.5902691 50.8033421,44.5344619 50.8952637,44.4230957 Z M59.6518555,35.4718018 L59.1506348,36.185791 C59.1558078,36.3914443 59.8144531,36.7617188 59.5044556,37.3669434 C59.2977905,37.7704264 58.6016642,37.8563436 57.4160767,37.6246948 C56.4796705,38.4063885 55.8615273,38.9358393 55.538269,39.4068604 C55.4812973,39.4898741 56.1114502,41.3320313 55.3924561,41.5167236 C55.1203493,41.5866214 54.6644291,41.6026472 54.3805542,41.4732056 C53.9143398,41.2606206 53.6854072,41.0300548 53.6341553,41.0883179 C53.5266329,41.210549 53.1557007,42.4833984 54.0575562,44.8803711 C54.0752629,44.9274325 53.776862,44.9101596 53.1623535,44.8285522 C52.6815345,43.0655302 52.4292323,42.0291043 52.4054467,41.7192745 C51.8827497,41.1941201 50.2080376,40.5486058 50.2587891,40.4797363 L51.1974092,40.5533451 C51.9755607,40.6059102 52.9928298,40.6280812 53.2405662,40.3766999 C53.386674,40.2284425 52.3351387,37.1259561 52.6987305,36.7587891 C52.7893853,36.6672428 53.3760396,37.4628715 54.4586931,39.1456752 L55.7474808,37.854826 L55.2368205,37.3526999 C54.2196457,36.3334009 53.7826326,35.7602678 53.9257812,35.6333008 C54.0847571,35.4922957 55.0992641,35.777408 56.9693023,36.4886375 C57.0421832,36.5163562 59.5763756,35.4427886 59.6518555,35.4718018 Z" id="形状" fill="#939297"></path>
                <path d="M54.4096114,39.5173196 C53.5875929,40.6001765 53.1874566,41.3677396 53.2092025,41.820009 C53.2418213,42.4984131 53.4316939,43.9734155 53.8089866,44.4080945 C54.1862793,44.8427734 57.6981082,44.627933 58.3171937,44.5298479 C58.9362793,44.4317627 59.679977,43.8864059 60.8892439,43.9585228 C62.0985107,44.0306396 66.9049072,44.6906415 68.5029297,45.3781577 C70.1009521,46.0656738 71.0952583,46.9140031 71.6451416,47.7663574 C72.0117305,48.3345936 72.0117305,48.7322382 71.6451416,48.9592912 C66.8925374,47.0234126 63.5627035,46.0231565 61.6556396,45.9585228 C58.7950439,45.8615723 54.6390835,46.1047897 53.9212873,45.9585228 C53.2034912,45.8122559 52.4682461,43.3676758 52.4095381,42.7016602 C52.3508301,42.0356445 52.5466048,40.8598468 53.0438232,40.4501953 C53.3753022,40.1770943 53.8305649,39.8661358 54.4096114,39.5173196 Z" id="路径-587" fill="#A3A2AC"></path>
                <path d="M57.2371919,40.2141113 C57.110314,41.3834635 57.3097738,42.1695557 57.8355713,42.5723877 C58.6242676,43.1766357 58.8297119,42.9237061 59.0303955,43.0445557 C59.1641846,43.1251221 59.2987836,43.3239746 59.4341925,43.6411133 C59.4218305,42.7969564 59.0408122,42.1917318 58.2911377,41.8254395 C57.166626,41.276001 58.2516044,40.8046193 57.9714443,40.4668238 C57.7846709,40.2416268 57.5399201,40.1573893 57.2371919,40.2141113 Z" id="路径-580" fill="#9D9CA6"></path>
                <path d="M57.4262695,44.9833984 C58.758138,44.6375326 59.6877848,44.4458008 60.21521,44.4082031 C61.0063477,44.3518066 63.1579886,44.5871582 65.244751,45.1936035 C67.3315133,45.8000488 70.3546143,46.7638459 70.9354248,47.7174332 C71.5162354,48.6710205 69.5235602,48.9869385 66.4113773,48.3415527 C64.3365887,47.9112956 61.3415527,46.7919108 57.4262695,44.9833984 Z" id="路径-578" fill="#373232"></path>
                <path d="M13.7971191,60.1652832 C15.9188911,60.6022271 20.7207265,60.3651303 23.2601884,61.8112871 L23.6838379,62.0844443 C25.9771973,63.7640028 33.8613813,63.9619101 36.6073948,63.5866874 L37.7580399,63.4048833 C42.8326985,62.6565145 65.310162,59.8393219 66.4113773,59.8573357 C67.5957031,59.876709 72.302002,60.8645408 74.3532715,61.1767578 C76.404541,61.4889749 78.6114842,60.9221191 80.2030809,60.2529297 C81.7946777,59.5837402 84.0334473,59.7800293 84.4897461,60.2529297 C84.6058115,60.3732179 84.7225562,60.631737 84.7564195,60.9616529 L84.7393799,61.1903076 C82.638388,62.7937145 79.8836226,63.9078634 76.4750837,64.5327543 L70.9775516,65.098203 L70.9775516,65.098203 C70.3797973,65.1207527 69.7694872,65.1313477 69.1450195,65.1313477 L66.8076808,65.1243049 C57.7277644,65.0712558 51.7710337,64.7591834 44.9746094,65.6105957 C37.6118164,66.532959 30.9099121,68.6484375 24.1660156,66.8898926 C20.016919,65.8079702 15.5747489,64.477184 11.7687988,62.0668945 C11.5566989,61.9325727 11.3946302,61.5880089 11.2825928,61.0332031 C11.1777349,60.2561021 11.3809364,59.4201271 11.892197,58.5252782 C12.1212877,59.4050205 12.7566386,59.9510134 13.7971191,60.1652832 Z" id="路径" fill="#D0D1D8"></path>
                <path d="M67.9887695,61.6694336 C66.2881762,60.5367839 65.9577951,59.6346842 66.9976263,58.9631348 C68.557373,57.9558105 69.5612793,57.4992676 71.4366455,56.1977539 C73.3120117,54.8962402 74.6789985,50.0883789 71.3605957,49.300293 C68.0421929,48.512207 61.6997124,56.1873276 63.4257839,59.8573357 C64.5764983,62.3040077 66.0974935,62.9080404 67.9887695,61.6694336 Z" id="路径-581" fill="#B4B3BF"></path>
                <path d="M59.0076904,27.8676758 C59.4208984,27.8676758 60.3577881,28.1782227 61.7562256,29.6444092 C62.6885173,30.6218669 63.5751953,31.5941569 64.4162598,32.5612793 L64.4910633,32.5744254 C64.7064695,32.9383161 64.9061037,33.3065333 65.0899658,33.6790771 C65.2093647,33.9456691 65.292737,34.2490606 65.3400826,34.5892516 C65.2645103,34.6360541 65.1966651,34.6689603 65.1369216,34.6890121 C64.6434046,34.8546523 64.2269144,34.4588032 63.8874512,33.5014648 C63.6103516,32.9759928 63.3601751,32.5397135 63.1369216,32.192627 C62.8020415,31.6719971 60.7697754,29.8861084 60.1352539,29.30896 C59.7968424,29.0011475 59.4261133,28.7735693 59.0230664,28.6262256 L58.7147217,28.5307617 C58.6345622,28.0887044 58.7322184,27.8676758 59.0076904,27.8676758 Z" id="路径" fill="#4B4B4B"></path>
                <path d="M62.5974121,36.7512207 C66.4692383,35.8902595 70.7119141,36.0296631 73.6102295,36.9876709 C76.2034591,37.8448358 78.968585,39.963958 80.1513555,40.9859393 L80.5002441,41.2972412 C80.851709,41.6241211 81.2572412,41.9603467 81.7168408,42.305918 L82.2142111,42.6685624 L82.3439941,42.7703857 L82.1829834,43.9332275 L83.6537212,47.0795646 C83.7403304,47.2612283 83.8088003,47.4030011 83.8591309,47.5048828 C84.1862793,48.1671143 84.7393799,50.1606445 84.7393799,51.0061035 C84.7393799,51.5697428 84.7938232,52.2100016 84.90271,52.9268799 C85.1920166,53.1295166 85.3366699,53.3846029 85.3366699,53.6921387 C85.3366699,54.1534424 85.2949219,54.3858643 85.1259766,54.6538086 L85.1314345,54.8444184 C84.6740461,55.5623314 84.2368872,56.1155948 83.8190918,56.5073242 C82.9229736,57.3475342 79.2116699,58.9631348 76.8509521,58.9631348 C74.4902344,58.9631348 73.6102295,57.6394043 73.6102295,56.5073242 C73.6102295,55.3752441 75.8634033,52.6380615 76.2952881,51.854248 C76.7271729,51.0704346 76.22229,49.1639919 75.3094482,48.3990479 C74.3966064,47.6341038 70.5762939,45.2792969 68.6097412,44.5716553 C67.3995549,44.1361835 65.3118998,43.4723305 63.5694465,43.1682524 L60.7698975,42.7016602 C58.9475098,42.3937988 57.5408936,41.9830322 57.1346436,40.4668238 C56.7283936,38.9506154 58.7255859,37.612182 62.5974121,36.7512207 Z" id="路径" fill="#EFEFEF"></path>
                <path d="M83.8289265,47.4400829 L83.8591309,47.5048828 C84.1862793,48.1671143 84.7393799,50.1606445 84.7393799,51.0061035 C84.7393799,51.428833 84.7700043,51.8946609 84.8312531,52.4035873 L84.820252,52.4332306 C84.3406797,53.6988008 83.5824012,54.8192385 82.6900985,55.5380084 C81.302072,56.6560949 77.9187012,57.5158691 77.2086532,57.6138628 C76.4986052,57.7118564 75.2414551,57.1828613 75.6500669,56.1202249 C76.0586788,55.0575884 81.0871582,52.4050293 82.6900985,50.8139178 C83.6807681,49.8305588 83.8563193,48.4589478 83.8289265,47.4400829 Z" id="路径" fill="#DDDDE2"></path>
                <path d="M62.3897705,41.4003741 C61.5323486,41.1628418 60.3066406,40.7100237 60.9519043,40.0932617 C61.597168,39.4764998 64.0145264,38.2891846 66.1276855,37.9174805 C68.2408447,37.5457764 69.3533111,37.8791491 70.1549881,37.8486321 C70.956665,37.8181152 73.0765381,37.9683838 72.6420898,38.2325439 C72.2076416,38.4967041 72.0375152,39.6966586 72.2862136,39.9369524 C72.5349121,40.1772461 73.089906,40.4020996 73.5052801,40.0932617 C73.9206543,39.7844238 73.5449615,39.0102606 74.3074539,39.0650668 C75.0699463,39.119873 76.7907377,40.4389505 76.3527832,40.5706787 C75.9148287,40.702407 75.1516659,40.7558765 75.0639311,40.9396448 C74.9761963,41.1234131 75.1127778,41.6501636 75.0433274,41.9396448 C74.973877,42.229126 75.781601,42.5574621 76.0433274,42.4003741 C76.3050537,42.2432861 76.7345671,41.8449557 76.7561996,41.520012 C76.7706212,41.3033829 76.7204997,41.063151 76.605835,40.7993164 C76.5676329,40.1820091 76.7685723,39.9812345 77.2086532,40.1969927 C77.8687744,40.5206299 80.9044189,43.1571045 81.3630371,45.4851074 C81.8216553,47.8131104 80.2263579,50.8835729 78.8549392,51.8139178 C77.4835205,52.7442627 78.2894683,50.7764605 78.1700637,50.4750833 C78.0506592,50.1737061 77.5087739,48.0347934 76.0433274,47.0692766 C74.5778809,46.1037598 71.1376186,44.1477051 69.7410505,43.6411133 C68.3444824,43.1345215 63.2471924,41.6379064 62.3897705,41.4003741 Z" id="路径-582" fill="#DADAE0"></path>
                <path d="M75.0617676,43.1096191 C77.9973145,45.2736816 79.1645095,47.8427763 78.2687988,49.5859375 C78.2077014,49.7048404 78.0976835,49.7794974 77.945441,49.8151937 C77.6556644,49.0251004 77.0810556,47.752989 76.0433274,47.0692766 C74.5778809,46.1037598 71.1376186,44.1477051 69.7410505,43.6411133 L69.1992731,43.45515 C67.8071233,42.9944241 65.1188803,42.1927587 63.5300784,41.728669 C63.1923633,41.3088756 63.322526,40.9229705 64.7826157,40.748887 C67.7321777,40.3972168 72.1262207,40.9455566 75.0617676,43.1096191 Z" id="路径" fill="#CCCCD2"></path>
                <path d="M71.5028271,37.2037406 C74.0608002,37.7901119 76.1229676,38.6153697 78.0499082,40.1542663 L79.5792021,41.3585422 L80.3222028,41.9281488 C81.144386,42.5511641 81.8064743,43.0259041 82.2683921,43.3215532 L82.1829834,43.9332275 L82.3498773,44.2894653 C81.5328196,43.8689107 79.903669,42.6585312 77.5506777,40.7793814 C75.735776,39.3299616 73.7753954,38.5454378 71.3240772,37.9835152 C69.7478457,37.6221913 65.5353588,37.7393012 63.5041542,38.2371336 L62.691612,38.4477105 L61.9279259,38.6681236 C60.0881598,39.2280881 58.8006826,39.8424292 58.7724647,40.2273638 C58.7632409,40.3531907 59.3536058,40.5897468 60.6072603,40.8628498 L63.5379318,41.4262718 C63.8522508,41.4892265 64.1414438,41.5504634 64.4160517,41.6127015 C68.5276679,42.5445727 71.7748492,43.7810217 74.8706525,45.9849307 C77.7972555,48.0683855 78.482134,49.2409654 78.309157,51.0083174 L78.2662367,51.3569136 L78.2183007,51.6117742 C78.1249766,51.9900357 77.9229202,52.3759367 77.4455032,53.1173893 L76.6328158,54.3481826 C76.0189986,55.2842659 75.7019445,55.8927204 75.6159246,56.3738635 C75.5388792,56.8048093 75.7885031,57.0437847 76.4400885,57.1594983 C77.0600088,57.2695886 77.9327595,57.2109852 78.6911786,57.0347026 C80.1676125,56.6915286 82.3320424,55.5224568 83.1734182,54.5423159 C83.6835824,53.9480122 84.2197881,53.0513775 84.7769557,51.8553588 C84.8024046,52.1870022 84.8448785,52.5461345 84.90271,52.9268799 C84.9663574,52.97146 85.0230037,53.0185786 85.0726487,53.0682358 C84.6331854,53.9063718 84.2043657,54.5695538 83.7804392,55.063397 C82.8179066,56.1846767 80.5034103,57.4348037 78.8722979,57.8139303 C78.016671,58.0128074 77.0393316,58.0784336 76.3002069,57.9471741 C75.2647903,57.7632967 74.6585888,57.1829547 74.8284113,56.2330701 C74.9259984,55.6872268 75.2069234,55.1032867 75.7264125,54.278378 L76.7590666,52.7042923 L77.0513103,52.2356979 C77.2966161,51.8251969 77.40874,51.5740873 77.4563658,51.3483701 L77.4876774,51.1453539 C77.7039117,49.5551916 77.2388925,48.6529014 74.4066912,46.6366514 C71.4125727,44.5051321 68.2566872,43.3034463 64.2392217,42.3929137 L63.2341607,42.1818161 L61.138949,41.7877797 C58.7622311,41.3318801 57.912366,41.0179209 57.9746056,40.1688764 C58.0524668,39.1067289 60.1401941,38.2379363 63.3137169,37.4601307 C65.4611913,36.9338014 69.7991552,36.8132031 71.5028271,37.2037406 Z" id="路径" fill="#A09EA8"></path>
                <path d="M84.7769557,51.8553588 C84.8024046,52.1870022 84.8448785,52.5461345 84.90271,52.9268799 C84.9663574,52.97146 85.0230037,53.0185786 85.0726487,53.0682358 C84.6331854,53.9063718 84.2043657,54.5695538 83.7804392,55.063397 C82.8179066,56.1846767 80.5034103,57.4348037 78.8722979,57.8139303 C78.016671,58.0128074 77.0393316,58.0784336 76.3002069,57.9471741 C75.2647903,57.7632967 74.6585888,57.1829547 74.8284113,56.2330701 C74.9107169,55.7727023 75.1234371,55.2852349 75.4997046,54.6489561 L77.5212993,52.9976692 L77.5212993,52.9976692 L76.6328158,54.3481826 C76.0189986,55.2842659 75.7019445,55.8927204 75.6159246,56.3738635 C75.5388792,56.8048093 75.7885031,57.0437847 76.4400885,57.1594983 C77.0600088,57.2695886 77.9327595,57.2109852 78.6911786,57.0347026 C80.1676125,56.6915286 82.3320424,55.5224568 83.1734182,54.5423159 C83.6835824,53.9480122 84.2197881,53.0513775 84.7769557,51.8553588 Z" id="路径" fill="#BCBBC0"></path>
                <path d="M83.8591309,47.5048828 C84.1409788,48.0754145 84.5905358,49.6340796 84.7096326,50.5954323 C84.6702069,50.8241544 84.6141484,51.0706152 84.5417394,51.33249 L84.4208984,51.7365723 L84.1039627,51.894716 L83.6900985,51.7365723 L83.8919678,51.4750833 L84.1039627,50.4750833 L84.1039627,49.5396585 L83.8919678,49.4750833 L83.8919678,48.6799345 L83.7660982,47.3139972 L83.8591309,47.5048828 L83.8591309,47.5048828 Z" id="路径" fill="#575757"></path>
                <path d="M53.3051621,39.2279243 C51.3903398,39.0182995 50.9812111,38.8572998 50.4714355,38.8572998 C49.892334,38.8572998 50.8469238,40.8347168 50.8469238,40.8347168 C50.8469238,40.8347168 52.0664501,40.8347168 52.2294531,40.8347168 C52.290214,40.8347168 52.4661729,40.8347168 52.6730957,40.8347168 C53.0212834,40.8347168 53.5655649,39.2564318 53.3051621,39.2279243 Z" id="路径-561" fill="#EEEFF2"></path>
                <path d="M46.999197,42.7016602 C47.1322632,42.7016602 47.6968479,42.8503418 47.3480225,43.2982178 C46.999197,43.7460938 46.75354,46.2209473 45.8878174,47.2687988 C45.0220947,48.3166504 42.7426758,49.0449219 42.7426758,48.2704468 C42.7426758,47.4959717 44.0818481,44.3134766 44.3461914,43.8782959 C44.6105347,43.4431152 45.6412964,42.7016602 45.8878174,42.7016602 C46.1343384,42.7016602 46.8661308,42.7016602 46.999197,42.7016602 Z" id="路径-566" fill="#F6F7F8"></path>
                <path d="M62.7971191,32.5015869 L63.471179,32.5135058 C63.7425946,32.5220866 64.0591091,32.5359608 64.4118346,32.5571844 L66.059391,32.8738117 C66.894441,33.038524 67.599823,33.1883748 68.1755371,33.3233643 C69.557251,33.6473389 73.9453125,35.6462402 75.1807861,36.1645508 L75.614629,36.3408282 C76.5605202,36.7050705 77.0578613,36.7057648 77.4492187,35.6279297 C77.8964844,34.3961182 79.2490234,33.6143799 79.7519531,33.6143799 C80.0872396,33.6143799 80.3806966,33.8437907 80.6323242,34.3026123 C81.0097656,34.5123291 81.1984863,34.7856445 81.1984863,35.1225586 C81.1984863,35.6279297 81.3790283,36.8787842 81.5654297,37.5184326 L81.8427422,38.4017699 C82.0145645,38.9732151 82.1829834,39.6620636 82.1829834,40.3828125 C82.1829834,41.5360107 82.0023193,42.5023193 82.0023193,42.5023193 L82.0173189,42.5140875 C81.2653588,42.7783904 80.1766595,41.5561388 79.1737061,40.7559204 C78.1117554,39.9086304 73.9830322,37.9465942 72.7485352,37.3132935 C71.5140381,36.6799927 67.7133179,35.5099487 65.2539062,34.821228 C62.7944946,34.1325073 60.6072998,34.8600464 60.171875,35.1842651 L59.955657,35.359655 C59.180915,36.0101062 56.9148683,38.02704 55.4130205,39.1189778 L55.1409302,39.3123169 C53.4813843,40.4610596 53.0114136,40.9859619 52.866272,41.6032104 C52.7211304,42.220459 53.1033936,44.3488159 53.3764648,45.4701538 C53.6495361,46.5914917 52.7095947,46.0429688 52.5979004,45.5809937 L52.4729049,45.0474447 C52.4083162,44.7582296 52.3474302,44.4553731 52.321024,44.2289632 L52.307251,44.0313721 C52.307251,43.7005005 52.144043,43.5733032 51.8945312,42.4554443 C51.6450195,41.3375854 51.9869995,40.6489868 52.5979004,40.036377 L55.3574829,37.3132935 C56.0474854,36.6168823 58.31427,34.788147 59.6276245,33.6831055 C60.940979,32.578064 61.9782104,32.5015869 62.7971191,32.5015869 Z" id="路径" fill="#2C2B2B"></path>
                <path d="M79.7519531,33.6143799 C80.0250343,33.6143799 80.2703674,33.7665626 80.4879523,34.0709281 C80.314766,34.2522275 80.0765,34.4191403 79.9971924,34.5196533 C79.8009949,34.7683105 79.3868713,35.7034302 78.9581909,36.4074402 C78.5295105,37.1114502 77.8422852,36.8840637 77.3928223,36.8861389 C77.1146486,36.8874233 76.7586582,36.7063053 76.5009927,36.5580443 C76.9166989,36.5556147 77.2037982,36.303841 77.4492187,35.6279297 C77.8964844,34.3961182 79.2490234,33.6143799 79.7519531,33.6143799 Z" id="路径" fill="#636161"></path>
                <path d="M56.6782179,31.2250397 L57.1346436,31.6436768 L57.1346436,31.6436768 L56.9531476,31.8660979 C56.7400309,32.1202935 56.4004313,32.5015869 56.2808838,32.5015869 C56.1015625,32.5015869 55.0708008,34.0505371 55.0708008,34.0505371 L54.7851562,34.2640381 L54.7851562,34.2640381 L54.2173519,34.9952126 C53.9546528,35.3381157 53.7798665,35.5755107 53.6929932,35.7073975 C53.5539958,35.9184163 53.4283854,36.926473 53.3161621,38.7315674 L52.989502,39.0604248 C52.989502,39.0604248 52.5996094,39.199707 52.8181152,37.9523926 C53.0132745,36.8383493 53.3581926,35.3216466 53.9641332,34.1369522 C54.264193,34.0967077 54.4887695,34.1290283 54.4887695,34.1290283 L56.6782179,31.2250397 Z" id="路径" fill="#D74E4E"></path>
                <path d="M59.3582764,37.4431152 C59.6472168,37.1437988 59.0565186,36.3369141 58.5093994,35.9082031 C57.9622803,35.4794922 55.9221199,34.6245224 54.9431266,34.3807373 C53.9641332,34.1369522 53.8851322,34.1722412 53.6292725,34.3807373 C53.0275879,34.348999 52.6033936,34.92447 52.3909912,35.3757324 C52.1785889,35.8269949 53.1175529,38.0446844 53.3734127,39.0650668 C53.6292725,40.0854492 53.9511719,41.0372314 54.2161865,41.2498779 C54.4812012,41.4625244 55.3914795,41.6537476 55.5531006,41.2498779 C55.7147217,40.8460083 55.330467,39.237793 54.9431266,38.3404541 C54.6848996,37.7422282 54.4425863,37.0142008 54.2161865,36.1563721 C55.2001546,36.3120524 56.0112712,36.5654297 56.6495361,36.9165039 C57.6069336,37.4431152 58.020874,37.6884766 58.2651367,37.6884766 C58.5093994,37.6884766 59.0693359,37.7424316 59.3582764,37.4431152 Z" id="路径-562" fill="#F6F7F8"></path>
                <path d="M53.8497925,34.9486084 C53.8729045,35.0812988 53.9102376,35.2292074 53.961792,35.392334 L54.2161865,36.1563721 C54.708252,36.206665 55.2259115,36.296814 55.769165,36.4268188 C56.5840454,36.6218262 57.3914795,37.0981445 57.666748,37.2490845 C57.9420166,37.4000244 58.6021118,37.2831421 58.6473999,36.9087524 C58.692688,36.5343628 58.2336527,35.9438092 57.8752011,35.6370511 L57.5654882,35.3788171 L58.0255202,35.6097975 C58.2325201,35.7206959 58.4005227,35.8228896 58.5093994,35.9082031 C59.0565186,36.3369141 59.6472168,37.1437988 59.3582764,37.4431152 C59.0693359,37.7424316 58.5093994,37.6884766 58.2651367,37.6884766 C58.020874,37.6884766 57.6069336,37.4431152 56.6495361,36.9165039 C56.0112712,36.5654297 55.2001546,36.3120524 54.2161865,36.1563721 C54.3973063,36.8426351 54.5886108,37.4458252 54.7901,37.9659424 L54.9431266,38.3404541 C55.330467,39.237793 55.7147217,40.8460083 55.5531006,41.2498779 C55.3914795,41.6537476 54.4812012,41.4625244 54.2161865,41.2498779 C54.0041748,41.0797607 53.7557568,40.4365967 53.5338699,39.6637 L53.3734127,39.0650668 C53.20613,38.3979346 52.746846,37.2189987 52.5082538,36.356556 C52.9747397,37.6491568 53.2824336,38.4986072 53.4313354,38.9049072 C53.9093562,40.209255 54.1157227,40.6179199 54.8153687,40.7275391 C55.5150146,40.8371582 55.2171021,39.8491821 55.1118774,39.4003296 C55.0066528,38.9514771 54.5709229,37.7844849 54.2161865,36.5441284 L53.9983797,35.7383413 C53.9041789,35.3598375 53.8546499,35.0965932 53.8497925,34.9486084 Z" id="路径" fill="#D2D4D7"></path>
                <path d="M55.5531006,41.2498779 C55.3914795,41.6537476 54.4812012,41.4625244 54.2161865,41.2498779 C54.1582759,41.2034107 54.097649,41.1216496 54.0355885,41.011591 C54.225331,41.1629153 54.3584652,41.2437964 54.4345703,41.2537231 C54.5847778,41.2733154 55.0638428,41.2908936 55.2677612,41.1685197 C55.430896,41.0706207 55.3901636,40.9423278 55.394064,40.757588 L55.4092407,40.6080422 C55.4344596,40.478413 55.4278349,40.1864369 55.4327084,39.8958368 L55.532541,40.3893938 C55.5975952,40.778463 55.6136283,41.0986272 55.5531006,41.2498779 Z M59.3582764,37.4431152 C59.0693359,37.7424316 58.5093994,37.6884766 58.2651367,37.6884766 C58.1552831,37.6884766 58.0111102,37.6388493 57.7986173,37.5363302 L58.563312,37.5407369 C58.6002306,37.5394097 58.6304715,37.537669 58.6540527,37.5355225 C58.8411255,37.5184937 59.0823975,37.2415161 59.1157227,36.9736913 C59.1327577,36.8367857 59.0528331,36.5950925 58.875949,36.2486119 C59.2776563,36.6740613 59.5822584,37.2110899 59.3582764,37.4431152 Z" id="形状" fill="#64656D"></path>
                <path d="M52.7516096,45.6369629 C52.517943,44.5851237 52.3029696,43.8822021 52.1066895,43.5281982 C51.8122692,42.9971924 50.725708,40.8490941 50.725708,40.657959 C50.725708,40.5305355 50.5787907,40.0831699 50.284956,39.3158621 C49.6085758,39.8200497 49.2133382,40.2674154 49.0992432,40.657959 C48.9281006,41.2437744 49.324585,42.4790039 49.5585937,42.9952393 C49.7926025,43.5114746 50.550991,44.5860596 50.284956,45.6369629 C50.0189209,46.6878662 49.9815674,46.4250591 48,46.1301372 C46.0184326,45.8352154 44.173584,44.1217041 43.9765625,44.1217041 C43.779541,44.1217041 42.9313965,44.1639404 42.5178223,44.7106934 C42.104248,45.2574463 43.4925537,46.2280273 43.9765625,46.5617676 C44.4605713,46.8955078 48.5917969,48.1911621 50.0789795,48.71875 C51.0704346,49.0704753 51.9613113,48.0432129 52.7516096,45.6369629 Z" id="路径-565" fill="#F6F7F8"></path>
                <path d="M23.098877,54.6185303 C22.7809245,55.4093059 22.7507731,56.011845 23.0084229,56.4261475 C23.3948975,57.0476012 25.1895752,57.3666567 26.2757568,57.6153962 C27.3619385,57.8641357 32.1114502,58.7756348 33.3444824,59.2539063 C34.5775146,59.7321777 35.4161377,60.5953369 35.3955078,61.5372314 C35.3748779,62.479126 36.432373,62.019165 36.5958252,61.5372314 C36.7592773,61.0552979 37.3914795,59.0090332 36.2811279,57.7772217 C35.1707764,56.5454102 36.1953125,56.5163574 32.6707764,55.5952148 C30.3210856,54.9811198 27.1304525,54.6555583 23.098877,54.6185303 Z" id="路径-576" fill="#8B898E"></path>
                <path d="M71.2097444,64.0407715 C69.5837402,63.4296875 66.552002,60.9604492 66.154541,60.2001953 C65.7570801,59.4399414 65.8956299,58.0531006 66.6191406,57.442749 C67.3426514,56.8323975 72.1568604,53.6943898 72.68396,52.8254395 C73.2110596,51.9564891 73.9398193,49.6072297 70.6672363,47.7174332 C67.3946533,45.8276367 61.5617676,44.8330078 57.7429199,44.6330566 C53.9240723,44.4331055 48.6080322,44.4331055 44.3674316,45.2010498 C40.1268311,45.9689941 30.3952637,49.6287842 29.1922607,50.1103516 C27.9892578,50.5919189 23.7342529,52.8215249 23.0500488,54.2768555 C22.3658447,55.732186 23.5391846,56.2614746 25.678833,56.6918945 C27.8184814,57.1223145 31.4727783,57.9182129 33.1807861,58.4837646 C34.8887939,59.0493164 35.6654053,59.9637451 35.4185791,61.0010986 C35.2540283,61.6926676 33.7907715,63.2793783 31.0288086,65.7612305 L30.4758301,66.3986816 C34.9513464,67.6113281 39.040295,67.4755452 42.7426758,65.991333 C48.296247,63.7650146 51.9960937,62.1224365 53.3188477,62.7928467 C54.6416016,63.4632568 56.1264648,64.7484131 59.1134033,64.7484131 C62.1003418,64.7484131 72.8357486,64.6518555 71.2097444,64.0407715 Z" id="路径-567" fill="#201C1E"></path>
                <path d="M44.3674316,45.2010498 C48.6080322,44.4331055 53.9240723,44.4331055 57.7429199,44.6330566 C59.6145415,44.7310529 61.9699332,45.0199301 64.2705951,45.511518 C63.9693715,45.5854399 63.5819447,45.639189 63.1012125,45.6715217 L62.7230575,45.6917362 C55.1619957,46.0003896 49.9145178,46.9300015 45.1492546,47.7819598 L43.7992904,48.0226599 C38.6625977,48.9326172 28.527832,52.4618242 32.8959961,54.8524942 L33.5338579,55.1962811 C37.6652914,57.3929433 41.3997801,58.8784634 38.2491805,61.3456959 C36.4385115,62.7636296 34.0811322,64.1916974 31.1770426,65.6298993 L32.0193617,64.8594516 C34.1418682,62.8903645 35.2749501,61.6047381 35.4185791,61.0010986 C35.6654053,59.9637451 34.8887939,59.0493164 33.1807861,58.4837646 C31.866934,58.0487248 29.4014315,57.4773852 27.3595802,57.0409452 L25.678833,56.6918945 C23.5391846,56.2614746 22.3658447,55.732186 23.0500488,54.2768555 C23.6982422,52.8981212 27.551254,50.8244695 28.9779156,50.2005474 L29.4902336,49.9936127 C31.5211541,49.208227 40.3762781,45.9238209 44.3674316,45.2010498 Z" id="路径" fill="#302E2F"></path>
                <path d="M44.3674316,45.2010498 C48.6080322,44.4331055 53.9240723,44.4331055 57.7429199,44.6330566 C61.5617676,44.8330078 67.3946533,45.8276367 70.6672363,47.7174332 C73.9398193,49.6072297 73.2110596,51.9564891 72.68396,52.8254395 C72.1568604,53.6943898 67.3426514,56.8323975 66.6191406,57.442749 C65.8956299,58.0531006 65.7570801,59.4399414 66.154541,60.2001953 C66.5299208,60.9182129 69.2550109,63.1606023 70.9264204,63.9223307 L71.2097444,64.0407715 C71.3439481,64.0912078 71.3939438,64.1381392 71.3710381,64.1818004 C70.6319899,64.1060953 69.285881,63.7605036 67.3325195,63.1461182 C65.7693685,61.1932373 64.9386393,59.9143066 64.840332,59.3093262 C64.6928711,58.4018555 64.7927246,57.0529044 66.6630859,55.8686763 L69.282932,54.2444329 C70.6372228,53.3912061 71.8430576,52.567041 71.9329016,52.1801758 L71.9986504,51.8951039 C72.1713584,51.0771697 72.3076123,49.4324463 69.6712646,48.3077393 C66.675415,47.0296631 61.3812256,45.8374874 56.7990723,45.6478086 L54.5223168,45.551498 C50.9803293,45.4190108 47.6894994,45.4801615 41.2977295,47.0296631 C33.5743408,48.9019775 28.8605957,50.9162598 26.4298096,52.4222412 L25.3848745,53.080338 C23.6247833,54.2186633 22.8004714,54.9797457 24.2294922,55.3269043 L25.012135,55.5030789 C27.1544971,55.961761 31.2845917,56.7223938 32.6640625,57.1275456 C34.2406006,57.5905762 36.6635742,58.9880371 36.5983887,60.244873 C36.5378592,61.411935 35.3177409,63.1424243 34.5758013,63.9835882 L34.4138184,64.1612549 C33.9613205,64.639216 33.1150762,65.4954255 31.8750857,66.7298832 L31.177533,66.5776814 L31.177533,66.5776814 L30.4758301,66.3986816 L31.0288086,65.7612305 C33.7907715,63.2793783 35.2540283,61.6926676 35.4185791,61.0010986 C35.6654053,59.9637451 34.8887939,59.0493164 33.1807861,58.4837646 C31.866934,58.0487248 29.4014315,57.4773852 27.3595802,57.0409452 L25.678833,56.6918945 C23.5391846,56.2614746 22.3658447,55.732186 23.0500488,54.2768555 C23.6982422,52.8981212 27.551254,50.8244695 28.9779156,50.2005474 L29.4902336,49.9936127 C31.5211541,49.208227 40.3762781,45.9238209 44.3674316,45.2010498 Z" id="路径" fill="#F4F3F6"></path>
                <path d="M55.7620239,63.4261475 C56.7061564,62.9438883 57.601359,62.2767741 58.4476318,61.4248047 C59.717041,60.1468506 63.0328369,56.8831787 63.8074951,55.1446533 C64.5821533,53.4061279 64.8991699,50.4975586 60.7802734,49.3674316 C56.661377,48.2373047 50.6703227,47.688576 45.1013967,48.2373047 C39.5324707,48.7860334 34.5664062,49.9885254 32.6472168,50.6558838 C30.7280273,51.3232422 29.1856689,52.0076761 29.1856689,53.0659719 C29.1856689,54.1242676 30.7249756,54.6800537 32.1345215,54.9123535 C33.5440674,55.1446533 40.714844,56.0130615 42.4418947,56.4818115 C44.1689453,56.9505615 46.463623,57.998291 46.284668,59.1923828 C46.1057129,60.3864746 43.2755127,62.6420898 42.010376,63.3087158 C40.7452393,63.9753418 36.6341553,65.7570801 35.7479248,65.9562988 C35.3263495,66.0510662 38.5509093,66.7029959 45.3951416,65.5926514 C47.2269251,65.2954799 50.6825526,64.5733119 55.7620239,63.4261475 Z" id="路径-568" fill="#F1F1F3"></path>
                <path d="M35.876709,54.1413574 C34.7276204,53.750225 34.5821126,53.1874353 35.4401855,52.4529885 C36.7272949,51.3513184 42.1603133,49.8671121 47.0183105,49.588623 C51.8763078,49.310134 57.6731415,49.5066562 59.9746323,50.2335527 C62.276123,50.9604492 63.6456753,53.2642492 63.1335066,53.8436725 C62.6213379,54.4230957 58.4396772,60.560152 55.8970847,62.3412332 C53.3544922,64.1223145 44.4280135,63.7388613 45.1098633,62.6286621 C45.791713,61.5184629 47.2516959,59.7226755 46.7341243,58.5252782 C46.2165527,57.3278809 45.0410159,56.6144557 42.4418947,55.7925794 C40.7091472,55.2446619 38.520752,54.6942546 35.876709,54.1413574 Z" id="路径-583" fill="#DADAE0"></path>
                <path d="M59.9746323,50.2335527 C62.276123,50.9604492 63.6456753,53.2642492 63.1335066,53.8436725 L62.976923,54.0396016 C62.0523529,55.2488681 58.264326,60.6829852 55.8970847,62.3412332 C53.5489159,63.986121 45.7558429,63.7848478 45.1148408,62.8699509 L45.7275391,62.5627441 L47.053798,61.7949503 C52.4057244,58.645246 55.5807442,56.1134983 56.5788574,54.199707 C57.5091415,52.415972 56.8977546,50.8644937 54.7446968,49.5452721 C56.9646378,49.6584961 58.8712947,49.8850776 59.9746323,50.2335527 Z" id="路径" fill="#C9C9D2"></path>
                <path d="M41.7337425,49.3849449 C46.777187,48.6282703 49.2711299,48.553594 54.1067573,49.0005011 L55.2788903,49.1200605 C60.1995143,49.6727747 63.0466192,50.6825132 63.372743,52.4192191 C63.6186025,53.728494 63.0340729,54.7829571 61.1080769,56.9925146 L59.7356776,58.539615 C58.561639,59.8860582 56.800799,61.6484973 54.4509827,63.8300111 C54.2890827,63.9803153 54.0359912,63.970915 53.8856871,63.809015 C53.735383,63.647115 53.7447833,63.3940235 53.9066833,63.2437193 L55.0231425,62.1966962 C56.6242703,60.6786683 57.8943054,59.3970164 58.8323304,58.3530395 L60.5147384,56.4548508 C62.2312211,54.4798901 62.7672747,53.5296206 62.5864855,52.5668649 C62.3392976,51.2505155 59.2395583,50.2782823 54.0331353,49.7971063 C49.5602155,49.3837205 47.1454579,49.4218184 42.7575284,50.0438574 L41.8524391,50.1760903 C37.4249238,50.8403562 33.0362889,51.9049805 31.623677,52.5392234 C30.7125971,52.9482854 30.7947406,53.2068682 32.3312293,53.3402687 L34.0485055,53.5027066 C37.9851426,53.9035741 42.5512605,54.5539125 44.2740795,55.1239068 C46.9382093,56.0053336 48.3590649,57.6566366 47.9302887,59.6415864 C47.6632667,60.8777213 47.1997141,62.0578685 46.5404989,63.1806706 C46.4286496,63.3711769 46.1835418,63.434941 45.9930355,63.3230917 C45.8025291,63.2112423 45.738765,62.9661346 45.8506144,62.7756282 C46.4671153,61.7255788 46.8993961,60.6250456 47.1483246,59.4726715 C47.474026,57.96489 46.3437612,56.6513084 44.0227955,55.8834174 C42.1256149,55.2557356 36.4095997,54.4973689 32.2620324,54.1372704 C29.9778088,53.9389504 29.5503075,52.5932012 31.2960008,51.8094095 C32.7898118,51.1387093 37.2400663,50.0591369 41.7337425,49.3849449 Z" id="路径-575" fill="#A09EA8" fill-rule="nonzero"></path>
                <path d="M77.7533569,55.0409241 C78.0602722,55.0474548 78.3357544,55.2431946 78.3421021,55.620575 C78.3484497,55.9979553 78.0046082,56.2016602 77.7629395,56.2015381 C77.5212708,56.201416 77.2005005,56.0709839 77.171936,55.6825562 C77.1433716,55.2941284 77.4464417,55.0343933 77.7533569,55.0409241 Z M77.7634446,55.2015382 C77.5340545,55.2014223 77.3377178,55.3683329 77.3422435,55.6373929 C77.3458184,55.8499305 77.5542237,56.0369131 77.732083,56.0406978 C77.9834923,56.0460474 78.1861774,55.839495 78.169243,55.6092155 C78.1508599,55.3592365 77.9295702,55.2016221 77.7634446,55.2015382 Z M80.1768874,53.6023628 C80.4838027,53.6088936 80.7592848,53.8046333 80.7656325,54.1820137 C80.7719802,54.5593941 80.4281386,54.7630989 80.1864699,54.7629768 C79.9448012,54.7628548 79.6240309,54.6324226 79.5954665,54.2439949 C79.566902,53.8555672 79.8699721,53.5958321 80.1768874,53.6023628 Z M80.186975,53.762977 C79.9575849,53.7628611 79.7612483,53.9297716 79.7657739,54.1988316 C79.7693489,54.4113693 79.9777542,54.5983519 80.1556135,54.6021365 C80.4070227,54.6074862 80.6097079,54.4009337 80.5927734,54.1706543 C80.5743903,53.9206752 80.3531007,53.7630609 80.186975,53.762977 Z M82.2385864,52.335083 C82.5455017,52.3416138 82.8209839,52.5373535 82.8273315,52.9147339 C82.8336792,53.2921143 82.4898376,53.4958191 82.2481689,53.495697 C82.0065002,53.495575 81.68573,53.3651428 81.6571655,52.9767151 C81.6286011,52.5882874 81.9316711,52.3285522 82.2385864,52.335083 Z M82.2486741,52.4956971 C82.019284,52.4955813 81.8229473,52.6624918 81.827473,52.9315518 C81.8310479,53.1440894 82.0394532,53.3310721 82.2173125,53.3348567 C82.4687218,53.3402064 82.6714069,53.1336539 82.6544725,52.9033745 C82.6360894,52.6533954 82.4147997,52.4957811 82.2486741,52.4956971 Z M80.2380371,49.8948364 C80.5449524,49.9013672 80.8204346,50.0971069 80.8267822,50.4744873 C80.8331299,50.8518677 80.4892883,51.0555725 80.2476196,51.0554504 C80.0059509,51.0553284 79.6851807,50.9248962 79.6566162,50.5364685 C79.6280518,50.1480408 79.9311218,49.8883057 80.2380371,49.8948364 Z M80.2481247,50.0554506 C80.0187347,50.0553347 79.822398,50.2222452 79.8269237,50.4913052 C79.8304986,50.7038429 80.0389039,50.8908255 80.2167632,50.8946101 C80.4681724,50.8999598 80.6708576,50.6934073 80.6539232,50.4631279 C80.63554,50.2131488 80.4142504,50.0555345 80.2481247,50.0554506 Z M82.6872559,47.9594116 C82.9941711,47.9659424 83.2696533,48.1616821 83.276001,48.5390625 C83.2823486,48.9164429 82.9385071,49.1201477 82.6968384,49.1200256 C82.4551697,49.1199036 82.1343994,48.9894714 82.105835,48.6010437 C82.0772705,48.212616 82.3803406,47.9528809 82.6872559,47.9594116 Z M82.6973435,48.1200258 C82.4679534,48.1199099 82.2716167,48.2868204 82.2761424,48.5558804 C82.2797174,48.7684181 82.4881226,48.9554007 82.665982,48.9591853 C82.9173912,48.964535 83.1200764,48.7579825 83.1031419,48.5277031 C83.0847588,48.277724 82.8634692,48.1201097 82.6973435,48.1200258 Z M78.4382324,46.8178101 C78.7451477,46.8243408 79.0206299,47.0200806 79.0269775,47.3974609 C79.0333252,47.7748413 78.6894836,47.9785461 78.4478149,47.9784241 C78.2061462,47.978302 77.885376,47.8478699 77.8568115,47.4594421 C77.8282471,47.0710144 78.1313171,46.8112793 78.4382324,46.8178101 Z M78.4483201,46.9784242 C78.21893,46.9783083 78.0225933,47.1452189 78.027119,47.4142789 C78.0306939,47.6268165 78.2390992,47.8137991 78.4169585,47.8175837 C78.6683677,47.8229334 78.8710529,47.616381 78.8541185,47.3861015 C78.8357353,47.1361224 78.6144457,46.9785081 78.4483201,46.9784242 Z M80.6317139,45.069397 C80.9386292,45.0759277 81.2141113,45.2716675 81.220459,45.6490479 C81.2268066,46.0264282 80.8829651,46.2301331 80.6412964,46.230011 C80.3996277,46.2298889 80.0788574,46.0994568 80.050293,45.7110291 C80.0217285,45.3226013 80.3247986,45.0628662 80.6317139,45.069397 Z M80.6418015,45.2300111 C80.4124114,45.2298952 80.2160747,45.3968058 80.2206004,45.6658658 C80.2241754,45.8784034 80.4325806,46.065386 80.61044,46.0691707 C80.8618492,46.0745203 81.0645344,45.8679679 81.0475999,45.6376884 C81.0292168,45.3877094 80.8079272,45.230095 80.6418015,45.2300111 Z M75.6266206,44.3782781 C75.9335359,44.3848088 76.209018,44.5805486 76.2153657,44.957929 C76.2217133,45.3353093 75.8778718,45.5390142 75.6362031,45.5388921 C75.3945344,45.53877 75.0737641,45.4083379 75.0451997,45.0199102 C75.0166352,44.6314824 75.3197053,44.3717473 75.6266206,44.3782781 Z M75.6367082,44.5388922 C75.4073181,44.5387763 75.2109815,44.7056869 75.2155071,44.9747469 C75.2190821,45.1872845 75.4274873,45.3742671 75.6053467,45.3780518 C75.8567559,45.3834014 76.0594411,45.176849 76.0425066,44.9465695 C76.0241235,44.6965905 75.8028339,44.5389761 75.6367082,44.5388922 Z M78.2058105,43.0319214 C78.5127258,43.0384521 78.788208,43.2341919 78.7945557,43.6115723 C78.8009033,43.9889526 78.4570618,44.1926575 78.2153931,44.1925354 C77.9737244,44.1924133 77.6529541,44.0619812 77.6243896,43.6735535 C77.5958252,43.2851257 77.8988953,43.0253906 78.2058105,43.0319214 Z M78.2158982,43.1925355 C77.9865081,43.1924197 77.7901714,43.3593302 77.7946971,43.6283902 C77.798272,43.8409278 78.0066773,44.0279105 78.1845367,44.0316951 C78.4359459,44.0370447 78.638631,43.8304923 78.6216966,43.6002129 C78.6033135,43.3502338 78.3820238,43.1926194 78.2158982,43.1925355 Z M72.8907471,42.5299683 C73.1976624,42.536499 73.4731445,42.7322388 73.4794922,43.1096191 C73.4858398,43.4869995 73.1419983,43.6907043 72.9003296,43.6905823 C72.6586609,43.6904602 72.3378906,43.5600281 72.3093262,43.1716003 C72.2807617,42.7831726 72.5838318,42.5234375 72.8907471,42.5299683 Z M72.9008347,42.6905824 C72.6714446,42.6904665 72.4751079,42.8573771 72.4796336,43.1264371 C72.4832086,43.3389747 72.6916138,43.5259573 72.8694732,43.5297419 C73.1208824,43.5350916 73.3235676,43.3285392 73.3066331,43.0982597 C73.28825,42.8482806 73.0669604,42.6906663 72.9008347,42.6905824 Z M75.6472243,40.9397652 C75.9541396,40.9462959 76.2296218,41.1420357 76.2359694,41.5194161 C76.2423171,41.8967964 75.8984755,42.1005013 75.6568068,42.1003792 C75.4151381,42.1002571 75.0943679,41.969825 75.0658034,41.5813973 C75.0372389,41.1929695 75.340309,40.9332344 75.6472243,40.9397652 Z M69.7382812,40.8201294 C70.0451965,40.8266602 70.3206787,41.0223999 70.3270264,41.3997803 C70.333374,41.7771606 69.9895325,41.9808655 69.7478638,41.9807434 C69.5061951,41.9806213 69.1854248,41.8501892 69.1568604,41.4617615 C69.1282959,41.0733337 69.431366,40.8135986 69.7382812,40.8201294 Z M75.6573119,41.1003793 C75.4279219,41.1002634 75.2315852,41.267174 75.2361108,41.536234 C75.2396858,41.7487716 75.4480911,41.9357542 75.6259504,41.9395389 C75.8773596,41.9448885 76.0800448,41.7383361 76.0631104,41.5080566 C76.0447272,41.2580776 75.8234376,41.1004632 75.6573119,41.1003793 Z M69.7483689,40.9807435 C69.5189788,40.9806277 69.3226421,41.1475382 69.3271678,41.4165982 C69.3307427,41.6291358 69.539148,41.8161185 69.7170074,41.8199031 C69.9684166,41.8252527 70.1711017,41.6187003 70.1541673,41.3884209 C70.1357842,41.1384418 69.9144945,40.9808274 69.7483689,40.9807435 Z M63.7202148,39.9370728 C64.0271301,39.9436035 64.3026123,40.1393433 64.30896,40.5167236 C64.3153076,40.894104 63.9714661,41.0978088 63.7297974,41.0976868 C63.4881287,41.0975647 63.1673584,40.9671326 63.1387939,40.5787048 C63.1102295,40.1902771 63.4132996,39.930542 63.7202148,39.9370728 Z M63.7303025,40.0976869 C63.5009124,40.097571 63.3045757,40.2644816 63.3091014,40.5335416 C63.3126763,40.7460792 63.5210816,40.9330618 63.6989409,40.9368464 C63.9503502,40.9421961 64.1530353,40.7356437 64.1361009,40.5053642 C64.1177178,40.2553851 63.8964281,40.0977708 63.7303025,40.0976869 Z M66.8394775,39.1686401 C67.1463928,39.1751709 67.421875,39.3709106 67.4282227,39.748291 C67.4345703,40.1256714 67.0907288,40.3293762 66.8490601,40.3292542 C66.6073914,40.3291321 66.2866211,40.1987 66.2580566,39.8102722 C66.2294922,39.4218445 66.5325623,39.1621094 66.8394775,39.1686401 Z M66.8495652,39.3292543 C66.6201751,39.3291384 66.4238384,39.4960489 66.4283641,39.765109 C66.431939,39.9776466 66.6403443,40.1646292 66.8182036,40.1684138 C67.0696129,40.1737635 67.272298,39.9672111 67.2553636,39.7369316 C67.2369805,39.4869525 67.0156908,39.3293382 66.8495652,39.3292543 Z M72.8695068,38.890686 C73.1764221,38.8972168 73.4519043,39.0929565 73.458252,39.4703369 C73.4645996,39.8477173 73.1207581,40.0514221 72.8790894,40.0513 C72.6374207,40.051178 72.3166504,39.9207458 72.2880859,39.5323181 C72.2595215,39.1438904 72.5625916,38.8841553 72.8695068,38.890686 Z M72.8795945,39.0513002 C72.6502044,39.0511843 72.4538677,39.2180948 72.4583934,39.4871548 C72.4619683,39.6996925 72.6703736,39.8866751 72.8482329,39.8904597 C73.0996422,39.8958094 73.3023273,39.689257 73.2853929,39.4589775 C73.2670098,39.2089984 73.0457201,39.0513841 72.8795945,39.0513002 Z" id="形状结合" fill="#5A5A5A" fill-rule="nonzero"></path>
                <path d="M11.255824,59.8573357 C11.1168502,60.5679237 11.5192464,61.1046143 12.4630127,61.4674072 C13.8786621,62.0115967 15.6226807,62.2034912 18.5863037,62.2613525 C21.5499268,62.3192139 25.0389404,64.2099609 25.5496826,64.8209229 C26.0604248,65.4318848 28.7706299,67.5495605 29.1856689,68.0500488 C29.600708,68.5505371 31.244751,70.0914307 31.0338135,70.2918701 C30.822876,70.4923096 26.0772705,70.3123779 24.4099121,69.9779053 C22.7425537,69.6434326 20.887085,69.4372559 20.5266113,69.230957 C20.1661377,69.0246582 20.1477051,68.5574951 19.7071533,68.5604248 C19.2666016,68.5633545 18.9158936,68.833252 18.3319092,68.7044678 C17.7479248,68.5756836 13.5974121,67.5404053 11.9212646,66.6452637 C10.2451172,65.7501221 10.0780029,65.3405151 10.0350342,64.8991699 C9.99206543,64.4578247 9.98120117,61.0849609 10.2276611,60.5596924 C10.3919678,60.2095133 10.7346887,59.9753944 11.255824,59.8573357 Z" id="路径-570" fill="#D6D7DE"></path>
                <path d="M11.255824,59.8573357 C11.1168502,60.5679237 11.5192464,61.1046143 12.4630127,61.4674072 C13.8786621,62.0115967 15.6226807,62.2034912 18.5863037,62.2613525 C21.4210736,62.3166982 24.7365411,64.049013 25.466462,64.7342302 L25.5496826,64.8209229 C26.0263753,65.391154 28.4190446,67.2739003 29.0733907,67.9293143 L29.5410064,68.438834 C29.5908164,68.4911424 29.6432487,68.5458542 29.6974829,68.6023359 C30.1115895,69.3394924 30.2244315,69.8492243 30.1066895,69.7840576 L29.9673364,69.6925139 C29.7534531,69.5404987 29.3600034,69.2302337 28.7869873,68.7617187 L26.9414305,67.0916464 C25.9877836,66.2388696 25.3107736,65.6547726 24.9104004,65.3393555 C23.9761963,64.6033822 21.659668,63.7021787 20.1998291,63.3511963 C18.7399902,63.0002139 16.7358398,63.039917 14.5474854,62.8964844 C12.3591309,62.7530518 10.6672363,61.8381348 10.5681152,61.3251953 C10.5268702,61.1117574 10.5537568,60.7034993 10.648775,60.100421 C10.8120557,59.9913199 11.014869,59.911922 11.255824,59.8573357 Z" id="路径" fill="#EEEFF0"></path>
                <path d="M85.7402344,66.022583 L86,64 C85.8177897,62.4988607 85.5966797,61.4967855 85.3366699,60.9937744 C84.9466553,60.2392578 84.0085449,59.5700684 82.7027588,59.9841309 C81.3969727,60.3981934 79.8231201,61.4093018 78.9356689,61.7749023 C78.0482178,62.1405029 74.4360352,62.6999512 72.5447998,62.6309814 C70.6535645,62.5620117 58.5698242,63.310791 57.7657471,63.3942871 C56.9616699,63.4777832 56.6732178,62.8167725 56.0222168,62.1209717 C55.3712158,61.4251709 53.1081543,59.8817139 49.5231934,60.6674805 C45.9382324,61.4532471 42.9981689,63.0300293 40.9564209,63.8254395 C38.9146729,64.6208496 34.3908691,65.5895996 33.0773926,65.5289307 C31.763916,65.4682617 28.043335,64.4682617 27.2817383,64.5646973 C26.5201416,64.6611328 26.00354,64.9492188 25.9526367,65.1798096 C25.9017334,65.4104004 26.3920898,65.975708 27.2817383,66.6531982 C28.1713867,67.3306885 29.3568115,68.4519043 29.6462402,68.7900391 C29.9356689,69.1281738 30.4451904,69.7808838 30.6248779,69.9884033 C30.8045654,70.1959229 31.4420166,70.5408936 31.9008789,70.2518311 C32.3597412,69.9627686 32.9348145,69.9588623 33.2137451,70.3428955 C33.4926758,70.7269287 33.8372803,70.7702637 34.326416,70.8049316 C34.8155518,70.8395996 41.5350342,71.1473389 41.9384766,71.1503906 C42.3419189,71.1534424 42.8706055,71.1164551 42.9162598,70.989624 C42.9619141,70.862793 42.6999512,70.2674561 42.9162598,70.3428955 C43.1325684,70.418335 43.6375732,70.8431396 43.878418,70.633667 C44.1192627,70.4241943 44.2674561,70.1555176 44.5668945,70.3428955 C44.866333,70.5302734 45.7871094,71.0718994 46.4752197,70.633667 C47.1633301,70.1954346 49.4298096,67.8822021 51.3659668,66.583252 C53.302124,65.2843018 59.3214111,63.9968262 62.8112793,64 C66.3011475,64.0031738 73.1169434,64.6917725 76.4094238,65.5289307 C79.7019043,66.3660889 82.9345703,66.6369629 83.8343506,66.592041 C84.4342041,66.5620931 85.0694987,66.3722738 85.7402344,66.022583 Z" id="路径-569" fill="#E2E2E8"></path>
                <path d="M82.7027588,59.9841309 C83.2342243,59.8156041 83.7047823,59.826524 84.1022682,59.9496075 C83.4836413,59.8293672 83.0906573,59.8644635 82.9197998,60.0551758 C82.6057129,60.4057617 81.3590788,61.2767344 80.2408797,61.7748418 C79.6847057,62.0225923 78.6680944,62.15382 77.5046111,62.1367187 L78.1027458,62.0128227 C78.4671283,61.9301854 78.7567649,61.8486049 78.9356689,61.7749023 C79.8231201,61.4093018 81.3969727,60.3981934 82.7027588,59.9841309 Z" id="路径" fill="#FFFFFF"></path>
                <path d="M49.5231934,60.6674805 C53.1081543,59.8817139 55.3712158,61.4251709 56.0222168,62.1209717 C56.5061275,62.6381836 56.7897139,63.1361725 57.2336636,63.3234401 L57.2001949,63.3973389 C57.096282,63.6590095 56.3821534,64.2858773 55.366202,65.076702 C53.6464443,65.517729 52.1615211,66.0495218 51.3659668,66.583252 C49.4298096,67.8822021 47.1633301,70.1954346 46.4752197,70.633667 C45.7871094,71.0718994 44.866333,70.5302734 44.5668945,70.3428955 C45.0327404,70.383055 45.5287121,70.4076318 46.0548096,70.416626 C46.8439558,70.4301172 46.709316,70.2756811 47.5146484,69.2874756 C48.2816317,68.3463275 52.4426123,65.1818676 53.6420418,64.5010049 L53.7989502,64.4180908 C54.7307051,63.9763184 55.7962646,62.9819336 55.8140869,62.6507568 C55.8319092,62.3195801 54.8150635,61.583374 53.0754395,61.2231445 C51.3358154,60.862915 48.2887346,61.5914912 47.4539795,61.7652588 L46.9829948,61.8754514 C46.0648959,62.1085184 44.5298296,62.5857755 43.1076094,63.264135 L42.6850586,63.4736328 C40.875,64.4072266 34.2414551,66.2915039 31.0524147,65.7757568 L30.2532964,65.6404132 C27.8164509,65.2074871 27.5632546,64.9617912 26.9384766,65.0544434 C26.480306,65.1223883 26.2550863,65.2722235 26.2628174,65.503949 C26.1970836,65.5149903 26.136423,65.5200983 26.0808355,65.5192732 C25.9792349,65.3717652 25.9355918,65.2570226 25.9526367,65.1798096 C26.00354,64.9492187 26.5201416,64.6611328 27.2817383,64.5646973 C28.043335,64.4682617 31.763916,65.4682617 33.0773926,65.5289307 C34.3908691,65.5895996 38.9146729,64.6208496 40.9564209,63.8254395 C42.9981689,63.0300293 45.9382324,61.4532471 49.5231934,60.6674805 Z" id="路径" fill="#F2F0F3"></path>
                <path d="M10,64.8167725 C10.0389404,65.3674847 10.1772868,65.8393709 10.4150391,66.2324312 C10.7716675,66.8220215 12.6141968,67.8463745 14.7042847,68.5505371 C16.7943726,69.2546997 18.8307495,69.7472534 18.9216919,69.7250977 C19.0126343,69.7029419 19.1727295,69.3321533 19.2999878,69.2383423 C19.4272461,69.1445313 19.6098022,69.2753906 19.6166382,69.3480835 C19.6234741,69.4207764 19.5770264,69.7947998 19.6166382,69.859436 C19.65625,69.9240723 21.9457397,70.3983765 23.6794434,70.7363281 C25.413147,71.0742798 31.3249512,72 36.0039063,72 C40.6828613,72 42.9946289,72 46.0651855,72 C49.1357422,72 50.3029785,71.0626221 51.4376221,70.4686279 C52.5722656,69.8746338 55.0884357,69.5428467 55.9745157,69.5681152 C56.8605957,69.5933838 59.4742432,69.8250732 60.0806885,70.1854248 C60.6871338,70.5457764 61.3532715,72 64,72 C66.6467285,72 78.0766602,71.9517822 80.609375,71.3366699 C83.1420898,70.7215576 85.5570068,69.0866699 85.6949463,68.8137207 C85.7869059,68.6317546 85.8885905,68.3605143 86,68 C86.0036621,66.8011882 85.90743,66.1199951 85.7113037,65.9564209 C85.4171143,65.7110596 82.0338135,65.9553223 78.1173096,64.6176758 C74.2008057,63.2800293 69.6818848,61.7355957 67.4864502,61.3295898 C65.2910156,60.923584 65.041626,60.590332 62.3666992,60.6052246 C59.6917725,60.6201172 56.9926758,62.7053223 56.6889648,62.8049316 C56.3852539,62.904541 55.8436279,63.4001465 55.5712891,63.5565186 C55.2989502,63.7128906 51.9411621,65.7949219 50.0789795,67.3237305 C48.2167969,68.8525391 47.5300293,69.7089844 47.2325439,70.0258789 C46.9350586,70.3427734 46.5562744,70.7415771 45.8977051,70.7363281 C45.2391357,70.7310791 44.6708984,70.4506885 44.4880371,70.3757959 C44.3051758,70.3009033 44.0531006,70.894043 43.7044678,70.7363281 C43.355835,70.5786133 43.053833,70.2867481 43.0012207,70.3757959 C42.9486084,70.4648438 43.0899658,70.9492188 42.9162598,70.989624 C42.7425537,71.0300293 40.1611328,71.0721436 38.3189697,70.989624 C36.4768066,70.9071045 34.7244873,70.8519287 34.326416,70.8049316 C33.9283447,70.7579346 33.6610718,70.7451172 33.4436646,70.5973511 C33.2262573,70.449585 33.0604858,70.081604 32.5301514,70.0875244 C31.9998169,70.0934448 31.366272,70.4714355 30.9159546,70.4686279 C30.4656372,70.4658203 28.0808105,70.3294678 27.416626,70.2773438 C26.7524414,70.2252197 21.3146362,69.4796753 20.8850098,69.3480835 C20.4553833,69.2164917 20.0917969,68.6295776 19.8404541,68.5505371 C19.5891113,68.4714966 18.8916626,68.7507935 18.6398926,68.7211914 C18.3881226,68.6915894 15.4569092,68.0438859 13.3031616,67.216584 C11.1494141,66.3892822 10.6054687,65.7921753 10.4150391,65.6265259 C10.2880859,65.5160929 10.1497396,65.2461751 10,64.8167725 Z" id="路径-571" fill="#191919"></path>
                <path d="M53.3630371,66.0222168 C56.013416,63.9121917 57.0091668,63.4898215 59.5915527,62.5905762 C62.1739386,61.6913309 66.5226226,62.4850469 68.2561843,63.0462344 C69.9897461,63.6074219 72.8572586,64.3310169 70.7998047,65.8811035 C68.7423508,67.4311901 66.5115205,69.724345 64.7826157,69.7896627 C63.0537109,69.8549805 61.1547085,68.0711037 59.7829206,67.64688 C58.4111328,67.2226562 56.6191192,67.115049 54.8234756,67.64688 C53.027832,68.1787109 50.7034145,69.7994679 51.0000227,69.0558619 C51.2966309,68.3122559 50.7126582,68.1322419 53.3630371,66.0222168 Z" id="路径-586" fill="#3D3D3D"></path>
                <path d="M52.4560511,67.7314565 L52.6929712,67.607508 C54.2375488,66.7521973 56.9626234,65.6506533 59.4341925,66.2324312 C61.9057617,66.814209 63.1851045,67.3669302 64.7826157,67.4658138 C66.380127,67.5646973 68.9311523,65.9211426 69.5534668,65.4382324 C70.0015332,65.0905371 70.1854209,64.273849 69.121467,63.3683011 L69.022341,63.2894619 L69.8225414,63.5616842 C71.1970326,64.0695426 72.2896851,64.758627 70.7998047,65.8811035 C68.7423508,67.4311901 66.5115205,69.724345 64.7826157,69.7896627 C63.0537109,69.8549805 61.1547085,68.0711037 59.7829206,67.64688 C58.4111328,67.2226562 56.6191192,67.115049 54.8234756,67.64688 C53.1059035,68.1555879 50.9045382,69.6605909 50.9759398,69.1397293 L51.0000227,69.0558619 C51.1606855,68.6530753 51.0629833,68.4156482 51.3608882,67.9472809 L51.4312856,67.8424176 C51.5880522,68.0261285 51.9296407,67.9891415 52.4560511,67.7314565 L52.4560511,67.7314565 Z" id="路径" fill="#302E2E"></path>
                <path d="M62.3666992,60.6052246 C64.8632975,60.5913249 65.2469835,60.8806977 67.0720153,61.2494403 L67.4864502,61.3295898 C68.5500477,61.5262829 70.158968,61.9901653 71.9805283,62.5682826 L69.7353753,62.1194745 C66.6656415,61.5235697 62.5806983,60.8301387 61.1176758,61.2150879 C60.3996582,61.404012 59.6669312,61.6123454 58.9194946,61.8400879 L57.5847031,62.2638351 L58.1329485,61.9442501 C59.2298735,61.3306556 60.8024192,60.6139337 62.3666992,60.6052246 Z" id="路径" fill="#868686"></path>
                <path d="M57.9632568,67.6937256 C59.3966675,67.9241333 61.2235718,68.5860279 61.4596558,68.9072718 L61.6294689,69.1377239 C61.7836838,69.3572197 61.8660583,69.5424194 61.6511841,69.680481 C61.3646851,69.864563 60.8310547,70.4313965 60.4416504,70.4648438 L60.4174164,70.4639405 C60.2963088,70.3464235 60.1875716,70.248935 60.0806885,70.1854248 C59.5208928,69.8527926 57.2508184,69.6297896 56.2079626,69.5775753 L55.9745157,69.5681152 C55.4295223,69.5525735 54.2678654,69.6721061 53.1902814,69.9046437 C53.1444898,69.8295758 53.0830673,69.7711589 53.0069581,69.7297629 L52.881897,69.680481 C52.5495605,69.5913696 52.6204834,69.1743774 53.3786621,68.6525269 C54.1368408,68.1306763 56.5298462,67.4633179 57.9632568,67.6937256 Z" id="路径" fill="#424241"></path>
                <path d="M57.9632568,67.6937256 C59.3966675,67.9241333 61.2235718,68.5860279 61.4596558,68.9072718 L61.6294689,69.1377239 C61.6647468,69.1879354 61.6962653,69.2363521 61.721326,69.2828204 C61.2737771,69.3342806 59.3478648,68.338498 57.2643049,68.2868477 C54.8584348,68.2272075 53.8956405,68.9540373 53.1472743,69.0462928 L53.000096,69.0558619 C52.9661601,69.0559241 52.93513,69.0535712 52.9069197,69.0489901 C53.0195284,68.9265253 53.1740742,68.7933437 53.3786621,68.6525269 C54.1368408,68.1306763 56.5298462,67.4633179 57.9632568,67.6937256 Z" id="路径" fill="#808080"></path>
                <path d="M65.9934082,70.0913696 C65.7246501,70.1616414 65.6104533,70.0387166 65.6508179,69.7225952 C65.7113647,69.2484131 67.2111206,67.5068359 68.1442871,66.9362183 C69.0774536,66.3656006 71.1417236,65.6314087 74.0426025,66.7306519 C76.9434814,67.829895 79.8314819,69.3433838 80.0587769,69.578125 C80.2860718,69.8128662 80.2768555,70.4829712 79.7979126,70.4648438 C79.3189697,70.4467163 75.2272949,70.7387085 74.6895142,70.7233887 C74.1517334,70.7080688 73.2819279,70.2398682 73.1444124,70.253418 C73.006897,70.2669678 72.7683105,70.7119751 72.3642578,70.7233887 C71.9602051,70.7348022 68.2229004,70.7358398 67.8305664,70.6040649 C67.4382324,70.47229 66.7658081,69.8651123 66.4931641,69.8294067 C66.3114014,69.805603 66.1448161,69.892924 65.9934082,70.0913696 Z" id="路径-572" fill="#EBEBEB"></path>
                <path d="M72.4810791,70.659729 C72.7149658,70.6350098 72.9298706,70.1461182 73.1711426,70.1773682 C73.4124146,70.2086182 74.1143799,70.5474243 74.4822388,70.6256714 C74.8500977,70.7039185 79.3237281,70.4034317 79.5938709,70.3463081 C79.8640137,70.2891846 79.9450684,69.9656982 79.7946777,69.8140869 C79.6442871,69.6624756 75.3371582,67.6856079 74.4441528,67.3082886 C73.5511475,66.9309692 71.968811,66.1466675 70.3736572,66.4545288 C68.7785034,66.7623901 67.9753418,67.2047119 67.2654419,67.8670044 C66.555542,68.5292969 65.8685913,69.3986816 65.7872314,69.7296143 C65.7058716,70.0605469 65.8730469,70.0571289 65.9934082,70.0913696 C66.1137695,70.1256104 66.2672729,69.69104 66.6526489,69.8140869 C67.0380249,69.9371338 67.6403198,70.447998 67.899292,70.5731812 C68.1582642,70.6983643 72.2471924,70.6844482 72.4810791,70.659729 Z" id="路径-584" fill="#D0D2D7"></path>
                <path d="M63.849762,62.5932922 C63.8894043,62.5800476 64.2765198,62.4325256 64.2126465,62.1056213 C64.1487732,61.778717 63.9703064,61.7572327 63.788208,61.7823792 C63.6061096,61.8075256 63.3805542,62.1108093 63.460022,62.3425598 C63.5394897,62.5743103 63.5083008,62.9907532 63.5000916,63.1703796 C63.4918823,63.3500061 63.3750916,63.6754761 63.3503418,63.6834717 C63.325592,63.6914673 63.1367798,63.6505432 63.0435791,63.5799255 C62.9503784,63.5093079 62.6191406,63.4820251 62.6089783,63.5799255 C62.5988159,63.6778259 62.7015381,63.8884277 62.6089783,64.0219116 C62.5164185,64.1553955 62.2712097,64.2754822 62.2264404,64.436676 C62.1816711,64.5978699 61.9029743,65.0025024 61.7814127,65.0894165 C61.6598511,65.1763306 61.4373169,65.2822876 61.4588623,65.4203491 C61.4804077,65.5584106 61.5610657,65.5454652 61.6585693,65.503949 C61.756073,65.4624329 61.9319763,65.4666443 61.9472656,65.3729553 C61.9574585,65.310496 62.1095886,65.1046956 62.403656,64.7555542 C62.5494486,64.8173218 62.6125387,64.9162089 62.592926,65.0522156 C62.5635071,65.2562256 62.4498901,65.5067749 61.9472656,65.9049988 C61.4446411,66.3032227 61.3993835,66.2686157 61.1834412,66.4385986 C60.9674988,66.6085815 60.6738892,66.9136658 60.5822144,66.9724121 C60.4905396,67.0311584 59.911377,67.0892944 59.9803162,67.290741 C60.0492554,67.4921875 60.6037598,67.4947815 60.6618347,67.4309387 C60.7199097,67.3670959 60.7207642,67.2809448 60.903656,67.1618042 C61.0865479,67.0426636 62.4726563,66.3614202 62.7740784,66.1621554 C63.0755005,65.9628906 63.1485901,66.0084001 63.6303711,66.302372 C64.1121521,66.596344 64.2490845,66.5411987 64.5346375,66.7268066 C64.8201904,66.9124146 65.254364,67.2004089 65.342865,67.290741 C65.431366,67.381073 65.4960938,67.5983094 65.5592957,67.5671906 C65.6224976,67.5360718 66.3996887,67.3542175 66.4100037,67.290741 C66.4203186,67.2272644 66.3778687,67.0762634 66.0986328,67.0809631 C65.819397,67.0856628 65.6747742,66.9714966 65.5592957,66.8779602 C65.4438171,66.7844238 64.7814331,66.2150574 64.5346375,66.0487366 C64.2878418,65.8824158 63.6995544,65.5661926 63.5970459,65.2728577 C63.4945374,64.9795227 63.6106873,64.4706726 63.5970459,64.3249512 C63.5834045,64.1792297 63.5265808,63.9793091 63.5970459,63.7579346 C63.667511,63.5365601 63.7631226,63.2109375 63.788208,63.0855103 C63.8132935,62.960083 63.8101196,62.6065369 63.849762,62.5932922 Z" id="路径-573" fill="#8D2626"></path>
                <path d="M66.1051273,67.5163612 C66.4316172,67.421679 66.493791,67.3985834 66.5087089,67.3067806 C66.5323133,67.1615231 66.4297847,67.0287573 66.2289934,66.9913302 L66.09695,66.9809773 C65.8946396,66.9843823 65.7891883,66.9354819 65.6222373,66.8002534 L65.0728024,66.3416203 L64.6767186,66.0272477 L64.5905233,65.9658102 C64.5508145,65.9390497 64.2602152,65.7570016 64.1684164,65.6952986 C63.96338,65.5574828 63.8206484,65.4385646 63.7421539,65.3312066 C63.7180536,65.2982442 63.7011493,65.26763 63.6914476,65.2398681 C63.661697,65.1547348 63.6506645,65.0370879 63.6554494,64.8885285 L63.6989462,64.3431778 L63.6801212,64.1900896 C63.6546258,64.0126394 63.6541994,63.9080733 63.692335,63.7882658 L63.8648786,63.1969093 L63.8945158,63.0527103 L63.9147566,62.7609374 C63.9138695,62.7175495 63.9064965,62.6797707 63.8814504,62.6881386 C64.1400234,62.6017486 64.3729332,62.4044917 64.3107906,62.0864451 C64.2446599,61.7479874 64.062105,61.643607 63.7745285,61.6833192 C63.5139259,61.7193066 63.2706631,62.0986329 63.3654287,62.3749961 C63.3931102,62.4557231 63.4081887,62.5736417 63.4120234,62.7207234 L63.4123038,62.875857 L63.4001958,63.1658142 L63.3622208,63.3656686 C63.3344624,63.4808122 63.3042308,63.5932794 63.3196004,63.5883141 L63.1606107,63.531414 L63.1039709,63.5002209 C62.9491001,63.3828761 62.5304435,63.3679616 62.5095127,63.5696007 L62.5157563,63.6712967 L62.5461842,63.8429762 C62.5514338,63.8997105 62.544992,63.9386962 62.5268017,63.9649291 L62.4968473,64.0009508 L62.3678621,64.1150971 C62.2590532,64.2057431 62.1959998,64.2676014 62.1590559,64.3368557 L62.1300876,64.4099154 C62.0919369,64.5472787 61.8276218,64.9334472 61.7232515,65.0080699 L61.6025316,65.0873352 C61.4218248,65.2059386 61.3383154,65.2964417 61.3600582,65.4357682 C61.3758306,65.5368367 61.4233483,65.6056817 61.5057946,65.626459 C61.545127,65.6363711 61.5833011,65.6339982 61.6270645,65.6216563 L61.745533,65.5812881 L61.7927696,65.5704737 C61.9617864,65.5334784 62.0272927,65.50345 62.0459601,65.3890615 C62.0515946,65.3545346 62.2071965,65.1440376 62.4801413,64.8199746 C62.470515,64.8924847 62.5067381,64.9492607 62.4939498,65.0379429 C62.4608677,65.2673555 62.3047954,65.4941496 61.8851653,65.8266179 L61.6375813,66.0172299 C61.6043747,66.0413691 61.5731202,66.0631782 61.5407029,66.0848841 L61.2014999,66.3004194 L61.0299544,66.435713 L60.5986179,66.8309594 L60.5287434,66.887913 L60.2573749,66.9628599 C59.9685612,67.0441884 59.8218804,67.1366238 59.8857031,67.3231195 C59.9700241,67.569513 60.6043082,67.6427887 60.7358079,67.4982289 L60.7830497,67.432031 C60.8220076,67.3661001 60.8441369,67.3330625 60.8830588,67.2997988 L61.0417203,67.1947373 L62.6508138,66.3520112 L62.8292255,66.2455748 C62.9337269,66.1764908 62.9960151,66.1475808 63.05009,66.1418381 C63.1260349,66.1337729 63.1950441,66.159099 63.4219062,66.2934425 L63.5782841,66.3877357 C63.7562249,66.4963111 63.8576068,66.5481009 64.0134547,66.6084224 L64.2671978,66.7016455 C64.3441576,66.7317193 64.4080129,66.7637697 64.4801389,66.8106512 L65.1280135,67.2473628 C65.1997105,67.2992596 65.2494337,67.3382684 65.2714341,67.360724 L65.3008009,67.398354 L65.4142154,67.588696 C65.4518424,67.6407242 65.4948607,67.675049 65.5474855,67.6724813 L66.1051273,67.5163612 Z M63.8018875,61.8814391 C63.9919916,61.8551871 64.0706063,61.900137 64.1145023,62.1247976 C64.1498738,62.3058289 63.990439,62.440858 63.8180735,62.4984458 C63.7565786,62.5189915 63.7391968,62.5095987 63.7269368,62.6177223 L63.6901499,63.0658986 L63.5963095,63.4176264 C63.5667604,63.5186876 63.5337114,63.627214 63.5017568,63.7276034 C63.468696,63.8314677 63.4579115,63.9239127 63.4631235,64.0347518 L63.4982038,64.3771748 L63.4768034,64.5987526 C63.464981,64.7132023 63.4582893,64.7971347 63.455553,64.8820901 C63.4500446,65.0531139 63.4631458,65.1928201 63.5026441,65.3058472 C63.5193664,65.353699 63.5456621,65.4013213 63.5807047,65.4492496 C63.652605,65.5475887 63.7590249,65.6458621 63.9018359,65.7520987 L64.4787516,66.1316629 L64.6661672,66.270862 L65.496354,66.955667 C65.6463782,67.0771851 65.7658866,67.1455911 65.9251702,67.1703663 L66.1003156,67.180949 C66.2680859,67.1781253 66.3186189,67.2296521 66.3112984,67.2747014 C66.3140493,67.2577727 66.2882888,67.2577979 66.2501501,67.2657308 L65.57,67.46 L65.5125098,67.3623793 C65.4756315,67.2968301 65.4481508,67.2553133 65.4142959,67.220758 C65.3323221,67.1370881 65.022691,66.9247705 64.589136,66.6429621 L64.466444,66.5717228 L64.2591244,66.4854972 C64.0613726,66.4154079 63.9612563,66.3759333 63.8295207,66.3031973 L63.4028099,66.0514588 C63.2192497,65.9496279 63.1408884,65.9310709 63.0289691,65.9429565 C62.9664975,65.9495909 62.906895,65.9698008 62.8358558,66.0078203 L62.5472035,66.1808176 L60.8490732,67.0780145 C60.7643089,67.1332322 60.719006,67.1722615 60.67668,67.2286031 L60.6108631,67.3302874 C60.5979459,67.351397 60.5979459,67.351397 60.5878615,67.3636486 C60.5526161,67.4023945 60.1065861,67.3508668 60.0865724,67.2445093 L60.1494581,67.2111746 L60.3159235,67.1554088 L60.581165,67.0788338 L60.6361682,67.0566082 L60.7946838,66.9233458 L61.0587166,66.6773921 C61.131375,66.6114361 61.1924614,66.558763 61.2452939,66.5171749 L61.4114483,66.4024551 L61.652494,66.2507422 C61.7199206,66.2055879 61.7827615,66.1598809 61.8660258,66.0957138 L62.0093659,65.9833796 C62.4656831,65.6218445 62.6505579,65.3531964 62.6919022,65.0664883 C62.7183392,64.8831571 62.6283823,64.7421589 62.4426661,64.663477 C62.0119807,65.0653537 61.8633224,65.2664574 61.8485712,65.3568492 L61.6726844,65.3934649 L61.5546683,65.4325225 C61.5622276,65.4344275 61.562282,65.4345063 61.5576664,65.4049301 C61.554541,65.3849027 61.5793971,65.3521113 61.6397748,65.3056247 L61.8395739,65.1707631 C61.9533084,65.0894453 62.162202,64.8012184 62.2669109,64.5966433 L62.3227933,64.4634366 C62.3320148,64.4302339 62.3559315,64.3963785 62.4041413,64.3497644 L62.5847858,64.1934209 C62.6310697,64.1522248 62.6650586,64.1165285 62.6911549,64.0788942 C62.7407005,64.0074426 62.7545185,63.9238155 62.7453335,63.8245491 L62.7084438,63.5902504 C62.7062366,63.6115142 62.9302149,63.6194933 62.9831873,63.6596302 C63.0848178,63.7366351 63.3088821,63.8019544 63.3810832,63.7786293 C63.4560671,63.7544051 63.5518299,63.4884066 63.5868885,63.2861823 L63.605566,63.063737 C63.6122072,62.9279696 63.6147346,62.8221047 63.6119555,62.7155108 C63.607636,62.5498375 63.5902849,62.4141463 63.5546153,62.3101236 C63.5012664,62.1545432 63.6642166,61.9004505 63.8018875,61.8814391 Z" id="路径-573" fill="#5E1D1D" fill-rule="nonzero"></path>
                <path d="M43.4555054,70.7468872 C43.0806274,70.5950724 42.8766683,70.3154907 42.8436279,69.9081421 C42.7940674,69.2971191 42.8168945,68.1407899 42.4356079,67.5671906 C42.0543213,66.9935913 41.1879883,66.0697021 39.7296143,66.1955566 C38.2712402,66.3214111 37.5263672,67.0545472 36.7828369,67.5671906 C36.0393066,68.079834 34.7338257,69.4260254 34.5023193,69.6569214 C34.3240582,69.8347125 33.7724793,70.1926516 33.2936754,70.3265493 C33.2417276,70.285735 32.8088557,69.9863544 32.5756226,69.9887695 C32.177062,69.9928966 31.8166262,70.1489565 31.3988037,70.270813 C31.2220418,70.322365 30.1548462,68.9623413 29.0411377,67.7827759 C28.7033129,67.4249745 25.866089,65.1322633 26.0333252,65.4539795 C26.4387817,65.861084 27.5153809,66.7628784 28.6036377,67.8170166 C29.5004321,68.685695 30.1455115,69.4158388 30.4349365,69.9050293 C30.4956557,70.0076578 30.8947754,70.147522 30.7418213,70.2783813 C30.5888672,70.4092407 29.7062191,70.4020481 29.7047729,70.4019165 C29.7236162,70.4948711 30.9418653,70.5636062 31.4112549,70.4821777 C31.6015014,70.4491743 32.0637338,70.1769691 32.4175415,70.1970825 C32.9366728,70.2265943 33.3553191,70.5623654 33.4309448,70.5525497 C33.7190478,70.5151561 34.0351995,70.4009712 34.138916,70.3314209 C34.3364258,70.1989746 35.6790161,68.794593 36.2578735,68.2250366 C36.836731,67.6554802 37.9766235,66.8017578 39.1431885,66.5004883 C40.3097534,66.1992187 41.272522,66.5597534 41.9520874,67.216584 C42.6316528,67.8734147 42.647522,68.9448853 42.6445923,69.2250366 C42.6416626,69.505188 42.6886597,70.1657715 42.7107544,70.4521484 C42.7254842,70.6430664 42.8251139,70.8758711 43.0096436,71.1505624 L43.4555054,70.7468872 Z" id="路径-577" fill="#9A9A9A" opacity="0.5"></path>
                <path d="M53.4067688,57.6139832 C53.7136841,57.6205139 53.9891663,57.8162537 53.9955139,58.193634 C54.0018616,58.5710144 53.65802,58.7747192 53.4163513,58.7745972 C53.1746826,58.7744751 52.8539124,58.644043 52.8253479,58.2556152 C52.7967834,57.8671875 53.0998535,57.6074524 53.4067688,57.6139832 Z M53.4168564,57.7745973 C53.1874664,57.7744814 52.9911297,57.941392 52.9956553,58.210452 C52.9992303,58.4229896 53.2076356,58.6099722 53.3854949,58.6137568 C53.6369041,58.6191065 53.8395893,58.4125541 53.8226549,58.1822746 C53.8042717,57.9322955 53.5829821,57.7746812 53.4168564,57.7745973 Z M49.8679199,57.1759338 C50.1748352,57.1824646 50.4503174,57.3782043 50.456665,57.7555847 C50.4630127,58.1329651 50.1191711,58.3366699 49.8775024,58.3365479 C49.6358337,58.3364258 49.3150635,58.2059937 49.286499,57.8175659 C49.2579346,57.4291382 49.5610046,57.1694031 49.8679199,57.1759338 Z M49.8780076,57.336548 C49.6486175,57.3364321 49.4522808,57.5033426 49.4568065,57.7724027 C49.4603814,57.9849403 49.6687867,58.1719229 49.846646,58.1757075 C50.0980552,58.1810572 50.3007404,57.9745048 50.283806,57.7442253 C50.2654228,57.4942462 50.0441332,57.3366319 49.8780076,57.336548 Z M55.3835449,55.539978 C55.6904602,55.5465088 55.9659424,55.7422485 55.97229,56.1196289 C55.9786377,56.4970093 55.6347961,56.7007141 55.3931274,56.700592 C55.1514587,56.70047 54.8306885,56.5700378 54.802124,56.1816101 C54.7735596,55.7931824 55.0766296,55.5334473 55.3835449,55.539978 Z M58.7801514,55.4874268 C59.0870667,55.4939575 59.3625488,55.6896973 59.3688965,56.0670776 C59.3752441,56.444458 59.0314026,56.6481628 58.7897339,56.6480408 C58.5480652,56.6479187 58.2272949,56.5174866 58.1987305,56.1290588 C58.170166,55.7406311 58.4732361,55.480896 58.7801514,55.4874268 Z M55.3936326,55.7005922 C55.1642425,55.7004763 54.9679058,55.8673868 54.9724315,56.1364468 C54.9760064,56.3489845 55.1844117,56.5359671 55.362271,56.5397517 C55.6136802,56.5451014 55.8163654,56.3385489 55.799431,56.1082695 C55.7810478,55.8582904 55.5597582,55.7006761 55.3936326,55.7005922 Z M58.790239,55.6480409 C58.5608489,55.647925 58.3645122,55.8148356 58.3690379,56.0838956 C58.3726129,56.2964332 58.5810181,56.4834158 58.7588775,56.4872004 C59.0102867,56.4925501 59.2129719,56.2859977 59.1960374,56.0557182 C59.1776543,55.8057391 58.9563647,55.6481248 58.790239,55.6480409 Z M51.9972534,55.2722473 C52.3041687,55.2787781 52.5796509,55.4745178 52.5859985,55.8518982 C52.5923462,56.2292786 52.2485046,56.4329834 52.0068359,56.4328613 C51.7651672,56.4327393 51.444397,56.3023071 51.4158325,55.9138794 C51.3872681,55.5254517 51.6903381,55.2657166 51.9972534,55.2722473 Z M52.0073411,55.4328615 C51.777951,55.4327456 51.5816143,55.5996561 51.58614,55.8687161 C51.5897149,56.0812538 51.7981202,56.2682364 51.9759795,56.272021 C52.2273887,56.2773707 52.4300739,56.0708182 52.4131395,55.8405388 C52.3947563,55.5905597 52.1734667,55.4329454 52.0073411,55.4328615 Z M48.387207,54.9577637 C48.6941223,54.9642944 48.9696045,55.1600342 48.9759521,55.5374146 C48.9822998,55.9147949 48.6384583,56.1184998 48.3967896,56.1183777 C48.1551208,56.1182556 47.8343506,55.9878235 47.8057861,55.5993958 C47.7772217,55.210968 48.0802917,54.9512329 48.387207,54.9577637 Z M48.3972947,55.1183778 C48.1679046,55.1182619 47.9715679,55.2851725 47.9760936,55.5542325 C47.9796685,55.7667701 48.1880738,55.9537527 48.3659331,55.9575374 C48.6173424,55.962887 48.8200275,55.7563346 48.8030931,55.5260551 C48.78471,55.2760761 48.5634203,55.1184617 48.3972947,55.1183778 Z M60.8864746,53.40625 C61.1933899,53.4127808 61.4688721,53.6085205 61.4752197,53.9859009 C61.4815674,54.3632813 61.1377258,54.5669861 60.8960571,54.566864 C60.6543884,54.5667419 60.3336182,54.4363098 60.3050537,54.0478821 C60.2764893,53.6594543 60.5795593,53.3997192 60.8864746,53.40625 Z M60.8965622,53.5668641 C60.6671722,53.5667483 60.4708355,53.7336588 60.4753612,54.0027188 C60.4789361,54.2152564 60.6873414,54.4022391 60.8652007,54.4060237 C61.1166099,54.4113733 61.3192951,54.2048209 61.3023607,53.9745415 C61.2839775,53.7245624 61.0626879,53.5669481 60.8965622,53.5668641 Z M57.2615356,53.0950928 C57.5684509,53.1016235 57.8439331,53.2973633 57.8502808,53.6747437 C57.8566284,54.052124 57.5127869,54.2558289 57.2711182,54.2557068 C57.0294495,54.2555847 56.7086792,54.1251526 56.6801147,53.7367249 C56.6515503,53.3482971 56.9546204,53.088562 57.2615356,53.0950928 Z M54.2063599,53.0480042 C54.5132751,53.0545349 54.7887573,53.2502747 54.795105,53.627655 C54.8014526,54.0050354 54.4576111,54.2087402 54.2159424,54.2086182 C53.9742737,54.2084961 53.6535034,54.078064 53.624939,53.6896362 C53.5963745,53.3012085 53.8994446,53.0414734 54.2063599,53.0480042 Z M57.2716233,53.2557069 C57.0422332,53.255591 56.8458965,53.4225016 56.8504222,53.6915616 C56.8539971,53.9040992 57.0624024,54.0910818 57.2402617,54.0948665 C57.491671,54.1002161 57.6943561,53.8936637 57.6774217,53.6633842 C57.6590386,53.4134052 57.4377489,53.2557908 57.2716233,53.2557069 Z M54.2164475,53.2086183 C53.9870574,53.2085024 53.7907207,53.3754129 53.7952464,53.644473 C53.7988214,53.8570106 54.0072266,54.0439932 54.185086,54.0477778 C54.4364952,54.0531275 54.6391804,53.8465751 54.6222459,53.6162956 C54.6038628,53.3663165 54.3825732,53.2087022 54.2164475,53.2086183 Z M50.7202759,52.8131104 C51.0271912,52.8196411 51.3026733,53.0153809 51.309021,53.3927612 C51.3153687,53.7701416 50.9715271,53.9738464 50.7298584,53.9737244 C50.4881897,53.9736023 50.1674194,53.8431702 50.138855,53.4547424 C50.1102905,53.0663147 50.4133606,52.8065796 50.7202759,52.8131104 Z M50.7303635,52.9737245 C50.5009734,52.9736086 50.3046368,53.1405192 50.3091624,53.4095792 C50.3127374,53.6221168 50.5211426,53.8090994 50.699002,53.812884 C50.9504112,53.8182337 51.1530964,53.6116813 51.1361619,53.3814018 C51.1177788,53.1314227 50.8964892,52.9738084 50.7303635,52.9737245 Z M43.7964478,52.5311279 C44.103363,52.5376587 44.3788452,52.7333984 44.3851929,53.1107788 C44.3915405,53.4881592 44.047699,53.691864 43.8060303,53.6917419 C43.5643616,53.6916199 43.2435913,53.5611877 43.2150269,53.17276 C43.1864624,52.7843323 43.4895325,52.5245972 43.7964478,52.5311279 Z M47.3347168,52.4247131 C47.6416321,52.4312439 47.9171143,52.6269836 47.9234619,53.004364 C47.9298096,53.3817444 47.585968,53.5854492 47.3442993,53.5853271 C47.1026306,53.5852051 46.7818604,53.4547729 46.7532959,53.0663452 C46.7247314,52.6779175 47.0278015,52.4181824 47.3347168,52.4247131 Z M43.8065354,52.6917421 C43.5771453,52.6916262 43.3808086,52.8585367 43.3853343,53.1275967 C43.3889093,53.3401344 43.5973145,53.527117 43.7751739,53.5309016 C44.0265831,53.5362513 44.2292682,53.3296988 44.2123338,53.0994194 C44.1939507,52.8494403 43.9726611,52.691826 43.8065354,52.6917421 Z M47.3448044,52.5853273 C47.1154144,52.5852114 46.9190777,52.7521219 46.9236033,53.0211819 C46.9271783,53.2337196 47.1355836,53.4207022 47.3134429,53.4244868 C47.5648521,53.4298365 47.7675373,53.2232841 47.7506028,52.9930046 C47.7322197,52.7430255 47.5109301,52.5854112 47.3448044,52.5853273 Z M40.3556519,52.2634277 C40.6625671,52.2699585 40.9380493,52.4656982 40.944397,52.8430786 C40.9507446,53.220459 40.6069031,53.4241638 40.3652344,53.4240417 C40.1235657,53.4239197 39.8027954,53.2934875 39.774231,52.9050598 C39.7456665,52.5166321 40.0487366,52.256897 40.3556519,52.2634277 Z M40.3657395,52.4240419 C40.1363494,52.423926 39.9400127,52.5908365 39.9445384,52.8598965 C39.9481134,53.0724342 40.1565186,53.2594168 40.334378,53.2632014 C40.5857872,53.2685511 40.7884723,53.0619987 40.7715379,52.8317192 C40.7531548,52.5817401 40.5318652,52.4241258 40.3657395,52.4240419 Z M37.2463379,51.8727417 C37.5532532,51.8792725 37.8287354,52.0750122 37.835083,52.4523926 C37.8414307,52.8297729 37.4975891,53.0334778 37.2559204,53.0333557 C37.0142517,53.0332336 36.6934814,52.9028015 36.664917,52.5143738 C36.6363525,52.125946 36.9394226,51.8662109 37.2463379,51.8727417 Z M37.2564255,52.0333558 C37.0270355,52.03324 36.8306988,52.2001505 36.8352244,52.4692105 C36.8387994,52.6817481 37.0472047,52.8687308 37.225064,52.8725154 C37.4764732,52.877865 37.6791584,52.6713126 37.6622239,52.4410332 C37.6438408,52.1910541 37.4225512,52.0334398 37.2564255,52.0333558 Z M34.0979004,51.6522827 C34.4048157,51.6588135 34.6802979,51.8545532 34.6866455,52.2319336 C34.6929932,52.609314 34.3491516,52.8130188 34.1074829,52.8128967 C33.8658142,52.8127747 33.5450439,52.6823425 33.5164795,52.2939148 C33.487915,51.9054871 33.7909851,51.645752 34.0979004,51.6522827 Z M34.107988,51.8128969 C33.878598,51.812781 33.6822613,51.9796915 33.6867869,52.2487515 C33.6903619,52.4612892 33.8987672,52.6482718 34.0766265,52.6520564 C34.3280357,52.6574061 34.5307209,52.4508536 34.5137864,52.2205742 C34.4954033,51.9705951 34.2741137,51.8129808 34.107988,51.8128969 Z M52.9185181,50.5611572 C53.2254333,50.567688 53.5009155,50.7634277 53.5072632,51.1408081 C53.5136108,51.5181885 53.1697693,51.7218933 52.9281006,51.7217712 C52.6864319,51.7216492 52.3656616,51.591217 52.3370972,51.2027893 C52.3085327,50.8143616 52.6116028,50.5546265 52.9185181,50.5611572 Z M49.5092773,50.4394531 C49.8161926,50.4459839 50.0916748,50.6417236 50.0980225,51.019104 C50.1043701,51.3964844 49.7605286,51.6001892 49.5188599,51.6000671 C49.2771912,51.5999451 48.9564209,51.4695129 48.9278564,51.0810852 C48.899292,50.6926575 49.2023621,50.4329224 49.5092773,50.4394531 Z M56.1361694,50.4063721 C56.4430847,50.4129028 56.7185669,50.6086426 56.7249146,50.9860229 C56.7312622,51.3634033 56.3874207,51.5671082 56.145752,51.5669861 C55.9040833,51.566864 55.583313,51.4364319 55.5547485,51.0480042 C55.5261841,50.6595764 55.8292542,50.3998413 56.1361694,50.4063721 Z M52.9286057,50.7217714 C52.6992156,50.7216555 52.5028789,50.888566 52.5074046,51.157626 C52.5109796,51.3701637 52.7193848,51.5571463 52.8972442,51.5609309 C53.1486534,51.5662806 53.3513386,51.3597281 53.3344041,51.1294487 C53.316021,50.8794696 53.0947314,50.7218553 52.9286057,50.7217714 Z M42.7324829,50.3599243 C43.0393982,50.3664551 43.3148804,50.5621948 43.321228,50.9395752 C43.3275757,51.3169556 42.9837341,51.5206604 42.7420654,51.5205383 C42.5003967,51.5204163 42.1796265,51.3899841 42.151062,51.0015564 C42.1224976,50.6131287 42.4255676,50.3533936 42.7324829,50.3599243 Z M49.519365,50.6000673 C49.2899749,50.5999514 49.0936382,50.7668619 49.0981639,51.0359219 C49.1017388,51.2484596 49.3101441,51.4354422 49.4880034,51.4392268 C49.7394127,51.4445765 49.9420978,51.238024 49.9251634,51.0077446 C49.9067803,50.7577655 49.6854906,50.6001512 49.519365,50.6000673 Z M56.1462571,50.5669862 C55.916867,50.5668703 55.7205303,50.7337809 55.725056,51.0028409 C55.7286309,51.2153785 55.9370362,51.4023611 56.1148955,51.4061458 C56.3663048,51.4114954 56.5689899,51.204943 56.5520555,50.9746635 C56.5336724,50.7246845 56.3123827,50.5670701 56.1462571,50.5669862 Z M46.2352295,50.2336731 C46.5421448,50.2402039 46.817627,50.4359436 46.8239746,50.813324 C46.8303223,51.1907043 46.4864807,51.3944092 46.244812,51.3942871 C46.0031433,51.394165 45.682373,51.2637329 45.6538086,50.8753052 C45.6252441,50.4868774 45.9283142,50.2271423 46.2352295,50.2336731 Z M42.7425705,50.5205385 C42.5131805,50.5204226 42.3168438,50.6873331 42.3213695,50.9563931 C42.3249444,51.1689308 42.5333497,51.3559134 42.711209,51.359698 C42.9626182,51.3650477 43.1653034,51.1584952 43.148369,50.9282158 C43.1299858,50.6782367 42.9086962,50.5206224 42.7425705,50.5205385 Z M46.2453171,50.3942872 C46.0159271,50.3941714 45.8195904,50.5610819 45.824116,50.8301419 C45.827691,51.0426795 46.0360963,51.2296622 46.2139556,51.2334468 C46.4653648,51.2387964 46.66805,51.032244 46.6511155,50.8019646 C46.6327324,50.5519855 46.4114428,50.3943711 46.2453171,50.3942872 Z" id="形状结合" fill="#5A5A5A" fill-rule="nonzero"></path>
                <path d="M60.9816895,34.0645752 C61.184082,33.5511475 62.8405605,32.9629517 63.7229841,33.0700073 C64.6054077,33.177063 65.333252,33.3358154 65.9855347,33.3921509 C66.6378174,33.4484863 67.601155,33.4369812 68.2184448,33.6243591 C68.8357346,33.8117371 70.8690186,34.3013306 72.3526001,35.1046753 C73.8361816,35.90802 75.3834839,36.6415405 76.1725159,36.9080811 C76.9615479,37.1746216 78.5437012,37.3387146 78.8840332,36.9611511 C79.2243652,36.5835876 80.5102539,34.7912932 80.5113525,34.6890121 C80.5124512,34.586731 80.5665283,34.3040161 80.5929565,34.4031982 C80.6193848,34.5023804 80.7793579,34.7562509 80.5929565,35.2560246 C80.4065552,35.7557983 79.3966064,38.0459595 78.3710327,38.204895 C77.345459,38.3638306 78.2893677,38.7660845 78.0102539,38.748887 C77.7311401,38.7316895 76.7365723,38.0196533 75.7494507,37.5441284 C74.7623291,37.0686035 73.4164825,36.4131923 72.2862136,36.1800764 C71.1559448,35.9469604 70.567627,36.0678278 70.0505371,35.9056485 C69.5334473,35.7434692 67.2972412,35.0449829 66.598938,34.8243408 C65.9006348,34.6036987 65.5002441,34.4978638 64.9046631,34.4030762 C64.309082,34.3082886 63.2659912,34.1741294 62.4356689,34.2108745 C61.6053467,34.2476196 60.7792969,34.5780029 60.9816895,34.0645752 Z" id="路径-585" fill="#4E4C4C"></path>
            </g>
        </g>
    </g>
</svg>