<?xml version="1.0" encoding="UTF-8"?>
<svg width="96px" height="96px" viewBox="0 0 96 96" version="1.1" xmlns="http://www.w3.org/2000/svg" xmlns:xlink="http://www.w3.org/1999/xlink">
    <title>Air Huarache Gripp QS</title>
    <defs>
        <rect id="path-1" x="0" y="0" width="96" height="96"></rect>
    </defs>
    <g id="icon" stroke="none" stroke-width="1" fill="none" fill-rule="evenodd">
        <g id="画板" transform="translate(-390.000000, -406.000000)">
            <g id="Air-Huarache-Gripp-QS" transform="translate(390.000000, 406.000000)">
                <g id="#" opacity="0">
                    <use fill="#FFFFFF" fill-rule="evenodd" xlink:href="#path-1"></use>
                    <rect stroke-opacity="0.5" stroke="#DDDDDD" stroke-width="6" stroke-linejoin="square" x="3" y="3" width="90" height="90"></rect>
                    <rect stroke-opacity="0.507785184" stroke="#DDDDDD" stroke-width="12" stroke-linejoin="square" x="6" y="6" width="84" height="84"></rect>
                    <rect stroke-opacity="0.319406703" stroke="#979797" stroke-width="10" stroke-linejoin="square" x="5" y="5" width="86" height="86"></rect>
                </g>
                <path d="M69.765332,29.6859375 L70.5085794,29.9438128 C72.1393738,30.5276886 73.0380859,30.9775146 73.0380859,31.099707 L73.0380859,31.6712891 C73.369401,31.1705078 73.6795247,30.9799805 73.968457,31.099707 C74.3685171,31.2654823 74.9809293,31.9357601 75.0727793,33.2647736 L75.0844727,33.6108398 C75.0844727,35.1707031 75.5099609,36.8488281 75.9685547,37.547168 C76.4271484,38.2455078 78.4254883,40.6081055 78.6546875,41.9742187 C78.8838867,43.340332 78.5892578,44.3422852 77.6203125,44.7516602 C76.6513672,45.1610352 75.9716797,45.0333008 75.6693359,45.0333008 C75.4677734,45.0333008 75.3769857,45.1554036 75.3969727,45.3996094 C75.5950846,46.4451823 75.785612,47.5602214 75.9685547,48.7447266 C76.2429688,50.5214844 78.6896484,53.9931641 79.3082031,54.8714844 C79.7205729,55.4570313 80.2958984,56.1146484 81.0341797,56.8443359 L73.8157009,61.2941866 C71.6026831,62.6447495 70.4470588,63.3261795 70.3488281,63.3384766 L22.4824219,65.3689453 L22.4824219,65.3689453 L10.8914063,64.4304688 L10.575,63.3384766 L10.575,62.1109375 C10.9576823,60.4992188 11.989388,59.4139974 13.6701172,58.8552734 C16.1912109,58.0171875 22.4498047,56.8855469 24,56.3917969 C25.5501953,55.8980469 31.109375,53.4197266 33.9050781,51.68125 L34.3421559,51.3978265 C37.7794317,49.0971288 48.8721413,40.3083363 50.1738281,35.3195313 L50.4433818,34.3351902 C51.6432162,30.1743902 52.6810295,29.5677921 54.1887166,29.5297708 L54.3582031,29.5277344 C56.0730469,29.5277344 60.4125,29.9234375 61.0175781,29.9234375 C61.6226563,29.9234375 62.8826172,29.2979492 64.0457031,29.1462891 C65.2087891,28.9946289 67.6664063,28.9793945 69.765332,29.6859375 Z M73.7035156,33.0499023 C73.771224,33.3135091 73.8146159,33.5583391 73.8336914,33.7843923 C73.8623047,34.1234721 73.8602539,35.2782227 73.8336914,36.0271484 C74.033431,36.4406033 74.2790811,37.756373 74.3021231,38.3773099 L74.2796513,39.1573142 C74.2626674,40.1576603 74.2727958,42.0264997 74.2998047,42.7019531 C74.3227214,43.2750651 74.464388,43.9386393 74.7248047,44.6926758 L75.5201936,44.3332031 L75.5201936,44.3332031 C75.6936098,44.2488281 77.0257813,44.4141602 77.2898438,44.3332031 C77.5539062,44.2522461 77.2915039,43.5780273 77.2898438,42.5708008 C77.2881836,41.5635742 75.9765625,39.1530273 75.3727539,38.1064453 C74.8192627,37.1470785 74.3905823,35.2936035 74.312298,34.5264926 L74.2998047,34.3457031 C74.2905599,33.9433594 74.0917969,33.5114258 73.7035156,33.0499023 Z" id="形状" fill="#DCD3C4"></path>
                <path d="M62.5878785,29.5056501 L63.0997314,29.5559082 C66.3530273,29.8271484 73.0340576,32.3566895 73.5703457,32.6082031 C73.9278712,32.7758789 74.0951733,33.167942 74.0722522,33.7843923 L74.0756528,33.5843039 C73.9813302,33.4108108 73.8572845,33.2326769 73.7035156,33.0499023 C73.771224,33.3135091 73.8146159,33.5583391 73.8336914,33.7843923 C73.8623047,34.1234721 73.8602539,35.2782227 73.8336914,36.0271484 C73.9739469,36.3174731 74.1368397,37.0527054 74.2294,37.6798612 C70.5695361,35.4760195 67.79618,34.2806138 65.9072266,34.0893555 L65.0380618,34.0186883 C62.7682697,33.8639949 57.9855653,33.6990236 50.6899485,33.5237746 C51.7408179,30.242578 52.6981608,29.616592 54.0078909,29.5373812 L54.3582031,29.5277344 L54.9795606,29.5399649 C56.9452378,29.6066558 60.4761924,29.9234375 61.0175781,29.9234375 C61.3691099,29.9234375 61.9416812,29.7123194 62.5878785,29.5056501 Z" id="路径" fill="#ECE7DD"></path>
                <path d="M69.765332,29.6859375 L70.567917,29.9656294 L69.5491255,29.7873019 C68.5984124,29.6300852 67.8519347,29.5362013 67.3096924,29.5056501 L65.8809796,29.4358737 C64.8939357,29.4007975 63.9250329,29.4060059 63.4979397,29.5559082 C63.1785938,29.6861979 62.7820231,29.7921143 62.3082275,29.8736572 L64.8437158,30.164458 C65.8807666,30.2935889 66.5717773,30.3983154 66.916748,30.4786377 C67.655971,30.6507568 68.4543613,31.0200918 68.9852639,31.2129664 L70.308168,31.6512205 C70.9525057,31.8728721 71.8624783,32.1918663 73.0380859,32.6082031 C73.1696777,32.7377116 72.9765218,32.7377116 72.4586182,32.6082031 C71.6817627,32.4139404 68.3842554,31.2007043 67.7536511,31.0616559 L67.4193832,30.9997226 C66.295899,30.8090952 63.1814468,30.3737496 61.847921,30.2278081 L61.6060791,30.2026367 C60.3109131,30.0766602 57.1090088,29.9047852 56.3994141,29.8736572 L55.7707926,29.8598226 C55.2480062,29.855211 54.5178087,29.8598226 53.5802002,29.8736572 L53.2365222,29.6744236 L53.2365222,29.6744236 C53.5361433,29.5754165 53.8506153,29.5382972 54.1887166,29.5297708 L54.3582031,29.5277344 C56.0730469,29.5277344 60.4125,29.9234375 61.0175781,29.9234375 C61.6226563,29.9234375 62.8826172,29.2979492 64.0457031,29.1462891 C65.2087891,28.9946289 67.6664063,28.9793945 69.765332,29.6859375 Z" id="路径" fill="#F9F6F1"></path>
                <path d="M40.8327599,55.9641113 C44.9237165,57.4246413 48.1232747,61.0318927 49.4102765,64.2272289 L22.4824219,65.3689453 L10.8914063,64.4304688 L10.575,63.3384766 L10.575,62.1109375 C10.9576823,60.4992188 11.989388,59.4139974 13.6701172,58.8552734 C16.1912109,58.0171875 22.4498047,56.8855469 24,56.3917969 C25.5501953,55.8980469 31.109375,53.4197266 33.9050781,51.68125 L34.3421559,51.3978265 C34.4649981,51.3156036 34.597618,51.2250939 34.7392193,51.1267671 C36.2172509,52.9395672 38.251313,55.0424979 40.8327599,55.9641113 Z" id="路径" fill="#E4E3ED"></path>
                <path d="M35.9089355,54.4044283 C36.6296744,54.3885528 37.3674937,54.4121667 38.1223936,54.47527 C38.9453823,55.0904913 39.8493516,55.6130205 40.8327599,55.9641113 C43.6564093,56.9721945 46.0553964,59.0029759 47.6939446,61.2151256 C44.050416,61.9414053 38.6395624,62.3971803 35.3455772,63.0422376 L34.716156,63.173909 C28.5504761,64.5582673 15.7861709,61.7778594 18.4863281,60.9033203 C21.1864853,60.0287812 29.5185547,58.4884921 31.8623047,57.7988281 C33.4248047,57.3390522 34.7736816,56.2075855 35.9089355,54.4044283 Z" id="路径" fill="#DBDAE5"></path>
                <path d="M42.4266975,44.9439393 L49.1565044,61.5732148 L42.7092285,62.5084864 C42.6133626,61.8410449 42.4839681,61.2934504 42.3210449,60.8657029 L42.2573328,60.7312167 C41.8660092,60.0324453 40.2068029,58.6417417 34.7199707,57.2121582 C32.0638292,56.5201057 30.3223629,55.4581966 29.4955718,54.0264309 C31.1200772,53.2457033 32.7488955,52.4002092 33.9050781,51.68125 L34.3421559,51.3978265 L34.939168,50.9869235 C36.6842336,49.7580933 39.6009551,47.4955755 42.4266975,44.9439393 Z" id="路径" fill="#CECAD3"></path>
                <path d="M48.6074693,60.2150669 L49.1565044,61.5732148 L42.7092285,62.5084864 C42.637393,62.0083503 42.5467312,61.5755083 42.437243,61.2099604 C44.4234521,60.8052825 46.7614148,60.4427772 48.6074693,60.2150669 Z" id="路径" fill="#A5A2AA"></path>
                <path d="M30.2984006,55.0417828 L30.4258617,54.9996068 L30.987191,54.8284955 C33.8399805,53.9976047 41.8769061,52.0871679 44.1554752,52.3249813 C46.0566515,52.5234063 46.8411545,54.3244312 46.5089844,57.7280559 C43.873112,57.9633884 41.7088216,57.9889685 40.0161133,57.8047962 C37.880399,57.5724234 32.6423696,55.9613969 30.6984502,55.3932288 C30.5580211,55.2805263 30.42388,55.1629057 30.2984006,55.0417828 Z" id="路径" fill="#BEBAC3"></path>
                <path d="M57.8705777,38.083252 C58.3759766,38.4396973 62.4417231,40.7614746 65.8818359,40.7634382 C69.3219488,40.7653809 73.7653809,40.2231445 73.5637207,38.9838867 C73.3620605,37.7446289 71.8737793,35.5151367 68.6523437,35.6201172 C65.4309082,35.7250977 57.7853065,35.3278809 57.3640888,35.6201172 C56.9428711,35.9123535 57.3651788,37.7268066 57.8705777,38.083252 Z" id="路径-600" fill="#DDD2C6"></path>
                <path d="M61.9422378,33.5332824 C63.8110123,33.579905 65.7314638,33.6717356 66.5690918,33.920166 C67.9930595,34.3424978 60.0690918,36.3037109 59.5515137,37.8725586 C59.1297833,39.1508789 61.4044305,39.4727025 63.8790348,39.7728479 L65.5679438,39.9851074 C68.5582509,40.4006348 69.8955078,39.9096492 71.5654297,39.2260742 C73.2353516,38.5424992 73.7053223,40.1472168 73.7035156,41.7123135 C73.701709,43.2774103 72.8054199,45.7346191 73.0380859,47.2153433 C73.1980743,48.2335352 75.4858266,50.5753298 77.4534969,52.0486599 L77.8990878,52.7739733 C78.3208921,53.4420133 78.5665911,54.4635099 78.4441484,55.3719691 C78.3946115,55.7395061 80.8044712,56.9255774 80.6217041,57.2252197 C79.9129888,58.3871419 75.3745056,59.5605757 70.5041932,60.7143578 L69.8579102,60.8657029 L73.0347634,56.9050293 L72.4704747,56.0119307 C70.4663817,52.8860163 69.176907,51.3966878 68.6020508,51.5439453 L68.2322955,51.6329275 C67.2056399,51.8422387 65.3528406,51.7806037 61.3432617,47.5698242 C58.3138021,44.3883464 56.2377116,39.7932024 55.1149902,33.7843923 C55.8494263,33.5596793 56.800752,33.4497271 57.9689674,33.4545359 L61.9422378,33.5332824 Z" id="路径" fill="#CAC0AF"></path>
                <path d="M56.3798828,33.0499023 C58.3669434,33.2172852 64.5572324,33.4572124 66.2762969,33.7843923 C67.4223398,34.0025123 68.2143555,34.1526693 68.6523437,34.2348633 L68.3117676,34.5888672 C61.1068522,34.0227655 57.2235514,33.7397251 56.6618652,33.7397461 C55.8193359,33.7397776 54.3928223,32.8825195 56.3798828,33.0499023 Z" id="路径-599" fill="#C3AC98"></path>
                <path d="M69.765332,29.6859375 L70.5085794,29.9438128 L71.1621841,30.1852737 C72.3778076,30.6495239 73.0380859,30.9949707 73.0380859,31.099707 L73.0380859,31.6712891 C72.9663053,31.9341958 72.9486789,32.2495928 73.0347634,32.6082031 C72.8161088,32.4741211 69.3894531,31.5867187 68.2871094,31.0650553 C67.3072483,30.6013544 65.8380353,30.497646 64.4996351,30.3129718 L64.0050781,30.2390625 C63.475248,30.1524727 62.8079791,30.0739107 62.0032716,30.0033763 L61.0175781,29.9234375 L61.0175781,29.9234375 C61.6226563,29.9234375 62.8826172,29.2979492 64.0457031,29.1462891 C65.2087891,28.9946289 67.6664063,28.9793945 69.765332,29.6859375 Z" id="路径" fill="#EDE2D1"></path>
                <path d="M73.968457,31.099707 C74.3685171,31.2654823 74.9809293,31.9357601 75.0727793,33.2647736 L75.0844727,33.6108398 C75.0844727,35.1707031 75.5099609,36.8488281 75.9685547,37.547168 C76.4271484,38.2455078 78.4254883,40.6081055 78.6546875,41.9742188 C78.8838867,43.340332 78.5892578,44.3422852 77.6203125,44.7516602 C76.6513672,45.1610352 75.9716797,45.0333008 75.6693359,45.0333008 C75.5080859,45.0333008 75.4177318,45.1114466 75.3982734,45.2677383 L75.3969727,45.3996094 L75.2303633,45.6714531 C75.1615273,45.7778672 75.1143945,45.8400195 75.0889648,45.8579102 C75.0624756,45.8765462 75.0085587,45.7563909 74.9272141,45.4974442 L74.7511719,44.8814453 L74.7507634,44.6790553 L75.5201936,44.3332031 C75.6936098,44.2488281 77.0257813,44.4141602 77.2898437,44.3332031 C77.5539062,44.2522461 77.2915039,43.5780273 77.2898437,42.5708008 C77.2881836,41.5635742 75.9765625,39.1530273 75.3727539,38.1064453 C74.8192627,37.1470785 74.3905823,35.2936035 74.312298,34.5264926 L74.2998047,34.3457031 C74.2938253,34.0854716 74.2085635,33.8128616 74.0440195,33.5278731 C74.0045835,33.1385873 73.6685525,32.8743351 73.0380859,32.7338867 L73.0546658,32.2350043 C73.0588108,32.0217339 73.0567383,31.8627197 73.0484484,31.7579617 L73.0380859,31.6712891 C73.0341174,31.6493995 73.033704,31.6197473 73.0368457,31.5823323 L73.0380859,31.6712891 C73.369401,31.1705078 73.6795247,30.9799805 73.968457,31.099707 Z" id="路径" fill="#C03714"></path>
                <path d="M32.9067923,64.9312314 L30.3509766,60.0546875 L34.8717814,59.7999112 C38.0739,59.6411433 40.1647515,59.5976834 41.1443359,59.6695312 C42.5272786,59.7709635 43.6369141,60.6655599 44.4732422,62.3533203 C45.157919,63.3283391 45.5166603,64.0109935 45.5494659,64.4012835 L32.9067923,64.9312314 L32.9067923,64.9312314 Z" id="路径" fill="#BBB8C0"></path>
                <path d="M44.4732422,62.3533203 C45.157919,63.3283391 45.5166603,64.0109935 45.5494659,64.4012835 L32.9067923,64.9312314 L31.8623188,62.9479561 C34.4862884,62.697117 37.6529515,62.2505344 40.1656718,61.7153713 L41.0749512,61.5107422 C41.8341697,61.3297335 42.6957271,61.152666 43.5928073,60.9867795 C43.9152509,61.3625255 44.2079926,61.8180306 44.4732422,62.3533203 Z" id="路径" fill="#888390"></path>
                <path d="M20.4404297,59.609375 C20.1149089,60.0459635 21.2503255,60.290625 23.8466797,60.3433594 L24.8155131,65.2710328 L23.9223821,65.308518 L23.9223821,65.308518 L10.8914062,64.4304688 C10.6254157,63.4608944 10.6118021,62.4103204 10.8505652,61.2787467 C11.3587724,60.1181555 12.29824,59.3113259 13.6701172,58.8552734 C16.1396431,58.0343302 22.195335,56.9317184 23.8990368,56.4228879 L22.1654753,57.9397435 C21.2037828,58.7992848 20.6296698,59.3555661 20.4404297,59.609375 Z" id="路径" fill="#C0C0C7"></path>
                <path d="M11.8519192,59.8808964 C11.531842,60.6491363 11.3193328,62.6541 11.8549805,62.9755859 C12.3027751,63.2443441 14.5692478,63.3347439 16.5853027,63.3566714 L18.6362706,63.3580801 C19.9917329,63.3474173 22.1731901,63.3172748 24.4192639,63.2656132 L24.8155131,65.2710328 L23.9223821,65.308518 L10.8914062,64.4304688 C10.6254157,63.4608944 10.6118021,62.4103204 10.8505652,61.2787467 C11.0538481,60.8145102 11.3261326,60.4068756 11.6674924,60.0556518 L11.8519192,59.8808964 Z" id="路径" fill="#8E8EA3"></path>
                <path d="M23.8990368,56.4228879 L22.1654753,57.9397435 L21.5817364,58.4678523 C20.9676276,59.0315841 20.5876165,59.4119681 20.4404297,59.609375 C20.4058564,59.6557447 20.387763,59.6999494 20.3861496,59.7419891 C17.0626091,60.1401001 14.7591914,60.171672 13.4760742,59.8374023 C13.0034425,59.7142753 12.7133169,59.5453091 12.6056974,59.3305037 C12.9250121,59.1429395 13.2800893,58.9849302 13.6701172,58.8552734 C16.1396431,58.0343302 22.195335,56.9317184 23.8990368,56.4228879 Z" id="路径" fill="#CECED6"></path>
                <path d="M30.8783203,57.7308594 C31.5468099,57.7761719 33.0798828,59.8919271 35.4775391,64.078125 L21.8994853,65.3200559 L21.3454853,65.2760559 L19.0794922,59.9162109 L19.0794922,59.9162109 C18.936884,59.5403095 19.6619903,59.0673851 20.5231259,58.9436998 L21.6411421,58.8181017 C24.0406192,58.5163993 30.0298528,57.6733474 30.8783203,57.7308594 Z" id="路径" fill="#EFEFF1"></path>
                <path d="M35.4775391,64.078125 L21.8994853,65.3200559 L21.3454853,65.2760559 L20.1534853,62.4537552 L20.3591197,62.4476726 C25.3027615,62.2388799 29.7209681,61.7435741 33.6137394,60.9617552 L34.1852319,61.8835821 C34.5829951,62.5372468 35.0141177,63.2690126 35.4775391,64.078125 Z" id="路径" fill="#E5E3EA"></path>
                <path d="M35.4775391,64.078125 L21.8994853,65.3200559 L21.3454853,65.2760559 L20.5220234,63.3370365 L24.299325,63.2683529 C27.2054117,63.2024268 30.2426666,63.1004558 31.7563477,62.9580078 C32.6644472,62.8725493 33.6402452,62.7632032 34.6332885,62.6344879 C34.9017179,63.081226 35.1831097,63.5640649 35.4775391,64.078125 Z" id="路径" fill="#CAC7D6"></path>
                <path d="M54.4443359,37.1273437 C59.344987,35.0494792 63.1408854,33.9428385 65.8320313,33.8074219 C69.86875,33.6042969 72.3211914,34.8005859 72.8661133,35.2083984 C73.2293945,35.4802734 73.7077148,36.1448893 74.3010742,37.2022461 C74.0687826,38.2736003 73.9711914,38.9763997 74.0083008,39.3106445 C74.0639648,39.8120117 74.4796875,40.9794922 74.419043,41.4282227 C74.3786133,41.7273763 74.2416992,42.0455729 74.0083008,42.3828125 C73.5867513,40.789974 73.1588542,39.765918 72.7246094,39.3106445 C72.0732422,38.6277344 69.9743164,37.9944336 66.4474609,38.4456055 C64.096224,38.7463867 60.3717773,40.3860352 55.2741211,43.3645508 L54.4443359,37.1273437 Z" id="路径-590" fill="#EBE4DE"></path>
                <path d="M71.3985416,34.8085501 C71.9717847,35.0839239 73.069353,35.7648273 73.7743067,36.3200305 C73.9376999,36.5734512 74.113648,36.8682556 74.3010742,37.2022461 L74.1661687,37.8618815 C74.0320606,38.5677554 73.9794379,39.0506764 74.0083008,39.3106445 C74.0569516,39.7488434 74.3806476,40.6958795 74.4209524,41.2271546 C74.2506375,41.3427795 74.0186135,41.4036301 73.7299074,41.4166028 C73.3979078,40.3663709 73.0631881,39.6656192 72.7246094,39.3106445 C72.0732422,38.6277344 69.9743164,37.9944336 66.4474609,38.4456055 C64.9011689,38.6434144 62.760958,39.4202889 60.0268283,40.7762289 C59.6591927,40.6973175 59.3169235,40.5861498 59.0024923,40.4423828 L58.0719435,40.010942 C56.2876894,39.1678374 54.9836726,38.4316174 54.505053,37.5902938 L54.4443359,37.1273438 C55.8350194,36.5376972 57.136739,36.0262618 58.3494945,35.5930374 C58.9240856,36.6786975 59.8451221,37.2970833 61.109375,37.4509277 C63.6152225,37.7558594 66.9596838,37.0537109 69.2269122,37.4509277 C70.7383978,37.7157389 71.7626139,38.0902535 72.2995605,38.5744716 L71.9868493,37.8196094 C71.0722305,35.5612801 70.8761279,34.5575937 71.3985416,34.8085501 Z" id="路径" fill="#DFD8D2"></path>
                <path d="M67.1865234,37.9230957 C71.2203544,37.3886014 73.1948242,39.2045898 73.5703457,39.7773438 C73.7849295,40.1046317 73.9769853,40.6252573 74.1465133,41.3392205 L74.2294,41.7123135 L73.8193623,41.708417 C73.4590409,40.4973099 73.0941233,39.6980524 72.7246094,39.3106445 C72.0732422,38.6277344 69.9743164,37.9944336 66.4474609,38.4456055 C64.843243,38.6508245 62.5997751,39.4793067 59.7170571,40.931052 L60.2685665,40.3261719 C62.1913172,39.0804506 64.4973028,38.2794252 67.1865234,37.9230957 Z" id="路径" fill="#C1B8B0"></path>
                <path d="M72.8661133,35.2083984 C73.0094916,35.315701 73.1707895,35.4841804 73.350007,35.7138367 C72.1148812,35.5983419 70.9938234,35.3031083 69.9863281,34.8337402 C68.3007734,34.0484803 65.6018066,34.2553711 63.8337402,34.5568848 L63.4682536,34.6277965 C62.3079851,34.8743046 60.087569,35.5083396 56.8070053,36.5299017 L54.9711914,37.1069336 L54.8743359,36.9463923 L55.2508819,36.7900258 C59.7633437,34.9295167 63.2903935,33.9353154 65.8320312,33.8074219 C69.86875,33.6042969 72.3211914,34.8005859 72.8661133,35.2083984 Z" id="路径" fill="#F9F2EC"></path>
                <path d="M48.2578594,62.9755859 L41.8769531,50.0484375 L50.5335938,42.4996094 L74.7181641,58.6013672 L74.2285156,54.534375 C70.4619792,51.1058594 67.8571615,48.9277344 66.4140625,48 C64.2494141,46.6083984 63.1351563,46.4779297 59.8066406,44.5 C57.5876302,43.1813802 55.1056641,41.7602865 52.3607422,40.2367188 L55.8519531,36.2345703 C61.0244792,39.2333984 64.0844401,41.0667318 65.0318359,41.7345703 C66.4529297,42.7363281 69.6943359,44.9148438 70.9296875,45.7566406 C71.7532552,46.3178385 72.8528646,47.2144531 74.2285156,48.4464844 L76.0164063,52.5214844 L76.0164063,59.9697266 L72.1292969,62.0320313 L55.8519531,55.1863281 L52.6785156,56.8568359 L54.5564453,60.8657029 L48.2578594,62.9755859 Z" id="路径-589" fill="#F0E7E0"></path>
                <path d="M52.4683186,43.7858286 L59.7629227,48.6455044 C60.0472537,50.4056156 60.9712765,52.5035589 61.5715332,53.5827637 L62.2737745,54.8156397 C62.757291,55.6503213 63.37009,56.6871348 64.1121714,57.9260801 C63.2192159,57.8240487 62.378785,57.7156122 61.590879,57.6007708 L55.8519531,55.1863281 L54.5555538,55.8685365 C53.798023,55.5144741 53.2758061,55.131717 52.988903,54.7202651 C52.0183814,53.3284262 51.9877557,47.8659158 52.4683186,43.7858286 Z M56.6977539,38.0126953 L60.8467374,43.3645508 L60.8467374,43.3645508 C61.4144407,44.0980701 61.8738181,44.9196405 62.2248695,45.8292618 L61.5135238,45.4624718 C61.1371266,45.2627448 60.7274242,45.0364632 60.2744323,44.7743714 L58.0083574,43.442468 C56.4646627,42.5436059 54.8081546,41.6007804 53.0388331,40.6139915 C53.1904436,40.0390825 53.3623891,39.6019656 53.5468749,39.3435579 C54.4438476,38.0871755 55.4941406,37.6435547 56.6977539,38.0126953 Z" id="形状" fill="#E0D6CD"></path>
                <polygon id="路径" fill="#E8DACE" points="45.3089531 57.0045703 53.7709531 59.1925703 54.5564453 60.8657029 50.8469531 62.1065703 47.9609531 62.3725703"></polygon>
                <path d="M43.5069531,53.3524414 L46.5830909,50.7524414 L47.8898674,52.0816569 C51.1937109,55.4827053 53.4963316,58.2071546 54.7977295,60.2550049 C53.2241029,60.8236073 52.3014955,60.9998769 52.0299072,60.7838135 C49.9317627,59.114624 48.4440888,58.6093452 45.5741972,57.5357325 L43.5069531,53.3524414 Z" id="路径" fill="#C3B6AA"></path>
                <path d="M49.9326992,60.0664063 C51.1346588,59.9476852 52.7908961,59.9970787 54.1770314,60.0588202 L54.5564453,60.8657029 L50.8469531,62.1065703 L47.9609531,62.3725703 L47.0010864,60.4300763 C48.0952512,60.2730068 49.1150938,60.1471635 49.9326992,60.0664063 Z" id="路径" fill="#AAA19A"></path>
                <path d="M61.0543865,51.3101483 L61.287762,51.7316895 C62.2318879,53.5106201 63.4494475,54.1435785 63.473822,53.4362351 L63.4675411,53.3133828 C63.3646294,52.4835663 64.1437198,52.3453041 64.8179183,52.7004022 L64.9711914,52.7910156 C65.3302357,53.0276329 66.640568,53.6604076 67.976535,54.1118428 L74.5771682,58.5057395 C73.3711464,59.7617715 71.7495132,60.833632 71.0700684,60.8657029 C69.9628738,60.9179643 64.5116067,56.6065232 63.6179013,55.8382047 L63.4979397,55.7290039 C63.4367082,55.6568163 59.8845919,52.3483415 59.4123535,51.5021973 C58.4791219,49.8300577 60.4246661,50.2190696 61.0543865,51.3101483 Z M64.7341692,41.5322057 L67.5607849,43.4731084 C68.8628189,44.3581075 70.2237723,45.2756138 70.9296875,45.7566406 C71.5635117,46.1885429 72.3608343,46.8191113 73.3216553,47.6483457 C74.292629,49.3615115 75.7280761,54.063622 76.0164062,55.7290039 C76.1469981,56.4832964 75.5384645,57.4734834 74.693082,58.3830554 L74.2285156,54.534375 L73.093341,53.5073086 C71.2639478,51.8628713 69.747377,50.5551335 68.5436286,49.5840952 C67.5865907,48.3711604 67.5582574,47.5703507 68.4596653,47.182392 L69.0051916,46.9840546 C70.5518383,46.3597537 67.8813396,46.1268496 64.1121714,44.3088379 C61.6588972,43.1255314 60.5879556,41.4196505 60.8993465,39.1911952 L63.2564044,40.6031251 C63.8953883,40.9933028 64.3878232,41.3030057 64.7341692,41.5322057 Z" id="形状" fill="#E6DDD4"></path>
                <path d="M61.0508496,49.5008795 L73.7034018,57.9280483 C73.3477194,59.2931973 72.8539898,60.3842092 72.2253418,60.8657029 C69.9338379,62.6208101 66.5749512,58.010498 64.5177425,56.0986328 C63.2322609,54.9039715 62.07663,52.7047204 61.0508496,49.5008795 Z M64.7067389,41.514066 L67.5607849,43.4731084 C68.8628189,44.3581075 70.2237723,45.2756138 70.9296875,45.7566406 C71.6846246,46.271072 72.6715133,47.0673466 73.8903537,48.1454644 C74.3936329,49.4658536 74.508381,52.1402375 74.2516619,54.7202651 L74.2285156,54.534375 L73.0460711,53.4648302 C72.2850057,52.7811098 71.5784024,52.1560085 70.9262611,51.5895261 C70.8899543,51.4934325 70.8449621,51.4009851 70.7923944,51.3148278 L70.708,51.1906399 C69.8464199,50.0507134 70.0046387,48.5124512 69.887207,47.1103052 C69.7697754,45.7081592 65.7133714,44.3 64.4597168,43.4941406 C63.65685,42.9780513 62.8342511,41.3107087 62.6755969,40.2487793 L64.0066129,41.0659803 C64.282537,41.238852 64.5158807,41.3881875 64.7067389,41.514066 Z" id="形状" fill="#D9CDC3"></path>
                <path d="M52.3565609,43.7134904 L57.6905011,47.2649333 C57.9150987,47.6843107 58.0648563,48.0265857 58.0693359,48.2186473 C58.0899658,49.1031494 57.4511441,50.7583589 57.9418945,51.5157471 C58.2690615,52.0206725 60.4598574,53.6582051 64.5142822,56.4283447 C63.7630915,57.1117757 62.8314176,57.1939697 61.7192607,56.6749268 L60.8629322,56.2625275 C58.251201,54.9655063 52.1514525,51.578014 52.2086242,48 C52.2316552,46.5586337 52.2580679,45.0323138 52.3565609,43.7134904 Z M54.0332031,40.3435579 L54.5180483,40.6704179 C56.5876172,42.0316531 61.6626525,45.0623509 62.9988932,45.7770567 L63.7239812,46.1405 C65.011827,46.7713581 67.0946936,47.7651137 67.5987277,48.1552798 L68.9020198,49.2263972 C69.3856545,49.6319005 69.9876479,50.1406968 70.708,50.7527861 C70.7215457,50.9870449 70.645356,51.137628 70.4794311,51.2045354 L69.6119587,50.4659914 C68.2296746,49.3034584 67.1647067,48.4825715 66.4140625,48 C64.3767463,46.6902574 63.26988,46.4976427 60.3717049,44.8305013 L57.9959158,43.435224 C56.4412451,42.5300883 54.7722408,41.5803968 52.988903,40.5861494 C53.2369566,40.1496804 53.5758108,40.0241342 54.0332031,40.3435579 Z" id="形状" fill="#C0B3A7"></path>
                <path d="M53.6886759,44.6018838 L67.3687422,53.7065703 L67.3771257,53.7262128 L66.2762969,53.1229248 L55.303833,46.4683838 L55.303833,46.4683838 C54.7244473,46.1147715 54.1780407,45.4449658 53.6886759,44.6018838 Z M55.6677012,36.4516925 L55.8519531,36.2345703 L60.1685981,38.7554053 C62.4608887,40.1071522 63.9926559,41.0393209 64.7638997,41.5519116 L67.5607849,43.4731084 L67.5607849,43.4731084 L70.9684051,45.783742 L72.8287422,47.4805703 L71.6915419,46.5755466 C71.2326057,46.216469 70.8373109,45.9172734 70.5056574,45.6779598 L70.0559082,45.363901 L69.0620418,44.7292405 C67.6863302,43.8647935 65.3729733,42.4355617 63.9929815,41.5627215 L62.5308619,40.6159371 C61.5207757,39.9759546 59.2330555,38.587873 55.6677012,36.4516925 Z M53.6267422,38.7845703 L55.0789209,41.7606316 L52.3607422,40.2367188 L52.3607422,40.2367188 L53.6267422,38.7845703 Z" id="形状" fill="#FAF6F3"></path>
                <path d="M22.8794434,59.487793 C22.7433431,60.0108398 22.8175293,60.2986816 23.102002,60.3513184 C23.5287109,60.4302734 28.5993164,58.6658203 28.6578125,58.7828613 C28.7163086,58.8999023 25.4851074,60.2830566 24.613916,60.6766113 C23.7427246,61.070166 22.6825195,61.7934082 22.1210938,61.3783203 C21.559668,60.9632324 22.0270508,60.2853516 22.21875,60.0327637 C22.3465495,59.8643717 22.5667806,59.6827148 22.8794434,59.487793 Z" id="路径-588" fill="#F26652"></path>
                <path d="M11.3149414,63.8873047 C20.8299154,63.8255859 25.630957,63.8287109 25.7180664,63.8966797 C25.8487305,63.9986328 26.5834961,64.759668 26.9910156,64.7185547 C27.3985352,64.6774414 27.9344727,63.6520508 28.0663086,63.59375 C28.1981445,63.5354492 33.7392578,63.2412109 35.9770508,62.8862305 C38.2148438,62.53125 45.6386719,61.072168 46.9838867,60.9662109 C48.3291016,60.8602539 55.1328125,60.1576449 56.7482422,60.1400529 C58.3636719,60.1224609 69.7138672,61.4166016 72.4105469,61.2246094 C75.1072266,61.0326172 79.4103516,58.3682212 79.8970703,57.7280559 C80.3837891,57.0878906 81.0450195,56.4901855 81.2779785,56.4937184 C81.5109375,56.4973145 82.7991211,57.4430664 83.6673828,60.5864258 C84.0411133,60.824707 86,62.8344727 86,64.4680664 C86,65.5571289 85.865918,66.485319 85.5977539,67.2526367 C85.6144857,67.5504232 85.5670247,67.7834635 85.4553711,67.9517578 C85.2878906,68.2041992 84.5297852,69.7233398 81.4701172,70.5011719 C81.1014648,70.4461914 80.9792969,70.3907227 80.8359375,70.5011719 C80.6925781,70.6116211 80.5277344,71.0271484 80.2381836,71.0310547 C79.9486328,71.0349609 79.3357422,70.9258789 79.1727539,71.0310547 C79.0097656,71.1362305 78.7420898,71.2981445 78.5214844,71.3200195 C78.3744141,71.3346029 78.1757813,71.3346029 77.9255859,71.3200195 C77.8290365,71.3441081 77.7177409,71.3441081 77.5916992,71.3200195 C77.4656576,71.295931 77.0143229,71.3961589 76.2376953,71.6207031 L75.8842773,71.6207031 C75.6795247,71.6230469 75.5060221,71.6653971 75.3637695,71.7477539 C75.1503906,71.8712891 73.6022461,72 72,72 C70.9318359,72 67.0755859,72 60.43125,72 L59.612207,71.3200195 C58.3158529,70.8428711 57.5108073,70.3802083 57.1970703,69.9320313 C56.3035156,69.905599 54.5518555,69.905599 51.9420898,69.9320313 L51.6423828,69.7499023 L51.6423828,69.9320313 L51.1722656,69.9320313 C50.8920573,70.4393229 50.5281576,70.725293 50.0805664,70.7899414 C49.4091797,70.8869141 48.3384766,70.8298828 48,71.0310547 C47.774349,71.1651693 47.4410156,71.488151 47,72 L34.7321289,72 C34.1733398,71.6213542 33.8083333,71.1217448 33.6371094,70.5011719 C33.3882813,70.4124023 33.2201172,71.0320313 33.174707,71.1835938 C33.1292969,71.3351563 33.1336914,71.6298828 32.8820313,71.6207031 C32.6303711,71.6115234 31.3376953,71.7886719 31.1829102,71.6207031 C31.0797201,71.508724 30.9922201,71.3630208 30.9204102,71.1835938 C30.6925456,71.386849 30.4104167,71.4869466 30.0740234,71.4838867 C29.5694336,71.4792969 28.9645565,71.2635742 28.6585966,71.1835938 C28.3526367,71.1036133 28.247168,70.4699219 28.0663086,70.5011719 C27.8854492,70.5324219 27.5516221,71.1128906 27.2695122,71.0310547 C26.9874023,70.9492188 24.8772461,70.6279297 24.4483398,70.5011719 C24.1624023,70.4166667 23.9378906,70.1662435 23.7748047,69.7499023 C23.6228516,69.9784831 23.4463542,70.094987 23.2453125,70.0994141 C22.94375,70.1060547 20.0827148,69.6023438 19.4816406,69.4072266 C19.0809245,69.2771484 18.7291016,69.0502604 18.4261719,68.7265625 C18.2801989,68.8645182 18.0542525,68.9111979 17.7483327,68.8666016 C17.2894531,68.799707 14.8841797,68.2479492 14.6041016,68.1208984 C14.4173828,68.0361979 14.2151693,67.8801432 13.9974609,67.6527344 C13.8888021,67.734375 13.6200195,67.734375 13.1911133,67.6527344 C12.5477539,67.5302734 11.3572266,66.9439453 11.0757812,66.5939453 C10.7943359,66.2439453 10.3461914,66.1496094 10.2070313,64.0448242 C10.1729818,63.4894206 10.1039714,62.8078125 10,62 C10.3240234,60.8559245 10.6826172,60.182194 11.0757812,59.9788086 C11.6655273,59.6737305 11.4876953,60.0797852 11.3405273,60.5864258 C11.1933594,61.0930664 11.0056641,61.6613272 11,62.2835933 C10.996224,62.6984373 11.1012044,63.2330078 11.3149414,63.8873047 Z" id="路径-591" fill="#DCDBE3"></path>
                <path d="M58.0924555,61.4173177 C63.5654719,61.9014044 73.5148926,63.6625977 77.1682129,65.5087891 C77.3056225,66.6694777 77.7766511,67.7276646 78.5812988,68.6833496 C79.1241048,69.3280436 80.0275879,69.7918294 81.291748,70.074707 L72.5615234,71.7844238 L60.43125,72 L59.612207,71.3200195 C58.3158529,70.8428711 57.5108073,70.3802083 57.1970703,69.9320313 L55.9113336,69.9138253 C54.9428776,69.9089704 53.6197963,69.9150391 51.9420898,69.9320313 L51.6423828,69.7499023 L51.6423828,69.9320313 L51.1722656,69.9320313 C50.8920573,70.4393229 50.5281576,70.725293 50.0805664,70.7899414 C49.4091797,70.8869141 48.3384766,70.8298828 48,71.0310547 C47.774349,71.1651693 47.4410156,71.488151 47,72 L34.7321289,72 C34.1733398,71.6213542 33.8083333,71.1217448 33.6371094,70.5011719 C33.3882813,70.4124023 33.2201172,71.0320313 33.174707,71.1835938 L33.1345703,71.3663194 C33.103776,71.4978733 33.0498047,71.6268229 32.8820313,71.6207031 C32.6303711,71.6115234 31.3376953,71.7886719 31.1829102,71.6207031 C31.0797201,71.508724 30.9922201,71.3630208 30.9204102,71.1835938 C30.6925456,71.386849 30.4104167,71.4869466 30.0740234,71.4838867 C29.5694336,71.4792969 28.9645565,71.2635742 28.6585966,71.1835938 C28.3526367,71.1036133 28.247168,70.4699219 28.0663086,70.5011719 C27.8854492,70.5324219 27.5516221,71.1128906 27.2695122,71.0310547 C26.9874023,70.9492188 24.8772461,70.6279297 24.4483398,70.5011719 C24.1624023,70.4166667 23.9378906,70.1662435 23.7748047,69.7499023 C23.6228516,69.9784831 23.4463542,70.094987 23.2453125,70.0994141 C22.94375,70.1060547 20.0827148,69.6023438 19.4816406,69.4072266 C19.0809245,69.2771484 18.7291016,69.0502604 18.4261719,68.7265625 C18.2801989,68.8645182 18.0542525,68.9111979 17.7483327,68.8666016 L17.1798627,68.7561571 C16.9860587,68.7150517 16.7625141,68.6658415 16.5295334,68.6130623 C16.3520752,68.0066219 16.2582644,67.3793374 16.2460938,66.7298832 L18.9415654,67.0141015 C25.5862132,67.6900378 30.361883,67.9795782 33.2685748,67.8827227 L39.0950308,67.6382187 C41.8023359,67.5025814 44.1809679,67.287224 45.8045898,66.7298832 C48.4614258,65.8178711 46.0874518,62.4702348 48.5512695,61.5600586 C50.3306935,60.9027091 51.9125193,60.9411857 54.1954539,61.1157419 L58.0924555,61.4173177 Z" id="路径" fill="#D1D0D7"></path>
                <path d="M49.1303709,64.3624903 L53.6516809,64.4238772 C58.2268615,64.5163587 60.7722218,64.6853833 61.287762,64.9309509 C62.2866211,65.4067383 61.9146978,65.6690044 63.1573001,65.9367971 L63.4293547,65.9781758 C65.4982322,66.2211648 75.0906471,66.3716637 74.151123,66.5698242 C73.1594032,66.7789936 65.2856596,66.6714295 63.849861,67.1969208 C62.4140625,67.7224121 62.7160645,68.8129883 63.2475586,69.579834 C63.7495253,70.3040771 66.1669447,71.064851 68.440109,71.1178639 L68.839339,71.1197206 C69.5871234,71.1088055 69.1814149,71.4889994 68.1151897,71.9998527 L60.43125,72 L59.612207,71.3200195 C58.3158529,70.8428711 57.5108073,70.3802083 57.1970703,69.9320313 L55.9113336,69.9138253 C54.9428776,69.9089704 53.6197963,69.9150391 51.9420898,69.9320313 L51.6423828,69.7499023 L51.6423828,69.9320313 L51.1722656,69.9320313 C50.8920573,70.4393229 50.5281576,70.725293 50.0805664,70.7899414 C49.4091797,70.8869141 48.3384766,70.8298828 48,71.0310547 C47.774349,71.1651693 47.4410156,71.488151 47,72 L43.2879439,71.9987748 C42.9034679,71.0124891 42.1720377,70.1417328 41.0936535,69.3865061 L42.3095117,69.3413517 C45.0140999,69.223932 46.7917887,69.0220947 47.6425781,68.7358398 C48.6149089,68.4086914 49.1108398,66.9509082 49.1303709,64.3624903 Z" id="路径" fill="#C6C5CF"></path>
                <path d="M81.2779785,56.4937028 C81.5109375,56.4973145 82.7991211,57.4430664 83.6673828,60.5864258 C84.0411133,60.824707 86,62.8344727 86,64.4680664 C86,65.2754453 85.9263081,65.9944082 85.7789243,66.6249552 C85.7854535,66.0577354 85.7829349,65.4963429 85.7716064,64.9362178 C85.7497559,63.855834 84.7607441,62.4292266 84.2454834,62.0795898 C83.8912417,61.8392146 83.2215129,62.3133885 82.333472,63.0704077 L79.7863568,65.2852685 C78.718581,66.1970099 77.8001604,66.9126383 77.3250732,66.9197998 L76.9591214,66.9063877 C74.8994263,66.802628 65.4507138,66.1348234 65.3628493,66.10281 L77.1124366,66.3442343 C77.3005428,66.3454473 77.4140008,66.344555 77.4365044,66.3411321 C77.684044,66.30348 82.961792,61.118042 83.3960893,60.7038574 C83.6856208,60.4277344 83.5995302,60.2981364 83.1378174,60.3150635 L82.6003135,59.2631483 C82.1735154,58.4423896 81.8826719,57.9263694 81.7277832,57.7150879 C81.4531614,57.3404801 80.7897365,57.0277056 80.5174142,57.0212066 C80.8413103,56.7080706 81.1375051,56.4915881 81.2779785,56.4937028 Z" id="路径" fill="#EBEAEF"></path>
                <path d="M61.287762,64.9309509 C61.3804994,64.9751246 61.4614208,65.0174578 61.5329154,65.0581257 L60.3732272,65.4485549 C59.0968029,65.8932478 58.3370733,66.2188424 58.0917969,66.4260254 C57.5651855,66.8708496 58.9787598,69.4865723 59.3803711,69.7973633 C59.7819824,70.1081543 62.6738442,70.5290596 62.5808105,70.7749023 C62.5307141,70.907283 60.3621238,71.0140939 58.9413935,71.0532565 C58.032287,70.6705614 57.4522134,70.2965062 57.1970703,69.9320313 L55.9113336,69.9138253 L53.1338775,69.9213353 C52.758779,69.9242179 52.3615165,69.9277832 51.9420898,69.9320313 L51.6423828,69.7499023 L51.6423828,69.9320313 L51.1722656,69.9320313 C50.8920573,70.4393229 50.5281576,70.725293 50.0805664,70.7899414 C49.4091797,70.8869141 48.3384766,70.8298828 48,71.0310547 C47.774349,71.1651693 47.4410156,71.488151 47,72 L46.5830909,72 C45.8704704,71.7462565 45.3715961,71.2084252 45.086468,70.3865061 L46.0632012,70.3560522 C47.9017928,70.2785551 49.0511359,70.1015214 49.5112305,69.8249512 C50.0480075,69.5022859 50.188497,68.4060328 49.9326992,66.5361919 L56.276123,64.8085938 L60.8346043,64.809774 C61.0470503,64.8478512 61.1981029,64.8882435 61.287762,64.9309509 Z" id="路径" fill="#A7A5B6"></path>
                <path d="M55.3736856,61.2567929 C53.8254395,61.3430176 50.6768188,61.2246021 48.5211487,61.3973352 C46.3654785,61.5700684 41.1772461,62.4001465 39.7181396,62.670166 C38.745402,62.850179 37.9920654,62.9519857 37.4581299,62.9755859 C41.2115479,62.0901693 43.360555,61.5890299 43.9051514,61.472168 C44.7220459,61.296875 47.6918145,60.8135986 49.9326992,60.6715088 C51.4266224,60.5767822 53.7163046,60.5130319 56.8017459,60.4802579 C56.8818697,60.9404648 56.4058497,61.1993098 55.3736856,61.2567929 Z" id="路径-610" fill="#BAB7BF"></path>
                <path d="M44.1554752,61.4116003 C41.5938564,62.1430174 39.3440333,62.6711412 37.4060059,62.9959717 L36.5900202,63.1250666 C33.1205194,63.6442397 28.904636,63.9285346 28.5594482,63.946167 C28.1866455,63.96521 27.5924072,64.8642578 27.0319824,64.9309509 C26.4715576,64.9976441 25.6992188,64.40979 25.4403076,64.3624903 L25.1222317,64.329626 C24.710194,64.2990128 23.9679638,64.2667547 23.0124766,64.249571 L20.7619414,64.2202461 C19.5639672,64.1926018 17.7114739,64.1319172 15.2044617,64.0381922 L11.3149414,63.8873047 L10.9693604,62.9959717 L11.074153,62.9867006 C11.1266153,63.2562973 11.2068781,63.5564987 11.3149414,63.8873047 L22.4211892,63.8437408 C24.577845,63.8468377 25.6768041,63.864484 25.7180664,63.8966797 L26.0156033,64.1642072 C26.3022135,64.416862 26.7193359,64.7459635 26.9910156,64.7185547 C27.3985352,64.6774414 27.9344727,63.6520508 28.0663086,63.59375 C28.1930739,63.5376916 33.3210202,63.2634956 35.7046799,62.9269102 L35.9770508,62.8862305 C37.3197266,62.6732422 40.529375,62.0627773 43.172832,61.5855969 L44.1554752,61.4116003 Z" id="路径" fill="#FFFFFF"></path>
                <path d="M35.8782959,65.3689453 L42.7092285,70.6356201 L36.1650391,71.491333 L34.057694,71.3661883 C33.86577,71.11014 33.7255751,70.8218012 33.6371094,70.5011719 C33.3882813,70.4124023 33.2201172,71.0320313 33.174707,71.1835938 L33.1464387,71.3110341 L33.1464387,71.3110341 L32.5599365,71.2752686 L30.9094238,70.0509832 L29.3146973,67.1969208 C29.0399577,66.5758128 29.0399577,66.2143148 29.3146973,66.1124268 L29.4370591,66.0810208 C30.0030417,65.9642731 32.1501206,65.7269147 35.8782959,65.3689453 Z" id="路径" fill="#DAD8E3"></path>
                <path d="M29.6765137,67.8500977 C29.3085124,66.8750814 29.3085124,66.3526204 29.6765137,66.2827148 C30.2285156,66.1778564 35.5646973,65.6555176 35.7357178,65.7270508 C35.8497314,65.7747396 37.6687826,67.0200195 41.1928711,69.4628906 C37.7965495,66.41783 35.9774984,64.9072769 35.7357178,64.9312314 C35.3730469,64.9671631 29.7694092,65.4748535 29.4217529,65.5321045 C29.0740967,65.5893555 28.8035889,66.2545166 29.005249,66.75354 C29.1396891,67.0862223 29.363444,67.4517415 29.6765137,67.8500977 Z" id="路径-593" fill="#F0F0F7"></path>
                <path d="M85.5011257,67.8678981 L85.4793903,67.9123294 L85.2835585,68.2200053 C84.9155851,68.7560239 83.9469913,69.8714983 81.4701172,70.5011719 L81.0685425,70.4391357 C80.973999,70.4322021 80.9076172,70.4459473 80.8359375,70.5011719 C80.6925781,70.6116211 80.5277344,71.0271484 80.2381836,71.0310547 C79.9486328,71.0349609 79.3357422,70.9258789 79.1727539,71.0310547 C79.0097656,71.1362305 78.7420898,71.2981445 78.5214844,71.3200195 C78.3744141,71.3346029 78.1757813,71.3346029 77.9255859,71.3200195 C77.8612196,71.3360786 77.7902995,71.3414316 77.7128255,71.3360786 L77.5916992,71.3200195 C77.4656576,71.295931 77.0143229,71.3961589 76.2376953,71.6207031 L75.8842773,71.6207031 C75.7477756,71.6222656 75.6251628,71.6416088 75.5164388,71.6787326 L75.3637695,71.7477539 C75.1503906,71.8712891 73.6022461,72 72,72 L60.43125,72 L59.612207,71.3200195 C58.4349254,70.8866981 57.6628422,70.4653234 57.2959574,70.0558956 L58.5809326,70.545166 C58.8752747,70.6709366 60.3917384,70.8964853 62.5842597,70.9241876 L71.2524388,70.9604965 C72.3174555,70.9585262 73.1578115,70.9492544 73.5281982,70.927002 L75.0873413,70.7984567 C77.4973377,70.5749678 81.6079823,70.1172929 82.4677734,69.7349854 C83.3292216,69.351941 84.7204961,68.4633629 85.5011257,67.8678981 Z M46.1746826,70.5406494 C46.2076687,70.9419081 46.6791193,71.0224685 47.1146689,71.022214 L47.2753906,71.0187988 C47.4269151,71.0127582 47.6622307,71.0207458 47.9813372,71.0427616 L48,71.0310547 C47.774349,71.1651693 47.4410156,71.488151 47,72 L34.7321289,72 C34.2025211,71.6411279 33.8469847,71.1735963 33.6655199,70.5974053 C33.7860058,70.6866774 33.9425313,70.7579456 34.041626,70.7647288 C34.2473145,70.7788086 35.2993164,70.6544189 35.642334,70.2790527 L35.8469135,70.2665889 C36.054273,70.2599415 36.3946014,70.2564517 36.8140321,70.2551222 L42.1966553,70.2790527 C43.2437744,70.2790527 46.1375732,70.0892334 46.1746826,70.5406494 Z M11.3405273,60.5864258 C11.2307983,60.8759766 11.0056641,61.6613272 11,62.2835933 C10.996224,62.6984373 11.1012044,63.2330078 11.3149414,63.8873047 C11.2014079,64.2998865 11.4752882,64.8217423 11.9560547,65.2844238 L12.1746421,65.4847553 C12.6451883,65.8874609 13.1600749,66.1049316 14.9718018,66.4981689 L23.9017839,68.4141001 C24.5881792,68.5577194 25.1887335,68.6814192 25.6451776,68.772243 L30.477722,69.6382354 C30.779435,69.6901209 30.9871539,69.7251336 31.0526123,69.7349854 C31.3308105,69.7768555 32.0852051,70.4765625 32.138916,70.5406494 C32.192627,70.6047363 32.5648193,70.708252 32.6534424,70.5406494 C32.7420654,70.3730469 33.1239014,70.268104 33.1322021,70.0509832 C33.1405029,69.8338623 33.2420654,68.8913574 33.3751221,68.8822021 C33.494873,68.8739624 33.6528894,69.8664563 33.5718806,70.1960297 L33.5356445,70.2790527 C33.4807205,70.3436279 33.5040561,70.4226966 33.5660423,70.498155 L33.6371094,70.5011719 C33.3882813,70.4124023 33.2201172,71.0320313 33.174707,71.1835938 L33.1345703,71.3663194 C33.103776,71.4978733 33.0498047,71.6268229 32.8820313,71.6207031 C32.6303711,71.6115234 31.3376953,71.7886719 31.1829102,71.6207031 C31.0797201,71.508724 30.9922201,71.3630208 30.9204102,71.1835938 C30.6925456,71.386849 30.4104167,71.4869466 30.0740234,71.4838867 C29.5694336,71.4792969 28.9645565,71.2635742 28.6585966,71.1835938 C28.3526367,71.1036133 28.247168,70.4699219 28.0663086,70.5011719 C27.8854492,70.5324219 27.5516221,71.1128906 27.2695122,71.0310547 C26.9874023,70.9492188 24.8772461,70.6279297 24.4483398,70.5011719 C24.1624023,70.4166667 23.9378906,70.1662435 23.7748047,69.7499023 C23.6228516,69.9784831 23.4463542,70.094987 23.2453125,70.0994141 C22.94375,70.1060547 20.0827148,69.6023438 19.4816406,69.4072266 C19.0809245,69.2771484 18.7291016,69.0502604 18.4261719,68.7265625 C18.2801989,68.8645182 18.0542525,68.9111979 17.7483327,68.8666016 L17.4131627,68.804611 C16.5996695,68.6399876 14.8410907,68.2284029 14.6041016,68.1208984 C14.4173828,68.0361979 14.2151693,67.8801432 13.9974609,67.6527344 C13.8888021,67.734375 13.6200195,67.734375 13.1911133,67.6527344 C12.5477539,67.5302734 11.3572266,66.9439453 11.0757812,66.5939453 L10.9703004,66.4773417 C10.7116423,66.212817 10.3778827,65.9408744 10.2346996,64.3958484 L10.2070312,64.0448242 C10.1729818,63.4894206 10.1039714,62.8078125 10,62 C10.3240234,60.8559245 10.6826172,60.182194 11.0757812,59.9788086 C11.4689453,59.7754232 11.6781607,59.8520847 11.6255493,60.0999146 C11.5086873,60.2312215 11.41368,60.3933919 11.3405273,60.5864258 Z" id="形状" fill="#242424"></path>
                <path d="M85.5011257,67.8678981 L85.4793903,67.9123294 L85.2835585,68.2200053 L85.1156416,68.4460937 C84.6498698,69.0273019 83.637382,69.9502075 81.4701172,70.5011719 L81.0685425,70.4391357 C80.973999,70.4322021 80.9076172,70.4459473 80.8359375,70.5011719 C80.6925781,70.6116211 80.5277344,71.0271484 80.2381836,71.0310547 C79.9486328,71.0349609 79.3357422,70.9258789 79.1727539,71.0310547 C79.0097656,71.1362305 78.7420898,71.2981445 78.5214844,71.3200195 C78.3744141,71.3346029 78.1757813,71.3346029 77.9255859,71.3200195 L77.8630838,71.3294531 L77.607201,71.0753563 C77.5891773,71.0598655 77.5746228,71.048622 77.5635376,71.041626 C77.4525146,70.9715576 76.3869629,71.1513062 76.338501,71.2225952 L76.1219177,71.6169613 L76.1219177,71.6169613 L75.8842773,71.6207031 C75.7477756,71.6222656 75.6251628,71.6416088 75.5164388,71.6787326 L75.3637695,71.7477539 C75.1848214,71.8513555 74.0671092,71.9585972 72.7660076,71.9905088 C72.6492876,71.6175606 72.5692782,71.4601222 72.5251465,71.5166626 C72.491375,71.5599297 72.4252091,71.7198262 72.3266487,71.9963521 L72,72 L68.6278008,72.0009384 C68.5000833,71.7641144 68.3406677,71.5252991 68.2521973,71.5166626 C68.1639208,71.5080451 68.0660971,71.6692202 67.958726,72.0001881 L67.0341933,72.0014172 C66.8598444,71.6668695 66.7262136,71.5093333 66.6333008,71.5288086 C66.5434708,71.5476377 66.4515025,71.7045705 66.3573961,71.9996069 L62.6097188,71.9975225 L62.5050698,71.6634403 C62.4410552,71.4844159 62.3885433,71.3927857 62.3475342,71.3885498 C62.2718991,71.3807373 62.1502967,71.6333415 61.9827271,72.1463623 L62.0297584,71.9998981 L60.43125,72 L59.7737584,71.4538981 L59.3417584,70.7049316 C60.0475611,70.8070597 61.1765688,70.9064016 62.5842597,70.9241876 L71.2524388,70.9604965 L72.9261811,70.9468592 L73.5281982,70.927002 L73.5281982,70.927002 L75.0873413,70.7984567 L76.3366226,70.6762968 L78.0847492,70.4846585 C80.0123359,70.258623 81.9140999,69.9811772 82.4677734,69.7349854 C83.3292216,69.351941 84.7204961,68.4633629 85.5011257,67.8678981 Z" id="路径" fill="#CA391E"></path>
                <path d="M51.1879272,70.0045776 C50.0886841,67.6441691 49.4561198,66.261556 49.2902344,65.8567383 C49.0414063,65.2495117 48.2804688,64.4833984 48.6269531,63.4299805 C48.9734375,62.3765625 49.1780273,62.319043 49.4973633,62.1357422 C49.8166992,61.9524414 62.4073242,55.5614258 62.7498047,55.3978516 C63.0922852,55.2342773 63.9619141,55.5983083 65.0220703,56.4161133 C66.0822266,57.2339183 69.6707031,59.5168322 70.1301758,59.6359552 C70.5896484,59.7550781 71.3320313,59.7240234 71.9210938,59.3833008 C72.5101563,59.0425781 73.1206055,58.6262695 73.1128906,58.3831055 C73.1051758,58.1399414 71.1869141,56.9681641 70.1301758,56.4161133 C69.0734375,55.8640625 66.6924805,54.443457 66.5084961,54.3076172 C66.3245117,54.1717773 65.8493164,53.6363281 66.5084961,52.9892578 C67.1676758,52.3421875 72.6101518,47.3647461 73.0347634,46.9329102 C73.459375,46.5010742 73.7396484,46.4460937 73.8373047,46.4637695 C73.9024089,46.4755534 74.0492188,46.5325521 74.2777344,46.6347656 C75.0353883,45.7632812 75.4613252,45.3400065 75.5555451,45.3649414 C75.696875,45.4023438 77.2132812,47.0487305 77.615332,47.4699219 C78.0173828,47.8911133 79.6671875,50.6555664 79.7056641,50.8847656 C79.7441406,51.1139648 79.1417969,52.0211914 78.8658203,52.3831055 C78.6818359,52.6243815 78.1957541,53.2070313 77.4075747,54.1310547 C77.0742046,53.9393229 76.8931641,53.9981771 76.8644531,54.3076172 C76.8213867,54.7717773 76.870911,55.0449219 77.4075747,55.3978516 C77.9442383,55.7507813 80.2985352,57.0162109 81.0341797,57.5624023 C81.7698242,58.1085938 83.3269531,59.5908203 83.5292969,59.8487305 C83.7316406,60.1066406 83.9956055,60.6926758 83.0743164,61.5192383 C82.1530273,62.3458008 77.8993164,66.1337891 77.615332,66.3560547 C77.3313477,66.5783203 75.0459916,66.4511719 73.0347634,66.3560547 C71.0235352,66.2609375 60.9202148,65.8700195 59.7467773,65.8567383 C58.5733398,65.843457 57.7223633,65.6756836 57.4311523,66.3560547 C57.1399414,67.0364258 57.5793945,67.5359375 57.6419922,67.8 C57.7045898,68.0640625 58.515918,69.2407227 58.4719727,69.4061523 C58.4280273,69.571582 58.327832,69.7897461 58.1671875,69.7428711 C58.0600911,69.7116211 57.885026,69.6549479 57.6419922,69.5728516 C57.5966146,69.7412109 57.4550456,69.8525391 57.2172852,69.9068359 C56.9795247,69.9611328 55.2211263,69.9695312 51.9420898,69.9320313 L51.6423828,69.7428711 C51.6461141,69.876123 51.6098328,69.9674276 51.5335388,70.0167847 C51.4572449,70.0661418 51.342041,70.0620728 51.1879272,70.0045776 Z" id="路径-592" fill="#A8AAB9"></path>
                <path d="M77.4075747,55.3978516 L77.7718156,55.6195934 C78.630326,56.1231208 80.4117112,57.1002404 81.0341797,57.5624023 L81.4241137,57.8730882 C82.2168749,58.5356856 83.3580829,59.6304988 83.5292969,59.8487305 C83.7316406,60.1066406 83.9956055,60.6926758 83.0743164,61.5192383 L78.8742402,65.2558142 L78.8742402,65.2558142 C78.3916678,65.306604 77.8999205,65.329319 77.4075747,65.3200559 C72.837513,65.2340741 64.8811691,58.0784074 62.2862455,55.6278872 L62.7498047,55.3978516 L62.7498047,55.3978516 C62.8250842,55.3618968 62.9258329,55.3514334 63.0484759,55.3656771 L64.1109962,55.7951856 L64.1109962,55.7951856 C64.2970318,55.9033271 64.4955146,56.0318367 64.7034507,56.1797681 L65.0220703,56.4161133 C66.0822266,57.2339183 69.6707031,59.5168322 70.1301758,59.6359552 C70.5896484,59.7550781 71.3320313,59.7240234 71.9210938,59.3833008 L72.3099521,59.147684 C72.7509404,58.8661024 73.1188911,58.5722331 73.1128906,58.3831055 C73.1098002,58.2856989 72.8001356,58.0392832 72.3620818,57.7433836 L72.7321959,57.4146368 C73.5451632,56.7120212 74.8127861,55.7475407 76.8630545,54.6808099 C76.8955204,54.9437187 77.0326993,55.1513198 77.4075747,55.3978516 Z" id="路径" fill="#B1B3C0"></path>
                <path d="M77.615332,66.3560547 C77.4482824,66.4867992 76.5887166,66.4966391 75.4997936,66.4632146 L64.9176623,66.0319414 C62.6311341,65.9462975 60.5931968,65.8743838 59.8932569,65.8593003 L59.7467773,65.8567383 C58.5733398,65.843457 57.7223633,65.6756836 57.4311523,66.3560547 C57.1399414,67.0364258 57.5793945,67.5359375 57.6419922,67.8 C57.7045898,68.0640625 58.515918,69.2407227 58.4719727,69.4061523 C58.4280273,69.571582 58.327832,69.7897461 58.1671875,69.7428711 L57.6419922,69.5728516 L57.6419922,69.5728516 C57.5966146,69.7412109 57.4550456,69.8525391 57.2172852,69.9068359 L56.9716851,69.9301595 C56.351152,69.9626573 54.6746202,69.9632812 51.9420898,69.9320313 L51.6423828,69.7428711 C51.6461141,69.876123 51.6098328,69.9674276 51.5335388,70.0167847 C51.4572449,70.0661418 51.342041,70.0620728 51.1879272,70.0045776 L49.9334081,67.2941518 C49.7551346,66.9050237 49.611537,66.5885491 49.5026152,66.3447278 L53.9788547,66.3524264 C54.1775562,66.3495066 54.3327089,66.3457328 54.4443359,66.3411321 C55.317749,66.3051342 56.866155,63.8324111 58.4472148,63.1837408 L58.7636719,63.0795898 C60.4517346,62.6672949 63.9251509,57.1374845 64.9487305,57.4140625 C65.9723101,57.6906405 68.7188541,60.2436093 70.5297852,61.9770508 C72.3407162,63.7104923 75.9672852,65.0585937 77.0849609,64.7822266 C77.7278333,64.6232638 79.0316182,64.1531693 80.9963156,63.3719432 L77.615332,66.3560547 L77.615332,66.3560547 Z" id="路径" fill="#9395A3"></path>
                <path d="M58.4719727,69.4061523 C58.4280273,69.571582 58.327832,69.7897461 58.1671875,69.7428711 L57.6419922,69.5728516 C57.5966146,69.7412109 57.4550456,69.8525391 57.2172852,69.9068359 L56.9716851,69.9301595 L55.9991524,69.9520327 C55.116131,69.9595317 53.7637768,69.9528646 51.9420898,69.9320313 L51.6423828,69.7428711 C51.6461141,69.876123 51.6098328,69.9674276 51.5335388,70.0167847 C51.4572449,70.0661418 51.342041,70.0620728 51.1879272,70.0045776 L50.5946152,68.722029 L58.1459339,68.7233876 L58.3861173,69.1550074 C58.4469583,69.276599 58.482078,69.3681115 58.4719727,69.4061523 Z" id="路径" fill="#858796"></path>
                <path d="M74.1031276,47.1109373 C74.4596791,47.1754758 75.5626961,48.3870498 76.3802941,49.4856744 L78.4416377,52.1863761 L78.3945354,52.4748234 C77.8667455,52.8279228 77.5035395,53.1276335 77.3078861,53.367781 L77.0952712,53.6245501 C76.7437566,54.0584169 76.6164944,54.3695563 76.7136982,54.7359452 L76.7775893,54.9261247 C76.932153,55.2914406 77.2771993,55.5905891 78.3490118,56.2571948 L79.2975193,56.8328228 C81.2821722,58.0184902 83.3504548,59.7270307 83.3945427,60.2280748 C83.4185559,60.500977 83.1651623,60.8387056 82.4785105,61.4951017 L78.1482456,65.4143709 L78.0150698,65.5266663 L78.0150698,65.5266663 L77.7803228,65.6981271 L77.7803228,65.6981271 L77.7346892,65.7269524 C77.4698568,65.8907427 77.1696227,65.9989198 76.8067804,66.0382977 L76.5224845,66.0547253 L72.8132201,65.942124 L72.8132201,65.942124 L62.2636941,65.5580807 L61.2905167,65.492616 C60.8912736,65.4662399 60.5443989,65.4468265 60.2142064,65.4336767 L59.5425604,65.4165695 C58.8197789,65.4103857 58.3162772,65.4530394 58.0998951,65.5511091 C57.2731452,65.9258126 56.7041088,66.5641205 56.7804716,67.1719921 C56.807903,67.3903553 56.898256,67.6725383 57.0415201,68.0032016 L57.1584891,68.2595835 L57.3609951,68.6593468 L57.8196153,69.4809274 L57.8022566,69.6265794 L57.6419922,69.5728516 L57.6419922,69.5728516 C57.5966146,69.7412109 57.4550456,69.8525391 57.2172852,69.9068359 L57.0764364,69.9236346 L57.0764364,69.9236346 L57.396,69.548 L56.9369056,68.7125439 C56.8381898,68.520702 56.7503601,68.33734 56.6744884,68.1622228 C56.5174635,67.7997987 56.4166368,67.4849047 56.3835909,67.2218495 C56.2798496,66.3960359 56.9667539,65.6255116 57.9347728,65.1867815 C58.29527,65.0233953 59.0713589,64.9878463 60.2301236,65.0339936 L62.6667227,65.1763488 L76.518287,65.6547473 C76.9381906,65.6503407 77.2537066,65.5541052 77.5242899,65.3867581 L77.6732714,65.2848534 L77.7691098,65.2112243 C77.8833799,65.1221243 78.566098,64.5123502 79.3925459,63.7662125 L81.4707507,61.8823372 C82.495697,60.95362 83.0089213,60.4090475 82.9960823,60.2631361 C82.9706982,59.9746541 81.1537913,58.458905 79.4007019,57.3646107 L78.3931199,56.7542175 L77.791552,56.3776417 C76.7288121,55.6919659 76.4701911,55.3779697 76.3270733,54.8385177 C76.208299,54.390824 76.3174842,54.0184403 76.6182784,53.5914141 L76.997778,53.1151292 C77.1784949,52.8933149 77.4645301,52.642746 77.8574038,52.3602613 L77.996,52.264 L77.6825044,51.8523052 L74.9441207,54.6200906 L74.6988938,54.6507431 L70.270427,51.9863144 L70.2399072,51.6661343 L74.4685771,47.8630741 C74.2571266,47.6520184 74.0968869,47.5163076 74.0318822,47.5045413 C73.9020364,47.4810382 68.4478747,52.7540975 67.7310883,53.5567965 C67.6381806,53.6608401 67.6411497,53.7361356 67.7374402,53.8526048 C67.8213736,53.9541275 67.9662835,54.0627105 68.1637342,54.1745651 L68.7740596,54.4936521 L69.2660733,54.7672833 C70.971272,55.7349581 73.9318622,57.5802402 74.0842351,57.9215131 C74.3264451,58.4639961 73.7252616,59.2615486 72.6395268,60.0491011 C71.764239,60.6840031 70.6186323,60.8777939 70.0747213,60.6297211 L69.6910179,60.420078 L67.5023639,59.1320526 C66.4604565,58.5084245 65.1085109,57.689688 63.4534802,56.6733769 L50.1994617,63.1819404 L50.0293113,63.2698238 L50.0293113,63.2698238 C49.6153031,63.4949254 49.4662281,63.9016091 49.608848,64.1460782 L49.8805982,64.6998288 L50.7266856,66.5495037 C50.8341108,66.7882929 50.9492538,67.045263 51.0721556,67.3206598 L52.0200451,69.4622419 L51.8705044,69.8863052 L51.6423828,69.7428711 C51.6461141,69.876123 51.6098328,69.9674276 51.5335388,70.0167847 L51.4744843,70.0407232 C51.4559329,70.0120219 51.444821,69.9787625 51.4427008,69.9441875 L51.4537586,69.8655413 L51.649562,69.4789825 L49.3184369,64.4525772 L49.2633444,64.3476402 L49.2633444,64.3476402 C48.9992303,63.8949142 49.2374372,63.2450741 49.8382424,62.9184086 L51.4239801,62.1296576 C53.4639653,61.1291159 57.4538386,59.1943642 63.4670886,56.321381 L68.9913081,59.5582758 C69.586112,59.9028306 69.9727137,60.1233033 70.1484679,60.2181913 L70.2407084,60.2657867 C70.6430893,60.4493088 71.6387413,60.2808844 72.4046626,59.7253129 C73.3387309,59.0477737 73.8476119,58.3726732 73.7189875,58.0845904 C73.5989486,57.8157365 69.6363032,55.3960422 68.3648096,54.7293614 L68.2021803,54.6464681 C67.8467279,54.4720513 67.5856488,54.2967666 67.4291553,54.1074782 C67.2127547,53.8457286 67.2010846,53.5497815 67.43273,53.2903714 C68.4131604,52.1924285 73.7376087,47.0447755 74.1031276,47.1109373 Z M74.7495564,48.1552798 L70.708,51.782 L74.77,54.226 L77.4365044,51.5323052 L76.0594032,49.7244819 C75.6675819,49.1979829 75.1617994,48.5985597 74.7495564,48.1552798 Z" id="形状" fill="#787883"></path>
                <path d="M75.5555451,45.3649414 L75.5885393,45.4044486 L75.6930456,45.4712173 C76.107392,45.847736 77.2707171,47.1089007 77.615332,47.4699219 C78.0173828,47.8911133 79.6671875,50.6555664 79.7056641,50.8847656 C79.7422199,51.1025233 79.2003374,51.9323045 78.9094697,52.3249813 L76.4341168,49.0712564 C75.6617395,48.0710868 75.1779351,47.4684379 74.9827284,47.2625125 L74.9366455,47.2161865 C74.7523465,47.0434229 74.5580532,46.8732048 74.3537657,46.7055322 L74.2495955,46.6222244 L74.2777344,46.6347656 L74.2777344,46.6347656 L74.6925207,46.1656602 C75.1924944,45.6118997 75.4801692,45.3449935 75.5555451,45.3649414 Z" id="路径" fill="#B8BAC9"></path>
                <path d="M77.615332,47.4699219 C77.8848365,47.7522568 78.7150003,49.0875008 79.2446675,50.0062444 L78.984375,50.088501 L78.0756836,48.6018066 L77.8397705,48.8444411 L76.0164063,47.2153433 L76.5593278,46.3487936 L77.615332,47.4699219 L77.615332,47.4699219 Z" id="路径" fill="#DBDBDC"></path>
                <path d="M63.4534802,56.6733769 C63.5599329,56.326347 63.4752197,56.05896 63.1993408,55.8712158 C62.7855225,55.5895996 58.1815186,52.1011963 57.8592529,51.888916 C57.5369873,51.6766357 57.3237305,50.7199707 57.8592529,49.8554688 C58.3947754,48.9909668 59.5924561,46.4716797 58.9466797,43.1223145 C58.3009033,39.7729492 56.8043213,32.9080811 56.3828125,31.7012939 C55.9613037,30.4945068 54.6850586,28.2001953 54.1088867,27.9188232 C53.5327148,27.6374512 52.7716064,27 52.4906006,27.1368408 C52.2095947,27.2736816 51.2705078,29.2667236 50.9633789,29.5559082 C50.65625,29.8450928 47.9487305,33.1383057 46.7943115,35.3405762 C45.6398926,37.5428467 44.6478271,39.4084473 43.5701904,40.5095215 C42.4925537,41.6105957 41.0273438,42.8469727 39.9344482,43.6439209 C38.8415527,44.4408691 37.6213379,46.0274658 37.1954346,46.6464844 C36.7695313,47.2655029 35.345459,48.9657715 34.6296387,49.6050781 C34.1524251,50.0312826 32.9559326,50.8644206 31.0401611,52.1044922 L30.6783447,52.2872314 L30.3509766,52.1044922 C29.8900228,52.0655924 29.3845215,52.2067871 28.8344727,52.5280762 C28.0093994,53.0100098 27.8983154,53.4490967 27.9761963,53.5727539 C28.0251551,53.6504895 27.7972412,53.8810425 27.3200073,54.2402954 C27.2993889,54.2558166 27.2822724,54.3156793 27.2686577,54.4198836 C28.4962908,55.4616317 30.2827148,56.1307397 32.6279297,56.4272078 C36.145752,56.87191 40.65625,56.9422588 43.1608887,56.5310897 C45.6655273,56.1199206 46.2601318,55.7448348 46.793457,56.0462264 C47.3267822,56.347618 51.6398926,59.4143904 52.041626,59.6486434 C52.3094482,59.804812 52.7213135,60.026952 53.2772217,60.3150635 L63.4534802,56.6733769 Z" id="路径-596" fill="#8F2913"></path>
                <path d="M63.4534802,56.6733769 C63.5599329,56.326347 63.4752197,56.05896 63.1993408,55.8712158 C62.7855225,55.5895996 58.1815186,52.1011963 57.8592529,51.888916 C57.5369873,51.6766357 57.3237305,50.7199707 57.8592529,49.8554688 C58.3947754,48.9909668 59.5924561,46.4716797 58.9466797,43.1223145 C58.3009033,39.7729492 56.8043213,32.9080811 56.3828125,31.7012939 C55.9613037,30.4945068 54.6850586,28.2001953 54.1088867,27.9188232 C53.5327148,27.6374512 52.7716064,27 52.4906006,27.1368408 C52.2095947,27.2736816 51.2705078,29.2667236 50.9633789,29.5559082 C50.65625,29.8450928 47.9487305,33.1383057 46.7943115,35.3405762 C45.6398926,37.5428467 44.6478271,39.4084473 43.5701904,40.5095215 C42.4925537,41.6105957 41.0273438,42.8469727 39.9344482,43.6439209 C38.8415527,44.4408691 37.6213379,46.0274658 37.1954346,46.6464844 C36.7695313,47.2655029 35.345459,48.9657715 34.6296387,49.6050781 C34.1524251,50.0312826 32.9559326,50.8644206 31.0401611,52.1044922 L30.6783447,52.2872314 L30.3509766,52.1044922 C29.8900228,52.0655924 29.3845215,52.2067871 28.8344727,52.5280762 C28.0093994,53.0100098 27.8983154,53.4490967 27.9761963,53.5727539 C28.0281169,53.6551921 27.7925555,53.8792318 27.2695122,54.244873 C28.4971453,55.2866211 30.2835693,55.9557292 32.6287842,56.2521973 C36.1466064,56.6968994 40.6571045,56.7672482 43.1617432,56.3560791 C45.6663818,55.94491 46.2609863,55.5698242 46.7943115,55.8712158 C47.3276367,56.1726074 51.6407471,59.2393799 52.0424805,59.4736328 C52.3103027,59.6298014 52.722168,59.8519415 53.2780762,60.1400529 L63.4534802,56.6733769 Z" id="路径-596" fill="#E1583A"></path>
                <path d="M57.9518286,49.6471423 L58.0494986,49.5246168 L57.8592529,49.8554688 L57.8592529,49.8554688 C57.3237305,50.7199707 57.5369873,51.6766357 57.8592529,51.888916 L58.2348145,52.1615716 C59.4114343,53.0324383 62.8446394,55.6298305 63.1993408,55.8712158 C63.4292399,56.0276693 63.526385,56.2394303 63.490776,56.5064989 L63.4534802,56.6733769 L53.2780762,60.1400529 L52.4330078,59.6927014 C52.2797852,59.6091231 52.1496094,59.5361003 52.0424805,59.4736328 L51.6236402,59.1959168 C50.4318591,58.3815692 47.2476379,56.1273987 46.7943115,55.8712158 C46.746626,55.8442679 46.6984505,55.822728 46.6484637,55.8061384 L46.5089844,55.626324 C48.9670247,55.0084166 51.1873372,54.2590332 53.1699219,53.3781738 C54.9722715,52.5773926 56.5662405,51.3337154 57.9518286,49.6471423 L57.9518286,49.6471423 Z" id="路径" fill="#CB4528"></path>
                <path d="M52.9012451,28.6864014 C55.6216832,32.8906192 56.3446063,38.7221178 56.6186523,41.4284668 C57.2918462,48.0766111 55.9968634,49.5242194 54.5545686,50.5273318 L54.4230957,50.6174316 C52.9296191,51.6276855 48.6730469,53.7186373 45.2692871,54.7299805 C41.8655273,55.7413237 35.3324595,55.8150731 32.8359375,55.355957 C31.009593,55.0200881 28.9443421,54.3799582 27.7919385,53.8428767 C27.9452765,53.7078771 28.0050122,53.6185071 27.9761963,53.5727539 C27.8983154,53.4490967 28.0093994,53.0100098 28.8344727,52.5280762 C29.2928467,52.2603353 29.7202849,52.11766 30.1167874,52.1000502 L30.3509766,52.1044922 L30.6783447,52.2872314 L31.0401611,52.1044922 L32.6042733,51.0753895 C33.6241383,50.3902465 34.2992601,49.9001427 34.6296387,49.6050781 C35.273877,49.0297021 36.4917993,47.594947 37.0394249,46.8624852 L37.5009807,46.2234416 C38.0608435,45.4766257 39.040261,44.2959695 39.9344482,43.6439209 C41.0273438,42.8469727 42.4925537,41.6105957 43.5701904,40.5095215 C44.3539262,39.7087402 45.0924012,38.5035814 45.8809853,37.0586299 L46.7943115,35.3405762 C47.8483462,33.3298074 50.1971207,30.4095764 50.8314066,29.6967995 L50.9633789,29.5559082 C50.9733576,29.5465126 51.2986749,29.0265744 51.9393311,27.9960938 C52.4891359,28.3149375 52.8097739,28.54504 52.9012451,28.6864014 Z" id="路径" fill="#F76D4F"></path>
                <path d="M30.1167874,52.1000502 L30.3509766,52.1044922 L30.6514333,52.2720502 L30.483223,52.4174461 C30.2277756,52.6195869 29.92099,52.8214417 29.5628662,53.0230103 C28.750628,53.4801754 28.192258,53.6042723 27.9676238,53.6377473 L27.9823244,53.6003738 L27.9823244,53.6003738 L27.9761963,53.5727539 C27.9307551,53.5006035 27.9496447,53.3210687 28.1371541,53.0882942 C28.1958238,53.0794033 28.2683788,53.0560761 28.3550662,53.0184471 L28.4957275,52.9512939 C28.8045375,52.7924306 29.2497995,52.6427101 29.8421021,52.2338867 C29.8732374,52.2123962 29.898641,52.1755375 29.9183129,52.1233106 L30.1167874,52.1000502 Z" id="路径" fill="#A13F29"></path>
                <path d="M52.2086242,30.8349722 C52.7287598,31.796875 53.9162598,35.1108398 54.4443359,37.5209961 C54.9724121,39.9311523 55.4467773,42.6148437 55.5955811,44.6926758 L55.6320231,45.286725 C55.710271,46.9854834 55.4504883,47.9743408 53.277832,49.3496094 C50.8637695,50.8776855 45.6733398,52.9029824 43.1437988,53.3413086 C40.6142578,53.7796348 37.5418866,53.8901367 35.0645224,53.8654785 C32.5871582,53.8408203 31.6879883,53 31.0401611,52.1044922 L32.6042733,51.0753895 C33.6241383,50.3902465 34.2992601,49.9001427 34.6296387,49.6050781 C35.273877,49.0297021 36.4917993,47.594947 37.0394249,46.8624852 L37.5009807,46.2234416 C38.0608435,45.4766257 39.040261,44.2959695 39.9344482,43.6439209 C41.0273438,42.8469727 42.4925537,41.6105957 43.5701904,40.5095215 C44.3539262,39.7087402 45.0924012,38.5035814 45.8809853,37.0586299 L46.7943115,35.3405762 C47.9487305,33.1383057 50.65625,29.8450928 50.9633789,29.5559082 C51.5498914,29.966816 51.9677906,30.3895912 52.2086242,30.8349722 Z" id="路径" fill="#E8E5E2"></path>
                <path d="M50.9633789,29.5559082 C51.5498914,29.966816 51.9677906,30.3895912 52.2086242,30.8349722 L52.3384262,31.0940995 C51.6088448,33.6721478 51.195615,35.9176854 51.0979406,37.8353403 L51.0770686,38.4624211 C50.9998402,43.6318735 45.4431152,51.5097656 36.486084,53.0515137 C34.0374569,53.4729888 31.6879883,53 31.0401611,52.1044922 L32.6042733,51.0753895 L33.5092239,50.4552596 C34.0359147,50.0851817 34.4093863,49.8017879 34.6296387,49.6050781 C35.273877,49.0297021 36.4917993,47.594947 37.0394249,46.8624852 L37.5009807,46.2234416 C38.0608435,45.4766257 39.040261,44.2959695 39.9344482,43.6439209 C41.0273438,42.8469727 42.4925537,41.6105957 43.5701904,40.5095215 C44.3539262,39.7087402 45.0924012,38.5035814 45.8809853,37.0586299 L46.7943115,35.3405762 C47.9487305,33.1383057 50.65625,29.8450928 50.9633789,29.5559082 Z" id="路径" fill="#F1EFEE"></path>
                <path d="M35.3498535,49.6050781 L34.4266968,50.7524414 L34.0824585,50.7524414 L34.786377,49.7205811 L35.3498535,49.6050781 Z M38.4129639,49.6050781 C38.4900309,49.5889079 38.4088542,49.9618408 38.1694336,50.723877 C37.6590169,50.7631429 37.4558309,50.6715291 37.5598755,50.4490356 C37.6379089,50.2821655 37.7434387,50.2073822 37.8138275,50.1779236 C37.7338812,50.1284382 37.7481689,49.7815955 37.8569336,49.6050781 C37.9777832,49.4089478 38.2973633,49.6293335 38.4129639,49.6050781 Z M43.011261,49.2040405 C42.9966736,49.3850403 42.5933228,49.4180908 42.5246582,49.3568115 C42.4559937,49.2955322 42.5070496,49.1987601 42.6522217,49.1278835 C42.7973938,49.0570068 43.0258484,49.0230408 43.011261,49.2040405 Z M46.387085,45.9552002 L47.2133789,46.7813962 L47.1091919,46.9713745 L45.8045898,46.6936035 L45.9158325,46.4981079 L46.4760742,46.5023193 L46.230957,46.1729126 L46.387085,45.9552002 Z M44.8559474,38.8206835 C44.8596802,38.9679287 44.8389883,39.1365325 44.7954712,39.3225098 C44.7125041,39.6770833 44.0671997,40.444397 42.8595581,41.6244507 C42.9828084,41.714091 43.0533854,41.7433786 43.0712891,41.7123135 C43.909668,41.1287582 44.5812988,40.332157 45.0861816,39.3225098 C45.0913086,39.7083333 45.0275879,40.0939128 44.8950195,40.479248 C44.777181,40.8217683 44.3550598,41.2698055 43.6286559,41.8233597 L43.3419913,42.0358887 L43.755127,42.4818115 L43.0712891,43.1497803 L42.3795166,42.8215332 C41.8652751,43.3348796 41.4160563,43.87618 41.0318604,44.4454346 C40.9631898,44.5471822 40.8766477,44.6502418 40.7763338,44.7531369 C40.9692886,44.8353458 41.1523765,44.902196 41.2983354,44.9485641 L41.4309082,44.987915 C42.1146647,45.1738959 42.8360852,45.2992094 43.746147,44.9771956 L44.0965576,44.8347168 C44.3001709,44.7314453 44.4220581,45.0485229 43.8502808,45.2495117 C43.2785034,45.4505005 42.3818359,45.5589178 41.6622925,45.363901 C41.3515563,45.2796827 40.9348917,45.1300491 40.5428396,44.9671008 C39.8477377,45.5743208 38.7624227,46.1387299 38.1542331,46.3496012 L37.9502212,46.411499 C37.7259134,46.4670063 37.442786,46.5903054 37.1008391,46.7813962 L37.5009807,46.2234416 L37.7736843,45.868763 C38.160116,45.6857352 38.6472367,45.5674346 38.9619751,45.363901 C39.2158508,45.1997259 39.5772868,44.8909167 39.8464168,44.6476952 L39.5819968,44.4974544 C39.5095155,44.4511789 39.4541934,44.4092802 39.4205322,44.3734741 C39.3608481,44.309987 39.3227629,44.2425561 39.3062766,44.1711815 L39.5284585,43.9683848 L39.5842913,44.0361287 C39.6792257,44.1435112 39.7756606,44.2295518 39.8735962,44.2942505 L40.093233,44.4190168 L41.7567749,42.711853 C41.8227743,42.5920207 41.8227743,42.5153402 41.7567749,42.4818115 C41.6907756,42.4482829 41.1420492,42.8777262 40.1105957,43.7701416 L41.2723698,42.6038728 L41.3102329,42.568053 C42.0920769,41.9204435 42.9049756,41.1892041 43.5701904,40.5095215 C44.0073408,40.0628635 44.4304099,39.4903972 44.8559474,38.8206835 Z M47.8807373,43.3645508 L49.2788696,43.6760193 L49.1565044,43.9874878 L47.7634277,43.6289444 L47.8807373,43.3645508 Z M48.8630981,40.0402222 C48.9799805,40.0419922 49.5004883,40.4102173 49.5997925,40.3256836 C49.6990967,40.2411499 50.0431519,40.1845703 50.211853,40.2108154 C50.3082537,40.2258126 50.3515463,40.3347542 50.3417309,40.53764 L50.3323975,40.6469116 L48.7037964,40.6469116 L48.7037964,40.4466553 L49.1565044,40.4466553 L48.7037964,40.2108154 C48.732076,40.0959066 48.7851766,40.0390422 48.8630981,40.0402222 Z M50.1639404,36.2345703 L50.2431641,36.4474487 L49.7796021,36.6763306 L49.7796021,36.8335571 L50.3574829,36.6763306 L50.4436646,36.8335571 L48.8746948,37.3553467 L48.8746948,37.1566772 L49.5211487,36.9560547 L49.4255371,36.8335571 L48.7919312,36.9560547 C48.6551426,36.8980887 48.6069772,36.8598085 48.6474348,36.8412139 L48.6750488,36.8335571 C48.7567139,36.819519 49.2530111,36.6198568 50.1639404,36.2345703 Z M48.3567505,33.4543848 L48.5211487,33.5662842 C47.9901632,34.1254069 47.6977539,34.4625041 47.6439209,34.5775757 C47.5631714,34.7501831 47.8101807,34.6858521 48,34.5775757 C48.1265462,34.5053914 48.3410645,34.2490496 48.6435547,33.8085501 C48.8216553,33.8455665 48.8818766,33.9042358 48.8242188,33.9845581 C48.4549561,34.477356 47.8240051,35.0059204 47.6213379,34.9224854 C47.4186707,34.8390503 47.3300781,34.6217041 47.5211487,34.4239502 C47.6485291,34.2921143 47.927063,33.9689258 48.3567505,33.4543848 Z" id="形状结合" fill="#515151"></path>
                <path d="M69.2236328,61.9604492 C69.2808838,61.5649414 68.5872803,60.724547 67.2408447,59.6359552 C65.8944092,58.5473633 59.942627,53.3730469 59.552002,53.3183594 C59.161377,53.2636719 58.4648438,53.6337891 54.9594727,55.7280273 C51.4541016,57.8222656 50.4456787,57.9795262 51.4401855,58.937517 C52.4346924,59.8955078 60.46521,66.5040283 60.8400879,66.5360107 C61.2149658,66.5679932 69.1663818,62.355957 69.2236328,61.9604492 Z" id="路径-597" fill="#403C3C"></path>
                <path d="M68.8360596,61.9549561 C68.8933105,61.5594482 68.199707,60.7190539 66.8532715,59.630462 C65.5068359,58.5418701 59.7645264,53.6540527 59.3739014,53.5993652 C58.9832764,53.5446777 58.6130371,53.699707 55.107666,55.7939453 C51.6022949,57.8881836 50.6574707,57.9046801 51.6519775,58.8626709 C52.6464844,59.8206617 60.5197754,66.30896 60.8946533,66.3409424 C61.2695312,66.3729248 68.7788086,62.3504639 68.8360596,61.9549561 Z" id="路径-597" fill="#252222"></path>
                <polygon id="路径-609" fill="#4E4F58" points="66.4803467 61.3973352 64.8372803 60.0664062 58.9189453 63.7069092 60.8467374 64.9362178"></polygon>
                <polygon id="路径-609" fill="#AAA9B5" points="64.5748291 59.3815918 62.9317627 58.0506628 57.0134277 61.6911657 58.9412199 62.9204743"></polygon>
                <path d="M57.741333,55.2965088 C56.916748,55.7095947 52.5297852,58.1906738 52.2950439,58.4287109 C52.0603027,58.666748 52.3604736,58.97229 52.5245361,59.1571045 C52.6885986,59.3419189 55.0936279,61.184082 55.2713623,61.2050781 C55.4490967,61.2260742 62.526001,57.3978271 62.5195534,57.1456299 C62.5130615,56.8934326 59.8756104,54.4229736 59.6706543,54.4049072 C59.4656982,54.3868408 58.565918,54.8834229 57.741333,55.2965088 Z" id="路径-598" fill="#353439"></path>
                <path d="M62.6970215,57.3583984 C62.873291,57.3220215 66.0922852,60.1868896 66.6202393,60.6682129 C67.1481934,61.1495361 67.8320312,61.5315022 67.440918,61.8481445 C67.0498047,62.1647869 61.1220703,65.9428062 60.8817139,65.7834758 C60.7214762,65.6772556 58.959432,64.2361247 55.5955811,61.460083 C60.2123617,58.7498779 62.5795085,57.3826497 62.6970215,57.3583984 Z M61.8767634,62.48895 L61.7783203,62.5074463 C61.2572021,62.6560059 60.5296631,63.0799641 60.3192139,63.4925537 C60.1087646,63.9051433 60.5997314,64.3132324 60.9553223,64.2254639 C61.3109131,64.1376953 62.1251221,63.4510498 62.25354,63.2669678 C62.381958,63.0828857 62.2994385,62.3588867 61.7783203,62.5074463 Z M59.5308103,60.5740968 L59.4361572,60.5917969 C58.9150391,60.7403564 58.1901855,61.0164795 57.9317627,61.5240559 C57.6733398,62.0316323 58.2850342,62.5901118 58.803833,62.3687744 C59.3226318,62.147437 59.9990363,61.8510823 60.1094971,61.5197754 C60.2199579,61.1884685 59.9572754,60.4432373 59.4361572,60.5917969 Z M65.1377497,60.6466648 L65.0393066,60.6651611 C64.5181885,60.8137207 63.7286377,61.2142414 63.5181885,61.6268311 C63.3077393,62.0394207 63.7987061,62.4475098 64.1542969,62.3597412 C64.5098877,62.2719727 65.3861084,61.6087646 65.5145264,61.4246826 C65.6429443,61.2406006 65.5604248,60.5166016 65.0393066,60.6651611 Z M63.2462644,58.558838 L63.1516113,58.5765381 C62.6304932,58.7250977 61.9056396,59.0012207 61.6472168,59.5087971 C61.3887939,60.0163735 62.0004883,60.574853 62.5192871,60.3535156 C63.0380859,60.1321782 63.7144904,59.8358235 63.8249512,59.5045166 C63.935412,59.1732097 63.6727295,58.4279785 63.1516113,58.5765381 Z" id="形状结合" fill="#353439"></path>
            </g>
        </g>
    </g>
</svg>