<?xml version="1.0" encoding="UTF-8"?>
<svg width="96px" height="96px" viewBox="0 0 96 96" version="1.1" xmlns="http://www.w3.org/2000/svg" xmlns:xlink="http://www.w3.org/1999/xlink">
    <title>Aj</title>
    <defs>
        <rect id="path-1" x="0" y="0" width="96" height="96"></rect>
    </defs>
    <g id="icon" stroke="none" stroke-width="1" fill="none" fill-rule="evenodd">
        <g id="画板" transform="translate(-158.000000, -54.000000)">
            <g id="Aj" transform="translate(158.000000, 54.000000)">
                <g id="#" opacity="0">
                    <use fill="#FFFFFF" fill-rule="evenodd" xlink:href="#path-1"></use>
                    <rect stroke-opacity="0.5" stroke="#DDDDDD" stroke-width="6" stroke-linejoin="square" x="3" y="3" width="90" height="90"></rect>
                    <rect stroke-opacity="0.507785184" stroke="#DDDDDD" stroke-width="12" stroke-linejoin="square" x="6" y="6" width="84" height="84"></rect>
                </g>
                <path d="M13.4366048,61.8771918 C13.0756022,59.2723777 14.074056,57.8007813 16.4319661,57.4624023 C19.9688314,56.954834 30.1499837,56.0576172 36.6946615,51.7077637 C43.2393392,47.3579102 50.3819173,42.8024902 52.3277181,38.9628906 C54.2735189,35.123291 57.0652669,27.0129395 58.6526693,26.8803711 C60.2400716,26.7478027 63.2356771,29.2402344 63.8699544,30.3728027 C64.5042318,31.5053711 65.3167318,32.4912109 67.9485677,33.8049316 C70.5804036,35.1186523 72.4500326,37.2121582 74.5408529,37.2905273 C76.6316732,37.3688965 78.4790853,37.5893555 78.6370443,38.3117676 C78.7423503,38.7933757 79.6568197,42.3939616 81.3804525,49.1135254 C82.2111816,50.6517741 82.7145996,53.2281901 82.8907064,56.8427734 C83.0668132,60.4573568 83.1430664,62.589681 83.1194661,63.2397461 C83.5813802,63.6870117 83.505127,63.9610189 82.8907064,64.0617676 C81.9690755,64.2128906 64.4878743,64.7106934 56.5269368,65.0444336 C48.5659993,65.3781738 41.3174642,66.8120117 31.4273275,66.0446777 C21.5371908,65.2773438 15.9124349,63.4389648 14.5804036,63.2397461 C13.6923828,63.1069336 13.3111165,62.6527488 13.4366048,61.8771918 Z" id="路径-4" fill="#E0E3EE"></path>
                <path d="M63.8699544,30.3728027 C64.1555261,30.8827207 64.4772249,31.3628955 64.9848283,31.8566428 C64.9351551,32.281012 64.8072884,32.726442 64.6022135,33.1927083 C60.4001736,37.6914062 57.9977581,40.4811198 57.3949671,41.561849 C56.4907805,43.1829427 51.9264323,45.1123047 49.8264974,47.2714844 C47.7265625,49.4306641 37.0621745,55.132487 36.4023078,55.1217805 C35.7424412,55.1105489 34.4895833,54.1494141 34.0940755,53.3807703 C34.0668092,53.3277801 34.0470449,53.2705675 34.0339128,53.2097811 C34.9672903,52.760494 35.8605125,52.2621723 36.6946615,51.7077637 C43.2393392,47.3579102 50.3819173,42.8024902 52.3277181,38.9628906 C54.2735189,35.123291 57.0652669,27.0129395 58.6526693,26.8803711 C60.2400716,26.7478027 63.2356771,29.2402344 63.8699544,30.3728027 Z" id="形状结合" fill="#DCE8FA"></path>
                <path d="M60.7475277,27.5770703 L60.7655983,27.6543795 C60.7931999,27.8080957 60.7667806,27.9136556 60.662028,27.9006348 C60.4001465,27.8680827 58.8036296,28.2068685 58.070638,29.5419108 L57.5819596,30.4550585 C57.0643,31.4426183 56.6458709,32.2910094 56.4750977,32.5101725 C56.2530924,32.7950846 56.2466634,33.3993327 55.8527018,33.4543457 C55.6215343,33.4866261 55.2955688,33.4154084 54.8748054,33.2406926 L55.4210437,31.9901798 C56.6323808,29.2605623 57.8115809,26.9506127 58.6526693,26.8803711 C59.2263444,26.8324619 59.9839372,27.1273894 60.7475277,27.5770703 Z" id="路径" fill="#43ABF4"></path>
                <path d="M57.6929932,28.1093343 L55.9715595,31.743313 C55.8276649,32.0424132 55.7329373,32.2352973 55.7246094,32.2424316 C55.6989682,32.2643979 55.4061481,32.3637595 55.2343884,32.4144574 L55.4210437,31.9901798 C56.2383904,30.1483773 57.0411056,28.4976429 57.7351933,27.5970964 C57.7624804,27.7334619 57.7803243,27.9226656 57.6929932,28.1093343 Z" id="路径" fill="#AB0000"></path>
                <path d="M35.3222656,53.3807703 C35.6629232,53.3898112 38.9129232,51.0681596 39.4099935,50.7588519 C39.7413737,50.5526468 40.8028429,49.8560039 42.594401,48.6689231 C43.71269,48.9387647 44.4695301,49.0053337 44.8649212,48.8686299 C45.2603123,48.7319261 45.4194065,47.9080946 45.3422038,46.3971354 C46.2579774,45.2235648 46.8316338,44.5196362 47.063173,44.2853494 C47.4104818,43.9339193 50.7698568,41.0345052 50.8035482,41.6464844 C50.8372396,42.2584635 53.921224,42.7400171 54.8237305,42.7761772 C55.726237,42.8123372 57.059082,38.2918819 56.9085286,37.7819273 C56.8081597,37.4419575 55.7938921,36.7709911 53.8657257,35.7690279 C54.568123,35.1960128 55.0203603,34.922092 55.2224376,34.9472656 C55.5255534,34.985026 57.5861003,35.4732772 57.7133789,35.7690279 C57.8406576,36.0647786 59.2558594,39.0980393 58.5135091,40.9614258 C57.7711589,42.8248122 54.8922587,45.8746745 53.8657257,45.9171549 C52.8391927,45.9596354 49.6967773,45.4390303 48.8699544,46.5714032 C48.0431315,47.703776 46.9365234,50.6737456 45.2605794,51.0137934 C43.5846354,51.3538411 38.1805013,54.1463216 36.991862,54.3948568 C35.8032227,54.6433919 34.9816081,53.3717295 35.3222656,53.3807703 Z" id="路径-24" fill="#000000"></path>
                <path d="M80.2669271,45.3999023 C80.33073,45.6696782 80.2468758,45.8564295 80.0153646,45.9601563 C73.9861758,48.6614861 68.626499,49.785621 66.9853516,48.9352214 C64.3818412,47.5861504 55.7089844,44.1438802 54.9651693,42.6393229 C54.2213542,41.1347656 57.9448726,28.8742379 61.9271361,29.9894574 C65.9093996,31.1046769 67.7297121,32.1661212 69.1049233,33.0628695 C70.4801344,33.9596178 72.3099486,35.7127851 74.5772628,35.898807 C76.844577,36.084829 79.1403963,36.4211888 78.7470263,37.9678526 C78.4847797,38.9989619 78.9914133,41.4763118 80.2669271,45.3999023 Z" id="路径-11" fill="#262327"></path>
                <path d="M61.9271361,29.9894574 C65.9093996,31.1046769 67.7297121,32.1661212 69.1049233,33.0628695 C70.4801344,33.9596178 72.3099486,35.7127851 74.5772628,35.898807 C76.844577,36.084829 79.1403963,36.4211888 78.7470263,37.9678526 C78.7128258,38.1023233 78.6917022,38.2613913 78.6836554,38.4450564 C78.2943357,37.8411558 78.0188056,37.4472615 77.8560384,37.2621257 C77.5327148,36.8943685 74.1721191,36.5828451 72.7422689,36.2687174 C71.3124186,35.9545898 68.0878906,33.6364746 66.7600098,32.6330934 C65.6271913,31.7771064 62.2970439,30.3691602 61.2432503,29.9250232 C61.4708288,29.9055005 61.6985562,29.9254444 61.9271361,29.9894574 Z" id="形状结合" fill="#808080"></path>
                <path d="M63.5257161,31.7978516 L62.8116952,33.279969 C61.0018476,37.1192019 59.9456651,40.0537923 59.6431478,42.0837402 L59.5441689,42.8292415 C59.1847009,45.8676316 59.3954355,48.0286277 56.7415365,48.2216797 C53.8753255,48.4301758 53.3858236,47.7724609 51.3875326,49.6867676 C49.3892415,51.6010742 48.1284993,52.5476074 46.9400228,53.081543 C45.7515462,53.6154785 42.6355794,54.4980469 40.8936361,55.284668 C39.7323405,55.809082 41.494222,59.4464518 46.1792806,66.1967773 C41.0043033,66.8275872 34.8661237,66.8779538 27.7647416,66.347877 C20.0572737,65.4772286 15.6148304,64.051295 14.450765,63.8771973 C13.5627441,63.7443848 13.1814779,63.2902 13.3069661,62.5146429 C12.9459635,59.9098289 13.9444173,58.4382324 16.3023275,58.0998535 L16.9270381,58.0143669 C16.5631792,58.2044403 16.8814035,58.3561882 17.883138,58.46875 L25.4035874,59.2266685 C27.9382531,59.4882682 30.2693772,59.752206 31.0518392,59.9284668 C32.7371419,60.3081055 33.7622884,63.2612305 35.7373861,61.7302246 C37.7124837,60.1992187 34.8020833,58.4746094 34.6599935,57.043457 L34.6206009,56.5704044 C34.5658158,55.5046539 34.9090072,55.0119141 37.7090658,53.081543 C40.8909505,50.8879395 43.9070638,49.6638184 45.2683919,48.5241699 C46.6297201,47.3845215 49.9219564,43.7624512 50.8982747,43.6125488 C51.8745931,43.4626465 54.4495443,44.6462402 54.9185384,42.6540527 L55.5397592,39.9380558 C56.3586279,36.4712801 57.7516092,31.2704921 59.1275228,30.8029785 C60.3638509,30.3828939 61.8299154,30.7145182 63.5257161,31.7978516 Z" id="路径" fill="#780210"></path>
                <path d="M63.6553548,31.1604004 L62.9413339,32.6425178 C61.1314863,36.4817507 60.0753038,39.4163411 59.7727865,41.4462891 L59.6738076,42.1917903 C59.3143396,45.2301804 59.5250741,47.3911766 56.8711751,47.5842285 C54.0049642,47.7927246 53.5154622,47.1350098 51.5171712,49.0493164 C49.5188802,50.963623 48.258138,51.9101563 47.0696615,52.4440918 C45.8811849,52.9780273 42.7652181,53.8605957 41.0232747,54.6472168 C39.8619792,55.1716309 41.6238607,58.8090007 46.3089193,65.5593262 C41.1336289,66.1901742 34.9950195,66.2405087 27.8930912,65.7103296 L26.3953141,65.5293297 C19.8512175,64.6863389 15.9520227,63.4912397 14.7077321,63.2612607 L14.5804036,63.2397461 C14.3784224,63.2095378 14.1979283,63.164667 14.0389212,63.1051338 C13.8495222,63.0019542 13.6766691,62.8969295 13.5198639,62.7893679 C13.3088371,62.5879735 13.1894002,62.3210337 13.1623535,61.9910482 C12.9841851,59.3103299 14.074056,57.8007813 16.4319661,57.4624023 L17.2969036,57.3453714 L17.2969036,57.3453714 C16.9343512,57.5738252 17.2248342,57.8102349 18.1708984,58.0555013 C20.5685221,58.6770833 29.4961751,58.911377 31.1814779,59.2910156 C32.8667806,59.6706543 33.8919271,62.6237793 35.8670247,61.0927734 C37.8421224,59.5617676 34.931722,57.8371582 34.7896322,56.4060059 L34.7502396,55.9329532 C34.6954544,54.8672027 35.0386458,54.3744629 37.8387044,52.4440918 C41.0205892,50.2504883 44.0367025,49.0263672 45.3980306,47.8867188 C46.7593587,46.7470703 50.0515951,43.125 51.0279134,42.9750977 C52.0042318,42.8251953 54.5791829,44.0087891 55.0481771,42.0166016 L55.6693978,39.3006046 C56.4882666,35.8338289 57.8812479,30.6330409 59.2571615,30.1655273 C60.4934896,29.7454427 61.959554,30.0770671 63.6553548,31.1604004 Z" id="路径" fill="#A02434"></path>
                <path d="M55.3837168,40.4797443 C55.4000326,40.4782227 52.7542017,38.1521484 52.9323906,37.6613281 C53.1105794,37.1705078 51.5010091,38.8182209 51.5357747,39.0705362 C51.5705404,39.3228516 54.3439779,42.015918 54.9227865,42.1271484 C55.5015951,42.2383789 55.3674011,40.481266 55.3837168,40.4797443 Z" id="路径-20" fill="#000000"></path>
                <path d="M42.4922689,66.6546875 C39.6193848,61.837793 37.2637533,58.8599284 35.4253743,57.7210938 C32.667806,56.0128418 32.1704915,55.5577637 34.4156087,53.9122559 C36.6607259,52.266748 42.9234212,47.9988813 43.1306966,48.3375266 C43.337972,48.6761719 43.9756673,54.5694824 44.7642415,56.5387207 C45.2899577,57.8515462 46.9773763,61.0291992 49.8264974,66.0716797 L42.4922689,66.6546875 Z" id="路径-6" fill="#780210"></path>
                <path d="M42.9541829,66.3486328 C40.0812988,61.5317383 37.7256673,58.5538737 35.8872884,57.4150391 C33.1297201,55.7067871 32.6324056,55.251709 34.8775228,53.6062012 C37.12264,51.9606934 43.3853353,47.6928266 43.5926107,48.0314719 C43.7998861,48.3701172 44.4375814,54.2634277 45.2261556,56.232666 C45.7518717,57.5454915 47.4392904,60.7231445 50.2884115,65.765625 L42.9541829,66.3486328 Z" id="路径-6" fill="#AE293D"></path>
                <path d="M80.2352865,43.9144043 C80.1791341,43.3255371 80.1813314,42.4004883 79.7494466,41.9910645 C79.3175618,41.5816406 68.441097,36.1749023 66.4957845,35.1832031 C64.550472,34.1915039 58.7557943,32.0972656 58.0524251,32.0691895 C57.349056,32.0411133 56.2648275,34.4305176 55.6959798,35.9705566 C55.1271322,37.5105957 54.2775228,38.3841309 58.5519368,41.441748 C62.8263509,44.4993652 68.8971517,48.696875 69.2557943,48.8101562 C69.6144368,48.9234375 72.6390951,49.2041992 80.1056478,45.8379883 C80.3353841,45.6075195 80.2914388,44.5032715 80.2352865,43.9144043 Z" id="路径-7" fill="#780210"></path>
                <path d="M80.3965658,43.4763184 C80.3404134,42.8874512 80.3426107,41.9624023 79.9107259,41.5529785 C79.4788411,41.1435547 68.6023763,35.7368164 66.6570638,34.7451172 C64.7117513,33.753418 58.9170736,31.6591797 58.2137044,31.6311035 C57.5103353,31.6030273 56.4261068,33.9924316 55.8572591,35.5324707 C55.2884115,37.0725098 54.4388021,37.9460449 58.7132161,41.0036621 C62.9876302,44.0612793 69.058431,48.2587891 69.4170736,48.3720703 C69.7757161,48.4853516 72.8003743,48.7661133 80.2669271,45.3999023 C80.4966634,45.1694336 80.4527181,44.0651855 80.3965658,43.4763184 Z" id="路径-7" fill="#A02434"></path>
                <path d="M66.8474935,63.9931641 C69.1774089,57.5716146 70.4343262,54.2254232 70.6182454,53.9545898 C70.8941243,53.5483398 81.5193685,49.2607422 81.7246908,49.2479668 C81.930013,49.2353516 82.6983236,50.7341309 82.7107747,52.003418 C82.7232259,53.2727051 83.2844764,55.5302472 83.416815,56.7811148 C83.5491536,58.0319824 83.6890462,62.1259766 83.1194661,63.2397461 C81.7779948,63.7381185 80.6548665,63.9892578 79.7500814,63.9931641 L66.8474935,63.9931641 Z" id="路径-8" fill="#A02434"></path>
                <path d="M81.1221517,47.2714844 C74.7736816,49.8155924 69.7018229,51.5880534 65.9065755,52.5888672 C60.2137044,54.0900879 55.6909993,56.6245957 56.4519857,49.2479668 C53.1407064,51.2597656 50.9761556,54.784668 53.0701497,57.4140625 C55.1641439,60.043457 61.8374837,57.2092285 70.2852376,53.7697754 C75.9170736,51.4768066 79.7302246,49.9695371 81.7246908,49.2479668 L81.1221517,47.2714844 Z" id="路径-9" fill="#262327"></path>
                <path d="M36.2564224,54.7739126 C35.5573093,55.355416 35.0868701,55.1970545 34.1441969,54.3758974 C33.2015238,53.5547403 32.9773895,53.4599345 33.1993067,53.1200908 C33.421224,52.780247 34.4489325,51.4819996 34.688351,51.6559861 C34.9277696,51.8299726 36.9555356,54.1924092 36.2564224,54.7739126 Z" id="路径-12" fill="#262327"></path>
                <path d="M39.9627147,53.3807703 C39.4649317,53.8790646 38.7351393,54.031547 38.0352129,53.3807703 C37.3352865,52.7299937 34.9919588,52.1523965 34.9888836,52.0432327 C34.9858354,51.9340688 36.0193714,51.0362648 36.4023078,51.0139886 C36.7852442,50.9917124 40.4604976,52.8824761 39.9627147,53.3807703 Z" id="路径-13" fill="#262327"></path>
                <path d="M42.1260381,51.6400228 C41.5269039,52.17748 40.7849641,52.2858425 40.0089745,51.8842378 C39.2329849,51.482633 37.459341,50.9788323 37.498929,50.7381229 C37.538517,50.4974134 39.027854,49.1224644 39.1717518,49.2479668 C39.3156496,49.3734692 42.7251724,51.1025655 42.1260381,51.6400228 Z" id="路径-14" fill="#262327"></path>
                <path d="M42.3417318,48.0124249 C42.2761719,47.411889 42.3568034,46.9798503 42.5836263,46.7163086 C44.6343424,45.1543945 45.8017578,44.3508789 46.0858724,44.3057617 C46.5120443,44.2380859 47.424349,44.3496094 47.4099935,44.4801758 C47.395638,44.6107422 46.8815755,44.6563477 46.3701986,44.8723633 C45.8588216,45.0883789 44.4941732,47.4540039 44.7139974,48.2030273 C44.9338216,48.9520508 42.4400716,48.9132287 42.3417318,48.0124249 Z" id="路径-16" fill="#C9C7E4"></path>
                <path d="M41.9132003,47.2535367 C41.4034128,47.4095756 40.8362366,48.0109507 40.3731876,48.430544 C39.9101387,48.8501372 39.8985621,49.0496727 40.0089745,49.0324641 C40.119387,49.0152555 42.2770094,48.8143969 42.9659875,49.2398895 C43.6549655,49.6653822 45.3359199,51.1017847 46.0865534,50.6832562 C46.8371868,50.2647276 45.968099,48.4960624 44.9905863,48.0314719 C44.0130736,47.5668813 42.4229879,47.0974979 41.9132003,47.2535367 Z" id="路径-15" fill="#262327"></path>
                <path d="M49.3978841,48.0314719 C48.836263,48.7655805 47.5711263,48.1089844 46.5306966,47.4209961 C45.8370768,46.9623372 45.4137044,46.6145508 45.2605794,46.3776367 C45.9056315,45.227181 46.3981445,44.689388 46.7381185,44.7642578 C47.2480794,44.8765625 49.9595052,47.2973633 49.3978841,48.0314719 Z" id="路径-17" fill="#262327"></path>
                <path d="M52.7162435,46.1722656 C52.2696615,46.6124023 50.6651693,45.8112305 50.1280111,45.359668 C49.5908529,44.9081055 47.0788574,44.4193522 47.0696615,44.1148438 C47.0604655,43.8103353 48.5277507,42.4213053 48.9189453,42.4979655 C49.31014,42.5746257 51.6135722,43.5438433 52.2440094,44.2853494 C52.8744466,45.0268555 53.1628255,45.7321289 52.7162435,46.1722656 Z" id="路径-18" fill="#262327"></path>
                <path d="M57.8203451,44.7573958 C57.4101888,45.4033203 56.0911458,44.9871094 54.7560872,44.1374023 C53.4210286,43.2876953 51.6269857,42.5441406 50.6307943,42.4848633 C49.6346029,42.4255859 49.2957357,42.7941081 49.2835286,42.4848633 C49.2713216,42.1756185 50.783724,40.1266764 51.2664388,40.2777507 C51.7491536,40.4288249 55.221224,41.7681641 56.4573568,42.5672852 C57.6934896,43.3664063 58.2305013,44.1114712 57.8203451,44.7573958 Z" id="路径-19" fill="#262327"></path>
                <path d="M59.2123372,37.7067383 C59.3356771,36.9317383 58.5825521,36.1983398 56.8769857,35.8388672 C55.1714193,35.4793945 54.0067017,35.9661133 53.4608378,36.3102539 C52.914974,36.6543945 51.4384115,37.9984375 51.3083333,38.4757813 C51.2216146,38.7940104 51.3594076,39.2525449 51.7217122,39.8513847 C52.5905924,38.7871152 53.425,38.1664714 54.2249349,37.9894531 C55.4248372,37.7239258 56.4219076,37.6107275 57.3562826,37.9875977 C58.2906576,38.3644679 59.0889974,38.4817383 59.2123372,37.7067383 Z" id="路径-21" fill="#262327"></path>
                <path d="M83.1278483,62.738444 L83.8650915,69.1914307 C83.9904861,70.2888674 83.2024776,71.2801579 82.1050393,71.4055385 C82.0556588,71.4111801 82.0060851,71.4149791 81.9564216,71.4169275 C38.0683498,73.1387346 14.7095307,71.3496123 11.8799642,66.0495605 C11.755127,65.697347 11.755127,65.2023112 11.8799642,64.5644531 C12.4102919,62.2167426 12.8770345,61.1676432 13.2801921,61.4171549 C13.8849284,61.7914225 24.6981608,66.3917643 43.3241374,64.5431315 C55.7414551,63.3107096 69.0093587,62.7091471 83.1278483,62.738444 Z" id="路径-3" fill="#780210"></path>
                <path d="M83.1194661,63.2397461 L83.8458746,69.1762316 C83.980031,70.2726228 83.1999871,71.27018 82.103596,71.4043381 C82.048954,71.4110243 81.9940593,71.4154516 81.939052,71.4176088 C38.0621867,73.1382625 14.7091574,71.3489131 11.8799642,66.0495605 C11.755127,65.697347 11.755127,65.2023112 11.8799642,64.5644531 C12.4047038,62.550944 12.8686523,61.6689453 13.2718099,61.918457 C13.8765462,62.2927246 24.6897786,66.8930664 43.3157552,65.0444336 C55.7330729,63.8120117 69.0009766,63.2104492 83.1194661,63.2397461 Z" id="路径-3" fill="#E2E6EC"></path>
                <path d="M12.5398025,62.5584348 L12.5041988,62.5403585 C16.5020399,64.5304955 22.1558863,65.7640525 29.4634274,66.2366148 C32.7044316,66.4462033 35.6632094,66.4454429 38.967527,66.2660079 L40.820281,66.1503622 L42.8966282,65.99209 L42.8966282,65.99209 L48.7624565,65.4864307 C53.8817395,65.0527715 58.0699411,64.7966764 63.1324171,64.6630254 L73.9099406,64.4069872 L77.4666714,64.3431552 C80.042252,64.3035005 81.9703481,64.2912325 83.2512844,64.3063537 L83.2977557,64.7083585 L81.4987618,64.7010073 C77.9610821,64.7126197 71.8416249,64.8332388 63.1429735,65.0628861 C58.720847,65.1796317 54.9671827,65.3899495 50.6731351,65.7308167 L43.7015505,66.3267371 C41.8420233,66.4833353 40.392191,66.5892335 38.9892163,66.6654195 C35.6697241,66.8456784 32.6952167,66.8464429 29.4376142,66.635781 C22.4318168,66.1827319 16.9253092,65.0325344 12.9160956,63.1813751 L12.3857557,62.9246953 C12.4378075,62.789527 12.4891564,62.6674402 12.5398025,62.5584348 Z" id="路径" fill="#A4ABB6"></path>
                <path d="M11.9261269,64.3847281 C13.1995417,65.7050956 15.3656158,66.9190668 17.5347005,67.5056641 C19.9886701,68.1693043 26.2626465,70.0628783 45.0491536,70.5210937 C56.2598958,70.7945312 70.4059896,70.5734375 81.542513,69.6800781 C82.2827515,69.620697 83.0985393,69.4208923 83.9898763,69.0806641 L83.8403363,69.1337281 L83.8458746,69.1762316 C83.980031,70.2726228 83.1999871,71.27018 82.103596,71.4043381 C82.048954,71.4110243 81.9940593,71.4154516 81.939052,71.4176088 C38.0621867,73.1382625 14.7091574,71.3489131 11.8799642,66.0495605 C11.755127,65.697347 11.755127,65.2023112 11.8799642,64.5644531 Z" id="形状结合" fill="#848FCC"></path>
                <path d="M60.1015951,33.4003906 C59.0278646,32.8685547 56.8387207,32.2196126 55.3493652,32.9810384 C53.8600098,33.7424642 53.7225911,34.6161507 53.8915365,35.7124699 C54.1798828,35.7878806 54.3957031,35.7878806 54.5389974,35.7124699 C55.1763672,34.8949118 55.8580404,34.5267578 56.5840169,34.6080078 C57.6729818,34.7298828 59.9039388,35.7194336 60.4912435,35.2789062 C61.0785482,34.8383789 61.1753255,33.9322266 60.1015951,33.4003906 Z" id="路径-22" fill="#262327"></path>
                <path d="M63.8978678,37.9076335 C64.5148847,38.3284704 65.1054009,38.7315265 65.6694163,39.1168017 L66.4140625,38.814209 L66.7215983,39.4478848 C67.1168349,39.0400827 67.3334418,38.8288574 67.3714193,38.814209 C67.4093967,38.7995605 67.6808268,39.0623372 68.1857096,39.6025391 C69.1734484,39.1141493 70.1192763,39.1792806 71.0231934,39.7979329 C71.9271105,40.4165853 72.2849121,41.2283257 72.0965983,42.2331543 L73.054362,42.6714681 L72.686849,43.3053385 L73.4097493,43.4756673 L73.2930321,44.3649149 C74.2435148,45.0321201 74.7027765,45.3697374 74.6708171,45.3777669 C74.5396322,45.4107259 73.4236654,45.1457084 73.3263346,45.0726101 C73.2290039,44.9995117 72.6201986,45.2509766 72.5142415,45.2181803 C72.4436035,45.1963162 72.2294922,45.1477928 71.8719076,45.0726101 L71.5397135,45.2181803 L71.0443522,44.8675944 L70.6919759,45.2181803 L69.6247559,44.6863712 L69.0619303,44.517334 L66.8474935,43.0680339 L66.6396484,42.6477051 L66.3278809,42.1322149 L66.3278809,41.880778 L65.8741862,41.4812826 L65.8741862,41.1505534 L65.7261556,40.776123 L65.8741862,40.4797443 L65.5645345,40.2068392 L65.4020182,39.8399251 L65.0107422,39.4478848 L63.8978678,37.9076335 Z" id="形状结合" fill="#66232E"></path>
            </g>
        </g>
    </g>
</svg>