<?xml version="1.0" encoding="UTF-8"?>
<svg width="96px" height="96px" viewBox="0 0 96 96" version="1.1" xmlns="http://www.w3.org/2000/svg" xmlns:xlink="http://www.w3.org/1999/xlink">
    <title>Jordan Westbrook One Take PF</title>
    <defs>
        <rect id="path-1" x="0" y="0" width="96" height="96"></rect>
    </defs>
    <g id="icon" stroke="none" stroke-width="1" fill="none" fill-rule="evenodd">
        <g id="画板" transform="translate(-738.000000, -54.000000)">
            <g id="Jordan-Westbrook-One-Take-PF" transform="translate(738.000000, 54.000000)">
                <g id="#" opacity="0">
                    <use fill="#FFFFFF" fill-rule="evenodd" xlink:href="#path-1"></use>
                    <rect stroke-opacity="0.5" stroke="#DDDDDD" stroke-width="6" stroke-linejoin="square" x="3" y="3" width="90" height="90"></rect>
                    <rect stroke-opacity="0.507785184" stroke="#DDDDDD" stroke-width="12" stroke-linejoin="square" x="6" y="6" width="84" height="84"></rect>
                </g>
                <path d="M29.2331543,51.3925781 L29.5100098,50.949707 C36.3881022,48.1635742 40.03361,46.6426595 40.4465332,46.3869629 C40.8594564,46.1312663 41.8740234,45.5709635 43.4902344,44.7060547 C47.128418,42.6778971 49.0856934,41.6638184 49.3620605,41.6638184 C49.7766113,41.6638184 50.0976563,42.3212891 50.6992187,41.6638184 C51.3007812,41.0063477 61.5258789,31.8833008 62.3217773,31.279541 C63.1176758,30.6757812 64.2541504,30.559082 64.2541504,31.279541 C64.2541504,32 66.015625,34.7783203 66.015625,35.8693848 C66.015625,36.9604492 65.4367676,40.5107583 64.845459,41.0872883 C64.4512533,41.4716417 62.6056315,41.8255208 59.3085937,42.1489258 C52.1318359,44.6689453 48.543457,45.9289551 48.543457,45.9289551 C48.543457,45.9289551 42.701416,48.0745443 31.017334,52.3657227 L29.5100098,52.3657227 L29.2331543,51.3925781 Z" id="路径-187" fill="#C3C3CB"></path>
                <path d="M66.015625,35.8693848 C66.015625,36.9604492 65.4367676,40.5107583 64.845459,41.0872883 C64.4512533,41.4716417 62.6056315,41.8255208 59.3085938,42.1489258 C57.5135123,42.7792439 55.9429276,43.330733 54.5968397,43.8033932 C59.3343483,38.8598978 61.9740571,36.0501266 62.517334,35.3735178 C63.138394,34.6000362 63.7295333,33.3117562 64.2907517,31.5086778 C64.5427314,32.4631602 66.015625,34.8716895 66.015625,35.8693848 Z" id="形状结合" fill="#A3A3B1"></path>
                <path d="M64.2541504,31.279541 C64.2541504,32 66.015625,34.7783203 66.015625,35.8693848 C66.015625,36.9604492 65.4367676,40.5107583 64.845459,41.0872883 C64.6699799,41.2583817 64.2068955,41.4234364 63.4562057,41.5824526 C63.6003123,39.7059034 63.743906,38.4715791 63.8856812,37.8785095 C64.1014404,36.9759521 63.3925171,34.4793701 63.2212524,33.4765015 C63.079713,32.6476939 62.3692312,31.9209775 62.1268679,31.4353988 C62.216222,31.3631599 62.2812338,31.3102969 62.3217773,31.279541 C63.1176758,30.6757813 64.2541504,30.559082 64.2541504,31.279541 Z" id="形状结合" fill="#F34747"></path>
                <path d="M31.9693604,51.2510376 C31.6072591,50.6425985 31.4262085,50.2690023 31.4262085,50.130249 C31.4262085,49.9221191 31.7017822,49.3042603 32.1873169,49.3042603 C32.5110067,49.3042603 32.6901855,49.3530799 32.7248535,49.4507193 L33.2741089,50.7390137 L34.8268433,50.130249 C35.2614136,48.7231852 35.5950928,47.9344279 35.8278809,47.7639771 C36.0606689,47.5935262 36.7231445,47.5273438 37.8153076,47.5654297 L37.3400269,48 L37.9472656,48.9104614 L40.2233887,47.7639771 C41.0101318,46.3805542 41.5404053,45.5612183 41.814209,45.3059692 C42.0880127,45.0507202 42.7609456,44.8962809 43.8330078,44.8426514 L43.8330078,45.1386719 L42.204895,46.724788 L41.045166,48.3355103 L31.9693604,51.7910156 L31.9693604,51.2510376 Z" id="路径-202" fill="#828289"></path>
                <path d="M61.071167,30.0275879 C61.7545166,30.0275879 61.8257446,32 61.8257446,32 C61.8257446,32 58.8824463,34.6761475 58.618103,34.8979492 C58.3537598,35.119751 55.8939209,37.3243408 55.6135254,37.6258545 C55.3331299,37.9273682 50.895874,41.6638184 50.6992187,41.6638184 C50.5025635,41.6638184 50.2564697,41.5718038 50.2564697,41.5718038 C50.2564697,41.5718038 50.3287397,41.2800783 50.430542,41.1887207 C50.894069,40.7727506 53.9565894,38.1000617 59.618103,33.1706543 L59.618103,33.1706543 L59.618103,31.767334 C59.618103,31.1323242 60.3878174,30.0275879 61.071167,30.0275879 Z M61.0439453,30.7819985 C60.6697125,30.7819985 60.2380371,31.5165405 60.2380371,31.8219604 C60.2380371,32.0255737 60.2029622,32.3118083 60.1328125,32.6806641 L61.2412109,31.8219604 C61.359189,31.1286525 61.2934338,30.7819985 61.0439453,30.7819985 Z" id="形状结合" fill="#2F2F2F"></path>
                <path d="M53.6592749,38.0182495 C53.7307853,37.8319295 53.625651,37.8319295 53.3438721,38.0182495 C52.9212036,38.2977295 52.8497314,38.5506592 52.9746094,38.7084961 C53.0994873,38.866333 55.8493632,40.8096924 56.0875244,40.8096924 C56.2462986,40.8096924 56.4429131,40.713033 56.6773682,40.5197144 L55.848877,39.6872559 C54.9084473,39.1472982 54.3253174,38.780721 54.0994873,38.5875244 C53.8736572,38.3943278 53.7269198,38.2045695 53.6592749,38.0182495 Z" id="路径-205" fill="#828289"></path>
                <path d="M54.5551758,40.2977295 C54.3516439,39.2571208 54.0581462,38.4737956 53.6746826,37.9477539 C53.7558594,37.3321533 54.5854492,36.5716553 55.0994873,36.8626709 C55.489624,37.3125 55.7324219,40.3579102 55.6135254,41.1887207 C55.2246908,40.8754069 54.8719076,40.5784098 54.5551758,40.2977295 Z" id="路径-204" fill="#828289"></path>
                <path d="M9.45141602,61.0454102 C9.40616862,58.2833659 12.256429,56.1462402 18.0021973,54.6340332 C23.7479655,53.1218262 27.583903,51.8937174 29.5100098,50.949707 C29.989502,51.6157227 30.9757487,51.6157227 32.46875,50.949707 C33.9617513,50.2836914 37.2473145,48.8934733 42.3254395,46.7790527 C42.2960243,45.8455243 42.4045855,45.2950686 42.651123,45.1276855 C44.7374015,43.7112377 46.3591285,41.9398226 47.487915,41.5738606 C48.3337055,41.2996483 49.0151367,41.9216309 49.0151367,41.9216309 C49.0151367,41.9216309 50.6357422,43.4494629 51.0500488,43.0986328 C51.3262533,42.8647461 52.461263,41.7862956 54.4550781,39.8632813 C56.0068359,41.5572917 56.9488932,42.2434082 57.28125,41.9216309 C57.6136068,41.5998535 57.097819,40.7946777 55.7338867,39.5061035 L58.7421875,36.6931152 C60.0870768,37.3721517 60.994873,37.9147949 61.4655762,38.3210449 C62.1716309,38.9304199 66.8288574,41.0996094 69.1767578,41.0996094 C71.5246582,41.0996094 75.5014648,39.8308105 76.013916,36.6931152 C76.5263672,33.5554199 77.7392578,33.4404297 78.3518066,33.7756348 C78.7601725,33.9991048 79.3647461,34.594401 80.1655273,35.5615234 C81.328125,35.5764974 81.9094238,35.9536947 81.9094238,36.6931152 C81.9094238,37.8022461 82.8513184,42.0510254 82.8513184,43.0986328 C82.8513184,44.1462402 84.3566895,46.9870605 84.3566895,48.3322754 C84.3566895,49.6774902 85.421875,57.1723633 84.3566895,58.0588379 C83.2915039,58.9453125 74.8303223,62.9616699 53.8859863,64.4016113 C32.9416504,65.8415527 15.6325684,65.098877 13.234375,64.7502441 C11.6355794,64.5178223 10.3745931,63.2828776 9.45141602,61.0454102 Z" id="路径-186" fill="#4B4B55"></path>
                <path d="M28.3537454,65.2539537 L28.5168576,65.1735949 C33.0741846,62.9149766 45.5737737,56.0220411 66.015625,44.4947882 L82.6559048,41.5115134 C82.7703559,42.2091854 82.8513184,42.7914907 82.8513184,43.0986328 C82.8513184,44.1462402 84.3566895,46.9870605 84.3566895,48.3322754 C84.3566895,49.6774902 85.421875,57.1723633 84.3566895,58.0588379 C83.2915039,58.9453125 74.8303223,62.9616699 53.8859863,64.4016113 C44.235872,65.0650651 35.3574896,65.2651688 28.3537454,65.2539537 Z" id="形状结合" fill="#32323A"></path>
                <path d="M78.3518066,33.7756348 C78.5838422,33.9026116 78.8792249,34.1496351 79.2379545,34.5167054 C78.8051843,34.7682603 78.5060046,35.0344886 78.3398438,35.3169556 C78.0288086,35.8457031 77.4095459,40.5357056 76.9880371,41.1887207 C76.5665283,41.8417358 72.1124268,44.3174517 70.4904785,43.8286133 C69.4091797,43.502721 65.9763997,41.4351347 60.1921387,37.6258545 L60.535274,37.6718489 C60.9383654,37.917265 61.2484661,38.1336637 61.4655762,38.3210449 C62.1716309,38.9304199 66.8288574,41.0996094 69.1767578,41.0996094 C71.5246582,41.0996094 75.5014648,39.8308105 76.013916,36.6931152 C76.5263672,33.5554199 77.7392578,33.4404297 78.3518066,33.7756348 Z" id="形状结合" fill="#DB3838"></path>
                <path d="M13.6715495,56.1362268 L13.4107666,56.9652374 C11.6424561,58.2136729 10.6636556,59.2223714 10.4743652,59.991333 C10.2850749,60.7602946 10.2167155,61.4387614 10.2692871,62.0267334 L9.70808851,61.6235047 C9.61981109,61.4388785 9.53425359,61.2461803 9.45141602,61.0454102 C9.41952253,59.098531 10.8262337,57.4621365 13.6715495,56.1362268 Z" id="形状结合" fill="#B9BAC8"></path>
                <path d="M48.5730001,42.1104817 C54.0808126,48.5895616 56.6650411,52.0079753 56.3256856,52.3657227 C55.9863302,52.7234701 51.0862651,51.0220167 41.6254903,47.2613627 L48.5730001,42.1104817 Z M48.9903595,46.1137695 L47.1063973,47.2614091 L51.1447774,48.5366211 L48.9903595,46.1137695 Z" id="形状结合" fill="#312E3A"></path>
                <path d="M48.543457,41.5738606 C54.0512695,48.0529405 56.635498,51.4713542 56.2961426,51.8291016 C55.9567871,52.186849 51.056722,50.4853956 41.5959473,46.7247416 L48.543457,41.5738606 Z M48.9608164,45.5771484 L47.0768542,46.724788 L51.1152344,48 L48.9608164,45.5771484 Z" id="形状结合" fill="#A3A1AC"></path>
                <path d="M48.8476572,43.3397748 L53.6592749,49.9346924 L50.6689473,47.8587748 L51.1152344,48 L48.9608164,45.5771484 L47.3439473,46.5617748 L48.8476572,43.3397748 Z" id="形状结合" fill="#C8C5D2"></path>
                <path d="M47.2400979,46.6244617 L47.0768542,46.724788 L51.0209473,47.9694617 L56.19514,51.8699907 C55.3893054,51.9882878 50.5229078,50.2732047 41.5959473,46.7247416 C42.4329954,46.7118355 44.3133382,46.6792686 47.2400979,46.6244617 Z" id="形状结合" fill="#8B8798"></path>
                <path d="M82.9335327,43.0585327 C82.8203284,41.7576294 81.5739746,38.1418457 81.5739746,37.1945801 C81.5739746,36.2473145 81.0236816,34.5285645 79.6020508,35.8615723 C78.1804199,37.1945801 76.1640625,40.9497231 74.9289551,41.5738606 C73.6938477,42.197998 72.1264648,44.6564941 66.015625,40.9255371 C59.9047852,37.1945801 58.7421875,36.6931152 58.7421875,36.6931152 C58.7421875,36.6931152 57.7394206,37.6278861 55.7338867,39.4974279 C57.4025052,40.6426973 57.9182929,41.450765 57.28125,41.9216309 C56.6442071,42.3924967 55.5387383,41.8100586 53.9648437,40.1743164 L50.9890137,43.5192871 C55.306071,49.9911296 59.6222331,53.537679 63.9375,54.1589355 C67.2990723,54.7041016 70.1296387,53.3012695 74.8027344,50.692627 C77.9181315,48.9535319 80.663859,47.362915 83.039917,45.9207764 C83.0444637,44.8798828 83.0090023,43.9258016 82.9335327,43.0585327 Z" id="路径-190" fill="#191A1B"></path>
                <path d="M82.9335327,43.0585327 C82.8203284,41.7576294 81.5739746,38.1418457 81.5739746,37.1945801 C81.5739746,36.2473145 81.0236816,34.5285645 79.6020508,35.8615723 C78.1804199,37.1945801 76.1640625,40.9497231 74.9289551,41.5738606 C73.6938477,42.197998 72.1264648,44.6564941 66.015625,40.9255371 C59.9047852,37.1945801 58.7421875,36.6931152 58.7421875,36.6931152 C58.7421875,36.6931152 57.7394206,37.6278861 55.7338867,39.4974279 C57.4025052,40.6426973 57.9182929,41.450765 57.28125,41.9216309 C56.6442071,42.3924967 55.5387383,41.8100586 53.9648438,40.1743164 L51.1152344,42.8598633 C55.4322917,49.3317057 59.7484538,52.8782552 64.0637207,53.4995117 C67.425293,54.0446777 70.2558594,52.6418457 74.9289551,50.0332031 C78.0443522,48.2941081 80.7900798,46.7034912 83.1661377,45.2613525 C83.0865373,44.6600749 83.0090023,43.9258016 82.9335327,43.0585327 Z" id="路径-190" fill="#2B2D34"></path>
                <path d="M79.6020508,35.8615723 C81.0236816,34.5285645 81.5739746,36.2473145 81.5739746,37.1945801 C81.5739746,38.1418457 82.8203284,41.7576294 82.9335327,43.0585327 C83.0090023,43.9258016 83.0865373,44.6600749 83.1661377,45.2613525 C81.4025892,46.3317311 79.4353953,47.483904 77.2645561,48.7178714 L77.2630778,38.8878697 C78.0778676,37.7321224 78.9103546,36.5101488 79.6020508,35.8615723 Z" id="形状结合" fill="#3A3B3F"></path>
                <path d="M11.9775391,62.701416 C11.4560547,59.7814941 12.4289551,58.3215332 14.8962402,58.3215332 C17.3635254,58.3215332 20.6304525,58.5294596 24.6970215,58.9453125 C29.5850423,56.0968424 32.2041016,54.6726074 32.5541992,54.6726074 C33.0793457,54.6726074 36.8874512,58.3215332 36.8874512,58.3215332 C36.8874512,58.3215332 45.4822278,52.3657227 46.279541,52.3657227 C47.0768542,52.3657227 54.1677246,61.8222656 54.1677246,62.2618408 C54.1677246,62.701416 54.1571045,64.2460927 52.2609863,64.7502441 C50.9969076,65.0863451 38.1462402,65.2543955 13.7089844,65.2543955 L11.9775391,62.701416 Z" id="路径-194" fill="#B2B0B9"></path>
                <path d="M54.1677246,62.2618408 C54.1677246,62.701416 54.1571045,64.2460927 52.2609863,64.7502441 C50.9969076,65.0863451 38.1462402,65.2543955 13.7089844,65.2543955 L11.9775391,62.701416 C11.7844927,61.6205008 11.7962337,60.7396557 12.012762,60.0588805 C12.6580207,59.8876857 13.6277069,59.9413101 14.9216309,60.2197266 C18.6777477,61.0279384 31.1806641,61.3303223 36.732666,60.7644043 C40.2971195,60.401078 44.8827142,59.1814422 50.48945,57.1054968 C52.3738404,59.5384911 54.1677246,62.040745 54.1677246,62.2618408 Z" id="形状结合" fill="#A09EA7"></path>
                <path d="M45.3861084,54.9710693 C45.0202637,54.9710693 42.2626754,58.5423589 42.5419922,58.916748 C42.821309,59.2911372 46.5203137,57.085083 46.798584,56.8258057 C47.0768542,56.5665283 45.7519531,54.9710693 45.3861084,54.9710693 Z" id="路径-195" fill="#050505"></path>
                <path d="M31.024292,56.6037598 C30.6584473,56.6037598 27.900859,60.1750493 28.1801758,60.5494385 C28.4594926,60.9238277 32.1584973,58.7177734 32.4367676,58.4584961 C32.7150378,58.1992188 31.3901367,56.6037598 31.024292,56.6037598 Z" id="路径-195备份" fill="#050505"></path>
                <polygon id="路径-196" fill="#2C2E37" points="23.0981445 58.8100591 26.3171387 56.6037598 19.2720947 56.31604 16.4111328 58.2851562"></polygon>
                <polygon id="路径-197" fill="#CB5153" points="18.8029785 56.0397949 18.4450073 56.6944244 26.0689087 56.9830933 26.6208496 56.31604"></polygon>
                <polygon id="路径-198" fill="#191515" points="52.1829834 52.7562256 54.8243408 55.8527832 51.6015625 58.4154053 49.0960443 55.2451172"></polygon>
                <polygon id="路径-199" fill="#B91417" points="52.3936768 51.8757155 51.7358398 52.7562256 54.8243408 56.31604 55.6135254 55.8421631"></polygon>
                <path d="M55.0452881,43.0202637 C55.0452881,43.0202637 54.4147542,42.7371774 53.1536865,42.1710047 L53.6746826,44.5085449 C54.5884196,43.5163574 55.0452881,43.0202637 55.0452881,43.0202637 Z" id="路径-200" fill="#7E7E7E"></path>
                <path d="M59.6044922,38.7272949 C59.6044922,38.7272949 58.9468994,38.6166992 57.6317139,38.3955078 L58.3336182,40.1999512 C59.1808675,39.2181803 59.6044922,38.7272949 59.6044922,38.7272949 Z" id="路径-200备份" fill="#7E7E7E"></path>
                <polygon id="路径-201" fill="#D8D8D8" points="65.8934326 44.5970459 66.2381592 44.331543 66.2381592 43.8406982 65.8934326 43.6228638 65.5275879 43.6228638 65.3919067 43.9750366 65.3919067 44.331543 65.5275879 44.5970459 65.2906494 45.9995117 65.0736694 45.9306641 64.9262085 45.7763672 64.6836548 45.7763672 64.473999 45.9306641 64.3943787 46.1931152 64.5140991 46.4955444 64.0390625 47.2612305 63.649353 48 63.1764526 48.2043457 64.0390625 48.3607788 64.0390625 48 64.6836548 47.0054932 64.833252 47.7846069 64.7073059 48 63.649353 48.9743042 62.8153076 49.8009033 62.5369873 49.8009033 62.5369873 50.0053711 61.9925537 50.1120605 61.8257446 50.3400879 62.1257935 50.5951172 63.0272217 50.4476929 63.1764526 50.2127686 65.0736694 48.8375854 65.3919067 48.7723694 66.2381592 49.0921631 67.730833 49.8009033 67.8914795 50.0053711 68.1951904 50.4476929 69.1293913 49.6506348 68.8703003 49.4507193 68.6030273 49.4507193 68.3743286 49.4507193 66.6608276 48.5064087 65.791748 47.8932495 65.791748 46.613345 65.8934326 45.7763672"></polygon>
                <path d="M49.9208984,43.3397748 C49.9208984,43.3397748 51.3612061,43.9059527 51.3612061,43.6228638 C51.3612061,43.4341378 51.0290934,42.7511368 50.3648682,41.5738606 C49.1505941,41.5563585 48.543457,41.6505534 48.543457,41.8564453 C48.543457,42.1652832 49.9208984,43.3397748 49.9208984,43.3397748 Z" id="路径-203" fill="#828289"></path>
                <path d="M60.4011841,37.6258545 C60.6946004,37.052002 60.7475586,36.5178426 60.5600586,36.0233765 C60.2788086,35.2816772 59.3397217,34.0658569 59.3397217,33.7459106 C59.3397217,33.4259644 59.4202881,33.2828369 59.710144,33.2828369 C59.9033813,33.2828369 60.0015724,33.2556152 60.0047171,33.2011719 C59.5661069,33.0080566 59.2041423,32.9597778 58.9188232,33.0563354 C58.4908447,33.2011719 58.0684814,33.7689209 58.1557617,34.4470825 C58.243042,35.1252441 59.2724807,36.2940035 59.3397217,36.5463257 C59.384549,36.7145405 59.4069626,36.9211852 59.4069626,37.1662598 L60.4011841,37.6258545 Z" id="路径-206" fill="#828289"></path>
                <path d="M85.1756353,56.5444114 C85.4281839,57.0125877 85.5909443,57.6773104 85.6639166,58.5385794 C85.7368888,59.3998485 85.7368888,60.6561372 85.6639166,62.3074455 C85.7755702,62.4061597 85.6128098,62.6291008 85.1756353,62.9762687 L85.0837118,63.029381 C84.2257373,63.4389394 78.6562481,64.8043085 68.3752441,67.1254883 L66.8370733,67.4719963 L57.6648321,63.3671379 L36.4300299,67.4719963 L18.4412603,67.4719963 L11.0991583,62.0082038 C15.1540936,63.3047945 25.6440043,63.7051711 42.5688904,63.2093336 C43.5684645,63.1800497 45.8490471,64.1549852 46.8834167,64.1108941 C47.944895,64.0656475 48.9185514,63.936069 49.8334785,63.7644769 L50.5038585,63.6249013 C51.0984015,63.4990191 51.669655,63.3587355 52.2263982,63.2168067 L54.1742899,62.7229151 L54.8577517,62.567779 L55.594137,62.4240852 L55.9823973,62.3608415 L57.9075389,62.1072709 C64.7338267,61.1693573 73.8231922,59.3150708 85.1756353,56.5444114 Z" id="路径" fill="#FFFFFF"></path>
                <path d="M85.1289062,56.9652374 C85.3814548,57.4334137 85.5442153,58.0981363 85.6171875,58.9594054 C85.6901597,59.8206745 85.6901597,61.0769632 85.6171875,62.7282715 C85.7288411,62.8269857 85.5660807,63.0499268 85.1289062,63.3970947 C84.6917318,63.7442627 78.5788778,65.2428385 66.7903442,67.8928223 L57.618103,63.7879639 L36.3833008,67.8928223 L18.3945312,67.8928223 L11.0524292,62.4290298 C15.1073645,63.7256205 25.5972752,64.125997 42.5221613,63.6301596 C43.5217355,63.6008757 45.802318,64.5758112 46.8366876,64.5317201 C50.6940638,64.3672953 53.391691,63.089209 56.3256856,62.7282715 C63.3021247,61.8700358 72.9031982,59.9490244 85.1289062,56.9652374 Z" id="路径-210" fill="#E7E7E7"></path>
                <path d="M85.1289062,56.9652374 C85.3814548,57.4334137 85.5442153,58.0981363 85.6171875,58.9594054 C85.6901597,59.8206745 85.6901597,61.0769632 85.6171875,62.7282715 C85.7288411,62.8269857 85.5660807,63.0499268 85.1289062,63.3970947 C84.6917318,63.7442627 78.5788778,65.2428385 66.7903442,67.8928223 L57.618103,63.7879639 L51.174511,65.0331026 C50.9208898,64.6821632 50.6823749,64.3538758 50.4589663,64.0482401 C52.5770415,63.5968364 54.4004781,62.9651089 56.3256856,62.7282715 C63.3021247,61.8700358 72.9031982,59.9490244 85.1289062,56.9652374 Z" id="形状结合" fill="#D3D2D7"></path>
                <path d="M61.2566277,62.5914014 L61.3509935,62.6093025 L67.7624002,64.9723159 C67.9181885,65.0287221 67.9987536,65.2007397 67.9423474,65.356528 C67.8972224,65.4811587 67.7781061,65.5576465 67.652501,65.5543764 L67.5581352,65.5364752 L61.1467285,63.1734619 C60.9909402,63.1170557 60.9103751,62.945038 60.9667813,62.7892497 C61.0119063,62.6646191 61.1310226,62.5881313 61.2566277,62.5914014 Z M63.2952943,62.0974066 L63.3896601,62.1153078 L69.8010668,64.4783211 C69.9568551,64.5347273 70.0374202,64.706745 69.9810139,64.8625333 C69.935889,64.9871639 69.8167727,65.0636517 69.6911675,65.0603816 L69.5968018,65.0424805 L63.1853951,62.6794671 C63.0296068,62.6230609 62.9490417,62.4510433 63.0054479,62.295255 C63.0505729,62.1706243 63.1696891,62.0941365 63.2952943,62.0974066 Z M66.086432,61.9328558 L66.1807978,61.950757 L72.5922044,64.3137703 C72.7479928,64.3701765 72.8285579,64.5421942 72.7721516,64.6979825 C72.7270267,64.8226131 72.6079104,64.8991009 72.4823052,64.8958308 L72.3879395,64.8779297 L65.9765328,62.5149164 C65.8207445,62.4585101 65.7401794,62.2864925 65.7965856,62.1307042 C65.8417105,62.0060735 65.9608268,61.9295857 66.086432,61.9328558 Z M68.5552627,61.5249693 L68.6496285,61.5428705 L75.0610352,63.9058838 C75.2168235,63.96229 75.2973886,64.1343077 75.2409824,64.290096 C75.1958574,64.4147266 75.0767411,64.4912144 74.9511359,64.4879443 L74.8567702,64.4700432 L68.4453635,62.1070298 C68.2895752,62.0506236 68.2090101,61.878606 68.2654163,61.7228177 C68.3105413,61.598187 68.4296576,61.5216992 68.5552627,61.5249693 Z M70.590541,61.1290953 L70.6849068,61.1469964 L77.0963135,63.5100098 C77.2521018,63.566416 77.3326669,63.7384336 77.2762607,63.894222 C77.2311357,64.0188526 77.1120194,64.0953404 76.9864143,64.0920703 L76.8920485,64.0741692 L70.4806418,61.7111558 C70.3248535,61.6547496 70.2442884,61.4827319 70.3006946,61.3269436 C70.3458196,61.202313 70.4649359,61.1258252 70.590541,61.1290953 Z M72.9319717,60.5736754 L73.0263375,60.5915765 L79.4377441,62.9545898 C79.5935325,63.0109961 79.6740976,63.1830137 79.6176913,63.338802 C79.5725664,63.4634327 79.4534501,63.5399205 79.3278449,63.5366504 L79.2334791,63.5187492 L72.8220725,61.1557359 C72.6662841,61.0993297 72.585719,60.927312 72.6421253,60.7715237 C72.6872502,60.6468931 72.8063665,60.5704053 72.9319717,60.5736754 Z M75.008429,60.042475 L75.1027948,60.0603761 L81.5142015,62.4233894 C81.6699898,62.4797957 81.7505549,62.6518133 81.6941487,62.8076016 C81.6490237,62.9322323 81.5299074,63.0087201 81.4043023,63.00545 L81.3099365,62.9875488 L74.8985298,60.6245355 C74.7427415,60.5681293 74.6621764,60.3961116 74.7185826,60.2403233 C74.7637076,60.1156927 74.8828239,60.0392049 75.008429,60.042475 Z M76.9548402,59.5145209 L77.049206,59.532422 L83.4606127,61.8954353 C83.616401,61.9518416 83.6969661,62.1238592 83.6405598,62.2796475 C83.5954349,62.4042782 83.4763186,62.480766 83.3507134,62.4774959 L83.2563477,62.4595947 L76.844941,60.0965814 C76.6891527,60.0401752 76.6085876,59.8681575 76.6649938,59.7123692 C76.7101188,59.5877386 76.829235,59.5112508 76.9548402,59.5145209 Z M78.7313294,59.1718695 L78.8256952,59.1897706 L85.2371019,61.552784 C85.3928902,61.6091902 85.4734553,61.7812079 85.4170491,61.9369962 C85.3719241,62.0616268 85.2528078,62.1381146 85.1272027,62.1348445 L85.0328369,62.1169434 L78.6214302,59.75393 C78.4656419,59.6975238 78.3850768,59.5255062 78.441483,59.3697178 C78.486608,59.2450872 78.6057243,59.1685994 78.7313294,59.1718695 Z M79.7032533,58.3078558 L79.7976191,58.325757 L85.6718649,60.4898716 C85.6722296,60.6919908 85.6706685,60.9045355 85.6671814,61.1275057 L79.5933541,58.8899164 C79.4375657,58.8335101 79.3570006,58.6614925 79.4134069,58.5057042 C79.4585318,58.3810735 79.5776481,58.3045857 79.7032533,58.3078558 Z" id="形状结合" fill="#BCBBC4"></path>
                <path d="M14.1188965,63.1000233 L14.991657,64 L19.6694336,65.5523682 L27.5667725,63.6049805 L31.5881348,63.6049805 L34.5581055,65.8250732 L39.3358154,63.6049805 L47.1402344,64.5490233 L55.6135254,63.3571777 C55.0599816,62.1870635 55.8134478,62.0172637 57.873924,62.8477783 C58.386419,63.0543493 61.4206319,64.1070609 66.9765625,66.0059129 C70.5391534,65.652686 73.3603204,65.298298 75.4400635,64.942749 C77.5198065,64.5872 80.8563544,63.8888764 85.449707,62.8477783 C86.5019216,63.2823249 85.4052013,63.9164802 82.1595459,64.7502441 C78.9138905,65.5840081 73.6791493,66.5763176 66.4553223,67.7271729 L38.0958252,65.4698486 L34.3829346,67.8928223 L29.3944092,65.1168778 L19.5717773,67.7271729 C16.1067708,65.7598224 14.3742676,64.7004393 14.3742676,64.5490233 C14.3742676,64.3976074 14.2891439,63.9146074 14.1188965,63.1000233 Z" id="路径-222" fill="#B2B1B1"></path>
                <path d="M86.0378418,63.5546875 C86.0329033,63.9768575 86.0202894,64.4607035 86,65.0062256 C85.969566,65.8245087 83.4799805,72 74.7757568,72 C66.0715332,72 63.5300293,72 62.0119629,72 C60.4938965,72 57.3400879,71.2124023 56.159668,69.494873 C54.979248,67.7773438 53.7424316,68.8901367 53.1123047,69.9699707 C52.4821777,71.0498047 51.5083008,72 50.3374023,72 C49.1665039,72 27.1755371,72 24.300293,72 C21.4250488,72 9.78417969,71.2416992 8.93798828,61.1447754 C9.09472656,60.8684082 9.31738281,60.6599121 10.1904297,61.1447754 C11.0634766,61.6296387 12.9375,62.2028809 13.2814941,62.2028809 C13.6254883,62.2028809 14.1762695,63.5795898 14.6328125,63.9887695 C15.0893555,64.3979492 19.1696777,66.4270729 19.5922852,66.4270729 C20.0148926,66.4270729 29.1027832,62.2028809 30.0620117,62.2028809 C31.0212402,62.2028809 33.8879395,66.4270729 34.3962402,66.4270729 C34.904541,66.4270729 43.8244629,59.6831055 44.2971191,59.6831055 C44.7697754,59.6831055 47.456543,63.1206055 48,63.5546875 C48.543457,63.9887695 51.362793,63.0842285 51.362793,63.0842285 C51.362793,63.0842285 49.7990723,61.5068359 50.3374023,60.5949707 C50.8757324,59.6831055 66.3642578,66.4270729 66.6831055,66.4270729 C67.0019531,66.4270729 72.307373,65.9245605 77.8212891,64.7619629 C81.4972331,63.9868978 84.0958659,63.3090007 85.6171875,62.7282715 L86.0378418,63.5546875 Z" id="路径-184" fill="#868290"></path>
                <path d="M85.6713671,66.0158782 C84.7569738,68.0052947 81.7763793,72 74.7757568,72 L62.0119629,72 C60.9948026,72 59.2432769,71.6464086 57.8430578,70.8964099 L59.1290283,70.2772217 C58.1643473,68.7131755 57.7923584,67.8238932 58.0130615,67.609375 C58.3441162,67.2875977 64.3823242,70.5947266 65.4399414,70.4980469 C66.4975586,70.4013672 79.3017578,68.8198242 80.3701172,68.331543 C81.0233714,68.0329807 82.7904547,67.2610925 85.6713671,66.0158782 L85.6713671,66.0158782 Z M51.806477,71.4820887 C51.3673717,71.8011845 50.8729991,72 50.3374023,72 L24.300293,72 C21.5679053,72 10.9192935,71.3151796 9.14166128,62.5816641 L12.8223877,63.5123291 C15.9741618,67.8364665 17.9643555,70.1425781 18.7929687,70.4306641 C19.621582,70.71875 23.1103516,69.7529297 29.2592773,67.5332031 L34.1445312,70.4980469 L43.9057617,65.6669922 C46.218689,68.8200553 48.0391643,70.6786979 49.3671875,71.2429199 C50.0258762,71.5227695 51.0304641,71.4755906 51.806477,71.4820887 L51.806477,71.4820887 Z" id="Shape" fill="#565264"></path>
                <path d="M44.3139937,60.1687012 C44.78665,60.1687012 47.4734176,63.6062012 48.0168746,64.0402832 C48.5603316,64.4743652 51.3796676,63.5698242 51.3796676,63.5698242 L51.1437476,63.3091087 C50.7291854,62.8227234 49.9505294,61.7644653 50.354277,61.0805664 C50.892607,60.1687012 66.3811324,66.9126686 66.6999801,66.9126686 L67.6237354,66.8339873 C69.3503831,66.6596506 73.2280691,66.1891106 77.3053702,65.3580127 L77.8381637,65.2475586 C81.5141077,64.4724935 84.1127405,63.7945964 85.6340621,63.2138672 L86.0547164,64.0402832 L86.0375727,64.8655692 C83.6750272,65.8912447 81.3473594,66.6893091 79.0537398,67.2687988 C75.3266891,68.2104492 66.3598922,69.1499023 65.477568,69.1499023 C64.5952437,69.1499023 56.9624312,65.6655273 56.4043258,66.3271484 C55.8462203,66.9887695 57.7634566,69.9138184 57.7634566,70.2319336 C57.7634566,70.3439858 57.1985271,70.0409301 56.5990551,70.1668243 C56.4540792,70.0389658 56.3226706,69.9040449 56.2056781,69.7621076 L56.0411072,69.5439453 C54.9143427,67.9044855 53.7361922,68.8438938 53.0833685,69.8718575 L52.9937439,70.019043 C52.877196,70.2187684 52.7488885,70.4140588 52.6097497,70.5997223 C51.5905925,70.5807088 50.3067298,70.9027879 49.4001754,70.2319336 C48.3071578,69.4230957 44.0461715,64.185791 44.0461715,64.185791 L34.0996383,69.5439453 L29.5554488,66.3271484 L26.1682674,67.4884859 C23.4373713,68.4098988 19.9591964,69.5439453 19.3828414,69.5439453 C18.8045754,69.5439453 17.3464722,67.9344408 15.0085316,64.7154319 L15.4754684,64.9827018 C16.8134436,65.721058 19.2853052,66.9126686 19.6091598,66.9126686 C20.0317672,66.9126686 29.1196578,62.6884766 30.0788863,62.6884766 C31.0381148,62.6884766 33.9048141,66.9126686 34.4131148,66.9126686 C34.9214156,66.9126686 43.8413375,60.1687012 44.3139937,60.1687012 Z" id="路径" fill="#5B5864"></path>
                <path d="M44.2971191,59.6831055 C44.7697754,59.6831055 47.456543,63.1206055 48,63.5546875 C48.543457,63.9887695 51.362793,63.0842285 51.362793,63.0842285 C51.362793,63.0842285 49.7990723,61.5068359 50.3374023,60.5949707 C50.8757324,59.6831055 66.3642578,66.4270729 66.6831055,66.4270729 C67.0019531,66.4270729 72.307373,65.9245605 77.8212891,64.7619629 C81.4972331,63.9868978 84.0958659,63.3090007 85.6171875,62.7282715 L86.0378418,63.5546875 C86.0348593,63.8096505 86.0290772,64.087109 86.0204957,64.387063 C83.6585566,65.4055105 81.3306838,66.2036631 79.0368652,66.7832031 C75.3098145,67.7248535 66.3430176,68.6643066 65.4606934,68.6643066 C64.5783691,68.6643066 56.9455566,65.1799316 56.3874512,65.8415527 C55.8293457,66.5031738 57.7355957,69.7712402 57.7355957,70.0893555 C57.7355957,70.1753917 57.1940828,70.1466535 56.6529088,70.1539224 C56.4252051,69.9567075 56.2279196,69.7418061 56.0683594,69.5096436 C54.8879395,67.7921143 53.7424316,68.8901367 53.1123047,69.9699707 C52.9956848,70.1698195 52.8672907,70.3652279 52.7280526,70.5509942 C51.7080364,70.5315463 50.2894985,70.4169282 49.3833008,69.7463379 C48.2902832,68.9375 44.0292969,63.7001953 44.0292969,63.7001953 C44.0292969,63.7001953 34.0827637,69.0583496 34.0827637,69.0583496 C34.0827637,69.0583496 29.5385742,65.8415527 29.5385742,65.8415527 C29.5385742,65.8415527 20.3366699,69.0583496 19.3659668,69.0583496 C18.7877284,69.0583496 17.3297364,67.4489984 14.991991,64.2302961 C16.1100553,64.9018203 19.2258866,66.4270729 19.5922852,66.4270729 C20.0148926,66.4270729 29.1027832,62.2028809 30.0620117,62.2028809 C31.0212402,62.2028809 33.8879395,66.4270729 34.3962402,66.4270729 C34.904541,66.4270729 43.8244629,59.6831055 44.2971191,59.6831055 Z" id="形状结合" fill="#DCDDE2"></path>
                <path d="M44.2971191,59.6831055 C44.7534769,59.6831055 47.2738814,62.8876239 47.9363134,63.4993328 L48,63.5546875 C45.4718424,61.713623 44.2077637,60.7930908 44.2077637,60.7930908 C44.2077637,60.7930908 34.4334717,67.03125 34.2298584,67.03125 C34.0262451,67.03125 29.8746338,63.1000233 29.8746338,63.1000233 C29.8746338,63.1000233 26.4492594,64.4104322 19.5985107,67.03125 L19.5985107,67.03125 L15.0096614,64.2546178 C15.0040153,64.2468489 14.998364,64.2390705 14.9927076,64.2312827 C16.1137367,64.9036223 19.2261031,66.4270729 19.5922852,66.4270729 C20.0148926,66.4270729 29.1027832,62.2028809 30.0620117,62.2028809 C31.0212402,62.2028809 33.8879395,66.4270729 34.3962402,66.4270729 C34.904541,66.4270729 43.8244629,59.6831055 44.2971191,59.6831055 Z M66.6831055,66.4270729 C67.0019531,66.4270729 72.307373,65.9245605 77.8212891,64.7619629 C81.4972331,63.9868978 84.0958659,63.3090007 85.6171875,62.7282715 L85.7473466,62.9815163 C84.1757289,63.6898322 82.3311144,64.2794082 80.2135031,64.7502441 C77.9639928,65.2504069 73.4896065,65.9579264 66.7903442,66.8728027 C65.3429565,66.2948762 63.302746,65.5202831 60.6697125,64.5490233 C58.0366791,63.5777636 54.4801083,62.4495247 50,61.1643066 L50.241961,61.2340432 C50.2041641,61.0055841 50.2247933,60.7857166 50.3374023,60.5949707 C50.8757324,59.6831055 66.3642578,66.4270729 66.6831055,66.4270729 Z" id="形状结合" fill="#F4F5F7"></path>
                <path d="M51.3091839,63.101097 L55.9745332,69.2487406 C54.8518356,67.893376 53.7095542,68.946478 53.1123047,69.9699707 C53.0576015,70.0637142 53.0003077,70.1564807 52.9405193,70.2477333 L47.6243896,63.2077637 L47.6500954,63.2052064 C47.8017951,63.3701921 47.9226224,63.4928827 48,63.5546875 C48.4990857,63.9533283 50.9175869,63.2230101 51.3091839,63.101097 Z" id="形状结合" fill="#C5C6CF"></path>
                <path d="M51.3091839,63.101097 L53.5083896,65.999097 L49.7323896,65.999097 L47.6243896,63.2077637 L47.6500954,63.2052064 C47.8017951,63.3701921 47.9226224,63.4928827 48,63.5546875 C48.4990857,63.9533283 50.9175869,63.2230101 51.3091839,63.101097 Z" id="形状结合" fill="#CED0D6"></path>
                <path d="M73.0161133,54.2434082 C74.6007487,49.316043 75.6638997,46.8310983 76.2055664,46.7885742 C77.0180664,46.724788 81.862793,44.4947882 81.862793,44.4947882 C81.862793,44.4947882 82.190435,43.8698165 82.845719,42.619873 C84.1686432,46.4080979 84.8301053,48.4936285 84.8301053,48.8764648 C84.8301053,49.2593012 84.8301053,49.7039626 84.8301053,50.2104492 C83.574003,50.8310377 82.2288605,51.3861265 80.7946777,51.8757155 C79.360495,52.3653045 76.7676401,53.1545354 73.0161133,54.2434082 Z" id="路径-191" fill="#1C1C1C"></path>
                <path d="M83.6591797,46.613345 C84.110026,48.9454965 84.3354492,50.1115723 84.3354492,50.1115723 C84.3354492,50.1115723 81.8115845,51.0905762 81.276123,51.0905762 C80.9191488,51.0905762 80.6461182,50.0603841 80.4570313,48 L80.4570313,48 L81.276123,47.3498535 Z" id="形状结合" fill="#414141"></path>
                <path d="M82.3663401,43.5342804 L83.1661377,45.8898024 L80.9138184,46.613345 L80.4570313,45.1662598 L80.5148541,45.1027793 C81.2946504,44.756301 81.862793,44.4947882 81.862793,44.4947882 C81.862793,44.4947882 82.030642,44.174619 82.3663401,43.5342804 Z" id="形状结合" fill="#3F3F3F"></path>
                <path d="M65.5275879,57.9560547 C65.8261719,57.4539795 74.7149658,56.1538086 78.0101318,55.2524414 C81.3052979,54.3510742 84.0483398,52.8557298 84.0483398,52.3657227 C84.0483398,51.8757155 85.5493164,49.1298828 85.5493164,49.1298828 C85.5493164,49.1298828 84.7375488,48.027832 84.0483398,47.4082031 C83.3591309,46.7885742 83.0493707,44.4442058 84.8301053,43.0090332 C84.8754883,41.9160156 84.0627441,35.6796875 83.4570313,34.3393555 C82.8513184,32.9990234 81.8757324,31.0791016 81.1455078,31.5395508 C80.6586914,31.8465169 80.3564453,33.1245059 80.2387695,35.3735178 L79.956665,35.6676025 C79.7540283,32.8041585 80.0640259,31.2474976 80.8866577,30.9976196 C82.1206055,30.6228027 83.9328342,33.5494038 84.3814697,35.3735178 C84.6805601,36.5895938 85.0028257,39.1347656 85.3482666,43.0090332 C84.404645,44.5550944 84.0823794,45.5984701 84.3814697,46.1391602 C84.8301053,46.9501953 86.6108398,48.8090463 86.6108398,49.1298828 C86.6108398,49.4507193 84.8301053,52.143128 84.8301053,53.6160586 C84.8301053,54.5980124 85.1391782,56.3744303 85.7573242,58.9453125 L85.3482666,60.0001221 L74.2768555,62.2618408 C68.2449544,59.7260335 65.3285319,58.2907715 65.5275879,57.9560547 Z" id="路径-192" fill="#0F0F0F"></path>
                <path d="M82.5384521,54.0958778 C81.3586426,54.5588648 75.5419922,56.5405821 72.5775146,56.9652374 C69.6130371,57.3898926 66.5974121,58.1063232 66.7903442,58.1063232 C66.9832764,58.1063232 74.0716553,61.5384521 74.2784424,61.5384521 C74.4112202,61.5384521 77.9391859,61.0589763 84.8623395,60.1000247 L74.2768555,62.2618408 C68.2449544,59.7260335 65.3285319,58.2907715 65.5275879,57.9560547 C65.8261719,57.4539795 74.7149658,56.1538086 78.0101318,55.2524414 C80.8237433,54.4827998 83.2348135,53.2801028 83.87943,52.639972 C83.6373186,53.3553549 83.1899109,53.8402289 82.5384521,54.0958778 Z" id="形状结合" fill="#585858"></path>
                <path d="M86.6108398,49.1298828 C86.6108398,49.4507193 84.8301053,52.143128 84.8301053,53.6160586 C84.8301053,54.5980124 85.1391782,56.3744303 85.7573242,58.9453125 L85.4970597,59.6169282 C84.0613823,59.9624576 83.298833,60.0665784 83.2094116,59.9292908 C83.0606689,59.7009277 82.3495789,56.2654114 82.3962402,55.6704102 C82.4429016,55.0754089 83.7042236,54.8879395 84.0593262,54.0958778 C84.2960612,53.5678366 85.1465658,51.912505 86.6108398,49.1298828 L86.6108398,49.1298828 Z" id="形状结合" fill="#7F7F7F"></path>
                <path d="M82.6755981,55.241272 C82.3963013,55.525411 82.2566528,55.8081258 82.2566528,56.0894165 C82.2566528,56.5113525 83.1228638,59.7254944 83.1661377,59.8273926 C83.2094116,59.9292908 83.6841431,60.0464028 83.6841431,59.9878468 C83.6841431,59.9488094 83.3479614,58.3666178 82.6755981,55.241272 Z" id="路径-215" fill="#ADADAD"></path>
                <polygon id="Path" fill="#B2B0B9" fill-rule="nonzero" points="52.5075487 55.150024 52.5705763 55.7467045 50.2663126 55.9901048 51.249023 53.9650917 51.7888188 54.227047 51.2778768 55.2799148"></polygon>
                <polygon id="Path" fill="#B2B0B9" fill-rule="nonzero" points="53.1501268 56.073486 53.2131544 56.6701664 50.9751511 56.9065676 51.4370876 55.5854312 52.0034642 55.7834653 51.8541946 56.2103758"></polygon>
                <polygon id="Path-4" fill="#161616" points="55.7705078 44.1418927 54.6614583 45.0971302 55.5966797 46.0345396 56.5771484 45.0882161"></polygon>
                <polygon id="Path-4-Copy" fill="#161616" points="60.4903971 39.9496727 59.3813477 40.9049102 60.316569 41.8423195 61.2970378 40.8959961"></polygon>
            </g>
        </g>
    </g>
</svg>