<?xml version="1.0" encoding="UTF-8"?>
<svg width="96px" height="96px" viewBox="0 0 96 96" version="1.1" xmlns="http://www.w3.org/2000/svg" xmlns:xlink="http://www.w3.org/1999/xlink">
    <title>Jordan Mars 270 Low</title>
    <defs>
        <rect id="path-1" x="0" y="0" width="96" height="96"></rect>
    </defs>
    <g id="icon" stroke="none" stroke-width="1" fill="none" fill-rule="evenodd">
        <g id="画板" transform="translate(-274.000000, -230.000000)">
            <g id="Jordan-Mars-270-Low" transform="translate(274.000000, 230.000000)">
                <g id="#" opacity="0">
                    <use fill="#FFFFFF" fill-rule="evenodd" xlink:href="#path-1"></use>
                    <rect stroke-opacity="0.5" stroke="#DDDDDD" stroke-width="6" stroke-linejoin="square" x="3" y="3" width="90" height="90"></rect>
                    <rect stroke-opacity="0.507785184" stroke="#DDDDDD" stroke-width="12" stroke-linejoin="square" x="6" y="6" width="84" height="84"></rect>
                    <rect stroke-opacity="0.319406703" stroke="#979797" stroke-width="10" stroke-linejoin="square" x="5" y="5" width="86" height="86"></rect>
                </g>
                <path d="M78.0565186,32.994873 C79.1702637,32.994873 79.6554977,33.7700183 79.3305309,36.1552866 L79.2724609,36.5454102 C78.9842122,38.3398437 78.7267253,40.0931803 78.5,41.8054199 L80.3654785,48.798584 C80.8309326,50.5155029 81.8952637,55.5010986 81.6569824,56.614624 C81.4981283,57.3569743 80.8704427,57.7898763 79.7739258,57.9133301 L74.0092773,58.9360352 L59.4523926,62.3122559 L44.8103027,66.5212402 L35.3442383,64.6518555 L24.5557739,66.2042857 C23.0190126,66.4155887 22.1686342,66.5212402 22.0046387,66.5212402 L21.3378409,66.4961292 C20.4697009,66.4526033 18.8469148,66.3524939 16.4694824,66.1958008 L14.9250488,63.7128906 L11.1315918,60.5493164 L11.1315918,59.651123 C11.5168457,57.8856608 12.3696289,56.8187663 13.6899414,56.4504395 C15.6704102,55.8979492 24.0412598,54.6486816 27.3898926,53.581543 L28.3669202,53.2633165 C30.0603827,52.6984618 31.2161928,52.2356896 31.8343506,51.875 C31.8364665,51.2925618 31.9116211,51.0013428 32.0598145,51.0013428 C32.2821045,51.0013428 33.6271973,50.5891113 33.6271973,50.5891113 L33.9072266,50.762085 L33.9072266,50.762085 L36.045166,49.7169189 C36.1380208,49.4047445 36.2591146,49.1840413 36.4084473,49.0548096 C36.6324463,48.8609619 37.3408203,48.7362061 37.6300049,48.798584 C37.8227946,48.8401693 38.132609,48.7191976 38.5594482,48.4356689 L38.5594482,48 L41.3498535,46.8016357 L41.9368896,46.8016357 L43.824585,45.5341797 L44.1311035,45.0081787 L45.8295898,44.1964111 L46.3441162,44.1964111 L47.1652832,43.510498 L47.7471924,42.7402344 L49.5440674,41.8054199 L49.7584229,42.0343018 L50.4138184,41.5043945 C50.7695313,40.8879395 51.1483968,40.5797119 51.550415,40.5797119 C51.9524333,40.5797119 52.1789958,40.5002848 52.2301025,40.3414307 C54.2024333,37.7460531 56.1505127,35.8763021 58.0743408,34.7321777 L58.6673955,34.3504463 C59.300515,33.9566449 59.6528372,33.8570982 60.3351742,34.3539868 L60.5299072,34.5045166 C61.5490723,35.333374 63.7952881,36.7353516 64.7102051,38.2113037 C65.6251221,39.6872559 66.0386963,42.0484619 63.8024902,45.2420654 C64.4438477,45.75354 67.4526367,46.8175049 68.7762451,46.368042 C70.0263197,45.9435493 71.2051844,44.7983553 71.7847834,42.2667088 L71.8807373,41.8054199 C72.4178467,38.949707 73.2160645,38.3833008 74.4858398,38.3833008 C75.3323568,38.3833008 76.2816162,38.8446859 77.3336182,39.7674561 C76.9573161,38.1510824 76.769165,36.8698324 76.769165,35.9237061 L76.7763958,35.3903952 C76.8144341,34.1506939 77.0307007,32.994873 78.0565186,32.994873 Z M78.2442627,34.0172435 C77.776123,33.7924805 77.524292,35.3841553 77.5612793,36.3790283 L77.5836558,36.8363862 C77.648084,37.9383492 77.813036,39.6469121 78.0175781,39.7188721 C78.2221203,39.7908321 78.3144551,38.1833017 78.4276187,37.1375075 L78.5415932,36.2326264 C78.6376079,35.3212687 78.6403809,34.2074275 78.2442627,34.0172435 Z" id="形状" fill="#EEEFF2"></path>
                <path d="M55.5613776,37.2925118 C57.4726408,36.2281642 59.676368,35.7110608 62.1725592,35.7412016 C63.1284611,36.4629714 64.160034,37.3237628 64.7102051,38.2113037 C65.6251221,39.6872559 66.0386963,42.0484619 63.8024902,45.2420654 C63.4420595,45.5008951 63.0374203,45.7433597 62.6001892,45.9783325 L61.1118547,45.0608125 C58.648312,43.5273088 57.1574914,42.514568 56.6393929,42.0225901 C56.0241509,41.4383664 54.0022837,41.5588277 50.5737915,42.3839739 C50.8643813,41.7457867 51.2237689,41.1428368 51.6519542,40.5751244 L51.550415,40.5797119 C51.9524333,40.5797119 52.1789958,40.5002848 52.2301025,40.3414307 C52.7370834,39.6742978 53.2424619,39.0551091 53.746238,38.4838648 C54.2942907,38.0574787 54.9000767,37.6607782 55.5613776,37.2925118 Z" id="路径" fill="#E4E6EB"></path>
                <path d="M59.331362,37.2925118 C60.3629192,37.2090471 63.4560547,39.1865234 63.8898926,40.155228 C64.1791178,40.8010311 63.7492167,42.5101933 62.6001892,45.2827148 C60.910675,44.8077799 59.5646006,44.158545 58.5619659,43.3350101 C57.2460079,42.2541206 54.8101294,41.9708933 53.6013138,41.8597594 L53.1652188,41.8208431 C52.239129,41.7354362 51.4160156,42.027832 52.9722465,40.155228 C54.5284773,38.282624 58.2998047,37.3759766 59.331362,37.2925118 Z" id="路径" fill="#D1D3DC"></path>
                <path d="M58.3913574,39.0180402 C60.0869141,38.6942835 62.7124023,40.1577148 63.3057323,40.9709677 C63.7012856,41.5131363 63.430755,43.1214466 62.4941406,45.7958984 L61.1104435,44.8358061 C58.6652883,43.1536638 57.1749381,42.2159251 56.6393929,42.0225901 C56.0093397,41.7951372 54.7015025,41.7278882 52.7158813,41.8208431 C55.369161,40.1681456 57.2609863,39.233878 58.3913574,39.0180402 Z" id="路径" fill="#BEC1CA"></path>
                <path d="M58.3067627,40.7277832 C60.0023193,40.4040265 61.3529591,40.8649698 61.9462891,41.6782227 C62.3418424,42.2203912 62.6422119,42.9688721 61.6395264,45.0368652 C58.5405182,43.1119734 56.873807,42.1072151 56.6393929,42.0225901 C56.0093397,41.7951372 57.1763916,40.943621 58.3067627,40.7277832 Z" id="路径" fill="#A9AEBC"></path>
                <path d="M73.6137695,40.155228 C73.9497634,39.8591206 75.6129296,40.5381743 78.6032681,42.1923891 L80.3654785,48.798584 C80.8309326,50.5155029 81.8952637,55.5010986 81.6569824,56.614624 C81.4981283,57.3569743 80.8704427,57.7898763 79.7739258,57.9133301 L74.0092773,58.9360352 L70.2399304,59.812028 C66.114809,59.1031994 63.8912279,54.8054205 65.5877246,53.9693427 C67.326328,53.1125135 71.5788574,55.9785272 72.9284668,56.0644531 C74.2780762,56.150379 75.8671875,54.5881348 75.3037109,53.53125 C74.7402344,52.4743652 74.1699469,51.199414 74.2915039,49.956543 C74.4130609,48.7136719 73.1385498,46.6138916 71.8564453,45.5527344 C71.6235355,45.3599623 72.1278455,42.0921564 71.767257,42.3384827 L71.8807373,41.8054199 C71.987063,41.2401053 72.103621,40.7645037 72.2320439,40.3652495 L72.7518692,40.3483727 C73.2135307,40.3195215 73.5007333,40.2548455 73.6137695,40.155228 Z M55.4684322,42.310357 L55.3671937,42.2184995 C55.0575574,41.8827579 57.3533322,43.1164435 62.254518,45.9195562 L63.3057323,46.5219043 L63.968207,45.3554413 C64.7622383,45.8388359 67.0159886,46.6087002 68.3590927,46.4566829 L67.7073614,47.335459 C66.9517248,48.3389382 66.2198368,49.2396398 65.5877246,49.7580566 C63.3268163,51.6123047 60.1186523,49.315918 58.8737799,48 C57.6289075,46.684082 56.6103516,43.2529297 55.4684322,42.310357 Z" id="形状" fill="#E7E8EC"></path>
                <path d="M74.9765625,41.4040527 C75.3550266,41.0413466 77.2884718,42.1338533 78.86271,43.1604153 L80.3654785,48.798584 C80.8309326,50.5155029 81.8952637,55.5010986 81.6569824,56.614624 C81.4981283,57.3569743 80.8704427,57.7898763 79.7739258,57.9133301 C75.9187826,59.2585449 73.5030111,59.6154785 72.5266113,58.9841309 C71.0620117,58.0371094 76.0406082,56.3811929 76.9624023,55.4946289 C77.8841965,54.6080649 75.6274414,53.5917969 76.2531738,51.2561035 C76.8789062,48.9204102 74.3942871,46.6804199 74.0637207,45.7478027 C73.7331543,44.8151855 74.246031,42.1041673 74.9765625,41.4040527 Z" id="路径" fill="#DCDEE4"></path>
                <path d="M75.9336565,42.2200928 C76.3050246,41.7818747 78.421518,43.1430941 78.9869554,43.6169058 L80.3654785,48.798584 C80.8309326,50.5155029 81.8952637,55.5010986 81.6569824,56.614624 C81.62467,56.7656248 81.5729596,56.9038221 81.5018512,57.0292159 L76.7026153,58.2322611 C74.5767417,58.751413 73.4601676,58.99415 73.3529978,58.9602711 C73.0790425,58.8736671 77.434082,56.3474121 78.1171067,55.7452479 C78.8001313,55.1430837 78.3469238,50.7836914 78.1171067,49.4567005 C77.8872895,48.1297096 77.2302246,47.0727539 75.9336565,46.3089634 C74.6370883,45.5451729 75.5183105,42.7102051 75.9336565,42.2200928 Z" id="路径" fill="#CED1D9"></path>
                <path d="M42.0270996,65.6088867 L35.394043,64.0134277 L26.4719238,65.6088867 L19.1930696,66.3712484 L17.369041,66.2547335 L15.8691289,65.2291354 L14.9250488,63.7128906 L11.2051289,60.6111354 L11.1311289,60.4591354 L10.8852539,59.3656006 C11.2705078,57.6001383 12.3696289,56.8187663 13.6899414,56.4504395 L13.8024546,56.4212648 C13.4207914,56.8664172 13.5644393,57.2647326 14.2333984,57.6162109 C15.9968066,58.5427246 23.0136395,59.0181418 25.3822402,59.0882789 L26.6077335,59.1075151 C27.7619674,59.1448841 28.6794172,59.3033677 29.1845061,59.8598883 L29.3234863,60.0390625 C29.8706055,60.8696289 32.6154785,61.8225098 33.3925781,61.1398926 C34.1099008,60.5097844 33.5029355,59.493804 33.4053117,58.4834534 L33.3925781,58.2312096 C33.3925781,57.140625 32.7607422,56.2700195 33.9020996,55.0893555 C34.6630046,54.3022461 37.3713379,57.8087565 42.0270996,65.6088867 Z" id="路径" fill="#D1D4DE"></path>
                <path d="M14.7192383,60.3357215 C16.8286133,60.6538086 18.9536133,62.5723514 19.9453125,62.7134218 L20.2490146,62.7361727 C22.3310946,62.8334396 32.4883823,62.7135755 33.6956482,63.7346182 C33.9196748,63.9240883 33.9367355,64.113612 33.7892833,64.3004465 L26.4719238,65.6088867 L19.1930696,66.3712484 L17.7788193,66.2798374 L17.2257573,66.1568038 L17.2257573,66.1568038 L15.8691289,65.2291354 L14.9250488,63.7128906 L11.9747495,61.2521309 C11.6122604,60.1509529 11.372643,59.0671996 11.2444592,58.3239388 C11.3444777,58.1245029 11.4584461,57.9423935 11.5840903,57.7772624 L11.8940679,58.187477 C12.5292199,59.0117254 13.5226928,60.1552862 14.7192383,60.3357215 Z" id="路径" fill="#C6CADA"></path>
                <polygon id="路径-380" fill="#B8BFC5" points="58.3913574 48.7368164 59.7131348 46.6049805 63.8898926 50.1904557 62.6001892 52.3084205"></polygon>
                <path d="M38.2385254,64.0324707 C35.9082845,60.6228027 33.9541016,58.5654297 32.3759766,57.8603516 C30.0087891,56.8027344 27.7470703,55.9978027 27.7470703,55.5532227 C27.7470703,55.2568359 28.617513,54.7109375 30.3583984,53.9155273 L38.2385254,49.0578613 C38.2943522,48.474528 38.4013265,48.1219076 38.5594482,48 C38.7966309,47.8171387 41.0215454,46.7835083 41.3498535,46.8016357 C41.5687256,46.8137207 41.8070882,46.8627523 42.0649414,46.9487305 C46.1081543,44.6611328 48.4382731,43.5176171 49.0552979,43.5181832 C49.980835,43.5192871 52.0610352,44.1467285 54.3122559,45.5969238 C56.5634766,47.0471191 67.3225098,55.5532227 68.7939453,56.8452148 C67.6178385,57.8953451 64.9239909,59.6035156 60.7124023,61.9697266 C60.3014323,60.9378255 59.0563151,60.6813965 56.9770508,61.2004395 C53.8581543,61.9790039 51.0283203,63.8544922 48.2573242,64.4223633 C46.4099935,64.800944 43.0703939,64.6709798 38.2385254,64.0324707 Z" id="路径-376" fill="#A4AAAD"></path>
                <path d="M37.8588867,64.3457031 C35.6404622,60.4249674 33.936849,58.0292155 32.7480469,57.1584473 C30.9648438,55.8522949 28.2023926,54.8637695 28.2023926,54.4191895 C28.2023926,54.1228027 28.6838379,53.7225749 29.6467285,53.2185059 L37.8588867,49.3710938 C37.9147135,48.7877604 38.0216878,48.43514 38.1798096,48.3132324 C38.4169922,48.1303711 40.6419067,47.0967407 40.9702148,47.1148682 C41.1890869,47.1269531 41.4274495,47.1759847 41.6853027,47.2619629 C45.7285156,44.9743652 48.0586344,43.8308917 48.6756592,43.8315424 C49.6011963,43.8325195 51.6813965,44.4599609 53.9326172,45.9101563 C56.1838379,47.3603516 66.9428711,55.8664551 68.4143066,57.1584473 C67.2381999,58.2085775 64.5443522,59.916748 60.3327637,62.282959 C59.9217936,61.2510579 58.6766764,60.9946289 56.5974121,61.5136719 C53.4785156,62.2922363 50.6486816,64.1677246 47.8776855,64.7355957 C46.0303548,65.1141764 42.6907552,64.9842122 37.8588867,64.3457031 Z" id="路径-376" fill="#79828B"></path>
                <path d="M38.2385254,64.0324707 C36.0201009,60.111735 34.3164876,57.7159831 33.1276855,56.8452148 C31.3444824,55.5390625 28.5820312,54.5505371 28.5820312,54.105957 C28.5820312,53.8095703 29.0634766,53.4093424 30.0263672,52.9052734 L38.2385254,49.0578613 C38.2943522,48.474528 38.4013265,48.1219076 38.5594482,48 C38.7966309,47.8171387 41.0215454,46.7835083 41.3498535,46.8016357 C41.5687256,46.8137207 41.8070882,46.8627523 42.0649414,46.9487305 C46.1081543,44.6611328 48.4382731,43.5176281 49.0552979,43.5182164 C49.980835,43.5192871 52.0610352,44.1467285 54.3122559,45.5969238 C56.5634766,47.0471191 67.3225098,55.5532227 68.7939453,56.8452148 C67.6178385,57.8953451 64.9239909,59.6035156 60.7124023,61.9697266 C60.3014323,60.9378255 59.0563151,60.6813965 56.9770508,61.2004395 C53.8581543,61.9790039 51.0283203,63.8544922 48.2573242,64.4223633 C46.4099935,64.800944 43.0703939,64.6709798 38.2385254,64.0324707 Z" id="路径-376" fill="#E5E8E9"></path>
                <path d="M54.2347995,45.5503973 L54.7942244,45.9231808 C57.7971082,48.0228749 67.4090648,55.6292222 68.7939453,56.8452148 C67.7425957,57.783951 65.4784202,59.2485269 62.0014189,61.2389424 L60.5686515,61.6978826 L60.5686515,61.6978826 C60.0556561,60.8958717 58.8574698,60.7310339 56.9770508,61.2004395 C53.8581543,61.9790039 51.0283203,63.8544922 48.2573242,64.4223633 C46.4099935,64.800944 43.0703939,64.6709798 38.2385254,64.0324707 L37.5614307,62.8558663 C36.1307671,60.4143075 34.9365405,58.673127 33.978751,57.6323251 C35.2884187,54.9330971 40.874151,54.2917519 43.6951214,53.618346 C46.8351301,52.8687811 51.3386032,49.4434513 49.8537199,48.7863912 L49.7020291,48.734436 C48.5445524,48.4321813 50.0554759,47.3708351 54.2347995,45.5503973 Z" id="路径" fill="#DBDFE1"></path>
                <path d="M67.1871248,55.5188194 L67.3509292,55.8172043 C67.6891489,56.4393448 67.9361432,56.9717505 68.0919122,57.4144213 C66.6953664,58.4721319 64.2346723,59.9907978 60.7124023,61.9697266 C60.3014323,60.9378255 59.0563151,60.6813965 56.9770508,61.2004395 C53.8581543,61.9790039 51.0283203,63.8544922 48.2573242,64.4223633 C46.4099935,64.800944 43.0703939,64.6709798 38.2385254,64.0324707 C40.2697341,63.6036427 41.2667052,62.9271988 41.2286016,61.9960596 C41.1578868,60.2679981 37.7851563,57.6508789 38.341957,56.7234031 C38.8987577,55.7959273 50.0385742,62.2304688 52.0989919,60.6761919 L52.7499354,60.1649234 C54.3664017,58.8612537 57.6099557,56.0667909 62.4805975,51.7815347 L66.3100596,54.8131307 C66.623774,55.0645251 66.9176377,55.3009767 67.1871248,55.5188194 Z" id="路径" fill="#CFD4D7"></path>
                <path d="M60.192749,34.6991904 C61.2119141,35.5280478 63.4581299,36.9300254 64.3730469,38.4059775 C65.2879639,39.8819297 65.6522217,42.0481894 63.4160156,45.2417929 C63.4686675,45.2837821 63.5372746,45.3294948 63.6195948,45.377788 L63.5687761,45.4441394 L63.237793,45.8278809 L61.2468262,44.97806 C62.4474284,43.4854249 63.111084,42.2999391 63.237793,41.4216025 C63.4278564,40.1040976 61.4371338,37.8363974 60.487915,36.7978232 C59.8128457,36.0592056 58.5603119,35.2806416 57.8223816,34.8678089 L57.7371826,34.9268515 L58.3302373,34.5451201 C58.9633568,34.1513187 59.315679,34.051772 59.998016,34.5486606 L60.192749,34.6991904 Z" id="路径" fill="#989EAA"></path>
                <path d="M60.3351742,34.3539868 L60.5299072,34.5045166 C61.5490723,35.333374 63.7952881,36.7353516 64.7102051,38.2113037 C65.6251221,39.6872559 66.0386963,42.0484619 63.8024902,45.2420654 C63.8551421,45.2840546 63.9237492,45.3297673 64.0060694,45.3780605 L63.9552507,45.4444119 L63.6242676,45.8281534 L61.6333008,44.9783325 C62.833903,43.4856974 63.4975586,42.3002116 63.6242676,41.421875 C63.8143311,40.1043701 61.774292,37.6417236 60.8250732,36.6031494 C60.1500039,35.8645318 58.8974701,35.0859678 58.1595398,34.6731351 L58.0743408,34.7321777 L58.6673955,34.3504463 C59.300515,33.9566449 59.6528372,33.8570982 60.3351742,34.3539868 L60.3351742,34.3539868 Z" id="路径" fill="#E4E6E8"></path>
                <path d="M60.3351742,34.3539868 L60.5299072,34.5045166 C61.5490723,35.333374 63.7952881,36.7353516 64.7102051,38.2113037 C65.6251221,39.6872559 66.0386963,42.0484619 63.8024902,45.2420654 C63.8551421,45.2840546 63.9237492,45.3297673 64.0060694,45.3780605 L63.9552507,45.4444119 L63.7319659,45.7012435 L63.1279659,45.6152435 L62.8784124,45.510143 C63.3317336,44.8971092 63.7727406,44.0955182 64.2014335,43.1053699 L64.4221191,42.5762939 C65.1906738,40.6656494 64.1029053,38.8701172 63.8898926,38.4093018 C63.6768799,37.9484863 60.1761475,34.8415527 59.8016357,34.5878906 C59.5553352,34.4210678 58.9886621,34.4077788 58.5619659,34.4165955 L58.6673955,34.3504463 C59.300515,33.9566449 59.6528372,33.8570982 60.3351742,34.3539868 Z" id="路径" fill="#F1F1F1"></path>
                <path d="M78.097168,33.428894 C79.2109131,33.428894 79.6961472,34.2040393 79.3711804,36.5893076 L79.3131104,36.9794312 C79.0255297,38.7697062 78.7685683,40.5190744 78.5422262,42.2275359 L78.3901895,42.3149286 C78.055763,42.4822051 77.7962646,42.4152945 77.6116943,42.1141968 C77.2557373,41.5335083 77.4627686,41.1528931 76.734375,40.7223511 L76.278209,40.4627349 C75.6519043,40.1238013 74.982959,39.8495239 74.6276855,40.0691528 C74.1835938,40.343689 73.6956787,42.126948 73.1608887,43.9522374 C72.6260986,45.7775269 71.5710449,47.5563354 69.9157715,48.168457 C68.260498,48.7805786 64.7039795,48.7484741 61.7260742,46.6370239 L59.3535819,44.94244 C57.6459522,43.7331917 56.3623334,42.9033095 55.2661133,42.6541138 L54.7834035,42.5517269 C53.5774751,42.322283 52.9267137,42.4640774 50.54599,43.5180054 L49.8678545,43.828614 C47.1447047,45.1116821 43.1359619,47.3717017 42.5390625,47.6531372 C42.1089,47.855957 41.9511545,47.6972779 42.0658261,47.1770999 L42.1396236,47.126894 L46.7479369,44.4741475 C47.5361087,44.0099858 48.0334358,43.7054113 48.2399182,43.5604239 L48.2979736,43.5180054 C48.8170166,43.1172485 52.1152344,41.2025757 53.9515381,41.1080933 C55.6858249,41.0188599 57.3753606,41.1432563 59.7217855,42.8958754 L60.1428223,43.2223511 C61.5017676,44.3140793 62.741344,45.124034 63.8615514,45.6522151 L63.8431396,45.6760864 C64.4844971,46.187561 67.4932861,47.2515259 68.8168945,46.802063 C70.0669691,46.3775703 71.2458338,45.2323763 71.8254328,42.7007298 L71.9213867,42.2394409 C72.4584961,39.383728 73.2567139,38.8173218 74.5264893,38.8173218 C75.3730062,38.8173218 76.3222656,39.2787069 77.3742676,40.2014771 C76.9979655,38.5851034 76.8098145,37.3038534 76.8098145,36.3577271 L76.8170452,35.8244162 C76.8550835,34.5847149 77.0713501,33.428894 78.097168,33.428894 Z M77.6019287,36.8130493 L77.6243052,37.2704072 C77.6887334,38.3723702 77.8536854,40.0809331 78.0582275,40.1528931 C78.2627697,40.2248531 78.3551045,38.6173227 78.4682681,37.5715285 L78.5822426,36.6666474 C78.6782573,35.7552897 78.6810303,34.6414485 78.2849121,34.4512645 C77.8167725,34.2265015 77.5649414,35.8181763 77.6019287,36.8130493 Z" id="形状" fill="#989EAA"></path>
                <path d="M78.0565186,32.994873 C79.1702637,32.994873 79.6554977,33.7700183 79.3305309,36.1552866 L79.2724609,36.5454102 C78.9848803,38.3356852 78.7279189,40.0850534 78.5015768,41.7935149 L78.3495401,41.8809076 C78.0151136,42.0481841 77.7556152,41.9812735 77.5710449,41.6801758 C77.2150879,41.0994873 77.4221191,40.7188721 76.6937256,40.2883301 L76.2375596,40.0287139 C75.6112549,39.6897803 74.9423096,39.4155029 74.5870361,39.6351318 C74.1429443,39.909668 73.6550293,41.692927 73.1202393,43.5182164 C72.5854492,45.3435059 71.5303955,47.1223145 69.8751221,47.734436 C68.2198486,48.3465576 64.6633301,48.3144531 61.6854248,46.2030029 L59.3129325,44.508419 C57.6053028,43.2991707 56.321684,42.4692885 55.2254639,42.2200928 L54.7427541,42.1177059 C53.5368257,41.888262 52.8860643,42.0300564 50.5053406,43.0839844 L49.8272051,43.394593 C47.1040553,44.6776611 43.0953125,46.9376807 42.4984131,47.2191162 C42.0682506,47.421936 41.9105051,47.2632569 42.0251767,46.7430789 L42.0989742,46.692873 L46.7072875,44.0401265 C47.4954593,43.5759648 47.9927864,43.2713903 48.1992688,43.1264029 L48.2573242,43.0839844 C48.7763672,42.6832275 52.074585,40.7685547 53.9108887,40.6740723 C55.6451755,40.5848389 57.3347111,40.7092353 59.6811361,42.4618545 L60.1021729,42.7883301 C61.0030977,43.512101 62.2365368,44.3300128 63.8024902,45.2420654 C64.4438477,45.75354 67.4526367,46.8175049 68.7762451,46.368042 C70.0263197,45.9435493 71.2051844,44.7983553 71.7847834,42.2667088 L71.8807373,41.8054199 C72.4178467,38.949707 73.2160645,38.3833008 74.4858398,38.3833008 C75.3323568,38.3833008 76.2816162,38.8446859 77.3336182,39.7674561 C76.9573161,38.1510824 76.769165,36.8698324 76.769165,35.9237061 L76.7763958,35.3903952 C76.8144341,34.1506939 77.0307007,32.994873 78.0565186,32.994873 Z M77.5612793,36.3790283 L77.5836558,36.8363862 C77.648084,37.9383492 77.813036,39.6469121 78.0175781,39.7188721 C78.2221203,39.7908321 78.3144551,38.1833017 78.4276187,37.1375075 L78.5415932,36.2326264 C78.6376079,35.3212687 78.6403809,34.2074275 78.2442627,34.0172435 C77.776123,33.7924805 77.524292,35.3841553 77.5612793,36.3790283 Z" id="形状" fill="#E1E3E8"></path>
                <path d="M74.4858398,38.3833008 C75.3144152,38.3833008 76.241424,38.8253354 77.2668663,39.7094046 L77.2486104,39.7360242 L77.1171067,39.8592435 C76.0456147,38.8724176 74.541748,38.6551514 73.7717285,38.9863281 C73.001709,39.3175049 72.2591553,42.2746582 71.9421387,43.6970612 C71.6251221,45.1194642 70.6430664,46.6691895 67.8050537,46.9783325 C65.0960416,47.2734236 61.957144,45.2028099 60.8530143,44.3312033 L59.8946244,43.5504225 C58.8340542,42.7056409 57.325611,41.6028677 56.0664171,41.1990967 C55.0762673,40.8815969 53.3508742,41.0227781 50.8902376,41.6226404 C51.9310073,41.1391622 53.0730985,40.7171787 53.9108887,40.6740723 C55.6451755,40.5848389 57.3347111,40.7092353 59.6811361,42.4618545 L60.1021729,42.7883301 C61.0030977,43.512101 62.2365368,44.3300128 63.8024902,45.2420654 C64.4438477,45.75354 67.4526367,46.8175049 68.7762451,46.368042 C70.0263197,45.9435493 71.2051844,44.7983553 71.7847834,42.2667088 L71.8807373,41.8054199 C72.4178467,38.949707 73.2160645,38.3833008 74.4858398,38.3833008 Z M78.0565186,32.994873 C79.1702637,32.994873 79.6554977,33.7700183 79.3305309,36.1552866 L79.1387389,37.4083014 L79.203174,35.1665768 C79.2042723,35.0948946 79.2049298,35.0306769 79.2050781,34.9749756 C79.207927,33.9051514 78.5498047,33.5019531 78.0764572,33.428894 C77.6031098,33.355835 77.272583,33.9941406 77.1171067,34.8178711 C77.0134558,35.3670247 77.1227763,36.8165283 77.4450684,39.1663818 C77.4641048,39.3451807 77.4196467,39.5091894 77.3116939,39.6584079 L77.3336182,39.7674561 C76.9573161,38.1510824 76.769165,36.8698324 76.769165,35.9237061 L76.7763958,35.3903952 C76.8144341,34.1506939 77.0307007,32.994873 78.0565186,32.994873 Z" id="形状" fill="#F3F5FA"></path>
                <path d="M38.3691346,48.5559534 L38.805926,48.9454952 C40.0402206,50.0846812 40.6033248,50.8084871 40.5476876,51.2630574 L40.5238885,51.3632454 C40.3962361,51.7143659 39.5763927,52.152652 37.9274451,52.8821452 L36.251581,53.5960485 L34.4375036,54.3477886 L34.4375036,54.3477886 C33.917961,54.5904539 30.8404228,53.5243616 29.6076405,52.8305241 L30.1168132,52.6436336 C30.1965628,52.6133094 30.2739365,52.5833925 30.3492048,52.5538753 C31.5645113,53.0963428 33.9310992,53.922096 34.1835901,53.8041638 L37.4180442,52.4505659 L38.2606705,52.0728756 L38.9984671,51.7192585 C39.5777078,51.4305074 39.9378697,51.2191055 39.9599982,51.158239 C40.0159703,51.0042821 39.2477096,50.1323513 37.7495546,48.8053121 C37.9048994,48.7926808 38.1115609,48.7096776 38.3691346,48.5559534 Z M49.9402896,43.8279617 C50.270933,43.8999539 50.9481875,44.1596776 51.6112757,44.4609372 L51.8935372,44.5921653 C52.2782309,44.7752469 52.6063866,44.949781 52.8359443,45.0962923 C53.2680619,45.3720841 53.4428012,45.5490036 53.2304613,45.848544 C52.8977829,46.3178418 45.503377,49.584158 44.9349322,49.2804761 L40.9653084,46.9661658 L40.9653084,46.9661658 L41.3498535,46.8016357 L41.8825095,46.8014379 L45.2176557,48.7512622 C45.4329067,48.8662563 50.6462378,46.5939059 52.2676662,45.7745705 L52.552,45.624 L52.1340968,45.3839153 L51.6356986,45.1339395 L51.6356986,45.1339395 L51.0981666,44.8895684 L50.5798676,44.6743085 C50.2525054,44.5451226 49.9732438,44.4491946 49.8126401,44.4142258 C49.3906692,44.3223485 47.8941816,44.3188938 45.3862694,44.4097908 L45.8295898,44.1964111 L46.3441162,44.1964111 L46.8625095,43.7634379 L48.1182183,43.7439005 C49.0572765,43.7394479 49.6608048,43.7671085 49.9402896,43.8279617 Z" id="形状" fill="#B7BCC7" fill-rule="nonzero"></path>
                <path d="M63.2943115,57.1810303 C63.7250977,56.1593018 51.8375244,49.8586426 49.9024658,49.6657715 C47.9674072,49.4729004 39.5991211,52.8283691 38.6234131,53.850708 C37.6477051,54.8730469 37.27771,56.1027832 39.2174072,57.6762695 C41.1571045,59.2497559 47.6650391,63.0552979 49.1938477,63.0672827 C50.7226563,63.0792236 62.8635254,58.2027588 63.2943115,57.1810303 Z" id="路径-378" fill="#878793"></path>
                <path d="M62.5883789,57.1069336 C63.0153809,56.2553711 51.7338867,50.3916016 49.7988281,50.1987305 C47.8637695,50.0058594 39.9963379,53.2401629 39.0522461,54.1005502 C38.1081543,54.9609375 37.8730469,55.8747559 39.8127441,57.4482422 C41.7524414,59.0217285 47.8273926,62.5490723 49.3562012,62.5610352 C50.8850098,62.572998 62.161377,57.9584961 62.5883789,57.1069336 Z" id="路径-378" fill="#ADADAE"></path>
                <path d="M65.1674805,54.1005502 C72.2394206,52.2254113 75.8273112,51.3623047 75.9311523,51.5112305 C76.0349935,51.6601563 72.9092611,52.9849447 66.5539551,55.4855957 L65.1674805,54.1005502 Z" id="路径-381" fill="#838890"></path>
                <path d="M50.4710731,57.7573242 C53.5606688,57.8513678 56.9479478,57.0769539 60.6329102,55.4340825 C61.9004444,56.2299082 62.7086193,56.8671402 62.5883789,57.1069336 C62.161377,57.9584961 50.8850098,62.572998 49.3562012,62.5610352 C48.5580962,62.55479 46.5210325,61.5904993 44.4801332,60.4462846 C44.378143,60.0896895 44.3231143,59.6838207 44.323698,59.2241211 C44.3286133,55.4042969 48.0104317,51.4341774 49.3481445,51.1149902 C50.6858574,50.795803 45.8110426,57.6154785 50.4710731,57.7573242 Z" id="形状结合" fill="#838890"></path>
                <path d="M61.9734211,56.3515594 C62.1057797,56.4551643 62.2194693,56.5513798 62.312253,56.6390709 L49.5985842,62.5387285 C49.5016453,62.553895 49.4203439,62.5615371 49.3562012,62.5610584 C49.2122113,62.5599084 49.0278939,62.5275978 48.8105022,62.4686728 L61.9734211,56.3515594 Z M47.3279355,61.9052299 L61.1624987,55.7746146 L61.4742737,55.9860349 L61.4742737,55.9860349 L47.7424956,62.0854724 L47.3279355,61.9052299 L47.3279355,61.9052299 Z M46.1003405,61.3144829 L59.9425762,55.0103055 L60.356488,55.2612831 L60.356488,55.2612831 L46.5604277,61.5441724 L46.1003405,61.3144829 L46.1003405,61.3144829 Z M44.8666218,60.6608159 L58.9923487,54.4561107 L59.331362,54.6507957 L59.331362,54.6507957 L45.2976388,60.8948246 L44.8666218,60.6608159 L44.8666218,60.6608159 Z M43.6951214,59.9975344 L57.8689712,53.8304285 L58.3138327,54.0749288 L58.3138327,54.0749288 L44.1250067,60.2454061 L43.6951214,59.9975344 L43.6951214,59.9975344 Z M42.6485252,59.3723217 L56.7251261,53.2189526 L57.1673543,53.4525718 L57.1673543,53.4525718 L42.9753094,59.5709307 L42.6485252,59.3723217 L42.6485252,59.3723217 Z M41.5490366,58.6784403 L55.6011849,52.6401548 L56.0664171,52.877166 L56.0664171,52.877166 L41.9551379,58.9397447 L41.5490366,58.6784403 L41.5490366,58.6784403 Z M40.6997821,58.1071919 L54.6123978,52.1486387 L55.0046535,52.3415973 L55.0046535,52.3415973 L41.0879825,58.3731443 L40.6997821,58.1071919 L40.6997821,58.1071919 Z M39.6869049,57.3445383 L53.3877256,51.5649116 L53.8782739,51.7951167 L53.8782739,51.7951167 L40.044038,57.6294459 L39.6869049,57.3445383 L39.6869049,57.3445383 Z M38.9394496,56.6265251 L52.3058154,51.0776961 L52.7158813,51.2586401 L52.7158813,51.2586401 L39.2291128,56.9321173 C39.1219427,56.8271544 39.0255815,56.7253702 38.9394496,56.6265251 Z M50.9866838,50.5400629 C51.1552918,50.6026587 51.335536,50.6727958 51.5258575,50.7496832 L38.5842505,56.1437287 C38.5107194,56.0191532 38.4550904,55.8994787 38.4158003,55.7840587 L50.9866838,50.5400629 Z M49.712038,50.1954459 L49.7988281,50.1987305 C49.9503138,50.2138293 50.1590793,50.2636824 50.415023,50.3431642 L38.352038,55.2077904 C38.375569,55.0310743 38.4395322,54.8636244 38.535891,54.7021168 L49.712038,50.1954459 Z" id="12313" fill="#DDDFE3"></path>
                <path d="M38.3420291,55.3731239 L50.1130978,62.4274824 C49.8821957,62.4866926 49.6883624,62.5276177 49.5385687,62.5474182 L38.4660141,55.9135229 C38.3830807,55.7226601 38.3439215,55.5434242 38.3420291,55.3731239 Z M38.6342585,54.5540025 L51.5645414,61.9853918 L51.1384933,62.1254806 L51.1384933,62.1254806 L38.4706723,54.822658 C38.5150543,54.73121 38.5700421,54.641848 38.6342585,54.5540025 Z M39.6114636,53.7305436 L52.8616664,61.5295733 L52.3737225,61.7053068 L52.3737225,61.7053068 L39.2232116,53.9686976 L39.4648293,53.8154945 C39.5109307,53.7880634 39.5598552,53.7597255 39.6114636,53.7305436 Z M40.5400078,53.2515662 L54.1821957,61.0344052 L53.7184754,61.2112041 L53.7184754,61.2112041 L40.2048806,53.416422 L40.5400078,53.2515662 L40.5400078,53.2515662 Z M41.6832804,52.726998 L55.4684322,60.5296547 L54.9898627,60.7198082 L54.9898627,60.7198082 L41.2286016,52.9299433 L41.6832804,52.726998 L41.6832804,52.726998 Z M42.867686,52.2249114 L56.6393929,60.0531107 L56.2672671,60.206284 L56.2672671,60.206284 L42.4051508,52.4168451 L42.867686,52.2249114 L42.867686,52.2249114 Z M44.026964,51.7650124 L57.8879143,59.52693 L57.422218,59.7254833 L57.422218,59.7254833 L43.5428187,51.9534809 L44.026964,51.7650124 L44.026964,51.7650124 Z M45.0625725,51.3794628 L58.8737799,59.0965363 L58.4238027,59.2947883 L58.4238027,59.2947883 L44.6544069,51.5284827 L45.0625725,51.3794628 L45.0625725,51.3794628 Z M46.3490664,50.93774 L60.1139149,58.5307272 L59.6672271,58.7383036 L59.6672271,58.7383036 L45.830578,51.1102659 L46.3490664,50.93774 L46.3490664,50.93774 Z M47.5022043,50.587449 L61.1653515,58.0174963 L60.7345456,58.2329461 L60.7345456,58.2329461 L47.0637622,50.7144069 L47.5022043,50.587449 L47.5022043,50.587449 Z M48.9781316,50.2492237 L62.1781276,57.4523637 C62.0654526,57.5248356 61.9321446,57.6041827 61.78052,57.6894617 L48.3617441,50.368783 C48.5824583,50.3191958 48.7889252,50.2788895 48.9781316,50.2492237 Z M49.7020291,50.196346 L49.7988281,50.1987305 C51.6394936,50.3821932 61.9369875,55.6967901 62.5697286,56.9477746 L62.5980291,57.040346 L49.7020291,50.196346 Z" id="12313" fill="#DDDFE3" fill-rule="nonzero"></path>
                <polygon id="路径-382" fill="#64737D" points="34.2913208 52.9208374 34.9348755 52.5830688 35.0999756 53.0993042 34.4890137 53.4107056"></polygon>
                <polygon id="路径-382" fill="#64737D" points="38.0727539 51.2433472 38.7163086 50.9055786 38.8814087 51.421814 38.2704468 51.7332153"></polygon>
                <polygon id="路径-382" fill="#64737D" points="46.3265991 47.6583862 46.9701538 47.3206177 47.1352539 47.836853 46.524292 48.1482544"></polygon>
                <polygon id="路径-382" fill="#64737D" points="50.1010132 45.9022827 50.7445679 45.5645142 50.909668 46.0807495 50.2987061 46.3921509"></polygon>
                <path d="M54.9094238,44.0775757 C55.3010864,44.0031128 55.6454468,43.7488298 55.6895142,43.5181832 C55.7335815,43.2875366 55.5087798,42.8421267 55.339595,42.8301515 C55.1704102,42.8181763 54.2264404,43.0192209 53.9732666,43.5182164 C53.7200928,44.0172119 54.5177612,44.1520386 54.9094238,44.0775757 Z" id="路径-395" fill="#64737D"></path>
                <path d="M31.8632202,51.135437 C32.0142212,50.8735352 33.7443848,50.2252197 33.8823853,50.6467285 C33.9743856,50.9277344 33.9121399,51.6304525 33.6956482,52.7548828 C33.5034892,52.8831787 33.3502197,52.9638468 33.2358398,52.9968872 C33.06427,53.0464478 32.3178101,52.4975586 32.2134399,52.3084205 C32.1090698,52.1192824 31.7122192,51.3973389 31.8632202,51.135437 Z M35.6078796,49.5026855 C35.7588806,49.2407837 37.4793091,48.4174194 37.6173096,48.8389282 C37.7093099,49.1199341 37.6503092,49.8810018 37.4403076,51.1221313 C37.2481486,51.2504272 37.0948792,51.3310954 36.9804993,51.3641357 C36.8089294,51.4136963 36.0624695,50.8648071 35.9580994,50.675669 C35.8537292,50.4865309 35.4568787,49.7645874 35.6078796,49.5026855 Z M39.6776428,47.4822998 C39.8286438,47.2203979 41.5490723,46.3970337 41.6870728,46.8185425 C41.7790731,47.0995483 41.7200724,47.860616 41.5100708,49.1017456 C41.3179118,49.2300415 41.1646423,49.3107096 41.0502625,49.34375 C40.8786926,49.3933105 40.1322327,48.8444214 40.0278625,48.6552833 C39.9839629,48.575729 38.4475327,48.8310297 38.4095459,48.3106689 C38.3654175,47.7061768 39.5901551,47.6340418 39.6776428,47.4822998 Z M43.695282,45.5764771 C43.7735596,45.0154419 45.7809448,43.8858643 45.9189453,44.307373 C46.0109456,44.5883789 45.8805339,45.5512288 45.52771,47.1959229 C45.3355509,47.3242187 45.1822815,47.4048869 45.0679016,47.4379272 C44.8963318,47.4874878 44.1498718,46.9385986 44.0455017,46.7494605 C43.9411316,46.5603224 43.6170044,46.1375122 43.695282,45.5764771 Z M47.4671631,43.0488281 C47.729187,42.3700562 49.4179687,41.5110474 49.5559692,41.9325562 C49.6479696,42.213562 49.5245361,43.3454183 49.1856689,45.328125 C48.9935099,45.4564209 48.8402405,45.537089 48.7258606,45.5701294 C48.5542908,45.6196899 47.8078308,45.0708008 47.7034607,44.8816627 C47.5990906,44.6925246 47.2051392,43.7276001 47.4671631,43.0488281 Z M51.2194824,40.5028076 C51.6689453,40.4975993 52.0050659,40.4975993 52.2278442,40.5028076 C52.5620117,40.5106201 53.9179077,41.0482178 54.3171387,41.4146729 C54.7163696,41.7811279 55.4067383,42.6538086 55.5197144,42.9379272 C55.5950317,43.1273397 55.5950317,43.286438 55.5197144,43.4152222 C55.3459676,43.3540649 55.1670939,43.3162231 54.9830933,43.3016968 C54.7990926,43.2871704 54.7990926,43.5003662 54.9830933,43.9412842 C54.3482869,43.9246826 53.9824829,43.843275 53.8856812,43.6970612 C53.7404785,43.4777406 51.7093506,41.9399414 51.5053406,41.722168 C51.3693339,41.5769857 50.8712972,41.5769857 50.0112305,41.722168 L50.0112305,41.722168 Z" id="形状结合" fill="#C8CFD2"></path>
                <path d="M33.8823853,50.6467285 C33.923449,50.7721537 33.9337835,50.9815936 33.9133886,51.2750482 C33.6565608,50.9878558 32.780162,50.913736 32.1950765,50.9096402 C32.7279685,50.6312855 33.776231,50.322491 33.8823853,50.6467285 Z M37.5588075,48.7629331 L37.4839694,48.7940601 C37.0463208,48.995428 36.4096703,49.4121127 35.574018,50.0441139 L35.6412292,49.9905451 C35.5763773,49.7961459 35.5457402,49.6104626 35.6078796,49.5026855 C35.7472652,49.26093 37.2239143,48.5407686 37.5588075,48.7629331 Z M41.6870728,46.8185425 C41.7061805,46.8769052 41.7187747,46.955976 41.7248553,47.0557547 C41.0980462,47.1863608 40.5466786,47.4125594 40.0687472,47.734436 C39.5360719,47.8157362 38.95127,48.1084684 38.4278263,48.3688142 C38.4153254,48.3527463 38.411131,48.332383 38.4095459,48.3106689 C38.3654175,47.7061768 39.5901551,47.6340418 39.6776428,47.4822998 C39.8286438,47.2203979 41.5490723,46.3970337 41.6870728,46.8185425 Z M45.9180585,44.3047588 L45.4827925,44.6133992 C44.9380766,45.0167132 44.4381525,45.43546 43.9830203,45.8696396 L43.7358985,46.1163224 C43.6903106,45.9565388 43.6675587,45.775177 43.695282,45.5764771 C43.7733965,45.0166107 45.7725891,43.8905684 45.9180585,44.3047588 Z M49.5124122,41.8679765 L49.1854586,42.0685216 C48.5295641,42.5055704 47.9273387,43.0638758 47.3787824,43.7434379 C47.3675606,43.4996336 47.3855146,43.2603383 47.4671631,43.0488281 C47.7127463,42.4126458 49.2116603,41.618135 49.5124122,41.8679765 Z M51.2194824,40.5028076 L52.2278442,40.5028076 C52.3220052,40.505009 52.4972901,40.5492747 52.7094368,40.6199229 C51.7667897,40.5070698 50.8719734,41.17527 50.1649532,41.5693394 L51.2194824,40.5028076 Z" id="形状" fill="#ECF1F3"></path>
                <path d="M37.4770813,63.2557852 C42.093455,64.4893605 45.1657308,64.9788872 46.6939087,64.7243652 C48.9861755,64.3425824 54.9951172,62.0734863 56.1437988,61.5620117 C57.2924805,61.0505371 59.0563965,60.6989746 59.8049316,60.9938965 C62.6711426,60.6435547 73.8027344,58.5119629 75.5703125,57.9389648 C77.3378906,57.3659668 81.0837657,56.2723796 81.6912969,56.3758138 C82.2988281,56.479248 84.0319824,59.3093262 84.2924805,59.984375 C84.5529785,60.6594238 85.4304199,61.6081543 85.0532227,62.0803223 C84.8017578,62.3951009 84.2548828,62.7675781 83.4125977,63.1977539 L54.1067953,67.498221 C52.624547,69.613909 51.4916178,70.6005452 50.7080078,70.4581299 C49.5325928,70.2445068 39.755188,65.3772651 39.4770813,65.3541599 C39.3418548,65.3429252 38.0246972,64.9033277 37.3774414,64.1643066 C37.2173249,63.9814894 37.2505382,63.6786489 37.4770813,63.2557852 Z" id="路径-387" fill="#E0E7EC"></path>
                <path d="M59.331362,61.3663831 C53.673332,64.0663513 50.6873011,65.5816874 50.3732694,65.9123913 C49.9022217,66.4084473 49.9143066,67.028877 50.0112305,67.4347876 C50.0758464,67.7053947 50.4069285,68.5247144 51.004477,69.8927468 L50.9103394,69.901123 L50.0524902,67.8751221 C44.1265994,65.471027 41.1499352,64.4112939 41.1224976,64.6959229 C41.0712083,65.2279804 49.5654307,70.2901656 49.7005005,70.2883716 C50.3819142,70.2792958 52.7672918,70.1756333 52.8041992,70.1472778 C58.6909736,65.6245414 60.1714273,62.7390162 60.1139149,62.561172 C60.0552242,62.3796843 59.7943733,61.9814213 59.331362,61.3663831 Z" id="路径-393" fill="#A1AAB2"></path>
                <path d="M79.5169978,63.7693831 L73.3529978,58.9633831 L76.0624052,59.5261699 C78.3031308,59.9763002 79.7373035,60.2160456 80.3649234,60.2454061 C81.1071425,60.2801277 82.4127189,60.1865564 84.2816525,59.9646921 L84.2924805,59.984375 C84.5529785,60.6594238 85.4304199,61.6081543 85.0532227,62.0803223 C84.8017578,62.3951009 84.2548828,62.7675781 83.4125977,63.1977539 L79.5169978,63.7693831 Z" id="路径" fill="#D5DFE7"></path>
                <path d="M79.2069092,63.4848633 L73.3529978,58.9633831 L74.5782471,58.6580811 C76.7471924,59.3082275 79.8724365,60.6424561 80.4625244,61.0494385 C81.0526123,61.4564209 81.0753174,62.1442871 81.2669678,62.8944092 L79.2069092,63.4848633 Z" id="路径" fill="#B4BDC5"></path>
                <path d="M59.9100342,61.5441724 C58.8049668,61.2423218 57.8907402,61.2423218 57.1673543,61.5441724 L55.4869977,62.2341278 C53.265854,63.1338857 48.7995227,64.6005063 47.4726563,64.8586426 C45.6774841,65.2078857 43.1711566,64.8421021 41.3313599,64.3629761 C40.2579849,64.0834442 38.5299286,63.7409364 37.4103466,63.4024692 L37.7364502,63.4121094 C42.2614746,64.5521851 45.1829427,64.9646049 46.7111206,64.710083 C48.8040599,64.3614986 53.9843452,62.4387646 55.7403216,61.730977 L56.1437988,61.5620117 C57.2924805,61.0505371 59.0563965,60.6989746 59.8049316,60.9938965 L60.361464,60.9188179 C60.46616,60.9037046 60.5765679,60.8873401 60.6923001,60.8697979 L60.7093896,60.8948246 L59.9100342,61.5441724 Z" id="路径" fill="#A5AEB5"></path>
                <path d="M36.8607178,63.2012939 C40.8370386,64.2731953 43.5902938,64.8455423 45.1204834,64.918335 C46.650673,64.9911277 48.241005,64.7332745 49.8914795,64.1447754 C48.1074519,65.2639198 46.0419992,65.5880785 43.6951214,65.1172514 C41.3482436,64.6464243 39.3917056,64.2525644 37.8255074,63.9356717 L36.8607178,63.2012939 Z" id="路径-386" fill="#FFFFFF"></path>
                <path d="M81.6912969,56.3758138 C82.263091,56.4731637 83.8319768,58.9858106 84.231752,59.8438718 L84.2924805,59.984375 C84.3938599,60.2470873 84.5886799,60.5512507 84.766623,60.8526432 L84.7207031,60.8948246 L82.7226955,58.2859271 C82.1073939,57.4971253 81.7635944,57.081122 81.6912969,57.0379173 C81.5611615,56.9601489 79.0513102,57.5269443 74.1617432,58.7383036 L72.6680908,58.6986084 L72.7705229,58.6074414 L74.3417445,58.2583571 C74.7883492,58.1539579 75.1497943,58.0630409 75.4020086,57.9901665 L76.9019775,57.5238784 C78.7760056,56.9585626 81.211667,56.2941553 81.6912969,56.3758138 Z" id="路径" fill="#FFFFFF"></path>
                <path d="M35.4084473,62.6291504 C36.1614203,62.5045313 38.1818848,63.2644043 39.4770813,63.8212891 C40.3206759,64.1840023 43.8380329,65.5599463 50.0291522,67.949121 L50.8735626,69.9899718 C50.3338486,70.1304463 49.3736344,70.2006836 47.9929199,70.2006836 C46.3237895,70.2006836 43.6823986,70.098038 40.0687472,69.8927468 C36.0447381,70.3434468 32.8876264,70.5238105 30.5974121,70.4338379 C28.3071978,70.3438653 24.7936887,69.9014418 20.0568848,69.1065674 L20.0568848,69.1065674 L18.6314697,69.1065674 C18.1454046,69.0226141 17.893248,68.9631659 17.875,68.9282227 C16.8892989,67.040695 17.0478585,65.9864491 17.0041504,65.7270508 C16.9367676,65.3271484 16.8234863,64.7670898 17.6174316,64.633736 C18.411377,64.5003822 24.5004883,64.5168457 26.0421143,64.633736 C27.5837402,64.7506263 34.6554742,62.7537694 35.4084473,62.6291504 Z M68.7558169,56.0555492 L68.7939453,56.0576172 C69.2792969,56.154541 80.0445441,61.1040039 80.3649234,61.3361816 C80.5785096,61.4909668 80.8271578,62.0483554 81.1108679,63.0083473 C64.1002076,66.2309822 55.2409752,67.9315022 54.5331708,68.1099075 L54.4978027,68.1196289 C53.9741211,68.2883301 54.1904297,69.8085938 54.1067953,69.8927468 C54.0510391,69.9488489 53.0676867,69.9488489 51.1567383,69.8927468 L51.1567383,69.8927468 L50.4535928,68.1122742 L50.4710731,68.1196289 C50.0840807,67.2607313 50.0582812,66.6344278 50.3936746,66.2407183 L50.4710731,66.1599121 C51.0930251,65.5805664 56.3994141,63.0961914 59.8049316,60.9938965 C63.2104492,58.8916016 68.3085938,55.9606934 68.7939453,56.0576172 Z" id="形状结合" fill="#DBE1E4"></path>
                <path d="M38.8350563,63.5538118 L41.1281471,64.4886081 C42.6932483,65.1079274 45.2510384,66.1034294 48.8015175,67.4751139 L49.7020291,67.8437463 L39.6057318,64.3751112 C37.1277345,63.5363156 35.7838299,63.1003727 35.574018,63.0672827 C34.9611463,62.970625 27.2176514,64.9979248 25.9984131,64.9469684 L25.1173719,64.9239948 C22.8565068,64.8817101 17.753106,64.863127 17.5288086,65.1036952 C17.3532715,65.291966 17.5143636,66.2785229 18.012085,68.0633659 C17.5875316,67.4518733 17.2716441,66.960325 17.0644223,66.5887209 C17.0015966,66.1334485 17.0242408,65.846283 17.0041504,65.7270508 L16.968573,65.4965663 C16.9255654,65.1375967 16.96784,64.7428437 17.6174316,64.633736 C18.411377,64.5003822 24.5004883,64.5168457 26.0421143,64.633736 C27.5837402,64.7506263 34.6554742,62.7537694 35.4084473,62.6291504 C36.0455783,62.5237035 37.5902032,63.051532 38.8350563,63.5538118 L38.8350563,63.5538118 Z" id="路径" fill="#F8FAFC"></path>
                <path d="M68.7939453,56.0576172 C69.2792969,56.154541 80.0445441,61.1040039 80.3649234,61.3361816 C80.4866588,61.4244028 80.6197841,61.6434109 80.7642994,61.993206 L80.7976074,62.0854724 C80.4973374,61.7708845 80.0442625,61.4691645 79.4383829,61.1803122 L79.0565186,61.0085449 C77.8559158,60.4978756 69.1912446,56.985376 68.8748581,56.8325928 C68.5690179,56.6849023 61.617963,60.2951196 59.5684501,61.4705906 L59.3743896,61.583252 C58.3245682,62.2017339 56.266391,63.2127062 53.1998579,64.6161689 L55.9993457,63.1445337 C57.3157018,62.4421169 58.6665235,61.6966589 59.8049316,60.9938965 L61.685037,59.8523725 C64.8313078,57.9709505 68.3922751,55.9774044 68.7939453,56.0576172 Z" id="路径" fill="#FFFFFF"></path>
                <path d="M17.9958801,68.3430176 C18.8415019,68.6688639 19.719635,68.5495199 20.6302795,67.9849854 C21.9962463,67.1381836 24.2679749,66.4276123 25.2012024,66.1063232 C26.1344299,65.7850342 30.0019836,68.0444336 30.7915344,67.8460693 C31.5810852,67.6477051 33.5284729,66.1520996 34.2102356,65.4741211 C34.8919983,64.7961426 36.246521,64.725708 37.8581848,65.5273437 C38.9326274,66.0617676 41.7541911,67.4316406 46.322876,69.6369629 C40.9111125,68.2148437 37.8588359,67.6641846 37.1660461,67.9849854 C36.1268616,68.4661865 31.8207092,69.7896729 30.7915344,69.7331543 C29.7623596,69.6766357 26.6454163,68.4299316 25.2012024,68.3430176 C23.7569885,68.2561035 23.1041565,68.5671387 21.0714417,68.9165039 C19.0387268,69.2658691 18.8662415,69.0178223 18.6152649,68.9487305 C18.4479472,68.9026693 18.2414856,68.700765 17.9958801,68.3430176 Z" id="路径-388" fill="#A1AAB2"></path>
                <path d="M18.012085,68.5008545 C18.8577067,68.8267008 19.7358398,68.7073568 20.6464844,68.1428223 C22.0124512,67.2960205 24.2841797,66.5854492 25.2174072,66.2641602 C26.1506348,65.9428711 30.0181885,68.2022705 30.8077393,68.0039063 C31.59729,67.805542 33.5446777,66.3099365 34.2264404,65.631958 C34.9082031,64.9539795 36.2627258,64.8835449 37.8743896,65.6851807 C38.9488322,66.2196045 41.5676778,67.4820557 45.7309265,69.4725342 C40.7245992,68.2652588 37.8750407,67.8220215 37.182251,68.1428223 C36.1430664,68.6240234 31.8369141,69.9475098 30.8077393,69.8909912 C29.7785645,69.8344727 26.6616211,68.5877686 25.2174072,68.5008545 C23.7731934,68.4139404 23.1203613,68.7249756 21.0876465,69.0743408 C19.0549316,69.4237061 18.8824463,69.1756592 18.6314697,69.1065674 C18.464152,69.0605062 18.2576904,68.8586019 18.012085,68.5008545 Z" id="路径-388" fill="#D3D9DF"></path>
                <path d="M86,68.1326904 C85.7941775,68.7035254 85.6244591,69.0369401 85.4908447,69.1329346 C83.1004719,70.8502839 81.2051521,71.2612949 80.0144043,71.4707031 C76.3941032,72.1073793 72.1094452,72 67.8013916,72 C61.1896973,72 54.6877117,72.0218506 54.1067953,72 C53.5258789,71.9781494 50.876709,71.3636475 50.2971191,71.3786621 C49.9107259,71.3886719 49.2307943,71.3886719 48.2573242,71.3786621 L47.7309265,72 L38.9504395,72 C38.5852865,71.4343262 38.2161051,71.1623128 37.8428955,71.18396 C37.4696859,71.2056071 37.177124,71.4776204 36.96521,72 C31.2930094,72 28.2989502,72 27.9830322,72 C27.5091553,72 26.6795654,70.9404297 26.0421143,70.9088135 C25.4046631,70.8771973 25.5252686,71.5324707 25.3129883,71.5756836 C25.100708,71.6188965 19.2969971,70.8273383 15.6945801,69.2654758 C12.0921631,67.7036133 10.2824707,66.368042 10.0571289,64.388916 C9.83178711,62.40979 10.4121094,59.0701904 10.5766602,58.9547119 C10.6863607,58.8777262 10.8713379,58.7923584 11.1315918,58.6986084 C10.7775879,59.2398682 11.2728271,59.838501 12.6173096,60.4945068 C14.6340332,61.4785156 16.2557373,62.6038818 16.9899902,64.946167 C17.4794922,66.5076904 17.8843994,67.7264404 18.2047119,68.602417 L19.5317383,68.9298096 C22.827474,67.9051514 24.8167725,67.4499512 25.4996338,67.564209 C26.5239258,67.7355957 29.4780273,69.394477 30.9799805,69.2654758 C32.4819336,69.1364746 36.3029785,67.3341064 37.6943359,67.439209 C39.0856934,67.5443115 46.3074951,69.6911621 47.1547852,69.7537842 C48.0020752,69.8164062 52.2159424,69.9569092 52.7600098,69.9366455 C53.3040771,69.9163818 54.1171551,69.7639838 54.1067953,69.2654758 C54.0964355,68.7669678 53.3818359,67.7281494 54.4849854,67.375 C55.5881348,67.0218506 64.1855469,65.2172852 68.6601563,64.6740723 C73.1347656,64.1308594 81.6474609,62.6766652 82.6524658,62.561172 C83.6574707,62.4456787 84.6035156,62.2576904 84.6993408,62.3687744 C84.795166,62.4798584 85.7741699,63.2423096 85.9973145,64.388916 C86.1460775,65.1533203 86.1469727,66.4012451 86,68.1326904 Z" id="---" fill="#7A98BD"></path>
                <path d="M11.1315918,58.6986084 C10.804819,59.1982328 11.2016616,59.7467431 12.3221197,60.3441393 L12.6173096,60.4945068 C14.6340332,61.4785156 16.2557373,62.6038818 16.9899902,64.946167 L17.5278556,66.6281945 C17.6940816,67.1359422 17.8472453,67.5907618 17.9873466,67.9926533 C17.7380983,68.2753056 17.3941263,68.2991028 16.9565928,68.0634374 C13.7519487,66.9367299 11.4345321,65.3645506 10.004343,63.3468995 C10.0079137,61.4177916 10.4386085,59.0515939 10.5766602,58.9547119 C10.6863607,58.8777262 10.8713379,58.7923584 11.1315918,58.6986084 Z" id="路径" fill="#89A5C6"></path>
                <path d="M11.1315918,58.6986084 C10.804819,59.1982328 11.2016616,59.7467431 12.3221197,60.3441393 L12.6173096,60.4945068 C14.6340332,61.4785156 16.2557373,62.6038818 16.9899902,64.946167 L17.3118279,65.9501889 C16.3734268,65.5986742 14.9923032,64.8032231 13.168457,63.5638355 C11.6563776,62.5363078 10.6806176,61.4981591 10.2411771,60.4493895 L10.3689962,59.6998145 C10.4531625,59.2676395 10.5309518,58.9867892 10.5766602,58.9547119 C10.6863607,58.8777262 10.8713379,58.7923584 11.1315918,58.6986084 Z" id="路径" fill="#A1B6D0"></path>
                <path d="M51.5149947,69.9190903 L53.3207036,70.4562962 L53.2424055,71.8725779 L51.3953623,71.5250065 C50.9033475,71.4370508 50.4879984,71.3737173 50.2971191,71.3786621 L49.3471829,71.3860162 C49.0378119,71.3854034 48.6745257,71.382952 48.2573242,71.3786621 L47.7309265,72 L47.4258351,71.9986199 L49.7218705,69.8645511 L51.5149947,69.9190903 L51.5149947,69.9190903 Z" id="路径" fill="#58789E"></path>
                <path d="M37.6943359,67.439209 C39.0856934,67.5443115 46.3074951,69.6911621 47.1547852,69.7537842 L48.2401083,69.8086449 C48.925605,69.837427 49.7993467,69.8685462 50.5993686,69.8931177 C50.6460926,69.9785728 50.6390728,70.0423312 50.5737915,70.078125 C49.909668,70.442265 44.4638797,71.0239577 40.1587288,70.9987005 L28.4894504,70.7523211 C24.965426,70.6714662 22.7609321,70.6219834 22.0004883,70.5021973 C21.0342773,70.3499984 19.5359912,69.8577825 19.2956689,69.1173516 L19.2326812,68.8554259 L19.5317383,68.9298096 L20.5819303,68.6093479 C23.2534114,67.8110261 24.8926459,67.4626465 25.4996338,67.564209 C26.5239258,67.7355957 29.4780273,69.394477 30.9799805,69.2654758 C32.4819336,69.1364746 36.3029785,67.3341064 37.6943359,67.439209 Z" id="路径" fill="#9EB0C6"></path>
                <path d="M84.3661572,62.3513214 C84.4655971,62.3515651 84.56803,62.3518608 84.6734558,62.3522084 L84.6993408,62.3687744 L84.6993408,62.3687744 C84.795166,62.4798584 85.7741699,63.2423096 85.9973145,64.388916 C86.0918544,64.8747005 86.1266751,65.5557641 86.1017765,66.4321069 C85.3704436,67.0484683 83.1365194,67.6702141 79.3999023,68.2996826 C71.842041,69.572876 55.8018799,69.6368408 54.7053223,69.348877 C54.419634,69.2738532 54.1943864,69.1225735 54.0295795,68.895038 C53.8772701,68.3630564 53.61217,67.654413 54.4849854,67.375 C55.5881348,67.0218506 64.1855469,65.2172852 68.6601562,64.6740723 C73.1347656,64.1308594 81.6474609,62.6766652 82.6524658,62.561172 C83.2805939,62.4889887 83.8856907,62.388487 84.2745776,62.3503817 Z" id="形状结合" fill="#CFD8DA"></path>
                <path d="M86.0555079,67.3961823 L85.7210071,67.6042195 C83.8953534,68.6682262 81.5125209,69.4310687 78.5725098,69.8927468 C75.1424967,70.4313713 70.4849447,70.7869466 64.5998535,70.9594727 C57.9922884,71.0806321 53.4721993,70.7290501 51.0395861,69.9047266 L52.5251438,69.9383365 C52.6303912,69.9390035 52.710435,69.9384919 52.7600098,69.9366455 C53.3040771,69.9163818 54.1171551,69.7639838 54.1067953,69.2654758 C54.105155,69.1865454 54.0858598,69.0940696 54.0589203,68.992915 C54.3050325,68.9316533 54.5646107,68.8716249 54.8331299,68.8117676 L86.1079174,66.1433818 C86.102728,66.5208258 86.0852581,66.938426 86.0555079,67.3961823 Z" id="路径" fill="#AFBDD3"></path>
                <path d="M79.0764572,68.0633659 C67.5170222,69.4724566 60.4541746,70.144043 57.8879143,70.078125 C55.817101,70.0249333 54.160822,69.9744277 52.9190771,69.9266083 C53.4500319,69.8845792 54.1161786,69.716998 54.1067953,69.2654758 C54.105155,69.1865454 54.0858598,69.0940696 54.0589203,68.992915 C54.3050325,68.9316533 54.5646107,68.8716249 54.8331299,68.8117676 L55.2254952,68.7773659 Z" id="形状结合" fill="#C7D0DD"></path>
                <path d="M78.6479492,63.9777832 C78.7329102,64.4655762 78.9199219,64.4351264 78.6479492,65.3541599 C78.3759766,66.2731934 78.7375488,67.0391846 79.0263672,67.5638428 C78.1145284,67.8475331 69.7740685,68.2603921 54.0049875,68.8024196 C53.8511291,68.2849722 53.6610873,67.6387531 54.4849854,67.375 C55.5881348,67.0218506 64.1855469,65.2172852 68.6601562,64.6740723 C71.7332188,64.3010057 76.7109001,63.4982623 79.8531975,62.9945775 C79.000907,63.3754392 78.6001127,63.7031358 78.6479492,63.9777832 Z" id="形状结合" fill="#4A616F" opacity="0.5"></path>
                <path d="M83.0565186,67.498221 C81.8256836,67.8457031 67.2160645,69.2492676 64.5174561,69.3457031 C61.8188477,69.4421387 57.4123535,69.6846924 55.6547852,69.6104736 C54.8951924,69.5783975 54.4050121,69.4332301 54.1054117,69.2467584 L54.1067953,69.2654758 C54.101653,69.018028 53.922993,68.6374531 53.8792604,68.2736913 C54.093139,68.105829 54.5090384,67.9796198 55.1276855,67.8953857 C54.664266,68.233846 54.8137716,68.4222819 55.5762024,68.4606934 C56.7198486,68.5183105 66.5148926,67.8867008 71.4620361,67.498221 C73.7589712,67.3178517 76.3430614,67.0103733 78.9448242,66.7745361 C79.267334,67.432251 85.4043984,66.2733212 85.7126465,66.1083984 C86.2880531,65.8005371 84.2873535,67.1507389 83.0565186,67.498221 Z" id="形状结合" fill="#A2B0B9"></path>
                <path d="M76.4239502,63.9481201 C75.7441283,63.8832643 74.8383789,64.0817871 72.6274414,64.3126221 C70.4165039,64.543457 64.8220854,65.4799316 62.4229736,65.9527588 C60.0238619,66.425586 62.4985352,66.3547175 64.1469727,66.0921537 C65.7954102,65.8295898 73.0158691,64.8520667 74.9168701,64.633736 C76.8178711,64.4154053 77.1037721,64.0129759 76.4239502,63.9481201 Z" id="路径-375" fill="#D7DEE8"></path>
                <path d="M78.6479492,65.3541599 C78.561293,65.6469834 78.5512968,65.9765293 78.5872491,66.30664 L59.5686035,68.0483398 C56.3871257,68.1197917 56.1555178,67.9364187 58.8737799,67.498221 C61.592042,67.0600233 68.3262678,66.105195 79.0764572,64.633736 L78.7890448,64.6717897 C78.7826826,64.8240915 78.7438496,65.0300991 78.6479492,65.3541599 Z" id="形状结合" fill="#5B6D7A"></path>
                <path d="M84.6605259,62.352166 L84.6993408,62.3687744 L85.0288538,62.6870841 C85.3638509,63.0308431 85.8485514,63.6245117 85.9973145,64.388916 C86.0869188,64.8493391 86.1228766,65.4851836 86.1051878,66.2964496 L84.4056396,66.4437866 C85.1659546,66.2262573 85.1873838,65.9847391 85.2017909,65.8125851 C85.2489194,65.2494372 85.2513172,64.7558582 85.2089844,64.3318481 C85.176029,64.0017638 84.9569903,63.3270958 84.4077759,62.5392456 C84.3664059,62.4799002 82.5379932,62.7743865 79.4810181,63.1242676 C79.387784,63.1349385 79.3214795,63.1264546 79.2821045,63.0988159 L84.2693797,62.3508934 L84.6605259,62.352166 Z" id="路径" fill="#9BACB9"></path>
                <path d="M37.8743896,65.6851807 L39.7118548,66.5824968 C40.4196244,66.9250346 41.2840622,67.3414254 42.3051682,67.8316691 L38.3026043,66.1200983 C37.1347811,65.636466 36.4868346,65.3940529 36.3588867,65.3929443 L35.9690694,65.3863649 C35.5300164,65.3853645 34.9734849,65.4289856 34.5715332,65.7681885 C34.0355976,66.220459 31.3657227,68.0509262 30.9542236,68.0633659 C30.9085015,68.0647481 30.8122182,68.0460371 30.6763864,68.011764 L30.8077393,68.0039063 C31.59729,67.805542 33.5446777,66.3099365 34.2264404,65.631958 C34.9082031,64.9539795 36.2627258,64.8835449 37.8743896,65.6851807 Z M27.1521496,66.7115258 L29.2793068,67.5941024 L27.0981049,66.9115182 C26.3080593,66.6741383 25.6570677,66.5006327 25.4616699,66.5212402 C25.0136627,66.5684891 22.7467569,67.2490966 21.2131443,67.8263234 C22.5739168,67.1199156 24.4040401,66.544184 25.2174072,66.2641602 C25.5624661,66.1453642 26.3086871,66.3793832 27.1521496,66.7115258 L27.1521496,66.7115258 Z" id="形状" fill="#F4F4F4"></path>
                <polygon id="路径-394" fill="#979797" fill-rule="nonzero" points="60.0721549 47.8773462 62.923511 50.2645734 62.2815672 51.0313251 59.430211 48.6440979"></polygon>
            </g>
        </g>
    </g>
</svg>