<?xml version="1.0" encoding="UTF-8"?>
<svg width="96px" height="96px" viewBox="0 0 96 96" version="1.1" xmlns="http://www.w3.org/2000/svg" xmlns:xlink="http://www.w3.org/1999/xlink">
    <title>Jordan Why Not Zer0.3 PF</title>
    <defs>
        <rect id="path-1" x="0" y="0" width="96" height="96"></rect>
    </defs>
    <g id="icon" stroke="none" stroke-width="1" fill="none" fill-rule="evenodd">
        <g id="画板" transform="translate(-274.000000, -54.000000)">
            <g id="Jordan-Why-Not-Zer0.3-PF" transform="translate(274.000000, 54.000000)">
                <g id="#" opacity="0">
                    <use fill="#FFFFFF" fill-rule="evenodd" xlink:href="#path-1"></use>
                    <rect stroke-opacity="0.5" stroke="#DDDDDD" stroke-width="6" stroke-linejoin="square" x="3" y="3" width="90" height="90"></rect>
                    <rect stroke-opacity="0.507785184" stroke="#DDDDDD" stroke-width="12" stroke-linejoin="square" x="6" y="6" width="84" height="84"></rect>
                </g>
                <path d="M83.9736328,54.2361261 C83.6219076,48.1672504 83.3155111,44.6352539 83.0544434,43.6401367 C82.6628418,42.1474609 80.9904785,38.0283203 80.9904785,37.1711426 C80.9904785,36.3139648 79.8845215,35.9162598 79.486084,36.5437012 C78.8466797,35.6696777 76.9841309,33.8991699 76.9841309,33.8991699 C76.9841309,33.8991699 73.5317383,41.1621094 72.8562012,42.401123 C72.1806641,43.6401367 71.1655273,44.5029297 69.0053711,42.401123 C66.8452148,40.2993164 62.2648926,35.9499512 62.2648926,35.9499512 C62.2648926,35.9499512 61.9367676,33.5048828 62.2648926,32.8278809 C62.5930176,32.1508789 62.7954102,30.0007324 60.9619141,31.4143066 C59.128418,32.8278809 55.3898926,36.9382324 54.0454102,38.375 C52.7009277,39.8117676 48.2597656,43.9375 46.3818359,45.2893066 C44.5039062,46.6411133 44.2749023,46.6147461 42.8344727,46.9458008 C41.394043,47.2768555 37.0385742,48.8173828 36.5620117,49.4919434 C35.5239258,49.7971191 34.1256696,49.2223484 33.5655203,49.8928223 C33.0053711,50.5632961 32.5258789,51.3085938 31.8339844,51.3085937 C31.1420898,51.3085937 27.6887207,51.8447266 26.9418945,52.2521973 C26.4440104,52.5238444 25.935791,52.9112956 25.4172363,53.4145508 C18.8534342,54.6578776 14.9349772,55.5655111 13.6618652,56.1374512 C11.7521973,56.9953613 11.2661761,57.9892578 10.5268555,58.9018555 C10.033975,59.5102539 10.9403064,61.1313418 13.2458496,63.7651193 L47.1851366,66.6650391 L61.5456543,63.8547363 L65.8251953,66.6650391 L83.9736328,54.2361261 Z" id="路径-31" fill="#DBE9ED"></path>
                <path d="M28.2088505,54.5050891 C25.4462891,56.9289551 14.855957,57.4689141 13.3051758,59.7312832 C12.6446419,58.8107678 12.1323794,58.0284031 11.7683883,57.3841893 C12.2080077,56.9541883 12.784782,56.5314771 13.6618652,56.1374512 C14.9349772,55.5655111 18.8534342,54.6578776 25.4172363,53.4145508 C25.935791,52.9112956 26.4440104,52.5238444 26.9418945,52.2521973 C27.4686872,51.9647776 29.3421314,51.6133415 30.6431591,51.431207 C30.2164129,52.4311256 29.4047645,53.4557965 28.2088505,54.5050891 Z" id="形状结合" fill="#E6F2F6"></path>
                <path d="M56.0408312,36.2330046 L60.0424646,36.4213927 L71.8061523,46.1460275 L63.0500488,43.5336914 L63.8201733,48 L50.5840101,41.7083514 C52.0344259,40.3803915 53.3984434,39.0663745 54.0454102,38.375 C54.4957803,37.8937165 55.2147845,37.1124318 56.0408312,36.2330046 Z" id="形状结合" fill="#B1BECB"></path>
                <path d="M15.5354004,57.7861328 C14.3456217,59.5602214 13.7507324,60.8483887 13.7507324,61.6506348 C12.9805797,61.7629268 12.2575873,61.7846074 11.5817552,61.7156765 C11.1767735,61.1578044 10.875451,60.6767325 10.678022,60.2708541 L10.3966405,59.3608398 C10.4892485,59.1323933 10.5754677,58.9249726 10.655298,58.7385778 C11.2782557,57.9372971 11.7841034,57.0821614 13.2825974,56.3188183 C13.7647145,56.6391948 14.5153294,57.1284652 15.5354004,57.7861328 Z" id="形状结合" fill="#EDF0F5"></path>
                <path d="M50.1517334,40.2628174 C50.1517334,40.2628174 50.2059733,40.8604329 50.3144531,42.0556641 L51.5463867,41.796875 C53.9517415,39.9724798 55.3809814,38.8317496 55.8341064,38.3746845 C56.5137939,37.6890869 59.074707,36.5194092 60.621582,37.5090332 C62.168457,38.4986572 67.2393799,43.1148682 68.4355469,43.6276855 C69.6317139,44.1405029 71.902832,45.2845459 74.2926025,42.7652588 C75.8857829,41.085734 77.6617432,39.3534749 79.6204834,37.5684814 C79.5675863,36.5696208 79.2870687,35.8013102 78.7789307,35.2635498 C78.0167236,34.4569092 77.6433105,33.7114258 76.9841309,33.8991699 C76.5446777,34.0243327 74.5349935,36.8429769 70.9550781,42.3551025 C70.7453613,42.8856201 70.4123942,42.9683431 69.9561768,42.6032715 C69.2718506,42.0556641 63.8352051,36.8928342 63.0500488,36.4213927 C62.2648926,35.9499512 58.9517822,33.8895264 56.5655518,35.2635498 C54.1793213,36.6375732 50.1517334,40.2628174 50.1517334,40.2628174 Z" id="路径-45" fill="#CFD8E1"></path>
                <path d="M76.9841309,33.8991699 C77.2275391,33.8991699 77.9862061,34.6386719 78.7789307,35.2635498 C78.9717556,35.4155471 79.1315697,35.6143684 79.2583731,35.8600135 L77.1555176,35.121582 C73.2137858,40.5117188 71.0531413,43.3072917 70.673584,43.5083008 C70.104248,43.8098145 66.8410645,41.1555176 64.8861084,39.3708038 C62.9311523,37.5860899 61.6672363,36.348877 59.4575195,36.1264648 C57.2478027,35.9040527 54.4379883,38.4477539 53.7507324,39.3708038 C53.0634766,40.2938536 50.2797852,40.7604285 50.2797852,40.2783203 C50.2797852,40.2400495 50.2961894,40.1819642 50.3289978,40.1040645 C51.1292229,39.3949722 54.4764262,36.4664963 56.5655518,35.2635498 C58.9517822,33.8895264 62.2648926,35.9499512 63.0500488,36.4213927 C63.8352051,36.8928342 69.2718506,42.0556641 69.9561768,42.6032715 C70.4123942,42.9683431 70.7453613,42.8856201 70.9550781,42.3551025 C74.8121745,36.7178141 76.8218587,33.8991699 76.9841309,33.8991699 Z" id="形状结合" fill="#E7F1FC"></path>
                <path d="M75.2492676,52.7365723 C68.8664551,52.3183802 63.6582845,51.9367432 59.6247559,51.5916612 C53.5744629,51.0740383 47.979248,49.65625 43.4089355,50.0551758 C43.7990723,48.4554036 44.1561686,47.0791016 44.4802246,45.9262695 C48.4995931,42.7714844 50.5092773,41.1940918 50.5092773,41.1940918 C50.5092773,41.1940918 51.3134664,41.2455696 51.8740234,41.2208252 C52.2524609,41.20412 52.3952216,41.0854641 52.5788574,41.1485596 C53.5042563,41.4665178 56.5447023,42.7633928 61.7001953,45.0391846 L58.5458984,40.8781738 C57.8084488,39.9075719 58.3458837,39.7898148 60.1582031,40.5249023 C61.9705225,41.2599899 64.5274073,42.3014125 67.8288574,43.6491699 C69.8821615,44.0672201 71.2930094,44.1492106 72.0614014,43.8951416 C73.2139893,43.5140381 75.3775635,41.5651855 75.9158936,40.470459 C76.4542236,39.3757324 79.1907959,37.9840088 79.1907959,37.3475342 C79.1907959,36.7110596 80.7567139,35.7304687 81.211792,36.590332 C81.5151774,37.1635742 82.2312826,39.9163411 83.3601074,44.8486328 L79.736084,53.6108398 L78.7336426,54.0297852 L77.9116211,49.6635742 L75.2492676,52.7365723 Z" id="路径-37" fill="#8E9CA3"></path>
                <path d="M75.388916,52.2258301 C69.0061035,51.807638 63.7979329,51.426001 59.7644043,51.0809191 C53.7141113,50.5632961 48.1188965,49.1455078 43.548584,49.5444336 C43.9387207,47.9446615 44.2958171,46.5683594 44.619873,45.4155273 C48.6392415,42.2607422 50.6489258,40.6833496 50.6489258,40.6833496 C50.6489258,40.6833496 54.7616374,42.5042422 62.9870605,46.1460275 L58.6855469,40.3674316 L67.5349121,43.9567871 C69.7079264,44.4649251 71.1786296,44.5919596 71.9470215,44.3378906 C73.0996094,43.9567871 75.9382324,41.4621582 76.4765625,40.3674316 C77.0148926,39.2727051 79.5532227,37.9643555 79.5532227,37.3278809 C79.5532227,36.6914062 80.8808594,35.951416 81.3359375,36.8112793 C81.6393229,37.3845215 82.3605957,39.8933919 83.4997559,44.3378906 L79.8757324,53.1000977 L78.873291,53.519043 L78.0512695,49.152832 L75.388916,52.2258301 Z" id="路径-37" fill="#CFDBE1"></path>
                <polygon id="路径-33" fill="#B9C0C2" points="74.8295898 52.0310059 70.2116699 46.6655273 63.3547363 52.8615723 68.4221191 57.7861328"></polygon>
                <path d="M63.0595703,61.6710369 L63.5333252,60.9137137 L78.5878906,47.0733817 L79.1152344,51.2992118 L83.0639648,43.0499442 C84.9542643,37.3933687 84.7687174,35.9792248 82.5073242,38.8075126 C82.0727539,39.4432547 81.3251953,38.098284 81.3251953,37.3739188 C81.3251953,36.6495536 80.2282715,28.7415946 79.1152344,28.7415946 C78.0021973,28.7415946 77.6933594,30.3753837 78.2453613,32.0692313 C78.6133626,33.1984631 78.9033203,34.2664969 79.1152344,35.2733329 L78.2453613,34.0406669 C77.1799316,30.5214611 77.2941081,28.5333426 78.5878906,28.0763114 C80.5285645,27.3907645 80.5708008,29.404093 80.947998,30.3525069 C81.3251953,31.3009208 81.6547852,37.3921073 81.6547852,37.9504569 C81.6547852,38.5088065 82.2386475,38.8786796 82.5073242,37.9504569 C82.776001,37.0222342 84.3322754,36.2458671 84.7347412,37.1981376 C85.137207,38.1504081 83.7470703,42.8084891 83.5262451,43.3148368 C83.4257877,43.5451835 83.647205,45.9228261 83.8256836,49.1770194 C83.8810673,50.1868287 83.9335576,51.8173218 83.9831543,54.0684989 L67.7073975,63.1749268 L63.5333252,63.1749268 L63.0595703,61.6710369 Z" id="路径-32" fill="#819AA2"></path>
                <path d="M63.0500488,62.2612294 L63.5238037,61.5039062 L78.5783691,47.6635742 L79.1057129,51.8894043 L83.0544434,43.6401367 C84.9447428,37.9835612 84.759196,36.5694173 82.4978027,39.3977051 C82.0632324,40.0334473 81.3156738,38.6884766 81.3156738,37.9641113 C81.3156738,37.2397461 80.21875,29.3317871 79.1057129,29.3317871 C77.9926758,29.3317871 77.6838379,30.9655762 78.2358398,32.6594238 C78.6038411,33.7886556 78.8937988,34.8566895 79.1057129,35.8635254 L78.2358398,34.6308594 C77.1704102,31.1116536 77.2845866,29.1235352 78.5783691,28.6665039 C80.519043,27.980957 80.5612793,29.9942856 80.9384766,30.9426994 C81.3156738,31.8911133 81.6452637,37.9822998 81.6452637,38.5406494 C81.6452637,39.098999 82.229126,39.4688721 82.4978027,38.5406494 C82.7664795,37.6124268 84.3227539,36.8360596 84.7252197,37.7883301 C85.1276855,38.7406006 83.7375488,43.3986816 83.5167236,43.9050293 C83.4162663,44.135376 83.6376835,46.5130186 83.8161621,49.7672119 C83.8715458,50.7770212 83.9240361,52.4075144 83.9736328,54.6586914 L67.697876,63.7651193 L63.5238037,63.7651193 L63.0500488,62.2612294 Z" id="路径-32" fill="#E6EBEC"></path>
                <path d="M18.1166992,62.8156738 C22.2625326,58.9394124 24.6803385,56.7499593 25.3701172,56.2473145 C26.4047852,55.4933472 28.5349121,53.2167969 28.5349121,52.7021484 C28.5349121,52.1875 29.1186523,51.237793 29.498291,51.237793 C29.8779297,51.237793 32.5888672,50.798584 32.5888672,51.237793 C32.5888672,51.677002 32.1762695,54.8447266 34.7033691,57.7478027 C36.3881022,59.6831868 38.4805501,61.940918 40.9807129,64.5209961 L26.4125977,64.5209961 L18.1166992,62.8156738 Z" id="路径-36" fill="#9EAFBF"></path>
                <path d="M17.609375,62.8540039 C21.7552083,58.9777425 24.1730143,56.7882894 24.862793,56.2856445 C25.8974609,55.5316772 28.0275879,53.255127 28.0275879,52.7404785 C28.0275879,52.2258301 28.6113281,51.276123 28.9909668,51.276123 C29.3706055,51.276123 32.081543,50.8369141 32.081543,51.276123 C32.081543,51.715332 31.6689453,54.8830566 34.1960449,57.7861328 C35.880778,59.7215169 37.9732259,61.979248 40.4733887,64.5593262 L25.9052734,64.5593262 L17.609375,62.8540039 Z" id="路径-36" fill="#E2EFFC"></path>
                <path d="M32.081543,51.276123 C32.081543,51.668453 31.7523222,54.2379258 33.4832481,56.8511466 C32.8129294,57.8069448 28.1352923,57.6615233 24.3532715,58.946228 C22.5408948,59.5618695 21.164288,60.0539633 20.2234511,60.4225092 C22.7872715,58.0497648 24.3335922,56.6712756 24.862793,56.2856445 C25.8974609,55.5316772 28.0275879,53.255127 28.0275879,52.7404785 C28.0275879,52.2258301 28.6113281,51.276123 28.9909668,51.276123 C29.3706055,51.276123 32.081543,50.8369141 32.081543,51.276123 Z" id="形状结合" fill="#F0F7FE"></path>
                <path d="M62.3933105,59.6108398 C54.5904134,56.6251628 49.7926432,54.4940592 48,53.2175293 C46.2073568,51.9409993 45.0484212,49.7569987 44.5231934,46.6655273 C44.134196,46.4501953 43.5330404,46.4501953 42.7197266,46.6655273 C41.4997559,46.9885254 36.5620117,48.954834 36.5620117,49.4919434 C36.5620117,50.0290527 37.7199707,55.609375 37.3325195,56.6977539 C36.9450684,57.7861328 36.6162109,59.6044922 35.3083496,60.348877 C34.4364421,60.8451335 31.615804,61.9838809 26.8464355,63.7651193 L34.4614258,63.7651193 L36.5620117,64.5593262 L48,62.8540039 L51.4538574,61.9396973 L52.2331543,64.1655273 L62.3933105,59.6108398 Z" id="路径-34" fill="#B6CCDA"></path>
                <path d="M47.9051595,53.7274197 L48.1918246,53.7813755 C50.7072047,55.8732637 55.1864566,57.7644945 61.7051261,59.4771795 C62.7627175,60.1409084 63.4435316,61.1240398 63.7420817,62.4102568 L63.8201733,62.8051981 L63.2281665,62.9028097 C63.0111502,61.5866216 62.3995898,60.6213867 61.4700195,60.0215923 C55.2404243,58.3985836 50.8055398,56.5698792 48.15811,54.5231451 L47.94,54.348 L37.568,57.802 L37.517786,58.0083234 C37.1782607,59.2101118 36.5698653,60.0483221 35.6922498,60.5023173 L35.4208882,60.6269688 L31.6432415,62.2098066 L28.4444699,63.5719045 L28.2088505,63.0201043 L34.8073993,60.2294721 C34.953024,60.1695378 35.0824934,60.1166427 35.195811,60.0707851 C36.0295156,59.7334003 36.6096903,59.005894 36.9358804,57.8614739 L37.0261175,57.5056136 L37.2240072,57.2866426 L47.9051595,53.7274197 Z" id="路径-47" fill="#9AB8C2" fill-rule="nonzero"></path>
                <path d="M45.7868652,44.5177002 C46.1896452,44.769165 46.5233855,44.8529867 46.7880859,44.769165 C47.1851366,44.6434326 49.7384912,43.0290527 49.7384912,42.5423584 C49.7384912,42.0556641 50.2939453,40.2752686 50.5823975,40.0965576 C50.7746989,39.977417 51.3242187,39.8023275 52.230957,39.5712891 C51.7670085,40.5168457 51.4782308,41.0503337 51.364624,41.1717529 C51.1942139,41.3538818 50.9807129,42.5323486 50.9807129,42.9423828 C50.9807129,43.352417 50.3609619,43.993042 49.7384912,44.5177002 C49.1160206,45.0423584 46.7513428,46.1460275 46.4906006,46.1460275 C46.3167725,46.1460275 45.9675293,46.1460275 45.4428711,46.1460275 L45.7868652,44.5177002 Z" id="路径-41" fill="#6E7F87"></path>
                <polygon id="路径-38" fill="#788795" points="44.6808472 47.7975464 44.619873 44.9702178 45.8543701 44.5186768 45.9887085 44.7930908 46.0203857 49.3271484"></polygon>
                <polygon id="路径-38" fill="#B1BECB" points="44.619873 47.3789062 44.619873 44.9702178 45.8398438 44.4645996 45.8398438 48.8038692"></polygon>
                <polygon id="路径-39" fill="#788795" points="48.1379395 47.0343628 46.2298584 43.9719238 48.9304199 42.0556641 53.0178223 47.3727417"></polygon>
                <polygon id="路径-39" fill="#B1BECB" points="48.3695531 46.6655273 46.2298584 43.9719238 48.9304199 42.0556641 52.625 46.9797363"></polygon>
                <path d="M59.4431152,39.1030273 C59.6605225,38.6899414 59.3287354,38.2977295 58.8862305,37.9595947 C58.4437256,37.62146 57.0042725,36.7047239 56.7286377,36.4213927 C56.4530029,36.1380615 54.6669922,35.8624268 54.4702148,36.6652832 C53.8969727,36.571167 53.1318359,36.6939144 53.1318359,37.6194792 C53.1318359,38.5450439 53.8081055,40.3864746 54.2601318,40.5556641 C54.7121582,40.7248535 55.3511963,40.5042725 55.3511963,40.1303711 C55.3511963,39.7564697 54.4702148,37.9111996 54.4702148,37.6194792 C54.4702148,37.3277588 54.7095947,37.2171631 55.0303955,37.2724609 C55.3511963,37.3277588 57.5916748,38.8546143 58.1304932,39.1030273 C58.6693115,39.3514404 59.225708,39.5161133 59.4431152,39.1030273 Z" id="路径-40" fill="#6E7F87"></path>
                <path d="M12.1928711,60.5563965 C15.9391276,61.4115397 18.1696777,61.8391113 18.8845215,61.8391113 C19.5993652,61.8391113 21.1443685,61.8391113 23.5195312,61.8391113 C23.0762533,62.2113444 23.2983805,62.4198405 24.1859131,62.4645996 C25.5172119,62.5317383 29.9785156,62.8476562 30.7041016,62.8476562 C31.1878255,62.8476562 32.7826335,62.7199707 35.4885254,62.4645996 C35.5809733,63.1184024 36.2618815,63.4453038 37.53125,63.4453038 C38.8006185,63.4453038 41.759847,62.9522211 46.4089355,61.9660557 C51.6034342,60.0565563 54.2006836,59.2193197 54.2006836,59.4543457 C54.2006836,59.8068848 53.3759766,61.9660557 53.3759766,61.9660557 C53.3759766,61.9660557 59.9519043,59.8354492 61.7180176,58.9494629 C63.4841309,58.0634766 65.4990234,58.0634766 65.4990234,58.0634766 C65.4990234,58.0634766 64.3583984,62.081543 65.1625977,62.4645996 C65.9667969,62.8476563 71.0208399,60.8806152 74.9592285,58.7172852 C78.8976172,56.5539551 82.9895935,54.2875671 83.4273376,53.8232117 C83.8650818,53.3588562 84.8037109,54.1940918 84.8037109,54.8232422 C84.8037109,55.2426758 84.9325358,56.3911947 85.1901855,58.2687988 C85.6773275,58.2687988 85.9208984,58.2687988 85.9208984,58.2687988 C85.9208984,58.2687988 86.0795898,58.7324219 86.3969727,59.659668 C87.7138217,61.5338542 88.3722462,62.5986328 88.3722462,62.8540039 C88.3722462,63.2370605 84.2956543,66.7299805 80.9020996,68.3269043 C77.5085449,69.9238281 69.6574707,70.5048828 67.7036133,70.2143555 C66.4010417,70.0206706 62.4567871,68.7929688 55.8708496,66.53125 L43.0532227,70.2143555 L28.4399414,69.5422363 L13.3903809,65.2264404 L11.2770996,60.2243652 L12.1928711,60.5563965 Z" id="路径-30" fill="#739BA4"></path>
                <path d="M12.0205078,60.9458008 C15.7667643,61.800944 17.9973145,62.2285156 18.7121582,62.2285156 C19.427002,62.2285156 20.9720052,62.2285156 23.347168,62.2285156 C22.90389,62.6007487 23.1260173,62.8092448 24.0135498,62.8540039 C25.3448486,62.9211426 29.8061523,63.2370605 30.5317383,63.2370605 C31.0154622,63.2370605 32.6102702,63.109375 35.3161621,62.8540039 C35.5585124,63.4614142 36.3143717,63.7651193 37.5837402,63.7651193 C38.8531087,63.7651193 41.7373861,63.2952329 46.2365723,62.35546 C51.431071,60.4459606 54.0283203,59.608724 54.0283203,59.84375 C54.0283203,60.1962891 53.2036133,62.35546 53.2036133,62.35546 C53.2036133,62.35546 59.779541,60.2248535 61.5456543,59.3388672 C63.3117676,58.4528809 65.3266602,58.4528809 65.3266602,58.4528809 C65.3266602,58.4528809 64.1860352,62.4709473 64.9902344,62.8540039 C65.7944336,63.2370605 70.6748926,61.5021973 74.6132813,59.3388672 C78.5516699,57.1755371 82.9807129,54.9008789 83.418457,54.4365234 C83.8562012,53.972168 84.7888184,54.3781738 84.7888184,55.0073242 C84.7888184,55.4267578 84.9176432,56.5752767 85.175293,58.4528809 C85.6624349,58.4528809 85.9060059,58.4528809 85.9060059,58.4528809 C85.9060059,58.4528809 86.0646973,58.9165039 86.3820801,59.84375 C87.7088575,61.5952148 88.3722462,62.5986328 88.3722462,62.8540039 C88.3722462,63.2370605 84.2956543,66.7299805 80.9020996,68.3269043 C77.5085449,69.9238281 69.6574707,70.5048828 67.7036133,70.2143555 C66.4010417,70.0206706 62.4567871,68.7929688 55.8708496,66.53125 L43.0532227,70.2143555 L28.4399414,69.5422363 L13.3903809,65.2264404 L11.1047363,60.6137695 L12.0205078,60.9458008 Z" id="路径-30" fill="#C8D3DD"></path>
                <path d="M86.3137207,59.3359375 C86.3137207,59.3359375 84.3730469,61.9193202 79.6013184,64.5593262 C79.0498861,65.3099772 78.0236816,66.9436035 76.5227051,69.4602051 C79.656606,68.7825928 82.4150048,67.5469971 84.7979013,65.753418 C87.1807979,63.9598389 88.5224154,62.795776 88.8227539,62.2612294 C87.1500651,60.3110348 86.3137207,59.3359375 86.3137207,59.3359375 Z" id="路径-43" fill="#A2BBC2"></path>
                <path d="M64.6836536,58.4908281 L41.0125122,68.8171387 L41.5367432,67.9456458 L53.1486318,62.4604025 C53.4283725,62.36599 59.8179348,60.2055929 61.5456543,59.3388672 C62.6938417,58.7628688 63.9471776,58.5613391 64.6836536,58.4908281 Z M52.9291079,60.0327289 L33.3417969,68.121582 L33.7631836,67.1993321 L44.2776725,62.7552446 C44.8925396,62.6330688 45.5455062,62.4998073 46.2365723,62.35546 C49.4800272,61.163165 51.7108724,60.3889213 52.9291079,60.0327289 Z M85.175293,58.4528809 L85.9060059,58.4528809 L85.9060059,58.4528809 C85.5880127,58.7862549 83.0306396,60.4956033 80.3413086,62.2612294 C78.5484212,63.4383134 76.398812,64.5646159 73.8924809,65.6401367 L74.0817871,64.7689209 L75.4650879,62.8540039 L74.6732178,61.2404785 C74.2789307,61.8021647 74.0817871,62.142415 74.0817871,62.2612294 C74.0817871,62.3800438 71.1403809,63.5717352 65.2575684,65.8363037 L63.7554932,66.53125 L64.7041818,62.0390464 C64.7140265,62.4524032 64.7945628,62.7608015 64.9902344,62.8540039 C65.0903753,62.9017031 65.2537221,62.9165621 65.4705854,62.901843 L65.2575684,64.5593262 C71.3185221,61.9417318 74.4570719,60.5696208 74.6732178,60.4429932 C74.8893636,60.3163656 75.3443197,60.9895833 76.0380859,62.4626465 C75.4651693,63.5054525 75.1787109,64.0268555 75.1787109,64.0268555 L75.2033154,64.015036 C75.369863,63.9338068 76.4069158,63.4099406 79.0698242,61.713623 C80.9245498,60.5321316 82.9195276,59.1513914 85.0547576,57.5714025 C85.0924932,57.8435844 85.1320813,58.1379787 85.175293,58.4528809 Z M34.7565942,62.9064684 L30.8757324,63.6005859 L22.1824951,66.0302734 L22.5159912,65.4150391 L29.5292758,63.1942117 C30.0041644,63.2205232 30.3657281,63.2370605 30.5317383,63.2370605 C30.9811168,63.2370605 32.3894021,63.1268632 34.7565942,62.9064684 Z M18.7546318,62.2284025 L23.347168,62.2285156 L23.347168,62.2285156 L23.3056318,62.2654025 L15.3226318,63.0630493 L18.7546318,62.2284025 Z" id="形状结合" fill="#F2F2F2"></path>
                <path d="M84.7888184,55.0073242 C84.7888184,55.4093195 84.9071539,56.4810356 85.143825,58.2224725 L85.3631592,58.0910645 C82.0311279,60.1280924 78.2706706,62.3540446 74.0817871,64.7689209 C74.8305664,62.4312744 74.6855469,61.7451172 74.4707031,61.5854492 C74.2558594,61.4257812 64.2032471,65.2264404 64.2032471,65.2264404 C64.2032471,65.2264404 64.3762817,63.9022144 64.7223511,61.2537622 L64.7442471,61.0811261 L64.7402656,61.1795951 C64.7389945,61.2301944 64.7388539,61.2794775 64.7398437,61.3274446 L64.7309213,61.4150997 C64.6643862,62.1244713 64.7048734,62.7180806 64.9902344,62.8540039 C65.7944336,63.2370605 70.6748926,61.5021973 74.6132813,59.3388672 C78.5516699,57.1755371 82.9807129,54.9008789 83.418457,54.4365234 C83.8562012,53.972168 84.7888184,54.3781738 84.7888184,55.0073242 Z" id="形状结合" fill="#D0DADE"></path>
                <path d="M49.5390625,67.1035156 C53.726888,65.7320964 56.3283691,64.9029948 57.3435059,64.6162109 C58.8662109,64.1860352 61.5456543,63.5234375 61.5456543,63.8547363 C61.5456543,64.1860352 60.7612305,66.604248 60.1755371,67.5366211 C59.7850749,68.1582031 59.4360352,69.1905111 59.128418,70.6335449 L57.3435059,69.0322266 C51.9180501,69.9919434 48.9656576,70.3160807 48.4863281,70.0046387 C48.0069987,69.6931966 48.3579102,68.7261556 49.5390625,67.1035156 Z" id="路径-28" fill="#A2BBC2"></path>
                <path d="M49.9636841,68.598877 C51.243042,67.6507568 56.041748,67.9133911 56.4894409,68.2759399 C56.7580566,68.4934692 57.0944141,68.8003833 57.3205215,69.0111099 L57.3435059,69.0322266 C51.9180501,69.9919434 48.9656576,70.3160807 48.4863281,70.0046387 C48.4508675,69.9815983 48.4199508,69.9549699 48.393578,69.9247534 C48.6946278,69.5937301 49.217766,69.1516698 49.9636841,68.598877 Z" id="形状结合" fill="#87A2AC"></path>
                <path d="M57.3435059,69.0322266 C56.8522949,69.6805013 56.4097493,70.0046387 56.0158691,70.0046387 C55.4250488,70.0046387 49.4858398,72 48,72 C47.0094401,72 43.3855794,72 37.128418,72 L36.1340332,71.1555176 L34.7746582,72 C23.1306152,70.6267904 15.3002116,68.0390625 11.2834473,64.2368164 C9.58276367,62.6030273 9.33219401,60.6750488 10.5317383,58.4528809 L12.3461914,61.2524414 C14.1158854,64.2281901 19.916097,66.62264 29.7468262,68.435791 C33.8239746,69.0437012 38.0838216,69.4240723 42.5263672,69.5769043 L49.5390625,67.1035156 C48.4375,68.8134766 48.0865885,69.7805176 48.4863281,70.0046387 C48.8860677,70.2287598 51.8384603,69.9046224 57.3435059,69.0322266 Z" id="路径-27" fill="#ABB8CA"></path>
                <path d="M57.3435059,69.0322266 C56.8522949,69.6805013 56.4097493,70.0046387 56.0158691,70.0046387 C55.4250488,70.0046387 49.4858398,72 48,72 L47.7589157,72.0005875 C47.688287,71.6593178 47.861574,71.012719 48.2787769,70.060791 C48.3128123,70.0176712 48.3514637,69.9722571 48.3947309,69.9245486 C48.4190822,69.9570704 48.4495235,69.9840035 48.4863281,70.0046387 C48.8860677,70.2287598 51.8384603,69.9046224 57.3435059,69.0322266 Z" id="形状结合" fill="#99A1B3"></path>
                <path d="M60.0893555,67.1993321 C65.8528646,69.0280326 69.328125,69.9423828 70.5151367,69.9423828 C72.2956543,69.9423828 76.3781738,69.5263105 78.5576172,69.048584 C80.7370605,68.5708575 87.1533203,64.2856445 88.354248,62.8540039 C88.5263672,63.0498047 87.4589844,66.6943359 85.3669434,68.3183594 C83.2749023,69.9423828 79.78125,72 75.1481934,72 C70.5151367,72 63.9511719,72 62.0202637,72 C60.7329915,72 59.769043,71.544515 59.128418,70.6335449 C59.1903047,70.0121534 59.2821423,69.4838331 59.4039307,69.048584 C59.525719,68.6133349 59.754194,67.9969176 60.0893555,67.1993321 Z" id="路径-29" fill="#ABB8CA"></path>
                <path d="M44.2298584,46.9797363 C44.7529607,50.3261786 45.3478452,52.6702778 46.0145119,54.012034 C43.7836362,53.6207579 40.8954982,53.1604885 37.3500977,52.6312256 L36.5821533,49.012246 L42.9925537,46.3544042 L44.2298584,46.9797363 Z" id="路径-48" fill="#9AB1C0"></path>
                <path d="M44.2298584,46.5040283 C44.3718669,49.8389486 44.7762044,52.1772868 45.4428711,53.519043 C43.2119954,53.1277669 40.5950521,52.696696 37.592041,52.2258301 L36.795166,48.8038692 L43.2055664,46.1460275 L44.2298584,46.5040283 Z" id="路径-48" fill="#CFE1ED"></path>
                <polygon id="路径-51" fill="#4B4848" fill-rule="nonzero" points="69.4979475 48.7410656 70.1946794 49.4583973 66.3647234 53.178368 65.6679915 52.4610363"></polygon>
                <polygon id="路径-51备份" fill="#4B4848" fill-rule="nonzero" points="70.6772688 50.0677868 71.3740007 50.7851184 67.5440447 54.5050891 66.8473128 53.7877575"></polygon>
                <polygon id="路径-51备份" fill="#4B4848" fill-rule="nonzero" points="71.719261 51.2750012 72.4159929 51.9923328 68.5860369 55.7123035 67.8893049 54.9949719"></polygon>
                <path d="M76.2708837,44.5443543 C75.9342221,44.7653766 75.6526101,44.7565104 75.4260476,44.5177557 C75.1994851,44.2790009 75.2100724,43.9936808 75.4578094,43.6617954 L81.3295455,38.347967 C81.4154909,38.6208198 81.4874162,38.8154073 81.5453214,38.9317294 C81.6032266,39.0480515 81.6920346,39.1763511 81.8117454,39.3166282 L76.2708837,44.5443543 Z" id="Path-3" fill="#8E9CA3" fill-rule="nonzero"></path>
            </g>
        </g>
    </g>
</svg>