<?xml version="1.0" encoding="UTF-8"?>
<svg width="96px" height="96px" viewBox="0 0 96 96" version="1.1" xmlns="http://www.w3.org/2000/svg" xmlns:xlink="http://www.w3.org/1999/xlink">
    <title>Jordan Apex-React </title>
    <defs>
        <rect id="path-1" x="0" y="0" width="96" height="96"></rect>
    </defs>
    <g id="icon" stroke="none" stroke-width="1" fill="none" fill-rule="evenodd">
        <g id="画板" transform="translate(-622.000000, -230.000000)">
            <g id="Jordan-Apex-React-" transform="translate(622.000000, 230.000000)">
                <g id="#" opacity="0">
                    <use fill="#FFFFFF" fill-rule="evenodd" xlink:href="#path-1"></use>
                    <rect stroke-opacity="0.5" stroke="#DDDDDD" stroke-width="6" stroke-linejoin="square" x="3" y="3" width="90" height="90"></rect>
                    <rect stroke-opacity="0.507785184" stroke="#DDDDDD" stroke-width="12" stroke-linejoin="square" x="6" y="6" width="84" height="84"></rect>
                    <rect stroke-opacity="0.319406703" stroke="#979797" stroke-width="10" stroke-linejoin="square" x="5" y="5" width="86" height="86"></rect>
                </g>
                <path d="M14.1794434,58.3969556 C14.9152832,57.8566024 15.7980957,57.5207113 16.8278809,57.3892822 C18.3725586,57.1921387 21.3686523,57.1308594 25.8179932,56.3662109 C30.267334,55.6015625 35.3319092,53.94104 35.8110352,53.8087158 C36.2901611,53.6763916 43.246582,59.2755127 43.7819824,60.9940186 C44.3173828,62.7125244 41.8254395,66.3289795 36.9980469,66.4016113 C32.1706543,66.4742432 23.0076904,68.3155518 19.2514648,64.8569336 C16.7473145,62.5511882 15.0566406,60.3978622 14.1794434,58.3969556 Z" id="路径-397" fill="#F3F0ED"></path>
                <path d="M18.7376709,57.5321045 C21.2130127,58.3342285 23.3000488,59.3812256 27.3282471,59.3011475 C31.3564453,59.2210693 34.9932861,59.8519287 36.449585,60.8051758 C37.4204508,61.4406738 38.9732666,60.9552379 41.1080322,59.3488679 C42.4307861,61.6446096 42.634196,63.1472982 41.7182617,63.8569336 C40.3443604,64.9213867 38.5360107,66.3482666 32.3624268,66.0618896 C26.1888428,65.7755127 21.9226074,65.3933749 21.0760498,65.1991289 C20.2294922,65.0048828 16.1791992,60.4246826 15.6229248,60.1751709 C15.3768083,60.0647776 15.0279118,59.7422832 14.5762355,59.2076876 C14.4284687,58.9345615 14.2966897,58.6643971 14.1794434,58.3969556 C14.9152832,57.8566024 15.7980957,57.5207113 16.8278809,57.3892822 C17.0823105,57.35681 17.376118,57.3280238 17.7093115,57.2991733 C18.0518594,57.3429485 18.3945972,57.4209329 18.7376709,57.5321045 Z" id="形状结合" fill="#E8E5DD"></path>
                <path d="M17.1064453,59.8962279 C19.7124023,61.4570313 23.9199219,62.5551758 29.342041,62.8720703 L31.1853189,62.9732525 C34.3521658,63.1365121 37.9925982,63.2728853 42.1066161,63.382372 C42.017752,63.5685488 41.887002,63.7261992 41.7182617,63.8569336 L41.1362132,64.2971241 C39.8365175,65.2339568 37.8711599,66.2302818 32.96538,66.0848934 L30.5093959,65.9702537 C25.3427692,65.6984604 21.8350325,65.3732805 21.0760498,65.1991289 C20.2294922,65.0048828 16.1791992,60.4246826 15.6229248,60.1751709 C15.3776654,60.0651621 15.0303409,59.744527 14.5809511,59.2132656 C14.4289001,58.9354458 14.2968816,58.6648348 14.1794434,58.3969556 C14.3990273,58.2357074 14.6316992,58.0926665 14.877459,57.967833 C15.1458168,58.5245365 15.889599,59.167414 17.1064453,59.8962279 Z" id="路径" fill="#D8D2C8"></path>
                <path d="M58.7696533,21.0350342 C59.642863,21.4044189 59.8427734,22.4049072 59.3693848,24.036499 C60.9163411,24.361613 62.211792,24.8064779 63.2557373,25.3710938 C64.8216553,26.2180176 66.5145264,27.7421875 66.4378662,29.8012695 C66.3612061,31.8603516 66.0523682,32.2481689 66.6126709,32.4171143 C67.1729736,32.5860596 71.6824951,33.3267822 73.1983643,33.3717041 C74.7142334,33.416626 75.515625,33.4702148 75.5081787,33.3717041 L75.5081716,33.2247339 C75.5175339,32.4240828 75.6395067,28.6502292 76.574707,28.3980713 C77.6101074,28.1188965 78.5770264,27.8713379 78.8554688,30.0290527 C79.1339111,32.1867676 79.5952148,35.1717529 79.4876709,36.0594482 C79.380127,36.9471436 78.9680176,37.9768066 79.0201416,38.4433594 C79.054891,38.7543945 79.1337484,39.320516 79.2567139,40.1417236 C79.4986572,40.2369385 79.652832,40.4110921 79.7192383,40.6641846 C79.8188477,41.0438232 80.1313477,42.6751709 80.0466309,43.4414063 C80.2646484,43.8642578 80.4915771,45.1467285 80.661377,45.2539063 C80.8311768,45.361084 81.1428223,45.3348389 81.3397217,45.7947998 C81.5366211,46.2547607 82.7648926,50.2462158 82.6508789,50.7768555 C82.5368652,51.3074951 81.9125977,51.3239746 81.6489258,51.5146484 C81.3852539,51.7053223 81.5247803,51.9276123 81.6489258,52.1636353 C81.7730713,52.3996582 82.4520264,54.5993652 82.6508789,56.1098633 C82.8497314,57.6203613 82.9060059,60.0749193 83.0344238,60.3810876 C81.9259033,60.2564697 79.6877441,60.0280762 77.479248,61.00354 C75.270752,61.9790039 70.8043213,63.3865967 67.9926758,63.2095947 C65.1810303,63.0325928 57.4868164,64.4494629 55.1064453,65.0181885 C52.7260742,65.5869141 50.3015137,66.1646729 47.6539307,65.3686523 C45.8888753,64.837972 43.9463094,64.3787028 41.8262329,63.9908447 C40.752299,61.9310303 39.6187541,60.3538005 38.4255981,59.2591553 C36.6358643,57.6171875 35.2258301,56.1271973 34.8893433,55.8425903 C34.5528564,55.5579834 34.4354248,54.7162476 34.8893433,54.2680054 C35.3432617,53.8197632 35.6211548,53.5253296 35.6832886,53.3546143 C35.7454224,53.1838989 35.9615479,52.522583 36.3305664,52.291748 C36.699585,52.0609131 37.1098633,52.2894897 37.3283081,52.1636353 C37.5467529,52.0377808 38.9627686,51.5184326 39.1937256,51.3449707 C39.4246826,51.1715088 40.5855713,49.9324951 40.8409424,49.9488525 C41.0963135,49.96521 41.7195435,49.9748535 41.7750244,49.604126 C41.8305054,49.2333984 43.137085,48.7635498 43.4129639,48.7331543 C43.6888428,48.7027588 44.0526123,48.2598877 44.5311279,48.1207275 C45.0096436,47.9815674 45.6027832,47.4758301 45.8209229,47.0698242 C46.0390625,46.6638184 46.6917725,46.776001 46.9196777,46.7054443 C47.147583,46.6348877 47.7904053,46.12854 48,45.4335938 C48.2095947,44.7386475 48.5401611,44.3525391 49.361084,43.8435059 C50.1820068,43.3344727 51.4223633,42.4648438 51.7016602,42.1121826 C51.980957,41.7595215 52.4851074,40.2198486 52.8354492,39.8051758 C53.185791,39.3905029 53.270874,38.932251 53.1036377,38.7353516 C52.9364014,38.5384521 53.0970459,36.2824707 53.2858887,35.7561035 C53.4747314,35.2297363 53.6503906,35.1459961 53.7631836,35.0172119 C53.8759766,34.8884277 54.3674316,34.192627 54.2860107,32.4171143 C54.2045898,30.6416016 54.6663818,26.8776855 55.6342773,24.4561768 C56.6021729,22.034668 57.4598389,20.480957 58.7696533,21.0350342 Z M76.4529419,29.9093628 C76.3175659,30.7306925 76.256897,31.864034 76.2709351,33.3093872 C77.190979,33.2681274 77.6860758,33.2681274 77.7562256,33.3093872 C77.8614502,33.3712769 77.8408203,33.7071533 77.9343262,33.7672119 C78.027832,33.8272705 78.3771973,33.9667969 78.5123291,34.1443481 C78.602417,34.2627157 78.7057088,34.4758504 78.8222046,34.7837524 C78.8265991,33.3008016 78.7664185,32.2319946 78.6416626,31.5773315 C78.4545288,30.5953369 78.2293091,28.8011475 77.671875,28.7446899 C77.1144409,28.6882324 76.6560059,28.6773682 76.4529419,29.9093628 Z M57.3122559,22.2244263 C56.6434326,23.5089722 55.8346558,25.5375366 55.5955811,26.3632813 C55.3565063,27.1890259 54.6952515,30.6404419 54.6909473,31.4528809 C54.7218115,31.2974854 54.8223267,31.2007853 54.9924927,31.1627808 C54.9061076,30.6377157 54.9758911,30.321167 55.2018433,30.2131348 C55.1504517,29.8652344 55.357666,29.1645508 55.6413574,29.1622925 C55.5426636,28.5484009 55.6445312,28.2249146 55.8391724,28.111084 C55.7890625,27.8233032 55.9336548,27.3063354 56.184021,27.2614136 C56.0300293,26.9498291 56.2374268,26.4249878 56.4425659,26.3632813 C56.3719482,26.0912476 56.486084,25.567688 56.8529663,25.5026855 C56.9666138,25.3230591 57.3978271,24.6308594 57.4539795,24.4884644 C57.5101318,24.3460693 57.5856323,23.8198242 58.0477295,23.7927246 C58.3557943,23.7746582 58.5687256,23.7746582 58.6865234,23.7927246 C58.8297217,22.93986 58.8718384,22.4170939 58.8128735,22.2244263 C58.7244263,21.9354248 57.9810791,20.9398804 57.3122559,22.2244263 Z" id="形状结合" fill="#D8D4C4"></path>
                <path d="M62.8671875,43.7114258 L72.5804187,47.5402914 C73.5888813,47.9406978 74.5988069,48.3450475 75.6352539,48.765625 C77.7453184,49.6218634 79.8379611,50.4956921 81.913182,51.3871111 C81.8091428,51.4277906 81.7170121,51.4654119 81.6489258,51.5146484 C81.3852539,51.7053223 81.5247803,51.9276123 81.6489258,52.1636353 L81.7257207,52.3564859 C81.9455908,52.9739941 82.47854,54.800765 82.6508789,56.1098633 C82.8497314,57.6203613 82.9060059,60.0749193 83.0344238,60.3810876 L82.5335162,60.3288053 C81.3295882,60.2169667 79.393278,60.158138 77.479248,61.00354 C75.4006635,61.9216237 71.3219708,63.2224928 68.5052298,63.2247918 L67.9926758,63.2095947 C65.3032757,63.0402885 58.1466487,64.3292698 55.4462257,64.9393977 L55.1064453,65.0181885 C54.1644594,65.2432507 53.2155533,65.4697275 52.2486442,65.6119225 L51.7826374,65.6027598 C51.0279293,65.5679408 50.8211332,65.433913 51.1606708,65.1991289 L50.0252617,64.6884018 C47.8383649,63.6757104 46.9819625,63.0779163 47.4560547,62.8950195 L48.6652718,62.4190542 C62.4944601,56.8630763 66.5473904,51.2153049 57.234375,47.0444336 C56.0883898,46.5311995 59.9662154,42.5576125 62.8671875,43.7114258 Z" id="路径" fill="#C9C3AB"></path>
                <path d="M80.3329802,50.713155 L81.5242481,51.2203363 L81.5242481,51.2203363 L81.5306663,51.6567394 L81.5306663,51.6567394 C81.4878695,51.7302784 81.4942228,51.8111204 81.5215128,51.894895 C81.5137874,52.1138896 81.4936601,52.3049308 81.4634233,52.4708252 C81.3729877,52.9670003 80.6293797,53.586337 79.2325994,54.3288352 L67.8385889,58.438124 L67.8385889,58.438124 L66.4181463,58.9348366 C63.9472876,59.7818315 54.5101207,64.0353338 53.5148181,64.0619673 C52.9342248,64.0775036 52.516061,63.2530893 52.2603266,61.5887247 L52.1707785,60.9124002 L52.9886638,60.5271322 L52.9886638,60.5271322 L80.3329802,50.713155 Z" id="路径" fill="#ADA68C"></path>
                <path d="M78.8554688,30.0290527 L79.2629785,33.0911843 C79.4286709,34.3971953 79.5481644,35.5601196 79.4876709,36.0594482 C79.380127,36.9471436 78.9680176,37.9768066 79.0201416,38.4433594 L79.0874657,38.9717032 C79.1278072,39.2667817 79.1820415,39.6422054 79.2501686,40.0979744 C79.121961,40.096091 79.0339203,40.0508219 78.9840772,39.9659424 C78.680714,38.8797119 78.6443805,38.0702002 78.6892527,36.8392197 L78.7352295,35.8260498 C78.7630739,35.2660958 78.7538717,34.8509125 78.7228616,34.5345208 L78.8222046,34.7837524 L78.8222046,34.7837524 L78.8155676,33.8564732 C78.7993639,32.9905486 78.7544601,32.3086879 78.6808562,31.8108912 L78.4650749,30.5961905 C78.2987123,29.7119415 78.0700422,28.7850167 77.671875,28.7446899 C77.1144409,28.6882324 76.6560059,28.6773682 76.4529419,29.9093628 C76.3190402,30.7217481 76.2582272,31.8393865 76.270503,33.2622779 C76.0300217,33.3203528 75.7565285,33.3341881 75.5070573,33.3114579 L75.5168398,32.8434189 C75.5560352,31.6074854 75.7463867,28.6214111 76.574707,28.3980713 L76.8826527,28.317641 C77.7966064,28.0934375 78.6048706,28.0871094 78.8554688,30.0290527 Z M58.7696533,21.0350342 C59.6362588,21.4016253 59.8397111,22.3898099 59.38001,23.999588 C59.0118146,23.9393304 58.6915031,23.8656571 58.416748,23.7801514 L58.6196967,23.7851969 C58.6446149,23.7872043 58.6668905,23.7897135 58.6865234,23.7927246 L58.7749693,23.2149696 C58.8444624,22.6991081 58.8570972,22.368927 58.8128735,22.2244263 C58.7244263,21.9354248 57.9810791,20.9398804 57.3122559,22.2244263 C56.6434326,23.5089722 55.8346558,25.5375366 55.5955811,26.3632813 L55.4704189,26.8625784 C55.1809835,28.1212881 54.6946366,30.7565046 54.6909473,31.4528809 C54.7118664,31.3475572 54.7647819,31.2691973 54.8496938,31.2178011 L54.680718,33.4123494 C54.6101857,34.2631541 54.498208,34.3806995 54.3579712,34.6565552 C54.2489165,34.8710734 54.0080107,35.103536 53.6352539,35.3539429 C53.7618636,35.1301948 53.6826172,35.1092006 53.7631836,35.0172119 L53.8615112,34.8650513 C54.0198822,34.6283532 54.298522,34.0571507 54.2950363,32.7812419 L54.2860107,32.4171143 C54.2045898,30.6416016 54.6663818,26.8776855 55.6342773,24.4561768 L55.9219015,23.756998 C56.7782275,21.7450037 57.5908203,20.5363647 58.7696533,21.0350342 Z" id="形状" fill="#85352A"></path>
                <path d="M57.8918475,23.8245598 L58.0477295,23.7927246 L58.8270461,23.9074214 C58.9945868,23.9342262 59.1789046,23.9651192 59.3769237,24.0004658 L59.3693848,24.036499 C60.9163411,24.361613 62.211792,24.8064779 63.2557373,25.3710938 C64.8216553,26.2180176 66.5145264,27.7421875 66.4378662,29.8012695 C66.3824269,31.2903635 66.2055599,31.9053956 66.3238068,32.1956911 L65.5774252,34.9188121 C65.4218155,35.4958945 65.2986079,35.9772489 65.2434082,36.2668457 C65.0178746,37.4500732 59.0782639,40.6323809 57.0918883,42.9146898 L56.8879395,43.1644287 C55.2543316,45.3146591 52.3304059,46.3758054 49.1629231,47.9398926 L48.5264893,48.2598877 C45.1181641,50.0073242 41.3479004,50.6209717 42.0856934,50.1594238 L46.9859596,47.3055518 C47.7279937,46.8661401 48.2796047,46.5270359 48.3751221,46.4332275 C48.6889648,46.125 49.1655273,44.5285645 50.3552246,43.6778564 C51.5449219,42.8271484 52.7159424,41.6335449 52.9821777,41.4260254 C53.2242099,41.2373713 53.6529289,40.2663574 53.6455561,39.4747805 L53.6296387,39.2436523 C53.5187378,38.4229736 54.06427,35.4691772 54.088562,35.3797607 C54.112854,35.2903442 54.454071,34.961731 54.4647522,34.8893127 L54.4832668,34.7136726 C54.4986169,34.5914746 54.5279724,34.4326965 54.5932312,34.3047791 C54.5254211,34.2001953 54.4993286,33.7356873 54.7969971,33.3548279 C54.5164795,33.2070313 54.5831299,32.894928 54.7969971,32.6273193 C54.588501,32.473175 54.6613159,32.0556946 54.7969971,31.8891296 C54.7160075,31.8562195 54.6771856,31.756571 54.6805315,31.5901843 L54.6909473,31.4528809 C54.7218115,31.2974854 54.8223267,31.2007853 54.9924927,31.1627808 C54.9061076,30.6377157 54.9758911,30.321167 55.2018433,30.2131348 C55.1504517,29.8652344 55.357666,29.1645508 55.6413574,29.1622925 C55.5426636,28.5484009 55.6445312,28.2249146 55.8391724,28.111084 C55.7890625,27.8233032 55.9336548,27.3063354 56.184021,27.2614136 C56.0300293,26.9498291 56.2374268,26.4249878 56.4425659,26.3632813 C56.3719482,26.0912476 56.486084,25.567688 56.8529663,25.5026855 L57.3301518,24.7203848 C57.3912752,24.614715 57.437936,24.5291486 57.4539795,24.4884644 L57.5171627,24.2878158 C57.5747263,24.117954 57.6753222,23.9051118 57.8918475,23.8245598 Z" id="路径" fill="#DFD7D5"></path>
                <path d="M56.900449,33.1851866 C56.9112495,30.4924435 58.2629395,25.3637695 62.3469238,26.2739258 C66.2900812,27.1526973 67.0089194,29.9363459 65.9917754,31.7963234 L65.8762207,31.9919434 C65.3235212,32.8605449 64.0457029,35.7425301 62.5522189,38.6717831 L60.538912,40.0819233 C59.1726714,41.0499567 57.8467937,42.0473174 57.0918883,42.9146898 L56.8879395,43.1644287 C55.9989253,44.3345903 54.7277748,45.1822123 53.2431937,45.9638803 C52.6419144,45.5890889 52.444142,44.9853223 52.9510742,44.225692 L53.0926629,44.0325796 C54.6652832,42.0617676 56.8896484,35.8779297 56.900449,33.1851866 Z" id="路径" fill="#C9C2BC"></path>
                <path d="M53.9978815,44.0031091 C54.2895939,44.3753945 54.8754772,44.6048724 55.3365043,44.6747289 L54.8977699,44.9870909 L54.8977699,44.9870909 C54.4278557,44.8567222 53.9602973,44.603675 53.6830267,44.2498205 C53.3023712,43.7640254 52.4079455,43.0537522 51.6931318,42.5961737 L52.0039224,42.3207896 L52.0039224,42.3207896 C52.7468011,42.8060928 53.6047146,43.501347 53.9978815,44.0031091 Z M52.5866764,41.7830698 L53.4117455,42.3167141 L55.0436594,43.3881244 L55.5130391,43.7109105 C55.7214183,43.8591263 55.8905924,43.9887203 56.0217345,44.1048397 C55.9231834,44.1981099 55.8202798,44.2878144 55.7147247,44.3756439 L55.5856062,44.2724007 C55.438333,44.1583066 55.2542136,44.0205594 55.0419846,43.8719649 L52.2816175,42.0665404 L52.5866764,41.7830698 L52.5866764,41.7830698 Z M56.183205,43.0177819 L56.4089373,43.1827148 C56.5021936,43.2549166 56.6036455,43.3208467 56.7088595,43.3801566 L56.8879395,43.1644287 C56.7488733,43.347474 56.6004565,43.5226268 56.4433348,43.6908694 L56.3349461,43.6215678 L56.3349461,43.6215678 L56.1640607,43.4989985 C55.5074326,42.9906168 53.4924142,41.8160169 52.8343995,41.5448064 L52.9821777,41.4260254 L52.9821777,41.4260254 C53.0277605,41.3904955 53.0799649,41.3272158 53.1346307,41.2426111 C53.8566888,41.5742169 55.4121858,42.4785557 56.183205,43.0177819 L56.183205,43.0177819 Z M54.5427157,40.8583474 L56.2231166,41.8719519 L57.1404875,42.4616582 C57.2209978,42.5153907 57.2977108,42.5673382 57.37065,42.6175978 C57.2677132,42.7192376 57.1762366,42.8177751 57.0918883,42.9146898 L56.6363542,42.6097612 L56.6363542,42.6097612 L55.4110978,41.8418774 L54.3381436,41.2020774 L54.3381436,41.2020774 C53.9993546,41.0004458 53.6930106,40.8696095 53.3609069,40.7904105 C53.4096501,40.6763542 53.455566,40.5477744 53.4957817,40.4136588 C53.8474752,40.498593 54.1783109,40.6414706 54.5427157,40.8583474 Z M53.9116658,37.6961582 L56.7749365,38.8855068 L57.5760991,39.2366955 C57.7288572,39.3065565 57.8663689,39.371747 57.9918454,39.4338341 L58.3421194,39.6177523 C58.4421609,39.6744338 58.5255291,39.7266261 58.592353,39.7747346 C58.7753277,39.9064634 58.8799656,40.0316603 58.8358771,40.1769244 L58.7910138,40.2667036 C58.773425,40.2922209 58.7597224,40.3224635 58.7471096,40.3660958 L58.7069302,40.5626843 C58.6534219,40.8835635 58.6019346,41.0233696 58.4205336,41.1443241 C58.2024485,41.2897388 57.8764305,41.2798786 57.3841324,41.1232665 L56.4199413,40.8040552 L53.6196534,39.8538101 L53.6396475,39.6623951 L53.6396475,39.6623951 L53.6431318,39.4373782 L54.7171511,39.7978995 L54.7171511,39.7978995 L57.505394,40.7420899 C57.892635,40.8652807 58.1082232,40.8718011 58.1986275,40.8115214 C58.2385743,40.7848856 58.2628951,40.7393046 58.2873268,40.6296182 L58.3152271,40.4798228 C58.3513504,40.2639074 58.3817395,40.1556568 58.4616718,40.0396929 C58.4160962,40.1058129 58.4063158,40.1245896 58.3852363,40.1161397 L58.3586464,40.0993593 C58.2467402,40.0187948 58.0634177,39.9155376 57.8144502,39.7923462 L57.406738,39.5990958 L56.9062888,39.377033 L56.9062888,39.377033 L53.6795599,38.0244091 L53.7283049,37.6163008 L53.7283049,37.6163008 L53.9116658,37.6961582 L53.9116658,37.6961582 Z M54.3422888,35.058718 L57.4933313,36.1805824 L57.8844535,36.3336618 C57.9166412,36.3472619 57.9453337,36.3598318 57.9707927,36.3714777 L58.125773,36.4534844 L59.242387,37.1352689 L59.3219601,37.1868011 C59.72003,37.446488 59.995808,37.6524707 60.1323893,37.8060552 C60.4410039,38.1530897 60.175307,38.3875859 59.6975786,38.3130903 L58.8409601,38.170663 L58.0479076,38.0237061 C56.7367734,37.7686279 55.5190382,37.4697844 54.999192,37.2319555 L54.6427681,37.0560311 L53.8696832,36.6359837 L53.9376488,36.2178875 L53.9376488,36.2178875 L54.636377,36.5984576 C54.8380131,36.7090542 55.0035803,36.7940896 55.1656029,36.8682147 C55.7498423,37.1355033 57.3599052,37.503261 58.9197996,37.7782405 L59.636,37.896 L59.3104841,37.6598349 L58.6583923,37.2415922 L57.8767859,36.771523 L57.7593356,36.7145785 C57.6468391,36.6660564 57.4641424,36.5956796 57.2004008,36.4990287 L54.088562,35.3797607 L54.088562,35.3797607 C54.1034971,35.3247862 54.238229,35.1793958 54.3422888,35.058718 Z M54.63371,33.1851866 L55.128863,33.2824249 C55.4816773,33.3545571 55.7610904,33.4231707 55.9984381,33.501277 L59.3017458,34.6755894 L60.0030137,34.9417713 C60.2986866,35.0633667 60.2500228,35.0860624 60.2242937,35.2363792 C60.1646351,35.5849216 57.7861018,35.5299444 56.7117409,35.2342738 L56.4274434,35.1522133 L54.5188011,34.5143685 C54.5362837,34.4424322 54.5601422,34.3696386 54.5932312,34.3047791 C54.5715697,34.2713704 54.5541652,34.2012333 54.5502117,34.1088272 L56.2423007,34.6755277 C56.4511221,34.7426504 56.6409336,34.799916 56.8178774,34.848612 C57.1639981,34.9438665 57.7835318,35.0073534 58.3711151,35.0528625 L59.446,35.126 L59.1797867,35.0469161 L56.2882965,34.0360158 L56.0732179,33.9539579 C55.8685547,33.8713558 55.6226918,33.8006252 55.3029297,33.7286951 L54.6517469,33.5970669 C54.6880593,33.5153562 54.7356532,33.4333158 54.7969971,33.3548279 C54.7137061,33.3109443 54.6610218,33.2525753 54.63371,33.1851866 Z M55.1171405,31.7161225 L55.3903999,31.7464061 C56.7093746,31.8726925 59.1560969,32.6733613 61.3511636,33.7888022 L61.8087433,34.0319081 C62.1409168,34.2184604 62.3516791,34.3659503 62.4518773,34.4820864 C62.5738362,34.6234445 62.5946364,34.8041275 62.4287494,34.9140144 C62.3426941,34.9710192 62.2290302,34.984843 62.0696946,34.9770354 C61.6450477,34.9562273 60.8219819,34.7531177 60.007064,34.4767099 L58.3561764,33.8861614 L57.565806,33.6146445 C56.3076628,33.1916667 55.3588257,32.9216357 54.9233162,32.8824853 C54.8335608,32.8744167 54.7402264,32.8744432 54.6475256,32.8813147 C54.6777575,32.7988347 54.7301959,32.7109065 54.7969971,32.6273193 C54.7479067,32.5910261 54.7144113,32.5401344 54.6936595,32.4813566 C54.7857423,32.4745228 54.8735173,32.4763956 54.95913,32.4840918 C55.5699826,32.5390047 57.0137311,32.9819365 58.8978542,33.6531458 L59.7972894,33.978562 C60.460512,34.2219236 61.1730865,34.4251459 61.6717129,34.5205528 L61.912,34.56 C61.7731216,34.4703703 61.6045206,34.3732573 61.3941796,34.2617032 L61.1699546,34.1454019 C59.170204,33.1292124 56.9578018,32.3793808 55.6399996,32.1805568 L55.3522759,32.1445851 C55.1115027,32.1215321 54.8975146,32.0916571 54.7105062,32.0537954 C54.7340094,31.9863342 54.7635986,31.9301302 54.7969971,31.8891296 C54.7362549,31.864447 54.699232,31.8022241 54.6859285,31.7024609 L54.6825364,31.6421467 L54.9561079,31.693441 C55.0070359,31.7013323 55.0606858,31.7088934 55.1171405,31.7161225 Z M55.2085845,29.9049684 L55.8635649,29.9378737 L56.176678,29.9635702 C56.2255653,29.9689485 56.2748558,29.9750488 56.3276279,29.9821322 C56.5303024,30.0093364 56.7157914,30.0467468 56.8861835,30.0970442 L57.1966214,30.2088767 L61.7609772,32.0135612 L62.5501697,32.3424829 C63.2116897,32.6272295 63.5038978,32.7869545 63.5501439,32.8891903 C63.6497717,33.109437 63.6792339,33.4142805 63.5503043,33.6306121 C63.357797,33.9536212 62.9221336,33.9832346 62.2573259,33.7173115 L61.9099807,33.5721764 L59.3557235,32.4209915 L58.5738964,32.0844898 C57.7234691,31.7294598 57.0877379,31.5064988 56.6533751,31.4221725 L55.1015199,31.2178148 C55.0267963,31.2094839 54.9574682,31.2022492 54.8932154,31.1960852 L54.9924927,31.1627808 C54.9700671,31.0264735 54.958166,30.9042188 54.9567896,30.7960164 L56.526472,30.9973061 C57.061134,31.0605159 57.8960233,31.3547989 59.101562,31.8737513 L61.8579297,33.1128464 L62.4058821,33.3459209 L62.4058821,33.3459209 C62.9103543,33.5477097 63.1435066,33.5318617 63.2066994,33.4258301 C63.2541953,33.3461365 63.2369074,33.1672599 63.185696,33.054047 L61.4483742,32.3215888 L58.90617,31.309528 L56.979031,30.5526168 L56.979031,30.5526168 C56.7805393,30.4712742 56.5471623,30.4151867 56.2744147,30.3785769 L55.9915943,30.3477547 L55.0880325,30.2994833 C55.1200993,30.2628626 55.1580362,30.2340798 55.2018433,30.2131348 C55.1890881,30.1267872 55.1922633,30.0187077 55.2085845,29.9049684 Z M56.7665903,28.7559424 C57.0653625,28.7727288 57.4429835,28.8685355 57.9602045,29.0501049 L58.6320654,29.3032091 L60.6440313,30.104658 L61.2425171,30.3286281 C61.7131814,30.4991867 62.144191,30.6791769 62.6205303,30.900408 L63.8910079,31.5217613 C64.7279602,31.9375054 65.2613955,32.1751838 65.9064672,32.3993376 C66.0352556,32.4440898 66.1473302,32.477526 66.2428689,32.5013213 L66.1385263,32.887457 C66.028591,32.8600887 65.9077456,32.8232431 65.7751734,32.7771761 C65.2214994,32.5847818 64.7494385,32.3834997 64.115092,32.0771709 L62.9394476,31.4959201 C62.4322992,31.2479889 61.9991451,31.0517137 61.5559257,30.8754552 L60.5007302,30.4781084 L58.1471347,29.5438519 C57.4928835,29.2981269 57.0500975,29.1725019 56.7441519,29.1553125 C56.2030362,29.1249102 55.7028103,29.1775494 55.4925421,29.2301995 C55.5417635,29.1857074 55.590323,29.1626987 55.6413574,29.1622925 C55.6200252,29.0296024 55.6080629,28.9104797 55.6043823,28.8041091 C55.9072625,28.7551556 56.3245621,28.7311072 56.7665903,28.7559424 Z M58.5062851,28.2764486 C58.9457252,28.4303297 59.3833037,28.6003508 59.8361031,28.7913275 L60.5288531,29.0941114 C60.9632827,29.2901617 62.9884866,30.2668669 63.444559,30.4560747 C63.670725,30.5499026 63.9335025,30.6456102 64.2422708,30.7481113 L66.3206896,31.3968495 L66.2882627,31.7811042 L66.2882627,31.7811042 C66.2599168,31.7813492 66.2238915,31.7752134 66.1846796,31.7658045 L64.446204,31.2344731 C63.9821051,31.087835 63.6054929,30.9558966 63.2912808,30.8255415 L62.8996183,30.6510169 C62.1365725,30.3006743 60.7122572,29.6157233 60.3643186,29.4587048 C59.6657874,29.1434702 59.021299,28.8806094 58.374086,28.6539713 C57.252286,28.2611445 56.5597459,28.1524625 55.8891988,28.1862401 L55.7418117,28.1957319 C55.7706755,28.1600802 55.803353,28.132032 55.8391724,28.111084 C55.8231818,28.0192504 55.827018,27.9040785 55.8477911,27.7883551 L56.1411501,27.7805295 C56.7832642,27.7839231 57.4813481,27.9175408 58.5062851,28.2764486 Z M57.0646491,27.0101391 C58.1468786,27.0631154 59.647756,27.5563556 61.2591739,28.3107274 L61.808203,28.5762799 L64.5238122,29.9793793 L64.8483097,30.1330037 C64.8916599,30.1521225 64.9298985,30.1681081 64.9634081,30.1811246 C65.378848,30.3424989 66.1016463,30.4389464 66.4065911,30.4459131 L66.3752613,30.8193971 L66.3752613,30.8193971 C65.9241461,30.8476593 65.2844971,30.7349667 64.8185744,30.5539828 L64.5398835,30.4316471 L64.133301,30.2309044 L64.133301,30.2309044 L62.2659221,29.2569601 C61.9215802,29.0793715 61.6206065,28.9279525 61.3502306,28.7971423 L61.089581,28.6729956 C59.5216576,27.9389854 58.0625292,27.4594653 57.0450921,27.4096607 L56.0262376,27.3621349 C56.072226,27.3085709 56.1252048,27.2719666 56.184021,27.2614136 C56.1430831,27.1785804 56.1276858,27.0806756 56.1309969,26.9804073 L56.5334062,26.9879495 C56.6885494,26.9929412 56.8651648,27.0003741 57.0646491,27.0101391 Z M58.6911342,26.3290797 L59.2141576,26.5247166 C60.1086756,26.8788969 61.412269,27.4690775 61.9659927,27.7922212 L62.1212045,27.8893554 C62.7386449,28.3160106 64.6103767,29.1561448 65.3831169,29.315011 L65.5648485,29.3406248 C65.8756782,29.3551992 66.1882064,29.4906098 66.4370077,29.6761312 L66.4378662,29.8012695 L66.4198802,30.1891598 C66.2700863,30.0248768 66.0039504,29.8351178 65.7210989,29.766118 L65.5461135,29.7401858 C64.9098248,29.7103509 62.9841812,28.8801498 62.1056829,28.3536609 L61.8938101,28.2184326 C61.4336618,27.9004673 59.4036642,26.9958676 58.5615513,26.7075084 C58.1240072,26.557683 57.3429923,26.5185765 56.2307132,26.5969027 C56.2859417,26.4775081 56.3644177,26.3867885 56.4425659,26.3632813 C56.4291149,26.3114653 56.422367,26.2505237 56.4227921,26.1853636 L56.5599976,26.1523132 C57.7585478,26.0638541 58.1801744,26.1541151 58.6911342,26.3290797 Z" id="形状" fill="#B9B19A"></path>
                <path d="M58.0477295,23.7927246 L58.8270461,23.9074214 L59.3769237,24.0004658 L59.3769237,24.0004658 L59.3693848,24.036499 C60.9163411,24.361613 62.211792,24.8064779 63.2557373,25.3710938 C64.8216553,26.2180176 66.5145264,27.7421875 66.4378662,29.8012695 C66.3824269,31.2903635 66.2055599,31.9053956 66.3238068,32.1956911 L65.7528091,34.2747246 L64.4364014,34.4177856 C64.536034,34.122172 64.6395073,33.682939 64.7468212,33.1000864 L64.8774414,32.3317261 C65.1092529,30.8664551 65.1503906,29.5493164 64.3117676,28.3051758 C63.4731445,27.0610352 59.4654541,25.6032715 58.7201538,25.5101929 C58.3226603,25.4605509 57.8260214,25.4397502 57.2302371,25.4477905 L56.8808091,25.4567246 L57.3301518,24.7203848 L57.4283285,24.5431916 C57.4398819,24.5205741 57.4486316,24.5020258 57.4539795,24.4884644 L57.5171627,24.2878158 C57.5747263,24.117954 57.6753222,23.9051118 57.8918475,23.8245598 L58.0477295,23.7927246 Z" id="路径" fill="#908A88"></path>
                <path d="M56.1364136,28.0577393 C56.038147,28.0878296 55.7713013,28.2584229 55.7418823,28.3873291 C55.7222697,28.4732666 55.7878011,28.65861 55.9384766,28.9433594 C55.9096273,29.1746419 55.8162842,29.3040365 55.6584473,29.331543 C55.4216919,29.3728027 55.3786389,29.8856812 55.4925421,29.9884033 C55.6064453,30.0911255 55.5263672,30.0877313 55.3637085,30.1891598 C55.2010498,30.2905884 55.1907349,30.7997437 55.3637085,30.9772339 C55.0687866,31.215271 54.881958,31.432853 54.9884644,31.6421467 C54.9528198,31.9389038 54.9291992,32.3084717 54.9884644,32.4157715 C55.0477295,32.5230713 54.7319946,32.7672119 54.7797241,33.0335083 C54.8010578,33.1525347 54.7947862,33.2506184 54.7609093,33.3277594 L54.7969971,33.3548279 C54.5164795,33.2070313 54.5831299,32.894928 54.7969971,32.6273193 C54.588501,32.473175 54.6613159,32.0556946 54.7969971,31.8891296 C54.7160075,31.8562195 54.6771856,31.756571 54.6805315,31.5901843 L54.6909473,31.4528809 C54.7218115,31.2974854 54.8223267,31.2007853 54.9924927,31.1627808 C54.9061076,30.6377157 54.9758911,30.321167 55.2018433,30.2131348 C55.1504517,29.8652344 55.357666,29.1645508 55.6413574,29.1622925 C55.5426636,28.5484009 55.6445312,28.2249146 55.8391724,28.111084 C55.8066125,27.9240928 55.856256,27.6403387 55.9637069,27.4521932 L56.0982741,27.8072204 C56.1460785,27.9348506 56.1778116,28.0450627 56.1364136,28.0577393 Z M57.8918475,23.8245598 L57.9187679,23.8183359 L58.0379639,23.6943359 C57.8125814,23.9147949 57.6819865,24.1138509 57.6461792,24.2915039 C57.5924683,24.5579834 57.307215,25.2996948 57.2302371,25.4477905 C56.8338013,25.4755859 56.6531372,25.7860718 56.6389771,25.8905029 C56.6295369,25.9601237 56.620537,26.0604045 56.7648091,26.4165649 C56.4755573,26.4636152 56.2982167,26.5237277 56.2327874,26.5969027 C56.1673582,26.6700776 56.2353109,26.8720296 56.4366455,27.2027588 L56.152618,27.2963209 C56.115708,27.3098906 56.0840118,27.3224482 56.0575296,27.3339939 C56.0958231,27.2937237 56.1381464,27.2696446 56.184021,27.2614136 C56.0300293,26.9498291 56.2374268,26.4249878 56.4425659,26.3632813 C56.3719482,26.0912476 56.486084,25.567688 56.8529663,25.5026855 L57.3301518,24.7203848 L57.4283285,24.5431916 C57.4398819,24.5205741 57.4486316,24.5020258 57.4539795,24.4884644 L57.5171627,24.2878158 C57.5747263,24.117954 57.6753222,23.9051118 57.8918475,23.8245598 Z" id="形状" fill="#603333"></path>
                <path d="M59.6742487,30.7462459 L59.8303223,30.7529297 L60.4937266,30.8569509 C61.5464287,31.0364689 63.3580855,31.3919369 64.5215862,31.7461038 L64.8217773,31.8425293 C65.4004473,32.039779 65.9157271,32.1815686 66.3676169,32.2678982 C66.4140262,32.3355648 66.4937831,32.3812666 66.6126709,32.4171143 C67.1449585,32.5776123 71.241416,33.2541394 72.9493994,33.3599058 L74.6249995,33.4182364 C75.2110379,33.4353482 75.512761,33.4323261 75.5081787,33.3717041 L75.4950622,33.3559752 L76.4981689,33.350708 L76.4981689,33.350708 L76.6293842,33.2921175 L76.6293842,33.2921175 L77.4294,33.2787395 C77.6171511,33.2815167 77.7260372,33.2916314 77.7562256,33.3093872 C77.8614502,33.3712769 77.8408203,33.7071533 77.9343262,33.7672119 L78.2774248,33.9521909 C78.3699463,34.0083911 78.4582764,34.0733276 78.5123291,34.1443481 C78.5700258,34.2201566 78.6331385,34.3348362 78.7016671,34.488387 L78.7365127,34.9807393 C78.7681885,35.5410874 78.7716781,36.0237535 78.7809448,36.1298828 C78.7996826,36.3444824 78.4796143,38.3502197 78.5203857,38.7454834 C78.5475667,39.0089925 78.7212728,39.5529378 79.0415039,40.3773193 C78.0273062,40.1015486 77.118998,39.8260038 76.3165791,39.550685 L75.7346191,39.3442383 C74.329355,38.8282273 63.1485596,34.2692871 61.6467473,33.9899902 C60.1449351,33.7106934 58.1654053,41.5400941 58.5318604,41.8728027 C58.8983154,42.2055114 58.8865967,43.7124023 59.5391846,45.8022461 C59.213501,47.8106689 56.8901367,48.3063965 56.1098633,48.324585 L55.2661798,48.2967667 C54.0886206,48.2773346 52.1078246,48.4558778 50.3270894,50.4143866 L50.0477295,50.7386475 C47.6435547,53.6811028 46.1400146,52.8527832 45.4675293,52.7320557 C45.1569824,52.3457031 44.4221191,50.7071533 44.3406982,50.1374512 L44.2803841,49.700758 C44.2284393,49.2596741 44.2244568,48.8204956 44.4741211,48.5189209 C44.8070068,48.1168213 47.057251,47.4256592 47.5095215,46.7474365 C47.961792,46.0692139 49.0432129,45.8790283 49.571167,45.8022461 C50.0991211,45.7254639 50.1971436,45.1356201 50.4727783,44.5008545 C50.7484131,43.8660889 52.1695557,44.1223145 53.6699219,44.0396729 C55.1702881,43.9570313 55.8731689,43.6209717 56.2950439,42.8352051 C56.7169189,42.0494385 56.1884766,40.6630859 56.1098633,39.2885742 C56.03125,37.9140625 56.614624,34.6072998 57.0822754,33.0557861 C57.51875,31.6077067 58.8999208,30.7730843 59.6742487,30.7462459 L59.6742487,30.7462459 Z" id="路径" fill="#EAE6DB"></path>
                <path d="M72.9493994,33.3599058 L74.6249995,33.4182364 L75.1631876,33.4270175 C75.3942561,33.4249817 75.5110427,33.4095928 75.5081787,33.3717041 L75.4950622,33.3559752 L76.4981689,33.350708 L76.6293842,33.2921175 L77.4294,33.2787395 L77.6518988,33.2884464 C77.7063628,33.2935417 77.7411314,33.3005093 77.7562256,33.3093872 C77.848895,33.3638923 77.8439516,33.6309017 77.9053224,33.7348673 L78.454834,33.6748047 L77.3838614,33.7668213 C76.2064555,33.8594212 75.2812672,33.9003865 74.6082966,33.8897172 C73.3975676,33.8705222 67.9410414,32.889702 66.9841492,32.5041948 L67.6643982,32.632028 C69.1350521,32.8940724 71.6907548,33.2819646 72.9493994,33.3599058 Z" id="路径" fill="#B1AC9E"></path>
                <path d="M64.4177246,33.651123 C65.965642,33.6030961 73.5403695,34.9254128 76.0957031,35.1779785 C77.1005416,35.2772954 77.9817819,35.2198362 78.739424,35.0056009 L78.7809448,36.1298828 L78.7809448,36.1298828 C78.7996826,36.3444824 78.4796143,38.3502197 78.5203857,38.7454834 C78.5475667,39.0089925 78.7212728,39.5529378 79.0415039,40.3773193 C78.0273062,40.1015486 77.118998,39.8260038 76.3165791,39.550685 L75.7346191,39.3442383 L74.0912735,38.7022187 C71.585665,37.708972 67.013038,35.8777916 64.1166071,34.8100114 C63.7301663,34.2193953 63.6083208,33.6762363 64.4177246,33.651123 Z" id="路径" fill="#CDC6B6"></path>
                <path d="M57.5780175,32.1142714 C58.2133019,31.4825575 59.4709618,31.8874037 60.5634835,32.3570349 L63.0107802,33.451458 C64.3370174,34.0321607 66.072376,34.770908 67.2271748,35.1958363 L70.1891331,36.2472873 C72.2347997,36.9843963 74.7243284,37.9038996 75.6171875,38.3013139 L78.6723013,39.7767907 C78.7350515,39.8083382 78.8981934,39.8095398 79.0758057,39.9201965 C79.253418,40.0308533 79.2600848,40.6871773 79.3264911,40.9402698 C79.4261005,41.3199084 79.7386005,42.9512561 79.6538837,43.7174914 C79.8719012,44.140343 80.0988299,45.4228137 80.2686298,45.5299914 C80.4384296,45.6371692 80.7500751,45.610924 80.9469745,46.070885 C81.1438739,46.5308459 82.3721454,50.522301 82.2581317,51.0529407 C82.144118,51.5835803 81.5198505,51.6000598 81.2561786,51.7907336 C80.9925067,51.9814074 81.1320331,52.2036975 81.2561786,52.4397204 L81.3329735,52.6325711 C81.5528436,53.2500793 82.0857928,55.0768502 82.2581317,56.3859485 L82.3352614,57.082199 C82.4629538,58.431583 82.521545,60.091101 82.6152344,60.5600586 C81.4869403,60.4312135 80.4273158,60.3476699 79.4379413,60.3074573 C77.5968768,60.2326282 73.8972919,61.9446643 71.2765643,62.7243274 C68.6558368,63.5039905 66.5825946,63.0920032 64.6630389,63.0695422 C64.6784885,62.2479709 65.5087931,60.2512701 66.9517813,58.188768 L67.2484882,57.775719 C68.8738544,55.5716174 70.1659686,51.2652209 69.2012469,50.366051 C68.2365253,49.4668811 66.6332538,49.3326037 65.4052264,49.116051 C64.1771991,48.8994983 61.1427753,47.3964465 60.0541522,46.6548694 C59.0562478,45.9750903 58.874619,45.0824723 58.7865881,44.1389269 L58.7643573,43.8804553 C58.6863718,42.9166317 58.4879752,42.2117342 57.4285215,41.9214567 L57.16841,41.8619006 C55.8800799,41.6189807 56.1164696,40.4294569 55.8495019,39.3737928 C55.5825341,38.3181288 56.3048241,35.9976942 56.5088036,35.1421034 C56.7127831,34.2865126 56.7309716,32.9565565 57.5780175,32.1142714 Z" id="路径" fill="#9B9276"></path>
                <path d="M57.6300049,32.4448242 C58.4770508,31.6025391 60.430542,32.6030273 61.6237793,33.1428223 C62.8170166,33.6826172 66.0645752,35.1123047 67.6412354,35.6557617 C69.2178955,36.1992188 74.8199463,38.2084961 75.8459473,38.7139893 C76.8719482,39.2194824 78.8193359,40.1405029 78.8224289,40.1601563 C78.8239754,40.1699829 79.0231228,40.1322021 79.2483423,40.0848846 L79.2567139,40.1417236 L79.2567139,40.1417236 C79.4986572,40.2369385 79.652832,40.4110921 79.7192383,40.6641846 C79.8188477,41.0438232 80.1313477,42.6751709 80.0466309,43.4414063 C80.2646484,43.8642578 80.4915771,45.1467285 80.661377,45.2539063 C80.8311768,45.361084 81.1428223,45.3348389 81.3397217,45.7947998 C81.5366211,46.2547607 82.7648926,50.2462158 82.6508789,50.7768555 C82.5368652,51.3074951 81.9125977,51.3239746 81.6489258,51.5146484 C81.3852539,51.7053223 81.5247803,51.9276123 81.6489258,52.1636353 C81.7730713,52.3996582 82.4520264,54.5993652 82.6508789,56.1098633 C82.8356461,57.5133677 82.8973183,59.7319269 83.0081446,60.2847881 C81.8778497,60.1549835 80.819205,60.0715498 79.8306885,60.0313721 C77.989624,59.956543 74.2900391,61.6685791 71.6693115,62.4482422 C69.048584,63.2279053 66.9753418,62.815918 65.0557861,62.793457 C65.0722656,61.9171143 66.0158691,59.7037354 67.6412354,57.4996338 C69.2666016,55.2955322 70.5587158,50.9891357 69.5939941,50.0899658 C68.6292725,49.1907959 67.026001,49.0565186 65.7979736,48.8399658 C64.5699463,48.6234131 61.5355225,47.1203613 60.4468994,46.3787842 C59.3582764,45.637207 59.2410889,44.642334 59.1571045,43.6043701 C59.0731201,42.5664063 58.8494873,41.8287354 57.5611572,41.5858154 C56.2728271,41.3428955 56.168457,40.7600098 55.9014893,39.7043457 C55.6345215,38.6486816 56.3568115,36.3282471 56.560791,35.4726563 C56.7647705,34.6170654 56.782959,33.2871094 57.6300049,32.4448242 Z" id="形状结合" fill="#E0DBCB"></path>
                <path d="M71.9646064,38.4527222 L71.8642578,38.3917236 C70.8624315,37.8532933 77.6577148,40.4558586 78.5402832,40.9233398 C79.4228516,41.3908211 79.4702148,43.5740967 79.7346191,44.1489073 C79.8147417,44.3230923 80.0146646,44.5558434 80.3343879,44.8471605 L80.5404383,45.0306679 C80.5830892,45.1482325 80.6236437,45.230089 80.661377,45.2539063 C80.744675,45.306484 80.8621089,45.3269529 80.9833861,45.3884645 L81.179911,45.5434846 L81.179911,45.5434846 C81.2196071,45.5833839 81.2565661,45.6331066 81.2906854,45.6942706 L81.3397217,45.7947998 C81.3760075,45.8795643 81.4473203,46.0842634 81.5388041,46.3651349 L69.8864014,51.8494855 C69.9822132,51.030245 69.9065495,50.3812834 69.5939941,50.0899658 C69.4735466,49.9777026 69.3431454,49.8773625 69.2047635,49.7872969 C69.9754861,49.149667 71.0014371,47.9402854 72.2774658,46.1637671 C74.9328495,42.4668772 73.0000363,39.1508025 71.9646064,38.4527222 L71.9646064,38.4527222 Z" id="路径" fill="#D7D2C1"></path>
                <path d="M70.1303711,37.3881836 C66.4413645,36.4881476 64.1662483,36.8010618 63.3050224,38.3269261 C62.4437965,39.8527905 62.389717,42.0479824 63.1427838,44.9125019 C61.8096512,45.1090181 60.5978897,45.2397103 59.5074993,45.3045786 C59.3127103,44.8828166 59.2360674,44.4276113 59.1886127,43.9585029 L59.1571045,43.6043701 C59.079119,42.6405465 58.8807224,41.935649 57.8212687,41.6453716 L57.5611572,41.5858154 C56.2728271,41.3428955 56.168457,40.7600098 55.9014893,39.7043457 C55.7235107,39.0005697 55.9852024,37.7346734 56.2398772,36.7154315 L56.5657248,35.4499084 L56.9312629,34.5156804 C57.312951,33.5859012 57.6411538,33.0313827 58.1965332,32.9963379 C59.2128092,32.9322103 63.1907552,34.3961589 70.1303711,37.3881836 Z" id="路径" fill="#D9D3C2"></path>
                <path d="M80.0466309,43.4414063 C80.2646484,43.8642578 80.4915771,45.1467285 80.661377,45.2539063 C80.8311768,45.361084 81.1428223,45.3348389 81.3397217,45.7947998 C81.5366211,46.2547607 82.7648926,50.2462158 82.6508789,50.7768555 C82.5368652,51.3074951 81.9125977,51.3239746 81.6489258,51.5146484 C81.3852539,51.7053223 81.5247803,51.9276123 81.6489258,52.1636353 L81.7257207,52.3564859 C81.9455908,52.9739941 82.47854,54.800765 82.6508789,56.1098633 L82.7280086,56.8061138 C82.855701,58.1554978 82.9142922,59.8150158 83.0079816,60.2839734 C81.8796875,60.1551283 80.820063,60.0715847 79.8306885,60.0313721 C77.989624,59.956543 74.2900391,61.6685791 71.6693115,62.4482422 C69.048584,63.2279053 66.9753418,62.815918 65.0557861,62.793457 C65.0712357,61.9718857 65.9015403,59.9751849 67.3445285,57.9126829 L67.6412354,57.4996338 C69.2666016,55.2955322 70.5587158,50.9891357 69.5939941,50.0899658 C69.1849521,49.7087178 68.6611142,49.4649791 68.0997568,49.2941743 C68.1698639,49.1456554 68.2165702,49.0224668 68.2369549,48.9269093 L68.2484574,48.8406475 C68.2832983,47.7744295 70.4450365,46.801236 72.3247252,46.0977256 L77.6152438,44.2113334 C78.6154279,43.8623706 79.5272897,43.5573226 80.053267,43.4185053 L80.0466309,43.4414063 L80.0466309,43.4414063 Z" id="路径" fill="#CDC6AF"></path>
                <path d="M81.4634233,50.3074456 C81.5127518,50.8234881 81.5351739,51.2726029 81.5306894,51.6547901 C81.4881229,51.729151 81.4940385,51.8095732 81.5208693,51.8929081 C81.5139093,52.1127315 81.4937518,52.3044281 81.4634233,52.4708252 C81.3729877,52.9670003 80.6293797,53.586337 79.2325994,54.3288352 L67.7588133,58.4663357 C67.3652947,58.6054387 67.0266601,58.724241 66.7429096,58.8227424 C66.9299227,58.5231107 67.1304852,58.2186207 67.3445285,57.9126829 L67.6412354,57.4996338 C68.1928024,56.7516733 68.7059927,55.7616167 69.1056352,54.7447696 L81.4634233,50.3074456 Z" id="路径" fill="#BAB39B"></path>
                <path d="M44.406189,51.6727295 C44.5403801,53.0157902 45.949009,56.8949667 46.778015,58.9349285 L46.9262085,59.2947998 C47.4562955,60.5632049 48.6396664,62.7985071 50.4763211,66.0007064 C49.4344051,66.0485376 48.364368,65.956166 47.255188,65.6226807 C45.4901326,65.0920003 43.5475667,64.6327311 41.4274902,64.244873 C40.3535563,62.1850586 39.2200114,60.6078288 38.0268555,59.5131836 L37.3748589,58.9066271 C35.9013872,57.5175524 34.7850266,56.3456497 34.4906006,56.0966187 C34.1541138,55.8120117 34.0366821,54.9702759 34.4906006,54.5220337 L34.8356386,54.1747917 C35.0857021,53.9156432 35.2401646,53.7305821 35.2845459,53.6086426 L35.3754901,53.363651 C35.482661,53.0951737 35.668239,52.7106585 35.9318237,52.5457764 C36.3008423,52.3149414 36.7111206,52.5435181 36.9295654,52.4176636 L37.2264664,52.2835791 C37.7188291,52.0780685 38.6153497,51.7339138 38.7949829,51.598999 C39.0259399,51.4255371 40.1868286,50.1865234 40.4421997,50.2028809 L40.6880827,50.2080517 C40.9737015,50.2002869 41.334671,50.1362 41.3762817,49.8581543 C41.4254517,49.529597 42.4572835,49.1231862 42.883427,49.0138207 C43.6155568,49.5157543 44.1849004,50.483355 44.3619986,51.3779675 L44.406189,51.6727295 Z" id="路径" fill="#9C9584"></path>
                <path d="M44.7607413,51.1239392 L44.8049316,51.4187012 C44.9391228,52.7617618 46.3477517,56.6409384 47.1767577,58.6809002 L47.3249512,59.0407715 C47.8550382,60.3091766 49.0384091,62.5444788 50.8750638,65.746678 C49.8331478,65.7945093 48.7631107,65.7021377 47.6539307,65.3686523 C45.8888753,64.837972 43.9463094,64.3787028 41.8262329,63.9908447 C40.752299,61.9310303 39.6187541,60.3538005 38.4255981,59.2591553 L37.7736015,58.6525987 C36.3001299,57.2635241 35.1837692,56.0916214 34.8893433,55.8425903 C34.5528564,55.5579834 34.4354248,54.7162476 34.8893433,54.2680054 L35.2343812,53.9207634 C35.4844448,53.6616149 35.6389073,53.4765538 35.6832886,53.3546143 L35.7742327,53.1096227 C35.8814037,52.8411454 36.0669817,52.4566302 36.3305664,52.291748 C36.699585,52.0609131 37.1098633,52.2894897 37.3283081,52.1636353 L37.6252091,52.0295508 C38.1175718,51.8240402 39.0140923,51.4798855 39.1937256,51.3449707 C39.4246826,51.1715088 40.5855713,49.9324951 40.8409424,49.9488525 L41.0868254,49.9540234 C41.3724442,49.9462585 41.7334137,49.8821716 41.7750244,49.604126 C41.8241944,49.2755687 42.8560261,48.8691578 43.2821697,48.7597924 C44.0142995,49.261726 44.5836431,50.2293267 44.7607413,51.1239392 L44.7607413,51.1239392 Z" id="路径" fill="#E6E1D5"></path>
                <path d="M40.3945312,57.7929688 C42.3674388,58.1669449 44.901028,58.3300399 47.0426273,58.3412658 L47.3249512,59.0407715 C47.8550382,60.3091766 49.0384091,62.5444788 50.8750638,65.746678 C49.8331478,65.7945093 48.7631107,65.7021377 47.6539307,65.3686523 C45.8888753,64.837972 43.9463094,64.3787028 41.8262329,63.9908447 C40.752299,61.9310303 39.6187541,60.3538005 38.4255981,59.2591553 L37.7736015,58.6525987 L36.3358847,57.2629488 C35.6674928,56.6030404 35.1753403,56.1016782 34.9497384,55.8959733 C36.6014671,56.6199693 38.8502139,57.5002344 40.3945312,57.7929688 Z" id="路径" fill="#E1DACB"></path>
                <path d="M82.7652456,57.22556 L82.9361482,59.6540591 C82.9663396,60.0256844 82.9973802,60.2927698 83.0344238,60.3810876 L82.5335162,60.3288053 C81.3295882,60.2169667 79.393278,60.158138 77.479248,61.00354 C75.4006635,61.9216237 71.3219708,63.2224928 68.5052298,63.2247918 L67.9926758,63.2095947 C67.1968973,63.159498 66.0099974,63.2370794 64.6631518,63.386973 C64.7936389,63.2149101 64.8882287,63.0304922 64.9455566,62.8364258 C65.8461914,59.7875977 68.1821353,59.3566895 69.8400911,59.9377441 C71.4980469,60.5187988 74.8076172,56.7597656 78.1618652,56.4555664 C80.0198038,56.2870686 81.5542639,56.5437331 82.7652456,57.22556 Z" id="路径" fill="#C2BBA3"></path>
                <path d="M58.5555305,41.9767284 L59.4703369,42.291626 C61.8461941,43.1208133 63.8751772,43.7887893 64.765625,44.3769531 C67.0615845,45.8934937 68.5560913,48.2110596 68.303772,48.8297119 C68.0798449,49.3787504 65.2758051,49.0038408 62.8851318,47.8756714 L62.4217357,47.6380849 L62.0126359,47.4198945 C61.5295282,47.1392788 60.6241729,46.4794603 60.2105134,46.2035677 C59.4274929,45.5562276 59.2634564,44.7449983 59.1819518,43.8906021 L59.1571045,43.6043701 C59.1126271,43.0546729 58.8157422,42.3290972 58.5555305,41.9767284 Z" id="路径" fill="#B3A88E"></path>
                <path d="M58.7689064,42.2370126 L58.5354004,42.1595459 C61.5349121,43.1636963 63.5664063,43.9901123 64.6298828,44.6387939 C66.2250977,45.6118164 68.3060303,48.0079346 68.0537109,48.6265869 C67.8304195,49.1740669 64.8359054,48.6254091 62.4485343,47.5037008 C62.1313696,47.3451771 61.8249169,47.1851357 61.5431328,47.0313316 L61.5556641,47.0383301 C61.0820454,46.7632262 60.6418001,46.4903919 60.2349282,46.2198273 C59.3421961,45.4991325 59.2352697,44.5704144 59.1571045,43.6043701 C59.1126348,43.0547682 59.0290118,42.5893596 58.7689064,42.2370126 Z" id="形状结合" fill="#D0C8B5"></path>
                <path d="M86,66 C85.0826823,68.7871094 82.4969076,70.5589193 78.2426758,71.3154297 C77.836263,71.3782552 77.4847005,71.3782552 77.1879883,71.3154297 C75.7478841,71.7698568 74.6852214,71.9980469 74,72 C72.972168,72.0029297 66.3135986,72 65.2584229,72 C64.2032471,72 63.3461914,71.1982422 62.9150391,71.1479492 C62.4838867,71.0976562 57.7595215,70.8251953 55.1912842,70.8251953 C52.6230469,70.8251953 47.7694092,71.4177246 46.5974121,71.555542 C45.425415,71.6933594 44.4501953,72 42.8669434,72 C41.2836914,72 35.8266602,72 33.739624,72 C31.6525879,72 22.5509033,70.8106689 18.2023926,68.5823975 C13.8538818,66.354126 12.0044923,65.447876 12.0044923,62 C12.0044923,59.8580322 13.1556396,58.460083 14.1794434,58.3969556 C14.8468018,58.8016357 17.0810547,60.4909668 18.2023926,61.5196533 C18.9499512,62.2054443 19.8747559,63.2055257 20.9768066,64.5198975 C21.6818848,64.3346761 22.5005697,64.269165 23.4328613,64.3233643 C24.8312988,64.4046631 26.0424805,64.5500488 28.321167,64.3894043 C30.5998535,64.2287598 33.2579346,63.6292725 35.5333252,64.5247803 C37.8087158,65.4202881 39.9779053,64.0750732 40.541626,63.6929932 C41.1053467,63.3109131 41.9268799,62.298584 45.9737549,63.5084229 C50.0206299,64.7182617 50.9650879,65.4624023 57.3428955,63.5507812 C63.7207031,61.6391602 67.3612061,62.0454102 68.5419922,62.192627 C69.7227783,62.3398437 71.2548828,62.34375 74.8271484,60.8415527 C78.3994141,59.3393555 81.4086914,59.0706787 82.8657227,59.9853516 C83.4315088,60.3977898 84.4979692,61.6772481 85.5959473,63.758667 C85.9353027,64.4019775 86.069987,65.1490885 86,66 Z" id="路径-396" fill="#F0F1ED"></path>
                <path d="M84.3173828,61.8066406 L84.5447209,61.9753858 C84.8807987,62.4824343 85.2366858,63.077621 85.5959473,63.758667 C85.9353027,64.4019775 86.069987,65.1490885 86,66 C85.0826823,68.7871094 82.4969076,70.5589193 78.2426758,71.3154297 C77.836263,71.3782552 77.4847005,71.3782552 77.1879883,71.3154297 C75.7478841,71.7698568 74.6852214,71.9980469 74,72 L65.2584229,72 C64.2032471,72 63.3461914,71.1982422 62.9150391,71.1479492 L61.2916802,71.0419198 C59.5738797,70.9462891 56.9034424,70.8251953 55.1912842,70.8251953 C52.6230469,70.8251953 47.7694092,71.4177246 46.5974121,71.555542 C45.425415,71.6933594 44.4501953,72 42.8669434,72 L33.739624,72 C31.6525879,72 22.5509033,70.8106689 18.2023926,68.5823975 L16.4321597,67.6665385 C13.3465047,66.0298242 12.0044923,64.9370795 12.0044923,62 L12.0096408,61.7631836 C12.9223152,61.4114154 14.0047135,61.7977388 15.2568359,62.9221538 C18.1655273,65.5341797 20.5341797,68.9555664 24.6928711,69.1445313 C28.7255415,69.3277699 27.3183589,67.7706081 25.5873875,67.393613 L25.4243164,67.3618164 C23.6235352,67.0520469 23.8579102,66.5024414 27.7631836,66.5361328 C31.668457,66.5698242 35.3999319,67.5789185 37.4951172,67.456543 C39.5903024,67.3341675 41.8364784,65.0380552 45.2087665,66.0991057 C48.4035658,67.1043115 51.5850408,66.5874967 53.4011136,65.8706174 L54.3547045,65.4666044 C56.5275007,64.5674605 61.0068794,62.9222751 63.3050224,62.656 L64.0749505,62.5848183 C66.8544912,62.3782378 69.2010498,62.9389869 72.2280273,62.0300293 C75.2550049,61.1210717 81.4425049,57.7718506 84.3173828,61.8066406 Z" id="路径" fill="#E5E5E5"></path>
                <path d="M28.2299107,70.5722656 C33.2568336,71.1603841 42.730773,70.5415783 47.2932129,69.5668945 C54.6574707,67.9936523 56.1223145,68.682373 58.9428711,68.0703125 C61.4470338,67.5269094 63.7451172,66.8076172 68.0961914,65.0625 C72.4472656,63.3173828 79.7409668,60.7802734 83.0246582,62.2236328 C86.3083496,63.6669922 85.2973633,66.5297852 84.542983,68.4300586 C83.188508,69.8486244 81.0890323,70.8092752 78.2426758,71.3154297 C77.836263,71.3782552 77.4847005,71.3782552 77.1879883,71.3154297 C75.7478841,71.7698568 74.6852214,71.9980469 74,72 L65.2584229,72 C64.2032471,72 63.3461914,71.1982422 62.9150391,71.1479492 L61.2916802,71.0419198 L59.8545685,70.9677124 C58.2985535,70.8933105 56.4754028,70.8251953 55.1912842,70.8251953 C52.6230469,70.8251953 47.7694092,71.4177246 46.5974121,71.555542 C45.425415,71.6933594 44.4501953,72 42.8669434,72 L33.739624,72 C31.6525879,72 22.5509033,70.8106689 18.2023926,68.5823975 L16.4321597,67.6665385 C15.070915,66.9444977 14.0490103,66.3283219 13.3319637,65.6129628 C19.9504994,68.5305172 24.9155747,70.1845091 28.2299107,70.5722656 Z" id="路径" fill="#DADADA"></path>
                <path d="M14.1794434,58.3969556 L14.5535736,58.6433706 C15.4624472,59.2708192 17.2412458,60.637922 18.2023926,61.5196533 C18.9499512,62.2054443 19.8747559,63.2055257 20.9768066,64.5198975 C21.6818848,64.3346761 22.5005697,64.269165 23.4328613,64.3233643 L24.8153528,64.4123173 C25.7573649,64.4675836 26.8020426,64.4965007 28.321167,64.3894043 C30.4370902,64.2402344 32.8801444,63.7126745 35.0401617,64.3550636 L35.5333252,64.5247803 C37.6889584,65.3731561 39.7492754,64.2104678 40.4394942,63.7608584 L40.9881997,63.3762051 C41.5991987,62.9900343 42.7134973,62.6058505 45.5372244,63.3829961 L45.9737549,63.5084229 C49.5006866,64.5628214 50.6711875,65.2635003 55.135594,64.1607252 C51.7283432,65.4536217 49.8383529,65.1496306 48.7739258,64.9541016 C47.5671387,64.7324219 42.9916992,63.2115479 41.9922695,63.6618652 L41.5423402,63.8826981 C40.331268,64.5045815 38.09021,65.7702179 36.8913574,65.5272217 L36.1116876,65.3777618 C34.6699863,65.1169298 32.5941976,64.8271484 31.0418701,64.9541016 L29.267391,65.0906525 C27.451078,65.2193599 25.3079102,65.330518 24.4453125,65.1991289 L23.7193716,65.1010977 C22.6047535,64.9688518 21.3202209,64.9004653 21.3769531,65.1991289 C21.4467773,65.5667147 23.0830078,67.6346436 23.668335,68.0192871 C24.0585531,68.2757161 25.1547445,68.1485596 26.9569092,67.6378174 C25.1903076,68.4512126 23.9738363,68.7145996 23.3074951,68.4279785 C22.3079834,67.9980469 20.8001709,65.3184814 20.1502686,64.4547119 C19.5003662,63.5909424 17.4521484,61.7172852 15.4356689,60.3810876 C13.5909636,59.1587142 13.0740182,59.9337928 12.4109299,59.9693912 C12.8359432,59.0087169 13.5330724,58.4368106 14.1794434,58.3969556 Z" id="路径" fill="#FFFFFF"></path>
                <path d="M85.3424072,64.5308838 C84.6341602,65.3454255 84.2179411,65.9445872 84.09375,66.3283691 C83.787549,67.2746076 83.7963639,68.258655 84.0341797,68.7585449 C84.0537643,68.7997118 84.0867587,68.8221791 84.1290826,68.8310348 C82.7810099,70.0278311 80.8174108,70.8575764 78.2426758,71.3154297 C77.836263,71.3782552 77.4847005,71.3782552 77.1879883,71.3154297 C75.7478841,71.7698568 74.6852214,71.9980469 74,72 L65.2584229,72 C64.2032471,72 63.3461914,71.1982422 62.9150391,71.1479492 L61.145366,71.03384 C60.314892,70.9883456 59.2863742,70.9381458 58.2573285,70.8983889 L54.4019165,70.8385925 C53.7970119,70.413334 53.9452154,70.1862731 54.8465271,70.1574097 C56.1984946,70.1141146 58.476201,70.4355786 58.5042419,70.4256592 C59.0140458,70.2453177 58.5594738,69.929984 58.0754561,69.7376736 L57.9284381,69.6816937 C58.0542366,69.7125861 59.8579532,70.2846608 60.5852051,70.6590576 C61.4094238,71.083374 62.1544189,70.8071289 62.3405762,70.7822266 C62.464681,70.765625 62.1038223,70.3363444 61.258,69.4943848 L61.9193826,69.9126126 C62.4263488,70.2443781 62.8228502,70.5342494 63.1088867,70.7822266 C63.7095634,71.3029785 64.7982178,71.3763428 65.3360596,71.2543945 C65.8739014,71.1324463 64.7094727,70.3956299 64.916626,69.4943848 C65.0547282,68.8935547 65.6488333,68.487915 66.6989413,68.2774658 C65.8974498,68.5122477 65.4431559,68.9178874 65.3360596,69.4943848 C65.175415,70.3591309 65.4890137,70.4316406 66.2690987,71.0467529 C67.0491838,71.6618652 68.1787109,71.3901367 68.5421143,71.4663086 C68.7843831,71.5170898 68.2402344,70.928304 66.909668,69.6999512 C67.8645833,70.3819987 68.7031949,70.9001465 69.4255028,71.2543945 C70.5089645,71.7857666 71.0450439,71.479248 71.4490967,71.4663086 C71.8531494,71.4533691 70.5994873,70.376709 70.3737793,69.9447021 C70.2233073,69.6566976 70.4206543,68.8656006 70.9658203,67.5714111 C70.7484538,68.3921305 70.6855876,69.1016439 70.7772217,69.6999512 C70.9146729,70.5974121 72.5223389,71.2493896 73.0634766,71.2543945 L73.3765801,71.2492625 C73.9535319,71.2284682 74.7271525,71.1488851 74.5140381,71.0467529 C74.3435465,70.9650472 73.632487,70.1975505 72.3808594,68.7442627 L73.4475294,69.5692681 C74.0913273,70.0570249 74.6004942,70.4202881 74.9750302,70.6590576 C75.8177363,71.1962891 76.7001953,71.4423828 77.2675781,70.4212646 C77.8349609,69.4001465 78.5300293,66.7471902 78.0826416,65.7589101 C77.7843831,65.1000566 77.1042905,64.9134629 76.0423636,65.1991289 C76.4725359,64.993541 76.8809408,64.8988037 77.2675781,64.914917 C77.8475342,64.9390869 78.5163574,65.4693604 78.4685059,66.5550537 C78.4206543,67.6407471 77.8774414,70.1018066 77.8768311,70.4212646 C77.8762207,70.7407227 79.1553955,70.9345703 79.7540283,70.21875 C80.3526611,69.5029297 80.111084,66.5085449 79.7540283,64.914917 C80.3239339,65.6547445 80.5593669,67.2497559 80.4603271,69.6999512 C80.8199463,70.2630208 81.1789958,70.3446045 81.5374756,69.9447021 C82.0751953,69.3448486 82.1105347,66.0606689 81.7663574,64.6590576 C82.6536865,65.4504395 82.0460205,69.2341309 82.0211182,69.4943848 C81.9962158,69.7546387 83.1317139,69.3710938 83.3598633,69.1445313 C83.5880127,68.9179688 83.6480103,67.024292 83.6483765,66.1801147 C83.4536743,65.5559692 82.9512939,64.7581787 83.0079816,64.6590576 C83.0646692,64.5599365 83.8599854,66.0442344 84.0307617,65.6873779 C84.1446126,65.4494736 84.5818278,65.0639756 85.3424072,64.5308838 Z" id="路径" fill="#C2C2C2"></path>
                <path d="M22.3394165,69.6216431 C22.9530233,70.135966 24.37854,70.6853841 24.4581299,70.1376953 C25.1368001,70.5139974 25.8415731,70.7460327 26.5724487,70.8338013 C27.3709644,70.9296925 27.6144613,71.1196289 27.2982178,70.6347656 C27.8698672,70.9487655 28.2940412,71.1077214 28.5707397,71.1116333 C28.9857876,71.1175011 29.0382842,71.0340576 29.0164639,70.6590576 C29.675031,71.0584341 30.1355057,71.2834708 30.3978882,71.3341675 C32.3162842,71.704834 31.4138184,71.0766602 31.5805664,71.0467529 C32.0272217,71.4782715 33.7232666,71.5874023 33.9621582,71.5819092 C34.2010498,71.576416 33.2816162,70.9476929 33.2889404,70.8252563 C33.2962646,70.7028198 34.1607666,71.2233887 34.5913232,71.4663086 C35.0218799,71.7092285 36.3133435,71.753418 36.404541,71.5819092 C36.4653394,71.46757 36.2922437,71.2010091 35.8852539,70.7822266 C36.3035482,71.101237 36.7027995,71.3292236 37.0830078,71.4661865 C37.6533203,71.6716309 39.3371582,71.7626953 39.4472433,71.6641846 C39.5206333,71.5985107 39.1620796,71.2652588 38.371582,70.6644287 L39.081571,70.9877307 C39.6342476,71.2257512 40.0894716,71.3852772 40.4472433,71.4663086 C41.1985637,71.6364746 42.6201172,71.6745605 42.9669189,71.4663086 C42.3957926,71.267334 41.9624733,70.918986 41.666961,70.4212646 C41.9352109,70.6473389 42.2932179,70.855835 42.7409817,71.0467529 C43.4126275,71.3331299 45.3184814,71.3140869 45.818531,71.2543945 C46.1518974,71.2145996 46.6222282,70.6964518 47.2295236,69.6999512 L47.0405832,70.2955627 C46.8933387,70.7344055 46.7716092,71.0294978 46.6753945,71.1808395 L46.6207275,71.2543945 C46.4315084,71.4608459 47.027793,71.2322854 47.6420536,71.0846293 L47.8094482,71.0467529 C48.2539469,70.9531657 49.0560797,70.5042318 50.2158466,69.6999512 L49.535723,70.2872779 C49.0267929,70.736007 48.7728604,70.9891653 48.7739258,71.0467529 C48.776123,71.1655273 49.435791,70.9554443 49.8623047,70.7822266 L50.1033948,70.6689031 C50.4447832,70.4942984 50.9965795,70.1713144 51.7587838,69.6999512 C51.1091831,70.3486599 51.3140383,70.5082624 51.7168884,70.4475708 C52.1197385,70.3868792 53.3112183,70.1200867 55.0474548,70.1554565 C56.2049459,70.1790365 55.9910278,70.4053141 54.4057007,70.8342896 L53.4990328,70.8834547 C50.8928847,71.0362181 47.544091,71.4442202 46.5974121,71.555542 C45.425415,71.6933594 44.4501953,72 42.8669434,72 L33.739624,72 L33.2935881,71.9873277 C31.0577393,71.8776392 25.0233981,71.0576754 20.6836454,69.5976369 L22.3373413,69.8960571 C22.5077515,69.9120076 22.4286092,70.0820109 22.3394165,69.6216431 Z" id="路径" fill="#C2C2C2"></path>
                <path d="M75.1853027,65.5186768 C75.4753418,65.5646566 76.0881755,66.15861 77.0238037,67.3005371 L75.9821826,66.459694 C75.5658789,66.130019 75.3063354,65.9364638 75.2035522,65.8790283 C74.9465942,65.7354397 73.3322754,66.576355 73.3345947,66.8510132 C73.3369141,67.1256714 75.6644392,69.3913359 76.0423636,69.4360855 C76.4202881,69.480835 76.0301514,69.7423096 74.7811279,68.7753906 L74.2126606,68.3235276 C73.3569336,67.6211853 72.951355,67.1631673 72.8692627,66.8071289 C72.770752,66.3798828 74.7502441,65.449707 75.1853027,65.5186768 Z" id="路径" fill="#C2C2C2"></path>
                <path d="M56.383165,49.8244629 C56.2109375,49.9780273 56.4689586,53.1542969 59.2647528,54.1347656 C62.0605469,55.1152344 78.9394531,47.1787109 79.4318848,47.814209 C79.9243164,48.449707 66.9544052,56.1968964 62.9580375,57.967833 C58.9616699,59.7387695 54.621582,60.0603027 53.3261719,56.2111816 C52.0307617,52.3620605 56.5553925,49.6708984 56.383165,49.8244629 Z" id="路径-402" fill="#BEBBA8"></path>
                <path d="M80.7348633,45.3658618 C80.4922676,45.046953 80.1934373,45.3705004 79.3066185,45.604143 C78.4197998,45.8377856 67.144165,50.6355151 65.8393555,51.3005541 C64.5345459,51.9655932 51.137207,57.7541334 50.9836426,58.0770264 C50.8300781,58.3999194 53.0645984,62.6154257 53.0926629,62.9221538 C53.1207275,63.2288818 53.6385571,63.6528522 54.151676,63.386973 C54.6647949,63.1210938 63.2099609,58.9910548 65.3565674,58.3969556 C67.5031738,57.8028564 74.5882568,54.6486064 77.0026855,53.5050283 C79.4171143,52.3614502 81.1115723,51.6018066 81.4212646,51.3596191 C81.730957,51.1174316 82.3054199,50.6401367 82.2827148,50.496582 C82.2600098,50.3530273 82.1524658,49.7043457 82.0904541,49.401001 C82.0284424,49.0976563 80.977459,45.6847705 80.7348633,45.3658618 Z" id="路径-406" fill="#F7F1E5"></path>
                <path d="M80.8737793,45.685791 C80.6311836,45.3668823 80.3323533,45.6904297 79.4455345,45.9240723 C78.5587158,46.1577148 67.2830811,50.9554443 65.9782715,51.6204834 C64.6734619,52.2855225 51.276123,58.0740626 51.1225586,58.3969556 C50.9689941,58.7198486 53.0645984,62.6154257 53.0926629,62.9221538 C53.1207275,63.2288818 53.6385571,63.6528522 54.151676,63.386973 C54.6647949,63.1210938 63.2099609,58.9910548 65.3565674,58.3969556 C67.5031738,57.8028564 74.5882568,54.6486064 77.0026855,53.5050283 C79.4171143,52.3614502 81.1115723,51.6018066 81.4212646,51.3596191 C81.730957,51.1174316 82.3054199,50.6401367 82.2827148,50.496582 C82.2600098,50.3530273 82.1524658,49.7043457 82.0904541,49.401001 C82.0284424,49.0976563 81.116375,46.0046998 80.8737793,45.685791 Z" id="路径-406" fill="#DFD4BD"></path>
                <path d="M76.6553379,47.0230154 L79.4689534,52.3457572 L76.3441477,53.8131197 C74.6239372,54.6100335 71.6968999,55.9158296 69.2121596,56.9460613 C68.1453009,55.8138827 67.8628534,51.8912574 67.9645023,51.4812574 C68.0140525,51.2813972 68.4810426,50.8249126 69.3654727,50.1118036 L74.0174004,48.1248592 C74.9573274,47.7286182 75.8615172,47.3507354 76.6553379,47.0230154 Z" id="路径" fill="#D2C9B7"></path>
                <path d="M79.4455345,45.9240723 C80.3323533,45.6904297 80.6311836,45.3668823 80.8737793,45.685791 C81.116375,46.0046998 82.0284424,49.0976563 82.0904541,49.401001 L82.2827148,50.496582 L82.2827148,50.496582 C82.3054199,50.6401367 81.730957,51.1174316 81.4212646,51.3596191 C81.3301787,51.4308508 81.1193032,51.546845 80.8055526,51.7042047 L77.1602966,53.4304618 L74.6082966,47.8761645 L77.5999169,46.6356191 C78.3285511,46.3391535 78.8970835,46.1144743 79.2158171,45.9998961 L79.4455345,45.9240723 Z" id="路径" fill="#C9C1B0"></path>
                <path d="M80.0466309,43.4414063 C80.2646484,43.8642578 80.4915771,45.1467285 80.661377,45.2539063 C80.8311768,45.361084 81.1428223,45.3348389 81.3397217,45.7947998 C81.5366211,46.2547607 82.7648926,50.2462158 82.6508789,50.7768555 C82.5368652,51.3074951 81.9125977,51.3239746 81.6489258,51.5146484 C81.5627093,51.5769958 81.5196021,51.6427234 81.5049706,51.7112063 L80.9366455,51.9813843 L80.8517456,51.6046753 C81.6300659,50.9501343 82.0236613,50.5177244 82.0325317,50.3074456 C82.0458374,49.9920274 80.9851222,46.4252199 80.75354,45.854126 C80.5219579,45.2830321 80.3581848,45.4801941 80.0753479,45.4809265 C79.4556885,45.6164551 79.3626165,45.7092867 79.3256566,45.6068819 C79.0045661,44.7172374 78.9098485,44.0785666 79.0415039,43.6908694 C79.150822,43.3689508 79.4891365,43.1737197 80.0564472,43.1051762 C80.0617694,43.2321329 80.0574235,43.34379 80.0466309,43.4414063 Z" id="路径" fill="#AAA596"></path>
                <path d="M71.0758177,51.4996468 C71.341874,51.4256963 71.6175039,51.5814289 71.6914543,51.8474852 C71.7548404,52.0755335 71.6494798,52.3106154 71.4505375,52.4196969 L71.36,52.454 L71.3933529,52.4777149 L71.4806952,52.5794892 C71.6310245,52.8111262 71.5651117,53.1207711 71.3334747,53.2711004 L70.4678474,53.824449 C67.5644724,55.6487342 65.9740289,56.2912828 65.2733002,55.715227 C64.378277,54.9794455 64.5145925,54.1356567 65.2473631,53.4430404 C65.6060218,53.1040354 67.4001648,52.5212953 71.0758177,51.4996468 Z M70.268,52.764 L68.6874371,53.2255559 C67.0165702,53.7243433 66.0498764,54.0605144 65.9342776,54.1697787 C65.5876815,54.497382 65.5617607,54.6578314 65.9083405,54.942748 C66.0835369,55.0867737 67.432274,54.5084968 69.6076386,53.1776964 L70.268,52.764 Z" id="路径-408" fill="#C3424E" fill-rule="nonzero"></path>
                <path d="M77.7860107,45.926119 C77.2786865,45.8568767 69.5592041,49.4063721 69.0205078,50.5239258 C68.4818115,51.6414795 69.5393066,52.9345703 69.7460938,53.3966064 C69.9528809,53.8586426 70.4541016,55.427124 71.0505371,55.6728516 C71.6469727,55.9185791 75.8293457,54.5750994 77.1075439,54.1800668 C78.3857422,53.7850342 80.2499562,53.104126 80.5920802,52.6953125 C80.6327202,52.6467506 80.8733151,52.3859589 80.8383484,52.1916809 C80.5789515,50.7504491 78.2330712,45.9871362 77.7860107,45.926119 Z" id="路径-407" fill="#777377"></path>
                <path d="M78.0151367,45.5524618 C77.5078125,45.4832195 69.7883301,49.0327148 69.2496338,50.1502686 C68.7109375,51.2678223 69.7684326,52.5609131 69.9752197,53.0229492 C70.1820068,53.4849854 70.6832275,55.0534668 71.2796631,55.2991943 C71.8760986,55.5449219 76.0584717,54.2014421 77.3366699,53.8064095 C78.6148682,53.411377 80.4790822,52.7304688 80.8212061,52.3216553 C81.1633301,51.9128418 78.5224609,45.6217041 78.0151367,45.5524618 Z" id="路径-407" fill="#9B969B"></path>
                <path d="M62.0942034,53.9238902 L62.3612424,54.0274427 L64.1894895,58.3185633 L64.0853811,58.5803075 L53.6995414,63.1055057 L53.4342234,62.9970918 L51.7587838,58.8513052 L51.8611711,58.5944224 L62.0942034,53.9238902 Z M53.356,58.992 L53.7137136,62.376227 C53.7193393,62.4295351 53.7034762,62.4801581 53.6731016,62.5194725 L53.728,62.656 L55.8147838,61.7458902 L53.356,58.992 Z M55.756,57.816 L56.2087838,61.5738902 L58.6567838,60.5078902 L55.756,57.816 Z M52.9067838,58.5538902 L52.2,58.878 L53.2027838,61.3618902 L52.9067838,58.5538902 Z M55.3087838,57.4578902 L53.3307838,58.3618902 L55.746,61.066 L55.3087838,57.4578902 Z M61.404,55.294 L61.4058105,59.2321282 L61.0501118,59.3576587 L58.774,56.534 L59.0107838,60.3538902 L63.742,58.292 L63.2975371,57.2496646 C63.2719628,57.2487067 63.2465712,57.2428708 63.2228777,57.2322134 L63.1584072,57.185834 L61.404,55.294 Z M58.3427838,56.0738902 L55.7427838,57.2598902 L58.58,59.894 L58.3427838,56.0738902 Z M61.0047838,54.8578902 L58.7627838,55.8818902 L61.004,58.664 L61.0047838,54.8578902 Z M62.072,54.372 L61.3847838,54.6858902 L62.9007838,56.3178902 L62.072,54.372 Z" id="形状" fill="#BF6D74" fill-rule="nonzero"></path>
                <path d="M70.6665903,49.9852283 C70.8759968,49.889816 71.1168183,49.9509228 71.2575338,50.1193633 L71.3288982,50.2329141 L72.9514568,53.7940317 C73.0659515,54.0453195 72.9550588,54.3418449 72.703771,54.4563396 C72.4943645,54.5517519 72.253543,54.4906451 72.1128275,54.3222047 L72.0414631,54.2086538 L70.4189045,50.6475362 C70.3044098,50.3962484 70.4153025,50.099723 70.6665903,49.9852283 Z" id="路径-409" fill="#9D3B44" fill-rule="nonzero"></path>
                <polygon id="路径-410" fill="#AEA8AE" points="74.9750302 48.8406475 72.7674561 51.8165283 76.4481201 52.4708252 78.9840772 49.3894043"></polygon>
                <path d="M57.9950562,45.5000967 C58.2005615,45.2891846 58.0933228,44.6065063 57.5797119,44.6260986 C57.0661011,44.6456909 56.8510941,44.9141235 56.9556885,45.3545532 C57.0602828,45.7949829 57.7895508,45.7110088 57.9950562,45.5000967 Z" id="路径-404" fill="#404040"></path>
                <path d="M58.2390747,39.7119751 C58.4445801,39.501063 58.4448242,38.9163208 57.9312134,38.9359131 C57.4176025,38.9555054 57.3676147,39.5477905 57.487915,39.7790527 C57.6082153,40.0103149 58.0335693,39.9228872 58.2390747,39.7119751 Z" id="路径-404" fill="#404040"></path>
                <path d="M59.0253296,35.1758423 C59.230835,34.9649302 59.2310791,34.380188 58.7174683,34.3997803 C58.2038574,34.4193726 58.1538696,35.0116577 58.2741699,35.2429199 C58.3944702,35.4741821 58.8198242,35.3867544 59.0253296,35.1758423 Z" id="路径-404" fill="#404040"></path>
                <path d="M52.3201294,46.3255615 C52.5942383,46.2214355 52.8575439,45.9173584 52.5856934,45.5916138 C52.3138428,45.2658691 51.6610793,45.6358692 51.6234779,45.9635645 C51.5858765,46.2912598 52.0460205,46.4296875 52.3201294,46.3255615 Z" id="路径-404" fill="#404040"></path>
                <path d="M49.3753052,48.7025757 C49.6494141,48.5984497 49.9127197,48.2943726 49.6408691,47.9686279 C49.3690186,47.6428833 48.7162551,48.0128834 48.6786537,48.3405787 C48.6410522,48.6682739 49.1011963,48.8067017 49.3753052,48.7025757 Z" id="路径-404" fill="#404040"></path>
                <path d="M46.3682251,50.3757324 C46.642334,50.2716064 46.9056396,49.9675293 46.6337891,49.6417847 C46.3619385,49.31604 45.709175,49.6860401 45.6715736,50.0137354 C45.6339722,50.3414307 46.0941162,50.4798584 46.3682251,50.3757324 Z" id="路径-404" fill="#404040"></path>
                <path d="M43.6029663,51.3982544 C43.8770752,51.2941284 44.1403809,50.9900513 43.8685303,50.6643066 C43.5966797,50.338562 42.9439162,50.7085621 42.9063148,51.0362574 C42.8687134,51.3639526 43.3288574,51.5023804 43.6029663,51.3982544 Z" id="路径-404" fill="#404040"></path>
                <path d="M40.5587769,53.0976562 C40.8328857,52.9935303 40.9835205,52.774292 40.7116699,52.4485474 C40.4398193,52.1228027 40.0804481,52.3592554 40.0428467,52.6869507 C40.0052453,53.014646 40.284668,53.2017822 40.5587769,53.0976562 Z" id="路径-404" fill="#404040"></path>
                <path d="M37.3823242,54.3485107 C37.6564331,54.2443848 37.8070679,54.0251465 37.5352173,53.6994019 C37.2633667,53.3736572 36.6558876,53.7146631 36.6182861,54.0423584 C36.5806847,54.3700537 37.1082153,54.4526367 37.3823242,54.3485107 Z" id="路径-404" fill="#404040"></path>
                <path d="M37.2041785,52.2007944 L37.2479573,52.1867517 C37.4030482,52.4990904 37.4744211,52.94236 37.5387571,53.1271362 C37.6317747,53.3942871 37.4268797,54.0060425 37.2708738,53.9792449 C37.114868,53.9524473 37.0666502,54.1920776 36.7391966,53.9792449 C36.5492451,53.8557835 36.1052243,53.4114664 35.7926653,53.0620098 C35.9014792,52.8006396 36.0810802,52.4478109 36.3305662,52.2917481 C36.6380817,52.0993856 36.9742497,52.226059 37.2041785,52.2007944 Z M40.8409422,49.9488525 L40.9186653,49.9501366 L40.8057366,50.0717145 C40.0582558,50.96833 40.8134348,51.7699073 40.7800596,52.3505249 C40.7690231,52.5425238 40.414788,52.6451974 40.4472431,52.7096204 C40.584855,52.9827784 40.0347593,52.9367065 39.7493895,52.7240295 C39.5530299,52.5776891 39.2935861,51.9083672 39.216063,51.3231928 L39.1937254,51.3449707 C39.4246824,51.1715088 40.5855711,49.9324951 40.8409422,49.9488525 Z M47.8766241,45.738023 L47.9552,45.4245606 C48.0917356,45.7188906 47.8522947,47.2084961 46.6810911,47.7779284 C46.3512571,47.9002832 46.3877682,48.3738821 46.446962,48.6581793 L46.4952391,48.8428955 C46.5519407,49.012608 46.6951613,49.666351 46.634033,49.920044 C46.5729047,50.1737369 46.1068113,49.965332 46.0184324,50.0853272 C45.9300535,50.2053223 45.6273802,50.2404305 45.318115,50.0338505 C45.1866023,49.9460039 44.9695633,49.6293434 44.7974379,49.1955042 C44.2311517,49.3086705 43.4113138,49.1630561 43.4435076,49.2895161 L43.6027091,49.9563012 C43.6646249,50.2271302 43.7353893,50.5465263 43.8150022,50.9144898 L43.5890365,50.9486811 C43.5625563,50.9536899 43.5416665,50.9583538 43.526367,50.9626728 C43.4575193,50.9821083 43.3380735,51.2589897 43.2559202,51.3209229 C43.1737669,51.3828561 42.11322,50.6471558 41.752075,49.7894898 L41.7305511,49.7243141 C41.7527988,49.6895385 41.7682028,49.6497072 41.7750242,49.604126 C41.8305052,49.2333984 43.1370848,48.7635498 43.4129637,48.7331543 C43.6804463,48.7036839 44.030551,48.286463 44.4877553,48.1342572 L44.5485155,48.1424912 L44.5485155,48.1424912 L44.5446653,48.1141366 L44.7417962,48.0400035 C45.1714588,47.8391064 45.6339458,47.4178292 45.8209227,47.0698242 C46.0390623,46.6638184 46.6917723,46.776001 46.9196775,46.7054443 C47.1127639,46.6456672 47.6036718,46.2730856 47.8766241,45.738023 Z M49.6804353,46.3615904 L49.7090452,46.4523315 C49.9172972,46.8446655 49.6632078,48.1777344 49.5386961,48.1021784 C49.4556883,48.0518077 49.3480717,48.1142536 49.2158464,48.2895161 C49.1759119,48.4857876 49.1035561,48.564799 48.9987791,48.5265503 C48.8416136,48.4691773 48.3934935,48.1832886 48.2292478,47.716919 C48.0650022,47.2505493 47.9839476,46.2506104 48.1057127,45.3616943 L48.1528672,45.1100662 C48.1635903,45.0627703 48.1757302,45.0129644 48.1892639,44.9609019 C48.3719673,44.6061254 48.6382379,44.3306336 49.0766621,44.0286912 L49.9726849,43.448798 L49.9726849,43.448798 L49.8874732,43.9571115 C49.7439913,44.8606196 49.6068275,45.981787 49.6804353,46.3615904 L49.6804353,46.3615904 Z M58.1269529,34.076355 C59.5225218,34.4324341 58.8422239,34.647522 58.8128733,35.058718 C58.7835228,35.4699141 58.0317991,35.62323 57.5115802,35.4773788 C56.9913613,35.3315276 55.0977171,36.1913452 54.6909471,36.5335083 L54.3932367,36.7779451 C54.2699372,36.8939209 54.3019211,36.9522705 54.5188009,37.1710205 C54.8441206,37.4991455 56.9090574,37.9904175 57.3706498,38.2383423 C57.678378,38.4036255 57.904077,38.7427572 58.0477465,39.2557373 C58.0010228,39.4547933 57.9519235,39.6106364 57.9004488,39.7232666 C57.8232366,39.8922119 56.5989988,40.3231201 55.7418115,39.9932251 L55.5629514,39.9172954 L55.5629514,39.9172954 L54.9782375,40.1377127 C54.6517023,40.2627216 54.2894865,40.4086213 53.9617309,40.569519 C53.3288131,40.8802233 52.7811469,41.7174901 52.687561,41.8965454 C52.3582217,42.5266615 52.4200264,43.6652846 52.4007896,44.2039376 L52.3888548,44.3756439 C52.3361204,44.793402 52.6156004,45.6817627 52.5206297,45.7731323 L52.2963084,45.9845633 C52.1639863,46.095508 52.0052401,46.1960425 51.8883665,46.1539917 C51.6838377,46.0804029 51.5662229,45.7993774 51.4197996,45.5524618 C51.2995174,45.3496283 50.9648969,43.6721856 51.0440136,42.6839767 C51.353477,42.4524173 51.5961478,42.2454102 51.70166,42.1121826 C51.9809568,41.7595215 52.4851072,40.2198486 52.835449,39.8051758 C52.9497651,39.6698686 53.0358388,39.5299215 53.0941198,39.3959282 L53.1343993,39.3581543 C53.3707404,39.1345098 53.7467122,39.0284514 54.0776967,38.9748717 L53.5800797,38.6170207 C53.5537783,38.600026 53.5318731,38.5870264 53.5148179,38.5786133 C53.2819553,38.4637451 53.2442614,38.6218872 53.0935058,38.4526367 C53.0630489,38.4184433 53.0435005,38.3036599 53.0335614,38.1386159 C53.0320272,37.3746044 53.1518553,36.1296983 53.2858885,35.7561035 L53.3506653,35.5921366 L53.3704715,35.5629594 C53.5705109,35.3052741 53.7910935,35.4358978 54.2163229,35.1473999 C54.7022993,34.817688 56.7313841,33.7202759 58.1269529,34.076355 Z" id="形状" fill="#D9D2C6"></path>
            </g>
        </g>
    </g>
</svg>