<?xml version="1.0" encoding="UTF-8"?>
<svg width="96px" height="96px" viewBox="0 0 96 96" version="1.1" xmlns="http://www.w3.org/2000/svg" xmlns:xlink="http://www.w3.org/1999/xlink">
    <title>Jordan Aerospace 720</title>
    <defs>
        <rect id="path-1" x="0" y="0" width="96" height="96"></rect>
    </defs>
    <g id="icon" stroke="none" stroke-width="1" fill="none" fill-rule="evenodd">
        <g id="画板" transform="translate(-854.000000, -230.000000)">
            <g id="Jordan-Aerospace-720" transform="translate(854.000000, 230.000000)">
                <g id="#" opacity="0">
                    <use fill="#FFFFFF" fill-rule="evenodd" xlink:href="#path-1"></use>
                    <rect stroke-opacity="0.5" stroke="#DDDDDD" stroke-width="6" stroke-linejoin="square" x="3" y="3" width="90" height="90"></rect>
                    <rect stroke-opacity="0.507785184" stroke="#DDDDDD" stroke-width="12" stroke-linejoin="square" x="6" y="6" width="84" height="84"></rect>
                    <rect stroke-opacity="0.319406703" stroke="#979797" stroke-width="10" stroke-linejoin="square" x="5" y="5" width="86" height="86"></rect>
                </g>
                <path d="M75.5455729,29.2571615 C75.8355758,29.8987269 75.6894531,31.3822698 75.6653646,32.1116355 L75.638916,33.1703943 C75.6261393,33.4881366 75.6022135,33.7472873 75.5455729,33.8776042 C75.4322917,34.1382378 75.2702546,34.8362269 75.0744358,35.1296296 L74.9164433,35.3600038 C74.8227988,35.5047353 74.7627528,35.6422137 74.7976918,35.8351358 L74.8426649,35.9912027 C74.9936343,36.3841869 74.9979022,36.9296152 74.8426649,37.1422164 C75.1546586,37.1702836 75.4232494,37.3977865 75.6653646,37.7434896 C75.8267747,37.9739583 76.0248119,38.4187886 76.2594763,39.0779803 C75.1525608,39.686005 74.0225453,39.9669416 72.86943,39.9207899 C71.7163146,39.8746383 70.1704282,39.5106578 68.2317708,38.8288484 L68.2130574,37.9664706 C68.1959089,36.3530211 68.3004299,35.4074074 68.5266204,35.1296296 C68.9224537,34.6435185 70.6675347,33.6011285 71.2145544,33.3430266 C71.7615741,33.0849248 72.6820023,32.7512297 73.0547598,32.8528646 C73.1466291,32.3666811 73.1576244,31.566985 73.0547598,30.9450231 C72.9518953,30.3230613 73.4268663,29.2778682 73.9197772,28.9050293 C74.4126881,28.5321904 75.25557,28.6155961 75.5455729,29.2571615 Z M75.1255064,30.2511574 C75.1217448,29.5010851 74.2913411,29.4751519 73.9856771,29.7424045 C73.718221,29.9762505 73.6973334,30.6065335 73.7199879,31.0616099 L73.7317708,31.2442491 C73.755353,31.5439453 73.7371359,32.1066141 73.6771195,32.9322555 C74.134633,33.1688247 74.3967134,33.3677541 74.4633608,33.5290437 C74.5633319,33.770978 74.7496383,34.0984881 74.8738788,34.0117549 C74.9567057,33.9539328 75.0109994,33.473673 75.0403284,33.0584156 L75.104854,31.4036839 C75.1171759,31.0070373 75.1271782,30.5845229 75.1255064,30.2511574 Z" id="形状" fill="#343232"></path>
                <path d="M72.917843,32.8345788 L72.9863281,32.9162946 L72.249339,33.4013095 C70.7551988,34.3988276 69.9284102,35.0495871 69.7689732,35.353588 C69.5850074,35.7043582 69.4545223,36.2912769 69.3775177,37.1143442 C68.8722632,36.547082 68.5311703,36.0290544 68.3542391,35.5602616 C68.4021611,35.3556339 68.4589449,35.2127398 68.5266204,35.1296296 C68.9224537,34.6435185 70.6675347,33.6011285 71.2145544,33.3430266 C71.7032031,33.1124661 72.4898213,32.8215844 72.917843,32.8345788 Z" id="路径" fill="#4D4C4C"></path>
                <path d="M75.5455729,29.2571615 C75.8355758,29.8987269 75.6894531,31.3822698 75.6653646,32.1116355 L75.638916,33.1703943 L75.6168522,33.5190656 C75.6067936,33.6229177 75.593571,33.7128996 75.575804,33.7845159 L75.5455729,33.8776042 C75.4322917,34.1382378 75.2702546,34.8362269 75.0744358,35.1296296 L74.9164433,35.3600038 C74.8227988,35.5047353 74.7627528,35.6422137 74.7976918,35.8351358 L74.8426649,35.9912027 C74.9838311,36.3586685 74.9967293,36.8594231 74.8708918,37.0967233 L74.700198,37.1378766 C74.6532659,37.1460643 74.6183435,37.1474908 74.6015625,37.1384626 C74.5088588,37.0885882 74.1328823,36.2121931 74.2190988,35.8074777 C74.3053153,35.4027623 74.8065011,34.3587472 74.6015625,33.8302874 L74.5645979,33.7418145 C74.662973,33.9221267 74.7844902,34.0741578 74.8738788,34.0117549 C74.9567057,33.9539328 75.0109994,33.473673 75.0403284,33.0584156 L75.104854,31.4036839 C75.1171759,31.0070373 75.1271782,30.5845229 75.1255064,30.2511574 C75.1217448,29.5010851 74.2913411,29.4751519 73.9856771,29.7424045 C73.718221,29.9762505 73.6973334,30.6065335 73.7199879,31.0616099 L73.7317708,31.2442491 C73.755353,31.5439453 73.7371359,32.1066141 73.6771195,32.9322555 L73.743759,32.9676149 L73.046875,32.965053 C72.8152204,32.9607282 72.2015904,33.0324358 71.5006278,33.421596 L71.0016417,33.7216506 C70.2515904,34.1984755 69.2418248,34.9343378 68.9231306,35.353588 C68.5247628,35.8776507 69.0895647,37.1527623 69.6655971,37.5335519 C70.2004843,37.8871423 72.7765871,38.2289598 73.7307481,38.159694 L73.9204799,38.1362305 C74.4108073,38.0393991 75.0046735,38.4151199 75.7020787,39.2633929 L75.7339438,39.3412912 C74.795493,39.7664954 73.8406551,39.9596617 72.86943,39.9207899 C71.7163146,39.8746383 70.1704282,39.5106578 68.2317708,38.8288484 L68.2130574,37.9664706 C68.1959089,36.3530211 68.3004299,35.4074074 68.5266204,35.1296296 C68.9224537,34.6435185 70.6675347,33.6011285 71.2145544,33.3430266 C71.7615741,33.0849248 72.6820023,32.7512297 73.0547598,32.8528646 C73.1466291,32.3666811 73.1576244,31.566985 73.0547598,30.9450231 C72.9518953,30.3230613 73.4268663,29.2778682 73.9197772,28.9050293 C74.4126881,28.5321904 75.25557,28.6155961 75.5455729,29.2571615 Z" id="路径" fill="#1B1818"></path>
                <path d="M62.0922852,22.4609375 C62.9659065,22.8669577 62.6076398,24.2703287 61.8166405,25.5141199 L61.6634521,25.7451782 C61.0670573,26.6088664 60.3458659,27.7913005 59.4998779,29.2924805 C59.4600667,29.3602539 59.4933936,29.4396549 59.5998584,29.5306836 L59.6934204,29.6011353 C59.9616089,29.7827148 61.2564697,30.6783447 61.4286499,30.8015747 C61.6008301,30.9248047 61.9608154,31.4133301 61.9979858,32.0239258 C62.0261841,32.1525879 63.5682983,33.1594849 63.8591919,33.6568604 C64.0531209,33.988444 64.2581787,34.7851969 64.4743652,36.0471191 L68.1080322,38.2550049 C68.3894958,38.4138794 68.6474533,38.5456314 68.8819046,38.6502609 L69.4717686,38.8931699 C70.0763721,39.1363086 71.1060303,39.5213379 71.8883057,39.5087891 L73.1690368,39.4788504 C73.9809485,39.4524385 74.8012751,39.4078036 75.0786743,39.3314819 C75.5145874,39.2115479 76.585144,38.5385742 77.0158691,38.4517822 C77.4465942,38.3649902 77.9517212,38.7523804 78.0258179,39.1306152 C78.1816319,39.4250227 78.5514738,40.7065492 78.8502311,41.7947962 L79.2943279,43.471953 C79.5396336,44.4526413 79.8459495,45.760958 79.974969,46.2072039 L80.0081177,46.3140259 C80.1266479,46.654541 80.4423828,47.4528809 80.4893799,47.727356 L80.5071317,47.9218054 C80.5641846,48.7593283 80.6659899,51.8732209 80.4893799,53.1941158 C80.3577881,54.1783121 79.9134521,55.5962728 79.1563721,57.447998 L71.8883057,56.9931641 L51.0167236,63.8881836 L47.7137846,63.4830968 C42.2363565,62.8349761 39.2853844,62.6244472 38.8608682,62.85151 L38.7017772,62.9810878 C38.1500597,63.376432 36.1584843,64.3069573 32.7270508,65.7726637 L26.7541504,64.2831421 L18.0616455,66.3226708 L17.0391533,65.7656895 C13.7768561,63.9562833 11.9746612,62.6188595 11.6325684,61.753418 C11.2562663,60.8014323 11.090332,59.8804118 11.1347656,58.9903564 C12.0349935,57.7823486 13.1611328,56.8491211 14.5131836,56.1906738 C16.5412598,55.2030029 24.8959961,53.6606926 27.119751,53.1941158 C27.7468669,52.907967 28.4199626,52.5824382 29.1390381,52.2175293 L29.3841553,51.7333984 L29.8295593,51.6489944 C30.1516724,51.5786641 30.3511429,51.5083497 30.4279709,51.4380512 L30.4593506,51.395874 C30.526001,51.2271729 31.512207,50.5601807 32.0379639,50.3508301 C32.3884684,50.211263 33.0473226,50.0527344 34.0145264,49.8752441 L35.1879578,49.0911137 C36.5036519,48.2291308 37.384847,47.7206101 37.831543,47.5655518 C38.4000651,47.3682048 39.350057,47.15507 40.6815186,46.9261475 C41.1888428,46.0940348 41.7188314,45.535848 42.2714844,45.2515869 L44.21082,44.2379422 C44.5124105,44.086263 44.7689209,43.9652507 44.9289551,43.907959 C45.2490234,43.7933757 45.6772054,43.7307536 46.213501,43.7200928 L47.3318295,41.790691 C47.5117193,41.4886884 47.6299099,41.2990994 47.6864014,41.2219238 C47.8897705,40.9440918 48.8115234,40.8658447 48.9368896,40.7390137 C49.0622559,40.6121826 49.3618164,39.7806396 49.4084473,39.5087891 C49.4395345,39.3275553 49.7478434,38.9752197 50.333374,38.4517822 C49.7435303,38.4555257 49.4352214,38.3899333 49.4084473,38.2550049 C49.3682861,38.0526123 49.5628662,37.4470215 49.8947754,37.3311768 L51.2771912,36.8613281 L51.6114502,36.1772461 L51.2771912,36.4121094 C51.2069804,36.3476563 51.1994629,36.2194112 51.2546387,36.0273743 C51.3098145,35.8353373 51.5841426,35.3580051 52.0776232,34.5953776 C52.6741763,33.7239041 53.0493028,33.2186415 53.2030029,33.0795898 C53.5488281,32.7667236 54.7893066,32.1889648 54.9102783,32.0239258 C55.03125,31.8588867 55.8122559,31.1292725 56.3255615,30.6019287 C56.6677653,30.2503662 57.2076823,29.9499919 57.9453125,29.7008057 L58.3427734,28.9050293 L58.7374268,28.9050293 C58.9318848,28.5067952 59.0437826,28.0807292 59.0731201,27.6268311 L59.1327653,26.8368931 C59.2326335,25.6686174 59.4484018,23.7431641 59.8192139,23.1743164 C60.3012695,22.4348145 61.1640625,22.029541 62.0922852,22.4609375 Z M61.7840637,24.1114929 C62.0899347,22.9909995 61.4225999,22.6950215 60.7951694,23.0575927 C60.2160027,23.3922738 59.9515599,25.1393435 59.858471,26.1028433 L59.8386857,26.3261231 C59.7676997,27.2119161 59.4054238,28.4717975 59.4216291,28.5127354 C59.4348881,28.5462299 59.8605761,27.8105404 60.1303795,27.2711069 L60.2809178,26.9511542 C60.4916978,26.4567255 61.4781927,25.2319864 61.7840637,24.1114929 Z" id="形状" fill="#E7E6ED"></path>
                <path d="M56.6032715,34.1213379 C55.6811667,33.7080424 56.0728606,35.3282658 57.318901,35.9241427 C58.5649414,36.5200195 61.9797092,38.1750657 60.9327257,38.8219078 C59.8857422,39.46875 57.1289561,40.1063401 57.0205078,41.2133789 C56.9120595,42.3204177 56.9990733,44.3744791 55.5883789,44.7041016 C54.1776845,45.033724 48.2814941,47.6525949 46.5482178,49.2642857 C44.8149414,50.8759766 40.1013184,55.3520858 38.8240967,56.7727226 C37.546875,58.1933594 32.7944761,58.4350586 30.8615935,58.2895508 C28.9287109,58.144043 32.9408818,63.1856321 36.8139468,63.4778258 C40.6870117,63.7700195 58.1067338,57.5377507 60.6751931,56.0596468 C63.2436523,54.581543 78.2467598,45.97137 79.0613682,44.2437416 C79.8759766,42.5161133 78.171657,42.0208724 77.0500488,42.0622559 C75.9284406,42.1036393 73.4705926,43.2602522 74.7570248,42.0753165 C75.2190426,41.6497509 78.4087279,40.0306012 78.0698242,39.9020996 C77.4650919,39.6728042 72.6746429,41.1488569 71.2854004,40.9748535 C69.1175995,40.7033352 65.7101863,38.3884277 64.5715332,37.7668457 C63.4328801,37.1452637 57.5253762,34.5346334 56.6032715,34.1213379 Z" id="路径-441" fill="#DFDEE7"></path>
                <path d="M56.0019561,33.4883133 C55.96192,33.0303375 58.1436768,33.5147705 60.3428955,34.7189941 L61.2119856,35.2073932 C63.08076,36.2824929 64.9134758,37.4828206 67.8137151,39.1080322 C71.160145,40.9832764 72.1149902,40.7017822 73.4014045,40.5711565 C74.6878188,40.4405307 77.6031494,39.6311035 77.9024734,39.3303223 L78.0464948,39.1838062 L78.0258179,39.1306152 C78.0846656,39.2418068 78.1740426,39.4938026 78.2785891,39.8230114 L77.8354814,40.0820924 C77.5842076,40.2245673 77.2884547,40.3864379 76.9486758,40.5676769 L76.5942383,40.7553711 C71.152832,42.3554688 71.5061035,45.050293 74.5715332,44.2412109 C78.6538086,42.5114746 79.2956543,42.6602261 78.6506348,43.291748 L78.4955008,43.9599981 C77.5802784,44.9024655 75.7026742,46.9306391 75.4014045,47.4636799 C75.0537856,48.078727 63.7744141,51.5473633 59.421102,51.4429103 C56.67577,51.3770391 52.1426608,55.0427586 45.8217742,62.4400687 L45.1785964,63.1947427 L43.7810605,63.0489686 C41.1568897,60.8905709 40.5420421,58.2396937 41.9359798,55.0966349 C44.2572135,49.8627033 51.4085183,46.663911 54.4350586,45.9018555 C57.4615989,45.1397999 60.4584145,46.4434003 61.7519531,45.4467773 C63.0454918,44.4501544 55.3754883,42.2993164 54.1337891,40.1850586 C53.3059896,38.7755534 53.3615075,37.7519819 54.3003428,37.1143442 C56.7393233,38.654353 58.6407639,39.6059136 60.0046645,39.9690259 L60.9081245,40.1850767 C63.0038183,40.7278615 71.40625,44.0957031 69.282959,41.9279785 C67.5910645,41.1967773 63.6382951,37.6523693 60.5589945,36.4633649 L60.21875,36.3374023 C57.0629883,35.2207031 56.0419922,33.9462891 56.0019561,33.4883133 Z" id="路径" fill="#C6C6CC"></path>
                <path d="M78.7428589,42.9483643 L79.8575439,45.7659912 C79.6507161,45.8770345 79.3766683,46.1694611 79.0354004,46.6432709 C78.7623861,47.0223188 78.4852839,47.482629 78.2040939,48.0242016 L77.992435,48.4456177 L73.0350342,46.1126709 L74.100456,45.4625244 C74.6089427,45.1484375 75.0810929,44.8508301 75.5169067,44.5697021 C76.1524686,44.1597239 77.0552037,43.6946977 78.225112,43.1746235 L78.7428589,42.9483643 Z" id="路径" fill="#838289"></path>
                <path d="M59.6305905,29.5539281 L59.6934204,29.6011353 C59.9616089,29.7827148 61.2564697,30.6783447 61.4286499,30.8015747 C61.6008301,30.9248047 61.9608154,31.4133301 61.9979858,32.0239258 C62.0261841,32.1525879 63.5682983,33.1594849 63.8591919,33.6568604 C64.0502408,33.9835195 64.2520903,34.7616336 64.4647405,35.9912027 L63.2386236,35.2894507 C62.4110483,34.8253509 61.5523097,34.3593511 61.3874421,34.2996238 L58.2091291,32.874783 C58.0683196,32.8297423 56.8148691,32.3573076 55.8816551,32.3136574 C55.1736157,32.2805396 54.2406804,32.7643847 53.6418547,33.1519097 L54.0685167,32.5338001 L54.6762169,32.1932967 C54.7966052,32.1208544 54.8826464,32.0616234 54.9102783,32.0239258 C55.03125,31.8588867 55.8122559,31.1292725 56.3255615,30.6019287 C56.6677653,30.2503662 57.2076823,29.9499919 57.9453125,29.7008057 L58.3427734,28.9050293 L58.6444828,28.9073433 C59.096338,29.2996743 59.4250406,29.5152025 59.6305905,29.5539281 Z" id="路径" fill="#4D4A4B"></path>
                <path d="M54.9320592,32.1894531 C55.27603,32.0259485 56.0192026,31.6596486 56.6127232,31.4433594 C58.2852958,30.8338449 60.3177737,30.7825864 60.6408887,30.8501881 C61.0876013,30.9436487 61.6678964,31.1918403 61.7144097,31.5226418 C61.7454186,31.7431761 61.7941738,31.9037905 61.8606754,32.004485 C61.5065581,32.1095925 61.390842,32.2574696 61.5135272,32.448116 C61.697555,32.7340856 62.5271267,33.6075666 62.5864439,33.8753617 C62.6259886,34.0538918 62.7029321,34.5466339 62.8172743,35.353588 C61.3889853,34.2984664 60.1694878,33.5616561 59.1587818,33.1431568 C58.424328,32.8390443 57.2324813,32.5052106 56.2218192,32.421317 C55.1462735,32.3320375 54.291128,32.4941161 54.9320592,32.1894531 Z" id="路径-437" fill="#0A0606"></path>
                <path d="M55.453683,31.8069398 C56.6070499,31.3984669 57.315639,31.0769443 57.5794503,30.8423719 C57.8432617,30.6077996 58.2450474,30.2461635 58.7848075,29.7574637 C58.6290848,30.3462606 58.4316372,30.7078967 58.1924644,30.8423719 C57.8337054,31.0440848 58.3470982,31.0794844 58.7848075,30.8423719 C59.2225167,30.6052595 60.3099147,30.4469169 60.5256674,30.4704939 C60.7414202,30.4940709 59.8590262,29.9244559 59.5332729,29.7574637 C59.316104,29.6461356 59.1220368,29.5896039 58.9510712,29.5878687 C58.8248827,29.4440961 58.7694615,29.347261 58.7848075,29.2973633 C58.8078265,29.2225167 58.5597796,28.9851423 58.4458008,29.090053 C58.331822,29.1949637 58.3176158,29.5991211 58.1924644,29.7574637 C58.0673131,29.9158064 57.8758371,30.035505 57.5794503,30.0899135 C57.2830636,30.144322 56.6370675,30.4323722 56.3345424,30.8423719 C56.132859,31.1157051 55.8392392,31.4372277 55.453683,31.8069398 Z" id="路径-439" fill="#2B2829"></path>
                <path d="M57.8250868,32.3587963 C58.5794994,32.6250723 61.6820474,34.2829138 62.6006808,34.8447627 L64.4689788,36.0100919 L64.4743652,36.0471191 L68.1080322,38.2550049 C68.3894958,38.4138794 68.6474533,38.5456314 68.8819046,38.6502609 L69.4717686,38.8931699 C70.0763721,39.1363086 71.1060303,39.5213379 71.8883057,39.5087891 L73.1690368,39.4788504 C73.9809485,39.4524385 74.8012751,39.4078036 75.0786743,39.3314819 C75.5145874,39.2115479 76.585144,38.5385742 77.0158691,38.4517822 C77.341801,38.3861063 77.7103355,38.5919482 77.9024734,38.8598821 C77.8811386,38.989893 77.8487909,39.0711154 77.8046875,39.1077112 C77.6827257,39.208912 74.2400897,40.343316 72.8134404,40.4343171 C71.3867911,40.5253183 69.6699219,39.9374277 67.9968171,38.9341001 L61.4685816,34.9552405 L59.3604215,33.7818165 C58.5340633,33.3314127 57.5799833,32.9030736 57.0078125,32.7600446 C56.4356417,32.6170157 55.4476663,32.5525049 54.788365,32.7998744 C53.8818256,33.1400075 53.2641498,33.7260303 52.606236,34.7819475 L51.4531221,36.1835432 C51.3869648,36.2853153 51.3395466,36.3518413 51.3061241,36.3871108 L51.2771912,36.4121094 C51.1808864,36.5064639 51.1287115,36.4374535 51.1206665,36.2050781 C51.1126215,35.9727028 51.431607,35.4361359 52.0776232,34.5953776 L52.6003674,33.8459744 C52.8996577,33.4277525 53.1005362,33.1722909 53.2030029,33.0795898 C53.4751363,32.8333922 54.3012638,32.4231658 54.6999323,32.1790952 L54.6420718,32.1911169 C55.2038484,32.0493345 57.0706742,32.0925203 57.8250868,32.3587963 Z" id="路径" fill="#0A0606"></path>
                <path d="M66.9661255,37.6014404 L67.0361255,37.6034404 L68.1080322,38.2550049 C68.3894958,38.4138794 68.6474533,38.5456314 68.8819046,38.6502609 L69.4717686,38.8931699 C70.0763721,39.1363086 71.1060303,39.5213379 71.8883057,39.5087891 L73.1690368,39.4788504 C73.9809485,39.4524385 74.8012751,39.4078036 75.0786743,39.3314819 C75.5145874,39.2115479 76.585144,38.5385742 77.0158691,38.4517822 C77.3129424,38.3919214 77.6454081,38.5576256 77.8474401,38.7903179 C77.7135763,38.931773 77.4131626,39.0401598 77.1161104,39.1342619 L76.1520437,39.4310806 C75.2755451,39.6898492 73.8907819,40.0547398 72.9863281,40.0420532 C71.7200928,40.024292 70.250061,39.7371216 68.7582397,38.8006592 L67.66754,38.1013259 C67.3111499,37.8653861 67.0773451,37.6987576 66.9661255,37.6014404 Z" id="路径" fill="#4C4A4A"></path>
                <path d="M57.8250868,32.3587963 C58.5794994,32.6250723 61.6820474,34.2829138 62.6006808,34.8447627 L64.4689788,36.0100919 L64.4743652,36.0471191 L68.1080322,38.2550049 C68.3894958,38.4138794 68.6474533,38.5456314 68.8819046,38.6502609 L69.4717686,38.8931699 C70.0763721,39.1363086 71.1060303,39.5213379 71.8883057,39.5087891 L73.1690368,39.4788504 L73.875072,39.4504 C74.2150663,39.4334551 74.5249356,39.4121719 74.7570248,39.3853867 L73.574273,39.5692139 C72.8229766,39.6777581 72.2926544,39.7335701 71.9833065,39.7366498 L71.470531,39.7196159 C70.8502287,39.6833929 69.8908226,39.5064319 67.6566772,38.1960449 L64.2625873,36.1703403 L64.2625873,36.1703403 L60.9222601,34.1290534 C60.1162727,33.6416127 58.2063868,32.5344686 57.2346802,32.364563 C56.1134802,32.1685181 55.047734,32.1936035 54.3266602,32.5077515 C53.9250983,32.6826986 53.4535728,32.9883547 52.9120837,33.4247195 L53.0844121,33.207027 C53.1328517,33.1496597 53.1723351,33.1073349 53.2030029,33.0795898 C53.4362601,32.8685633 54.0765333,32.5370258 54.5057648,32.292907 L54.6920372,32.1816355 L54.8473388,32.1541693 C55.5660894,32.0602025 57.1461155,32.1191479 57.8250868,32.3587963 Z" id="路径" fill="#8F8F8F"></path>
                <path d="M73.6125488,46.4503174 C74.3142904,45.8400532 75.0681559,45.203131 75.8741455,44.5395508 C77.0831299,43.5441804 78.7700376,42.698423 79.1085069,42.6143663 C79.4469763,42.5303096 79.6963976,43.2893519 79.7685185,43.6653646 C79.8406395,44.0413773 80.1900318,45.2617188 80.1666667,45.385706 C80.1433015,45.5096933 80.041305,45.7811777 79.7685185,45.8712384 C79.4957321,45.9612992 78.0238715,46.9835069 77.6885127,47.3531539 C77.4649402,47.5995853 77.2801224,47.8252267 77.1340594,48.0300781 L73.6125488,46.4503174 Z" id="路径-433" fill="#202020"></path>
                <polygon id="路径-443" fill="#7A7A7A" points="76.8901674 47.4636799 79.8575439 45.5538088 77.269165 47.4636799"></polygon>
                <path d="M74.0548096,46.4724059 C74.1325684,46.4420166 76.0925293,44.1795381 79.0354004,42.8594224 C77.947998,43.5343018 75.6010268,45.0750258 74.4014045,46.5766975 C74.1134033,46.7628174 73.9770508,46.5027952 74.0548096,46.4724059 Z" id="路径-442" fill="#8F8F8F"></path>
                <path d="M79.465922,43.5118241 L79.8187298,43.8901487 L80.0241016,44.7017719 L80.0241016,44.7017719 L79.728,44.382 L79.8269757,44.7454116 L79.5035854,44.949773 L79.158,44.652 L79.304436,45.0967779 L78.9851696,45.311754 L78.556,44.948 L78.7084014,45.5005429 L78.3834504,45.7039083 L77.882,45.262 L77.945227,45.9784261 L77.6221001,46.1525015 L77.162,45.79 L77.3288019,46.4978312 L77.0151824,46.7042234 L76.388,46.242 L76.4590036,47.2499295 C76.4646959,47.3325764 76.4193309,47.4069479 76.3498038,47.4421702 L76.2732187,47.4631992 C76.1905718,47.4688915 76.1162002,47.4235265 76.080978,47.3539994 L76.059949,47.2774143 L75.9607685,45.8374031 L76.2791727,45.6628246 L76.814,46.058 L76.6437062,45.3252715 L76.9623028,45.1226799 L77.506,45.552 L77.4431658,44.8019385 L77.7746132,44.6347991 L78.142,44.958 L77.9976533,44.4301493 L78.3196574,44.2242393 L78.704,44.55 L78.554939,44.0951507 L78.8754604,43.881246 L79.268,44.218 L79.1263586,43.7005985 L79.465922,43.5118241 Z" id="路径" fill="#732525"></path>
                <path d="M41.8543664,48.9901434 C41.9433879,49.0555339 41.9625445,49.1807096 41.897154,49.269731 L39.2400363,52.889272 C38.8907384,53.36725 36.6665062,56.0177204 35.8617027,56.904681 L35.7206438,57.0573934 C34.5529032,58.2900946 34.0043668,59.185829 34.4045064,59.5605634 C34.8562215,59.9835988 35.7310392,60.9599652 37.0355435,62.4959676 C37.1070458,62.5801588 37.0967595,62.7063733 37.0125683,62.7778756 C36.9283771,62.849378 36.8021626,62.8390916 36.7306602,62.7549004 L35.5784899,61.4159859 C34.9052662,60.6468832 34.4221473,60.1251061 34.1310839,59.8525226 C33.494684,59.2565282 33.9823516,58.3579895 35.1811369,57.0495012 L35.4302532,56.7823057 C36.0205503,56.1591708 38.2502792,53.5110103 38.8251488,52.7740136 L41.5747788,49.032931 C41.6401693,48.9439096 41.765345,48.9247529 41.8543664,48.9901434 Z" id="路径" fill="#D0D0D0" fill-rule="nonzero"></path>
                <path d="M51.4550297,36.4962178 C51.5620659,36.5106965 51.6108619,36.573782 51.6014178,36.6854745 C51.5688657,37.0704572 50.8415799,38.0564236 50.7106481,38.1652199 L50.3294544,38.4499562 L50.3294544,38.4499562 C49.7435303,38.4555257 49.4352214,38.3899333 49.4084473,38.2550049 C49.3682861,38.0526123 49.5628662,37.4470215 49.8947754,37.3311768 L51.2771912,36.8613281 L51.4550297,36.4962178 Z M62.0922852,22.4609375 C62.9659065,22.8669577 62.6076398,24.2703287 61.8166405,25.5141199 L61.6634521,25.7451782 C61.0670573,26.6088664 60.3458659,27.7913005 59.4998779,29.2924805 C59.4600667,29.3602539 59.4933936,29.4396549 59.5998584,29.5306836 L59.6934204,29.6011353 C59.4925222,29.550433 59.2130913,29.3911712 58.8551279,29.1233497 L58.5752313,28.9043142 L58.7374268,28.9050293 C58.9318848,28.5067952 59.0437826,28.0807292 59.0731201,27.6268311 L59.1327653,26.8368931 L59.192539,26.1994431 C59.3088631,25.0644831 59.5102038,23.6483561 59.8192139,23.1743164 C60.3012695,22.4348145 61.1640625,22.029541 62.0922852,22.4609375 Z M60.7951694,23.0575927 C60.2160027,23.3922738 59.9515599,25.1393435 59.858471,26.1028433 L59.8386857,26.3261231 C59.7676997,27.2119161 59.4054238,28.4717975 59.4216291,28.5127354 C59.4348881,28.5462299 59.8605761,27.8105404 60.1303795,27.2711069 L60.2809178,26.9511542 C60.4916978,26.4567255 61.4781927,25.2319864 61.7840637,24.1114929 C62.0899347,22.9909995 61.4225999,22.6950215 60.7951694,23.0575927 Z" id="形状" fill="#970808"></path>
                <path d="M52.551794,37.7216435 L52.7734741,37.3621368 C53.3002388,36.5575477 54.013656,36.0298365 54.605341,36.7431647 L54.732128,36.915238 C55.450444,38.0011755 57.0479736,38.8765869 58.6040039,39.84729 C60.1600342,40.8179932 68.4324951,42.6979212 70.0418701,43.6351318 C71.1147868,44.2599389 72.1690538,45.1585055 72.7089844,46.194458 L70.7944637,46.3227202 C69.6948624,46.3285982 68.6403698,46.4728342 67.7163086,46.4552002 C67.4526987,46.2058854 66.7563565,45.9204635 65.490719,45.4856544 L61.9992406,44.3109406 C59.8248366,43.5684593 57.1915945,42.6426675 56.2128364,42.2150735 C55.2884537,41.8112348 54.1491307,40.9684011 52.7948676,39.6865724 C52.7606277,42.6468347 52.2831764,44.5025042 51.2771912,45.5538088 C49.7682133,47.1307657 46.6456887,47.9344618 46.2722801,48.0300781 L44.5826764,48.4487508 C44.5413898,48.4578275 44.5109954,48.4639596 44.494213,48.4664352 C44.3431713,48.4887153 42.3706597,49.6267361 41.8674769,50.0215567 L41.6111568,50.2561492 C40.7095157,51.1336038 38.2079154,53.8440233 37.5865162,54.0186632 C36.8874421,54.2151331 35.60489,53.9959491 34.3496817,53.8660301 C33.0944734,53.7361111 28.4646991,53.8365162 27.5931713,53.7782118 C27.1840033,53.7508388 27.155491,53.4962827 27.5076343,53.0145433 L28.4352892,52.5693115 C28.6647633,52.4564263 28.8993462,52.3391656 29.1390381,52.2175293 L29.3841553,51.7333984 L29.8295593,51.6489944 C30.1516724,51.5786641 30.3511429,51.5083497 30.4279709,51.4380512 L30.4593506,51.395874 C30.526001,51.2271729 31.512207,50.5601807 32.0379639,50.3508301 C32.2090615,50.2827009 32.4536348,50.2100534 32.7716838,50.1328876 L34.7469618,51.3373843 L40.3948206,48.4664352 L47.5187012,45.77011 L50.5109954,43.2751736 L51.0168514,41.7084859 C51.7064635,39.6206262 52.218111,38.2916787 52.551794,37.7216435 Z" id="路径" fill="#7A7276"></path>
                <path d="M52.551794,37.7216435 L52.7734741,37.3621368 C53.3002388,36.5575477 53.8906136,36.0379202 54.4822987,36.7512485 L54.6090856,36.9233218 C55.3274016,38.0092593 57.1241319,39.1657986 58.6109664,40.0212674 C60.0978009,40.8767361 68.4810475,42.8767361 70.0904225,43.8139468 C71.1633391,44.4387539 71.9697627,45.2691337 72.5096933,46.3050861 L70.7944637,46.3227202 C69.6948624,46.3285982 68.6830311,46.3227202 67.7589699,46.3050861 C67.49536,46.0557714 66.7990178,45.7703495 65.5333803,45.3355403 L62.041902,44.1608265 C59.8674979,43.4183452 57.2342559,42.4925534 56.2554977,42.0649595 C55.331115,41.6611208 54.1917921,40.818287 52.8375289,39.5364583 C52.803289,42.4967207 52.2831764,44.5025042 51.2771912,45.5538088 C49.7682133,47.1307657 46.6456887,47.9344618 46.2722801,48.0300781 L44.5826764,48.4487508 C44.5413898,48.4578275 44.5109954,48.4639596 44.494213,48.4664352 C44.3431713,48.4887153 42.3706597,49.6267361 41.8674769,50.0215567 L41.6111568,50.2561492 C40.7095157,51.1336038 38.2079154,53.8440233 37.5865162,54.0186632 C36.8874421,54.2151331 35.60489,53.9959491 34.3496817,53.8660301 C33.0944734,53.7361111 28.4646991,53.8365162 27.5931713,53.7782118 C27.1840033,53.7508388 27.155491,53.4962827 27.5076343,53.0145433 L28.4352892,52.5693115 C28.6647633,52.4564263 28.8993462,52.3391656 29.1390381,52.2175293 L29.3841553,51.7333984 L29.8295593,51.6489944 C30.1516724,51.5786641 30.3511429,51.5083497 30.4279709,51.4380512 L30.4593506,51.395874 C30.526001,51.2271729 31.512207,50.5601807 32.0379639,50.3508301 C32.2090615,50.2827009 32.4536348,50.2100534 32.7716838,50.1328876 L34.7469618,51.3373843 L40.3948206,48.4664352 L47.5187012,45.77011 L50.5109954,43.2751736 L51.0168514,41.7084859 C51.7064635,39.6206262 52.218111,38.2916787 52.551794,37.7216435 Z" id="路径" fill="#C9C4C8"></path>
                <path d="M33.042712,50.3014594 L34.7469618,51.3373843 L40.3948206,48.4664352 L47.5187012,45.77011 L50.5109954,43.2751736 L51.0168514,41.7084859 C51.3293469,40.7623789 51.6052989,39.9721084 51.8447072,39.3376746 L51.881043,39.3303223 L52.8008238,40.6207141 C52.6629754,42.9919877 52.1550979,44.6363526 51.2771912,45.5538088 C49.7682133,47.1307657 46.6456887,47.9344618 46.2722801,48.0300781 L44.494213,48.4664352 C44.3431713,48.4887153 42.3706597,49.6267361 41.8674769,50.0215567 L41.6111568,50.2561492 L41.0034659,50.8679209 C39.8851509,52.0112535 38.087302,53.5499045 37.5755615,53.6937256 C36.9541623,53.8683655 35.8538187,53.8531611 34.7393799,53.7255859 C33.5448201,53.6956173 32.5821736,53.6794226 31.8514404,53.677002 C31.5240811,53.5769131 31.1676561,53.58981 30.9672852,53.4778923 C29.7549683,52.8007498 31.5169794,51.9589407 32.0206574,51.5103855 L32.0891113,51.4429103 C32.1751579,51.3458254 32.4930248,50.9653418 33.042712,50.3014594 Z" id="路径" fill="#5A5758"></path>
                <path d="M54.1780961,33.4081308 C54.7478299,33.3874421 55.0633681,33.900897 55.0474537,34.1950231 C55.0315394,34.4891493 54.5833333,35.760706 54.3993056,36.0936053 L54.0654338,36.6002506 C53.62732,37.2754552 52.9333623,38.5041281 52.8690683,40.0703125 C52.7813947,42.2060185 52.3845486,44.0597512 51.0193866,45.5538088 C49.6542245,47.0478664 46.6047454,47.6511863 45.4072627,48.0243056 C44.2097801,48.3974248 42.5462963,49.339265 41.9729456,49.7042824 L41.6574013,49.9231192 C40.6074396,50.6762753 37.763191,52.8327585 36.8139468,53.1941158 C35.7381366,53.6036541 32.1263021,53.4751157 31.7579572,53.3864294 C31.4305395,53.3075971 31.5488237,52.6191397 31.5597436,52.3403125 L31.5577257,52.2569444 C31.5300926,52.0763889 31.6757812,51.3787616 31.5577257,51.396412 C31.4396701,51.4140625 29.6187789,52.1828704 29.4781539,52.2569444 C29.4122004,52.2916854 29.3324037,52.2134611 29.2387639,52.0222716 L29.3841553,51.7333984 L29.8295593,51.6489944 C30.1516724,51.5786641 30.3511429,51.5083497 30.4279709,51.4380512 L30.4593506,51.395874 C30.526001,51.2271729 31.512207,50.5601807 32.0379639,50.3508301 C32.3884684,50.211263 33.0473226,50.0527344 34.0145264,49.8752441 L35.1879578,49.0911137 L35.9252344,48.6163394 C36.83875,48.039861 37.4741862,47.6895984 37.831543,47.5655518 C38.4000651,47.3682048 39.350057,47.15507 40.6815186,46.9261475 C41.1888428,46.0940348 41.7188314,45.535848 42.2714844,45.2515869 L44.21082,44.2379422 L44.6229711,44.0375553 C44.7448018,43.9811808 44.848938,43.9366048 44.9289551,43.907959 C45.2490234,43.7933757 45.6772054,43.7307536 46.213501,43.7200928 L47.3318295,41.790691 L47.6451026,41.2817188 C47.6613368,41.2572906 47.6751031,41.2373589 47.6864014,41.2219238 C47.8897705,40.9440918 48.8115234,40.8658447 48.9368896,40.7390137 C49.0622559,40.6121826 49.3618164,39.7806396 49.4084473,39.5087891 L49.6185231,39.2345255 L50.0509865,38.7136098 L50.0509865,38.7136098 L50.333374,38.4517822 L50.333374,38.4517822 L50.2734252,38.4514626 L50.6721644,37.9719329 L50.6721644,37.9719329 C50.9678819,37.606385 51.2809772,37.0081561 51.6114502,36.1772461 C51.841934,35.6638274 52.0767747,35.2585359 52.3159722,34.9613715 L52.5927164,34.6306539 C53.0336516,34.1235475 53.722309,33.4246817 54.1780961,33.4081308 Z" id="路径" fill="#514E4E"></path>
                <path d="M51.057581,38.1208044 C51.4188232,38.2413194 51.2437066,41.1344039 50.7875434,42.4495804 C50.3313802,43.7647569 47.5365307,45.3148872 45.6853299,46.2271412 C43.8341291,47.1393953 41.4184751,47.8509861 39.7775608,48.9513177 C38.1366464,50.0516493 34.860026,51.3372396 34.3396267,51.4283131 C33.9926939,51.4890287 33.5992477,51.3603395 33.1592882,51.0422454 C32.7182677,50.9016686 32.4740307,50.791739 32.426577,50.7124566 C32.3553964,50.593533 34.1579138,50.0750868 34.6054688,50.0586661 C34.9038387,50.0477189 35.4938272,50.0895062 36.375434,50.1840278 C36.7679398,50.0100309 36.9769001,49.8094859 37.0023148,49.5823929 L37.0428565,49.0457419 C37.0549074,48.9478819 37.0751736,48.8672164 37.1160301,48.8096065 C37.2181713,48.6655816 38.3725134,47.6571904 38.8240967,47.5054977 C39.1251522,47.4043692 39.759838,47.3055556 40.7281539,47.2090567 L40.7281539,47.5054977 C39.7693866,47.5182774 39.1817371,47.6066985 38.9652054,47.770761 L38.3074832,48.2712031 C37.9074797,48.5884983 37.4950231,48.9531684 37.4942853,49.125651 C37.4930556,49.4131221 37.6780237,49.5139612 38.2320602,49.2497106 L40.1295565,48.2721173 C40.914815,47.8612015 41.6501123,47.4739222 41.7272859,47.4363426 C41.8816331,47.3611834 41.7830584,46.6562516 41.7272859,46.3050861 C41.6715133,45.9539207 42.2629485,45.4815538 42.4213686,45.4282407 C42.5797888,45.3749277 42.1925353,45.7709057 42.1433959,45.9280237 C42.0942564,46.0851418 42.2382089,46.377027 42.4213686,46.3050861 C42.6045284,46.2331453 43.3577836,45.5277625 43.4876302,45.2554177 C43.6174769,44.9830729 43.7941985,44.744647 44.2677951,44.5706019 C44.7413918,44.3965567 45.9116753,44.6757089 46.1427951,44.812717 C46.3739149,44.9497251 46.2463831,45.1642072 46.1427951,45.1320168 L45.8325832,45.0152365 C45.5176183,44.9009372 45.0455247,44.753641 44.771412,44.812717 C44.3602431,44.901331 43.9521846,45.1438802 43.7757523,45.4282407 L43.5547097,45.7919429 C43.4368037,46.0011924 43.3561017,46.1938657 43.457827,46.2271412 C43.6205874,46.2803819 45.4388744,45.4874056 45.8436053,45.3558304 L46.2071962,45.255606 C46.7171144,45.1258119 47.4442387,44.9570312 47.5187012,44.812717 C47.6144387,44.6271701 46.989728,44.6847512 46.8399161,44.5706019 C46.6901042,44.4564525 46.4516782,43.79239 46.6283275,43.9696181 C46.8049769,44.1468461 47.1942274,44.3354311 47.203559,44.1321615 L47.2333323,43.8164705 C47.2706302,43.5655863 47.3504684,43.302903 47.5187012,43.4427082 C47.7430115,43.6291152 48.1883739,43.401256 48.191956,43.6074769 L48.1712963,43.7068142 C48.0394242,44.0758102 48.5165654,44.2532552 48.875651,43.9696181 C49.1948383,43.7174961 48.9687009,43.6991418 48.7277474,43.5187315 L48.2636839,43.1081772 C48.0422103,42.8965138 47.8445186,42.6424154 47.9034288,42.3488137 C47.9976852,41.8790509 48.3030237,41.9603588 48.6283275,41.989728 C48.9536314,42.0190972 49.0533131,41.8927228 48.6283275,41.7352431 L48.2982799,41.6065097 C47.9777335,41.4674208 47.7481192,41.2980686 48.1712963,41.1056858 C48.6728395,40.8776765 48.5893347,40.9874016 48.7867576,41.0747025 L48.875651,41.1056858 C49.191985,41.1912616 49.9375715,41.5268374 49.8865013,41.6323785 L49.826528,41.7996146 C49.8005104,41.8537864 49.7605438,41.8942978 49.6828605,41.8848877 L49.5917245,41.8574942 C49.3456308,41.7484809 49.1295573,41.8304398 49.129485,41.989728 C49.1294126,42.1490162 49.6173322,42.4133391 49.5917245,42.6757089 L49.5751297,42.9110913 C49.5614569,43.0178344 49.5245943,43.0694831 49.3857044,42.9907722 L49.2894965,42.9273003 C48.9603588,42.6863426 48.6644965,42.6531395 48.7579572,42.9273003 C48.8514178,43.2014612 49.1723814,43.3841146 49.2894965,43.3397714 L49.4438793,43.2667496 C49.6521855,43.151444 49.9843931,42.9017289 50.0996817,42.4495804 L50.5701172,40.7280199 C50.6649486,40.3752971 50.7438267,40.0667735 50.7742854,39.9025193 L50.8106026,39.4692454 C50.8283948,39.1552799 50.824349,38.7994213 50.6479311,38.9338108 C50.3959057,39.1257957 49.823423,39.8055556 49.5917245,39.8079427 C49.5027184,39.8088597 49.4187565,39.7631492 49.3627439,39.6878782 L49.4084473,39.5087891 L49.4084473,39.5087891 L49.6185231,39.2345255 L50.0509865,38.7136098 L50.333374,38.4517822 L50.2734252,38.4514626 L50.3383505,38.3741054 C50.6260114,38.1916238 50.9041425,38.0696153 51.057581,38.1208044 Z" id="路径" fill="#2F2F2F"></path>
                <path d="M54.1780961,33.4081308 C54.7478299,33.3874421 55.0633681,33.900897 55.0474537,34.1950231 C55.0315394,34.4891493 54.5833333,35.760706 54.3993056,36.0936053 L54.0654338,36.6002506 C53.62732,37.2754552 52.9333623,38.5041281 52.8690683,40.0703125 C52.7813947,42.2060185 52.3845486,44.0597512 51.0193866,45.5538088 C49.6542245,47.0478664 46.6047454,47.6511863 45.4072627,48.0243056 C44.2097801,48.3974248 42.5462963,49.339265 41.9729456,49.7042824 L41.6574013,49.9231192 L39.3901288,51.5693205 C38.3654974,52.2980544 37.3202104,53.0013919 36.8139468,53.1941158 C35.7381366,53.6036541 32.1263021,53.4751157 31.7579572,53.3864294 C31.4345651,53.3085663 30.8485056,53.0160308 30.8615935,52.730835 C30.8706159,52.5407044 31.1921828,52.2095683 31.8262939,51.7374268 C32.464255,51.155258 33.183423,50.9638435 33.6334754,50.7796514 L33.850672,50.7041377 C34.7339396,50.4555212 38.3801726,48.6630712 39.6736423,48.120994 L39.8994502,48.0300781 C40.8602345,47.6657127 44.3897745,46.011176 46.1371642,45.3643312 L46.442853,45.2554177 C48.0447049,44.7115162 50.2297454,43.1552373 50.2725694,42.0914352 L50.3232719,40.7960171 C50.3717954,39.7975763 50.466157,38.6318467 50.7047246,37.9130387 L50.6721644,37.9719329 C50.9678819,37.606385 51.2809772,37.0081561 51.6114502,36.1772461 C51.841934,35.6638274 52.0767747,35.2585359 52.3159722,34.9613715 L52.5927164,34.6306539 C53.0336516,34.1235475 53.722309,33.4246817 54.1780961,33.4081308 Z" id="路径" fill="#222327"></path>
                <path d="M15.7488426,57.7939815 C16.4173832,58.0904982 19.4042816,58.0438608 22.6470507,57.5229687 L23.1351273,57.4412616 C26.5614873,56.844184 29.7799479,56.6258358 32.504485,58.6929977 C34.320843,60.0711056 35.7573302,61.3939741 36.8139468,62.661603 L33.6310764,65.2300186 L32.4157267,65.6932585 L26.7541504,64.2831421 L18.0616455,66.3226708 L17.0391533,65.7656895 L16.0574894,65.2099872 C13.4136251,63.6799501 11.9386514,62.5277604 11.6325684,61.753418 C11.2562663,60.8014323 11.090332,59.8804118 11.1347656,58.9903564 C11.9796367,57.8566314 13.0234901,56.964932 14.2663256,56.3152585 C14.8827719,57.1371947 15.3760625,57.6286429 15.7488426,57.7939815 Z" id="路径" fill="#CAC6CC"></path>
                <path d="M51.881043,63.4411621 L59.3614502,61.1883545 L65.4112549,48.4179687 C58.5123291,45.3329264 52.476237,45.6262614 47.3029785,49.2979736 C42.1297201,52.9696859 39.3034261,57.8330892 38.8240967,63.8881836 L51.881043,63.4411621 Z" id="路径-432" fill="#1D1A21"></path>
                <path d="M61.4931261,49.4595658 L61.1650649,49.3539573 L61.036,48.782 L60.6851238,49.246977 L60.3414715,49.2041776 L60.022,48.452 L59.6213405,49.0614285 L59.2775977,49.0448474 L58.948,48.422 L58.6088323,49.0469451 L58.2537563,49.0396854 L57.94,48.404 L57.6114619,49.0432782 L57.2684635,49.0637667 L56.83,48.42 L56.5878124,49.0258135 L56.2323203,49.0568612 L55.828,48.406 L55.5096919,49.0409775 L55.16612,49.0646426 L54.75,48.458 L54.5385054,49.0216594 L54.1884004,49.0673741 L53.766,48.476 L53.5491542,49.1850126 L53.2132515,49.2642907 L52.688,48.714 L52.5241803,49.3594494 L52.1877422,49.4503459 L51.752,49.008 L51.6712314,49.71758 L51.350879,49.8533436 L50.648,49.316 L50.5257903,50.1155708 L50.1822331,50.2219053 L49.73,49.74 L49.6004166,50.5123704 L49.2865247,50.641352 L48.822,50.306 L48.8233259,51.0930525 L48.5025195,51.2524445 L48.02,50.886 L48.0351981,51.5591068 L47.7413797,51.7398052 L47.15,51.424 L47.1506138,52.2437221 L46.8663449,52.4251022 L46.416,52.216 L46.4176339,52.8182199 L46.1701364,53.012498 L45.566,52.864 L45.6941233,53.5712263 L45.4379067,53.7979656 L44.826,53.606 L45.0894178,54.3408834 L44.8400231,54.5986527 L44.238,54.404 L44.4390642,55.0360372 L44.2484654,55.2966349 L43.592,55.296 L43.8783684,55.9614976 L43.7023693,56.2403072 L43.004,56.268 L43.4624002,57.062922 L43.2890484,57.3626674 L42.478,57.362 L42.8467037,57.9956926 L42.6738281,58.2962612 L42.158,58.296 L42.5132024,59.0184774 L42.3336556,59.3065848 L41.61,59.306 L42.1027869,60.0514882 L41.9359798,60.3618304 L41.518,60.36 L41.9970837,60.9904284 L41.8378683,61.3114676 L40.934,61.31 L41.2771783,61.7781644 C41.326188,61.8449549 41.3276299,61.9320584 41.2877181,61.9990038 L41.2342519,62.0577307 C41.1674614,62.1067405 41.0803579,62.1081823 41.0134125,62.0682705 L40.9546855,62.0148043 L40.3786532,61.2297876 L40.5398996,60.9114676 L41.434,60.91 L40.9567166,60.2828696 L41.1159319,59.9618304 L41.562,59.96 L41.0711326,59.216927 L41.2379397,58.9065848 L42.012,58.906 L41.6583215,58.1843686 L41.8378683,57.8962612 L42.326,57.896 L41.9578443,57.2632359 L42.1307199,56.9626674 L42.942,56.962 L42.4929428,56.1801026 L42.6585403,55.8805075 L43.396,55.852 L43.105295,55.1755949 L43.2890484,54.8966349 L43.974,54.896 L43.7400652,54.1576475 L43.9917291,53.9066002 L44.576,54.092 L44.3158556,53.3651713 L44.5636279,53.1068893 L45.24,53.318 L45.1169816,52.6330148 L45.3612531,52.4029596 L46.016,52.562 L46.0176339,51.9031808 L46.3019028,51.7218007 L46.75,51.93 L46.7506138,51.0930525 L47.0444741,50.9164448 L47.628,51.226 L47.6130999,50.4830249 L47.9338644,50.3195421 L48.422,50.688 L48.4233259,49.9185268 L48.7400326,49.7561089 L49.26,50.13 L49.4042378,49.2766921 L49.7473149,49.1733235 L50.192,49.648 L50.3052336,48.9208474 L50.6245742,48.792588 L51.312,49.318 L51.4038894,48.5469279 L51.7451814,48.4296764 L52.224,48.916 L52.3898978,48.265132 L52.7284494,48.176418 L53.266,48.74 L53.5037133,47.9713211 L53.8577707,47.9140217 L54.296,48.528 L54.5101832,47.9597364 L54.8622003,47.9167532 L55.304,48.558 L55.6306541,47.9075236 L55.9793148,47.8916398 L56.364,48.508 L56.5995481,47.9226876 L56.9505504,47.8847344 L57.41,48.562 L57.7684058,47.8702325 L58.125429,47.8738254 L58.44,48.514 L58.7754142,47.9043726 L59.1278541,47.9064703 L59.472,48.558 L59.894982,47.9199673 L60.2461379,47.9521561 L60.574,48.73 L60.9779599,48.1974984 L61.3325548,48.2743909 L61.48,48.934 L62.0594839,48.4204565 L62.3923518,48.5652081 L62.41,49.318 L62.9236355,48.961951 L63.2331949,49.0841814 L63.388,49.808 L64.1263696,49.5094119 C64.2030828,49.4781389 64.2879162,49.497948 64.3431294,49.5529583 L64.3870714,49.6191141 C64.4183445,49.6958273 64.3985353,49.7806607 64.3435251,49.8358739 L64.2773692,49.8798159 L63.3195009,50.2703024 L63.0484768,50.1271747 L62.904,49.46 L62.3328003,49.8589185 L62.0188201,49.6992998 L62.002,49.004 L61.4931261,49.4595658 Z" id="路径" fill="#722323" fill-rule="nonzero"></path>
                <path d="M49.3242188,51.6414795 C53.1208147,48.9870896 57.9727434,48.843128 63.8800049,51.2095947 L63.8800049,51.2095947 L59.3614502,61.1883545 L63.5467529,51.4475098 C57.8624268,49.1108398 53.0514323,49.3302002 49.1137695,52.1055908 C47.2808031,53.3975242 45.8113554,54.9319817 44.7054264,56.7089634 C45.8742737,54.6664671 47.413548,52.9773249 49.3242188,51.6414795 Z" id="形状结合" fill="#696372"></path>
                <path d="M64.9184382,48.4465332 C61.4681741,46.9654948 58.2481283,46.3177897 55.2583008,46.503418 C52.2684733,46.6890462 49.3651123,47.8578695 46.5482178,50.0098877 C49.9455973,47.6954346 53.1558431,46.585734 56.1789551,46.6807861 C59.2020671,46.7758382 62.1152281,47.4411621 64.9184382,48.6767578 L64.9184382,48.4465332 Z" id="路径-440" fill="#9C98A2"></path>
                <path d="M51.881043,63.4411621 L59.3614502,61.1883545 L63.5778809,51.9211426 C57.9927223,49.5067429 53.301845,49.626738 49.505249,52.2811279 C45.708653,54.9355178 43.3181219,58.7716355 42.3336556,63.789481 L51.881043,63.4411621 Z" id="路径-432" fill="#4D1414"></path>
                <path d="M33.1112061,64.2541248 C34.2638753,63.3974024 34.9912516,62.8594752 35.293335,62.6403433 C35.74646,62.3116455 37.9678955,60.9077148 39.215332,61.0284424 C40.4627686,61.1491699 49.4797363,62.1345215 49.9329834,62.1333008 C50.3387451,62.0406087 50.9521891,61.8733317 51.7733154,61.6314697 C52.0875776,61.1522311 52.4512657,60.8340344 52.8643799,60.6768799 C53.277494,60.5197253 54.9568967,60.0622465 57.9025879,59.3044434 C60.5966257,54.1545549 62.5739479,51.0015432 63.8345543,49.8454083 C63.2278104,51.5943028 61.5377492,55.2189174 58.7643707,60.7192523 L50.8676758,64.2831421 C42.6049805,63.201861 38.4175212,62.6645425 38.3052979,62.6711864 C38.1930745,62.6778304 36.6124268,63.4731038 33.5633545,65.0570068 L33.1112061,64.2541248 Z" id="路径-445" fill="#230E0E"></path>
                <path d="M80.4472656,57.06427 C80.5678711,56.8483276 80.9224243,55.8851318 81.0283203,54.7721558 C81.0989176,54.0301717 81.0989176,52.542277 81.0283203,50.3084717 L80.764267,50.1625366 L80.8485107,49.9330444 L81.0283203,49.8381348 C80.9791056,48.4140625 80.8910878,47.667745 80.764267,47.5991821 C80.5740356,47.4963379 77.6935425,46.9569702 77.0558472,46.7369995 C76.4181519,46.5170288 71.1795044,45.2963257 69.1026611,45.6029053 C67.0258179,45.9094849 66.1690063,45.800293 62.9255981,51.0414429 C60.763326,54.5355428 59.0127157,57.7998695 57.6737671,60.8344229 L72.5009766,57.369751 C77.718099,57.3100586 80.366862,57.2082316 80.4472656,57.06427 Z" id="路径-431" fill="#120F10"></path>
                <path d="M81.05663,51.1821645 L81.0558909,51.2864947 L81.0746388,52.239973 C81.0915488,53.4258287 81.0761093,54.2698896 81.0283203,54.7721558 C80.9933746,55.1394379 80.9313502,55.4904089 80.8595903,55.8035975 C80.7715753,55.8565446 80.6816155,55.888109 80.5885143,55.8961821 L80.3020813,55.8949172 C78.8501919,55.8351336 73.2381014,55.2094866 71.9725942,55.3624394 L71.4290485,55.4418243 C69.7779405,55.709123 66.6787652,56.3591037 66.0952148,55.8999023 C65.4387207,55.3833008 69.5705566,51.112793 71.1181641,50.2856445 C72.5012774,49.5464131 79.2741582,50.846703 81.05663,51.1821645 Z M73.8799101,46.5766975 L76.238971,47.093364 C77.4411086,47.362642 79.0004221,47.7168892 80.9169116,48.1561055 L80.9608606,48.5777332 C80.980871,48.8187708 80.9980073,49.1050025 81.0125925,49.4357914 L81.3475752,49.5365242 C78.4013899,48.6372506 75.7526664,47.9463025 73.4014045,47.4636799 L72.3650081,47.2597033 C69.9584621,46.8111792 68.868104,46.8220297 67.5830809,47.2639765 L67.0551083,47.4636799 C65.3276367,48.168457 67.5390446,46.6189614 68.3542391,46.3050861 C69.1694336,45.9912109 71.9932186,46.1834243 73.8799101,46.5766975 Z" id="形状" fill="#282527"></path>
                <path d="M81.0812683,50.4212036 C79.7058353,50.1051158 78.3900989,49.8102227 77.1340594,49.5365242 C75.25,49.1259766 71.2444458,48.3909912 70.2642822,48.5076904 C69.2841187,48.6243896 68.6273804,48.7261963 67.4071045,49.7280884 C66.5935872,50.3960164 64.9781494,52.7571004 62.560791,56.8113403 C65.3506673,51.9107869 67.1436768,49.2728475 67.9398193,48.897522 C69.1340332,48.3345337 70.081541,47.9610534 71.9725942,48.2411468 C73.2332964,48.4278758 76.2695211,49.0347641 81.0812683,50.0618119 L81.0812683,50.4212036 Z" id="路径-438" fill="#312D30"></path>
                <path d="M81.0228211,49.8388265 L80.8485107,49.9330444 L80.7847257,50.1031834 L74.4653485,48.857745 C72.6992852,48.5261088 70.6953435,48.2131076 69.6100984,48.4534144 C68.2288773,48.7592593 66.9309896,49.3712384 65.0190972,52.5648148 C63.7445023,54.6938657 62.691695,56.5802951 61.8606754,58.224103 L69.697721,55.8805691 C70.8470075,55.545978 71.5059003,55.3644425 71.6743996,55.3359626 L71.7063079,55.3320313 C72.031684,55.3208912 79.8587201,56.1129919 80.167786,56.1092303 C80.4017746,56.1063825 80.8125367,55.1741152 81.0714311,53.9780312 C81.0621135,54.3020188 81.0479444,54.565905 81.0283203,54.7721558 C80.9224243,55.8851318 80.5678711,56.8483276 80.4472656,57.06427 C80.3848904,57.1759519 78.7768045,57.2622761 75.6230078,57.3232424 L74.4141456,57.2048205 C73.5645695,57.11712 72.627737,57.0119598 71.6041253,56.8896123 L60.9327257,59.3916377 L61.8513383,57.637275 C63.6981138,54.1364044 64.9589427,51.919832 65.6338252,50.9875579 L66.0859468,50.3764195 C67.0378903,49.1306932 67.8661555,48.3895544 69.6640625,48.0543981 C71.0295522,47.7998508 74.8158051,48.3946603 81.0228211,49.8388265 Z" id="路径" fill="#000000"></path>
                <path d="M13.7751465,61.2966309 C14.5440267,60.2644043 15.6617839,59.6750488 17.128418,59.5285645 C19.3283691,59.3088379 21.9938965,59.0166016 24.1156006,58.8352051 C26.2373047,58.6538086 28.5532227,58.7462158 31.4899902,60.9331055 C33.4478353,62.3910319 34.5996501,63.5077108 34.9454346,64.2831421 C34.1543376,64.9076945 33.444458,65.3146973 32.8157959,65.5041504 C31.8728027,65.7883301 28.3214111,63.7493896 26.7352295,64.5395508 C25.1490479,65.3297119 20.7285156,66.5935059 19.0301514,66.2711182 C17.8979085,66.056193 16.1462402,64.3980306 13.7751465,61.2966309 Z" id="路径-430" fill="#000000"></path>
                <path d="M84.5825195,62.87854 C84.458903,62.0342204 84.2104899,61.340861 83.8372803,60.7984619 C83.4640706,60.2560628 83.1027832,59.8920898 82.753418,59.706543 C80.2507324,60.0323079 77.8516846,60.2957357 75.5562744,60.4968262 C72.1131592,60.7984619 65.8681641,61.3881836 62.4417725,61.59729 C59.0153809,61.8063965 53.2762451,61.9012451 52.3977051,61.9012451 C51.519165,61.9012451 50.5897217,62.5012207 50.0300293,62.5012207 C49.4703369,62.5012207 39.6335449,61.2925415 38.9241943,61.2925415 C38.2148438,61.2925415 36.5672607,61.9344482 34.9279785,63.0649414 C33.2886963,64.1954346 32.4667969,64.5522461 29.68396,63.3232422 C26.901123,62.0942383 25.9375,62.8498535 24.1176758,63.5737305 C22.2978516,64.2976074 20.8834229,65.0716553 19.8465576,65.0716553 C19.1553141,65.0716553 18.5603434,64.8559977 18.0616455,64.4246826 C17.9419352,65.4983317 17.9419352,66.1676839 18.0616455,66.4327393 C18.2412109,66.8303223 19.2036133,68.8597412 20.3372803,68.8597412 C21.0930583,68.8597412 25.0109049,68.689209 32.0908203,68.3481445 L66.2056885,66.1802979 C77.7474365,64.8198649 83.6956787,64.0453288 84.050415,63.8566895 C84.4051514,63.6680501 84.5825195,63.3420003 84.5825195,62.87854 Z" id="#" fill="#DDDBE3"></path>
                <path d="M33.1112061,67.8474121 L29.7309673,68.4610762 L20.6666393,68.8544335 C20.5240474,68.857972 20.4142611,68.8597412 20.3372803,68.8597412 C19.2036133,68.8597412 18.2412109,66.8303223 18.0616455,66.4327393 C17.9419352,66.1676839 17.9419352,65.4983317 18.0616455,64.4246826 C18.5603434,64.8559977 19.1553141,65.0716553 19.8465576,65.0716553 C20.7891624,65.0716553 22.0438031,64.4319463 23.6313903,63.7717761 L25.1781583,63.1311392 C26.3408188,62.6537593 27.3444229,62.3896219 29.2592927,63.1453876 L29.68396,63.3232422 C31.1586151,63.9745045 32.0826284,64.1804614 32.8694189,64.0619597 L33.1112061,67.8474121 Z" id="路径" fill="#3D3939"></path>
                <path d="M29.2592927,63.1453876 L29.68396,63.3232422 C31.1208346,63.9578193 32.0349208,64.1696159 32.8086694,64.0704268 C32.8151383,64.4036121 32.8753395,65.609174 32.864502,65.8190918 C31.5317383,65.034668 28.5991211,64.6525879 27.5473633,64.5302734 C26.4956055,64.407959 22.2875977,65.3294297 21.1408691,65.7668457 C20.6060574,65.970848 20.4355469,67.2282715 20.6611328,68.0773926 C20.7490848,68.4084499 18.9620536,67.4107926 18.9669189,67.8474121 L18.0153274,64.8792306 L18.0616455,64.4246826 C18.5603434,64.8559977 19.1553141,65.0716553 19.8465576,65.0716553 C20.7891624,65.0716553 22.0438031,64.4319463 23.6313903,63.7717761 L25.1781583,63.1311392 L25.6698237,62.9419553 C26.6461601,62.5991058 27.6179758,62.4975884 29.2592927,63.1453876 Z" id="路径" fill="#1E1E21"></path>
                <path d="M38.9241943,61.2925415 L39.1823105,61.307941 C40.9038856,61.4483268 49.5076497,62.5012207 50.0300293,62.5012207 C50.5197601,62.5012207 51.2925816,62.0418644 52.0666881,61.9270253 L52.2236392,61.9145415 L52.1176758,62.287065 C50.946696,62.6104173 50.1252848,62.7650544 49.6534424,62.7509766 L49.1394104,62.7061204 C47.1949342,62.503397 40.8487267,61.6855792 40.098877,61.6388659 C39.2512207,61.5860596 38.0474854,61.6416016 36.7648926,62.3939209 L34.9959501,63.4535615 C34.2633448,63.8865771 33.5725098,64.268887 33.0592041,64.4501953 C32.2892456,64.7221578 31.1106059,64.1843954 30.3692294,63.8245444 L29.5034627,63.4079752 C28.8849763,63.1166596 27.8724365,62.8408203 27.1176758,62.8538208 C26.362915,62.8668213 26.7027588,62.6274414 21.1627197,64.8155751 C21.0329099,64.7979062 26.0837702,62.8645333 26.0877817,62.8135893 C26.9420174,62.5842729 27.8628506,62.5901452 29.2837253,63.1550682 L29.68396,63.3232422 C32.1885132,64.4293457 33.104707,64.2509387 34.457937,63.3800668 L34.9279785,63.0649414 C36.5672607,61.9344482 38.2148438,61.2925415 38.9241943,61.2925415 Z" id="路径" fill="#EBEBEB"></path>
                <path d="M62.9017334,64.7573242 C62.9046232,64.7518578 62.9055044,65.0283518 63.1184082,64.7790527 C63.7293,64.0637308 65.0849765,62.2401247 65.4274902,62.1540527 C66.3797701,61.9147496 68.1298828,61.666626 70.59021,61.4179688 C74.0145556,61.0718813 80.3571777,60.5272217 79.1868896,60.2880859 C78.0166016,60.0489502 72.6210938,60.1222905 70.657959,60.0834841 C68.6948242,60.0446777 65.7140737,60.109375 64.9184382,60.6506348 C64.1228027,61.1918945 62.8674984,64.8220837 62.9017334,64.7573242 Z" id="路径-455" fill="#696671"></path>
                <path d="M85.635376,66.3691406 C85.5799154,66.0891673 85.49764,65.8293203 85.3885498,65.5895996 C85.463562,65.1762695 85.4127197,64.0447388 84.5825195,62.87854 C83.9645996,62.9545288 77.9892578,63.6959229 74.8933105,63.9477539 C71.7973633,64.199585 63.0721436,64.8110352 62.8807373,64.8110352 C62.7531331,64.8110352 60.1717936,65.0705566 55.1367188,65.5895996 L54.8939209,65.7515869 C48.2142334,66.4304606 43.7314046,66.8602702 41.4454346,67.0410156 C38.0164795,67.3121338 27.1744385,67.8356934 26.2576904,67.8356934 C25.3409424,67.8356934 22.9176025,67.9133301 22.1750488,68.3045654 C21.4324951,68.6958008 20.3393555,68.4450684 19.8481445,68.1403809 C19.5206706,67.9372559 18.9251709,66.9671351 18.0616455,65.2300186 C18.1405843,67.1176885 18.59729,68.2727051 19.4317627,68.6950684 C20.6834717,69.3286133 28.5426025,70.2507324 28.5426025,70.2507324 C28.5426025,70.2507324 29.0745036,70.5482585 30.1383057,71.1433105 L38.7785645,71.1433105 L57.0944824,71.1433105 L81.897583,70.2507324 C83.9219981,68.611424 85.0856537,67.6344953 85.3885498,67.3199463 C85.6914459,67.0053973 85.7737213,66.6884621 85.635376,66.3691406 Z" id="$" fill="#090507"></path>
                <path d="M76.0500834,63.8444524 L73.7690597,69.9517147 L66,70.1421497 L69.2371272,64.370889 L74.8933105,63.9477539 C75.2456541,63.9190935 75.6352922,63.8840922 76.0500834,63.8444524 Z" id="路径" fill="#282527"></path>
                <path d="M81.0293602,63.3051876 L79.0244141,69.3061523 L73.7690597,69.9517147 L76.0540158,63.8440765 C77.5743808,63.6987302 79.431902,63.4911865 81.0293602,63.3051876 Z" id="路径" fill="#39373E"></path>
                <path d="M59.9187798,65.6131525 C55.244244,66.0661479 44.6990065,67.0206329 41.8542838,67.1600747 L45.7811938,66.8052378 C47.2281561,66.6679019 48.9273316,66.5019247 50.8794466,66.307253 L54.8362531,65.9086039 L55.0790509,65.7466166 L62.8230695,64.9680521 C62.9970752,64.9680521 70.2238193,64.4627214 73.8623657,64.1816386 L74.5853271,64.1237793 C72.5509686,64.6111708 65.3033742,65.0998989 62.7613202,65.3247462 L59.9187798,65.6131525 Z" id="路径" fill="#EBEBEB"></path>
                <path d="M85.3304754,64.5413701 C85.411598,64.9163529 85.4236785,65.2322648 85.4063967,65.4476025 L85.3946472,65.5599925 C85.1171238,65.8020497 84.8025506,66.0065395 84.4509277,66.1734619 L84.1830093,66.28461 C82.7604341,66.8208375 78.0189089,68.026559 73.1483154,68.3369141 C70.2342851,68.5225966 66.1753653,68.5649218 62.5917724,68.5692989 L55.2601384,68.5650413 C51.8844095,68.6015975 44.3001677,68.8131013 45.3543379,68.8548026 L58.9462891,69.0858154 L58.9462891,69.0858154 L40.4476148,69.2076469 L40.4476148,69.2076469 L39.1456033,69.2078947 C35.676364,69.188835 28.9491621,68.9540274 27.9226074,68.8597412 L36.4892923,68.5886844 L36.4892923,68.5886844 L38.2374553,68.54232 C43.0127899,68.3966561 57.9178437,67.7368914 64.5913043,67.4836792 L67.2305642,67.3828745 C73.0661063,67.1215544 80.6165809,66.4153564 82.8263509,66.0865479 C84.1619261,65.8878174 84.9781039,65.4268449 85.2748842,64.7036303 L85.3304754,64.5413701 Z" id="路径" fill="#524C4D"></path>
                <path d="M85.3070486,64.4394708 C85.4326492,64.9553984 85.4280379,65.3720132 85.3885498,65.5895996 L85.3971079,65.551168 C84.4200608,66.3970702 82.4383439,66.8884406 79.9348145,67.3330078 C81.6578369,67.0108643 83.4150391,66.0924072 84.1190186,65.7726637 C84.5212926,65.5899532 84.8888587,65.1990709 85.2217171,64.6000168 L85.3070486,64.4394708 Z" id="路径" fill="#BDB4B5"></path>
                <path d="M86,67 C85.7827962,68.2346191 85.2543132,69.2431641 84.4145508,70.0256348 C83.1549072,71.1993408 80.1873779,72 77.4975586,72 C75.7043457,72 60.7033285,72 32.4945068,72 C32.4177653,71.8438314 32.322998,71.7657471 32.2102051,71.7657471 C32.0974121,71.7657471 31.4612223,71.7657471 30.3016357,71.7657471 L30.3016357,72 C25.8768311,71.8242188 22.8908691,71.5690918 21.34375,71.2346191 C19.0230713,70.7329102 18.9190674,70.7490234 18.7342529,70.0256348 C18.6537679,69.9314779 18.5511882,69.8438314 18.4265137,69.7626953 C17.963623,69.9777832 17.272583,69.8237712 16.3533936,69.3006592 C14.9746094,68.5159912 10,65.1184082 10,62 C10,59.9210612 10.2733154,58.7537028 10.8199463,58.4979248 C11.1680908,58.3847249 11.4484049,58.5251872 11.6608887,58.9193115 C11.9796143,59.510498 15.0791016,61.298584 16.0102539,61.8409424 C16.9414063,62.3833008 18.1187744,63.7672119 18.4265137,65.7738037 C18.7342529,67.7803955 19.9597168,68.5032959 20.421875,68.6610107 C20.8840332,68.8187256 27.5848389,69.5480957 28.3182373,69.5480957 C28.8071696,69.5480957 29.3288981,69.8535563 29.8834229,70.4644775 L33.2764893,70.6322021 C34.1109619,70.0525309 34.6005452,69.7626953 34.7452393,69.7626953 C34.9622803,69.7626953 44.998291,69.7626953 45.1931152,69.7626953 C45.322998,69.7626953 45.5985514,69.9966227 46.0197754,70.4644775 L49.6990967,70.4644775 C50.0971273,69.8535563 50.3713379,69.5480957 50.5217285,69.5480957 C50.7473145,69.5480957 70.2227783,69.4378052 74.0358887,69.123291 C77.848999,68.8087769 79.5900269,68.6610107 82.3513184,67.8891602 C85.1126099,67.1173096 85.2232361,66.4745789 85.635376,66.3691406 C85.9101359,66.2988485 86.0316772,66.5091349 86,67 Z" id="$$" fill="#D8D8DB"></path>
                <path d="M84.4145508,70.0256348 C83.1549072,71.1993408 80.1873779,72 77.4975586,72 L32.4945068,72 C32.4177653,71.8438314 32.322998,71.7657471 32.2102051,71.7657471 L30.3016357,71.7657471 L30.3016357,72 L28.8799913,71.9384675 C25.2310475,71.7665443 22.718967,71.5319282 21.34375,71.2346191 L20.0998147,70.9630631 C18.9728567,70.703553 18.8779975,70.5882704 18.7342529,70.0256348 C18.6537679,69.9314779 18.5511882,69.8438314 18.4265137,69.7626953 C17.963623,69.9777832 17.272583,69.8237712 16.3533936,69.3006592 L16.006886,69.0941088 C15.8751858,69.0126834 15.7283222,68.9190319 15.5693983,68.8142012 L17.3074251,69.3479769 C17.5614891,69.4294804 17.7274699,69.4862323 17.8054199,69.5182141 C18.1330566,69.6526392 18.0584717,68.8626709 18.3699951,68.6658936 C18.6815186,68.4691162 19.1296387,69.7298584 19.2045898,70.199707 C19.2712131,70.6173503 19.889341,70.5437705 20.1936615,70.5839917 L20.2913818,70.6055908 C20.5302734,70.6934814 20.7785645,70.5634766 20.8447266,70.199707 C20.9108887,69.8359375 20.5806885,69.3869629 20.8447266,69.4160156 C21.1087646,69.4450684 21.7855225,70.6226807 21.9354248,70.7347412 C22.0853271,70.8468018 22.8897705,70.8460693 23.0227051,70.802124 C23.1556396,70.7581787 22.9262695,69.96521 23.0227051,69.7993164 C23.1191406,69.6334229 23.7259521,70.2746582 24.0062256,70.7347412 C24.286499,71.1948242 25.0838623,71.0250244 25.1983643,71.1433105 C25.3128662,71.2615967 24.9873047,70.4023437 25.1983643,70.199707 C25.4094238,69.9970703 26.3670654,71.1307373 26.5024414,71.2348633 C26.6378174,71.3389893 28.8706055,71.5302734 29.4842529,71.5201416 C30.0979004,71.5100098 30.0249023,71.3067627 30.1383057,71.1433105 C30.251709,70.9798584 31.8397217,71.0100098 32.4245262,71.1433105 C33.0093307,71.2766113 33.0509033,71.5410156 33.1984863,71.5822754 L33.4028633,71.5958781 C34.2617741,71.6262655 37.4847915,71.6203541 37.5446777,71.3721924 C37.6125488,71.0909424 37.8018799,70.9090576 38.161499,70.8820801 C38.5211182,70.8551025 38.7403564,71.5360107 38.8240967,71.5822754 C38.9078369,71.62854 40.9141846,71.5941162 41.3786621,71.5822754 C41.8431396,71.5704346 42.4726562,71.4560547 42.6611328,71.2348633 L42.7983284,71.0698586 C42.9395828,70.9084625 43.1176758,70.7660522 43.5545654,70.7160645 C44.137085,70.6494141 43.7924805,71.46521 43.7250977,71.5201416 C43.6577148,71.5750732 46.3131104,71.6804199 46.6947021,71.4542236 C47.0762939,71.2280273 47.355957,71.034668 47.6787109,71.1433105 C48.0014648,71.2519531 48.2668457,71.4204102 48.493042,71.4542236 L48.8090976,71.4689414 C49.3381197,71.474311 50.3143717,71.4290229 50.5430908,71.2348633 C50.8371582,70.9852295 51.5296631,70.7637939 51.881043,70.802124 C52.2324229,70.8404541 52.097017,71.3336182 52.3041992,71.3931885 C52.4854837,71.4453125 53.2700087,71.331171 53.6679149,71.0250859 L53.8118896,70.8820801 C54.1173096,70.4689941 54.9697266,70.4593506 55.4194336,70.6055908 C55.8691406,70.7518311 54.5047607,71.3797607 55.0480279,71.3950195 C55.591295,71.4102783 56.1896973,70.9569092 56.5792236,70.6055908 C56.96875,70.2542725 57.5351563,70.4293213 57.6737671,70.6210937 C57.8123779,70.8128662 56.9004517,71.5093994 57.4841309,71.4317627 C57.9948502,71.3638306 58.5456638,71.0536499 58.8003434,70.871346 L58.8903809,70.802124 C59.0769043,70.644165 59.3492432,70.4348145 59.7724609,70.4090576 C60.1956787,70.3833008 60.0178223,70.9641113 59.7724609,71.3950195 C59.5270996,71.8259277 60.1549072,71.6497803 60.7358398,71.3950195 C61.3167725,71.1402588 61.7858887,70.5080566 62.3687196,70.6055908 C62.9515505,70.703125 62.401001,71.5534668 62.9665527,71.3950195 C63.5321045,71.2365723 63.9694824,70.6586914 64.5727539,70.6055908 C65.1760254,70.5524902 65.3537598,71.161377 65.4112549,71.5201416 C65.46875,71.8789062 66.1136475,71.6420898 66.6746826,71.3950195 C67.2357178,71.1479492 67.1020395,70.614624 67.8964844,70.6055908 C68.6909292,70.5965576 68.4215088,70.973877 68.3677979,71.2348633 C68.3140869,71.4958496 69.0217285,71.5056152 69.708374,71.3950195 C70.3950195,71.2844238 70.666748,70.8469238 71.0020784,70.7160645 C71.2522922,70.6270331 71.5830001,70.5382274 71.7775879,70.6210937 C71.8828646,70.6659264 71.9416659,70.7667151 71.993479,70.8871186 L72.0994873,71.1433105 C72.1162109,71.3043213 72.7118187,71.5559082 73.2854004,71.5201416 C73.8589821,71.484375 74.4898682,71.0991211 74.8039551,70.7160645 C75.118042,70.3330078 75.633667,70.3668213 75.8797607,70.4090576 C76.1258545,70.4512939 75.8601074,71.1887207 75.6567383,71.3950195 C75.4533691,71.6013184 76.7850342,71.5648193 77.0755615,71.3950195 C77.3660889,71.2252197 77.7086182,70.2373047 78.2713623,70.199707 C78.8341064,70.1621094 78.7008057,70.5428467 78.86684,70.8820801 C79.0328744,71.2213135 79.5726318,71.1542969 79.9348145,71.1433105 C80.2640714,71.133323 81.3984879,70.4522513 81.7421622,70.0667531 L81.8199463,69.9609375 C81.9442952,69.7286784 82.1909993,69.5470378 82.5600586,69.4160156 C82.4567057,70.1716309 82.5454698,70.5026449 82.8263509,70.4090576 C83.822665,70.028805 84.8047363,69.1935241 85.7725646,67.9032148 C85.4938929,68.7329247 85.0407706,69.4421379 84.4145508,70.0256348 Z" id="路径" fill="#B0B0B7"></path>
                <path d="M82.1306375,69.8024292 C82.0652911,70.2164307 81.3200684,71.1893311 81.6033325,71.1433105 L81.7403864,71.1104585 C82.0831274,71.0159611 82.9289832,70.7329868 84.2779541,70.2615356 L83.988625,70.3652839 C82.5656886,71.3510958 79.9190869,72 77.4975586,72 L32.4945068,72 C32.4177653,71.8438314 32.322998,71.7657471 32.2102051,71.7657471 L30.3016357,71.7657471 L30.3016357,72 L28.8799913,71.9384675 C25.2310475,71.7665443 22.718967,71.5319282 21.34375,71.2346191 L20.1009291,70.9633197 C19.0550441,70.7225358 18.8973358,70.6059922 18.765299,70.1416737 L19.0462036,70.3410034 L20.2675171,70.6742554 L20.9732463,70.857822 C21.2917593,70.9448913 21.4876747,71.007107 21.5609922,71.044469 L21.590271,71.0639038 C21.6339722,71.1132609 21.4968465,70.8722941 21.178894,70.3410034 C21.0534058,70.3746948 20.9593506,70.3746948 20.8967285,70.3410034 C20.8341064,70.307312 20.8046265,70.1979777 20.8082886,70.0130005 L21.178894,70.0130005 L21.178894,70.0130005 L21.2369957,70.0715408 C21.3126475,70.1659546 21.4563837,70.3744437 21.6682043,70.6970081 L21.8034668,70.9042358 L23.5252686,71.2050171 L23.2926636,70.576416 L23.2926636,70.2615356 L24.1365356,71.3099976 L25.7149658,71.4870605 L25.802063,71.3099976 L25.2806396,70.576416 L25.7149658,70.576416 L26.3273926,71.4870605 L30.1369019,71.736084 L30.2329102,71.1433105 L32.0250912,71.2448814 C32.3484923,71.2699628 32.5101929,71.2916682 32.5101929,71.3099976 L32.5275269,71.4138647 L32.5275269,71.4138647 L32.6185303,71.7804565 L37.7298584,71.7703857 L37.7663574,71.1433105 L38.4745483,71.1433105 L38.5527954,71.736084 L41.3426218,71.7040354 C41.8901703,71.6940752 42.2048367,71.6835788 42.2866211,71.6725464 C42.4312374,71.6179565 42.5547961,71.4771948 42.6572971,71.2502612 L42.7302246,71.0639038 L43.4788818,71.0639038 L42.9230957,71.2050171 L42.8112793,71.6717529 L46.8015747,71.6717529 L47.2820435,71.0639038 L48.0024559,71.0639038 L47.5023438,71.1433105 L47.2012939,71.6717529 L49.7093468,71.6375122 C49.8538297,71.6380412 49.9535828,71.6400146 50.008606,71.6434326 C50.3387451,71.6639404 50.656311,71.1213989 50.8236694,70.9042358 C50.9212952,70.7775574 51.2322903,70.7617226 51.7566547,70.8567314 L51.9944458,70.9042358 L51.013855,71.1433105 L50.6056519,71.6717529 L51.9795513,71.6807275 C52.542025,71.6800342 52.9177847,71.6715698 53.1068302,71.6553345 C53.5794441,71.6147461 53.909729,71.1157227 54.3003428,70.6742554 C54.3597188,70.8429565 53.5402832,71.6139526 53.6724243,71.6717529 C53.8045654,71.7295532 54.7228493,71.7936401 55.2803955,71.7481079 C55.8379417,71.7025757 56.4929199,70.9071045 56.6630249,70.576416 C56.6768014,70.832659 56.5133468,71.158527 56.172661,71.5540199 L55.9875488,71.7575684 L57.2557713,71.7575684 C58.2471993,71.758606 58.9425659,70.8654785 59.1257935,70.576416 C59.1316121,70.8237712 58.9094849,71.225118 58.4594116,71.7804565 C59.115214,71.8117879 59.6416403,71.8094482 60.0386903,71.7734375 C60.6342654,71.7194214 61.4243774,71.1796265 61.7051392,70.6742554 C61.6930135,70.8480428 61.5198771,71.2091471 61.18573,71.7575684 C61.2456665,71.7846273 61.5807902,71.789917 62.1911011,71.7734375 C63.1065674,71.7487183 63.977356,71.038147 64.2454834,70.6742554 C64.229777,70.8805949 64.0072428,71.2469889 63.5778809,71.7734375 L65.4347992,71.7903442 C65.8870392,71.7903442 66.1725464,71.7847087 66.2913208,71.7734375 C66.647644,71.739624 67.2631226,71.0297852 67.5073355,70.7799988 C67.4379107,71.1332092 67.1988525,71.4590658 66.7901611,71.7575684 L69.2119103,71.7841526 C69.6817506,71.7830449 69.9446506,71.7741835 70.0006104,71.7575684 C70.180481,71.7041626 70.5197754,71.2979126 70.8383179,70.6742554 C70.8733521,70.8989461 70.7949219,71.2600505 70.6030273,71.7575684 L72.1644237,71.7883561 C73.1603267,71.8011843 73.7621554,71.7909217 73.9699097,71.7575684 C74.4200439,71.6853027 74.8891602,71.0211792 75.071167,70.7799988 C75.0947266,71.1356812 74.6409912,71.7615967 74.8208008,71.7575684 L75.2465165,71.7465044 C75.8222364,71.7259471 76.7898726,71.6666149 77.0755615,71.4870605 C77.4683838,71.2401733 77.7937622,70.5767212 77.9674683,70.3410034 L77.9161165,70.5537604 C77.8153995,70.923003 77.5996772,71.6212497 77.5610352,71.6553345 C77.5113525,71.6991577 79.0830688,71.6467285 80.0370483,71.4870605 C80.9910278,71.3273926 81.4537354,70.6269531 82.1306375,69.8024292 Z" id="路径" fill="#5D5D69"></path>
                <path d="M45.1931152,69.7626953 C45.2964578,69.7626953 45.4920207,69.9107889 45.7798041,70.206976 L45.7612915,70.4328613 L45.2496176,70.0408897 C45.0180305,69.8712502 44.8742371,69.7818146 44.8182373,69.772583 L43.0941755,69.7819733 C40.3463379,69.8110132 35.2525716,69.884078 34.9454346,69.9008179 C34.701121,69.9141337 34.3279416,70.1234821 33.8258963,70.528863 L33.6028442,70.7145996 L33.7646081,70.300025 C34.3046166,69.9418052 34.6314937,69.7626953 34.7452393,69.7626953 L45.1931152,69.7626953 Z M85.9750981,66.5806469 L85.9019477,66.634939 C85.0871797,67.1972133 82.8245456,68.0480692 79.7904663,68.7072144 C76.3799787,69.4481332 69.5380567,69.5487363 67.3381567,69.5602564 L51.3621724,69.6408867 C50.9794949,69.6464321 50.7522427,69.6520477 50.7260132,69.6576538 C50.6000366,69.684579 50.3780082,69.9011567 50.0599278,70.3073867 L49.8928833,70.5263062 L50.1921364,69.7896931 C50.3346447,69.6286282 50.4445087,69.5480957 50.5217285,69.5480957 L62.1332512,69.4381205 C66.9476453,69.373431 71.8609463,69.2769912 73.8081574,69.1405545 L76.0998438,68.9482656 C78.5862207,68.724707 80.1422852,68.5066406 82.3513184,67.8891602 C85.1126099,67.1173096 85.2232361,66.4745789 85.635376,66.3691406 C85.8117579,66.3240166 85.9249986,66.3945187 85.9750981,66.5806469 Z M11.6608887,58.9193115 C11.9796143,59.510498 15.0791016,61.298584 16.0102539,61.8409424 C16.8748954,62.3445609 17.9518352,63.573804 18.3476655,65.3534303 L18.4265137,65.7738037 C18.7342529,67.7803955 19.9597168,68.5032959 20.421875,68.6610107 C20.8840332,68.8187256 27.5848389,69.5480957 28.3182373,69.5480957 C28.679436,69.5480957 29.0585334,69.7148013 29.4555293,70.0482125 L28.265686,69.6576538 L28.265686,69.6576538 C27.8553955,69.510144 24.3938794,69.3032535 22.1463481,69.0967953 L21.8021851,69.064209 C19.583313,68.8471069 19.6624146,68.651062 19.1394653,68.1170654 C18.6165161,67.5830688 17.7183228,65.4118652 17.3703003,64.5997925 C17.0222778,63.7877197 16.2930298,62.8568726 15.7703857,62.5484009 L15.4857908,62.3916771 C14.6288729,61.9351864 12.5190582,60.8778992 11.1964111,59.9509888 C10.7456663,59.635107 10.4919532,59.2854292 10.4352719,58.9019553 C10.5462672,58.7008286 10.673267,58.5665586 10.8199463,58.4979248 C11.1680908,58.3847249 11.4484049,58.5251872 11.6608887,58.9193115 Z" id="形状" fill="#EFEFEF"></path>
                <path d="M82.753418,59.706543 C82.8666992,59.2222799 82.9233398,58.8934632 82.9233398,58.7200928 C82.9233398,58.4600372 82.1986084,56.8875732 82.0369873,56.8875732 C81.8753662,56.8875732 79.1401367,56.6507568 77.3929443,56.4775391 C75.645752,56.3043213 73.0267334,55.7546387 71.8625488,55.9304199 C70.6983643,56.1062012 54.9431152,60.4632568 53.7431641,60.7351074 C52.5432129,61.006958 51.8249512,61.760498 52.184082,62.4667969 C52.5432129,63.1730957 54.5853271,65.6049805 54.8939209,65.7515869 C55.2025146,65.8981934 62.5357666,65.2388916 62.748291,65.0418701 C62.9608154,64.8448486 64.7601318,61.9852295 65.2801514,61.6954346 C65.8001709,61.4056396 67.8149414,61.2243652 70.2858887,60.9953613 C71.9331868,60.8426921 76.0890299,60.4130859 82.753418,59.706543 Z" id="$$$" fill="#36343A"></path>
                <path d="M72.5793717,55.8984658 C73.6066869,55.9248138 75.0715922,56.1735203 76.3527618,56.3503192 L73.1173068,60.7149508 L68.6335639,61.1508669 L68.6335639,61.1508669 L72.5793717,55.8984658 Z" id="路径" fill="#242328"></path>
                <path d="M73.0751391,60.7192523 L76.2143477,56.3310486 L77.0189232,56.4365892 L77.0189232,56.4365892 L81.0606831,56.8122821 C81.6023139,56.8580736 81.9799446,56.8875732 82.0369873,56.8875732 C82.1986084,56.8875732 82.9233398,58.4600372 82.9233398,58.7200928 C82.9233398,58.8934632 82.8666992,59.2222799 82.753418,59.706543 L73.0751391,60.7192523 L73.0751391,60.7192523 Z" id="路径" fill="#131315"></path>
                <path d="M82.8696733,58.4963533 C82.9035078,58.5981408 82.9233398,58.6770736 82.9233398,58.7200928 C82.9233398,58.8934632 82.8666992,59.2222799 82.753418,59.706543 C82.6401367,60.190806 76.1901855,60.8129883 73.5369873,60.9345703 C71.4232178,60.9160156 66.25,61.2071533 65.2801514,61.6954346 C64.7802092,61.9872402 62.9608154,64.8448486 62.748291,65.0418701 C62.5357666,65.2388916 55.2025146,65.8981934 54.8939209,65.7515869 C54.6350771,65.6286156 53.1565969,63.8978131 52.4746821,62.9261344 C52.5206266,62.8298707 52.618838,62.7453388 52.8008238,62.6937678 L53.0583259,62.6329185 C54.1633817,62.3950679 57.8726899,61.7559533 59.9894841,61.5069125 L60.3098687,61.4709473 C62.2328365,61.2667062 65.4719814,60.7543098 68.2646393,60.4024484 L70.2149939,60.1775549 C73.7419767,59.8042925 82.2759435,58.988449 82.5445557,58.916748 C82.6714003,58.8828892 82.769798,58.7745616 82.8397488,58.5917651 L82.8696733,58.4963533 Z" id="路径" fill="#19191C"></path>
                <path d="M71.8625488,55.9304199 C72.0792853,55.8976947 72.3464454,55.8901136 72.6490162,55.9005663 C72.4462267,55.9317855 72.2559219,55.9717844 72.0773255,56.0153624 L65.8557457,57.654559 C65.3042256,57.7962035 64.8126353,57.9205766 64.4361701,58.0127255 L62.8421143,58.4055229 C61.3604128,58.782539 59.5562489,59.270903 58.511211,59.6022701 L57.2457833,60.0140283 C55.7662535,60.4828467 53.60845,61.1375244 53.0629272,61.3841553 C52.7322356,61.533661 52.3715796,61.9155626 52.0913133,62.1675178 C52.0429196,61.607252 52.606063,61.0665294 53.4933546,60.8006222 L54.7787122,60.4683758 C58.5688591,59.4627447 70.840338,56.0847644 71.8625488,55.9304199 Z M78.0918064,56.6045686 L76.8574371,56.4169402 L77.3929443,56.4775391 C79.1401367,56.6507568 81.8753662,56.8875732 82.0369873,56.8875732 C82.0589126,56.8875732 82.0912011,56.9165118 82.1306375,56.9671867 C81.9928265,57.0150196 81.8331324,57.0344086 81.6560059,57.0325928 L81.2579358,57.0023284 C80.6110662,56.9392897 79.3453885,56.7847872 78.0918064,56.6045686 L78.0918064,56.6045686 Z" id="形状" fill="#ACA9B4"></path>
                <path d="M82.5809477,57.9379542 L82.4816915,57.5835935 L82.6670226,57.9834961 C82.8120787,58.3148228 82.9233398,58.6181986 82.9233398,58.7200928 C82.9233398,58.8558255 82.8886224,59.0868378 82.8191876,59.4131296 L82.5186714,59.461457 C82.2143838,59.5038607 81.7754549,59.5516085 81.2018983,59.6048238 L78.4521681,59.8499168 C76.224348,60.0665927 73.0238936,60.414113 70.5167401,60.660309 L67.6004113,60.9347476 C65.5933697,61.1480097 65.6850586,61.3017366 65.3017578,61.4960938 C64.8609619,61.7196045 62.9150391,64.6455078 62.7659912,64.6888498 L61.9433061,64.7685796 C60.0184444,64.9340925 55.3806987,65.2867264 55.21697,65.2300186 C55.0123091,65.1591338 52.7720947,62.9637451 52.4746821,62.5869188 C52.1772696,62.2100925 52.475435,61.9434944 52.4400635,62.0915527 C52.404692,62.2396111 55.1341553,64.9564209 55.3195801,64.9853516 L55.4851096,64.9789709 C56.5573385,64.9061459 62.3613525,64.3082739 62.4865723,64.260376 C62.6226807,64.208313 63.2142207,63.0923699 64.0700684,62.0089111 C64.8545954,61.0157406 65.7696765,60.7493394 66.2826984,60.6557972 L66.6124495,60.6109851 C67.887397,60.4790544 74.2116927,59.9544416 75.9607685,59.706543 L78.5326185,59.3165877 C80.5162478,59.0004629 82.658488,58.6237031 82.682251,58.4963533 C82.6954527,58.4256035 82.6616849,58.2394704 82.5809477,57.9379542 L82.5809477,57.9379542 Z" id="路径" fill="#5D5B62"></path>
                <path d="M53.2545573,33.9512442 C53.7022328,33.7994309 53.9945747,33.7566551 54.1315828,33.8229167 C54.3370949,33.922309 54.3718895,34.5744358 54.2669994,34.8592303 C54.1621094,35.1440249 53.6681134,35.8793238 53.4157986,35.9912027 C53.2475887,36.0657886 53.0531925,36.1233362 52.83261,36.1638455 C53.1364776,36.2125732 53.3580729,36.2025183 53.4973958,36.1336806 C53.7063802,36.030424 54.2853009,35.5770399 54.5137442,34.8592303 C54.7421875,34.1414207 54.5467303,33.7157841 54.3723235,33.5739294 C54.1979167,33.4320747 53.8663422,33.4912471 53.7250186,33.5739294 C53.6308029,33.6290509 53.4739824,33.7548225 53.2545573,33.9512442 Z" id="路径-435" fill="#6E6E6E"></path>
                <path d="M52.2969112,35.7911603 C52.294958,36.0904466 52.3584226,36.2705319 52.4873047,36.3314164 C52.6806279,36.4227431 53.3161169,36.2319366 53.5488643,36.1202257 C53.7040292,36.0457518 53.8969305,35.8723818 54.127568,35.6001157 C53.8828969,35.949862 53.6882716,36.1756871 53.5436921,36.2775911 C53.3268229,36.430447 53.0005425,36.572555 52.7359664,36.6191768 C52.4713903,36.6657986 52.1283637,36.5346262 52.0958116,36.3208912 C52.0741102,36.1784012 52.1411434,36.0018242 52.2969112,35.7911603 Z" id="路径-436" fill="#181616"></path>
                <path d="M53.6945891,34.6606626 C53.3941937,34.4951051 53.0659963,34.4477961 52.7099971,34.5187355 C52.1759983,34.6251447 51.467284,35.7790231 51.4725839,36.5120804 C51.8441117,35.9031395 52.7949219,35.7913773 52.9252749,35.8188657 C53.0556279,35.8463542 53.6289063,35.4572483 53.5436921,35.2772714 C53.4868827,35.1572868 53.3615693,35.0742187 53.1677517,35.0280671 C53.3131028,34.9523534 53.4384163,34.9198013 53.5436921,34.9304109 C53.648968,34.9410204 53.699267,34.8511044 53.6945891,34.6606626 Z" id="路径-434" fill="#1C1C1C"></path>
                <path d="M57.7144421,43.0900367 L57.79372,42.8752367 L58.1583987,42.8752367 L58.2376766,43.0900367 L58.3901342,43.0900367 L58.0571668,42.2332367 L57.8949519,42.2332367 L57.5619845,43.0900367 L57.7144421,43.0900367 Z M59.1243701,43.0900367 L59.1243701,42.9700367 L58.6182108,42.9700367 L58.6182108,42.7108367 L59.074364,42.7108367 L59.074364,42.5908367 L58.6182108,42.5908367 L58.6182108,42.3532367 L59.1036359,42.3532367 L59.1036359,42.2332367 L58.4755105,42.2332367 L58.4755105,43.0900367 L59.1243701,43.0900367 Z M59.4012332,43.0900367 L59.4012332,42.7408367 L59.6268704,42.7408367 C59.6756569,42.7408367 59.7134664,42.7504367 59.7390792,42.7720367 C59.7634724,42.7924367 59.7781084,42.8260367 59.782987,42.8728367 L59.793964,42.9784367 C59.7988426,43.0264367 59.8110392,43.0636367 59.8317735,43.0900367 L59.9866704,43.0900367 C59.9573985,43.0588367 59.9391036,43.0168367 59.934225,42.9640367 L59.919589,42.8260367 C59.9098318,42.7420367 59.8671436,42.6928367 59.7915247,42.6760367 L59.7915247,42.6736367 C59.8378718,42.6616367 59.8756813,42.6364367 59.9025138,42.5980367 C59.926907,42.5632367 59.9391036,42.5236367 59.9391036,42.4792367 C59.9391036,42.3976367 59.9110514,42.3352367 59.8573863,42.2920367 C59.8061606,42.2524367 59.7354202,42.2332367 59.646385,42.2332367 L59.2585328,42.2332367 L59.2585328,43.0900367 L59.4012332,43.0900367 Z M60.495269,43.1068367 C60.6282121,43.1068367 60.7331029,43.0648367 60.8099415,42.9808367 C60.8831212,42.9004367 60.919711,42.7948367 60.919711,42.6628367 C60.919711,42.5308367 60.8831212,42.4240367 60.8099415,42.3436367 C60.7331029,42.2584367 60.6282121,42.2164367 60.495269,42.2164367 C60.3611063,42.2164367 60.2562155,42.2584367 60.1805965,42.3448367 C60.1074168,42.4264367 60.0720467,42.5320367 60.0720467,42.6628367 C60.0720467,42.7924367 60.1074168,42.8980367 60.1805965,42.9796367 C60.2562155,43.0636367 60.3611063,43.1068367 60.495269,43.1068367 Z M60.495269,42.9832367 C60.4050141,42.9832367 60.3342738,42.9532367 60.2854873,42.8944367 C60.2379206,42.8368367 60.214747,42.7600367 60.214747,42.6628367 C60.214747,42.5644367 60.2379206,42.4876367 60.2854873,42.4300367 C60.3354934,42.3700367 60.4050141,42.3400367 60.495269,42.3400367 C60.5855239,42.3400367 60.6550446,42.3676367 60.703831,42.4252367 C60.7513978,42.4828367 60.775791,42.5620367 60.775791,42.6628367 C60.775791,42.7636367 60.7513978,42.8416367 60.703831,42.8980367 C60.6550446,42.9544367 60.5855239,42.9832367 60.495269,42.9832367 Z M61.3758642,43.1068367 C61.4868533,43.1068367 61.5734493,43.0840367 61.6344323,43.0408367 C61.6954154,42.9964367 61.7259069,42.9352367 61.7259069,42.8584367 C61.7259069,42.7792367 61.6880974,42.7180367 61.6124784,42.6736367 C61.5783279,42.6544367 61.5027089,42.6256367 61.3844018,42.5896367 C61.3039042,42.5644367 61.2538981,42.5464367 61.2356032,42.5368367 C61.1941347,42.5152367 61.1746202,42.4852367 61.1746202,42.4492367 C61.1746202,42.4084367 61.1916954,42.3784367 61.2282852,42.3604367 C61.2575571,42.3448367 61.2990256,42.3376367 61.3539103,42.3376367 C61.4173327,42.3376367 61.4661191,42.3484367 61.4978303,42.3724367 C61.5295415,42.3952367 61.552715,42.4336367 61.5649116,42.4864367 L61.7063923,42.4864367 C61.6978547,42.3928367 61.6624845,42.3232367 61.6015015,42.2788367 C61.5441774,42.2368367 61.4636798,42.2164367 61.3612283,42.2164367 C61.2673144,42.2164367 61.1904757,42.2368367 61.1294927,42.2788367 C61.063631,42.3220367 61.0319198,42.3820367 61.0319198,42.4576367 C61.0319198,42.5332367 61.0648507,42.5908367 61.131932,42.6304367 C61.1575449,42.6448367 61.2246262,42.6688367 61.3319564,42.7024367 C61.4283096,42.7312367 61.484414,42.7504367 61.5014893,42.7588367 C61.5551544,42.7852367 61.5832066,42.8212367 61.5832066,42.8668367 C61.5832066,42.9028367 61.563692,42.9304367 61.5271022,42.9520367 C61.4905123,42.9724367 61.4392866,42.9832367 61.3758642,42.9832367 C61.3039042,42.9832367 61.2514588,42.9700367 61.2173083,42.9460367 C61.1794988,42.9184367 61.1563252,42.8716367 61.1465679,42.8068367 L61.0050873,42.8068367 C61.0111856,42.9160367 61.0514344,42.9952367 61.1246141,43.0456367 C61.1843774,43.0864367 61.268534,43.1068367 61.3758642,43.1068367 Z M61.9905733,43.0900367 L61.9905733,42.7612367 L62.2064533,42.7612367 C62.4186743,42.7612367 62.5247848,42.6724367 62.5247848,42.4960367 C62.5247848,42.3208367 62.4186743,42.2332367 62.2088926,42.2332367 L61.847873,42.2332367 L61.847873,43.0900367 L61.9905733,43.0900367 Z M62.7138322,43.0900367 L62.7931102,42.8752367 L63.1577888,42.8752367 L63.2370668,43.0900367 L63.3895244,43.0900367 L63.056557,42.2332367 L62.8943421,42.2332367 L62.5613746,43.0900367 L62.7138322,43.0900367 Z M63.8554349,43.1068367 C63.9493488,43.1068367 64.0298464,43.0804367 64.0969277,43.0276367 C64.1688877,42.9712367 64.2140152,42.8932367 64.2335298,42.7924367 L64.0944884,42.7924367 C64.0774132,42.8572367 64.0481413,42.9064367 64.0066728,42.9388367 C63.9676437,42.9676367 63.9164179,42.9832367 63.8542152,42.9832367 C63.7590817,42.9832367 63.6883413,42.9532367 63.6432139,42.8956367 C63.6017454,42.8416367 63.5810112,42.7636367 63.5810112,42.6628367 C63.5810112,42.5644367 63.6017454,42.4876367 63.6444335,42.4324367 C63.6907807,42.3700367 63.7590817,42.3400367 63.8505562,42.3400367 C63.9115393,42.3400367 63.9615454,42.3520367 64.0005745,42.3784367 C64.0408233,42.4048367 64.0676559,42.4456367 64.0822918,42.5020367 L64.2213332,42.5020367 C64.2079169,42.4156367 64.1701074,42.3460367 64.106685,42.2956367 C64.0408233,42.2428367 63.9554471,42.2164367 63.8529956,42.2164367 C63.7139542,42.2164367 63.6078437,42.2608367 63.5346641,42.3520367 C63.470022,42.4312367 63.4383108,42.5356367 63.4383108,42.6628367 C63.4383108,42.7924367 63.4688024,42.8956367 63.5310051,42.9724367 C63.6017454,43.0612367 63.7102952,43.1068367 63.8554349,43.1068367 Z M65.0165521,43.0900367 L65.0165521,42.9700367 L64.5103928,42.9700367 L64.5103928,42.7108367 L64.966546,42.7108367 L64.966546,42.5908367 L64.5103928,42.5908367 L64.5103928,42.3532367 L64.9958179,42.3532367 L64.9958179,42.2332367 L64.3676925,42.2332367 L64.3676925,43.0900367 L65.0165521,43.0900367 Z M65.7922564,43.0900367 L66.0971717,42.3460367 L66.0971717,42.2332367 L65.5080755,42.2332367 L65.5080755,42.3604367 L65.9532517,42.3604367 L65.6410185,43.0900367 L65.7922564,43.0900367 Z M66.815552,43.0900367 L66.815552,42.9664367 L66.3862313,42.9664367 C66.4057459,42.9232367 66.459411,42.8728367 66.5484462,42.8152367 C66.6338225,42.7588367 66.6948055,42.7132367 66.728956,42.6772367 C66.7850604,42.6160367 66.8143323,42.5488367 66.8143323,42.4744367 C66.8143323,42.3976367 66.7874998,42.3364367 66.7338347,42.2884367 C66.6789499,42.2404367 66.6094293,42.2164367 66.5252727,42.2164367 C66.4313588,42.2164367 66.3557398,42.2476367 66.2984157,42.3100367 C66.2423113,42.3688367 66.2142591,42.4456367 66.2130395,42.5416367 L66.3557398,42.5416367 C66.3581791,42.4744367 66.3728151,42.4228367 66.3996476,42.3892367 C66.4264801,42.3532367 66.4667289,42.3352367 66.520394,42.3352367 C66.5704001,42.3352367 66.6082096,42.3460367 66.6338225,42.3688367 C66.6582157,42.3916367 66.671632,42.4264367 66.671632,42.4732367 C66.671632,42.5212367 66.6521174,42.5668367 66.6143079,42.6088367 C66.5899147,42.6340367 66.5508855,42.6664367 66.4947811,42.7048367 C66.3935493,42.7732367 66.3264679,42.8260367 66.2947568,42.8620367 C66.236213,42.9268367 66.2081608,43.0024367 66.2081608,43.0900367 L66.815552,43.0900367 Z M67.243653,43.1068367 C67.3448848,43.1068367 67.4241628,43.0648367 67.4814868,42.9820367 C67.5351519,42.9028367 67.5619845,42.7960367 67.5619845,42.6616367 C67.5619845,42.5272367 67.5351519,42.4204367 67.4814868,42.3412367 C67.4241628,42.2572367 67.3448848,42.2164367 67.243653,42.2164367 C67.1412014,42.2164367 67.0619235,42.2572367 67.0058191,42.3412367 C66.952154,42.4204367 66.9253215,42.5272367 66.9253215,42.6616367 C66.9253215,42.7960367 66.952154,42.9028367 67.0058191,42.9820367 C67.0619235,43.0648367 67.1412014,43.1068367 67.243653,43.1068367 Z M67.243653,42.9880367 C67.1741323,42.9880367 67.1253458,42.9496367 67.0972936,42.8740367 C67.0777791,42.8212367 67.0680218,42.7504367 67.0680218,42.6616367 C67.0680218,42.5716367 67.0777791,42.5008367 67.0972936,42.4492367 C67.1253458,42.3724367 67.1741323,42.3352367 67.243653,42.3352367 C67.311954,42.3352367 67.3607404,42.3724367 67.3900123,42.4492367 C67.4095268,42.5008367 67.4192841,42.5716367 67.4192841,42.6616367 C67.4192841,42.7504367 67.4095268,42.8212367 67.3900123,42.8740367 C67.3607404,42.9496367 67.311954,42.9880367 67.243653,42.9880367 Z" id="AEROSPACE720" fill="#000000" fill-rule="nonzero" transform="translate(62.561984, 42.716437) rotate(17.000000) translate(-62.561984, -42.716437) "></path>
                <path d="M56.2981819,64.3361484 C56.4623606,64.3275441 56.5755106,64.273371 56.6376319,64.173629 C56.6997531,64.0738869 56.7253757,63.9202521 56.7144996,63.7127244 C56.7096476,63.6201431 56.6947875,63.5317371 56.6699192,63.4475065 C56.6571272,63.4033238 56.6412701,63.3649084 56.6223478,63.3322602 C56.6034255,63.299612 56.5782417,63.2688566 56.5467964,63.239994 C56.5153511,63.2111314 56.4754992,63.1884465 56.4272407,63.1719391 C56.3789822,63.1554317 56.3180371,63.1491074 56.2444055,63.1529663 C56.091172,63.1609969 55.9793936,63.2104043 55.9090703,63.3011883 C55.838747,63.3919723 55.8092823,63.5460693 55.8206763,63.7634793 C55.8253102,63.8518996 55.8368803,63.9322636 55.8553867,64.0045712 C55.8738931,64.0768788 55.8974343,64.1334065 55.9260103,64.1741543 C55.9654361,64.2315446 56.0143112,64.2740971 56.0726357,64.3018117 C56.1309603,64.3295264 56.2061423,64.340972 56.2981819,64.3361484 Z M57.3175826,64.2827239 C57.4817613,64.2741196 57.5949113,64.2199465 57.6570325,64.1202044 C57.7191537,64.0204624 57.7447763,63.8668275 57.7339003,63.6592998 C57.7290483,63.5667186 57.7141881,63.4783126 57.6893198,63.394082 C57.6765278,63.3498993 57.6606707,63.3114838 57.6417484,63.2788357 C57.6228261,63.2461875 57.5976423,63.2154321 57.566197,63.1865695 C57.5347517,63.1577069 57.4948998,63.1350219 57.4466413,63.1185146 C57.3983828,63.1020072 57.3374378,63.0956829 57.2638061,63.0995418 C57.1105726,63.1075724 56.9987942,63.1569797 56.9284709,63.2477638 C56.8581476,63.3385478 56.8286829,63.4926448 56.8400769,63.7100547 C56.8447108,63.7984751 56.856281,63.878839 56.8747873,63.9511467 C56.8932937,64.0234543 56.9168349,64.079982 56.9454109,64.1207298 C56.9848367,64.1781201 57.0337119,64.2206725 57.0920364,64.2483872 C57.1503609,64.2761019 57.225543,64.2875474 57.3175826,64.2827239 Z M58.3369832,64.2292993 C58.5011619,64.2206951 58.6143119,64.1665219 58.6764331,64.0667799 C58.7385544,63.9670379 58.7641769,63.813403 58.7533009,63.6058753 C58.7484489,63.513294 58.7335888,63.4248881 58.7087204,63.3406575 C58.6959285,63.2964748 58.6800713,63.2580593 58.661149,63.2254111 C58.6422267,63.192763 58.617043,63.1620076 58.5855977,63.133145 C58.5541524,63.1042824 58.5143005,63.0815974 58.466042,63.06509 C58.4177835,63.0485826 58.3568384,63.0422584 58.2832067,63.0461173 C58.1299732,63.0541479 58.0181949,63.1035552 57.9478715,63.1943392 C57.8775482,63.2851233 57.8480836,63.4392202 57.8594775,63.6566302 C57.8641114,63.7450505 57.8756816,63.8254145 57.894188,63.8977221 C57.9126943,63.9700298 57.9362355,64.0265575 57.9648116,64.0673053 C58.0042373,64.1246955 58.0531125,64.167248 58.111437,64.1949627 C58.1697615,64.2226774 58.2449436,64.2341229 58.3369832,64.2292993 Z M60.8180448,64.0797143 L60.8044702,63.8206948 L60.3298444,63.8455689 C60.3562058,63.8155022 60.3792465,63.7910858 60.3989665,63.7723197 C60.4186864,63.7535536 60.4579848,63.7204619 60.5168618,63.6730447 C60.6158669,63.5917101 60.683234,63.5182921 60.7189631,63.4527907 C60.7546922,63.3872893 60.7707305,63.3196907 60.7670779,63.2499946 C60.7636433,63.1844596 60.7435029,63.126189 60.7066567,63.0751829 C60.6698105,63.0241768 60.6209932,62.9874887 60.560205,62.9651186 C60.4994167,62.9427485 60.4155401,62.9343664 60.3085752,62.9399722 C60.2060879,62.9453433 60.1265661,62.9629408 60.0700098,62.9927645 C60.0134535,63.0225882 59.9705703,63.0634302 59.94136,63.1152904 C59.9121497,63.1671506 59.8939186,63.2381239 59.8866668,63.3282102 L60.192493,63.3379992 C60.1975706,63.2730611 60.211755,63.2272038 60.2350462,63.2004274 C60.2583373,63.1736509 60.2893858,63.1592457 60.3281917,63.157212 C60.3655051,63.1552565 60.3971225,63.1659863 60.4230441,63.1894013 C60.4489657,63.2128164 60.4628396,63.2419479 60.4646659,63.2767959 C60.4663559,63.3090433 60.4557036,63.343763 60.4327088,63.3809549 C60.4097141,63.4181468 60.3555022,63.4736643 60.270073,63.5475074 C60.1302172,63.6680128 60.0359707,63.7711335 59.9873335,63.8568694 C59.9386962,63.9426053 59.9116206,64.0328178 59.9061066,64.127507 L60.8180448,64.0797143 Z M61.4026477,64.0686347 C61.5046376,64.0632896 61.5861102,64.0424606 61.6470657,64.0061478 C61.7080213,63.9698349 61.7535642,63.920248 61.7836946,63.8573871 C61.813825,63.7945261 61.8271457,63.729808 61.8236566,63.6632327 C61.8208763,63.6101805 61.8084098,63.565068 61.7862571,63.5278952 C61.7641044,63.4907223 61.7342556,63.4613849 61.6967106,63.4398829 C61.6735594,63.4264929 61.6405533,63.4154447 61.5976924,63.4067384 C61.6483501,63.3738338 61.6855648,63.336679 61.7093365,63.2952739 C61.7331082,63.2538689 61.7436993,63.2084607 61.7411098,63.1590494 C61.7366939,63.07479 61.701187,63.0065026 61.6345889,62.9541872 C61.5679908,62.9018718 61.4632989,62.8794557 61.3205131,62.8869388 C61.1961353,62.8934571 61.1013269,62.9239817 61.0360879,62.9785124 C60.970849,63.0330432 60.928797,63.1087853 60.909932,63.2057388 L61.200066,63.2445138 C61.205055,63.1874036 61.2181506,63.1469492 61.2393529,63.1231507 C61.2605552,63.0993522 61.2890667,63.0865143 61.3248875,63.084637 C61.3597133,63.0828119 61.3876216,63.0917802 61.4086124,63.1115421 C61.4296032,63.1313039 61.4410117,63.1586088 61.442838,63.1934569 C61.4447461,63.2298652 61.4330868,63.2620299 61.4078601,63.289951 C61.3826335,63.317872 61.3501197,63.3328754 61.3103188,63.3349613 C61.300866,63.3354567 61.2876139,63.3348474 61.2705622,63.3331333 L61.2667888,63.5609867 C61.3079256,63.5463137 61.3404342,63.5383514 61.3643148,63.5370999 C61.4090908,63.5347533 61.4453017,63.5474589 61.4729475,63.5752167 C61.5005933,63.6029746 61.5158064,63.6433796 61.5185867,63.6964318 C61.5213126,63.7484437 61.509936,63.7907638 61.4844572,63.823392 C61.4589783,63.8560202 61.4258409,63.8734033 61.385045,63.8755413 C61.3462391,63.877575 61.3136266,63.8668974 61.2872075,63.8435084 C61.2607884,63.8201195 61.2399324,63.7767505 61.2246393,63.7134016 L60.9231166,63.7714491 C60.9467515,63.8416625 60.9783346,63.8993334 61.0178661,63.9444618 C61.0573975,63.9895901 61.1065351,64.0228714 61.1652788,64.0443055 C61.2240225,64.0657396 61.3031455,64.0738493 61.4026477,64.0686347 Z" id="00023" fill="#464545" fill-rule="nonzero"></path>
                <path d="M33.1660608,51.0673751 C32.495928,51.0278899 31.9150275,51.690541 32.0064056,52.1936393 C32.0958622,52.6861593 32.9917155,52.6615439 33.357576,52.2894534 C33.5326941,52.1113534 33.6783657,51.8673006 33.713083,51.6542248 C33.7667367,51.3249277 33.5634543,51.0907901 33.1660608,51.0673751 Z M33.142533,51.4666825 C33.3102859,51.4765668 33.3325724,51.502236 33.3182891,51.5898995 C33.2987003,51.7101247 33.1943689,51.8849176 33.0723556,52.0090085 C32.895565,52.1888096 32.4144737,52.2020286 32.3999665,52.1221566 C32.3547201,51.8730441 32.7321466,51.442502 33.142533,51.4666825 Z" id="路径-457" fill="#872C2C" fill-rule="nonzero"></path>
                <path d="M37.4320903,49.5721795 L37.6798481,50.1186372 L34.425092,51.6118745 L34.2477589,51.7008348 L33.941328,51.1849859 L34.3714863,50.9736847 C34.9022253,50.7235328 35.9115468,50.2615769 37.4320903,49.5721795 Z M42.9717684,46.7717778 L43.2768889,47.2884029 L40.0238982,49.2096302 L39.7187776,48.6930051 L42.9717684,46.7717778 Z M48.9077943,44.5008103 L49.1467711,45.0511648 L45.8048182,46.5023185 L45.5658415,45.9519639 L48.9077943,44.5008103 Z M51.3927385,38.7439636 L51.9864119,38.8308655 L51.5644896,41.5751158 C51.5255508,41.8063863 51.4917439,41.995965 51.46302,42.1440982 L51.4123351,42.3851764 L50.8284114,42.2472156 L50.9062149,41.8584171 C51.01032,41.2856262 51.1730992,40.2444379 51.3927385,38.7439636 Z" id="形状" fill="#A94242" fill-rule="nonzero"></path>
                <path d="M29.2028809,69.444519 L34.4660034,69.5430298 L33.2480469,70.4299316 C31.193807,70.3550618 30.1180623,70.3199463 30.020813,70.324585 C29.9235636,70.3292236 29.6509196,70.0358683 29.2028809,69.444519 L29.2028809,69.444519 Z M50.0616455,69.555542 L49.5545044,70.2660522 L46.2794189,70.3129883 L45.5643311,69.6621094 L50.0616455,69.555542 Z" id="形状结合" fill="#524C4D"></path>
            </g>
        </g>
    </g>
</svg>