<?xml version="1.0" encoding="UTF-8"?>
<svg width="96px" height="96px" viewBox="0 0 96 96" version="1.1" xmlns="http://www.w3.org/2000/svg" xmlns:xlink="http://www.w3.org/1999/xlink">
    <title>Jumpman Diamond Low PF</title>
    <defs>
        <rect id="path-1" x="0" y="0" width="96" height="96"></rect>
    </defs>
    <g id="icon" stroke="none" stroke-width="1" fill="none" fill-rule="evenodd">
        <g id="画板" transform="translate(-970.000000, -230.000000)">
            <g id="Jumpman-Diamond-Low-PF" transform="translate(970.000000, 230.000000)">
                <g id="#" opacity="0">
                    <use fill="#FFFFFF" fill-rule="evenodd" xlink:href="#path-1"></use>
                    <rect stroke-opacity="0.5" stroke="#DDDDDD" stroke-width="6" stroke-linejoin="square" x="3" y="3" width="90" height="90"></rect>
                    <rect stroke-opacity="0.507785184" stroke="#DDDDDD" stroke-width="12" stroke-linejoin="square" x="6" y="6" width="84" height="84"></rect>
                    <rect stroke-opacity="0.319406703" stroke="#979797" stroke-width="10" stroke-linejoin="square" x="5" y="5" width="86" height="86"></rect>
                </g>
                <path d="M67.9385986,27.0629883 C68.8615723,27.1442871 69.3123779,27.6170654 69.1618652,30.1307373 C69.0113525,32.6444092 68.1046143,38.5960693 67.2509766,41.5687256 L66.6320508,43.6772607 C66.3545801,44.5967334 66.1250977,45.3140137 65.9436035,45.8291016 C67.697998,46.7816569 69.3474528,47.0789388 70.8919678,46.7209473 C73.2087402,46.18396 74.2481689,45.1898193 75.9178467,43.9506836 C77.0309652,43.1245931 78.0142008,42.5149792 78.8675537,42.1218418 C78.5794271,40.3762259 78.8066813,39.2799276 79.5493164,38.8329468 L79.8283694,38.6798212 C80.8511319,38.1763106 81.8416138,38.3631846 81.8912964,40.9872437 C81.9454956,43.8498535 81.6047363,47.3287354 81.6206055,47.4824829 L81.6567872,47.7428663 C81.7267735,48.1985737 81.8866374,49.0730726 82.0593872,49.1803589 C82.2814941,49.3182983 83.1737061,50.4869995 83.5189819,51.0961914 C83.8642578,51.7053833 84.2185669,53.9710083 84.1307983,54.4883423 C84.0430298,55.0056763 83.6311646,55.9356689 83.612793,56.1219482 C83.5944214,56.3082275 83.6785278,57.1425781 83.7171021,57.5144653 C83.7556763,57.8863525 83.9810181,58.2116699 83.852417,58.5198975 C83.7238159,58.828125 83.1246338,59.5037842 81.6206055,60.0909424 C80.1608133,60.6608312 71.8650103,61.0026844 65.2734952,61.7497945 L64.6791992,61.8188477 C58.0024414,62.614502 47.1748047,65.081543 39.5102539,65.1633205 L38.3981237,65.1633205 C30.519517,65.0899026 17.1755087,63.5016522 14.0568848,61.8188477 C10.7861328,60.0539551 10.8613281,59.2634277 10.6621094,58.5198975 C10.5292969,58.0242106 10.5292969,57.578776 10.6621094,57.1835938 C11.4163161,56.065655 12.8000069,55.2387435 14.8131819,54.7028592 L16.3742674,54.3209031 C20.2672679,53.3372436 27.9221744,51.0970326 28.9736448,50.9535265 L29.0563965,50.9462891 C29.5095215,50.9462891 31.3885905,50.2184896 34.6936035,48.7628906 C35.3124186,48.1003255 36.0184733,47.9570313 36.8117676,48.3330078 C37.4363316,48.7321847 38.1198382,47.8225008 38.2431276,47.2575374 L38.2613525,47.1340332 C38.2973633,46.5932617 38.9473877,46.0500488 39.5102539,46.0372314 C40.0731201,46.0244141 41.751709,45.6005859 42.2462158,44.9893799 L42.817606,44.2825813 C43.3147276,43.6961749 43.9265231,43.0970365 44.385498,43.2543945 C44.827474,43.4059245 45.290446,43.5480143 45.7744141,43.6806641 L46.7691852,43.186812 C47.5465451,42.8144161 48.0388886,42.6195771 48.2462158,42.6022949 L48.4959579,42.2519164 C49.1338463,41.4073277 50.1613464,40.4437408 51.6522217,40.8369141 C52.0395996,40.8719604 52.4916431,40.4517773 52.8932889,39.6728291 L53.0251465,39.4000244 C53.4573975,38.4472656 54.3029785,37.7387695 54.7487793,37.8529053 C55.1945801,37.967041 55.5548096,37.9720459 56.1083984,37.8529053 C56.4774577,37.7734782 56.8145752,37.5284831 57.119751,37.1179199 L59.7465232,34.5284057 C61.9495777,32.3383437 63.3655723,30.8724542 63.9945068,30.1307373 C65.270874,28.6254883 67.015625,26.9816895 67.9385986,27.0629883 Z M82.2626953,50.2896729 L82.7702611,52.6734811 C82.836391,53.0013951 82.8850641,53.2572266 82.9162804,53.4409754 L82.9500122,53.6625366 C83.0170898,54.2069092 83.2717285,55.3485718 83.3308716,55.3300171 C83.3900146,55.3114624 83.8451538,54.2041626 83.5509644,52.8325195 C83.2567749,51.4608765 82.8644409,50.7206421 82.6547852,50.5557861 C82.5150146,50.4458822 82.384318,50.3571777 82.2626953,50.2896729 Z M80.6166382,39.1594849 C79.9898682,39.0187378 79.2919922,40.0948486 79.2556763,40.8508911 C79.2226618,41.5382025 79.474394,42.5625691 79.5101186,42.8011459 L79.513855,42.8480225 C79.5040458,42.9031721 79.5545866,43.0137516 79.6931035,43.2229572 L79.9033203,43.5241089 C80.102417,43.7994588 80.5717163,44.9250692 81.3112183,46.9009399 L81.4161688,43.9823932 C81.437429,43.3177627 81.4549561,42.7018869 81.46875,42.1347656 C81.5170288,40.1498413 81.2434082,39.3002319 80.6166382,39.1594849 Z" id="形状" fill="#D7DCE5"></path>
                <path d="M58.0471275,36.2039775 C59.4980672,36.76063 59.4377844,38.187942 59.0241936,38.3619518 C58.2569957,38.6847344 57.4180648,40.5486215 57.419653,41.4582738 L57.4331908,41.6376843 C57.5685301,42.4526148 56.3623047,42.4501953 56.2082452,41.6376843 C56.0541857,40.8251733 53.828125,42.6347656 53.2252424,43.5008435 C52.8233207,44.0782288 53.0377095,44.8543148 53.8684089,45.8291016 C51.9821523,44.7907586 51.1469862,44.7022742 51.3629106,45.5636482 L51.4086304,45.7160056 C51.8827454,47.0938578 50.9735223,47.3140041 48.9344143,48.2924108 L48.2132117,48.6492583 C45.6720288,49.9498837 45.1015625,48.2641602 43.7433,47.3752716 C42.4440925,46.5250304 40.937222,48.9026701 40.6960946,50.1541988 L40.6711974,50.3174729 C40.5425902,51.5094574 38.6000977,53.8334961 36.9124755,52.2310687 C36.030471,51.3935897 35.7992081,50.0342097 36.2186869,48.1529287 C36.4117003,48.1746592 36.6088808,48.236851 36.8117676,48.3330078 C37.4363316,48.7321847 38.1198382,47.8225008 38.2431276,47.2575374 L38.2613525,47.1340332 C38.2973633,46.5932617 38.9473877,46.0500488 39.5102539,46.0372314 C40.0731201,46.0244141 41.751709,45.6005859 42.2462158,44.9893799 L42.817606,44.2825813 C43.3147276,43.6961749 43.9265231,43.0970365 44.385498,43.2543945 C44.827474,43.4059245 45.290446,43.5480143 45.7744141,43.6806641 L46.7691852,43.186812 L47.2987646,42.940807 C47.7749034,42.7280939 48.0907204,42.6152566 48.2462158,42.6022949 L48.4959579,42.2519164 C49.1338463,41.4073277 50.1613464,40.4437408 51.6522217,40.8369141 C52.0395996,40.8719604 52.4916431,40.4517773 52.8932889,39.6728291 L53.0251465,39.4000244 C53.4573975,38.4472656 54.3029785,37.7387695 54.7487793,37.8529053 C55.1945801,37.967041 55.5548096,37.9720459 56.1083984,37.8529053 C56.4774577,37.7734782 56.8145752,37.5284831 57.119751,37.1179199 L58.0471275,36.2039775 Z" id="路径" fill="#CCD2DB"></path>
                <path d="M81.8912964,40.9872437 C81.9454956,43.8498535 81.6047363,47.3287354 81.6206055,47.4824829 L81.6567872,47.7428663 C81.7267735,48.1985737 81.8866374,49.0730726 82.0593872,49.1803589 C82.2814941,49.3182983 83.1737061,50.4869995 83.5189819,51.0961914 C83.8642578,51.7053833 84.2185669,53.9710083 84.1307983,54.4883423 C84.0430298,55.0056763 83.6311646,55.9356689 83.612793,56.1219482 C83.5944214,56.3082275 83.6785278,57.1425781 83.7171021,57.5144653 C83.7556763,57.8863525 83.9810181,58.2116699 83.852417,58.5198975 C83.7238159,58.828125 83.1246338,59.5037842 81.6206055,60.0909424 C80.1608133,60.6608312 71.8650103,61.0026844 65.2734952,61.7497945 L64.6791992,61.8188477 C58.0024414,62.614502 47.1748047,65.081543 39.5102539,65.1633205 L38.3981237,65.1633205 C34.1274287,65.1235235 28.2508268,64.638621 23.2674668,63.9348278 L26.1181641,60.9031493 C29.8033854,61.1002034 34.9003608,61.1002034 41.4090901,60.9031493 C50.9083168,60.6155568 54.8763573,55.7456758 59.0594771,52.3425674 L60.6271592,51.10746 C63.8200934,48.6397159 64.3737711,48.6428229 67.3704458,49.7282718 C70.7128906,50.9389648 73.5994263,50.3173548 75.6147461,48.6474609 C76.6665379,47.7759463 77.3193968,45.8353242 77.5733228,42.8255946 C78.0344696,42.5404238 78.4654321,42.3070981 78.8675537,42.1218418 C78.5794271,40.3762259 78.8066813,39.2799276 79.5493164,38.8329468 L79.8283694,38.6798212 L80.0938474,38.56528 C81.0162758,38.2272391 81.845934,38.5913637 81.8912964,40.9872437 Z M82.2626953,50.2896729 L82.7702611,52.6734811 L82.9162804,53.4409754 L82.9500122,53.6625366 C83.0170898,54.2069092 83.2717285,55.3485718 83.3308716,55.3300171 C83.3900146,55.3114624 83.8451538,54.2041626 83.5509644,52.8325195 C83.2567749,51.4608765 82.8644409,50.7206421 82.6547852,50.5557861 C82.5150146,50.4458822 82.384318,50.3571777 82.2626953,50.2896729 Z M79.2556763,40.8508911 C79.2226618,41.5382025 79.474394,42.5625691 79.5101186,42.8011459 L79.513855,42.8480225 C79.5040458,42.9031721 79.5545866,43.0137516 79.6931035,43.2229572 L79.9033203,43.5241089 C80.102417,43.7994588 80.5717163,44.9250692 81.3112183,46.9009399 L81.4161688,43.9823932 L81.46875,42.1347656 C81.5170288,40.1498413 81.2434082,39.3002319 80.6166382,39.1594849 C79.9898682,39.0187378 79.2919922,40.0948486 79.2556763,40.8508911 Z" id="形状" fill="#CDD3E0"></path>
                <path d="M78.2359009,43.5855103 C78.4667358,43.4614868 78.3793945,42.5098267 78.7521973,42.9095459 C79.125,43.3092651 79.8346558,44.7026978 79.8514404,45.4207153 C79.8570353,45.6600545 79.8694119,45.8661296 79.8846888,46.0502681 L80.0139926,47.3004345 C80.0972716,48.0140166 80.2970785,49.5496675 80.3516732,50.4637128 L80.4083069,51.8279546 C80.4490528,52.661636 80.5090679,53.5990107 80.5740014,54.1390232 L80.6068115,54.3735962 C80.7171021,55.0296631 80.7103882,55.5011597 80.7042847,55.949707 C80.6981812,56.3982544 80.1389771,54.9038086 80.1073608,54.090271 L79.8958919,50.2289253 C79.8466387,49.292902 79.8072968,48.4406891 79.8032227,48 C79.7923584,46.8248291 78.7113037,43.5374146 78.6160278,43.3251343 C78.5588623,43.1977661 78.5372705,43.3455615 78.5152876,43.5966064 L78.460144,44.1854248 C78.3959961,44.7059326 78.4602051,45.0330811 78.8427734,46.2562866 C79.187085,47.3571716 79.2723389,49.1492065 79.2601498,50.1465377 L79.2526995,50.4475098 C79.2212449,51.2399902 79.0276237,52.0634796 79.0279807,51.3647371 L79.0379028,51.0283203 C79.0923191,49.9247504 78.8439286,48.5314911 78.5654509,47.6237482 L78.460144,47.3076172 C78.1431885,46.4365845 77.9019165,44.2000122 78.05896,43.9356689 C78.2160034,43.6713257 77.8674316,43.9523926 77.4599609,44.1854248 C77.089533,44.3972723 77.086224,45.0569463 77.3672168,45.9737292 L77.4599609,46.2562866 C77.8306885,47.3192139 78.237793,51.8729858 78.05896,52.1600342 C77.880127,52.4470825 77.6470337,49.739563 77.5335693,48.8755371 L77.4884435,48.5962724 C77.3784534,47.9947142 77.1185372,46.9005061 76.7086949,45.3136478 L76.4702759,44.399231 L75.5263672,44.5282658 C76.1879476,46.1324688 76.6293945,47.4051514 76.850708,48.3463135 C77.0720215,49.2874756 77.1187744,50.6111954 76.9909668,52.3174729 L76.8330825,51.3807053 C76.7210768,50.6441991 76.6579822,50.0180268 76.6437988,49.5021882 C76.6169162,48.5244908 75.1097985,45.613143 74.6779257,44.8808364 C74.9116154,44.7136379 75.1470875,44.5331206 75.3931447,44.345893 L75.9156019,44.2233407 C76.3574228,44.12738 76.7869248,44.050106 76.9909668,44.0160522 C77.5234375,43.9271851 78.0050659,43.7095337 78.2359009,43.5855103 Z" id="路径" fill="#C1C9DA"></path>
                <path d="M32.2094727,53.7768555 L31.9495279,54.1808404 C30.7989638,55.9059126 27.6236776,60.1218669 27.276123,60.5305176 L27.0501494,60.7672785 C26.5552811,61.2591147 25.3914292,62.3274776 23.5585938,63.9723671 L21.6538569,63.6921098 C18.1579993,63.1431416 15.2978689,62.4884807 14.0568848,61.8188477 C10.7861328,60.0539551 10.8613281,59.2634277 10.6621094,58.5198975 C10.5292969,58.0242106 10.5292969,57.578776 10.6621094,57.1835938 C11.4163161,56.065655 12.8000069,55.2387435 14.8131819,54.7028592 L16.3742674,54.3209031 L18.1075329,53.8683717 C22.1911818,52.7771288 28.0623705,51.0778985 28.9736448,50.9535265 L29.0563965,50.9462891 C29.4869821,50.9462891 31.2051814,50.2890932 34.2109941,48.9747015 L33.8381261,49.988967 C33.1213592,51.9080442 32.5784176,53.1704377 32.2094727,53.7768555 Z" id="路径" fill="#DFE2ED"></path>
                <path d="M16.3193359,58.7080078 L17.8378956,59.0327617 C20.4656156,59.5729835 23.5772707,60.1080319 27.1728612,60.637907 L27.0501494,60.7672785 L26.4621438,61.3300426 C25.835612,61.9166712 24.8677619,62.797446 23.5585938,63.9723671 L21.6538569,63.6921098 L20.4480231,63.4941154 C17.5074378,62.9888965 15.1518708,62.4097004 14.0568848,61.8188477 C10.7861328,60.0539551 10.8613281,59.2634277 10.6621094,58.5198975 C10.5292969,58.0242106 10.5292969,57.578776 10.6621094,57.1835938 C11.0884457,56.5516478 11.7159267,56.0126965 12.5445524,55.5667396 C12.4664242,57.0837244 13.7242904,58.1298706 16.3193359,58.7080078 Z" id="路径" fill="#D2D7E5"></path>
                <path d="M33.8159268,49.1473519 C33.5519174,49.4708136 33.0339128,49.739717 32.746582,49.8946484 C32.3513184,50.1077783 30.5222168,50.7028809 30.1391949,51.0528564 C29.7561729,51.402832 29.546875,51.2653809 29.5185547,51.0528564 C29.5128703,51.0101992 29.5088974,50.9453893 29.5066359,50.8584266 C30.2095614,50.6556581 31.5689438,50.1189688 33.5865998,49.2462978 Z" id="形状结合" fill="#A65151"></path>
                <path d="M23.3698267,52.4245531 L24.7670898,52.6782227 L23.6589355,54.3172607 L24.5695801,55.1556396 L21.0488281,54.883667 L23.4075504,53.5756338 L23.4075504,53.5756338 L23.6579329,53.4469313 L23.6579329,53.4469313 L20.8049316,54.0220947 L18.4558105,55.7044678 L21.9417725,55.7044678 L22.3118896,55.9220197 L25.0350342,56.3764648 L25.0350342,59.5529288 L26.2141113,58.7378119 L30.1391949,54.578125 L30.8259277,55.3302405 L27.3879395,58.7378119 L27.3879395,57.9650879 L26.6044922,58.3942871 C26.7573242,59.0611165 26.8719889,59.4473304 26.9484863,59.5529288 C27.016484,59.646794 26.8306237,60.0033657 26.3909053,60.6226438 L26.2141113,60.8671875 L25.1936035,59.7961426 L25.1936035,60.8671875 L25.7307129,61.7028809 L24.7670898,63.1838379 L24.3564903,56.3764648 L23.2165527,56.3764648 L23.6589355,62.722168 L22.7792969,62.722168 L21.7783203,55.9220197 L17.5825195,56.3764648 L18.4558105,57.9650879 L19.7983398,57.9650879 L18.0146484,59.2988281 L17.5825195,58.3942871 L16.779541,59.2988281 L16.779541,61.7028809 L16.0039062,61.7028809 L16.0039062,58.7378119 L16.779541,55.9220197 L13.8920898,55.9220197 L11.2717285,57.298584 L14.5568848,56.3764648 L11.7173358,60.3016704 C10.8053516,59.5139332 10.7925781,59.0068369 10.6621094,58.5198975 C10.5292969,58.0242106 10.5292969,57.578776 10.6621094,57.1835938 C11.2765525,56.2728225 12.3087947,55.5552109 13.7588358,55.0307587 L14.5568848,55.5375977 L18.0146484,55.7044678 L20.0321045,54.3172607 L20.0321045,54.0220947 L16.0039062,55.1556396 L15.2545,54.5945531 L16.3742674,54.3209031 L18.1308301,53.8621447 C18.5555416,53.748601 18.999386,53.6285474 19.4548104,53.5044273 L20.614624,53.4476564 L20.4036865,54.0220947 L23.2165527,53.4476564 L23.0533447,53.1582031 L22.6294026,52.6297411 L23.3698267,52.4245531 L23.3698267,52.4245531 Z" id="路径" fill="#CDD3E0"></path>
                <path d="M35.7788008,48.1428943 L35.9218994,47.8716724 C34.1459958,51.345251 32.4937475,54.1622538 30.9638627,56.3237093 C29.4364498,58.4816726 27.4092235,60.9969288 24.8817577,63.8704954 C24.7723323,63.994905 24.5827716,64.0070522 24.458362,63.8976268 C24.3339524,63.7882015 24.3218053,63.5986408 24.4312306,63.4742311 C26.945757,60.6153759 28.9601973,58.1159837 30.4741256,55.9770719 C31.8381751,54.0499121 33.3055165,51.5870287 34.8752002,48.5891776 L34.6936035,48.7628906 C35.0296143,48.403124 35.3913468,48.1964585 35.7788008,48.1428943 Z" id="路径" fill="#CBCED6"></path>
                <path d="M36.8117676,48.3330078 C36.9191979,48.4016697 37.0283722,48.4316063 37.1361394,48.4312332 L36.6717742,48.604023 C36.4650296,48.6786209 36.299763,48.7339448 36.190918,48.7628906 C35.7390951,48.8830469 35.3293034,48.9070781 34.961543,48.8349844 L34.6936035,48.7628906 C35.3124186,48.1003255 36.0184733,47.9570313 36.8117676,48.3330078 Z M67.9385986,27.0629883 C68.8615723,27.1442871 69.3123779,27.6170654 69.1618652,30.1307373 C69.0113525,32.6444092 68.1046143,38.5960693 67.2509766,41.5687256 L66.6320508,43.6772607 C66.4008252,44.443488 66.2029248,45.0693038 66.0383496,45.5547083 L65.9436035,45.8291016 C63.3696289,44.3703613 63.3039551,42.7919922 62.7702637,40.8728027 C62.2365723,38.9536133 60.4506836,37.9753418 58.9750977,37.9992676 C57.4995117,38.0231934 55.2548828,39.9584961 54.5898438,40.4731445 C53.9691406,40.9534831 51.3293142,42.3566124 50.6283623,42.64994 L50.5092773,42.6950684 C50.2208659,42.7839355 50.2208659,42.9534505 50.5092773,43.2036133 L50.2075348,43.3141632 L48.8269132,43.7997456 C47.5561466,44.2765329 43.5530876,45.8799712 42.2022767,46.4008131 L41.404801,46.7019387 C40.6169739,47.01638 38.8834754,47.7429273 37.6001105,48.2490624 C37.9044879,48.0232459 38.1457885,47.6243732 38.2302479,47.3102643 L38.2613525,47.1340332 C38.2973633,46.5932617 38.9473877,46.0500488 39.5102539,46.0372314 C40.0731201,46.0244141 41.751709,45.6005859 42.2462158,44.9893799 L42.817606,44.2825813 C43.3147276,43.6961749 43.9265231,43.0970365 44.385498,43.2543945 C44.827474,43.4059245 45.290446,43.5480143 45.7744141,43.6806641 L46.7691852,43.186812 C47.5465451,42.8144161 48.0388886,42.6195771 48.2462158,42.6022949 L48.4959579,42.2519164 C49.1338463,41.4073277 50.1613464,40.4437408 51.6522217,40.8369141 C52.0395996,40.8719604 52.4916431,40.4517773 52.8932889,39.6728291 L53.0251465,39.4000244 C53.4573975,38.4472656 54.3029785,37.7387695 54.7487793,37.8529053 C55.1945801,37.967041 55.5548096,37.9720459 56.1083984,37.8529053 C56.4774577,37.7734782 56.8145752,37.5284831 57.119751,37.1179199 L59.7465232,34.5284057 C61.9495777,32.3383437 63.3655723,30.8724542 63.9945068,30.1307373 C65.270874,28.6254883 67.015625,26.9816895 67.9385986,27.0629883 Z" id="形状" fill="#E0E5EB"></path>
                <path d="M58.4468395,35.8094921 L59.4156494,37.4143657 L58.6648567,38.0280091 L58.0063477,36.7193604 L58.0063477,36.7193604 L57.8822629,36.5409742 C57.8604602,36.512055 57.8359858,36.480103 57.8088395,36.4451182 L58.4468395,35.8094921 Z M59.8828395,34.3894921 L60.8745117,36.3129883 L60.2510986,36.9265137 L59.0748395,35.1894921 L59.7465232,34.5284057 L59.8828395,34.3894921 Z M61.2018748,33.071493 L62.1679688,35.0939941 L61.6867676,35.6726074 L60.4780624,33.7988518 L61.2018748,33.071493 L61.2018748,33.071493 Z" id="形状" fill="#CFD6E2"></path>
                <path d="M69.1618652,30.1307373 C69.0113525,32.6444092 68.1046143,38.5960693 67.2509766,41.5687256 L66.6320508,43.6772607 L66.3705762,44.5293359 C66.2478369,44.9216748 66.1370947,45.2634656 66.0383496,45.5547083 L65.9436035,45.8291016 C63.3696289,44.3703613 63.3039551,42.7919922 62.7702637,40.8728027 C62.5039433,39.915097 61.9258048,39.1916955 61.2300096,38.7102131 L61.823929,38.1378721 L62.3361816,37.6545761 C63.7238647,36.3614035 65.6874958,34.0287592 68.2270749,30.6566432 L69.1899483,29.3654841 L69.1761326,29.8594945 L69.1618652,30.1307373 Z" id="路径" fill="#D4D8E2"></path>
                <path d="M67.2509766,41.5687256 L66.6320508,43.6772607 L66.3705762,44.5293359 C66.2478369,44.9216748 66.1370947,45.2634656 66.0383496,45.5547083 L65.9436035,45.8291016 C63.9788736,44.7156366 63.4755696,43.5324716 63.1100355,42.1812362 C63.5779146,41.7767296 64.0632583,41.3306174 64.5535889,40.838501 C65.9921621,39.3946882 67.3069753,37.6175979 68.4980282,35.5072302 C68.1410686,37.7333409 67.6890309,40.0432715 67.2509766,41.5687256 Z" id="形状结合" fill="#C1C8D3"></path>
                <path d="M63.456616,43.2274301 L64.9493206,44.5767944 L66.7243137,43.353467 L66.6320508,43.6772607 L66.3705762,44.5293359 C66.2478369,44.9216748 66.1370947,45.2634656 66.0383496,45.5547083 L65.9436035,45.8291016 C64.5023862,45.0123251 63.8475445,44.158044 63.456616,43.2274301 Z" id="路径" fill="#A6B0C2"></path>
                <path d="M67.9385986,27.0629883 C68.8129947,27.1400082 69.2636168,27.5683837 69.1806521,29.7505616 L69.1618652,30.1307373 C69.1125657,30.954075 68.9821346,32.1462572 68.799012,33.4817873 C68.7977254,32.7166733 68.7724633,31.941908 68.6958008,31.3538818 C68.4732666,29.6469727 68.0687256,27.8509521 67.8666992,27.7416992 C67.6871202,27.6445855 67.0933823,28.0937681 66.6321246,28.4997408 L65.9333038,29.1617508 C65.1030731,29.9705429 63.3815308,31.6668701 60.7686768,34.2507324 L58.4434814,36.4727783 L58.2263184,36.7318115 L57.1516035,37.0880899 L59.7465232,34.5284057 C61.8027074,32.4843478 63.173275,31.0711247 63.8582258,30.2887363 L63.9945068,30.1307373 C65.270874,28.6254883 67.015625,26.9816895 67.9385986,27.0629883 Z" id="路径" fill="#E4E8ED"></path>
                <path d="M68.1691895,27.3666992 L68.3825684,28.7947998 L67.8666992,27.7416992 L67.6080322,27.7416992 L65.0869141,30.3034668 L60.5584717,34.7113037 L58.6386894,36.7338867 L56.9348145,37.40979 L56.8654732,37.4143657 C56.9525628,37.3276295 57.0373221,37.2288143 57.119751,37.1179199 L57.5187668,36.7226992 L58.4650879,36.4002686 L64.8924561,29.8314209 L67.6080322,27.3666992 L68.1691895,27.3666992 Z" id="路径" fill="#959CA6"></path>
                <path d="M40.166748,46.4625244 C40.3261852,46.6725571 40.4859444,46.8582038 40.6428682,47.0124119 L39.0211987,47.6768135 L39.0211987,47.6768135 C38.9535055,47.616805 38.868194,47.5590369 38.7662354,47.5021882 C38.5786358,47.3975889 38.4059896,47.1918978 38.2942297,46.9610385 C38.4203467,46.5357601 38.88614,46.1456492 39.3409148,46.0561739 L39.5639645,46.0294274 C39.8024425,46.1251429 40.0206519,46.2700663 40.166748,46.4625244 Z M44.385498,43.2543945 C44.7618585,43.3834284 45.1534436,43.5056171 45.5602535,43.6209606 C46.0602627,43.9101355 46.5515085,44.3083525 46.6900969,44.6343684 L45.3568327,45.1580568 L45.3568327,45.1580568 C45.1833329,45.0164686 44.9955966,44.9023483 44.8099009,44.8380807 L44.6254883,44.7912598 C43.9438852,44.6846642 44.0433126,43.6728472 44.3144807,43.3262707 L44.385498,43.2543945 Z M52.3339091,41.7964451 L51.5054028,42.2284142 L51.5054028,42.2284142 L50.7440719,42.598574 L50.4680671,42.4438535 C50.3901328,42.4051824 50.3283569,42.3807817 50.2890126,42.3747559 C50.2637939,42.1237793 50.5074463,41.3240967 51.0252686,41.2442627 C51.4117591,41.1846765 51.931195,41.4478992 52.3339091,41.7964451 Z" id="形状" fill="#F0F3F8"></path>
                <path d="M83.7614524,57.5868253 C83.7179695,58.0374867 83.6473796,58.3102214 83.5496826,58.4050293 C83.4031372,58.5472412 83.0081389,58.8021008 82.9559127,58.7378119 C82.9036865,58.6735229 82.6400757,56.394603 82.4794312,55.5239616 C82.3187866,54.6533203 81.3972778,50.3095706 81.1851807,49.567749 C80.9730835,48.8259274 80.0330811,46.307251 79.7478027,45.6700439 C79.4625244,45.0328369 78.729126,43.6621094 78.7054443,43.4995728 C78.6896566,43.391215 78.7421061,43.2326742 78.862793,43.0239502 C78.2890218,43.2428874 77.8525391,43.46521 77.5533447,43.690918 C77.1045532,44.02948 76.5708618,44.4247437 75.230957,45.5441895 C73.8910522,46.6636353 72.1061401,47.482666 70.0793457,47.529541 C68.0525513,47.576416 66.060791,47.0292969 64.5355225,45.7193604 C63.0102539,44.4094238 61.9318848,41.5389404 61.6171875,40.5153809 C61.3024902,39.4918213 60.0110318,39.1426431 59.6195068,39.041748 C58.1679327,38.6676808 57.387484,39.2790607 57.0644531,39.4885254 C55.7498779,40.3409424 54.0743488,41.9485941 53.588501,42.2232666 C50.8817139,43.75354 49.8287204,43.4911253 50.4869385,43.1343994 C51.6958008,42.479248 54.0934377,41.1786866 54.3861084,40.934082 C55.4727783,40.0258789 57.2889298,38.8541227 57.7484131,38.6772461 C59.7012342,37.9255138 60.7032518,38.7455403 60.8096924,38.8104248 C62.4042969,39.7824707 62.8254395,42.8986816 64.0594482,44.5863037 C65.7741162,46.9312721 69.598655,47.2093736 70.0875244,47.1877441 C71.7098389,47.1159668 73.0425415,46.8353882 74.6569214,45.5650024 C76.2713013,44.2946167 77.3394775,43.4588754 77.9442749,43.1399536 C78.3474731,42.9273391 78.5624593,42.8599156 78.5892334,42.9376831 C78.6576335,42.8019816 78.8001506,42.7069702 79.0167847,42.6526489 C79.3417358,42.571167 79.7313232,42.6439209 79.8391724,42.8239136 C79.9470215,43.0039062 81.4848411,47.4759566 81.8141868,48.8705611 C82.1435325,50.2651656 83.0520075,53.7642822 83.1609553,54.7304687 C83.2335871,55.3745931 83.4337528,56.3267119 83.7614524,57.5868253 Z" id="路径-484" fill="#939AA7"></path>
                <path d="M59.1627197,38.041748 C60.2694092,37.8641758 62.0739746,39.4487305 62.463501,40.4356689 L62.7265098,41.1518867 C63.1133496,42.2443555 63.633252,43.775293 64.1472168,44.4057617 C64.5041368,44.8435872 64.9794538,45.246035 65.5731676,45.6131049 L65.9436035,45.8291016 C67.697998,46.7816569 69.3474528,47.0789388 70.8919678,46.7209473 C73.2087402,46.18396 74.2481689,45.1898193 75.9178467,43.9506836 C77.0309652,43.1245931 78.0142008,42.5149792 78.8675537,42.1218418 C78.5794271,40.3762259 78.8066813,39.2799276 79.5493164,38.8329468 L79.8283694,38.6798212 L80.0938474,38.56528 C81.0162758,38.2272391 81.845934,38.5913637 81.8912964,40.9872437 C81.9454956,43.8498535 81.6047363,47.3287354 81.6206055,47.4824829 L81.6567872,47.7428663 C81.7267735,48.1985737 81.8866374,49.0730726 82.0593872,49.1803589 C82.2814941,49.3182983 83.1737061,50.4869995 83.5189819,51.0961914 C83.8642578,51.7053833 84.2185669,53.9710083 84.1307983,54.4883423 C84.0430298,55.0056763 83.6311646,55.9356689 83.612793,56.1219482 C83.5944214,56.3082275 83.6785278,57.1425781 83.7171021,57.5144653 L83.5501509,58.1122914 C83.4400874,58.4725176 83.3299793,58.7309878 83.2047119,58.7370605 C82.8798828,58.7528076 82.9404297,58.5201416 83.0124512,58.1224365 C83.0529633,57.8987274 82.8710408,56.8570819 82.6589146,55.7434802 L82.199585,53.3654785 C81.9456787,51.9890137 81.3178711,49.3365479 81,48.2490624 L80.8888455,47.9097651 C80.6366826,47.1973348 80.1184317,45.9877848 79.3340929,44.2811152 L78.8798828,43.3009033 L78.8798828,42.8106689 C77.7890523,43.2851969 76.9872939,43.7515939 76.4746075,44.2098598 L76.272583,44.4057617 C75.5352783,45.1873779 73.180542,46.9268799 71.1087646,47.3054199 C69.0369873,47.68396 65.8540039,47.0460205 64.1472168,45.4193115 C62.4404297,43.7926025 62.28125,41.8848877 61.7172852,40.4356689 C61.1533203,38.9864502 59.2220459,38.769165 58.4216309,38.7821045 C57.6212158,38.7950439 55.0003662,40.7431641 54.4627686,41.3537598 C53.9251709,41.9643555 51.3419189,43.2294922 50.6283623,43.3009033 C49.9696946,43.3668213 50.4159343,42.7672348 50.7444071,42.6544678 L50.8233643,42.637085 C51.148748,42.6114878 52.5561523,41.772583 53.1269531,41.5223389 C53.6977539,41.2720947 54.7745361,40.3000488 56.173584,39.2668457 C57.5726318,38.2336426 58.0560303,38.2193203 59.1627197,38.041748 Z M82.2626953,50.2896729 L82.7702611,52.6734811 L82.9162804,53.4409754 L82.9162804,53.4409754 L82.9500122,53.6625366 C83.0170898,54.2069092 83.2717285,55.3485718 83.3308716,55.3300171 C83.3900146,55.3114624 83.8451538,54.2041626 83.5509644,52.8325195 C83.2567749,51.4608765 82.8644409,50.7206421 82.6547852,50.5557861 C82.5150146,50.4458822 82.384318,50.3571777 82.2626953,50.2896729 Z M79.2556763,40.8508911 C79.2226618,41.5382025 79.474394,42.5625691 79.5101186,42.8011459 L79.513855,42.8480225 C79.5040458,42.9031721 79.5545866,43.0137516 79.6931035,43.2229572 L79.9033203,43.5241089 C80.102417,43.7994588 80.5717163,44.9250692 81.3112183,46.9009399 L81.4161688,43.9823932 L81.46875,42.1347656 L81.46875,42.1347656 C81.5170288,40.1498413 81.2434082,39.3002319 80.6166382,39.1594849 C79.9898682,39.0187378 79.2919922,40.0948486 79.2556763,40.8508911 Z" id="形状" fill="#E8EAF1"></path>
                <path d="M36.4282227,52.0966797 C37.036377,51.9714966 37.2585759,51.5907593 37.2584229,51.1389771 C37.2582698,50.6871948 36.5045166,50.2055664 35.9189453,50.8070679 C35.333374,51.4085693 35.8200684,52.2218628 36.4282227,52.0966797 Z" id="路径-447" fill="#CBB067"></path>
                <path d="M36.4700928,51.8729248 C37.0782471,51.7477417 37.2446899,51.3305054 37.1550903,50.9328003 C37.0654907,50.5350952 36.3584595,50.4118042 35.9414063,50.8566284 C35.524353,51.3014526 35.8619385,51.9981079 36.4700928,51.8729248 Z" id="路径-447" fill="#694916"></path>
                <path d="M41.9812089,50.3800652 C42.6020758,50.3732234 42.8928404,50.0418789 42.9788943,49.5983679 C43.0649481,49.154857 42.4169426,48.5382546 41.727358,49.0169725 C41.0377734,49.4956904 41.3603421,50.386907 41.9812089,50.3800652 Z" id="路径-447" fill="#CBB067"></path>
                <path d="M42.0650042,50.1684105 C42.6858711,50.1615687 42.9288684,49.783757 42.9168006,49.3762624 C42.9047329,48.9687679 42.2342169,48.7128342 41.7399496,49.0699082 C41.2456824,49.4269823 41.4441374,50.1752524 42.0650042,50.1684105 Z" id="路径-447" fill="#694916"></path>
                <path d="M48.0409623,48.2210686 C48.6618292,48.2142268 48.9525938,47.8828823 49.0386477,47.4393713 C49.1247016,46.9958604 48.476696,46.379258 47.7871114,46.8579759 C47.0975268,47.3366938 47.4200955,48.2279105 48.0409623,48.2210686 Z" id="路径-447" fill="#CBB067"></path>
                <path d="M48.1247576,48.0094139 C48.7456245,48.0025721 48.9886218,47.6247604 48.9765541,47.2172659 C48.9644864,46.8097713 48.2939703,46.5538376 47.7997031,46.9109116 C47.3054358,47.2679857 47.5038908,48.0162558 48.1247576,48.0094139 Z" id="路径-447" fill="#694916"></path>
                <path d="M53.660164,45.2691643 C54.2810309,45.2623225 54.5717955,44.930978 54.6578494,44.4874671 C54.7439032,44.0439561 54.0958976,43.4273537 53.4063131,43.9060716 C52.7167285,44.3847895 53.0392971,45.2760062 53.660164,45.2691643 Z" id="路径-447" fill="#CBB067"></path>
                <path d="M53.7439593,45.0575096 C54.3648261,45.0506678 54.6078234,44.6728561 54.5957557,44.2653616 C54.583688,43.857867 53.913172,43.6019333 53.4189047,43.9590073 C52.9246375,44.3160814 53.1230924,45.0643515 53.7439593,45.0575096 Z" id="路径-447" fill="#694916"></path>
                <path d="M58.4566118,41.4060051 C59.0774786,41.3991633 59.3682432,41.0678188 59.4542971,40.6243079 C59.540351,40.180797 58.8923454,39.5641945 58.2027608,40.0429124 C57.5131762,40.5216304 57.8357449,41.412847 58.4566118,41.4060051 Z" id="路径-447" fill="#CBB067"></path>
                <path d="M58.540407,41.1943505 C59.1612739,41.1875086 59.4042712,40.8096969 59.3922035,40.4022024 C59.3801358,39.9947079 58.7096197,39.7387741 58.2153525,40.0958482 C57.7210852,40.4529222 57.9195402,41.2011923 58.540407,41.1943505 Z" id="路径-447" fill="#694916"></path>
                <path d="M36.0934144,48.2910808 L36.0755065,48.4121955 C36.0349343,48.973831 36.3135064,49.9339769 36.4445183,50.3770385 C36.619201,50.9677874 36.8405755,51.2654156 36.7314446,51.4634427 C36.6223138,51.6614697 36.3101189,51.7924542 36.1388543,51.8055768 C35.9675896,51.8186993 35.6148064,51.6857037 35.3390501,51.1000103 C35.0868862,50.5644263 34.768933,49.2575726 34.8389795,48.6602862 C35.2264396,48.3508937 35.6441927,48.227333 36.0934144,48.2910808 Z M44.2678216,43.4003643 C44.530086,43.4902808 44.7997434,43.5768733 45.0767939,43.6601418 L45.2086785,43.6468133 C44.5357659,43.6192755 43.7492058,44.790318 43.3474114,45.5693372 C42.9724033,46.2964217 42.5592202,48.5937632 42.5257943,49.1264535 L42.5245965,49.2123761 C42.5491936,49.4947857 42.3739617,49.7934918 42.0717773,49.8609619 C41.769593,49.928432 41.5263054,49.7386212 41.3713372,49.2957501 C41.2163689,48.852879 41.2855218,47.1941266 41.5895989,46.257675 C41.6872773,45.9568596 41.8566974,45.5869128 42.0567511,45.2046259 L42.1285393,45.1353497 L42.6999295,44.4285511 C43.1970511,43.8421448 43.8088466,43.2430063 44.2678216,43.4003643 Z M51.2641005,40.925295 L51.2909539,40.9143414 C50.4920037,41.2186627 49.5598748,42.7106671 49.3062737,43.3808331 C49.0526726,44.0509991 48.8547356,46.7426495 48.8180535,47.0806622 C48.7813714,47.4186749 48.3155511,47.7334942 47.9956048,47.648158 L47.6974709,47.5727197 C47.6403191,47.5476682 47.6070244,47.5052838 47.5424798,47.3932843 C47.4133904,47.1692852 47.3031609,46.0608258 47.5424798,44.6468133 C47.6695392,43.8960843 47.8411234,43.2921011 48.1168151,42.7484643 L48.3782814,42.3978862 C48.9768479,41.6053612 49.9184724,40.7080568 51.2641005,40.925295 Z M54.6311028,37.9988751 C54.8615475,38.0578745 55.0691268,38.0877131 55.2923684,38.086317 C55.2617008,38.1159696 55.2126673,38.1497568 55.1541834,38.1847932 L54.8875725,38.326817 L55.3365101,38.4117989 C55.9538194,38.5442354 57.0575903,38.824175 57.7363885,39.2025494 C58.6867058,39.7322735 59.0170281,40.3414654 58.8509514,40.6796612 C58.6848748,41.017857 58.2752679,41.0642437 58.0413201,40.9863629 C57.8073723,40.908482 55.7443841,39.6590924 55.4403679,39.5469708 C55.2666445,39.4829013 54.9382006,39.507694 54.4550363,39.621349 L54.2005608,39.6855816 L54.2138054,39.0458722 C53.9035841,39.9149721 53.7077885,40.6168357 53.6264185,41.151463 C53.5043637,41.9534039 54.1665642,43.5841412 54.2625115,43.9697613 C54.3584588,44.3553814 54.1966546,44.7691998 53.7491448,44.8620343 C53.301635,44.9548687 52.7940667,44.3062481 52.6373894,43.8179669 C52.4807122,43.3296856 52.3009637,41.583714 52.3997796,40.863377 C52.4257565,40.6740134 52.4616456,40.4756781 52.5056152,40.2751273 C52.5988215,40.1401444 52.6884049,39.9879284 52.7756125,39.8187989 L52.90747,39.5459942 C53.339721,38.5932354 54.185302,37.8847393 54.6311028,37.9988751 Z" id="形状" fill="#C3CAD4"></path>
                <path d="M36.2110909,48.145111 L36.1931829,48.2662257 C36.1526108,48.8278611 36.4311829,49.788007 36.5621948,50.2310687 C36.7368774,50.8218176 36.958252,51.1194458 36.8491211,51.3174729 C36.7399902,51.5154999 36.4277954,51.6464844 36.2565308,51.6596069 C36.0852661,51.6727295 35.7324829,51.5397339 35.4567265,50.9540405 C35.2045627,50.4184565 34.8866095,49.1116028 34.956656,48.5143164 C35.3441161,48.2049238 35.7618692,48.0813631 36.2110909,48.145111 Z M44.385498,43.2543945 C44.6477625,43.344311 44.9174199,43.4309035 45.1944703,43.514172 L45.326355,43.5008435 C44.6534424,43.4733057 43.8668823,44.6443481 43.4650879,45.4233673 C43.0900798,46.1504519 42.6768967,48.4477934 42.6434707,48.9804837 L42.6422729,49.0664062 C42.6668701,49.3488159 42.4916382,49.647522 42.1894538,49.7149921 C41.8872695,49.7824622 41.6439819,49.5926514 41.4890137,49.1497803 C41.3340454,48.7069092 41.4031982,47.0481567 41.7072754,46.1117052 C41.8049538,45.8108898 41.9743739,45.440943 42.1744276,45.058656 L42.2462158,44.9893799 L42.817606,44.2825813 C43.3147276,43.6961749 43.9265231,43.0970365 44.385498,43.2543945 Z M51.381777,40.7793252 L51.4086304,40.7683716 C50.6096802,41.0726929 49.6775513,42.5646973 49.4239502,43.2348633 C49.1703491,43.9050293 48.9724121,46.5966797 48.93573,46.9346924 C48.8990479,47.2727051 48.4332275,47.5875244 48.1132813,47.5021882 L47.8151474,47.4267499 C47.7579956,47.4016983 47.7247009,47.359314 47.6601563,47.2473145 C47.5310669,47.0233154 47.4208374,45.914856 47.6601563,44.5008435 C47.7872157,43.7501145 47.9587999,43.1461313 48.2344916,42.6024945 L48.2462158,42.6022949 L48.4959579,42.2519164 C49.0945244,41.4593913 50.0361488,40.562087 51.381777,40.7793252 Z M54.7487793,37.8529053 C54.979224,37.9119047 55.1868033,37.9417433 55.4100448,37.9403471 C55.3793773,37.9699998 55.3303438,38.003787 55.2718599,38.0388234 L55.005249,38.1808472 L55.4541866,38.2658291 C56.0714958,38.3982656 57.1752668,38.6782052 57.8540649,39.0565796 C58.8043823,39.5863037 59.1347046,40.1954956 58.9686279,40.5336914 C58.8025513,40.8718872 58.3929443,40.9182739 58.1589966,40.8403931 C57.9250488,40.7625122 55.8620605,39.5131226 55.5580444,39.401001 C55.3843209,39.3369315 55.0558771,39.3617242 54.5727128,39.4753792 L54.3182373,39.5396118 L54.3314819,38.8999023 C54.0212606,39.7690023 53.8254649,40.4708659 53.744095,41.0054932 C53.6220401,41.8074341 54.2842407,43.4381714 54.380188,43.8237915 C54.4761353,44.2094116 54.3143311,44.62323 53.8668213,44.7160645 C53.4193115,44.8088989 52.9117432,44.1602783 52.7550659,43.6719971 C52.5983887,43.1837158 52.4186401,41.4377441 52.5174561,40.7174072 C52.543433,40.5280435 52.5793221,40.3297083 52.6232917,40.1291575 C52.716498,39.9941746 52.8060814,39.8419585 52.8932889,39.6728291 L53.0251465,39.4000244 C53.4573975,38.4472656 54.3029785,37.7387695 54.7487793,37.8529053 Z" id="形状" fill="#ECEFF4"></path>
                <path d="M61.3630981,45.7271729 C61.8150024,45.4430745 62.011617,45.1667277 61.9529419,44.8981323 C61.8649292,44.4952393 61.3340454,44.5010487 61.1028442,44.7506464 C60.8716431,45.0002441 60.9597778,45.4144067 60.9799194,45.5008435 C61.000061,45.5872803 60.7728271,46.5872803 60.6318359,46.8809814 C60.5378418,47.0767822 60.4266561,47.2415456 60.2982788,47.3752716 C60.0494598,47.1749766 59.838319,47.1179606 59.6648567,47.2042236 C59.4046631,47.3336182 59.418457,47.7583008 59.435791,48 C59.453125,48.2416992 59.2623291,48.1750437 59.1363525,48.2627233 C59.010376,48.3504028 58.5643921,49.0012817 58.3916016,49.406189 C58.218811,49.8110962 58.0630493,50.1355591 57.7944336,50.1988525 C57.5258179,50.262146 57.2371216,50.3493652 57.4019775,50.3856812 C57.5668335,50.4219971 58.2727661,50.6331177 58.303772,50.5441895 C58.3347778,50.4552612 58.2702026,50.5929565 58.303772,50.3856812 C58.3373413,50.1784058 59.1391602,49.1608276 59.2147217,49.1553345 C59.2902832,49.1498413 59.4176025,49.4450684 59.435791,49.5992432 C59.4539795,49.753418 59.2853472,50.2722168 59.009739,50.5441895 C58.7341309,50.8161621 57.6537476,51.5721504 57.4019775,51.6604649 C57.1502075,51.7487793 56.5053101,52.4204102 56.2871704,52.4862671 C56.0690308,52.552124 55.586853,52.7335205 55.6152954,52.8856201 C55.6437378,53.0377197 56.3237305,53.1033936 56.5037231,52.9505615 C56.6837158,52.7977295 58.4852272,51.8455269 58.7885731,51.6604649 C59.0919189,51.4754028 59.6236572,51.218689 59.8966064,51.270752 C60.1695557,51.3228149 61.2897339,51.7238159 61.623291,51.9156494 C61.9568481,52.1074829 62.8043213,52.859314 62.9067993,52.8856201 C63.0092773,52.9119263 63.3236694,53.4262085 63.5021362,53.4454346 C63.680603,53.4646606 64.039978,53.3577881 64.1293945,53.1761475 C64.218811,52.9945068 64.4922485,52.4136963 64.1293945,52.5949707 C63.7665405,52.7762451 63.6646118,52.7025146 63.5021362,52.5949707 C63.3396606,52.4874268 62.6471558,51.8131172 62.5155029,51.6604649 C62.3838501,51.5078125 61.3146973,50.7979126 61.1028442,50.6569824 C60.8909912,50.5160522 60.7581787,50.1975708 60.7745972,50.0513306 C60.7910156,49.9050903 60.8588257,49.2568749 60.6702881,48.5114136 C60.5599976,48.1140137 60.8041382,47.6603394 60.9024048,47.4929199 C61.0006714,47.3255005 61.1564941,46.8589868 61.2423706,46.4527478 C61.2996216,46.1819218 61.3398641,45.9400635 61.3630981,45.7271729 Z" id="路径-448" fill="#A9987F"></path>
                <path d="M63.1709913,36.4671631 L63.7414551,39.1469604 L66.0600586,40.0742188 L64.7867432,38.2706909 L66.2750244,36.8468018 L67.8203125,38.4781494 L68.1025391,37.840828 L66.7243137,36.4671631 L68.3825684,34.8632813 L67.8203125,34.1606445 L67.4425049,32.3905324 L66.0600586,32.0740899 C66.9563802,31.8046445 67.4171956,31.5426839 67.4425049,31.288208 C67.4678141,31.0337321 67.078654,30.3928241 66.2750244,29.3654841 C65.6977946,30.0397968 65.4569499,30.5899658 65.5524902,31.0159912 C65.6480306,31.4420166 65.8172201,31.68632 66.0600586,31.7489014 L65.5524902,32.3905324 C65.4481414,33.5937191 65.5229046,34.1837565 65.7767798,34.1606445 C66.0306551,34.1375326 66.5858968,34.1375326 67.4425049,34.1606445 L67.8203125,34.7198514 L66.2750244,35.677124 L63.7414551,32.3905324 L65.8033858,36.2740479 L64.7867432,37.4143657 L64.7867432,37.840828 L64.5345459,38.0280091 L63.1709913,36.4671631 Z" id="路径-450" fill="#CAD0D8"></path>
                <path d="M26.0307617,63.1838379 L27.3288574,60.0007324 L27.3288574,61.5922852 L28.548584,61.5922852 L29.4350586,61.9909668 L32.3369141,61.9909668 L32.3369141,63.1838379 L33.5163574,61.5922852 L34.2109941,63.1838379 L35.4567265,63.1838379 L34.6936035,61.5922852 L34.9468084,57.4902344 C37.0849577,56.6863909 38.1575758,56.1636527 38.1646627,55.9220197 C38.1717495,55.6803868 37.4241618,55.1633301 35.9218994,54.3708496 C34.2721435,56.310791 33.4702962,57.3505859 33.5163574,57.4902344 C33.5624186,57.6298828 33.5624186,58.6201986 33.5163574,60.4611816 L32.9538574,57.4902344 L32.0977864,56.4735343 L32.0977372,54.3708496 L34.2109941,50.6117444 L35.4671805,53.1330566 L38.7736816,55.9220197 L43.1632866,53.4476564 L42.8356934,54.3708496 L42.8356934,55.3302405 L43.8503418,55.9220197 L45.326355,54.3708496 L45.326355,53.1330566 L44.3635254,52.7766113 L44.3635254,51.3174729 L45.9543789,51.6604649 L45.326355,57.8041955 L42.8356934,55.9220197 L42.1894538,55.3302405 L42.1632866,54.7324219 L39.9445801,55.9220197 L43.1894538,58.3581543 L42.8356934,58.7378119 L39.2446289,56.4735343 L35.9124755,57.8041955 L35.4671805,61.9909668 L36.4567265,63.1838379 L36.4671805,60.0007324 L36.9124755,60.0007324 L37.1361394,62.7890625 L38.7736816,62.7890625 L39.2446289,60.4611816 L38.1646627,60.0007324 L38.1646627,57.4902344 L38.7736816,57.4902344 L38.7736816,59.4594727 L39.9445801,60.4611816 L39.9445801,62.3146973 L41.1632866,63.5771484 L43.3677226,63.9723671 L42.1894538,59.4594727 L44.3635254,63.9723671 L44.9626465,63.9723671 C44.6755371,62.2915703 44.4758301,61.369873 44.3635254,61.2072754 C44.2512207,61.0446777 44.2512207,60.3539225 44.3635254,59.1350098 L44.9626465,59.1350098 L44.9626465,61.9909668 L45.9543789,63.5771484 L50.2890126,62.7890625 L48.2492072,59.706543 L47.0097363,56.7248245 L47.353423,53.6944106 L53.3952448,47.3752716 L52.8684089,49.8946484 L53.8422416,50.6117444 L55.6140899,48.6117444 L56.3974609,51.1162109 L55.6140899,51.6604649 L52.8684089,51.6604649 L50.2890126,52.4245531 L49.4638338,54.3708496 L48.22304,55.3302405 L48.2492072,57.8041955 C49.6555937,58.2163074 50.3355289,58.4009603 50.2890126,58.3581543 C50.2424964,58.3153483 50.2424964,58.8628743 50.2890126,60.0007324 L51.0270996,60.4611816 L51.9419913,52.4245531 L52.4891801,52.2310687 L51.9419913,60.8737793 L52.8684089,61.2072754 L54.2636719,61.5922852 L54.8684089,60.0007324 L54.8684089,54.7324219 L55.6525879,55.2929688 L55.7494596,60.4611816 L56.8654732,60.4611816 L57.6122445,55.2929688 L57.8088395,55.2929688 L57.8088395,60.4611816 L58.6122445,60.8737793 L59.6433105,58.9816895 L59.6122445,55.3302405 L59.9884041,55.2929688 L60.3230156,59.4594727 C61.12525,59.0713143 61.6009928,58.8307607 61.7502441,58.7378119 C61.8994954,58.6448631 62.3527394,57.7062657 63.109976,55.9220197 L64.3124307,58.3581543 L65.209979,58.3581543 C64.1689026,56.3996582 63.6858237,55.0489909 63.7607422,54.3061523 C63.8731199,53.1918945 65.1874595,52.4035437 64.9493206,51.2310687 C64.7111816,50.0585938 63.3036526,47.9177796 63.1709913,47.3752716 C63.0383301,46.8327637 62.9533691,45.9638889 61.7502441,46.1117052 C60.5471191,46.2595215 59.6467318,46.7829807 57.8088395,46.1117052 C55.9709473,45.4404297 55.6218262,44.8452578 56.3974609,43.2289033 C57.1730957,41.6125488 58.4398882,45.7914796 59.009739,44.1313355 C59.5795898,42.4711914 58.7795761,37.9767822 60.3230156,39.1469604 C61.8664551,40.3171387 61.6974911,42.3010011 63.109976,44.1313355 C64.5224609,45.9616699 63.092041,46.6044922 64.5852051,46.8793945 C66.0783691,47.1542969 67.6599211,47.4576151 67.2166793,48.128832 C66.7734375,48.8000488 65.6104926,49.1313269 66.7243137,51.2310687 C67.4668611,52.6308966 69.0889486,53.9848633 71.5905762,55.2929688 C71.2541504,54.3279622 70.693278,53.6079915 69.907959,53.1330566 C68.7299805,52.4206543 67.4463029,50.3688294 69.1899483,50.5342682 C70.9335937,50.699707 74.1052246,50.1950013 74.3442383,50.5342682 C74.583252,50.8735352 77.2575684,50.2635278 77.2507324,50.6117444 C77.2438965,50.9599609 77.6022949,53.1318359 78.0527344,52.7766113 C78.5031738,52.4213867 80.1255487,51.4624023 80.3634336,53.1330566 C80.6013184,54.8037109 80.1203613,54.4497877 81.0158691,55.3302405 C81.6128743,55.9172091 82.043457,56.5585937 82.3076172,57.2543945 C81.9458008,57.0957031 81.5152181,57.1743164 81.0158691,57.4902344 C80.2668457,57.9641113 79.8034948,56.6120605 79.2526995,57.2543945 C78.7019043,57.8967285 81.1084589,61.666748 80.3634336,61.5922852 C79.6184082,61.5178223 78.1586914,61.5515137 78.0527344,61.2072754 C77.9467773,60.8630371 75.7219238,59.3391039 74.8459473,57.8041955 C73.9699707,56.2692871 73.6447754,55.9053206 72.7443848,56.4735343 C71.8439941,57.041748 69.4239712,56.5476527 69.1903792,55.9220197 C68.9567871,55.2963867 67.2954191,52.159409 67.2166793,52.4245531 C67.1379395,52.6896973 68.098877,54.354817 67.7453613,55.3302405 C67.3918457,56.3056641 67.4606321,57.4665906 68.4967955,58.7378119 C69.532959,60.0090332 69.1146848,60.2224121 68.4967955,60.8737793 C67.8789062,61.5251465 47.2111816,65.7268066 39.9445801,65.6088867 C32.6779785,65.4909668 25.2051682,65.6271973 24.3564903,64.7087402 C23.7907051,64.0964355 24.3487956,63.5881348 26.0307617,63.1838379 Z" id="路径-451" fill="#C7CED8"></path>
                <path d="M64.5852051,46.8793945 L65.3723481,47.0294515 C66.5735081,47.2728074 67.581702,47.5760651 67.2166793,48.128832 C66.7734375,48.8000488 65.6104926,49.1313269 66.7243137,51.2310687 C67.4668611,52.6308966 69.0889486,53.9848633 71.5905762,55.2929688 C71.2962036,54.4485881 70.8299891,53.7918129 70.1919327,53.3226433 L69.907959,53.1330566 C68.7790629,52.4503377 67.5530926,50.5374894 68.9875333,50.5248793 L69.1899483,50.5342682 C70.8367246,50.690516 73.7572285,50.2490113 74.2779965,50.4852787 L74.3442383,50.5342682 C74.583252,50.8735352 77.2575684,50.2635278 77.2507324,50.6117444 C77.2438965,50.9599609 77.6022949,53.1318359 78.0527344,52.7766113 L78.2204678,52.6551646 C78.8138039,52.2558862 80.1493372,51.6294678 80.3634336,53.1330566 C80.6013184,54.8037109 80.1203613,54.4497877 81.0158691,55.3302405 C81.6128743,55.9172091 82.043457,56.5585937 82.3076172,57.2543945 C81.9458008,57.0957031 81.5152181,57.1743164 81.0158691,57.4902344 C80.2668457,57.9641113 79.8034948,56.6120605 79.2526995,57.2543945 C78.7019043,57.8967285 81.1084589,61.666748 80.3634336,61.5922852 L79.9409394,61.5618162 C79.1694404,61.5185547 78.1410319,61.4941406 78.0527344,61.2072754 C77.9467773,60.8630371 73.2712402,60.1206055 72.71875,59.6679688 C72.1662598,59.215332 69.4239712,56.5476527 69.1903792,55.9220197 C68.9567871,55.2963867 67.2954191,52.159409 67.2166793,52.4245531 C67.1379395,52.6896973 68.098877,54.354817 67.7453613,55.3302405 C67.5654551,55.8266395 67.2290891,56.8473258 67.84729,57.2642822 C68.35041,57.6036202 69.766509,57.3199579 70.1353536,57.8392486 L70.3575439,58.1306152 C71.3937074,59.4018366 69.1146848,60.2224121 68.4967955,60.8737793 C68.0512524,61.3434625 57.180878,63.6591062 48.4270689,64.8701463 L47.7450216,63.2533964 L50.2890126,62.7890625 L48.2492072,59.706543 L47.5948682,58.1319407 L48.2428682,57.1859407 L48.2492072,57.8041955 L49.9836686,58.2970894 C50.1222231,58.3333032 50.2139667,58.3548601 50.2588993,58.36176 L50.2768682,58.3619407 L50.2682533,58.3933509 C50.2440341,58.5339638 50.2509539,59.0697576 50.2890126,60.0007324 L51.0270996,60.4611816 L51.9419913,52.4245531 L52.1308682,52.3579407 L52.4828682,52.3359407 L51.9419913,60.8737793 L52.8684089,61.2072754 L54.2636719,61.5922852 L54.8684089,60.0007324 L54.8684089,54.7324219 L55.6525879,55.2929688 L55.7494596,60.4611816 L56.8654732,60.4611816 L57.6122445,55.2929688 L57.8088395,55.2929688 L57.8088395,60.4611816 L58.6122445,60.8737793 L59.6433105,58.9816895 L59.6122445,55.3302405 L59.9884041,55.2929688 L60.3230156,59.4594727 L61.4445978,58.9046501 C61.5923928,58.8282804 61.6942749,58.7726677 61.7502441,58.7378119 C61.8888346,58.6515023 62.2895413,57.8360365 62.952364,56.2914146 L63.1088682,55.9239407 L64.3124307,58.3581543 L65.209979,58.3581543 C64.1689026,56.3996582 63.6858237,55.0489909 63.7607422,54.3061523 C63.8731199,53.1918945 65.1874595,52.4035437 64.9493206,51.2310687 C64.7111816,50.0585938 63.3036526,47.9177796 63.1709913,47.3752716 C63.1209472,47.1706202 63.0776911,46.9195254 62.9786374,46.6940849 L63.8022688,45.7160056 L63.8164732,46.0230428 C63.8232133,46.4891425 63.8009803,46.735013 64.5852051,46.8793945 Z" id="路径" fill="#BCC4D2"></path>
                <path d="M74.8385068,51.3174729 L77.6925442,54.0970498 L78.9541182,54.0970498 L82.3271051,59.7781587 C82.1175789,59.8834993 81.8828463,59.9885661 81.6206055,60.0909424 C80.1608133,60.6608312 71.8650103,61.0026844 65.2734952,61.7497945 L64.6791992,61.8188477 C62.142948,62.121087 59.0077429,62.6645003 55.6744809,63.2267321 L52.3715037,62.4788229 L55.6140899,60.1762842 L58.8920626,60.5438232 L61.3230156,58.7378119 L64.9512427,59.8307936 L69.4385697,56.0596468 L71.1961082,56.2261383 L74.8385068,51.3174729 Z M78.8338623,57.7525635 L78.0948486,59.5689863 L78.7038998,60.5438232 C79.672479,60.253366 80.1013385,60.0517058 79.9904785,59.9388428 C79.8796185,59.8259797 79.4940798,59.09722 78.8338623,57.7525635 Z M69.4385697,57.616333 L67.907696,59.7379069 L69.0951444,59.4615681 L70.2825928,58.3426612 L69.4385697,57.616333 Z M73.7463989,56.3187092 L73.0170898,57.4772949 L74.1696942,59.3262247 L74.8385068,59.3262247 L75.3414917,58.7480182 L73.7463989,56.3187092 Z M75.5370486,53.4476564 L75.3414917,53.9842529 L76.465332,55.8803547 L76.7574521,55.5239616 L75.5370486,53.4476564 Z" id="形状结合" fill="#88909F"></path>
                <path d="M85.3599243,67.7335205 C85.0780436,68.2463842 84.8412272,68.6186339 84.6494751,68.8502697 C84.3618469,69.1977234 82.5856331,71.9844007 75.9945374,72 C69.4034416,72.0155993 67.3416748,71.7647705 65.9416504,71.4656982 C64.541626,71.166626 60.010376,69.4375 58.7763672,69.0909424 C57.5423584,68.7443848 54.4403076,68.7370605 52.796875,69.1162109 C51.1534424,69.4953613 46.6789551,70.7042236 44.5013428,71.1994629 C42.3237305,71.6947021 41.2045898,72 38,72 C34.7954102,72 28.2213135,71.3183594 25.9373779,70.821167 C23.6534424,70.3239746 18.5838623,68.5766602 15.6470947,66.6558838 C12.7103271,64.7351074 10.5817871,62.4072266 10.3969727,61.9943848 C10.2121582,61.581543 9.9919623,60.8932937 9.9919623,60 C9.9919623,59.1067063 10.0351563,58.1837084 10.2017822,57.8041955 C10.3841553,58.1799316 10.6397705,60.1609129 11.234375,60.9031493 C11.8289795,61.6453857 24.2780762,67.8810589 27.0263672,68.2970358 C29.7746582,68.7130127 40.5526123,70.5198498 44.303833,68.5344 C48.0550537,66.5489502 52.6434326,64.2496338 56.2082452,64.7126316 C59.7730578,65.1756294 63.998291,67.3109294 66.5327148,67.9852987 C69.0671387,68.659668 80.725734,68.3434001 81.9239022,67.9852987 C82.7226809,67.7465644 83.8680216,67.6626383 85.3599243,67.7335205 Z" id="###" fill="#D0D0D9"></path>
                <path d="M49.9085693,68.4735107 C52.751709,67.3308105 54.7393181,66.9666248 58.0355225,67.4505615 C61.3317268,67.9344982 62.5622559,69.0930176 66.0306396,70.4075928 C69.4990234,71.722168 75.5312076,71.432373 77.9665527,71.3769531 C79.4460535,71.3432849 81.4837995,70.7202755 84.0797907,69.507925 C83.1431099,70.4385873 80.9051447,71.9883779 75.9945374,72 L73.5501836,71.9921611 C69.0434406,71.9484064 67.2926616,71.741667 66.0893701,71.4965312 L65.9416504,71.4656982 C64.541626,71.166626 60.010376,69.4375 58.7763672,69.0909424 C57.5423584,68.7443848 54.4403076,68.7370605 52.796875,69.1162109 L51.6076586,69.4068184 C49.7140591,69.8838442 46.7688277,70.6648094 44.9353096,71.0986196 L43.2966406,71.4728906 C41.7926563,71.8046094 40.5636719,72 38,72 L36.9993324,71.9822001 C33.5821143,71.8718367 28.0037958,71.2710077 25.9373779,70.821167 C25.0516053,70.6283422 23.7010342,70.2331653 22.2146854,69.7256352 C26.0675358,70.610408 33.1792799,71.3769531 36.794799,71.3769531 C40.6843245,71.3769531 42.4830063,71.0333252 43.52771,70.72229 C44.5724136,70.4112549 47.0654297,69.6162109 49.9085693,68.4735107 Z" id="路径" fill="#A4A4B8"></path>
                <path d="M57.8526611,67.8199463 C60.927124,68.2075195 63.1135782,69.8557871 64.2102051,70.3043213 L65.1969643,70.7984098 C65.8538875,71.0410689 66.7574647,71.3618357 67.907696,71.7607101 C67.1260372,71.6843022 66.5649436,71.5934155 66.0893701,71.4965312 L65.9416504,71.4656982 C64.541626,71.166626 60.010376,69.4375 58.7763672,69.0909424 C57.5423584,68.7443848 54.4403076,68.7370605 52.796875,69.1162109 L51.6076586,69.4068184 L47.0466707,70.5764068 C46.5268539,70.708414 46.0266237,70.8339024 45.5699133,70.9456688 L47.7192383,69.7113037 C48.5890662,69.3440327 49.620772,68.8927994 50.2662354,68.6540527 C52.4100957,67.8610726 54.7781982,67.432373 57.8526611,67.8199463 Z" id="路径" fill="#838397"></path>
                <path d="M57.8522949,65.1027832 C58.1823026,65.1498336 61.2615967,66.0821312 62.227417,66.8502697 C62.8712972,67.362362 63.4741618,67.8622233 64.0360107,68.3498535 C63.5461019,68.456676 63.0035807,68.4390701 62.4084473,68.2970358 L60.5301652,67.8378652 C59.4555223,67.582524 58.1741807,67.3002517 57.1385498,67.1567383 C55.3261958,66.9055898 52.1037821,67.3344699 50.2890126,68.2816148 C49.1223751,68.8904937 47.8915983,69.1390461 46.926319,69.2680689 L45.0561538,69.4744634 C44.5717147,69.5094943 44.3812681,69.4403654 44.9901835,69.0238671 L45.1593581,68.9123649 C46.2156982,68.237915 51.1735073,65.465435 53.2252424,65.1633205 C54.8455237,64.9247369 56.6129844,64.9260901 57.8522949,65.1027832 Z" id="路径" fill="#DDE0E7"></path>
                <path d="M11.5476685,56.2341309 C10.8880819,57.0927734 10.7115885,57.8279215 11.0181885,58.4395752 C11.4780884,59.3570557 13.2012329,60.1901855 14.9483032,60.7640381 C16.6953735,61.3378906 23.6054687,63.0406494 24.8676758,63.2618408 C26.1298828,63.4830322 27.5633545,63.6508789 29.7108154,63.7198486 C31.8582764,63.7888184 40.5861206,63.7677002 46.0144043,63.1524658 C46.5160319,63.1056722 46.9189105,63.0502523 47.22304,62.9862061 C47.8924619,62.6689046 48.2598877,62.5243327 48.3253174,62.5524902 C48.4234619,62.5947266 50.3428955,63.1623535 50.864624,63.1838379 C51.3863525,63.2053223 79.4603365,60.4763184 81.2246094,59.8571777 C82.9888822,59.2380371 83.7529602,58.7860718 83.8002014,58.5162964 C83.8316956,58.3364461 83.8220011,58.1034546 83.7711182,57.8173218 C84.321818,57.796285 84.6838786,58.0304769 84.8572998,58.5198975 C85.1174316,59.2540283 86.0000307,61.2657471 86.0000307,64 C86.0000307,66.7342529 85.4095459,67.9187012 85.230835,68.1203613 C85.052124,68.3220215 81.5183105,69.4685059 79.4345703,69.671875 C77.3508301,69.8752441 70.1026611,70.157959 67.5656738,69.671875 C66.0213012,69.3759749 64.9534374,69.0409462 64.1690504,68.7172087 C63.9044495,68.6673279 58.9198298,67.4773409 58.7879028,67.4274902 C58.6180231,67.3632986 63.2014942,68.3615223 63.4049169,68.3649946 C63.241039,68.2808828 63.0929261,68.1989976 62.956665,68.1203613 C62.1357422,67.6466064 59.3231201,65.6160889 56.0026855,65.3686428 C52.682251,65.1211967 49.3737793,66.40271 46.4967041,68.418457 C45.9902917,68.7732615 45.5446592,69.0662084 45.1455128,69.3084978 C45.0741158,69.3518371 47.1700665,69.1207876 47.9951417,69.0484121 C48.2095803,69.0296016 49.6506725,68.5985357 49.6330566,68.6087646 C49.617875,68.6175801 48.3404327,69.0660281 48.024292,69.1126099 C47.0234256,69.2600826 44.7426684,69.5450093 44.6963864,69.5709196 C43.1314306,70.4470356 42.3184746,70.4720959 41.1297614,70.5297852 C39.5551758,70.6062012 37.0563055,70.6124268 34.4417725,70.4217529 C31.8272395,70.2310791 28.1737061,69.9058838 26.8477783,69.5804443 C25.5218506,69.2550049 19.7631836,67.1788139 16.2320557,65.3686428 C12.7009277,63.5584717 10.5469666,60.8418579 10.2199402,60.2697144 C9.89291382,59.6975708 9.98638916,59.1170044 10,58.3374634 C10.0136108,57.5579224 10.4614258,56.7653975 10.8586426,56.4735343 C11.1234538,56.2789589 11.3531291,56.1991577 11.5476685,56.2341309 Z" id="路径-452" fill="#838599"></path>
                <path d="M11.5476685,56.2341309 C10.8880819,57.0927734 10.7115885,57.8279215 11.0181885,58.4395752 C11.4780884,59.3570557 13.2012329,60.1901855 14.9483032,60.7640381 C16.6953735,61.3378906 23.6054688,63.0406494 24.8676758,63.2618408 C26.1298828,63.4830322 27.5633545,63.6508789 29.7108154,63.7198486 C31.8582764,63.7888184 40.5861206,63.7677002 46.0144043,63.1524658 C46.5160319,63.1056722 46.9189105,63.0502523 47.22304,62.9862061 C47.8924619,62.6689046 48.2598877,62.5243327 48.3253174,62.5524902 C48.4234619,62.5947266 50.3428955,63.1623535 50.864624,63.1838379 C51.3863525,63.2053223 79.4603365,60.4763184 81.2246094,59.8571777 C82.9888822,59.2380371 83.7529602,58.7860718 83.8002014,58.5162964 C83.8316956,58.3364461 83.8220011,58.1034546 83.7711182,57.8173218 C84.321818,57.796285 84.6838786,58.0304769 84.8572998,58.5198975 C85.1174316,59.2540283 86.0000307,61.2657471 86.0000307,64 C86.0000307,66.7342529 85.4692383,67.7133789 85.2905273,67.9150391 C85.1118164,68.1166992 81.5780029,69.2631836 79.4942627,69.4665527 C77.4105225,69.6699219 70.1623535,69.9526367 67.6253662,69.4665527 C65.0883789,68.9804687 63.8372803,68.3887939 63.0163574,67.9150391 C62.1954346,67.4412842 58.9859619,65.1088676 56.0623779,65.1633205 C53.1387939,65.2177734 49.5109863,66.3045654 46.5563965,68.2131348 C43.6018066,70.1217041 42.7640395,70.2480469 41.1894538,70.3244629 C39.6148682,70.4008789 37.1159979,70.4071045 34.5014648,70.2164307 C31.8869318,70.0257568 28.2333984,69.7005615 26.9074707,69.3751221 C25.581543,69.0496826 19.822876,66.9734916 16.291748,65.1633205 C12.7606201,63.3531494 10.6066589,60.6365356 10.2796326,60.0643921 C9.9526062,59.4922485 9.98638916,59.1170044 10,58.3374634 C10.0136108,57.5579224 10.4614258,56.7653975 10.8586426,56.4735343 C11.1234538,56.2789589 11.3531291,56.1991577 11.5476685,56.2341309 Z" id="路径-452" fill="#D8D9E4"></path>
                <path d="M11.5476685,56.2341309 C10.8880819,57.0927734 10.7115885,57.8279215 11.0181885,58.4395752 C11.4780884,59.3570557 13.2012329,60.1901855 14.9483032,60.7640381 L15.4863775,60.9295094 C17.7023138,61.5804003 23.1814324,62.9290564 24.6812659,63.2266642 L24.8676758,63.2618408 C26.0036621,63.4609131 27.2783728,63.6167761 29.0874541,63.6962369 L30.2251187,63.7322921 C32.9079597,63.7815382 40.3873943,63.7305955 45.4609433,63.2120275 L46.0144043,63.1524658 C46.5160319,63.1056722 46.9189105,63.0502523 47.22304,62.9862061 L47.6684821,62.7806168 C48.0573,62.6074142 48.2762451,62.5313721 48.3253174,62.5524902 L48.9883125,62.7521191 C49.4164297,62.8736468 49.968149,63.0212517 50.3846272,63.1087704 L46.392068,63.5212497 C45.9646076,63.6922941 44.5780893,63.8762436 42.2325129,64.0730979 L41.71521,64.1154785 C37.7253418,64.4348145 28.7271729,64.6043145 25.3848877,64.0114746 C22.0426025,63.4186348 15.2021484,61.6427002 13.411499,60.8619385 C11.6208496,60.0811768 10.8336182,59.2924805 10.5228271,58.3630371 C10.3379463,57.8101375 10.606929,57.1027378 11.3297751,56.2408382 C11.4081412,56.2236861 11.4800286,56.221971 11.5476685,56.2341309 Z M83.7711182,57.8173218 C83.9977082,57.808666 84.192362,57.84322 84.3550796,57.9209836 C84.5220263,58.2614707 84.3440804,58.5107864 84.144346,58.7480182 C84.0024537,58.9165487 83.5485616,59.2074333 82.7826695,59.6206722 L82.480835,59.7813721 L80.8375053,59.951943 L81.1289041,59.8861075 C81.1664779,59.8760105 81.1984383,59.866362 81.2246094,59.8571777 L81.920316,59.6021107 C83.1925609,59.1126223 83.7597089,58.7475324 83.8002014,58.5162964 C83.8316956,58.3364461 83.8220011,58.1034546 83.7711182,57.8173218 Z" id="形状" fill="#F7F8FB"></path>
                <path d="M82.4044189,59.4619141 C81.6018473,59.4576009 80.9298503,59.4936117 80.3884277,59.5699463 C79.5762939,59.6844482 74.8725586,59.541626 72.286499,59.6383057 C69.7004395,59.7349854 62.3790283,60.62854 59.1661377,61.0917969 C55.9532471,61.5550537 49.9622135,62.6375732 49.4638338,62.6831055 C48.9654541,62.7286377 48.5674324,62.5310059 47.9959965,62.855957 C47.4245605,63.1809082 44.7570801,65.8225098 44.4713135,66.065918 C44.1855469,66.3093262 42.4504395,65.9272461 41.6629639,66.065918 C40.8754883,66.2045898 39.515625,67.5826416 38.7114258,67.352417 C37.9072266,67.1221924 37.2325439,66.2923584 36.0140381,67.0322266 C34.6253662,67.784668 32.8200684,68.569458 32.5743408,68.9371338 C32.3286133,69.3048096 32.2800293,69.5510254 33.5338135,69.6140137 C34.7875977,69.677002 38.5070801,70.0330811 39.9804687,69.9516602 C41.4538574,69.8702393 43.883245,69.5115967 45.9543789,68.0792236 C48.0255127,66.6468506 51.2046931,64.7966309 53.5960693,64.663208 C55.9874456,64.5297852 60.2150879,65.2352295 61.8261719,66.065918 C63.4372559,66.8966064 64.3867187,68.3233643 67.7532959,68.6652832 C71.119873,69.0072021 77.2021484,68.9818115 78.7315674,68.9371338 C80.2609863,68.8924561 82.392334,68.2785645 82.6408691,67.9222412 C82.8894043,67.565918 84.02148,64.0636344 84.144346,63.3002498 C84.2262566,62.7913268 83.6462809,61.5118815 82.4044189,59.4619141 Z" id="路径-453" fill="#AF8D72"></path>
                <path d="M82.4044189,59.4619141 L82.8658631,60.2408065 C83.7891742,61.8393687 84.2153352,62.8591832 84.144346,63.3002498 C84.0757648,63.7263544 83.6927514,65.0057984 83.3244694,66.1151597 L80.8564453,68.6162109 L66.1296839,68.3790566 C64.0172423,67.8213592 63.142566,66.7446619 61.8261719,66.065918 C60.920065,65.5987216 59.1862962,65.1711421 57.4170374,64.9101353 L56.8654732,64.6705084 L56.4071546,64.7799424 C55.3767411,64.6666162 54.3861784,64.6191252 53.5960693,64.663208 C52.5047108,64.7240985 51.2492718,65.1425565 50.0099553,65.715681 L51.1280669,65.0482734 C51.5413525,64.7989898 51.9951383,64.5230175 52.4891801,64.2207336 L56.1271956,63.5733643 L60.9746756,64.5626979 L63.2373236,65.7341549 C65.5070233,66.8964494 66.7749655,67.4965311 67.0411501,67.5344 L67.6866965,67.5686473 C70.2546309,67.6667736 79.4181594,67.8559548 79.7038998,67.694256 C80.0290527,67.5102539 82.6313513,64.3893127 82.4172363,63.8498535 L82.3291886,63.6581255 C82.0713594,63.1389919 81.3776455,61.9456584 80.2480469,60.078125 L78.5242293,60.0128683 C76.0301233,59.9291598 74.4104949,59.9285269 73.6653442,60.0109695 L62.3327429,61.0560895 L62.3327429,61.0560895 L61.7975734,61.1008523 C60.9266465,61.1714327 58.957113,61.5158724 57.0235629,61.8776592 L50.1396335,63.2055945 C49.5851594,63.3168327 48.9180094,63.4516703 48.1381836,63.6101074 L44.7433,67.1370129 L45.0772621,66.1088892 C45.1870551,65.7828041 45.2953206,65.4733418 45.4020586,65.1805022 L46.6515047,63.9995253 C47.2402029,63.4540603 47.7749377,62.9816637 47.9959965,62.855957 C48.5674324,62.5310059 48.9654541,62.7286377 49.4638338,62.6831055 L50.73826,62.4804001 C52.6866756,62.1514642 56.382517,61.5047095 58.8116455,61.1437257 L60.768849,60.8704912 C64.1739218,60.4162231 69.4434773,59.7948544 71.8858036,59.6574055 L72.286499,59.6383057 C74.7550104,59.5460205 79.153057,59.6719592 80.2541251,59.5840119 L80.3884277,59.5699463 C80.9298503,59.4936117 81.6018473,59.4576009 82.4044189,59.4619141 Z" id="路径" fill="#8B735F"></path>
                <path d="M77.1097719,52.2303468 L77.3728762,52.6583454 L79.0905886,50.5899658 C79.3419313,51.8903402 79.8713331,53.4198946 80.6787937,55.1786292 C81.7474917,57.5063662 83.2188414,59.4589911 83.9885679,60.3602556 L84.2564211,60.6630859 C84.8944826,61.3531494 85.7158937,62.7105713 85.6918945,62.9719238 C85.6768507,63.1287354 85.6528595,63.2588281 85.6070433,63.4224512 L85.4824953,63.8122559 C85.3480959,64.2041016 83.8429689,67.8857422 83.6146975,68.1895752 C83.386426,68.4934082 80.6881838,69.1862793 79.3860598,69.3355713 C78.0839357,69.4848633 69.7327394,69.333252 68.9665041,69.3355713 C68.2002687,69.3378906 64.3521242,68.5529785 64.0163088,68.3708496 C63.6804934,68.1887207 61.7447023,66.7061768 60.4383059,66.1387939 C59.1319094,65.5714111 56.4052248,64.9443359 54.2356691,65.0117092 C52.2017107,65.0748716 49.5942806,66.4479428 48.5177156,67.0913653 L48.3234377,67.2097168 C47.4028009,67.7825928 44.7163813,69.6135254 42.4644289,69.9632568 C40.3449443,70.2924158 36.7986634,70.0881622 35.3959117,69.9729263 L31.0918247,69.626823 C31.0681798,69.6237185 31.0530878,69.6211009 31.0474367,69.6190186 L30.9767515,69.5662062 C30.9208462,69.51884 30.8340968,69.4400339 30.7165034,69.3297878 L29.082654,67.9528198 C29.4183668,67.6563448 29.7377434,67.3908215 30.0407839,67.15625 C30.3438243,66.9216785 30.9375974,66.5636667 31.8221031,66.0822147 L33.8527346,67.369751 L36.5689903,65.388306 L38.7810793,66.6403809 L41.5054527,64.5037845 L43.8723879,65.6055908 L47.971631,60.2744141 L51.1297121,62.0179443 L55.8854494,58.043457 L58.2651881,59.8585205 L61.2016407,56.5141602 L61.3083773,56.5785889 C61.517298,56.7199463 62.0327707,57.0920898 62.8547954,57.6950195 L63.7790041,58.3748779 L66.0500002,55.8803547 L67.7348146,56.6727295 L72.0352297,51.0061035 L73.1026125,52.3400879 L74.7702637,49.5195313 C75.40596,49.9595881 76.1208496,50.9741211 77.1097719,52.2303468 Z M39.5208864,68.1269531 C39.4891888,68.1105733 39.216972,68.4858175 38.704236,69.2526855 L39.8843078,69.2620727 C40.6095593,69.2611387 40.9752556,69.2422626 40.9813967,69.2054443 C40.9947023,69.1256714 39.5684328,68.1515228 39.5208864,68.1269531 Z M34.025342,68.3647461 C33.8903933,68.4248657 33.3138552,68.9154663 33.3476686,69.034668 C33.3814821,69.1538696 34.9831057,69.2262298 34.9746828,69.0767212 C34.96626,68.9272126 34.1602907,68.3046265 34.025342,68.3647461 Z M36.5290041,67.2723999 C36.3746462,67.2646484 35.5733767,67.9475098 35.5801516,68.0471802 C35.5869265,68.1468506 36.8435183,68.9801636 36.8923464,68.9876099 C36.9248985,68.9925741 37.2243573,68.7030141 37.7907228,68.11893 L37.3456243,67.7871779 C36.8812483,67.4480118 36.6090415,67.2764192 36.5290041,67.2723999 Z M43.9823122,67.4599609 L43.8494645,67.577481 C43.5238479,67.8867944 42.7250365,68.7003729 42.740368,68.7440186 C42.7591066,68.7973633 43.4843874,68.7842407 43.5573854,68.7440186 L44.0591738,68.3923901 C44.362094,68.1724982 44.6889637,67.9243639 44.6897097,67.8860474 C44.6910524,67.8170776 44.0455446,67.4327393 43.9823122,67.4599609 Z M76.65376,68.1055908 L75.9661684,66.9778442 L75.4343926,67.6364142 C75.0983621,68.0676678 74.9433351,68.3099976 74.9693117,68.3634033 C74.9981746,68.4227431 75.3045715,68.434982 75.8885027,68.4001201 L76.4569826,68.3587036 L76.65376,68.1055908 Z M70.6648073,66.4924316 C70.5597048,66.4877319 69.3984499,67.9647217 69.4102907,68.1517944 C69.4221315,68.3388672 72.0561647,68.2676779 72.1013918,68.2135508 C72.1466188,68.1594238 70.7699099,66.4971313 70.6648073,66.4924316 Z M80.6787493,67.996521 L79.7639894,66.2722168 L78.9380617,67.8956163 C78.8691462,68.0378508 78.8346003,68.1159193 78.834424,68.1298218 C78.8341701,68.1498413 78.8559162,68.1556796 78.8947423,68.1548006 L79.1681447,68.1306948 L79.3264284,68.1298218 C79.4857127,68.1374599 79.8396483,68.105906 80.388235,68.03516 L80.6787493,67.996521 Z M41.5666628,66.3703613 L41.0050185,66.7713966 C40.7647278,66.947979 40.6439938,67.0475362 40.6428041,67.0700684 C40.640027,67.1241455 41.5967531,67.9155273 41.6914186,67.9204712 C41.7860842,67.925415 42.7619753,66.8140259 42.7400026,66.7332153 C42.7253542,66.6793416 42.3342409,66.5583903 41.5666628,66.3703613 Z M67.7339601,64.7194824 C67.5712404,64.7072144 65.4330568,66.9263306 65.4129763,67.0070801 C65.4051672,67.0384827 65.5415496,67.1624315 65.7139593,67.3043006 L66.3739138,67.8162842 C66.4215822,67.8520508 67.8216066,67.8226318 67.8637209,67.8162842 L68.0388579,67.644477 C68.2536564,67.4182219 68.664536,66.968533 69.2714968,66.2954102 L68.4896296,65.4253472 C68.0581699,64.9602232 67.80628,64.7249349 67.7339601,64.7194824 Z M75.3941774,65.8848877 L74.1413253,64.0214233 L73.2660619,65.1559098 C72.9143103,65.6217128 72.7466476,65.8647054 72.7630739,65.8848877 L74.078076,67.6986584 L75.3941774,65.8848877 Z M46.0279055,65.3040771 C45.9676638,65.3010864 45.1497927,66.2741089 45.131238,66.3554687 C45.1126833,66.4368286 46.1378298,67.0263672 46.2304811,67.0267944 C46.3231325,67.0272217 47.5991335,66.1300659 47.5964089,66.0561523 C47.5936403,65.9822388 46.0881472,65.3070679 46.0279055,65.3040771 Z M83.1123171,63.7507935 L81.7619753,61.0723267 L80.9901239,63.1990191 C80.7848741,63.7851765 80.6810974,64.1153212 80.6787937,64.1894531 C80.6759141,64.2821181 80.8131093,64.6541884 81.0903794,65.3056641 L81.6113405,66.4924316 L83.1123171,63.7507935 Z M78.834424,63.9462891 L76.7398806,59.8593582 L75.8623484,61.3709692 C75.7028482,61.6571777 75.6135637,61.8319832 75.5944948,61.8953857 C75.544153,62.0627686 75.9026784,62.7759326 76.2160085,63.3697686 L76.4354372,63.7823792 C76.7633791,64.3981323 77.4627809,66.032959 77.5562258,66.0584106 C77.6089382,66.072768 77.9221011,65.5709005 78.4957143,64.5528081 L78.834424,63.9462891 Z M69.6013308,62.3757324 L68.4013796,63.7823792 L69.952466,65.4597101 L70.7293323,64.6461206 C71.0208471,64.330551 71.1669843,64.1518188 71.1677483,64.1099243 C71.1686865,64.0575562 70.8752197,63.7193031 70.2873434,63.0951653 L69.6013308,62.3757324 Z M50.6648073,64.2268677 C50.5720339,64.2626953 49.7445192,65.0892334 49.7854128,65.1137695 C49.8126752,65.130127 50.2883425,64.9464364 51.2124147,64.5626979 C50.9597292,64.3562213 50.790854,64.2440701 50.705789,64.2262442 L50.6648073,64.2268677 Z M65.4126569,61.3422241 C65.3606691,61.3291016 63.2611818,63.3471069 63.25273,63.4249878 C63.2443361,63.5028687 65.0769167,65.0895996 65.1457033,65.09729 C65.2144899,65.1049805 67.3241091,63.1589966 67.3303656,63.0858765 C67.3365602,63.0127563 65.4646446,61.3553467 65.4126569,61.3422241 Z M48.1454592,62.8068237 L46.9813674,64.2112427 L48.0645266,64.8982544 L49.3883181,63.5377576 L48.1454592,62.8068237 Z M59.2121706,62.5128174 C59.1519289,62.5126343 57.2313967,63.8282471 57.195508,64.0006714 C57.1596193,64.1730957 58.0952883,64.1464844 58.5179567,64.2230835 C58.9406252,64.2996826 59.5539675,64.5871894 59.6072512,64.5610203 L60.2374849,64.1196499 C60.5333071,63.9044952 60.8171816,63.6873169 60.7960329,63.6661377 L60.1150016,63.1507731 C59.7006899,62.8434423 59.2450297,62.5129173 59.2121706,62.5128174 Z M53.2908449,62.6361301 C53.1957521,62.6334663 52.2086916,63.5702515 52.2158327,63.6320801 C52.2229738,63.6939087 52.8761721,64.1479492 53.058301,64.0995483 L53.3454954,64.0557774 C53.9664871,63.9812283 55.1810528,63.8996785 55.2177248,63.8259277 C55.2617311,63.7374268 53.3859377,62.6387939 53.2908449,62.6361301 Z M71.9678469,59.7379528 C71.8706789,59.7329712 70.775403,61.340271 70.8151979,61.4206543 L70.9143449,61.5465711 L72.6825685,63.5733643 L73.71803,62.0578613 L72.5869277,60.4979367 C72.2112235,59.9931963 72.0048632,59.7398683 71.9678469,59.7379528 Z M56.0015993,60.5438232 C55.9388552,60.5438232 54.7644777,61.6414562 54.7630707,61.6556585 L55.1754721,61.9540381 C55.5846177,62.2401491 56.161234,62.6296775 56.2357302,62.6360474 C56.3527956,62.6460571 57.5966921,61.7447277 57.5966921,61.6556585 C57.5966921,61.5665894 56.0643434,60.5438232 56.0015993,60.5438232 Z M61.6906252,59.1306763 C61.6211061,59.1209106 60.132947,60.7229614 60.1143312,60.8172607 C60.0957155,60.9115601 61.8844728,62.1868286 61.9614992,62.1943359 C62.0385256,62.2018433 63.5988893,60.69104 63.5862551,60.6294556 C63.5736208,60.5678711 61.7601442,59.1404419 61.6906252,59.1306763 Z M78.9829226,55.8803547 L77.8803225,58.2803955 L79.5811281,61.8953857 L80.7725344,59.3099567 L78.9829226,55.8803547 Z M69.5246706,56.6641846 L67.0411501,59.6152344 L68.631238,61.0723267 L71.0061159,58.1218872 L69.5246706,56.6641846 Z M73.8059206,55.3766479 C73.6727419,55.2757568 72.5257082,56.9837036 72.4343996,57.0883789 C72.343091,57.1930542 72.9047365,58.0476685 73.3808107,58.6671143 C73.856885,59.2865601 74.4058962,60.44104 74.5527468,60.4362483 C74.6995974,60.4313965 75.8670168,58.5570068 75.8580446,58.3912354 C75.8490725,58.2254639 73.9390993,55.4775391 73.8059206,55.3766479 Z M75.4956179,52.2409668 L74.7395754,53.555481 L75.6189728,54.8325878 C76.1708288,55.6523759 76.4803779,56.1615694 76.5476198,56.3601685 C76.769269,56.0223389 76.9456453,55.7163429 77.0767488,55.4421804 L77.1927614,55.1786292 L75.4956179,52.2409668 Z" id="形状" fill="#8D8E9A"></path>
                <path d="M77.0570861,52.6687013 L77.3201904,53.0966999 L79.0379028,51.0283203 C79.2892456,52.3286947 79.8186473,53.8582491 80.626108,55.6169837 C81.6948059,57.9447207 83.1661557,59.8973456 83.9358822,60.7986101 L84.2037354,61.1014404 C84.8417969,61.7915039 85.663208,63.1489258 85.6397227,63.4102783 C85.624165,63.5670898 85.6001738,63.6971826 85.5543576,63.8608057 L85.4298096,64.2506104 C85.2954102,64.6424561 83.7902832,68.3240967 83.5620117,68.6279297 C83.3337402,68.9317627 80.635498,69.6246338 79.333374,69.7739258 C78.03125,69.9232178 69.6800537,69.7716064 68.9138184,69.7739258 C68.147583,69.7762451 64.328125,68.5823975 63.9923096,68.4002686 C63.6564941,68.2181396 61.7321777,66.8375854 60.3173828,66.1657715 C58.9025879,65.4939575 56.3504639,65.0876465 54.1809082,65.1550197 C52.1469498,65.2181822 49.5395197,66.5912534 48.4629547,67.2346758 L48.2686768,67.3530273 C47.34804,67.9259033 44.6616204,69.7568359 42.409668,70.1065674 C40.2901833,70.4357264 36.7459777,70.5265167 35.343226,70.4112807 L31.039139,70.0651775 C31.0154941,70.062073 31.0004021,70.0594554 30.994751,70.057373 L30.9240658,70.0045607 C30.8681605,69.9571945 30.7814111,69.8783884 30.6638176,69.7681422 L29.0650635,68.2154541 L31.6071777,66.5599365 L33.8000488,67.8081055 L36.3861258,65.8980646 L38.7283936,67.0787354 L41.3280355,64.9993747 L43.8197021,66.0439453 L47.9189453,60.7127686 L51.0770264,62.4562988 L55.8327637,58.4818115 L58.2125024,60.296875 L61.1489549,56.9525146 L61.2556916,57.0169434 C61.4646123,57.1583008 61.980085,57.5304443 62.8021097,58.133374 L63.7263184,58.8132324 L65.9973145,56.3187092 L67.6821289,57.111084 L71.9825439,51.444458 L73.0499268,52.7784424 L74.6779257,49.7282718 C75.313622,50.1683287 76.1066755,51.1484718 77.0570861,52.6687013 Z M39.4682007,68.5653076 C39.4365031,68.5489278 39.1642863,68.924172 38.6515503,69.69104 L39.8316221,69.7004272 C40.5568736,69.6994932 40.9225699,69.6806171 40.9287109,69.6437988 C40.9420166,69.5640259 39.5157471,68.5898773 39.4682007,68.5653076 Z M33.9726562,68.8031006 C33.8377075,68.8632202 33.2611694,69.3538208 33.2949829,69.4730225 C33.3287964,69.5922241 34.9304199,69.6645843 34.9219971,69.5150757 C34.9135742,69.365567 34.107605,68.742981 33.9726562,68.8031006 Z M36.4763184,67.7107544 C36.3219604,67.7030029 35.5206909,68.3858643 35.5274658,68.4855347 C35.5342407,68.5852051 36.7908325,69.4185181 36.8396606,69.4259644 C36.8722127,69.4309285 37.1716715,69.1413686 37.7380371,68.5572845 L37.2929386,68.2255324 C36.8285625,67.8863663 36.5563558,67.7147737 36.4763184,67.7107544 Z M43.9296265,67.8983154 L43.7967788,68.0158355 C43.4711622,68.3251489 42.6723507,69.1387274 42.6876823,69.182373 C42.7064209,69.2357178 43.4317017,69.2225952 43.5046997,69.182373 L44.0064881,68.8307446 C44.3094083,68.6108527 44.6362779,68.3627184 44.6370239,68.3244019 C44.6383667,68.2554321 43.9928589,67.8710937 43.9296265,67.8983154 Z M76.6010742,68.5439453 L75.9134827,67.4161987 L75.3817068,68.0747687 C75.0456764,68.5060223 74.8906494,68.7483521 74.916626,68.8017578 C74.9454888,68.8610975 75.2518858,68.8733365 75.8358169,68.8384746 L76.4042969,68.7970581 L76.6010742,68.5439453 Z M70.6121216,66.9307861 C70.507019,66.9260864 69.3457642,68.4030762 69.357605,68.5901489 C69.3694458,68.7772217 72.003479,68.7060324 72.0487061,68.6519053 C72.0939331,68.5977783 70.7172241,66.9354858 70.6121216,66.9307861 Z M80.6260636,68.4348755 L79.7113037,66.7105713 L78.885376,68.3339708 C78.8164605,68.4762053 78.7819146,68.5542738 78.7817383,68.5681763 C78.7814844,68.5881958 78.8032305,68.5940341 78.8420566,68.5931551 L79.115459,68.5690493 L79.2737427,68.5681763 C79.433027,68.5758144 79.7869625,68.5442605 80.3355493,68.4735145 L80.6260636,68.4348755 Z M41.5139771,66.8087158 L40.9523328,67.2097511 C40.7120421,67.3863335 40.591308,67.4858907 40.5901244,67.5084229 C40.5873413,67.5625 41.5440674,68.3538818 41.6387329,68.3588257 C41.7333984,68.3637695 42.7092896,67.2523804 42.6873169,67.1715698 C42.6726685,67.1176961 42.2815552,66.9967448 41.5139771,66.8087158 Z M67.6812744,65.1578369 C67.5185547,65.1455688 65.3803711,67.3646851 65.3602905,67.4454346 C65.3524814,67.4768372 65.4888639,67.600786 65.6612735,67.7426551 L66.321228,68.2546387 C66.3688965,68.2904053 67.7689209,68.2609863 67.8110352,68.2546387 L67.9861721,68.0828315 C68.2009707,67.8565764 68.6118503,67.4068875 69.218811,66.7337646 L68.4369439,65.8637017 C68.0054841,65.3985777 67.7535943,65.1632894 67.6812744,65.1578369 Z M75.3414917,66.3232422 L74.0886395,64.4597778 L73.2133761,65.5942643 C72.8616245,66.0600673 72.6939619,66.3030599 72.7103882,66.3232422 L74.0253903,68.1370129 L75.3414917,66.3232422 Z M45.9752197,65.7424316 C45.914978,65.7394409 45.0971069,66.7124634 45.0785522,66.7938232 C45.0599976,66.8751831 46.085144,67.4647217 46.1777954,67.4651489 C46.2704468,67.4655762 47.5464478,66.5684204 47.5437188,66.4945068 C47.5409546,66.4205933 46.0354614,65.7454224 45.9752197,65.7424316 Z M83.0596313,64.1891479 L81.7092896,61.5106812 L80.9374381,63.6373736 C80.7321884,64.223531 80.6284117,64.5536757 80.626108,64.6278076 C80.6232284,64.7204725 80.7604236,65.0925429 81.0376936,65.7440186 L81.5586548,66.9307861 L83.0596313,64.1891479 Z M78.7817383,64.3846436 L76.6871948,60.2977127 L75.8096626,61.8093237 C75.6501625,62.0955321 75.5608779,62.2703377 75.5418091,62.3337402 C75.4914673,62.501123 75.8499927,63.2142871 76.1633228,63.808123 L76.3827515,64.2207336 C76.7106934,64.8364868 77.4100952,66.4713135 77.50354,66.4967651 C77.5562525,66.5111225 77.8694153,66.009255 78.4430286,64.9911625 L78.7817383,64.3846436 Z M69.548645,62.8140869 L68.3486938,64.2207336 L69.8997803,65.8980646 L70.6766466,65.0844751 C70.9681614,64.7689054 71.1142985,64.5901733 71.1150604,64.5482788 C71.1160007,64.4959106 70.8225339,64.1576576 70.2346577,63.5335197 L69.548645,62.8140869 Z M50.6121216,64.6652222 C50.5193481,64.7010498 49.6918335,65.5275879 49.7327271,65.552124 C49.7599894,65.5684814 50.2356567,65.3847909 51.159729,65.0010524 C50.9070435,64.7945758 50.7381682,64.6824246 50.6531033,64.6645987 L50.6121216,64.6652222 Z M65.3599712,61.7805786 C65.3079834,61.7674561 63.2084961,63.7854614 63.2000156,63.8633423 C63.1916504,63.9412231 65.024231,65.5279541 65.0930176,65.5356673 C65.1618042,65.543335 67.2714233,63.5973511 67.2776644,63.524231 C67.2838745,63.4511108 65.4119589,61.7937012 65.3599712,61.7805786 Z M48.0927734,63.2451782 L46.9286816,64.6495972 L48.0118408,65.3366089 L49.3356323,63.9761121 L48.0927734,63.2451782 Z M59.1594849,62.9511719 C59.0992432,62.9509888 57.1787109,64.2666016 57.1428223,64.4390259 C57.1069336,64.6114502 58.0426025,64.5848389 58.465271,64.661438 C58.8879395,64.7380371 59.5012817,65.0255439 59.5545654,64.9993747 L60.1847992,64.5580044 C60.4806213,64.3428497 60.7644958,64.1256714 60.7433472,64.1044922 L60.0623159,63.5891276 C59.6480042,63.2817968 59.192344,62.9512718 59.1594849,62.9511719 Z M53.2381592,63.0744846 C53.1430664,63.0718208 52.1560059,64.008606 52.163147,64.0704346 C52.1702881,64.1322632 52.8234863,64.5863037 53.0056152,64.5379028 L53.2928097,64.4941319 C53.9138014,64.4195828 55.1283671,64.338033 55.1650391,64.2642822 C55.2090454,64.1757812 53.333252,63.0771484 53.2381592,63.0744846 Z M71.9151611,60.1762842 C71.8179932,60.1713257 70.7227173,61.7786255 70.7625122,61.8590088 L70.8616591,61.9849256 L72.6298828,64.0117187 L73.6653442,62.4962158 L72.534242,60.9362912 C72.1585378,60.4315508 71.9521775,60.1782228 71.9151611,60.1762842 Z M55.9489136,60.9821777 C55.8861694,60.9821777 54.711792,62.0798107 54.7103849,62.094013 L55.1227863,62.3923926 C55.531932,62.6785036 56.1085483,63.068032 56.1830444,63.0744019 C56.3001099,63.0844116 57.5440063,62.1830822 57.5440063,62.094013 C57.5440063,62.0049438 56.0116577,60.9821777 55.9489136,60.9821777 Z M61.6379395,59.5690308 C61.5684204,59.5592651 60.0802612,61.1613159 60.0616455,61.2556152 C60.0430298,61.3499146 61.8317871,62.6251831 61.9088135,62.6327183 C61.9858398,62.6401978 63.5462036,61.1293945 63.5335693,61.0678101 C63.5209351,61.0062256 61.7074585,59.5787964 61.6379395,59.5690308 Z M78.9302368,56.3187092 L77.8276367,58.71875 L79.5284424,62.3337402 L80.7198486,59.7483112 L78.9302368,56.3187092 Z M69.4719849,57.1025391 L66.9884644,60.0535889 L68.5785522,61.5106812 L70.9534302,58.5602417 L69.4719849,57.1025391 Z M73.7532349,55.8150024 C73.6200562,55.7141113 72.4730225,57.4220581 72.3817139,57.5267334 C72.2904053,57.6314087 72.8520508,58.4860229 73.328125,59.1054687 C73.8041992,59.7249146 74.3532104,60.8793945 74.500061,60.8746176 C74.6469116,60.869751 75.8143311,58.9953613 75.8053589,58.8295898 C75.7963867,58.6638184 73.8864136,55.9158936 73.7532349,55.8150024 Z M75.4429321,52.6793213 L74.6868896,53.9938354 L75.5662871,55.2709423 C76.1181431,56.0907304 76.4276921,56.5999239 76.4949341,56.7985229 C76.7165833,56.4606934 76.8929596,56.1546974 77.0240631,55.8805349 L77.1400757,55.6169837 L75.4429321,52.6793213 Z" id="形状" fill="#69697E"></path>
                <path d="M74.6779257,49.7282718 C75.3714126,50.2083339 76.2791857,51.2355622 77.4012451,52.8099567 L77.4012451,52.8099567 L79.0379028,51.0283203 C79.3432821,52.1375326 79.899702,53.571506 80.7071627,55.3302405 C81.9183537,57.9683424 83.6467285,60.1246338 84.28479,60.8146973 C84.9228516,61.5047607 85.7442627,62.8621826 85.7202635,63.1235352 C85.6951904,63.3848877 85.6452637,63.5720215 85.5108643,63.9638672 C85.3764648,64.3557129 83.8713379,68.0373535 83.6430664,68.3411865 C83.4147949,68.6450195 80.7165527,69.3378906 79.4144287,69.4871826 C78.1123047,69.6364746 69.7611084,69.4848633 68.994873,69.4871826 C68.2286377,69.489502 64.3804932,68.7045898 64.0446777,68.5224609 C63.7088623,68.340332 61.7730713,66.8577881 60.4666748,66.2904053 C59.1602783,65.7230225 56.4335937,65.0959473 54.2640381,65.1633205 C52.0944824,65.2306938 49.2724434,66.7884521 48.3518066,67.3613281 C47.4311699,67.9342041 44.7447503,69.7651367 42.4927979,70.1148682 C40.2408454,70.4645996 36.3781738,70.2121582 35.1872559,70.104126 C33.9963379,69.9960937 31.171875,69.8060303 31.0758057,69.7706299 C31.0117594,69.7470296 30.3685303,69.1330566 29.1461182,67.9287109 L29.1461182,67.9287109 L31.6882324,66.2731934 L33.8811035,67.5213623 L36.4671805,65.6113214 L38.8094482,66.7919922 L41.4090901,64.7126316 L43.9007568,65.7572021 L48,60.4260254 L51.1580811,62.1695557 L55.9138184,58.1950684 L58.2935571,60.0101318 C60.2436043,57.8013916 61.2224218,56.6866048 61.2300096,56.6657715 C61.2375974,56.6449382 62.0967186,57.2651774 63.807373,58.5264893 L63.807373,58.5264893 L66.0783691,56.031966 L67.7631836,56.8243408 L71.9825439,51.444458 L73.1309814,52.4916992 C73.8048096,51.3292643 74.3204577,50.4081219 74.6779257,49.7282718 Z M39.5492554,68.2785645 C39.5175578,68.2621847 39.245341,68.6374288 38.732605,69.4042969 C40.2418416,69.4259847 41.0008952,69.4102376 41.0097656,69.3570557 C41.0230713,69.2772827 39.5968018,68.3031341 39.5492554,68.2785645 Z M34.0923641,68.513503 L34.0537109,68.5163574 C33.9187622,68.5764771 33.3422241,69.0670776 33.3760376,69.1862793 C33.4098511,69.305481 35.0114746,69.3778412 35.0030518,69.2283325 C34.9946289,69.0788239 34.1886597,68.4562378 34.0537109,68.5163574 Z M36.557373,67.4240112 C36.4030151,67.4162598 35.6017456,68.0991211 35.6085205,68.1987915 C35.6152954,68.2984619 36.8718872,69.1317749 36.9207153,69.1392212 C36.9532674,69.1441854 37.2527262,68.8546254 37.8190918,68.2705414 C37.0808512,67.7113556 36.6602783,67.4291789 36.557373,67.4240112 Z M44.0106812,67.6115723 C43.9474487,67.6387939 42.7499984,68.8422852 42.768737,68.8956299 C42.7874756,68.9489746 43.5127563,68.9358521 43.5857544,68.8956299 C43.6587524,68.8554077 44.7167358,68.1066284 44.7180786,68.0376587 C44.7194214,67.968689 44.0739136,67.5843506 44.0106812,67.6115723 Z M75.9945374,67.1294556 L75.7335662,67.4478573 C75.2108144,68.0931741 74.9655192,68.4488932 74.9976807,68.5150146 C75.03479,68.5913086 75.5306803,68.589742 76.4853516,68.5103149 L76.4853516,68.5103149 L76.6821289,68.2572021 L75.9945374,67.1294556 Z M70.6931763,66.644043 C70.5880737,66.6393433 69.4268188,68.116333 69.4386597,68.3034058 C69.4505005,68.4904785 72.0845337,68.4192892 72.1297607,68.3651622 C72.1749878,68.3110352 70.7982788,66.6487427 70.6931763,66.644043 Z M79.7923584,66.4238281 C79.1731771,67.6205241 78.8633219,68.2397257 78.862793,68.2814331 C78.8619995,68.3439941 79.0760498,68.2680664 79.3547974,68.2814331 C79.5406291,68.2903442 79.9914027,68.2459106 80.7071183,68.1481323 L80.7071183,68.1481323 Z M41.5950317,66.5219727 C40.9810181,66.9523926 40.6730733,67.1856283 40.6711974,67.2216797 C40.668396,67.2757568 41.6251221,68.0671387 41.7197876,68.0720825 C41.8144531,68.0770264 42.7903442,66.9656372 42.7683716,66.8848267 C42.7537231,66.830953 42.3626099,66.7100016 41.5950317,66.5219727 Z M67.7623291,64.8710938 C67.5996094,64.8588257 65.4614258,67.0779419 65.4413452,67.1586914 C65.4212646,67.2394409 66.3546143,67.9321289 66.4022827,67.9678955 C66.4499512,68.0036621 67.8499756,67.9742432 67.8920898,67.9678955 C67.920166,67.9636637 68.3894246,67.4567057 69.2998657,66.4470215 C68.3833211,65.4045817 67.8708089,64.8792725 67.7623291,64.8710938 Z M74.1696942,64.1730347 C73.2241673,65.382548 72.7647502,66.0037028 72.7914429,66.036499 L72.7914429,66.036499 L72.8179562,66.0718165 C72.9269705,66.2194659 73.3564667,66.8122836 74.106445,67.8502697 L74.106445,67.8502697 L75.4225464,66.036499 Z M46.0562744,65.4556885 C45.9960327,65.4526978 45.1781616,66.4257202 45.1596069,66.5070801 C45.1410522,66.5884399 46.1661987,67.1779785 46.2588501,67.1784058 C46.3515015,67.178833 47.6275024,66.2816772 47.6247779,66.2077637 C47.6220093,66.1338501 46.1165161,65.4586792 46.0562744,65.4556885 Z M81.7903442,61.223938 C81.0725426,63.1630249 80.7114821,64.2020671 80.7071627,64.3410645 C80.7028433,64.4800618 81.0136922,65.2477214 81.6397095,66.644043 L81.6397095,66.644043 L83.140686,63.9024048 Z M76.7682495,60.0109695 C76.0466105,61.2288355 75.6648153,61.9075114 75.6228638,62.0469971 C75.5599365,62.2562256 76.1358643,63.3182373 76.4638062,63.9339905 C76.791748,64.5497437 77.4911499,66.1845703 77.5845947,66.210022 C77.6468913,66.2269897 78.0729574,65.5229492 78.862793,64.0979004 L78.862793,64.0979004 Z M69.6296997,62.5273438 L68.4297485,63.9339905 L69.980835,65.6113214 L70.127775,65.4601446 C70.8388132,64.7265322 71.1949243,64.3269958 71.1961082,64.2615356 C71.1973681,64.1917114 70.6752319,63.6136475 69.6296997,62.5273438 L69.6296997,62.5273438 Z M50.7220268,64.3758891 L50.6931763,64.378479 C50.6004028,64.4143066 49.7728882,65.2408447 49.8137817,65.2653809 C49.8410441,65.2817383 50.3167114,65.0980477 51.2407837,64.7143092 C50.937561,64.4665373 50.7550252,64.3545939 50.6931763,64.378479 Z M65.4410258,61.4938354 C65.3890381,61.4807129 63.2895508,63.4987183 63.2811279,63.5765991 C63.2727051,63.65448 65.1052856,65.2412109 65.1740723,65.2489241 C65.2428589,65.2565918 67.352478,63.3106079 67.3587345,63.2374878 C67.3649292,63.1643677 65.4930136,61.506958 65.4410258,61.4938354 Z M48.1738281,62.9584351 L47.0097363,64.362854 L48.0928955,65.0498657 L49.416687,63.689369 L48.1738281,62.9584351 Z M59.2405396,62.6644287 C59.1802979,62.6642456 57.2597656,63.9798584 57.223877,64.1522827 C57.1879883,64.324707 58.1236572,64.2980957 58.5463257,64.3746948 C58.9689941,64.4512939 59.5823364,64.7388008 59.6356201,64.7126316 L59.6356201,64.7126316 L59.71135,64.6632424 C59.981292,64.4800388 60.8610596,63.8544596 60.8244019,63.817749 C60.7821045,63.7753906 59.3007812,62.6646118 59.2405396,62.6644287 Z M53.3192139,62.7877414 C53.2241211,62.7850776 52.2370605,63.7218628 52.2442017,63.7836914 C52.2513428,63.84552 52.904541,64.2995605 53.0866699,64.2511597 C53.4619141,64.1657715 55.2020874,64.06604 55.2460937,63.9775391 C55.2901001,63.8890381 53.4143066,62.7904053 53.3192139,62.7877414 Z M71.9962158,59.8895641 C71.8990479,59.8845825 70.803772,61.4918823 70.8435669,61.5722656 C70.8700968,61.6258545 71.4925537,62.3434245 72.7109375,63.7249756 L72.7109375,63.7249756 L73.7463989,62.2094727 L73.5993394,62.0038014 C72.5924245,60.5975096 72.05805,59.8927639 71.9962158,59.8895641 Z M56.0299683,60.6954346 C55.9672241,60.6954346 54.7928467,61.7930675 54.7914293,61.8072699 C54.7900391,61.8214722 56.1470337,62.7776489 56.2640991,62.7876587 C56.3811646,62.7976685 57.625061,61.896339 57.625061,61.8072699 C57.625061,61.7182007 56.0927124,60.6954346 56.0299683,60.6954346 Z M61.7189941,59.2822876 C61.6494751,59.272522 60.1613159,60.8745728 60.1427002,60.9688721 C60.1240845,61.0631714 61.9128418,62.3384399 61.9898682,62.3459752 C62.0668945,62.3534546 63.6272583,60.8426514 63.614624,60.7810669 C63.6019897,60.7194824 61.7885132,59.2920532 61.7189941,59.2822876 Z M79.0112915,56.031966 L77.9086914,58.4320068 L79.6094971,62.0469971 L80.8009033,59.4615681 L79.0112915,56.031966 Z M69.5530396,56.8157959 L67.069519,59.7668457 L68.6596069,61.223938 L71.0344849,58.2734985 L69.5530396,56.8157959 Z M73.8342896,55.5282593 C73.7011108,55.4273682 72.5540771,57.1353149 72.4627686,57.2399902 C72.37146,57.3446655 72.9331055,58.1992798 73.4091797,58.8187256 C73.8852539,59.4381714 74.4342651,60.5926514 74.5811157,60.5878745 C74.7279663,60.5830078 75.8953857,58.7086182 75.8864136,58.5428467 C75.8774414,58.3770752 73.9674683,55.6291504 73.8342896,55.5282593 Z M75.5239868,52.3925781 L74.7679443,53.7070923 L74.930388,53.939671 C75.9351843,55.3818882 76.4837179,56.2392578 76.5759888,56.5117798 C76.871521,56.0613403 77.0865682,55.6674939 77.2211304,55.3302405 L77.2211304,55.3302405 L75.5239868,52.3925781 Z" id="形状结合" fill="#DDE0E7"></path>
                <path d="M74.6779257,49.7282718 C75.3083683,50.1646919 76.115907,51.0533154 77.1005418,52.3941425 L77.4012451,52.8099567 L78.9541182,51.1182718 L77.5012207,53.0137939 L74.7736816,50.0999756 L73.2479248,52.776275 L72.049796,51.8103301 L67.8913574,57.1025391 L66.1838379,56.4685669 L63.8083496,58.8839822 L61.2300096,57.1025391 L58.2935571,60.3161225 L55.87146,58.6689453 L51.2880244,62.4780368 L48,60.9031493 L43.9205322,66.1088629 L41.4090901,64.902443 L38.732605,67.0440674 L36.4752594,65.8980646 L33.8132716,67.6037869 L31.6599908,66.583779 L29.2781182,67.8422718 L31.6882324,66.2731934 L33.8811035,67.5213623 L36.4671805,65.6113214 L38.8094482,66.7919922 L41.4090901,64.7126316 L43.9007568,65.7572021 L48,60.4260254 L51.1580811,62.1695557 L55.9138184,58.1950684 L58.2935571,60.0101318 L61.2300096,56.6657715 L61.2300096,56.6657715 L61.2784598,56.6916287 C61.3723252,56.7516764 61.6024359,56.9142958 61.9687919,57.1794868 L63.807373,58.5264893 L66.0783691,56.031966 L67.7631836,56.8243408 L71.9825439,51.444458 L73.1309814,52.4916992 L73.9101715,51.1300971 C74.2177402,50.5840326 74.4736582,50.1167575 74.6779257,49.7282718 Z" id="路径" fill="#FFFFFF"></path>
            </g>
        </g>
    </g>
</svg>