<?xml version="1.0" encoding="UTF-8"?>
<svg width="96px" height="96px" viewBox="0 0 96 96" version="1.1" xmlns="http://www.w3.org/2000/svg" xmlns:xlink="http://www.w3.org/1999/xlink">
    <title>KD Trey 5 VIII EP</title>
    <defs>
        <rect id="path-1" x="0" y="0" width="96" height="96"></rect>
    </defs>
    <g id="icon" stroke="none" stroke-width="1" fill="none" fill-rule="evenodd">
        <g id="画板" transform="translate(-390.000000, -54.000000)">
            <g id="KD-Trey-5-VIII-EP" transform="translate(390.000000, 54.000000)">
                <g id="#" opacity="0">
                    <use fill="#FFFFFF" fill-rule="evenodd" xlink:href="#path-1"></use>
                    <rect stroke-opacity="0.5" stroke="#DDDDDD" stroke-width="6" stroke-linejoin="square" x="3" y="3" width="90" height="90"></rect>
                    <rect stroke-opacity="0.507785184" stroke="#DDDDDD" stroke-width="12" stroke-linejoin="square" x="6" y="6" width="84" height="84"></rect>
                </g>
                <path d="M31.2844238,53.0742798 C40.610026,49.1466058 45.8677979,46.6899611 47.0577393,45.7043457 C48.8426514,44.2259226 54.7438965,36.0073242 55.9399414,34.0036621 C57.1359863,32 58.3200684,28.6828613 58.9321289,28.6828613 C59.5441895,28.6828613 63.3215332,31.728363 64.6044922,36.3034668 C65.4597982,39.353536 65.8081868,41.4120483 65.6496582,42.4790039 L32.6940918,55.3334961 L31.2844238,53.0742798 Z" id="路径-57" fill="#B4B9D4"></path>
                <path d="M58.9321289,28.6828613 C59.5441895,28.6828613 63.3215332,31.728363 64.6044922,36.3034668 C65.4597982,39.353536 65.8081868,41.4120483 65.6496582,42.4790039 L32.6940918,55.3334961 L31.2844238,53.0742798 C40.610026,49.1466058 45.8677979,46.6899611 47.0577393,45.7043457 C47.7108496,45.1633816 48.9150847,43.7199935 50.238276,42.0088549 L52.5961654,42.0081787 L58.0253717,34.4018555 L56.9827997,32.0025091 C57.7859185,30.3290201 58.500959,28.6828613 58.9321289,28.6828613 Z" id="形状结合" fill="#E7EBED"></path>
                <path d="M64.6044922,36.3034668 C65.4597982,39.353536 65.8081868,41.4120483 65.6496582,42.4790039 L32.6940918,55.3334961 L31.980207,54.1900183 L36.0913086,52.0239258 L48.4856323,45.3459473 L52.081207,42.0080183 L52.5961654,42.0081787 L53.605207,40.5930183 L59.6657715,34.9697266 L60.2990723,33.369873 L59.3547384,29.8310547 C59.6508843,29.6892313 59.920287,29.5602192 60.1629468,29.4440183 C61.5625176,30.6206087 63.7014344,33.0831121 64.6044922,36.3034668 Z" id="形状结合" fill="#CED7DB"></path>
                <path d="M58.9321289,28.6828613 C59.5441895,28.6828613 63.3215332,31.728363 64.6044922,36.3034668 C65.1585705,38.2793412 65.4999151,39.8390972 65.6285259,40.9827348 L63.9467773,40.5610352 C62.0489909,35.7324219 60.7809935,32.9397786 60.1427852,32.1831055 C59.6162269,31.5588069 58.860073,30.8798314 57.8743235,30.1461791 C58.3026027,29.2918626 58.6698752,28.6828613 58.9321289,28.6828613 Z" id="形状结合" fill="#BEBECF"></path>
                <path d="M10,60.5109863 C10.4783529,58.9979655 11.7081706,58.105306 13.6894531,57.8330078 C16.661377,57.4245605 28.612793,53.782959 30.3754883,52.9631348 C32.1381836,52.1433105 45.4077148,48.8554687 50.940918,43.6484375 C56.4741211,38.4414062 57.2253418,35.9157715 58.3647461,35.9157715 C59.5041504,35.9157715 63.9836426,39.2145996 68.0686035,40.1132812 C72.1535645,41.0119629 79.9038086,37.4870605 81.4499512,37.9711914 C82.9960937,38.4553223 83.5820312,39.5927734 83.2890625,41.7822266 C82.9960937,43.9716797 83.2890625,46.0276622 83.2890625,48.6877441 C83.2890625,51.3478261 83.3713379,56.6166992 84.1154785,59.861084 C83.7282715,60.8098145 85.1977539,62.1022949 79.746582,63.010498 C74.2954102,63.9187012 65.6943359,62.8620605 61.5515137,63.3903809 C57.4086914,63.9187012 49.3757324,66.3591309 38.8227539,66.3591309 C28.2697754,66.3591309 16.8491211,64.7783203 16.3869629,64.7783203 C16.1508231,64.7783203 13.9527326,64.2323891 11.5773926,62.5612793 C11.0947889,62.2217558 10.5689914,61.5383248 10,60.5109863 Z" id="路径-55" fill="#E1E8F1"></path>
                <path d="M10.9848633,61.152832 C16.3619792,62.5955404 21.0657552,62.3809101 25.0961914,60.5089411 C31.1418457,57.7009877 40.8565268,54.67108 43.5283203,57.9311523 C45.309516,60.1045339 46.9619533,63.3351654 48.4856323,67.6230469 C31.3178019,68.7513835 21.1526693,68.7513835 17.9902344,67.6230469 C14.8277995,66.4947103 12.4926758,64.337972 10.9848633,61.152832 Z" id="路径-66" fill="#D8E1ED"></path>
                <path d="M58.4395138,35.9240858 L58.3647461,35.9157715 C59.5041504,35.9157715 63.9836426,39.2145996 68.0686035,40.1132812 C71.1545691,40.7921863 76.3323043,38.9465609 79.3468091,38.2119699 C80.0257007,38.1030984 80.6774183,38.007317 81.2764598,37.9357948 C81.3413087,37.9436366 81.3989987,37.9552371 81.4499512,37.9711914 C82.9051442,38.426844 83.5097749,39.4612163 83.3316227,41.4066918 L83.2890625,41.7822266 C83.0286458,43.7284071 83.2311921,45.5691294 83.2794174,47.8224125 L83.3015605,50.4286445 C83.3431845,53.2524801 83.5108643,57.2250214 84.1154785,59.861084 C83.9631725,60.2342626 84.0981343,60.6606263 83.9861875,61.0958685 L81.8945312,62.5351563 C78.8326893,62.9301234 75.9873253,63.2170101 73.3584393,63.3958162 C68.9387778,63.3817096 64.2789681,63.0425577 61.5515137,63.3903809 C59.4542099,63.657843 56.3599066,64.4153579 52.4463716,65.0981995 L51.0318509,65.2621975 C48.9468273,65.4921661 46.8234081,65.7157973 46.4418945,65.5219727 C45.2198486,64.901123 44.0317383,63.0725098 44.3747559,59.5698242 C44.6907945,56.3426308 48.2432686,47.5560438 48.8625488,45.3378906 C49.3521473,44.9740508 50.5287531,44.0363061 50.940918,43.6484375 C55.7190016,39.1520129 56.931242,36.6550601 57.9068086,36.0572813 C58.0877511,35.9977849 58.2654847,35.9534507 58.4395138,35.9240858 Z" id="路径" fill="#BFC9D5"></path>
                <path d="M68.0686035,40.1132812 C71.1514918,40.7915093 76.3219802,38.9502392 79.3377848,38.2141707 C80.0198259,38.1039801 80.6729503,38.0079149 81.2732527,37.9361779 C81.339431,37.9432605 81.3981704,37.9549777 81.4499512,37.9711914 C82.9960937,38.4553223 83.5820312,39.5927734 83.2890625,41.7822266 C82.9960937,43.9716797 83.2890625,46.0276622 83.2890625,48.6877441 C83.2890625,51.3478261 83.3713379,56.6166992 84.1154785,59.861084 C83.9629039,60.2349206 84.0986111,60.66213 83.9855931,61.0981708 L81.8945313,62.5351563 C78.8321659,62.930191 75.9863526,63.2171082 73.3570912,63.3959078 C68.9382261,63.3816694 64.2788066,63.0425783 61.5515137,63.3903809 C59.4584945,63.6572966 56.3725453,64.4122649 52.4703464,65.0940136 C49.6582465,65.4341452 47.5224883,65.6352816 47.0577393,65.3991699 C45.8356934,64.7783203 44.3564453,63.3637695 44.6994629,59.861084 C45.0154855,56.6340547 48.9643813,46.9964993 49.5839688,44.7777041 C50.0740021,44.4132436 50.5289072,44.0361611 50.940918,43.6484375 C55.7220673,39.1491279 56.9327961,36.6518568 57.9086861,36.0561331 C58.0964396,35.9950748 58.2811079,35.9496195 58.4617356,35.9204144 C59.7386221,36.086995 64.0906764,39.2381468 68.0686035,40.1132812 Z" id="形状结合" fill="#E2E4EB"></path>
                <path d="M58.4617356,35.9204144 C59.7386221,36.086995 64.0906764,39.2381468 68.0686035,40.1132812 C71.1514918,40.7915093 76.3219802,38.9502392 79.3377848,38.2141707 C80.0198259,38.1039801 80.6729503,38.0079149 81.2732527,37.9361779 C81.339431,37.9432605 81.3981704,37.9549777 81.4499512,37.9711914 C82.9960938,38.4553223 83.5820313,39.5927734 83.2890625,41.7822266 C83.0871212,43.2914009 83.1635733,44.73716 83.2305769,46.3610581 C82.3624847,44.2366395 81.9168726,43.0219363 81.8937988,42.7175293 C81.8532715,42.1828613 77.0979004,43.7453613 72.3830504,43.6835937 C67.6682003,43.6218262 63.4882813,41.1745605 61.7528667,40.9850327 C60.0174521,40.7955049 59.8461914,42.3071289 57.3591392,44.1406041 C55.861323,45.2448065 52.2591528,48.2954821 46.5526287,53.2926308 C47.7821048,49.7529308 49.2291036,46.0485066 49.5839688,44.7777041 C50.0740021,44.4132436 50.5289072,44.0361611 50.940918,43.6484375 C55.7220673,39.1491279 56.9327961,36.6518568 57.9086861,36.0561331 C58.0964396,35.9950748 58.2811079,35.9496195 58.4617356,35.9204144 Z" id="形状结合" fill="#EEF2F8"></path>
                <path d="M59.8877559,36.752165 C60.3277216,36.9153187 62.5324509,38.4421487 63.0956951,38.7718079 C65.0228363,39.8997379 67.0742536,40.5902527 69.5970217,40.7639409 C73.1578915,41.0091007 77.479384,40.6121969 82.5593289,39.5715186 L83.1501573,39.4472517 C83.2175927,39.6245968 83.2687886,39.8174587 83.3039373,40.0267798 L83.7129099,39.9410997 C82.3944981,40.2277631 81.1241105,40.4731784 79.9017124,40.6773182 L79.1748857,40.7943725 L79.1841967,40.8674694 C79.542555,43.5484326 80.3074254,45.3378284 81.4555679,46.2434596 C82.0429737,46.7067931 82.6466661,47.0920215 83.2668938,47.399465 C83.2750224,47.61694 83.2804281,47.8417721 83.2840533,48.0709479 C82.7010906,47.8059623 82.1325627,47.476752 81.5788649,47.0847462 L81.0839829,46.7145483 C79.8253943,45.7217996 79.0115711,43.8724749 78.6210451,41.1737823 L78.5817999,40.8844361 C75.1794785,41.3830036 72.1710881,41.5425813 69.5558103,41.3625239 C67.1215451,41.194929 65.1027435,40.5617995 63.2226625,39.5331386 L62.8478857,39.3213725 L62.8354484,39.3376207 C58.2162646,44.8004378 57.1995036,48.2142481 59.5589008,49.6607435 C60.5878744,50.2915849 61.7062909,50.4722222 62.9878761,50.281055 C63.8334505,50.1549252 64.6291791,49.9106193 65.7812445,49.4442132 L67.9128669,48.5438674 C69.53982,47.8685466 70.1772377,47.7 71.0651645,47.7 C74.239065,47.7 75.7928919,50.6683912 74.8246628,54.1220742 L74.3473631,55.6558689 C73.9719913,56.9361625 73.8653623,57.6839025 73.977456,58.3201062 C74.1400631,59.2430063 74.8458656,59.8070911 76.3891886,60.1066183 C78.3180973,60.4809798 80.7913811,59.8287814 83.8010597,58.1343219 C83.8329598,58.3496162 83.865723,58.5605097 83.9004277,58.7664453 C80.8619046,60.4447847 78.3224574,61.0930216 76.2748739,60.6956278 C74.5096506,60.3530343 73.5980297,59.6244571 73.3865577,58.4242175 C73.2199612,57.4786756 73.4432362,56.4337948 74.1453723,54.2939212 C75.214355,51.036023 73.8796778,48.3 71.0651645,48.3 C70.1632265,48.3 69.5005927,48.513724 67.3724432,49.4233601 L66.955825,49.6021898 C65.2155896,50.3518193 64.2000385,50.7068816 63.0763955,50.8744894 C61.6628025,51.0853475 60.4026647,50.8818205 59.2452984,50.1722643 C56.5262739,48.5052893 57.4617611,44.9517942 61.8496021,39.5847674 L62.3363742,39.0033725 L62.303445,38.9826021 C61.4309502,38.4173627 59.9683885,37.4219928 59.6791386,37.3147295 C58.5189399,36.88449 57.5702185,37.4340428 56.7843535,38.8687322 C56.0432527,40.2216995 50.1152037,45.504383 48.1821316,46.6612322 C46.2362869,47.8257253 33.6364976,53.0494461 31.9574731,53.3034606 C31.1267967,53.4291311 30.4281044,53.3881151 29.8678857,53.1735738 C30.0830579,53.0899806 30.2536229,53.019814 30.3754883,52.9631348 C30.4920974,52.9089002 30.6590642,52.8438649 30.8708176,52.7681875 C31.1677536,52.7851744 31.4996005,52.7659033 31.8677222,52.7102113 C32.6734376,52.588317 36.2881313,51.1943633 39.9035649,49.7020026 C41.4577703,49.1085916 43.0579936,48.4427032 44.5882822,47.7079842 C46.1563737,47.016243 47.3804102,46.4417868 47.8740207,46.146385 C49.7238076,45.0393779 55.5776022,39.8228649 56.2581269,38.5804865 C57.1715579,36.9129102 58.4009167,36.2007965 59.8877559,36.752165 Z" id="形状结合" fill="#B4B5C2"></path>
                <path d="M83.9086914,50.8115234 C82.2573242,50.1572266 80.9468587,49.3802083 79.9772949,48.4804687 C78.5229492,47.1308594 77.5014648,44.2004395 76.4211426,43.8850098 C75.3408203,43.5695801 73.6755371,44.2004395 70.7932129,43.8850098 C67.9108887,43.5695801 64.7609863,42.0087891 64.1208496,42.0087891 C63.4807129,42.0087891 58.9326172,46.4637375 60.1384277,48.4804687 C61.3442383,50.4972 68.2714844,47.2560985 69.3234863,46.9233398 C70.3754883,46.5905812 73.2019043,46.8139648 74.6037598,47.9934082 C76.0056152,49.1728516 76.9423828,52.8308105 75.9902344,56.1965332 C75.0380859,59.5622559 76.5795898,59.3840332 79.3657227,58.7446289 C81.2231445,58.3183594 82.7374674,57.6099447 83.9086914,56.6193848 L83.9086914,50.8115234 Z" id="路径-60" fill="#9EABC8"></path>
                <path d="M84.1154785,50.3310547 C82.4641113,49.6767578 81.1536458,48.8997396 80.184082,48 C78.7297363,46.6503906 77.708252,43.7199707 76.6279297,43.404541 C75.5476074,43.0891113 73.8823242,43.7199707 71,43.404541 C68.1176758,43.0891113 64.9677734,41.5283203 64.3276367,41.5283203 C63.6875,41.5283203 59.1394043,45.9832688 60.3452148,48 C61.5510254,50.0167312 68.4782715,46.7756297 69.5302734,46.4428711 C70.5822754,46.1101124 73.4086914,46.3334961 74.8105469,47.5129395 C76.2124023,48.6923828 77.1491699,52.3503418 76.1970215,55.7160645 C75.244873,59.0817871 76.786377,58.9035645 79.5725098,58.2641602 C81.4299316,57.8378906 82.9442546,57.1294759 84.1154785,56.138916 L84.1154785,50.3310547 Z" id="路径-60" fill="#C5CFE6"></path>
                <path d="M72.4448242,49.6503906 C72.2193624,50.073419 71.4390076,50.6818582 70.1037598,51.475708 C63.7569891,55.1670303 59.910422,57.3646248 58.170166,57.8583984 C56.3527016,58.3740789 54.7104326,58.4759537 53.2011719,57.8685303 C51.8603516,57.3288981 51.0793864,55.8249919 50.8582764,53.3568115 C50.4929777,53.8957392 50.0036385,54.8277867 49.3902588,56.1529541 C48.2773437,59.3839111 48.2493678,61.9232507 50.4041748,63.4194336 C53.3148193,65.4404297 60.0087259,62.5165623 69.2687062,54.4024462 C70.2646484,53.638916 71.2722168,52.93396 71.7266846,53.0473633 C72.0296631,53.1229655 71.6352351,53.6454975 70.5434005,54.6149593 C60.0921316,63.8338508 53.0738873,67.1161248 49.3583868,64.2457773 C46.8846436,62.3347285 46.763298,59.2500959 48.2602194,55.6357365 C48.7771835,54.3875119 49.4639914,53.1499866 50.1849117,52.086408 C50.4649628,51.6732466 50.7330817,51.3136331 50.9438134,51.063724 L51.1301159,50.8568205 L51.2077154,50.783193 C51.2721084,50.7249799 51.2721084,50.7249799 51.442721,50.6442457 L51.7442764,50.6848216 C52.014978,50.7346143 52.0314988,50.817465 52.1058425,51.1902931 C51.8018603,54.0505223 52.4315374,55.735165 53.7504,56.4899629 C54.7993481,57.0902861 56.3053455,57.1018417 57.888891,56.6525324 C59.6382179,56.156185 63.3544052,54.4168016 70.4274902,50.2648926 C71.3706055,49.7302246 72.7830169,49.015848 72.4448242,49.6503906 Z" id="路径-61" fill="#262327" fill-rule="nonzero"></path>
                <path d="M32.9263916,54.6595459 C34.0367432,54.4849854 34.2126465,53.7931519 34.0367432,53.4337158 C33.8608398,53.0742798 32.5611572,53.2729351 32.111084,53.6242676 C31.6610107,53.9756 31.81604,54.8341064 32.9263916,54.6595459 Z" id="路径-62" fill="#878DB1"></path>
                <path d="M39.0541894,52.7204192 C40.1645409,52.5458586 40.3404442,51.8540251 40.1645409,51.4945891 C39.9886376,51.135153 38.688955,51.3338084 38.2388817,51.6851408 C37.7888085,52.0364733 37.9438378,52.8949797 39.0541894,52.7204192 Z" id="路径-62备份" fill="#878DB1" transform="translate(39.113424, 52.023926) rotate(-5.000000) translate(-39.113424, -52.023926) "></path>
                <path d="M45.2970483,50.3142302 C46.4073998,50.1396696 46.5833031,49.4478361 46.4073998,49.0884001 C46.2314965,48.7289641 44.9318139,48.9276194 44.4817406,49.2789519 C44.0316674,49.6302843 44.1866967,50.4887907 45.2970483,50.3142302 Z" id="路径-62备份-2" fill="#878DB1" transform="translate(45.356283, 49.617737) rotate(-5.000000) translate(-45.356283, -49.617737) "></path>
                <path d="M59.1812744,39.7574463 C59.6212158,38.8052979 59.2201769,38.2285156 58.0253717,37.9556885 C56.8305664,37.6828613 53.9885254,36.4367103 53.5653076,36.1594238 C53.1420898,35.8821374 52.8657227,37.0752065 52.8657227,37.5067139 C52.8657227,37.9382213 54.8114014,38.9827881 55.8341064,39.3701172 C56.8568115,39.7574463 58.741333,40.7095947 59.1812744,39.7574463 Z" id="路径-63" fill="#DBDCE9"></path>
                <path d="M53.0327148,36.4246826 C52.2355143,36.9946679 51.8369141,37.5673807 51.8369141,38.142821 C51.8369141,39.0059814 53.21521,41.2191162 53.8558711,42.0081787 C54.4965323,42.7972412 54.7875977,43.5313721 55.6313477,43.2681885 C56.4750977,43.0050049 55.8557129,41.6906738 55.1043701,40.5588379 C54.3530273,39.427002 53.4797363,38.3657227 53.21521,37.8477783 C53.038859,37.5024821 52.9780273,37.0281169 53.0327148,36.4246826 Z" id="路径-64" fill="#C8CAE2"></path>
                <path d="M52.4018555,46.9350586 C52.8657227,46.7080078 52.4277344,45.6369629 51.8369141,44.7243652 C51.5117586,44.2221209 50.9566887,43.7019714 50.4682617,42.4326172 C50.3994392,42.2537571 50.3994392,41.8597141 50.4682617,41.2504883 C49.730957,41.7923991 49.3019206,42.1864421 49.1811523,42.4326172 C49.0603841,42.6787923 49.1787923,43.1669922 49.536377,43.8972168 C50.2460938,45.1673177 50.753418,45.9996745 51.0583496,46.3942871 C51.5157471,46.9862061 51.9379883,47.1621094 52.4018555,46.9350586 Z" id="路径-65" fill="#CDCEDC"></path>
                <path d="M84.1503906,59.2226562 C85.3996066,61.6806641 86.0242145,63.7209473 86.0242145,65.3435059 C86.0242145,67.7773438 85.9682617,70.6098633 81.487793,71.3049316 C77.0073242,72 38.5075684,72 30.8735352,72 C23.239502,72 10.0349121,70.0690918 10.0349121,59.8725586 C10.0349121,59.1674805 12.0612793,62.2224121 17.5688477,63.2392578 C23.076416,64.2561035 33.0703125,64.3029785 33.6079102,64.3029785 C34.1606445,63.9772949 35.6345215,61.550293 38.5546875,61.8781738 C40.5014648,62.0967611 42.1850586,62.9050293 43.6054687,64.3029785 C47.9895833,63.5938314 52.1666667,62.7855632 56.1367188,61.8781738 C62.0917969,60.5170898 66.4868164,60.9902344 71.1772461,61.3742676 C73.3452137,61.5517719 76.569926,61.8661104 79.6091309,61.3742676 C81.4385579,61.0782064 82.9523112,60.3610026 84.1503906,59.2226562 Z" id="路径-52" fill="#95A3B8"></path>
                <path d="M84.1154785,59.861084 C85.3879692,61.8934733 86.0242145,63.7209473 86.0242145,65.3435059 C86.0242145,67.7773438 85.9682617,70.6098633 81.487793,71.3049316 C77.0073242,72 38.5075684,72 30.8735352,72 C23.239502,72 10,70.7075195 10,60.5109863 C10,59.8059082 12.0263672,62.8608398 17.5339355,63.8776855 C23.0415039,64.8945312 33.0354004,64.9414062 33.572998,64.9414062 C34.1257324,64.6157227 35.5996094,62.1887207 38.5197754,62.5166016 C40.4665527,62.7351888 42.1501465,63.543457 43.5705566,64.9414062 C47.9546712,64.2322591 52.1317546,63.4239909 56.1018066,62.5166016 C62.0568848,61.1555176 66.4519043,61.6286621 71.142334,62.0126953 C73.3103016,62.1901996 76.5350139,62.5045382 79.5742188,62.0126953 C81.4036458,61.7166341 82.9173991,60.9994303 84.1154785,59.861084 Z" id="路径-52" fill="#E2E8F0"></path>
                <path d="M10.0631488,60.4064463 L10.0685589,60.4695284 C10.1965355,61.8090502 10.5036792,62.763462 10.9899902,63.3327637 C11.9799805,64.4916992 20.2036133,67.9985352 23.9448242,68.6459961 C27.6860352,69.293457 31.0820313,68.6459961 33.572998,64.9414062 L33.572998,64.9414062 C34.1257324,64.6157227 35.5996094,62.1887207 38.5197754,62.5166016 C39.9051738,62.6721563 41.157289,63.1263414 42.2761209,63.8791568 C43.9078163,65.7081611 46.3255395,69.007997 51.3415527,69.2988281 C56.9123535,69.6218262 61.4887695,68.1503906 67.529541,66.8162231 C73.5703125,65.4820557 77.6669922,67.4711914 81.8759766,67.4711914 C83.6790725,67.4711914 85.0478769,67.2591366 85.9823899,66.835027 C85.8239974,68.8270371 85.0701336,70.7491926 81.487793,71.3049316 C77.4105664,71.9374438 45.1619682,71.9943699 33.63746,71.9994933 L30.8735352,72 C23.239502,72 10,70.7075195 10,60.5109863 C10,60.4399749 10.0205542,60.4071026 10.0631488,60.4064463 Z" id="形状结合" fill="#C2D1E1"></path>
                <path d="M38.4014893,71.6021729 C40.6106283,71.6021729 42.3376465,70.1676351 42.3376465,67.9584961 C42.3376465,65.7493571 40.5467855,63.9584961 38.3376465,63.9584961 C36.1285075,63.9584961 34.2058105,65.7889079 34.2058105,67.9980469 C34.2058105,70.2071859 36.1923503,71.6021729 38.4014893,71.6021729 Z" id="椭圆形" fill="#CADAEC"></path>
                <path d="M12.2686544,66.6979911 C20.8117705,70.9414014 31.2546403,71.771226 34.0612793,70.0864258 C37.2490234,68.1728516 41.0908203,67.9155273 44.5454102,69.3280029 C48,70.7404785 54.3415527,71.3155518 59.7856445,70.4118652 C65.2297363,69.5081787 68.2414551,69.3280029 72.5087891,69.3280029 C76.776123,69.3280029 77.9819336,69.836792 81.4604492,69.836792 C82.9175228,69.836792 84.2063127,69.6152571 85.326819,69.1721874 C84.7224491,70.1791275 83.5939782,70.9781929 81.487793,71.3049316 C77.4105664,71.9374438 45.1619682,71.9943699 33.63746,71.9994933 L30.8735352,72 C25.2275314,72 16.5154288,71.2930345 12.3607694,66.7999189 Z" id="形状结合" fill="#6F90BF"></path>
                <path d="M32.3042603,54.0941772 C32.2318726,53.7926025 31.77621,52.5062866 31.980207,52.1495972 C32.1842041,51.7929077 32.7785645,51.3552856 33.1896362,51.6489868 C33.600708,51.942688 33.7472534,53.7463379 33.7416382,53.8175659 C33.7360229,53.8887939 32.3766479,54.395752 32.3042603,54.0941772 Z" id="路径-71" fill="#CDCEDC"></path>
                <path d="M38.3915405,52.239563 C38.3191528,51.9379883 37.7022529,50.2478027 37.90625,49.8911133 C38.1102471,49.5344238 38.8834839,49.1217041 39.2945557,49.4154053 C39.7056274,49.7091064 39.8345337,51.8917236 39.8289185,51.9629517 C39.8233032,52.0341797 38.4639282,52.5411377 38.3915405,52.239563 Z" id="路径-71备份" fill="#CDCEDC"></path>
                <path d="M44.6323242,49.7844849 C44.5599365,49.4829102 43.6923042,47.2120361 43.8963013,46.8553467 C44.1002983,46.4986572 44.8735352,46.0859375 45.2846069,46.3796387 C45.6956787,46.6733398 46.0753174,49.4366455 46.0697021,49.5078735 C46.0640869,49.5791016 44.7047119,50.0860596 44.6323242,49.7844849 Z" id="路径-71备份-2" fill="#CDCEDC"></path>
            </g>
        </g>
    </g>
</svg>