<?xml version="1.0" encoding="UTF-8"?>
<svg width="96px" height="96px" viewBox="0 0 96 96" version="1.1" xmlns="http://www.w3.org/2000/svg" xmlns:xlink="http://www.w3.org/1999/xlink">
    <title>Kyrie 6 By You</title>
    <defs>
        <rect id="path-1" x="0" y="0" width="96" height="96"></rect>
    </defs>
    <g id="icon" stroke="none" stroke-width="1" fill="none" fill-rule="evenodd">
        <g id="画板" transform="translate(-970.000000, -54.000000)">
            <g id="Kyrie-6-By-You" transform="translate(970.000000, 54.000000)">
                <g id="#" opacity="0">
                    <use fill="#FFFFFF" fill-rule="evenodd" xlink:href="#path-1"></use>
                    <rect stroke-opacity="0.5" stroke="#DDDDDD" stroke-width="6" stroke-linejoin="square" x="3" y="3" width="90" height="90"></rect>
                    <rect stroke-opacity="0.507785184" stroke="#DDDDDD" stroke-width="12" stroke-linejoin="square" x="6" y="6" width="84" height="84"></rect>
                    <rect stroke-opacity="0.319406703" stroke="#979797" stroke-width="10" stroke-linejoin="square" x="5" y="5" width="86" height="86"></rect>
                </g>
                <path d="M11.2470703,59.0114746 C10.894043,58.7425944 11.4458822,58.1872559 12.9025879,57.345459 C15.0876465,56.0827637 25.7610474,54.2607422 26.0778809,54.2607422 C26.2891032,54.2607422 26.4448649,54.2150065 26.545166,54.1235352 C26.8091634,53.3957113 27.2254028,52.9852702 27.7938843,52.8922119 C28.3623657,52.7991536 28.9223633,52.8828939 29.473877,53.1434326 C30.4984538,51.93632 31.4386393,51.3327637 32.2944336,51.3327637 C33.1502279,51.3327637 33.8687134,51.5191243 34.4498901,51.8918457 C34.6629842,51.9755452 34.7695312,51.9755452 34.7695312,51.8918457 C34.7695312,51.8081462 35.1724243,51.4793294 35.9782104,50.9053955 L35.9782104,50.3295288 L37.0406494,49.5679932 L37.4943237,49.8689575 L38.2883911,49.0114136 L38.572876,49.0114136 C39.3201904,48.0295207 39.6938477,47.5385742 39.6938477,47.5385742 C39.6938477,47.5385742 40.8369548,46.9980062 43.1231689,45.9168701 L45.9941406,45.0645142 L46.1212769,44.5792847 L46.9534912,44.5792847 C47.145874,43.8505656 47.2420654,43.4403687 47.2420654,43.3486938 C47.2420654,43.2111816 47.4526489,42.0552368 49.3462891,41.7787476 C49.5784912,41.2598267 50.1506958,40.5465088 50.5307007,40.5465088 C50.7840373,40.5465088 51.0487874,40.5465088 51.3249512,40.5465088 C51.281779,40.27771 51.2280273,40.0851847 51.1636963,39.9689331 C51.0671997,39.7945557 50.7764282,39.1411743 51.1636963,38.7733154 C51.421875,38.5280762 51.7331746,38.3370361 52.0975952,38.2001953 L52.0975952,37.8939819 C52.8681437,36.2375285 53.5979411,34.5771688 54.2869873,32.9129028 C54.9760335,31.2486369 55.8138224,29.7460937 56.800354,28.4052734 C57.0233358,27.9200846 57.3253377,27.75295 57.7063599,27.9038696 C58.2778931,28.130249 59.418335,28.9862671 60.3331909,31.2030029 C60.9430949,32.6808268 61.3622233,34.0384928 61.5905762,35.276001 C66.0881348,36.3046468 69.4746094,37.144694 71.75,37.7961426 C75.1630859,38.7733154 77.2768555,39.2746582 78.7814941,39.2746582 C80.2861328,39.2746582 81.0844727,41.5981445 80.5024414,42.2182617 C80.7185872,42.6907552 80.829834,43.639506 80.8361816,45.0645142 L81.9719238,46.4797363 L83.4665527,50.9053955 L83.982666,51.8918457 L83.982666,52.8922119 L84.4477539,54.2607422 L84.4477539,56.1799316 L83.982666,57.1008301 L84.4477539,58.3293457 L83.982666,59.0114746 L83.982666,59.8774414 L83.4665527,60.842041 L83.1303711,62.0957031 C61.2854004,64.7021484 46.0733846,66.0053711 37.4943237,66.0053711 C24.6257324,66.0053711 15.2033691,64.2539062 13.0227051,63.1748047 C11.568929,62.4554036 10.9770508,61.067627 11.2470703,59.0114746 Z" id="路径-257" fill="#AA1932"></path>
                <path d="M57.7063599,27.9038696 C58.2265039,28.1098942 59.2178498,28.8374206 60.0815206,30.6375239 C60.033811,32.1079227 59.6528209,33.7179728 58.8378608,35.2304899 C56.0825195,40.3442383 56.1789538,46.6575886 54.6981195,49.0448588 C53.2172852,51.4321289 45.3494591,55.879743 38.6664288,57.3058383 C32.1587902,58.6945067 25.4280076,57.8891054 25.6588916,54.3177499 C25.8985577,54.2806403 26.0447708,54.2607422 26.0778809,54.2607422 C26.2891032,54.2607422 26.4448649,54.2150065 26.545166,54.1235352 C26.8091634,53.3957113 27.2254028,52.9852702 27.7938843,52.8922119 C28.3623657,52.7991536 28.9223633,52.8828939 29.473877,53.1434326 C30.4984538,51.93632 31.4386393,51.3327637 32.2944336,51.3327637 C33.1502279,51.3327637 33.8687134,51.5191243 34.4498901,51.8918457 C34.6629842,51.9755452 34.7695312,51.9755452 34.7695312,51.8918457 C34.7695312,51.8081462 35.1724243,51.4793294 35.9782104,50.9053955 L35.9782104,50.3295288 L37.0406494,49.5679932 L37.4943237,49.8689575 L38.2883911,49.0114136 L38.572876,49.0114136 C39.3201904,48.0295207 39.6938477,47.5385742 39.6938477,47.5385742 C39.6938477,47.5385742 40.8369548,46.9980062 43.1231689,45.9168701 L45.9941406,45.0645142 L46.1212769,44.5792847 L46.9534912,44.5792847 C47.145874,43.8505656 47.2420654,43.4403687 47.2420654,43.3486938 C47.2420654,43.2111816 47.4526489,42.0552368 49.3462891,41.7787476 C49.5784912,41.2598267 50.1506958,40.5465088 50.5307007,40.5465088 L51.3249512,40.5465088 L51.3249512,40.5465088 C51.281779,40.27771 51.2280273,40.0851847 51.1636963,39.9689331 C51.0671997,39.7945557 50.7764282,39.1411743 51.1636963,38.7733154 C51.421875,38.5280762 51.7331746,38.3370361 52.0975952,38.2001953 L52.0975952,37.8939819 C52.8681437,36.2375285 53.5979411,34.5771688 54.2869873,32.9129028 C54.9760335,31.2486369 55.8138224,29.7460937 56.800354,28.4052734 C57.0233358,27.9200846 57.3253377,27.75295 57.7063599,27.9038696 Z" id="形状结合" fill="#C43A47"></path>
                <path d="M55.2489014,45.725708 L53.3259277,44.1784749 L52.4328,44.2191448 L49.8932435,46.3317261 L49.8932435,47.3106689 C51.3058663,48.3427327 52.0727091,48.931193 52.193772,49.0760498 C52.3753662,49.293335 53.3238525,49.7884521 53.9005127,49.328125 C54.2849528,49.0212402 54.7344157,47.8204346 55.2489014,45.725708 Z" id="路径-277" fill="#A52037"></path>
                <path d="M61.4179064,34.4656074 L57.9455566,35.604248 L57.5086122,36.0115022 C56.497919,36.917402 56.0997357,36.9815341 56.3140623,36.2038988 C56.531397,35.4153492 57.994568,34.6666191 60.7035753,33.9577085 L61.2499842,33.8216475 C61.3110914,34.0395338 61.3670654,34.2541871 61.4179064,34.4656074 Z" id="路径" fill="#D25B68"></path>
                <path d="M57.7063599,27.9038696 C58.2778931,28.130249 59.418335,28.9862671 60.3331909,31.2030029 C60.9430949,32.6808268 61.3622233,34.0384928 61.5905762,35.276001 L62.0998012,35.3921601 L61.1483154,38.9347534 C60.7364882,36.6923381 60.3205138,34.8916103 59.9003923,33.5325703 L59.8103027,33.2481079 C59.1341553,31.1653442 58.2589722,29.9799194 57.8346558,29.4157104 C57.5847106,29.083361 57.135854,28.8931705 56.488086,28.845139 L56.800354,28.4052734 L56.800354,28.4052734 C57.0233358,27.9200846 57.3253377,27.75295 57.7063599,27.9038696 Z" id="形状结合" fill="#6D222F"></path>
                <path d="M57.7063599,27.9038696 C58.2778931,28.130249 59.418335,28.9862671 60.3331909,31.2030029 C60.9430949,32.6808268 61.3622233,34.0384928 61.5905762,35.276001 C61.779006,35.3190971 61.9654856,35.3618623 62.1500149,35.4042964 L61.5239258,38.9161377 C60.946696,36.2656657 60.4326986,34.2461751 59.9819336,32.857666 C59.3057861,30.7749023 58.3054199,29.510498 57.8811035,28.9462891 C57.6417669,28.6280457 57.2380903,28.5086298 56.6700738,28.5880413 C56.7120909,28.5259672 56.7560726,28.4654574 56.800354,28.4052734 C57.0233358,27.9200846 57.3253377,27.75295 57.7063599,27.9038696 Z" id="形状结合" fill="#93505B"></path>
                <path d="M35.9245941,50.9436485 C37.5503029,56.0245553 40.6250147,59.0727805 45.2002441,61.0449219 C48.3057454,62.3835406 52.7805013,63.1197059 58.6245117,63.253418 C60.4426052,64.1638152 60.2845648,64.6574676 58.1503906,64.734375 C40.3378741,65.3762696 20.057927,64.3933399 16.9995117,63.9501953 C12.9939998,63.3698225 11.6515177,60.9573101 11.2242609,59.2029021 L11.2470703,59.0114746 L11.2470703,59.0114746 C11.2024186,58.977466 11.1722428,58.9388748 11.1565428,58.8957009 C11.1525779,58.872703 11.1484237,58.8507268 11.1444083,58.8288987 C11.1334252,58.5237392 11.7196512,58.029051 12.9025879,57.345459 C15.0876465,56.0827637 25.7610474,54.2607422 26.0778809,54.2607422 C26.2891032,54.2607422 26.4448649,54.2150065 26.545166,54.1235352 C26.8091634,53.3957113 27.2254028,52.9852702 27.7938843,52.8922119 C28.3623657,52.7991536 28.9223633,52.8828939 29.473877,53.1434326 C30.4984538,51.93632 31.4386393,51.3327637 32.2944336,51.3327637 C33.1502279,51.3327637 33.8687134,51.5191243 34.4498901,51.8918457 C34.6629842,51.9755452 34.7695312,51.9755452 34.7695312,51.8918457 C34.7695312,51.8141247 35.1169237,51.5250526 35.8117087,51.0246296 Z" id="形状结合" fill="#D14C5A"></path>
                <path d="M45.2002441,61.0449219 C48.3057454,62.3835406 52.7805013,63.1197059 58.6245117,63.253418 C60.4426052,64.1638152 60.2845648,64.6574676 58.1503906,64.734375 C40.3378741,65.3762696 20.057927,64.3933399 16.9995117,63.9501953 C16.0164598,63.8077574 15.193811,63.5549637 14.505728,63.2286267 C13.6113069,62.6559753 12.8769139,62.0743822 12.3019998,61.4833658 C11.8342109,60.8760665 11.5350022,60.232781 11.3458854,59.6372602 L13.2109375,59.6369101 C19.7383626,60.3400725 25.3771973,60.2594423 30.1274414,59.3950195 C34.525994,58.5945956 37.6206412,57.8329691 39.4113829,57.1101399 C40.9623407,58.7789002 42.8899982,60.0490961 45.2002441,61.0449219 Z" id="形状结合" fill="#BF3945"></path>
                <path d="M13.3268193,57.1368323 L13.3435974,56.9754944 C13.2148336,57.9147237 13.6208903,58.6201579 14.5617676,59.0917969 C15.9730835,59.7992554 19.7832642,60.9924316 19.8768311,62.8549194 C18.7440186,63.2421265 15.4324341,63.4901123 13.6523437,62.5164185 C13.2035404,62.2709269 12.8148,61.9927559 12.4843649,61.7062711 C11.7823442,60.8862677 11.4135156,59.9800224 11.2242609,59.2029021 L11.2470703,59.0114746 C11.2024186,58.977466 11.1722428,58.9388748 11.1565428,58.8957009 C11.1525779,58.872703 11.1484237,58.8507268 11.1444083,58.8288987 C11.1334252,58.5237392 11.7196512,58.029051 12.9025879,57.345459 C13.0203332,57.2774167 13.1627266,57.2077502 13.3268193,57.1368323 Z" id="形状结合" fill="#D46673"></path>
                <path d="M14.6912842,59.7466431 C16.1026001,60.4541016 18.9003906,60.8077393 19.3546143,62.723999 C18.2218018,63.1112061 15.4324341,63.4901123 13.6523438,62.5164185 C13.2963257,62.3216797 12.978103,62.106377 12.6967983,61.8826729 L12.4712015,61.6917791 C11.7798167,60.8781313 11.4140642,59.9796683 11.2254835,59.2079138 L11.2470703,59.0114746 C11.2093293,58.9827295 11.18193,58.9507103 11.1648725,58.9154173 L11.1498336,58.8580311 C11.0962817,58.5678663 11.6384986,58.0880659 12.7739818,57.4204153 C12.6914673,58.6098633 13.7504069,59.2750041 14.6912842,59.7466431 Z" id="路径" fill="#BD3F4D"></path>
                <path d="M36.0786694,50.2561601 L36.6276855,52.2865601 C34.604777,53.2384557 32.7890015,54.0117508 31.1803589,54.6064453 C28.767395,55.4984872 26.3720093,55.9445801 25.5985718,55.5532227 C25.1494353,55.3259607 25.2653965,54.8184345 25.4985675,54.3827729 L26.0346766,54.2659157 L26.0346766,54.2659157 L26.0778809,54.2607422 C26.2891032,54.2607422 26.4448649,54.2150065 26.545166,54.1235352 C26.8091634,53.3957113 27.2254028,52.9852702 27.7938843,52.8922119 C28.3623657,52.7991536 28.9223633,52.8828939 29.473877,53.1434326 C30.4984538,51.93632 31.4386393,51.3327637 32.2944336,51.3327637 C33.1502279,51.3327637 33.8687134,51.5191243 34.4498901,51.8918457 C34.6629842,51.9755452 34.7695312,51.9755452 34.7695312,51.8918457 C34.7695312,51.8081462 35.1724243,51.4793294 35.9782104,50.9053955 L35.9782104,50.3295288 L36.0786694,50.2561601 Z" id="路径" fill="#B23C45"></path>
                <path d="M49.4894593,41.505266 L49.4931347,42.1776123 L48.4363483,42.7222822 L48.8509521,43.0949707 L51.5590151,43.9595015 L49.8549805,44.9528809 L48.4363483,44.3752441 L48.5362228,44.9453374 C48.6055801,45.3701255 48.6402588,45.6691895 48.6402588,45.8425293 C48.6402588,46.206543 48,47.0920981 48,47.0920981 L46.7891621,44.579266 L46.9534912,44.5792847 L47.2014847,43.5862045 C47.2105026,43.5448837 47.2180176,43.5085398 47.2240295,43.4771729 L47.2548125,43.2530946 C47.3210091,42.9359369 47.6893539,42.0206757 49.3462891,41.7787476 C49.3852699,41.691634 49.4338325,41.599042 49.4894593,41.505266 Z" id="路径" fill="#8A2D38"></path>
                <path d="M56.0447998,44.7716064 C56.6824137,45.4557699 57.0809326,45.8985596 57.2403564,46.0999756 L53.7731934,52.0539551 C51.0877064,49.7514465 49.4858184,48.3721334 48.9675293,47.9160156 C48.7965301,47.7655287 48.4441945,47.9347588 47.9105225,48.4237061 L46.8679199,47.0012207 C49.9567871,44.7572428 51.8121338,43.5479736 52.43396,43.3734131 C53.3666992,43.1115723 55.0883789,43.7453613 56.0447998,44.7716064 Z M52.9468994,45.2762451 C52.0922852,45.2762451 50.256958,47.1646416 50.256958,47.472168 C50.256958,47.7796943 52.6558838,49.6680908 53.2958984,49.6680908 C53.8847119,49.6680908 54.5012147,46.8617045 54.5960867,46.4126827 L54.6086419,46.352417 C54.6086419,46.352417 53.8015137,45.2762451 52.9468994,45.2762451 Z" id="形状结合" fill="#8E1323"></path>
                <path d="M56.1342773,44.1795654 C56.7718913,44.8637288 57.1704102,45.3065186 57.329834,45.5079346 L53.8626709,51.4619141 C51.1771839,49.1594055 49.5752959,47.7800923 49.0570068,47.3239746 C48.8860077,47.1734876 48.5336721,47.3427178 48,47.831665 L46.9573975,46.4091797 C50.0462646,44.1652018 51.9016113,42.9559326 52.5234375,42.7813721 C53.4561768,42.5195313 55.1778564,43.1533203 56.1342773,44.1795654 Z M53.036377,44.6842041 C52.1817627,44.6842041 50.3464355,46.5726006 50.3464355,46.880127 C50.3464355,47.1876533 52.7453613,49.0760498 53.385376,49.0760498 C53.9741895,49.0760498 54.5906922,46.2696635 54.6855643,45.8206417 L54.6981195,45.760376 C54.6981195,45.760376 53.8909912,44.6842041 53.036377,44.6842041 Z" id="形状结合" fill="#B5283A"></path>
                <path d="M55.4429721,43.5882882 L55.627018,43.722879 C55.0798624,43.593373 53.5055404,42.9729314 52.9869385,43.0032959 C52.6415852,43.0235166 52.1861931,43.0968737 51.6207622,43.2233673 C52.0340834,42.981798 52.3352493,42.8342007 52.5234375,42.7813721 C53.2598106,42.5746556 54.4879056,42.9261573 55.4429721,43.5882882 Z" id="形状结合" fill="#DA6776"></path>
                <path d="M61.5842616,35.2304899 L61.5905762,35.276001 L61.5905762,35.276001 L64.0032682,35.834723 C67.0639448,36.553164 69.4996367,37.1655183 71.3103437,37.6717858 L73.0425251,38.16018 C73.4515341,38.273096 73.839249,38.3775623 74.2072859,38.4735191 L75.4351752,38.780529 L75.4351752,38.780529 C76.8411677,39.1075633 77.9128409,39.2746582 78.7814941,39.2746582 C80.2861328,39.2746582 81.0844727,41.5981445 80.5024414,42.2182617 C80.7185872,42.6907552 80.829834,43.639506 80.8361816,45.0645142 L81.0326033,45.3125281 L80.649311,48.3472368 C79.6454557,56.0012841 78.7876613,60.1472572 78.0759277,60.7851563 C77.2686361,61.5087003 71.9004209,62.6624161 61.9712822,64.2463036 L59.1686422,64.6852538 L58.8080223,64.7186743 L58.8080223,64.7186743 C58.1532087,64.5447883 57.5300528,64.2873006 56.9377441,63.9489746 C51.4628708,61.5201053 50.2672245,57.7581233 52.8970061,52.4320814 L53.125,51.9846191 C56.0458984,46.4211426 55.53125,43.0432129 55.53125,41.3720703 C55.53125,39.7009277 55.3430176,37.6518555 56.1755371,36.3713379 C56.7960754,35.4168736 59.5815662,35.2523777 61.5842616,35.2304899 Z" id="路径" fill="#6E373F"></path>
                <path d="M74.2072859,38.4735191 L75.4351752,38.780529 C76.8411677,39.1075633 77.9128409,39.2746582 78.7814941,39.2746582 C80.2861328,39.2746582 81.0844727,41.5981445 80.5024414,42.2182617 C80.7185872,42.6907552 80.829834,43.639506 80.8361816,45.0645142 L81.0326033,45.3125281 L80.649311,48.3472368 C80.3931294,50.3005324 80.1464602,52.0253615 79.9093033,53.5217242 C78.0541604,55.5719377 75.6090603,57.3585506 73.7270508,58.8046758 C71.4925055,60.5216873 65.387857,62.9885164 61.1354787,64.3770611 L59.1686422,64.6852538 L58.8080223,64.7186743 C58.1532087,64.5447883 57.5300528,64.2873006 56.9377441,63.9489746 C51.4628708,61.5201053 50.2672245,57.7581233 52.8970061,52.4320814 L53.125,51.9846191 C53.7260852,50.8397236 54.1816798,49.787383 54.526209,48.823425 C54.8003563,51.8464832 55.1594328,54.8988434 59.6835937,54.6186523 C64.5205078,54.3190918 69.5327148,50.2939453 71.7978516,45.9770508 C73.1632103,43.374952 73.8271812,40.8368201 73.7897645,38.3626552 C73.9320383,38.4012916 74.0710111,38.4379887 74.2072859,38.4735191 Z" id="形状结合" fill="#63343B"></path>
                <path d="M61.5842616,35.2304899 L61.5905762,35.276001 L64.0032682,35.834723 C67.0639448,36.553164 69.4996367,37.1655183 71.3103437,37.6717858 L73.0425251,38.16018 C73.4515341,38.273096 73.839249,38.3775623 74.2072859,38.4735191 L75.4351752,38.780529 C76.8411677,39.1075633 77.9128409,39.2746582 78.7814941,39.2746582 C80.2735324,39.2746582 81.0710519,41.5593919 80.5167738,42.2023264 C78.3224564,43.1481605 70.197023,40.3518285 64.015708,38.7153923 C59.893042,37.623961 57.096252,37.6970814 55.6253382,38.9347534 C55.5973335,38.8297088 55.5719145,38.725296 55.5490809,38.621515 C55.6112234,37.7790405 55.7755919,36.9865028 56.1755371,36.3713379 C56.7960754,35.4168736 59.5815662,35.2523777 61.5842616,35.2304899 Z" id="形状结合" fill="#804D54"></path>
                <path d="M61.0598676,35.2395259 L61.5842616,35.2304899 L61.5842616,35.2304899 L61.5905762,35.276001 L61.5905762,35.276001 L64.0032682,35.834723 C67.0639448,36.553164 69.4996367,37.1655183 71.3103437,37.6717858 L73.0425251,38.16018 C73.4515341,38.273096 73.839249,38.3775623 74.2072859,38.4735191 L75.4351752,38.780529 C76.8411677,39.1075633 77.9128409,39.2746582 78.7814941,39.2746582 C80.2719648,39.2746582 81.0693754,41.5545937 80.5185164,42.2002946 L80.3378906,42.1462402 L80.3378906,42.1462402 C78.0346612,41.2460236 76.4812388,40.8993649 75.6005169,40.538597 L75.4091797,40.454834 C73.9815383,39.7824009 68.3925449,38.1471349 66.0940641,37.5778731 L64.97246,37.3152011 C62.7862038,36.8201596 59.3882985,36.1560633 57.9169922,36.786377 C56.5305972,37.3803142 55.9544619,38.5978527 55.5137886,39.7602659 L55.5196842,39.2073378 L55.5196842,39.2073378 L55.5455718,38.6606324 L55.5930118,38.1720325 L55.6196066,37.9816955 L55.6196066,37.9816955 L55.6984298,37.5633089 L55.7390734,37.3974886 L55.7390734,37.3974886 L55.7910654,37.2154762 L55.7910654,37.2154762 L55.850073,37.0382949 C55.9355826,36.8001065 56.0425333,36.5759141 56.1755371,36.3713379 L56.3140623,36.2038988 L56.4039318,36.1238294 L56.4039318,36.1238294 L56.5445492,36.0220969 L56.733734,35.9133783 L56.9959603,35.7954139 L57.2874661,35.6926228 L57.5903579,35.6070287 L57.5903579,35.6070287 L57.9492275,35.5254497 L58.4418037,35.4387093 L58.8795115,35.379771 C59.2613393,35.3345198 59.6570119,35.3023911 60.0501469,35.2797074 L61.0598676,35.2395259 L61.0598676,35.2395259 Z" id="路径" fill="#521B26"></path>
                <path d="M61.5842616,35.2304899 L61.5905762,35.276001 L64.0032682,35.834723 L66.3679988,36.3988661 C68.3460175,36.8792847 69.9934659,37.3035913 71.3103437,37.6717858 L73.0425251,38.16018 L74.2072859,38.4735191 L74.2072859,38.4735191 L75.4351752,38.780529 C76.8411677,39.1075633 77.9128409,39.2746582 78.7814941,39.2746582 C79.5771646,39.2746582 80.1753244,39.924402 80.4762932,40.628407 C79.92953,40.242434 78.8728454,39.8144066 78.5146484,39.7890625 L78.2647336,39.7584228 C77.4544433,39.6416351 75.1589674,39.2222761 73.5812892,38.8047282 L72.4725009,38.5056752 C69.5920693,37.759375 61.7468403,35.9067551 59.5281982,35.8317871 C58.0585849,35.7821288 56.8055864,36.2660129 55.7692026,37.2834392 L55.850073,37.0382949 C55.9355826,36.8001065 56.0425333,36.5759141 56.1755371,36.3713379 L56.3140623,36.2038988 L56.4039318,36.1238294 L56.5445492,36.0220969 L56.733734,35.9133783 L56.9959603,35.7954139 L57.2874661,35.6926228 L57.5903579,35.6070287 L57.9492275,35.5254497 L58.4418037,35.4387093 L58.8795115,35.379771 C59.2613393,35.3345198 59.6570119,35.3023911 60.0501469,35.2797074 L61.0598676,35.2395259 L61.5842616,35.2304899 Z" id="路径" fill="#925965"></path>
                <path d="M80.8395527,45.0694564 L81.9719238,46.4797363 L83.4665527,50.9053955 L83.982666,51.8918457 L83.982666,52.8922119 L84.4477539,54.2607422 L84.4477539,56.1799316 L83.982666,57.1008301 L84.4477539,58.3293457 L83.982666,59.0114746 L83.982666,59.8774414 L83.4665527,60.842041 L83.2355527,61.7004564 L60.5915527,63.253418 C64.1743164,60.9763997 67.0580241,59.142985 69.2426758,57.7531738 C72.5196533,55.668457 78.3076172,51.6647949 79.1015625,50.4443359 C79.5513009,49.7529946 80.197998,48.1767578 80.8357544,45.0884399 L80.8395527,45.0694564 Z" id="形状结合" fill="#D9D9D0"></path>
                <path d="M46.8988542,44.576954 C47.8116804,46.8463394 50.1154173,50.4232053 50.6650391,50.9953613 C51.2902832,51.6462402 50.7731934,53.3927002 50.4278564,54.2497559 C50.105542,55.0496745 49.6708458,58.3232096 49.7890635,59.6340412 L49.8218994,59.8903809 C50.0245361,61.0428467 48.8880615,61.4736328 47.7459717,61.0081787 L46.6782227,60.5672607 C44.8291992,59.6841268 40.8046769,57.5497675 39.2770996,56.3841553 C38.1960449,55.5592604 37.2471165,54.0849501 36.2089844,51.8936768 L35.9548754,50.9220281 L35.9782104,50.9053955 L35.9782104,50.3295288 L37.0406494,49.5679932 L37.4943237,49.8689575 L38.2883911,49.0114136 L38.572876,49.0114136 L39.6938477,47.5385742 L43.1231689,45.9168701 L45.9941406,45.0645142 L46.1212769,44.5792847 L46.8988542,44.576954 Z" id="路径" fill="#821C21"></path>
                <path d="M46.8996754,44.5789952 C47.8130614,46.8484835 50.1155821,50.4233768 50.6650391,50.9953613 C51.2902832,51.6462402 50.7200928,53.40979 50.3747559,54.2668457 C50.0294189,55.1239014 49.6411133,58.3118896 49.84375,59.4643555 C50.0463867,60.6168213 48.7513428,60.8477783 47.6092529,60.3823242 C46.4671631,59.9168701 41.0321045,57.0917969 39.2753906,55.7513428 C38.104248,54.8577067 36.9582926,53.1622721 35.8375244,50.6650391 L35.9542613,50.9224661 C35.9622044,50.9168002 35.9701875,50.91111 35.9782104,50.9053955 L35.9782104,50.3295288 L37.0406494,49.5679932 L37.4943237,49.8689575 L38.2883911,49.0114136 L38.572876,49.0114136 C39.3201904,48.0295207 39.6938477,47.5385742 39.6938477,47.5385742 C39.6938477,47.5385742 40.8369548,46.9980062 43.1231689,45.9168701 L45.9941406,45.0645142 L46.1212769,44.5792847 Z" id="形状结合" fill="#C15157"></path>
                <path d="M45.9789977,45.0687267 C46.7488538,46.9835356 48.2750628,49.4232499 48.8193359,49.9809646 C49.4473877,50.6245269 50.5100098,51.6179199 47.1907959,52.4008789 C43.871582,53.1838379 38.8331299,52.4901123 38.0562744,51.9810791 C37.5383708,51.6417236 37.3361003,50.9750188 37.4494629,49.9809646 L37.4494629,49.9809646 L37.3545244,49.7767267 L37.4943237,49.8689575 L38.2883911,49.0114136 L38.572876,49.0114136 C39.3201904,48.0295207 39.6938477,47.5385742 39.6938477,47.5385742 C39.6938477,47.5385742 40.8369548,46.9980062 43.1231689,45.9168701 Z" id="形状结合" fill="#8B1E23"></path>
                <path d="M45.7949219,45.1247559 C46.2493896,46.9718018 47.7720661,49.2885518 48.3164279,49.8463572 L48.5273437,50.0645752 C49.1218827,50.7003738 49.8366711,51.685052 46.7681885,52.1726074 C43.4869385,52.6939697 39.1328125,52.2608643 38.355957,51.7518311 C37.8955982,51.4501817 37.5240805,51.0945769 37.5625,50.2756348 L37.4494629,49.9809646 L37.3535244,49.7757916 L37.4943237,49.8689575 L38.2883911,49.0114136 L38.572876,49.0114136 L39.6938477,47.5385742 L43.1231689,45.9168701 L45.7949219,45.1247559 Z" id="路径" fill="#AE3E43"></path>
                <path d="M49.3648227,53.062911 C49.5740621,52.9920462 49.8011314,53.104221 49.8719962,53.3134604 C49.942861,53.5226998 49.8306862,53.7497692 49.6214468,53.8206339 C47.0388753,54.695294 43.6385147,54.9546135 39.4161001,54.6064105 C39.1959335,54.5882543 39.0321717,54.3950557 39.0503278,54.1748891 C39.0684839,53.9547226 39.2616826,53.7909608 39.4818492,53.8091169 C43.604161,54.1490649 46.8999072,53.8977236 49.3648227,53.062911 Z" id="路径-263" fill="#9A292F" fill-rule="nonzero"></path>
                <path d="M49.225761,54.4129023 C49.4364074,54.3463365 49.6611324,54.4631369 49.7276983,54.6737834 C49.7942641,54.8844299 49.6774637,55.1091549 49.4668172,55.1757207 C46.6540127,56.0645876 43.8381548,56.3956733 41.0219647,56.1679862 C40.8017693,56.1501835 40.6376975,55.957248 40.6555002,55.7370525 C40.6733028,55.5168571 40.8662384,55.3527854 41.0864338,55.3705881 C43.7983035,55.589841 46.5105055,55.270943 49.225761,54.4129023 Z" id="路径-263备份" fill="#9A292F" fill-rule="nonzero"></path>
                <path d="M48.9562994,55.928829 C49.1700971,55.8732099 49.3885026,56.0014389 49.4441218,56.2152366 C49.499741,56.4290343 49.371512,56.6474398 49.1577143,56.703059 C47.126231,57.2315466 45.0935419,57.4959473 43.0604101,57.4959473 C42.8394962,57.4959473 42.6604101,57.3168612 42.6604101,57.0959473 C42.6604101,56.8750334 42.8394962,56.6959473 43.0604101,56.6959473 C45.0250095,56.6959473 46.9900515,56.4403458 48.9562994,55.928829 Z" id="路径-263备份-2" fill="#9A292F" fill-rule="nonzero"></path>
                <path d="M48.9360142,57.3246835 C49.1465795,57.2578612 49.3714466,57.3743878 49.4382689,57.584953 C49.5050913,57.7955183 49.3885647,58.0203854 49.1779994,58.0872077 C48.0692053,58.4390809 46.9235534,58.665543 45.741591,58.7665883 C45.52148,58.7854054 45.3277904,58.6222245 45.3089733,58.4021135 C45.2901561,58.1820024 45.453337,57.9883129 45.673448,57.9694957 C46.7966614,57.8734729 47.884001,57.6585374 48.9360142,57.3246835 Z" id="路径-263备份-3" fill="#9A292F" fill-rule="nonzero"></path>
                <path d="M48.9722067,58.646086 C49.1880991,58.5992522 49.4010808,58.7363012 49.4479147,58.9521937 C49.4869429,59.132104 49.3982746,59.3099931 49.2426966,59.3913948 L49.141807,59.4279017 L47.9004899,59.6971822 C47.6845975,59.7440161 47.4716157,59.606967 47.4247819,59.3910746 C47.3857537,59.2111642 47.474422,59.0332752 47.6299999,58.9518734 L47.7308896,58.9153666 L48.9722067,58.646086 Z" id="路径-264" fill="#9A292F" fill-rule="nonzero"></path>
                <path d="M36.0094604,50.5631714 C36.1509399,51.2058309 36.2216797,51.7129517 36.2216797,52.0845337 C36.2216797,52.6419067 35.6115723,55.1011963 33.9049256,55.5424805 C32.1982788,55.9837646 31.2894287,53.2286987 31.2596436,52.8988339 C30.9657593,53.1676018 29.5614624,55.5196533 29.1390381,56.0393066 C28.7166138,56.55896 26.78479,56.4932861 26.4511719,55.7059456 C26.3204064,55.3973385 26.2451702,54.8678617 26.41197,54.2049112 C26.4645575,54.1842161 26.5085561,54.1569222 26.545166,54.1235352 C26.8091634,53.3957113 27.2254028,52.9852702 27.7938843,52.8922119 C28.3623657,52.7991536 28.9223633,52.8828939 29.473877,53.1434326 C30.4984538,51.93632 31.4386393,51.3327637 32.2944336,51.3327637 C33.1502279,51.3327637 33.8687134,51.5191243 34.4498901,51.8918457 C34.6629842,51.9755452 34.7695312,51.9755452 34.7695312,51.8918457 C34.7695312,51.8081462 35.1724243,51.4793294 35.9782104,50.9053955 L35.9780103,50.5906406 L36.0094604,50.5631714 Z M58.1340332,37.9024658 C58.9382324,37.9024658 59.6062012,38.7995605 59.6062012,39.0939941 C59.6062012,39.3884277 59.0068359,39.7558594 58.5579834,39.7558594 C58.1371841,39.7558594 56.3536081,39.4452596 55.6730436,39.4064346 L55.5523682,39.4024658 L52.7711182,39.4024658 C56.039266,41.8641357 57.911499,43.3052165 58.3878174,43.725708 C59.1022949,44.3564453 59.0068359,44.8530273 59.0068359,45.0546875 C59.0068359,45.2563477 58.1252441,45.0247803 57.329834,44.6842041 C56.8192003,44.4655626 55.3911924,43.4870019 53.0458104,41.7485219 L52.7711182,41.5445557 L50.9446078,41.5445557 C51.2325902,42.9986572 51.6976688,44.0452067 52.3398438,44.6842041 C52.9820187,45.3232015 53.3699988,45.8801676 53.5037842,46.3551025 C53.3168538,46.9531657 53.0726318,47.1988309 52.7711182,47.0920981 C52.3188477,46.931999 50.9446078,45.7003174 50.0424805,44.200407 C49.4368785,43.1935106 49.3306247,42.2353428 49.4437198,41.5852074 C49.7122282,41.0998449 50.1960112,40.5465088 50.5307007,40.5465088 L51.3249512,40.5465088 L51.3249512,40.5465088 C51.281779,40.27771 51.2280273,40.0851847 51.1636963,39.9689331 C51.1398372,39.9258178 51.1041014,39.8534191 51.0696743,39.7632933 C51.0327114,39.3872312 51.0645596,39.0580034 51.1636963,38.7733154 C51.3635266,38.5835002 51.5951804,38.4261545 51.8586577,38.3012782 C52.1964783,38.2429269 52.5222775,38.2824707 52.5222775,38.2824707 C52.5222775,38.2824707 52.5222775,37.6816406 52.9379883,37.6816406 C53.353699,37.6816406 57.329834,37.9024658 58.1340332,37.9024658 Z" id="形状结合" fill="#8D3741"></path>
                <path d="M26.5698242,57.7059456 C26.8489583,55.9523151 27.1044922,55.0166112 27.3364258,54.8988339 C27.5683594,54.7810566 27.9768473,54.7810566 28.5618896,54.8988339 L29.0513916,57.7059456 L26.5698242,57.7059456 Z" id="路径-269" fill="#B12B38"></path>
                <path d="M32.7936401,57.3412476 C32.9052124,56.2618612 32.9609985,55.418279 32.9609985,54.8105009 C32.9609985,53.8988339 32.6427002,53.2561954 32.8773193,53.0775146 C33.0337321,52.9583941 33.6193237,52.6947426 34.6340942,52.2865601 C34.7686157,53.2809448 34.8358765,53.8860677 34.8358765,54.1019287 C34.8358765,54.4257202 35.0187988,57.0120304 35.0187988,57.1582642 C35.0187988,57.2557533 34.2770793,57.3167478 32.7936401,57.3412476 Z" id="路径-270" fill="#B12B38"></path>
                <path d="M56.2830811,30.0541992 L55.7489014,31.0493164 L56.5697021,31.0493164 L55.7489014,32 L55.5585937,32.5998535 L54.5050423,33.5653076 L54.5050423,34.625 L53.4230957,37.0843506 L53.4230957,37.6816406 L52.194772,37.6811959 L52.6678658,36.6509094 C53.2304955,35.4071045 53.7702026,34.1611023 54.2869873,32.9129028 C54.7564845,31.7789177 55.2950382,30.7200154 55.9026485,29.7361959 C56.012345,29.8255133 56.1391327,29.9315219 56.2830811,30.0541992 Z" id="形状结合" fill="#E4E7E3"></path>
                <path d="M56.0788574,50.6650391 C56.3905029,50.8603516 55.6804199,55.1570915 58.0523682,55.949707 C60.4243164,56.7423226 71.3417969,49.7178955 74.7539063,47.3703613 C78.1660156,45.0228271 78.8942871,43.94952 79.1812744,44.2191448 C79.4682617,44.4887695 78.7546387,45.4839926 75.4047852,48.3564372 C72.0549316,51.2288818 63.5386963,58.0653076 61.2589111,59.5108643 C58.979126,60.9564209 55.0380859,61.7314193 53.9506836,58.6364746 C52.8632813,55.54153 55.7672119,50.4697266 56.0788574,50.6650391 Z" id="路径-276" fill="#E7E6EB"></path>
                <path d="M55.0924072,53.9219971 C55.303833,54.0227051 55.2797852,56.4720459 58.0288086,56.9642334 C60.777832,57.4564209 71.5303955,49.9428711 74.9425049,47.5953369 C78.3546143,45.2478027 78.9389648,44.0219727 79.1812744,44.2191448 C79.423584,44.4163169 78.4980469,45.1341472 75.1481934,48.0065918 C71.7983398,50.8790364 63.9124756,56.9088135 61.6326904,58.3543701 C59.3529053,59.7999268 56.1235352,60.6217041 54.9923096,58.7596436 C53.861084,56.897583 54.8809814,53.8212891 55.0924072,53.9219971 Z" id="路径-276" fill="#CECCD6"></path>
                <path d="M80.7375488,46.3317261 L81.0003662,46.880127 L81.4221191,46.880127 L82.6877441,50.1816406 L82.3666992,51.2592773 L83.0565186,52.4775184 L83.4927356,51.4619141 L83.4887985,52.1533228 C83.4718986,53.4297697 83.400844,54.0679932 83.2756348,54.0679932 C83.1295573,54.0679932 82.988973,54.1506435 82.8538818,54.315944 L81.2530518,51.0761719 L80.8101807,51.2592773 L82.2231099,54.2279102 C82.6436245,55.1340619 82.8538818,55.6267404 82.8538818,55.7059456 L82.8996296,56.3268224 C82.9593968,57.022244 83.0565186,58.0369938 83.0565186,58.0369938 L80.3969727,52.4775184 L79.5616455,52.4775184 L81.4221191,57.4067383 L81.2530518,58.46875 L78.8950195,53.1741943 L78.1239014,53.1741943 L78.1239014,53.8988339 L79.2388755,57.4067383 L79.2388755,58.46875 L77.3518066,54.0679932 L76.9328613,54.315944 L77.5148926,56.7059456 L77.5148926,58.46875 L76.1601562,54.8988339 L75.5050049,55.315944 L75.2265625,56.315944 L75.8525391,58.46875 L75.2265625,58.0369938 L74.1333008,56.1403809 L73.5423584,57.0369938 L73.5423584,59.0369938 L73.020874,58.46875 L72.5494385,57.0369938 L72.034668,57.7059456 L71.6827393,59.3062744 L70.96875,57.7059456 L70.098999,58.2451172 L69.6168213,59.9093018 L69.1099854,58.6942139 L68.3588867,59.1716341 L67.6552734,60.6078573 L67.409668,59.5273438 L64.015708,61.0769653 L69.2426758,57.7531738 C72.5196533,55.668457 78.3076172,51.6647949 79.1015625,50.4443359 C79.471654,49.8754284 80.1115112,48.3577881 80.7375488,46.3317261 Z" id="路径" fill="#CBC8BC"></path>
                <path d="M85.999998,64.9458133 C85.6352533,63.7986695 85.1178385,62.9857178 84.4477539,62.506958 C83.442627,61.7888184 83.9541016,61.1357654 83.1604004,60.7765619 C82.3666992,60.4173584 77.3065186,58.9626959 71.4207764,59.8696289 C65.5350342,60.7765619 59.7008057,63.1901855 56.9359131,63.5334473 C54.1710205,63.876709 46.0294189,62.4977177 44.9437256,62.2611879 C43.8446045,61.7227783 40.8925415,60.1717529 36.8417969,61.204834 C35.2237549,61.1777344 28.8114014,62.506958 26.8764648,62.506958 C24.9415283,62.506958 17.0891113,62.1494635 14.7907715,61.4630127 C13.2585449,61.0053788 12.2755534,60.4742509 11.8417969,59.8696289 C11.9649251,59.0625 11.9649251,58.6042887 11.8417969,58.4949951 C11.6571045,58.3310547 11.2783203,58.1331787 11.0370483,58.4949951 C10.7957764,58.8568115 9.99984367,60.4737549 9.99984367,61.204834 C9.99984367,61.9359131 10.3109131,66.8111572 17.9709473,69.6116943 C21.7777032,71.0034585 26.0020238,72.0064749 31.0197506,72.0018224 C32.2006184,72.0006075 33.9345947,72 36.2216797,72 C44.4383015,71.4825846 51.3430459,71.223877 56.9359131,71.223877 C65.3252138,71.223877 66.8028726,71.9983106 73.020874,72 C79.2388755,72.0018224 82.8955078,69.7307129 84.4477539,68.4040527 C85.4825833,67.5196126 85.999998,66.3668662 85.999998,64.9458133 Z" id="路径-278" fill="#D7D5DB"></path>
                <path d="M85.441652,63.6534292 L85.5252525,63.7962638 C85.7049702,64.1324512 85.8632187,64.5156344 85.999998,64.9458133 C85.999998,65.4526808 85.9341706,65.9254134 85.8025156,66.364011 C85.0246091,66.4438726 83.9836937,66.4580984 82.6811523,66.4056396 C82.0802749,63.2102214 83.0004415,62.2928179 85.441652,63.6534292 Z" id="路径" fill="#E7E5EB"></path>
                <path d="M10.8583429,58.8056435 C11.0218225,59.1442208 11.1302501,59.6419256 11.1836255,60.2987581 C11.3302027,62.1025211 12.1569824,62.237915 14.8886719,63.253418 C17.6203613,64.2689209 23.6931152,64.3640137 27.1716309,65.146553 C30.6501465,65.9290924 30.9601775,65.146553 31.7387695,64.734375 C32.3041695,64.4350585 35.3738955,62.2313758 37.5502695,61.0470038 C41.2355835,60.3518516 43.9096747,61.7546533 44.9437256,62.2611879 C44.9507188,62.2627115 44.9580047,62.2642824 44.9655801,62.2659 C46.2759815,62.8938651 47.8891524,63.7025974 49.9042969,64.734375 C54.466888,67.0704753 59.2513119,68.636556 64.2575684,69.4326172 C65.3158366,68.4651693 66.3688151,67.9814453 67.4165039,67.9814453 C68.9880371,67.9814453 75.6203613,67.2412109 79.9677734,66.598877 C82.3647167,66.2447265 84.3389663,65.5877215 85.8905221,64.6278622 C85.9289004,64.7296422 85.9651462,64.8362022 85.999998,64.9458133 C85.999998,66.3668662 85.4825833,67.5196126 84.4477539,68.4040527 C82.8955078,69.7307129 79.2388755,72.0018224 73.020874,72 C66.8028726,71.9983106 65.3252138,71.223877 56.9359131,71.223877 C51.3430459,71.223877 44.4383015,71.4825846 36.2216797,72 C34.5444841,72 33.1647379,72.0003267 32.0824413,72.0009801 L31.0197506,72.0018224 C26.0020238,72.0064749 21.7777032,71.0034585 17.9709473,69.6116943 C10.3109131,66.8111572 9.99984367,61.9359131 9.99984367,61.204834 C9.99984367,60.6457735 10.4652853,59.5686817 10.7922089,58.930969 Z" id="形状结合" fill="#CDCCD2"></path>
                <path d="M12.370029,60.3862472 C12.9042886,60.7816534 13.7112027,61.1405752 14.7907715,61.4630127 C17.0891113,62.1494635 24.9415283,62.506958 26.8764648,62.506958 C28.8114014,62.506958 35.2237549,61.1777344 36.8417969,61.204834 C40.8925415,60.1717529 43.8446045,61.7227783 44.9437256,62.2611879 C46.0294189,62.4977177 54.1710205,63.876709 56.9359131,63.5334473 C58.8074355,63.3010976 62.0852578,62.1201551 65.8334489,61.0999878 C73.9860559,61.5153079 80.4652478,61.8459499 80.9501953,61.9892578 C82.1035156,62.3300781 79.5112305,62.6674805 76.3081055,63.253418 C65.8442383,65.2275391 61.4736328,65.2543945 55.4140625,65.5805664 C49.3544922,65.9067383 47.0537109,65.8227539 36.6411133,65.6274414 C26.2285156,65.4321289 18.3320313,65.4506836 15.2504187,64.7186743 C13.1960104,64.2306681 11.8279452,62.87008 11.1462232,60.6369101 C11.4519565,60.5717384 11.7571532,60.5083508 12.0618131,60.4467473 Z" id="形状结合" fill="#E9E8EC"></path>
                <path d="M65.832717,61.100187 L78.059225,61.7516986 C79.7250515,61.8539911 80.7667052,61.9350342 80.9501953,61.9892578 C82.1035156,62.3300781 79.5112305,62.6674805 76.3081055,63.253418 L74.4156358,63.6012946 C67.7244673,64.7971931 63.6834221,65.1390705 59.7636566,65.3569565 L55.4140625,65.5805664 C53.3624296,65.6910008 51.7416839,65.7544171 50.0910956,65.7824136 L44.2694132,62.0494547 C44.0646551,61.9197755 43.8743215,61.7995868 43.6984101,61.688884 C44.235989,61.9072161 44.6541605,62.1193432 44.9437256,62.2611879 L45.4934287,62.3681006 C47.6563491,62.7645955 54.4570439,63.8411992 56.9359131,63.5334473 C58.8073137,63.3011127 62.0848312,62.1203088 65.832717,61.100187 Z" id="路径" fill="#C9C8D0"></path>
                <path d="M71.4207764,59.8696289 C77.3065186,58.9626959 82.3666992,60.4173584 83.1604004,60.7765619 C83.5992705,60.9751803 83.6390909,61.2636414 83.756907,61.6032709 L84.1875,61.6711996 C82.1925456,61.3453454 80.3880208,61.1307751 78.7739258,61.0274885 C76.3527832,60.8725586 71.7251944,61.0810123 69.2872798,61.349344 L68.6187061,61.4316319 C67.0658831,61.6373475 64.2190063,62.0899017 60.0780758,62.7892946 L61.5556354,62.3501742 C64.3929773,61.4952422 67.897648,60.4125072 71.4207764,59.8696289 Z" id="路径" fill="#EEEEF1"></path>
                <path d="M37.56604,61.4169922 C33.7853597,61.9730632 31.0800781,62.3747965 29.4501953,62.6221924 C28.5874147,62.7531517 27.8448578,62.9394037 26.2008057,62.9147949 C23.1861782,62.8696708 18.7703306,62.4652204 16.5415039,62.1816406 C13.097168,61.7434082 12.0182495,60.4758993 11.7758179,60.197876 C11.6976318,60.6844482 11.7099609,61.5498007 12.1608887,61.8803711 C12.6118164,62.2109415 15.0418701,63.070761 16.1268311,63.3603516 C17.211792,63.6499422 22.7646484,64.3441162 24.2199707,64.4644775 C25.675293,64.5848389 26.9151611,64.8186286 27.4677734,64.9458133 C28.0203857,65.072998 30.1009521,65.8249512 32.0875244,64.4916992 C33.4119059,63.6028646 35.2380778,62.5779622 37.56604,61.4169922 Z" id="路径-281" fill="#BABAC4"></path>
                <path d="M10.8583429,58.8056435 C11.0218225,59.1442208 11.1302501,59.6419256 11.1836255,60.2987581 C11.3302027,62.1025211 12.1569824,62.237915 14.8886719,63.253418 C17.6203613,64.2689209 23.6931152,64.3640137 27.1716309,65.146553 C30.6501465,65.9290924 30.9601775,65.146553 31.7387695,64.734375 C32.3041695,64.4350585 35.3738955,62.2313758 37.5502695,61.0470038 C41.2355835,60.3518516 43.9096747,61.7546533 44.9437256,62.2611879 C44.9507188,62.2627115 44.9580047,62.2642824 44.9655801,62.2659 C46.2759815,62.8938651 47.8891524,63.7025974 49.9042969,64.734375 C54.466888,67.0704753 59.2513119,68.636556 64.2575684,69.4326172 C65.3158366,68.4651693 66.3688151,67.9814453 67.4165039,67.9814453 C68.9880371,67.9814453 75.6203613,67.2412109 79.9677734,66.598877 C82.3647167,66.2447265 84.3389663,65.5877215 85.8905221,64.6278622 C85.9289004,64.7296422 85.9651462,64.8362022 85.999998,64.9458133 C85.999998,66.3668662 85.4825833,67.5196126 84.4477539,68.4040527 C82.8955078,69.7307129 79.2388755,72.0018224 73.020874,72 C66.8028726,71.9983106 65.3252138,71.223877 56.9359131,71.223877 C51.3430459,71.223877 44.4383015,71.4825846 36.2216797,72 C34.5444841,72 33.1647379,72.0003267 32.0824413,72.0009801 L31.0197506,72.0018224 C26.0020238,72.0064749 21.7777032,71.0034585 17.9709473,69.6116943 C10.3109131,66.8111572 9.99984367,61.9359131 9.99984367,61.204834 C9.99984367,60.6457735 10.4652853,59.5686817 10.7922089,58.930969 Z" id="形状结合" fill="#CDCCD2"></path>
                <path d="M27.8664551,70.6179199 C39.3939506,70.9191895 44.9503162,70.3635254 48.7028809,70.0129395 C52.4554456,69.6623535 58.3693848,69.6838379 62.2180176,70.1518555 C66.0666504,70.619873 74.6057129,71.2368164 77.3149414,70.6279297 C79.7195031,70.0875154 83.7655015,68.0935595 85.7380153,66.5615574 C85.4869482,67.2695763 85.0570326,67.8833191 84.4477539,68.4040527 C82.8955078,69.7307129 79.2388755,72.0018224 73.020874,72 C66.8028726,71.9983106 65.3252138,71.223877 56.9359131,71.223877 C51.3430459,71.223877 44.4383015,71.4825846 36.2216797,72 L33.381125,72.0003969 C32.9088983,72.0005481 32.4760037,72.0007425 32.0824413,72.0009801 L31.0197506,72.0018224 C26.0020238,72.0064749 21.7777032,71.0034585 17.9709473,69.6116943 C14.0329001,68.1719296 12.0371988,66.1838156 11.0275451,64.4923633 C15.2212305,68.3925246 20.833894,70.4341249 27.8664551,70.6179199 Z" id="形状结合" fill="#A6A5B0"></path>
                <path d="M44.9437256,62.2611879 L44.9640169,62.265566 L46.8998386,63.2135568 C47.7885099,63.6563895 48.7843204,64.1609339 49.9042969,64.734375 C50.6252229,65.1034976 51.3516874,65.4533955 52.0836903,65.7840687 L49.3887749,65.008334 C48.8070004,64.8324839 48.3864967,64.6958415 48.1271494,64.5983052 L47.2390607,64.2618131 C45.4667497,63.6156441 41.4223686,62.225018 39.972229,62.0338745 C38.2167969,61.8024902 35.9551392,63.142395 34.340332,63.9202271 C33.4224229,64.3623722 32.2647211,64.8068128 30.8672265,65.253549 C31.1316834,65.1356846 31.3251435,64.9896947 31.5287608,64.8587313 L31.9797981,64.5905768 C32.9074801,64.0056342 35.585079,62.1174532 37.543444,61.0507199 C41.2329745,60.3504829 43.9091703,61.7544062 44.9437256,62.2611879 Z" id="路径" fill="#EDECEC"></path>
                <path d="M14.675293,63.3878174 C17.2462948,64.3435848 22.5251465,64.6118164 26.2450661,65.0999149 L26.8846436,65.2312012 C30.218221,65.9811347 31.1646806,65.2829 31.8794627,64.8615388 L31.9746094,64.8082275 C32.5392484,64.5093139 33.789978,63.4122314 35.5922241,62.5108643 C37.3944702,61.6094971 37.3164368,61.6303224 38.24823,61.5046997 C39.1800231,61.379077 40.7643809,61.6017953 41.4519931,61.7208608 L41.9533507,61.8199917 L42.4783722,61.9501782 L42.7662333,62.0335871 L43.0936906,62.1382162 L43.5284221,62.2940035 L43.6517554,62.3417279 C43.7884941,62.3953402 43.9191489,62.4494665 44.0425351,62.5026465 L44.6017295,62.7577823 C44.7669167,62.8369266 44.9105683,62.9085699 45.0317106,62.967912 L45.052002,62.97229 L46.7740479,63.6674805 C47.6627192,64.1103132 48.556293,64.4116663 49.6762695,64.9851074 C50.3617137,65.3360629 50.9750341,65.6807889 51.8493652,65.9018555 L49.9726884,65.7845093 C48.7770025,65.80349 47.5599526,65.8040912 46.1469709,65.7906995 L26.6573524,65.4581614 C21.2543031,65.3517305 17.2444033,65.1923274 15.2504187,64.7186743 C13.3244109,64.2611685 12.0016344,63.036745 11.2820891,61.0454039 L11.1462232,60.6369101 L11.2199105,60.6216335 C11.442407,62.1231685 12.116377,62.4365428 14.675293,63.3878174 Z" id="路径" fill="#BDBBC2"></path>
                <path d="M21.1656494,66.799292 C24.6702881,66.9901741 33.4236547,67.2255153 40.9891606,66.6084099 C41.4295259,66.57249 41.8156312,66.9003578 41.8515511,67.3407231 C41.8874709,67.7810884 41.6182913,68.1754401 41.1192378,68.2031136 C34.2441406,68.5843506 28.2359816,68.7524086 22.40979,68.2031136 C16.5835985,67.6538185 16.2754222,67.2348033 16.3498647,66.799292 C16.4150019,66.4182196 16.6934041,66.4177486 17.0653076,66.4056396 C17.462443,66.5408198 18.8292236,66.6720372 21.1656494,66.799292 Z" id="路径-280" fill="#93939E" fill-rule="nonzero"></path>
                <path d="M77.0195312,60.1484375 C79.5942917,60.3340501 81.7088265,60.5823651 83.3631355,60.8933825 C83.798682,61.2168432 83.6156688,61.7045069 84.143426,62.2484237 L84.1875,62.237915 C83.3109407,62.5648548 79.3235674,62.9200928 72.3782812,63.7736557 L69.8438056,64.0836028 C62.23405,64.9467032 54.2258735,65.5027018 54.3895264,65.0201416 C54.560791,64.5151367 56.4549561,64.1437988 58.3776855,63.6750488 L59.9065644,63.2942394 C63.4978557,62.3790019 64.7516748,61.8996582 65.59988,61.6646582 L66.8318968,61.3450176 C69.1058229,60.7751838 73.2391912,59.8759155 77.0195312,60.1484375 Z" id="路径" fill="#CDCDD4"></path>
                <path d="M76.3081055,63.253418 C76.2941276,63.2710301 76.2603086,63.291909 76.2083147,63.3156381 C75.051703,63.4505472 73.7747864,63.6020278 72.3782812,63.7736557 L69.8438056,64.0836028 L69.1297038,64.1634802 C61.7462056,64.9779455 54.3071595,65.4470945 54.4656982,64.9796143 C54.6369629,64.4746094 56.4549561,64.1437988 58.3776855,63.6750488 L59.9065644,63.2942394 C60.4230201,63.1626211 60.8911353,63.0400174 61.3166554,62.9258586 C63.4047864,62.6070647 65.3728102,62.3907726 66.2958092,62.3255984 C67.8909349,62.2129644 76.5522461,62.9458008 76.3081055,63.253418 Z" id="形状结合" fill="#E8E7EB"></path>
                <path d="M76.1883545,63.8084717 C75.7737469,64.0930039 70.6552111,65.0706265 68.524292,65.8481445 C66.3933729,66.6256626 64.3663254,68.9952936 64.3867502,67.9100614 C64.407175,66.8248292 64.3235542,66.9720299 61.7889486,66.8347088 C59.254343,66.6973878 52.6786807,66.755612 54.2355548,66.0907577 C55.7924289,65.4259034 61.7774658,65.4003906 66.7700195,64.8395996 C71.7625732,64.2788086 76.6029621,63.5239394 76.1883545,63.8084717 Z" id="路径-288" fill="#DEDCE2"></path>
                <path d="M85.8905221,64.6278622 C85.9289004,64.7296422 85.9651462,64.8362022 85.999998,64.9458133 C85.999998,65.0398129 85.9977341,65.1326385 85.9932061,65.2242902 C85.2690341,65.8564849 84.0972753,66.3682687 82.4787598,66.7595215 C78.6273193,67.6905518 72.0841064,68.4560547 69.2890625,68.5958252 C66.4940186,68.7355957 66.1436768,68.9432373 65.7296143,69.2496338 C65.3155518,69.5560303 64.7885742,70.2883301 64.5019531,70.2653809 C64.215332,70.2424316 61.4033203,69.6837158 58.8087158,68.8157959 C57.0789795,68.2371826 54.1741943,67.0558501 50.0943604,65.2717984 L50.0943604,65.2717984 L50.0938437,64.8288622 L50.6265495,65.0968339 C54.9711261,67.2331928 59.514799,68.6784539 64.2575684,69.4326172 C65.3158366,68.4651693 66.3688151,67.9814453 67.4165039,67.9814453 C68.9880371,67.9814453 75.6203613,67.2412109 79.9677734,66.598877 C82.3647167,66.2447265 84.3389663,65.5877215 85.8905221,64.6278622 Z" id="形状结合" fill="#E0DFE4"></path>
            </g>
        </g>
    </g>
</svg>