<?xml version="1.0" encoding="UTF-8"?>
<svg width="96px" height="96px" viewBox="0 0 96 96" version="1.1" xmlns="http://www.w3.org/2000/svg" xmlns:xlink="http://www.w3.org/1999/xlink">
    <title>Lebron Soldier Xill ByYou</title>
    <defs>
        <rect id="path-1" x="0" y="0" width="96" height="96"></rect>
    </defs>
    <g id="icon" stroke="none" stroke-width="1" fill="none" fill-rule="evenodd">
        <g id="画板" transform="translate(-1086.000000, -54.000000)">
            <g id="Lebron-Soldier-Xill-ByYou" transform="translate(1086.000000, 54.000000)">
                <g id="#" opacity="0">
                    <use fill="#FFFFFF" fill-rule="evenodd" xlink:href="#path-1"></use>
                    <rect stroke-opacity="0.5" stroke="#DDDDDD" stroke-width="6" stroke-linejoin="square" x="3" y="3" width="90" height="90"></rect>
                    <rect stroke-opacity="0.507785184" stroke="#DDDDDD" stroke-width="12" stroke-linejoin="square" x="6" y="6" width="84" height="84"></rect>
                    <rect stroke-opacity="0.319406703" stroke="#979797" stroke-width="10" stroke-linejoin="square" x="5" y="5" width="86" height="86"></rect>
                </g>
                <path d="M53.8084717,18.8873901 L54.0350505,18.9432844 C54.7181703,19.1581238 55.6892668,19.8892565 55.373291,22.0617676 L55.2614121,22.8879495 C55.1184022,24.0420769 55.0870306,24.8130493 55.1672974,25.2008667 C55.249939,23.699646 55.4837036,22.9490356 55.8685913,22.9490356 C56.4459229,22.9490356 57.0098267,23.0050659 57.1660767,23.1735229 L58.0713677,24.3346929 C58.7539639,25.194938 59.7202978,26.3529159 60.6225905,27.17616 L62.3177314,28.640706 C63.5340292,29.702274 64.8377531,30.889409 65.6723737,31.8331525 L66.3832907,32.6802582 L67.1236417,33.5280063 C68.3687339,34.9268684 69.9419743,36.5845014 70.3330078,36.8876953 C70.6891276,37.1638184 70.6197103,37.7023926 70.1247559,38.503418 C71.607666,38.9641927 72.7515055,38.8670654 73.5562744,38.2120361 C74.7634277,37.2294922 76.7242432,35.1192627 77.9217529,34.5065308 C78.7200928,34.0980428 80.2300618,33.5213216 82.4516602,32.7763672 C82.4906413,31.3586426 82.7564697,30.5548096 83.2491455,30.3648682 C83.9881592,30.0799561 85.3184814,30.359375 85.3184814,31.3997803 C85.3184814,32.4401855 83.8499756,34.3881836 83.5495605,35.6379395 C83.2491455,36.8876953 83.2491455,39.0274025 83.2491455,39.3139648 L83.220494,39.4666405 L82.640278,41.6956049 C82.1880178,43.5178124 81.6821426,45.9407421 81.8867188,47.3225098 C82.2349854,49.6748047 83.2491455,53.3273926 83.2491455,55.0560303 L83.2491455,58.7437744 L58.2672119,63.5765381 L32.8793945,65.1186523 L21.557251,64.8325195 L12.6416016,62.5053711 L10.9632568,61.0390625 L10.4970703,60.3513794 C10.8098958,58.4470011 12.1959635,57.3079834 13.7229004,56.9981689 L15.6808498,56.5921883 L17.6549776,56.1625619 C21.2798029,55.3541734 26.4033295,54.1015625 30.4101563,52.6672363 C34.3849284,51.2443848 38.8465169,49.2627767 43.7949219,46.7224121 C43.6117757,46.2641602 43.6805623,45.931071 44.0012817,45.7231445 L44.6635818,45.2771759 C44.8527222,45.1516571 44.9983826,45.0651245 45.0650024,45.0651245 C45.1538289,45.0651245 45.287089,45.0928752 45.4647827,45.1483765 C45.7174276,44.5628866 45.9354858,44.2701416 46.1189575,44.2701416 L46.9118652,44.2701416 L48.9029541,43.1213379 L48.4922737,42.8092041 L49.1955566,41.6361084 L49.6409912,40.5095215 C49.226766,40.2943115 48.9807536,40.0919393 48.9029541,39.9024048 C48.8251546,39.7128703 49.4995931,38.4373169 50.9262695,36.0757446 C51.0871582,35.7838745 51.2904867,35.6379395 51.5362549,35.6379395 C51.7820231,35.6379395 52.1355794,35.736145 52.5969238,35.9325562 L53.8084717,34.1873169 L54.4718628,34.5065308 L54.9209595,34.0945435 L54.7581177,31.0922565 L54.6142971,28.8407303 C54.5645327,28.1592883 54.5219617,27.7043561 54.4865842,27.475934 L54.4718628,27.3919067 C54.3319092,26.7043457 52.7190552,22.4473877 52.510498,21.4741821 C52.3019409,20.5009766 53.1450806,18.7687378 53.8084717,18.8873901 Z M83.7897949,30.6700439 C83.2268066,30.6700439 83.0280151,33.2862549 83.0280151,33.9187012 C83.0280151,34.5511475 82.5146484,35.6654053 82.3140869,36.8959351 C82.1803792,37.7162882 82.0853068,38.5654297 82.0288696,39.4433594 C82.2115411,39.3810221 82.3412408,39.3498535 82.4179687,39.3498535 C82.4691207,39.3498535 82.5247185,39.3637062 82.584762,39.3914117 L82.6781616,39.4433594 L82.6781616,38.4346313 C82.6781616,37.920166 83.0280151,35.4337158 83.3217773,34.8219604 C83.6155396,34.2102051 84.2062378,33.1594849 84.5480957,32.5782471 C84.8899536,31.9970093 84.3527832,30.6700439 83.7897949,30.6700439 Z M54.6099243,19.9876099 C54.4628296,19.4924316 53.5728149,19.526123 53.2876587,19.9876099 C53.0244375,20.4135977 53.3378621,22.4199526 53.6095696,23.2382278 L53.8685893,23.9104054 C54.0736836,24.4728651 54.3698268,25.3643429 54.757019,26.5848389 L54.5495681,24.6437817 C54.5135523,24.2557242 54.4955444,23.9936043 54.4955444,23.8574219 L54.5095996,23.5275425 C54.5619133,22.6218324 54.7360055,20.4120483 54.6099243,19.9876099 Z" id="形状" fill="#D4D0E8"></path>
                <path d="M53.8084717,34.1873169 L54.4718628,34.5065308 L54.6414346,34.3530367 C54.7096367,40.3155491 53.516984,44.6866397 51.0634766,47.4663086 C46.3795078,52.7729492 32.9799805,57.9672852 26.230957,59.175293 C22.2609432,59.8858858 17.6551607,59.7803129 12.4136093,58.8585744 L11.1849552,58.6286762 C11.8024072,57.7483077 12.7330547,57.199008 13.7229004,56.9981689 L15.6808498,56.5921883 L17.6549776,56.1625619 L19.5801737,55.7225644 C22.9566257,54.9315888 27.071134,53.8625081 30.4101563,52.6672363 C34.3849284,51.2443848 38.8465169,49.2627767 43.7949219,46.7224121 C43.6117757,46.2641602 43.6805623,45.931071 44.0012817,45.7231445 L44.6635818,45.2771759 C44.8527222,45.1516571 44.9983826,45.0651245 45.0650024,45.0651245 C45.1538289,45.0651245 45.287089,45.0928752 45.4647827,45.1483765 C45.7174276,44.5628866 45.9354858,44.2701416 46.1189575,44.2701416 L46.9118652,44.2701416 L48.9029541,43.1213379 L48.4922737,42.8092041 L49.1955566,41.6361084 L49.6409912,40.5095215 C49.226766,40.2943115 48.9807536,40.0919393 48.9029541,39.9024048 C48.8251546,39.7128703 49.4995931,38.4373169 50.9262695,36.0757446 C51.0871582,35.7838745 51.2904867,35.6379395 51.5362549,35.6379395 C51.7820231,35.6379395 52.1355794,35.736145 52.5969238,35.9325562 L53.8084717,34.1873169 Z" id="路径" fill="#E1DCF5"></path>
                <path d="M30.115924,57.9214559 C29.8769641,54.7451403 29.9079702,52.9831543 30.2089423,52.635498 C30.5099144,52.2878418 30.7702433,52.1061401 30.9899292,52.0903931 L31.0820312,57.9214559 L30.115924,57.9214559 Z" id="路径-316" fill="#B7AEC3"></path>
                <path d="M53.8084717,18.8873901 L54.0350505,18.9432844 C54.7181703,19.1581238 55.6892668,19.8892565 55.373291,22.0617676 L55.2614121,22.8879495 C55.1184022,24.0420769 55.0870306,24.8130493 55.1672974,25.2008667 C55.249939,23.699646 55.4837036,22.9490356 55.8685913,22.9490356 C56.4459229,22.9490356 57.0098267,23.0050659 57.1660767,23.1735229 L58.0713677,24.3346929 C58.7539639,25.194938 59.7202978,26.3529159 60.6225905,27.17616 L62.3177314,28.640706 C63.5340292,29.702274 64.8377531,30.889409 65.6723737,31.8331525 L66.3832907,32.6802582 L67.1236417,33.5280063 L67.897992,34.3854704 C68.9507418,35.5357441 70.020181,36.6451402 70.3330078,36.8876953 C70.6891276,37.1638184 70.6197103,37.7023926 70.1247559,38.503418 C70.70952,38.6851178 70.7786585,46.7963141 72.958252,45.7352324 C74.144043,45.157959 76.4155273,43.8816528 79.3276367,36.8876953 C79.6067199,36.2174267 80.8643188,34.3854704 82.0288696,34.3854704 C82.7586794,34.3854704 81.6542969,37.5278564 81.6542969,40.5629883 C81.6542969,42.3002581 80.9174946,44.14509 80.9492187,44.3360291 L71.0710449,55.5992432 L58.9158282,63.4495964 L58.2672119,63.5765381 L32.8793945,65.1186523 L21.557251,64.8325195 L12.6880765,62.5180014 C11.9870792,61.9165034 11.4243298,61.2560433 10.9998282,60.5366211 C16.0237057,62.0175781 22.4623617,62.9046224 30.3157959,63.1977539 C42.0959473,63.6374512 46.8862018,61.3805647 48.3140869,59.3886964 C49.6798901,57.4834312 55.8685913,51.7162839 54.5175115,46.9620268 L54.3787382,45.7352324 C54.1289932,43.3357366 53.9941871,39.5136259 53.9743199,34.2689003 L54.4718628,34.5065308 L54.9209595,34.0945435 L54.7581177,31.0922565 L54.6142971,28.8407303 L54.5243596,27.7798595 C54.5109685,27.6533832 54.4983767,27.5520747 54.4865842,27.475934 L54.4718628,27.3919067 C54.3319092,26.7043457 52.7190552,22.4473877 52.510498,21.4741821 C52.3019409,20.5009766 53.1450806,18.7687378 53.8084717,18.8873901 Z M53.2876587,19.9876099 C53.0244375,20.4135977 53.3378621,22.4199526 53.6095696,23.2382278 L53.8685893,23.9104054 L54.2445174,25.0008585 C54.3925891,25.4465974 54.5634229,25.9745909 54.757019,26.5848389 L54.5495681,24.6437817 L54.4977054,23.9542438 C54.4962647,23.9169323 54.4955444,23.8846584 54.4955444,23.8574219 L54.5095996,23.5275425 C54.5619133,22.6218324 54.7360055,20.4120483 54.6099243,19.9876099 C54.4628296,19.4924316 53.5728149,19.526123 53.2876587,19.9876099 Z" id="形状" fill="#C6C2DB"></path>
                <path d="M61.3601074,32.0300293 C63.8563184,32.7032715 65.136,33.7748762 63.8784187,34.1448094 L63.7079106,34.1873169 C62.175293,34.5097656 59.1824493,36.185026 58.0205078,37.5449219 C57.2472212,38.4499495 55.9012798,37.9033549 53.9826836,35.905138 L53.9845008,35.887513 C57.1641572,32.850733 59.6266276,31.5625 61.3601074,32.0300293 Z" id="路径" fill="#CEC9E4"></path>
                <path d="M53.8084717,18.8873901 L54.0350505,18.9432844 C54.7181703,19.1581238 55.6892668,19.8892565 55.373291,22.0617676 L55.2614121,22.8879495 C55.1184022,24.0420769 55.0870306,24.8130493 55.1672974,25.2008667 C55.249939,23.699646 55.4837036,22.9490356 55.8685913,22.9490356 C56.4459229,22.9490356 57.0098267,23.0050659 57.1660767,23.1735229 L58.0713677,24.3346929 C58.7539639,25.194938 59.7202978,26.3529159 60.6225905,27.17616 L61.3899904,27.8399149 L60.4829992,27.4945879 C58.6118487,26.8057073 57.3516805,26.5024576 56.7024944,26.5848389 C55.863434,26.6913151 55.1521587,27.2578378 54.5686684,28.2844071 L54.5243596,27.7798595 L54.4865842,27.475934 L54.4865842,27.475934 L54.4718628,27.3919067 C54.3319092,26.7043457 52.7190552,22.4473877 52.510498,21.4741821 C52.3019409,20.5009766 53.1450806,18.7687378 53.8084717,18.8873901 Z M53.2876587,19.9876099 C53.0244375,20.4135977 53.3378621,22.4199526 53.6095696,23.2382278 L53.8685893,23.9104054 L54.2445174,25.0008585 L54.757019,26.5848389 L54.757019,26.5848389 L54.5495681,24.6437817 L54.4977054,23.9542438 L54.4955444,23.8574219 L54.4955444,23.8574219 L54.5095996,23.5275425 C54.5619133,22.6218324 54.7360055,20.4120483 54.6099243,19.9876099 C54.4628296,19.4924316 53.5728149,19.526123 53.2876587,19.9876099 Z" id="形状" fill="#D6D3E7"></path>
                <path d="M49.1159058,43.0167847 L48.6542969,43.5356421 L48.7962036,43.7932129 C51.2177938,46.0361937 52.8062337,47.5961709 53.5615234,48.4731445 C54.694458,49.788605 57.2230225,54.3550415 58.0507813,55.762207 C58.6026204,56.7003174 59.1258952,58.8318278 59.6206055,62.1567383 L72.6481934,47.6923828 C71.1929525,44.663269 70.1310221,42.9407756 69.4624023,42.5249023 C69.0500409,42.2684186 67.8799908,42.6820424 66.3200684,41.3759766 C65.0440557,40.307618 63.8970557,38.8333513 62.552002,38.005127 C61.5421166,37.3832844 59.9543457,36.9453125 59.0473633,36.769043 C57.1788418,36.405901 55.8206194,36.0248754 54.9726962,35.6259663 L49.1159058,43.0167847 Z" id="路径-314" fill="#B6B0D0"></path>
                <path d="M49.1159058,43.0167847 L48.6542969,43.5356421 L48.7962036,43.7932129 C51.3379924,45.6958822 53.1551107,47.1467285 54.2475586,48.145752 C55.8862305,49.6442871 58.3823242,52.0405273 60.1320801,54.3457031 C61.298584,55.882487 62.1060384,57.4897461 62.5544434,59.1674805 L73.5925293,47.6298828 C72.6456774,46.8175554 71.9907295,46.2382911 71.6276855,45.8920898 C70.0255497,44.3642821 69.3913262,43.1862843 68.892334,42.8227539 C67.5533668,41.8472771 65.6685445,41.130543 63.5754395,39.9846191 C61.8172697,39.0220642 59.800675,37.5699584 58.9316406,37.2407227 C57.1459488,36.564209 55.8263006,36.0259806 54.9726962,35.6260376 L49.1159058,43.0167847 Z" id="路径-314" fill="#9B92C1"></path>
                <path d="M23.5974731,61.8031616 C23.5974731,61.0901489 25.822998,60.2980957 27.9450684,59.2265625 C30.0671387,58.1550293 33.8952637,55.9929199 34.4150391,55.9929199 C34.9348145,55.9929199 42.848877,54.3916016 44.1875,53.9147949 C45.526123,53.4379883 51.7312012,51.0847168 52.6123047,51.878418 C53.4934082,52.6721191 50.6530044,55.1557617 48.5281623,57.6081543 C46.4033203,60.0605469 46.1428223,60.9318848 44.7648926,61.3005371 C43.3869629,61.6691895 36.6745605,62.7580566 32.598877,62.7580566 C28.5231934,62.7580566 23.5974731,62.5161743 23.5974731,61.8031616 Z" id="路径-292" fill="#89879F"></path>
                <path d="M23.5615845,61.3456421 C23.5615845,60.6326294 25.7871094,59.8405762 27.9091797,58.769043 C30.03125,57.6975098 33.859375,55.5354004 34.3791504,55.5354004 C34.8989258,55.5354004 42.8129883,53.934082 44.1516113,53.4572754 C45.4902344,52.9804688 51.6953125,50.6271973 52.576416,51.4208984 C53.4575195,52.2145996 50.6171157,54.6982422 48.4922737,57.1506348 C46.3674316,59.6030273 46.1069336,60.4743652 44.7290039,60.8430176 C43.3510742,61.2116699 36.6386719,62.3005371 32.5629883,62.3005371 C28.4873047,62.3005371 23.5615845,62.0586548 23.5615845,61.3456421 Z" id="路径-292" fill="#CAC9D8"></path>
                <path d="M51.484,52.254 L50.8083957,52.4035241 C50.2120963,52.5395471 49.4253991,52.7348912 48.5822771,52.9934952 L47.472361,53.3484869 L46.2971544,53.7498163 L44.4871531,54.3993007 C43.2011961,54.8573481 35.1350547,56.5354004 34.3791504,56.5354004 L32.5316341,57.4715665 L28.6255662,59.5268107 L25.648,60.99 L26.0052582,61.0349903 L26.6195209,61.0941411 C28.2052648,61.2304063 30.3515154,61.3005371 32.5629883,61.3005371 C35.8701246,61.3005371 42.4843203,60.4083914 44.470553,59.8769932 C44.8138454,59.7851485 45.0307512,59.6638572 45.2813056,59.4295776 L45.4765557,59.2181517 C45.9143068,58.7170396 46.8561111,57.5481205 47.4376914,56.8494625 L48.0749064,56.1110657 L50.1875153,53.8219677 C50.6574421,53.3075618 50.9967427,52.9134122 51.2544492,52.5765348 L51.4006312,52.3789734 L51.484,52.254 Z" id="路径" fill="#DFDFDF" fill-rule="nonzero"></path>
                <path d="M46.0681152,64.2979736 C50.9274902,58.108195 53.7001139,54.8481852 54.3859863,54.5179443 C55.4147949,54.022583 56.2542725,54.1287842 56.7591553,54.5653076 C57.2640381,55.0018311 57.4807129,56.1185303 56.7019043,57.2052002 C56.1826986,57.9296468 54.151123,60.363973 50.6071777,64.5081787 L46.0681152,64.2979736 Z" id="路径-293" fill="#8E8CAE"></path>
                <path d="M46.1293945,64.4536133 C50.9887695,58.2638346 53.7613932,55.0038249 54.4472656,54.673584 C55.4760742,54.1782227 56.074707,54.2370605 56.5795898,54.673584 C57.0844727,55.1101074 57.3583984,56.0639648 56.5795898,57.1506348 C56.0603841,57.8750814 54.0288086,60.3094076 50.4848633,64.4536133 L46.1293945,64.4536133 Z" id="路径-293" fill="#D8D9DD"></path>
                <path d="M57.3808594,53.8095703 L69.4204102,39.0817871 L70.6315918,39.9880371 L57.9863281,53.8095703 C57.3519694,54.5377604 56.9659831,54.8393962 56.8283691,54.7144775 C56.6907552,54.5895589 56.8749186,54.2879232 57.3808594,53.8095703 Z" id="路径-294" fill="#8E8CAE"></path>
                <path d="M55.8685913,22.9490356 C56.4459229,22.9490356 57.0098267,23.0050659 57.1660767,23.1735229 L58.0713677,24.3346929 C58.7539639,25.194938 59.7202978,26.3529159 60.6225905,27.17616 L62.3177314,28.640706 C63.5340292,29.702274 64.8377531,30.889409 65.6723737,31.8331525 L66.3832907,32.6802582 L67.1236417,33.5280063 C68.3687339,34.9268684 69.9419743,36.5845014 70.3330078,36.8876953 C70.6653863,37.1454102 70.6270747,37.6317491 70.2180729,38.3467122 L70.1247559,38.503418 L57.3808594,53.8095703 L56.8336182,53.5960693 L69.041626,37.7979736 L69.041626,37.5588379 C66.5620524,35.2243652 64.8297526,33.5128581 63.8447266,32.4243164 C62.3671875,30.7915039 60.4891357,28.7352295 59.3806152,27.8858643 C58.2720947,27.036499 57.3388672,25.7297363 56.8336182,24.9764404 C56.5098032,24.4936518 56.0106044,24.0952222 55.3360217,23.7811517 C55.4564057,23.2265512 55.6345619,22.9490356 55.8685913,22.9490356 Z" id="形状结合" fill="#B6B6CD"></path>
                <path d="M55.8685913,22.9490356 C56.4459229,22.9490356 57.0098267,23.0050659 57.1660767,23.1735229 L58.0713677,24.3346929 C58.7539639,25.194938 59.7202978,26.3529159 60.6225905,27.17616 L61.3899904,27.8399149 L60.4829992,27.4945879 C59.5797507,27.162049 58.8188746,26.9193706 58.2003708,26.7665527 C57.6212191,26.1184096 57.1457498,25.4418099 56.8336182,24.9764404 C56.5099946,24.4939372 56.0111945,24.0956933 55.337218,23.7817088 C55.37309,23.6143948 55.4143553,23.4722646 55.460922,23.3553461 L55.5347367,23.1988805 L55.5824234,23.1233573 L55.6469784,23.0475792 L55.6469784,23.0475792 L55.7146497,22.9938956 L55.7146497,22.9938956 L55.775561,22.9646587 L55.775561,22.9646587 C55.7945478,22.9562558 55.8308427,22.9490356 55.8685913,22.9490356 Z" id="路径" fill="#C6C6DB"></path>
                <path d="M82.455543,32.6765964 L83.08331,32.9682592 C83.0450622,33.3781789 83.0280151,33.7334974 83.0280151,33.9187012 C83.0280151,34.0909609 82.9899307,34.2989641 82.9304554,34.5353247 L83.098999,34.5251465 C82.035848,34.5843913 81.2028402,34.759318 80.5999756,35.0499268 C79.6956787,35.4858398 76.9382324,37.1430054 75.9974365,38.2234192 C75.0566406,39.303833 73.085083,40.0715332 72.3143311,40.236084 C71.8004964,40.3457845 71.3860677,40.3802083 71.0710449,40.3393555 L58.0215454,54.1920776 L57.706543,54.0167236 L70.3287354,40.236084 L69.0814209,39.7277832 L70.1981238,38.3812616 C70.1748056,38.4212786 70.1503497,38.4619974 70.1247559,38.503418 C71.607666,38.9641927 72.7515055,38.8670654 73.5562744,38.2120361 C74.7634277,37.2294922 76.7242432,35.1192627 77.9217529,34.5065308 C78.7200928,34.0980428 80.2300618,33.5213216 82.4516602,32.7763672 L82.455543,32.6765964 Z" id="形状结合" fill="#A3A3C1"></path>
                <path d="M46.4938611,45.3269003 C46.4938611,45.3941611 46.6311495,45.4670777 46.9057263,45.5456503 L46.9057263,45.8814047 L45.8165539,46.486019 L45.439845,46.0660361 L45.439845,46.6615561 C45.0487317,46.9260011 44.8852999,47.1543132 44.9495495,47.3464926 C45.0459241,47.6347616 45.3330334,47.659725 45.8165539,47.5031088 L46.2082665,47.3682236 C46.5108924,47.25917 46.7418731,47.1682089 46.8101453,47.1682089 C46.9057263,47.1682089 47.5476941,48.7573813 47.4370984,48.8371542 L47.1047363,49.0024414 C46.4310497,49.3194556 44.9667963,49.9688681 44.8035535,49.9688681 C44.5957898,49.9688681 44.3296155,49.1627768 44.141322,48.7139242 C43.996145,48.3678524 43.8023486,47.199205 43.7212077,46.5141835 C43.7541246,46.3537627 43.8509393,46.2211445 44.0087537,46.1188315 L44.6710538,45.6728628 C44.8601941,45.547344 45.0058545,45.4608114 45.0724744,45.4608114 C45.1613009,45.4608114 45.2945609,45.4885621 45.4722546,45.5440634 C45.7248995,44.9585735 45.9429578,44.6658285 46.1264294,44.6658285 L46.8748956,44.6632763 L46.9057263,44.9768027 C46.6311495,45.1429404 46.4938611,45.2596396 46.4938611,45.3269003 Z" id="路径" fill="#5A3485"></path>
                <path d="M46.8982544,44.5811157 C46.6236776,44.7472534 46.4863892,44.8639526 46.4863892,44.9312134 C46.4863892,44.9984741 46.6236776,45.0713908 46.8982544,45.1499634 L46.8982544,45.4857178 L45.809082,46.090332 L45.432373,45.6703491 L45.432373,46.2658691 C45.0412598,46.5303141 44.877828,46.7586263 44.9420776,46.9508057 C45.0384521,47.2390747 45.3255615,47.2640381 45.809082,47.1074219 L46.2007946,46.9725367 C46.5034205,46.863483 46.7344012,46.772522 46.8026733,46.772522 C46.8982544,46.772522 47.5402222,48.3616943 47.4296265,48.4414673 L47.0972644,48.6067545 C46.4235778,48.9237686 44.9593244,49.5731812 44.7960815,49.5731812 C44.5883179,49.5731812 44.3221436,48.7670898 44.1338501,48.3182373 C43.9886731,47.9721655 43.7948767,46.8035181 43.7137358,46.1184965 C43.7466527,45.9580758 43.8434674,45.8254575 44.0012817,45.7231445 L44.6635818,45.2771759 C44.8527222,45.1516571 44.9983826,45.0651245 45.0650024,45.0651245 C45.1538289,45.0651245 45.287089,45.0928752 45.4647827,45.1483765 C45.7174276,44.5628866 45.9354858,44.2701416 46.1189575,44.2701416 L46.8674237,44.2675894 L46.8982544,44.5811157 L46.8982544,44.5811157 Z" id="路径" fill="#825EAB"></path>
                <path d="M73.6447754,47.3214111 C69.1529948,43.9442952 65.7563883,41.4626058 63.4549561,39.8763428 C61.1535238,38.2900798 58.3500163,36.4711914 55.0444336,34.4196777 L54.6705322,34.6556396 L53.8084717,34.1873169 C51.3184814,37.7348414 49.8890788,39.9238571 49.5202637,40.754364 C49.1514486,41.5848709 48.8087852,42.2698176 48.4922737,42.8092041 C52.2222577,45.4355876 54.2816772,46.8717855 54.6705322,47.1177979 C55.2538147,47.4868164 58.3193359,49.6864014 58.9951172,49.949707 C59.445638,50.1252441 59.8094076,50.1252441 60.0864258,49.949707 L66.088623,54.4847412 L73.6447754,47.3214111 Z" id="路径-305" fill="#C18F08"></path>
                <polygon id="路径" fill="#CE9C17" fill-rule="nonzero" points="73.4526454 48.6919748 63.0618766 40.9244452 58.7988814 47.3976085 67.6233219 54.6013805"></polygon>
                <polygon id="路径" fill="#AA7F0D" fill-rule="nonzero" points="63.262 42.072 72.238 48.782 67.564 53.52 59.864 47.234"></polygon>
                <path d="M56.2595215,63.1977539 C67.1249186,52.758138 73.0847982,47.0556641 74.1391602,46.090332 C75.7207031,44.642334 80.4962769,40.236084 81.2625732,39.8397217 C82.0288696,39.4433594 82.6781616,39.2142334 82.6781616,39.4433594 C82.6781616,39.6724854 82.5597534,40.6150864 82.1080933,42.0001244 C81.6564331,43.3851624 81.1047363,45.4891357 81.2625732,47.2619629 C81.4204102,49.03479 82.2329712,51.8712158 82.4555664,53.3754883 C82.6039632,54.3783366 82.6781616,56.2456868 82.6781616,58.9775391 L66.411499,61.4660645 L56.2595215,63.1977539 Z" id="路径-297" fill="#422268"></path>
                <path d="M75.2438965,50.2676392 C75.3864914,49.937538 75.5269165,51.4147339 76.3865967,51.4147339 C77.2462769,51.4147339 80.413269,44.5548096 80.5708618,44.5548096 C80.7284546,44.5548096 78.5237427,50.8789673 78.142334,51.6583252 C77.7609253,52.4376831 76.7963257,54.2504883 75.8457642,52.9674683 C74.8952026,51.6844482 75.1013016,50.5977404 75.2438965,50.2676392 Z" id="路径-298" fill="#D49D12"></path>
                <path d="M36.1659515,58.2373047 C32.1884766,58.7028809 30.9295654,59.1737552 30.1782227,59.3886964 C29.4268799,59.6036377 29.9892578,60.5366211 30.4638672,60.5366211 C30.9384766,60.5366211 35.8101807,60.0179443 37.199707,59.8443604 C38.5892334,59.6707764 41.2320557,59.39043 41.5004883,59.3886964 C41.7689209,59.3869629 42.5198975,59.2580566 42.5198975,58.5212402 C42.5198975,57.7844238 40.1434265,57.7717285 36.1659515,58.2373047 Z" id="路径-299" fill="#C7C2CD"></path>
                <path d="M30.9367676,59.748291 L30.3157959,55.3847656 C30.3157959,54.8640137 30.4192912,54.6036377 30.6262817,54.6036377 C30.8332723,54.6036377 33.9928385,53.5524902 40.1049805,51.4501953 L41.2963867,58.7751465 L30.9367676,59.748291 Z" id="路径-300" fill="#C59C22"></path>
                <path d="M40.2369473,52.2678526 L40.2592153,52.4015865 L40.2166251,52.6084456 C39.6040358,55.5166702 38.8441444,57.2876737 37.9369507,57.9214559 C36.5217285,58.9101562 33.9316406,58.9304199 32.9038086,58.7871094 C31.8863288,58.6452422 30.7104672,57.8849205 30.3272319,55.1071433 C30.3311427,55.0736607 30.3349835,55.0425362 30.3394592,55.0130089 L30.3157815,55.0217285 C31.4679486,54.6276441 34.7750039,53.7096854 40.2369473,52.2678526 Z" id="形状结合" fill="#A98015"></path>
                <path d="M40.1924438,51.2587644 C40.3064168,52.3641682 40.3387451,53.086792 40.2894287,53.4266357 C40.2154541,53.9364014 38.6725464,54.9866333 36.8571167,55.5992432 C35.041687,56.211853 32.6068726,56.6828613 31.6635132,56.4429321 C30.7201538,56.2030029 30.2497559,55.8032227 30.2091064,55.1184082 C30.1820068,54.6618652 33.509786,53.3753173 40.1924438,51.2587644 Z" id="路径-291" fill="#B19D6C"></path>
                <path d="M30.3157959,51.5195618 C30.0503845,51.977356 30.0482178,55.1702881 30.3157959,55.3847656 C30.583374,55.5992432 31.7849762,56.0621338 33.9754639,55.5992432 C36.1659515,55.1363525 39.8996582,53.6223145 40.1156006,52.932251 C40.2595622,52.4722087 40.2595622,51.5721436 40.1156006,50.2320557 L40.1156006,49.5731812 L39.8741455,49.3049316 L39.8741455,48.7181396 L40.2894287,48.4928589 C40.0997925,48.2065226 39.880422,48.0633545 39.6313171,48.0633545 C39.3822123,48.0633545 38.5740255,48.3027954 37.2067566,48.7816772 L37.1528015,48.5946045 C37.3354594,48.4656169 37.3811239,48.2885335 37.2897949,48.0633545 C37.1528015,47.7255859 36.8061829,47.5963135 36.234314,47.7081909 C35.6624451,47.8200684 33.168396,48.5228577 32.6600952,48.9404297 C32.1517944,49.3580017 32.0689087,49.7775269 32.2290344,49.9647522 C32.3357849,50.0895691 32.4655355,50.1786702 32.6182861,50.2320557 L32.6182861,50.3999329 C31.2602336,50.841156 30.4927368,51.2143656 30.3157959,51.5195618 Z" id="路径-301" fill="#F2C545"></path>
                <path d="M37.1795199,47.8828001 C37.2251074,47.9341061 37.2618214,47.9943836 37.2897949,48.0633545 C37.3811239,48.2885335 37.3354594,48.4656169 37.1528015,48.5946045 L37.1528015,48.5946045 L37.2067566,48.7816772 C37.2730691,48.7584515 37.3380666,48.7357889 37.4017489,48.7136896 C37.013813,48.9363312 36.7912334,49.0662876 36.7277222,49.106842 C36.6385091,49.1638082 36.5660299,49.1198934 36.5102844,48.9750977 L36.5102844,48.9750977 L32.9038086,50.3649902 L32.6174482,50.3648001 L32.6182861,50.2320557 C32.5037231,50.1920166 32.4020977,50.1318874 32.3134098,50.0516682 L32.2290344,49.9647522 C32.1770653,49.9039878 32.1506935,49.8187543 32.1561549,49.71706 Z" id="形状结合" fill="#B28400"></path>
                <path d="M33.7203369,54.1915283 L37.3428955,52.9644775 L37.3929443,52.213623 L36.4475098,49.1425781 C34.9687001,49.5998052 33.8306182,49.959282 33.0332642,50.2210083 C32.2359101,50.4827346 31.8776948,50.6144078 31.9586182,50.6160278 C31.8938093,50.8457259 31.9092512,50.9932275 32.0049438,51.0585327 C32.1006365,51.1238379 32.3722988,51.133709 32.8199309,51.0881459 L33.7203369,54.1915283 Z" id="路径-302" fill="#9B6E01"></path>
                <polygon id="路径-302" fill="#FDCB37" points="33.8347168 53.4266357 37.4572754 52.199585 36.520752 49.0024414 32.9038086 50.2581787"></polygon>
                <path d="M36.234314,47.7081909 C36.8061829,47.5963135 37.1528015,47.7255859 37.2897949,48.0633545 C37.3375194,48.1810232 37.3478358,48.2855587 37.3207441,48.3769609 L36.6560059,48.4945068 L32.3503679,50.0833279 C32.3070711,50.0482318 32.2666267,50.0087065 32.2290344,49.9647522 C32.0689087,49.7775269 32.1517944,49.3580017 32.6600952,48.9404297 C33.168396,48.5228577 35.6624451,47.8200684 36.234314,47.7081909 Z" id="形状结合" fill="#F3BE2C"></path>
                <path d="M37.0933724,47.8042167 L32.1640837,49.6496563 C32.200232,49.447295 32.3520341,49.1935036 32.6600952,48.9404297 C33.168396,48.5228577 35.6624451,47.8200684 36.234314,47.7081909 C36.6231848,47.6321143 36.9079,47.6675453 37.0933724,47.8042167 Z" id="路径" fill="#FFDE83"></path>
                <path d="M53.3256836,33.9431152 L65.1392822,41.5231934 L65.6550293,43.2203369 C65.0319824,45.5936279 64.2593587,47.186849 63.3371582,48 C61.9538574,49.2197266 60.6269531,49.5731812 60.3928223,49.5731812 C60.1586914,49.5731812 59.2106934,50.1294443 57.8731689,49.5731812 C56.981486,49.202339 53.6904297,46.891487 48,42.640625 L53.3256836,33.9431152 Z" id="路径-306" fill="#EDBE2A"></path>
                <path d="M57.546245,36.6500578 L65.1392822,41.5231934 L65.6550293,43.2203369 C65.0319824,45.5936279 64.2593587,47.186849 63.3371582,48 C62.0460775,49.1384115 60.8041243,49.5222038 60.4539117,49.5683165 L60.3928223,49.5731812 C60.1586914,49.5731812 59.2106934,50.1294443 57.8731689,49.5731812 L57.6226593,49.4520253 C57.0351965,49.1398196 55.9290718,48.4082506 54.3042852,47.2573184 C56.119085,44.2259829 57.1993209,40.6899879 57.546245,36.6500578 Z" id="路径" fill="#DCAD16"></path>
                <path d="M64.3298913,41.003636 L65.1392822,41.5231934 L65.6550293,43.2203369 C65.0319824,45.5936279 64.2593587,47.186849 63.3371582,48 C62.0460775,49.1384115 60.8041243,49.5222038 60.4539117,49.5683165 L60.3928223,49.5731812 C60.1586914,49.5731812 59.2106934,50.1294443 57.8731689,49.5731812 C57.8029541,49.5439795 57.7178615,49.5027485 57.6178913,49.4494882 L58.222146,49.2905761 C58.5831091,49.1859873 58.8604553,49.084035 59.0549636,48.9843062 L60.3563555,48.3506522 C61.1518552,47.9471619 62.074056,47.4251198 62.548584,46.9203853 C63.3620605,46.055126 64.2749023,43.9768066 64.3287354,43.434837 L64.3473443,43.1220969 C64.3562057,42.8656936 64.357978,42.5134706 64.3526611,42.0654279 L64.3298913,41.003636 Z" id="路径" fill="#968860"></path>
                <polygon id="路径-307" fill="#C7970B" points="64.4925537 45.4263916 52.7411457 37.2386475 50.6782227 40.6774902 62.0966797 48.7376709"></polygon>
                <polygon id="路径-307" fill="#F4BE20" points="64.3287354 45.220459 52.7411457 37.2386475 50.9415283 40.3227539 62.0499268 48.2840576"></polygon>
                <path d="M60.2685283,42.4236475 L64.3287354,45.220459 L62.0499268,48.2840576 L59.3305283,46.3356475 L60.2685283,42.4236475 Z" id="形状结合" fill="#EAB313"></path>
                <path d="M56.9492188,40.1889648 C58.4687778,41.3034713 58.1867676,42.5363159 57.706543,44.3360291 C57.2263184,46.1357422 56.1831055,47.944246 55.0708008,47.4467773 C53.9584961,46.9493087 51.8725586,44.1113281 50.7294922,41.3000488 C50.4966634,41.8015137 50.0952962,42.2886149 49.5253906,42.7613525 L48.374,42.0287763 L50.3978997,38.7207271 C51.9351513,38.798848 55.5573611,39.1681198 56.9492188,40.1889648 Z" id="形状结合" fill="#BE900C"></path>
                <path d="M55.7736816,43.8873291 C57.2454427,42.2707926 57.9813232,41.398763 57.9813232,41.2712402 C57.9813232,41.0799561 57.61968,40.3702393 57.0663353,40.0220947 C56.6974388,39.7899984 55.3206314,38.8621826 52.9359131,37.2386475 L50.9415283,40.3227539 L55.7736816,43.8873291 Z" id="路径-308" fill="#FFCD2E"></path>
                <path d="M53.9098415,38.3272913 L53.9518611,37.9296549 L57.0663353,40.0220947 L57.0663353,40.0220947 C57.61968,40.3702393 57.9813232,41.0799561 57.9813232,41.2712402 C57.9813232,41.3647569 57.585583,41.8586529 56.7941026,42.7529281 L55.7736816,43.8873291 L52.9231175,41.7852169 C53.4261957,40.7541465 53.7551037,39.6015046 53.9098415,38.3272913 L53.9098415,38.3272913 Z" id="路径" fill="#F7C527"></path>
                <path d="M57.1462881,40.0757814 C57.6542579,40.4385569 57.9813232,41.0893304 57.9813232,41.2712402 C57.9813232,41.398763 57.2454427,42.2707926 55.7736816,43.8873291 L55.7736816,43.8873291 L55.422327,43.6277739 C56.3978706,42.1235394 56.9458733,41.2488267 57.0663353,41.003636 C57.1473007,40.8388374 57.1767427,40.5682948 57.1546612,40.1920082 Z" id="形状结合" fill="#DAAE22"></path>
                <path d="M52.9359131,37.2386475 L50.7818604,40.3983154 C50.6931559,40.7298625 50.541097,40.895636 50.3256836,40.895636 C50.0025635,40.895636 49.0648499,40.1506958 48.9029541,39.9024048 C48.7410583,39.6541138 50.9246521,35.6260376 51.4301147,35.6260376 C51.9355774,35.6260376 52.8782043,36.2138062 53.0311279,36.4752808 C53.133077,36.6495972 53.1013387,36.9040527 52.9359131,37.2386475 Z" id="路径-309" fill="#EDBC1F"></path>
                <path d="M52.704895,36.483507 C52.8046851,36.4829777 52.9933605,36.5934712 53.0875838,36.752079 C53.079226,36.889159 53.0285155,37.0513472 52.9359131,37.2386475 L50.7818604,40.3983154 C50.6931559,40.7298625 50.541097,40.895636 50.3256836,40.895636 C50.0025635,40.895636 49.0648499,40.1506958 48.9029541,39.9024048 C48.8900989,39.8826894 48.8920321,39.8391421 48.9067394,39.7756721 L48.8943998,39.7667236 C49.6320363,40.1299235 50.0290324,40.3109741 50.0853882,40.3098755 C50.141744,40.3087769 50.9008586,39.0691935 52.3627319,36.5911255 C52.477478,36.5199992 52.5915324,36.4841264 52.704895,36.483507 Z" id="形状结合" fill="#DDAA07"></path>
                <path d="M52.15979,36.5194702 L49.9507446,39.9536133 L48.9944647,39.5105772 C49.0202488,39.4445221 49.0505461,39.3717741 49.0847995,39.2934141 L49.7452393,39.604126 L51.565979,36.5194702 L50.9485534,36.0586125 C50.994201,35.9998823 51.0381265,35.9460364 51.0799703,35.8977729 C51.3234702,36.0182492 51.6842153,36.2258815 52.15979,36.5194702 Z" id="形状结合" fill="#B78D18"></path>
                <path d="M86,66 C86,66.7320964 85.7723592,67.3721924 85.3170776,67.9202881 C83.0884272,70.6032732 80.7074648,72 78,72 C73.0498047,72 70.8256836,72 69.2229004,72 C67.6201172,72 61.8078613,71.185791 55.6137695,71.185791 C49.4196777,71.185791 47.0168457,72 45.1062012,72 C43.1955566,72 34.2055664,72 29.880127,72 C25.5546875,72 18.3544922,69.989502 15.0644531,68.1657715 C11.7744141,66.342041 10,63.9128418 10,62 C10,60.7247721 10.248291,60.0658366 10.744873,60.0231934 C10.9782715,59.9557292 11.2608236,60.1174723 11.5925293,60.5084229 C12.0900879,61.0948486 18.3137207,64.3619385 28.4476318,64.567749 C38.581543,64.7735596 48.5407715,63.6948242 57.8652344,62.6132813 C61.6638184,62.1782227 65.3850098,60.737793 72.1374512,60.0231934 C78.8898926,59.3085938 82.9501953,58.432373 82.9501953,58.432373 C82.9501953,58.432373 83.3619995,57.9934692 83.7821045,58.432373 C84.0621745,58.7249756 84.3904012,59.2104696 84.7667847,59.888855 C84.545634,61.0263875 84.4350586,61.7301025 84.4350586,62 C84.4350586,62.4048462 84.9395752,64.6142578 85.3170776,65.1186523 C85.5687459,65.4549154 85.7963867,65.7486979 86,66 Z" id="路径-273" fill="#534494"></path>
                <path d="M84.7272213,59.8179411 L84.7667847,59.888855 L84.6357324,60.5829407 C84.5019499,61.3177267 84.4350586,61.7900798 84.4350586,62 C84.4350586,62.371109 84.8589927,64.2585542 85.2204214,64.9590635 L85.317836,65.1199411 L85.3184814,66.4366546 L80.5789094,70.8098625 L69.4688416,70.8098625 L64.3287354,69.9448853 L58.7573582,70.1881754 C52.0066677,70.452867 47.6738953,69.7953894 46.3457031,69.5825195 C43.8553427,69.1833886 41.3720703,67.2518838 41.5854492,66.5910645 C41.7988281,65.9302451 46.8730469,68.1801758 52.9726962,68.2420516 L53.7754197,68.2392009 C60.2263006,68.1385675 72.6662598,65.2644043 75.4726563,65.0078125 C78.2790527,64.7512207 70.6319438,68.1264716 68.8806152,68.9758301 L67.0549316,69.1782227 C65.7253418,69.7322129 74.4306641,69.7148438 77.8496473,69.7224473 C81.2686306,69.7300508 83.2714844,65.8139648 83.3420279,65.4032572 C83.4101389,65.0067118 78.9321036,65.999346 80.0242905,64.0819957 L80.1630859,63.8652344 C81.1415458,62.4781118 78.3730232,61.7002707 71.8575181,61.5317113 L70.6315918,61.507778 L84.7272213,59.8179411 Z" id="路径" fill="#40327C"></path>
                <path d="M11.4533791,60.3549057 L11.5925293,60.5084229 C11.9061334,60.8780386 14.4944782,62.3125753 18.9029113,63.3743227 C18.6663508,64.0438 19.2096534,64.8391238 20.5341797,65.7583008 C22.1037543,66.8475331 26.7561645,68.4573088 34.4914102,70.5876278 L35.3026051,70.8098625 L31.414,71.9983005 L29.880127,72 C25.5546875,72 18.3544922,69.989502 15.0644531,68.1657715 C11.7744141,66.342041 10,63.9128418 10,62 C10,60.7247721 10.248291,60.0658366 10.744873,60.0231934 C10.9449289,59.9653669 11.1810975,60.0759377 11.4533791,60.3549057 Z" id="路径" fill="#403082"></path>
                <path d="M62.0114746,63.8032227 C69.4688416,62.8186035 77.4248047,62.487793 76.6777344,63.8032227 C75.9306641,65.1186523 68.2199707,66.0008545 63.2735596,67.4521484 C58.3271484,68.9034424 51.4099121,68.982666 48.0231934,68.5222168 C44.6364746,68.0617676 38.9104004,66.5185262 42.5198975,65.8185893 C46.1293945,65.1186523 54.5541077,64.7878418 62.0114746,63.8032227 Z" id="路径-312" fill="#6D5BAD"></path>
                <path d="M76.6777344,63.8032227 C75.9306641,65.1186523 69.4042456,66.2464588 62.680542,67.831665 C60.4639893,68.354248 57.2799718,68.8533227 54.1960449,68.8776855 C51.112118,68.9020484 49.4310477,68.8736514 48.1408691,68.6982422 C46.7779504,68.5129434 44.1518603,67.7976707 42.3198324,67.1836975 C41.6833733,66.8886006 41.3087769,66.5931556 41.3958235,66.3347362 C42.1012633,66.3810106 43.2200019,66.5116874 44.751709,66.7270508 C49.3928748,67.1585054 53.5443991,66.4965392 56.3728027,66.326416 L57.1000759,66.2937265 C60.2884692,66.1875871 66.6009803,66.3569524 67.8479004,66.0847168 L69.0138533,65.8204333 C70.2794296,65.518475 71.6842559,65.1197442 71.791748,64.7705078 C72.0415611,63.9588782 63.7115008,64.3767675 58.7740156,64.1882097 L60.4016271,64.0044939 L63.5068695,63.6153103 C70.4909565,62.7818121 77.375,62.5754883 76.6777344,63.8032227 Z" id="路径" fill="#59459E"></path>
                <path d="M53.231377,67.0800781 C52.5276061,67.7913145 51.8574432,68.4108523 51.2208885,68.9386917 C51.0245183,68.9298811 50.8327709,68.9215554 50.6449621,68.9122679 C51.3776787,68.3602838 52.2389541,67.7497297 53.231377,67.0800781 Z" id="形状结合" fill="#594C88"></path>
                <path d="M83.7821045,58.432373 C84.0341817,58.6957302 84.3252702,59.115347 84.6553702,59.6912235 C84.0758996,60.0497444 83.4162316,60.3307481 82.6781616,60.5366211 C81.1271973,60.9692383 71.2036133,62.0583496 66.7219238,62.8664551 C62.2402344,63.6745605 50.1895142,65.2475586 44.0632324,65.6569824 C37.9369507,66.0664063 22.7827148,65.7094727 17.6450195,64.4536133 C12.949812,63.3059157 11.2558809,62.2048602 10.9989262,60.032395 C11.1743161,60.0907926 11.3726207,60.2492371 11.5925293,60.5084229 C12.0900879,61.0948486 18.3137207,64.3619385 28.4476318,64.567749 C38.581543,64.7735596 48.5407715,63.6948242 57.8652344,62.6132812 C61.6638184,62.1782227 65.3850098,60.737793 72.1374512,60.0231934 C78.8898926,59.3085938 82.9501953,58.432373 82.9501953,58.432373 C82.9501953,58.432373 83.3619995,57.9934692 83.7821045,58.432373 Z" id="形状结合" fill="#47348E"></path>
                <path d="M63.5193251,61.5073088 L61.5524111,63.6716136 C59.5542024,63.955188 57.2932282,64.2546193 55.0112695,64.5353525 L56.9102099,62.7237398 C57.2292757,62.6869573 57.5476233,62.6501209 57.8652344,62.6132813 C59.6582047,62.4079292 61.4339324,61.9785868 63.5193251,61.5073088 Z" id="形状结合" fill="#5D4AA2"></path>
                <path d="M82.3276233,58.5587941 C82.7386812,59.4519119 82.9874237,60.0715 83.0738508,60.4175582 C82.9447736,60.4590274 82.8127715,60.4990738 82.6781616,60.5366211 C81.1271973,60.9692383 71.2036133,62.0583496 66.7219238,62.8664551 C65.4872637,63.08908 63.6781544,63.3697561 61.5767203,63.6681628 L63.6566612,61.4763152 C65.9587823,60.9575391 68.6419687,60.3931144 72.1374512,60.0231934 C77.3316369,59.4735014 80.9328411,58.8281756 82.3183219,58.5596064 Z" id="形状结合" fill="#6C5BAF"></path>
                <path d="M82.3276233,58.5587941 C82.7386812,59.4519119 82.9874237,60.0715 83.0738508,60.4175582 C82.9447736,60.4590274 82.8127715,60.4990738 82.6781616,60.5366211 C82.4635154,60.5964933 82.0885063,60.6689395 81.5897525,60.7514746 L80.819018,58.8337643 C81.4584582,58.7227933 81.9617644,58.6287235 82.3183219,58.5596064 L82.3276233,58.5587941 Z" id="形状结合" fill="#5F4BAA"></path>
                <path d="M16.80896,63.6826172 C17.6691717,63.7174422 19.1232742,63.7610369 20.9928071,63.8190519 C23.1549329,64.2213343 25.6525473,64.5109834 28.4476318,64.567749 C31.3646115,64.6269902 34.2671181,64.5798019 37.144179,64.4567521 C40.5364436,64.6306984 43.9717371,64.8448342 47.1424561,65.1069336 C47.5831037,65.559195 36.9463253,65.8650798 29.7483259,65.7099315 C26.606642,65.561277 23.5493453,65.3355039 21.1094454,65.0357971 C16.8911817,64.4152619 14.0934092,63.5726802 16.80896,63.6826172 Z" id="形状结合" fill="#7063B1"></path>
                <path d="M10.5083251,60.0991565 C10.2376916,61.0263955 10.076331,62.7598851 10.9104682,63.5720215 C12.9648424,65.5722106 18.3325195,67.7919922 22.9645996,68.9779177 C27.5966797,70.1638431 40.2894287,69.7839355 46.7312012,69.7839355 C53.1729736,69.7839355 65.0349121,68.9779177 71.8198242,68.432373 C78.6047363,67.8868284 82.6579111,66.3252673 83.3217773,65.4868164 C83.6936337,65.0171686 84.0668258,63.8865613 84.4413536,62.0949945 C84.4958752,62.6669403 84.9625034,64.644893 85.3170776,65.1186523 C85.5687459,65.4549154 85.7963867,65.7486979 86,66 C86,66.7320964 85.7723592,67.3721924 85.3170776,67.9202881 C83.0884272,70.6032732 80.7074648,72 78,72 L69.2229004,72 L69.2229004,72 C67.6201172,72 61.8078613,71.185791 55.6137695,71.185791 C49.4196777,71.185791 47.0168457,72 45.1062012,72 L29.880127,72 L29.880127,72 C25.5546875,72 18.3544922,69.989502 15.0644531,68.1657715 C11.7744141,66.342041 10,63.9128418 10,62 C10,60.9498123 10.1683911,60.3175946 10.5051734,60.1033467 Z" id="形状结合" fill="#9FA4B3"></path>
                <path d="M50.2444835,69.7224473 C49.5658383,70.2910131 48.8150729,71.0159566 47.9921875,71.8972778 L48.2119943,71.6635572 L47.714256,71.7316846 L47.714256,71.7316846 C47.9546401,71.2427133 48.5811309,70.5794072 49.59235,69.7427343 L50.2444835,69.7224473 Z" id="路径" fill="#8088A0"></path>
                <path d="M11.9153591,65.8149645 C16.0529331,67.8548715 19.7101344,69.3661756 22.8869629,70.348877 C25.2850413,71.0906844 28.0732166,71.342893 32.994873,71.3876953 C38.6375226,71.4390609 46.2672277,71.4300166 48.3400879,70.9987793 C52.2209473,70.1914062 58.7861328,70.3410645 63.1037598,70.7541504 C67.4213867,71.1672363 79.3408203,70.4682617 80.8201128,69.7224473 C82.252271,69.0003965 85.8817635,66.4821563 85.9999449,65.998145 C85.9994779,65.9993556 85.999739,65.9996778 86,66 C86,66.7320964 85.7723592,67.3721924 85.3170776,67.9202881 C83.0884272,70.6032732 80.7074648,72 78,72 L69.2229004,72 C67.6201172,72 61.8078613,71.185791 55.6137695,71.185791 C49.4196777,71.185791 47.0168457,72 45.1062012,72 L29.880127,72 C25.5546875,72 18.3544922,69.989502 15.0644531,68.1657715 C13.7908896,67.4598113 12.7444333,66.6631253 11.940095,65.840784 Z" id="形状结合" fill="#83869D"></path>
            </g>
        </g>
    </g>
</svg>