<?xml version="1.0" encoding="UTF-8"?>
<svg width="96px" height="96px" viewBox="0 0 96 96" version="1.1" xmlns="http://www.w3.org/2000/svg" xmlns:xlink="http://www.w3.org/1999/xlink">
    <title>LeBron XVII PRM EP</title>
    <defs>
        <rect id="path-1" x="0" y="0" width="96" height="96"></rect>
    </defs>
    <g id="icon" stroke="none" stroke-width="1" fill="none" fill-rule="evenodd">
        <g id="画板" transform="translate(-506.000000, -54.000000)">
            <g id="LeBron-XVII-PRM-EP" transform="translate(506.000000, 54.000000)">
                <g id="#" opacity="0">
                    <use fill="#FFFFFF" fill-rule="evenodd" xlink:href="#path-1"></use>
                    <rect stroke-opacity="0.5" stroke="#DDDDDD" stroke-width="6" stroke-linejoin="square" x="3" y="3" width="90" height="90"></rect>
                    <rect stroke-opacity="0.507785184" stroke="#DDDDDD" stroke-width="12" stroke-linejoin="square" x="6" y="6" width="84" height="84"></rect>
                </g>
                <path d="M78.1916642,38.5773926 C77.0581101,37.3519694 76.5603231,36.4790853 76.6983032,35.9587402 C76.9052734,35.1782227 80.7495879,31.6561942 80.7483693,31.0129395 C80.7470914,30.3696847 77.5210571,32.3939043 76.6927185,33.0807412 C75.8643799,33.7675781 75.7413434,33.5567129 75.4026489,34.0666504 C75.0639545,34.5765879 75.0595703,34.6990967 75.0595703,35.4804688 C75.0595703,36.2618408 75.2354126,37.5544434 75.4026489,37.5544434 C75.5141398,37.5544434 76.4438116,37.8954264 78.1916642,38.5773926 Z" id="路径-142" fill="#E5DAD9"></path>
                <path d="M11.1604004,60.3972168 C11.1965332,58.5209961 12.3387044,57.2137858 14.5869141,56.4755859 C17.9592285,55.3682861 24.6437988,53.8449707 27.8513184,52.5537109 C31.0588379,51.2624512 40.4377441,46.532959 43.4846191,44.6357422 C46.5314941,42.7385254 49.3603516,40.9121094 50.4272461,40.4833984 C51.4941406,40.0546875 52.4859619,38.6108398 53.9460449,37.4125977 C55.4061279,36.2143555 58.7541504,34.2597656 60.2019043,31.4619141 C61.6496582,28.6640625 62.7397461,24.5109863 64.0400391,25.7072754 C64.906901,26.5048014 65.3851725,27.8596191 65.4748535,29.7717285 C68.0819499,31.5189616 69.741862,32.6239421 70.4545898,33.0866699 C71.5236816,33.7807617 75.0541992,36.8381348 75.4667969,36.8381348 C75.8793945,36.8381348 76.929471,36.6713867 78.1916642,38.5773926 C79.4538574,40.4833984 80.0917969,41.0172063 80.0917969,41.9819336 C80.7619629,43.0270996 80.6118164,44.8530273 81.3054199,45.736084 C81.9990234,46.6191406 82.4694824,47.8061523 82.4694824,48.7255859 C82.4694824,49.6450195 83.6779785,50.5788574 83.6779785,51.2919922 C83.6779785,52.005127 84.0705566,55.9741211 84.0705566,56.9638672 C84.0705566,57.9536133 83.9997559,59.7565918 83.2346191,60.0769043 C82.4694824,60.3972168 39.875,67.1293945 25.329834,65.8870671 C15.6330566,65.0588488 10.9099121,63.2288987 11.1604004,60.3972168 Z" id="路径-78" fill="#D7CDCC"></path>
                <path d="M65.9516068,33.0807412 C67.1621094,33.5083008 76.2847652,40.3992276 77.3750486,40.22769 C78.0194696,40.1263012 78.4527756,39.7468329 78.9337505,39.653335 C79.7037674,40.7392477 80.0917969,41.2295363 80.0917969,41.9819336 C80.7619629,43.0270996 80.6118164,44.8530273 81.3054199,45.736084 C81.9990234,46.6191406 82.4694824,47.8061523 82.4694824,48.7255859 C82.4694824,49.6450195 83.6779785,50.5788574 83.6779785,51.2919922 C83.6779785,52.005127 84.0705566,55.9741211 84.0705566,56.9638672 C84.0705566,57.9536133 83.9997559,59.7565918 83.2346191,60.0769043 C82.6708643,60.3129114 59.3988675,64.0297807 41.3696863,65.4730479 L27.3753052,65.7405737 L25.6340161,64.9338201 C25.4538057,65.2315827 25.2680695,65.5416352 25.0768075,65.8639776 L25.329834,65.8870671 C15.6330566,65.0588488 10.9099121,63.2288987 11.1604004,60.3972168 C11.1965332,58.5209961 12.3387044,57.2137858 14.5869141,56.4755859 C14.8010771,56.4052655 15.0285987,56.3332672 15.2677398,56.2597571 C15.1420025,57.1282346 15.2535326,58.001672 16.6875,58.0424805 C19.8471003,58.1323978 26.9954976,59.3273349 43.300762,52.9803761 C44.7053649,51.4349705 47.941309,45.1590585 51.1564574,44.8765869 C54.6147461,44.5727539 60.7050781,45.9515592 61.8244629,41.5741683 C62.9438477,37.1967773 64.7411041,32.6531816 65.9516068,33.0807412 Z" id="形状结合" fill="#D1C2C1"></path>
                <path d="M77.3750486,40.22769 C78.0194696,40.1263012 78.4527756,39.7468329 78.9337505,39.653335 C79.7037674,40.7392477 80.0917969,41.2295363 80.0917969,41.9819336 C80.7619629,43.0270996 80.6118164,44.8530273 81.3054199,45.736084 C81.9990234,46.6191406 82.4694824,47.8061523 82.4694824,48.7255859 C82.4694824,49.6450195 83.6779785,50.5788574 83.6779785,51.2919922 C83.6779785,52.005127 84.0705566,55.9741211 84.0705566,56.9638672 C84.0705566,57.9536133 83.9997559,59.7565918 83.2346191,60.0769043 C82.9762668,60.1850594 77.9489109,61.0242375 70.8426268,62.0406152 C72.5491802,58.4653601 74.2238263,54.8423995 75.8643799,51.1734619 C77.6313883,47.2217204 77.0302734,42.9487305 74.0610352,38.3544922 L74.17076,38.5284378 C75.7411363,39.5488804 77.0095169,40.2852002 77.3750486,40.22769 Z" id="形状结合" fill="#C2ACA9"></path>
                <path d="M43.1882324,49.9759521 C42.7253418,49.3702393 42.1631673,48.8218994 41.501709,48.3309326 C40.8402507,47.8399658 39.9843343,47.5430377 38.93396,47.4401483 C39.2912672,47.1715867 39.6024245,46.961333 39.8674316,46.8093872 C40.2649424,46.5814686 40.5054321,46.5452881 41.0357056,46.5756226 C41.565979,46.605957 43.2943115,47.8293271 44.3681641,48.9052734 C43.8556315,49.5460612 43.462321,49.9029541 43.1882324,49.9759521 Z" id="路径-81" fill="#8A726C"></path>
                <path d="M44.6359863,43.8735352 C46.0432333,43.9974772 46.9803771,44.161377 47.4474177,44.3652344 C47.9144582,44.5690918 48.3433626,44.3197428 48.7341309,43.6171875 C47.6766764,43.0288086 46.8199463,42.7346191 46.1639404,42.7346191 C45.5079346,42.7346191 44.9986165,43.1142578 44.6359863,43.8735352 Z" id="路径-79" fill="#8A726C"></path>
                <path d="M57.654541,42.1380615 C54.977946,40.9711507 53.0054525,40.3876953 51.7370605,40.3876953 C50.4686686,40.3876953 49.946818,40.4238394 50.1715088,40.4961277 L49.2893066,41.2034302 C51.3246257,41.3994344 52.9865723,41.7897135 54.2751465,42.3742676 C55.5637207,42.9588216 56.6901855,42.8800863 57.654541,42.1380615 Z" id="路径-82" fill="#8A726C"></path>
                <path d="M43.3515625,49.6450195 C42.8886719,49.0393066 42.3264974,48.4909668 41.6650391,48 C41.0035807,47.5090332 40.1476644,47.2121051 39.09729,47.1092157 C39.4545973,46.8406541 39.7657545,46.6304003 40.0307617,46.4784546 C40.4282725,46.2505359 40.6687622,46.2143555 41.1990356,46.2446899 C41.7293091,46.2750244 43.4576416,47.4983945 44.5314941,48.5743408 C44.0189616,49.2151286 43.625651,49.5720215 43.3515625,49.6450195 Z" id="路径-81" fill="#B1A19C"></path>
                <path d="M44.7993164,43.5426025 C46.2065634,43.6665446 47.1437072,43.8304443 47.6107477,44.0343018 C48.0777883,44.2381592 48.5066927,43.9888102 48.8974609,43.2862549 C47.8400065,42.697876 46.9832764,42.4036865 46.3272705,42.4036865 C45.6712646,42.4036865 45.1619466,42.7833252 44.7993164,43.5426025 Z" id="路径-79" fill="#B1A19C"></path>
                <path d="M57.8178711,41.8071289 C55.141276,40.6402181 53.1687826,40.0567627 51.9003906,40.0567627 C50.6319987,40.0567627 50.1101481,40.0929068 50.3348389,40.165195 L49.4526367,40.8724976 C51.4879557,41.0685018 53.1499023,41.4587809 54.4384766,42.043335 C55.7270508,42.627889 56.8535156,42.5491536 57.8178711,41.8071289 Z" id="路径-82" fill="#B1A19C"></path>
                <path d="M63.9584961,29.4291992 C64.1833932,29.4291992 64.8700853,29.6369184 65.6838632,29.9119581 L70.4545898,33.0866699 C71.5236816,33.7807617 75.0541992,36.8381348 75.4667969,36.8381348 L75.7242497,36.8346072 C76.2353121,36.8401286 77.1398365,36.9890544 78.1916642,38.5773926 L78.5632754,39.1267853 L78.5632754,39.1267853 C77.9558636,39.380886 76.6413164,39.4980074 76.0487714,38.8067448 L75.9165039,38.6166992 C75.3359222,37.5734863 69.1677246,33.8029785 67.5498047,32.6027832 C65.9318848,31.4025879 64.6069336,32.3295898 64.6069336,33.1665039 C64.6069336,34.003418 59.7424316,42.8647461 59.0849609,43.2858887 C58.4274902,43.7070313 49.7126465,44.1552734 49.013916,44.1552734 C48.3151855,44.1552734 43.7446289,51.4147949 42.8859863,51.8884277 C42.2279355,52.2514128 33.3605192,52.0580252 29.2533109,51.9478585 L30.1966395,51.5183042 C30.6949555,51.2875516 31.2305872,51.0342792 31.7915545,50.7649815 L41.6650391,50.7634277 C42.6108398,50.7634277 47.6107477,43.2858887 48.3113086,42.6955566 C49.0118695,42.1052246 56.2258301,41.1689453 57.4367676,41.1689453 C58.5669759,41.1689453 58.6423231,39.9564931 59.4629638,38.4801979 L59.6508789,38.1601563 C60.6540527,36.5432129 63.404541,29.4291992 63.9584961,29.4291992 Z" id="路径" fill="#C1A8A0"></path>
                <path d="M59.6241455,40.0567627 C60.835734,34.5707601 61.8167725,31.0282389 62.5672607,29.4291992 C63.6929932,27.0306396 65.6173096,25.6485596 65.9191895,26.3395996 C66.1204427,26.800293 65.9326172,27.5568441 65.3557129,28.6092529 L65.4748535,29.7717285 C66.5268555,28.4261068 67.0528564,27.4194743 67.0528564,26.7518311 C67.0528564,25.7503662 66.4887695,25.2480469 65.3557129,25.2480469 C64.2226562,25.2480469 61.8790283,27.5994873 60.602417,32 C59.7513428,34.9336751 58.8231608,38.0147537 57.8178711,41.2432357 L59.6241455,40.0567627 Z" id="路径-88" fill="#C5B8AF"></path>
                <path d="M38.3090767,47.9590328 C38.6355777,47.6207279 38.90684,47.4140388 39.1228638,47.3389655 C39.3388875,47.2638923 39.6833089,47.1391364 40.1561279,46.9646979 L39.6417236,47.395423 C39.037774,48.6899109 38.4498191,50.2979436 38.1356714,52.2585837 L38.0246582,53.0094367 C38.0183165,53.3901586 37.9332946,53.6811132 37.7695923,53.8823005 C37.60589,54.0834878 37.4052471,54.1144122 37.1676636,53.9750739 C36.81073,53.7580329 36.7008057,53.2835027 36.7008057,52.5447693 C36.7008057,51.8552848 37.1809518,50.4471644 38.141244,48.320408 L38.3090767,47.9590328 Z M35.3664551,53.2428352 C35.3962526,53.5013394 35.2512128,53.6305915 34.9313354,53.6305915 C34.6114581,53.6305915 34.2963743,53.5013394 33.986084,53.2428352 L32.1492653,51.0538486 L33.442119,50.4238376 L35.3664551,53.2428352 Z M30.8027344,53.2428352 C30.6175537,53.2652961 30.5000407,53.1079068 30.4501953,52.7706672 L30.759921,51.7162302 L31.8562404,51.1949396 C31.3390837,52.5377424 30.987915,53.2203742 30.8027344,53.2428352 Z" id="形状" fill="#8A726C"></path>
                <path d="M45.7558594,50.6642829 C45.7039064,50.9214335 45.5647869,51.050599 45.338501,51.0517794 C45.112215,51.0528994 44.8830891,50.9256056 44.651123,50.6698981 C43.8559163,47.9137132 43.7496948,45.8971931 44.3324585,44.6203376 C44.9152222,43.3434821 45.7644043,42.7618852 46.8800049,42.8755467 C45.6375326,44.2600541 45.0936279,45.7788052 45.248291,47.4318 C45.4029541,49.0847948 45.5721436,50.1622891 45.7558594,50.6642829 Z" id="路径-83" fill="#8A726C"></path>
                <path d="M49.7819214,40.6977912 C49.1149292,41.3123542 48.7959912,42.2013312 48.569458,44.3739387 C48.6530762,44.6326057 49.0037842,45.5820075 49.4491577,45.3795539 C49.7460734,45.2445848 49.8402913,44.9093797 49.7318115,44.3739387 C49.914917,42.803911 50.4609375,41.4607917 51.369873,40.3445808 C51.0671387,40.1963874 50.4489136,40.0832282 49.7819214,40.6977912 Z" id="路径-84" fill="#8A726C"></path>
                <path d="M63.7246094,39.0923225 L62.6478271,37.9318 C59.7665609,36.7427538 57.8445638,36.1482307 56.8818359,36.1482307 C55.9191081,36.1482307 55.2821452,36.4174364 54.9709473,36.9558478 L55.4377441,37.6202766 C56.5289714,37.4716763 57.5410563,37.5755174 58.473999,37.9318 C59.8734131,38.4662238 62.7370605,39.485633 62.9063721,39.485633 C63.0192464,39.485633 63.2919922,39.3545295 63.7246094,39.0923225 Z" id="路径-86" fill="#8A726C"></path>
                <path d="M60.8187256,44.6992188 L60.9812012,43.6992188 C58.072347,39.852157 56.3676351,37.7070686 55.8670654,37.2639533 C55.3664958,36.8208381 55.3934733,36.4827033 55.947998,36.249549 C55.2270508,36.2733527 54.7450968,36.6177334 54.5021362,37.2826911 C54.1376953,38.2801276 55.470459,39.238849 55.8670654,39.7352668 C56.1314697,40.066212 57.5106201,41.6285086 60.0045166,44.4221564 L60.8187256,44.6992188 Z" id="路径-85" fill="#8A726C"></path>
                <path d="M65.983223,33.5265793 C65.983223,33.5265793 65.3426514,33.5187141 65.1556396,33.9164191 C64.9686279,34.3141242 65.2022705,35.9870978 64.8414307,37.8169318 C64.6008708,39.0368212 64.3173828,40.013994 63.9909668,40.7484504 L63.9909668,41.2099033 L63.1103516,43.3349982 L63.7246094,43.6992188 L64.5467873,41.4435187 L65.1556396,41.0318977 C66.0499268,39.4523078 66.4970703,38.044593 66.4970703,36.8087531 C66.4970703,35.4952636 66.4742249,34.4459787 66.3238525,33.9164191 C66.2620007,33.6985984 65.983223,33.5265793 65.983223,33.5265793 Z" id="路径-87" fill="#8A726C"></path>
                <path d="M38.2774605,47.5131947 C38.6039614,47.1748898 38.8752238,46.9682007 39.0912476,46.8931274 C39.3072713,46.8180542 39.6516927,46.6932983 40.1245117,46.5188599 L39.6101074,46.949585 C39.0061578,48.2440728 38.4182028,49.8521055 38.1040551,51.8127456 L37.993042,52.5635986 C37.9867003,52.9443205 37.9016783,53.2352751 37.7379761,53.4364624 C37.5742738,53.6376497 37.3736309,53.6685742 37.1360474,53.5292358 C36.7791138,53.3121948 36.6691895,52.8376646 36.6691895,52.0989312 C36.6691895,51.4094467 37.1493356,50.0013263 38.1096278,47.87457 L38.2774605,47.5131947 Z M35.3348389,52.7969971 C35.3646364,53.0555013 35.2195965,53.1847534 34.8997192,53.1847534 C34.5798419,53.1847534 34.2647581,53.0555013 33.9544678,52.7969971 L32.1176491,50.6080105 L33.4105028,49.9779995 L35.3348389,52.7969971 Z M30.7711182,52.7969971 C30.5859375,52.819458 30.4684245,52.6620687 30.4185791,52.3248291 L30.7283048,51.2703921 L31.8246242,50.7491016 C31.3074675,52.0919043 30.9562988,52.7745361 30.7711182,52.7969971 Z" id="形状" fill="#BDAAA5"></path>
                <path d="M45.7242432,50.2184448 C45.6722902,50.4755954 45.5331707,50.6047484 45.3068848,50.6059037 C45.0805988,50.6070488 44.8514728,50.4797675 44.6195068,50.2240601 C43.8243001,47.4678752 43.7180786,45.451355 44.3008423,44.1744995 C44.883606,42.897644 45.7327881,42.3160471 46.8483887,42.4297086 C45.6059163,43.814216 45.0620117,45.3329671 45.2166748,46.9859619 C45.3713379,48.6389567 45.5405273,49.716451 45.7242432,50.2184448 Z" id="路径-83" fill="#BDAAA5"></path>
                <path d="M49.7503052,40.2519531 C49.083313,40.8665161 48.764375,41.7554932 48.5378418,43.9281006 C48.62146,44.1867676 48.972168,45.1361694 49.4175415,44.9337158 C49.7144572,44.7987467 49.8086751,44.4635417 49.7001953,43.9281006 C49.8833008,42.3580729 50.4293213,41.0149536 51.3382568,39.8987427 C51.0355225,39.7505493 50.4172974,39.6373901 49.7503052,40.2519531 Z" id="路径-84" fill="#BDAAA5"></path>
                <path d="M63.6929932,38.6464844 L62.6162109,37.4859619 C59.7349447,36.2969157 57.8129476,35.7023926 56.8502197,35.7023926 C55.8874919,35.7023926 55.250529,35.9715983 54.9393311,36.5100098 L55.4061279,37.1744385 C56.4973551,37.0258382 57.5094401,37.1296794 58.4423828,37.4859619 C59.8417969,38.0203857 62.7054443,39.0397949 62.8747559,39.0397949 C62.9876302,39.0397949 63.260376,38.9086914 63.6929932,38.6464844 Z" id="路径-86" fill="#BDAAA5"></path>
                <path d="M60.7871094,44.2533807 L60.949585,43.2533807 C58.0407308,39.4063189 56.3360189,37.2612305 55.8354492,36.8181152 C55.3348796,36.375 55.3618571,36.0368652 55.9163818,35.8037109 C55.1954346,35.8275146 54.7134806,36.1718953 54.47052,36.836853 C54.1060791,37.8342896 55.4388428,38.7930109 55.8354492,39.2894287 C56.0998535,39.6203739 57.4790039,41.1826705 59.9729004,43.9763184 L60.7871094,44.2533807 Z" id="路径-85" fill="#BDAAA5"></path>
                <path d="M65.9516068,33.0807412 C65.9516068,33.0807412 65.3110352,33.072876 65.1240234,33.4705811 C64.9370117,33.8682861 65.1706543,35.5412598 64.8098145,37.3710938 C64.5692546,38.5909831 64.2857666,39.5681559 63.9593506,40.3026123 L63.9593506,40.7640652 L63.0787354,42.8891602 L63.6929932,43.2533807 L64.5151711,40.9976807 L65.1240234,40.5860596 C66.0183105,39.0064697 66.4654541,37.5987549 66.4654541,36.362915 C66.4654541,35.0494255 66.4426087,34.0001406 66.2922363,33.4705811 C66.2303845,33.2527603 65.9516068,33.0807412 65.9516068,33.0807412 Z" id="路径-87" fill="#BDAAA5"></path>
                <path d="M27.1916504,61.1118164 C27.1916504,61.1118164 28.7305908,61.5499268 28.7305908,61.5499268 C28.7305908,61.5499268 28.2176107,61.9084608 27.1916504,62.625529 L26.0200195,62.3037109 C26.8011068,61.5091146 27.1916504,61.1118164 27.1916504,61.1118164 Z M31.1225586,60.8686727 L32.5266113,61.4574687 L31.2929077,62.5368652 L30.0592041,62.0462646 L31.1225586,60.8686727 Z M33.755249,57.855957 L34.975769,58.6140137 L34.0295715,59.6068115 L33.083374,58.9545898 L33.755249,57.855957 Z M36.8057861,57.2867432 L38.0047607,57.7313843 L37.4891357,58.7313843 L36.2841797,58.3201904 L36.8057861,57.2867432 Z M41.4812012,54.4350586 L41.0993652,55.3682861 L39.7335205,55.597168 L40.2581787,54.4350586 L41.4812012,54.4350586 Z M53.357666,50.8082275 L54.010498,51.4967041 L53.0310545,51.8690186 L52.6292725,51.1734619 L53.357666,50.8082275 Z M48.8974609,49.3432617 L49.4499512,50.2979736 L48.5378418,51.0036621 L48,50.2979736 L48.8974609,49.3432617 Z M52.3198853,48.9022217 L53.0310545,49.958252 L52.3198853,50.5506592 L51.6363525,49.4302368 L52.3198853,48.9022217 Z M52.1564574,45.7679815 C52.1564574,45.7679815 52.4479898,46.1358891 53.0310545,46.8717041 L53.0310545,46.8717041 L52.3337035,47.4476318 L51.4627686,46.3015137 C51.9252278,45.9458256 52.1564574,45.7679815 52.1564574,45.7679815 Z M64.5905762,45.2086182 L65.5952148,45.7679815 L65.395874,47.1217041 L64.0891113,46.6078067 L64.5905762,45.2086182 Z M66.6312256,43.4484863 L68.1422119,44.2533807 L67.59021,45.1651611 L66.2696533,44.6772461 L66.6312256,43.4484863 Z M69.6054688,39.9778866 L70.6226807,40.0567627 L70.6226807,40.0567627 L70.6226807,41.6643066 L70.6226807,41.6643066 L69.6054688,41.6643066 L68.9896851,40.7640652 L69.6054688,39.9778866 Z M72.9468994,37.5544434 L74.0610352,38.3544922 L74.0610352,39.7858465 L72.9468994,39.0397949 L72.9468994,37.5544434 Z M67.6242676,37.3710938 L68.0407715,37.5544434 L68.3741455,38.3432617 L67.8433838,38.6701449 L66.8797607,38.3432617 L66.8797607,37.5544434 L67.6242676,37.3710938 Z M70.6226807,35.7023926 L71.1843262,36.1025391 L71.1843262,36.744751 L70.263916,37.0206193 L69.8061829,36.1025391 L70.263916,35.7023926 L70.6226807,35.7023926 Z" id="形状结合" fill="#D56B55"></path>
                <path d="M40.6073608,60.3381348 C40.980367,59.9844428 41.7137451,59.897366 42.8074951,60.0769043 L42.8074951,60.0769043 L41.338501,63.0559082 L40.0478516,63.5151367 L38.9289551,63.5151367 C39.6748861,61.7508274 40.2343547,60.6918267 40.6073608,60.3381348 Z M34.975769,60.3381348 L35.9586182,61.1871338 L34.0200195,63.0559082 L32.744751,62.5368652 L34.975769,60.3381348 Z M40.0478516,59.2785645 L38.3636475,62.09729 L36.9405518,61.8686727 L38.1444702,59.4417114 L40.0478516,59.2785645 Z M45.6660156,58.7313843 L45.3185379,60.3381348 L43.7154541,60.702769 L44.3074951,59.0090637 L45.6660156,58.7313843 Z M44.1279297,56.0161133 C43.8719076,56.885498 43.6648763,57.3201904 43.5068359,57.3201904 C43.3487956,57.3201904 42.8146973,57.3933919 41.904541,57.5397949 C42.2438151,56.6841634 42.4134521,56.2563477 42.4134521,56.2563477 C42.4134521,56.2563477 42.9849447,56.1762695 44.1279297,56.0161133 Z M50.375,53.2070312 L50.8560791,56.0161133 L48.7249756,57.0090637 L48.8974609,53.5325928 L50.375,53.2070312 Z M47.1011353,54.4538574 L48,54.6760254 L48,56.0161133 L46.5314941,56.7779541 L46.2022705,55.7779541 L47.1011353,54.4538574 Z M54.3927342,52.0989312 L55.4061279,53.5325928 L55.8354492,54.9460449 L54.9393311,55.3682861 L53.357666,52.9460449 L54.3927342,52.0989312 Z M52.4055176,53.2070312 L53.0310545,54.1088257 L51.8082275,54.6850586 C51.4573161,54.0362956 51.2818604,53.6521403 51.2818604,53.5325928 C51.2818604,53.4130452 51.6564128,53.3045247 52.4055176,53.2070312 L52.4055176,53.2070312 Z M60.1435547,50.9978027 L61.8244629,52.338623 L60.5234375,53.7336087 L58.7941895,52.0989312 L60.1435547,50.9978027 Z M54.9393311,49.0059814 L56.7597656,51.338623 L55.4061279,51.852417 L54.010498,49.7264404 L54.9393311,49.0059814 Z M57.8178711,49.0059814 L59.3161621,50.4291992 L58.0379639,51.1734619 C57.1858317,50.2795003 56.7597656,49.7700195 56.7597656,49.6450195 C56.7597656,49.5200195 57.1124674,49.3070068 57.8178711,49.0059814 Z M65.5666504,48.3128052 L66.6878662,49.3128052 L66.4731317,50.5506592 L65.0716553,49.7264404 L65.5666504,48.3128052 Z M60.4471436,48.4521484 C60.4471436,48.4521484 60.8433431,48.7599691 61.6357422,49.3756104 C61.451416,49.9075114 61.2909749,50.1734619 61.1544189,50.1734619 C61.017863,50.1734619 60.546346,49.9075114 59.7398682,49.3756104 C60.2113851,48.7599691 60.4471436,48.4521484 60.4471436,48.4521484 Z M70.6226807,42.4297086 L72.5384521,42.8206787 L74.8416748,43.484375 L74.8416748,45.1651611 C73.7986247,44.9727783 73.2248535,44.8765869 73.1203613,44.8765869 C73.0158691,44.8765869 72.3705241,44.6866659 71.1843262,44.3068237 L71.1843262,44.3068237 L70.6226807,43.8062744 L70.6226807,42.4297086 Z M75.8643799,41.2432357 C76.4737549,41.3520402 76.9095052,41.4755515 77.1716309,41.6137695 C77.2807617,41.9578451 77.4009603,42.5221965 77.5322266,43.3068237 L76.0534668,42.9046631 L75.8643799,41.2432357 Z M73.7996826,40.5253906 L75.0561523,40.8210966 L75.2624512,42.7021484 C74.4114583,42.4548606 73.9859619,42.3052714 73.9859619,42.2533807 C73.9859619,42.20149 73.9238688,41.6254933 73.7996826,40.5253906 L73.7996826,40.5253906 Z" id="形状结合" fill="#C95138"></path>
                <path d="M45.03479,61.4023438 L44.5314941,63.0559082 L42.8074951,63.3464877 L42.3961182,63.0559082 L43.2189941,61.8686727 L45.03479,61.4023438 Z M48,59.7313843 L48.3113086,60.7170766 L48,63.0559082 L45.6907349,63.0559082 L46.3475342,60.8686727 L48,59.7313843 Z M51.2818604,60.8059082 L51.0457764,62.625529 L50.4772949,62.8686727 L49.1459961,62.8686727 L49.536499,61.8686727 L51.2818604,60.8059082 Z M54.7227783,59.4417114 L55.1844482,59.9862286 L54.9393311,62.09729 L52.1564574,62.5368652 L52.6102295,60.3381348 L54.7227783,59.4417114 Z M56.4188232,55.7779541 L58.1096191,57.7313843 L59.7398682,60.6879272 L56.6500244,62.09729 L56.0488281,59.7170766 L54.9393311,56.524292 L56.4188232,55.7779541 Z M50.8560791,57.3153076 L51.4627686,58.0090637 L51.2818604,60.0769043 L49.4227295,60.8686727 C49.2587393,60.5542798 49.1676337,60.3796172 49.1494126,60.3446846 L49.1459961,60.3381348 L49.1459961,58.2054443 L50.8560791,57.3153076 Z M58.6679687,53.5325928 L60.5391846,55.1080475 L62.4353638,58.0090637 L60.5391846,59.4417114 C59.4283447,58.0241089 58.8729248,57.2132263 58.8729248,57.0090637 C58.8729248,56.8141812 58.2311182,56.0292582 56.947505,54.6542947 L56.7597656,54.4538574 L58.6679687,53.5325928 Z M71.7565918,51.8712769 C75.0695801,53.1128314 76.7260742,53.7336087 76.7260742,53.7336087 C76.7260742,53.7336087 77.8732503,54.361041 80.1676025,55.6159058 L82.6262207,57.3153076 L82.6262207,58.9376221 L79.3710937,57.0090637 C76.6710612,55.5192566 75.3210449,54.774353 75.3210449,54.774353 C75.3210449,54.774353 73.9421387,54.4274382 71.1843262,53.7336087 L71.7565918,51.8712769 Z M63.894043,54.4538574 L65.7757568,55.6159058 L67.0528564,57.0090637 L64.7720947,58.7313843 L62.4353638,55.7779541 L63.894043,54.4538574 Z M53.357666,55.1080475 L54.010498,56.7779541 L52.3341064,57.3153076 L51.9219971,55.7779541 L53.357666,55.1080475 Z M69.4287109,47.1651611 L73.0205078,48.5332031 L76.6927185,49.9104004 L80.5482178,51.338623 L82.9074707,52.6599121 L83.8201904,53.6113281 C83.8710406,54.1608062 83.9233274,54.7414946 83.9770508,55.3533936 C84.0200295,55.8429127 84.0191461,56.3326915 83.9744005,56.82273 L83.9326172,57.1903076 L82.6262207,55.6159058 L81.7209473,54.774353 L79.1507568,53.5325928 L74.3977051,51.4667358 L68.9896851,49.0059814 L69.4287109,47.1651611 Z M68.4639893,53.5325928 L70.4447021,54.7155762 L68.4639893,56.0161133 L67.0528564,54.7155762 L68.4639893,53.5325928 Z M62.4353638,49.7264404 L64.9425049,50.9978027 L67.3566895,52.6452637 L66.2260742,54.0161133 L63.6929932,52.0989312 L61.8244629,50.7264404 L62.4353638,49.7264404 Z M67.9039307,49.7264404 L70.6226807,51.5167236 L69.944458,53.2070313 L67.3566895,51.338623 L67.9039307,49.7264404 Z M77.3306885,46.9780273 L79.8321533,47.7065005 L82.1259766,49.0059814 L82.9880371,49.8096313 C83.3007026,50.1185342 83.5157905,50.4617756 83.6333008,50.8393555 C83.7508111,51.2169353 83.7910332,51.6940472 83.7539673,52.2706909 C83.1351115,51.7347209 82.759196,51.4667358 82.6262207,51.4667358 C82.4995776,51.4667358 81.6978294,51.050405 80.2209761,50.2177434 L79.9943848,50.0897217 L77.1716309,48.7264404 L77.3306885,46.9780273 Z M78.8704586,44.8765869 L80.3416748,45.3068237 L81.7369995,45.9860229 C82.0407589,46.4011685 82.2391435,46.8017015 82.3321533,47.1876221 C82.4251631,47.5735426 82.487358,48.0204827 82.5187378,48.5284424 L81.7513428,48 L80.3416748,47.1651611 L79.1326904,46.6078067 L78.8704586,44.8765869 Z M71.7349854,45.3068237 L75.8643799,46.4901839 L75.6782227,48.3128052 L71.7349854,46.9847412 L71.7349854,45.3068237 Z M75.8643799,43.8062744 L78.1916642,44.5209961 L78.1916642,46.1651611 L76.1343994,45.3068237 L75.8643799,43.8062744 Z M79.1132812,42.4297086 L79.8046875,42.7021484 L80.6218872,43.222168 C80.7572527,43.3761097 80.8763323,43.6073922 80.979126,43.9160156 C81.0819196,44.224639 81.0857649,44.5930676 80.9906616,45.0213013 L79.8046875,44.3068237 L79.1132812,43.8092658 L79.1132812,42.4297086 Z M77.8796387,41.8210966 L78.557373,42.2533807 L78.8704586,43.2533807 L78.557373,43.7974349 L78.1916642,43.3068237 L77.8796387,41.8210966 Z M77.8953857,39.7858465 C78.7494545,39.8612892 79.2426754,39.9253026 79.3750486,39.9778866 C79.4613919,40.0121857 79.8655518,40.3064236 80.0837402,40.9021606 C80.2442627,41.3404478 80.2531738,41.6905658 80.1104736,41.9525146 L78.8704586,41.4066162 L77.8953857,39.7858465 Z" id="形状结合" fill="#B7351A"></path>
                <path d="M83.8083496,61.7373047 L84.854248,63.3481445 L84.3312988,64.098877 C85.3553874,64.7209473 85.8674316,65.7317708 85.8674316,67.1313477 C85.8674316,69.2307129 81.8134766,72 76.348877,72 C70.8842773,72 46.0639648,72 45.4602051,72 C44.8564453,72 44.2956543,71.550293 43.4189453,71.550293 C42.5422363,71.550293 42.5339355,72 41.7260742,72 C41.1875,72 37.3585612,72 30.2392578,72 L27.7744141,70.0690918 C26.9319661,72.0440267 25.0667318,72.5377604 22.1787109,71.550293 C17.8466797,70.0690918 12.7072754,66.1816406 11.5349121,64.9475098 C10.3625488,63.7133789 11.2055054,58.5783081 11.5941772,58.5783081 C11.9828491,58.5783081 11.0566406,60.1940918 13.2382813,61.1647949 C15.4199219,62.135498 21.5739746,63.5263672 30.9741211,63.5263672 C37.2408854,63.5263672 41.0184733,63.5263672 42.3068848,63.5263672 C51.8256022,62.1429036 57.1761068,61.2101237 58.3583984,60.7280273 C60.1318359,60.0048828 71.6201172,52.6345215 72.8969727,52.6345215 C74.1738281,52.6345215 79.2919922,55.6474609 80.9094238,56.916748 C82.5268555,58.1860352 83.4526367,58.2404785 83.4526367,57.8525391 C83.4526367,57.5939128 83.6080526,56.6445109 83.9188843,55.0043335 C84.1938273,57.958964 84.3312988,59.649821 84.3312988,60.0769043 C84.3312988,60.5039876 84.1569824,61.0574544 83.8083496,61.7373047 Z" id="路径-72" fill="#967261"></path>
                <path d="M83.8083496,61.7373047 L84.854248,63.3481445 L84.3312988,64.098877 C85.3553874,64.7209473 85.8674316,65.7317708 85.8674316,67.1313477 C85.8674316,69.2307129 81.8134766,72 76.348877,72 C70.8842773,72 46.0639648,72 45.4602051,72 C44.8564453,72 44.2956543,71.550293 43.4189453,71.550293 C42.5422363,71.550293 42.5339355,72 41.7260742,72 C41.1875,72 37.3585612,72 30.2392578,72 L27.7744141,70.0690918 C26.9319661,72.0440267 25.0667318,72.5377604 22.1787109,71.550293 C17.8466797,70.0690918 12.7072754,66.1816406 11.5349121,64.9475098 C10.3625488,63.7133789 10.9597168,58.6970215 11.5495605,58.5308838 C12.1394043,58.3647461 11.0974121,60.7666016 13.2790527,61.7373047 C15.4606934,62.7080078 21.6147461,64.098877 31.0148926,64.098877 C37.2816569,64.098877 41.0592448,64.098877 42.3476563,64.098877 C51.8663737,62.7154134 57.2168783,61.7826335 58.3991699,61.3005371 C60.1726074,60.5773926 71.6608887,53.2070312 72.9377441,53.2070312 C74.2145996,53.2070312 79.3327637,56.2199707 80.9501953,57.4892578 C82.567627,58.7585449 83.4934082,58.8129883 83.4934082,58.4250488 C83.4934082,58.1664225 83.6352336,57.0261841 83.9188843,55.0043335 C84.1938273,57.958964 84.3312988,59.649821 84.3312988,60.0769043 C84.3312988,60.5039876 84.1569824,61.0574544 83.8083496,61.7373047 Z" id="路径-72" fill="#E9E2CB"></path>
                <path d="M11.9626586,60.8059082 L12.0800781,60.8623581 C12.3519287,61.1871185 12.7336426,61.4946289 13.2790527,61.7373047 C15.4606934,62.7080078 21.6147461,64.098877 31.0148926,64.098877 L39.2816878,64.0984262 C25.917163,65.3772126 18.4390711,65.970299 16.8474121,65.8776855 C13.884847,64.057373 12.2565958,62.3667806 11.9626586,60.8059082 L11.9626586,60.8059082 Z" id="形状结合" fill="#F7EFDA"></path>
                <path d="M84.6374941,63.6571367 L84.3312988,64.098877 C85.1728713,64.6100801 85.6686513,65.3838151 85.8186388,66.4200821 L85.5485232,66.5733557 C83.8880383,67.4464005 78.7092736,69.1578412 69.9934839,69.2607632 L69.1660156,69.265625 L46.5314941,69.265625 L50.9621582,67.0192261 C52.0673014,66.4687297 52.8006999,66.1165365 53.1623535,65.9626465 C54.2473145,65.5009766 62.0429688,65.3554688 70.5366211,64.9968262 C75.7271864,64.7776557 80.3519592,64.3443813 84.4109395,63.6970028 L84.6374941,63.6571367 Z" id="路径" fill="#8C7140"></path>
                <path d="M82.0531476,67.3730954 L81.9897451,67.4208205 C81.7951705,67.5474879 81.531088,67.7802115 81.1017429,68.0524926 C78.4508089,68.6696963 74.7485327,69.2046123 69.9934839,69.2607632 L69.1660156,69.265625 L46.5314941,69.265625 L48.7859481,68.1248006 L56.0376121,68.1887999 C66.931287,68.2516548 73.4848507,68.1139331 75.6983032,67.7756348 L76.9704556,67.589566 C80.2388798,67.1341872 82.4507417,67.0115561 82.0531476,67.3730954 L82.0531476,67.3730954 Z" id="路径" fill="#B09462"></path>
                <path d="M74.2744141,66.2545166 C69.0131022,66.6592204 62.6497803,66.8589274 55.1844482,66.8536377 C53.4465332,66.8180054 52.7340088,66.6872531 53.046875,66.4613809 C53.3597412,66.2355086 54.0722656,66.1316621 55.1844482,66.1498413 C64.8824958,66.1316621 73.0455818,65.7473237 79.6737061,64.9968262 C82.6863231,64.4587402 82.1663818,65.6474609 74.2744141,66.2545166 Z" id="形状结合" fill="#F1F1E4"></path>
                <path d="M84.6374941,63.6571367 L84.3312988,64.098877 C85.1728713,64.6100801 85.6686513,65.3838151 85.8186388,66.4200821 L85.5485232,66.5733557 C84.7604493,66.9877068 83.1798844,67.5909063 80.8048244,68.1213679 C81.2579275,67.7471481 81.6530668,67.169806 81.9897451,66.3903809 C82.4683276,65.2824416 81.8058771,64.5268634 81.2416218,64.1442352 C82.3339203,64.0090301 83.3903164,63.859785 84.4109395,63.6970028 L84.6374941,63.6571367 Z" id="形状结合" fill="#B6A369"></path>
                <path d="M84.3312988,60.0769043 C84.3312988,60.5039876 84.1569824,61.0574544 83.8083496,61.7373047 L84.0529297,62.1139043 L44.1279297,64.9968262 C67.2678906,62.9164404 79.6763627,61.7599234 81.353346,61.527275 L81.4008789,61.5205078 C82.8758138,61.304362 83.8526204,60.8231608 84.3312988,60.0769043 L84.3312988,60.0769043 Z" id="形状结合" fill="#B5A475"></path>
                <path d="M72.9377441,53.2070312 C74.2145996,53.2070312 79.3327637,56.2199707 80.9501953,57.4892578 C82.567627,58.7585449 83.4934082,58.8129883 83.4934082,58.4250488 C83.4934082,58.1664225 83.6401164,57.0083211 83.9335327,54.9507446 C84.050271,55.6403697 84.1209904,56.1284678 84.1456909,56.4150391 C84.3292898,58.545122 84.3312988,59.7215354 84.3312988,60.0769043 C84.3312988,60.4081452 84.226441,60.8154104 84.0167253,61.2987001 C83.8332025,61.5329127 83.6480808,61.6656386 83.4612553,61.6970215 C82.9045656,61.7905341 60.8425293,63.2381463 17.2751465,66.039858 C24.7128673,65.2952465 31.0875008,64.6482045 36.3990468,64.0987319 L42.3476563,64.098877 L42.3476563,64.098877 C51.8663737,62.7154134 57.2168783,61.7826335 58.3991699,61.3005371 C60.1726074,60.5773926 71.6608887,53.2070312 72.9377441,53.2070312 Z" id="形状结合" fill="#F0E7D4"></path>
                <path d="M11.0801163,64.0842851 C13.9568979,65.7682403 16.356462,67.1447677 18.2788086,68.2138672 C20.464681,69.4295247 22.8935547,70.0273437 25.5654297,70.0073242 C26.3365876,69.0642716 26.9398794,68.5593728 27.3753052,68.4926278 C29.0382599,68.2377187 30.8726137,70.0073242 31.2929077,70.0073242 L31.2929077,70.0073242 L40.8682251,70.0073242 C41.7732343,70.0073242 43.0612336,68.4926278 43.7886872,68.4926278 C44.6688494,68.4926278 45.6726668,70.0073242 46.1011353,70.0073242 C46.8837326,70.0073242 72.0085573,70.0791016 78.3750486,69.265625 C81.7424953,68.8353505 84.2178423,67.8507441 85.8010896,66.3118058 C85.8453577,66.5669232 85.8674316,66.840756 85.8674316,67.1313477 C85.8674316,69.2307129 81.8134766,72 76.348877,72 L45.4602051,72 L45.4602051,72 C44.8564453,72 44.2956543,71.550293 43.4189453,71.550293 C42.5422363,71.550293 42.5339355,72 41.7260742,72 L30.2392578,72 L30.2392578,72 L27.7744141,70.0690918 C26.9319661,72.0440267 25.0667318,72.5377604 22.1787109,71.550293 C17.8466797,70.0690918 12.7072754,66.1816406 11.5349121,64.9475098 C11.3447991,64.7473804 11.195903,64.4494094 11.0815127,64.0905918 Z" id="形状结合" fill="#C5B790"></path>
                <path d="M72.9703369,55.3682861 C75.5796305,56.2340088 77.2847493,57.5015055 78.0856934,59.1707764 C78.3748385,59.7733922 78.1617549,61.5025124 76.30896,62.0474854 C74.1226107,62.6905685 67.2981071,63.1797856 55.8354492,63.5151367 C67.8546549,61.4883626 74.0530599,60.0402425 74.4306641,59.1707764 C74.8082682,58.3013102 74.3214925,57.0338135 72.9703369,55.3682861 Z" id="路径-75" fill="#D5C898"></path>
                <path d="M72.9703369,55.3682861 C75.7626546,57.3083903 76.8968506,58.8779297 76.3729248,60.0769043 C75.8600427,61.2506061 69.1518295,62.3736172 56.2482853,63.4459377 L55.8354492,63.5151367 C67.8546549,61.4883626 74.0530599,60.0402425 74.4306641,59.1707764 C74.7911044,58.3408314 74.3639589,57.1482181 73.1492277,55.5929364 L72.9703369,55.3682861 Z" id="形状结合" fill="#92703E"></path>
            </g>
        </g>
    </g>
</svg>