<?xml version="1.0" encoding="UTF-8"?>
<svg width="96px" height="96px" viewBox="0 0 96 96" version="1.1" xmlns="http://www.w3.org/2000/svg" xmlns:xlink="http://www.w3.org/1999/xlink">
    <title>鞋盒/耐克鞋盒/NEKE BOX</title>
    <defs>
        <rect id="path-1" x="0" y="0" width="96" height="96"></rect>
    </defs>
    <g id="icon" stroke="none" stroke-width="1" fill="none" fill-rule="evenodd">
        <g id="画板" transform="translate(-42.000000, -54.000000)">
            <g id="鞋盒/耐克鞋盒/NEKE-BOX" transform="translate(42.000000, 54.000000)">
                <g id="#" opacity="0">
                    <use fill="#FFFFFF" fill-rule="evenodd" xlink:href="#path-1"></use>
                    <rect stroke-opacity="0.5" stroke="#DDDDDD" stroke-width="6" stroke-linejoin="square" x="3" y="3" width="90" height="90"></rect>
                    <rect stroke-opacity="0.507785184" stroke="#DDDDDD" stroke-width="12" stroke-linejoin="square" x="6" y="6" width="84" height="84"></rect>
                </g>
                <path d="M14,24 L82,24 C83.1045695,24 84,24.8954305 84,26 L84,74 C84,75.1045695 83.1045695,76 82,76 L14,76 C12.8954305,76 12,75.1045695 12,74 L12,26 C12,24.8954305 12.8954305,24 14,24 Z" id="矩形" fill="#FF4A1C"></path>
                <path d="M12,72 C12,73.1045695 12.8954305,74 14,74 L14,74 L82,74 C83.1045695,74 84,73.1045695 84,72 L84,72 L84,74 C84,75.1045695 83.1045695,76 82,76 L14,76 C12.8954305,76 12,75.1045695 12,74 Z" id="形状结合" fill="#9B0000"></path>
                <path d="M11,22 L84,22 C85.1045695,22 86,22.8954305 86,24 L86,39 C86,39.5522847 85.5522847,40 85,40 L19,40 C14.0294373,40 10,35.9705627 10,31 L10,23 C10,22.4477153 10.4477153,22 11,22 Z" id="矩形备份" fill="#9B0000"></path>
                <path d="M84,22 C85.1045695,22 86,22.8954305 86,24 L86,37 C86,37.5522847 85.5522847,38 85,38 L18,38 C13.581722,38 10,34.418278 10,30 L10,23 C10,22.4477153 10.4477153,22 11,22 L42.2519421,21.9996392 C43.1399022,25.4502767 46.2721912,28 50,28 C53.7278088,28 56.8600978,25.4502767 57.7480579,21.9996392 L84,22 Z" id="形状结合" fill="#FF4A1C"></path>
                <path d="M61.2290807,26.4023162 C59.5887064,28.3287309 58.0158993,30.7176578 58,32.5032936 C57.9939856,33.1751481 58.2084744,33.761672 58.7229486,34.2059228 C59.4633665,34.8457368 60.2791544,35.0713485 61.0909579,35.0726809 C62.2772867,35.0743367 63.4553149,34.5957213 64.3776831,34.2266744 C65.9310666,33.6054538 83.1022883,26.1486483 83.1022883,26.1486483 C83.2679693,26.0656418 83.2369248,25.9622157 83.0295746,26.0138458 C82.945904,26.0347634 64.3360138,31.078072 64.3360138,31.078072 C63.9835088,31.1777676 63.6192628,31.2299144 63.2529451,31.2331282 C61.8227432,31.2415948 60.5500876,30.4477207 60.5603804,28.7748078 C60.5643647,28.1202186 60.7647424,27.3308268 61.2290807,26.4023162 L61.2290807,26.4023162 Z" id="路径" fill="#FFFFFF" fill-rule="nonzero"></path>
                <path d="M60,50 L60,70 L16,70 L16,50 L60,50 Z M59,51 L17,51 L17,69 L59,69 L59,51 Z" id="矩形" fill="#FFFFFF" fill-rule="nonzero"></path>
                <rect id="矩形" fill="#FFFFFF" x="16" y="50" width="8" height="20"></rect>
                <rect id="矩形" fill="#FFFFFF" x="26" y="52" width="30" height="2"></rect>
                <rect id="矩形备份-3" fill="#FFFFFF" x="26" y="64" width="20" height="1"></rect>
                <rect id="矩形备份-4" fill="#FFFFFF" x="26" y="66" width="10" height="2"></rect>
                <polygon id="矩形备份-5" fill="#FFFFFF" points="50 67.0016479 56 67.0016479 56 68.0016479 50 68.0016479"></polygon>
                <rect id="矩形备份-6" fill="#FFFFFF" x="36" y="58" width="6" height="1"></rect>
                <rect id="矩形备份-10" fill="#000000" x="18" y="52" width="4" height="1"></rect>
                <rect id="矩形备份-11" fill="#000000" x="18" y="54" width="4" height="1"></rect>
                <rect id="矩形备份-12" fill="#000000" x="18" y="56" width="4" height="1"></rect>
                <rect id="矩形备份-13" fill="#000000" x="18" y="60" width="4" height="1"></rect>
                <rect id="矩形备份-14" fill="#000000" x="18" y="62" width="4" height="1"></rect>
                <rect id="矩形备份-15" fill="#000000" x="18" y="64" width="4" height="1"></rect>
                <rect id="矩形备份-16" fill="#000000" x="18" y="66" width="4" height="1"></rect>
                <rect id="矩形备份-8" fill="#FFFFFF" x="46" y="58" width="6" height="1"></rect>
                <rect id="矩形备份-7" fill="#FFFFFF" x="36" y="60" width="6" height="1"></rect>
                <rect id="矩形备份-9" fill="#FFFFFF" x="46" y="60" width="6" height="1"></rect>
                <path d="M28.56,61.664 L28.56,56 L27.488,56 C27.44,56.1653333 27.3786667,56.3053333 27.304,56.42 C27.2293333,56.5346667 27.1333333,56.6253333 27.016,56.692 C26.8986667,56.7586667 26.7573333,56.8066667 26.592,56.836 C26.4266667,56.8653333 26.2293333,56.88 26,56.88 L26,57.808 L27.072,57.808 L27.072,61.664 L28.56,61.664 Z M31.848,61.752 C32.1786667,61.752 32.4653333,61.712 32.708,61.632 C32.9506667,61.552 33.1506667,61.404 33.308,61.188 C33.4653333,60.972 33.5826667,60.6786667 33.66,60.308 C33.7373333,59.9373333 33.776,59.464 33.776,58.888 C33.776,58.3173333 33.7373333,57.8453333 33.66,57.472 C33.5826667,57.0986667 33.4653333,56.8026667 33.308,56.584 C33.1506667,56.3653333 32.9506667,56.2133333 32.708,56.128 C32.4653333,56.0426667 32.1786667,56 31.848,56 C31.5173333,56 31.2306667,56.0426667 30.988,56.128 C30.7453333,56.2133333 30.5453333,56.3653333 30.388,56.584 C30.2306667,56.8026667 30.1133333,57.0986667 30.036,57.472 C29.9586667,57.8453333 29.92,58.3173333 29.92,58.888 C29.92,59.464 29.9586667,59.9373333 30.036,60.308 C30.1133333,60.6786667 30.2306667,60.972 30.388,61.188 C30.5453333,61.404 30.7453333,61.552 30.988,61.632 C31.2306667,61.712 31.5173333,61.752 31.848,61.752 Z M31.848,60.848 C31.6933333,60.848 31.5813333,60.7773333 31.512,60.636 C31.4426667,60.4946667 31.408,60.224 31.408,59.824 L31.408,57.952 C31.408,57.552 31.4426667,57.2813333 31.512,57.14 C31.5813333,56.9986667 31.6933333,56.928 31.848,56.928 C32.0026667,56.928 32.1146667,56.9986667 32.184,57.14 C32.2533333,57.2813333 32.288,57.552 32.288,57.952 L32.288,59.824 C32.288,60.224 32.2533333,60.4946667 32.184,60.636 C32.1146667,60.7773333 32.0026667,60.848 31.848,60.848 Z" id="10" fill="#FFFFFF" fill-rule="nonzero"></path>
            </g>
        </g>
    </g>
</svg>