<?xml version="1.0" encoding="UTF-8"?>
<svg width="96px" height="96px" viewBox="0 0 96 96" version="1.1" xmlns="http://www.w3.org/2000/svg" xmlns:xlink="http://www.w3.org/1999/xlink">
    <title>Nike Air Max Verona</title>
    <defs>
        <rect id="path-1" x="0" y="0" width="96" height="96"></rect>
    </defs>
    <g id="icon" stroke="none" stroke-width="1" fill="none" fill-rule="evenodd">
        <g id="画板" transform="translate(-1086.000000, -406.000000)">
            <g id="Nike-Air-Max-Verona" transform="translate(1086.000000, 406.000000)">
                <g id="#" opacity="0">
                    <use fill="#FFFFFF" fill-rule="evenodd" xlink:href="#path-1"></use>
                    <rect stroke-opacity="0.5" stroke="#DDDDDD" stroke-width="6" stroke-linejoin="square" x="3" y="3" width="90" height="90"></rect>
                    <rect stroke-opacity="0.507785184" stroke="#DDDDDD" stroke-width="12" stroke-linejoin="square" x="6" y="6" width="84" height="84"></rect>
                    <rect stroke-opacity="0.319406703" stroke="#979797" stroke-width="10" stroke-linejoin="square" x="5" y="5" width="86" height="86"></rect>
                </g>
                <path d="M55.7827148,35.3934326 C56.8742676,35.9012451 59.2279053,37.868042 59.482666,38.2851562 C59.6525065,38.5632324 59.6525065,38.8286133 59.482666,39.0812988 C60.9444987,40.1285807 61.7881266,40.8244629 62.0135498,41.1689453 C62.3516846,41.6856689 62.2775879,43.3868408 62.1068115,43.8422852 C61.9360352,44.2977295 61.854187,44.4893799 61.9924316,44.6414795 C62.1306763,44.7935791 64.4908447,46.2028809 66.6033936,46.2176514 C68.7159424,46.2324219 69.7897949,46.0062256 70.6342773,43.8422852 C71.4787598,41.6783447 72.1877441,39.6942139 73.072998,39.3660889 C73.6631673,39.1473389 74.0223389,39.1634521 74.1505127,39.4144287 C74.5898031,39.168986 75.0607503,39.2565104 75.5633545,39.677002 C76.0659587,40.0974935 76.4313558,40.4508057 76.6595459,40.7369385 C77.0169678,39.3777262 77.4315999,38.4204102 77.9034424,37.8649902 C78.6112061,37.0318604 80.0651855,36.3000488 81.1616211,37.293335 C82.2580566,38.2866211 82.0721436,39.7584229 81.3583984,40.8161621 C80.6446533,41.8739014 79.052002,42.753418 78.8735352,43.2263184 C78.6950684,43.6992187 78.572876,43.9398193 78.5821533,44.166626 C78.5914307,44.3934326 78.6954346,44.8289185 78.8735352,44.9127808 C79.0516357,44.9966431 79.1422729,45.0429077 79.3311768,45.4746704 C79.5200806,45.9064331 80.1352539,47.3530884 80.3608398,48.3635254 C80.5864258,49.3739624 80.8621826,50.5201416 80.8756104,50.8747559 C80.8845622,51.1111654 80.8845622,51.4539795 80.8756104,51.9031982 L80.8756104,55.96875 C72.5760498,57.1940104 67.1345215,58.1184082 64.5510254,58.7419434 C60.6757812,59.6772461 51.0437012,61.6867676 47.1160889,62.8481445 C43.1884766,64.0095215 31.0231934,65.8728027 22.0578613,65.2580566 C13.0925293,64.6433105 11.8330078,64.2210693 11.3347168,64.0775146 C11.0025228,63.9818115 10.796346,63.5720215 10.7161865,62.8481445 C10.5879313,61.4538574 11.3777262,60.1988932 13.0855713,59.083252 C15.6473389,57.40979 16.5535889,56.9897461 17.3144531,56.8138428 C18.0753174,56.6379395 27.503418,53.0623779 28.545166,52.6639404 C29.5869141,52.2655029 30.2253418,51.404541 30.6677246,51.2126465 C31.1101074,51.020752 32.1170654,50.4550781 32.3254395,50.2670898 C32.5338135,50.0791016 32.402771,49.6934814 32.8255615,49.512085 C33.1074219,49.391154 33.3911947,49.4096069 33.6768799,49.5674438 C34.5730387,49.0763957 35.141276,48.7509969 35.3815918,48.5912476 C35.7420654,48.3516235 35.7809448,47.4038696 36.2973022,47.223877 C36.8136597,47.0438843 37.1784058,47.3729858 37.4179077,47.223877 C37.6574097,47.0747681 39.7388306,45.7711182 40.2168579,45.3596191 C40.5355428,45.0852865 40.803304,44.8623861 41.0201416,44.690918 C41.5957438,43.7636719 42.0678711,43.275472 42.4365234,43.2263184 C42.989502,43.1525879 43.4178467,43.1582031 43.6156006,43.0270996 C43.8133545,42.8959961 44.3613281,42.7908936 44.4599609,42.6853027 C44.5585937,42.5797119 45.5324707,41.75 45.6141357,41.4453125 C45.6958008,41.140625 45.8023682,40.3172607 46.2392578,40.1911621 C46.6761475,40.0650635 46.7006836,39.8818359 47.1160889,39.9240723 C47.5314941,39.9663086 47.9022261,40.1893311 48.129763,39.9240723 C48.3572998,39.6588135 50.1566162,38.3597412 50.2429199,38.2851562 C50.3292236,38.2105713 50.0124512,37.3873291 50.4047852,37.0526123 C50.6663411,36.8294678 50.9604085,36.7243652 51.2869873,36.7373047 C52.6490479,35.7559408 53.4916992,35.2261556 53.8149414,35.1479492 C54.2998047,35.0306396 54.6911621,34.8856201 55.7827148,35.3934326 Z M78.0952759,38.3796387 C77.6055908,39.1792603 77.1997681,39.9160767 77.1792603,40.708252 C77.1541138,40.9762573 77.0137939,41.0487061 77.1792603,41.4061279 C77.3447266,41.7635498 77.5790405,41.9464722 77.7044067,42.336853 C77.7879842,42.5971069 77.8993123,42.9735107 78.0383911,43.4660645 C78.3783162,43.0392253 78.6741536,42.7166138 78.9259033,42.49823 C79.3035278,42.1706543 80.7457275,40.9282837 80.9332886,40.2302246 C81.1208496,39.5321655 81.2459717,37.541626 80.1636353,37.3687134 C79.0812988,37.1958008 78.5849609,37.5800171 78.0952759,38.3796387 Z" id="形状结合" fill="#E4E2DE"></path>
                <path d="M59.1767578,43.7214355 C57.8704427,43.3999837 56.9865746,43.367034 56.5251536,43.6225863 C55.8330221,44.0059147 53.8113202,45.1042163 56.9304199,46.7399902 C60.0495196,48.3757642 69.3686523,48.026001 71.204834,46.7106934 C73.0410156,45.3953857 72.7519531,45.2013317 73.019043,43.3395575 C73.1971029,42.0983746 73.7008464,41.1175192 74.5302734,40.3969913 C78.227558,46.614303 78.4191725,50.1204915 75.1051168,50.9155566 C70.1340332,52.1081543 53.600708,53.8478539 52.2240601,49.6473156 C50.8474121,45.4467773 49.8812256,42.9567565 52.2240601,41.8185882 C54.5668945,40.6804199 55.4892578,40.7453495 56.1164551,41.1342714 C56.5345866,41.3935527 57.5546875,42.2559408 59.1767578,43.7214355 Z" id="路径-760" fill="#DBD9D6"></path>
                <path d="M32.6032166,51.9729742 L34.4288039,51.7573234 C35.838628,51.6034204 37.0411735,51.5582293 37.4191895,52.0827637 C37.9547121,52.825854 37.5126953,58.1501591 35.5566406,58.8723208 L34.4567669,59.2866822 C32.581649,59.9772562 30.0334245,60.712952 26.2668333,59.8014252 L25.0922689,59.5249879 C21.3987959,58.6822239 19.8417788,58.5967604 17.992364,58.3794368 C17.0328365,58.2666833 15.9461481,58.0341537 15.1436153,57.7928736 C16.1128372,57.2280306 16.6729662,56.9865649 17.1421506,56.8574195 L17.3144531,56.8138428 C17.6523166,56.7357325 19.6992069,55.9872694 21.9619234,55.1443118 L21.0677285,55.7418805 C20.5452278,56.1091878 20.3559633,56.2945808 20.4993218,56.2983398 L24.2197666,56.3215912 C25.6939166,56.3394587 27.2572443,56.37662 28.2145833,56.4575408 L29.4950319,56.5960938 C31.2625472,56.7822975 33.3485704,56.8687594 34.4822991,55.5115108 C35.8427734,53.8828125 34.997313,54.347468 34.4822991,54.432401 C33.9672852,54.517334 31.7815422,54.2192888 32.0295651,53.4000497 C32.1949136,52.8538903 32.3964844,52.5418294 32.6342773,52.4638672 C30.9693923,52.757771 29.6640037,52.7991937 28.7181117,52.5881352 L28.545166,52.6639404 C29.2778375,52.3837155 29.8110088,51.8747053 30.2167886,51.5305776 C30.8636772,51.9325154 31.6604041,52.0780675 32.6032166,51.9729742 Z" id="路径" fill="#DCDAD6"></path>
                <path d="M78.8735352,44.9127808 C79.0261928,44.9846627 79.1145916,45.0289219 79.2556928,45.3119977 L79.4891445,45.8439062 C79.7505664,46.4676465 80.1803711,47.5551758 80.3608398,48.3635254 L80.7535791,50.1286152 C80.8228955,50.4644141 80.8702393,50.7329102 80.8756104,50.8747559 L80.8822754,51.2659055 C80.8826245,51.4185467 80.8811011,51.5934458 80.8777051,51.7906029 C80.7422094,51.7992028 80.6712853,51.7837652 80.6608887,51.7480469 L80.1643568,49.2612575 C80.0800897,48.860855 79.9975312,48.4889323 79.9280982,48.2158203 C79.7223242,47.4064157 79.1351383,45.7181634 78.8624222,44.9015229 L78.8735352,44.9127808 Z M80.6673723,36.9688708 L80.7358537,36.9985452 C80.8819256,37.0719681 81.0245667,37.1691742 81.1616211,37.293335 C82.2580566,38.2866211 82.0721436,39.7584229 81.3583984,40.8161621 C80.6446533,41.8739014 79.052002,42.753418 78.8735352,43.2263184 L78.6574402,43.7887573 C78.6057434,43.9363708 78.5775146,44.0532227 78.5821533,44.166626 L78.5903133,44.2076866 L78.3605155,43.8836627 C78.2435926,43.7130728 78.1394715,43.5327577 78.1194229,43.3568553 L78.0383911,43.4660645 C78.3103312,43.1245931 78.5540552,42.8498275 78.769563,42.6417676 L79.4253723,42.0556844 C79.996862,41.5334836 80.7968805,40.7379039 80.9332886,40.2302246 C81.1208496,39.5321655 81.2459717,37.541626 80.1636353,37.3687134 C79.7775551,37.3070337 79.4660385,37.3162443 79.20279,37.3899124 C79.6301664,37.0584087 80.1185276,36.9191158 80.6673723,36.9688708 Z" id="形状" fill="#B1B1B1"></path>
                <path d="M75.7750571,39.8590381 C76.2125896,40.2535498 76.5074192,40.5461833 76.6595459,40.7369385 C76.8743896,40.9543457 77.0137939,41.0487061 77.1792603,41.4061279 C77.3447266,41.7635498 77.5790405,41.9464722 77.7044067,42.336853 L77.9582739,43.1844702 C77.9838696,43.273689 78.0105754,43.3675537 78.0383911,43.4660645 C78.2857666,43.7387695 78.6954346,44.8289185 78.8735352,44.9127808 C79.0261928,44.9846627 79.1145916,45.0289219 79.2556928,45.3119977 L79.4891445,45.8439062 C79.7505664,46.4676465 80.1803711,47.5551758 80.3608398,48.3635254 L80.7535791,50.1286152 C80.8228955,50.4644141 80.8702393,50.7329102 80.8756104,50.8747559 L80.8820557,51.2095215 C80.8831299,51.4024414 80.8809814,51.633667 80.8756104,51.9031982 L80.8756104,55.96875 L77.4936374,56.4754414 C71.0796546,57.451984 66.7654506,58.2074847 64.5510254,58.7419434 L62.7662323,59.1584932 C58.485422,60.1356121 51.2962186,61.674687 47.6597946,62.6920087 L47.1160889,62.8481445 C46.740684,62.95915 46.2900222,63.0765679 45.7740906,63.1976215 L45.8156601,63.3193039 C44.9375,60.8544922 42.0921174,55.9543922 42.5865861,53.443993 C42.9162318,51.7703935 44.1252312,49.7637381 46.2135842,47.4240267 C50.2435002,44.311446 51.7016602,45.3173828 55.1010742,47.0170898 C58.5004883,48.7167969 63.9960937,48.4438477 66.9970703,47.9951172 C69.9980469,47.5463867 72.9046326,46.6667786 73.1240234,45.4570313 C73.3747559,44.0744629 72.8492509,40.1828799 74.8813477,39.854248 C75.1126124,39.8168478 75.4172972,39.8189575 75.7750571,39.8590381 Z" id="路径" fill="#CBCAC6"></path>
                <path d="M79.0979625,37.4249339 C79.5838752,37.0249053 80.0917773,36.9154257 80.5679223,36.9278531 C80.7731812,37.0022658 80.9727082,37.1221944 81.1616211,37.293335 C82.2580566,38.2866211 82.0721436,39.7584229 81.3583984,40.8161621 C80.6446533,41.8739014 79.052002,42.753418 78.8735352,43.2263184 L78.6574402,43.7887573 C78.6057434,43.9363708 78.5775146,44.0532227 78.5821533,44.166626 C78.5914307,44.3934326 78.6954346,44.8289185 78.8735352,44.9127808 C79.0261928,44.9846627 79.1145916,45.0289219 79.2556928,45.3119977 L79.4891445,45.8439062 C79.7505664,46.4676465 80.1803711,47.5551758 80.3608398,48.3635254 L80.7535791,50.1286152 C80.8228955,50.4644141 80.8702393,50.7329102 80.8756104,50.8747559 L80.8820557,51.2095215 C80.8831299,51.4024414 80.8809814,51.633667 80.8756104,51.9031982 L80.8753164,53.8098408 C77.6832461,54.2441311 75.1654683,49.9708902 75.3529053,48.1014404 C75.5482178,46.1534424 75.2354736,42.8863525 75.1225586,41.7585449 C75.0096436,40.6307373 75.4650879,39.8344723 75.9083252,39.9696045 C76.2342903,40.26407 76.4864112,40.5198409 76.6595459,40.7369385 L76.6771168,40.6689242 L77.1005936,41.1324513 L77.1005936,41.1324513 C77.1039703,41.2037617 77.1254392,41.2898697 77.1792603,41.4061279 C77.3447266,41.7635498 77.5790405,41.9464722 77.7044067,42.336853 L77.9582739,43.1844702 C77.9838696,43.273689 78.0105754,43.3675537 78.0383911,43.4660645 C78.3103312,43.1245931 78.5540552,42.8498275 78.769563,42.6417676 L79.4253723,42.0556844 C79.996862,41.5334836 80.7968805,40.7379039 80.9332886,40.2302246 C81.1208496,39.5321655 81.2459717,37.541626 80.1636353,37.3687134 C79.7700584,37.3058361 79.4539689,37.3166287 79.1875095,37.3942766 L79.0979625,37.4249339 Z" id="路径" fill="#B3B2B2"></path>
                <path d="M55.7827148,35.3934326 C56.8742676,35.9012451 59.2279053,37.868042 59.482666,38.2851562 C59.6525065,38.5632324 59.6525065,38.8286133 59.482666,39.0812988 L60.1620653,39.5756565 C61.2085357,40.3507803 61.8256972,40.8818766 62.0135498,41.1689453 C62.3516846,41.6856689 62.2775879,43.3868408 62.1068115,43.8422852 L61.9786687,44.1930363 C61.9468144,44.2894945 61.927077,44.3676428 61.9232278,44.4339284 C61.7052224,44.8661625 61.5733406,45.1820909 61.5275879,45.3814697 C61.3842773,46.0059814 59.4627686,44.9942627 56.9174805,43.9527588 C54.5061549,42.9660709 51.4352845,43.5540738 48.8936068,45.1127978 L48.4750977,45.3814697 C45.8581543,47.1386719 34.7043457,52.1938477 33.1802979,52.1988525 L29.3802298,52.2104633 C29.9527,51.8087166 30.3581991,51.3469109 30.6677246,51.2126465 C31.1101074,51.020752 32.1170654,50.4550781 32.3254395,50.2670898 C32.5338135,50.0791016 32.402771,49.6934814 32.8255615,49.512085 C33.1074219,49.391154 33.3911947,49.4096069 33.6768799,49.5674438 L34.9728947,48.8408489 C35.155241,48.734354 35.2914734,48.6511536 35.3815918,48.5912476 C35.7420654,48.3516235 35.7809448,47.4038696 36.2973022,47.223877 C36.8136597,47.0438843 37.1784058,47.3729858 37.4179077,47.223877 L38.869049,46.2982966 C39.4340506,45.9295084 39.9962299,45.5495418 40.2168579,45.3596191 L40.8479652,44.8291626 C40.9085401,44.7798665 40.9659322,44.733785 41.0201416,44.690918 C41.5957438,43.7636719 42.0678711,43.275472 42.4365234,43.2263184 L43.1592712,43.1482239 C43.2932231,43.1320903 43.4074402,43.1127692 43.4979983,43.0822584 L43.6156006,43.0270996 C43.8133545,42.8959961 44.3613281,42.7908936 44.4599609,42.6853027 L44.9549669,42.2250705 C45.2480228,41.9458987 45.5687663,41.6145833 45.6141357,41.4453125 L45.7326207,40.9478443 C45.8221779,40.6211548 45.9662018,40.2699738 46.2392578,40.1911621 C46.6761475,40.0650635 46.7006836,39.8818359 47.1160889,39.9240723 C47.5314941,39.9663086 47.9022261,40.1893311 48.129763,39.9240723 C48.3572998,39.6588135 50.1566162,38.3597412 50.2429199,38.2851562 C50.3292236,38.2105713 50.0124512,37.3873291 50.4047852,37.0526123 C50.6663411,36.8294678 50.9604085,36.7243652 51.2869873,36.7373047 L52.2111435,36.0859528 C53.0379105,35.5192719 53.5725098,35.206604 53.8149414,35.1479492 L54.0749095,35.0853045 C54.4652634,34.9994865 54.8896262,34.9779497 55.7827148,35.3934326 Z" id="路径" fill="#E4E0DC"></path>
                <path d="M59.482666,38.2851562 C59.6525065,38.5632324 59.6525065,38.8286133 59.482666,39.0812988 L60.1620653,39.5756565 L60.7961109,40.0562535 C61.4616292,40.5747724 61.8674422,40.9456697 62.0135498,41.1689453 C62.3516846,41.6856689 62.2775879,43.3868408 62.1068115,43.8422852 L61.9786687,44.1930363 C61.9468144,44.2894945 61.927077,44.3676428 61.9232278,44.4339284 L61.6930759,44.9193707 C61.6317244,45.0604223 56.7058605,41.2214625 56.1176758,41.151123 C54.6523519,42.1497064 53.7022064,42.5035734 53.2672393,42.2127241 C52.6737816,41.815897 51.7835951,41.2206562 50.5966797,40.427002 C50.9538576,39.6259328 50.2807821,38.6132933 50.4494629,37.9172363 C50.5911205,37.3326901 51.8263891,36.9034463 52.3879395,36.6513672 C53.0648232,36.347515 58.4016777,38.0434151 59.2718231,38.0508924 C59.3820036,38.1517446 59.4498002,38.2313458 59.482666,38.2851562 Z" id="路径" fill="#C8C8C8"></path>
                <path d="M59.2718231,38.0508924 C59.3820036,38.1517446 59.4498002,38.2313458 59.482666,38.2851562 C59.6525065,38.5632324 59.6525065,38.8286133 59.482666,39.0812988 L59.7982911,39.3099386 C59.4029279,39.3268282 59.0980992,39.6891791 58.8838052,40.3969913 C58.5166016,41.6098633 60.4086914,42.6268479 60.4748535,43.974923 L60.4682392,44.1054566 L58.3350496,42.5616946 C57.2932943,41.8178775 56.3543444,41.1794256 56.1176758,41.151123 L55.9208817,41.2810744 L55.9032336,41.2477125 C55.2035012,39.8967976 55.3434611,38.4401006 57.0996078,37.5780383 L58.3224452,37.8815051 C58.763864,37.9840145 59.1024558,38.049437 59.2718231,38.0508924 Z" id="路径" fill="#C1C1C0"></path>
                <path d="M55.7827148,35.3934326 C56.8742676,35.9012451 59.2279053,37.868042 59.482666,38.2851562 C59.6414779,38.5451755 59.6517904,38.7940947 59.5136034,39.0319138 L59.5643311,39.142334 C59.3774821,38.7316081 59.1565348,38.5328369 58.9014893,38.5460205 C58.5189209,38.5657959 57.5041504,39.902832 56.463623,41.4436035 C55.4230957,42.984375 50.1643066,39.3653564 50.6131592,38.0249023 C50.7429592,37.6372674 50.9456156,37.2089703 51.2211284,36.7400111 L51.2869873,36.7373047 L52.2111435,36.0859528 L52.7764373,35.7085695 C53.2869496,35.3788137 53.6331177,35.1919403 53.8149414,35.1479492 L54.0749095,35.0853045 C54.4652634,34.9994865 54.8896262,34.9779497 55.7827148,35.3934326 Z" id="路径" fill="#EBEBEB"></path>
                <path d="M55.0064697,35.5570679 C55.1428833,35.6030884 54.3868408,35.8803711 54.7077026,36.18927 C55.0285645,36.4981689 57.8153076,37.4143066 58.0761108,37.5481567 C58.3369141,37.6820068 58.0661011,37.7316895 57.3989258,37.4584351 C56.7317505,37.1851807 54.9907227,36.9387207 54.4856567,36.8827515 C53.9805908,36.8267822 53.4377441,36.6377563 53.7010498,36.18927 C53.9643555,35.7407837 54.8700562,35.5110474 55.0064697,35.5570679 Z" id="路径-744" fill="#1D1D1D"></path>
                <path d="M51.953064,37.9920959 C52.402771,37.4054871 52.8562215,37.1381938 53.3134155,37.1902161 C53.9992065,37.2682495 54.1908875,37.5398865 54.2575073,37.8468933 C54.3241272,38.1539001 54.1353455,38.6208191 53.9931641,38.7956238 C53.8983765,38.9121602 53.8130391,39.0056051 53.7371521,39.0759583 L53.8845215,39.2254944 L54.8146973,38.1662292 L55.3428345,38.5970154 L54.5599976,39.504364 L54.7463074,39.6047974 L55.1932068,39.150177 L56.0595398,39.0974731 L56.4339294,39.3340454 L55.7094116,40.3112488 L55.5549927,40.4509583 L53.1446228,38.8705444 C53.3690694,38.532491 53.4901225,38.3161723 53.507782,38.2215881 C53.5342712,38.0797119 53.3130798,37.8339844 53.0930786,37.8468933 C52.8730774,37.8598022 52.5355835,38.2189941 52.5117188,38.2630615 C52.4958089,38.2924398 52.4657898,38.3214213 52.4216614,38.3500061 L51.953064,37.9920959 Z" id="路径-745" fill="#1D1D1D"></path>
                <path d="M45.5644531,46.6520996 L45.8097276,46.4525154 C47.1474564,45.3198558 50.586158,41.9354091 51.4956055,44.3140869 C52.4677734,46.8568115 55.8983154,49.6517334 59.4609375,50.6357422 C63.0235596,51.619751 68.0435791,51.8362896 72.6871338,51.8931885 C76.8586486,51.9443033 77.9184121,53.7813498 78.2966144,56.355111 L74.4548139,56.9470992 C69.6966594,57.6982675 66.3954707,58.2967805 64.5510254,58.7419434 L62.7662323,59.1584932 C58.485422,60.1356121 51.2962186,61.674687 47.6597946,62.6920087 L47.1160889,62.8481445 C43.1884766,64.0095215 31.0231934,65.8728027 22.0578613,65.2580566 L18.736161,65.0121994 C12.7558561,64.5309018 11.7634788,64.2010384 11.3347168,64.0775146 C11.0025228,63.9818115 10.796346,63.5720215 10.7161865,62.8481445 C10.5879313,61.4538574 11.3777262,60.1988932 13.0855713,59.083252 L13.8816748,58.5695634 C15.4822303,57.5515092 16.3039488,57.1309397 16.9190235,56.9254369 C17.1943946,57.0439504 17.4915237,57.1010603 17.8096924,57.0996094 L20.4483948,57.0417938 C21.6896362,57.0232544 23.0958862,57.0239868 24.0771484,57.0996094 C26.0396729,57.2508545 31.7529297,58.6364746 33.8295898,57.3112793 C35.2140299,56.4278158 35.7604167,54.5863444 35.46875,51.7868652 L39.4743689,49.85466 C42.9860901,48.1386261 45.0161182,47.071106 45.5644531,46.6520996 Z" id="路径" fill="#E5E5E5"></path>
                <path d="M51.4049157,44.1112324 L51.4956055,44.3140869 C52.4677734,46.8568115 55.8983154,49.6517334 59.4609375,50.6357422 C61.6163111,51.231064 64.3051224,51.5454758 67.1212786,51.7135764 C67.8642964,52.3189235 68.1978993,53.0389403 67.8481445,53.9213867 C67.2967292,55.3126317 64.4805377,57.4762166 60.943236,59.5709914 L54.3029645,61.0628363 C51.7562838,61.645858 49.3322775,62.2241169 47.6597946,62.6920087 L47.1160889,62.8481445 C44.8035164,63.5319616 39.6350772,64.4591175 33.9454977,64.9805027 C32.93888,64.8219549 31.9010608,64.6400075 30.8310547,64.4346566 L32.1518413,63.9629859 C37.6894405,61.9337461 40.8115155,60.0951727 41.5180664,58.4472656 C42.6594178,55.7852618 41.4551324,49.3630568 42.8222928,48.2013038 L42.8750244,48.1592279 L43.9414421,47.6024716 C44.7783899,47.1561508 45.3193936,46.8393602 45.5644531,46.6520996 L45.8097276,46.4525154 L46.8693663,45.5308455 C46.973329,45.4417673 47.0803511,45.3511017 47.1897912,45.2599593 L48.0889784,44.7249712 C48.9755459,44.2091165 49.8079791,43.7619383 50.4397997,43.484921 C50.8398188,43.492614 51.1772917,43.6747761 51.4049157,44.1112324 Z" id="路径" fill="#DEDEDE"></path>
                <path d="M59.4609375,50.6357422 C63.0235596,51.619751 68.0435791,51.8362896 72.6871338,51.8931885 C76.8586486,51.9443033 77.9184121,53.7813498 78.2966144,56.355111 L74.4548139,56.9470992 L72.1971495,57.3099589 C69.1114511,57.815705 66.785694,58.241765 65.2197943,58.5878771 L62.7662323,59.1584932 L55.463856,60.7983593 C52.5058876,61.4686092 49.5849603,62.1534266 47.6597946,62.6920087 L47.1160889,62.8481445 C45.2919171,63.3875438 41.6907811,64.0783522 37.4585819,64.6019819 L36.5517578,64.5273438 L36.5517578,64.5273438 C41.499177,62.9039001 44.4093333,60.9390564 45.2822266,58.6328125 C46.5493297,55.2850391 45.5761565,51.2941197 50.0294614,48.9876421 L50.4931641,48.7626953 C51.1407705,48.4684556 52.1347469,47.8583051 53.3853769,47.0532458 C54.947217,48.6297364 57.176934,50.0048924 59.4609375,50.6357422 Z" id="路径" fill="#D5D5D5"></path>
                <path d="M41.1178561,57.440918 C41.5668945,59.0185547 42.8369141,59.7749028 44.3417969,60.0466309 C45.8466797,60.318359 47.9414704,60.1181174 47.0712891,61.5124512 C46.4911682,62.442007 46.1473151,63.0369439 46.0397299,63.2972619 L65.0515137,51.9729742 C62.9504395,51.356408 61.4883626,51.0359896 60.6652832,51.0117187 C59.4306641,50.9753125 54.6733398,51.8181152 51.8046875,52.7954102 C48.9360352,53.7727051 47.4863281,53.9802246 46.2998047,53.8879395 C45.5087891,53.826416 44.6472982,53.366862 43.715332,52.5092773 C41.6843224,54.7452799 40.8184971,56.3891602 41.1178561,57.440918 Z" id="路径-757" fill="#BDBDBD"></path>
                <path d="M36.7830809,51.1516021 L36.456,51.324 L36.4981598,51.5940096 C36.6811142,53.0882739 36.5245369,54.5762445 36.0295712,56.0537744 L35.8280993,56.6073506 C35.2830432,57.9944368 33.9260237,58.670884 32.0284064,58.8332311 C31.3409144,58.8920482 30.6414302,58.8817899 29.8792927,58.8205493 L29.2951504,58.7653424 C29.0969415,58.7440441 28.573951,58.6816874 28.5811964,58.6825059 L27.9655964,58.5882685 C27.2903412,58.4779359 26.3041831,58.3080257 26.0395699,58.2664293 C23.8520837,57.9225626 21.8292732,57.6100564 19.9000244,57.7093506 C18.5738832,57.7776042 16.74016,57.6223022 15.7505856,57.4521856 L16.205796,57.2206452 C16.2749209,57.1874505 16.341028,57.1567576 16.4046478,57.1282721 L16.9679574,57.1467072 C17.7018303,57.1579517 18.702213,57.1329873 19.9495329,57.0687905 C21.6581319,56.9808526 23.3594161,57.084526 25.2196623,57.3374379 L26.5507433,57.5399708 L28.3391263,57.8384369 L28.7767116,57.9001252 L29.3806214,57.9699213 C30.3297713,58.071911 31.1612799,58.1044941 31.960213,58.0361428 C33.5874982,57.8969235 34.6747897,57.3549304 35.0835218,56.3147685 C35.6798897,54.7971016 35.888482,53.2767606 35.7108668,51.7480571 L35.6990809,51.6736021 L36.7830809,51.1516021 Z" id="路径" fill="#CCCCCC"></path>
                <path d="M50.9729187,43.6290984 C51.5450005,44.8103043 52.1657847,45.8234767 52.8352713,46.6686156 C54.3485333,48.5789104 57.7120915,50.5079071 60.6226671,51.0874372 C62.6522705,51.4915553 64.7951445,51.8784851 67.05126,52.2482096 C67.269266,52.2839357 67.417033,52.4896262 67.381307,52.7076321 C67.3455809,52.9256381 67.1398904,53.0734051 66.9218845,53.037679 C64.6570039,52.6665181 62.5052002,52.2779759 60.4664443,51.8720355 C57.3768824,51.2568671 53.8445711,49.2310906 52.2081857,47.1653687 C51.414361,46.1632692 50.8227054,45.2469585 50.4341521,44.4131441 L50.276,44.048 L45.9676334,46.317061 L46.8368855,45.5587092 C48.1494464,44.4314026 49.9666166,43.0291697 50.9729187,43.6290984 Z" id="路径" fill="#C1C1C1"></path>
                <path d="M20.9227295,59.8014252 C25.1864827,60.0516469 28.4892578,61.6549479 30.8310547,64.6113281 C30.0173547,64.8742345 29.2227395,65.1151399 28.4472092,65.3340441 C26.2439192,65.4091805 24.0702754,65.3960464 22.0578613,65.2580566 L18.736161,65.0121994 L15.7922053,64.750153 C12.3928236,64.4109425 11.6804926,64.1771306 11.3347168,64.0775146 C11.0025228,63.9818115 10.796346,63.5720215 10.7161865,62.8481445 C10.5879313,61.4538574 11.3777262,60.1988932 13.0855713,59.083252 L13.7968989,58.6240691 C15.0154516,59.2016949 17.3907285,59.594147 20.9227295,59.8014252 Z" id="路径" fill="#D4D4D4"></path>
                <path d="M14.1650391,61.6163499 C16.887207,61.9111328 20.3679199,62.1115723 22.1328125,62.5561523 C23.3094076,62.8525391 24.7272856,63.4787071 26.3864466,64.4346566 C24.5138331,64.7584566 22.7786116,65.0118462 21.1807822,65.1948253 L18.736161,65.0121994 L15.7922053,64.750153 L14.5455626,64.6173377 C12.2053676,64.349671 11.6333414,64.1635466 11.3347168,64.0775146 C11.0025228,63.9818115 10.796346,63.5720215 10.7161865,62.8481445 C10.6345759,61.96094 10.9246798,61.1301468 11.5864981,60.3557647 C12.0252009,61.0582881 12.8848177,61.477715 14.1650391,61.6163499 Z" id="路径" fill="#C8C8C8"></path>
                <path d="M43.9862061,49.9476318 C44.2579346,50.0264893 43.0447998,53.6014404 46.2075195,54.2941895 C49.3702393,54.9869385 62.4197998,50.5673828 64.6834717,49.7893066 C66.9471436,49.0112305 69.2386475,48.3594971 69.9144287,49.1727295 C70.59021,49.9859619 66.9227295,51.6612549 64.0257568,52.9528809 C61.1287842,54.2445068 51.6525879,57.5531006 49.3450928,58.5681152 C47.0375977,59.5831299 43.0656738,60.1352539 41.4151611,58.7485352 C39.7646484,57.3618164 40.3035889,54.7675781 41.2619629,53.1774902 C42.2203369,51.5874023 43.7144775,49.8687744 43.9862061,49.9476318 Z" id="路径-748" fill="#929292"></path>
                <path d="M43.8133545,49.9614258 C44.085083,50.0402832 43.0327148,53.8586426 46.1954346,54.5513916 C49.3581543,55.2441406 62.4077148,50.824585 64.6713867,50.0465088 C66.9350586,49.2684326 69.2531738,48.5596924 69.9144287,49.1727295 C70.5756836,49.7857666 66.9862061,51.4697266 64.0892334,52.7613525 C61.1922607,54.0529785 51.7160645,57.3615723 49.4085693,58.3765869 C47.1010742,59.3916016 43.1291504,59.9437256 41.4786377,58.5570068 C39.828125,57.1702881 40.3670654,54.5760498 41.3254395,52.9859619 C42.2838135,51.395874 43.541626,49.8825684 43.8133545,49.9614258 Z" id="路径-748" fill="#E9E9E9"></path>
                <path d="M69.9144287,49.1727295 C70.5756836,49.7857666 66.9862061,51.4697266 64.0892334,52.7613525 C61.3991874,53.9607195 53.0362393,56.8992067 50.0077474,58.1255489 L49.4085693,58.3765869 C47.1757931,59.3587344 43.3846345,59.9074836 41.6461401,58.685668 C41.8085311,58.309791 42.3126329,57.9366009 43.3037387,57.6028658 L43.6523438,57.4931325 C45.6462057,56.9055188 47.4614446,55.8832745 49.0980604,54.4263996 C53.7991157,53.6812359 61.7464184,51.0427348 64.2368438,50.1951161 L65.4698038,49.7768121 C67.4575651,49.1199647 69.3309685,48.6318144 69.9144287,49.1727295 Z" id="路径" fill="#DCDCDC"></path>
                <path d="M69.9144287,49.1727295 C70.5756836,49.7857666 66.9862061,51.4697266 64.0892334,52.7613525 C61.3991874,53.9607195 53.0362393,56.8992067 50.0077474,58.1255489 L49.4085693,58.3765869 C49.0175968,58.5485668 48.578841,58.7072579 48.11169,58.8454806 C49.1249629,57.5294643 50.1070275,56.5255453 51.0567769,55.8276138 L52.7123492,54.5820374 C53.2395254,54.1791894 53.835254,53.719786 54.4995348,53.2038271 C57.4109051,52.4160145 60.4127039,51.4639641 62.4584623,50.7902641 L65.4698038,49.7768121 C67.4575651,49.1199647 69.3309685,48.6318144 69.9144287,49.1727295 Z" id="路径" fill="#D1D1D1"></path>
                <path d="M69.1596748,49.5967161 L69.0963761,49.4180132 C68.422003,49.4289656 67.1346879,49.7485367 65.3054254,50.359526 L64.8343177,50.5192186 C62.2588461,51.4044666 59.6052678,52.2550643 57.0765664,52.9948315 L55.9063183,53.3317259 L54.614778,53.6895949 C50.2420377,54.8731026 47.4179166,55.3310127 46.0884529,55.0398124 C44.6650935,54.7280457 43.8010773,53.8282586 43.4860593,52.4184173 C43.434861,52.1892832 43.3999099,51.9695391 43.3781171,51.7370676 L43.3519603,51.2711835 L43.174,51.376 L43.1550207,51.3826156 L42.9214847,51.5317519 C42.6221767,51.9206608 42.3149998,52.3576605 42.0312947,52.7986234 L41.7544518,53.2427922 C40.6422032,55.0881597 40.620063,57.182605 41.8002729,58.1741873 C42.9944002,59.1774626 46.2125586,59.0964922 48.817267,58.0805066 L50.4759346,57.3963904 L60.5878475,53.6240983 L62.2595781,52.9782625 C62.61575,52.837541 62.9284801,52.7112251 63.2042461,52.5967331 L63.8847399,52.3050763 L65.3588126,51.6376144 C66.54013,51.0923309 67.3976056,50.6651293 68.0918518,50.2763244 L68.6269387,49.962395 C68.7867082,49.8634289 68.9275323,49.7703553 69.0483526,49.6838202 L69.1596748,49.5967161 Z M68.4714935,49.6874829 L68.748,49.646 L68.5197107,49.79361 C68.4415881,49.8419549 68.3585969,49.8919002 68.2709339,49.9433137 L67.9941259,50.1018261 C67.0460869,50.6327648 65.7875015,51.23775 63.8041843,52.1220193 L63.3890246,52.302312 C62.7210205,52.5858469 61.8040438,52.9480324 60.5173753,53.4369265 L50.4028516,57.2102528 L48.7427978,57.8948978 C46.2008675,58.8863765 43.053117,58.9655753 41.928927,58.0210595 C40.83767,57.1042131 40.8586827,55.1164295 41.9249645,53.3473062 L42.200259,52.9056235 L42.4869844,52.4731412 L42.7824196,52.0527236 L43.164,51.544 L43.1550207,51.3826156 C43.1696062,51.7715072 43.2113529,52.1061462 43.2908724,52.4620303 C43.6224871,53.9461484 44.544548,54.9063834 46.0456602,55.2351808 C47.5474365,55.5641236 50.8122817,54.9816359 55.9612213,53.524042 L57.1323092,53.1869058 C59.0314987,52.631302 61.0005762,52.0134133 62.9539532,51.3653826 L65.369209,50.5490819 L66.3188935,50.2430337 C67.212245,49.9668743 67.9348929,49.7807087 68.4714935,49.6874829 Z" id="路径" fill="#CDCDCD" fill-rule="nonzero"></path>
                <path d="M47.78125,61.8503418 C48.1183268,60.9031576 48.4833577,60.2829997 48.8763428,59.9898682 C49.4658203,59.5501709 49.5356445,58.7408456 50.2904053,57.7961435 C51.045166,56.8514413 52.3087158,56.2301034 54.6905518,55.0999765 C57.0723877,53.9698495 63.3571777,51.2683114 64.9284668,50.6353769 C66.4997559,50.0024423 73.3127441,46.9381112 74.1689453,46.7410898 C75.0251465,46.5440683 76.4083252,46.1374503 77.7802734,47.057373 C79.1522217,47.9772958 80.8139648,51.3000488 81.0582094,52.4259033 C81.2210391,53.176473 81.2946536,54.1586914 81.2790527,55.3725586 C73.7383626,56.5895182 68.4191081,57.53007 65.3212891,58.1942139 C62.2234701,58.8583577 56.3767904,60.0770671 47.78125,61.8503418 Z" id="路径-747" fill="#F5F5F5"></path>
                <path d="M47.7932129,62.2714844 C48.1554362,61.1967773 48.5330404,60.5128581 48.9260254,60.2197266 C49.5155029,59.7800293 49.6690674,59.138916 50.4238281,58.1942139 C51.1785889,57.2495117 52.3535156,56.5026855 54.7353516,55.3725586 C57.1171875,54.2424316 63.4019775,51.5408936 64.9732666,50.907959 C66.5445557,50.2750244 73.3575439,47.2106934 74.2137451,47.0136719 C75.0699463,46.8166504 76.453125,46.4100324 77.8250732,47.3299552 C79.1970215,48.2498779 80.8410282,51.8999023 81.0582094,52.4259033 C81.2029969,52.7765706 81.2766113,53.7587891 81.2790527,55.3725586 C73.7383626,56.5895182 68.4191081,57.53007 65.3212891,58.1942139 C62.2234701,58.8583577 56.380778,60.2174479 47.7932129,62.2714844 Z" id="路径-747" fill="#D1D1D1"></path>
                <path d="M77.8250732,47.3299552 C79.1970215,48.2498779 80.8410282,51.8999023 81.0582094,52.4259033 C81.2029969,52.7765706 81.2766113,53.7587891 81.2790527,55.3725586 L76.8645344,56.0956416 C75.489018,56.3247255 74.2094911,56.5418656 73.0259538,56.747062 C76.0389404,54.9012451 75.4881592,50.2224121 74.5863037,49.7365723 C73.6844482,49.2507324 73.8049577,49.2790752 66.8816289,52.2317395 L64.5361328,53.2388451 C56.0360166,56.9091114 62.0385548,57.5551276 68.2583853,57.1484884 L68.8703692,57.1051658 C69.6680347,57.0444248 70.1933079,57.0809158 70.4980872,57.1927822 L69.1372486,57.4417712 C67.8366714,57.6831535 66.716762,57.9017585 65.7764711,58.0979716 L61.9938018,58.933671 C58.6607176,59.691711 53.927188,60.8043155 47.7932129,62.2714844 C48.1101583,61.3311157 48.4388796,60.6899439 48.779377,60.3479691 L48.9260254,60.2197266 C49.5155029,59.7800293 49.6690674,59.138916 50.4238281,58.1942139 C51.1282715,57.3124919 52.1987261,56.6031418 54.2748434,55.5936455 L54.7353516,55.3725586 C56.9100713,54.3407035 62.3384825,51.9988441 64.462108,51.1176038 L65.4238225,50.7211481 C67.5574604,49.8205552 73.4234056,47.1955379 74.2137451,47.0136719 L74.8314582,46.8732573 C75.6622215,46.7032981 76.7471139,46.6071587 77.8250732,47.3299552 Z" id="路径" fill="#C6C6C7"></path>
                <path d="M77.8250732,47.3299552 C79.1970215,48.2498779 80.8410282,51.8999023 81.0582094,52.4259033 C81.2029969,52.7765706 81.2766113,53.7587891 81.2790527,55.3725586 L78.8617283,55.7669777 C78.8346155,52.3197634 78.2861423,49.870582 77.2163086,48.4194336 C76.4213801,47.3411732 75.2659319,46.9233301 73.749964,47.1659044 L74.1326584,47.0354419 C74.1637839,47.0262352 74.1908873,47.0189317 74.2137451,47.0136719 L74.8314582,46.8732573 C75.6622215,46.7032981 76.7471139,46.6071587 77.8250732,47.3299552 Z" id="路径" fill="#BFBFC1"></path>
                <path d="M66.5687444,51.4884106 L71.5260769,49.3077717 C74.825755,47.8809597 76.2480023,47.479852 77.0866802,47.9230832 C78.1363648,48.4778291 79.5497851,50.5787013 80.4324611,52.4467905 C80.819228,53.265341 81.0920401,54.3365175 81.2558704,55.663006 C81.282949,55.882254 81.1271649,56.0819412 80.9079169,56.1090198 C80.6886688,56.1360984 80.4889816,55.9803143 80.461903,55.7610663 C80.3076994,54.5125222 80.055121,53.5207918 79.7091404,52.7885611 C78.9016288,51.0795493 77.5523687,49.0740431 76.7128804,48.6303836 C76.1954002,48.3569014 74.7373524,48.7992246 71.8114426,50.0579559 L58.0713099,56.0757742 C54.8094031,57.5192305 52.8018888,58.441466 52.4758212,58.6601064 C51.9516874,59.0115574 51.2941724,59.9293726 50.5396804,61.398957 C50.4387827,61.5954834 50.1976729,61.6730058 50.0011466,61.5721082 C49.8046202,61.4712105 49.7270978,61.2301007 49.8279954,61.0335743 C50.6403165,59.4513518 51.3622775,58.4435772 52.0302823,57.9956554 L52.1811883,57.9056094 C52.7942289,57.5649285 54.6855601,56.6988569 57.6887223,55.3699876 L66.5687444,51.4884106 Z" id="路径" fill="#B3B2B2" fill-rule="nonzero"></path>
                <path d="M48.1343374,61.420166 C48.2869873,61.3913574 49.895752,60.4318848 50.5136719,60.1479492 C51.1315918,59.8640137 52.8846436,59.5020917 54.6094971,59.0517578 C56.3343506,58.6014239 65.6789551,56.7409668 69.3304443,56.206665 C71.7647705,55.8504639 73.9327799,55.6539714 75.8344727,55.6171875 L78.8624222,56.4522705 C65.3651317,58.9098138 56.930853,60.4056693 53.559586,60.9398371 C48.5026855,61.7410889 47.9816876,61.4489746 48.1343374,61.420166 Z" id="路径-758" fill="#737373"></path>
                <path d="M53.9804688,39.0246582 C54.814209,39.3614613 56.5401722,40.4004209 57.4680836,41.1547943 L57.7208252,41.371582 C58.5473633,42.1279297 61.5844927,44.1798685 61.9232278,44.4339284 C61.9190433,44.5198543 61.939767,44.5835368 61.9924316,44.6414795 C62.1306763,44.7935791 64.4908447,46.2028809 66.6033936,46.2176514 L67.2369309,46.2123267 C68.9394751,46.1633308 69.8786878,45.7784424 70.6342773,43.8422852 L71.097063,42.6537637 C71.7508259,40.9925146 72.3537292,39.6326904 73.072998,39.3660889 C73.6631673,39.1473389 74.0057068,39.1195679 74.1338806,39.3705444 C74.3024015,39.2763875 73.880036,39.623806 73.6083984,40.0142822 C72.8692627,41.0767822 72.5522461,42.7833252 72.086792,43.9416504 C71.6213379,45.0999756 70.6470947,46.5738525 68.7894287,47.0559082 C66.9317627,47.5379639 64.0900879,47.5024414 61.5778809,45.9720459 C59.0656738,44.4416504 56.67632,41.9348145 55.0980477,40.9587402 L54.1391395,40.3574505 C53.2009985,39.7758847 52.6162673,39.4954552 51.675293,39.6430664 C50.4520264,39.8349609 49.8352051,40.8240967 49.7193604,40.9587402 C49.6421305,41.0485026 49.5776367,41.0485026 49.5258789,40.9587402 C49.9279785,40.0928548 50.4038493,39.5443522 50.9534912,39.3132324 C51.7779541,38.9665527 53.0633545,38.6541748 53.9804688,39.0246582 Z" id="路径" fill="#F4F2F2"></path>
                <path d="M54.9728436,39.9130286 L55.0980477,40.0105591 C55.5070069,40.3503265 56.2082819,40.6483641 56.781151,41.3084484 L57.0175781,41.6146851 C57.6205444,42.4967041 60.6209106,44.9755249 62.4169617,45.8674316 C64.2130127,46.7593384 67.2141113,47.2177124 69.1237183,46.4953003 C71.0333252,45.7728882 71.867981,43.1884766 72.2796021,41.9594116 C72.6912231,40.7303467 73.576416,39.5063414 74.010437,39.4540679 L74.0924477,39.4518859 L73.867691,39.6917673 C73.7807723,39.7888553 73.6880977,39.8997154 73.6083984,40.0142822 C72.8692627,41.0767822 72.5522461,42.7833252 72.086792,43.9416504 C71.6213379,45.0999756 70.6470947,46.5738525 68.7894287,47.0559082 C66.9317627,47.5379639 64.0900879,47.5024414 61.5778809,45.9720459 C59.0656738,44.4416504 56.67632,41.9348145 55.0980477,40.9587402 L54.1391395,40.3574505 C53.2009985,39.7758847 52.6162673,39.4954552 51.675293,39.6430664 C50.967086,39.7541632 50.4621474,40.1324794 50.1400108,40.4574934 L49.9264804,40.3262329 L49.9264804,40.3262329 C50.1357664,39.9045658 50.4937343,39.559525 51.0003841,39.2911106 L50.9534912,39.3132324 C51.3456264,39.1483429 51.8420344,38.9912131 52.3534946,38.9116251 C53.3884696,38.9235939 54.4911105,39.5571597 54.9728436,39.9130286 L54.9728436,39.9130286 Z" id="路径" fill="#D6D3D3"></path>
                <path d="M78.2099388,43.2569008 C78.2712737,44.9783448 78.1074714,46.5765355 77.7180276,48.0510713 C76.9897672,50.8084551 73.7688513,54.0429308 71.3182324,54.2349116 C70.9815916,54.2612839 70.630592,54.2641243 70.2664599,54.2449773 C69.2109644,54.1894767 68.0913011,53.9558306 66.9295183,53.5942597 L66.4066847,53.4238119 L65.2752614,53.0038562 C65.0459494,52.9717672 64.7918116,52.8963391 64.5143466,52.7834765 C64.2801534,52.6882151 63.9664259,52.4734942 63.7076416,52.3319397 C63.4488573,52.1903852 63.1510601,51.8190153 63.0950012,51.7589111 C62.933278,51.744635 62.7546613,51.71586 62.4761658,51.6760864 C62.1976703,51.6363128 61.4182645,51.3730446 61.358185,51.2747903 C60.6254462,51.210253 54.9429222,48.6598297 53.6726236,47.4762849 C52.7018456,46.5718052 51.9308492,45.3842515 51.3588177,43.9157406 L51.238,43.584 L39.1645055,50.8994619 C39.029683,53.7966311 38.8003105,56.1436604 38.47578,57.9420315 L38.3849119,58.4188944 C37.8841553,60.9072113 35.3224927,61.5207597 32.8236008,60.6482949 L31.49,60.126 L31.0832084,59.9750154 C29.2007045,59.3007244 27.5394788,59.1470104 25.0532379,59.6455593 C22.2738756,60.2028858 20.0447552,61.7069392 18.3572747,64.1653373 C18.2947648,64.2564045 18.1702659,64.2795549 18.0791986,64.2170449 C17.9881313,64.154535 17.964981,64.0300361 18.0274909,63.9389688 C19.7731159,61.3958634 22.0916843,59.8314567 24.9745942,59.2533665 C27.5362069,58.7397038 29.2686012,58.900733 31.2146473,59.5972167 L32.9554519,60.2706504 C35.2575052,61.074391 37.5531421,60.5245589 37.9927737,58.3399793 C38.3044103,56.7914213 38.5368265,54.7725401 38.7471659,52.1868868 L38.8600505,50.7197419 L51.2383464,43.1171748 L51.5324044,43.2233121 C52.0997614,44.8947595 52.9044463,46.2138592 53.9452963,47.1836254 C55.1506954,48.306703 60.7497199,50.8196502 61.5166869,50.9336748 C61.6298683,51.0461126 62.2496715,51.3196138 62.7268177,51.4787961 C62.8985937,51.5361028 63.0518806,51.5785933 63.1563839,51.5934184 L63.4982755,51.8042678 L63.9673782,52.0758439 C64.2137296,52.2105977 64.4464181,52.3240203 64.6650608,52.4129562 C64.8312316,52.4805485 64.9860855,52.5326 65.1404774,52.570963 L65.3730756,52.6184725 C65.3301155,52.6023958 65.8303246,52.7929577 66.0273101,52.8651957 C66.3676648,52.9900097 66.701336,53.1043206 67.048383,53.2123288 C68.180985,53.564818 69.2697419,53.7920148 70.2874639,53.8455291 C70.6347674,53.8637912 70.9684056,53.8610913 71.2869922,53.8361334 C73.551577,53.6587265 76.6432447,50.5540431 77.3312888,47.9489287 C77.7640971,46.3102035 77.9110659,44.5100689 77.7714454,42.5479275 L78.0383911,43.4660645 L78.2099388,43.2569008 Z" id="路径" fill="#B9B9B9" fill-rule="nonzero"></path>
                <path d="M33.1932373,51.557373 C32.1569824,52.1824951 31.5321045,53.1031494 32.4301758,53.7583008 C33.3282471,54.4134521 36.552002,53.9023438 37.3149414,53.503418 C38.0778809,53.1044922 39.9638672,51.310809 41.2109375,50.5094084 C42.4580078,49.7080078 43.9503174,49.5307328 44.8560791,49.3813477 C45.7618408,49.2319625 47.4519043,48.0754395 48.9892578,46.8164063 C50.5266113,45.557373 51.5032959,45.1116943 52.5611572,44.9162598 C53.6190186,44.7208252 55.1230469,44.2781122 55.6682129,43.7877988 C56.2133789,43.2974854 56.2206421,42.5601807 56.4029236,42.2896729 C56.5852051,42.019165 56.535227,41.4713135 55.8722277,41.0097656 C55.2092285,40.5482178 53.5251465,39.7265625 53.2303467,39.6607666 C52.9355469,39.5949707 51.4981689,39.5997314 50.8983154,39.8833008 C50.2984619,40.1668701 49.873291,40.3845825 49.3094482,40.7533264 C48.7456055,41.1220703 47.0959275,42.9730585 46.2897851,43.7877988 C45.4836426,44.6025391 43.854248,45.8947754 42.4315186,46.4698486 C41.0087891,47.0449219 37.9892578,48.6627197 36.7991943,49.3813477 C35.6091309,50.0999756 34.2294922,50.932251 33.1932373,51.557373 Z" id="路径-749" fill="#6E6F6B"></path>
                <path d="M33.2242432,51.2550049 C32.1879883,51.880127 31.5631104,52.8007813 32.4611816,53.4559326 C33.3592529,54.111084 36.5830078,53.5999756 37.3459473,53.2010498 C38.1088867,52.802124 39.994873,51.0084408 41.2419434,50.2070402 C42.4890137,49.4056396 43.9813232,49.2283646 44.887085,49.0789795 C45.7928467,48.9295944 47.4829102,47.7730713 49.0202637,46.5140381 C50.5576172,45.2550049 51.5343018,44.8093262 52.5921631,44.6138916 C53.6500244,44.418457 55.1540527,43.9757441 55.6992187,43.4854306 C56.2443848,42.9951172 56.2516479,42.2578125 56.4339294,41.9873047 C56.6162109,41.7167969 56.5662328,41.1689453 55.9032336,40.7073975 C55.2402344,40.2458496 53.5561523,39.4241943 53.2613525,39.3583984 C52.9665527,39.2926025 51.5291748,39.2973633 50.9293213,39.5809326 C50.3294678,39.864502 49.9042969,40.0822144 49.3404541,40.4509583 C48.7766113,40.8197021 47.1269334,42.6706904 46.3207909,43.4854306 C45.5146484,44.3001709 43.8852539,45.5924072 42.4625244,46.1674805 C41.0397949,46.7425537 38.0202637,48.3603516 36.8302002,49.0789795 C35.6401367,49.7976074 34.260498,50.6298828 33.2242432,51.2550049 Z" id="路径-749" fill="#EFEFEF"></path>
                <path d="M54.1950827,39.8528443 L54.1499927,39.739504 L54.7876575,40.0604061 C55.2198058,40.2863941 55.641242,40.5250116 55.9032336,40.7073975 C56.4999329,41.1227905 56.6000851,41.6080896 56.4812653,41.8981957 L56.4339294,41.9873047 C56.2516479,42.2578125 56.2443848,42.9951172 55.6992187,43.4854306 C55.2085693,43.9267127 53.9412415,44.3294384 52.9215015,44.5480426 L52.5921631,44.6138916 C51.6224569,44.79304 50.7209617,45.1824629 49.3932929,46.2158988 L49.0202637,46.5140381 C47.4829102,47.7730713 45.7928467,48.9295944 44.887085,49.0789795 L44.2798965,49.1767272 C43.394209,49.3242396 42.2395996,49.5659198 41.2419434,50.2070402 C39.994873,51.0084408 38.1088867,52.802124 37.3459473,53.2010498 C36.5830078,53.5999756 33.3592529,54.111084 32.4611816,53.4559326 C31.7809813,52.9597201 31.974431,52.3112001 32.5585656,51.7541357 L32.6032166,51.7929324 C33.1997193,52.4082526 34.2236328,52.5681038 36.5213623,51.6538086 C38.8190918,50.739504 39.0969238,50.0874023 41.1178561,48.9405228 C43.1387883,47.7936433 43.2463379,48.3900146 44.0858154,47.4522201 C44.8320177,46.6186249 46.1852801,45.8287449 47.3534217,45.3031413 L47.9936769,45.0264921 C48.9531107,44.581876 48.4518731,44.365805 50.0828748,43.0413571 C51.82261,41.6286127 53.5772705,41.5845947 54.1934967,41.2477125 C54.5221507,41.068042 54.4088125,40.430879 54.1950827,39.8528443 Z" id="路径" fill="#E2E3E2"></path>
                <path d="M56.3433221,41.1342714 C56.5366959,41.4152153 56.5594867,41.6885458 56.4877247,41.8816501 L56.4339294,41.9873047 C56.2516479,42.2578125 56.2443848,42.9951172 55.6992187,43.4854306 C55.2085693,43.9267127 53.9412415,44.3294384 52.9215015,44.5480426 L52.5921631,44.6138916 C51.6224569,44.79304 50.7209617,45.1824629 49.3932929,46.2158988 L49.0202637,46.5140381 C47.4829102,47.7730713 45.7928467,48.9295944 44.887085,49.0789795 L44.2798965,49.1767272 C43.394209,49.3242396 42.2395996,49.5659198 41.2419434,50.2070402 C40.0908015,50.9467946 38.3952579,52.5320443 37.541144,53.0853175 L37.3997125,53.1685313 L36.4901907,53.4454885 C36.3473156,53.4878431 36.2090495,53.5282047 36.075772,53.5664377 C35.1179616,53.7471516 33.8806941,53.8517278 33.0716455,53.6902173 C32.2822641,53.2114607 31.9049503,52.3958187 32.4997488,52.5923139 L32.6318359,52.6455078 C33.6705994,53.1277222 34.786499,52.9964486 36.1513672,52.7126465 C37.5162354,52.4288444 39.6757812,50.916748 40.7163086,50.0319824 C41.7568359,49.1472168 43.5124512,49.0407715 44.2773593,48.9405228 C45.0422675,48.8402741 45.9252288,47.1188071 46.6542969,46.5290527 C47.3833649,45.9392984 48.1394043,46.1437988 48.9672852,46.1778564 C49.795166,46.2119141 50.3104354,45.0651065 51.0856934,43.861084 C51.8609513,42.6570615 53.1306566,42.2631077 54.5673828,42.1179199 C55.2059278,42.053392 55.7313318,41.8045423 56.1435947,41.3713706 L56.3433221,41.1342714 Z" id="路径" fill="#D9DAD9"></path>
                <path d="M51.7810571,39.3768394 C52.3946376,39.3026598 53.0696281,39.3156078 53.2613525,39.3583984 C53.5561523,39.4241943 55.2402344,40.2458496 55.9032336,40.7073975 C56.4999329,41.1227905 56.6000851,41.6080896 56.4812653,41.8981957 L56.4339294,41.9873047 C56.2516479,42.2578125 56.2443848,42.9951172 55.6992187,43.4854306 C55.2085693,43.9267127 53.9412415,44.3294384 52.9215015,44.5480426 L52.5921631,44.6138916 C51.6224569,44.79304 50.7209617,45.1824629 49.3932929,46.2158988 L49.0202637,46.5140381 C47.4829102,47.7730713 45.7928467,48.9295944 44.887085,49.0789795 L44.2798965,49.1767272 C43.394209,49.3242396 42.2395996,49.5659198 41.2419434,50.2070402 C39.994873,51.0084408 38.1088867,52.802124 37.3459473,53.2010498 C36.5830078,53.5999756 33.3592529,54.111084 32.4611816,53.4559326 C31.7171241,52.9131357 32.0184529,52.1880917 32.7330114,51.599864 C32.3648798,52.0422989 32.1901491,52.391299 32.2081687,52.6498413 C32.2427535,53.1460571 32.6775513,53.37854 33.3557927,53.50354 C34.0340342,53.62854 36.5413818,53.2530518 37.1325684,52.9528809 C37.7237549,52.65271 38.5870617,51.7902832 40.4602051,50.4557495 C42.3333484,49.1212158 43.9016724,49.0819092 44.7086792,48.9405228 C45.515686,48.7991365 46.6171265,48.145752 47.5056011,47.4522201 L48.5916918,46.5800537 C49.570175,45.8057226 50.8374681,44.8819345 51.8535767,44.6254883 L52.5408311,44.4460052 C53.8092915,44.1035225 55.0718759,43.6992047 55.4608154,43.4315796 C55.9204712,43.1152954 56.2389855,42.1648102 56.2526855,41.7646484 C56.2663856,41.3644866 54.9891357,40.4691162 53.8551025,39.8275302 C53.2172089,39.466638 52.5122256,39.3727375 52.0046764,39.3713776 L51.7810571,39.3768394 Z" id="路径" fill="#F2F2F2"></path>
                <path d="M33.8747559,51.9006348 C33.8279894,52.013048 33.6214042,52.030499 33.3496506,51.685387 L33.244873,51.5384521 C33.2084238,51.4824956 33.1532291,51.4171204 33.0856978,51.3430683 L33.6381386,51.0053201 L33.6381386,51.0053201 L33.8381192,51.6697348 C33.871258,51.7902081 33.8870207,51.8711537 33.8747559,51.9006348 Z M40.0323486,49.1966553 L39.8581924,49.2008568 C39.6684122,49.1926383 39.4004429,49.1410462 39.3050537,48.9405228 C39.1863471,48.6909826 39.3026907,48.4576232 38.9406927,48.3785822 L38.7811279,48.3564453 C38.6304493,48.3447321 38.4522608,48.3079623 38.2688219,48.2620063 L39.4099964,47.6476692 L39.4099964,47.6476692 L39.7957089,48.4776468 C39.9852924,48.900959 40.0951801,49.1897369 40.0323486,49.1966553 Z M46.5666504,43.974923 C47.0272217,44.8789063 47.3947754,44.864671 46.7727051,45.5653921 L46.2453987,46.1494796 C45.8644336,46.5551317 45.5604736,46.8183062 45.3962402,46.736084 C45.1616211,46.6186237 44.0567627,45.751878 43.6523438,45.5653921 C44.5765507,45.0063977 45.4766282,44.2877674 46.0807794,43.719074 L46.3921302,43.4128913 L46.3921302,43.4128913 C46.4126683,43.6000706 46.4716906,43.7885414 46.5666504,43.974923 Z M52.5509033,41.4547119 C52.4117432,41.8006592 51.2348633,42.7315447 51.0253906,42.9080087 C50.815918,43.0844727 50.1783447,43.0871355 49.9487305,42.9080087 C49.7191162,42.7288818 49.1889648,42.4503174 48.7355957,42.4255371 L48.4514048,42.3970901 C48.2200084,42.3672241 47.9047405,42.3155556 47.5056011,42.2420846 L48.2245313,41.4872459 C48.6906775,41.0072347 49.1079122,40.6030368 49.3404541,40.4509583 C49.9042969,40.0822144 50.3294678,39.864502 50.9293213,39.5809326 C51.0368983,39.5300776 51.1714122,39.4881898 51.3214417,39.4540679 C52.1663844,40.2654311 52.6261186,41.2677293 52.5509033,41.4547119 Z" id="形状" fill="#585858"></path>
                <path d="M50.7014771,39.7030755 C51.6946004,39.26272 52.4875895,39.1362717 53.0804443,39.3237308 C53.9697266,39.6049194 55.6563721,40.6206055 56.1591187,41.0844727 C56.6618652,41.5483398 56.5285034,41.8769531 56.8010254,42.1851807 C57.0735474,42.4934082 60.4666138,45.2852173 61.4789429,45.8853149 C62.491272,46.4854126 65.335083,47.7147217 68.1880493,47.1233521 C71.0410156,46.5319824 71.8215942,44.5256901 72.1271973,43.6225863 C72.4328003,42.7194824 73.3075562,39.9748535 74.1324463,39.4139404 C73.887146,39.7265015 73.1627197,40.8640137 72.8179321,42.1240234 C72.4731445,43.3840332 72.1949463,44.5112915 71.3099365,45.5581665 C70.4249268,46.6050415 69.1716919,47.1257315 68.0819092,47.3051147 C66.9921265,47.484498 63.8337402,47.7683105 61.2467041,45.9949951 C59.5220133,44.8127848 57.9327087,43.5410868 56.4787903,42.1799011 C56.3899027,41.784392 56.273529,41.5112495 56.1296692,41.3604736 C55.7557345,40.968562 54.8028512,40.2949589 54.2394104,40.0301819 C52.9065247,39.4038205 52.8233228,39.3936327 51.9665527,39.4348145 C51.8019002,39.4427287 51.4914551,39.515686 51.0352173,39.6536865 L50.7014771,39.7030755 Z" id="路径-759" fill="#959595"></path>
                <path d="M52.1081543,37.7969971 L52.4038658,38.2335243 C52.6812134,38.668045 52.8857422,39.1221008 52.8579102,39.8256836 L52.8437388,40.3386975 C52.8193042,40.8719943 52.6992972,41.1215995 51.7193604,41.7469482 C50.472168,42.5428467 49.1513672,42.3085937 48.6606445,42.1258545 C48.3334961,42.0040283 47.7415771,41.5789388 46.8848877,40.8505859 C47.0577393,41.1090495 47.2423503,41.3399658 47.4387207,41.543335 C47.7332764,41.8483887 47.8873291,43.1968994 47.7340088,43.7601318 C47.5806885,44.3233643 46.7630615,45.0108643 45.8156601,45.5128174 C44.8682586,46.0147705 43.6343994,45.6130371 43.1239014,45.329834 C42.6134033,45.0466309 42.2359619,44.5446777 42.2471924,44.6455078 C42.2584229,44.7463379 42.0423584,46.0953369 41.9150391,46.5469037 C41.7877197,46.9984704 40.7415771,47.654541 39.9093018,48 C39.0770264,48.345459 37.0300293,48.1433105 36.7786865,48 C36.6783447,48.3087158 36.0900879,49.6120605 35.9758301,49.9079841 C35.9123535,50.0723861 35.7151082,50.2584155 35.3840942,50.4660723 L35.1694336,50.5932617 C34.7243245,50.8687337 34.2736613,51.0488078 33.8174438,51.1334839 C33.1331177,51.260498 33.0452881,51.2365112 32.8585205,51.0548706 C32.7288882,50.9287968 32.4704377,50.5955731 32.3127263,50.2755728 L32.3254395,50.2670898 C32.5338135,50.0791016 32.402771,49.6934814 32.8255615,49.512085 C33.0411018,49.4196083 33.2577604,49.4086399 33.4755374,49.4791798 C33.8242827,49.7177234 34.3483318,49.9775702 34.6652832,49.9079841 C34.997467,49.8350538 35.1470299,49.5650052 35.313509,49.04628 L35.4773162,48.4997175 L35.4773162,48.4997175 L35.3815918,48.5912476 C35.7420654,48.3516235 35.7809448,47.4038696 36.2973022,47.223877 C36.8136597,47.0438843 37.1784058,47.3729858 37.4179077,47.223877 L37.639664,47.0849497 L37.639664,47.0849497 C37.8668907,47.1093362 38.1063724,47.1224166 38.3458252,47.1116943 C39.1990967,47.0734863 39.9935303,46.8033447 40.4184452,46.5469037 C40.8433602,46.2904626 41.0599365,45.2436523 40.9361572,44.9797363 L40.8637598,44.8174351 L40.8637598,44.8174351 L41.0201416,44.690918 C41.5957438,43.7636719 42.0678711,43.275472 42.4365234,43.2263184 L42.8747165,43.1777849 L42.8747165,43.1777849 L42.977828,43.2976016 C43.1115947,43.4902177 43.1416016,43.7124372 43.1239014,43.7601318 C43.0991211,43.8269043 43.519043,44.0845947 43.9373779,44.2753906 C44.3557129,44.4661865 45.1029053,44.5646973 45.5263672,44.2753906 L45.8621883,44.0460584 C46.2041092,43.8019553 46.5279541,43.5062832 46.5063477,43.0937361 C46.4817557,42.6241848 45.9347532,41.8008157 45.6473603,41.292316 L45.721848,40.9830691 C45.8114766,40.6480865 45.9558828,40.2729521 46.2392578,40.1911621 C46.6761475,40.0650635 46.7006836,39.8818359 47.1160889,39.9240723 C47.3586995,39.9487397 47.5860723,40.0350724 47.7785806,40.0497848 L47.7932129,40.0622559 L48.1570244,40.2687217 C48.7571533,40.594585 49.7252197,41.0699951 49.9542236,41.0618896 C50.2404785,41.0517578 51.3294678,40.4729004 51.6151123,40.0622559 C51.9007568,39.6516113 51.4628906,39.0209961 51.2103271,38.8174089 L50.9912545,38.6400423 C50.7621745,38.4502987 50.4416952,38.1662986 50.2165618,37.8674565 C50.187873,37.5907224 50.1818556,37.242803 50.4047852,37.0526123 C50.6423652,36.8499227 50.9067694,36.7446259 51.1979977,36.736722 C51.5021297,37.0020018 51.8442646,37.4141767 52.1081543,37.7969971 Z" id="路径" fill="#ECEAE6"></path>
                <path d="M32.434148,50.0815072 C32.4886805,50.2826008 32.6598051,50.4215374 32.9194865,50.4706673 L33.0856978,50.4891471 C33.628671,50.5114974 33.7092285,50.7434082 34.0286865,50.9155566 C34.1572372,50.9848295 34.301107,50.9866843 34.4813265,50.941072 C34.2629366,51.0276736 34.0408562,51.0920175 33.8174438,51.1334839 C33.1331177,51.260498 33.0452881,51.2365112 32.8585205,51.0548706 C32.7288882,50.9287968 32.4704377,50.5955731 32.3127263,50.2755728 L32.3254395,50.2670898 L32.3965662,50.1755951 L32.434148,50.0815072 Z M39.9064941,47.4522201 C39.9904785,47.4251233 40.121607,47.4484366 40.2772365,47.4920695 L40.6855111,47.6191299 C40.427915,47.7647696 40.1589844,47.8963623 39.9093018,48 C39.0813762,48.3436534 37.0513933,48.1454086 36.7827742,48.0022518 L36.7830809,47.7517275 C37.1455484,47.8645895 37.6043412,47.947347 38.1594593,48 C38.9921363,48.0789795 39.5915527,47.553833 39.9064941,47.4522201 Z M41.0201416,44.690918 L41.2253282,44.378016 L41.2208252,44.7230225 L41.2208252,44.7230225 C41.2078857,45.3999023 40.847168,46.5275879 40.3549687,46.7511253 C40.2640188,46.7924311 40.1515297,46.7853474 40.019914,46.7471411 C40.1729107,46.6809792 40.3081308,46.6134797 40.4184452,46.5469037 C40.8433602,46.2904626 41.0599365,45.2436523 40.9361572,44.9797363 L40.8637598,44.8174351 L41.0201416,44.690918 Z M42.331665,44.1054566 C42.7373454,44.577063 43.263895,44.9148637 43.9113139,45.1188587 C44.8824423,45.4248511 45.7907715,45.15625 46.2135842,45.1188587 L46.524445,45.0809173 L46.524445,45.0809173 C46.3093773,45.2333248 46.0670887,45.3796052 45.8156601,45.5128174 C44.8682586,46.0147705 43.6343994,45.6130371 43.1239014,45.329834 C42.7616124,45.1288511 42.4663364,44.8176966 42.3294362,44.6900055 L42.331665,44.1054566 Z M45.6742729,41.1648353 C45.8830313,41.6774787 46.5586906,42.3754757 46.7034912,42.9056396 C46.8546631,43.4591309 46.4053552,43.9032642 46.0730749,43.9678298 L45.9608239,43.9743209 L45.9608239,43.9743209 L46.143201,43.8226749 C46.3609633,43.623459 46.5217808,43.3884126 46.5063477,43.0937361 C46.4817557,42.6241848 45.9347532,41.8008157 45.6473603,41.292316 L45.6742729,41.1648353 Z M51.7193604,41.7469482 C50.472168,42.5428467 49.1513672,42.3085937 48.6606445,42.1258545 C48.3867528,42.0238605 47.9272783,41.7093033 47.282221,41.182183 L47.1023591,40.8417475 L47.6315633,41.1693164 C47.869387,41.3085356 48.067043,41.4109067 48.2245313,41.4764298 C48.618252,41.6402375 49.6019287,41.8953857 50.0322444,41.8185882 C50.4625601,41.7417906 51.0150146,41.5172119 51.6522217,41.1003418 C51.846682,40.973123 52.2539529,40.8722797 52.7506018,40.8101732 C52.6372114,41.0861495 52.3648371,41.3350359 51.7193604,41.7469482 Z M50.2069258,37.5149607 C50.4168854,37.7886012 50.7845993,38.0611048 51.3031616,38.4266487 C52.0268555,38.9367935 51.9750977,39.3862305 51.953064,39.8275302 C51.935165,40.1860181 51.6836972,40.3318909 51.2524836,40.407797 C51.40937,40.2898229 51.5400088,40.1702251 51.6151123,40.0622559 C51.9007568,39.6516113 51.4628906,39.0209961 51.2103271,38.8174089 L50.9912545,38.6400423 C50.7621745,38.4502987 50.4416952,38.1662986 50.2165618,37.8674565 C50.2069989,37.7752118 50.199955,37.6750576 50.20307,37.5754723 L50.2069258,37.5149607 Z" id="形状" fill="#B3AFA8"></path>
                <path d="M35.8231201,49.9312744 C35.9029541,50.1396891 36.0782471,50.5669723 36.348999,51.213124 L33.81604,52.2104633 C33.529012,51.3290249 33.3760173,50.8260905 33.3570557,50.7016602 C33.3286133,50.5150146 33.7825928,50.019043 34.5153809,49.7624512 C35.2481689,49.5058594 35.7033691,49.6186523 35.8231201,49.9312744 Z M40.8215332,46.1778564 C41.2955729,46.7784412 41.5750732,47.1624741 41.6600342,47.3299552 C41.7449951,47.4974362 41.8441569,47.7207845 41.9575195,48 L39.8427734,49.1966553 L38.7811279,47.3299552 L40.8215332,46.1778564 Z M46.479126,43.4854306 L48,45.3591309 L45.6141357,46.7522867 C44.8474347,45.6889947 44.4759499,45.09021 44.4996813,44.9559326 C44.5352783,44.7545166 44.1848145,44.5622559 44.7664795,44.2950439 C45.1542562,44.1169027 45.7251383,43.8470316 46.479126,43.4854306 Z M51.2182617,39.7033691 C51.5396729,39.6950684 52.0351563,39.8626709 52.3061523,40.2178955 C52.4868164,40.4547119 52.7449137,40.8482154 53.0804443,41.3984058 L50.8764648,43.0489502 C50.3658854,42.0569255 50.0565186,41.4786377 49.9483643,41.3140869 C49.84021,41.1495361 49.6993815,41.0310872 49.5258789,40.9587402 C50.43986,40.12736 51.0039876,39.708903 51.2182617,39.7033691 Z" id="形状结合" fill="#D8D9D8"></path>
                <path d="M81.2790527,54.9406738 C81.5351562,54.9997559 82.0307617,55.3529053 82.1151123,55.7591553 C82.171346,56.0299886 82.2516683,56.4669189 82.3560791,57.0699463 C83.5183512,58.1198324 84.126709,58.6931559 84.1811523,58.789917 C84.2628174,58.9350586 85.1691895,62.3696289 85.4699707,63.9013672 C85.6704915,64.922526 85.7913818,65.7810465 85.8326416,66.4769287 C86.0222168,66.7277425 86.1096395,66.924764 86.0949097,67.0679932 C86.0801799,67.2112223 85.9927572,67.4413656 85.8326416,67.7584229 C85.8417562,68.021932 85.7208659,68.2738241 85.4699707,68.5140991 C85.0936279,68.8745117 83.5174561,69.6959839 82.881897,69.8510742 C82.4581909,69.9544678 82.202596,69.9970907 82.1151123,69.9789429 C81.4972738,70.3668009 81.1109823,70.5822144 80.9562378,70.6251831 C80.7241211,70.6896362 79.2316284,70.9457397 79.0038452,70.7406006 C78.8519897,70.6038411 78.8015747,70.4062907 78.8526001,70.1479492 L78.5285645,70.1479492 C78.3303927,70.5812988 78.1577038,70.8371785 78.010498,70.9155884 C77.7896893,71.0332031 72.4746072,72.0000267 69.9940785,72.0000267 C67.5135498,72.0000267 62.3759766,72.0000267 61.2172852,72.0000267 C60.0585937,72.0000267 57.2322998,71.666748 56.7939453,71.493042 C56.3555908,71.3193359 55.2194824,70.2310791 54.8530273,69.9789429 C54.608724,69.8108521 53.6941732,69.7030436 52.109375,69.6555176 C51.644043,70.2364095 51.296346,70.6564331 51.0662842,70.9155884 C50.7211914,71.3043213 49.7207031,72.0000267 48,72.0000267 C46.2792969,72.0000267 33.4007568,72.0000267 32.8028564,72.0000267 C32.2049561,72.0000267 31.1791992,71.1089478 30.4100342,70.9169922 C29.6408691,70.7250366 28.3758545,70.5554199 28.1339111,70.6251831 C27.8919678,70.6949463 27.3568115,71.4820557 27.2305908,71.493042 C27.1043701,71.5040283 24.5941162,71.6016846 23.836792,71.493042 C23.0794678,71.3843994 19.7050781,70.7976074 16.6743164,69.3039551 C13.6435547,67.8103027 11.324585,66.019043 10.973999,65.7802734 C10.6234131,65.5415039 10.0067139,63.9772949 9.99950683,63.1604004 C9.99328613,62.3435059 11.1155396,60.6432495 11.3652954,60.5764771 C11.5076994,60.5384052 11.1888033,60.903791 11.2264753,61.4241501 C11.2548746,61.8164247 11.263538,62.2475505 11.2675781,62.5368652 C11.2771606,62.7411499 11.3978882,62.7763062 11.7490845,62.8112183 C12.1002808,62.8461304 18.2250977,63.5648193 22.0943604,63.675415 C25.963623,63.7860107 31.5583496,63.5258179 35.4606934,63.0933838 C39.3630371,62.6609497 46.1162109,61.663208 46.8243408,61.5350342 C47.5324707,61.4068604 48.8035889,61.164917 49.3243408,60.9272461 C49.8450928,60.6895752 51.2685547,60.0664922 54.1556396,59.5012207 C57.0427246,58.9359492 65.0064697,57.0997314 68.2757568,56.5123291 C71.5450439,55.9249268 77.015564,55.2072754 78.4530029,55.0949707 C79.8904419,54.982666 81.0229492,54.8815918 81.2790527,54.9406738 Z" id="路径-754" fill="#BCBCBD"></path>
                <path d="M85.8326416,66.4769287 C86.0222168,66.7277425 86.1096395,66.924764 86.0949097,67.0679932 C86.0801799,67.2112223 85.9927572,67.4413656 85.8326416,67.7584229 C85.8417562,68.021932 85.7208659,68.2738241 85.4699707,68.5140991 C85.0936279,68.8745117 83.5174561,69.6959839 82.881897,69.8510742 L82.514228,69.9342109 C82.3064733,69.9761307 82.1734348,69.9910414 82.1151123,69.9789429 L81.6422418,70.2691613 C81.2954376,70.4758172 81.0667696,70.5944911 80.9562378,70.6251831 L80.7083341,70.677541 C80.3602855,70.7415489 79.7621933,70.8274774 79.3675738,70.8180641 C79.2295099,70.2843168 79.1237746,69.6273 79.0529583,68.8463872 L79.0146796,68.362967 L78.2966144,66.8932328 L85.6967268,65.2113449 C85.7651199,65.6803617 85.8104248,66.1022229 85.8326416,66.4769287 Z" id="路径" fill="#D7D7D7"></path>
                <path d="M81.2790527,54.9406738 C81.5351562,54.9997559 82.0307617,55.3529053 82.1151123,55.7591553 L82.3560791,57.0699463 L83.6840515,58.2873535 C83.9882304,58.5740153 84.1539307,58.7415365 84.1811523,58.789917 L84.2326872,58.9390391 C84.4469224,59.637042 85.2008506,62.5308645 85.4699707,63.9013672 C85.6704915,64.922526 85.7913818,65.7810465 85.8326416,66.4769287 C85.9590251,66.6441379 85.3348796,66.825453 83.9602051,67.020874 C82.7584827,67.2752742 81.8667998,67.4136612 81.2851562,67.4360352 C80.5591247,67.4639632 79.592572,67.5036767 78.385498,67.5551758 C77.3438721,64.1799316 75.8354722,62.24578 74.1724322,61.9765977 L73.3813105,61.8385475 C70.9930635,61.3954003 67.8936445,60.6073526 68.753338,60.4972606 L68.8703692,60.4876245 C70.2216954,60.4225147 78.5639648,58.5229492 77.9557885,58.3794368 L77.7540971,58.3415682 C76.5169245,58.137774 70.9901857,57.529283 67.6343035,58.3794368 L66.35018,58.7198689 C62.4684973,59.7821268 56.2484087,61.701675 54.7865798,61.6163499 C53.6847387,61.5520368 52.4956011,60.7588592 51.562134,60.1164769 C52.1369943,59.9522065 52.8267967,59.7769969 53.6474317,59.604375 L55.5951455,59.2054627 C58.9414554,58.4977042 64.7942366,57.1691628 67.8017647,56.5999334 L68.2757568,56.5123291 C71.2607581,55.9760052 76.0808137,55.3310995 77.9906304,55.1375158 L80.3090286,54.9535522 C80.8038483,54.9216309 81.151001,54.9111328 81.2790527,54.9406738 Z" id="路径" fill="#B0ADAD"></path>
                <path d="M85.4699707,63.9013672 C85.6704915,64.922526 85.7913818,65.7810465 85.8326416,66.4769287 C86.0222168,66.7277425 81.2600776,67.7352916 81.0246582,67.449971 C80.803087,67.181434 80.6634024,66.148093 80.6324391,65.4576994 L80.6259766,65.217041 C80.6221924,64.5562744 80.1097412,61.8687744 79.9493408,60.9398371 C79.8103271,60.1347582 80.3597877,59.9788432 81.4160198,59.8573131 L81.9388336,59.8014252 C82.6152304,59.7311452 83.2961862,59.6350278 83.9194287,59.3149018 L84.2259521,59.1352539 C84.2418393,59.1246945 84.2585931,59.1109875 84.2762133,59.0941327 L84.5370944,60.0392222 C84.8154364,61.0839575 85.1862441,62.5601386 85.3983575,63.5533416 L85.4699707,63.9013672 Z" id="路径" fill="#C1C1C6"></path>
                <path d="M82.3929461,57.1051658 L83.6840515,58.2873535 C83.9882304,58.5740153 84.1539307,58.7415365 84.1811523,58.789917 C83.7233482,59.0847166 82.6886435,59.3413222 81.3057351,59.5324425 L78.9671964,59.8210952 C75.7971477,60.2402032 69.8259411,61.1248675 66.5131723,61.496841 L64.541781,61.7006862 C60.795821,62.0700588 55.8222809,62.4836731 54.2313232,62.4975586 C52.4130859,62.5134277 54.6008301,61.0263208 57.0455322,60.6634521 L62.8183994,59.8736823 L62.8183994,59.8736823 L72.6084946,58.5762708 L72.6084946,58.5762708 L82.114624,57.163208 C82.2161119,57.1511685 82.3088859,57.1318211 82.3929461,57.1051658 Z M50.730158,60.6784182 L50.6148682,60.7236328 C50.320516,60.8293457 49.9575195,60.9935567 49.5258789,61.2162657 L48.9164258,61.4386564 C48.6466699,61.5305124 48.4293701,61.5933594 48.2645264,61.6271973 L48.0697267,61.6561581 C47.4273645,61.7374027 45.5415751,61.9055686 43.9113139,61.9765977 L46.8243408,61.5350342 L46.8243408,61.5350342 L47.7892387,61.349067 C48.3802891,61.2260036 48.9988708,61.0757904 49.3243408,60.9272461 L49.7262899,60.7516128 C50.2352232,60.5398646 51.0768937,60.2290837 52.357361,59.9030766 L51.2825047,60.4281606 C51.0544512,60.5361605 50.8645746,60.6226343 50.730158,60.6784182 L50.730158,60.6784182 Z M81.2790527,54.9406738 C81.5050264,54.992805 81.9174636,55.2738814 82.0693248,55.6183702 C81.6862078,55.4105179 81.3240002,55.3127404 80.979248,55.3236084 L80.5172691,55.3536817 C79.0663352,55.4666905 75.0082796,55.8694856 72.7758789,56.2005615 C70.3919939,56.5541033 67.4761527,57.209515 65.8694143,57.5360064 L65.5227051,57.6052246 C64.5466364,57.7957254 62.5094065,58.0537962 59.4110156,58.3794368 L63.3618898,57.5178325 C65.3045712,57.0989659 67.0958821,56.7243206 68.2757568,56.5123291 L69.6535587,56.2774605 C72.7410223,55.7744847 76.7757264,55.2481006 78.2431514,55.1129917 L80.3090286,54.9535522 C80.8038483,54.9216309 81.151001,54.9111328 81.2790527,54.9406738 Z" id="形状" fill="#E8E5E5"></path>
                <path d="M70.7401702,60.2265586 L67.5893275,60.9323873 C66.4057471,61.1925856 65.0888673,61.477706 63.638688,61.7877484 L60.8552668,62.0422917 C58.0465124,62.287405 55.3309517,62.4879613 54.2313232,62.4975586 C52.4130859,62.5134277 54.6008301,61.0263208 57.0455322,60.6634521 L62.8183994,59.8736823 L72.6084946,58.5762708 L77.7430287,57.8140931 C75.9601523,58.7604292 73.6258662,59.5645844 70.7401702,60.2265586 Z" id="路径" fill="#DCDCDC"></path>
                <path d="M56.6360819,62.3754669 L55.3352391,62.4568433 C54.8821332,62.480825 54.5062304,62.4951593 54.2313232,62.4975586 C52.4130859,62.5134277 54.6008301,61.0263208 57.0455322,60.6634521 L62.8183994,59.8736823 L64.2080244,59.690322 L62.0860397,60.4925205 C59.85315,61.3230023 58.0364974,61.9506511 56.6360819,62.3754669 Z" id="路径" fill="#C8C8C8"></path>
                <path d="M75.420166,63.0317383 C76.3354492,63.6517334 77.5394287,65.0266113 77.7728271,65.8952637 C77.9284261,66.4743652 77.9885254,67.0581055 77.953125,67.6464844 L79.364624,67.6464844 C78.8713304,68.0868986 78.6580411,68.4094655 78.7247563,68.6141852 L78.7650131,68.7872346 C78.8245982,69.1021255 78.9078203,69.7536492 79.0146796,70.7418057 L79.0038452,70.7406006 C78.8519897,70.6038411 78.8015747,70.4062907 78.8526001,70.1479492 L78.5285645,70.1479492 C78.3303927,70.5812988 78.1577038,70.8371785 78.010498,70.9155884 C77.7896893,71.0332031 72.4746072,72.0000267 69.9940785,72.0000267 L61.2172852,72.0000267 L60.6744829,71.98342 C59.3473676,71.9139892 57.1738525,71.6435872 56.7939453,71.493042 C56.3555908,71.3193359 55.2194824,70.2310791 54.8530273,69.9789429 L54.7865798,69.9432553 C54.922762,69.6995892 55.0011603,69.3665907 55.0226734,68.9299316 L55.048432,68.2933296 C55.0963279,67.3766592 55.2605416,66.0355573 56.1585693,65.1915283 C57.2062683,64.2068278 58.1727295,63.9297782 59.6663901,63.7412234 L69.9940785,62.5701904 C71.9761963,62.3342285 74.5048828,62.4117432 75.420166,63.0317383 Z" id="路径" fill="#C5CAC9"></path>
                <path d="M78.7247563,68.6141852 L78.7650131,68.7872346 L78.8420182,69.2835038 C78.8903388,69.6381073 78.9478925,70.1242079 79.0146796,70.7418057 L79.0038452,70.7406006 C78.8519897,70.6038411 78.8015747,70.4062907 78.8526001,70.1479492 L78.5285645,70.1479492 C78.3303927,70.5812988 78.1577038,70.8371785 78.010498,70.9155884 C77.7896893,71.0332031 72.4746072,72.0000267 69.9940785,72.0000267 L61.2172852,72.0000267 L60.6744829,71.98342 L60.0615956,71.942295 C58.7629676,71.8391776 57.1195801,71.6220808 56.7939453,71.493042 C56.3555908,71.3193359 55.2194824,70.2310791 54.8530273,69.9789429 L54.7865798,69.9432553 C54.8699763,69.7940368 54.9317027,69.6113167 54.9719653,69.3918046 C55.3553911,69.8708201 56.1729951,70.167359 57.4241861,70.2801266 L57.8832936,70.3067679 C61.217883,70.4332685 74.5838559,69.9733097 75.9702148,69.6715507 C77.4262029,69.354636 78.2149596,68.4968514 78.7171311,68.5592057 L78.7247563,68.6141852 L78.7247563,68.6141852 Z" id="路径" fill="#B9C1BE"></path>
                <path d="M78.2966144,68.6141852 C78.2937712,68.524871 78.4410335,68.5464339 78.7384011,68.6788736 L78.7650131,68.7872346 L78.8420182,69.2835038 C78.8903388,69.6381073 78.9478925,70.1242079 79.0146796,70.7418057 L79.0038452,70.7406006 C78.8519897,70.6038411 78.8015747,70.4062907 78.8526001,70.1479492 L78.5285645,70.1479492 C78.3303927,70.5812988 78.1577038,70.8371785 78.010498,70.9155884 C77.7896893,71.0332031 72.4746072,72.0000267 69.9940785,72.0000267 L61.2172852,72.0000267 L60.6744829,71.98342 L60.0615956,71.942295 C58.7629676,71.8391776 57.1195801,71.6220808 56.7939453,71.493042 C56.6630994,71.4411919 56.4700848,71.3078568 56.2539275,71.1395964 L57.202919,71.3533338 C57.2358626,71.3616092 57.2627453,71.3686721 57.2835693,71.3745117 C57.5029602,71.4360352 58.2215214,71.3820419 58.853889,71.3744516 L63.5953909,71.3505415 C64.6794533,71.3388456 65.8245222,71.3229498 66.8691836,71.3023365 L69.2456879,71.2384526 C72.4984695,71.1226524 77.1346872,70.8590663 77.4620972,70.7734985 C77.7065633,70.7096079 77.9819132,70.5482717 78.288147,70.2894897 L78.2966144,68.6141852 L78.2966144,68.6141852 Z" id="路径" fill="#8D8E85"></path>
                <path d="M75.420166,63.0317383 C76.3354492,63.6517334 77.5394287,65.0266113 77.7728271,65.8952637 C77.9266579,66.4677845 77.9871472,67.0448392 77.9542948,67.6264278 C77.0975203,67.9196015 74.4827159,68.3934448 72.3321916,68.5806949 L71.2555639,68.6581511 C67.9889626,68.8700937 59.3747559,69.3422889 57.5656738,69.362967 C55.6174316,69.3852357 55.3690186,68.8659668 55.2062619,68.8166504 C55.1631067,68.8035741 55.1056552,68.7956986 55.0339072,68.7930239 L55.048432,68.2933296 C55.0963279,67.3766592 55.2605416,66.0355573 56.1585693,65.1915283 C57.2062683,64.2068278 58.1727295,63.9297782 59.6663901,63.7412234 L69.9940785,62.5701904 C71.9761963,62.3342285 74.5048828,62.4117432 75.420166,63.0317383 Z" id="路径" fill="#828282"></path>
                <path d="M74.1429443,64.1549072 C75.6580811,64.8238525 76.0754395,65.291626 76.3267822,66.010498 C76.473303,66.4295658 76.9937621,66.5839087 77.8881597,66.4735265 C77.9566128,66.8529914 77.9761964,67.2387021 77.9542948,67.6264278 C77.0975203,67.9196015 74.4827159,68.3934448 72.3321916,68.5806949 L71.2555639,68.6581511 L63.8640491,69.0822832 C61.076037,69.2294096 58.4702148,69.3526279 57.5656738,69.362967 C56.1273232,69.3794075 55.61548,69.1006781 55.3805899,68.9338092 L55.5667004,68.5121435 C55.9791291,67.5983856 56.3632677,66.9606708 56.7191162,66.598999 C57.3625031,65.9450836 59.3812047,65.5585973 61.7689243,65.4066445 L62.2510903,65.3793713 C64.8457031,65.2504883 67.1528299,64.9606934 69.9940785,64.5737305 C72.8353271,64.1867676 72.6278076,63.4859619 74.1429443,64.1549072 Z" id="路径" fill="#717376"></path>
                <path d="M11.3295593,60.6055298 C11.4563467,60.5716331 11.1720819,60.8105491 11.212782,61.2559779 C11.2522562,61.6879903 11.2629503,62.2054633 11.2675781,62.5368652 C11.2755636,62.7071025 11.360733,62.7598894 11.5921396,62.79296 L12.4806834,62.8920396 L12.5490115,63.6207079 C12.6581079,64.6981531 12.8110608,65.668654 13.1987305,66.0335693 C14.2614746,67.0339355 19.7329102,69.0736084 21.5888672,69.442749 C23.3020583,69.7834942 25.3313436,69.6860344 26.368757,69.8164502 L26.6066895,69.854187 C27.541626,70.041626 31.1802979,70.3034668 32.1544189,70.836792 C33.12854,71.3701172 49.3048096,70.4733887 50.0125732,70.3166504 C50.4254354,70.2252197 50.9278946,69.8598887 51.5199509,69.2206573 L51.7791748,68.9299316 L51.878479,69.2787476 L52.2748855,69.6607822 L52.109375,69.6555176 L51.4996033,70.4062042 C51.3257548,70.616216 51.1813151,70.7860107 51.0662842,70.9155884 C50.7211914,71.3043213 49.7207031,72.0000267 48,72.0000267 L32.8028564,72.0000267 C32.2049561,72.0000267 31.1791992,71.1089478 30.4100342,70.9169922 C29.6408691,70.7250366 28.3758545,70.5554199 28.1339111,70.6251831 C27.8919678,70.6949463 27.3568115,71.4820557 27.2305908,71.493042 L26.4629132,71.5220676 C25.7093651,71.5437961 24.5940005,71.5615696 24.0104035,71.5121067 L23.836792,71.493042 C23.0794678,71.3843994 19.7050781,70.7976074 16.6743164,69.3039551 C13.6435547,67.8103027 11.324585,66.019043 10.973999,65.7802734 C10.6234131,65.5415039 10.0067139,63.9772949 9.99913705,63.1604004 C9.99328613,62.3435059 11.0798035,60.6723022 11.3295593,60.6055298 Z M86.0949097,67.0679932 C86.0801799,67.2112223 85.9927572,67.4413656 85.8326416,67.7584229 C85.8417562,68.021932 85.7208659,68.2738241 85.4699707,68.5140991 C85.0936279,68.8745117 83.5174561,69.6959839 82.881897,69.8510742 L82.514228,69.9342109 C82.3064733,69.9761307 82.1734348,69.9910414 82.1151123,69.9789429 L81.6422418,70.2691613 C81.2954376,70.4758172 81.0667696,70.5944911 80.9562378,70.6251831 C80.7241211,70.6896362 79.2316284,70.9457397 79.0038452,70.7406006 C78.8519897,70.6038411 78.8015747,70.4062907 78.8526001,70.1479492 L78.7310904,70.1451059 C78.6939832,68.9154044 78.8199153,68.1519479 79.1088867,67.8547363 C79.7296143,67.2163086 79.8942871,67.5305176 80.6864014,67.5141831 C81.4785156,67.4978487 81.7099609,68.5396729 82.126709,68.744873 C82.543457,68.9500732 82.7076416,68.7141113 83.3322754,68.4460449 C83.9569092,68.1779785 84.9914551,67.1677246 85.3011475,66.8121338 C85.4298173,66.6643943 85.6049979,66.5302145 85.8266893,66.4095944 L85.8326416,66.4769287 C86.0222168,66.7277425 86.1096395,66.924764 86.0949097,67.0679932 Z M52.4079938,69.6654783 L52.2240601,69.1442261 L52.9115514,69.0168346 C54.296255,68.7737593 54.9993625,68.7447917 55.020874,68.9299316 C55.0412753,69.1055164 54.884901,69.536973 54.7190718,69.9160709 C54.383937,69.7933898 53.612604,69.7099494 52.4079938,69.6654783 Z" id="形状" fill="#D0CCCC"></path>
                <path d="M11.3295593,60.6055298 C11.4563467,60.5716331 11.1720819,60.8105491 11.212782,61.2559779 C11.2522562,61.6879903 11.2629503,62.2054633 11.2675781,62.5368652 C11.2755636,62.7071025 11.360733,62.7598894 11.5921396,62.79296 L12.4806834,62.8920396 L12.5490115,63.6207079 C12.6581079,64.6981531 12.8110608,65.668654 13.1987305,66.0335693 L13.305903,66.122355 L13.3314819,66.3011908 C12.6220442,66.037354 12.0826478,65.737281 11.713293,65.4009717 L11.5427856,65.2297974 C10.9956055,64.6201183 10.8007202,62.230896 10.8845825,61.4359131 C10.9062275,61.2307265 10.9594853,61.0519565 11.0271243,60.8993614 C11.1600881,60.7313925 11.269233,60.6216581 11.3295593,60.6055298 Z" id="路径" fill="#EAEAEA"></path>
                <path d="M80.9067383,68.362967 C80.9275763,68.7495968 80.8275146,69.7724609 80.5330811,70.277832 C80.2386475,70.7832031 79.2026663,70.9196568 79.0038452,70.7406006 C78.8519897,70.6038411 78.8015747,70.4062907 78.8526001,70.1479492 L78.7310904,70.1451059 C78.7178338,69.7057912 78.7253857,69.3259833 78.7537464,69.0056821 C79.4049107,69.2769912 80.1228973,69.06149 80.9067383,68.362967 Z M85.4699707,68.5140991 C85.0936279,68.8745117 83.5174561,69.6959839 82.881897,69.8510742 L82.514228,69.9342109 L82.4266391,69.9497341 C82.9822496,69.5824584 83.4661759,69.2868719 83.878418,69.0629748 C84.5373099,68.7051171 85.5195012,67.9380221 85.926825,67.5615262 L85.8326416,67.7584229 C85.8417562,68.021932 85.7208659,68.2738241 85.4699707,68.5140991 Z" id="形状" fill="#DBDBDB"></path>
                <path d="M31.9569759,70.7458594 L32.1544189,70.836792 C32.1837328,70.8528411 32.2268131,70.8675953 32.2828242,70.8811135 C32.6429931,71.2857642 32.9833915,71.6775251 33.5211182,71.6737807 L49.0366211,71.4967041 C49.5855611,71.4967041 50.2589464,71.3064265 51.0567769,70.9258714 C50.7211914,71.3043213 49.7207031,72.0000267 48,72.0000267 L32.8028564,72.0000267 C32.2049561,72.0000267 31.1791992,71.1089478 30.4100342,70.9169922 C29.6408691,70.7250366 28.3758545,70.5554199 28.1339111,70.6251831 C27.8919678,70.6949463 27.3568115,71.4820557 27.2305908,71.493042 L26.4629132,71.5220676 L25.7492483,71.5382475 C25.1154235,71.5484637 24.4272585,71.5474373 24.0104035,71.5121067 L23.836792,71.493042 C23.7053258,71.4741824 23.4949954,71.440914 23.2212888,71.3909941 C24.5232487,71.4010429 25.7669382,70.9628014 27.0064697,70.376709 C27.3202435,70.2283461 27.6632182,70.1201877 28.0177704,70.0444538 L29.5835643,70.2452209 C30.5229393,70.3777764 31.4373591,70.5400092 31.9569759,70.7458594 L31.9569759,70.7458594 Z" id="路径" fill="#6E6E6E"></path>
                <path d="M30.9985155,71.1565467 L30.9533134,71.1310856 C30.7645565,71.0368304 30.5809597,70.959649 30.4100342,70.9169922 C29.6408691,70.7250366 28.3758545,70.5554199 28.1339111,70.6251831 L28.1147267,70.6358114 C27.6731783,70.5793531 27.1744424,70.5416176 26.6569562,70.5427638 L26.1346436,70.5576172 C24.4025879,70.6541748 24.1500244,70.1556396 23.6947021,69.9416504 C23.2393799,69.7276611 22.09021,69.9366455 21.331543,69.9416504 C20.572876,69.9466553 19.411377,69.7929688 18.3082275,69.3673096 C17.2050781,68.9416504 14.1104736,67.4202881 13.3131104,66.8087158 C12.5157471,66.1971436 11.5429688,65.1176758 11.3492432,64.2349854 C11.2717529,63.8819092 11.2407568,63.5050586 11.2562549,63.1044336 L11.2917419,62.6498523 C11.3321072,62.7353807 11.4257695,62.7699594 11.6014741,62.7942725 L14.9787509,63.1540127 C17.1382395,63.3682751 19.9595947,63.6143967 22.0943604,63.675415 C25.6411845,63.7767944 30.6378776,63.5666084 34.4518274,63.1977891 L35.4606934,63.0933838 C39.3630371,62.6609497 46.1162109,61.663208 46.8243408,61.5350342 L47.7229551,61.3627798 C47.9436739,61.3174054 48.1699541,61.2680607 48.3848828,61.2162657 C48.458843,61.2510292 48.4911056,61.2986578 48.4836426,61.3684082 C48.4614258,61.5760498 49.9338379,61.5321045 50.7722168,61.6981201 C51.6105957,61.8641357 52.0645752,62.8118896 52.0645752,64.0557861 L52.0645752,69.0963135 L52.0645752,69.0963135 C51.8930664,68.9993896 51.7181396,69.1982422 51.0817871,70.1235352 C50.4454346,71.0488281 48.2005615,71.1518555 46.1749268,71.184082 L41.1553078,71.1984085 L41.1553078,71.1984085 L30.9985155,71.1565467 L30.9985155,71.1565467 Z" id="路径" fill="#D4D2D5"></path>
                <path d="M48.3848828,61.2162657 C48.458843,61.2510292 48.4911056,61.2986578 48.4836426,61.3684082 C48.4614258,61.5760498 49.9338379,61.5321045 50.7722168,61.6981201 C51.6105957,61.8641357 52.0645752,62.8118896 52.0645752,64.0557861 L52.0645752,69.0963135 C51.8930664,68.9993896 51.7181396,69.1982422 51.0817871,70.1235352 C50.4454346,71.0488281 48.2005615,71.1518555 46.1749268,71.184082 L41.1553078,71.1984085 L30.9985155,71.1565467 L30.9533134,71.1310856 C30.7645565,71.0368304 30.5809597,70.959649 30.4100342,70.9169922 C29.6408691,70.7250366 28.3758545,70.5554199 28.1339111,70.6251831 L28.1147267,70.6358114 C27.6731783,70.5793531 27.1744424,70.5416176 26.6569562,70.5427638 L26.1346436,70.5576172 C24.4025879,70.6541748 24.1500244,70.1556396 23.6947021,69.9416504 C23.2393799,69.7276611 22.09021,69.9366455 21.331543,69.9416504 C20.572876,69.9466553 19.411377,69.7929688 18.3082275,69.3673096 C17.2050781,68.9416504 14.1104736,67.4202881 13.3131104,66.8087158 C12.5157471,66.1971436 11.5429688,65.1176758 11.3492432,64.2349854 C11.2717529,63.8819092 11.2407568,63.5050586 11.2562549,63.1044336 L11.2917419,62.6498523 C11.3321072,62.7353807 11.4257695,62.7699594 11.6014741,62.7942725 L14.9787509,63.1540127 L16.96038,63.3404081 C18.6943943,63.4938056 20.5695278,63.6318305 22.0943604,63.675415 C25.5306859,63.773636 30.3279485,63.5794024 34.092001,63.2317934 L34.342041,63.4616366 L34.342041,63.4616366 L33.2542315,63.7363858 C30.8333477,64.3388239 29.2338329,64.6707579 28.4556872,64.7321878 L26.0729656,64.7909257 C23.3111402,64.8394541 18.9386511,64.8827168 17.4241605,64.7627448 L17.1989746,64.7412109 C15.4899902,64.5410156 16.4838867,65.4363817 17.5793457,66.2438256 C18.6200317,67.0108973 21.3659052,68.2114626 25.3231799,68.8247057 L26.9174341,69.0578809 C30.3372797,69.608965 31.0058789,70.2474532 36.348999,70.362967 C42.1567383,70.4885254 47.0966797,69.3311585 48,68.362967 C48.9033203,67.3947754 49.8479004,63.829834 48.0947266,62.829834 C47.2071549,62.3235683 46.2597963,61.9721275 45.2526508,61.7755114 L46.8243408,61.5350342 L46.8243408,61.5350342 L47.7229551,61.3627798 L48.3848828,61.2162657 L48.3848828,61.2162657 Z" id="路径" fill="#CCCBD0"></path>
                <path d="M11.2917419,62.6498523 C11.3321072,62.7353807 11.4257695,62.7699594 11.6014741,62.7942725 L14.9787509,63.1540127 L15.7717563,63.2299202 C14.1112424,64.0122846 13.579088,64.6086589 14.175293,65.019043 L15.1633297,65.7708272 C16.7108541,66.911868 19.9325629,68.857937 27.8979492,70.3613281 C28.0021097,70.4419715 28.1017221,70.5273532 28.1950722,70.6161437 L28.1339111,70.6251831 L28.1147267,70.6358114 C27.6731783,70.5793531 27.1744424,70.5416176 26.6569562,70.5427638 L26.1346436,70.5576172 C24.4025879,70.6541748 24.1500244,70.1556396 23.6947021,69.9416504 C23.2393799,69.7276611 22.09021,69.9366455 21.331543,69.9416504 C20.572876,69.9466553 19.411377,69.7929688 18.3082275,69.3673096 C17.2050781,68.9416504 14.1104736,67.4202881 13.3131104,66.8087158 C12.5157471,66.1971436 11.5429688,65.1176758 11.3492432,64.2349854 C11.2717529,63.8819092 11.2407568,63.5050586 11.2562549,63.1044336 L11.2917419,62.6498523 Z" id="路径" fill="#C2C1C8"></path>
                <path d="M12.3924067,65.9583547 L12.0792911,65.5894305 L12.3253174,65.8494263 L12.3253174,65.8494263 C12.8736572,66.4356689 14.8846436,67.6085205 17.2001953,68.6725464 C19.3795381,69.6739825 20.0404492,69.6248067 20.4902632,69.7034412 L20.5724487,69.7199707 C20.8160457,69.7763682 21.4661661,69.8249774 22.5228099,69.8657982 L21.7056167,69.9271185 C21.5743803,69.9352755 21.4483345,69.9408799 21.331543,69.9416504 C20.572876,69.9466553 19.411377,69.7929688 18.3082275,69.3673096 C17.2050781,68.9416504 14.1104736,67.4202881 13.3131104,66.8087158 C13.0140991,66.5793762 12.6904202,66.2842388 12.3924067,65.9583547 L12.3924067,65.9583547 Z" id="路径" fill="#9896A0"></path>
                <path d="M26.4524536,70.3796997 C27.2791748,70.2947998 29.3392334,70.4819336 29.9544678,70.6411743 C30.299034,70.7303582 30.7945557,70.8713989 31.3417641,71.1572529 L30.9985155,71.1565467 L30.9533134,71.1310856 C30.7645565,71.0368304 30.5809597,70.959649 30.4100342,70.9169922 C29.6408691,70.7250366 28.3758545,70.5554199 28.1339111,70.6251831 L28.1147267,70.6358114 C27.6731783,70.5793531 27.1744424,70.5416176 26.6569562,70.5427638 L26.1346436,70.5576172 C25.7698389,70.5779541 25.4706654,70.5718924 25.2214053,70.5476506 C25.4909567,70.4922833 25.9013062,70.4362996 26.4524536,70.3796997 Z" id="路径" fill="#E3E3E3"></path>
                <path d="M48.4836426,61.3684082 C48.4614258,61.5760498 49.9338379,61.5321045 50.7722168,61.6981201 C51.6105957,61.8641357 52.0645752,62.8118896 52.0645752,64.0557861 L52.0627659,69.0629748 L51.9180908,64.6711426 C51.854248,63.9616699 51.7137524,63.4185912 51.6589355,63.2250977 C51.4992676,62.661499 50.9208984,62.2821045 50.1885986,62.0076904 C49.5783488,61.779012 47.8330146,61.9081523 45.4289728,62.2313224 L43.1407656,62.5543605 C39.1882324,63.0757179 29.0035022,64.0894126 25.392334,64.1433105 C21.6688184,64.1988853 15.6013652,63.613494 13.5978306,63.3191458 L12.4351809,63.1438692 C11.9106039,63.0750587 11.571231,63.0555742 11.3525097,63.0865665 L11.2562549,63.1044336 L11.2917419,62.6498523 C11.3321072,62.7353807 11.4257695,62.7699594 11.6014741,62.7942725 L14.9787509,63.1540127 L16.96038,63.3404081 C18.6943943,63.4938056 20.5695278,63.6318305 22.0943604,63.675415 C25.6411845,63.7767944 30.6378776,63.5666084 34.4518274,63.1977891 L35.4606934,63.0933838 C39.3630371,62.6609497 46.1162109,61.663208 46.8243408,61.5350342 L47.7229551,61.3627798 L48.3848828,61.2162657 C48.458843,61.2510292 48.4911056,61.2986578 48.4836426,61.3684082 Z" id="路径" fill="#FFFFFF"></path>
                <path d="M56.1164551,68.9782715 C56.2227376,68.1051432 56.6066081,67.5944417 57.2680664,67.446167 C58.2602539,67.2237549 62.0216064,67.3637284 64.1610107,67.2236122 C66.300415,67.0834961 67.6082742,67.1248779 69.9940785,66.8815918 C72.3798828,66.6383057 73.6689453,66.3569085 74.4616699,66.4095944 C75.2543945,66.4622803 75.8962402,66.6070557 76.2416992,66.8815918 C76.4720052,67.0646159 76.6089274,67.3699544 76.6524658,67.7976074 C72.8993734,68.2916667 69.1730957,68.625529 65.4736328,68.7991943 C61.7741699,68.9728597 58.6551107,69.0325521 56.1164551,68.9782715 Z" id="路径-755" fill="#8D9393"></path>
                <path d="M77.9557885,67.623645 L77.9542948,67.6264278 C77.0975203,67.9196015 74.4827159,68.3934448 72.3321916,68.5806949 L71.2555639,68.6581511 L63.8640491,69.0822832 C61.076037,69.2294096 58.4702148,69.3526279 57.5656738,69.362967 C55.6174316,69.3852357 55.3690186,68.8659668 55.2062619,68.8166504 C55.1631067,68.8035741 55.1056552,68.7956986 55.0339072,68.7930239 L55.0372836,68.6967167 C55.2830127,68.5647526 55.5032102,68.537242 55.697876,68.6141852 C56.145874,68.7912598 56.3154297,68.9649249 56.8416748,68.9976602 L57.2093396,68.9966275 C58.8263077,68.963021 64.9439992,68.6788268 67.5605469,68.5291748 L68.7731098,68.4463593 C71.5976952,68.2274106 75.110325,67.8021873 75.7384033,67.7004137 L76.3219305,67.6135624 C76.9364145,67.5327164 77.6030854,67.4864344 77.9557885,67.623645 Z" id="路径" fill="#B5B6B0"></path>
                <path d="M26.7712402,65.0385742 C23.3703613,65.0005115 17.7614746,65.3327637 19.4897461,66.3564453 C21.2180176,67.380127 27.5761719,67.9714355 30.1320801,68.1196289 C32.6879883,68.2678223 35.8660889,69.8773011 40.3693237,69.362967 C44.8725586,68.8486328 48.7453613,63.9445801 43.5627441,64.0539551 C38.380127,64.1633301 30.1721191,65.0766369 26.7712402,65.0385742 Z" id="路径-756" fill="#D9D6DB"></path>
                <path d="M59.5593872,67.7004137 C59.0662842,67.7097263 58.3071289,67.7699372 58.3117065,67.449971 C58.3162842,67.1300049 58.1599121,66.4990834 58.0216675,66.4031672 C57.8834229,66.307251 58.1436157,65.51801 58.5363159,65.1396202 C58.9290161,64.7612305 59.9544678,64.7109421 60.3690186,65.1396202 C60.7835693,65.5682983 61.0888062,65.8509534 61.1108398,66.2073371 C61.1328735,66.5637207 61.2288818,67.3388459 60.9121704,67.449971 C60.595459,67.5610962 60.0524902,67.6911011 59.5593872,67.7004137 Z" id="路径-761" fill="#CECCC7"></path>
                <path d="M64.0462331,65.555393 C64.145813,65.4464111 64.4847731,65.1107246 64.5311744,64.9805027 C64.5775757,64.8502808 64.7414551,64.668335 65.0515137,64.6804199 C65.3615723,64.6925049 65.8740845,64.7515327 65.9631958,64.9805027 C66.0523071,65.2094727 66.6246546,65.2818371 66.6542969,65.5246582 C66.6839391,65.7674793 66.8002319,66.7508545 66.5859375,66.9249268 C66.3716431,67.098999 66.1777344,67.392395 65.6627197,67.3845825 C65.1477051,67.37677 64.432251,67.4376831 64.2080244,67.2236122 C63.9837978,67.0095414 63.9240112,66.5597316 63.9147339,66.2737928 C63.9054565,65.987854 63.9466533,65.6643749 64.0462331,65.555393 Z" id="路径-762" fill="#CECCC7"></path>
                <path d="M69.8688965,65.1396202 C69.7277222,65.293457 69.6184082,65.3916626 69.6296997,65.7327881 C69.6409912,66.0739136 69.7896707,66.6642456 69.9958791,66.7699585 C70.2020874,66.8756714 70.3046202,66.973999 70.7401702,67.0053711 C71.1757202,67.0367432 72.100708,66.7932129 72.2606812,66.7699585 C72.4206543,66.7467041 72.878418,66.5979017 72.895752,66.2073371 C72.9130859,65.8167725 73.0068359,65.4730271 72.7433472,65.1396202 C72.4798584,64.8062134 72.1908569,64.5692749 72.1365356,64.4916992 C72.0822144,64.4141235 72.3325195,64.2971904 72.4881592,64.2521718 C72.6437988,64.2071533 72.3504028,64.1339111 71.776123,64.1672974 C71.2018433,64.2006836 70.519043,64.2072144 70.1261597,64.3609009 C69.7332764,64.5145874 69.083252,64.4266968 69.4561768,64.4916992 C69.8291016,64.5567017 69.9766824,64.6434459 69.9958791,64.8366766 C70.0150757,65.0299072 70.0100708,64.9857834 69.8688965,65.1396202 Z" id="路径-763" fill="#CECCC7"></path>
                <path d="M72.1710815,64.8241272 C72.2955729,65.9497782 72.1140951,66.600118 71.6266479,66.7751465 C72.3196716,66.5605469 72.6429443,66.2643127 72.5934143,65.7303162 C72.5603943,65.3743184 72.4196167,65.0722555 72.1710815,64.8241272 Z" id="路径-764" fill="#828282"></path>
            </g>
        </g>
    </g>
</svg>