<?xml version="1.0" encoding="UTF-8"?>
<svg width="96px" height="96px" viewBox="0 0 96 96" version="1.1" xmlns="http://www.w3.org/2000/svg" xmlns:xlink="http://www.w3.org/1999/xlink">
    <title>Nike Air Max 270 XX</title>
    <defs>
        <rect id="path-1" x="0" y="0" width="96" height="96"></rect>
    </defs>
    <g id="icon" stroke="none" stroke-width="1" fill="none" fill-rule="evenodd">
        <g id="画板" transform="translate(-1086.000000, -582.000000)">
            <g id="Nike-Air-Max-270-XX" transform="translate(1086.000000, 582.000000)">
                <g id="#" opacity="0">
                    <use fill="#FFFFFF" fill-rule="evenodd" xlink:href="#path-1"></use>
                    <rect stroke-opacity="0.5" stroke="#DDDDDD" stroke-width="6" stroke-linejoin="square" x="3" y="3" width="90" height="90"></rect>
                    <rect stroke-opacity="0.507785184" stroke="#DDDDDD" stroke-width="12" stroke-linejoin="square" x="6" y="6" width="84" height="84"></rect>
                    <rect stroke-opacity="0.319406703" stroke="#979797" stroke-width="10" stroke-linejoin="square" x="5" y="5" width="86" height="86"></rect>
                </g>
                <path d="M53.3543091,47.1247559 C53.9349976,45.9682617 54.0448608,42.2879639 53.9877319,41.5657959 C53.930603,40.8436279 53.414978,39.3234253 53.1087036,38.4664917 C52.8024292,37.6095581 53.2293091,36.6769409 53.2337036,36.395874 C53.2380981,36.1148071 52.8074341,35.2160645 52.5836792,35.2562866 C52.3599243,35.2965088 52.222229,35.864563 51.8858643,36.0906372 C51.5494995,36.3167114 49.5016479,37.7836304 49.1433716,38.0001221 C48.7850952,38.2166138 46.7888184,39.854126 46.1380615,40.5554199 C45.4873047,41.2567139 41.3913574,44.2211914 41.0834961,44.592041 C40.7756348,44.9628906 37.220459,47.8439941 36.7784424,48.2581787 C36.3364258,48.6723633 35.8082581,50.0250549 35.4953003,50.2626648 C35.1823425,50.5002747 33.4857178,51.6865234 32.9821777,51.8121338 C32.4786377,51.9377441 31.7612305,52.4622803 31.3828125,52.6279297 C31.0043945,52.7935791 30.78125,53.0598755 30.7077026,53.0667114 C30.6341553,53.0735474 30.2432251,53.0182495 29.9414673,53.2549438 C29.6397095,53.4916382 29.1045532,54.2833862 28.90625,54.5673218 C28.7079468,54.8512573 30.4996338,54.8494873 32.4498291,54.3828125 C34.4000244,53.9161377 43.0510254,51.2634277 45.8510742,50.315918 C48.651123,49.3684082 52.7736206,48.28125 53.3543091,47.1247559 Z" id="路径-1049" fill="#4A4A4A"></path>
                <path d="M41.3624381,44.7804096 L41.3182352,44.8903246 C41.2308297,45.0853717 41.0180008,45.5142641 40.6797485,46.177002 L39.2300377,47.0403716 C38.7752533,47.3066856 38.4705887,47.4781591 38.3160441,47.554792 L38.2512817,47.5852051 C38.2238519,47.5970215 37.7408036,47.7946227 37.4871038,47.6530746 L40.152078,45.4261652 C40.5521041,45.0860333 40.8702616,44.808192 41.0168494,44.6628122 L41.0834961,44.592041 C41.1153688,44.5536472 41.1878435,44.4874539 41.2928937,44.3988508 L41.3522121,44.6579753 C41.3637293,44.7215538 41.3670645,44.7623506 41.3624381,44.7804096 Z M46.4360352,41.4194336 L44.4859886,42.5089136 C44.0801203,42.7416189 43.7589875,42.9347606 43.6810109,43.0074413 C43.6122924,43.0714926 43.3446071,43.1229413 42.8779552,43.1617873 L44.1103433,42.2163921 C44.9291254,41.584977 45.6843991,40.9900598 46.0288346,40.6644466 L46.1380615,40.5554199 C46.320563,40.3587456 46.6088888,40.0884382 46.9372319,39.7964911 L46.5832298,40.9035645 C46.5172185,41.1204398 46.4681195,41.2923959 46.4360352,41.4194336 Z" id="形状" fill="#242424"></path>
                <path d="M52.5836792,35.2562866 C52.8074341,35.2160645 53.2380981,36.1148071 53.2337036,36.395874 C53.2293091,36.6769409 52.8024292,37.6095581 53.1087036,38.4664917 L53.3672276,39.210722 C53.6441345,40.0336494 53.9448853,41.0241699 53.9877319,41.5657959 L53.9996355,41.8705571 C54.0047467,42.1908922 53.9971789,42.6652808 53.9720002,43.2047346 C53.7143711,43.2669345 53.3771744,43.185635 52.961792,42.9671021 L52.4995728,40.3220825 L52.4995728,40.3220825 C52.4442749,39.9569702 51.8133545,38.3044434 51.793532,37.913208 C51.7737095,37.5219727 52.1310425,36.7014771 52.1601563,36.5870361 C52.1749624,36.5288359 52.0010332,36.3363164 51.8182696,36.1367992 L51.8858643,36.0906372 C52.222229,35.864563 52.3599243,35.2965088 52.5836792,35.2562866 Z" id="路径" fill="#343434"></path>
                <path d="M51.9708587,36.2623035 L52.033671,36.2875977 C52.1753742,36.4255371 52.3743896,36.7996216 52.3712158,36.9462891 C52.368042,37.0929565 52.2680054,37.5585327 52.1413574,37.8847046 C52.0147095,38.2108765 52.4294434,38.8062744 52.6923828,39.5913086 C52.8855064,40.1678999 53.3092492,40.414282 53.8040912,40.6506639 C53.9014538,41.0086906 53.9690661,41.32984 53.9877319,41.5657959 C54.0082897,41.8256669 54.0072235,42.468589 53.9703755,43.2391197 L52.8769255,42.9731976 C52.314938,42.8318529 51.6199664,42.652438 50.7919922,42.4353638 L50.5604248,41.0296021 C50.5391235,40.8445435 50.2168783,39.8490601 50.053772,39.3462524 C49.9761023,39.1068202 49.8098036,38.770666 49.554876,38.3377897 L49.2887731,37.9063941 L49.977571,37.4320406 C50.4433112,37.1063271 50.9984904,36.7128802 51.3980147,36.4312309 L51.6878104,36.3151075 C51.774092,36.2861483 51.8487226,36.2677507 51.9077001,36.2623035 L51.9708587,36.2623035 Z" id="路径" fill="#151515"></path>
                <path d="M51.7115479,35.8458252 C51.8123779,35.8135376 51.9996948,36.1119995 52.1361084,36.3078003 C52.272522,36.5036011 52.4302979,36.6730957 52.2592163,36.9631958 C52.0881348,37.2532959 51.9782104,37.9664307 52.0213623,38.1036987 C52.0645142,38.2409668 52.5090332,39.1453857 52.7584229,40.0368652 C53.0078125,40.9283447 53.1907349,42.4751587 53.2538452,43.5029297 C53.3169556,44.5307007 51.2208252,42.9395752 51.111145,41.9202881 C51.0014648,40.901001 50.2229004,38.9750977 49.977417,38.5459595 C49.7319336,38.1168213 49.3485107,37.767334 49.3260498,37.6247559 C49.3035889,37.4821777 49.993042,37.0401001 50.3745728,36.7641602 C50.7561035,36.4882202 51.6107178,35.8781128 51.7115479,35.8458252 Z M50.342926,37.2893982 C50.3598022,37.3614807 50.5036316,37.703064 50.5969849,37.6697998 C50.6903381,37.6365356 51.6354065,37.1392822 51.7096863,37.0991516 C51.7839661,37.059021 51.5610657,36.8376465 51.4794617,36.7469177 C51.3978577,36.656189 50.3260498,37.2173157 50.342926,37.2893982 Z" id="形状结合" fill="#404040"></path>
                <path d="M50.074646,36.9177246 C50.1587118,37.0555216 50.2157593,37.1133016 50.2457886,37.0910645 C50.2908325,37.0577087 51.2202759,36.5168762 51.2426453,36.4735413 C51.2650146,36.4302063 51.1678467,36.2616461 51.1363831,36.2346191 C51.1154073,36.2166012 50.761495,36.444303 50.074646,36.9177246 Z" id="路径-1052" fill="#1E1E1E"></path>
                <path d="M75.9345142,34.5297852 C76.6577247,34.6069336 77.1977539,35.5162048 77.1117554,36.3826294 C77.0257568,37.249054 76.4055126,38.0201416 75.789917,38.5999146 C75.1743214,39.1796875 74.6325684,40.2827148 74.5776978,41.1608887 C74.5350206,41.8439128 74.8490148,43.0097355 75.1699587,44.0371399 L75.4385986,44.8693848 C75.8196411,46.0234375 76.3549805,47.7008667 76.6517944,48.9359741 C76.9486084,50.1710815 76.9517212,51.1851807 76.8876343,51.4450684 C76.8235474,51.7049561 76.647644,51.8068848 76.4714355,51.7103882 C76.3418705,51.6394348 74.4431241,45.4542741 73.3779284,41.9554779 L72.6730347,39.6318359 C72.4993286,39.0551147 72.3540039,38.4944458 72.4094238,38.3328857 C72.4648438,38.1713257 72.7845459,38.1118164 73.0656738,38.2092896 C73.2530924,38.2742716 73.3597005,38.40448 73.385498,38.5999146 L73.577755,37.7349205 C73.761097,36.9387703 73.9176941,36.3491516 74.0475464,35.9660645 C74.2856089,35.263738 75.0651029,34.5773104 75.7504216,34.527207 L75.9345142,34.5297852 Z M75.0889893,35.2205811 C74.673645,35.592041 74.3570557,36.1156006 74.18573,36.8182983 L73.8337502,38.2195892 C73.773859,38.479496 73.7302628,38.7049332 73.7209473,38.855835 C73.7043864,39.1241048 73.914266,39.6608276 74.3505859,40.4660034 C74.4888509,39.8233032 74.6783244,39.3617757 74.9190063,39.0814209 C75.2800293,38.6608887 76.2888794,37.798584 76.4884644,37.229248 C76.6880493,36.6599121 76.8925171,35.6862183 76.4884644,35.2603149 C76.0844116,34.8344116 75.5043335,34.8491211 75.0889893,35.2205811 Z" id="形状" fill="#181818"></path>
                <path d="M10.3872375,61.0672913 C10.2864685,59.6445007 10.9937134,58.5289307 11.6501465,58.1275635 C12.3065796,57.7261963 13.692627,57.0011597 17.0339355,56.489502 C20.3752441,55.9778442 22.5961914,56.0574951 23.3155518,55.8192139 C24.0349121,55.5809326 25.0925293,55.2225342 25.7945557,55.0675659 C26.496582,54.9125977 29.0105896,53.8482701 29.4835205,53.6870745 C29.9564514,53.5258789 34.802124,51.5093994 35.3118896,51.2375488 C35.8216553,50.9656982 35.7906494,49.1848145 36.9807129,48.2137451 C38.1707764,47.2426758 45.1885986,42.012085 46.779541,41.6040039 C48.3704834,41.1959229 50.3205423,40.68396 53.2552419,41.6040039 C56.1899414,42.5240479 59.9763184,44.6218262 61.1610107,45.2952881 C62.3457031,45.96875 63.6696777,46.65979 64.6931152,45.4077148 C65.7165527,44.1556396 67.644043,42.2611084 69.3675537,40.8378906 C71.0910645,39.4146729 72.4805298,38.6298218 72.6625366,38.6365698 C72.8445435,38.6438599 73.1290894,38.8641968 73.1871948,39.2619019 C73.2453003,39.6596069 73.2838135,39.7369995 73.4060059,39.8731689 C73.5281982,40.0093384 73.9210815,41.5975952 74.0557861,42.0093384 C74.1904907,42.4210815 74.9174194,44.5014038 75.2294312,45.4077148 C75.5414429,46.3140259 76.1826172,48.026123 76.3601074,48.8381348 C76.5375977,49.6501465 76.7521973,50.9894409 76.7636719,51.3432007 C76.7751465,51.6969604 77.5302734,53.4560547 68.0334473,56.489502 C58.5366211,59.5229492 34.1791992,66.8847656 31.557373,67.1599121 C28.9355469,67.4350586 13.9157715,65.213623 12.5756836,64.2922363 C11.2355957,63.3708496 10.4880066,62.4900818 10.3872375,61.0672913 Z" id="路径-1053" fill="#2B2B2B"></path>
                <path d="M52.7163718,41.447902 L53.444629,41.6638248 C52.7689165,43.3348467 51.3313904,46.3226725 49.1279297,47.9907227 L47.8681838,48.932042 C45.2177251,50.8801805 42.6748347,52.5028819 41.199707,52.3208008 L40.1647559,52.1938815 C38.5259456,51.9581756 36.5353275,51.3688921 36.5698587,48.6371122 C36.6887763,48.4832078 36.824182,48.3414714 36.9807129,48.2137451 L37.3208253,47.9437719 C39.1456342,46.5200532 45.3022374,41.9829363 46.779541,41.6040039 L47.3941997,41.4491038 C48.7677272,41.1159356 50.4299456,40.8409299 52.7163718,41.447902 Z" id="路径" fill="#3A3A3A"></path>
                <path d="M60.4381998,44.8906127 L61.1610107,45.2952881 C61.7765862,45.6452242 62.4297668,45.9999062 63.0588502,46.0842683 C63.1817399,46.401128 63.2568554,46.7103907 63.2793094,46.9864012 C63.4399414,48.9609375 62.448562,48.1443602 61.7043457,48.0581055 C60.9813928,47.9743152 55.750085,49.8532239 58.0485842,51.4661005 L58.2712402,51.607666 C61.1040194,53.2498862 56.7299805,57.9536152 49.2282715,61.1767578 C44.2271322,63.3255196 39.1004611,64.8967059 33.8482584,65.8903167 C39.4975966,61.6698191 42.1306966,58.2319336 41.7475586,55.5766602 C43.5352628,53.7984982 52.8087034,48.3901868 56.4995542,45.007379 L56.8388672,44.6865234 C57.2973753,44.2378073 57.745692,43.915097 58.1787109,43.6974335 L59.4187535,44.3389742 C59.7995594,44.5410075 60.1435992,44.728057 60.4381998,44.8906127 L60.4381998,44.8906127 Z" id="路径" fill="#1E1E1E"></path>
                <path d="M72.6625366,38.6365266 C72.8445435,38.6438599 73.1290894,38.8641968 73.1871948,39.2619019 C73.2453003,39.6596069 73.2838135,39.7369995 73.4060059,39.8731689 C73.5281982,40.0093384 73.9210815,41.5975952 74.0557861,42.0093384 L75.2294312,45.4077148 C75.5414429,46.3140259 76.1826172,48.026123 76.3601074,48.8381348 L76.4812956,49.4409903 C76.6027089,50.0887587 76.7168883,50.8214609 76.7526534,51.1908547 L76.7820623,51.5757668 C76.7831995,51.8648608 76.6638425,52.361782 75.7861509,53.0589324 L69.1498689,50.6564893 C64.6308534,49.0053054 62.0077985,48.0039331 61.2802425,47.6520996 C60.4702658,47.2604089 60.2931618,46.3980464 60.7489304,45.0650123 L61.5842046,45.5305178 C62.6530669,46.1044533 63.7900821,46.5124871 64.6931152,45.4077148 C65.7165527,44.1556396 67.644043,42.2611084 69.3675537,40.8378906 L69.996506,40.3344067 C71.4195642,39.2308288 72.5032806,38.6306653 72.6625366,38.6365266 Z" id="路径" fill="#333233"></path>
                <path d="M73.1203613,41.6022949 C73.1650865,42.8994869 73.0201805,43.6438289 72.6856435,43.8353207 C72.2224383,44.1004634 70.5042354,45.5737066 69.4873437,46.1532654 L69.2488636,46.2783203 C68.2885742,46.7290039 68.7680606,47.0717773 69.4752168,47.3203125 C70.182373,47.5688477 70.2878418,46.7375488 71.6838379,46.9394531 C73.079834,47.1413574 75.3684082,48.019043 75.9841309,49.1491699 L76.1610368,49.4892911 C76.4799326,50.1517168 76.1444416,49.9370164 75.2134698,49.7105115 L75.0048828,49.6621094 C74.1826172,49.480957 73.1580404,49.2828776 71.9311523,49.0678711 C73.1025095,49.8781459 73.9132043,50.3443154 74.3632369,50.4663797 L75.1343782,50.6246868 C75.6541587,50.7309535 76.2898384,50.8222418 76.6750582,50.5895692 L76.7526534,51.1908547 L76.7526534,51.1908547 L76.7820703,51.5757668 C76.7824992,51.6868264 76.7651533,51.8285575 76.6938617,52.0005295 C75.0226098,51.7456511 72.7619444,50.1082225 71.1643066,49.3128382 L70.3387411,48.8941569 C68.356702,47.8676155 66.1304946,46.5385437 66.7233406,45.8477295 C67.1750328,45.3213949 69.307373,43.90625 73.1203613,41.6022949 Z" id="路径" fill="#252325"></path>
                <path d="M73.3725098,42.468457 C73.5415039,42.4537109 73.773584,42.9486328 73.6550293,43.5080566 C73.5364746,44.0674805 72.8158203,44.7633301 72.0481445,45.2006348 C71.2804687,45.6379395 69.5589844,46.5586914 69.7264648,46.8058594 C69.8939453,47.0530273 69.8705509,47.3211914 69.4752168,47.2458008 C69.0798828,47.1704102 68.5166016,46.8333008 68.9805176,46.5477051 C69.4444336,46.2621094 72.2695801,44.3153809 72.6349609,43.9949219 C73.0003418,43.6744629 73.1066895,43.3380371 73.1411133,43.0399902 C73.1755371,42.7419434 73.2035156,42.4832031 73.3725098,42.468457 Z" id="路径-1079" fill="#494747"></path>
                <path d="M34.963623,53.2191162 C36.6456299,54.293457 39.7335205,56.5900879 40.4681396,57.3857422 C41.6480425,58.6636762 40.9177671,60.1922861 36.2602539,61.1591797 C31.6027407,62.1260733 26.8064243,61.3352121 25.6251221,61.1885986 C24.4438199,61.0419852 17.1435547,60.8079904 14.4963379,60.0249023 C13.1564862,59.6285533 12.3371592,58.9227159 12.0383569,57.9073902 L12.3620945,57.7449762 C13.1948984,57.3511687 14.5924355,56.8633711 17.0339355,56.489502 C20.3752441,55.9778442 22.5961914,56.0574951 23.3155518,55.8192139 L24.2967412,55.4963271 C24.6483213,55.3832842 25.0096162,55.2717295 25.3362197,55.1823701 L25.7945557,55.0675659 C26.44258,54.9245183 28.634541,54.006632 29.3399043,53.7394804 L29.7680641,53.5786979 C30.3224122,53.3599128 31.4098319,53.0477682 33.2780762,52.7675781 C33.7708142,52.6936797 34.3326632,52.8441924 34.963623,53.2191162 Z" id="路径" fill="#464646"></path>
                <path d="M41.1494141,58.1304 C40.5391846,58.338501 37.0672978,59.7572606 34.2753481,59.8901659 C31.4833984,60.0230713 30.7878418,59.9595938 30.1021729,59.5151973 C29.4165039,59.0708008 29.010498,58.3401716 29.1965332,57.9967459 C29.3825684,57.6533203 32.2416962,55.9560547 33.1609482,55.6929932 C34.0802002,55.4299316 35.6751709,55.3031006 36.1851807,55.4030762 C36.6951904,55.5030518 35.3128662,54.8653311 34.3743896,54.8752441 C33.4359131,54.8851572 34.157956,53.8187039 33.1609482,54.0921522 C32.1639404,54.3656006 32.1849019,54.774292 32.1437205,55.0699463 C32.1025391,55.3656006 29.3122559,57.3465576 27.9818115,58.3543701 C26.6513672,59.3621826 26.0562744,60.0364445 26.0946045,60.4980196 C26.1329346,60.9595947 28.4084473,61.4588623 30.9204102,61.4857178 C33.432373,61.5125732 36.8009033,60.9059786 38.4632568,60.3591309 C40.1256104,59.8122831 40.9950647,59.2617418 41.3393902,59.035595 C41.6837158,58.8094482 41.7596436,57.9222991 41.1494141,58.1304 Z" id="路径-1072" fill="#2E2E2E"></path>
                <path d="M41.1494141,58.1304 C41.7596436,57.9222991 41.6837158,58.8094482 41.3393902,59.035595 L41.122227,59.1741824 C40.6832216,59.445153 39.8485514,59.9034244 38.4632568,60.3591309 C36.8009033,60.9059786 33.432373,61.5125732 30.9204102,61.4857178 C28.4084473,61.4588623 26.1329346,60.9595947 26.0946045,60.4980196 C26.078,60.2980661 26.1802641,60.0581995 26.4096831,59.7685944 C28.6697381,59.9787015 30.5228866,60.0384753 31.9729254,59.9486307 L32.495712,59.9507117 C32.9717843,59.945763 33.5534979,59.9245282 34.2753481,59.8901659 C37.0672978,59.7572606 40.5391846,58.338501 41.1494141,58.1304 Z" id="路径" fill="#222222"></path>
                <path d="M52.89694,47.1885227 C53.1635742,47.3581543 54.7677002,47.8722996 54.40979,48.1619189 C54.0518799,48.4515381 51.879806,49.1134241 50.660301,50.0539044 C49.4407959,50.9943848 47.4381446,52.3007764 46.6978321,52.6439185 C45.9575195,52.9870605 44.9372559,53.2805068 43.8720703,52.9995063 C42.8068848,52.7185059 40.6776123,51.8994928 40.1517334,50.7641995 C39.6258545,49.6289062 39.7840576,49.046494 40.5183105,48.1619189 C41.2525635,47.2773438 47.5038366,43.0453782 48.277492,43.2391197 C49.0511475,43.4328613 53.6566162,45.4299316 54.40979,45.9127197 C55.1629639,46.3955078 54.8003537,46.6279297 53.8896788,46.3397217 C52.9790039,46.0515137 49.6716833,44.1582314 48.277492,44.7804096 C46.8833008,45.4025879 41.6601351,48.7457275 41.4529923,49.4523926 C41.2458496,50.1590576 44.2980957,51.6566662 44.9287109,51.6177008 C45.5593262,51.5787354 50.9358037,48.9204846 51.7811279,48.3581543 C52.6264521,47.795824 52.6303058,47.0188911 52.89694,47.1885227 Z" id="路径-1071" fill="#474646"></path>
                <path d="M32.8764648,53.0882568 C32.9267578,52.104248 33.0523071,51.1444702 33.7355957,50.1309204 C34.4188843,49.1173706 35.5033569,48.3853149 36.0181885,48.3432007 C36.3614095,48.3151245 36.579834,48.3151245 36.6734619,48.3432007 L36.40271,48.8227539 C37.021403,48.801473 37.4230754,48.8311564 37.6077271,48.9118042 C37.8847046,49.0327759 38.9490356,47.9031982 38.9066162,47.7630005 C38.8641968,47.6228027 37.7631226,47.4707031 37.6077271,47.4423828 C37.4523315,47.4140625 38.7339478,46.345459 38.989624,46.1085815 C39.2453003,45.8717041 40.43573,46.4338379 40.6524048,46.449707 C40.8690796,46.4655762 42.4226685,45.4888916 42.5896606,45.0914307 C42.7566528,44.6939697 41.8842773,43.9676386 41.914856,43.8353207 C41.9454346,43.7030029 42.770813,42.8190918 43.0300903,42.7837524 C43.2893677,42.7484131 43.97229,43.6209106 44.0968628,43.918457 C44.2214355,44.2160034 44.4758911,45.1094971 44.2836304,45.3497925 C44.0913696,45.5900879 40.055542,48.394043 38.989624,49.2318115 C37.9237061,50.0695801 37.2907715,50.4671631 36.9573975,50.2704468 C36.6240234,50.0737305 36.7258301,49.9382324 35.8403931,49.9641113 C34.9549561,49.9899902 34.8320312,50.2442017 34.9335327,50.37854 C35.0350342,50.5128784 35.6160278,50.4838257 35.5373535,50.6289062 C35.4586792,50.7739868 35.1019287,51.2293091 34.8739624,51.616272 C34.6459961,52.0032349 34.3057861,52.6090485 34.0585938,52.8991089 C33.8114014,53.1891693 32.8261719,54.0722656 32.8764648,53.0882568 Z" id="路径-1054" fill="#393939"></path>
                <path d="M36.3119202,48.5692139 C36.4025574,48.6635742 36.3757935,48.8552551 36.2452087,48.8685608 C36.114624,48.8818665 35.1961975,49.4167786 35.1185303,49.5158997 C35.040863,49.6150208 34.8763428,49.9923401 34.9077454,49.9742737 L35.0234957,49.9117122 C35.2178135,49.812067 35.6069412,49.6369553 35.8228455,49.7084351 C35.9876756,49.7630057 35.7556716,49.8776972 35.5141603,49.9887658 C34.9247167,50.0593892 34.8463632,50.2631701 34.9335327,50.37854 C35.0350342,50.5128784 35.6500549,50.1253052 35.5713806,50.2703857 C35.5619804,50.4982792 35.5086227,50.68162 35.4113076,50.8204082 C35.2653348,51.0285906 35.0367955,51.3398699 34.8739624,51.616272 L34.5718544,52.131044 C34.4724938,52.0951487 34.4057873,52.0537659 34.3817139,52.0089111 C34.187561,51.6471558 34.2858887,51.1536255 34.4633179,50.4848022 C34.6407471,49.815979 35.007843,48.9733276 35.265564,48.8035278 C35.5232849,48.633728 36.221283,48.4748535 36.3119202,48.5692139 Z M44.2836304,45.3497925 C44.0942827,45.5864471 40.1769574,48.3096632 39.0400965,49.1923928 C38.9442283,48.8167764 38.7721547,48.4463079 38.5517874,48.2576163 C38.6529098,48.1505106 38.7406879,48.0473791 38.803923,47.962198 L39.1769218,48.1582045 C39.4150362,48.2740232 39.6241251,48.347878 39.7566528,48.3062134 C40.1354922,48.1871122 44.0164379,45.2406073 44.3356068,44.7804096 C44.3663615,45.0280459 44.3652505,45.2477803 44.2836304,45.3497925 Z" id="形状" fill="#181818"></path>
                <path d="M15.9220403,63.971798 C15.9538574,63.456173 16.5789185,62.0498009 17.9854126,60.6571007 C19.3919067,59.2644005 21.859314,57.6347618 23.3984985,56.869503 C24.9376831,56.1042443 25.9317627,55.6425743 26.40271,55.3110924 C26.8736572,54.9796105 27.3119507,54.3041077 27.4771118,54.1876526 C27.6422729,54.0711975 29.0084839,53.4668274 29.2752686,53.5050964 C29.453125,53.5306091 29.4893087,53.5823568 29.3838196,53.6603394 C29.3129171,53.6925252 29.2187805,53.7406311 29.1014099,53.804657 C28.925354,53.9006958 28.2694397,54.5794067 27.855896,55.0779419 C27.4423523,55.5764771 26.5809937,56.1785278 25.3866577,56.9078979 C24.1923218,57.6372681 21.8887329,59.0343018 20.7008667,60.286377 C19.5130005,61.5384521 18.7332153,63.4927368 18.6217041,64.0354004 C18.5101929,64.578064 18.7481079,64.5873375 18.8553467,64.3390465 C18.9625854,64.0907555 18.8569336,63.1305504 20.5918579,61.0599327 C22.3267822,58.9893151 25.2680664,57.3114586 25.9926147,56.8785363 C26.7171631,56.4456139 29.3464355,54.3633402 29.9111938,54.0007897 C30.4759521,53.6382391 32.239563,52.4416466 34.2322998,52.3102989 C36.2250366,52.1789513 37.5640869,52.736892 38.6806641,53.2113396 C39.7972412,53.6857872 45.2282715,56.7552452 45.6190186,57.0756798 C46.0097656,57.3961144 46.4667969,56.8267784 45.9571533,56.5994835 C45.4475098,56.3721886 40.6385498,53.6855431 39.3377686,53.0060997 C38.0369873,52.3266564 37.5593262,51.3627892 37.4874268,50.4008751 C37.4155273,49.4389611 37.7609863,48.8045616 38.1485596,48.3553429 C38.5361328,47.9061241 41.6993408,45.5159874 43.0245361,44.6099816 C44.3497314,43.7039757 46.427002,42.4269982 47.8505859,42.1700402 C49.2741699,41.9130821 50.0162211,41.8296974 53.1058278,43.0840973 C56.1954346,44.3384972 59.7971191,46.1816609 62.2088623,47.287789 C64.6206055,48.3939171 70.8416748,50.6890831 71.9152832,51.1406212 C72.9888916,51.5921593 73.7106934,52.2319298 73.9366455,52.3102989 C74.1625977,52.3886681 74.8713379,52.4309044 73.9366455,51.7208214 C73.0019531,51.0107384 71.331543,50.4216271 69.4744873,49.6755333 C67.6174316,48.9294396 65.2944336,48.095089 65.036377,47.5567589 C64.7783203,47.0184288 65.6048584,46.2763634 67.1240234,44.768673 C68.6431885,43.2609825 70.7061157,41.4484825 71.6274414,40.8914757 C72.5487671,40.3344689 73.0852051,40.0936241 73.2080688,40.0784874 C73.3309326,40.0633507 74.2105103,41.7546387 74.0568237,41.9067383 C73.9031372,42.0588379 73.2667847,42.2974243 72.1377563,43.1378784 C71.008728,43.9783325 68.6525269,46.2067871 68.3426514,46.5479126 C68.0327759,46.8890381 68.2340698,46.9290771 68.6656494,47.2545776 C69.097229,47.5800781 72.3721313,48.9441528 73.413269,49.3983765 C74.4544067,49.8526001 76.3182983,50.583313 75.864624,51.4436035 C75.4109497,52.303894 73.6339722,53.3612633 73.0944824,53.432003 C72.5549927,53.5027428 71.7645264,52.8916016 70.3716431,52.3650513 C68.9787598,51.838501 65.8450928,50.7081337 61.6557617,48.9433594 C57.4664307,47.1785851 51.9268799,44.7446289 50.2543945,44.390625 C48.5819092,44.0366211 47.7169189,44.1763916 46.576416,44.7767334 C45.4359131,45.3770752 42.7323608,47.265564 41.9927368,47.8423462 C41.2531128,48.4191284 39.9996948,49.1627197 40.2139282,50.2598877 C40.4281616,51.3570557 41.0271606,51.5942383 42.6069946,52.4086914 C44.1868286,53.2231445 47.0546875,54.9965782 47.5270996,55.3110924 C47.9995117,55.6256066 48.3460693,55.9908409 47.1745605,57.0756798 C46.0030518,58.1605187 45.3021851,59.1506958 44.7555542,58.9717407 C44.2089233,58.7927856 41.8082275,57.0305786 39.3880615,55.8123169 C36.9678955,54.5940552 35.2194824,53.8080444 33.8138428,54.0565186 C32.4082031,54.3049927 30.9185791,54.944088 29.5119629,55.9904175 C28.1053467,57.036747 25.4669189,58.7409058 24.6152344,59.5335083 C23.7635498,60.3261108 22.4382324,61.2607422 21.2581787,64.0273438 C20.817627,65.1051025 20.666626,65.5299072 20.1821289,65.4519043 C19.6976318,65.3739014 15.8913574,64.487423 15.9220403,63.971798 Z" id="路径-1055" fill="#161616"></path>
                <path d="M16.0718214,63.6704102 C16.1032715,63.1547852 16.7283325,61.7484131 18.1348267,60.3557129 C19.5413208,58.9630127 22.008728,57.333374 23.5479126,56.5681152 C25.0870972,55.8028564 26.0811768,55.3411865 26.552124,55.0097046 C27.0230713,54.6782227 27.3500977,54.2507324 27.5152588,54.1342773 C27.6804199,54.0178223 29.0466309,53.4134521 29.3134155,53.4517212 C29.491272,53.4772339 29.5274556,53.5289815 29.4219666,53.6069641 C29.3286031,53.5804342 29.2248739,53.5898438 29.1107788,53.6351929 C28.9396362,53.7032166 28.3587952,54.239624 27.9452515,54.7381592 C27.5317078,55.2366943 26.6703491,55.8387451 25.4760132,56.5681152 C24.2816772,57.2974854 21.9291382,58.6348267 20.741272,59.8869019 C19.5534058,61.1389771 18.6621704,63.1277466 18.5506592,63.6704102 C18.4391479,64.2130737 18.897522,64.2859497 19.0047607,64.0376587 C19.1119995,63.7893677 19.0063477,62.8291626 20.741272,60.7585449 C22.4761963,58.6879272 25.4174805,57.0100708 26.1420288,56.5771484 C26.8665771,56.1442261 29.4958496,54.0619524 30.0606079,53.6994019 C30.6253662,53.3368513 32.3889771,52.1402588 34.3817139,52.0089111 C36.3744507,51.8775635 37.713501,52.4355042 38.8300781,52.9099518 C39.9466553,53.3843994 45.3776855,56.4538574 45.7684326,56.774292 C46.1591797,57.0947266 46.6162109,56.5253906 46.1065674,56.2980957 C45.5969238,56.0708008 40.7879639,53.3841553 39.4871826,52.7047119 C38.1864014,52.0252686 37.7087402,51.0614014 37.6368408,50.0994873 C37.5649414,49.1375732 37.9104004,48.5031738 38.2979736,48.0539551 C38.6855469,47.6047363 41.8487549,45.2145996 43.1739502,44.3085938 C44.4991455,43.4025879 46.576416,42.1256104 48,41.8686523 C49.423584,41.6116943 50.1656351,41.5283096 53.2552419,42.7827095 C56.3448486,44.0371094 59.9465332,45.8802731 62.3582764,46.9864012 C64.7700195,48.0925293 70.9910889,50.3876953 72.0646973,50.8392334 C73.1383057,51.2907715 73.8601074,51.930542 74.0860596,52.0089111 C74.3120117,52.0872803 75.020752,52.1295166 74.0860596,51.4194336 C73.1513672,50.7093506 71.480957,50.1202393 69.6239014,49.3741455 C67.7668457,48.6280518 65.4438477,47.7937012 65.185791,47.2553711 C64.9277344,46.717041 65.7542725,45.9749756 67.2734375,44.4672852 C68.7926025,42.9595947 70.8555298,41.1470947 71.7768555,40.5900879 C72.6981812,40.0330811 73.2346191,39.7922363 73.3574829,39.7770996 C73.4803467,39.7619629 74.1489868,41.4837646 73.9953003,41.6358643 C73.8416138,41.7879639 73.2052612,42.0265503 72.0762329,42.8670044 C70.9472046,43.7074585 68.5910034,45.9359131 68.2811279,46.2770386 C67.9712524,46.6181641 67.9927979,46.9048462 68.4243774,47.2303467 C68.855957,47.5558472 72.1308594,48.9199219 73.1719971,49.3741455 C74.2131348,49.8283691 76.0770264,50.559082 75.6233521,51.4193726 C75.1696777,52.2796631 73.7833862,53.0598755 73.2438965,53.1306152 C72.7044067,53.201355 71.8049316,52.4528809 70.4120483,51.9263306 C69.019165,51.3997803 66.0794678,50.3057937 61.8901367,48.5410194 C57.7008057,46.7762451 52.0212402,44.1314697 50.3487549,43.7774658 C48.6762695,43.4234619 47.8112793,43.5632324 46.6707764,44.1635742 C45.5302734,44.763916 42.7794189,46.6785889 42.0397949,47.2553711 C41.3001709,47.8321533 39.8354492,48.6612549 40.0496826,49.7584229 C40.263916,50.8555908 40.895752,51.28125 42.4755859,52.0957031 C44.0554199,52.9101562 47.2041016,54.6951904 47.6765137,55.0097046 C48.1489258,55.3242188 48.4954834,55.6894531 47.3239746,56.774292 C46.1524658,57.8591309 45.637085,58.6065674 45.0904541,58.4276123 C44.5438232,58.2486572 41.9470215,56.6092529 39.5268555,55.3909912 C37.1066895,54.1727295 35.3582764,53.3867188 33.9526367,53.6351929 C32.5469971,53.883667 31.0802002,54.5621338 29.6507568,55.5690918 C28.2213135,56.5760498 25.6057129,58.3195801 24.7540283,59.1121826 C23.9023438,59.9047852 22.4211426,60.9038086 21.2410889,63.6704102 C20.8005371,64.7481689 20.6495361,65.1729736 20.1650391,65.0949707 C19.680542,65.0169678 16.0407715,64.1860352 16.0718214,63.6704102 Z" id="路径-1055" fill="#363636"></path>
                <path d="M32.7621765,53.6156311 C32.9850159,53.4988708 33.1744995,53.2667236 33.1601868,52.8710327 C33.145874,52.4753418 33.0953979,51.8027954 32.9603271,51.7090454 C32.8252563,51.6152954 32.4135437,51.4943542 31.7574158,51.9143372 C31.1012878,52.3343201 31.0228577,52.76474 31.2242126,53.0129089 C31.4255676,53.2610779 31.8666382,53.5270098 32.166748,53.5801086 C32.4668579,53.6332075 32.5393372,53.7323914 32.7621765,53.6156311 Z" id="路径-1056" fill="#535353"></path>
                <path d="M33.0655195,52.5652716 L33.1236899,52.3288765 L33.1526032,52.7034185 C33.1558224,52.7627516 33.1583141,52.8192618 33.1601868,52.8710327 C33.1744995,53.2667236 32.9850159,53.4988708 32.7621765,53.6156311 C32.5393372,53.7323914 32.4668579,53.6332075 32.166748,53.5801086 C31.8666382,53.5270098 31.4255676,53.2610779 31.2242126,53.0129089 C31.1623824,52.9367035 31.1269338,52.8433132 31.1264927,52.7383172 L31.2970276,52.9099518 L31.2970276,52.9099518 C31.5174866,53.1151306 32.1536255,53.3573303 32.3145752,53.2962036 C32.4755249,53.2350769 32.2836304,52.8687439 32.3971863,52.752533 C32.5107422,52.636322 32.7123413,53.1448059 32.8834839,52.9532166 C32.9519409,52.8765808 33.0126194,52.7472658 33.0655195,52.5652716 Z" id="路径" fill="#2B2B2B"></path>
                <path d="M38.7860718,49.7872925 C39.0112305,49.78125 39.4782104,49.7540894 39.5636597,48.9793701 C39.6491089,48.2046509 39.595459,47.5369263 40.000061,46.5919189 C40.4046631,45.6469116 40.6691895,45.1035767 40.9281616,44.9178467 C41.1871338,44.7321167 41.4781494,44.5423584 41.3153076,44.4853516 C41.1524658,44.4283447 40.5571899,44.5091553 40.383606,44.7200317 C40.210022,44.9309082 40.1103516,45.3296509 39.8460083,45.4778442 C39.581665,45.6260376 39.1912842,45.8919067 38.8046875,46.4916382 C38.4180908,47.0913696 38.161438,47.8666539 38.0558472,48.4557268 C37.9502563,49.0447998 38.107666,49.4130859 38.2136841,49.5629272 C38.3197021,49.7127686 38.5609131,49.793335 38.7860718,49.7872925 Z" id="路径-1057" fill="#393939"></path>
                <path d="M41.3393902,44.589436 C41.2765394,44.6759241 41.0956491,44.7977278 40.9281616,44.9178467 C40.6691895,45.1035767 40.4046631,45.6469116 40.000061,46.5919189 C39.595459,47.5369263 39.6491089,48.2046509 39.5636597,48.9793701 C39.4782104,49.7540894 39.0112305,49.78125 38.7860718,49.7872925 C38.5609131,49.793335 38.3197021,49.7127686 38.2136841,49.5629272 C38.1228115,49.4344918 37.9941817,49.1455664 38.0257794,48.6946759 L38.0558472,48.4557268 L38.0612488,48.4894409 C38.1110229,48.7160645 38.1897583,48.9525146 38.3150635,49.0216675 C38.5656738,49.1599731 39.0181274,49.0782471 39.2349243,48.7614746 C39.4517212,48.4447021 39.5668335,47.5853669 39.7306519,47.0447388 C39.8944702,46.5041106 40.5664673,45.1030273 40.7630615,44.9058838 C40.8613586,44.807312 41.0347443,44.6874847 41.2300034,44.6175537 L41.3393902,44.589436 Z" id="路径" fill="#1B1B1B"></path>
                <path d="M43.9171143,45.2648315 C43.6069946,45.3286743 43.098938,45.349504 42.9714966,44.9533081 C42.8440552,44.5571123 42.9169312,43.4229019 43.0300903,42.7827095 C43.1432495,42.1425171 43.3427124,41.8080444 43.671814,41.5061035 C44.0009155,41.2041626 44.6542969,40.5352173 44.9395752,40.4858398 C45.2248535,40.4364624 45.7539673,40.4593506 46.1380615,40.5554199 C46.7689209,40.5126343 47.5184937,40.618042 48.4998169,41.0898438 C49.4811401,41.5616455 50.4316406,42.0484009 50.4741821,42.3857422 C50.5167236,42.7230835 50.4423218,43.1846577 50.2296143,43.2250193 C50.0169067,43.2653809 49.5247803,43.1812571 49.2178345,43.1677246 C48.9108887,43.1541922 48.2213745,43.1320221 47.8616333,42.7267456 C47.5018921,42.3214691 47.1924438,42.2711182 46.8869019,42.177063 C46.5813599,42.0830078 46.4185181,41.8700562 46.213562,41.8026123 C46.008606,41.7351685 45.208313,41.647644 44.9395752,41.6569214 C44.6708374,41.6661987 44.6498413,41.7993774 44.5958862,42.1119995 C44.5419312,42.4246216 44.4082848,42.5716613 44.3541973,42.8883697 C44.3001099,43.2050781 44.5567017,43.817627 44.5950317,44.2220459 C44.6333618,44.6264648 44.2272339,45.2009888 43.9171143,45.2648315 Z" id="路径-1058" fill="#3C3C3C"></path>
                <path d="M44.9208984,41.2017212 C44.7050171,41.37854 44.9165649,41.5498657 45.1932373,41.5490723 L45.5014328,41.5386685 C45.6899366,41.5357103 45.9388885,41.5509644 46.4064941,41.6519775 C47.1546631,41.8135986 48.394165,42.3483276 48.7450562,42.6369629 C49.0959473,42.9255981 49.6022181,43.1278076 49.660301,43.1004028 L49.7234919,43.0441763 C49.8149037,42.936852 49.9302233,42.6924303 49.6704102,42.4048462 L49.3552783,42.0620903 C49.2598218,41.9433765 49.2864014,41.9069458 49.5649414,41.9675903 C50.0291748,42.0686646 50.2937622,42.4686279 50.2922363,42.2166748 C50.2920119,42.1796229 50.283807,42.1384289 50.268844,42.0940962 C50.389921,42.1991981 50.4630633,42.2975734 50.4741821,42.3857422 C50.5167236,42.7230835 50.4423218,43.1846577 50.2296143,43.2250193 C50.0169067,43.2653809 49.5247803,43.1812571 49.2178345,43.1677246 C48.9108887,43.1541922 48.2213745,43.1320221 47.8616333,42.7267456 C47.5018921,42.3214691 47.1924438,42.2711182 46.8869019,42.177063 C46.5813599,42.0830078 46.4185181,41.8700562 46.213562,41.8026123 C46.008606,41.7351685 45.208313,41.647644 44.9395752,41.6569214 C44.6708374,41.6661987 44.6498413,41.7993774 44.5958862,42.1119995 C44.5419312,42.4246216 44.4082848,42.5716613 44.3541973,42.8883697 C44.3001099,43.2050781 44.5567017,43.817627 44.5950317,44.2220459 C44.6333618,44.6264648 44.2272339,45.2009888 43.9171143,45.2648315 C43.6069946,45.3286743 43.098938,45.349504 42.9714966,44.9533081 C42.9384819,44.8506704 42.9189107,44.6985038 42.9100007,44.518228 C43.0856519,44.7513745 43.2719038,44.9293125 43.4154663,44.9243774 C43.7883301,44.9115601 43.9987793,44.4926147 43.9992676,43.9973755 C43.9997559,43.5021362 44.5651855,44.2657407 44.4779053,43.7454224 C44.390625,43.2251041 44.1963501,42.8204956 44.2113037,42.5009155 C44.2208355,42.2972073 44.5391235,41.1149292 44.8087769,40.8049316 C45.0784302,40.4949341 44.9304199,41.0680542 44.9208984,41.2017212 Z" id="路径" fill="#141414"></path>
                <path d="M83.7672119,63.6748047 C83.2091064,62.6938477 81.7446899,58.6567383 81.7018433,58.4075317 C81.6589966,58.1583252 81.9343872,58.1229858 81.9042358,57.9695435 C81.8740845,57.8161011 81.1911011,56.4119873 81.1192627,56.2728271 C81.0474243,56.133667 80.7648315,56.3543091 80.6100464,56.2728271 C80.4552612,56.1913452 78.8510132,52.8927612 78.7391968,52.7650146 C78.6273804,52.6372681 78.8071899,52.5287476 78.7391968,52.4403917 C78.6712036,52.3520358 77.8113403,50.8058472 77.6162109,50.7674561 C77.4210815,50.7290649 76.4595337,51.0391846 75.6932423,51.2199707 C74.9269508,51.4007568 69.8111572,52.5464478 68.4048462,52.9099518 C66.9985352,53.2734558 65.6289673,53.1591187 64.9052124,52.9099518 C64.1814575,52.6607849 57.4918823,50.3329468 56.8461304,50.1550903 C56.2003784,49.9772339 55.0145264,50.0710449 54.5741577,50.1550903 C54.1337891,50.2391357 53.7390137,50.3893433 52.1548462,51.2993774 C50.5706787,52.2094116 46.2313843,55.3649902 44.098938,57.4624634 C41.9664917,59.5599365 40.0925903,61.8870239 39.7993164,62.3648071 C39.5060425,62.8425903 39.1356812,63.6504517 39.4121094,64.4452515 C39.6885376,65.2400513 40.9081421,67.5080566 41.1790161,68.0053711 C41.4498901,68.5026855 40.4445801,68.9949951 38.7836914,69.5895996 C37.1228027,70.1842041 30.5943604,70.4085693 27.4398193,70.3149414 C24.2852783,70.2213135 15.7755127,67.5732422 13.614624,66.133667 C11.4537354,64.6940918 11.2581177,61.7929688 11.2522278,61.6214294 C11.2463379,61.4498901 11.2651367,60.0331421 11.2487793,59.5602417 C11.2324219,59.0873413 10.9064331,58.7650757 10.7022705,58.9063721 C10.4981079,59.0476685 10,59.7993164 10,62 C10,64.2006836 10.7739868,65.2468872 11.9009399,66.2632446 C13.0278931,67.2796021 15.6231689,68.5336304 17.4130249,69.3220215 C19.2028809,70.1104126 24.2790527,71.6646729 25.4799805,71.7154541 C26.6809082,71.7662354 27.9978638,71.7286377 28.0566406,71.7154541 C28.1154175,71.7022705 28.1598511,72 30,72 C31.8401489,72 33.9639893,72 34.9395752,72 C35.9151611,72 38.588562,71.6012573 39.993042,70.6195679 C41.397522,69.6378784 41.8912354,69.0111084 42.5899658,68.180603 C43.2886963,67.3500977 44.7497559,66.1170044 46.0150757,65.9768677 C46.8586222,65.8834432 47.4048869,65.8472087 47.6538696,65.8681641 C47.6655477,66.0186361 47.7545776,66.107137 47.9209595,66.133667 C48.1705322,66.1734619 49.0742798,66.3775024 49.3323364,66.5238647 C49.5903931,66.6702271 51.7119751,68.1663818 51.8203125,68.3547363 C51.9286499,68.5430908 51.7573242,68.7130127 52.043457,68.9540405 C52.3295898,69.1950684 53.8670654,70.5349121 56.0975952,71.0966797 C58.328125,71.6584473 62.2244263,72 64,72 C65.7755737,72 71.2302246,72 73.3331299,72 C75.4360352,72 78.1134033,71.5736084 79.9327393,71.0966797 C81.7520752,70.619751 84.4863892,69.2178955 85.336853,68.690918 C85.9038289,68.3395996 86.0661214,67.8370716 85.8237305,67.1833338 C84.8247884,65.4982857 84.1392822,64.328776 83.7672119,63.6748047 Z" id="路径-1059" fill="#E74C5C"></path>
                <path d="M43.6172485,61.1174316 C43.798584,60.9249268 39.9318848,62.4597168 39.8359985,62.5847168 C39.7401123,62.7097168 39.5003052,63.4960525 39.5755005,63.8609009 C39.6506958,64.2257493 41.3377108,67.4104614 41.4461686,67.6220703 C41.5546265,67.8336792 42.0222686,68.4281006 42.104335,68.354187 C42.1864014,68.2802734 43.4452515,66.4188843 43.9373779,66.1731567 C44.4295044,65.9274292 43.9580688,65.9755859 43.7786255,65.9793701 C43.5991821,65.9831543 42.9665527,65.5779927 42.6676025,65.2770945 C42.3686523,64.9761963 41.8180279,64.3360907 41.8005371,63.7589919 C41.7830463,63.1818932 43.4359131,61.3099365 43.6172485,61.1174316 Z" id="路径-1074" fill="#F66D77"></path>
                <path d="M64.9096069,71.1231079 C64.9645386,70.8488159 66.3768921,71.0360718 66.6033286,71.2340088 L67.4935418,71.9973169 L67.4935418,71.9973169 L64.6953924,71.9965358 L64.8872479,71.2269054 C64.8964079,71.1863989 64.9038609,71.1517997 64.9096069,71.1231079 Z" id="路径" fill="#60272B"></path>
                <path d="M80.4413815,56.0213399 C80.5257338,56.1679708 80.5857487,56.2600364 80.6100464,56.2728271 C80.7648315,56.3543091 81.0474243,56.133667 81.1192627,56.2728271 L81.588137,57.2446655 C81.7484801,57.586104 81.8908352,57.9013468 81.9042358,57.9695435 C81.9343872,58.1229858 81.6589966,58.1583252 81.7018433,58.4075317 L81.7168672,58.4663844 L81.7168672,58.4663844 C80.7594614,58.7359554 79.0196906,59.1289575 77.6786098,59.4076147 L76.6542969,59.612915 C74.9515381,59.9376221 57.5523682,62.3720024 55.5415039,62.6923828 C53.5306396,63.0127632 53.0711017,64.9639791 52.89694,65.2770945 L52.7513609,65.5021159 C52.6036986,65.7186469 52.3548171,66.0682115 52.0047165,66.5508097 L51.1104646,67.773558 L50.0300316,66.9951111 C49.6907626,66.7574104 49.4152832,66.5709098 49.3323364,66.5238647 C49.0742798,66.3775024 48.1705322,66.1734619 47.9209595,66.133667 C47.7545776,66.107137 47.6655477,66.0186361 47.6538696,65.8681641 L47.6244129,65.8660361 L47.6244129,65.8660361 C47.5689746,65.5886645 47.6116532,65.3344602 47.7493896,65.1039775 L47.9617869,64.7635014 C48.5655149,63.8239719 50.0422689,61.7117188 51.2231445,61.1407471 C52.5856934,60.4819336 63.2058677,58.6047653 67.7088623,57.9125977 L77.0176893,56.5054582 C78.3659191,56.3061556 79.5125606,56.1400768 80.2405991,56.040939 L80.4413815,56.0213399 Z" id="路径" fill="#DF4356"></path>
                <path d="M80.4413815,56.0213399 C80.5257338,56.1679708 80.5857487,56.2600364 80.6100464,56.2728271 C80.7648315,56.3543091 81.0474243,56.133667 81.1192627,56.2728271 L81.7383743,57.5691925 C81.8290553,57.7688163 81.8953021,57.924079 81.9042358,57.9695435 C81.9343872,58.1229858 81.6589966,58.1583252 81.7018433,58.4075317 L81.7168672,58.4663844 C80.8791372,58.702259 79.4424089,59.0326356 78.197897,59.2982227 L76.6542969,59.612915 L75.1091367,59.8605902 C70.3955658,60.5758245 57.2717825,62.4167067 55.5415039,62.6923828 C54.1272697,62.9177053 53.4803622,63.9496818 53.1603966,64.6511508 L52.2140145,63.5317555 C51.4449708,62.6372759 50.8683775,62.0108334 50.4838925,61.6519022 C50.7368392,61.4322911 50.9859601,61.2554294 51.2231445,61.1407471 C52.5856934,60.4819336 63.2058677,58.6047653 67.7088623,57.9125977 L77.0176893,56.5054582 L80.2405991,56.040939 L80.2405991,56.040939 L80.4413815,56.0213399 Z" id="路径" fill="#DF5243"></path>
                <path d="M80.4413815,56.0213399 C80.5257338,56.1679708 80.5857487,56.2600364 80.6100464,56.2728271 C80.7648315,56.3543091 81.0474243,56.133667 81.1192627,56.2728271 L81.7383743,57.5691925 C81.8290553,57.7688163 81.8953021,57.924079 81.9042358,57.9695435 C81.9343872,58.1229858 81.6589966,58.1583252 81.7018433,58.4075317 L81.7168672,58.4663844 C80.8791372,58.702259 79.4424089,59.0326356 78.197897,59.2982227 L76.6542969,59.612915 L75.1091367,59.8605902 C70.3955658,60.5758245 57.2717825,62.4167067 55.5415039,62.6923828 C54.6716826,62.8309668 54.0921284,63.2746948 53.7003802,63.7589919 C53.3545473,62.4040161 52.6333075,61.4889139 51.5401326,61.0155442 L52.0793103,60.8551884 C55.0254891,60.0521555 63.7414554,58.5224386 67.7088623,57.9125977 L77.0176893,56.5054582 L80.2405991,56.040939 L80.2405991,56.040939 L80.4413815,56.0213399 Z" id="路径" fill="#D56931"></path>
                <path d="M80.4413815,56.0213399 C80.5257338,56.1679708 80.5857487,56.2600364 80.6100464,56.2728271 C80.7648315,56.3543091 81.0474243,56.133667 81.1192627,56.2728271 L81.7383743,57.5691925 L81.8873031,57.9158804 C81.8961869,57.9399489 81.9020024,57.9581774 81.9042358,57.9695435 C81.9343872,58.1229858 81.6589966,58.1583252 81.7018433,58.4075317 L81.7168672,58.4663844 L80.9886202,58.6585205 L79.92266,58.9148359 C79.3568815,59.0460744 78.7579273,59.1787085 78.197897,59.2982227 L76.6542969,59.612915 L75.1091367,59.8605902 L55.5415039,62.6923828 L55.5415039,62.6923828 C55.386253,62.7171181 55.2402491,62.7515745 55.1029098,62.7942475 L54.0307383,60.3906596 L55.4835235,60.0857372 C59.3512294,59.299151 64.8033995,58.3592043 67.7088623,57.9125977 L77.0176893,56.5054582 L80.2405991,56.040939 L80.4413815,56.0213399 Z" id="路径" fill="#D8842D"></path>
                <path d="M80.4413815,56.0213399 C80.5257338,56.1679708 80.5857487,56.2600364 80.6100464,56.2728271 C80.7648315,56.3543091 81.0474243,56.133667 81.1192627,56.2728271 L81.7383743,57.5691925 L81.8873031,57.9158804 C81.8961869,57.9399489 81.9020024,57.9581774 81.9042358,57.9695435 C81.9343872,58.1229858 81.6589966,58.1583252 81.7018433,58.4075317 L81.7168672,58.4663844 L80.9886202,58.6585205 L79.92266,58.9148359 C79.3568815,59.0460744 78.7579273,59.1787085 78.197897,59.2982227 L76.6542969,59.612915 L75.1091367,59.8605902 L59.5327383,62.1133399 L61.2962461,58.9886821 L64.822321,58.3791343 C65.7001987,58.2320775 66.5098594,58.1002752 67.2074078,57.9905989 L77.0176893,56.5054582 L80.2405991,56.040939 L80.4413815,56.0213399 Z" id="路径" fill="#CB9D64"></path>
                <path d="M80.4413815,56.0213399 C80.5257338,56.1679708 80.5857487,56.2600364 80.6100464,56.2728271 C80.7648315,56.3543091 81.0474243,56.133667 81.1192627,56.2728271 L81.7383743,57.5691925 L81.8873031,57.9158804 C81.8961869,57.9399489 81.9020024,57.9581774 81.9042358,57.9695435 C81.9343872,58.1229858 81.6589966,58.1583252 81.7018433,58.4075317 L81.7168672,58.4663844 L80.9886202,58.6585205 L79.92266,58.9148359 C79.3568815,59.0460744 78.7579273,59.1787085 78.197897,59.2982227 L76.6542969,59.612915 L75.1091367,59.8605902 L63.4647383,61.5453399 L65.6123283,58.2478708 L67.2074078,57.9905989 L67.2074078,57.9905989 L77.0176893,56.5054582 L80.2405991,56.040939 L80.4413815,56.0213399 Z" id="路径" fill="#B4B9AE"></path>
                <path d="M80.4413815,56.0213399 C80.5257338,56.1679708 80.5857487,56.2600364 80.6100464,56.2728271 C80.7648315,56.3543091 81.0474243,56.133667 81.1192627,56.2728271 L81.7383743,57.5691925 L81.8873031,57.9158804 C81.8961869,57.9399489 81.9020024,57.9581774 81.9042358,57.9695435 C81.9343872,58.1229858 81.6589966,58.1583252 81.7018433,58.4075317 L81.7168672,58.4663844 L80.9886202,58.6585205 L79.92266,58.9148359 C79.3568815,59.0460744 78.7579273,59.1787085 78.197897,59.2982227 L76.6542969,59.612915 L75.1091367,59.8605902 L68.1487383,60.8653399 L69.4587383,57.6493399 L77.0176893,56.5054582 L80.2405991,56.040939 L80.4413815,56.0213399 Z" id="路径" fill="#B0C5C4"></path>
                <path d="M81.093471,56.5176479 C81.01988,56.355957 80.468104,57.0674162 79.4636139,57.2636188 C78.4591239,57.4598214 66.1130022,59.452567 64.9204799,60.2597656 C63.7279576,61.0669643 71.3480085,59.5936308 72.930106,59.3512835 C74.5122036,59.1089362 79.3684431,58.0089286 80.1037946,57.859096 C80.8391462,57.7092634 81.5987026,57.9462891 81.5785435,57.710798 C81.5583845,57.4753069 81.1670619,56.6793387 81.093471,56.5176479 Z" id="路径-1076" fill="#A2B7B5"></path>
                <path d="M63.1674107,60.3662807 C64.2054269,60.2373047 74.8851535,58.2543751 74.9163644,58.500279 C74.9475753,58.746183 65.0522173,60.4590798 63.8806501,60.6075614 C62.7090829,60.7560429 62.1293945,60.4952567 63.1674107,60.3662807 Z" id="路径-1075" fill="#989575"></path>
                <path d="M74.9163644,58.500279 C74.934031,58.6394705 71.7712106,59.2486887 68.8103339,59.7781571 L68.953121,59.3729432 L72.2629276,58.8178627 C73.797744,58.5722536 74.9063396,58.4212958 74.9163644,58.500279 Z" id="路径" fill="#96ABA1"></path>
                <path d="M56.6149292,59.8901659 C54.9396973,60.2454834 51.9801636,61.1751709 51.1843262,61.8640747 C50.4353027,62.5124548 48.65065,64.7675808 48.3441578,65.1234931 L48.1334748,65.3396867 C48.0101522,65.4855924 47.9196167,65.6733195 48.1692505,65.7835083 L48.6600239,65.9820722 C48.9472599,66.0892134 49.247551,66.040947 49.3029785,66.0187073 C49.3547109,65.9979502 49.6441413,65.764456 50.0048164,65.3321163 L50.7609863,64.4072266 C51.2872314,63.7502441 52.5761719,62.2805786 54.1115112,61.8772583 L54.5268021,61.781283 C56.812645,61.2963058 64.4271051,60.1391263 65.1659546,60.1115723 L65.3216264,60.1117284 C65.8107962,60.1387725 65.0364106,60.466103 62.0851161,60.9614058 L59.1602669,61.4223383 C56.7955971,61.7826347 54.9977875,62.0425415 54.4727783,62.2459717 C54.0061035,62.4267985 53.681661,62.734354 53.4994507,63.1686382 L53.34563,63.8480941 C53.1689436,64.5667634 53.0019554,65.02633 52.8446655,65.2267941 L51.2305057,67.4800724 C51.1678758,67.5647919 51.1057936,67.6480839 51.0447484,67.7291515 L50.0300316,66.9951111 L49.3323364,66.5238647 C49.0742798,66.3775024 48.1705322,66.1734619 47.9209595,66.133667 C47.7545776,66.107137 47.6655477,66.0186361 47.6538696,65.8681641 L47.6244129,65.8660361 C47.5689746,65.5886645 47.6116532,65.3344602 47.7493896,65.1039775 L47.9617869,64.7635014 L48.2981642,64.2564847 C49.0128977,63.2105279 50.2239421,61.623877 51.2231445,61.1407471 C51.8035988,60.8600884 54.0641387,60.3583212 56.8161051,59.821254 C56.8998904,59.8165515 56.876677,59.8309867 56.7229877,59.8663918 L56.6149292,59.8901659 Z" id="路径" fill="#A7213A"></path>
                <path d="M65.3216264,60.1117284 C65.8107962,60.1387725 65.0364106,60.466103 62.0851161,60.9614058 L59.1602669,61.4223383 L56.2918223,61.8656283 C55.3948291,62.012915 54.7527832,62.1374756 54.4727783,62.2459717 C54.0061035,62.4267985 53.681661,62.734354 53.4994507,63.1686382 L53.34563,63.8480941 C53.1689436,64.5667634 53.0019554,65.02633 52.8446655,65.2267941 L52.7799605,65.314869 L52.3976169,65.2908377 C52.2329562,65.2751566 52.1094936,65.2539099 52.033671,65.2267941 C51.1642574,64.9158735 51.7673219,63.6299406 52.2659215,62.8749952 C52.8017748,62.4425077 53.43255,62.0556155 54.1115112,61.8772583 L54.5268021,61.781283 L55.0937385,61.6677271 C57.8653454,61.1367578 64.47988,60.1371581 65.1659546,60.1115723 L65.3216264,60.1117284 Z" id="路径" fill="#BC4849"></path>
                <path d="M65.3216264,60.1117284 C65.8107962,60.1387725 65.0364106,60.466103 62.0851161,60.9614058 L59.1602669,61.4223383 L56.2918223,61.8656283 L55.6685533,61.9719363 C55.0964337,62.0741913 54.682782,62.1645996 54.4727783,62.2459717 C54.1768382,62.3606423 53.9380956,62.5262759 53.7565505,62.7428723 C53.9377952,62.3679256 54.1443823,62.0591374 54.3767448,61.8140094 L54.5268021,61.781283 L55.0937385,61.6677271 L56.4883633,61.4156831 C59.6342234,60.8710357 64.5778907,60.133503 65.1659546,60.1115723 L65.3216264,60.1117284 Z" id="路径" fill="#A96E3F"></path>
                <path d="M54.5741577,50.1550903 C55.0145264,50.0710449 56.2003784,49.9772339 56.8461304,50.1550903 L57.1265313,50.2418986 C58.5653822,50.7064846 64.2417704,52.6815488 64.9052124,52.9099518 C65.6289673,53.1591187 66.9985352,53.2734558 68.4048462,52.9099518 L70.0291858,52.517962 C72.0972101,52.0339088 75.1185237,51.3555603 75.6932423,51.2199707 L76.2224767,51.0855299 C76.8490405,50.918564 77.4644436,50.7375963 77.6162109,50.7674561 C77.8113403,50.8058472 78.6712036,52.3520358 78.7391968,52.4403917 C78.8071899,52.5287476 78.6273804,52.6372681 78.7391968,52.7650146 L78.8632718,52.9827391 C78.9495105,53.1452463 79.072609,53.3854209 79.21417,53.6633157 L75.7220459,54.5274587 C69.8937805,55.9404858 66.536327,56.5844689 65.6496582,56.4606934 C63.9812012,56.2277832 58.8394263,53.7614746 56.2109375,53.4790039 C54.5235126,53.2976647 51.6458429,55.179276 47.5779284,59.1238379 L47.1032715,59.5881348 L44.3517461,57.2185497 C46.557711,55.1280327 50.6309741,52.1747746 52.1548462,51.2993774 L52.7645557,50.9538604 C53.8527371,50.3477771 54.1966989,50.2271293 54.5741577,50.1550903 Z" id="路径" fill="#EB6055"></path>
                <path d="M56.8461304,50.1550903 L57.1265313,50.2418986 L64.9052124,52.9099518 L64.9052124,52.9099518 C65.6289673,53.1591187 66.9985352,53.2734558 68.4048462,52.9099518 L70.0291858,52.517962 L75.6932423,51.2199707 L75.6932423,51.2199707 L76.2224767,51.0855299 C76.8490405,50.918564 77.4644436,50.7375963 77.6162109,50.7674561 C77.8113403,50.8058472 78.6712036,52.3520358 78.7391968,52.4403917 C78.8071899,52.5287476 78.6273804,52.6372681 78.7391968,52.7650146 L78.8632718,52.9827391 L79.21417,53.6633157 L79.21417,53.6633157 L75.7220459,54.5274587 L73.2943928,55.1048383 C68.9532079,56.1144449 66.4049687,56.5661318 65.6496582,56.4606934 C63.9812012,56.2277832 58.8394263,53.7614746 56.2109375,53.4790039 C54.672006,53.3136225 52.1430955,54.8640879 48.6242061,58.1304 L46.0894071,55.697254 L46.9290046,55.0186746 C48.9260528,53.43491 51.1238858,51.8916186 52.1548462,51.2993774 L52.7645557,50.9538604 L53.2889768,50.6687863 C53.9789215,50.305512 54.2653278,50.2140313 54.5741577,50.1550903 C55.0145264,50.0710449 56.2003784,49.9772339 56.8461304,50.1550903 Z" id="路径" fill="#E09047"></path>
                <path d="M56.8461304,50.1550903 L57.1265313,50.2418986 L64.9052124,52.9099518 C65.6289673,53.1591187 66.9985352,53.2734558 68.4048462,52.9099518 L70.0291858,52.517962 L75.6932423,51.2199707 L76.2224767,51.0855299 C76.8490405,50.918564 77.4644436,50.7375963 77.6162109,50.7674561 C77.8113403,50.8058472 78.6712036,52.3520358 78.7391968,52.4403917 C78.8071899,52.5287476 78.6273804,52.6372681 78.7391968,52.7650146 L78.8632718,52.9827391 L79.21417,53.6633157 L75.7220459,54.5274587 L73.2943928,55.1048383 L71.1042865,55.6002067 C68.0858459,56.2602773 66.2676395,56.5469612 65.6496582,56.4606934 C63.9812012,56.2277832 58.8394263,53.7614746 56.2109375,53.4790039 C54.9182988,53.3400904 52.9271997,54.411759 50.2376404,56.6940097 L47.938937,54.2336121 L48.7776799,53.6035924 C50.1607377,52.5802353 51.4390439,51.7105742 52.1548462,51.2993774 L52.7645557,50.9538604 L53.2889768,50.6687863 L53.7374275,50.4435536 C54.1235261,50.2618054 54.3425352,50.199296 54.5741577,50.1550903 C55.0145264,50.0710449 56.2003784,49.9772339 56.8461304,50.1550903 Z" id="路径" fill="#D8B44B"></path>
                <path d="M77.6162109,50.7674561 C77.8113403,50.8058472 78.6712036,52.3520358 78.7391968,52.4403917 C78.8071899,52.5287476 78.6273804,52.6372681 78.7391968,52.7650146 L78.8632718,52.9827391 L79.21417,53.6633157 L75.7220459,54.5274587 L73.2943928,55.1048383 L71.1042865,55.6002067 L69.6184211,55.9147744 C67.4815032,56.3498454 66.158584,56.5317374 65.6496582,56.4606934 C64.8370578,56.3472575 63.2005688,55.7040482 61.4318096,55.0413784 L62.6238096,52.1261995 L64.9052124,52.9099518 C65.6289673,53.1591187 66.9985352,53.2734558 68.4048462,52.9099518 L70.0291858,52.517962 L75.6932423,51.2199707 L76.2224767,51.0855299 C76.8490405,50.918564 77.4644436,50.7375963 77.6162109,50.7674561 Z" id="路径" fill="#C9AE58"></path>
                <path d="M77.6162109,50.7674561 C77.8113403,50.8058472 78.6712036,52.3520358 78.7391968,52.4403917 C78.8071899,52.5287476 78.6273804,52.6372681 78.7391968,52.7650146 L78.8632718,52.9827391 L79.21417,53.6633157 L75.7220459,54.5274587 L73.2943928,55.1048383 L71.1042865,55.6002067 L69.6184211,55.9147744 L68.68995,56.0976001 C67.0937173,56.3998256 66.0802877,56.5208076 65.6496582,56.4606934 C65.1752941,56.394474 64.420168,56.1477202 63.521865,55.8219496 L64.629865,52.8141995 L64.9052124,52.9099518 C65.6289673,53.1591187 66.9985352,53.2734558 68.4048462,52.9099518 L70.0291858,52.517962 L75.6932423,51.2199707 L76.2224767,51.0855299 C76.8490405,50.918564 77.4644436,50.7375963 77.6162109,50.7674561 Z" id="路径" fill="#C5B590"></path>
                <path d="M77.6162109,50.7674561 C77.8113403,50.8058472 78.6712036,52.3520358 78.7391968,52.4403917 C78.8071899,52.5287476 78.6273804,52.6372681 78.7391968,52.7650146 L78.8632718,52.9827391 L79.21417,53.6633157 L75.7220459,54.5274587 L73.2943928,55.1048383 L71.1042865,55.6002067 L69.6184211,55.9147744 L68.68995,56.0976001 C67.7876806,56.2684328 67.0716208,56.381357 66.5417699,56.4363993 L65.7160029,56.4681249 L65.501865,56.4341995 L66.0302031,53.1211665 C66.7187559,53.1747768 67.5550934,53.1295963 68.4048462,52.9099518 L70.0291858,52.517962 L75.6932423,51.2199707 L76.2224767,51.0855299 C76.8490405,50.918564 77.4644436,50.7375963 77.6162109,50.7674561 Z" id="路径" fill="#CAC3B1"></path>
                <path d="M77.6162109,50.7674561 C77.8113403,50.8058472 78.6712036,52.3520358 78.7391968,52.4403917 C78.8071899,52.5287476 78.6273804,52.6372681 78.7391968,52.7650146 L78.8632718,52.9827391 L79.21417,53.6633157 L75.7220459,54.5274587 L73.2943928,55.1048383 L71.1042865,55.6002067 L69.6184211,55.9147744 L68.1518013,56.1965595 L68.1518013,56.1965595 L67.3002506,53.1052145 C67.6581645,53.069716 68.0302015,53.0067901 68.4048462,52.9099518 L70.0291858,52.517962 L75.6932423,51.2199707 L76.2224767,51.0855299 C76.8490405,50.918564 77.4644436,50.7375963 77.6162109,50.7674561 Z" id="路径" fill="#C6CCCA"></path>
                <path d="M11.7355957,62.1091919 C11.4093933,61.9996033 11.2514954,61.6971436 11.0636902,61.8109131 C10.875885,61.9246826 10.8796082,63.0575562 11.3011475,64.0737 C11.7226868,65.0898438 12.300415,66.0383301 13.4145508,66.8596191 C14.5286865,67.6809082 15.8114014,68.1332397 17.2733154,68.6660767 C18.7352295,69.1989136 21.8259277,70.112854 22.690979,70.3051147 C23.5560303,70.4973755 25.729248,70.8140259 26.3851318,70.8825684 C27.0410156,70.9511108 28.6150513,70.968811 29.6035767,70.9794312 C30.5921021,70.9900513 34.0667725,70.9794312 35.27771,70.9794312 C36.4886475,70.9794312 38.3322144,70.678772 39.8414307,69.8705444 C41.350647,69.0623169 41.9440918,68.6060181 41.9383593,68.5206299 C41.932373,68.4352417 41.6088867,68.1185913 41.3297729,67.6077881 C41.0506592,67.0969849 39.598938,64.5278931 39.4907837,63.90979 C39.3826294,63.291687 39.7217712,62.7399292 39.7550354,62.6562805 C39.7882996,62.5726318 39.7528687,62.5145264 39.4328918,62.5756226 C39.112915,62.6367188 33.1851196,63.9210205 31.741394,64.1967163 C30.2976685,64.4724121 25.2060547,64.5180664 23.8407593,64.4190369 C22.4754639,64.3200073 15.3892212,62.9443359 13.9981689,62.6562805 C12.6071167,62.3682251 12.0617981,62.2187805 11.7355957,62.1091919 Z" id="路径-1060" fill="#DFDFE1"></path>
                <path d="M11.0636902,61.8109131 C11.2514954,61.6971436 11.4093933,61.9996033 11.7355957,62.1091919 L12.2085054,62.2493023 C12.570226,62.3457962 13.1129539,62.4729725 13.9981689,62.6562805 L15.5955377,62.974052 C18.1998301,63.4821211 22.7722672,64.3415355 23.8407593,64.4190369 C25.2060547,64.5180664 30.2976685,64.4724121 31.741394,64.1967163 L39.4328918,62.5756226 L39.4328918,62.5756226 C39.7528687,62.5145264 39.7882996,62.5726318 39.7550354,62.6562805 L39.6572227,62.8595816 C39.6257882,62.9297863 39.5912933,63.0148588 39.5605485,63.1111665 C39.4988512,62.8810768 39.2389262,62.8274192 38.7842311,62.9496299 L38.0402192,63.1290866 C36.3828927,63.5091346 32.9200167,64.233347 31.8663651,64.3926809 C30.716927,64.5664997 28.9431358,64.674563 26.8170248,64.67169 L25.2950365,64.6548995 C23.577516,64.6225274 22.8581209,64.5416872 20.3129112,64.1224301 L19.2511128,63.9369124 C16.4784781,63.4300357 12.5935187,62.5750906 11.7017013,62.3280138 L11.535773,62.2764186 C11.1508018,62.1185238 11.2111431,62.3254523 11.198088,63.1655016 C11.1874228,63.8517715 12.2294348,65.5951093 13.1097694,66.6213966 C12.1909761,65.8556743 11.682236,64.992335 11.3011475,64.0737 C10.8796082,63.0575562 10.875885,61.9246826 11.0636902,61.8109131 Z" id="路径" fill="#FFFFFF"></path>
                <path d="M45.6651001,65.4696045 C44.8225708,65.5748291 44.3922729,65.8884888 43.9866943,65.8903167 C43.5811157,65.8920288 43.4985962,65.8565674 42.8655396,65.3200684 C42.2324829,64.7835693 41.8375903,64.0488281 41.9197998,63.6140747 C42.0020093,63.1793213 43.1702271,61.7592773 44.0106812,60.8564453 C44.8511353,59.9536133 47.2157593,57.6802368 50.0222168,55.6436768 C52.8286743,53.6071167 54.4379883,52.6584703 54.8348999,52.5234375 C55.2318115,52.3884047 56.0823364,52.2209473 57.2971802,52.6463623 C58.5120239,53.0717773 61.5263062,54.1525879 62.5516968,54.5357666 C63.5770874,54.9189453 65.7185669,55.4760132 66.4827881,55.4683838 C67.2470093,55.4607544 71.7955933,54.4176025 73.3555298,54.0864258 C74.9154663,53.755249 77.9909058,52.8886719 78.3963013,52.7835083 C78.8016968,52.6783447 78.9824829,52.640094 79.1594238,52.9099518 C79.3363647,53.1798096 80.512146,55.5325928 80.5682983,55.7312622 C80.6244507,55.9299316 80.8101196,56.3425903 80.3366699,56.4156494 C79.8632202,56.4887085 73.4313965,57.5866699 70.2989502,58.0308838 C67.1665039,58.4750977 57.7418213,60.0457764 55.2591553,60.5134277 C52.7764893,60.9810791 52.5421143,61.0310059 51.9315186,61.3039551 C51.3209229,61.5769043 50.5510864,62.1432495 49.9032593,62.9451294 C49.2554321,63.7470093 48.4014893,64.8424155 48.1544189,65.1039775 C47.9073486,65.3655396 47.6707764,65.4324341 47.3093262,65.4383545 C46.947876,65.4442749 46.5076294,65.3643799 45.6651001,65.4696045 Z" id="路径-1061" fill="#181516"></path>
                <path d="M52.7733154,60.9012451 C52.038851,61.0577646 50.7503662,61.5438232 49.5928955,62.9605713 C48.4354248,64.3773193 47.6867676,64.8861084 47.4356689,64.7645264 C47.1845703,64.6429443 46.6271973,63.9052734 45.9693604,64.1608887 C45.3115234,64.4165039 44.4360352,65.2164307 44.1633301,65.4352417 C43.890625,65.6540527 43.5814819,65.6814575 42.8964233,65.0563354 C42.2113647,64.4312134 42.0124512,63.8358765 42.1411133,63.536438 C42.2697754,63.2369995 43.0674438,62.1842041 43.2719727,62.1988525 C43.4765015,62.213501 44.946228,62.1210327 45.6436768,61.9005127 C46.3411255,61.6799927 58.7788696,57.5396118 61.3646851,56.8007812 C63.9505005,56.0619507 65.8632202,55.741333 66.5704346,55.7009888 C67.2776489,55.6606445 68.4711914,55.4968262 68.809021,55.3973999 C69.1468506,55.2979736 77.1168823,53.5595703 77.6446533,53.3887939 C78.1724243,53.2180176 78.4967041,53.3259888 78.5484009,53.4789429 C78.6000977,53.631897 79.4852295,56.1166382 79.3580933,56.1791382 C79.230957,56.2416382 73.8961792,57.2611694 72.0472412,57.5307617 C70.1983032,57.800354 61.9786377,59.1204834 59.2633057,59.668335 C56.5479736,60.2161865 53.5077798,60.7447257 52.7733154,60.9012451 Z" id="路径-1062" fill="#373334"></path>
                <path d="M43.729187,61.8028564 C43.6972046,61.6869154 43.3312988,61.7886353 45.2532959,59.9824829 C47.175293,58.1763306 49.8613892,56.0513916 50.0057373,55.9903564 C50.1500854,55.9293213 50.3364868,55.8013306 50.2348633,56.3317871 C50.1332397,56.8622437 49.8661804,57.9161987 50.2872925,58.4280396 C50.7084045,58.9398804 51.6176758,58.7729187 51.8919678,58.6393738 C52.1662598,58.5058289 54.3227844,56.9801025 55.3604431,56.2103882 C56.3981018,55.4406738 57.618927,54.4768066 57.6797791,54.3084412 C57.7406311,54.1400757 57.6016541,53.7150574 57.2302246,53.8166504 C56.8587952,53.9182434 54.3372498,55.4926147 53.4744568,55.9903564 C52.6116638,56.4880981 52.0482483,56.7976074 51.7194214,56.7808228 C51.3905945,56.7640381 51.2389832,56.5562744 51.1393738,55.9903564 C51.0397644,55.4244385 50.6185303,55.585144 50.5049744,55.6559448 C50.3914185,55.7267456 51.6838379,54.8064575 51.9612122,54.5948181 C52.2385864,54.3831787 54.5505981,52.781311 55.6356812,52.6870728 C56.7207642,52.5928345 58.982666,53.5842896 60.0424805,53.9713745 C61.1022949,54.3584595 64.8069458,55.4905396 64.6813354,55.5613403 C64.5557251,55.6321411 61.0324357,56.4123535 59.8832397,56.8189697 C58.7340438,57.2255859 51.9973145,59.3618774 50.6932373,59.7422485 C49.3891602,60.1226196 45.1933594,61.5192871 44.8000488,61.6502075 C44.4067383,61.7811279 43.7611694,61.9187975 43.729187,61.8028564 Z" id="路径-1063" fill="#1B1A19"></path>
                <path d="M50.7990417,55.7449951 C50.5569763,55.7211914 50.4217224,56.0970459 50.3443604,56.6326294 C50.2669983,57.1682129 50.2515259,57.8020935 50.5218201,58.2094116 C50.7921143,58.6167297 51.3340149,58.6663818 52.0841064,58.2706299 C52.834198,57.8748779 56.5297546,54.9837036 56.9806824,54.6807556 C57.4316101,54.3778076 57.5563354,54.2245789 57.4468079,54.0778503 C57.3372803,53.9311218 57.0246887,54.1497803 56.7511902,54.3190002 C56.4776917,54.4882202 54.7465515,55.4763184 54.1600952,55.8285522 C53.5736389,56.1807861 52.254364,56.9158936 51.9845276,56.9741821 C51.7146912,57.0324707 51.3171082,57.0133057 51.1384888,56.7362976 C50.9598694,56.4592896 51.0411072,55.7687988 50.7990417,55.7449951 Z" id="路径-1064" fill="#E2DFE0"></path>
                <path d="M81.9028106,57.9967459 C77.4994156,58.9097442 74.0453619,59.5581463 71.5406494,59.9419556 C67.6236572,60.5421753 56.2098389,62.102417 55.0643311,62.3594971 C53.9188232,62.6165771 53.073421,63.2086182 52.89694,63.8294678 C52.720459,64.4503174 52.6905518,65.0183799 52.6698579,65.1039775 C52.6495361,65.1895752 54.3186556,65.2418213 60.7374528,65.2744141 C67.15625,65.3070068 77.4051514,65.0350342 79.1986084,64.8547363 C80.9920654,64.6744385 83.2469482,63.5507202 83.3944092,63.1438599 C83.5418701,62.7369995 83.6051636,61.5618896 83.3944092,60.7738647 C83.1836548,59.9858398 82.0053406,58.7349548 81.8302917,58.6319275 C81.6917274,58.5503736 81.623188,58.2956694 81.827897,58.1467514 C81.8817976,58.1075408 81.9376526,58.009552 81.9028106,57.9967459 Z" id="路径-1065" fill="#CBD4D2"></path>
                <path d="M81.8463078,58.1327295 L81.7473724,58.2287345 C81.6678582,58.3463558 81.6947341,58.4903311 81.7677858,58.5780127 L81.8360864,58.6355189 L81.8360864,58.6355189 L81.3833475,58.7190863 C80.3417209,58.9340367 78.2769511,59.4633182 77.5103511,59.8901659 C76.5763663,60.4102147 76.6928711,61.3886719 76.7209902,61.63692 C76.7491092,61.8851681 76.5736084,62.5537109 76.12854,62.7315674 L75.0829395,63.0499409 C74.5199906,63.2414657 74.1324247,63.4738304 75.0527344,63.6846924 C76.4133222,63.9964312 80.0816877,63.8413822 81.4640175,64.2687775 C80.7463304,64.54844 79.9337094,64.780836 79.1986084,64.8547363 L78.5811987,64.9014914 C75.7235991,65.0782479 66.6213502,65.3042908 60.7374528,65.2744141 L56.7661033,65.2460704 C53.5896859,65.2136138 52.6546166,65.1681758 52.6696753,65.1039775 C52.6905518,65.0183799 52.720459,64.4503174 52.89694,63.8294678 C53.073421,63.2086182 53.9188232,62.6165771 55.0643311,62.3594971 L55.3426588,62.3057905 C57.2903001,61.9605821 66.3992239,60.7068915 70.6530166,60.0755454 L72.8740402,59.8308668 C74.4548205,59.6497767 75.8402493,59.4735775 76.4375345,59.3586421 L81.0433486,58.2977012 C81.4338638,58.2114174 81.725559,58.1504738 81.8463078,58.1327295 Z" id="路径" fill="#BAC9C7"></path>
                <path d="M70.6530166,60.0755454 L71.85747,59.94328 L72.6356991,59.8872702 C73.3694708,59.8423269 73.9620673,59.8324964 74.3432617,59.875 C76.2964607,60.0927839 74.5681152,61.6230469 74.125,62.4457106 C73.7003479,63.2340967 68.118649,64.9429277 66.861951,65.093393 L66.7233406,65.1039775 C66.5984979,65.1054637 66.3545862,65.1579505 66.0114681,65.2471356 C64.1411449,65.2719387 62.3225189,65.2824626 60.7374528,65.2744141 L55.1860406,65.2260709 C53.2679408,65.1956234 52.6574849,65.1559475 52.6694969,65.1039775 C52.6905518,65.0183799 52.720459,64.4503174 52.89694,63.8294678 C53.073421,63.2086182 53.9188232,62.6165771 55.0643311,62.3594971 L55.3426588,62.3057905 L57.2744662,62.0018942 C60.7396644,61.4839997 67.2499825,60.5806222 70.6530166,60.0755454 Z" id="路径" fill="#AABAB9"></path>
                <path d="M57.2744662,62.0018942 L65.9994636,60.7473787 L66.6559157,60.9436121 C68.3564462,61.4728752 69.608448,62.0380692 69.2488636,62.3544856 C68.6993013,62.8380731 65.508768,64.25113 63.0675696,65.2753425 L60.7374528,65.2744141 L60.7374528,65.2744141 L55.1860406,65.2260709 L53.6784452,65.1924337 C52.9301333,65.1678068 52.6614889,65.1386242 52.6694969,65.1039775 C52.6905518,65.0183799 52.720459,64.4503174 52.89694,63.8294678 C53.073421,63.2086182 53.9188232,62.6165771 55.0643311,62.3594971 L55.3426588,62.3057905 L57.2744662,62.0018942 Z" id="路径" fill="#99A7A6"></path>
                <path d="M59.5869525,64.0040122 L59.6044922,64.1303711 C59.6810216,64.3970257 59.6388291,64.8235258 59.4529972,65.2613831 L55.1860406,65.2260709 L53.6784452,65.1924337 C52.9301333,65.1678068 52.6614889,65.1386242 52.6694969,65.1039775 C52.6905518,65.0183799 52.720459,64.4503174 52.89694,63.8294678 C53.073421,63.2086182 53.9188232,62.6165771 55.0643311,62.3594971 L55.3426588,62.3057905 L57.2744662,62.0018942 L61.6205153,61.3769104 C60.4403769,62.3146072 59.5789179,63.4156817 59.5869525,64.0040122 Z" id="路径" fill="#909797"></path>
                <path d="M81.8121338,58.9141235 C81.7912126,58.8268013 81.9160511,58.8311275 82.1025272,58.8811759 C82.5140983,59.307392 83.2341132,60.1745072 83.3944092,60.7738647 C83.6051636,61.5618896 83.5418701,62.7369995 83.3944092,63.1438599 C83.3727926,63.2035023 83.3058892,63.2785495 83.2017912,63.3637712 L82.7232666,63.5982056 C81.2924194,64.2772827 82.2216187,62.7263184 82.6171696,62.1563448 C83.0127206,61.5863712 82.899231,61.1282011 82.8446655,60.6549072 C82.7901001,60.1816134 81.8742676,59.1734619 81.8121338,58.9141235 Z" id="路径" fill="#CBD0CC"></path>
                <path d="M82.1025272,58.8811759 C82.5140983,59.307392 83.2341132,60.1745072 83.3944092,60.7738647 C83.4509277,61.3067429 83.4390448,61.8131 83.3735352,62.0679932 C83.2424316,62.5781072 83.1652832,60.7963569 82.5626221,59.8809814 C82.2449402,59.3984579 82.0767667,59.0605332 82.0581016,58.8672073 L82.1025272,58.8811759 L82.1025272,58.8811759 Z" id="路径" fill="#8DAEA7"></path>
                <path d="M63.3286133,61.833374 C61.2180176,62.3278809 56.435791,62.5898437 55.4761963,63.0561523 C54.8928529,63.3396241 54.8414364,64.0631714 55.3219468,65.2267941 L53.8067457,65.1960136 C52.960555,65.1710022 52.6611011,65.1405309 52.6696753,65.1039775 C52.6905518,65.0183799 52.720459,64.4503174 52.89694,63.8294678 C53.073421,63.2086182 53.9188232,62.6165771 55.0643311,62.3594971 L55.5543504,62.2693876 L58.8105768,61.7757137 C60.8757186,61.4750779 63.4866053,61.1055182 65.8952201,60.762328 L65.2201965,61.1456636 C64.7908028,61.3776004 64.2485906,61.6178258 63.3286133,61.833374 Z" id="路径" fill="#A58D7C"></path>
                <path d="M56.6808183,62.3878495 C55.5252878,62.6554921 54.7477385,62.7056949 54.0478002,63.2498972 C53.3478618,63.7940995 54.3431332,64.1672492 55.0190173,63.8766447 C55.6949013,63.5860403 59.7267681,63.3054734 61.734375,63.2648026 C63.0727796,63.2376888 64.6289748,63.1661427 66.4029605,63.0501645 C64.1001576,62.6673003 62.5279434,62.4658157 61.6863178,62.4457106 C60.4238795,62.415553 57.8363487,62.1202069 56.6808183,62.3878495 Z" id="路径-1078" fill="#85857A"></path>
                <path d="M53.2301025,64.3208008 C53.3408999,64.4381847 55.067431,64.4926144 57.3313426,64.504201 L65.3649123,64.4850229 C69.6762656,64.4926612 74.9041185,64.5603966 77.0469971,64.8370361 L77.3093776,64.8806756 C77.4142013,64.9038795 77.4801621,64.9291056 77.5103511,64.9561093 L75.2686742,65.0427551 C71.649854,65.1639237 66.3640616,65.2714424 62.168486,65.2768782 L56.7661033,65.2460704 C53.5896859,65.2136138 52.6546166,65.1681758 52.6696753,65.1039775 C52.6905518,65.0183799 52.720459,64.4503174 52.89694,63.8294678 C52.9680672,63.5792466 53.1478495,63.3337048 53.4121423,63.112885 C53.2122708,63.5825298 53.1154337,64.1993153 53.2301025,64.3208008 Z" id="路径" fill="#967367"></path>
                <path d="M53.0270386,64.5197449 C53.1450602,64.5848897 53.4810588,64.6236267 54.0350342,64.6359558 C57.6842773,64.6862084 71.1619352,64.6746891 72.7116615,64.7731438 L72.8051147,64.7806396 C73.3874617,64.8436353 68.0401629,65.0886053 62.7671793,65.2746658 L62.168486,65.2768782 L56.7661033,65.2460704 L53.6136652,65.1902489 C52.9145922,65.1660855 52.6617874,65.1376052 52.6694969,65.1039775 C52.6905518,65.0183799 52.720459,64.4503174 52.89694,63.8294678 L52.942317,63.7112224 C52.903634,64.0724155 52.8500061,64.4220276 53.0270386,64.5197449 Z" id="路径" fill="#715B46"></path>
                <path d="M75.3570557,61.2080078 C76.0529785,61.0770264 76.1362305,60.5390625 75.9589844,60.288208 C75.7817383,60.0373535 66.2775879,61.3348752 64.0081787,61.63692 C61.7387695,61.9389648 58.4919434,62.1687012 57.0268555,62.3978271 C55.5617676,62.6269531 55.5177002,63.2575684 56.6520996,63.1580811 C57.786499,63.0585938 60.3081055,62.9797226 62.0206299,62.994561 C63.7331543,63.0093994 66.8989258,63.1639267 69.2646484,62.994561 C71.6303711,62.8251953 74.5361328,62.2392032 74.5758057,62.1563448 C74.6154785,62.0734863 74.3123779,61.9164181 74.5758057,61.63692 C74.8392334,61.3574219 74.6611328,61.3389893 75.3570557,61.2080078 Z" id="路径-1066" fill="#77968D"></path>
                <path d="M72.9180257,60.4980196 C72.9483234,60.641822 72.8260187,60.8166518 72.519043,61.0269522 C69.7060547,62.9540509 67.8543701,62.026123 67.2722168,62.4317627 C67.0079058,62.6159324 68.0085485,62.8291405 69.3611768,62.986907 L69.2646484,62.994561 C67.0960693,63.1498129 64.255227,63.0329047 62.477733,63.0009125 L62.0206299,62.994561 C60.3081055,62.9797226 57.786499,63.0585938 56.6520996,63.1580811 C55.5177002,63.2575684 55.5617676,62.6269531 57.0268555,62.3978271 L57.7557921,62.2993839 C59.1256826,62.1345528 61.2035186,61.9641844 62.9837771,61.7621498 L70.686796,60.7652712 L70.686796,60.7652712 L72.9180257,60.4980196 Z" id="路径" fill="#6A817A"></path>
                <path d="M60.9064941,62.994561 L59.4737869,63.0226157 C58.3563759,63.0531794 57.2869836,63.1024015 56.6520996,63.1580811 C55.5177002,63.2575684 55.5617676,62.6269531 57.0268555,62.3978271 L57.7557921,62.2993839 C59.1256826,62.1345528 61.2035186,61.9641844 62.9837771,61.7621498 L63.2793094,61.7227831 L62.7632284,61.8995218 C61.5006982,62.3427712 60.4970136,62.7860975 60.9064941,62.994561 Z" id="路径" fill="#737872"></path>
                <path d="M62.939647,61.7665712 L63.4869244,61.7030476 L63.4869244,61.7030476 L70.5236735,60.7854791 C73.3011832,60.4406616 75.8676758,60.1589799 75.9589844,60.288208 C76.1362305,60.5390625 76.0529785,61.0770264 75.3570557,61.2080078 C74.6611328,61.3389893 74.8392334,61.3574219 74.5758057,61.63692 C74.4077137,61.8152664 74.4702925,61.9437636 74.5272961,62.0349396 C73.4734475,62.0502779 70.3956338,62.4372701 69.5995483,62.5897827 C68.6342163,62.7747192 65.7019043,62.6732788 64.8677368,62.6262207 C64.0335693,62.5791626 68.105896,62.3303223 68.7717285,62.2561035 L69.4558468,62.1602759 C70.3590403,62.0234992 71.8084353,61.7853746 72.804816,61.6393958 L73.9241727,61.4823512 C74.8890949,61.3328247 75.7377562,61.1312452 75.6932423,61.0269522 C75.6446816,60.9131781 74.5588949,61.0282964 73.4817561,61.244464 L73.2132568,61.3005371 C72.1136597,61.5394287 69.5759235,61.7849855 65.5206636,62.0340154 L64.8677368,62.0733643 C61.9189438,62.2478248 62.2266402,62.0100821 62.939647,61.7665712 Z" id="路径" fill="#B4C6BE"></path>
                <path d="M74.2840576,59.9807129 C71.9251099,60.0236816 66.0547485,61.1865845 64.4001465,61.4954834 C62.7455444,61.8043823 65.9968262,61.6720763 67.2393799,61.6270752 C68.4819336,61.5820741 74.3307495,60.9158209 75.3341675,60.7512817 C76.3375854,60.5867425 76.6430054,59.9377441 74.2840576,59.9807129 Z" id="路径-1067" fill="#D5DEDC"></path>
                <path d="M74.8400879,60.0813599 C73.8635254,60.0255737 71.4515991,60.4527588 70.4973755,60.5837402 C69.5431519,60.7147217 66.2738647,61.2626953 66.6303711,61.2894287 C66.9868774,61.3161621 72.3146362,60.854308 73.6539307,60.6828613 C74.9932251,60.5114147 75.8166504,60.137146 74.8400879,60.0813599 Z" id="路径-1068" fill="#FFFFFF"></path>
                <path d="M77.3030396,59.4761963 C76.6998291,59.7112262 76.2316284,60.1291504 76.3434448,60.5402222 C76.4552612,60.9512939 76.4818115,61.1857014 76.3669434,61.5039673 C76.2520752,61.8222332 76.3457642,62.2124023 76.3442383,62.2854614 C76.3427124,62.3585205 77.7681026,62.3321533 78.1203003,62.3443604 C78.472498,62.3565674 81.172126,62.2271118 81.7443271,62.3443604 C82.3165283,62.4616089 82.6483765,61.5286002 82.6152954,61.197876 C82.5822144,60.8671518 82.3201904,59.490979 81.9198608,59.1323609 C81.5195312,58.7737427 81.5263672,58.5619507 80.9761353,58.6472778 C80.4259033,58.732605 77.90625,59.2411664 77.3030396,59.4761963 Z" id="路径-1069" fill="#DEE2E2"></path>
                <path d="M51.3738098,64.8291626 C51.1332703,64.961853 50.2053528,65.8754272 50.0042419,66.0662231 C49.8031311,66.257019 49.5488892,66.588623 49.4990845,66.6654053 C49.4492798,66.7421875 51.5360718,68.4312134 51.6289062,68.4592896 C51.7217407,68.4873657 51.8971558,68.1984253 52.0435791,68.3223267 C52.1900024,68.446228 54.0172729,69.7736206 54.814209,70.1397095 C55.611145,70.5057983 56.971011,70.9724121 59.5688185,71.1499023 C62.166626,71.3273926 71.494578,71.3482204 72.6856435,71.3482204 C73.876709,71.3482204 77.4618348,71.1289062 79.4636139,70.6864624 C81.4653931,70.2440186 84.7579956,68.8103027 85.6502686,68.1570435 C86.0549316,67.8631592 86,67.2008057 86,67 C86,66.7991943 84.5095215,62.881958 84.197876,62.5046997 C83.9901123,62.2531942 83.7674112,62.1227409 83.5297726,62.1133399 C83.6009961,62.6484783 83.3016839,63.083965 82.6318359,63.4197998 C81.627064,63.9235521 78.0556641,64.7776489 72.0202637,64.7172852 C65.9848633,64.6569214 58.9753418,64.8535767 56.7281494,64.887146 C54.480957,64.9207153 53.4079285,64.8408203 52.7859192,64.7189941 C52.1639099,64.597168 51.6143494,64.6964722 51.3738098,64.8291626 Z" id="路径-1070" fill="#E5E3E5"></path>
                <path d="M83.5297726,62.1133399 C83.7674112,62.1227409 83.9901123,62.2531942 84.197876,62.5046997 C84.5095215,62.881958 86,66.7991943 86,67 L86.0022602,67.2241755 C85.9987411,67.5089531 85.9537659,67.9366302 85.6502686,68.1570435 C84.7579956,68.8103027 81.4653931,70.2440186 79.4636139,70.6864624 C78.2520253,70.9542541 76.460402,71.1403057 74.9706392,71.2454632 L73.7143692,64.7100514 C78.7273357,64.6145175 81.7249759,63.8744629 82.6318359,63.4197998 C83.3016839,63.083965 83.6009961,62.6484783 83.5297726,62.1133399 Z" id="路径" fill="#E8E8E8"></path>
                <path d="M83.5297726,62.1133399 C83.7674112,62.1227409 83.9901123,62.2531942 84.197876,62.5046997 C84.5095215,62.881958 86,66.7991943 86,67 L86.0022602,67.2241755 C85.9987411,67.5089531 85.9537659,67.9366302 85.6502686,68.1570435 C84.8296576,68.7578369 81.9787943,70.0187578 79.9689932,70.5615948 L77.5239635,64.4920029 L77.5239635,64.4920029 L78.5685024,64.3712836 C80.7113361,64.0910774 82.0711693,63.7008955 82.6318359,63.4197998 C83.3016839,63.083965 83.6009961,62.6484783 83.5297726,62.1133399 Z" id="路径" fill="#EBEBEB"></path>
                <path d="M83.5297726,62.1133399 C83.7674112,62.1227409 83.9901123,62.2531942 84.197876,62.5046997 C84.5095215,62.881958 86,66.7991943 86,67 L86.0022602,67.2241755 C85.9987411,67.5089531 85.9537659,67.9366302 85.6502686,68.1570435 C85.3997824,68.3404317 84.9601305,68.5853264 84.4129747,68.8525303 L83.679081,67.1879727 C83.2493337,66.230339 82.9383274,65.5767694 82.7443271,65.2267941 C82.3589328,64.5315449 81.3873883,64.2605328 80.5119037,64.0502687 C81.5588118,63.8334332 82.265715,63.6033581 82.6318359,63.4197998 C83.3016839,63.083965 83.6009961,62.6484783 83.5297726,62.1133399 Z" id="路径" fill="#F0F0F0"></path>
                <path d="M83.5297726,62.1133399 C83.7674112,62.1227409 83.9901123,62.2531942 84.197876,62.5046997 C84.5095215,62.881958 86,66.7991943 86,67 L86.0021343,67.2332636 C86.0013741,67.2827466 85.9993202,67.3363455 85.9948688,67.3922798 L85.779259,66.9546515 C85.1406412,65.6036851 84.0523792,62.9378015 83.9454153,62.7188528 C83.8205181,63.0610157 83.1853413,64.0661229 80.4866365,64.4940503 C78.4356209,64.8192752 74.6546722,64.9223854 70.0640827,64.9543186 L55.4240696,65.0173941 C54.5429867,65.0145614 53.8841499,65.0009252 53.444629,64.9680304 L52.7934227,64.9235473 C51.8480731,64.8686324 51.5486225,64.9140625 51.0839844,65.1232525 L50.8877914,65.22858 L51.2239419,64.9365081 C51.2861819,64.8865396 51.3377289,64.8490662 51.3738098,64.8291626 C51.5799866,64.7154279 52.0131992,64.6262219 52.5244691,64.6797742 L53.0822163,64.7684296 C53.6290949,64.8458482 54.4587926,64.8966595 55.8348463,64.8947946 L64.8038993,64.7396727 C66.9165551,64.7122648 69.1924105,64.6965887 71.3701474,64.711782 L72.0202637,64.7172852 C78.0556641,64.7776489 81.627064,63.9235521 82.6318359,63.4197998 C83.3016839,63.083965 83.6009961,62.6484783 83.5297726,62.1133399 Z" id="路径" fill="#F4F4F4"></path>
                <path d="M63.0297852,49.6533203 C62.0366211,49.3413086 61.576346,49.2304687 60.7374528,49.3763428 C59.8985596,49.5222168 58.2574661,50.0286865 59.2823585,50.5717773 C60.307251,51.1148682 64.5472489,52.5369782 65.4576454,52.7696488 C66.368042,53.0023193 67.117203,52.8355668 67.6851807,52.7819824 C68.2531583,52.7283981 69.3043213,52.4310456 69.4715576,52.3063965 C69.6387939,52.1817474 64.0229492,49.965332 63.0297852,49.6533203 Z" id="路径-1073" fill="#3F3F3F"></path>
                <path d="M70.7097168,59.9013323 C70.7582659,59.7379674 78.8233817,58.2641148 79.7887835,58.0389927 C80.7541853,57.8138707 81.5431083,57.715 81.3635603,57.265346 C81.1840123,56.815692 81.752533,57.6441345 81.5240784,57.8683167 C81.2956238,58.0924988 79.9560198,58.3088574 78.9740862,58.4791881 C77.9921526,58.6495187 70.6611677,60.0646973 70.7097168,59.9013323 Z" id="路径-1077" fill="#CADDDC"></path>
            </g>
        </g>
    </g>
</svg>