<?xml version="1.0" encoding="UTF-8"?>
<svg width="96px" height="96px" viewBox="0 0 96 96" version="1.1" xmlns="http://www.w3.org/2000/svg" xmlns:xlink="http://www.w3.org/1999/xlink">
    <title>Nike Lebron VII QS</title>
    <defs>
        <rect id="path-1" x="0" y="0" width="96" height="96"></rect>
    </defs>
    <g id="icon" stroke="none" stroke-width="1" fill="none" fill-rule="evenodd">
        <g id="画板" transform="translate(-1086.000000, -230.000000)">
            <g id="Nike-Lebron-VII-QS" transform="translate(1086.000000, 230.000000)">
                <g id="#" opacity="0">
                    <use fill="#FFFFFF" fill-rule="evenodd" xlink:href="#path-1"></use>
                    <rect stroke-opacity="0.5" stroke="#DDDDDD" stroke-width="6" stroke-linejoin="square" x="3" y="3" width="90" height="90"></rect>
                    <rect stroke-opacity="0.507785184" stroke="#DDDDDD" stroke-width="12" stroke-linejoin="square" x="6" y="6" width="84" height="84"></rect>
                    <rect stroke-opacity="0.319406703" stroke="#979797" stroke-width="10" stroke-linejoin="square" x="5" y="5" width="86" height="86"></rect>
                </g>
                <path d="M24.8291016,52.5296631 C24.8291016,52.5296631 25.7435303,51.6762695 25.9764404,51.6762695 C26.1317139,51.6762695 26.2698568,51.4961751 26.3908691,51.1359863 C26.8959961,51.1359863 27.1485596,51.1359863 27.1485596,51.1359863 C27.1485596,51.1359863 27.9627686,50.2489014 28.2741699,50.2489014 C28.4817708,50.2489014 28.7253011,50.3055013 29.0047607,50.4187012 C29.6230062,49.8515625 30.048584,49.5679932 30.2814941,49.5679932 C30.6308594,49.5679932 31.8875732,49.1587402 31.8875732,49.1587402 C31.8875732,49.1587402 32.4246826,49.1587402 32.4246826,49.1587402 C32.4246826,49.1587402 32.9635417,48.9534831 34.0412598,48.5429687 C34.5554199,47.9578451 35.1936442,47.557902 35.9559326,47.3431396 C37.0993652,47.0209961 38.0513916,46.9970703 38.7832031,47.0090332 C39.2440592,46.8164876 39.678182,46.6126709 40.0855713,46.397583 C40.8582764,45.6648356 41.6094157,45.2006429 42.3389893,45.0050049 C43.0685628,44.8093669 43.9305013,44.8093669 44.9248047,45.0050049 C45.6512044,44.3065999 46.5070394,43.6897786 47.4923096,43.154541 C48.4775798,42.6193034 49.3616536,42.4516195 50.1445313,42.6514893 C50.5415039,41.96993 50.8621419,41.5323486 51.1064453,41.3387451 C51.3507487,41.1451416 51.9322103,40.6363525 52.8508301,39.8123779 L52.4935303,39.8123779 L53.4462891,38.4063721 L53.8475342,38.4063721 C53.8475342,37.9320882 53.8475342,37.5319417 53.8475342,37.2059326 C53.8475342,36.7169189 54.8497314,35.592041 54.8497314,35.592041 C54.8497314,35.592041 55.5189209,35.592041 55.5189209,35.592041 C55.5189209,35.592041 56.6201172,33.3378906 56.8740234,32.7572021 C57.1279297,32.1765137 57.7026367,30.4473877 57.7026367,29.5059814 C57.7026367,28.8783773 57.8209635,28.370931 58.0576172,27.9836426 C58.5848796,27.2610677 58.9241536,26.7873535 59.0754395,26.5625 C59.3023682,26.2252197 59.9866943,25.5075684 60.4136963,25.5075684 C60.8406982,25.5075684 62.5081787,25.7039795 64.2269287,29.5059814 C65.372762,32.0406494 66.0312907,34.4171956 66.2025146,36.6356201 C69.9202067,38.3743896 72.043335,39.3385417 72.5718994,39.5280762 C73.3647461,39.8123779 76.1835938,41.1203613 76.4318848,41.1203613 C76.6801758,41.1203613 78.9589844,38.8653564 79.3380127,38.8653564 C79.717041,38.8653564 80.4456787,39.9989014 80.4456787,40.1837158 C80.4456787,40.3685303 80.1868896,40.3936768 80.4456787,40.6856689 C80.7044678,40.9776611 80.9711914,41.3812256 80.9420166,42.0695801 C81.5090332,41.9831543 81.7655029,42.1520996 81.8122559,42.272583 C81.8590088,42.3930664 81.7542725,42.9020996 81.9232178,43.0670166 C82.0921631,43.2319336 82.6589355,44.9604492 82.4822998,46.1612549 C82.3056641,47.3620605 82.1552734,47.3323975 82.4822998,47.7774658 C82.8093262,48.2225342 83.2923584,48.8238525 83.3651123,49.5679932 C83.6573486,50.0169678 84.5844727,52.2347412 84.8195801,52.9477539 C85.0546875,53.6607666 85.4581299,57.3708496 85.3945313,58.4864502 C85.3309326,59.6020508 84.6975098,60.8122559 83.8199463,61.6164551 C82.9423828,62.4206543 79.486084,62.2974854 77.038208,61.9151611 C74.590332,61.5328369 66.4416504,61.5618896 62.9498291,62.6715088 C59.4580078,63.7811279 48.9423828,65.5273438 43.2009277,66.0588379 C37.4594727,66.590332 20.8647461,64.899292 18.074707,64.5290527 C16.214681,64.2822266 14.2768148,63.6630452 12.2611084,62.6715088 L10.6624756,59.7919922 C10.9205322,58.3749186 11.2443441,57.4143473 11.6339111,56.9102783 C12.2182617,56.1541748 13.7159424,55.0600586 15.3099365,54.7169189 C16.9039307,54.3737793 20.2652588,53.6228027 21.1923828,53.3712158 C22.1195068,53.1196289 24.8291016,52.5296631 24.8291016,52.5296631 Z" id="路径-488" fill="#F3F5F7"></path>
                <path d="M14.7797852,57.4483913 C15.7333984,58.5515137 21.3544312,59.8864624 26.2087402,60.152832 L33.0460218,60.5438232 L33.0460218,60.5438232 L38.16562,62.4150063 C31.8530163,63.4356173 26.2799362,63.3490601 21.4463797,62.1553345 C14.3945835,60.4137784 11.043547,60.5254109 11.0924651,58.0328433 C11.2561086,57.5380951 11.4365735,57.1656176 11.6339111,56.9102783 C12.1673183,56.2200915 13.4617499,55.2482586 14.8957831,54.8230645 C14.2696148,55.9401294 14.2313467,56.8139678 14.7797852,57.4483913 Z" id="路径" fill="#E7E9EB"></path>
                <path d="M13.1706543,58.4279785 C13.9365102,59.7633774 20.3031245,61.0002334 23.9473542,61.4341079 L24.3254395,61.4777832 C26.6796061,61.7409668 31.2483724,62.0021973 38.0317383,62.2614746 C43.0132311,63.8936361 48.7349469,63.5819646 55.1968859,61.3264601 L60.6334946,59.3276571 C67.4601545,56.836948 70.3775458,55.9665527 72.4408196,56.1264648 C74.7620025,56.306366 78.6130689,57.2788826 80.4880778,57.9875795 L81.3155438,58.3235629 C82.8134192,58.9259668 84.09652,59.2297763 84.9058122,57.4483913 C85.0540049,57.1221947 85.1880325,56.7913964 85.307895,56.4559963 L85.3785879,57.4789276 C85.400489,57.8960132 85.4080297,58.2496697 85.3945313,58.4864502 C85.3309326,59.6020508 84.6975098,60.8122559 83.8199463,61.6164551 C83.0347579,62.3360017 80.1851526,62.3131401 77.8405586,62.0265011 L77.038208,61.9151611 C74.590332,61.5328369 66.4416504,61.5618896 62.9498291,62.6715088 C59.4580078,63.7811279 48.9423828,65.5273438 43.2009277,66.0588379 C37.4594727,66.590332 20.8647461,64.899292 18.074707,64.5290527 C16.214681,64.2822266 14.2768148,63.6630452 12.2611084,62.6715088 L10.6624756,59.7919922 C10.9205322,58.3749186 11.2443441,57.4143473 11.6339111,56.9102783 C11.9299821,56.5271859 12.460515,56.0573218 13.1192431,55.6423277 C12.4583501,56.8051032 12.7431461,57.682546 13.1706543,58.4279785 Z" id="路径" fill="#D6D9E1"></path>
                <path d="M69.3496547,56.4660304 C66.4357659,58.5260598 62.6516707,61.7891364 60.2768555,62.8266602 C59.3604451,63.2270271 58.2644122,63.6372067 57.0525423,64.0212495 C53.3077554,64.7306932 48.7626956,65.4332358 45.2165241,65.8460914 C40.9660322,65.7781094 39.2919937,65.338891 36.7513429,64.65271 L36.1962706,64.4982154 C34.485064,64.0100967 31.5965913,63.0937143 27.5308524,61.749068 L29.7682724,61.8857391 C32.0070626,62.0110768 34.7621467,62.1365026 38.0317383,62.2614746 C43.0132311,63.8936361 48.7349469,63.5819646 55.1968859,61.3264601 L60.6334946,59.3276571 L62.6807611,58.5879113 C65.4572716,57.5966098 67.4738936,56.9354993 69.028812,56.5469946 L69.3496547,56.4660304 Z M85.307895,56.4559963 L85.3785879,57.4789276 L85.3992843,58.0207306 C85.402528,58.1835165 85.4018837,58.326623 85.3966523,58.4444565 C84.4783811,60.0496339 83.6756017,60.7892021 82.9864891,60.6625117 C81.9346567,60.4691366 80.6201055,58.9551314 79.5922929,57.6768439 L80.2131284,57.8867894 C80.3088974,57.9209053 80.4006364,57.9545293 80.4880778,57.9875795 L81.3155438,58.3235629 L81.7811157,58.5017863 C83.0782958,58.9668221 84.1817087,59.0422621 84.9058122,57.4483913 C85.0540049,57.1221947 85.1880325,56.7913964 85.307895,56.4559963 Z" id="形状" fill="#D2D5DB"></path>
                <path d="M25.5820312,55.0712891 C25.513916,54.6918945 26.6633301,53.732666 28.4821777,52.8299827 C30.3010254,51.9272993 38.3388672,49.4521484 41.9926758,48 C45.6464844,46.5478516 52.8840332,42.4726562 54.8671875,40.7668457 C56.8503418,39.0610352 58.3278809,35.3818359 59.6572266,36.4814453 C60.9865723,37.5810547 63.3283691,41.1073264 64.6164551,43.1325206 C65.904541,45.1577148 67.9228516,48.2712402 69.7294922,48 C71.5361328,47.7287598 75.9848633,43.3468284 77.0043945,43.1325206 C78.0239258,42.9182129 81.3371582,46.9997559 82.0437012,48 C82.7502441,49.0002441 84.2294922,52.1779785 84.380127,53.6237793 C84.5307617,55.0695801 83.8486328,57.4863281 83.5302734,57.6938477 C83.2119141,57.9013672 74.527832,54.1745605 72.9108887,54.1350098 C71.2939453,54.095459 61.8904732,58.2722168 55.7753147,60.2939453 C49.6601562,62.3156738 43.9436035,63.1274414 39.234375,61.6816406 C34.5251465,60.2358398 25.6501465,55.4506836 25.5820312,55.0712891 Z" id="路径-490" fill="#B0B0B0"></path>
                <path d="M82.0437012,48 C82.7502441,49.0002441 84.2294922,52.1779785 84.380127,53.6237793 C84.5307617,55.0695801 83.8486328,57.4863281 83.5302734,57.6938477 C83.2119141,57.9013672 74.527832,54.1745605 72.9108887,54.1350098 C72.7659465,54.1314644 72.5584374,54.1617983 72.2963385,54.2214221 C72.320423,53.5381822 72.3821118,52.8854465 72.4408196,52.3101505 C72.6074116,50.6776604 75.2174247,48.5110435 80.2708588,45.8102998 L80.7846082,46.4069222 C81.3577264,47.0870731 81.8252762,47.6907784 82.0437012,48 Z" id="路径" fill="#959595"></path>
                <path d="M60.6963567,37.5646537 L60.8117867,37.6997806 C61.5672402,38.615061 62.4198875,39.8134944 63.1904547,40.9542839 C63.1058376,41.6566131 62.9569179,42.4968892 62.729509,43.5008435 C61.417645,49.2923988 55.5905414,57.2517908 50.3104725,61.777525 C46.2688304,62.6007946 42.5081877,62.6867481 39.234375,61.6816406 C37.2316363,61.0667711 34.475465,59.8479367 31.9636815,58.6208702 C38.1290199,56.7890153 43.032231,54.7410159 46.6743164,52.4760742 C53.4047852,48.2905273 57.3242188,44.402832 58.4165039,41.2104492 C59.4520319,38.1839484 60.0991286,37.4151456 60.6963567,37.5646537 Z" id="路径" fill="#9C9C9C"></path>
                <path d="M59.6572266,36.4814453 C60.7373199,37.3748779 62.4857893,39.8702869 63.7943929,41.860923 L65.1817466,44.0103795 C66.4510533,45.9439183 68.1692116,48.2342529 69.7294922,48 C71.3747877,47.7529833 75.2113329,44.0967144 76.6535154,43.2837605 C76.9773241,43.2430161 77.3512426,43.2833736 77.7435674,43.3867535 C78.8372268,44.0927012 80.5334289,46.0607168 81.4792165,47.2561601 C81.111341,48.9595573 77.7939986,49.8569565 76.2800293,51.674063 C74.5986328,53.6921202 78.0532227,54.546875 78.8867187,55.7347402 C79.0029546,55.9003949 79.0528814,56.0321172 79.0442223,56.1325452 L76.8178824,55.3034687 C75.069635,54.6673106 73.5081479,54.1496189 72.9108887,54.1350098 C71.2939453,54.095459 61.8904732,58.2722168 55.7753147,60.2939453 C51.0518656,61.8555617 46.5662356,62.6952825 42.5989492,62.3303234 C40.8372062,61.6999734 44.8527049,59.6426022 47.4947004,57.6645181 L47.7458496,57.4733887 C51.2402344,54.7675781 56.6071777,50.0268555 58.9108887,46.1745605 C60.446696,43.6063639 60.3690487,40.6237066 58.6779468,37.2265885 C58.7006271,36.7983649 58.7900669,36.4911906 58.9462661,36.3050657 C59.1911001,36.2436575 59.4263974,36.2905079 59.6572266,36.4814453 Z" id="路径" fill="#707070"></path>
                <path d="M55.9123288,39.8595968 L56.1576454,39.9206432 L57.9744469,42.3463382 L60.2728949,43.533863 L62.2640574,44.5937139 C62.6724002,44.8150536 63.057986,45.0269392 63.4208183,45.2293728 L64.366741,45.7654045 L64.8653262,46.0628775 L65.7855044,46.6459448 C66.9228139,47.3850501 68.4431335,48.4283596 70.3469151,49.7761582 L69.3123237,48.0049168 C69.4523346,48.0216878 69.5915305,48.0207129 69.7294922,48 L69.7698048,47.9881248 L71.1374592,50.3376292 L73.8935275,52.3178673 L77.0624063,54.6258541 L77.0624063,54.6258541 L79.1800479,56.1857426 L77.8044726,55.6680717 L77.8044726,55.6680717 L76.7322299,54.8798819 L72.9632737,52.1392236 L71.6255322,51.1777601 L71.6255322,51.1777601 L73.3843177,54.2022523 C73.2557409,54.1750367 73.1417953,54.1555343 73.0443789,54.1446824 L72.8858048,54.1341248 L70.8341558,50.6127044 L68.7046234,49.1102788 L67.3310129,48.1608443 C66.0532301,47.2874478 65.0629628,46.6421858 64.3605038,46.2252427 L63.3081193,45.6245943 L62.2796622,45.0574032 L61.1392081,44.4436301 C60.3415763,44.0189229 59.4692897,43.5631674 58.5223681,43.0763763 L64.4198048,50.9534951 L70.596186,54.7326879 L70.1285884,54.8953081 L70.1285884,54.8953081 L65.0078048,51.7394951 L67.9724646,55.6919372 L67.5825183,55.8409199 L67.5825183,55.8409199 L64.0798048,51.1654951 L57.5338048,47.1314951 L61.3478048,53.8354951 L65.3637942,56.7013611 L64.9200841,56.874787 L64.9200841,56.874787 L61.8178048,54.6634951 L63.4113778,57.4645744 L63.0367653,57.6106777 L63.0367653,57.6106777 L61.0418048,54.1094951 L53.2198048,48.5254951 L55.4398048,54.3394951 L60.3961371,58.6290519 L59.9725728,58.7895335 L59.9725728,58.7895335 L55.7398048,55.1274951 L57.4881071,59.7039663 L57.1117388,59.8371814 L57.1117388,59.8371814 L55.1038048,54.5754951 L49.6898048,49.8914951 L53.5899693,60.9683037 L53.2016016,61.0774903 L53.2016016,61.0774903 L49.0778048,49.3614951 L46.1298048,46.8100917 L46.3915737,46.50764 L48.8118048,48.6034951 L47.8113493,45.7591222 L47.9101849,45.5140086 L48.5518048,45.1914951 L48.2115391,44.948063 L48.601408,44.7327737 L48.601408,44.7327737 L48.9558048,44.9874951 L51.203703,43.8586659 L51.480365,43.9660329 L52.9618048,47.8474951 L60.5718048,53.2814951 L56.8258048,46.6954951 L51.2044986,43.2316648 L51.5101686,43.047045 L51.5101686,43.047045 L56.4838048,46.0934951 L53.8842202,41.5150368 L54.2107325,41.2811787 L54.2107325,41.2811787 L57.1898048,46.5254951 L63.4958048,50.3874951 L57.7105714,42.6607696 L54.5198616,41.048818 L54.8671875,40.7668457 L54.8671875,40.7668457 C55.1339936,40.5373524 55.3916481,40.2721407 55.6410214,39.987653 L55.9123288,39.8595968 Z M74.6307856,44.7749063 L76.1138048,47.8014951 L84.0053076,52.1403209 C84.0706803,52.3315159 84.1297617,52.5171495 84.1809622,52.694264 L76.4178048,48.4254951 L80.4569233,56.6695276 L79.909126,56.4621084 L79.909126,56.4621084 L75.8078048,48.0894951 L72.627888,46.3437322 L72.9768898,46.0788225 L72.9768898,46.0788225 L75.5038048,47.4674951 L74.3115565,45.0292453 L74.6307856,44.7749063 L74.6307856,44.7749063 Z M48.9178048,45.4514951 L48.246,45.79 L49.4218048,49.1314951 L54.8018048,53.7874951 L52.6338048,48.1054951 L48.9178048,45.4514951 Z M51.186,44.314 L49.3218048,45.2494951 L52.3758048,47.4294951 L51.186,44.314 Z M55.934,40.29 L54.8778048,40.7874951 L57.1686624,41.9366371 L55.934,40.29 Z M57.5058024,37.5741248 L62.9143442,40.5483109 L63.404366,41.2725844 L63.404366,41.2725844 L57.2601857,37.8932437 L57.5058024,37.5741248 L57.5058024,37.5741248 Z" id="形状" fill="#969696" fill-rule="nonzero"></path>
                <path d="M64.2269287,29.5059814 C65.2578718,31.7865037 65.894333,33.9390235 66.1363123,35.963541 L66.2025146,36.6356201 C66.0634359,38.5543213 65.8644206,40.1653646 65.6054688,41.46875 C65.217041,43.4238281 61.6958008,36.7937012 60.0776367,36.6356201 C58.4594727,36.4775391 57.6037598,37.8564453 54.8706055,40.265625 C52.1374512,42.6748047 41.765625,48.2192383 37.7231445,49.4887695 L35.219166,50.2887402 C31.9977977,51.3342969 28.7767959,52.4409133 27.7117088,52.9071495 L27.5617676,52.9753418 C26.4667969,53.4975586 25.5696411,53.2689209 24.97229,52.9753418 C24.8184517,52.8997351 24.7191593,52.7627969 24.6744129,52.564527 L24.8291016,52.5296631 L24.8291016,52.5296631 L25.2308746,52.1737898 C25.4520198,51.986488 25.7136823,51.7804561 25.8757515,51.7055354 L25.9764404,51.6762695 C26.1317139,51.6762695 26.2698568,51.4961751 26.3908691,51.1359863 L27.1485596,51.1359863 L27.3711842,50.9060013 C27.635498,50.6431613 28.066569,50.2489014 28.2741699,50.2489014 C28.4817708,50.2489014 28.7253011,50.3055013 29.0047607,50.4187012 C29.6230062,49.8515625 30.048584,49.5679932 30.2814941,49.5679932 C30.6308594,49.5679932 31.8875732,49.1587402 31.8875732,49.1587402 L32.4246826,49.1587402 L34.0412598,48.5429687 L34.0412598,48.5429687 C34.5554199,47.9578451 35.1936442,47.557902 35.9559326,47.3431396 C37.0993652,47.0209961 38.0513916,46.9970703 38.7832031,47.0090332 C39.2440592,46.8164876 39.678182,46.6126709 40.0855713,46.397583 C40.8582764,45.6648356 41.6094157,45.2006429 42.3389893,45.0050049 C43.0685628,44.8093669 43.9305013,44.8093669 44.9248047,45.0050049 C45.6512044,44.3065999 46.5070394,43.6897786 47.4923096,43.154541 C48.4775798,42.6193034 49.3616536,42.4516195 50.1445313,42.6514893 C50.5415039,41.96993 50.8621419,41.5323486 51.1064453,41.3387451 L51.4631348,41.0400798 C51.7758518,40.7709283 52.2384169,40.3616943 52.8508301,39.8123779 L52.4935303,39.8123779 L53.4462891,38.4063721 L53.8475342,38.4063721 L53.8475342,37.2059326 C53.8475342,36.7169189 54.8497314,35.592041 54.8497314,35.592041 L55.5189209,35.592041 L56.8125223,32.8944889 C56.8364035,32.8420649 56.8570964,32.7959147 56.8740234,32.7572021 C57.1025391,32.2345825 57.5909033,30.7817285 57.686291,29.8100988 L57.7026367,29.5059814 C57.7026367,28.8783773 57.8209635,28.370931 58.0576172,27.9836426 L59.0754395,26.5625 C59.3023682,26.2252197 59.9866943,25.5075684 60.4136963,25.5075684 L60.6003426,25.5195194 C61.2118824,25.5957287 62.6991509,26.1264242 64.2269287,29.5059814 Z" id="路径" fill="#E1E3E7"></path>
                <path d="M58.1284129,27.882896 L58.2444129,27.718896 L58.3412509,27.7675503 C58.7346409,27.9729931 59.1192895,28.1934115 59.4798396,28.4271688 C60.3389085,28.9841334 60.9415728,29.5358 61.1863043,30.0712218 L61.2611023,30.2712221 L61.2812954,30.3507539 C61.3519211,30.67446 61.2916511,31.018426 61.115454,31.3801027 C60.8303341,31.9653633 60.2630547,32.5726673 59.436982,33.2542467 L59.0260543,33.5833442 L56.6554669,35.3580695 L53.8464129,37.410896 L53.8475342,37.2059326 L53.8544129,37.156896 L57.3421822,34.6024742 L58.6768282,33.6001778 L59.1120103,33.2605946 L59.3096977,33.0999784 C60.1153223,32.4352704 60.6662928,31.845426 60.9356552,31.2925106 C61.0619505,31.0332664 61.1207994,30.7897175 61.1085076,30.5615926 L61.078046,30.3601658 L61.0689794,30.3267992 C60.9137476,29.7901827 60.2991702,29.1967256 59.3710384,28.5949851 C59.1345116,28.4416364 58.8870609,28.2939011 58.6333491,28.1523791 L58.1284129,27.882896 Z" id="路径" fill="#A4908F"></path>
                <path d="M63.5495605,28.8007812 C64.4350586,29.6960449 66.3760986,34.6157227 65.8852539,36.8858643 C65.4182426,39.0457768 65.886534,40.2003746 63.7966024,40.4638304 L62.5762795,38.9258332 C61.6536261,37.7711211 60.7170547,36.6980859 60.0776367,36.6356201 C59.4731151,36.5765634 58.9750054,36.7320174 58.4456647,37.0755622 C58.1519008,36.3802599 58.1807428,35.7137206 58.722168,35.2364502 L59.7233584,34.350125 C60.9243311,33.2621484 61.6116943,32.4527344 62.0516357,30.7626953 L62.408404,29.384044 C62.6914516,28.3718025 62.8970883,28.1411133 63.5495605,28.8007812 Z" id="路径" fill="#B5B8C0"></path>
                <path d="M58.6652832,28.6663818 C59.0091553,28.8959961 60.5640869,30.1729736 60.369751,30.8723145 C60.175415,31.5716553 57.4696239,33.9253394 56.7525774,34.5090217 L56.6417236,34.5932617 C56.3904057,34.7623141 56.0456105,35.0361832 55.6073381,35.414869 L56.8125223,32.8944889 L56.8740234,32.7572021 C57.1025391,32.2345825 57.5909033,30.7817285 57.686291,29.8100988 L57.7026367,29.5059814 C57.7026367,29.0478762 57.7656805,28.6537903 57.891768,28.3237237 C58.2474594,28.4461492 58.5038618,28.5585956 58.6652832,28.6663818 Z" id="路径" fill="#A09D9F"></path>
                <path d="M57.6117296,30.3144026 L57.7702747,30.4607401 L57.7099535,31.0656229 C57.6411273,31.7849069 57.6187095,32.1552852 57.6427002,32.1767578 C57.6647179,32.1964645 57.7149604,31.9056138 57.9161987,31.3852539 C57.9647655,31.2596705 57.9984505,31.0251845 58.0172538,30.6817958 L58.2543915,30.894043 L58.5872265,30.894043 L58.2543915,31.6293872 L58.5872265,31.8692964 L57.427349,33.2435538 L57.427349,32.564896 L57.0666269,32.564896 L57.1466173,32.0314206 C57.3179322,31.5247553 57.5041431,30.8850167 57.6117296,30.3144026 Z" id="路径" fill="#936969"></path>
                <path d="M60.4136963,25.5075684 L60.6003426,25.5195194 L60.7709886,25.5494258 C61.4600418,25.7039617 62.8264657,26.4080539 64.2269287,29.5059814 C65.2578718,31.7865037 65.894333,33.9390235 66.1363123,35.963541 L66.2025146,36.6356201 L66.1174626,37.6880061 C66.1022221,37.8579362 66.086449,38.0251325 66.0701433,38.1895951 C64.8261578,38.0069193 64.2417211,37.6826408 64.3131104,37.2144775 C64.4406738,36.3779297 64.1607666,33.1623535 63.1646729,30.9696045 C62.1685791,28.7768555 60.3776855,26.9605713 60.0902906,26.7092285 C59.9459222,26.5829704 59.5951576,26.551848 59.0379966,26.6158612 L59.0754395,26.5625 C59.3023682,26.2252197 59.9866943,25.5075684 60.4136963,25.5075684 Z" id="路径" fill="#3B1117"></path>
                <path d="M60.4136963,25.5075684 L60.6003426,25.5195194 L60.7709886,25.5494258 C61.4069616,25.6920573 62.6199646,26.3028377 63.9041811,28.831822 C64.2926163,30.4947478 64.3680178,32.0279377 64.1352161,33.4350586 C64.1106916,33.5832917 64.0746875,33.7159619 64.0280757,33.8338317 C63.839124,32.8588425 63.5576273,31.8346339 63.1646729,30.9696045 C62.1685791,28.7768555 60.3776855,26.9605713 60.0902906,26.7092285 C59.9459222,26.5829704 59.5951576,26.551848 59.0379966,26.6158612 L59.0754395,26.5625 C59.3023682,26.2252197 59.9866943,25.5075684 60.4136963,25.5075684 Z" id="路径" fill="#7C343E"></path>
                <path d="M63.7391583,29.9770758 C64.7217754,32.0866139 65.2633628,34.5018016 65.3649201,37.2212961 C65.3690421,37.3316761 65.282903,37.4244984 65.172523,37.4286205 C65.062143,37.4327425 64.9693208,37.3466034 64.9651987,37.2362234 C64.865557,34.5680226 64.335679,32.2050528 63.3765643,30.1459711 C62.1982993,27.616405 60.9224101,26.4352022 59.4095433,26.1583146 C59.5167342,26.0461854 59.6379652,25.9312237 59.7625089,25.8300119 C61.2901432,26.2167825 62.5804691,27.4895361 63.7391583,29.9770758 Z" id="路径" fill="#934F4F"></path>
                <path d="M60.3935547,33.4350586 C60.6452679,33.4662428 60.7998089,33.4994459 60.8571777,33.534668 C61.4083023,33.8730353 62.1665013,34.4002163 63.1317749,35.1162109 C63.6402283,35.4227905 64.0166054,35.6440887 64.2609062,35.7801056 L64.9205606,36.116019 L66.2025146,36.6356201 L70.7320701,38.7303619 C71.5119545,39.0836059 72.0604283,39.3244337 72.3774915,39.4528454 L72.5718994,39.5280762 C73.3647461,39.8123779 76.1835938,41.1203613 76.4318848,41.1203613 C76.6801758,41.1203613 78.9589844,38.8653564 79.3380127,38.8653564 C79.717041,38.8653564 80.4456787,39.9989014 80.4456787,40.1837158 C80.4456787,40.3685303 80.1868896,40.3936768 80.4456787,40.6856689 C80.7044678,40.9776611 80.9711914,41.3812256 80.9420166,42.0695801 L81.014019,42.0618916 L80.9499512,42.1778564 C80.6262207,42.7661133 79.9805908,43.2325439 79.4954834,43.0721436 L78.8304534,42.8442428 C78.2841661,42.6694743 77.56604,42.4933675 76.880249,42.5819092 C75.8515625,42.7147217 73.3597412,46.890625 71.7033691,47.1295166 L70.8939644,47.2407177 C69.4182869,47.4172766 67.7859722,47.386995 66.6256104,45.6436768 L65.521244,43.9385278 C63.6400185,40.9949406 60.6247992,36.168457 60.3935547,35.8876953 C60.2023926,35.655599 58.793457,36.350708 56.166748,37.9730225 C55.5199382,38.3533576 55.0829671,38.8281207 54.855835,39.3973119 C54.5151367,40.2510986 52.6334229,43.0389404 50.7800293,44.2075195 C48.9811473,45.3417287 36.8889208,50.3616291 34.5885713,51.0177858 L33.949223,51.1787521 C31.908383,51.715561 27.535053,53.1659123 27.4942627,52.7589111 C27.4638128,52.4550853 28.3555394,51.2387627 29.021999,50.4021701 L29.0047607,50.4187012 C29.6230062,49.8515625 30.048584,49.5679932 30.2814941,49.5679932 C30.5173157,49.5679932 31.1665479,49.3815273 31.5636402,49.2603245 L31.8875732,49.1587402 C31.1872965,49.4464681 30.7647705,49.7333577 30.6199951,50.0194092 L30.315028,50.5969038 C30.1355095,50.9448853 29.9785156,51.2956085 30.0407715,51.4365234 C30.1071777,51.5868327 30.5546468,51.3644206 31.3831787,50.7692871 L30.6199951,50.1282349 C31.0905558,49.625651 31.4427389,49.3547363 31.6765442,49.3154907 C32.0272522,49.2566223 33.4188843,50.1976929 33.6239624,50.3558655 C33.7606812,50.4613139 35.3138428,49.9564616 38.2834473,48.8413086 C37.6429036,48.1605632 37.0400391,47.8114014 36.4748535,47.7938232 C36.9902344,46.8028564 38.4125977,46.7731934 39.7867432,47.7938232 C41.6610107,47.6190186 43.9406738,46.7978516 43.9281006,46.5780029 C43.9155273,46.3581543 42.7011719,45.460083 41.7042236,45.303833 C41.8089606,45.2213298 41.9236086,45.1519829 42.0461082,45.0946342 L42.3389893,45.0050049 C42.6039676,44.9339499 42.8864063,44.8887018 43.1863055,44.8692606 C44.1467197,44.8675651 45.1971314,45.2266403 45.7990723,45.6436768 C46.829834,45.541626 46.5541992,44.4057617 46.8179932,44.2075195 C46.9938558,44.0753581 47.6075846,44.1740316 48.6591797,44.50354 C49.3435872,44.0867106 49.5961507,43.8452555 49.4168701,43.7791748 C49.1778293,43.6910672 48.9832523,43.2766881 48.286071,43.1607766 L48,43.1325206 C47.8121649,43.1253963 47.7443065,43.0789917 47.7693856,43.0133748 L47.4923096,43.154541 C48.4775798,42.6193034 49.3616536,42.4516195 50.1445313,42.6514893 L50.2509128,42.4739229 C50.4287123,42.4956035 50.6063235,42.5306793 50.7800293,42.5819092 C51.8223322,42.1618319 52.520527,41.0033645 52.8860465,40.3310285 L53.548965,39.1253079 C54.1611746,38.0283209 55.1361654,36.2971517 55.3186035,36.0568848 L55.5123373,35.7975775 C55.6664342,35.6035106 55.824428,35.474714 56.1533203,35.487793 C56.4602865,35.5 56.912557,35.5799967 57.5101318,35.7277832 L57.8996582,35.0426025 L57.5101318,35.0426025 C57.3444417,34.3181559 57.3444417,33.9608154 57.5101318,33.9705811 C57.6758219,33.9803467 58.0447998,34.0690104 58.6170654,34.2365723 C58.9255963,33.9281001 59.202289,33.7186274 59.4471436,33.6081543 C59.6919981,33.4976812 60.0074685,33.4399826 60.3935547,33.4350586 Z" id="路径" fill="#3B1117"></path>
                <path d="M80.4456787,40.1837158 C80.4456787,40.3109258 80.3230714,40.3624893 80.331033,40.4774941 L79.0015034,41.3554838 L80.0023805,40.5487151 C80.0490187,40.5078124 80.0788038,40.4795176 80.0917358,40.4638304 C80.1831839,40.3529 80.0795238,39.9378527 79.902329,39.6678386 L79.8081665,39.5469971 C79.6175711,39.3459615 79.5348202,39.1323495 79.5731052,38.9654838 C79.9588551,39.2477105 80.4456787,40.0326501 80.4456787,40.1837158 Z" id="路径" fill="#7E4D54"></path>
                <path d="M60.3935547,33.4350586 C60.6452679,33.4662428 60.7998089,33.4994459 60.8571777,33.534668 C61.4083023,33.8730353 62.1665013,34.4002163 63.1317749,35.1162109 L64.2609062,35.7801056 L64.2609062,35.7801056 L64.9205606,36.116019 L66.2025146,36.6356201 L70.7320701,38.7303619 L72.2274393,39.3909292 L72.2274393,39.3909292 L73.0987238,39.73757 C73.9623632,40.098244 75.3658605,40.7310659 76.0495815,40.9970697 L75.3090729,41.84522 C74.3671264,42.9088877 73.6066916,43.703866 73.0267944,44.2314453 C71.9172974,45.2408445 70.8495483,45.631958 70.411499,45.6859131 C69.9734497,45.7398682 69.3091431,45.4662476 69.0288086,45.0863647 C68.7484741,44.7064819 69.7845459,45.4654541 70.4684448,45.3977661 C71.1523438,45.3300781 72.2855225,44.5618286 73.1014404,43.7615967 L73.4767307,43.3820621 C74.2682993,42.5610738 75.2443935,41.4359916 75.2997437,41.2203979 C75.3557088,41.0024089 74.4048899,40.7580135 73.2346882,40.3328744 L72.6818848,40.1232605 C72.3302307,39.9835281 71.9223175,39.8301449 71.4861298,39.6707568 L67.5526123,38.2805786 C66.1367188,37.7741699 65.4846191,37.7528076 65.5203857,38.0536421 L65.6664614,38.9961645 C65.790888,39.8942489 65.8764074,41.0156941 65.3650621,40.4638304 C64.5980441,39.6360349 62.1713257,35.2009277 61.8227146,34.6083667 C61.5800915,34.1959615 60.7265576,33.7078598 60.1981757,33.4412924 L60.3935547,33.4350586 Z" id="路径" fill="#6F4247"></path>
                <path d="M79.3380127,38.8653564 C79.4179721,38.8653564 79.5134904,38.9158033 79.6144445,38.9971478 C79.5503397,38.9880385 79.4866491,38.9946467 79.4235535,39.0142517 C79.1425501,39.1015646 78.623046,39.5244354 77.8650413,40.2828643 L77.3243713,40.8381958 L77.1156311,41.0482788 L76.5684356,41.0538538 C77.1283399,40.680837 78.9979228,38.8653564 79.3380127,38.8653564 Z" id="路径" fill="#D1B0B4"></path>
                <path d="M80.408905,40.6353149 C80.7148336,41.4385783 80.7730306,41.9515788 80.5834961,42.1743164 C80.2991943,42.5084229 79.7857666,42.6644287 79.4237671,42.5300293 C79.0617676,42.3956299 78.4190674,41.7881955 78.1730347,41.5644469 C77.927002,41.3406982 76.8916016,40.7363281 76.1872559,41.1679077 C75.4829102,41.5994873 74.8641968,42.861084 73.8691406,43.7572632 C72.8740845,44.6534424 71.0947266,46.1221924 70.1769409,46.1350098 C69.2591553,46.1478271 68.1514282,45.112915 67.5809937,44.5091553 C67.0105591,43.9053955 64.4516602,40.0550506 64.1313477,39.4972824 C63.8110352,38.9395142 62.5802002,36.6676636 62.3100586,36.0147095 C62.039917,35.3617554 61.5185547,34.0162354 61.2355957,33.8573608 C61.0469564,33.7514445 60.6522217,33.6549072 60.0513916,33.567749 C58.2992757,35.2500407 57.2303467,36.0603231 56.8446045,35.9985962 C56.2659912,35.9060059 56.1624756,35.6293335 55.9776001,36.0147095 C55.7927246,36.4000854 55.931855,36.6060181 55.7753147,36.9723511 C55.6709545,37.2165731 55.4509888,37.666748 55.1154175,38.322876 C54.2128296,39.1444429 53.6610311,39.653983 53.460022,39.8514963 C53.1585083,40.1477661 53.2508925,40.3833618 53.0834235,40.5507202 C52.9159546,40.7180786 52.4314575,41.1119385 52.1177979,41.1679077 C51.8041382,41.223877 51.7634888,41.2145996 51.7584839,41.7095947 C51.753479,42.2045898 49.4974976,43.7836914 49.2019043,43.609314 C48.906311,43.4349365 48.604126,43.2483521 48.1977539,43.3450317 C47.7913818,43.4417114 47.1363574,43.8670044 46.9702759,44.3301392 C46.8041943,44.7932739 45.7297363,46.3104858 44.9248047,46.4265137 C44.119873,46.5425415 43.6850586,46.085083 43.4768677,45.9290771 C43.2686768,45.7730713 42.6592293,45.406311 42.4672184,45.5340576 C42.2752075,45.6618042 41.4661255,46.4068604 41.2050171,46.7554321 C41.0309448,46.9878133 40.5324504,47.4961612 39.7095337,48.2804757 C38.6920776,48.597683 38.0385946,48.6586914 37.7490845,48.463501 C37.3148193,48.1707153 37.265686,47.6851196 36.9234009,47.6531372 C36.5811157,47.6211548 35.215271,48.5608537 34.8793945,49.1307991 C34.5435181,49.7007446 31.9024658,50.9990234 31.6744995,50.8075562 C31.4465332,50.6160889 30.8814087,50.0562744 30.7348633,50.0130615 C30.825887,49.8509115 30.87323,49.7021484 30.8768921,49.5667725 C30.3613485,50.0675456 30.0571493,50.5374349 29.9642944,50.9764404 C29.9063517,51.398112 29.8433838,51.7085978 29.7753906,51.9078979 C30.0882161,51.4015437 30.2486572,51.1575845 30.2567139,51.1760204 C30.2687988,51.2036743 30.4519043,50.2264404 30.5310669,50.1428223 C30.6705526,50.2602539 31.0516968,50.5838327 31.6744995,51.1135585 C33.3950806,50.4896351 34.3155111,50.1228027 34.435791,50.0130615 C34.6162109,49.8484497 36.6932373,47.9129028 36.7930298,47.9165039 C36.8928223,47.920105 37.6546021,48.7757568 37.8703003,48.8077393 C38.0859985,48.8397217 39.9804077,48.6545182 40.4168701,48.2804757 C40.6241508,48.1028389 40.7830167,47.6179111 41.0502319,47.3122559 C41.3456808,46.9743053 41.7407009,46.815965 41.7520142,46.6588658 C41.7735596,46.3596802 42.4053231,45.7132568 42.4672184,45.7306519 C42.5291138,45.7480469 43.9586792,46.5898874 44.4517212,46.6588658 C44.9447632,46.7278442 46.3085327,46.0372314 46.5142212,45.6391602 C46.7199097,45.2410889 47.1260986,44.5189209 47.3603516,44.3301392 C47.5946045,44.1413574 48.2530518,43.7145386 48.2963867,43.609314 C48.5315348,43.6866659 48.9576946,43.8293494 49.5748662,44.0373646 C50.9738893,42.9475047 51.8215332,42.2601819 52.1177979,41.9753963 C52.5621948,41.5482178 57.4960555,37.2946777 58.427349,36.4653931 C59.3586426,35.6361084 60.2514038,35.515564 60.7484131,36.7080688 C61.2454224,37.9005737 65.0126343,44.2630005 65.7866821,45.0667114 C66.56073,45.8704224 68.5650635,48.6358032 69.956665,47.9165039 C70.4344162,47.669561 71.6774593,47.4269543 72.6640625,46.6418457 C74.5512538,45.1400767 76.4678332,42.8220489 77.085083,42.8921509 C78.0250244,42.9989014 79.2653198,44.2232278 79.7940063,44.0373646 C80.3226929,43.8515015 81.1856689,42.6543579 81.1840075,42.4143066 C81.1817627,42.1742554 81.0529899,41.1057434 80.9470215,40.9321289 C80.8763759,40.8163859 80.6970037,40.7174479 80.408905,40.6353149 Z" id="路径-511" fill="#6B2727"></path>
                <path d="M60.1387939,33.2532959 C60.9269926,33.4098088 61.2379353,34.5782846 61.8605459,36.0262977 L62.0201416,36.4008789 C62.6827718,37.9665365 64.4536442,41.0510026 65.3062203,42.3517114 L65.4741211,42.6019287 C66.2359619,43.7044678 68.1455078,46.2313232 68.9595947,46.4874268 C69.7736816,46.7435303 70.6108398,46.8167725 72.361084,45.5720215 C74.1113281,44.3272705 75.4940186,42.3873291 75.7697754,42.0603027 C76.0455322,41.7332764 76.9138184,41.2921143 77.4868164,41.7541504 L78.1056699,42.2763197 L78.7628257,42.8413725 C78.89878,42.9545438 79.0048218,43.0371007 79.0614624,43.0675659 C79.2416826,43.1645008 80.0678666,43.2159873 80.5579949,42.69472 L80.8061689,42.3729242 L80.8052979,42.3959961 C81.3723145,42.3095703 81.6287842,42.4785156 81.6755371,42.598999 C81.72229,42.7194824 81.6175537,43.2285156 81.786499,43.3934326 C81.9554443,43.5583496 82.5222168,45.2868652 82.3455811,46.4876709 L82.261539,46.9934291 C82.1450229,47.6219412 82.0855671,47.7181771 82.2735096,48.0015182 L82.6508871,48.5233211 C82.9151337,48.9042196 83.1764265,49.3628802 83.2283936,49.8944092 C83.4951529,50.3042424 84.2909268,52.1879119 84.6064724,53.055549 L84.6277279,53.5569899 L84.6304321,53.7393188 C84.6324463,54.3199392 84.8949585,56.5686646 84.4664307,57.6876221 C84.0379028,58.8065796 82.6412354,59.163208 79.6789551,58.1535645 L78.4064941,57.8737793 L77.3676758,57.4333496 C74.7754917,56.5963631 71.5913086,56.1125183 68.8308105,56.9016113 C65.1501465,57.9537354 55.2020264,62.6738281 48.7075195,63.1164551 C42.2130127,63.559082 35.2697754,62.7373047 30.2375488,59.8376465 C25.2053223,56.9379883 22.7032471,56.5985107 22.0683594,55.3630371 C21.8198076,54.8793623 21.612481,54.356076 21.4463797,53.793178 L22.0309718,53.6420949 C23.1707058,53.3606281 24.6923828,52.8560791 24.6923828,52.8560791 L24.7101253,52.8379698 L25.0532227,53.3044434 L25.8856126,52.7285704 L26.2042236,52.4946289 C26.4155484,52.326677 33.2459789,50.2221308 35.1982067,49.5646328 L36.7340082,49.0125553 L38.9652337,48.1675548 C41.2208641,47.2985356 43.8599737,46.240096 45.2741699,45.5720215 L46.0398945,45.2010386 L46.8869443,44.7737383 C49.2264404,43.5730859 52.1005615,41.9385742 52.8465576,41.2050781 C53.7168864,40.3493327 55.9267399,37.6924544 56.6773334,36.6079714 L56.8148193,36.4008789 C57.3803711,35.4980469 59.2849121,33.0837402 60.1387939,33.2532959 Z M58.75,38.5861816 C58.4475098,38.8640137 57.8957926,39.6688639 57.0948486,41.0007324 L54.5464172,43.3865356 C54.001443,43.8905814 53.6134538,44.242388 53.3824494,44.4419556 L53.2800293,44.5290527 C52.9179752,44.8306114 51.6561475,45.4730373 50.1686578,46.2018511 L46.8244629,47.8311768 C44.3040771,49.074585 37.8758545,51.2647705 36.9462891,51.5749512 L31.2993773,53.3014191 C30.3640837,53.5921927 29.6204379,53.8325052 29.3781738,53.935791 C28.8633626,54.1552734 28.2246501,54.5222575 27.6815186,55.1524658 C28.2089166,55.4407145 28.5716417,55.7602991 29.09611,56.0260145 L30.2888997,56.6214618 L33.545273,58.3168858 C35.2623511,59.1961628 37.1907723,60.1404904 38.5513916,60.6436768 C41.2121582,61.6276855 45.9541016,61.833252 48.6286621,61.4088135 C51.3032227,60.984375 58.4460449,58.4373779 61.5010986,57.2769775 L62.2517053,56.9815105 L63.0455311,56.6531199 C66.2024907,55.3240738 70.5373092,53.2652252 71.472168,53.1563987 C72.4262207,53.0453378 74.6949929,53.9433391 76.3631819,54.6436013 L77.8761365,55.278622 L81.7970658,56.8390078 C82.4387628,57.0864752 82.8992476,57.2578291 82.9846191,57.2769775 C83.2529297,57.3371582 83.8441162,55.4099121 83.7485352,53.9205322 C83.6529541,52.4311523 82.4688721,50.1360282 81.595459,48.7685547 C80.7220459,47.4010811 78.2509766,44.9371338 77.3746338,44.7907715 C76.5956624,44.6606717 74.7178292,46.561436 73.5291142,47.8690077 L73.1191406,48.326416 C72.0070801,49.5844727 71.1761475,50.3122559 68.8813477,50.2537842 C66.5865479,50.1953125 65.3355713,47.529541 64.5637207,46.1608506 L64.1081916,45.3818762 L63.3858061,44.1979946 C62.6022053,42.9284561 61.6745758,41.4537811 60.9594727,40.2404785 C59.8153076,38.2991943 59.2037354,38.1694336 58.75,38.5861816 Z" id="形状" fill="#3C414C"></path>
                <path d="M60.1387939,33.2532959 C60.9269926,33.4098088 61.374654,34.2518686 61.9972646,35.6998817 L62.1568604,36.0744629 C62.8194906,37.6401204 64.590363,40.7245866 65.4429391,42.0252954 L65.6108398,42.2755127 C66.3726807,43.3780518 68.2822266,45.9049072 69.0963135,46.1610107 C69.9104004,46.4171143 70.7475586,46.4903564 72.4978027,45.2456055 C74.2480469,44.0008545 75.6307373,42.0609131 75.9064941,41.7338867 C76.182251,41.4068604 77.0505371,40.9656982 77.6235352,41.4277344 L78.2423887,41.9499037 L78.8995445,42.5149565 C79.0354988,42.6281277 79.1415405,42.7106846 79.1981812,42.7411499 C79.3784013,42.8380848 80.2045853,42.8895713 80.6947137,42.368304 L80.9428876,42.0465082 L80.9420166,42.0695801 C81.5090332,41.9831543 81.7655029,42.1520996 81.8122559,42.272583 C81.8590088,42.3930664 81.7542725,42.9020996 81.9232178,43.0670166 C82.0921631,43.2319336 82.6589355,44.9604492 82.4822998,46.1612549 L82.3982578,46.6670131 C82.2817417,47.2955252 82.2222858,47.3917611 82.4102283,47.6751022 L82.7876058,48.1969051 C83.0518525,48.5778036 83.3131452,49.0364641 83.3651123,49.5679932 C83.6318716,49.9778264 84.4276456,51.8614958 84.7431911,52.7291329 L84.7644466,53.2305739 L84.7671509,53.4129028 C84.769165,53.9935232 85.1222534,56.6499634 84.6937256,57.7689209 C84.2651978,58.8878784 82.8685303,59.2445068 79.90625,58.2348633 L78.4980506,57.7493799 L77.4862041,57.4118462 C74.8940201,56.5748596 71.8186035,56.1938171 69.0581055,56.9829102 C65.3774414,58.0350342 55.4293213,62.755127 48.9348145,63.1977539 C42.4403076,63.6403809 35.3240967,62.9145508 30.2918701,60.0148926 C25.2596436,57.1152344 22.2871094,56.2192383 21.6522217,54.9837646 C21.4036699,54.5000899 21.1963433,53.9768035 21.030242,53.4139056 L21.6148341,53.2628224 C22.7545681,52.9813557 24.8291016,52.5296631 24.8291016,52.5296631 L24.846844,52.5115538 L25.1899414,52.9780273 L26.0223314,52.4021544 L26.3409424,52.1682129 C26.5522671,52.000261 33.3826977,49.8957148 35.3349254,49.2382168 L36.870727,48.6861392 L39.1019525,47.8411388 C41.3575829,46.9721196 43.9966925,45.91368 45.4108887,45.2456055 L46.1766133,44.8746226 L47.0236631,44.4473223 C49.3631592,43.2466699 52.2372803,41.6121582 52.9832764,40.8786621 C53.8536051,40.0229167 56.0634587,37.3660384 56.8140522,36.2815554 L56.9515381,36.0744629 C57.5170898,35.1716309 59.2849121,33.0837402 60.1387939,33.2532959 Z M58.6137695,38.2445068 C58.3112793,38.5223389 57.7595622,39.3271891 56.9586182,40.6590576 L54.4101868,43.0448608 C53.8652126,43.5489066 53.4772233,43.9007132 53.2462189,44.1002808 L53.1437988,44.1873779 C52.7817447,44.4889366 51.5199171,45.1313625 50.0324273,45.8601763 L46.6882324,47.489502 C44.1678467,48.7329102 37.739624,50.9230957 36.8100586,51.2332764 L31.1631469,52.9597443 C30.2278532,53.2505179 29.4842075,53.4908304 29.2419434,53.5941162 C28.7271322,53.8135986 28.1981608,54.238444 27.6550293,54.8686523 C28.1824273,55.156901 28.7083605,55.4338831 29.2328288,55.6995985 L30.4256185,56.2950458 L33.6819918,57.9904698 C35.3990699,58.8697468 37.3274911,59.8140744 38.6881104,60.3172607 C41.348877,61.3012695 46.0908203,61.5068359 48.7653809,61.0823975 C51.4399414,60.657959 58.5827637,58.1109619 61.6378174,56.9505615 L62.3884241,56.6550945 L63.1822498,56.3267039 C66.3392095,54.9976578 70.6740279,52.9388092 71.6088867,52.8299827 C72.5629395,52.7189218 74.8317117,53.616923 76.4999007,54.3171853 L78.0128552,54.952206 L81.9337845,56.5125918 C82.5754816,56.7600592 83.0359664,56.9314131 83.1213379,56.9505615 C83.3896484,57.0107422 83.980835,55.0834961 83.8852539,53.5941162 C83.7896729,52.1047363 82.6055908,49.8096122 81.7321777,48.4421387 C80.8587646,47.0746651 78.3876953,44.6107178 77.5113525,44.4643555 C76.7323812,44.3342556 74.8545479,46.23502 73.6658329,47.5425917 L73.2558594,48 C72.1437988,49.2580566 71.3128662,49.9858398 69.0180664,49.9273682 C66.7232666,49.8688965 65.47229,47.203125 64.7004395,45.8344346 L64.2449103,45.0554602 L63.5225248,43.8715786 C62.738924,42.6020401 61.8112946,41.1273651 61.0961914,39.9140625 C59.9520264,37.9727783 59.0675049,37.8277588 58.6137695,38.2445068 Z" id="形状" fill="#ECEEF2"></path>
                <path d="M80.9428876,42.0465082 L80.9420166,42.0695801 C81.5090332,41.9831543 81.7655029,42.1520996 81.8122559,42.272583 C81.8590088,42.3930664 81.7542725,42.9020996 81.9232178,43.0670166 C82.0921631,43.2319336 82.6589355,44.9604492 82.4822998,46.1612549 L82.3982578,46.6670131 L82.3012868,47.1874713 C82.2719402,47.3940138 82.2927642,47.498014 82.4102283,47.6751022 L82.5730217,47.9088443 C82.374303,47.9566146 82.2335074,47.9041344 82.1506348,47.7514038 L80.1805363,44.1856882 C79.932104,43.7403815 79.69032,43.3091814 79.4757737,42.9300684 L79.4057932,42.7935587 C79.7320339,42.832375 80.3144929,42.772681 80.6947137,42.368304 L80.9428876,42.0465082 Z" id="路径" fill="#D2D5DC"></path>
                <path d="M30.3555501,56.4963131 L33.6119234,58.1917371 L34.7794019,58.782004 C36.158038,59.4689305 37.5597825,60.1271609 38.618042,60.5185281 C41.2788086,61.5025369 46.020752,61.7081033 48.6953125,61.2836648 C51.369873,60.8592263 58.5126953,58.3122292 61.567749,57.1518288 L62.3183557,56.8563618 L63.1121815,56.5279712 L66.0615361,55.2452958 C68.5085525,54.1638174 70.8766267,53.1083355 71.5388184,53.03125 C71.8496626,52.9950647 72.3000711,53.0659966 72.8237994,53.2023061 C72.3943879,53.3206543 72.0904455,53.4316933 71.7545166,53.6228027 C69.8553467,54.7032375 75.8693848,55.6364746 78.9458008,57.4483913 C79.6054611,57.8369115 79.6137956,58.1190307 79.1667655,58.3373854 L78.4526405,58.0917871 L77.440794,57.7542534 C74.8486099,56.9172668 71.8186035,56.1938171 69.0581055,56.9829102 C65.8365807,57.9037884 57.8137225,61.6346012 51.507614,62.8478478 L50.275203,62.9845408 C46.4161658,63.3849444 43.0219288,63.4649735 41.5351563,62.8818359 C39.3449668,62.0228062 36.0349083,60.3449587 31.7451173,57.4457586 L30.3555501,56.4963131 Z M82.1074724,48.7260353 C82.5073993,49.1738788 82.9506774,49.556313 83.6074926,50.0304499 C83.9588095,50.7575621 84.4970748,52.0524014 84.7431911,52.7291329 L84.7644466,53.2305739 L84.7671509,53.4129028 C84.7689689,53.9369928 85.0568265,56.1523676 84.7977104,57.4017004 C84.4724412,57.7361043 84.1547065,57.9539154 83.9116307,58.0011506 C83.339606,58.1123083 83.3853553,57.7024086 83.3688965,56.9794922 C83.656385,56.7848437 84.1604955,55.0229295 84.0716848,53.6390473 C83.9761038,52.1496674 82.7920217,49.8545433 81.9186086,48.4870698 L82.1074724,48.7260353 Z" id="形状" fill="#D8DBDE"></path>
                <path d="M23.9316116,55.7449573 C27.3636708,57.6990907 35.0174458,60.8761394 39.2836326,61.9536385 C43.8503574,63.1070436 50.5591989,62.2691546 56.9520339,59.8732922 L58.0470974,59.4537877 L59.2215789,58.9865094 L62.7079436,57.56687 L63.8664901,57.1028755 C68.9923049,55.0728004 70.2984261,54.8994899 72.4302657,55.0502435 L72.8620744,55.0840338 C74.8221904,55.2526936 76.477984,55.594231 78.3705565,56.359138 L81.0969057,57.5251658 L81.509588,57.6944919 C82.3392641,58.0455452 83.2165013,58.2442265 83.7824707,57.9526367 C84.5760061,57.543804 85.1464476,56.5970516 85.0681869,54.2952148 C85.1546999,54.9401705 85.2412676,55.7214774 85.3041412,56.4500783 C85.1853927,57.8307641 84.8299579,58.6785953 84.1996509,59.0773818 C83.5262623,59.5034254 82.4839178,59.4262737 81.5247853,59.075566 L81.1102652,58.9082274 C80.6783285,58.7210782 78.8553007,57.9330856 78.0790321,57.6193468 C76.2722451,56.8891111 74.710045,56.5726496 72.8595363,56.4134211 L72.488847,56.3848961 C70.4998395,56.2529058 69.2221101,56.40099 64.1240247,58.4417151 L59.0722875,60.4902366 L57.9333864,60.9353716 C57.7493025,61.0058947 57.5672912,61.0748777 57.3861619,61.1427601 C50.8188561,63.6040094 43.9134757,64.4664449 39.121946,63.2562614 C34.7644354,62.1556969 27.1133792,58.8749794 23.5875244,56.8797607 C21.835547,55.8883478 21.0631691,54.7985758 21.0964633,53.3961609 L22.1128235,53.1482239 C22.1410828,54.1827698 22.5918093,54.9821055 23.9316116,55.7449573 Z" id="路径" fill="#F4F4F4"></path>
                <path d="M24.0148026,56.0780262 C27.466384,58.0312149 35.1006367,61.2092083 39.3668236,62.2867074 C43.9335483,63.4401125 50.6423898,62.6022234 57.0352248,60.206361 L58.1302883,59.7868565 L59.3047698,59.3195782 L62.7911345,57.8999389 L63.949681,57.4359444 C69.0754958,55.4058692 70.381617,55.2325587 72.5134566,55.3833124 L72.9452654,55.4171026 C74.9053814,55.5857624 76.5611749,55.9272998 78.4537474,56.6922069 L81.1800966,57.8582347 L81.5927789,58.0275607 C82.422455,58.378614 83.2996922,58.5772953 83.8656616,58.2857056 C84.659197,57.8768729 84.8872207,56.3515804 84.80896,54.0497437 C84.8954729,54.6946993 85.2412676,55.7214774 85.3041412,56.4500783 C85.1853927,57.8307641 84.8299579,58.6785953 84.1996509,59.0773818 C83.5262623,59.5034254 82.4839178,59.4262737 81.5247853,59.075566 L81.1102652,58.9082274 C80.6783285,58.7210782 78.8553007,57.9330856 78.0790321,57.6193468 C76.2722451,56.8891111 74.710045,56.5726496 72.8595363,56.4134211 L72.488847,56.3848961 C70.4998395,56.2529058 69.2221101,56.40099 64.1240247,58.4417151 L59.0722875,60.4902366 L57.9333864,60.9353716 C57.7493025,61.0058947 57.5672912,61.0748777 57.3861619,61.1427601 C50.8188561,63.6040094 43.9134757,64.4664449 39.121946,63.2562614 C34.7644354,62.1556969 27.1133792,58.8749794 23.5875244,56.8797607 C21.835547,55.8883478 21.0631691,54.7985758 21.0964633,53.3961609 L21.8431514,53.2071438 C21.8356802,54.2989243 22.5364041,55.2414267 24.0148026,56.0780262 Z" id="路径" fill="#DEE1E4"></path>
                <path d="M84.8258057,53.9730835 C84.9123186,54.6180392 85.2412676,55.7214774 85.3041412,56.4500783 C85.1853927,57.8307641 84.8299579,58.6785953 84.1996509,59.0773818 C83.5262623,59.5034254 82.4839178,59.4262737 81.5247853,59.075566 L81.1102652,58.9082274 L78.3148628,57.7158625 C78.2288227,57.6803097 78.149602,57.6478685 78.0790321,57.6193468 C76.2722451,56.8891111 74.710045,56.5726496 72.8595363,56.4134211 L72.488847,56.3848961 C70.4998395,56.2529058 69.2221101,56.40099 64.1240247,58.4417151 L59.0722875,60.4902366 L57.6586662,61.0400561 L57.3861619,61.1427601 C50.8188561,63.6040094 43.9134757,64.4664449 39.121946,63.2562614 C36.9837047,62.7162117 34.0524142,61.6512052 31.2046417,60.4707287 L33.7231611,60.8001125 C34.2470964,60.8663868 34.7472123,60.9280433 35.2235174,60.9850755 L36.5085333,61.4301519 C37.5534104,61.7801028 38.5255954,62.0742407 39.3668236,62.2867074 C43.9335483,63.4401125 50.6423898,62.6022234 57.0352248,60.206361 L58.1302883,59.7868565 L59.3047698,59.3195782 L62.7911345,57.8999389 L63.949681,57.4359444 C69.0754958,55.4058692 70.381617,55.2325587 72.5134566,55.3833124 L72.9452654,55.4171026 C74.9053814,55.5857624 76.5611749,55.9272998 78.4537474,56.6922069 L81.1800966,57.8582347 L81.5927789,58.0275607 C82.422455,58.378614 83.2996922,58.5772953 83.8656616,58.2857056 C84.659197,57.8768729 84.9040664,56.2749203 84.8258057,53.9730835 Z" id="路径" fill="#CCD1D4"></path>
                <path d="M82.5142379,45.7836795 L82.4920858,45.8083903 C82.4125366,45.8979899 82.3423598,45.9413723 82.2815552,45.9385376 C82.0079346,45.9257813 81.6611328,44.6958008 81.5950422,44.5040283 C81.5399667,44.3442179 81.5876119,44.1504144 81.7187227,44.0837532 L81.807251,44.0603027 C81.9012159,44.0549316 82.0335975,43.9562362 82.2043956,43.7642164 C82.373421,44.3078815 82.5347918,45.0916266 82.5142379,45.7836795 Z" id="路径" fill="#A77B55"></path>
                <path d="M82.3537378,47.5906091 L82.7876058,48.1969051 C83.0518525,48.5778036 83.3131452,49.0364641 83.3651123,49.5679932 C83.2102524,49.5661553 83.1140343,49.5370698 83.0788574,49.4915771 L82.9279571,49.2656225 C82.6881284,48.8868574 82.278083,48.185045 82.2543945,48 C82.2440973,47.9195621 82.2772117,47.7830984 82.3537378,47.5906091 Z" id="路径" fill="#523C3C"></path>
                <path d="M84.9058122,65.0158691 C85.6084153,66.0174154 85.7051595,66.8613688 85.1960449,67.5477295 C84.432373,68.5772705 79.7092285,69.6577148 76.2666016,70.1364746 C72.8239746,70.6152344 50.2038808,70.5410156 49.25581,70.6245117 C48.3077393,70.7080078 47.3435059,70.9562988 46.0467529,70.6245117 C44.75,70.2927246 44.2290039,69.7817383 42.3931885,69.7834473 C40.557373,69.7851562 34.8470459,70.2009277 29.8275146,69.5880127 C24.8079834,68.9750977 18.9141846,67.4755859 17.2565918,67.0407715 C15.598999,66.605957 13.9445801,64.833252 13.8122559,64.65271 C14.7254639,64.894043 25.5522461,67.2644043 31.8365479,67.3170166 C38.1208496,67.3696289 44.9619141,67.0429687 51.2579346,66.5223389 C57.5539551,66.001709 78.3481445,64.939209 80.4696045,64.9309082 C81.8839111,64.9253743 83.362647,64.9536947 84.9058122,65.0158691 Z" id="路径-494" fill="#2D0002"></path>
                <path d="M17.2629542,65.3939481 L18.8493286,65.6999809 L20.9116199,66.2062122 C21.3902439,66.3231277 21.8731095,66.4386804 22.3326416,66.5419922 C24.5934412,67.0502642 29.6394917,67.5227448 32.7290874,67.6940069 L33.2843018,67.7225238 C35.172011,67.8110636 39.8664785,67.6726924 43.1652758,67.5573834 L46.6840641,67.428707 C46.9549174,67.4275613 42.662899,68.1286344 38.2555565,68.3620779 L37.3435059,68.4033203 C32.6378174,68.5779665 29.0725098,68.2697754 28.513916,68.1252107 C28.1415202,68.0288342 27.8552246,68.2090922 27.6550293,68.6659845 C27.869873,68.6774799 28.5766602,68.6492155 29.7753906,68.5811915 C31.5734863,68.4791554 34.7701416,68.9179688 36.9626465,69.2330322 C39.1551514,69.5480957 42.4991455,69.3063766 43.6298828,69.114624 C44.7606201,68.9228714 45.6378174,69.2232666 46.6840641,69.2330322 L55.8970493,68.6853581 C56.5870495,68.6483003 57.2191397,68.6171802 57.7509642,68.595565 L59.9946971,68.5333297 C64.2585795,68.4408873 72.9076833,68.3046122 77.5423853,67.9647552 L78.0404053,67.9261475 C83.3275146,67.4920677 84.387207,66.9382324 84.9058122,66.7011393 C85.1474922,66.5906492 85.3173704,66.3572194 85.4154468,66.0008498 C85.6028543,66.5824037 85.5290578,67.0987796 85.1960449,67.5477295 C84.432373,68.5772705 79.7092285,69.6577148 76.2666016,70.1364746 C72.8239746,70.6152344 50.2038808,70.5410156 49.25581,70.6245117 C48.3077393,70.7080078 47.3435059,70.9562988 46.0467529,70.6245117 C44.75,70.2927246 44.2290039,69.7817383 42.3931885,69.7834473 L41.2873996,69.8083834 C38.8166995,69.8887383 34.0748103,70.1066331 29.8275146,69.5880127 L28.6997491,69.4380083 C23.9580719,68.7587897 22.7736777,68.4243281 20.8029175,68.0330811 C19.5110474,67.7766113 15.8291008,66.4179003 15.2376528,65.9682842 C16.2567009,66.3720089 17.5295019,66.8081966 18.3076172,67.003418 L18.8554442,67.1346605 C20.3939412,67.4900449 23.0507382,68.0157168 23.4807129,67.9399414 C23.9680176,67.8540627 21.0185547,67.065918 19.9505615,66.8145752 C18.8825684,66.5632324 17.4135742,65.8168945 17.1522217,65.472168 C17.1105568,65.4172116 17.1527869,65.3932419 17.2629542,65.3939481 Z" id="路径" fill="#774346"></path>
                <path d="M84.9058122,62.7211914 C85.5300868,63.882487 85.8311564,64.5344645 85.809021,64.677124 C85.7758179,64.8911133 85.5877686,65.3417969 85.0669556,65.4121704 C84.5461426,65.4825439 79.430603,65.8876953 74.550354,66.0018921 C69.670105,66.1160889 61.0117144,66.4053955 54.9903542,66.8145752 C48.9689941,67.2237549 45.1844482,67.6040039 43.8637695,67.8251953 C42.5430908,68.0463867 34.3096924,68.4251709 27.973999,67.7094727 C23.7502035,67.2323405 19.1051839,66.3382975 14.0389404,65.0273438 L13.0693359,63.5100098 C20.2552083,65.0383913 25.1171061,65.922155 27.6550293,66.1613008 C31.4619141,66.5200195 41.8157959,66.4003906 44.2207031,66.2393799 C46.6256104,66.0783691 53.2867432,64.9759521 57.9528809,64.677124 C62.6190186,64.3782959 76.8812256,63.5566406 78.9073486,63.5100098 C80.2580973,63.4789225 82.2575852,63.2159831 84.9058122,62.7211914 Z" id="路径-493" fill="#DDDCE7"></path>
                <path d="M84.9058122,62.7211914 L85.3444622,63.5576929 C85.6702665,64.2002279 85.8251195,64.5733717 85.809021,64.677124 C85.7758179,64.8911133 85.5877686,65.3417969 85.0669556,65.4121704 L84.826882,65.4380159 L84.826882,65.4380159 C84.6375998,64.8232878 84.2244991,64.5324701 83.5845905,64.5626979 L76.5011292,64.7516951 L76.5011292,64.7516951 L73.7285563,64.8465524 C70.901325,64.9240888 65.8783229,64.9841491 58.6595501,65.0267334 L63.7178716,64.3267305 L63.7178716,64.3267305 L75.9458752,63.6435686 C77.2401483,63.5772381 78.2356056,63.5305874 78.7528803,63.5142998 L78.9073486,63.5100098 C80.2580973,63.4789225 82.2575852,63.2159831 84.9058122,62.7211914 Z" id="路径" fill="#C8C8D4"></path>
                <path d="M58.1722699,64.6674758 C57.3349872,65.407861 56.4686446,65.89297 55.5732422,66.1228027 C54.1857605,66.4789429 51.3601856,66.8355122 48.3212285,66.9805323 L46.7676144,67.0389617 C43.168257,67.1507382 36.6737644,67.2326848 34.5402832,66.7765827 C34.1065318,66.683854 34.4108761,66.5563831 35.4533162,66.39417 L38.9029929,66.3800618 C41.2861421,66.3546709 43.3159506,66.2999539 44.2207031,66.2393799 C46.6256104,66.0783691 53.2867432,64.9759521 57.9528809,64.677124 L58.1722699,64.6674758 Z" id="路径" fill="#C8C9D1"></path>
                <path d="M84.9058122,62.7211914 L85.2390749,63.3519816 C85.534207,63.9226841 85.7149473,64.313124 85.7812958,64.5233012 L85.5716441,64.2527792 C85.1815319,63.7843356 84.844174,63.5875271 84.5595703,63.6623535 L84.150347,63.75007 C83.6943418,63.827048 82.9087955,63.9031293 81.1254055,63.9923061 L76.1029032,64.2059607 C72.0342472,64.4018174 68.2696094,64.7021374 66.2787351,64.8251773 L64.3992961,64.9451726 C61.3323052,65.1566571 55.8424019,65.5858526 53.3508301,65.8637695 L51.2454664,66.092279 C48.0098285,66.4350834 43.3829431,66.8894679 41.2371781,66.9643948 L38.0389583,67.0261207 C35.2540802,67.0557654 31.1875271,66.9876393 25.9754639,66.3233643 C21.0909282,65.7008325 16.8284673,64.8261341 13.1880813,63.6992689 L13.0693359,63.5100098 L16.3400734,64.1941263 C21.4938339,65.2518093 25.1602505,65.896937 27.3393234,66.1295091 L27.6550293,66.1613008 C31.4619141,66.5200195 41.8157959,66.4003906 44.2207031,66.2393799 C46.4252014,66.0917867 52.2061115,65.1531508 56.7484016,64.7675627 L57.9528809,64.677124 C62.1524048,64.4081787 74.1247449,63.7157434 77.9542614,63.5459519 L78.9073486,63.5100098 C80.2580973,63.4789225 82.2575852,63.2159831 84.9058122,62.7211914 Z" id="路径" fill="#9797A3"></path>
                <path d="M85.4012425,57.4502563 C85.4117432,57.5037842 86.0050659,57.7192383 86.0003896,58 C85.9949341,58.2807617 85.9198295,60.6705799 85.7006374,61.2914972 C85.4814453,61.9124146 85.0126953,62.8926392 84.5802002,63.0998535 C84.1477051,63.3070679 81.6572876,63.7293701 76.6420288,64.0011597 C71.62677,64.2729492 60.515625,64.9833984 57.4101563,65.1541748 C54.3046875,65.3249512 47.918335,66.1705322 46.3417969,66.3709717 C44.7652588,66.5714111 41.0313721,66.8145752 36.0008545,66.8145752 C30.9703369,66.8145752 27.5489502,66.4700928 21.909668,65.5444336 C18.1501465,64.9273275 15.2773031,64.2774251 13.2911377,63.5947266 L12.5112305,62.1324158 C17.0343083,63.271759 21.0887025,64.1097005 24.6744129,64.6462402 C30.0529785,65.4510498 40.793335,65.5515137 44.6019287,65.1541748 C48.4105225,64.7568359 53.3554688,63.7278725 58.5565186,62.2325439 C63.7575684,60.7372154 68.1031494,58.5341797 71.1843262,58.8442383 C74.2655029,59.1542969 76.0249023,60.5516357 78.043335,61.1088867 C80.0617676,61.6661377 83.7022705,62.3337402 84.6960449,60.4158936 C85.6898193,58.4980469 85.3907419,57.3967285 85.4012425,57.4502563 Z" id="路径-491" fill="#D2D2DB"></path>
                <path d="M71.1843262,58.8442383 C73.2985596,59.0569934 74.7904483,59.7816828 76.1707195,60.3956138 L75.0900605,60.1470365 C72.6927352,59.6089755 71.1648171,59.3645277 70.5046387,59.412499 L69.7674243,59.4716118 C68.5665364,59.5846591 66.7719016,59.860229 64.3274218,60.8528109 L63.7517498,61.0948486 C60.4239502,62.5413818 54.5817871,63.9600908 52.6738281,64.3284341 L51.3210426,64.56663 C48.6727252,65.0041033 43.9009519,65.6686253 41.0238931,65.7120643 L39.2426747,65.7288781 C35.5079181,65.7442532 29.8675476,65.6472534 25.5919189,65.105835 C22.34389,64.6945404 18.057382,63.840169 12.732395,62.5427208 L12.5112305,62.1324158 C17.0343083,63.271759 21.0887025,64.1097005 24.6744129,64.6462402 C30.0529785,65.4510498 40.793335,65.5515137 44.6019287,65.1541748 C48.4105225,64.7568359 53.3554688,63.7278725 58.5565186,62.2325439 C63.7575684,60.7372154 68.1031494,58.5341797 71.1843262,58.8442383 Z M86.0003896,58 L85.9589502,59.0392883 C85.9158466,59.8574117 85.8355248,60.9093942 85.7006374,61.2914972 C85.4814453,61.9124146 85.0126953,62.8926392 84.5802002,63.0998535 C84.4077647,63.1824697 83.9081998,63.2992765 83.0519132,63.427103 C83.4350173,63.2165256 84.3602394,63.0506926 84.6855469,62.739502 C85.4363918,62.0212402 85.9684605,60.1149902 85.810158,58.6687012 C85.7488665,58.1087277 85.6662793,57.736769 85.5623963,57.552825 C85.7382531,57.6531192 86.0035225,57.8119035 86.0003896,58 Z" id="形状" fill="#EDEDF1"></path>
                <path d="M67.5896805,59.2807074 L66.4130078,59.7790721 C65.1119206,60.342048 64.0501383,60.8461897 63.2276611,61.2914972 C61.46521,62.2457275 58.9696045,63.9510498 57.5203857,64.9844971 C57.4352143,65.0452334 57.322389,65.1066233 57.1850577,65.1683326 L56.1076162,65.2472694 C54.3662829,65.3934105 52.1481873,65.6466475 50.2323165,65.8798933 L46.3417969,66.3709717 C45.1432393,66.5233551 42.6977885,66.7004322 39.3836469,66.7765827 L35.5018452,66.6503208 C34.322373,66.5983043 33.5271904,66.5361768 33.5450421,66.4526367 C33.6072998,66.1704102 42.5957031,66.1291504 44.6605225,65.9313965 L45.0164627,65.8931043 C45.6857653,65.8097288 45.2618975,65.7671438 44.4883045,65.743908 L41.3713569,65.698352 C40.4553471,65.6665278 39.4652089,65.5759199 39.7175645,65.371095 L40.8948302,65.3500623 C42.4111642,65.3143545 43.7006404,65.2482034 44.6019287,65.1541748 C48.4105225,64.7568359 53.3554688,63.7278725 58.5565186,62.2325439 C61.9761203,61.2493908 65.0259168,59.9603074 67.5896805,59.2807074 Z" id="路径" fill="#C8C9D1"></path>
                <path d="M53.9660645,63.9311523 L53.1073829,64.1311768 C52.0139369,64.3775563 47.3364512,65.449778 40.0892334,65.527832 C35.3441128,65.578938 35.4996948,65.4886475 34.1477661,65.4447632 C32.7958374,65.4008789 28.2003784,65.1246948 26.9050903,64.8833008 C32.0459073,65.3588815 38.5683594,65.3919678 39.5987549,65.381958 C40.6291504,65.3719482 44.1405951,65.2023043 44.6019287,65.1541748 C48.4105225,64.7568359 53.3554687,63.7278725 58.5565186,62.2325439 C61.0121183,61.5265464 63.277024,60.6627925 65.3081973,59.9802542 C63.5251878,61.0606049 56.5632315,63.3053605 53.9660645,63.9311523 Z" id="路径" fill="#9A9DAB"></path>
                <path d="M85.4012425,57.4502563 C85.4081685,57.4855619 85.6686445,57.5913117 85.8438454,57.7397818 C85.781764,59.0818911 85.3833431,61.0672133 84.5153809,61.9887695 C83.3805513,63.1936713 81.2860107,63.3325195 79.338623,62.7556152 C77.3912354,62.1787109 75.3050537,60.760498 74.4731445,60.3997803 C73.9208955,60.1603238 72.6152175,59.3383397 71.2891254,58.8555944 L71.1843262,58.8442383 C74.2655029,59.1542969 76.0249023,60.5516357 78.043335,61.1088867 C80.0617676,61.6661377 83.7022705,62.3337402 84.6960449,60.4158936 C85.6898193,58.4980469 85.3907419,57.3967285 85.4012425,57.4502563 Z" id="形状结合" fill="#C8C9D1"></path>
                <path d="M85.4012425,57.4502563 L85.4250125,57.4703913 L85.4426376,57.8083594 C85.461853,58.4632378 85.421936,59.8319397 84.8189697,60.6761475 C84.0150146,61.8017578 83.1798096,62.1447754 81.7666016,62.112854 C80.3533936,62.0809326 78.9130859,61.8525391 77.0789795,61.0202637 C75.901269,60.4858457 74.8508967,59.9033565 74.0510125,59.5039947 C75.5562902,60.0458543 76.7463343,60.7508094 78.043335,61.1088867 L78.6038713,61.2549873 C80.6748855,61.7626928 83.7886857,62.166971 84.6960449,60.4158936 C85.6898193,58.4980469 85.3907419,57.3967285 85.4012425,57.4502563 Z" id="路径" fill="#9A9DAB"></path>
                <path d="M85.4232525,67.3886719 C84.6468622,68.806722 83.555542,69.8342285 82.149292,70.4711914 C80.039917,71.4266357 76.1035156,72.1000977 72.0517578,72.0500488 C68,72 56.9907227,72.0500488 54.0462646,72.0500488 C51.1018066,72.0500488 35.8173828,72.0500488 34.0209961,72.0500488 C32.2246094,72.0500488 26.6702462,71.1879883 21.3400059,70.0522461 C16.0097656,68.9165039 14.9239502,68.0388184 12.7033691,66.8145752 C10.9840088,65.5513916 9.99865723,62.9177246 9.99865723,62 C9.99865723,61.0822754 10.0877686,59.4005127 10.2958984,59.3725586 C10.5040283,59.3446045 11.456543,59.8521729 12.0126953,60.9229736 C12.5688477,61.9937744 13.7231445,64.9123535 14.9376221,65.7144775 C16.1520996,66.5166016 19.2424316,68.0157471 26.1838379,69.0050049 C33.1252441,69.9942627 42.7658691,69.62146 43.194458,69.6446533 C43.6230469,69.6678467 46.2334158,70.8845007 47.5058594,70.7550049 C48.778303,70.6255091 51.2200928,70.4711914 54.0462646,70.4711914 C56.8724365,70.4711914 66.0641479,70.4355469 68.0897827,70.4355469 C70.1154175,70.4355469 77.8728027,70.2423096 81.0570068,69.1800537 C83.1798096,68.4718831 84.6352248,67.8747559 85.4232525,67.3886719 Z" id="路径-495" fill="#4C2C34"></path>
                <path d="M11.0928955,64.65271 L14.7878249,65.604809 L14.9376221,65.7144775 L14.9376221,65.7144775 L15.3602162,65.9748185 C16.8086768,66.8113318 19.9365723,68.1146729 26.1838379,69.0050049 L27.1925432,69.1372515 C34.0225099,69.9596556 42.7862781,69.6225644 43.194458,69.6446533 C43.6230469,69.6678467 46.2334158,70.8845007 47.5058594,70.7550049 L47.6590753,70.74071 L46.6010753,72.04871 L34.0209961,72.0500488 C32.2937012,72.0500488 27.0919457,71.2530254 21.9558017,70.1820452 L21.3400059,70.0522461 C16.0097656,68.9165039 14.9239502,68.0388184 12.7033691,66.8145752 C11.9962328,66.2950546 11.4132542,65.5437166 10.9719187,64.775277 L11.0928955,64.65271 Z" id="路径" fill="#684E5B"></path>
                <path d="M83.318995,69.4754387 C83.3243983,69.5902044 83.322508,69.7004164 83.3133241,69.8060749 C82.9520643,70.0611147 82.5643989,70.2831681 82.149292,70.4711914 C80.039917,71.4266357 76.1035156,72.1000977 72.0517578,72.0500488 L68.4733715,72.0298417 C63.7152979,72.020263 56.965704,72.0474455 54.3790165,72.0498765 L46.5386572,72.0494387 C40.2853022,72.1331362 36.4181684,72.1585674 34.9372559,72.1257324 C31.7220677,72.0544448 27.17324,71.3453384 21.2907726,69.9984131 C28.5815975,71.0763578 32.560291,71.6257063 33.2268531,71.6464587 C36.4937744,71.7481689 46.5285034,71.6430054 46.6870117,71.5905151 C46.7926839,71.5555216 46.9381527,71.4855957 47.123418,71.3807373 C47.2831641,71.1681168 47.5753581,71.0618066 48,71.0618066 L68.2176963,71.0618066 L67.8261719,71.5900879 L70.2107063,71.5344656 C73.2320978,71.4460796 75.6215385,71.300802 77.3790283,71.0986328 C79.5758906,70.8459213 81.5558795,70.3048566 83.318995,69.4754387 Z" id="路径" fill="#140204"></path>
                <path d="M10.8485107,63.7986454 C11.2128092,64.063787 11.5288696,64.2403833 11.7966919,64.3284341 L12.5779248,64.5440889 C12.9727641,64.6464401 13.5020317,64.7792574 14.1657278,64.9425409 C14.4188971,65.2724827 14.6768725,65.5422607 14.9376221,65.7144775 C15.1701904,65.8680816 15.4715481,66.047246 15.8555658,66.2434956 L14.1260679,65.966974 C13.2460506,65.8194474 12.3252474,65.655187 12.0679321,65.5789185 C11.5506592,65.4255981 10.8786621,64.4537964 10.8485107,64.192627 C10.8284098,64.018514 10.8284098,63.8871868 10.8485107,63.7986454 Z" id="路径" fill="#907981"></path>
                <path d="M10.2958984,59.3725586 C10.5040283,59.3446045 11.456543,59.8521729 12.0126953,60.9229736 C12.454865,61.7743152 13.2751258,63.7936498 14.2031201,64.9887231 L14.4227295,65.0267334 L13.5760169,64.864254 C12.2673386,64.5910487 11.471207,64.3058123 11.1876221,64.0085449 L10.9460758,63.7715545 C10.7478509,63.582553 10.484253,63.335334 10.2093733,63.0526868 C10.0696312,62.6161999 9.99865723,62.2463011 9.99865723,62 L10.011227,61.3285748 C10.0423129,60.4374601 10.1323678,59.3945225 10.2958984,59.3725586 Z" id="路径" fill="#CDD3D5"></path>
                <path d="M11.6779785,61.1494141 L11.7941284,61.6150913 C11.9159546,62.1449566 12.0548096,62.8673859 12.2106934,63.7823792 C11.8643117,63.9104893 11.5498037,64.0103904 11.2671693,64.0820825 L11.1876221,64.0085449 L11.1876221,64.0085449 L10.9460758,63.7715545 L10.4125726,63.2576733 C10.3461081,63.1917961 10.2780933,63.1233486 10.2093733,63.0526868 C10.0696312,62.6161999 9.99865723,62.2463011 9.99865723,62 L10.011227,61.3285748 L10.042599,60.6979855 C10.0701139,60.2807965 10.1110713,59.8895893 10.166924,59.6418062 C10.7751986,59.9629704 11.5298584,60.6111078 11.6779785,61.1494141 Z" id="路径" fill="#B7C1C5"></path>
                <path d="M10.8485107,63.028645 L13.4299064,63.7902919 C13.5975832,64.08981 13.7726257,64.3795601 13.952905,64.6438546 L14.1985107,64.982645 L13.5760169,64.864254 L12.8523155,64.6988871 C11.9693878,64.4764729 11.41449,64.2463588 11.1876221,64.0085449 L10.9942503,63.8217828 L10.8485107,63.028645 L10.8485107,63.028645 Z" id="路径" fill="#C5B4B1"></path>
                <path d="M10.2199097,61.7132568 C10.5283559,61.6858419 10.9728139,62.5120392 11.2614294,63.3928694 L11.3360596,63.6338501 C11.5798346,64.4696878 12.326726,66.0449449 13.4084487,67.2150225 L13.0574451,67.0118903 L13.0574451,67.0118903 C12.3230891,66.2684223 11.7103144,65.2760158 11.43573,64.6033325 L11.1656736,63.8966713 C10.8630848,63.068135 10.5707444,62.1838431 10.4753418,62.1314833 C10.3945888,62.0871636 10.195222,62.0144642 9.99694578,61.9703944 L10.0023461,61.651302 L10.0023461,61.651302 C10.0777506,61.6987018 10.1501617,61.7194561 10.2199097,61.7132568 Z" id="路径" fill="#EBEBEB"></path>
                <path d="M10.2234497,61.8222046 C10.3954468,61.901001 10.8240356,62.6793823 10.9244385,63.0641479 L11.0537188,63.4996215 C11.1949226,63.934868 11.4134347,64.5117188 11.661499,64.9356079 L12.7695363,66.8479624 L12.7695363,66.8479624 L12.7033691,66.8145752 L12.7033691,66.8145752 C10.9840088,65.5513916 9.99865723,62.9177246 9.99865723,62 L9.99941424,61.8880438 C10.0822097,61.8136574 10.1568882,61.791711 10.2234497,61.8222046 Z" id="路径" fill="#5D2828"></path>
                <path d="M85.5169088,67.0066528 C84.8677386,67.6189982 84.3273024,68.0366211 83.8956002,68.2595215 C83.2480469,68.5938721 83.210022,68.581543 82.9663696,69.0531006 C82.7227173,69.5246582 82.0950317,70.3579102 82.149292,70.4711914 C82.2035522,70.5844727 83.5613403,70.1679688 84.0333862,69.8734741 C84.5054321,69.5789795 85.4494629,68.5437622 85.5872803,68 C85.656353,67.7274715 85.7122381,67.3235915 85.6509399,67.0865479 C85.6374476,67.034372 85.5927705,67.0077403 85.5169088,67.0066528 Z" id="路径-497" fill="#1D0706"></path>
                <path d="M85.5109261,66.7384975 L85.493726,66.7660212 C85.1903677,67.2149273 84.8998158,67.5338464 84.6220703,67.7227783 C84.1221285,68.0628558 82.1052246,68.7647705 81.9197998,68.536377 C81.7961833,68.3841146 81.4036865,68.0333252 80.7423096,67.4840088 C80.9870082,66.960083 81.1825282,66.639621 81.3288694,66.5226229 L81.3979417,66.4810791 C81.5495481,66.4237061 81.4362286,66.2478027 81.0579834,65.9533691 L84.429429,65.5703238 C84.7582922,65.5287612 85.0113286,65.4939476 85.1885382,65.4658827 C85.4365778,65.9276072 85.5445295,66.3514626 85.5109261,66.7384975 Z" id="路径" fill="#E00E1A"></path>
                <path d="M85.1885382,65.4658827 C85.4365778,65.9276072 85.5445295,66.3514626 85.5109261,66.7384975 L85.493726,66.7660212 C85.4032602,66.8998914 85.3139333,67.0222017 85.2257453,67.1329519 C84.6003288,67.416471 83.7575181,67.7363149 82.69985,68.088289 L82.911438,67.0066528 L82.911438,67.0066528 C82.9453428,66.8306935 82.6232975,66.4466879 81.9453021,65.8546358 L84.429429,65.5703238 L85.0414135,65.4881968 C85.0951943,65.480337 85.1442358,65.4728989 85.1885382,65.4658827 Z" id="路径" fill="#F68288"></path>
                <path d="M85.5109261,66.7384975 L85.493726,66.7660212 C85.1903677,67.2149273 84.8998158,67.5338464 84.6220703,67.7227783 C84.1221285,68.0628558 82.1052246,68.7647705 81.9197998,68.536377 C81.8078053,68.3984298 81.4751126,68.0975308 80.9217217,67.6336797 C83.7616198,67.2667841 84.4996557,66.8868237 84.9058122,66.7011393 C85.148409,66.5902301 85.3186582,66.3554468 85.4165598,65.9967891 C85.4999756,66.2583014 85.5311907,66.5050948 85.5109261,66.7384975 Z" id="路径" fill="#CA5E5F"></path>
                <path d="M85.1510581,65.4717445 L85.2032891,65.499664 L85.3205397,65.7383815 C85.4740963,66.0956766 85.5378088,66.4288696 85.5109261,66.7384975 L85.493726,66.7660212 C85.1903677,67.2149273 84.8998158,67.5338464 84.6220703,67.7227783 C84.2116357,68.00197 82.7787943,68.5250338 82.1762933,68.5770045 L82.7622041,68.3169042 C83.3719298,68.0398157 84.1125577,67.6741526 84.1344299,67.4902649 C84.1800537,67.1066895 82.4098497,67.4978525 82.6208496,67.3846741 L84.1772892,66.9937204 C84.3046446,66.9519826 84.6141865,66.4571027 84.5159912,66.2337036 C84.2960815,65.7333984 83.3389174,65.7158553 83.4490967,65.6880493 C83.6873169,65.6279297 84.5044556,65.5706787 85.0851712,65.4813961 L85.1510581,65.4717445 Z" id="路径" fill="#F3C2C5"></path>
                <path d="M84.3271694,65.715376 L85.1995049,65.4898827 L85.1885382,65.4658827 C85.3082948,65.6888091 85.3953959,65.9029079 85.4496761,66.1082971 C85.2393671,66.240091 84.5480393,66.5397459 84.1787109,66.6062012 C83.7699681,66.6797485 84.6651611,66.3631592 85.0598755,66.0962524 C85.4545898,65.8293457 84.2744141,66.0600586 83.8088375,65.9967891 C83.593956,65.9675879 83.7667333,65.8737835 84.3271694,65.715376 L84.3271694,65.715376 Z" id="路径" fill="#4F2224"></path>
                <path d="M47.3748634,67.8353318 L47.4203491,67.836792 C47.5639648,67.8499756 47.472229,68.1677246 47.208252,68.2373657 C46.9442749,68.3070068 47.2796021,68.4387817 47.4203491,68.5130005 C47.5610962,68.5872192 47.3722534,69.0822754 47.2901611,69.1426392 C47.2080688,69.2030029 47.4298096,69.522583 47.2901611,69.7805057 C47.1505127,70.0384283 46.2283936,70.37146 45.99646,70.2592773 C45.7645264,70.1470947 45.9024048,70.0658569 46.2075195,70.0556255 C46.5126343,70.0453941 46.5803833,69.7084961 46.4309082,69.6154785 C46.2814331,69.5224609 46.0350342,69.116272 45.99646,68.9189453 C45.9578857,68.7216187 46.180542,68.6783447 46.4309082,68.6659845 C46.6812744,68.6536242 46.5997314,68.5049438 46.6225586,68.3307741 C46.6453857,68.1566044 46.1010742,68.133606 46.1108398,68.0172119 C46.1206055,67.9008179 47.2767334,67.8236084 47.4203491,67.836792 Z M52.8234505,67.2763435 C52.8038835,67.2734375 52.9075928,67.5426636 52.8234505,67.6022949 C52.7393083,67.6619263 52.5577393,67.6437988 51.9566316,67.7225238 C51.3555238,67.8012488 51.8783569,68.1860352 52.168457,68.088289 C52.4585571,67.9905428 52.6959839,67.8724729 52.9145508,68.0922852 C53.1331177,68.3120974 52.7767334,69.171936 52.5687866,69.4754387 C52.3608398,69.7789413 51.5889893,70.1037598 51.3213501,70.0496826 C51.0537109,69.9956055 51.3307495,69.5810547 51.3213501,69.2841187 C51.3119507,68.9871826 51.0949097,69.0449219 50.9593506,68.5897217 C50.8237915,68.1345215 51.1921387,68.0963745 51.4359741,68.088289 C51.6798096,68.0802034 51.4830322,67.7393799 51.2236938,67.7225238 C50.9643555,67.7056677 50.9275513,67.5236206 51.0530396,67.4197388 C51.1785278,67.3158569 52.8430176,67.2792969 52.8234505,67.2763435 Z M56.2421875,66.9190674 C56.5715332,66.8587646 58.2644043,66.8789673 58.378479,66.9190674 C58.4925537,66.9591675 58.0665894,67.3433838 58.3587036,67.6235962 C58.6508179,67.9038086 58.7556763,68.2774658 58.585022,68.6950684 C58.4143677,69.1126709 58.0301514,69.2092896 57.9550171,69.4754387 C57.8798828,69.7415878 57.0427246,69.8279419 56.6521606,69.7564917 C56.2615967,69.6850415 56.1251221,69.420166 55.8842773,69.0541992 C55.6434326,68.6882324 55.6560059,67.8130493 55.6491699,67.7225238 C55.6446126,67.6621734 55.6000977,67.4514225 55.515625,67.090271 C55.7472331,67.2641398 55.8701172,67.4748907 55.8842773,67.7225238 C55.9055176,68.0939734 55.9564209,68.7791138 56.2421875,69.0541992 C56.5279541,69.3292847 57.0588989,69.3735962 56.6521606,69.0541992 C56.2454224,68.7348022 56.0410767,68.0419312 56.1565552,67.8428955 C56.2720337,67.6438599 56.4171753,67.3551636 56.1565552,67.2427368 C55.8959351,67.1303101 55.9128418,66.9793701 56.2421875,66.9190674 Z M69.6063232,66.5411377 C69.6021118,66.6141968 69.3421631,66.6809082 69.3818359,66.8145752 C69.4215088,66.9482422 69.7490234,67.3589478 69.6837158,68.045166 C69.6184082,68.7313843 69.2165527,69.1156006 68.8616333,69.3285522 C68.5067139,69.5415039 68.0082397,69.8462751 67.602478,69.7313956 C67.1967163,69.6165161 67.0446777,69.2790527 67.1862793,69.3285522 C67.3278809,69.3780518 67.8171997,69.37146 67.602478,69.2366333 C67.3877563,69.1018066 67.1680908,68.8861084 67.3685913,68.9248047 C67.5690918,68.963501 67.7091064,68.6918019 67.3685913,68.5811915 C67.0280762,68.4705811 66.6689453,67.8913574 67.0186768,67.4298096 C67.3684082,66.9682617 66.8041382,66.8231201 66.7476807,66.7347412 C66.6912231,66.6463623 67.1557617,66.5993652 68.1464844,66.5411377 C69.137207,66.4829102 69.6105347,66.4680786 69.6063232,66.5411377 Z M72.5435181,66.3947848 C72.6625366,66.1389349 75.4292603,66.1692964 75.5131836,66.263916 C75.5691325,66.3269957 75.5164388,66.4537861 75.3551025,66.6442871 C75.7109782,66.8306071 75.8286743,67.2644074 75.7081909,67.9456882 C75.5274658,68.9676092 75.001709,69.7633667 74.1517334,69.7304077 C73.3017578,69.6974487 72.8371582,69.1542358 72.5435181,68.4915161 C72.2498779,67.8287964 72.6575928,66.9865723 72.8725586,66.8145752 C73.0875244,66.6425781 72.4244995,66.6506348 72.5435181,66.3947848 Z M61.3571777,66.8145752 C61.3954468,66.7116699 63.7389526,66.68927 63.9243774,66.7062988 C64.1098022,66.7233276 63.4654541,67.0222778 63.6600342,67.0779419 C63.8546143,67.133606 64.2251587,67.9282227 64.1152344,68.3369141 C64.0053101,68.7456055 63.6599731,69.0791626 63.3678589,69.3035278 C63.0757446,69.5278931 62.3081665,69.5252075 62.0785522,69.3387451 C61.848938,69.1522827 61.5038452,68.7427368 61.3571777,68.3326416 C61.2105103,67.9225464 61.5871582,67.5505371 61.7145996,67.3436279 C61.842041,67.1367188 61.3189087,66.9174805 61.3571777,66.8145752 Z M41.7628784,68.3307741 C41.9956055,68.234058 42.3103027,68.2445679 42.3050537,68.3307741 C42.2998047,68.4169804 42.3022461,68.5959473 42.1795044,68.6659845 C42.0567627,68.7360217 42.1860962,68.8933105 42.3050537,68.9083862 C42.4240112,68.9234619 42.4823608,69.0601807 42.4212646,69.2026367 C42.3601685,69.3450928 41.8453369,69.4606934 41.7335815,69.3762207 C41.6218262,69.291748 41.6376953,68.9960327 41.7628784,68.9083862 C41.8880615,68.8207397 41.958374,68.6550903 41.7628784,68.6659845 C41.5673828,68.6768786 41.5301514,68.4274902 41.7628784,68.3307741 Z M37.5883179,68.5109253 C37.7229614,68.4660441 37.8157229,68.5177305 37.8666022,68.6659845 C37.512195,68.878435 37.472585,68.9950836 37.7477722,69.0159302 C38.0229594,69.0367767 38.0829976,69.1392649 37.927887,69.3233948 C37.7229106,69.4092306 37.5889893,69.4167989 37.526123,69.3460999 C37.4318237,69.2400513 37.557251,69.0461227 37.5539246,69.0263062 C37.5505981,69.0064896 37.5245056,68.8728333 37.561615,68.8511047 C37.5987244,68.8293762 37.3863525,68.5782471 37.5883179,68.5109253 Z" id="形状结合" fill="#E72E37"></path>
                <path d="M46.1114613,69.2015225 L46.374839,69.2221664 L46.374839,69.2221664 L46.6840641,69.2330322 C46.8396182,69.2259352 47.0380047,69.2155478 47.2723005,69.2024531 C47.2780508,69.3197477 47.4038363,69.5705541 47.2901611,69.7805057 C47.1505127,70.0384283 46.2283936,70.37146 45.99646,70.2592773 C45.7645264,70.1470947 45.9024048,70.0658569 46.2075195,70.0556255 C46.5126343,70.0453941 46.5803833,69.7084961 46.4309082,69.6154785 C46.3374863,69.5573425 46.2062035,69.376874 46.1114613,69.2015225 Z M52.5687866,69.4754387 C52.3608398,69.7789413 51.5889893,70.1037598 51.3213501,70.0496826 C51.0537109,69.9956055 51.3307495,69.5810547 51.3213501,69.2841187 C51.3160619,69.1170594 51.2450488,69.0622656 51.159799,68.9652297 C51.716146,68.9308685 52.2906134,68.8954608 52.8649316,68.8606568 C52.7779525,69.1057901 52.6593061,69.3433236 52.5687866,69.4754387 Z M58.585022,68.6950684 C58.4143677,69.1126709 58.0301514,69.2092896 57.9550171,69.4754387 C57.8798828,69.7415878 57.0427246,69.8279419 56.6521606,69.7564917 C56.2615967,69.6850415 56.1251221,69.420166 55.8842773,69.0541992 C55.8226693,68.960585 55.7776433,68.833651 55.7446328,68.6950538 C55.8418915,68.688309 55.9372736,68.6831826 56.0314983,68.6781738 C56.0805679,68.8307559 56.1488499,68.9643503 56.2421875,69.0541992 C56.5279541,69.3292847 57.0588989,69.3735962 56.6521606,69.0541992 C56.5224252,68.9523226 56.4132809,68.8124491 56.3285386,68.662724 C57.0176589,68.6268811 57.6336162,68.5984464 58.1303711,68.5811915 C58.2742931,68.5761923 58.4404654,68.5711397 58.6269629,68.5659972 C58.6175757,68.6085731 58.6027926,68.6515825 58.585022,68.6950684 Z M68.8616333,69.3285522 C68.5067139,69.5415039 68.0082397,69.8462751 67.602478,69.7313956 C67.1967163,69.6165161 67.0446777,69.2790527 67.1862793,69.3285522 C67.3278809,69.3780518 67.8171997,69.37146 67.602478,69.2366333 C67.3877563,69.1018066 67.1680908,68.8861084 67.3685913,68.9248047 C67.5690918,68.963501 67.7091064,68.6918019 67.3685913,68.5811915 C67.270109,68.5492012 67.1700695,68.4780135 67.0860719,68.3818115 C67.9283651,68.3607848 68.7844676,68.3383812 69.6364215,68.3137436 C69.5071166,68.8353273 69.1670023,69.1453309 68.8616333,69.3285522 Z M75.6821418,68.0803396 L75.7081909,67.9456882 C75.5274658,68.9676092 75.001709,69.7633667 74.1517334,69.7304077 C73.3017578,69.6974487 72.8371582,69.1542358 72.5435181,68.4915161 C72.5048517,68.4042496 72.4783465,68.3138705 72.4619609,68.2223191 C73.6005573,68.180068 74.6901676,68.1332098 75.6821418,68.0803396 Z M64.0756581,68.4492441 L64.1152344,68.3369141 C64.0053101,68.7456055 63.6599731,69.0791626 63.3678589,69.3035278 C63.0757446,69.5278931 62.3081665,69.5252075 62.0785522,69.3387451 C61.8808926,69.1782321 61.5976595,68.8524066 61.4290943,68.5032246 C62.2330694,68.4871334 63.1267245,68.4692652 64.0756581,68.4492441 Z" id="形状结合" fill="#E36C65"></path>
                <path d="M48.3852539,48.2490234 C48.7319336,48.4796143 47.2110596,50.8933105 47.1707764,51.8480225 C47.1304932,52.8027344 47.6427888,55.4204102 52.0875244,54.6351318 C56.53226,53.8498535 63.2879639,52.793457 69.2677002,50.7182617 C75.2474365,48.6430664 77.2996826,47.1940918 77.4245605,47.3391113 C77.5494385,47.4841309 78.03479,47.4256592 77.4445801,48.1469727 C76.8543701,48.8682861 73.5775146,50.5864258 69.9437256,52.5235596 C66.3099365,54.4606934 52.302124,59.7915039 50.1296387,60.2602539 C47.9571533,60.7290039 43.6669922,60.998291 42.5830078,58.2492676 C42.1214942,57.0788524 42.0644136,54.6944368 43.4331055,52.8480225 C45.2625732,50.3800049 48.0385742,48.0184326 48.3852539,48.2490234 Z" id="路径-507" fill="#1D0509"></path>
                <path d="M48.3852539,48.2490234 C48.6453857,48.3871269 46.911377,51.0153809 46.8710938,51.9700928 C46.8308105,52.9248047 47.4733552,55.6968994 51.9180908,54.9116211 C56.3628265,54.1263428 63.2879639,52.793457 69.2677002,50.7182617 C75.2474365,48.6430664 77.2996826,47.1940918 77.4245605,47.3391113 C77.5494385,47.4841309 78.0096436,47.2260742 77.4194336,47.9473877 C76.8292236,48.6687012 73.6595459,50.3808594 70.0257568,52.3179932 C66.3919678,54.255127 52.1636963,59.6036377 49.9912109,60.0723877 C47.8187256,60.5411377 43.8500977,60.7924805 42.7661133,58.043457 C42.3045996,56.8730418 42.2355562,54.7391145 43.604248,52.8927002 C45.4337158,50.4246826 48.2358749,48.1697185 48.3852539,48.2490234 Z" id="路径-507" fill="#360B12"></path>
                <path d="M48.3852539,48.2490234 C48.6453857,48.3871269 46.911377,51.0153809 46.8710938,51.9700928 C46.8308105,52.9248047 47.4733552,55.6968994 51.9180908,54.9116211 L54.1605905,54.5044622 C54.6932352,54.4048141 55.2468413,54.2989451 55.8175825,54.1866376 C53.304207,55.2165665 51.1778433,55.7017224 49.439747,55.6423277 C45.6176758,55.5117187 45.7875977,54.1958725 44.9248047,55.5239616 C44.0936014,56.8034251 44.0932323,59.1289146 46.279806,60.3070723 C44.7611529,60.1302627 43.3480067,59.5191598 42.7661133,58.043457 C42.3045996,56.8730418 42.2355562,54.7391145 43.604248,52.8927002 C45.4337158,50.4246826 48.2358749,48.1697185 48.3852539,48.2490234 Z" id="路径" fill="#7A3A3C"></path>
                <path d="M46.0408936,51.7390137 C45.8104248,51.5030518 44.2689209,52.5141602 43.5828857,54.1906738 C42.8968506,55.8671875 43.0540644,58.8874559 45.5318604,59.4925537 C48.0096564,60.0976515 50.661377,59.2177734 54.0443115,58.0755615 C57.4272461,56.9333496 70.9171143,51.2788086 70.9015203,51.1224365 C70.885376,50.9660645 64.1020508,52.9213867 62.5085449,53.3625488 C60.9150391,53.8037109 52.8510742,55.699707 50.3657227,55.7520752 C47.8803711,55.8044434 46.3010254,54.4119873 46.1733398,53.2900391 C46.0456543,52.1680908 46.2713623,51.9749756 46.0408936,51.7390137 Z" id="路径-508" fill="#B87F42"></path>
                <path d="M70.8762007,51.1136442 L70.9015203,51.1224365 C70.9167753,51.2754092 58.0073796,56.6900984 54.2790244,57.9947748 L54.0443115,58.0755615 C50.661377,59.2177734 48.0096564,60.0976515 45.5318604,59.4925537 C43.6859334,59.0417634 43.1279442,57.2505382 43.2470558,55.6730912 L43.3027344,55.5688477 C44.3261719,58.3787435 46.5776367,59.3818359 50.0571289,58.578125 L50.7798209,58.3981061 C54.074342,57.5236931 58.3491211,55.7736816 63.7092285,53.0666504 L69.8326781,51.337995 C70.2381725,51.2354054 70.5527592,51.161777 70.7326492,51.1304031 L70.8762007,51.1136442 Z" id="路径" fill="#7F4D19"></path>
                <path d="M43.5828857,54.1906738 C44.2689209,52.5141602 45.8104248,51.5030518 46.0408936,51.7390137 C46.2713623,51.9749756 46.0456543,52.1680908 46.1733398,53.2900391 C46.3010254,54.4119873 47.8803711,55.8044434 50.3657227,55.7520752 C52.8510742,55.699707 60.9150391,53.8037109 62.5085449,53.3625488 L63.7517498,53.0129864 L63.7517498,53.0129864 C60.7328303,54.1245975 52.9403212,55.9423996 51.3036482,56.1642093 L51.1523437,56.1817627 C49.8286753,56.299104 47.671875,56.2884521 46.5606689,55.0865479 C45.4494629,53.8846436 45.6806641,52.6013184 45.5701904,52.3933105 C44.0891062,53.2829016 43.3573223,54.9060036 43.3748388,57.2626166 C43.1059503,56.2184294 43.237635,55.0343881 43.5828857,54.1906738 Z" id="路径" fill="#D9AC63"></path>
                <path d="M81.9764709,55.7851257 C82.6998291,55.5902405 83.1034546,54.8990479 82.9544067,53.6513062 C82.8053589,52.4035645 81.7357788,51.6965637 80.9606323,51.9480286 C80.1854858,52.1994934 79.7637939,53.0249023 79.9562683,54.1789856 C80.1487427,55.3330688 81.2531128,55.980011 81.9764709,55.7851257 Z" id="椭圆形" fill="#3C3833"></path>
                <path d="M81.9787598,55.7053223 C82.7255859,55.5328369 83.1034546,54.8990479 82.9544067,53.6513062 C82.8053589,52.4035645 81.7751465,51.7485352 81,52 C80.2248535,52.2514648 79.8311768,53.1046143 80.0661011,54.1929321 C80.3010254,55.28125 81.2319336,55.8778076 81.9787598,55.7053223 Z" id="椭圆形" fill="#D1AD73"></path>
                <path d="M80.0260776,53.9690689 L80.1925801,54.2756528 C80.5564148,54.9114988 80.9200066,55.2932982 81.2833557,55.421051 C81.8867747,55.633212 82.3896452,55.461044 82.6629868,55.2948208 C82.4944376,55.5068363 82.2633957,55.6395834 81.9787598,55.7053223 C81.2319336,55.8778076 80.3010254,55.28125 80.0661011,54.1929321 C80.0497382,54.1171289 80.0364249,54.0424665 80.0260776,53.9690689 Z" id="路径" fill="#F4DCB4"></path>
                <path d="M81.9871826,55.3285522 C82.6015015,55.2124023 82.9150391,54.6212769 82.7730713,53.6212158 C82.6311035,52.6211548 81.6869507,52.1025391 81.0601807,52.3881226 C80.4334106,52.6737061 80.1558838,53.2872314 80.382019,54.1552734 C80.6081543,55.0233154 81.3728638,55.4447021 81.9871826,55.3285522 Z" id="椭圆形" fill="#593813"></path>
                <path d="M82.40448,54.4279175 L81.9338989,54.5179443 C81.8734741,54.6830648 81.8734741,54.7576497 81.9338989,54.7416992 C82.0245361,54.7177734 82.5486019,54.5554199 82.6474609,54.5179443 C82.7133669,54.4929606 82.7170901,54.2203166 82.6586304,53.7000122 L81.5745354,53.7000122 L81.5554469,53.5842723 C82.2859384,53.5430647 82.6536662,53.4726359 82.6586304,53.3729858 C82.6635946,53.2733358 82.5788778,53.0923347 82.40448,52.8299827 L81.3109131,52.8299827 L81.2664185,53.0847168 L82.1600952,53.1941528 L81.3109131,53.3729858 L81.3109131,53.9304199 L81.7351685,53.9304199 L81.7351685,53.828821 L82.3009644,53.828821 L82.3009644,54.0743408 L81.1486816,54.0743408 L81.014019,53.0005493 L80.4902344,53.0005493 L80.4902344,53.6069336 L80.7355347,53.6069336 L80.8627319,54.338562 L82.3537598,54.239502 L82.40448,54.4279175 Z" id="路径-489" fill="#E0D0C9"></path>
                <path d="M28.2741699,50.2489014 C28.4063789,50.2489014 28.5531597,50.2718565 28.7145123,50.3177667 C28.1426329,50.7007771 27.8766501,52.2362878 27.8864136,52.5043945 C27.8971558,52.7993774 27.3375244,53.0687866 26.9995117,53.0971069 C26.661499,53.1254272 26.4359741,52.8699951 26.2734985,52.3131104 C26.2026939,52.0704275 26.2138156,51.7471918 26.3068638,51.3434032 C26.3378708,51.2829838 26.3647684,51.2136741 26.3908691,51.1359863 L27.1485596,51.1359863 L27.3711842,50.9060013 C27.635498,50.6431613 28.066569,50.2489014 28.2741699,50.2489014 Z M37.7232275,47.0340775 L38.16562,47.0106357 L37.8786621,47.0597534 L37.8786621,47.0597534 C37.4407959,47.1482544 35.0235596,49.3091809 34.7820435,49.637085 C34.5405273,49.9649891 34.0117798,51.0006104 33.87146,51.1135585 C33.7311401,51.2265067 33.3634033,51.1609497 33.2507324,51.1135585 C33.1380615,51.0661674 32.9667969,50.4981079 33.0870972,50.0493658 C33.1690314,49.743736 33.6211795,49.0487411 33.9896175,48.5606342 L34.0412598,48.5429687 C34.3419656,48.20076 34.6851072,47.921892 35.0706847,47.7063645 L35.4331895,47.5330223 L35.4331895,47.5330223 C35.5985756,47.4563984 35.7737094,47.3944781 35.9559326,47.3431396 C36.6093227,47.1590576 37.2002128,47.0723528 37.7232275,47.0340775 L37.7232275,47.0340775 Z M43.8692623,44.8678448 L43.7954761,44.8952526 C41.8528987,45.6320547 40.606111,47.7862782 40.3877052,48.4043586 L40.3588867,48.5015259 C40.2537231,48.9937744 39.7843628,49.1754761 39.6199341,49.1216962 C39.4555054,49.0679163 39.1616821,48.6790771 39.158737,48.2804757 C39.1558228,47.8818742 39.5703735,47.2908325 39.9714966,46.6588135 C40.1081348,46.443523 40.350369,46.1889403 40.599338,45.9505477 C41.1922069,45.4711634 41.7721081,45.1570163 42.3389893,45.0050049 C42.7969303,44.8822062 43.3070213,44.8364862 43.8692623,44.8678448 Z M49.5748662,42.571444 L49.5453105,42.5856722 C49.0076284,42.8223166 47.9711637,43.486145 47.6351318,43.7470703 C47.2757645,44.0261154 46.80303,44.7135811 46.5890164,45.363984 L46.5142212,45.6391602 C46.362793,46.3599854 45.8768311,46.6634521 45.5924683,46.6588135 C45.3081055,46.6541748 45.017395,46.0515137 44.956604,45.6391602 C44.9253573,45.4272097 45.0819065,45.0451206 45.2960731,44.6662958 L44.9248047,45.0050049 C45.6512044,44.3065999 46.5070394,43.6897786 47.4923096,43.154541 C48.2456574,42.7452928 48.9398429,42.5509271 49.5748662,42.571444 Z M52.6640817,39.9797005 L52.8693768,39.9336011 C53.0217556,39.9055084 53.1325756,39.8986675 53.0613098,39.9668884 L52.8795327,40.1516676 C52.5345776,40.5121088 51.8595093,41.2580566 51.8170776,41.5402832 C51.7640381,41.8930664 51.8378906,42.7803955 51.8170776,43.2833862 C51.7962646,43.786377 51.6081543,44.0162354 51.2935181,44.0365601 C50.9788818,44.0568848 50.5493774,43.6882935 50.4222412,43.3664551 C50.3289428,43.1302752 50.2599676,42.7658395 50.2599154,42.4503165 L50.1445313,42.6514893 C50.4847935,42.0672956 50.7689732,41.662351 50.9970703,41.4366555 L51.5825079,40.9368544 C51.8529407,40.7020236 52.2134653,40.3829723 52.6640817,39.9797005 Z M55.461594,35.5915708 C55.4588168,35.6336502 55.4363918,35.6686876 55.3881732,35.6898193 C55.1597693,35.789917 55.2095947,36.6506958 55.3675446,37.2287598 C55.5254945,37.8068237 55.3823242,38.4243164 55.3675446,38.9041748 C55.352765,39.3840332 54.7466431,39.5004272 54.3897705,39.4972184 C54.1425255,39.4949953 53.9401034,38.799356 53.8464994,38.2259831 L53.8475342,37.2059326 C53.8475342,36.7169189 54.8497314,35.592041 54.8497314,35.592041 L55.461594,35.5915708 Z" id="形状" fill="#90484E"></path>
                <path d="M58.1581726,34.0845337 C57.8706097,34.1149414 57.7168966,34.1548127 57.6970332,34.2041475 C57.5974972,34.4513667 57.5541176,34.6692062 57.5668945,34.857666 C57.5917969,35.2249756 58.1694336,37.7620026 58.1838379,38.1895951 C58.1982422,38.6171875 58.3651123,39.5809326 58.27948,39.7044067 C58.1938477,39.8278809 57.7147217,40.492981 57.4876099,40.4926172 C57.260498,40.4921265 56.2346346,40.2172852 55.6073381,40.1184692 C54.9800415,40.0196533 53.3393555,39.7093506 53.0823975,39.7044067 C52.8254395,39.6994629 52.4279785,39.7957764 52.4766235,39.7044067 C52.5252686,39.6130371 53.1254272,38.5974731 53.2264404,38.5559692 C53.3274536,38.5144653 53.947998,38.4836426 54.3241577,38.493042 C54.7003174,38.5024414 56.4884033,38.7230225 56.5534668,38.6886597 C56.6185303,38.6542969 56.7125244,38.5506592 56.6155396,37.696228 C56.5185547,36.8417969 56.5698242,35.413208 56.5534668,35.2199707 C56.5371094,35.0267334 56.5994873,34.8635864 56.7214355,34.729126 C56.8433838,34.5946655 57.3914795,34.0291138 57.4876099,33.9742432 C57.5516968,33.9376628 57.7752177,33.9744263 58.1581726,34.0845337 Z" id="路径-509" fill="#EFCFA0"></path>
                <path d="M53.7432534,38.5018258 L53.069397,39.3973119 L53.8798828,39.5557556 L56.966156,40.1232605 L57.427349,40.0396423 L57.9243469,39.5557556 L58.2625446,39.7258258 L58.0511789,40.0081581 C57.8699427,40.2331242 57.6295547,40.4928422 57.4876099,40.4926108 C57.2857327,40.4921803 56.4527431,40.2749739 55.8295562,40.1573095 L53.5527749,39.7661052 C53.3254783,39.729816 53.1524769,39.7057551 53.0823975,39.7044067 C52.8254395,39.6994629 52.4279785,39.7957764 52.4766235,39.7044067 L52.7760675,39.2015604 C52.9601463,38.9027205 53.170322,38.579027 53.2264404,38.5559692 L53.3619409,38.5302577 C53.4596791,38.5185118 53.596153,38.5086721 53.7432534,38.5018258 Z" id="路径" fill="#A5965F"></path>
                <path d="M56.5696959,35.0052212 L57.238739,34.334259 L57.238739,34.334259 L57.3281555,35.6203613 L57.3281555,35.6203613 L57.8859253,36.6144714 L57.8859253,36.6144714 L57.9598374,36.8989837 L58.130351,37.7933135 C58.1511037,37.9143456 58.1668359,38.0168129 58.1757662,38.0938856 L58.2115842,38.5389819 C58.2599374,39.0040238 58.3460829,39.6083713 58.27948,39.7044067 L58.2388962,39.758259 L58.0769653,39.6818848 L57.6593018,40.1232605 L57.3281555,40.0761108 L57.8421021,39.3973119 L57.1826477,35.471344 L56.5545659,35.899149 L56.5561573,35.2865997 L56.5561573,35.2865997 L56.5534668,35.2199707 C56.5470133,35.1437325 56.5528153,35.0721781 56.5696959,35.0052212 Z" id="路径" fill="#462C10"></path>
                <path d="M54.3241577,38.493042 C54.6655511,38.5015727 56.1699394,38.6840524 56.4937461,38.6920222 L56.5428772,38.7487183 L56.700531,38.6231995 C56.749054,38.5890605 56.84434,38.5655416 56.9863892,38.5526428 L57.2159096,38.5399882 C57.3689948,38.5359328 57.5004374,38.5404765 57.4795227,38.5526428 C57.4481506,38.5708923 57.0497437,38.5205688 56.9863892,38.6231995 C56.9230347,38.7258301 57.0636902,38.9262695 57.1613159,38.9764099 C57.2589417,39.0265503 57.6401978,39.0365295 57.6447144,38.914093 C57.6843262,39.01297 57.668457,39.3306795 57.5717468,39.4972184 C57.4750366,39.6637573 57.4147949,39.7837524 57.2206116,39.8191528 L57.0447579,39.8592652 C56.8909177,39.8906013 56.7202061,39.8911307 56.5428772,39.6690063 C56.3773702,39.4616903 56.3548075,39.2100525 56.4751892,38.914093 L54.4568176,38.6231995 L54.1558228,38.7487183 L53.8694153,39.0666011 L53.5837402,39.2069702 C53.5138753,39.2895711 53.4903971,39.3376261 53.5133057,39.3511353 L53.8785491,39.4527919 C53.9432576,39.4721823 53.9870911,39.4889263 53.9758606,39.4972184 C53.9421692,39.5220947 53.1080627,39.4577402 53.1401672,39.3973119 L53.5659158,38.8694801 C53.6557942,38.7610917 53.7598636,38.6361232 53.8781239,38.4945745 C54.0345089,38.4913537 54.1939699,38.4897889 54.3241577,38.493042 Z" id="路径" fill="#603F2E"></path>
                <path d="M59.0977173,35.5869141 C59.1338196,35.328125 58.8980713,35.1972656 58.573822,35.2482605 C58.2495728,35.2992554 58.2092285,35.5475769 58.2189941,35.6829529 C58.2287598,35.8183289 58.2683105,36.1276855 58.5826111,36.0824585 C58.8969116,36.0372314 59.061615,35.8457031 59.0977173,35.5869141 Z" id="路径-510" fill="#251A1A"></path>
                <path d="M39.4424438,70.2140808 L39.9805908,70.2140808 L39.9805908,70.3697205 C39.6848958,70.7074687 39.5537516,70.8796794 39.5871582,70.8863525 C39.6205648,70.8930257 39.8393758,70.8930257 40.2435913,70.8863525 L40.2336426,71.1412354 L40.8273926,70.7211304 L40.8273926,70.5403748 L40.0747375,70.5403748 L40.2336426,70.2140808 L41.219574,70.2140808 L41.5082397,70.5403748 L41.0238931,71.1412354 L41.219574,71.1412354 L41.219574,71.0219727 L42.1646118,71.0219727 C41.8141886,70.7156169 41.6374207,70.5550842 41.6343079,70.5403748 C41.6311951,70.5256653 41.6290181,70.4196269 41.6277771,70.2222595 L41.8461914,70.2222595 L42.6240845,70.8863525 L42.6240845,71.2063904 L39.0186462,71.2063904 L38.7399902,70.9701843 L39.4424438,70.2140808 Z" id="路径-514" fill="#D8D8D8"></path>
                <path d="M39.4424438,70.2140808 L39.9805908,70.2140808 L39.9805908,70.3697205 C39.6848958,70.7074687 39.5537516,70.8796794 39.5871582,70.8863525 C39.6205648,70.8930257 39.8393758,70.8930257 40.2435913,70.8863525 L40.2336426,71.1412354 L40.8273926,70.7211304 L40.8273926,70.5403748 L40.0747375,70.5403748 L40.2336426,70.2140808 L41.219574,70.2140808 L41.5082397,70.5403748 L41.0238931,71.1412354 L41.219574,71.1412354 L41.219574,71.0219727 L42.1646118,71.0219727 C41.8141886,70.7156169 41.6374207,70.5550842 41.6343079,70.5403748 C41.6311951,70.5256653 41.6290181,70.4196269 41.6277771,70.2222595 L41.8461914,70.2222595 L42.6240845,70.8863525 L42.6240845,71.2063904 L39.0186462,71.2063904 L38.7399902,70.9701843 L39.4424438,70.2140808 Z" id="路径-514" fill="#E2DDDF"></path>
                <path d="M80.7423096,67.4840088 C82.025521,67.2311305 82.8854169,67.07764 83.3219972,67.0235371 C83.7585775,66.9694342 84.3447673,66.8378906 85.0805664,66.6289062 C84.3354639,66.9544142 83.7161911,67.1659519 83.2227478,67.2635193 C82.8300351,67.3411695 82.1166077,67.4333496 81.6480713,67.6316528 C81.5409906,67.6769736 81.407049,67.7697369 81.2462463,67.9099426 L80.9217217,67.6336797 L80.7423096,67.4840088 Z" id="路径-496" fill="#502022"></path>
                <path d="M83.8466023,68.3307741 C83.6708984,68.4466553 81.6444092,69.3076172 79.8431396,69.7579346 C78.0418701,70.208252 74.0495605,70.6079407 69.0491943,70.6854248 C64.0488281,70.7629089 53.3908691,70.6854248 52.5710449,70.6854248 C51.7512207,70.6854248 48.0620464,70.7279858 47.7109548,70.7923376 C47.3598633,70.8566895 45.6516113,70.6310264 44.3236084,70.0556255 C43.2823486,69.6169434 41.6057739,69.7290479 40.6820374,69.7564917 C39.7583008,69.7839355 34.2113443,69.8324714 30.4256185,69.5668705 C26.6398926,69.3012695 24.4746094,68.8871039 20.2126465,67.9456882 C15.9506836,67.0042725 14.5702515,65.7561646 14.0594482,65.0686646 C13.7189128,64.6103312 13.2305501,63.6392212 12.5943604,62.1553345 C13.5874837,63.9473267 14.1969401,64.9565837 14.4227295,65.1831055 C14.6405403,65.4016228 15.2490904,66.1540229 17.3880615,66.9110107 C18.4819946,67.2981567 20.4039565,67.8528692 21.6259766,68.0796509 C25.0500488,68.7150879 27.1081543,69.1126709 30.833374,69.3717041 C34.5585938,69.6307373 39.4447632,69.5808234 40.8774414,69.5668705 C42.3101196,69.5529175 43.350647,69.6141197 44.6113281,70.0556255 C45.8720093,70.4971313 47.0830525,70.6481934 48.2204813,70.5708618 C49.3579102,70.4935303 52.8824463,70.4641113 54.6130371,70.4641113 C56.3436279,70.4641113 70.3152466,70.4115601 70.8515625,70.4115601 C71.3878784,70.4115601 75.3026733,70.3311157 78.038147,69.8461914 C80.7736206,69.3612671 83.6253052,68.4171753 85.1743164,67.4240112 L84.638916,67.9284058 C84.2278428,68.1193973 83.9637383,68.25352 83.8466023,68.3307741 Z" id="路径-512" fill="#1D0706"></path>
                <path d="M61.7653809,36.2578125 C63.6803385,41.3302226 65.0996908,44.7533996 66.0234375,46.5273438 C67.4090576,49.1882599 68.5837896,49.5069909 69.2199954,49.5793011 C69.8562012,49.6516113 71.3186035,49.6538086 72.779541,48 C73.7534993,46.8974609 74.8435128,44.8892597 76.0495815,41.9753963 C73.8586496,44.6491881 72.2395833,46.1242676 71.1923828,46.4006348 C69.621582,46.8151855 68.7759598,46.7803539 67.4499512,45.3676758 C66.5659454,44.4258904 64.6710887,41.3892693 61.7653809,36.2578125 Z" id="路径-513" fill="#DADDE2"></path>
                <path d="M77.6340332,41.2641602 C78.9659017,40.2150194 79.6987305,39.6482604 79.8325195,39.563883 C79.8711344,39.6097546 79.9234416,39.6617635 79.9894409,39.7199097 C78.8602905,40.5682576 78.1390177,41.1331787 77.8256226,41.4146729 C77.8167127,41.4147849 77.7528495,41.364614 77.6340332,41.2641602 Z" id="路径-515" fill="#6F4247"></path>
                <path d="M80.2124329,52.6907959 C80.6924133,52.2669678 81.1725566,52.0946655 81.6528625,52.1738892 C82.1331685,52.2531128 82.5168966,52.5469971 82.8040466,53.055542 C82.5115255,52.5068156 82.1957092,52.170166 81.8565979,52.0455933 C81.3479309,51.8587341 80.9482422,51.9700623 80.6771851,52.1420288 C80.4964803,52.2566732 80.3415629,52.4395955 80.2124329,52.6907959 Z" id="路径-516" fill="#FFEAC6"></path>
            </g>
        </g>
    </g>
</svg>