<?xml version="1.0" encoding="UTF-8"?>
<svg width="96px" height="96px" viewBox="0 0 96 96" version="1.1" xmlns="http://www.w3.org/2000/svg" xmlns:xlink="http://www.w3.org/1999/xlink">
    <title>Nike Air Max Bella TR 3</title>
    <defs>
        <rect id="path-1" x="0" y="0" width="96" height="96"></rect>
    </defs>
    <g id="icon" stroke="none" stroke-width="1" fill="none" fill-rule="evenodd">
        <g id="画板" transform="translate(-970.000000, -406.000000)">
            <g id="Nike-Air-Max-Bella-TR-3" transform="translate(970.000000, 406.000000)">
                <g id="#" opacity="0">
                    <use fill="#FFFFFF" fill-rule="evenodd" xlink:href="#path-1"></use>
                    <rect stroke-opacity="0.5" stroke="#DDDDDD" stroke-width="6" stroke-linejoin="square" x="3" y="3" width="90" height="90"></rect>
                    <rect stroke-opacity="0.507785184" stroke="#DDDDDD" stroke-width="12" stroke-linejoin="square" x="6" y="6" width="84" height="84"></rect>
                    <rect stroke-opacity="0.319406703" stroke="#979797" stroke-width="10" stroke-linejoin="square" x="5" y="5" width="86" height="86"></rect>
                </g>
                <path d="M57.4498291,31.3011475 C57.8132324,31.3815918 58.6716309,33.2541504 58.7402344,36.1800537 L58.7565331,37.3664636 C58.7677052,39.6094597 58.6790074,41.1051549 59.0067139,42.4230957 L59.1993809,43.1545857 C59.5213725,44.308509 59.83962,45.1210734 60.0319824,45.3638916 L60.2915424,45.6488841 C61.056131,46.4484506 63.2631531,48.5618347 65.0089111,49.1571045 C67.0627441,49.8574219 68.5550537,49.862793 69.7341309,49.6882324 C70.913208,49.5136719 73.7332764,48.1069946 74.2554932,47.0767822 C74.77771,46.0465698 74.5981445,43.4453125 74.7954102,42.690918 C74.9926758,41.9365234 75.37323,41.1040039 76.4058228,40.6511841 C77.4384155,40.1983643 77.7620239,40.3578491 77.9404907,40.3947754 C78.0594686,40.4193929 78.1457723,40.5048625 78.1994019,40.6511841 C78.5198771,40.7803752 78.6781209,40.7533976 78.6741333,40.5702515 L78.5852051,37.440918 L78.5852051,37.440918 C78.5662231,36.5540771 79.619873,35.1526489 80.894043,35.3431396 C82.1682129,35.5336304 82.7156372,36.6170654 82.2573853,38.411438 L81.309959,42.034152 C81.0304629,43.1432354 80.8109813,44.1122185 80.8086548,44.4829102 C80.8523908,44.8905029 81.2734288,46.7927744 81.3864908,47.4867805 L81.4141846,47.7205811 C81.4041138,47.9727783 82.1311035,49.6715602 82.5525513,50.9221448 C82.973999,52.1727295 83.2992554,53.8461914 83.4418335,54.5463867 C83.5844116,55.246582 83.9348755,58.8153076 83.861084,59.4092407 C83.7872925,60.0031738 70.1396484,63.1588135 68.4521484,63.7093506 C66.7646484,64.2598877 59.8137207,60.885498 58.2374268,61.1328125 C56.6611328,61.380127 43.5107422,67.0405273 32.947876,67.5117188 C22.3850098,67.9829102 14.5994873,64.8983154 12.402832,63.9677734 C10.2061768,63.0372314 10.6314697,62.4172363 10.6314697,62.1119385 C10.6314697,61.8066406 11.4672852,59.1240234 12.1228027,58.4816895 C12.7783203,57.8393555 19.5874023,56.8892822 21.8065186,56.5471191 L22.4764748,56.4320686 C24.9077834,55.9806826 29.1434215,54.8960627 29.8769531,54.5463867 L30.6444669,54.1916018 C30.8479426,54.0888928 30.9212036,54.016649 30.9212036,53.8776245 C30.9212036,53.6273804 32.4204712,52.8293457 32.5808105,52.8293457 L32.947876,52.8293457 C32.9705811,52.3299154 33.097168,52.0802002 33.3276367,52.0802002 C33.6733398,52.0802002 34.2644043,51.9991455 34.4525146,51.8807373 L34.727775,51.7378794 C35.1925215,51.5080139 36.0506321,51.0967661 36.1547852,50.9221448 L36.3526426,50.5730563 C36.4706885,50.3729443 36.6182129,50.1558838 36.7988281,50.0181885 C36.9995117,49.8651937 37.2849121,49.7638346 37.6550293,49.7141113 C37.9267578,49.5814209 38.1413574,49.520813 38.2988281,49.5322876 L38.5537109,49.5399373 C38.5861816,49.5386624 38.6136475,49.5361125 38.6361084,49.5322876 L39.5315381,49.0428735 C39.5873031,49.0136646 39.6383545,48.9873494 39.6846924,48.9639282 C40.0322266,48.788269 40.2332153,49.0530396 40.8057251,48.4591675 L41.2352009,48.0268364 C41.6610756,47.6131897 42.0650635,47.2724304 42.3474121,47.1560669 C42.723877,47.0009155 43.2553711,47.0016479 43.5255127,46.8415527 L44.3488159,46.3707275 L44.3488159,46.3707275 C44.3846639,45.9069824 44.4572957,45.6312663 44.5667114,45.5435791 L44.829896,45.3321211 C44.9903271,45.2131714 45.1875977,45.0947754 45.3928223,45.0686646 L45.7436582,45.0188452 C45.8865332,44.9950488 45.9764893,44.9727905 45.9950562,44.9514771 L46.3443069,44.5078659 C46.5136414,44.2884064 46.6878662,44.0558777 46.7229004,43.9858398 C46.7929688,43.8457642 46.8137817,43.3840942 46.8468018,43.3216553 L46.9643288,43.1629047 C47.1589699,42.9147224 47.5380096,42.4657135 47.6789551,42.4230957 C47.8042399,42.3852132 47.9112549,42.3852132 48,42.4230957 L48.6318359,41.3961792 C48.5661214,41.1504517 48.5661214,40.985616 48.6318359,40.9016724 L48.8905271,40.5996717 C49.040495,40.4335663 49.2055838,40.2654681 49.2596436,40.2574463 C49.3227132,40.2480876 49.4012858,40.2480876 49.4953613,40.2574463 L49.7419824,39.7606494 C49.8484668,39.5503271 49.9297119,39.3971191 49.9857178,39.3010254 C50.1257324,39.060791 50.2702637,38.8201294 50.3328857,38.6203003 C50.3920288,38.4315728 51.9391766,36.2635029 53.1038703,34.6896295 L54.4317835,32.8851726 C54.9273963,32.2233273 55.2851187,31.8104436 55.6518555,31.6436768 C56.2478027,31.3726807 57.0864258,31.2207031 57.4498291,31.3011475 Z M80.9765625,36.0164185 C80.2996216,35.74646 79.4333496,36.6286011 79.2456665,37.4866943 C79.0579834,38.3447876 79.1867065,40.3964844 79.2456665,40.644104 C79.2771118,40.7761678 79.3535701,40.9781535 79.4750415,41.250061 L79.574585,41.4671021 L79.4512329,41.7946167 C79.7333619,41.9841962 79.9546144,42.1953168 80.1149902,42.4279785 C80.355554,42.7769711 80.4663086,43.4200439 80.5669556,43.3963623 C80.6676025,43.3726807 80.6478882,42.4766266 80.8751831,41.6310425 C81.102478,40.7854584 81.486145,39.854187 81.675293,38.8895874 C81.8644409,37.9249878 81.6535034,36.286377 80.9765625,36.0164185 Z" id="形状" fill="#D8DFDF"></path>
                <path d="M40.7118505,56.557663 C38.4505203,61.4853151 36.2602853,65.1116725 34.1411455,67.436735 C33.7403681,67.4692919 33.342318,67.4941234 32.947876,67.5117188 C24.7043861,67.8794467 18.1524597,66.0814947 14.6284759,64.8318751 L15.1818811,64.5136042 C16.300369,63.8919455 17.9902749,63.0604395 20.25,62.0198144 C24.7334635,61.4432927 28.3798438,60.6604181 31.1891406,59.6711905 L31.7783203,59.4560547 C34.6601563,58.3645833 37.6379997,57.3984528 40.7118505,56.557663 Z" id="路径" fill="#D1D9D9"></path>
                <path d="M16.6682129,59.576416 L17.2910061,59.7064501 C19.9355671,60.2367528 24.2570989,60.8866061 24.362793,61.5678711 C24.4772949,62.3059082 19.817627,64.2397461 18.7822266,65.2651367 C18.5521376,65.4930013 18.3434154,65.7112178 18.1560601,65.9197862 L18.0162066,65.8831225 C15.2794781,65.1478099 13.3364105,64.3632538 12.402832,63.9677734 C10.2061768,63.0372314 10.6314697,62.4172363 10.6314697,62.1119385 C10.6314697,61.8066406 11.4672852,59.1240234 12.1228027,58.4816895 C12.3494413,58.259609 13.3116525,58.0007426 14.5654238,57.7429326 C14.7342411,58.4355587 15.1904229,59.2522852 16.6682129,59.576416 Z" id="路径" fill="#CCD5D6"></path>
                <path d="M12.7231445,61.2504883 C13.2981758,62.6433919 17.1657672,63.2696597 19.4625216,64.7526542 C19.1709912,64.9395839 18.93642,65.1124339 18.7822266,65.2651367 C18.5521376,65.4930013 18.3434154,65.7112178 18.1560601,65.9197862 L18.0162066,65.8831225 C15.2794781,65.1478099 13.3364105,64.3632538 12.402832,63.9677734 C10.2061768,63.0372314 10.6314697,62.4172363 10.6314697,62.1119385 C10.6314697,61.8066406 11.4672852,59.1240234 12.1228027,58.4816895 C12.2378982,58.3689088 12.5426966,58.2466411 12.9790456,58.1198426 C12.5173573,59.5019039 12.4317847,60.5447246 12.7231445,61.2504883 Z" id="路径" fill="#C2CBCC"></path>
                <path d="M57.4498291,31.3011475 C57.8132324,31.3815918 58.6716309,33.2541504 58.7402344,36.1800537 L58.7565331,37.3664636 L58.7539276,39.5443046 C58.7582594,40.6737333 58.7981734,41.5844061 59.0067139,42.4230957 L59.1993809,43.1545857 C59.5213725,44.308509 59.83962,45.1210734 60.0319824,45.3638916 L60.2915424,45.6488841 L60.6697951,46.0320682 C61.63647,46.985031 63.4959208,48.641204 65.0089111,49.1571045 C67.0627441,49.8574219 68.5550537,49.862793 69.7341309,49.6882324 C70.913208,49.5136719 73.7332764,48.1069946 74.2554932,47.0767822 C74.77771,46.0465698 74.5981445,43.4453125 74.7954102,42.690918 C74.9926758,41.9365234 75.37323,41.1040039 76.4058228,40.6511841 C77.4384155,40.1983643 77.7620239,40.3578491 77.9404907,40.3947754 C78.0594686,40.4193929 78.1457723,40.5048625 78.1994019,40.6511841 C78.5198771,40.7803752 78.6781209,40.7533976 78.6741333,40.5702515 L78.5852051,37.440918 C78.5662231,36.5540771 79.619873,35.1526489 80.894043,35.3431396 C82.1682129,35.5336304 82.7156372,36.6170654 82.2573853,38.411438 L81.309959,42.034152 L81.0562878,43.0795652 C80.9082702,43.7227473 80.8102058,44.2357824 80.8086548,44.4829102 C80.8523908,44.8905029 81.2734288,46.7927744 81.3864908,47.4867805 L81.4141846,47.7205811 C81.4042923,47.9683077 82.1055607,49.6117868 82.5298563,50.8552263 L69.1264648,54.7411257 L44.0866699,55.135498 L30.2248535,67.6816406 L27.3259277,67.5471191 C28.7080892,65.4807129 30.1269531,63.6560872 31.5825195,62.0732422 C33.0380859,60.4903971 35.3381348,58.286377 38.482666,55.4611816 C36.1517941,55.6227729 34.2062847,55.6163312 33.7873535,55.5600586 C33.2388958,55.4863874 32.2080826,55.0209459 30.6949141,54.163734 L30.6444669,54.1916018 C30.8479426,54.0888928 30.9212036,54.016649 30.9212036,53.8776245 C30.9212036,53.6273804 32.4204712,52.8293457 32.5808105,52.8293457 L32.947876,52.8293457 C32.9705811,52.3299154 33.097168,52.0802002 33.3276367,52.0802002 C33.6733398,52.0802002 34.2644043,51.9991455 34.4525146,51.8807373 L34.727775,51.7378794 L35.356062,51.4248035 C35.7300791,51.2328536 36.0896895,51.0312831 36.1547852,50.9221448 L36.3526426,50.5730563 C36.4706885,50.3729443 36.6182129,50.1558838 36.7988281,50.0181885 C36.9995117,49.8651937 37.2849121,49.7638346 37.6550293,49.7141113 C37.9267578,49.5814209 38.1413574,49.520813 38.2988281,49.5322876 L38.5537109,49.5399373 C38.5861816,49.5386624 38.6136475,49.5361125 38.6361084,49.5322876 L39.6846924,48.9639282 C40.0322266,48.788269 40.2332153,49.0530396 40.8057251,48.4591675 L41.2352009,48.0268364 C41.6610756,47.6131897 42.0650635,47.2724304 42.3474121,47.1560669 C42.723877,47.0009155 43.2553711,47.0016479 43.5255127,46.8415527 L44.3488159,46.3707275 C44.3846639,45.9069824 44.4572957,45.6312663 44.5667114,45.5435791 L44.829896,45.3321211 C44.9903271,45.2131714 45.1875977,45.0947754 45.3928223,45.0686646 L45.7436582,45.0188452 L45.9159727,44.98423 C45.958642,44.9730267 45.9857727,44.9621338 45.9950562,44.9514771 L46.5406345,44.2494771 C46.6307507,44.128382 46.7018799,44.0278625 46.7229004,43.9858398 C46.7929688,43.8457642 46.8137817,43.3840942 46.8468018,43.3216553 L46.9643288,43.1629047 L47.2047882,42.8702698 C47.3852081,42.6605377 47.5849915,42.4515076 47.6789551,42.4230957 C47.8042399,42.3852132 47.9112549,42.3852132 48,42.4230957 L48.6318359,41.3961792 C48.5661214,41.1504517 48.5661214,40.985616 48.6318359,40.9016724 L48.8905271,40.5996717 L49.069673,40.4097611 C49.1548014,40.3247 49.2272077,40.2622593 49.2596436,40.2574463 C49.3227132,40.2480876 49.4012858,40.2480876 49.4953613,40.2574463 L49.7419824,39.7606494 L49.9857178,39.3010254 C50.0790609,39.1408691 50.1744113,38.980523 50.2461616,38.8322121 L50.3328857,38.6203003 C50.3788859,38.4735122 51.3250371,37.1293442 52.2912743,35.7986657 L54.4317835,32.8851726 C54.9273963,32.2233273 55.2851187,31.8104436 55.6518555,31.6436768 C56.2478027,31.3726807 57.0864258,31.2207031 57.4498291,31.3011475 Z M79.2456665,37.4866943 C79.0579834,38.3447876 79.1867065,40.3964844 79.2456665,40.644104 C79.2771118,40.7761678 79.3535701,40.9781535 79.4750415,41.250061 L79.574585,41.4671021 L79.4512329,41.7946167 C79.7333619,41.9841962 79.9546144,42.1953168 80.1149902,42.4279785 C80.355554,42.7769711 80.4663086,43.4200439 80.5669556,43.3963623 C80.6676025,43.3726807 80.6478882,42.4766266 80.8751831,41.6310425 C81.102478,40.7854584 81.486145,39.854187 81.675293,38.8895874 C81.8644409,37.9249878 81.6535034,36.286377 80.9765625,36.0164185 C80.2996216,35.74646 79.4333496,36.6286011 79.2456665,37.4866943 Z" id="形状" fill="#CBD4D4"></path>
                <path d="M58.7542569,38.1249343 L58.7539276,39.5443046 C58.7582594,40.6737333 58.7981734,41.5844061 59.0067139,42.4230957 L59.1993809,43.1545857 L59.4317981,43.932363 C59.4698387,44.0508114 59.5073852,44.1633956 59.5442183,44.2697057 L59.4936371,44.5841312 C58.2942454,43.5313299 57.4384511,42.9656556 56.9262543,42.8871082 C56.297649,42.7907091 52.9648511,43.1936404 50.7468935,44.143471 L50.5619277,44.2269343 L52.6565463,42.8001845 C54.8154155,41.3108801 57.2740995,39.5632864 57.6961021,39.1457206 L57.7454681,39.0910737 C57.914062,38.862114 58.3198519,38.4520618 58.7542569,38.1249343 Z" id="路径" fill="#BAC3C3"></path>
                <path d="M57.4498291,31.3011475 C57.8132324,31.3815918 58.6716309,33.2541504 58.7402344,36.1800537 L58.7440475,36.4033155 C58.6287115,36.9227104 58.4760355,37.3183979 58.3168945,37.4814453 C57.6985182,38.1150008 54.0896305,40.9485523 51.588077,42.6608718 L51.2542046,42.8871082 C49.0531781,44.3623533 44.1767913,47.4113951 42.2249122,48.6831947 L41.6037598,49.0958355 C40.4873913,49.8663176 32.8415184,53.5620272 31.6035666,54.2770349 L31.4431152,54.3804995 C31.2859877,54.5286146 31.0648305,54.3382426 30.8327744,54.0739112 C30.8954325,54.0190448 30.9212036,53.9600804 30.9212036,53.8776245 C30.9212036,53.6273804 32.4204712,52.8293457 32.5808105,52.8293457 L32.947876,52.8293457 C32.9705811,52.3299154 33.097168,52.0802002 33.3276367,52.0802002 C33.6733398,52.0802002 34.2644043,51.9991455 34.4525146,51.8807373 L34.727775,51.7378794 L35.356062,51.4248035 L35.7149025,51.2334265 C35.9370955,51.1087435 36.111388,50.9949037 36.1547852,50.9221448 L36.3526426,50.5730563 C36.4706885,50.3729443 36.6182129,50.1558838 36.7988281,50.0181885 C36.9995117,49.8651937 37.2849121,49.7638346 37.6550293,49.7141113 C37.9267578,49.5814209 38.1413574,49.520813 38.2988281,49.5322876 L38.5537109,49.5399373 C38.5861816,49.5386624 38.6136475,49.5361125 38.6361084,49.5322876 L39.6846924,48.9639282 C40.0322266,48.788269 40.2332153,49.0530396 40.8057251,48.4591675 L41.2352009,48.0268364 C41.6610756,47.6131897 42.0650635,47.2724304 42.3474121,47.1560669 C42.723877,47.0009155 43.2553711,47.0016479 43.5255127,46.8415527 L44.3488159,46.3707275 C44.3846639,45.9069824 44.4572957,45.6312663 44.5667114,45.5435791 L44.829896,45.3321211 C44.9903271,45.2131714 45.1875977,45.0947754 45.3928223,45.0686646 L45.7436582,45.0188452 L45.9159727,44.98423 C45.958642,44.9730267 45.9857727,44.9621338 45.9950562,44.9514771 L46.5406345,44.2494771 L46.6863297,44.045957 C46.7033191,44.0203546 46.7158936,43.9998474 46.7229004,43.9858398 C46.7929688,43.8457642 46.8137817,43.3840942 46.8468018,43.3216553 L46.9643288,43.1629047 L47.2047882,42.8702698 C47.3852081,42.6605377 47.5849915,42.4515076 47.6789551,42.4230957 C47.8042399,42.3852132 47.9112549,42.3852132 48,42.4230957 L48.6318359,41.3961792 C48.5661214,41.1504517 48.5661214,40.985616 48.6318359,40.9016724 L48.8905271,40.5996717 L49.069673,40.4097611 C49.1548014,40.3247 49.2272077,40.2622593 49.2596436,40.2574463 C49.3227132,40.2480876 49.4012858,40.2480876 49.4953613,40.2574463 L49.7419824,39.7606494 L49.9857178,39.3010254 C50.0790609,39.1408691 50.1744113,38.980523 50.2461616,38.8322121 L50.3328857,38.6203003 C50.3788859,38.4735122 51.3250371,37.1293442 52.2912743,35.7986657 L54.4317835,32.8851726 C54.9273963,32.2233273 55.2851187,31.8104436 55.6518555,31.6436768 C56.2478027,31.3726807 57.0864258,31.2207031 57.4498291,31.3011475 Z" id="路径" fill="#C6CFD1"></path>
                <path d="M57.1883274,32.1035156 C57.6545264,32.3559238 58.0682201,32.8242165 58.4294085,33.5083937 C58.5936187,34.2473433 58.7160404,35.1481956 58.7402344,36.1800537 L58.7565331,37.3664636 L58.7542803,38.9096158 L57.8400994,39.698974 C57.1153843,40.312962 56.4833829,40.8174013 55.94378,41.2121244 L55.6311035,41.435791 C54.3991699,42.2956216 45.0100098,48.2753906 43.5842243,48.7356839 C42.1584388,49.1959772 41.6660156,48.9064941 42.4047852,48.5936956 C43.1000977,48.2992969 45.5525287,45.4599384 46.6633301,44.4978027 L48.381958,42.8051758 C49.6624216,41.7313784 51.1056213,41.1807447 52.0928955,39.9830322 C53.4184664,38.3749148 54.9682386,36.1965796 55.2956729,34.7711011 L55.3620605,34.4245605 C55.5083822,33.4530436 56.1171378,32.679362 57.1883274,32.1035156 Z" id="路径" fill="#BAC6C8"></path>
                <path d="M50.5108643,38.7559814 C50.7337646,38.7246094 50.7603149,39.6846924 51.0081177,39.5548096 C51.2559204,39.4249268 53.8277588,37.6021729 54.8085937,37.1969604 C55.7894287,36.791748 56.2475586,36.8034668 56.1099854,36.9541626 C55.9724121,37.1048584 53.5428467,38.8049316 52.8988647,39.3370972 C52.2548828,39.8692627 51.3738403,40.7293701 51.0081177,41.0678101 C50.642395,41.40625 50.1891651,41.4823608 50.1903398,40.8447266 C50.1915283,40.2070923 50.2879639,38.7873535 50.5108643,38.7559814 Z" id="路径-731" fill="#97A2A3"></path>
                <path d="M52.8988647,39.3370972 C52.2548828,39.8692627 51.3738403,40.7293701 51.0081177,41.0678101 C50.642395,41.40625 50.1891651,41.4823608 50.1903375,40.8447266 C50.1913194,40.3191764 50.2570038,39.2623141 50.4048725,38.8894341 C50.1866358,39.8456519 50.3173301,40.2672059 50.7961426,40.1572266 C51.3139937,40.0382804 52.778397,39.2004432 55.1893522,37.6437148 L53.4932364,38.8797602 C53.2426433,39.0662334 53.0323785,39.2267658 52.8988647,39.3370972 Z" id="路径" fill="#7E8888"></path>
                <path d="M57.7641602,36.2922363 C56.0981445,37.9935213 54.6298014,39.4092804 53.3591309,40.5395135 C51.453125,42.2348633 50.1071777,42.0515137 48.6899414,43.3416748 C47.2727051,44.6318359 47.2945557,45.1534424 46.5177002,46.0487061 C45.7408447,46.9439697 45.3958977,47.2824624 44.3271484,47.8857422 C43.6146489,48.2879287 42.8601991,48.6511851 42.0637989,48.9755114 C42.6012711,49.1359436 43.1521707,49.1359436 43.7164977,48.9755114 C44.5629883,48.7348633 53.4006348,43.484375 54.4365234,42.5368652 C55.1271159,41.9051921 56.4309896,40.6240641 58.3481445,38.6934814 L57.7641602,36.2922363 Z" id="路径-730" fill="#9DA9AC"></path>
                <path d="M57.4719238,42.9666748 C57.4903564,42.65271 56.6418457,41.2313232 55.2990723,40.8033447 C54.5475385,40.5638104 50.7390834,42.3566986 49.0546875,43.800415 C48.5190025,44.2595573 48.1381241,45.0073209 47.623291,45.6291504 C46.8645733,46.5455504 46.0336761,47.3205778 45.7746582,47.574707 C44.7872314,48.5434975 50.3244629,45.2790936 51.5400391,44.5783691 C52.2951192,44.1430997 53.4525043,43.6527049 55.6403809,42.8696289 C56.0036338,42.7396149 57.4534912,43.2806396 57.4719238,42.9666748 Z" id="路径-733" fill="#8E9A9D"></path>
                <path d="M53.9631805,41.9301758 C54.4340769,41.8499349 55.4217682,42.1689124 56.9262543,42.8871082 L56.8454887,43.0172847 L56.2485963,42.9024434 C55.9888829,42.8557065 55.7578326,42.827591 55.6403809,42.8696289 L54.2826117,43.3679182 C53.0740371,43.8252866 52.2898859,44.1686508 51.7217158,44.4768357 L50.4478958,45.1925182 C49.7438333,45.5795977 46.9619609,47.2045844 46.4361572,47.4356689 C47.8086344,46.0413818 48.667806,45.105306 49.0136719,44.6274414 C49.5324707,43.9106445 50.7370875,43.3017763 51.7508545,42.8317871 C52.7897676,42.35014 53.6056818,41.9910937 53.9631805,41.9301758 Z" id="路径" fill="#768184"></path>
                <path d="M53.7891846,46.7167093 C54.2633057,46.7238159 56.8308105,45.6208496 57.0455322,45.3861084 C57.2602539,45.1513672 57.1962891,44.6091309 56.9499512,44.1072998 C56.7036133,43.6054687 56.3112183,43.258606 56.1397705,43.0725098 C55.9683228,42.8864136 54.6672109,42.8188477 54.5030518,42.8071289 C54.3388927,42.7954102 52.8097534,43.7489014 52.371521,43.9718018 C51.9332886,44.1947021 50.9570923,44.8120117 51.220459,45.303894 C51.4838257,45.7957764 53.3150635,46.7095337 53.7891846,46.7167093 Z" id="路径-712" fill="#81908F"></path>
                <path d="M53.8017578,46.5389749 C54.2758789,46.5460815 56.8433838,45.4431152 57.0581055,45.208374 C57.2728271,44.9736328 57.2088623,44.4313965 56.9625244,43.9295654 C56.7161865,43.4277344 56.3237915,43.0808716 56.1523438,42.8947754 C55.980896,42.7086792 54.6797841,42.6411133 54.515625,42.6293945 C54.3514659,42.6176758 52.8223267,43.571167 52.3840942,43.7940674 C51.9458618,44.0169678 50.9696655,44.6342773 51.2330322,45.1261597 C51.4963989,45.618042 53.3276367,46.5317993 53.8017578,46.5389749 Z" id="路径-712" fill="#D8DFDF"></path>
                <path d="M55.3458862,43.4015198 C55.5266113,43.4017334 55.9520104,44.335921 55.9684448,44.4744568 C55.9848793,44.6129926 55.5620117,44.8256226 55.4928284,44.7330322 C55.423645,44.6404419 54.9497715,43.871238 54.9310303,43.7132568 C54.912289,43.5552757 55.1651611,43.4013062 55.3458862,43.4015198 Z" id="路径-717" fill="#474D4F"></path>
                <path d="M53.5015869,44.1324463 C53.682312,44.1326599 53.9431603,45.223891 53.9595947,45.3624268 C53.9760292,45.5009625 53.5531616,45.7135925 53.4839783,45.6210022 C53.4147949,45.5284119 53.1054722,44.6021645 53.086731,44.4441833 C53.0679897,44.2862022 53.3208618,44.1322327 53.5015869,44.1324463 Z" id="路径-717" fill="#474D4F"></path>
                <path d="M32.4494019,54.5066528 C32.3670044,54.4812622 31.6280518,54.2625732 32.1442261,53.8191528 C32.6604004,53.3757324 41.2356567,48.9373169 41.4900513,48.8987427 C41.6806562,48.869841 43.1017969,49.4671049 43.574585,49.9015503 C43.7328125,50.0469457 43.5904666,50.2720475 43.5200195,50.3184204 C43.2390747,50.5033569 39.9980469,52.114502 39.7886963,52.1837158 C39.5793457,52.2529297 38.0825195,52.020752 37.9762573,52.090332 C37.8699951,52.1599121 37.6619263,52.7042236 37.5378418,52.8212891 C37.4137573,52.9383545 34.3325195,54.4404907 34.2322998,54.5066528 C34.1320801,54.5728149 32.5317993,54.5320435 32.4494019,54.5066528 Z" id="路径-707" fill="#8B9395"></path>
                <path d="M32.387207,54.3446045 C32.3048096,54.3192139 31.5658569,54.1005249 32.0820313,53.6571045 C32.5982056,53.2136841 41.1734619,48.7752686 41.4278564,48.7366943 C41.6184614,48.7077926 43.039602,49.3050565 43.5123901,49.739502 C43.6706177,49.8848974 43.5282718,50.1099991 43.4578247,50.1563721 C43.1768799,50.3413086 39.9358521,51.9524536 39.7265015,52.0216675 C39.5171509,52.0908813 38.0203247,51.8587036 37.9140625,51.9282837 C37.8078003,51.9978638 37.5997314,52.5421753 37.475647,52.6592407 C37.3515625,52.7763062 34.2703247,54.2784424 34.170105,54.3446045 C34.0698853,54.4107666 32.4696045,54.3699951 32.387207,54.3446045 Z" id="路径-707" fill="#DADFE0"></path>
                <path d="M33.7185669,53.4597473 C33.7174683,53.4949646 33.861084,53.8178682 34.1323547,53.7754655 C34.4036255,53.7330627 34.6891174,53.6517029 34.7388306,53.5518188 C34.7885437,53.4519348 34.8815613,53.2666931 34.6786194,53.2606506 C34.4756775,53.2546082 33.7196655,53.42453 33.7185669,53.4597473 Z" id="路径-742" fill="#474D4F"></path>
                <path d="M35.9133911,52.4197693 C35.8653564,52.5118408 35.979248,52.7440462 36.2505188,52.7016434 C36.5217896,52.6592407 36.7515259,52.5411987 36.801239,52.4413147 C36.8469154,52.3495413 36.8443604,52.187439 36.6414185,52.1813965 C36.4384766,52.175354 35.9614258,52.3276978 35.9133911,52.4197693 Z" id="路径-742" fill="#474D4F"></path>
                <path d="M39.2286377,51.0454712 C39.180603,51.1375427 39.2944946,51.3697481 39.5657654,51.3273453 C39.8370361,51.2849426 40.0667725,51.1669006 40.1164856,51.0670166 C40.162162,50.9752432 40.1596069,50.8131409 39.956665,50.8070984 C39.7537231,50.8010559 39.2766724,50.9533997 39.2286377,51.0454712 Z" id="路径-742" fill="#474D4F"></path>
                <path d="M41.4218445,50.2253418 C41.3738098,50.3174133 41.4877014,50.5496187 41.7589722,50.507216 C42.0302429,50.4648132 42.2599792,50.3467712 42.3096924,50.2468872 C42.3553688,50.1551138 42.3528137,49.9930115 42.1498718,49.986969 C41.9469299,49.9809265 41.4698792,50.1332703 41.4218445,50.2253418 Z" id="路径-742" fill="#474D4F"></path>
                <path d="M34.2609028,51.957646 L34.4187012,52.2924013 C34.533393,52.5531887 34.6730143,52.8959351 34.7094727,53.0065308 C34.7641602,53.1724243 34.510437,53.6118774 34.498291,53.680481 C34.486145,53.7490845 34.1367187,53.6306763 34.0345459,53.5667725 C33.932373,53.5028687 33.6829224,53.5976563 33.4837646,53.4847412 C33.3372942,53.4016979 33.0839933,53.1096634 32.9268385,52.8287648 L32.947876,52.8293457 C32.9705811,52.3299154 33.097168,52.0802002 33.3276367,52.0802002 C33.5918811,52.0802002 33.9994798,52.0328433 34.2609028,51.957646 Z M38.2988281,49.5322876 L38.472471,49.5395416 L38.8181152,49.7369385 L39.3402959,50.0535437 C39.4284668,50.1025255 39.5186157,50.1457113 39.612854,50.1772461 C39.8955688,50.2718506 39.9243164,50.5747681 39.9983521,50.8505995 C40.0477091,51.0344871 39.9631144,51.1570819 39.7445679,51.2183838 C39.5578003,51.1614583 39.320048,51.131429 39.031311,51.1282959 C38.5982056,51.1235962 38.331665,50.8864136 37.9100342,50.6920776 L37.2912598,50.4025879 L36.6968994,52.2056885 L36.6259287,52.4955727 C36.5961478,52.5954449 36.543832,52.6488134 36.3694458,52.6241455 C36.06427,52.5809767 35.9152832,52.3491211 35.8533936,52.2056885 C35.7915039,52.0622559 35.7406006,51.6307373 35.8533936,51.2183838 L35.8773503,51.141577 C36.0214573,51.0504229 36.1230719,50.9753148 36.1547852,50.9221448 L36.3526426,50.5730563 C36.4706885,50.3729443 36.6182129,50.1558838 36.7988281,50.0181885 C36.9995117,49.8651937 37.2849121,49.7638346 37.6550293,49.7141113 C37.9267578,49.5814209 38.1413574,49.520813 38.2988281,49.5322876 Z M43.6243775,46.784341 L43.7077026,47.1745605 C43.7531738,47.4337769 44.741394,47.8204346 45.104187,48 C45.46698,48.1795654 46.1513062,49.0543213 46.159668,49.4199973 C46.1643134,49.6231507 46.0291008,49.8844611 45.75403,50.2039286 L45.5722046,50.4025879 L45.414978,49.9885864 C45.0667521,49.4791056 44.7678019,49.1292318 44.5181274,48.9389648 L44.2013083,48.7103045 C43.7702644,48.4101773 43.1834446,48.0333252 43.062439,48 C42.9587199,47.9714355 42.8175252,47.9714355 42.638855,48 L42.3827362,48.9487798 C42.3142649,49.1854461 42.2626953,49.3425186 42.2280273,49.4199973 C42.1240234,49.6524336 42.1583862,50.0578613 42.2280273,50.1772461 C42.2976685,50.2966309 42.048584,50.4112549 41.739624,50.4025879 C41.4306641,50.3939209 41.3234253,50.1271362 41.2809448,49.9885864 C41.2566703,49.9094151 41.2930422,49.6920303 41.3414433,49.4550772 L41.4501343,48.9389648 C41.5185547,48.5897217 41.65448,48.0378418 42.0002441,47.6439209 C42.288675,47.3153185 42.4528325,47.2443942 42.9027425,47.0149575 L43.2497337,46.9443564 C43.356227,46.9177615 43.4508515,46.8857995 43.5255127,46.8415527 L43.6243775,46.784341 Z M45.8648385,44.9956369 L46.022583,45.0482788 C46.6737671,45.2759399 48.1072998,45.9935303 48.4102173,46.4503784 C48.7131348,46.9072266 48.1351318,47.6107788 48,47.6439209 C47.8648682,47.677063 46.9852295,46.8675537 46.2526245,46.3354492 C45.6665405,45.9097656 44.9562378,45.8122852 44.5804663,45.8237578 L44.4250504,45.8361454 C44.4621781,45.6870326 44.5093984,45.5895105 44.5667114,45.5435791 L44.829896,45.3321211 C44.9903271,45.2131714 45.1875977,45.0947754 45.3928223,45.0686646 L45.7436582,45.0188452 L45.8648385,44.9956369 Z M47.982315,42.4156803 L48,42.4230957 C48.2366663,42.4370404 48.0858926,42.582638 48.4968626,42.6292874 L49.1163493,42.6932797 C49.2657238,42.7142009 49.4662543,42.7513224 49.8710938,42.8361206 C50.7819824,43.0269165 52.9741821,43.9900513 53.3361206,44.1306763 C53.6463536,44.251212 53.6341715,44.5437392 53.7116096,44.8182119 L53.7597046,44.953064 C53.8982544,45.2601022 53.8083496,45.4432373 53.6955566,45.515686 C53.5827637,45.5881348 53.1408691,45.1519165 52.9196167,45.1154175 L52.5162851,45.0407909 C52.2020934,44.9751584 51.7560985,44.8642519 51.2702716,44.6831447 L50.9747314,44.5658569 C50.078186,44.1875247 48.5966797,43.6704712 47.7631836,43.5968628 C47.1961794,43.5467891 46.9714795,43.7021712 46.7677279,43.8171796 L46.8328661,43.3725279 C46.8373889,43.3485183 46.8419643,43.3308026 46.8468018,43.3216553 L46.9643288,43.1629047 L47.2047882,42.8702698 C47.3639823,42.6852121 47.5382516,42.5007008 47.6416014,42.4403302 L47.9007202,42.4161965 C47.9318609,42.4147897 47.9588179,42.4146752 47.982315,42.4156803 Z M49.4953613,40.2574463 L49.6688522,40.3565249 C50.1450539,40.5979891 51.0835266,40.9135437 51.6976929,41.3478394 C52.3995972,41.8441772 54.8233643,42.934082 55.1069946,43.2164307 C55.3338989,43.4423096 55.3277954,43.5005322 55.4153403,43.6565986 L55.5036621,43.7961426 C55.6971436,44.0731201 55.7851563,44.4219971 55.71875,44.5841312 C55.6523438,44.7462653 55.5002441,44.5914307 55.3829956,44.3914795 C55.2657471,44.1915283 54.8423462,44.0496826 54.1884861,43.7125244 C53.6436026,43.4315592 52.9130084,43.2123498 52.2215508,42.8589776 L51.8131714,42.6292874 C51.3330688,42.3305782 50.6687695,42.058154 50.136772,41.8627352 L49.0309015,41.4855571 C48.9085114,41.4459915 48.7710455,41.4044389 48.6283918,41.3695927 L48.6318359,41.3961792 C48.5661214,41.1504517 48.5661214,40.985616 48.6318359,40.9016724 L48.8905271,40.5996717 L49.069673,40.4097611 C49.1548014,40.3247 49.2272077,40.2622593 49.2596436,40.2574463 C49.3227132,40.2480876 49.4012858,40.2480876 49.4953613,40.2574463 Z" id="形状结合" fill="#E0E6E8"></path>
                <path d="M33.1204566,52.1757545 L33.1215074,52.4016073 C33.1341304,52.6565621 33.1908162,52.8438157 33.2915649,52.9633681 C33.5182495,53.2323608 33.8970337,53.3663025 34.1189575,53.2994537 C34.2428447,53.262136 34.4273148,53.1319215 34.6723678,52.9088103 L34.7094727,53.0065308 L34.7094727,53.0065308 C34.7641602,53.1724243 34.510437,53.6118774 34.498291,53.680481 C34.486145,53.7490845 34.1367187,53.6306763 34.0345459,53.5667725 C33.932373,53.5028687 33.6829224,53.5976562 33.4837646,53.4847412 C33.3372942,53.4016979 33.0839933,53.1096634 32.9268385,52.8287648 L32.947876,52.8293457 C32.9624721,52.5082833 33.019999,52.2904196 33.1204566,52.1757545 Z M37.5278931,49.8603516 C37.4162801,50.1494548 37.3844604,50.3033244 37.4324341,50.3219604 L37.7817315,50.4760267 C38.1541273,50.6385973 38.7148641,50.8724569 38.9196167,50.8870239 C39.2267456,50.9088745 39.5750122,50.7480469 39.6135254,50.5949097 L39.7073282,50.2295393 L39.7073282,50.2295393 L39.612854,50.1772461 C39.8955688,50.2718506 39.9243164,50.5747681 39.9983521,50.8505995 C40.0477091,51.0344871 39.9631144,51.1570819 39.7445679,51.2183838 C39.5578003,51.1614583 39.320048,51.131429 39.031311,51.1282959 C38.5982056,51.1235962 38.331665,50.8864136 37.9100342,50.6920776 L37.2912598,50.4025879 L36.6968994,52.2056885 L36.6259287,52.4955727 C36.5961478,52.5954449 36.543832,52.6488134 36.3694458,52.6241455 C36.06427,52.5809767 35.9152832,52.3491211 35.8533936,52.2056885 C35.7915039,52.0622559 35.7406006,51.6307373 35.8533936,51.2183838 L35.8773503,51.141577 C36.0214573,51.0504229 36.1230719,50.9753148 36.1547852,50.9221448 L36.2050237,50.8321328 L36.1278629,51.1579786 C36.1174815,51.2075201 36.1083395,51.2546785 36.1004368,51.2994537 C36.0203247,51.7533569 36.0863037,52.4195862 36.3046265,52.1444855 C36.4792847,51.9244049 36.6773804,51.6085333 36.8396948,51.2471676 L36.9537964,50.968399 C37.0710653,50.6509247 37.2624308,50.2815755 37.5278931,49.8603516 Z M43.2908943,47.120007 C43.0099693,47.4748306 42.912557,47.685798 42.9986572,47.7529095 C43.1278076,47.8535767 44.29245,48.4078302 44.6225433,48.7356839 L45.0548364,49.1579203 C45.3106294,49.4002113 45.5620984,49.6187744 45.6573738,49.6306763 C45.7314769,49.6399333 45.8939638,49.6051022 46.1448346,49.526183 L46.159668,49.4199973 C46.1643134,49.6231507 46.0291008,49.8844611 45.75403,50.2039286 L45.5722046,50.4025879 L45.414978,49.9885864 C45.0667521,49.4791056 44.7678019,49.1292318 44.5181274,48.9389648 L44.2013083,48.7103045 C43.7702644,48.4101773 43.1834446,48.0333252 43.062439,48 C42.9587199,47.9714355 42.8175252,47.9714355 42.638855,48 L42.3827362,48.9487798 L42.2927055,49.2440839 C42.2669207,49.3226201 42.2453613,49.3812579 42.2280273,49.4199973 C42.1240234,49.6524336 42.1583862,50.0578613 42.2280273,50.1772461 C42.2976685,50.2966309 42.048584,50.4112549 41.739624,50.4025879 C41.4306641,50.3939209 41.3234253,50.1271362 41.2809448,49.9885864 C41.2566703,49.9094151 41.2930422,49.6920303 41.3414433,49.4550772 L41.4501343,48.9389648 C41.4850386,48.7608002 41.5375109,48.5298998 41.6264481,48.2941378 L41.5574453,48.9110992 C41.5234383,49.2452862 41.5083182,49.4851452 41.512085,49.6306763 C41.5219727,50.0126953 41.7984619,49.7754517 41.9151611,49.6361084 C42.0318604,49.4967651 42.4899902,47.9979454 42.7199707,47.7529095 L43.2908943,47.120007 L43.2908943,47.120007 Z M45.7745819,45.9082642 L47.6066059,47.0177144 C47.7800788,47.1246862 47.8978459,47.1993455 47.9123993,47.2136841 L48.2106362,47.4480113 L48.2106362,47.4480113 C48.125591,47.5596099 48.0417045,47.6336926 48,47.6439209 C47.8648682,47.677063 46.9852295,46.8675537 46.2526245,46.3354492 C46.0372639,46.1790288 45.8051307,46.066924 45.5789862,45.9882563 C45.4944248,45.8337054 45.4211495,45.6573389 45.453064,45.5237892 C45.5134888,45.2709351 45.7010193,45.8598022 45.7745819,45.9082642 Z" id="形状" fill="#A2B0B6"></path>
                <path d="M47.8364521,42.8871082 L48.1555248,43.453125 C48.2011743,43.5294189 48.343516,43.5758141 48.58255,43.5923103 C48.9411011,43.6170547 50.2960205,44.1218872 50.7630324,44.3479004 C51.2300443,44.5739136 52.7491822,44.8877362 53.1032715,44.9147949 C53.4573608,44.9418537 53.3189602,44.661438 53.1792603,44.2512207 C53.1517404,44.170411 52.9711866,44.0336186 52.6948874,43.864833 L53.3361206,44.1306763 C53.6463536,44.251212 53.6341715,44.5437392 53.7116096,44.8182119 L53.7597046,44.953064 C53.8982544,45.2601022 53.8083496,45.4432373 53.6955566,45.515686 C53.5827637,45.5881348 53.1408691,45.1519165 52.9196167,45.1154175 L52.5162851,45.0407909 L52.0818757,44.9387051 C51.8389244,44.8752011 51.5617677,44.7918091 51.2702716,44.6831447 L50.9747314,44.5658569 C50.1983416,44.2382291 48.9832777,43.8065712 48.1302503,43.6489514 L48.008851,43.3662755 L47.8364521,42.8871082 Z M55.4153403,43.6565986 L55.5036621,43.7961426 C55.6971436,44.0731201 55.7851563,44.4219971 55.71875,44.5841312 C55.6523438,44.7462653 55.5002441,44.5914307 55.3829956,44.3914795 C55.3243713,44.2915039 55.189209,44.2060547 54.9869702,44.1034546 L54.1884861,43.7125244 C54.043375,43.637699 53.8850926,43.5672535 53.7178857,43.4974874 L54.2103976,43.6752111 C54.7711758,43.8668383 55.2525446,43.9948879 55.3285522,43.9694038 C55.4353507,43.933596 55.2431609,43.523628 55.0560148,43.1751689 L55.1069946,43.2164307 C55.3338989,43.4423096 55.3277954,43.5005322 55.4153403,43.6565986 Z M48.5899992,41.1833881 C48.7888178,41.1902935 49.1007687,41.3646365 49.6393433,41.5742798 L50.4644934,41.8864435 C51.0325988,42.1060052 51.7072583,42.3868737 52.1071696,42.6511038 L52.3110962,42.8070218 C52.4478795,42.9336978 52.7263575,43.0837278 53.0614112,43.2332564 C52.7865526,43.1225695 52.5008588,43.0017191 52.2215508,42.8589776 L51.8131714,42.6292874 C51.3330688,42.3305782 50.6687695,42.058154 50.136772,41.8627352 L49.0309015,41.4855571 C48.9085114,41.4459915 48.7710455,41.4044389 48.6283918,41.3695927 L48.6318359,41.3961792 L48.5899992,41.1833881 Z" id="形状" fill="#A2B0B6"></path>
                <path d="M30.9767318,53.7754655 C32.1193858,54.5033491 33.1261247,54.9029417 33.9969482,54.9742432 C35.4580078,55.0938721 40.6224976,54.5637817 41.4345093,54.4868774 C41.4973173,54.480929 41.7951677,54.1479666 41.8186035,54.15979 C42.1101685,54.3068848 42.4204712,54.559082 42.5334473,54.6538086 C42.6464233,54.7485352 41.4363403,56.3029785 41.1942749,56.3459473 C41.1316685,56.3570605 40.5315552,56.0880737 40.3501601,56.0178624 C38.3507837,56.1527098 35.0073242,56.3669434 32.9538574,56.0592041 C31.2690192,55.8067087 30.3317556,55.0346657 29.8683745,54.5466894 L29.8769531,54.5463867 L30.6444669,54.1916018 C30.8479426,54.0888928 30.9212036,54.016649 30.9212036,53.8776245 L30.9507959,53.80443 L30.9767318,53.7754655 Z" id="路径" fill="#C1C7C7"></path>
                <path d="M79.0717773,40.9956055 C79.2326096,41.1189453 79.3853545,41.2413189 79.530012,41.3627262 L79.574585,41.4671021 L79.4512329,41.7946167 C79.7333619,41.9841962 79.9546144,42.1953168 80.1149902,42.4279785 C80.355554,42.7769711 80.4663086,43.4200439 80.5669556,43.3963623 C80.6300568,43.3815149 80.6458472,43.0237602 80.7048615,42.550524 C80.8465191,42.7217017 80.9643235,42.8922693 81.0638598,43.0606543 L80.9427349,43.595825 C80.860112,43.9942035 80.8097627,44.3063903 80.8086548,44.4829102 C80.8523908,44.8905029 81.2734288,46.7927744 81.3864908,47.4867805 L81.4141846,47.7205811 C81.4092384,47.8444444 81.5820825,48.3172458 81.8092,48.9145114 L81.784032,48.9755114 C81.3435059,49.8330078 72.5579935,54.0333557 68.6812184,54.0308438 C66.0967017,54.0289983 60.2487793,52.1986491 51.1374512,48.5397949 C53.7055185,46.6985907 55.9434742,45.9463121 57.8513184,46.282959 C60.7130845,46.7879293 64.3787842,50.6412811 67.0349121,50.6992188 C69.69104,50.7571564 75.869288,48.5096743 76.9453125,47.6865234 C77.9700977,46.9025702 78.7539114,45.6165738 77.3721795,45.1017916 L77.1484375,45.0305176 C75.4651846,44.5743161 76.2976074,42.9496155 77.1328125,42.1230469 C77.6896159,41.5720011 78.3359375,41.1961873 79.0717773,40.9956055 Z" id="路径" fill="#BFC6C7"></path>
                <path d="M53.1591797,46.9458008 C55.4753387,47.1459509 57.677995,47.7425787 59.7671485,48.7356839 C62.9008789,50.2253418 64.9376599,51.6383972 66.192829,51.7940521 C67.0296084,51.8978221 68.2355143,51.7785695 69.8105469,51.4362946 L70.1397125,52.3377228 C67.1324617,53.0247854 65.059634,53.2937063 63.9212296,53.1444855 C62.213623,52.9206543 53.7002869,48.7165527 52.3035126,48 C51.3723297,47.5222982 51.6575521,47.1708984 53.1591797,46.9458008 Z" id="路径-739" fill="#8E8E8E"></path>
                <path d="M81.282487,46.9230228 L81.3864908,47.4867805 L81.4185033,47.7717487 L81.4185033,47.7717487 L81.434023,47.8450299 C81.4622242,47.958478 81.5186945,48.1281053 81.5934743,48.3358208 L81.9855884,49.3765406 L81.9855884,49.3765406 L70.1397125,52.6301247 L70.0558418,52.4288456 L69.3161621,50.4030501 L81.282487,46.9230228 Z" id="路径" fill="#B3B8B8"></path>
                <path d="M57.1125191,48.1668878 L59.5947683,49.2810553 C62.7831632,50.7558878 65.480578,52.166279 66.9932861,52.1861572 C68.5302623,52.2063543 69.2260631,51.9895508 70.1204414,51.6601616 L70.9915797,51.3478756 C73.1941822,50.5869261 79.8934733,48.3616536 81.1740723,48 L81.4615517,47.9445215 C81.6286227,48.5041806 82.1984401,49.8713716 82.5525513,50.9221448 C82.973999,52.1727295 83.2992554,53.8461914 83.4418335,54.5463867 C83.5844116,55.246582 83.9348755,58.8153076 83.861084,59.4092407 C83.7872925,60.0031738 70.1396484,63.1588135 68.4521484,63.7093506 C66.7646484,64.2598877 59.8137207,60.885498 58.2374268,61.1328125 C56.6611328,61.380127 43.5107422,67.0405273 32.947876,67.5117188 C31.5508284,67.5740387 30.2023643,67.574158 28.9089884,67.525287 L31.9498291,64.1110535 C34.9756368,60.7385152 37.3208669,58.2156782 38.9855194,56.5425424 L39.2722168,56.2561035 C42.4752808,53.0761108 44.2859162,50.9078228 45.1443019,49.978973 L45.260498,49.8547363 C46.0657959,49.0058594 48.0949707,46.4145508 49.3852539,45.8825684 C50.5207031,45.4144238 53.8264008,46.7247902 57.1125191,48.1668878 L57.1125191,48.1668878 Z" id="路径" fill="#E1E7E2"></path>
                <path d="M57.1125191,48.1668878 L59.5947683,49.2810553 L62.7567357,50.7602601 C64.5396448,51.5782454 66.014475,52.1732949 66.9932861,52.1861572 C68.5302623,52.2063543 69.2260631,51.9895508 70.1204414,51.6601616 L70.9915797,51.3478756 L75.8993378,49.6991618 C78.1968974,48.9385824 80.4804145,48.1958957 81.1740723,48 L81.4615517,47.9445215 C81.6286227,48.5041806 82.1984401,49.8713716 82.5525513,50.9221448 C82.973999,52.1727295 83.2992554,53.8461914 83.4418335,54.5463867 C83.5844116,55.246582 83.9348755,58.8153076 83.861084,59.4092407 C83.7872925,60.0031738 70.1396484,63.1588135 68.4521484,63.7093506 C66.7646484,64.2598877 59.8137207,60.885498 58.2374268,61.1328125 C56.6611328,61.380127 43.5107422,67.0405273 32.947876,67.5117188 L32.0984499,67.5424331 L31.7861328,67.465332 C30.7720616,67.1769661 27.5673869,67.6988084 32.8334961,65.4873047 L35.2810468,64.4712292 C39.5388065,62.7229518 43.2447483,61.2957156 45.543457,60.3701172 C48.2731737,59.270969 54.0078125,55.473114 59.1691895,56.2529144 C64.3305664,57.0327148 64.7496439,58.2082825 68.6812184,58.9134674 C72.612793,59.6186523 83.0849609,57.4858398 82.7651367,55.7558594 C82.6165667,54.9522203 82.5564766,52.8090984 81.8598633,52.0986328 C81.1104203,51.3342871 79.1187812,51.6549192 77.7472741,52.0573613 L76.3428336,52.4948896 C74.2536853,53.1273303 72.202002,53.6175537 68.1503906,54.3833008 C63.3837891,55.2841797 54.4452209,49.4290904 53.4057159,48.5936956 C52.3662109,47.7583008 49.7181091,47.1656094 48.8141327,47.5132246 C48.4032343,47.6712316 47.3003977,48.3928038 45.5056227,49.6779415 L45.260498,49.8547363 L46.6886992,48.2430293 C47.5709131,47.2623047 48.611084,46.2017578 49.3852539,45.8825684 C50.5207031,45.4144238 53.8264008,46.7247902 57.1125191,48.1668878 Z" id="路径" fill="#DCE1DD"></path>
                <path d="M81.1740723,48 L81.4615517,47.9445215 L81.656793,48.5091764 L81.656793,48.5091764 L81.9855884,49.3765406 L81.9855884,49.3765406 L70.1397125,52.6301247 L70.0558418,52.4288456 L69.8145401,51.7704175 L70.9915797,51.3478756 L76.7571866,49.4158163 C78.7429351,48.7614543 80.5671217,48.1714088 81.1740723,48 Z" id="路径" fill="#D5DAD6"></path>
                <path d="M41.7465473,53.7204227 L42.0988437,53.8577628 C43.0450673,54.2531685 43.4279723,54.6436799 43.2475586,55.0292969 C42.9277344,55.7128906 37.2338867,60.5532227 31.9003033,67.0100098 C30.6635467,67.2775184 29.6667721,67.4484736 28.9099794,67.5228754 L31.9498291,64.1110535 C34.7739163,60.9633511 37.0051448,58.5558329 38.6435145,56.8884989 L40.3447794,55.1769792 C40.8529143,54.658757 41.3193659,54.172822 41.7465473,53.7204227 Z" id="路径" fill="#DEE3DF"></path>
                <path d="M41.8186035,54.15979 C42.1101685,54.3068848 42.4204712,54.559082 42.5334473,54.6538086 C42.6464233,54.7485352 41.4363403,56.3029785 41.1942749,56.3459473 C41.1316685,56.3570605 40.5315552,56.0880737 40.3501601,56.0178624 C40.0744525,56.0364574 39.7731863,56.056562 39.4532688,56.0765993 L40.3447794,55.1769792 C40.5617667,54.9556843 40.771153,54.7402771 40.9731262,54.5308547 C41.180136,54.511547 41.338039,54.496014 41.4345093,54.4868774 C41.4973173,54.480929 41.7951677,54.1479666 41.8186035,54.15979 Z" id="形状结合" fill="#D2D9D9"></path>
                <path d="M45.2618408,51.5212402 C44.715332,52.0588379 45.3675537,52.5223389 45.6534424,52.6820679 C45.9393311,52.8417969 46.8924561,53.343811 47.4984131,53.1773682 C48.1043701,53.0109253 49.0037231,52.2142334 50.5649414,51.0377197 C52.1261597,49.8612061 53.0610962,49.3710938 53.1523437,48.8944702 C53.2435913,48.4178467 53.2293701,48.3060303 52.6654053,47.9874268 C52.1014404,47.6688232 50.3579102,46.6392822 49.8754883,46.8112793 C49.3930664,46.9832764 45.8083496,50.9836426 45.2618408,51.5212402 Z" id="路径-732" fill="#A4B1AA"></path>
                <path d="M45.2636719,51.3818359 C44.7171631,51.9194336 45.2976685,52.2749634 45.5835571,52.4346924 C45.8694458,52.5944214 46.8225708,53.0964355 47.4285278,52.9299927 C48.0344849,52.7635498 48.9338379,51.9668579 50.4950562,50.7903442 C52.0562744,49.6138306 52.9912109,49.1237183 53.0824585,48.6470947 C53.1737061,48.1704712 53.1594849,48.0586548 52.59552,47.7400513 C52.0315552,47.4214478 50.3597412,46.4998779 49.8773193,46.671875 C49.3948975,46.8438721 45.8101807,50.8442383 45.2636719,51.3818359 Z" id="路径-732" fill="#E8ECEC"></path>
                <path d="M45.6531901,45.0289823 C45.6079005,45.0925369 45.5613944,45.1738186 45.5136719,45.2728271 C45.3420258,45.6289368 45.5663233,45.9375219 45.7859361,46.3536152 L45.8786011,46.5389749 C46.1187134,47.0532307 47.5112305,49.300293 47.6789551,49.8070214 C47.8466797,50.3137499 48.1235352,50.8626709 48.1525879,51.3174438 C48.1816406,51.7722168 47.9900513,51.7888184 47.8031616,51.8376465 C47.616272,51.8864746 47.2032471,51.701355 47.0556641,51.3174438 C46.9265289,50.9815216 46.3793936,50.0646982 46.1162367,49.4540559 L46.0228882,49.2136841 C45.885995,48.8013916 45.566557,48.2349542 45.2101553,47.6755457 L44.5500096,46.6838378 C44.4586642,46.540728 44.3964136,46.4274731 44.3546364,46.3168021 L44.3488159,46.3707275 C44.3846639,45.9069824 44.4572957,45.6312663 44.5667114,45.5435791 L44.829896,45.3321211 C44.9903271,45.2131714 45.1875977,45.0947754 45.3928223,45.0686646 L45.6531901,45.0289823 Z M47.998109,42.4222954 L47.9296743,42.6184521 C47.8397541,43.0144499 48.0341971,43.3435843 48.1525879,43.5762329 L48.5214613,44.2264057 C49.000855,45.0553263 49.8019629,46.4176416 50.1126564,46.9305031 L50.1903398,47.0574951 C50.4970737,47.5512085 50.7606812,48.1417236 50.7630324,48.4050293 C50.7653198,48.668335 50.5162354,48.8370361 50.2989182,48.8344418 C50.0816011,48.8317871 49.817627,48.713501 49.6298218,48.4050293 C49.4628838,48.1308322 48.9232125,47.4530858 48.4823441,46.6021998 L48.083145,45.7840965 C47.6031928,44.8422815 46.9460919,43.7413424 46.9100952,43.5762329 L46.8620631,43.298154 L46.8620631,43.298154 L46.9643288,43.1629047 C47.1589699,42.9147224 47.5380096,42.4657135 47.6789551,42.4230957 C47.8033514,42.3854819 47.909736,42.3852151 47.998109,42.4222954 Z" id="形状" fill="#E0E6E8"></path>
                <path d="M44.5383301,46.1571655 C44.6315308,46.6924438 46.0147095,48.3974557 46.5519409,49.5810826 L46.8976024,50.3311315 C47.1921599,50.9468212 47.3518796,51.1693687 47.5430298,51.0881958 C47.7953682,50.9810389 47.7854085,50.5646404 47.7027624,49.8703795 L47.6789551,49.8070214 C47.8466797,50.3137499 48.1235352,50.8626709 48.1525879,51.3174438 C48.1816406,51.7722168 47.9900513,51.7888184 47.8031616,51.8376465 C47.616272,51.8864746 47.2032471,51.701355 47.0556641,51.3174438 C46.9265289,50.9815216 46.3793936,50.0646982 46.1162367,49.4540559 L46.0228882,49.2136841 C45.885995,48.8013916 45.566557,48.2349542 45.2101553,47.6755457 L44.5500096,46.6838378 C44.4891127,46.5884313 44.4411468,46.5062936 44.4035574,46.4293444 L44.3528159,46.3177025 L44.3698052,46.1545241 C44.4098963,45.8203001 44.4755317,45.6166517 44.5667114,45.5435791 L44.6630691,45.465046 C44.5465819,45.7350477 44.5050023,45.9657542 44.5383301,46.1571655 Z M48.1525879,43.5762329 L48.5214613,44.2264057 L49.8417856,46.4779257 L49.8417856,46.4779257 L50.1903398,47.0574951 C50.4970737,47.5512085 50.7606812,48.1417236 50.7630481,48.4050293 C50.7653198,48.668335 50.5162354,48.8370361 50.2989182,48.8344713 C50.0816011,48.8317871 49.817627,48.713501 49.6298218,48.4050293 C49.4628838,48.1308322 48.9232125,47.4530858 48.4823441,46.6021998 L48.083145,45.7840965 L47.8321021,45.3049979 C47.401412,44.5012971 46.9400924,43.7138241 46.9100952,43.5762329 L46.8620631,43.298154 L47.0588159,43.0437025 L47.0683197,43.167266 C47.1137054,43.5166359 47.2493744,43.9101196 47.4753265,44.3477173 L47.8025008,44.9488894 C48.4482698,46.1020432 49.6242721,48.0790513 49.8141327,48.1713867 C50.0446777,48.2835083 50.5176392,48.2025757 50.3123169,47.6343384 C50.1069946,47.0661011 47.9026184,43.6714689 47.9123993,43.2332564 L47.924209,43.0027232 L47.924209,43.0027232 C47.9656711,43.2314818 48.0753248,43.424404 48.1525879,43.5762329 Z" id="形状" fill="#A5B1B6"></path>
                <path d="M66.4970703,63.1456299 C68.8147786,58.1596273 70.0712891,55.539388 70.2666016,55.2849121 C70.5595703,54.9031982 71.5316162,54.4328613 72.3930664,54.8017578 C72.9673665,55.0476888 73.8943685,57.3751221 75.1740723,61.7840576 L76.0765381,61.5819092 C74.6086019,57.0714111 73.8699137,54.6900635 73.8604736,54.4378662 C73.8463135,54.0595703 74.1755371,53.5474854 74.7542725,53.8691406 C75.3330078,54.1907959 77.3295898,60.8549805 77.5054932,61.5819092 C77.829305,61.462443 78.125,61.3385824 78.3925781,61.2103271 C77.8611654,59.5419515 77.597168,58.3728434 77.6005859,57.7030029 C77.6057129,56.6982422 78.5577393,55.7927246 79.5168457,55.8430176 C80.4759521,55.8933105 80.7915039,55.6658936 80.7575684,54.8521729 C80.7236328,54.0384521 80.1398926,53.5495605 79.1872559,53.6629639 C78.2346191,53.7763672 76.8724365,54.4108887 76.5267334,54.2642822 C76.1810303,54.1176758 75.802124,53.2945557 76.4958496,53.0023193 C77.1895752,52.710083 78.6693115,52.1982422 79.5222168,52.2619629 C80.3751221,52.3256836 81.3789062,52.9752197 81.6464844,54.1036377 C81.9140625,55.2320557 81.6698589,56.2407227 81.5137939,56.4147949 C81.3577289,56.5888672 81.4097753,56.6449442 81.7880786,56.865685 C82.1663818,57.0864258 82.9765625,58.9279785 83.0788574,59.7479248 C82.8873698,59.8073324 82.5834961,59.9370931 82.1672363,60.137207 C81.7254232,58.9711914 81.3443604,58.1675212 81.0240479,57.7261963 C80.5435791,57.064209 79.9084473,56.9475098 79.5222168,57.0861816 C79.1359863,57.2248535 78.688195,57.7468262 78.873291,58.6152344 C78.9966883,59.1941732 79.2687424,60.1481527 79.6894531,61.4771729 L73.9949951,62.9360352 C73.2493083,60.7444661 72.7886556,59.3041992 72.6130371,58.6152344 C72.3496094,57.5817871 72.0280762,56.4025879 71.4915771,56.543335 C70.9550781,56.684082 70.449707,58.357666 69.9880371,59.4902344 C69.6802572,60.2452799 69.2017822,61.3938802 68.5526123,62.9360352 L66.4970703,63.1456299 Z" id="路径-734" fill="#5D6566"></path>
                <path d="M66.831665,62.7132568 C69.1493734,57.7272542 70.4058838,55.107015 70.6011963,54.8525391 C70.894165,54.4708252 71.7808838,54.0313721 72.642334,54.4002686 C73.2166341,54.6461995 74.1436361,56.9736328 75.4233398,61.3825684 L76.3258057,61.1804199 C74.8578695,56.6699219 74.1191813,54.2885742 74.1097412,54.036377 C74.0955811,53.6580811 74.4248047,53.1459961 75.00354,53.4676514 C75.5822754,53.7893066 77.5788574,60.4534912 77.7547607,61.1804199 C78.0785726,61.0609538 78.3742676,60.9370931 78.6418457,60.8088379 C78.1104329,59.1404622 77.8464355,57.9713542 77.8498535,57.3015137 C77.8549805,56.2967529 78.8070068,55.3912354 79.7661133,55.4415283 C80.7252197,55.4918213 81.0407715,55.2644043 81.0068359,54.4506836 C80.9729004,53.6369629 80.3891602,53.1480713 79.4365234,53.2614746 C78.4838867,53.3748779 77.1217041,54.0093994 76.776001,53.862793 C76.4302979,53.7161865 76.0513916,52.8930664 76.7451172,52.6008301 C77.4388428,52.3085938 78.9185791,51.7967529 79.7714844,51.8604736 C80.6243896,51.9241943 81.6281738,52.5737305 81.895752,53.7021484 C82.1633301,54.8305664 81.9191265,55.8392334 81.7630615,56.0133057 C81.6069965,56.1873779 81.6590429,56.243455 82.0373462,56.4641958 C82.4156494,56.6849365 83.2258301,58.5264893 83.328125,59.3464355 C83.1366374,59.4058431 82.8327637,59.5356038 82.4165039,59.7357178 C81.9746908,58.5697021 81.5936279,57.7660319 81.2733154,57.324707 C80.7928467,56.6627197 80.1577148,56.5460205 79.7714844,56.6846924 C79.3852539,56.8233643 78.9374626,57.3453369 79.1225586,58.2137451 C79.2459559,58.7926839 79.51801,59.7466634 79.9387207,61.0756836 L74.2442627,62.5345459 C73.4985758,60.3429769 73.0379232,58.90271 72.8623047,58.2137451 C72.598877,57.1802979 72.2773438,56.0010986 71.7408447,56.1418457 C71.2043457,56.2825928 70.6989746,57.9561768 70.2373047,59.0887451 C69.9295247,59.8437907 69.4510498,60.992391 68.8018799,62.5345459 L66.831665,62.7132568 Z" id="路径-734" fill="#F4F4F4"></path>
                <path d="M66.7799072,62.9222412 C69.0976156,57.9362386 70.354126,55.3159993 70.5494385,55.0615234 C70.8424072,54.6798096 71.729126,54.2403564 72.5905762,54.6092529 C73.1648763,54.8551839 74.0918783,57.1826172 75.371582,61.5915527 L76.2740479,61.3894043 C74.8061117,56.8789062 74.0674235,54.4975586 74.0579834,54.2453613 C74.0438232,53.8670654 74.3730469,53.3549805 74.9517822,53.6766357 C75.5305176,53.998291 77.5270996,60.6624756 77.7030029,61.3894043 C78.0268148,61.2699382 78.3225098,61.1460775 78.5900879,61.0178223 C78.0586751,59.3494466 77.7946777,58.1803385 77.7980957,57.510498 C77.8032227,56.5057373 78.755249,55.6002197 79.7143555,55.6505127 C80.6734619,55.7008057 80.9890137,55.4733887 80.9550781,54.659668 C80.9211426,53.8459473 80.3374023,53.3570557 79.3847656,53.470459 C78.4321289,53.5838623 77.0699463,54.2183838 76.7242432,54.0717773 C76.37854,53.9251709 75.9996338,53.1020508 76.6933594,52.8098145 C77.387085,52.5175781 78.8668213,52.0057373 79.7197266,52.069458 C80.5726318,52.1331787 81.576416,52.7827148 81.8439941,53.9111328 C82.1115723,55.0395508 81.8673687,56.0482178 81.7113037,56.22229 C81.5552387,56.3963623 81.6072851,56.4524394 81.9855884,56.6731801 C82.3638916,56.8939209 83.1740723,58.7354736 83.2763672,59.5554199 C83.0848796,59.6148275 82.7810059,59.7445882 82.3647461,59.9447021 C81.9229329,58.7786865 81.5418701,57.9750163 81.2215576,57.5336914 C80.7410889,56.8717041 80.105957,56.7550049 79.7197266,56.8936768 C79.3334961,57.0323486 78.8857048,57.5543213 79.0708008,58.4227295 C79.1941981,59.0016683 79.4662521,59.9556478 79.8869629,61.284668 L74.1925049,62.7435303 C73.446818,60.5519613 72.9861654,59.1116943 72.8105469,58.4227295 C72.5471191,57.3892822 72.2255859,56.210083 71.6890869,56.3508301 C71.1525879,56.4915771 70.6472168,58.1651611 70.1855469,59.2977295 C69.8777669,60.0527751 69.399292,61.2013753 68.7501221,62.7435303 L66.7799072,62.9222412 Z" id="路径-734" fill="#B9BFBF"></path>
                <path d="M83.3260323,53.9767518 L83.4418335,54.5463867 C83.5844116,55.246582 83.9348755,58.8153076 83.861084,59.4092407 C83.7872925,60.0031738 70.1396484,63.1588135 68.4521484,63.7093506 C67.4027557,64.0517089 64.3179282,62.8762478 61.7559295,61.9977972 L61.1943359,61.4320068 L83.2763672,53.9874268 L83.3260323,53.9767518 Z" id="路径" fill="#D2DAD7"></path>
                <path d="M80.894043,35.3431396 C82.1682129,35.5336304 82.7156372,36.6170654 82.2573853,38.411438 L81.309959,42.034152 L81.0562878,43.0795652 C80.9082702,43.7227473 80.8102058,44.2357824 80.8086548,44.4829102 C80.8523908,44.8905029 81.2734288,46.7927744 81.3864908,47.4867805 L81.4141846,47.7205811 C81.4041138,47.9727783 82.1311035,49.6715602 82.5525513,50.9221448 C82.973999,52.1727295 83.2992554,53.8461914 83.4418335,54.5463867 C83.5844116,55.246582 83.9348755,58.8153076 83.861084,59.4092407 C83.8526731,59.4769385 83.6679117,59.5779177 83.3446117,59.7045273 L83.3982107,58.5333104 C83.4153758,58.0764585 83.4235126,57.7044444 83.4220107,57.4169456 L83.4190674,57.2171631 C83.3982544,56.4144897 83.2286987,54.5140381 83.1971436,54.394104 C83.1695328,54.2891617 83.0237417,54.1419754 82.9038216,53.6854187 L82.8544312,53.4700317 C82.729187,52.8410034 81.973877,50.4742432 81.7415142,49.8758545 L81.5313833,49.3134965 C81.2800011,48.6106675 80.9289042,47.5092794 80.6944465,46.2150159 L80.6209106,45.7767334 C80.3235474,43.848999 79.7627563,42.8009033 79.6082764,42.4291992 C79.4537964,42.0574951 78.96875,41.5453491 78.7279663,41.2171631 L78.440016,40.8414035 C78.3975401,40.7890806 78.357822,40.7419095 78.3208618,40.6998901 C77.9800008,40.7546183 77.554891,40.9627868 77.0455322,41.3243956 C76.345164,41.8216077 75.8218367,42.533572 75.8027581,43.6536609 L75.8103027,43.9694038 C75.8924561,45.2740127 75.2572021,46.4781494 74.506958,47.4538574 C74.016246,48.0920385 73.0500475,48.5143316 72.1509839,48.7510814 C73.1041891,48.2405986 73.9859438,47.6085406 74.2554932,47.0767822 C74.77771,46.0465698 74.5981445,43.4453125 74.7954102,42.690918 C74.9926758,41.9365234 75.37323,41.1040039 76.4058228,40.6511841 C77.4384155,40.1983643 77.7620239,40.3578491 77.9404907,40.3947754 C78.0594686,40.4193929 78.1457723,40.5048625 78.1994019,40.6511841 C78.5198771,40.7803752 78.6781209,40.7533976 78.6741333,40.5702515 L78.5852051,37.440918 C78.5662231,36.5540771 79.619873,35.1526489 80.894043,35.3431396 Z M57.4498291,31.3011475 C57.8132324,31.3815918 58.6716309,33.2541504 58.7402344,36.1800537 L58.7565331,37.3664636 L58.7539276,39.5443046 C58.7582594,40.6737333 58.7981734,41.5844061 59.0067139,42.4230957 L59.1993809,43.1545857 C59.3999257,43.8732792 59.599018,44.4595554 59.7671485,44.8582355 C59.1371326,44.1618693 58.5845071,43.4164067 58.3300781,42.7758789 C57.645752,41.0530799 57.7092285,38.4289551 57.6960449,36.291626 C57.6828613,34.1542969 57.2728271,32.6262207 56.9360352,32.036499 C56.8126391,31.8204329 56.6367116,31.6050919 56.4082527,31.3904761 C56.8205632,31.2903515 57.2256327,31.2515185 57.4498291,31.3011475 Z M79.2456665,37.4866943 C79.0579834,38.3447876 79.1867065,40.3964844 79.2456665,40.644104 C79.2771118,40.7761678 79.3535701,40.9781535 79.4750415,41.250061 L79.574585,41.4671021 L79.4512329,41.7946167 C79.7333619,41.9841962 79.9546144,42.1953168 80.1149902,42.4279785 C80.355554,42.7769711 80.4663086,43.4200439 80.5669556,43.3963623 C80.6676025,43.3726807 80.6478882,42.4766266 80.8751831,41.6310425 C81.102478,40.7854584 81.486145,39.854187 81.675293,38.8895874 C81.8644409,37.9249878 81.6535034,36.286377 80.9765625,36.0164185 C80.2996216,35.74646 79.4333496,36.6286011 79.2456665,37.4866943 Z" id="形状" fill="#DEE2E6"></path>
                <path d="M80.894043,35.3431396 C82.1682129,35.5336304 82.7156372,36.6170654 82.2573853,38.411438 L81.309959,42.034152 L81.0562878,43.0795652 L80.9427349,43.595825 C80.860112,43.9942035 80.8097627,44.3063903 80.8086548,44.4829102 C80.8523908,44.8905029 81.2734288,46.7927744 81.3864908,47.4867805 L81.4141846,47.7205811 C81.4041138,47.9727783 82.1311035,49.6715602 82.5525513,50.9221448 C82.973999,52.1727295 83.2992554,53.8461914 83.4418335,54.5463867 C83.5844116,55.246582 83.9348755,58.8153076 83.861084,59.4092407 C83.8526731,59.4769385 83.6679117,59.5779177 83.3446117,59.7045273 L83.3982107,58.5333104 L83.4213394,57.6484213 C83.4221592,57.5659772 83.4223862,57.4888203 83.4220107,57.4169456 L83.4190674,57.2171631 C83.3982544,56.4144897 83.2286987,54.5140381 83.1971436,54.394104 C83.1695328,54.2891617 83.0237417,54.1419754 82.9038216,53.6854187 L82.8544312,53.4700317 C82.729187,52.8410034 81.973877,50.4742432 81.7415142,49.8758545 L81.5313833,49.3134965 L81.3275307,48.7148588 C81.1117426,48.0479188 80.8702898,47.1857135 80.6944465,46.2150159 L80.6209106,45.7767334 C80.3235474,43.848999 79.7627563,42.8009033 79.6082764,42.4291992 C79.4537964,42.0574951 78.96875,41.5453491 78.7279663,41.2171631 L78.440016,40.8414035 L78.3208618,40.6998901 L78.3208618,40.6998901 C77.9800008,40.7546183 77.554891,40.9627868 77.0455322,41.3243956 C76.345164,41.8216077 75.8218367,42.533572 75.8027581,43.6536609 L75.8103027,43.9694038 C75.8924561,45.2740127 75.2572021,46.4781494 74.506958,47.4538574 C74.0402009,48.0608847 73.1432474,48.4725873 72.2830683,48.7150794 L72.894489,48.4169785 C73.4453,48.1364937 73.8143662,47.9086893 74.0024414,47.7320557 C74.857751,46.9287789 75.1394016,45.9801853 75.1392822,45.7303467 C75.1387661,44.6503156 74.8039393,43.719917 74.9819336,43.0452881 C75.3868408,41.5106201 76.1800537,41.0058882 77.0250244,40.8355713 C77.5636315,40.7270067 77.9219966,40.6429177 78.1289533,40.5172845 C78.156313,40.5532608 78.1799964,40.5982388 78.1994019,40.6511841 C78.5198771,40.7803752 78.6781209,40.7533976 78.6741333,40.5702515 L78.5852051,37.440918 C78.5662231,36.5540771 79.619873,35.1526489 80.894043,35.3431396 Z M79.2456665,37.4866943 C79.0579834,38.3447876 79.1867065,40.3964844 79.2456665,40.644104 C79.2771118,40.7761678 79.3535701,40.9781535 79.4750415,41.250061 L79.574585,41.4671021 L79.4512329,41.7946167 C79.7333619,41.9841962 79.9546144,42.1953168 80.1149902,42.4279785 C80.355554,42.7769711 80.4663086,43.4200439 80.5669556,43.3963623 C80.6676025,43.3726807 80.6478882,42.4766266 80.8751831,41.6310425 C81.102478,40.7854584 81.486145,39.854187 81.675293,38.8895874 C81.8644409,37.9249878 81.6535034,36.286377 80.9765625,36.0164185 C80.2996216,35.74646 79.4333496,36.6286011 79.2456665,37.4866943 Z" id="形状" fill="#C1C9CB"></path>
                <path d="M70.5825296,58.2668087 L70.3156808,58.9688448 L70.3156808,58.9688448 L69.3423937,61.3325602 C69.1639359,61.7591553 68.966512,62.2294786 68.7501221,62.7435303 L66.7799072,62.9222412 L68.6533332,58.9166396 L68.6533332,58.9166396 L70.5825296,58.2668087 Z M77.6910654,61.3417732 L77.5545508,61.3711565 L75.1946011,61.9746694 C74.801884,62.074046 74.4121782,62.1722703 74.0295445,62.2685206 L73.235863,59.8568029 C73.10087,59.4314261 72.9928626,59.0771785 72.9118407,58.7940602 L72.8105469,58.4227295 C72.7403228,58.1472349 72.6659695,57.8613827 72.5845154,57.592939 L73.943973,57.13287 C74.3574419,58.2508337 74.8333116,59.7370613 75.371582,61.5915527 L76.2740479,61.3894043 L74.9374959,57.2361816 C74.8944473,57.100038 74.8529788,56.9685079 74.8130904,56.8415913 L76.1442792,56.3922461 L76.530111,57.5379728 C77.0807789,59.2162488 77.5773613,60.8997525 77.6910654,61.3417732 Z M81.7113037,56.22229 C81.5552387,56.3963623 81.6072851,56.4524394 81.9855884,56.6731801 C82.3638916,56.8939209 83.1740723,58.7354736 83.2763672,59.5554199 C83.0848796,59.6148275 82.7810059,59.7445882 82.3647461,59.9447021 L82.0447769,59.1381302 C81.7361984,58.399498 81.461792,57.8646851 81.2215576,57.5336914 C80.7410889,56.8717041 80.105957,56.7550049 79.7197266,56.8936768 C79.3334961,57.0323486 78.8857048,57.5543213 79.0708008,58.4227295 L79.17274,58.8549957 C79.2958883,59.3407696 79.482664,59.9870667 79.7330671,60.793887 L78.1381206,61.2192371 L78.1381206,61.2192371 C78.2976917,61.1529241 78.4478617,61.085994 78.5900879,61.0178223 C78.0586751,59.3494466 77.7946777,58.1803385 77.7980629,57.510498 C77.8032227,56.5057373 78.755249,55.6002197 79.7143555,55.6505127 C80.6268387,55.6983609 80.9568143,55.4948424 80.9575157,54.7742146 L81.9357439,54.4420881 C82.0354774,55.3417421 81.8423284,56.0761473 81.7113037,56.22229 Z" id="形状" fill="#C5CDCB"></path>
                <path d="M85.2685547,67.571167 C85.4783529,68.65743 85.4386393,69.4932048 85.1494141,70.0784912 C84.7130127,70.5313721 66.0544434,69.9903564 66.1936035,69.6551514 C66.3327637,69.3199463 67.7055664,68.3170717 70.0794678,67.5075684 C71.6620687,66.9678995 76.7250977,66.989099 85.2685547,67.571167 Z" id="路径-736" fill="#8B9494"></path>
                <path d="M81.0478998,67.3142163 L80.9766078,70.2506817 L79.4246468,70.2384002 C78.6153187,70.2288619 77.7625487,70.2144403 76.8959434,70.1960949 L76.8953453,67.1469335 L78.4453108,67.19595 C79.2573123,67.2264238 80.1248419,67.2658459 81.0478998,67.3142163 Z" id="路径" fill="#7C8989"></path>
                <path d="M76.830466,67.1453228 L76.8242187,67.1181154 C77.3779297,68.7436913 77.3779297,69.7320433 76.8242187,70.0831713 C76.7641416,70.1212683 76.6939461,70.157392 76.6136323,70.1915424 C75.2274753,70.1593818 73.8182124,70.1191956 72.5012742,70.0732111 L72.3859992,69.1675007 C72.2915303,68.3226309 72.2594771,67.6601616 72.289814,67.1790021 L73.2217312,67.1388562 C74.2213701,67.1091346 75.4242006,67.1108371 76.830466,67.1453228 Z" id="路径" fill="#636B6B"></path>
                <path d="M73.4955686,67.1326492 L73.5641274,66.8661777 C73.2003515,68.1468485 73.1645077,69.2269605 73.4565961,70.1065139 L70.4557701,69.9943264 C67.9496212,69.8852597 66.1500278,69.7601154 66.1936035,69.6551514 C66.3327637,69.3199463 67.7055664,68.3170717 70.0794678,67.5075684 C70.6937731,67.2980895 71.8324734,67.1731164 73.4955686,67.1326492 Z" id="路径" fill="#474C51"></path>
                <path d="M85.2685547,67.571167 C85.3734538,68.1142985 85.4159749,68.5948079 85.3961182,69.0126953 L85.3769324,69.2267185 L84.0188264,69.2321629 C83.5018516,69.231809 83.0008554,69.2299398 82.7565918,69.2285156 C82.1703592,69.2250977 82.331665,68.6193848 82.3411865,68.0360107 C82.3475342,67.6470947 81.6569417,67.4885437 80.2694092,67.5603578 C80.3441162,68.0882029 80.3441162,68.4630342 80.2694092,68.6848518 C80.1573486,69.0175781 79.8672485,69.2229004 79.6506958,69.2159424 C79.4341431,69.2089844 78.9249268,68.9478523 78.9899292,68.4891357 C79.0332642,68.1833247 79.1772054,67.9141597 79.4217529,67.6816406 L75.7968439,67.3585205 L75.7968439,68.2953713 L75.7968439,68.2953713 L75.803842,68.4975152 C75.8023283,68.6527473 75.762425,68.7742135 75.5339355,68.8565674 C75.3206787,68.933431 75.130717,68.933431 74.9640503,68.8565674 C75.3556925,68.8588551 75.5456543,68.8016166 75.5339355,68.6848518 L75.5253259,68.3709689 C75.5243692,68.1586847 75.5272391,67.8493594 75.5339355,67.4429932 L74.840271,67.5603578 C74.8758748,67.7107931 74.8758748,67.8304647 74.840271,67.9193726 C74.7868652,68.0527344 74.6725464,67.969954 74.541626,68.2953713 C74.4543457,68.5123161 74.480835,68.6993815 74.6210938,68.8565674 C74.3351237,68.8347168 74.1936646,68.675293 74.1967163,68.3782959 C74.1997681,68.0812988 74.3412272,67.8086528 74.6210938,67.5603578 C74.2482229,67.454771 73.8959008,67.3874919 73.5641274,67.3585205 C73.0664673,67.3150635 70.4057678,67.5717773 70.1397125,67.6816406 C69.9800793,67.7475586 69.9124687,67.8821496 69.8672707,68.022647 L69.7861328,68.2929195 C69.7090454,68.4937134 69.7124634,68.8630508 69.6228638,68.6848518 C69.5332642,68.5066528 69.5102539,68.2409668 69.5363159,68.0360107 C69.546612,67.9550404 69.5588324,67.8225822 69.6126691,67.6739362 L70.0794678,67.5075684 L70.0794678,67.5075684 C71.6620687,66.9678995 76.7250977,66.989099 85.2685547,67.571167 Z" id="路径" fill="#BDC1C1"></path>
                <path d="M80.3925007,67.2809166 L80.360238,67.287053 C80.3017109,67.3076693 80.2561359,67.3558323 80.2295311,67.4425104 L80.2094727,67.5424331 C80.1489609,68.0595832 79.7863179,68.824213 79.3427142,69.1147043 C79.1405448,68.9938408 78.9484764,68.7816647 78.9899292,68.4891357 C79.0332642,68.1833247 79.1772054,67.9141597 79.4217529,67.6816406 L78.5686199,67.6069288 L78.5862251,67.2048572 L78.5862251,67.2048572 L79.7718883,67.2515573 C79.975693,67.2607645 80.1825741,67.2705951 80.3925007,67.2809166 Z M80.5427848,67.2896689 L82.4329352,67.3910736 C83.3312048,67.4435409 84.2764113,67.503572 85.2685547,67.571167 C85.3625134,68.0576529 85.406427,68.4938978 85.4002955,68.8799018 C85.2476958,68.8145041 85.0460256,68.771238 84.8347927,68.7378077 L84.2119141,68.6547283 C83.9195419,68.6148142 83.2881484,68.6199797 82.3177335,68.6702249 C82.3126118,68.4774738 82.3376096,68.255166 82.3411865,68.0360107 C82.3461596,67.7313125 81.9233497,67.5680128 81.0727567,67.5461115 L80.7126873,67.3531204 C80.6536401,67.3258031 80.5963623,67.303405 80.5427848,67.2896689 Z" id="形状" fill="#D7D7D7"></path>
                <path d="M10.7949219,62.3883057 C11.8560384,62.9768473 13.117391,63.5117594 14.5789795,63.993042 C16.7713623,64.7149658 18.4827881,65.3411865 19.1485596,65.4377441 C19.8143311,65.5343018 26.7250977,66.6429443 30.2796631,66.4122314 C33.8342285,66.1815186 42.0210012,64.6691895 46.8620631,63.4196777 C51.703125,62.170166 57.4220512,59.7474976 57.8514404,59.5467529 C58.2808297,59.3460083 58.5888038,59.2481064 59.8376465,59.80896 C61.0864892,60.3698136 65.2607422,61.9130177 69.3161621,62.2685206 C69.8605957,62.2938232 71.4017334,62.0563965 73.6953125,61.5137939 C75.9888916,60.9711914 82.8034668,59.2734375 83.2763672,59.1298828 C83.7492676,58.9863281 84.0505371,58.8384196 84.2750244,58.8734639 C84.4995117,58.9085083 84.6175537,59.4268188 84.5996094,59.9438477 C84.5876465,60.2885335 84.5512492,60.760437 84.4904175,61.3595581 C84.6277059,61.4470418 84.6982015,61.5724894 84.7019043,61.7359009 C84.7056071,61.8993123 84.7056071,62.2947591 84.7019043,62.9222412 C84.9191895,63.0123291 85.0293376,63.1781413 85.0323486,63.4196777 C85.0353597,63.6612142 85.0353597,64.0654907 85.0323486,64.6325073 C85.3032633,64.7387899 85.4374186,64.8977254 85.4348145,65.109314 C85.4322103,65.3209025 85.4322103,65.7552083 85.4348145,66.4122314 C85.6309408,66.5545654 85.7337443,66.7071737 85.7432251,66.8700562 C85.7574463,67.1143799 85.7238159,67.7785645 85.6165771,67.9100342 C85.5093384,68.0415039 81.9799805,67.9003296 80.5396729,67.8852539 C79.0993652,67.8701782 73.1358643,67.5222168 71.8212891,67.6816406 C70.5067139,67.8410645 67.4333496,68.7476196 67,69.0599976 C66.8847046,69.1688843 66.6185913,69.473999 66.0495605,69.473999 C65.4805298,69.473999 60.2958984,69.4077148 58.3122559,69.4951172 C56.3286133,69.5825195 50.3248291,69.7836914 44.9344482,70.3736572 C39.5440674,70.963623 31.689209,70.371582 27.9516602,70.3254395 C24.2141113,70.2792969 16.8607178,68.3500366 14.8525391,67.2890625 C14.0077847,66.8427564 12.9385916,66.2936221 12.0828857,65.1097412 C11.7492616,64.6481676 11.3199403,63.7410225 10.7949219,62.3883057 Z" id="路径-735" fill="#DBE0E3"></path>
                <path d="M85.6165771,67.9100342 C85.5770681,67.9584704 85.0730609,67.9698995 84.3801542,67.9642616 L80.5396729,67.8852539 C79.0993652,67.8701782 73.1358643,67.5222168 71.8212891,67.6816406 C70.5067139,67.8410645 67.4333496,68.7476196 67,69.0599976 L66.8706331,69.1812429 C66.7864639,69.2534552 66.6708208,69.335651 66.5135999,69.3945259 L66.4494629,69.3865356 L66.1450195,69.4162598 C66.320109,69.1612984 66.8806966,68.834211 67.1704102,68.671814 C67.6049805,68.4282184 70.5533447,67.4282837 71.8828735,67.3464966 C73.2124023,67.2647095 77.8835043,67.4793138 80.0238037,67.5492554 C83.2387842,67.6543157 85.3289779,67.7109349 85.40625,67.703186 C85.5515017,67.6886201 85.6088651,67.6024121 85.7347123,67.2963687 C85.7198304,67.5527946 85.6818309,67.8300361 85.6165771,67.9100342 Z" id="路径" fill="#F2F4F6"></path>
                <path d="M31.6855469,68.9692383 L35.5339322,69.0139674 C41.2650613,69.1011832 48.1830026,69.2897593 56.2877559,69.5796958 L53.0300209,69.7386589 C51.0705012,69.8467813 48.8209699,69.9961247 46.5947994,70.2052828 L44.9344482,70.3736572 C40.2471605,70.886671 33.6963738,70.5059178 29.6097197,70.3675233 L27.9516602,70.3254395 C24.2141113,70.2792969 16.8607178,68.3500366 14.8525391,67.2890625 L14.2349319,66.9558165 C14.1277915,66.8953152 14.0190016,66.8317831 13.9092421,66.7643942 C19.4588733,68.186106 25.3850322,68.9211049 31.6855469,68.9692383 Z" id="路径" fill="#E3E6E9"></path>
                <path d="M84.2750244,58.8734639 C84.4023508,58.8933407 84.4954336,59.0686849 84.5488825,59.3110836 C84.3405764,59.2662975 84.114468,59.2731376 83.8711724,59.3303833 L83.6900948,59.379996 C82.641985,59.68555 78.265991,61.1225177 74.3389078,61.8992437 L72.4713825,62.2565831 C69.5794373,62.7919034 67.7620921,63.0488131 66.5935847,63.3695556 L65.8603309,63.5958579 C64.543166,64.0265482 62.9623449,64.622685 63.1120605,64.4346566 C63.2817383,64.2215576 65.1118164,63.2407227 68.3410645,62.6068115 C67.4078369,62.5257568 64.1506348,61.8846436 62.2327881,61.2399902 C60.3149414,60.5953369 59.168457,59.8485107 58.5452881,59.9807129 L58.3637559,60.0327337 C57.3138792,60.374848 53.1689832,62.1349087 47.963623,63.6793213 C42.3726807,65.3381348 34.7108154,66.7017822 31.3635254,66.8354492 C28.0162354,66.9691162 22.1904297,66.6866455 18.2856445,65.5932617 C15.8020623,64.8978307 13.3555741,63.9597713 10.9461799,62.7790835 L10.7949219,62.3883057 C11.8560384,62.9768473 13.117391,63.5117594 14.5789795,63.993042 L17.7608422,65.0559036 C18.2816732,65.2240634 18.6999989,65.3483865 18.9900951,65.4091043 L20.9237144,65.6993486 C23.3717613,66.0440418 27.7056674,66.5792994 30.2796631,66.4122314 C33.6861216,66.1911316 41.3468122,64.7929919 46.2400819,63.5771238 L46.8620631,63.4196777 C51.0784719,62.3313933 55.9608151,60.3531701 57.434273,59.7281475 L58.044867,59.4634283 C58.3657697,59.3434721 58.7115323,59.3349761 59.5656703,59.6909731 L60.2277908,59.9761267 C61.8115477,60.6292162 65.6133874,61.943931 69.3161621,62.2685206 C69.7880046,62.2904496 71.0084825,62.1150395 72.8185901,61.7146595 L75.2946542,61.1280362 C78.2204467,60.4144106 82.8879133,59.2478027 83.2763672,59.1298828 L83.8688507,58.9346987 C84.0313416,58.8841578 84.1627808,58.8559418 84.2750244,58.8734639 Z" id="路径" fill="#EEF0F2"></path>
                <path d="M71.0212648,66.0217819 L74.6743998,66.0013276 C75.3301126,66.0024798 75.9512467,66.0081208 76.4173219,66.0217819 L84.9203127,66.4186325 L85.2783586,66.4145638 C85.3322938,66.4124745 85.3831213,66.4095442 85.4304838,66.4055695 L85.4286135,66.5023727 C85.5060317,66.5585572 85.5689087,66.6163425 85.6172444,66.6757288 C84.4177338,66.8411694 79.3101769,66.4258272 76.8579347,66.3436813 L75.3255079,66.3093972 C73.1352267,66.2806959 71.0114643,66.3259549 70.8504885,66.3115768 C70.6516359,66.2938156 70.5869997,66.021965 71.0212648,66.0217819 Z M74.5811403,64.1805343 L78.0048771,64.3381271 C79.3274787,64.3896408 84.1857546,64.5701828 84.5836427,64.5557785 C84.7417079,64.5500562 84.8972398,64.534326 85.0292677,64.5095789 L85.0261476,64.7226486 C85.1307112,64.7636699 85.2149019,64.8125349 85.2787196,64.8692436 L84.4510744,64.8647384 C83.7388552,64.8490524 80.0398805,64.742485 78.9646242,64.6949678 L75.0010723,64.4724827 C74.7856863,64.4578851 74.6354425,64.4463424 74.5811403,64.4395675 C74.2915285,64.4034347 74.2107179,64.172966 74.5811403,64.1805343 Z M84.9081569,63.1604662 L82.9420866,63.1608779 L81.0397346,63.1366484 C79.8601933,63.111649 79.0090212,63.0748987 78.849634,63.0675583 C78.6322878,63.0575485 78.539026,62.8108444 78.8336427,62.8180465 L81.3855424,62.8695011 L84.6977792,62.8853335 L84.6957033,63.0123825 C84.7843556,63.0491383 84.8551735,63.0984996 84.9081569,63.1604662 Z M82.2580202,61.3093784 C82.4871719,61.2587778 83.9200123,61.2698256 84.5051398,61.2921455 L84.4842165,61.4496994 C84.5583522,61.4969406 84.6130112,61.5552521 84.6481934,61.6246338 L82.2580202,61.6272506 C82.0569094,61.6326828 81.9741457,61.3720626 82.2580202,61.3093784 Z" id="形状" fill="#E9E9E9"></path>
                <path d="M71.0274658,65.9316406 L74.6806008,65.9111863 C75.3363136,65.9123385 75.9574477,65.9179795 76.4235229,65.9316406 L84.9265137,66.3284912 L84.9265137,66.3284912 L85.2845596,66.3244225 C85.3384948,66.3223333 85.3893223,66.3194029 85.4366848,66.3154283 L85.4348145,66.4122314 L85.4348145,66.4122314 C85.5122327,66.4684159 85.5751097,66.5262013 85.6234454,66.5855876 C84.4239348,66.7510281 79.3163779,66.335686 76.8641357,66.25354 L75.3317089,66.2192559 C73.1414277,66.1905547 71.0176653,66.2358137 70.8566895,66.2214355 C70.6578369,66.2036743 70.5932007,65.9318237 71.0274658,65.9316406 Z M74.5873413,64.0903931 L78.0110781,64.2479858 C79.3336797,64.2994995 84.1919556,64.4800415 84.5898438,64.4656372 C84.7479089,64.459915 84.9034408,64.4441847 85.0354687,64.4194376 L85.0323486,64.6325073 L85.0323486,64.6325073 C85.1369122,64.6735287 85.2211029,64.7223937 85.2849206,64.7791023 L84.4572754,64.7745972 C83.7450562,64.7589111 80.0460815,64.6523437 78.9708252,64.6048265 L75.0072733,64.3823415 C74.7918873,64.3677439 74.6416435,64.3562012 74.5873413,64.3494263 C74.2977295,64.3132935 74.2169189,64.0828247 74.5873413,64.0903931 Z M84.7019043,62.9222412 C84.7905566,62.9589971 84.8613745,63.0083583 84.9143579,63.0703249 L82.9482876,63.0707367 L82.9482876,63.0707367 L81.0459356,63.0465072 C79.8663943,63.0215077 79.0152222,62.9847575 78.855835,62.977417 C78.6384888,62.9674072 78.5452271,62.7207031 78.8398438,62.7279053 L81.3917434,62.7793599 L81.3917434,62.7793599 L84.7039802,62.7951922 L84.7039802,62.7951922 L84.7019043,62.9222412 L84.7019043,62.9222412 Z M82.2642212,61.2192371 C82.4933729,61.1686365 83.9262133,61.1796843 84.5113408,61.2020043 L84.4904175,61.3595581 C84.5645532,61.4067993 84.6192122,61.4651108 84.6543944,61.5344925 L82.2642212,61.5371094 C82.0631104,61.5425415 81.9803467,61.2819214 82.2642212,61.2192371 Z" id="形状" fill="#C4C9CB"></path>
                <path d="M85.3358154,69.4664307 C85.7786051,69.5936279 86,69.7730306 86,70.0046387 C86,70.3520508 85.7106934,71.376709 84.0516968,71.6015015 C82.3927002,71.8262939 73.9247719,71.7957764 72.0041504,71.7957764 C70.0835289,71.7957764 60.7348633,71.4542236 59.3651123,71.3630371 C57.9953613,71.2718506 53.4121094,71.2286377 49.6411133,71.3630371 C45.8701172,71.4974365 41.9402146,71.7120361 39.9938965,71.8435059 C38.6963511,71.9311523 37.3650522,71.9833171 36,72 C34.1864071,72 32.8198415,72 31.9003033,72 C30.5209961,72 25.5706787,71.2374268 22.2724609,70.538208 C18.9742432,69.8389893 15.0804443,68.6241455 12.9207764,67.2747803 C10.7611084,65.925415 10.0023193,64.4399414 10.0023193,62.9631348 C10.0023193,61.4863281 10.3364363,60.1685791 10.5983329,59.7536621 C10.8602295,59.3387451 11.3357544,59.0601196 11.2816772,59.7677612 C11.2276001,60.4754028 11.2702026,62.3063354 11.3718872,63.3103638 C11.4735718,64.3143921 11.7174072,65.4719238 13.8287354,66.6418457 C15.9400635,67.8117676 20.7257072,69.2498169 25.0400391,69.845459 C29.354371,70.4411011 37.0343018,70.6301908 41.887085,70.3414016 C46.7398682,70.0526123 56.1630859,69.315979 60.1491699,69.4108887 C64.1352539,69.5057983 66.4215088,69.2792969 66.9405518,69.2468262 C67.4595947,69.2143555 70.65625,69.2207031 72.5205078,69.359375 C74.3847656,69.4980469 77.9816895,69.6761475 79.9819336,69.7432861 C81.9821777,69.8104248 85.1239119,69.8491821 85.205719,69.8248291 C85.2602571,69.8085937 85.3036225,69.6891276 85.3358154,69.4664307 Z" id="路径-737" fill="#C5C7CA"></path>
                <path d="M67.8049316,70.7438965 L69.2891573,70.993968 C70.5797649,71.2192175 72.004755,71.4866083 73.5641274,71.7961403 L72.0041504,71.7957764 C70.426497,71.7957764 63.8368088,71.5653154 60.7744655,71.4324674 L58.9148949,71.3394549 C57.2560626,71.2691612 53.4733546,71.2434399 50.1599966,71.3457986 L46.9807504,71.4691001 C44.1305691,71.5938222 41.4822574,71.7429702 39.9938965,71.8435059 C39.1288662,71.9019368 38.2488344,71.9445982 37.3538011,71.9714898 L35.9664414,71.9998662 L39.1545325,71.672451 C42.2500768,71.3440599 44.3693458,71.0823942 45.5123394,70.8874539 L45.71521,70.8516846 C48.458252,70.3503418 52.4005292,69.8522949 56.7880859,69.807373 C61.1756427,69.7624512 64.0966797,70.1435547 67.8049316,70.7438965 Z" id="路径" fill="#B4B7B9"></path>
                <path d="M63.6112272,70.5956353 L65.3312702,70.7554016 C67.0980347,70.9342924 70.3822199,71.2813564 75.1838257,71.7965933 L72.0041504,71.7957764 C70.426497,71.7957764 63.8368088,71.5653154 60.7744655,71.4324674 L58.9148949,71.3394549 C57.2560626,71.2691612 53.4733546,71.2434399 50.1599966,71.3457986 L47.0123166,71.4677201 C45.2784994,71.5434414 43.6179998,71.6282917 42.2461552,71.7058551 L45.4037739,71.2858412 C48.5967733,70.8762413 51.049757,70.6142532 52.7645264,70.5 C56.9126892,70.2236125 61.6636734,70.4510634 63.6112272,70.5956353 L63.6112272,70.5956353 Z" id="路径" fill="#818181"></path>
                <path d="M61.6223035,71.1958668 L66.4167029,71.495166 C68.2257132,71.5711971 73.2134077,71.6511116 81.3797863,71.7349093 L78.7672068,71.7768184 C77.8474515,71.7861245 76.90505,71.791333 76.0187501,71.7941416 L72.0041504,71.7957764 C70.426497,71.7957764 63.8368088,71.5653154 60.7744655,71.4324674 L58.9148949,71.3394549 C57.2560626,71.2691612 53.4733546,71.2434399 50.1599966,71.3457986 L49.6411133,71.3630371 C48.5782667,71.4009173 47.5027968,71.4451684 46.462673,71.4921336 C49.0014809,71.1866093 51.2752087,71.0191699 53.2887573,70.9890137 C56.2003307,70.945408 59.1882423,71.0617132 61.6223035,71.1958668 L61.6223035,71.1958668 Z" id="路径" fill="#5E5858"></path>
                <path d="M53.5750863,50.8068855 L53.5703583,50.8017273 C53.4876015,50.7114401 53.3473216,50.7053355 53.2570343,50.7880923 C53.2525112,50.7922382 53.2481621,50.79657 53.2439982,50.8010766 L53.2363088,50.8093988 C53.1478079,50.9051831 53.1500929,51.053577 53.2415009,51.1465912 C53.3302204,51.2368697 53.475327,51.2381335 53.5656055,51.1494139 C53.5664846,51.14855 53.5673567,51.147679 53.5682217,51.1468011 L53.5689697,51.1460419 C53.6609846,51.0526505 53.6636738,50.903534 53.5750863,50.8068855 Z" id="路径-738" fill="#3F4441"></path>
                <path d="M55.3520333,51.6349495 L55.3473053,51.6297913 C55.2645485,51.539504 55.1242686,51.5333995 55.0339814,51.6161563 C55.0294582,51.6203022 55.0251091,51.624634 55.0209452,51.6291406 L55.0132559,51.6374627 C54.9247549,51.7332471 54.9270399,51.881641 55.0184479,51.9746552 C55.1071674,52.0649337 55.252274,52.0661974 55.3425525,51.9774779 C55.3434316,51.976614 55.3443037,51.975743 55.3451687,51.974865 L55.3459167,51.9741058 C55.4379316,51.8807145 55.4406208,51.731598 55.3520333,51.6349495 Z" id="路径-738" fill="#3F4441"></path>
                <path d="M57.0956246,52.2747811 L57.0908966,52.2696228 C57.0081398,52.1793356 56.8678599,52.173231 56.7775727,52.2559878 C56.7730495,52.2601337 56.7687004,52.2644655 56.7645365,52.2689721 L56.7568472,52.2772943 C56.6683463,52.3730787 56.6706312,52.5214725 56.7620392,52.6144867 C56.8507587,52.7047652 56.9958653,52.706029 57.0861438,52.6173094 C57.0870229,52.6164455 57.087895,52.6155745 57.08876,52.6146966 L57.0895081,52.6139374 C57.1815229,52.520546 57.1842122,52.3714295 57.0956246,52.2747811 Z" id="路径-738" fill="#3F4441"></path>
                <path d="M58.9203927,53.1762093 L58.9156647,53.171051 C58.8329079,53.0807638 58.692628,53.0746592 58.6023407,53.157416 C58.5978176,53.1615619 58.5934684,53.1658938 58.5893045,53.1704003 L58.5816152,53.1787225 C58.4931143,53.2745069 58.4953993,53.4229007 58.5868073,53.5159149 C58.6755268,53.6061934 58.8206334,53.6074572 58.9109119,53.5187377 C58.911791,53.5178738 58.9126631,53.5170028 58.9135281,53.5161248 L58.9142761,53.5153656 C59.006291,53.4219742 59.0089802,53.2728578 58.9203927,53.1762093 Z" id="路径-738" fill="#646C67"></path>
                <path d="M60.5966012,54.1344002 L60.5918732,54.1292419 C60.5091164,54.0389547 60.3688364,54.0328501 60.2785492,54.115607 C60.2740261,54.1197529 60.2696769,54.1240847 60.265513,54.1285913 L60.2578237,54.1369134 C60.1693228,54.2326978 60.1716078,54.3810916 60.2630157,54.4741058 C60.3517353,54.5643843 60.4968419,54.5656481 60.5871204,54.4769286 C60.5879995,54.4760647 60.5888716,54.4751937 60.5897366,54.4743157 L60.5904846,54.4735565 C60.6824995,54.3801651 60.6851887,54.2310487 60.5966012,54.1344002 Z" id="路径-738" fill="#646C67"></path>
                <path d="M62.3686349,54.8692024 L62.3639069,54.8640442 C62.28115,54.773757 62.1408701,54.7676524 62.0505829,54.8504092 C62.0460598,54.8545551 62.0417106,54.8588869 62.0375467,54.8633935 L62.0298574,54.8717157 C61.9413565,54.9675 61.9436414,55.1158939 62.0350494,55.2089081 C62.123769,55.2991866 62.2688756,55.3004504 62.3591541,55.2117308 C62.3600332,55.2108669 62.3609053,55.2099959 62.3617703,55.209118 L62.3625183,55.2083588 C62.4545331,55.1149674 62.4572224,54.9658509 62.3686349,54.8692024 Z" id="路径-738" fill="#3F4441"></path>
                <path d="M52.7607858,52.1379402 L52.7560577,52.132782 C52.6733009,52.0424948 52.533021,52.0363902 52.4427338,52.119147 C52.4382107,52.1232929 52.4338615,52.1276247 52.4296976,52.1321313 L52.4220083,52.1404534 C52.3335074,52.2362378 52.3357923,52.3846317 52.4272003,52.4776459 C52.5159199,52.5679244 52.6610265,52.5691882 52.751305,52.4804686 C52.752184,52.4796047 52.7530561,52.4787337 52.7539212,52.4778558 L52.7546692,52.4770966 C52.846684,52.3837052 52.8493733,52.2345887 52.7607858,52.1379402 Z" id="路径-738" fill="#3F4441"></path>
                <path d="M54.2500436,52.982972 L54.2453156,52.9778137 C54.1625587,52.8875265 54.0222788,52.8814219 53.9319916,52.9641787 C53.9274685,52.9683246 53.9231193,52.9726565 53.9189554,52.977163 L53.9112661,52.9854852 C53.8227652,53.0812696 53.8250501,53.2296634 53.9164581,53.3226776 C54.0051777,53.4129561 54.1502843,53.4142199 54.2405628,53.3255004 C54.2414419,53.3246364 54.242314,53.3237655 54.243179,53.3228875 L54.243927,53.3221283 C54.3359418,53.2287369 54.3386311,53.0796205 54.2500436,52.982972 Z" id="路径-738" fill="#3F4441"></path>
                <path d="M56.2684762,53.7574165 L56.2637482,53.7522583 C56.1809914,53.6619711 56.0407114,53.6558665 55.9504242,53.7386233 C55.9459011,53.7427692 55.9415519,53.747101 55.937388,53.7516076 L55.9296987,53.7599298 C55.8411978,53.8557142 55.8434828,54.004108 55.9348907,54.0971222 C56.0236103,54.1874007 56.1687169,54.1886645 56.2589954,54.0999449 C56.2598745,54.099081 56.2607466,54.09821 56.2616116,54.0973321 L56.2623596,54.0965729 C56.3543745,54.0031815 56.3570637,53.854065 56.2684762,53.7574165 Z" id="路径-738" fill="#646C67"></path>
                <path d="M57.9867989,54.622834 L57.9820709,54.6176758 C57.8993141,54.5273886 57.7590342,54.521284 57.668747,54.6040408 C57.6642238,54.6081867 57.6598747,54.6125185 57.6557108,54.6170251 L57.6480215,54.6253472 C57.5595206,54.7211316 57.5618055,54.8695255 57.6532135,54.9625397 C57.741933,55.0528182 57.8870396,55.054082 57.9773181,54.9653624 C57.9781972,54.9644985 57.9790693,54.9636275 57.9799344,54.9627496 L57.9806824,54.9619904 C58.0726972,54.868599 58.0753865,54.7194825 57.9867989,54.622834 Z" id="路径-738" fill="#646C67"></path>
                <path d="M59.6630074,55.5810249 L59.6582794,55.5758667 C59.5755226,55.4855795 59.4352427,55.4794749 59.3449555,55.5622317 C59.3404323,55.5663776 59.3360832,55.5707094 59.3319193,55.575216 L59.32423,55.5835382 C59.2357291,55.6793226 59.238014,55.8277164 59.329422,55.9207306 C59.4181415,56.0110091 59.5632481,56.0122729 59.6535266,55.9235533 C59.6544057,55.9226894 59.6552778,55.9218184 59.6561429,55.9209405 L59.6568909,55.9201813 C59.7489057,55.8267899 59.751595,55.6776734 59.6630074,55.5810249 Z" id="路径-738" fill="#646C67"></path>
                <path d="M61.363691,56.3961495 L61.358963,56.3909912 C61.2762062,56.300704 61.1359263,56.2945994 61.0456391,56.3773562 C61.0411159,56.3815021 61.0367668,56.385834 61.0326029,56.3903405 L61.0249136,56.3986627 C60.9364127,56.4944471 60.9386976,56.6428409 61.0301056,56.7358551 C61.1188251,56.8261336 61.2639317,56.8273974 61.3542102,56.7386778 C61.3550893,56.7378139 61.3559614,56.736943 61.3568265,56.736065 L61.3575745,56.7353058 C61.4495893,56.6419144 61.4522786,56.4927979 61.363691,56.3961495 Z" id="路径-738" fill="#7E807F"></path>
                <path d="M49.983503,52.6325386 L49.978775,52.6273804 C49.8960182,52.5370932 49.7557383,52.5309886 49.6654511,52.6137454 C49.6609279,52.6178913 49.6565788,52.6222231 49.6524149,52.6267297 L49.6447256,52.6350518 C49.5562247,52.7308362 49.5585096,52.8792301 49.6499176,52.9722443 C49.7386372,53.0625228 49.8837437,53.0637866 49.9740222,52.975067 C49.9749013,52.9742031 49.9757734,52.9733321 49.9766385,52.9724541 L49.9773865,52.9716949 C50.0694013,52.8783036 50.0720906,52.7291871 49.983503,52.6325386 Z" id="路径-738" fill="#3F4441"></path>
                <path d="M51.7152535,53.6067818 L51.7105255,53.6016235 C51.6277687,53.5113363 51.4874888,53.5052317 51.3972016,53.5879885 C51.3926784,53.5921344 51.3883293,53.5964663 51.3841654,53.6009729 L51.3764761,53.609295 C51.2879752,53.7050794 51.2902601,53.8534732 51.3816681,53.9464874 C51.4703876,54.0367659 51.6154942,54.0380297 51.7057727,53.9493102 C51.7066518,53.9484463 51.7075239,53.9475753 51.708389,53.9466973 L51.709137,53.9459381 C51.8011518,53.8525467 51.8038411,53.7034303 51.7152535,53.6067818 Z" id="路径-738" fill="#3F4441"></path>
                <path d="M53.3476388,54.4362496 L53.3429108,54.4310913 C53.2601539,54.3408041 53.119874,54.3346995 53.0295868,54.4174563 C53.0250637,54.4216022 53.0207145,54.425934 53.0165506,54.4304406 L53.0088613,54.4387628 C52.9203604,54.5345472 52.9226454,54.682941 53.0140533,54.7759552 C53.1027729,54.8662337 53.2478795,54.8674975 53.338158,54.7787779 C53.3390371,54.777914 53.3399092,54.7770431 53.3407742,54.7761651 L53.3415222,54.7754059 C53.433537,54.6820145 53.4362263,54.532898 53.3476388,54.4362496 Z" id="路径-738" fill="#646C67"></path>
                <path d="M55.1325509,55.2769478 L55.1278229,55.2717896 C55.0450661,55.1815023 54.9047862,55.1753977 54.8144989,55.2581546 C54.8099758,55.2623005 54.8056267,55.2666323 54.8014627,55.2711389 L54.7937734,55.279461 C54.7052725,55.3752454 54.7075575,55.5236393 54.7989655,55.6166534 C54.887685,55.7069319 55.0327916,55.7081957 55.1230701,55.6194762 C55.1239492,55.6186123 55.1248213,55.6177413 55.1256863,55.6168633 L55.1264343,55.6161041 C55.2184492,55.5227127 55.2211384,55.3735963 55.1325509,55.2769478 Z" id="路径-738" fill="#646C67"></path>
                <path d="M56.9148385,56.206086 L56.9101105,56.2009277 C56.8273537,56.1106405 56.6870738,56.1045359 56.5967865,56.1872927 C56.5922634,56.1914386 56.5879142,56.1957705 56.5837503,56.2002771 L56.576061,56.2085992 C56.4875601,56.3043836 56.4898451,56.4527774 56.5812531,56.5457916 C56.6699726,56.6360701 56.8150792,56.6373339 56.9053577,56.5486144 C56.9062368,56.5477505 56.9071089,56.5468795 56.9079739,56.5460015 L56.9087219,56.5452423 C57.0007368,56.4518509 57.003426,56.3027345 56.9148385,56.206086 Z" id="路径-738" fill="#7E807F"></path>
                <path d="M49.1212594,54.0396431 L49.1165314,54.0344849 C49.0337746,53.9441976 48.8934947,53.9380931 48.8032074,54.0208499 C48.7986843,54.0249958 48.7943351,54.0293276 48.7901712,54.0338342 L48.7824819,54.0421563 C48.693981,54.1379407 48.696266,54.2863346 48.787674,54.3793488 C48.8763935,54.4696273 49.0215001,54.470891 49.1117786,54.3821715 C49.1126577,54.3813076 49.1135298,54.3804366 49.1143948,54.3795586 L49.1151428,54.3787994 C49.2071577,54.2854081 49.2098469,54.1362916 49.1212594,54.0396431 Z" id="路径-738" fill="#3F4441"></path>
                <path d="M50.7536447,54.8691109 L50.7489166,54.8639526 C50.6661598,54.7736654 50.5258799,54.7675608 50.4355927,54.8503176 C50.4310695,54.8544635 50.4267204,54.8587954 50.4225565,54.863302 L50.4148672,54.8716241 C50.3263663,54.9674085 50.3286512,55.1158023 50.4200592,55.2088165 C50.5087788,55.299095 50.6538853,55.3003588 50.7441639,55.2116393 C50.7450429,55.2107754 50.745915,55.2099044 50.7467801,55.2090264 L50.7475281,55.2082672 C50.8395429,55.1148758 50.8422322,54.9657594 50.7536447,54.8691109 Z" id="路径-738" fill="#646C67"></path>
                <path d="M52.4728829,55.7500313 L52.4681549,55.744873 C52.3853981,55.6545858 52.2451182,55.6484812 52.154831,55.7312381 C52.1503078,55.735384 52.1459587,55.7397158 52.1417948,55.7442224 L52.1341055,55.7525445 C52.0456046,55.8483289 52.0478895,55.9967228 52.1392975,56.0897369 C52.228017,56.1800154 52.3731236,56.1812792 52.4634021,56.0925597 C52.4642812,56.0916958 52.4651533,56.0908248 52.4660183,56.0899468 L52.4667664,56.0891876 C52.5587812,55.9957962 52.5614705,55.8466798 52.4728829,55.7500313 Z" id="路径-738" fill="#646C67"></path>
                <path d="M54.2551705,56.6791695 L54.2504425,56.6740112 C54.1676857,56.583724 54.0274058,56.5776194 53.9371186,56.6603762 C53.9325954,56.6645221 53.9282463,56.668854 53.9240824,56.6733606 L53.9163931,56.6816827 C53.8278922,56.7774671 53.8301771,56.9258609 53.9215851,57.0188751 C54.0103046,57.1091536 54.1554112,57.1104174 54.2456897,57.0216979 C54.2465688,57.020834 54.2474409,57.019963 54.2483059,57.019085 L54.249054,57.0183258 C54.3410688,56.9249344 54.3437581,56.775818 54.2551705,56.6791695 Z" id="路径-738" fill="#7E807F"></path>
                <path d="M48.0817697,55.4088448 L48.0770416,55.4036865 C47.9942848,55.3133993 47.8540049,55.3072947 47.7637177,55.3900515 C47.7591945,55.3941974 47.7548454,55.3985293 47.7506815,55.4030358 L47.7429922,55.411358 C47.6544913,55.5071424 47.6567762,55.6555362 47.7481842,55.7485504 C47.8369038,55.8388289 47.9820103,55.8400927 48.0722889,55.7513732 C48.0731679,55.7505093 48.07404,55.7496383 48.0749051,55.7487603 L48.0756531,55.7480011 C48.1676679,55.6546097 48.1703572,55.5054933 48.0817697,55.4088448 Z" id="路径-738" fill="#646C67"></path>
                <path d="M49.7325875,56.0914009 L49.7278595,56.0862427 C49.6451027,55.9959555 49.5048228,55.9898509 49.4145356,56.0726077 C49.4100124,56.0767536 49.4056633,56.0810854 49.4014994,56.085592 L49.39381,56.0939141 C49.3053091,56.1896985 49.3075941,56.3380924 49.3990021,56.4311066 C49.4877216,56.5213851 49.6328282,56.5226489 49.7231067,56.4339293 C49.7239858,56.4330654 49.7248579,56.4321944 49.7257229,56.4313164 L49.7264709,56.4305573 C49.8184858,56.3371659 49.821175,56.1880494 49.7325875,56.0914009 Z" id="路径-738" fill="#646C67"></path>
                <path d="M51.3246285,56.8539742 L51.3199005,56.8488159 C51.2371437,56.7585287 51.0968638,56.7524241 51.0065766,56.8351809 C51.0020534,56.8393268 50.9977043,56.8436587 50.9935404,56.8481652 L50.9858511,56.8564874 C50.8973502,56.9522718 50.8996351,57.1006656 50.9910431,57.1936798 C51.0797626,57.2839583 51.2248692,57.2852221 51.3151477,57.1965025 C51.3160268,57.1956386 51.3168989,57.1947677 51.317764,57.1938897 L51.318512,57.1931305 C51.4105268,57.0997391 51.4132161,56.9506226 51.3246285,56.8539742 Z" id="路径-738" fill="#7E807F"></path>
                <path d="M47.1405465,56.9371956 L47.1358185,56.9320374 C47.0530617,56.8417501 46.9127818,56.8356455 46.8224945,56.9184024 C46.8179714,56.9225483 46.8136223,56.9268801 46.8094584,56.9313867 L46.801769,56.9397088 C46.7132681,57.0354932 46.7155531,57.1838871 46.8069611,57.2769012 C46.8956806,57.3671798 47.0407872,57.3684435 47.1310657,57.279724 C47.1319448,57.2788601 47.1328169,57.2779891 47.1336819,57.2771111 L47.1344299,57.2763519 C47.2264448,57.1829605 47.229134,57.0338441 47.1405465,56.9371956 Z" id="路径-738" fill="#646C67"></path>
                <path d="M48.6446969,57.6941231 L48.6399689,57.6889648 C48.5572121,57.5986776 48.4169322,57.592573 48.3266449,57.6753299 C48.3221218,57.6794758 48.3177726,57.6838076 48.3136087,57.6883142 L48.3059194,57.6966363 C48.2174185,57.7924207 48.2197035,57.9408145 48.3111115,58.0338287 C48.399831,58.1241072 48.5449376,58.125371 48.6352161,58.0366515 C48.6360952,58.0357876 48.6369673,58.0349166 48.6378323,58.0340386 L48.6385803,58.0332794 C48.7305952,57.939888 48.7332844,57.7907716 48.6446969,57.6941231 Z" id="路径-738" fill="#7E807F"></path>
                <path d="M50.2367379,58.4566963 L50.2320099,58.4515381 C50.1492531,58.3612509 50.0089732,58.3551463 49.918686,58.4379031 C49.9141628,58.442049 49.9098137,58.4463808 49.9056498,58.4508874 L49.8979604,58.4592095 C49.8094595,58.5549939 49.8117445,58.7033878 49.9031525,58.796402 C49.991872,58.8866805 50.1369786,58.8879443 50.2272571,58.7992247 C50.2281362,58.7983608 50.2290083,58.7974898 50.2298733,58.7966119 L50.2306213,58.7958527 C50.3226362,58.7024613 50.3253254,58.5533448 50.2367379,58.4566963 Z" id="路径-738" fill="#7E807F"></path>
                <path d="M45.9439523,58.3437203 L45.9392242,58.338562 C45.8564674,58.2482748 45.7161875,58.2421702 45.6259003,58.324927 C45.6213772,58.3290729 45.617028,58.3334048 45.6128641,58.3379113 L45.6051748,58.3462335 C45.5166739,58.4420179 45.5189588,58.5904117 45.6103668,58.6834259 C45.6990864,58.7737044 45.844193,58.7749682 45.9344715,58.6862486 C45.9353506,58.6853847 45.9362227,58.6845138 45.9370877,58.6836358 L45.9378357,58.6828766 C46.0298505,58.5894852 46.0325398,58.4403687 45.9439523,58.3437203 Z" id="路径-738" fill="#7E807F"></path>
                <path d="M47.4900338,59.1694039 L47.4853058,59.1642456 C47.402549,59.0739584 47.2622691,59.0678538 47.1719819,59.1506106 C47.1674587,59.1547565 47.1631096,59.1590883 47.1589457,59.1635949 L47.1512563,59.1719171 C47.0627554,59.2677015 47.0650404,59.4160953 47.1564484,59.5091095 C47.2451679,59.599388 47.3902745,59.6006518 47.480553,59.5119322 C47.4814321,59.5110683 47.4823042,59.5101974 47.4831692,59.5093194 L47.4839172,59.5085602 C47.5759321,59.4151688 47.5786213,59.2660523 47.4900338,59.1694039 Z" id="路径-738" fill="#7E807F"></path>
                <path d="M44.7919137,59.7519539 L44.7871857,59.7467957 C44.7044289,59.6565084 44.5641489,59.6504038 44.4738617,59.7331607 C44.4693386,59.7373066 44.4649894,59.7416384 44.4608255,59.746145 L44.4531362,59.7544671 C44.3646353,59.8502515 44.3669203,59.9986454 44.4583282,60.0916595 C44.5470478,60.1819381 44.6921544,60.1832018 44.7824329,60.0944823 C44.783312,60.0936184 44.7841841,60.0927474 44.7850491,60.0918694 L44.7857971,60.0911102 C44.877812,59.9977189 44.8805012,59.8486024 44.7919137,59.7519539 Z" id="路径-738" fill="#7E807F"></path>
                <path d="M48.1496887,51.2870789 C47.9987488,51.315155 47.8772888,51.3259684 47.7853088,51.319519 C47.6473389,51.309845 47.5783997,51.5821228 47.4534912,51.6079407 C47.3285828,51.6337585 47.3197021,51.6975127 47.375824,51.72014 C47.4319458,51.7427673 47.6201135,51.8340626 47.7348309,51.8453302 C47.8495483,51.8565979 48.1202698,51.7807007 48.1268616,51.6579285 C48.1312561,51.5760803 48.1388652,51.4524638 48.1496887,51.2870789 Z" id="路径-740" fill="#474D4F"></path>
                <path d="M50.0028687,48.7615286 C50.0616048,48.6218645 50.1806742,48.5259908 50.3600769,48.4739075 C50.5394796,48.4218241 50.6737981,48.3988647 50.7630324,48.4050293 C50.7455347,48.5930583 50.652537,48.7217712 50.4840393,48.7911682 C50.3155416,48.8605652 50.1551514,48.8506853 50.0028687,48.7615286 Z" id="路径-741" fill="#474D4F"></path>
            </g>
        </g>
    </g>
</svg>