<?xml version="1.0" encoding="UTF-8"?>
<svg width="96px" height="96px" viewBox="0 0 96 96" version="1.1" xmlns="http://www.w3.org/2000/svg" xmlns:xlink="http://www.w3.org/1999/xlink">
    <title>Nike Zoom 2K</title>
    <defs>
        <rect id="path-1" x="0" y="0" width="96" height="96"></rect>
    </defs>
    <g id="icon" stroke="none" stroke-width="1" fill="none" fill-rule="evenodd">
        <g id="画板" transform="translate(-506.000000, -582.000000)">
            <g id="Nike-Zoom-2K" transform="translate(506.000000, 582.000000)">
                <g id="#" opacity="0">
                    <use fill="#FFFFFF" fill-rule="evenodd" xlink:href="#path-1"></use>
                    <rect stroke-opacity="0.5" stroke="#DDDDDD" stroke-width="6" stroke-linejoin="square" x="3" y="3" width="90" height="90"></rect>
                    <rect stroke-opacity="0.507785184" stroke="#DDDDDD" stroke-width="12" stroke-linejoin="square" x="6" y="6" width="84" height="84"></rect>
                    <rect stroke-opacity="0.319406703" stroke="#979797" stroke-width="10" stroke-linejoin="square" x="5" y="5" width="86" height="86"></rect>
                </g>
                <path d="M27.0894165,54.0686646 C26.9213867,53.9691162 26.5587463,53.9860229 27.2009277,53.2828064 C27.8431091,52.5795898 28.7520752,51.8708801 29.2564087,51.8708801 C29.7607422,51.8708801 30.817688,51.4581299 31.3027954,50.5689087 C31.7879028,49.6796875 31.8931885,49.5668335 32.2280884,49.5668335 C32.5629883,49.5668335 33.5257568,49.3057861 33.7606812,49.3057861 C33.9956055,49.3057861 34.0487061,49.3401489 34.4787598,49.0467529 C34.9088135,48.7533569 35.9991455,48.3495483 36.71521,48.1112061 C37.4312744,47.8728638 38.8872681,47.1402588 39.4951172,46.6583252 C40.1029663,46.1763916 44.3831039,44.5814209 45.8568115,43.956665 C47.3305192,43.3319092 48.2229004,42.9447021 49.1456299,42.201416 C50.0683594,41.4581299 51.9044189,39.8221436 52.217041,39.4902344 C52.5296631,39.1583252 54.6270752,37.5096436 55.3920898,37.1329346 C56.1571045,36.7562256 56.5328369,36.5557861 57.1845703,36.8443604 C57.8363037,37.1329346 58.6795654,38.479248 58.5411377,38.9875488 C58.40271,39.4958496 56.3347168,41.5201416 56.213623,42.201416 C56.0925293,42.8826904 56.4912109,43.6700439 57.1080322,44.0839844 C57.7248535,44.4979248 60.9824219,46.3660889 62.0229492,46.6583252 C63.0634766,46.9505615 65.0878906,47.50354 67.2855225,46.6583252 C69.4831543,45.8131104 72.119751,44.0968018 72.1898193,43.3693848 C72.2598877,42.6419678 71.5324707,41.7872314 71.1552734,41.0965576 C70.7780762,40.4058838 70.5390625,39.5880127 71.1552734,38.9875488 C71.7714844,38.387085 72.8880615,37.5648193 73.3835449,37.5828857 C73.8790283,37.6009521 74.4818115,37.7086182 74.7651367,37.9194336 C74.9540202,38.0599772 75.1641439,38.2452799 75.3955078,38.4753418 C75.7620036,38.7614746 76.1651204,39.2109578 76.6048584,39.8237915 C77.2644653,40.743042 77.3950806,41.1705322 77.6708984,41.5751343 C77.7542022,41.9116705 77.9737351,42.2223182 78.1386108,42.6917725 C78.4120483,43.4703369 79.1959229,45.4448242 79.4992676,46.6583252 C79.8026123,47.8718262 80.4454346,49.3244629 80.8135986,50.1064453 C81.1817627,50.8884277 81.6756592,53.0402832 81.6577277,54.263916 C81.6451052,55.0796712 81.6451052,56.2806803 81.6577277,57.8669434 C70.8006228,62.1032715 62.3192546,64.4677734 56.213623,64.9604492 C47.0551758,65.6994629 32.3239746,61.362793 30.1445313,58.6708984 C27.9650879,55.9790039 27.2574463,54.1682129 27.0894165,54.0686646 Z" id="路径-850" fill="#4E4E4E"></path>
                <path d="M78.2871094,35.6062012 C78.3479004,37.553772 77.7826538,39.8720093 77.6891479,40.7843018 C77.6073303,41.5825577 77.803463,41.8481846 78.0369563,42.4236959 L78.807724,44.5119476 C79.0221771,45.1060516 79.2390228,45.7349506 79.3948392,46.2734022 L79.4992676,46.6583252 C79.8026123,47.8718262 80.4454346,49.3244629 80.8135986,50.1064453 C81.1817627,50.8884277 81.6756592,53.0402832 81.6582024,54.263916 L81.6485863,56.2449265 L81.6582024,57.8669434 L81.6582024,57.8669434 C70.8004557,62.1032715 62.3192546,64.4677734 56.213623,64.9604492 C47.0551758,65.6994629 32.3239746,61.362793 30.1445313,58.6708984 L29.5859282,57.9592146 C27.8408854,55.6639117 27.2421709,54.159163 27.0894165,54.0686646 L26.9139783,53.9854797 C26.7933545,53.911343 26.7563406,53.7696486 27.2009277,53.2828064 C27.7436063,52.6885498 28.4768006,52.0903704 28.9953311,51.9192674 C29.2282997,51.9723208 29.4359811,52.0105185 29.6069336,52.0285645 C30.8947754,52.1645104 33.9360352,50.6308594 36.7974492,49.8221626 C39.6588632,49.0134659 45.1855469,46.0180664 48.8137207,44.5300293 C51.9529363,43.2425305 56.9693881,39.6440811 58.4980492,38.5315142 C58.5535754,38.7150713 58.5724148,38.8727008 58.5411377,38.9875488 C58.40271,39.4958496 56.3347168,41.5201416 56.213623,42.201416 C56.0925293,42.8826904 56.4912109,43.6700439 57.1080322,44.0839844 L57.4536374,44.3014605 L58.3899739,44.8503641 C59.6178476,45.5509836 61.3225943,46.4616277 62.0229492,46.6583252 L62.4897125,46.7851937 L63.0498942,46.9162809 C64.1554818,47.1460563 65.6739258,47.2781494 67.2855225,46.6583252 C69.4831543,45.8131104 72.119751,44.0968018 72.1898193,43.3693848 C72.2598877,42.6419678 71.5324707,41.7872314 71.1552734,41.0965576 C70.7780762,40.4058838 70.5390625,39.5880127 71.1552734,38.9875488 C71.7714844,38.387085 72.8880615,37.5648193 73.3835449,37.5828857 C73.8790283,37.6009521 74.4818115,37.7086182 74.7651367,37.9194336 C74.9540202,38.0599772 75.1641439,38.2452799 75.3955078,38.4753418 L75.1338409,37.3023663 L74.9557251,36.4222095 C74.9102783,36.177627 74.8787567,35.9818475 74.8611603,35.8348712 L74.8482056,35.7041626 C74.8066406,35.131958 74.9123535,33.6342773 75.9591064,33.3207397 C77.0058594,33.0072021 78.2263184,33.6586304 78.2871094,35.6062012 Z M76.1620483,33.7484131 C75.5222778,33.9512939 75.1488647,34.5109863 75.3768311,36.0143433 C75.5288086,37.0165812 75.7075399,37.9743652 75.9130249,38.8876953 L77.1027222,40.6716309 L77.2414246,39.2630463 C77.2733459,38.9751968 77.3032017,38.73557 77.3309917,38.5441656 L77.3580933,38.3688354 C77.4637451,37.7318115 77.902832,36.1962891 77.677124,35.0766602 C77.451416,33.9570313 76.8018188,33.5455322 76.1620483,33.7484131 Z" id="形状" fill="#090909"></path>
                <path d="M78.2871094,35.6062012 C78.3479004,37.553772 77.7826538,39.8720093 77.6891479,40.7843018 C77.6073303,41.5825577 77.803463,41.8481846 78.0369563,42.4236959 L78.807724,44.5119476 C79.0221771,45.1060516 79.2390228,45.7349506 79.3948392,46.2734022 L79.4992676,46.6583252 C79.8026123,47.8718262 80.4454346,49.3244629 80.8135986,50.1064453 C81.1817627,50.8884277 81.6756592,53.0402832 81.6582024,54.263916 L81.6485863,56.2449265 L81.6582024,57.8669434 L81.3415008,57.9876973 L81.1387821,55.8746548 C80.9151391,53.7237097 80.7269513,52.4950066 80.5742188,52.1885455 L80.1574465,51.2661922 C79.2759388,49.2736801 77.3287719,44.782057 76.6601984,43.410954 L76.5736389,43.236917 C75.8774414,41.8725586 74.8007813,40.371582 73.3920898,41.081543 L72.7991778,41.3951977 C72.467375,41.5749154 72.0899315,41.7817369 71.7000559,41.9831195 L71.3215381,41.3800241 C71.2617448,41.2830812 71.2054148,41.1883698 71.1552734,41.0965576 C70.7780762,40.4058838 70.5390625,39.5880127 71.1552734,38.9875488 C71.7714844,38.387085 72.8880615,37.5648193 73.3835449,37.5828857 C73.8790283,37.6009521 74.4818115,37.7086182 74.7651367,37.9194336 C74.9540202,38.0599772 75.1641439,38.2452799 75.3955078,38.4753418 L75.1338409,37.3023663 L74.9557251,36.4222095 L74.8833984,35.9981152 C74.8744385,35.938278 74.8670258,35.8838633 74.8611603,35.8348712 L74.8482056,35.7041626 C74.8066406,35.131958 74.9123535,33.6342773 75.9591064,33.3207397 C77.0058594,33.0072021 78.2263184,33.6586304 78.2871094,35.6062012 Z M76.1620483,33.7484131 C75.5222778,33.9512939 75.1488647,34.5109863 75.3768311,36.0143433 C75.5288086,37.0165812 75.7075399,37.9743652 75.9130249,38.8876953 L77.1027222,40.6716309 L77.2414246,39.2630463 L77.3309917,38.5441656 L77.3309917,38.5441656 L77.3580933,38.3688354 C77.4637451,37.7318115 77.902832,36.1962891 77.677124,35.0766602 C77.451416,33.9570312 76.8018188,33.5455322 76.1620483,33.7484131 Z" id="形状" fill="#262626"></path>
                <path d="M50.6442719,41.0414429 C50.3662614,40.6483048 50.0952028,40.5298991 49.8310963,40.6862256 C49.4349365,40.9207153 49.6943359,41.5645142 49.9514771,41.9515991 C50.2086182,42.3386841 50.7799988,43.3500321 50.6442719,43.6721474 C50.5085449,43.9942627 50.9062336,44.1181641 50.1460489,44.3762207 C49.3858643,44.6342773 49.0973511,44.8237305 48.7653198,44.7998047 C48.4332886,44.7758789 47.9725225,43.4891357 47.8765811,43.2338867 C47.7806396,42.9786377 47.8302612,42.9403107 48,42.9216324 C48.1697388,42.9029541 48.1364746,42.4671631 47.6918945,42.3328857 C47.2473145,42.1986084 46.5403442,42.0670776 46.2823486,42.3833618 C46.024353,42.699646 46.4090576,44.6464233 46.2823486,45.2779541 C46.1556396,45.9094849 44.8111292,46.4998169 44.4268964,46.5748291 C44.0426636,46.6498413 43.5419922,45.3165894 43.4990845,45.2779541 C43.4704793,45.2521973 43.4155884,45.150533 43.3344116,44.9729614 C43.6069132,44.8940226 43.59316,44.736674 43.2931519,44.5009155 C42.8431396,44.1472778 42.5840454,44.0355225 42.3257446,44.0958862 C42.0674438,44.15625 41.7361245,44.246582 41.7199707,44.8609009 C41.703817,45.4752197 42.2837524,46.6334932 41.7199707,47.3225144 C41.156189,48.0115356 40.2438354,48.2797844 39.9523315,48.2959286 C39.6608276,48.3120728 38.9091797,47.8627413 38.5150757,47.3225144 C38.7293701,47.1378174 38.9765625,47.0285492 38.6755981,46.7697754 C38.3746338,46.5110016 38.1280518,46.4646606 37.87854,46.4711914 C37.6290283,46.4777222 37.2557983,46.7334078 37.199707,47.3225144 C37.1436157,47.9116211 36.8725586,48.4439087 36.5960083,48.7258301 C36.319458,49.0077515 35.4025269,49.5852051 34.9276123,49.6765747 C34.4526978,49.7679443 33.4960938,49.9552612 33.4853516,49.7825928 C33.4746094,49.6099243 33.659729,49.3711184 33.2230835,49.4101686 C32.786438,49.4492188 32.1677856,49.515686 31.8649902,49.6765747 C31.5621948,49.8374634 31.4831543,50.4647217 31.0914917,50.8704224 C30.6998291,51.276123 30.1906128,51.610074 29.9451294,51.7332902 C29.699646,51.8565063 29.1517334,51.7680664 28.7425537,52.0039062 C28.333374,52.2397461 27.1984253,53.3353805 26.9278564,53.614254 C26.6572876,53.8931274 26.9949951,54.0095911 27.1864014,53.8223877 C27.3778076,53.6351843 28.7282715,52.805481 29.0550537,52.6364136 C29.3818359,52.4673462 30.4613037,52.0847494 30.7371826,51.8744365 C31.0130615,51.6641235 31.6721802,51.2109099 32.5708008,51.1694336 C33.4694214,51.1279573 34.9368896,51.1010708 35.1842041,50.9530012 C35.4315186,50.8049316 37.5928955,49.6730312 37.6807861,48.9530012 C37.7686768,48.2329712 37.8389282,47.6886343 37.87854,47.7932002 C37.9181519,47.8977661 38.7428716,49.5496216 39.4284668,49.8887939 C40.114062,50.2279663 42.1065674,49.1583586 42.2896118,48.7562866 C42.4726563,48.3542146 42.8181763,47.1773376 42.7624512,46.7568207 C42.7253011,46.476476 42.6805555,46.1431427 42.6282143,45.7568207 C43.0968966,46.8877309 43.4186808,47.6522827 43.5935669,48.0504761 C43.768453,48.4486694 43.9511515,48.7495111 44.1416626,48.9530012 C45.6885783,48.3381342 46.533905,47.9857992 46.6776428,47.8959961 C46.8932495,47.7612915 47.2509766,45.6763306 47.2371216,45.2779541 C47.2232666,44.8795776 47.0955811,43.8791504 47.1088867,43.9520874 C47.1221924,44.0250244 47.9699097,46.0614791 48,46.9459007 C48.0300903,47.8303223 48.5775124,47.444519 49.4201038,47.0482178 C50.2626953,46.6519165 51.6499634,45.8735352 51.5723267,44.0365601 C51.5205688,42.81191 51.2112172,41.8135376 50.6442719,41.0414429 Z" id="路径-868" fill="#1E1D1D"></path>
                <path d="M37.87854,46.4711914 C38.1280518,46.4646606 38.3746338,46.5110016 38.6755981,46.7697754 C38.7267235,46.8137338 38.762031,46.8533779 38.7843689,46.8898105 L38.3759174,46.7779118 C38.0798366,46.7094698 37.8940522,46.7028719 37.8152466,46.7568207 C37.6309814,46.8829651 37.4990845,48.0593872 37.2420654,48.4798918 C36.9850464,48.9003965 34.8275146,49.9046631 34.3009138,50.0187283 C33.8401381,50.1185353 33.2924204,49.9726577 33.0708952,49.9527413 L32.9971313,49.9530012 C32.8601074,49.980038 32.1674194,49.8964844 31.9697266,49.9530012 C31.8856667,49.9770324 31.6901331,50.1411192 31.383126,50.4452617 L31.5667437,50.0653427 C31.6532131,49.8887378 31.7400553,49.7429582 31.8649902,49.6765747 C32.1677856,49.515686 32.786438,49.4492188 33.2230835,49.4101686 C33.659729,49.3711184 33.4746094,49.6099243 33.4853516,49.7825928 C33.4960938,49.9552612 34.4526978,49.7679443 34.9276123,49.6765747 C35.4025269,49.5852051 36.319458,49.0077515 36.5960083,48.7258301 C36.8725586,48.4439087 37.1436157,47.9116211 37.199707,47.3225144 C37.2557983,46.7334078 37.6290283,46.4777222 37.87854,46.4711914 Z M42.3257446,44.0958862 C42.5840454,44.0355225 42.8431396,44.1472778 43.2931519,44.5009155 C43.4956204,44.6600235 43.5677117,44.7834189 43.5094256,44.871102 C43.1550754,44.475663 42.906262,44.2558783 42.7575073,44.208252 C42.5398254,44.1385574 42.4568195,44.5256958 42.4662106,44.8673892 L42.475769,45.0095825 C42.515686,45.3735352 42.4718628,46.812439 42.2453003,47.1563906 C42.0187378,47.5003422 40.9203491,48.4084473 40.4118652,48.4798918 C39.9033813,48.5513364 39.092041,48.364502 38.8045654,48 L38.4352393,47.5308589 C38.3133138,47.3604963 38.264011,47.2441341 38.4098511,47.2665563 C38.4645411,47.2749647 38.5082983,47.2867724 38.545842,47.3006891 L38.5150757,47.3225144 C38.9091797,47.8627413 39.6608276,48.3120728 39.9523315,48.2959286 C40.2438354,48.2797844 41.156189,48.0115356 41.7199707,47.3225144 L41.6362925,47.4209904 C42.1953368,47.0996993 42.0814605,46.5397583 42.1086426,46.2649808 C42.1319002,46.029875 41.7824797,45.1396895 41.9140871,44.288825 C42.0348678,44.167409 42.1903391,44.1275299 42.3257446,44.0958862 Z M46.2823486,42.3833618 C46.5403442,42.0670776 47.2473145,42.1986084 47.6918945,42.3328857 C47.9649247,42.4153495 48.0828245,42.6115311 48.0938441,42.7549799 C47.8436655,42.6075065 47.3288934,42.4562987 47.0869751,42.4277954 C46.7893677,42.3927307 46.9638672,42.8824158 46.9235001,43.3600464 L46.8358973,44.590114 C46.8059372,44.9412076 46.7673383,45.2805525 46.7142639,45.5081787 C46.5904236,46.0393066 45.0267029,46.8551941 44.4173279,47.0133057 C43.9298279,47.1397949 43.6266638,46.7597412 43.352877,46.3004414 L43.1506239,45.9477844 C42.926638,45.5542704 42.725602,45.1659851 42.5475159,44.7829285 C42.6925354,44.6803487 42.82901,44.6585083 42.9569397,44.7174072 C43.0422262,44.7566732 43.1409539,44.8130471 43.253123,44.8865289 L43.3597827,44.9615116 L43.3344116,44.9729614 L43.4364624,45.1823883 C43.4501851,45.2078044 43.462265,45.2284762 43.472702,45.2444038 L43.4990845,45.2779541 L43.7335513,45.772748 C43.9238991,46.1578687 44.1963567,46.6198364 44.4268964,46.5748291 C44.8111292,46.4998169 46.1556396,45.9094849 46.2823486,45.2779541 C46.4090576,44.6464233 46.024353,42.699646 46.2823486,42.3833618 Z M49.8310963,40.6862256 C50.0952028,40.5298991 50.3662614,40.6483048 50.6442719,41.0414429 L50.722806,41.1522491 L50.722806,41.1522491 L50.9601202,41.9159937 L50.9601202,41.9159937 L51.0083618,42.0466919 C51.1515808,42.3904114 51.2355957,43.0031433 51.1143188,43.6721474 C50.993042,44.3411515 49.9396973,45.0377502 49.4201038,45.2983704 C48.9005104,45.5589905 48.4108887,45.4333801 48.2261047,45.2275085 C48.0413208,45.021637 47.1846619,43.2155151 47.0869751,42.9216324 C46.9892883,42.6277497 47.1620789,42.6338806 47.4491577,42.6744385 C47.6176767,42.6982465 47.772809,42.8225021 47.9210794,42.9347835 C47.837944,42.955744 47.8089356,43.0004777 47.8409862,43.1248256 L47.9739764,43.4924609 C48.1516795,43.9533203 48.4996948,44.7806641 48.7653198,44.7998047 C49.0973511,44.8237305 49.3858643,44.6342773 50.1460489,44.3762207 C50.6251957,44.2135668 50.6443402,44.1042104 50.6269949,43.9649235 C50.8094482,43.8495178 50.7874756,43.3830261 50.5916748,42.5853106 C50.4426487,41.9781605 50.0276844,41.6456751 49.6550434,41.2922178 C49.5962617,41.0415179 49.6247631,40.8083557 49.8310963,40.6862256 Z" id="形状" fill="#717171"></path>
                <path d="M71.338562,53.8433838 C71.0839844,53.3054199 71.9852905,51.2744141 73.9017944,49.2253418 C75.8182983,47.1762695 76.9651489,46.5006104 77.4136353,46.5681763 C77.8621216,46.6357422 78.4368896,47.3825073 78.4795532,49.3277588 C78.5222168,51.2730103 78.4284058,52.2755127 77.8656616,52.7820435 C77.3029175,53.2885742 76.0346069,53.7056274 74.3847656,54.0067749 C72.7349243,54.3079224 71.5931396,54.3813477 71.338562,53.8433838 Z" id="路径-854" fill="#8A8888"></path>
                <path d="M77.4136353,46.5681763 C77.6546219,46.6044817 77.9320695,46.8368903 78.1438343,47.3459658 C78.2211465,47.80768 78.0614202,48.2420026 77.5561523,48.4904785 C76.9537457,48.7867244 76.0510523,49.5212792 75.217289,50.2490849 L73.4577637,51.8254395 C72.6358129,52.5454975 71.8996096,53.5530761 71.9034687,51.9215651 C72.3395673,51.1262103 73.011025,50.1777275 73.9017944,49.2253418 C75.8182983,47.1762695 76.9651489,46.5006104 77.4136353,46.5681763 Z" id="路径" fill="#9A9A9A"></path>
                <path d="M78.4795532,49.3277588 L78.4885128,50.1050212 C78.4858436,51.5493177 78.3480137,52.3478742 77.8656616,52.7820435 C77.7616103,52.8757009 77.6334371,52.9662993 77.4831904,53.0536716 L77.4337761,53.0604032 L77.2965088,53.0537109 C76.4878673,52.9303589 74.0431519,53.4467163 72.9165039,53.6191406 C72.1629666,53.7344634 72.1701503,53.9920357 71.9074834,54.1963894 C71.6191342,54.1414076 71.4262354,54.028652 71.338562,53.8433838 C71.174905,53.4975499 71.4889346,52.5346935 72.2432747,51.3466723 C72.2773889,51.6601282 71.926331,52.8871587 72.2293701,53.105957 C72.6355591,53.399231 74.9597035,52.8101807 76.0787964,52.5145874 C77.1978893,52.2189941 77.8618774,51.3863525 78.0559692,49.7695313 C78.1648748,48.8623276 78.1253548,47.7478942 77.9897735,47.0401543 C78.2477605,47.4627513 78.4546085,48.1904 78.4795532,49.3277588 Z" id="路径" fill="#6A6A6A"></path>
                <path d="M77.4136353,46.5681763 C77.7467364,46.618359 78.1494992,47.0432135 78.3521739,48.0554989 C78.0318031,47.2722342 77.6232059,46.9100973 77.3396129,46.857666 C76.9820823,46.7915649 75.4462891,48.0160522 73.9083862,49.5395508 C72.3704834,51.0630493 71.671936,52.8164062 71.5814819,53.3657227 C71.4910278,53.9150391 71.7474976,54.173584 73.9740601,53.888916 C75.4584351,53.6991374 76.9136194,53.2187703 78.3396129,52.4478149 L78.0225598,52.6124138 C77.9748402,52.6743538 77.922656,52.7307424 77.8656616,52.7820435 C77.3029175,53.2885742 76.0346069,53.7056274 74.3847656,54.0067749 L73.7099017,54.1207774 C72.4268064,54.3164237 71.5567714,54.3044957 71.338562,53.8433838 C71.0839844,53.3054199 71.9852905,51.2744141 73.9017944,49.2253418 C75.8182983,47.1762695 76.9651489,46.5006104 77.4136353,46.5681763 Z" id="路径" fill="#BFBFBF"></path>
                <path d="M76.178833,49.8393555 C75.5692139,49.8530884 74.6775513,49.8915405 74.4780273,50.1939697 C74.2785034,50.4963989 74.3633423,51.1607666 74.5424805,51.6207886 C74.7216187,52.0808105 75.0675009,52.2509766 75.2227783,52.2885132 C75.3780557,52.3260498 77.1833496,52.3396606 77.4172363,52.0848999 C77.651123,51.8301392 77.6818848,51.4126787 77.6818848,51.0665078 C77.6818848,50.7203369 77.6300659,49.9713135 77.3052368,49.8822632 C76.9804077,49.7932129 76.7884521,49.8256226 76.178833,49.8393555 Z" id="路径-855" fill="#B4860E"></path>
                <path d="M77.6761492,51.2940608 L77.6560879,51.5011566 C77.6247754,51.7206151 77.5575684,51.9320435 77.4172363,52.0848999 C77.1833496,52.3396606 75.3780557,52.3260498 75.2227783,52.2885132 C75.0896834,52.2563389 74.8165523,52.1267227 74.628421,51.800653 L74.5336997,51.5978762 L74.5336997,51.5978762 L75.0959976,51.5019138 C76.183441,51.3293025 77.0434915,51.2600182 77.6761492,51.2940608 Z" id="路径" fill="#A7A79D"></path>
                <path d="M76.1867256,50.0892309 C75.6764909,50.1007352 74.8622251,50.0655966 74.6867049,50.3316421 C74.5172671,50.5884682 74.6279307,51.1512701 74.7754404,51.5300711 C74.909666,51.8747587 75.1628928,52.0168355 75.2815211,52.0455126 C75.3735246,52.0677534 76.0795783,52.0740607 76.645881,52.0215162 C76.9092499,51.9970794 77.1651746,51.9897905 77.233076,51.9158289 C77.4281335,51.703363 77.4318848,51.3496895 77.4318848,51.0665078 C77.4318848,50.8905456 77.4113365,50.5999066 77.1404522,50.0999097 C76.9425217,50.0607129 76.7433586,50.071649 76.1867256,50.0892309 Z" id="路径-855" stroke="#131110" stroke-width="0.5"></path>
                <path d="M57.1845703,36.8443604 C57.8363037,37.1329346 58.6795654,38.479248 58.5411377,38.9875488 C58.40271,39.4958496 56.3347168,41.5201416 56.213623,42.201416 C56.0925293,42.8826904 56.4912109,43.6700439 57.1080322,44.0839844 L57.4536374,44.3014605 C58.5046043,44.9403419 61.1124878,46.4026184 62.0229492,46.6583252 L62.4897125,46.7851937 C63.6063997,47.0731657 65.3809082,47.3908447 67.2855225,46.6583252 C69.4831543,45.8131104 72.119751,44.0968018 72.1898193,43.3693848 C72.2598877,42.6419678 71.5324707,41.7872314 71.1552734,41.0965576 C70.7780762,40.4058838 70.5390625,39.5880127 71.1552734,38.9875488 C71.7714844,38.387085 72.8880615,37.5648193 73.3835449,37.5828857 C73.8790283,37.6009521 74.4818115,37.7086182 74.7651367,37.9194336 L75.0118118,38.1180018 L75.0118118,38.1180018 C74.7260661,38.060937 74.478784,38.0761362 74.269862,38.1629383 L74.1203613,38.2414551 C73.7202759,38.4998779 73.251709,38.5767212 72.6347656,38.9527588 C72.0178223,39.3287964 72.3740234,40.182373 73.199585,41.600708 C74.0251465,43.019043 73.4423828,44.4123535 72.9035645,44.987793 C72.3647461,45.5632324 69.458252,47.1473389 67.5539551,47.8238525 C65.6496582,48.5003662 64.1126709,48.4865723 61.0317383,47.4406738 C57.9508057,46.3947754 55.3468018,44.0454712 54.9304199,43.4031982 C54.5140381,42.7609253 54.5880737,41.9563599 55.0267944,41.0256348 C55.4655151,40.0949097 57.140564,38.793396 57.2127075,38.5771484 C57.2848511,38.3609009 56.6942139,37.2896729 56.5922852,37.2198486 C56.4903564,37.1500244 56.2588501,37.0662842 55.7475586,37.2198486 C55.2362671,37.3734131 54.8065186,37.6693115 54.7301636,37.8862305 C54.6538086,38.1031494 54.8517456,38.2176514 54.7301636,38.4720459 C54.6085815,38.7264404 54.5527954,38.4712524 54.3502197,38.5771484 L53.8980225,38.8310723 L53.8980225,38.8310723 L53.8280029,38.8595581 C53.7364502,38.883728 53.4602661,39.0304565 53.5014648,39.1282959 C53.5426636,39.2261353 54.345459,39.2644653 54.4628906,39.4338989 C54.5656433,39.5821533 54.2971725,39.6983042 53.9706047,39.6875713 L53.8280029,39.6749268 C53.4431152,39.6190186 52.5673828,39.6152344 52.2805176,39.7197266 C52.1851398,39.7544684 51.8631698,39.9581854 51.3146077,40.3308774 L52.0614263,39.6445551 L52.0614263,39.6445551 L52.217041,39.4902344 C52.5296631,39.1583252 54.6270752,37.5096436 55.3920898,37.1329346 L55.8517289,36.9113413 C56.3377264,36.6912902 56.6776666,36.6199137 57.1845703,36.8443604 Z" id="路径" fill="#C8C8C8"></path>
                <path d="M62.0229492,46.6583252 L62.4897125,46.7851937 L63.0498942,46.9162809 C64.1554818,47.1460563 65.6739258,47.2781494 67.2855225,46.6583252 C67.744283,46.4818847 68.2221725,46.2674842 68.6918503,46.0320436 C68.736403,46.5027616 68.6959213,46.9836089 68.5766857,47.4169931 C68.2169916,47.5729644 67.8715365,47.7110297 67.5539551,47.8238525 C65.6496582,48.5003662 64.1126709,48.4865723 61.0317383,47.4406738 C59.6924372,46.9860151 58.4432611,46.2850522 57.4247372,45.5850815 C57.6414095,45.4013394 57.9237523,45.2306661 58.2790787,45.0749745 L58.5705585,44.9529641 L59.258873,45.3361869 C60.3229662,45.9189617 61.4775324,46.5051427 62.0229492,46.6583252 Z" id="路径" fill="#999999"></path>
                <path d="M57.1845703,36.8443604 C57.8363037,37.1329346 58.6795654,38.479248 58.5411377,38.9875488 C58.40271,39.4958496 56.3347168,41.5201416 56.213623,42.201416 C56.0925293,42.8826904 56.4912109,43.6700439 57.1080322,44.0839844 L57.5326077,44.3491935 L57.3036585,45.5011252 C56.0434334,44.6194719 55.1585594,43.7551056 54.9304199,43.4031982 C54.5140381,42.7609253 54.5880737,41.9563599 55.0267944,41.0256348 C55.4655151,40.0949097 57.140564,38.793396 57.2127075,38.5771484 C57.2848511,38.3609009 56.6942139,37.2896729 56.5922852,37.2198486 C56.4903564,37.1500244 56.2588501,37.0662842 55.7475586,37.2198486 C55.2362671,37.3734131 54.8065186,37.6693115 54.7301636,37.8862305 C54.6538086,38.1031494 54.8517456,38.2176514 54.7301636,38.4720459 C54.6085815,38.7264404 54.5527954,38.4712524 54.3502197,38.5771484 L53.8980225,38.8310723 L53.8280029,38.8595581 C53.7364502,38.883728 53.4602661,39.0304565 53.5014648,39.1282959 C53.5426636,39.2261353 54.345459,39.2644653 54.4628906,39.4338989 C54.5656433,39.5821533 54.2971725,39.6983042 53.9706047,39.6875713 L53.8280029,39.6749268 C53.4431152,39.6190186 52.5673828,39.6152344 52.2805176,39.7197266 C52.1851398,39.7544684 51.8631698,39.9581854 51.3146077,40.3308774 L52.0614263,39.6445551 L52.217041,39.4902344 C52.5296631,39.1583252 54.6270752,37.5096436 55.3920898,37.1329346 L55.8517289,36.9113413 C56.3377264,36.6912902 56.6776666,36.6199137 57.1845703,36.8443604 Z" id="路径" fill="#E2E2E2"></path>
                <path d="M70.7791597,39.952441 L70.7873234,39.9286708 C70.8686713,39.6835259 70.9865234,39.5876709 71.085083,39.8417969 C71.2962821,40.3863525 71.5102539,40.6087646 72.1324463,41.3548584 C72.7546387,42.1009521 72.7984619,42.8959961 72.6246338,43.3151855 C72.4508057,43.734375 70.8697905,45.2397177 68.7991943,46.404541 C66.7285981,47.5693643 64.6199951,47.3763428 63.1632097,47.1563906 C62.5168052,47.0587934 61.29959,46.4646651 60.073195,45.7734594 L60.656374,46.0706522 C61.2212419,46.3510567 61.7175739,46.5725593 62.0229492,46.6583252 L62.4897125,46.7851937 L63.0498942,46.9162809 C64.1554818,47.1460563 65.6739258,47.2781494 67.2855225,46.6583252 C69.4831543,45.8131104 72.119751,44.0968018 72.1898193,43.3693848 C72.2598877,42.6419678 71.5324707,41.7872314 71.1552734,41.0965576 C70.9570734,40.7336399 70.7970262,40.3356027 70.7791597,39.952441 Z M58.5411377,38.9875488 C58.40271,39.4958496 56.3347168,41.5201416 56.213623,42.201416 C56.1354567,42.6411805 56.2738671,43.1251453 56.547725,43.5243443 L56.5240479,43.5031738 C55.6976318,42.8117676 55.69104,42.2474365 55.8890381,41.7434253 C56.0870361,41.239414 58.1394043,39.2679443 58.3077541,39.0092773 C58.4463951,38.7962575 58.2519683,38.1393274 58.1690597,37.8481068 C58.4394743,38.2838749 58.6092932,38.7372845 58.5411377,38.9875488 Z" id="形状" fill="#777777"></path>
                <path d="M60.1564941,42.6599121 C63.3966064,41.8781738 69.2991943,40.8215332 70.9511719,43.2401123 C72.6031494,45.6586914 71.3210449,48.1082764 70.029541,49.7130127 C68.7380371,51.317749 66.8641357,54.1203613 68.1003418,55.8458252 C69.3365479,57.5712891 73.0125732,56.657959 74.2151489,56.5128784 C75.4177246,56.3677979 80.9733276,53.9744873 81.3074951,53.8106079 C81.5302734,53.701355 81.6071574,53.5614827 81.538147,53.3909912 C81.6382853,53.3629964 81.7673543,53.3629964 81.925354,53.3909912 C82.1623535,53.4329834 82.2440186,53.8765869 82.3139648,54.317627 C82.3605957,54.6116536 82.2893677,54.8556315 82.1002808,55.0495605 L82.1002808,55.0495605 L82.4458008,56.6539307 C78.5188802,59.1056722 74.6873372,60.7434082 70.9511719,61.5671387 C67.2150065,62.3908691 59.196696,63.9274089 46.8962402,66.1767578 C48.5576986,63.8357747 49.0416667,61.6333822 48.3481445,59.5695801 C47.3078613,56.473877 37.3154297,56.3781738 35.9082031,55.7297363 C34.5009766,55.0812988 31.9344482,53.2862549 31.682251,53.233407 C31.4300537,53.1805591 30.9210205,53.3884192 30.2420654,53.3909912 C29.5631104,53.3935633 29.3410645,53.6669922 28.9351807,53.7052002 C28.5292969,53.7434082 27.5078125,53.5545654 27.5078125,53.4333496 C27.5078125,53.3121338 27.852417,52.9849854 28.0532227,52.8220215 C28.2540283,52.6590576 28.260498,52.5233154 28.9675293,52.3970947 C29.6745605,52.270874 29.9771729,52.4852295 31.1938477,52.3564453 C32.4105225,52.2276611 34.4058838,50.9516602 38.8712158,50.0507812 C43.3365479,49.1499023 47.8015137,47.3240967 49.9459229,46.2542725 C52.090332,45.1844482 56.9163818,43.4416504 60.1564941,42.6599121 Z M63.1632097,46.0692139 C60.000858,46.6710205 58.505249,47.4995802 58.3292236,48.4859619 C58.1531982,49.4723436 59.0424805,50.3277588 61.630249,51.1550293 C64.2180176,51.9822998 65.2406006,50.5546875 65.5675049,49.9931641 C65.8944092,49.4316406 67.2446289,47.2409668 67.2224121,46.7076416 C67.2001953,46.1743164 66.3255615,45.4674072 63.1632097,46.0692139 Z" id="形状结合" fill="#EAEAEA"></path>
                <path d="M72.7128393,60.3007847 C65.0726313,58.5847712 60.7088932,57.8068903 59.621625,57.967142 C58.5343568,58.1273937 57.4046158,60.3403713 56.2324022,64.6060749 L72.7128393,60.3007847 Z" id="路径-882" fill="#D8D8D8"></path>
                <path d="M59.621625,57.967142 L59.8729772,57.94784 C60.9933284,57.9187544 63.9172723,58.406081 68.6448088,59.4098199 L72.1866983,60.1834854 C72.2134234,60.2615459 72.2347336,60.3412412 72.2506288,60.4225713 L65.3919168,62.2127249 L59.8318155,61.3287002 C59.106777,61.2043097 58.6815745,61.1217326 58.5562081,61.0809691 C58.2902684,60.9944975 58.0309769,60.4130569 57.9630777,59.7357898 C58.5284241,58.6355685 59.0802888,58.0469291 59.621625,57.967142 Z" id="路径" fill="#C5C5C5"></path>
                <path d="M34.0435791,53.3175049 C35.2601318,53.6448975 36.165097,53.7113306 36.6351318,53.6273193 C37.1051666,53.5433081 49.8131104,49.8836917 50.8399658,49.4101686 C51.8668213,48.9366455 53.9639804,48.4559645 54.1665039,48.119873 C54.3015196,47.8958121 54.2287924,47.6300259 53.9483222,47.3225144 C54.942084,46.6788385 55.6410319,46.7312976 56.045166,47.4798918 C56.6513672,48.6027832 55.942406,50.1560669 51.575451,51.7623596 C47.2084961,53.3686523 36.0643218,56.0330811 34.5672561,55.9447021 C33.0701904,55.8563232 30.7611084,53.8025913 31.2512207,53.1055908 C31.741333,52.4085903 32.8270264,52.9901123 34.0435791,53.3175049 Z" id="路径-881" fill="#CECECE"></path>
                <path d="M51.575451,48.8578143 C51.3555713,48.9922764 51.2098155,49.0340158 51.1381836,48.9830322 C51.0307358,48.9065569 49.8500782,48.0686035 49.8757324,48.0390625 C49.9013866,48.0095215 48.9645996,48.2846557 48.7785034,48.4579406 C48.6544393,48.5734639 48.0814429,48.8527932 47.0595141,49.2959286 C47.0699237,49.8698701 46.9981244,50.214078 46.8441162,50.3285522 C46.613104,50.5002636 46.2510986,50.1896782 46.039917,50.0187283 C45.8287354,49.8477783 45.6919556,49.5918579 45.5029907,49.6342163 C45.3140259,49.6765747 44.1870117,50.0007793 43.9605103,50.0989004 C43.7340088,50.1970215 42.3679199,51.4376831 42.2543945,51.62854 C42.1408691,51.819397 41.982869,51.9574251 41.6282143,51.7332902 C41.2735596,51.5091553 40.9734497,51.0312734 40.7796631,51.0466309 C40.650472,51.0568692 40.1243025,51.1749722 39.2011545,51.4009399 C37.9562116,52.2134399 37.3591105,52.681132 37.4098511,52.8040161 C37.4859619,52.9883423 37.2293091,53.0869141 37.0307617,53.008606 C36.8322144,52.9302979 36.0377197,52.5385132 35.9708862,52.3656006 C35.9040527,52.192688 34.7905884,52.5238037 34.039917,52.7915039 C33.2892456,53.0592041 32.7540894,53.2606812 32.7301025,53.3872681 C32.7061157,53.513855 33.2462769,53.7843628 33.0282593,53.7449951 C32.8102417,53.7056274 31.3191528,53.0166626 31.1432495,53.008606 C30.9673462,53.0005493 36.5508362,51.3522397 37.2501801,51.1506682 C37.9495239,50.9490967 44.0217896,49.5443115 45.1256714,49.0617676 C46.2295532,48.5792236 50.3319092,47.042253 50.8112183,46.9459007 C51.1307576,46.8816658 51.3855019,47.5189703 51.575451,48.8578143 Z" id="路径-870" fill="#505050"></path>
                <path d="M65.557373,42.9230957 C67.8881836,42.9667969 70.2294922,43.3013916 70.7072754,45.3291016 C71.1850586,47.3568115 69.0401611,49.0817508 68.3931885,50.4021425 C67.7462158,51.7225342 67.1279297,52.2669678 66.6547852,53.3271484 C66.5099639,53.6516513 66.9525347,54.1679106 67.7048664,54.6958407 C67.7296309,55.1105512 67.852463,55.4998424 68.1003418,55.8458252 C69.3365479,57.5712891 73.0125732,56.657959 74.2151489,56.5128784 C75.4177246,56.3677979 80.9733276,53.9744873 81.3074951,53.8106079 C81.5302734,53.701355 81.6071574,53.5614827 81.538147,53.3909912 C81.6382853,53.3629964 81.7673543,53.3629964 81.925354,53.3909912 C82.1623535,53.4329834 82.2440186,53.8765869 82.3139648,54.317627 C82.3512695,54.5528483 82.3131445,54.7560384 82.1995898,54.9271973 L82.1002808,55.0495605 L82.4458008,56.6539307 C80.3885826,57.9383384 78.3575404,58.9993458 76.3526742,59.8369529 C75.2064843,60.1160311 73.9732972,60.3439077 72.6049805,60.489502 C69.1357422,60.8586426 64.3532715,59.9013672 60.2949219,59.0012207 C56.2365723,58.1010742 54.3286133,60.3904632 53.7106934,59.3362228 C53.0927734,58.2819824 54.8630371,54.8106983 50.2403564,54.6746362 C45.6176758,54.5385742 36.5386963,55.4016113 36.8031006,55.1719971 C37.0675049,54.9423828 36.9470154,53.4979248 37.2501801,53.4335937 L37.5061419,53.36315 C38.1627688,53.1687351 39.7103271,52.6672927 39.8459473,52.7159424 C40.0062256,52.7734375 40.8787842,53.4992676 41.164917,53.4335937 L41.5225484,53.3407841 C41.7896364,53.2627224 42.0760613,53.1560872 42.1538399,53.0437012 C42.2705078,52.8751221 42.0092773,52.2703857 42.3621826,52.0789795 C42.7150879,51.8875732 44.3625488,51.3302416 44.5581055,51.4069421 C44.7536621,51.4836426 45.1247559,52.0637207 45.3153076,52.0789795 C45.5058594,52.0942383 47.0977877,51.777832 47.0574998,51.6706543 C47.0172119,51.5634766 46.8787935,50.7738037 47.0574998,50.6694336 C47.2362061,50.5650635 49.2099609,49.7670059 49.3570557,49.8221626 C49.5041504,49.8773193 49.8625488,50.9053955 50.7724609,50.6563721 C51.682373,50.4073486 51.1995717,49.3918938 51.2510986,49.2746582 C51.3026256,49.1574226 54.1313993,48.4124172 54.2463637,48.2512525 C54.3613281,48.0900879 54.6696073,47.5412598 54.2463637,47.4405518 C53.8231201,47.3398437 51.9553223,48.3321682 51.4840088,48.2868116 C51.1697998,48.2565739 50.755249,47.9744873 50.2403564,47.4405518 L51.9577336,46.6136131 C54.6483077,45.3366342 56.4802756,44.5659166 57.4536374,44.3014605 L58.2660777,44.0894443 C60.247876,43.5907563 63.5373372,42.8852214 65.557373,42.9230957 Z M63.1632097,46.0692139 C60.000858,46.6710205 58.505249,47.4995802 58.3292236,48.4859619 C58.1531982,49.4723436 59.0424805,50.3277588 61.630249,51.1550293 C63.9715634,51.9035121 65.0316262,50.8061612 65.4544225,50.1744704 L66.0901187,49.1078553 C66.5953788,48.2404424 67.237793,47.0768667 67.2224121,46.7076416 C67.2001953,46.1743164 66.3255615,45.4674072 63.1632097,46.0692139 Z" id="形状" fill="#B0B0B0"></path>
                <path d="M58.3133451,48.6073979 L58.3292236,48.4859619 C58.1531982,49.4723436 59.0424805,50.3277588 61.630249,51.1550293 C63.9715634,51.9035121 65.0316262,50.8061612 65.4544225,50.1744704 L65.4882218,50.1227749 C65.5828813,50.227013 65.6217923,50.3347021 65.5947266,50.4452617 C65.4073486,51.2106743 64.495369,52.7676306 63.5978255,54.1943057 C61.8428589,56.9731145 60.706213,58.7261714 60.187888,59.4534763 C59.4104004,60.5444336 57.3999715,64.0271021 56.9520264,64.067749 C55.0048793,64.2444349 55.3901309,59.9700277 54.5288096,59.8175589 C54.2203921,59.4393125 53.8965777,59.0569484 53.563073,58.6842458 C53.4904903,57.2763835 54.1389809,54.7893867 50.2403564,54.6746362 C45.931937,54.547824 37.7525236,55.288886 36.8743849,55.2043341 L36.866203,55.0773 L36.8031006,55.1719971 C36.9610652,55.0348173 36.9816498,54.4640237 37.0372713,54.0129747 L40.3102025,53.0196864 L40.6314724,53.2305154 C40.8470137,53.3618093 41.0517947,53.4595578 41.164917,53.4335937 L41.5225484,53.3407841 C41.7896364,53.2627224 42.0760613,53.1560872 42.1538399,53.0437012 C42.2225621,52.9444012 42.1601651,52.6937679 42.1694001,52.465419 L44.8530624,51.670615 L45.054872,51.8915877 C45.1539254,51.9941186 45.2464158,52.0734629 45.3153076,52.0789795 C45.5058594,52.0942383 47.0977877,51.777832 47.0574998,51.6706543 L47.0177407,51.4970589 C46.9951213,51.3708241 46.9725677,51.1991867 46.968869,51.0440364 L49.6877245,50.2431686 C49.9069,50.5192721 50.2481048,50.7998771 50.7724609,50.6563721 C51.3083793,50.5097027 51.3611719,50.0971619 51.32456,49.7588606 L52.3834081,49.4534406 C53.5426498,49.1291643 54.9484842,48.7738227 56.1096191,48.6169434 C56.5804455,48.5533307 57.3764363,48.5536349 58.3133451,48.6073979 Z" id="路径" fill="#787878"></path>
                <path d="M80.8730292,54.0497538 C81.3811939,54.0235198 81.8459309,54.0181873 82.2672402,54.0337564 L82.3139648,54.317627 L82.3139648,54.317627 C82.3512695,54.5528483 82.3131445,54.7560384 82.1995898,54.9271973 L82.1002808,55.0495605 L82.4458008,56.6539307 C80.3885826,57.9383384 78.3575404,58.9993458 76.3526742,59.8369529 C76.0072297,59.9210629 75.653883,60.0005221 75.2913164,60.0744797 C73.7992674,59.4898167 72.3476353,58.4253072 70.933311,56.8823606 C72.2320745,56.8854443 73.5745461,56.5901617 74.2151489,56.5128784 C75.2177818,56.3919193 79.2462859,54.7081731 80.7518112,54.0566545 L80.8730292,54.0497538 Z" id="路径" fill="#9F9F9F"></path>
                <path d="M82.2672402,54.0337564 L82.3139648,54.317627 C82.3512695,54.5528483 82.3131445,54.7560384 82.1995898,54.9271973 L82.1002808,55.0495605 L82.4458008,56.6539307 C81.1466831,57.4650244 79.8580039,58.18703 78.5797632,58.8199474 C77.8805742,58.3061095 76.9142922,57.3967996 75.6825161,56.0907887 C77.3072335,55.5168104 79.6749361,54.522674 80.7518112,54.0566545 L80.8730292,54.0497538 C81.3811939,54.0235198 81.8459309,54.0181873 82.2672402,54.0337564 Z" id="路径" fill="#858585"></path>
                <path d="M61.6234741,45.5214233 C63.2700195,45.0411377 65.3966064,44.9411011 66.6438599,45.2566528 C67.8911133,45.5722046 67.9743042,46.5353394 67.8590698,47.0771484 C67.7543113,47.5697021 66.9005354,49.1629064 66.4323724,49.9252345 L66.045277,50.5241403 C65.7525981,50.9634618 65.4512261,51.341295 64.6862183,51.8911133 C63.7026367,52.5980225 60.3377075,51.949432 58.9727173,50.9456787 C57.6077271,49.9419254 57.0131836,49.0246582 57.4918823,47.9140015 C57.9705811,46.8033447 59.9769287,46.001709 61.6234741,45.5214233 Z M63.1632097,46.0692139 C60.000858,46.6710205 58.505249,47.4995802 58.3292236,48.4859619 C58.1531982,49.4723436 59.0424805,50.3277588 61.630249,51.1550293 C63.9715634,51.9035121 65.0316262,50.8061612 65.4544225,50.1744704 L66.0901187,49.1078553 L66.517992,48.3541895 C66.8968596,47.6648487 67.2335982,46.976169 67.2224121,46.7076416 C67.2001953,46.1743164 66.3255615,45.4674072 63.1632097,46.0692139 Z" id="形状" fill="#262626"></path>
                <path d="M60.1564941,42.6599121 L60.8625847,42.4954808 C64.1905396,41.7489593 69.4131238,40.9883318 70.9511719,43.2401123 C72.5313243,45.5535358 71.4269858,47.8953276 70.1977044,49.49898 L69.6656473,50.1786582 C68.4230311,51.8184128 67.0589766,54.2284546 68.1828003,55.7970581 C69.4190063,57.522522 73.0969238,56.5421753 74.2994995,56.3970947 C75.5020752,56.2520142 81.3144836,53.7434692 81.3918457,53.6948242 C81.4692078,53.6461792 81.494873,53.6339722 81.538147,53.3909912 C81.6382853,53.3629964 81.7673543,53.3629964 81.925354,53.3909912 C82.1623535,53.4329834 82.2410889,54.0130615 82.3110352,54.4541016 C82.3382471,54.6256843 82.325323,54.7802231 82.2722626,54.9177181 C81.9752518,55.1995924 81.5057063,55.4694908 80.8660889,55.7263184 L79.7862688,56.1490635 C77.924912,56.8622651 74.9593964,57.9861298 73.2044678,58.3084717 C71.0445557,58.7052002 67.9602051,58.7924805 66.425415,56.2835693 C65.2683456,54.3921156 67.0336658,51.3335164 68.5487387,49.1983014 L69.3763428,48.0703125 C70.9781494,45.9370117 70.81073,44.1139526 67.6691284,43.3939819 C64.5275269,42.6740112 57.5557251,44.651062 55.5591431,45.3764038 L54.9504052,45.6077901 C52.3405999,46.6287028 45.8068949,49.3050232 44.1540527,49.876709 C42.6691464,50.3903091 39.6365152,51.1387792 38.0334457,51.5063993 L36.7074519,51.7978074 C35.3700939,52.0989176 32.8481771,52.7195068 32.288208,52.9219971 L31.3885813,53.2426424 L30.7715971,53.3505642 C30.6907138,53.3619687 30.605975,53.371895 30.517635,53.3790604 L30.2420654,53.3909912 C29.5631104,53.3935633 29.3410645,53.6669922 28.9351807,53.7052002 C28.5292969,53.7434253 27.5078125,53.5545654 27.5078125,53.4333496 C27.5078125,53.3323364 27.7471212,53.0883145 27.9430977,52.915472 L28.0532227,52.8220215 C28.2540283,52.6590576 28.260498,52.5233154 28.9675293,52.3970947 C29.6745605,52.270874 29.9771729,52.4852295 31.1938477,52.3564453 C32.3576236,52.2332604 34.2338461,51.0604481 38.3026496,50.1702894 L38.8712158,50.0507812 C42.8665129,49.2447317 46.8615168,47.6982283 49.1943095,46.6152807 L49.9459229,46.2542725 C52.090332,45.1844482 56.9163818,43.4416504 60.1564941,42.6599121 Z" id="路径" fill="#CECECE"></path>
                <path d="M60.1564941,42.6599121 L60.8625847,42.4954808 C64.1905396,41.7489593 69.4131238,40.9883318 70.9511719,43.2401123 C72.5313243,45.5535358 71.4269858,47.8953276 70.1977044,49.49898 L69.6656473,50.1786582 C68.4230311,51.8184128 66.9765181,54.2772217 68.1003418,55.8458252 C69.3365479,57.5712891 73.0125732,56.657959 74.2151489,56.5128784 C75.4177246,56.3677979 80.9733276,53.9744873 81.3074951,53.8106079 C81.5302734,53.701355 81.6071574,53.5614827 81.538147,53.3909912 C81.6382853,53.3629964 81.7673543,53.3629964 81.925354,53.3909912 C82.1623535,53.4329834 82.2440186,53.8765869 82.3139648,54.317627 C82.3411768,54.4892097 82.327802,54.6437485 82.2751923,54.7812435 C81.9781815,55.0631177 81.508636,55.3330162 80.8690186,55.5898437 L79.7891985,56.0125889 C77.9278417,56.7257905 74.9408417,57.7981415 73.1859131,58.1204834 C71.026001,58.5172119 67.9755859,58.3803711 66.6174316,56.1275635 C65.476582,54.2352051 67.1530506,51.3625691 68.6681235,49.2273541 L69.4957275,48.0993652 C71.0975342,45.9660645 70.8968506,44.0222168 67.755249,43.3022461 C64.6136475,42.5822754 57.5224609,44.5302734 55.5258789,45.2556152 L54.917141,45.4870016 C52.3073357,46.5079142 45.8068949,49.3050232 44.1540527,49.876709 C42.6691464,50.3903091 39.6365152,51.1387792 38.0334457,51.5063993 L36.7074519,51.7978074 C35.3700939,52.0989176 32.8481771,52.7195068 32.288208,52.9219971 L31.3885813,53.2426424 L31.3885813,53.2426424 L30.7715971,53.3505642 C30.6907138,53.3619687 30.605975,53.371895 30.517635,53.3790604 L30.2420654,53.3909912 C29.5631104,53.3935633 29.3410645,53.6669922 28.9351807,53.7052002 C28.5292969,53.7434253 27.5078125,53.5545654 27.5078125,53.4333496 C27.5078125,53.3323364 27.7471212,53.0883145 27.9430977,52.915472 L28.0532227,52.8220215 C28.2540283,52.6590576 28.260498,52.5233154 28.9675293,52.3970947 C29.6745605,52.270874 29.9771729,52.4852295 31.1938477,52.3564453 C32.3576236,52.2332604 34.2338461,51.0604481 38.3026496,50.1702894 L38.8712158,50.0507812 C42.8665129,49.2447317 46.8615168,47.6982283 49.1943095,46.6152807 L49.9459229,46.2542725 C52.090332,45.1844482 56.9163818,43.4416504 60.1564941,42.6599121 Z" id="路径" fill="#222222"></path>
                <path d="M70.9511719,43.2401123 C71.0783526,43.4263114 71.1881431,43.6126943 71.2818778,43.7988613 C70.4361239,42.4081531 68.8644386,42.0852776 68.3415527,41.9824829 C67.6504517,41.8466187 63.0773496,42.0579834 59.5540771,42.8997803 C56.0308047,43.7415771 53.098938,45.1387329 49.2483521,46.8790894 C45.6004285,48.5278481 41.4987666,49.7804964 39.3099434,50.2278317 L38.9632568,50.2948608 C36.8848877,50.6712646 33.6190186,51.7307739 32.7629395,52.0241699 C31.9068604,52.3175659 30.6363525,52.5762939 29.9771729,52.5692139 L28.3803148,52.5664693 L28.3803148,52.5664693 C28.4883358,52.5076237 28.6629127,52.4514755 28.9675293,52.3970947 C29.6745605,52.270874 29.9771729,52.4852295 31.1938477,52.3564453 C32.3576236,52.2332604 34.2338461,51.0604481 38.3026496,50.1702894 L38.8712158,50.0507812 C42.8665129,49.2447317 46.8615168,47.6982283 49.1943095,46.6152807 L49.9459229,46.2542725 C52.090332,45.1844482 56.9163818,43.4416504 60.1564941,42.6599121 L60.8625847,42.4954808 L61.6026841,42.3363989 C64.9178244,41.6556676 69.5229844,41.1491732 70.9511719,43.2401123 Z" id="路径" fill="#898989"></path>
                <path d="M11.722168,59.6429443 C12.1022949,59.0231045 12.4649658,58.5734668 12.8101807,58.2940312 C13.3280029,57.8748779 14.9454346,56.5957031 15.2285156,56.5126953 C15.5115967,56.4296875 16.458252,56.4211426 16.8000488,56.3895264 C17.1418457,56.3579102 22.4136963,55.2062988 23.590332,54.7875977 C24.7669678,54.3688965 25.8321533,53.7720947 26.0366211,53.7390137 C26.2410889,53.7059326 26.6327952,53.6838379 26.834525,53.7390137 C27.0362549,53.7941895 27.7442627,53.5007324 28.0579834,53.5649414 C28.3717041,53.6291504 28.8778076,53.6900635 29.2974854,53.5649414 C29.7171631,53.4398193 30.2473145,53.2122974 31.0192871,53.233407 C31.7912598,53.2545166 32.887085,53.5598145 34.0108643,53.9735107 C35.1346436,54.387207 37.6535645,55.5114746 40.0380859,55.7556152 C42.4226074,55.9997559 49.6672363,54.8503418 50.9536133,56.9287109 C51.8111979,58.3142904 50.6034999,61.3969727 47.3305192,66.1767578 C37.2040858,66.7172852 29.7355957,66.7172852 24.9250488,66.1767578 C17.7092285,65.3659668 12.2636719,63.7072754 11.722168,62.9458008 C11.3611654,62.438151 11.3611654,61.3371989 11.722168,59.6429443 Z" id="路径-856" fill="#D8D8D8"></path>
                <path d="M31.0192871,53.233407 C31.7912598,53.2545166 32.887085,53.5598145 34.0108643,53.9735107 L35.5351692,54.562179 C35.7849809,54.6564712 36.0504373,54.7539817 36.3279583,54.8509871 L35.3989497,55.2278766 C33.5093571,56.0165876 31.8432617,56.8883057 32.463623,57.550293 C33.4360389,58.5879575 36.9294309,58.7131379 39.857666,59.1437988 C42.7859011,59.5744598 38.7587058,60.0817142 34.325375,60.6004534 L29.4420121,61.1500407 C26.4445662,61.4793098 18.8785308,62.1271547 16.3176511,60.32886 L16.0449219,60.1103516 C15.0170992,59.1639083 13.5482949,59.1244546 12.2147114,58.9269793 C12.4180658,58.6603745 12.6168604,58.4505152 12.8101807,58.2940312 L13.854104,57.4709022 C14.4442045,57.0165668 15.063385,56.5611165 15.2285156,56.5126953 C15.5115967,56.4296875 16.458252,56.4211426 16.8000488,56.3895264 L17.1653958,56.3241024 C18.4474382,56.069959 22.5671705,55.1516856 23.590332,54.7875977 C24.7669678,54.3688965 25.8321533,53.7720947 26.0366211,53.7390137 C26.2410889,53.7059326 26.6327952,53.6838379 26.834525,53.7390137 C27.0362549,53.7941895 27.7442627,53.5007324 28.0579834,53.5649414 C28.3717041,53.6291504 28.8778076,53.6900635 29.2974854,53.5649414 L29.9082836,53.375278 C30.2159947,53.2904676 30.5781599,53.2213444 31.0192871,53.233407 Z" id="路径" fill="#E2E2E4"></path>
                <path d="M40.0380859,55.7556152 C42.4226074,55.9997559 49.6672363,54.8503418 50.9536133,56.9287109 C51.8111979,58.3142904 50.6034999,61.3969727 47.3305192,66.1767578 L45.201252,66.2843117 C36.1507196,66.7145274 29.3919852,66.6786761 24.9250488,66.1767578 C23.5022429,66.0168871 22.1482638,65.8240505 20.8871358,65.6116264 C23.3978001,63.1800846 28.7914031,59.9488886 30.3596191,59.7595215 C32.6257324,59.485881 34.7717285,60.0551758 34.854248,61.0024459 C34.9367676,61.9497161 32.6975098,64.0541992 36.1779785,63.652832 C39.6584473,63.2514648 44.012207,61.2262324 43.9963379,59.5593262 C43.9810355,57.9519523 38.6810068,58.5670419 36.6206055,58.2724609 C34.5602041,57.97788 32.8278875,58.3264597 32.2752686,57.4005127 C31.7588902,56.535289 34.1161655,54.9769243 35.840107,54.6746362 C37.0490194,55.120757 38.5690577,55.6052079 40.0380859,55.7556152 Z" id="路径" fill="#C5C5C5"></path>
                <path d="M50.9536133,56.9287109 C51.8111979,58.3142904 50.6034999,61.3969727 47.3305192,66.1767578 L45.201252,66.2843117 L43.0731267,66.378615 C35.0839896,66.7058083 29.0346303,66.6385226 24.9250488,66.1767578 L23.7839661,66.0397881 L23.7839661,66.0397881 C24.7453705,65.5489006 26.1977448,65.0668134 26.7842255,64.6060749 C28.1138612,63.5615151 34.9458008,60.427888 33.9279785,62.0380859 C32.9440837,63.5946107 30.8629947,64.9168947 33.3120464,64.9525992 L33.5817871,64.9516602 C36.4454076,64.8955121 44.4946289,64.2119141 46.7617187,61.9086914 C49.0288086,59.6054688 44.8977875,56.9911777 44.5539551,56.3310547 C44.4113758,56.0573171 45.0636628,55.8018301 46.1724226,55.6557059 L46.9760215,55.6755593 C48.8205334,55.7519782 50.4130825,56.055388 50.9536133,56.9287109 Z" id="路径" fill="#B3B3B3"></path>
                <path d="M50.9536133,56.9287109 C51.8111979,58.3142904 50.6034999,61.3969727 47.3305192,66.1767578 C47.1430664,66.4798584 45.660495,67.8176925 47.0046387,65.2189941 C48.3487823,62.6202958 48.7286717,61.0018443 48.6358643,59.9770508 C48.504387,58.52526 46.8119265,58.068031 44.516227,57.9511237 L43.4983339,57.917216 C40.4750274,57.8581273 34.27771,57.9892578 33.3306885,57.7362061 C32.383667,57.4831543 32.2149658,57.1630859 32.6063232,56.7741699 C32.9231364,56.4593331 35.5935607,56.12509 37.8679578,55.833281 L39.3202271,55.6575599 C39.5598376,55.6979858 39.7996338,55.7312012 40.0380859,55.7556152 C42.4226074,55.9997559 49.6672363,54.8503418 50.9536133,56.9287109 Z M32.2390137,59.7867377 C33.7695312,59.7937012 34.2893066,60.5219727 34.3009138,60.9950855 C34.3116919,61.4344046 33.6326048,62.4164978 32.4217178,63.5449176 L31.1100075,64.7239708 C30.4365209,65.3449701 29.8276804,65.970318 29.5699518,66.5039665 C28.1837144,66.4502406 26.9249675,66.3712514 25.795507,66.2659701 C27.3123545,63.8967814 31.0309433,59.7812511 32.2390137,59.7867377 Z" id="形状" fill="#878787"></path>
                <path d="M26.2741699,55.6715088 C26.6306315,55.8278076 26.3371609,56.3866233 25.7463669,56.8091501 L25.0147705,57.2990723 C24.0159912,57.9418945 22.5806885,59.0734863 22.6363525,59.581665 C22.6887422,60.0599509 22.9453083,60.2809433 24.7478125,60.0809394 L26.5433242,59.8459717 C28.6420117,59.5895264 31.2897461,59.3572998 32.4624023,59.602417 C33.9282227,59.9088135 35.0737305,60.9151611 33.8378906,62.0179443 C32.6020508,63.1207275 29.656532,65.2810478 28.5705945,65.8323173 C28.0997782,66.0713243 27.6419205,66.3182993 27.1970215,66.5732422 C26.4633019,66.521639 25.5907965,66.4694641 24.9532471,66.3978271 L23.6614844,66.2414558 C17.0953723,65.3892782 12.2308535,63.6611254 11.722168,62.9458008 C11.3611654,62.438151 11.3611654,61.3371989 11.722168,59.6429443 C12.1022949,59.0231045 12.4649658,58.5734668 12.8101807,58.2940312 L13.1494576,58.0223055 C13.8300815,57.4817132 14.9926147,56.5818685 15.2285156,56.5126953 C15.3739795,56.470041 15.6946609,56.4470487 16.0184525,56.4304844 C15.4044799,56.6411068 15.2017432,56.7755079 15.2961426,56.8659668 C15.4231906,56.9877116 16.0379288,57.2171424 18.1818661,56.9233688 L18.5762939,56.8659668 C21.0406494,56.4874268 25.7880859,55.458374 26.2741699,55.6715088 Z M25.8878393,54.4104032 C25.9308832,54.6548068 25.4348299,55.0448279 24.2441406,55.12854 L23.9319067,55.1428251 C23.5256924,55.1519968 22.8809806,55.0961417 22.1636323,55.1881849 L23.006584,54.9663354 C23.2495655,54.8984585 23.4493464,54.8377668 23.590332,54.7875977 C24.2559609,54.5507363 24.8859232,54.2568787 25.3445729,54.040323 C25.6747816,54.0994228 25.8685438,54.300843 25.8878393,54.4104032 Z" id="形状" fill="#6E6E6E"></path>
                <path d="M26.2741699,55.6715088 C26.6306315,55.8278076 26.3089627,56.1655539 25.7181686,56.5880808 L24.9865723,57.0780029 C23.987793,57.7208252 22.5524902,58.852417 22.6081543,59.3605957 C22.660544,59.8388815 22.9453083,60.2809433 24.7478125,60.0809394 L26.5433242,59.8459717 C28.6420117,59.5895264 31.2897461,59.3572998 32.4624023,59.602417 C33.9282227,59.9088135 34.9943848,60.6627197 33.7585449,61.7655029 C32.5227051,62.8682861 29.4400635,65.0699463 28.354126,65.6212158 C27.8833097,65.8602228 27.425452,66.1071978 26.9805529,66.3621407 C26.2468334,66.3105375 25.5625982,66.2483948 24.9250488,66.1767578 L23.6332862,66.0203865 C17.0671741,65.1682089 12.2308535,63.6611254 11.722168,62.9458008 C11.3611654,62.438151 11.3611654,61.3371989 11.722168,59.6429443 C12.1022949,59.0231045 12.4649658,58.5734668 12.8101807,58.2940312 L13.1494576,58.0223055 C13.8300815,57.4817132 14.9926147,56.5818685 15.2285156,56.5126953 C15.3739795,56.470041 15.6946609,56.4470487 16.0184525,56.4304844 C15.4044799,56.6411068 15.2017432,56.7755079 15.2961426,56.8659668 C15.4231906,56.9877116 16.0379288,57.2171424 18.1818661,56.9233688 L18.5762939,56.8659668 C21.0406494,56.4874268 25.7880859,55.458374 26.2741699,55.6715088 Z M25.8677979,54.293335 C25.9108417,54.5377385 25.4147884,54.9277597 24.2240991,55.0114718 L23.9118652,55.0257568 C23.5056509,55.0349285 22.8809806,55.0961417 22.1636323,55.1881849 L23.006584,54.9663354 C23.2495655,54.8984585 23.4493464,54.8377668 23.590332,54.7875977 C24.2559609,54.5507363 24.8859232,54.2568787 25.3445729,54.040323 C25.6747816,54.0994228 25.8485023,54.1837748 25.8677979,54.293335 Z" id="形状" fill="#ECECEC"></path>
                <path d="M15.8861003,59.3362228 C19.1591797,60.3378906 20.7641276,60.7751977 25.895752,60.9470215 C28.8140822,61.0447368 35.2353516,59.3769531 34.065471,61.4379419 C33.9891987,61.5415043 33.8861414,61.6516441 33.7585449,61.7655029 C32.5227051,62.8682861 29.4400635,65.0699463 28.354126,65.6212158 C27.8833097,65.8602228 27.425452,66.1071978 26.9805529,66.3621407 C26.2468334,66.3105375 25.5625982,66.2483948 24.9250488,66.1767578 L23.6332862,66.0203865 L22.3847233,65.8476596 C16.4611458,64.977042 12.198035,63.6149754 11.722168,62.9458008 C11.3611654,62.438151 11.3611654,61.3371989 11.722168,59.6429443 C12.1022949,59.0231045 12.4649658,58.5734668 12.8101807,58.2940312 L13.217929,57.967142 C13.5868159,58.4074611 14.3305316,58.8169664 15.4490761,59.1956579 L15.8861003,59.3362228 Z" id="路径" fill="#DBDBDB"></path>
                <path d="M14.8001709,61.8170166 L15.8407834,62.1807031 C17.9616515,62.9127675 19.3315674,63.2917155 22.2651367,63.5200195 L23.1582282,63.5774429 C25.2048694,63.6843704 27.9769734,63.6776139 31.4745403,63.5571734 L30.7444873,64.0812112 C29.8963494,64.6796619 29.0846815,65.2157928 28.5604612,65.5103097 L28.354126,65.6212158 C27.8833097,65.8602228 27.425452,66.1071978 26.9805529,66.3621407 C26.2468334,66.3105375 25.5625982,66.2483948 24.9250488,66.1767578 L23.6332862,66.0203865 C19.1852748,65.4431049 15.5310594,64.5652889 13.4782207,63.8366571 L13.4654404,63.8013868 C12.9499617,62.3263499 12.9777794,61.1767883 14.8001709,61.8170166 Z" id="路径" fill="#C5C5C5"></path>
                <path d="M85.7721558,67.6563721 C85.7721558,67.9712524 85.2971802,69.9494019 82.5905762,70.9156494 C79.8839722,71.881897 77.7866211,72.0029038 76,72.0029038 C74.2133789,72.0029038 65.9605182,72.0029038 65.1902811,72.0029038 C64.4200439,72.0029038 64.0322876,72.034668 63.7814331,71.2608643 C63.5305786,70.4870605 59.7246704,69.8213501 58.708374,70.0881348 C57.6920776,70.3549194 34.147644,70.7373047 33.6494751,70.7715454 C33.1513062,70.8057861 32.8981323,71.5150757 32.7640991,71.647522 C32.6300659,71.7799683 32.4892578,72.0196669 31.9697266,72.0022651 C31.6233724,71.9906639 30.8212687,71.9906639 29.5634155,72.0022651 C26.4658813,71.2240623 24.6436564,70.7642008 24.0967407,70.6226807 C23.2763672,70.4104004 22.8148193,70.1831055 22.4921875,70.1830444 C22.1695557,70.1829834 21.6758423,70.5025024 21.4326782,70.5145264 C21.1895142,70.5265503 19.5449829,70.0351562 17.9142456,69.4978027 C16.2835083,68.9604492 14.2848511,68.1482544 12.9200439,67.1900024 C11.5552368,66.2317505 10.8897095,65.4282837 10.3034668,63.9238281 C10.4029541,63.6989746 10.4280396,63.4667969 10.2008057,63.40448 C10.1593424,63.2259725 10.1593424,62.8347575 10.2008057,62.230835 C10.4824219,62.2359212 10.5166423,62.1351318 10.3034668,61.9284668 C10.2947998,61.5793457 10.4243774,60.8910522 10.5258789,60.8082275 C10.5935465,60.7530111 10.708964,60.7530111 10.8721313,60.8082275 C10.8126017,60.6227214 10.7346191,60.5107829 10.6381836,60.4724121 C10.4935303,60.414856 10.555542,60.2537842 10.6661377,60.0391846 C10.7767334,59.824585 11.3256226,58.927002 11.6188965,58.8390503 C11.9121704,58.7510986 12.3004761,58.6605225 12.3815918,58.7142334 C12.4627075,58.7679443 12.0383911,59.0009155 12.0465698,59.1107788 C12.0547485,59.2206421 12.8621826,59.6915669 14.1609497,60.1267588 C15.4597168,60.5619507 16.7802124,61.2825317 17.1322021,61.9284668 C17.4841919,62.5744019 17.1310425,63.3060303 16.6335449,63.574707 C16.1360474,63.8433838 15.711853,64.0489502 15.656311,64.2874146 C15.600769,64.5258789 16.8967285,64.7075281 18.9310303,65.0439496 C20.965332,65.3803711 32.7724609,66.864624 34.7176514,66.9755859 C36.6628418,67.0865479 67.6258545,66.9556885 68.9403076,66.1767578 C70.2547607,65.3978271 79.7626953,59.9644775 81.2650146,60.4724121 C82.767334,60.9803467 82.4516244,65.5904541 82.327802,66.7938232 C82.2039795,67.9971924 82.8171387,68.0489502 83.7357178,67.9556885 C84.6542969,67.8624268 85.7721558,67.3414917 85.7721558,67.6563721 Z" id="路径-860" fill="#252525"></path>
                <path d="M81.543335,61.9284668 L81.6466483,62.0358922 C81.7894312,62.1960891 82.0450965,62.5073768 82.3639075,62.9047394 C82.5255109,64.3931347 82.3968349,66.1229263 82.327802,66.7938232 C82.2122343,67.9169678 82.7386596,68.0369309 83.5562021,67.972109 L83.7357178,67.9556885 C84.6542969,67.8624268 85.7721558,67.3414917 85.7721558,67.6563721 C85.7721558,67.7158232 85.7552241,67.8345656 85.7095377,67.9945943 C85.3672088,68.247409 84.7829255,68.5708976 84.1157227,68.7273968 C83.127832,68.9591166 81.9656213,69.1014848 81.4074351,68.9849914 L81.244812,68.9363403 C80.7844238,68.7406616 79.8637085,68.7793579 79.0060425,68.6757202 L78.7412849,68.6595972 C77.2626514,68.6127537 71.7303249,68.8217181 72.0450439,67.590332 L72.1523337,67.1608278 C72.3709746,66.2488939 72.3472142,65.9709707 71.6507781,66.3756058 L71.4910889,66.4727783 C70.526062,67.0828247 67.4837646,69.2195435 66.8308105,69.5706177 L65.8454414,70.0839274 C65.3721373,70.3482323 64.9716593,70.6332143 65.0290527,70.880127 C65.1274414,71.3034058 66.8352661,71.3408203 67.6923218,71.0545044 C68.5493774,70.7681885 70.7966919,69.1760254 71.0541992,69.0884399 C71.1614939,69.051946 71.1075965,69.1237259 70.9662224,69.2553144 L70.0603638,70.0266724 C69.4799805,70.5164185 69.069397,70.9862061 69.399353,71.1526489 C69.7293091,71.3190918 71.1109009,71.3840332 72.0450439,70.880127 L72.5017222,70.616465 C73.3750228,70.0863463 74.38747,69.3555955 74.5628052,69.3552856 C74.6569935,69.3551192 74.5500433,69.4697846 74.372663,69.6206148 L73.6557007,70.1838989 C73.3076782,70.4574585 72.3770142,71.0072632 72.6208496,71.1526489 C72.8646851,71.2980347 74.5548096,71.4661255 75.6761475,70.7260742 C76.7974854,69.9860229 77.2684326,69.1958008 77.2794189,69.3552856 C77.2904053,69.5147705 76.7133789,70.2699585 76.2511597,70.7260742 C75.7889404,71.1821899 76.7797241,71.4349976 77.5596924,71.0545044 C78.2529975,70.7162882 78.8003728,70.0477287 79.0197196,69.659594 L79.0862427,69.5283813 C79.2375488,69.1813354 79.225647,69.5892944 79.0060425,70.0266724 L78.854223,70.2859688 C78.5899229,70.6970432 78.2127242,71.1673806 78.420166,71.1526489 L78.693073,71.1180397 C79.112481,71.0479555 79.8148261,70.8622301 80.0585937,70.4383545 L80.472873,69.6816119 C80.553781,69.5442957 80.6104397,69.4778171 80.6414185,69.5283813 C80.7111206,69.6421509 80.329895,70.548584 80.1999512,70.8220215 C80.0700073,71.095459 80.9381104,71.0284424 81.1552734,70.7260742 C81.3290039,70.4841797 81.5034365,70.0460352 81.6008232,69.7338594 L81.6582024,69.5283813 C81.7122069,69.2993286 81.7380859,69.4413306 81.6823398,69.8270747 L81.6243896,70.1600952 C81.4995117,70.784668 81.5527344,70.8492432 81.8528442,70.8220215 C82.1529541,70.7947998 82.5449829,70.6405029 82.6688843,70.156311 C82.7927856,69.6721191 82.7473145,69.3168945 82.6688843,69.1896973 C82.5904541,69.0625 82.8509521,69.0471191 82.8795776,69.2684326 C82.9082031,69.4897461 82.7167358,70.5119019 82.8795776,70.4383545 L83.3152084,70.2553787 C83.4871979,70.1784668 83.6489563,70.0939331 83.6894531,70.0266724 C83.7704468,69.8921509 83.9042358,69.314209 83.8088379,69.1896973 C83.7134399,69.0651855 83.8946533,68.9484863 83.9349365,69.0884399 C83.9752197,69.2283936 84.0133057,69.5974121 83.9349365,69.9378662 C83.9007063,70.0865703 83.9433393,70.1636161 84.0305092,70.1851923 C83.6431763,70.4576774 83.1675885,70.7096582 82.5905762,70.9156494 C80.0921725,71.8075702 78.1128955,71.9792859 76.417949,72.0004261 L65.1902811,72.0029038 C64.5403374,72.0029038 64.1627342,72.0255211 63.9099195,71.5676588 C63.937249,71.4151211 63.9978538,71.274337 64.1138306,71.1526489 C64.6380981,70.6025635 68.1451868,68.3291022 69.8545935,67.2452394 L70.3512573,66.9320068 C71.7411499,66.0614014 78.7450562,62.0296631 79.8191528,61.7540283 C80.8932495,61.4783936 81.2081909,61.6460571 81.543335,61.9284668 Z M26.003418,66.6747437 C26.1791992,66.7217352 25.4562625,67.0964507 25.0435179,67.2927011 L24.8275757,67.3915405 C24.5864919,67.4945424 23.3096775,68.2225728 22.4018224,68.6728953 L21.4786663,69.1158314 C20.8057709,69.4451523 20.2321472,69.764328 20.303833,69.9378662 C20.3858657,70.1364523 21.2750802,70.3259569 21.8542306,70.379549 C21.687642,70.4475288 21.5370711,70.5093644 21.4326782,70.5145264 C21.2440702,70.5238526 20.2123731,70.2303131 18.9979581,69.8473763 C19.4003923,69.7286308 19.8616419,69.5570031 20.2631226,69.3552856 L21.1009271,68.9516089 C22.2192303,68.4238277 23.7989032,67.6996911 24.206665,67.4573619 C24.7367554,67.142334 24.8488159,66.9208984 24.9441528,66.8393555 C25.0394897,66.7578125 25.7885742,66.6173096 26.003418,66.6747437 Z M22.3717002,67.0537275 L20.4331498,68.0822881 C20.1718822,68.2175304 19.9204812,68.344519 19.7033038,68.4482156 L17.9689121,69.2343302 C17.8477745,69.2874947 17.7466278,69.3294373 17.6726074,69.3552856 L17.6083986,69.3936416 L17.2874295,69.2836635 C17.1626824,69.2395213 17.0366393,69.1939973 16.9096911,69.1471418 C17.415774,69.0535773 17.9867749,68.8992798 18.375061,68.7409058 C18.6239624,68.639384 18.9716661,68.4767716 19.3349926,68.3004612 L21.0369873,67.4573619 C21.3162842,67.3327637 22.4200439,66.711792 22.6825562,66.6747437 C22.9188171,66.6414001 22.8496967,66.7842059 22.3717002,67.0537275 L22.3717002,67.0537275 Z M19.7670288,66.7536011 C19.8338956,66.8315041 19.2901359,67.1809919 18.7186595,67.4704107 L18.3399658,67.6508179 C17.6616211,67.9519043 16.338501,68.6847741 16.0391235,68.7273968 C15.9977281,68.7332903 15.9570317,68.7436155 15.9185961,68.757418 C15.7238142,68.6793569 15.5287672,68.5958231 15.335305,68.5097094 C16.0056116,68.3360436 17.1193824,67.889939 17.6726074,67.6508179 L18.0611499,67.4744093 C18.7680189,67.1435479 19.6989237,66.6742554 19.7670288,66.7536011 Z M15.8822981,66.9466365 L15.8414307,66.9792283 C15.6039429,67.1473389 15.2479248,67.5658569 14.7320557,67.6508179 C14.5049851,67.6882152 14.1360521,67.7065841 13.790293,67.731796 C13.6246512,67.642638 13.4678401,67.5489578 13.3167115,67.4536164 C14.0411571,67.4478228 14.7323705,67.3544063 14.9363403,67.3011475 L15.1708837,67.223837 C15.5134348,67.0954664 15.9303485,66.8933616 15.8822981,66.9466365 Z M12.9596085,63.6542086 L13.104187,63.7144775 C13.6223756,63.8917236 12.8372192,63.803894 12.2283936,63.5357666 C11.6195679,63.2676392 10.5437012,62.5441284 10.3034668,62.4556274 C10.2588778,62.4392011 10.2199975,62.4392658 10.1863986,62.4521854 L10.2008057,62.230835 L10.2008057,62.230835 C10.4387426,62.2351323 10.5000754,62.1638501 10.3848041,62.0169883 C10.746193,62.3461345 12.3356683,63.3633027 12.9596085,63.6542086 L12.9596085,63.6542086 Z M10.8100996,60.6542701 L13.2762299,62.0063477 C13.8672447,62.3233821 14.2543414,62.5225789 14.4375198,62.6039381 L15.0102675,62.8437952 C15.3690864,63.005995 15.7073161,63.1861979 15.6494141,63.2436523 C15.562561,63.329834 15.1187744,63.1958008 14.7320557,63.0575562 C14.3453369,62.9193115 10.9370117,61.1293454 10.7333374,61.0809691 C10.5806715,61.0447082 10.3734471,61.4313214 10.3106375,61.7079276 C10.3412668,61.3477914 10.4429448,60.8759014 10.5258789,60.8082275 C10.5935465,60.7530111 10.708964,60.7530111 10.8721313,60.8082275 C10.8533005,60.749547 10.8326233,60.6982279 10.8100996,60.6542701 Z" id="形状" fill="#090909"></path>
                <path d="M38.5274048,59.4072266 C38.6502686,59.447052 38.5726013,59.8139648 38.4493713,60.1786194 C38.3261414,60.5432739 38.4234619,61.59729 39.8494263,61.2756958 C41.2753906,60.9541016 46.5690918,59.3356934 46.8398438,59.3362228 C47.1105957,59.336792 47.2456055,59.4798584 46.5270386,59.7693481 C45.8084717,60.0588379 40.9371338,62.3167114 39.5402222,62.5592651 C38.1433105,62.8018188 37.4088745,62.6119385 37.2618408,61.5957031 C37.1148071,60.5794678 38.404541,59.3674011 38.5274048,59.4072266 Z" id="路径-858" fill="#272727"></path>
                <path d="M85.7721558,67.6563721 C85.7721558,67.2086182 85.4954834,63.3752441 84.8765869,61.425415 C84.2576904,59.4755859 83.4420166,56.9163818 83.145752,56.6481934 C82.8494873,56.3800049 82.4804687,56.2404785 81.9418945,56.5246582 C81.4033203,56.8088379 76.2196045,59.4140625 72.2774658,60.2315674 C68.3353271,61.0490723 58.387207,63.1796875 54.9768066,63.7156982 C51.5664062,64.251709 41.2286377,65.1986084 39.6928711,65.2341309 C38.1571045,65.2696533 28.9567871,65.7148438 27.5078125,65.6295166 C26.0588379,65.5441895 18.1497803,64.2388916 16.6974487,64.128418 C15.2451172,64.0179443 12.5333252,64.1985474 11.7781982,64.4053955 C11.0230713,64.6122437 11.1241455,65.1270142 11.451416,65.5140381 C11.7786865,65.901062 12.7138672,66.7319946 14.083313,66.6386719 C15.4527588,66.5453491 17.9967651,65.9626465 20.1891479,66.0548706 C22.3815308,66.1470947 26.927063,66.2907715 27.5922852,66.5821533 C28.2575073,66.8735352 28.3922729,67.1081543 28.0265503,67.7484741 C27.6608276,68.3887939 26.5200195,69.055481 26.3499756,69.0770874 C26.1799316,69.0986938 25.6465454,69.0252686 24.6384888,69.3896484 C23.6304321,69.7540283 23.2666731,69.7764893 22.8761649,69.9437256 C22.6158261,70.0552165 22.4436035,70.1266886 22.3594971,70.1581421 C24.1252848,71.3875574 26.0143026,72.0022651 28.0265503,72.0022651 C29.9675293,72.0022651 31.0301381,72.0217285 31.3360529,71.8457642 C31.6419678,71.6697998 31.9142456,70.8502808 31.9697266,70.7458496 C32.0252075,70.6414185 32.8227539,70.5862427 32.9171753,70.6473999 C33.0115967,70.7085571 33.3899536,71.2867432 33.6202698,71.3742371 C33.8505859,71.461731 55.7373047,71.0723877 56.045166,71.0489502 C56.3530273,71.0255127 57.7027588,70.7965698 57.9594116,70.7458496 C58.2160645,70.6951294 58.0823364,70.4467773 58.2573242,70.4380493 C58.432312,70.4293213 60.6608276,70.3670044 60.807373,70.4380493 C60.9539185,70.5090942 63.5455322,71.5014648 63.725647,71.5845947 C63.9057617,71.6677246 63.9549561,71.6282959 63.996521,71.3742371 C64.0380859,71.1201782 64.2028809,70.7567749 64.6737671,70.4380493 C65.1446533,70.1193237 72.2957606,65.5354004 74.3629072,64.4053955 C76.4300537,63.2753906 79.1300049,61.8006592 79.7624512,61.6628418 C80.3948975,61.5250244 81.828978,61.604248 81.6582024,63.364624 C81.4874268,65.125 81.0932617,67.80896 81.338623,68.4171143 C81.5839844,69.0252686 82.7633667,68.8823853 84.0238647,68.5650024 C85.2843628,68.2476196 85.7721558,68.104126 85.7721558,67.6563721 Z" id="路径-859" fill="#E3E3E3"></path>
                <path d="M23.7549438,70.0319824 C24.1092685,70.0399903 24.4444532,70.0263998 24.760498,69.9912109 C25.0946135,70.0626084 25.0642761,70.2675598 25.9250488,70.5251465 C27.0429355,70.8596746 28.5221911,70.8339652 29.5806017,70.6961794 L29.8674927,70.6517334 C30.7154929,70.4940407 31.4941406,70.5289917 31.350769,70.6774292 C31.255188,70.7763875 31.0471191,71.0615743 30.7265625,71.5329895 C31.1372375,71.0634155 31.5184631,70.6639099 32.0120239,70.6433716 C32.0524152,70.6416908 32.0934844,70.6542185 32.132914,70.6754029 L32.0347233,70.7043046 L31.9697266,70.7458496 L31.8255081,71.0933652 C31.705307,71.3744202 31.5272497,71.7357864 31.3360529,71.8457642 C31.1007338,71.9811214 30.4176668,72.0008408 29.231469,72.0027337 L28.0265503,72.0022651 C26.0143026,72.0022651 24.1252848,71.3875574 22.3594971,70.1581421 L22.8761649,69.9437256 C23.1076929,69.9945556 23.4006192,70.0239746 23.7549438,70.0319824 Z" id="路径" fill="#C6C6C6"></path>
                <path d="M22.5308573,70.272511 C24.3839405,71.077885 25.7820817,71.5153276 26.7252808,71.5848389 L27.639197,71.6323357 C29.0327062,71.6811717 30.6124828,71.6497898 30.6646969,71.6091003 L30.7265625,71.5329895 C31.1372375,71.0634155 31.5184631,70.6639099 32.0120239,70.6433716 C32.0524152,70.6416908 32.0934844,70.6542185 32.132914,70.6754029 L32.0347233,70.7043046 L31.9697266,70.7458496 L31.8255081,71.0933652 C31.705307,71.3744202 31.5272497,71.7357864 31.3360529,71.8457642 C31.1007338,71.9811214 30.4176668,72.0008408 29.231469,72.0027337 L28.0265503,72.0022651 C26.1972342,72.0022651 24.469761,71.4942422 22.8441308,70.4781965 L22.5308573,70.272511 Z" id="路径" fill="#777777"></path>
                <path d="M27.9494629,68.0518799 C27.5863444,68.5129801 26.8878671,69.0667212 26.5886418,69.2478682 L26.0412743,69.5420477 C25.6468032,69.7399201 25.0306119,69.9823275 24.2127075,69.9961548 C23.7454939,70.0040534 23.3299619,69.9753076 22.9661117,69.9099174 L23.2158081,69.8268978 C23.4800983,69.7493246 23.8055245,69.6754397 24.3482782,69.4913842 L24.6384888,69.3896484 C25.6465454,69.0252686 26.1799316,69.0986938 26.3499756,69.0770874 C26.5200195,69.055481 27.6608276,68.3887939 28.0265503,67.7484741 C28.0881213,67.6406734 28.1355069,67.5443716 28.1685949,67.4573619 C28.1702727,67.644059 28.1010685,67.8593659 27.9494629,68.0518799 Z" id="路径" fill="#B2B0B0"></path>
                <path d="M13.8546605,64.6799897 L13.741272,64.6069946 C13.0050587,64.1835112 14.1762309,64.3875688 14.978786,64.4303929 L15.1243896,64.4363403 C15.9187012,64.4571533 20.4204102,65.1807251 23.4299316,65.631958 C26.4394531,66.0831909 29.1117554,66.0076294 30.3594971,66.0616455 C31.4938077,66.1107511 29.1471976,66.7007996 28.5137576,66.9028737 L28.3803148,66.9509277 C28.2976442,66.9907947 28.2291833,66.9860808 28.1475955,66.9521484 C28.0539513,66.8147599 27.8690176,66.7033682 27.5922852,66.5821533 C27.5363611,66.5576574 27.4530132,66.5342053 27.3459449,66.51174 L27.1450195,66.4732666 C26.291687,66.192524 21.3609009,66.0007935 19.2855225,65.9916992 L18.4839653,65.9984598 C17.1178858,66.025382 15.6443839,66.1240921 14.7134333,66.1973152 L13.8983154,66.2667236 C13.2696533,66.326355 12.7627563,66.2640381 11.9403687,65.5549316 C11.1728068,64.893099 11.7819876,64.7677886 12.2666409,64.8036955 L12.8627858,64.8671392 C13.4578572,64.9210389 14.2125539,64.9469507 13.8546605,64.6799897 L13.8546605,64.6799897 Z" id="路径" fill="#CECCCC"></path>
                <path d="M65.1308697,61.7266464 L71.809194,60.3280996 L72.4941786,60.2513685 C77.6645508,59.7303183 72.6227942,61.7434842 69.6975098,62.4189453 L66.5210516,63.1186772 C64.1240487,63.6321839 60.8120996,64.321425 56.5852042,65.1864007 L55.7819392,65.3506431 L55.960942,63.5496982 L57.8489844,63.1988082 C59.9452912,62.795934 62.5929398,62.254134 65.1308697,61.7266464 L65.1308697,61.7266464 Z" id="路径" fill="#CDCCCC"></path>
                <path d="M63.5966387,63.1560795 L60.1075407,63.8888159 C58.5465327,64.2106326 57.1241816,64.4966267 55.8404873,64.7467982 L55.960942,63.5496982 L57.8489844,63.1988082 L60.4050663,62.6950463 C61.9155985,62.3915967 63.5446635,62.0563261 65.1308697,61.7266464 L70.5031907,60.6024031 C69.9826608,61.3016482 67.2595765,62.3414814 63.5966387,63.1560795 L63.5966387,63.1560795 Z" id="路径" fill="#B8B8B8"></path>
                <path d="M82.2236077,56.4086891 C82.6143181,56.296416 82.904214,56.4295453 83.145752,56.6481934 C83.4420166,56.9163818 84.2576904,59.4755859 84.8765869,61.425415 C85.4954834,63.3752441 85.7721558,67.2086182 85.7721558,67.6563721 C85.7721558,68.104126 85.2843628,68.2476196 84.0238647,68.5650024 C82.7633667,68.8823853 81.5839844,69.0252686 81.338623,68.4171143 C81.0932617,67.80896 81.4874268,65.125 81.6582024,63.364624 C81.828978,61.604248 80.3948975,61.5250244 79.7624512,61.6628418 C79.3904239,61.7439108 78.3029971,62.2875799 77.049796,62.9515651 L74.3629072,64.4053955 C72.2957606,65.5354004 65.1446533,70.1193237 64.6737671,70.4380493 C64.2701503,70.7112427 64.091417,71.0172605 64.0224124,71.2591092 L63.996521,71.3742371 C63.9618835,71.5859528 63.9219479,71.6486198 63.8053651,71.6155202 L60.807373,70.4380493 L60.807373,70.4380493 C60.6608276,70.3670044 58.432312,70.4293213 58.2573242,70.4380493 C58.0823364,70.4467773 58.2160645,70.6951294 57.9594116,70.7458496 L56.7184638,70.9561211 C56.5212046,70.9870223 56.3390244,71.014073 56.2052819,71.0312775 L56.045166,71.0489502 L56.0578836,70.6772765 C56.1742469,68.167068 56.8901661,65.0642787 57.1690737,64.6750488 C60.1296513,64.5168457 65.9194336,63.6176758 68.68396,62.9418945 C71.4484863,62.2661133 78.2901611,60.0735225 80.6824951,58.6646729 C82.1710585,57.7880553 82.7158827,57.0736933 82.3169678,56.5215868 L82.2236077,56.4086891 Z" id="路径" fill="#C8C8C8"></path>
                <path d="M83.145752,56.6481934 C83.4420166,56.9163818 84.2576904,59.4755859 84.8765869,61.425415 C85.4954834,63.3752441 85.7721558,67.2086182 85.7721558,67.6563721 C85.7721558,68.104126 85.2843628,68.2476196 84.0238647,68.5650024 C82.7633667,68.8823853 81.5839844,69.0252686 81.338623,68.4171143 C81.0932617,67.80896 81.4874268,65.125 81.6582024,63.364624 C81.6903216,63.0335348 81.6656713,62.761914 81.6002619,62.5400208 C81.6676067,62.697602 81.7065444,62.8918025 81.717041,63.1230469 L81.7241063,63.6040832 C81.7216162,64.9310217 81.6222229,67.5244446 82.1804199,67.9160156 C82.5947577,68.2066705 84.0288086,67.9318848 84.4812012,67.7348633 C85.6940699,67.2066469 83.8388672,63.1584473 82.9951172,61.0495605 C82.5638337,59.9716015 81.3704129,59.3210849 80.2198823,58.9152133 C80.3914643,58.8299415 80.5443932,58.7460013 80.6824951,58.6646729 C82.1710585,57.7880553 82.7158827,57.0736933 82.3169678,56.5215868 L82.2236077,56.4086891 C82.6143181,56.296416 82.904214,56.4295453 83.145752,56.6481934 Z" id="路径" fill="#B8B8B8"></path>
                <path d="M65.6031444,67.914426 C66.9372338,67.8141652 68.1580707,67.6793056 69.2656553,67.5098472 L64.6737671,70.4380493 L64.6737671,70.4380493 C64.2701503,70.7112427 64.091417,71.0172605 64.0224124,71.2591092 L63.996521,71.3742371 C63.9618835,71.5859528 63.9219479,71.6486198 63.8053651,71.6155202 L60.807373,70.4380493 C60.6608276,70.3670044 58.432312,70.4293213 58.2573242,70.4380493 C58.0823364,70.4467773 58.2160645,70.6951294 57.9594116,70.7458496 L56.7184638,70.9561211 L56.2052819,71.0312775 L56.2052819,71.0312775 L56.045166,71.0489502 L56.0578836,70.6772765 C56.1310661,69.0985711 56.4413927,67.2854805 56.7310108,66.0604276 L57.3944519,66.2914282 C59.4038084,66.9718512 63.2018766,68.0948883 65.6031444,67.914426 Z" id="路径" fill="#D3D3D3"></path>
                <path d="M76.0259387,63.5055506 L74.3629072,64.4053955 C72.2957606,65.5354004 65.1446533,70.1193237 64.6737671,70.4380493 C64.3267421,70.6729378 64.145959,70.9320913 64.0582271,71.153862 C64.1231816,70.7987148 64.3065478,70.5099536 64.6069336,70.2853394 L65.0642041,69.9716301 C66.7560567,68.8421282 72.4242487,65.2221957 76.0259387,63.5055506 Z" id="路径" fill="#F2F2F2"></path>
                <path d="M56.7697144,68.9785156 C57.4718575,68.3807555 58.043335,69.0527344 58.9777222,69.5300293 C59.9121094,70.0073242 60.5179244,70.2312024 61.1635132,70.5583496 C60.8523005,70.4745778 60.4596206,70.4325246 59.9854736,70.4321899 C59.2742531,70.4316879 58.372963,70.4322815 58.2573242,70.4380493 C58.0823364,70.4467773 58.2160645,70.6951294 57.9594116,70.7458496 L56.7184638,70.9561211 L56.2052819,71.0312775 L56.045166,71.0489502 L56.0578836,70.6772765 C56.0667099,70.4868737 56.0789857,70.2930615 56.0942587,70.0972828 C56.2413468,69.608384 56.4666722,69.2365065 56.7697144,68.9785156 Z" id="路径" fill="#9E9E9E"></path>
                <path d="M58.1802979,69.5092163 C58.4213786,69.482581 58.7358216,69.5136595 59.123627,69.602452 L58.9777222,69.5300293 C59.9121094,70.0073242 60.5179244,70.2312024 61.1635132,70.5583496 C60.8523005,70.4745778 60.4596206,70.4325246 59.9854736,70.4321899 L58.2573242,70.4380493 L58.2573242,70.4380493 C58.0823364,70.4467773 58.2160645,70.6951294 57.9594116,70.7458496 L56.7184638,70.9561211 L56.5295253,70.9855848 C56.7158448,70.4452822 57.3263439,69.6035637 58.1802979,69.5092163 Z" id="路径" fill="#8B8B8B"></path>
                <path d="M58.6043396,69.8959205 C58.8622738,69.8682985 59.5091917,69.9747241 60.1683993,70.0961029 C60.5224694,70.2546442 60.8379334,70.3933646 61.1635132,70.5583496 C60.8523005,70.4745778 60.4596206,70.4325246 59.9854736,70.4321899 L58.2573242,70.4380493 C58.0823364,70.4467773 58.2160645,70.6951294 57.9594116,70.7458496 L57.2231112,70.8713598 C57.2220046,70.8462499 57.2273606,70.8201606 57.239563,70.7931047 C57.3965454,70.4450351 58.1265869,69.9470825 58.6043396,69.8959205 Z" id="路径" fill="#767575"></path>
                <path d="M32.512085,56.883667 C32.5838013,57.369751 34.5205688,57.5529785 35.8195801,57.4026489 C37.1185913,57.2523193 41.7365723,56.59729 44.4786377,56.7348633 C47.2207031,56.8724365 50.0095215,56.7874135 49.3652344,60.300415 C48.7209473,63.8134166 46.4852295,66.5712891 43.3295898,68.5136719 C40.1739502,70.4560547 37.2508545,71.2365723 35.993042,71.3510742 C35.1545003,71.4274089 34.3635763,71.4351298 33.6202698,71.3742371 C33.2490946,70.9431051 33.0403341,70.7290649 32.993988,70.7321167 C32.947642,70.7351685 32.6062215,70.7397461 31.9697266,70.7458496 C32.1489054,71.1903076 32.3296916,71.4798991 32.512085,71.614624 C32.785675,71.8167114 33.1468506,71.9945068 33.9998779,71.9945068 C34.8529053,71.9945068 55.208374,72.0119629 55.6652832,71.9945068 C56.1221924,71.9770508 56.703125,71.3283691 56.7346802,71.0848389 C56.7662354,70.8413086 57.9632568,70.8121338 58.0053711,70.605835 C58.0294189,70.5117798 57.4309082,70.4223633 56.9457397,70.605835 C56.4605713,70.7893066 56.1203613,71.1182861 55.7714844,70.972229 C55.4226074,70.8261719 55.6375732,69.8753052 55.7495117,69.081543 C55.8614502,68.2877808 57.2210693,63.9790039 58.0389404,62.5980225 C58.8568115,61.217041 63.2543945,54.2263184 64.2023926,52.8165283 C65.1503906,51.4067383 66.4504395,48.5323635 62.4910889,48.2868116 C58.5317383,48.0412598 54.9847412,49.0773926 48.0402832,51.0866699 C41.0958252,53.0959473 36.1697998,54.586792 35.0604248,55.1824951 C33.9510498,55.7781982 32.4403687,56.397583 32.512085,56.883667 Z" id="路径-857" fill="#141414"></path>
                <path d="M45.3744122,51.8618382 L51.0180506,50.2295337 C56.0858848,48.7889182 59.1408691,48.079037 62.4910889,48.2868116 C66.3267097,48.52469 65.2265075,51.2296571 64.2921275,52.6801946 L63.8515432,53.3495202 C63.8037765,53.4229851 63.753295,53.5008585 63.7003119,53.5828011 L64.0456552,52.9065983 C64.0999749,52.7979777 64.1526979,52.6913557 64.2038574,52.5866699 C65.1005855,50.7517289 64.8446045,49.4833984 64.0582271,48.9667049 L63.8531601,48.8418163 C63.0396365,48.3913415 61.4266956,48.0727655 54.9985139,49.5343024 L53.3472506,49.9233051 C45.8039326,51.7557577 34.9209206,55.0853271 33.5858154,56.1286621 C32.8357381,56.7148196 32.8484581,57.1285439 33.6239752,57.3698352 C33.0084776,57.2797662 32.5464285,57.1164431 32.512085,56.883667 C32.4711042,56.6059047 32.9468247,56.2846157 33.5691092,55.949091 L35.0604248,55.1824951 C36.0218831,54.6662191 39.85007,53.4775922 45.3744122,51.8618382 L45.3744122,51.8618382 Z" id="路径" fill="#494949"></path>
                <path d="M61.8234863,48.6599121 C63.572998,49.2670898 62.5605469,49.2644472 58.9963379,50.902121 C55.4321289,52.5397949 48.3978981,56.3953421 46.7509766,56.2470703 C45.104055,56.0987985 37.9800228,56.5515492 35.8041992,56.9436035 C33.6283757,57.3356578 32.4450261,56.3979411 36.4711914,55.0195312 C40.4973567,53.6411214 60.0739746,48.0527344 61.8234863,48.6599121 Z" id="路径-880" fill="#353535"></path>
                <path d="M54.2934844,51.4184174 L56.8276367,50.4194336 C60.2874318,49.0368146 61.7935457,48.8545174 62.5237123,48.9569861 C63.0917459,49.326212 61.878114,49.5780097 58.9963379,50.902121 C55.4321289,52.5397949 48.3978981,56.3953421 46.7509766,56.2470703 C45.9572295,56.1756095 43.89124,56.2437564 41.7201318,56.3774308 L42.2160653,56.1452802 C44.3730938,55.1769269 49.3875741,53.330071 54.2934844,51.4184174 L54.2934844,51.4184174 Z" id="路径" fill="#272626"></path>
                <path d="M44.7103668,67.914426 C51.6517108,67.1718326 55.3275195,66.7746981 55.737793,66.7230225 C55.9710242,66.693646 56.1184082,66.0853271 56.189209,65.7344971 C56.3433511,64.9706962 48.6909364,64.9006354 48.4869385,64.8270264 C48.1584473,64.7084961 47.934082,64.4720459 47.2834473,65.3835449 C46.8496908,65.9912109 45.9919973,66.834838 44.7103668,67.914426 Z" id="路径-877" fill="#454444"></path>
                <path d="M47.5554039,65.0397548 C48.005582,64.5420088 48.2089844,64.7267315 48.4869385,64.8270264 L48.6390993,64.8429995 C49.7443092,64.9141836 56.332341,65.0252534 56.189209,65.7344971 L56.1216043,66.0328295 C56.0393507,66.3533027 55.9127164,66.7009901 55.737793,66.7230225 L54.1731558,66.8970259 L54.1731558,66.8970259 L52.9893486,66.488419 C52.3865105,66.2894493 51.7145362,66.0896249 51.105957,65.9781494 L50.3970755,65.8411351 C49.6183606,65.6841632 48.6301454,65.4673182 47.43243,65.1906003 L47.5554039,65.0397548 Z" id="路径" fill="#353535"></path>
                <path d="M48.4869385,64.8270264 L48.6390993,64.8429995 L51.3648762,64.9599628 C53.5914794,65.0698169 56.2812224,65.2785547 56.189209,65.7344971 L56.1216043,66.0328295 C56.0790594,66.1985915 56.0246408,66.3716344 55.9578079,66.5031273 L53.4180005,65.9535436 C51.5468843,65.5581045 50.2334379,65.3040995 49.4776611,65.1915283 L48.5232325,65.0402489 C48.2273638,64.9901003 47.9537693,64.9402295 47.702449,64.8906365 C48.0547417,64.5845255 48.2418607,64.7385944 48.4869385,64.8270264 Z" id="路径" fill="#272727"></path>
                <path d="M48.3017578,64.3049316 C53.7914569,63.5292915 56.6912661,63.1296523 57.0011855,63.106014 C57.4660645,63.0705566 59.9173861,58.7091562 60.073195,58.2940312 C60.2290039,57.8789062 49.8598633,61.6463251 49.6340332,61.8562012 C49.4834798,61.9961186 49.039388,62.812362 48.3017578,64.3049316 Z" id="路径-878" fill="#303030"></path>
                <path d="M49.6340332,61.8562012 C49.8598633,61.6463251 60.2290039,57.8789063 60.073195,58.2940312 L59.9940575,58.4649175 C59.9346877,58.5839363 59.8472549,58.7501531 59.7391326,58.9493232 L48.687014,63.5341294 L49.1316553,62.6776713 C49.3850934,62.2057488 49.5525527,61.9319254 49.6340332,61.8562012 Z" id="路径" fill="#232323"></path>
                <path d="M44.2341309,68.4470215 C41.4464113,69.7443848 40.067027,70.49646 40.0959779,70.7032471 C40.1394043,71.0134277 54.276123,70.8312988 54.597168,70.6259766 C54.8111979,70.4890951 55.2250163,69.3245443 55.838623,67.1323242 L44.2341309,68.4470215 Z" id="路径-879" fill="#303030"></path>
                <path d="M39.9945679,52.4121094 C40.1860352,52.2630615 40.133667,51.9719849 39.6000366,51.4940186 C39.0664062,51.0160522 36.9181405,48.9058838 36.7974492,48.7038574 C36.6767578,48.5018311 36.8248901,48.3112793 36.550354,48.461853 C36.2758179,48.6124268 34.8218384,49.5918579 34.699646,49.6436768 C34.5774536,49.6954956 34.4759521,49.65802 34.699646,49.9356079 C34.9233398,50.2131958 35.8632202,51.4643555 36.3168335,51.972168 C36.7704468,52.4799805 37.1320609,53.0955811 37.3026027,53.1049194 C37.4731445,53.1142578 39.8031006,52.5611572 39.9945679,52.4121094 Z" id="路径-861" fill="#353535"></path>
                <path d="M42.1867065,51.8744365 C42.0043945,51.8713379 41.3317261,50.6618652 41.1253052,50.4080811 C40.9188843,50.1542969 39.5969849,48.1066284 39.4402466,48 C39.2835083,47.8933716 41.3995361,46.9435425 41.5858154,46.9459007 C41.7720947,46.9483032 42.2642212,47.5128784 42.4803467,47.8739624 C42.6964722,48.2350464 44.4915771,50.6884766 44.663147,50.8861694 C44.8347168,51.0838623 44.4962158,51.1164551 44.326416,51.1112671 C44.1566162,51.1060791 43.3752441,51.4011841 42.9334106,51.56604 C42.4915771,51.730896 42.3690186,51.8774414 42.1867065,51.8744365 Z" id="路径-862" fill="#353535"></path>
                <path d="M46.9266357,50.4112549 C46.7833252,50.3603516 46.6240845,49.9616089 46.4055786,49.6783447 C46.1870728,49.3950806 45.5128174,48.3855591 45.2512207,48 C44.989624,47.6144409 44.7550049,46.5366821 44.5164795,46.4748535 C44.2779541,46.4130249 44.5410767,46.0066051 45.0065918,45.8387823 C45.4721069,45.6709595 45.9281006,45.0884399 46.1541748,45.1794434 C46.380249,45.2704468 46.9164094,45.6724243 47.3305192,46.3692017 C47.7446289,47.065979 49.2513428,49.2873171 49.3783569,49.4101686 C49.5053711,49.53302 49.3215332,49.6608887 49.1092529,49.6783447 C48.8969727,49.6958008 48.2790527,49.9056816 47.8945923,50.0187283 C47.5101318,50.1317749 47.0699463,50.4621582 46.9266357,50.4112549 Z" id="路径-863" fill="#353535"></path>
                <path d="M51.4716187,48.8578143 C51.3206787,48.8606567 51.2731668,48.6269531 51.2206898,48.5023804 C51.1682129,48.3778076 49.4246826,45.9777222 49.1536255,45.6785889 C48.8825684,45.3794556 48.577244,44.7721558 48.5799853,44.6196899 C48.5827637,44.4672241 50.4105225,43.6329346 50.5629272,43.673584 C50.715332,43.7142334 52.0112305,44.805481 52.3863525,45.2918091 C52.7614746,45.7781372 53.6531372,47.2521362 53.7561035,47.4656982 C53.8590698,47.6792603 53.8146362,47.921875 53.7561035,48 C53.6975708,48.078125 52.3462524,48.4599311 52.022583,48.63176 C51.6989136,48.8035889 51.6225586,48.8549194 51.4716187,48.8578143 Z" id="路径-864" fill="#353535"></path>
                <polygon id="路径-865" fill="#D7D7D7" points="36.9390259 50.3233643 37.9235229 50.3237915 37.8773804 50.7329712 37.331617 51.4744873 37.8773804 51.4744873 37.8773804 51.8744365 36.8995361 51.8744365 36.8995361 51.4744873 37.3604736 50.6997681 36.8961792 50.6973267"></polygon>
                <path d="M42.5942688,49.3806763 C42.7184143,49.6943665 42.6656189,50.2977905 42.5578918,50.5462646 C42.4501648,50.7947388 41.813446,50.8597107 41.7056274,50.5299988 C41.5978088,50.2002869 41.6027222,49.7684631 41.719696,49.4187012 C41.8366699,49.0689392 42.4701233,49.0669861 42.5942688,49.3806763 Z M42.3722839,49.571106 C42.3297119,49.3722534 42.0193787,49.3652344 41.9482422,49.5667725 C41.8771057,49.7683105 41.9046936,50.1188049 41.9378967,50.3392029 C41.9710999,50.5596008 42.2588196,50.5658875 42.3319702,50.3942871 C42.4051208,50.2226868 42.414856,49.7699585 42.3722839,49.571106 Z" id="路径-866" fill="#D7D7D7" fill-rule="nonzero"></path>
                <path d="M47.3236694,47.7098999 C47.4478149,48.0235901 47.3950195,48.6270142 47.2872925,48.8754883 C47.1795654,49.1239624 46.5428467,49.1889343 46.4350281,48.8592224 C46.3272095,48.5295105 46.3321228,48.0976868 46.4490967,47.7479248 C46.5660706,47.3981628 47.1995239,47.3962097 47.3236694,47.7098999 Z M47.1016846,47.9003296 C47.0591125,47.7014771 46.7487793,47.694458 46.6776428,47.8959961 C46.6065063,48.0975342 46.6340942,48.4480286 46.6672974,48.6684265 C46.7005005,48.8888245 46.9882202,48.8951111 47.0613708,48.7235107 C47.1345215,48.5519104 47.1442566,48.0991821 47.1016846,47.9003296 Z" id="路径-866" fill="#D7D7D7" fill-rule="nonzero"></path>
                <polygon id="路径-867" fill="#D7D7D7" fill-rule="nonzero" points="51.315979 47.6083069 50.9615173 47.6088867 50.9090881 45.9829102 51.3063965 45.9611206 51.6178894 46.7523193 51.8139343 45.9362488 52.1781006 45.9047546 52.3794556 47.5178528 52.069458 47.5360107 51.9607239 46.9459007 51.8127136 47.4935303 51.5503235 47.4935303 51.2892456 46.9189758"></polygon>
                <path d="M43.3477783,67.9747314 C41.5895996,68.4196777 39.8355713,68.9382324 37.6359863,68.9890137 C35.4364014,69.0397949 29.3898926,68.9560547 27.9044189,68.9890137 C26.4189453,69.0219727 26.6075439,69.9469534 27.3387451,70.0794678 C28.0699463,70.2119821 32.5161133,70.0281982 33.8585205,70.0794678 C35.2009277,70.1307373 39.8900146,69.8355713 40.3461914,69.7630615 C40.8023682,69.6905518 45.105957,67.5297852 43.3477783,67.9747314 Z" id="路径-869" fill="#D6D6D6"></path>
                <path d="M40.0994129,55.7426921 L40.092543,55.5428102 L42.1152581,55.4731373 C48.0245181,55.2907603 49.7988993,55.5261112 50.839815,56.9163843 C52.0372324,58.5156849 51.4211171,61.5293841 49.9705867,63.5915897 C49.693485,63.9855426 49.342904,64.4219093 48.9161837,64.9100917 L48.3585759,65.5309915 L45.8258549,68.1808075 C45.7790131,68.2304821 45.740498,68.2717279 45.7121644,68.3026567 C45.0736924,68.9996107 43.9874622,69.7406928 42.452222,70.5286955 L41.9238436,70.7931047 L41.8360803,70.6133894 C43.4526099,69.8239628 44.6214513,69.0836114 45.341353,68.3951278 L47.7289122,65.9123217 L48.4334176,65.1520199 C49.0096356,64.5141821 49.4660475,63.9612562 49.8070011,63.4765256 C51.2134216,61.4770306 51.8120888,58.5486777 50.6797162,57.0362524 C49.7631256,55.812031 48.1591934,55.529649 43.2154647,55.6434135 L40.0994129,55.7426921 Z" id="路径-871" fill="#000000" fill-rule="nonzero"></path>
                <path d="M42.6357204,54.7743541 L42.6207082,54.5749184 L44.6078394,54.4362872 C48.1485391,54.2111368 50.4839179,54.1940513 51.6204045,54.385892 C54.3255449,54.8425241 55.2190935,56.7988413 53.162718,60.3714194 L52.3922974,61.6918626 C51.8479614,62.6098563 51.427896,63.2808489 51.1056233,63.7564534 C50.9969097,63.916891 50.8311943,64.1406611 50.6865228,64.3314637 L50.4054954,64.6985893 C50.1876459,65.0565962 48.5072117,66.93486 47.7031429,67.7310526 C46.8576191,68.8718859 45.715026,69.8824482 43.7145649,70.9693969 L43.1962529,71.2428451 L43.1049949,71.0648789 C45.4036164,69.8861861 46.6445948,68.8234241 47.5523691,67.6005222 L47.9142329,67.2309522 C48.708698,66.4019304 49.86109,65.1077194 50.1744687,64.6821479 L50.256,64.56 L50.7547976,63.9054115 L50.940054,63.6442625 L51.2390414,63.1902667 C51.6713862,62.517814 52.2417749,61.5704777 52.9893817,60.271647 C54.9768727,56.8187433 54.1536209,55.0163325 51.5871151,54.5831021 C50.4035708,54.3833179 47.8655135,54.4145988 43.9805742,54.6779674 L42.6357204,54.7743541 Z" id="路径-872" fill="#000000" fill-rule="nonzero"></path>
                <path d="M46.8238115,53.5069031 L46.791667,53.3095032 L48.1266349,53.1012792 C51.3289115,52.6256453 53.5179275,52.4870148 54.7007267,52.6866733 C57.2977876,53.1250614 57.9607514,54.9155163 55.8782941,58.5334067 L53.8606107,62.0066492 L52.7149533,63.9240135 L52.5734641,64.1553765 C52.2883836,64.6238688 50.6806996,66.6096518 50.0160091,67.2675516 L49.6213503,67.8120332 C49.432375,68.0675319 49.2507983,68.2967685 49.0487906,68.5293491 C48.5156608,69.1431657 47.8976244,69.7103483 47.1382631,70.2456658 C46.8216024,70.4688982 46.4843847,70.683313 46.1250635,70.8884688 L45.5693106,71.1892028 L45.4780527,71.0112366 C46.0424676,70.7218146 46.555698,70.4116484 47.0230274,70.082201 C47.7687624,69.5564895 48.3749225,69.000206 48.8977936,68.3982008 L49.1837536,68.0543808 L49.4605537,67.6931028 C49.5486461,67.5739998 49.8095506,67.2102308 49.8652353,67.1370212 C50.5288655,66.4785599 52.1264297,64.5052767 52.4026101,64.0514107 L53.2540092,62.6397891 L54.7408452,60.102459 C55.0363741,59.5930655 55.3570849,59.0380002 55.7049578,58.4336343 C57.7219874,54.9294127 57.1177267,53.2974962 54.6674373,52.8838834 C53.5101552,52.6885323 51.3358003,52.8267474 48.1514166,53.2998145 L46.8238115,53.5069031 Z" id="路径-872" fill="#000000" fill-rule="nonzero"></path>
                <path d="M51.1910495,52.0284376 L51.1566067,51.8314257 L52.4144575,51.6216041 C54.8278932,51.2400139 56.6278718,51.0867652 57.8168857,51.1622861 C60.434421,51.3285402 60.9920087,52.5901088 59.1031708,56.1173974 C58.8904933,56.5145594 58.6703926,56.9161415 58.4434232,57.3216047 C57.6046372,58.8200301 56.7116788,60.3035811 55.7845241,61.7688767 L54.4153831,63.8912163 C54.0504042,64.491011 52.7364476,66.2682167 52.0429519,67.0323315 L51.8703792,67.2139627 C51.9130109,67.1564414 51.2960718,68.0278934 51.0438892,68.3511263 C50.6052364,68.9133661 50.1358849,69.4232797 49.5872191,69.9062693 C49.1800947,70.2646602 48.7407453,70.5969446 48.2642776,70.9011574 L47.775256,71.1959402 L47.6764041,71.0220774 C48.3332951,70.6485937 48.922306,70.2251386 49.4550683,69.7561488 C49.9937414,69.2819558 50.4547864,68.7810664 50.8862032,68.2281015 L51.5109429,67.3760859 C51.6405683,67.1950685 51.7316962,67.0663493 51.7196054,67.0834324 C52.2843559,66.5230807 53.607294,64.7594778 54.124596,63.9752184 L55.494453,61.852573 L55.6155151,61.6619376 C56.5408809,60.1994692 57.4320436,58.7189016 58.2689055,57.2239135 C58.4952788,56.8195153 58.7147819,56.4190235 58.9268585,56.0229835 C60.7512043,52.6161299 60.2659607,51.5182433 57.8042081,51.3618839 C56.5343521,51.2812283 54.5417898,51.4668494 51.8296901,51.9192912 L51.1910495,52.0284376 Z" id="路径-872" fill="#000000" fill-rule="nonzero"></path>
                <path d="M56.1685659,63.6167168 L56.1222011,63.6869876 C56.1429579,63.626719 57.958708,60.4715532 59.1912025,58.4150053 L59.9599266,57.1533052 L60.2904732,56.623173 C60.6568931,56.0396611 61.0048309,55.4998375 61.3322898,55.0079804 L61.9593108,54.0894891 C64.0574769,51.102785 63.5676705,49.7739938 61.0398429,49.7381736 C59.6956759,49.7191262 58.040187,49.9333934 56.0741936,50.3813727 L55.3223927,50.560321 L55.274287,50.3661926 C57.5886734,49.7926788 59.511082,49.5164904 61.0426767,49.5381936 C63.6528869,49.5751813 64.2651797,50.9933602 62.3390712,53.888596 L62.1229646,54.2044562 C61.626399,54.9113089 61.0688523,55.7597119 60.4598474,56.7295326 L59.5130422,58.2677102 L55.7346773,64.7451307 C55.5593274,65.0378687 55.3834256,65.327786 55.2636615,65.5168495 L55.0887226,65.7890746 L54.9197255,66.0437748 C54.5999307,66.5172266 54.3222541,66.8778345 54.1031673,67.0936014 C53.2553641,68.2375103 52.064165,69.5692584 50.8217083,70.6285853 L50.2869403,71.0645618 L50.1642316,70.9066296 C51.5775647,69.8085109 52.9834863,68.2684573 53.9523935,66.963071 C54.1264805,66.79034 54.3346806,66.5306282 54.5712931,66.1963369 L54.9213181,65.6796407 L55.318045,65.0485458 C55.6554298,64.4943114 56.1087623,63.7233718 56.1685659,63.6167168 Z" id="路径-872" fill="#000000" fill-rule="nonzero"></path>
                <path d="M54.5374896,68.3955873 C54.5824806,68.4276184 54.5929868,68.4900572 54.5609557,68.5350482 C54.2492505,68.9728709 53.6963267,69.5783523 52.90118,70.3531153 L52.1602824,71.0586923 L52.0237996,70.9124991 C53.2150047,69.8004159 54.0071258,68.9681176 54.3980287,68.4190534 C54.4193828,68.3890593 54.4542514,68.3743919 54.4884551,68.377437 L54.5374896,68.3955873 Z" id="路径-873" fill="#000000" fill-rule="nonzero"></path>
                <path d="M77.604126,50.2380371 C77.6915894,50.0813293 77.7867432,49.8240967 77.5708008,49.6995239 C77.3548584,49.5749512 77.1684265,49.6375732 77.0527954,49.7633362 C76.9371643,49.8890991 76.9569702,50.1727905 77.0890198,50.2660217 C77.2210693,50.3592529 77.5166626,50.3947449 77.604126,50.2380371 Z" id="路径-874" fill="#66253A"></path>
                <path d="M75.0313416,50.4014406 L75.7702026,50.4021425 L75.4223938,51.1928711 L75.9709167,51.1928711 L75.9709167,50.5160522 C76.5325826,50.5098267 76.8193563,50.5098267 76.8312378,50.5160522 C76.8431193,50.5222778 76.9033712,50.5850321 77.0119934,50.7043152 L77.0119934,51.2746582 L76.8738708,51.2746582 L76.8312378,50.776123 L76.5457764,50.7043152 L76.5418396,51.3213806 L76.4116516,51.3203125 L76.3982544,50.7043152 L76.1564331,50.7043152 L76.1564331,51.3912659 L75.0690918,51.4028015 L75.0690918,51.1564026 L75.4444885,50.6126404 L75.0313416,50.6037903 L75.0313416,50.4014406 Z" id="路径-875" fill="#141313"></path>
                <polygon id="路径-876" fill="#141313" points="75.3890076 51.6714783 75.3890076 51.853241 75.8534241 51.853241 75.8534241 51.6714783"></polygon>
                <polygon id="路径-876" fill="#141313" points="76.3414307 51.6614075 76.3414307 51.8431702 76.8058472 51.8431702 76.8058472 51.6614075"></polygon>
            </g>
        </g>
    </g>
</svg>