<?xml version="1.0" encoding="UTF-8"?>
<svg width="96px" height="96px" viewBox="0 0 96 96" version="1.1" xmlns="http://www.w3.org/2000/svg" xmlns:xlink="http://www.w3.org/1999/xlink">
    <title>Nike Joyride Optik</title>
    <defs>
        <rect id="path-1" x="0" y="0" width="96" height="96"></rect>
    </defs>
    <g id="icon" stroke="none" stroke-width="1" fill="none" fill-rule="evenodd">
        <g id="画板" transform="translate(-854.000000, -406.000000)">
            <g id="Nike-Joyride-Optik" transform="translate(854.000000, 406.000000)">
                <g id="#" opacity="0">
                    <use fill="#FFFFFF" fill-rule="evenodd" xlink:href="#path-1"></use>
                    <rect stroke-opacity="0.5" stroke="#DDDDDD" stroke-width="6" stroke-linejoin="square" x="3" y="3" width="90" height="90"></rect>
                    <rect stroke-opacity="0.507785184" stroke="#DDDDDD" stroke-width="12" stroke-linejoin="square" x="6" y="6" width="84" height="84"></rect>
                    <rect stroke-opacity="0.319406703" stroke="#979797" stroke-width="10" stroke-linejoin="square" x="5" y="5" width="86" height="86"></rect>
                </g>
                <path d="M58.2518311,30.6959229 C58.4615479,30.770752 58.7701416,31.2463379 58.7857666,31.5352783 L58.7877843,36.9883623 C58.8003597,38.0295677 58.867691,40.8388977 58.9831543,41.0595703 C59.1151123,41.3117676 59.1663818,42.4581299 59.2110596,43.1503906 C59.2557373,43.8426514 59.7679443,46.4885254 60.2995605,47.1157227 L60.5964244,47.452262 C61.3890378,48.3080432 63.221663,49.9353305 65.8911133,49.5072021 C68.9820557,49.0114746 70.7027588,48.2476807 70.9874268,48.2783203 C71.1341553,47.9864502 71.3040771,47.8555908 71.4907227,47.7895508 L71.808374,47.6849902 C72.46521,47.4541504 73.8915771,46.8382324 74.1234131,45.6047363 L74.3083754,44.5244812 C74.5358233,43.1262425 74.7793928,41.5556292 75.1606445,41.0595703 C75.4841309,40.6386719 75.7569987,40.3321126 75.979248,40.1398926 L76.0990194,39.6140747 C76.1614922,39.3019002 76.1892158,39.0664673 76.1821899,38.9077759 C76.1663818,38.5507202 75.7644653,36.8505249 75.713623,35.9949341 C75.6627808,35.1393433 75.8858032,33.3605957 77.2660522,33.3751221 C78.6463013,33.3896484 79.0343018,34.5783691 78.4222412,36.2047119 L78.1378603,36.9387837 C77.7868155,37.8177386 77.5453446,38.3200975 77.3781105,38.7174714 L76.9814345,39.7230527 C76.9614519,39.7765615 76.9483381,39.8192313 76.9417114,39.8586426 C76.9262492,39.9506022 76.9250895,40.0556437 76.9382324,40.1737671 C77.2579346,40.3194377 77.485555,40.5002035 77.6210938,40.7160645 C77.7566325,40.9319255 77.8648885,41.4456584 77.9458618,42.2572632 C78.3684285,42.376241 78.6058553,42.6212769 78.6581421,42.9923706 C78.7104289,43.3634644 78.7699178,43.710144 78.8366089,44.0324097 C78.9778442,44.396342 79.0949707,44.6032918 79.1879883,44.6532593 C79.3275146,44.7282104 79.532959,45.6886597 79.6611328,45.734314 C79.7893066,45.7799683 79.862854,46.1774292 79.8770142,46.4196777 C79.8911743,46.6619263 80.0267334,46.8917847 80.0343018,47.1157227 L80.0343018,48 C80.241862,48.3499756 80.3663127,48.6250407 80.4076538,48.8251953 C80.448995,49.0253499 80.448995,49.2141927 80.4076538,49.3917236 C80.6603394,49.4958903 80.7808838,49.6324463 80.7692871,49.8013916 C81.1072998,49.8909302 81.7108154,50.3071899 82.2067261,51.7529907 L82.3943465,52.3298953 C82.8333172,53.7437811 83.2619279,55.5392761 83.2884462,55.7672119 C83.3170776,56.02771 60.8538818,62.4692383 54.887085,63.227417 C48.9202881,63.9855957 33.7897949,62.9338379 27.7919922,61.9106445 L26.6095744,61.7020619 C23.1358079,61.068539 17.1921387,59.7985704 11.0661621,57.4595947 C10.8342357,57.3710423 10.6206127,57.0530491 10.6738281,56.7233887 C10.9269206,55.5073242 11.3543294,54.8292643 11.7075195,54.4714355 C12.0607096,54.1136068 12.5679932,53.9556885 13.2293701,53.9976807 C14.0759277,53.554718 15.9203744,53.0846829 18.7627101,52.5875754 L21.5718286,52.0987072 C26.3462861,51.2403814 32.7129604,49.9690465 34.7971191,49.5072021 C36.9246979,49.0357361 39.8002377,47.5442467 41.358773,46.6319761 L42.4911394,45.9479592 C43.6416577,45.2727101 45.0139571,44.5709662 45.3765379,44.32829 L47.4554224,42.646872 C48.5665101,41.737726 49.823684,40.6842274 50.3510742,40.1398926 C51.2907878,39.169987 53.5418468,36.3899099 54.664644,34.7118863 L54.887085,34.3702393 C55.9040527,32.756958 58.0421143,30.6210938 58.2518311,30.6959229 Z M77.5071411,33.8779297 C76.8840942,33.8323975 76.4080811,34.4651489 76.3222046,35.1766357 C76.2363281,35.8881226 76.4589233,37.2559204 76.5646973,37.7625732 C76.6704712,38.2692261 76.6449585,39.2321777 76.7364502,39.2398682 C76.8279419,39.2475586 76.9310303,38.5150146 77.1091309,37.9641113 C77.2872314,37.413208 77.9254761,35.9709473 78.1535034,35.4821167 C78.3815308,34.9932861 78.130188,33.9234619 77.5071411,33.8779297 Z" id="形状" fill="#F2F3EE"></path>
                <path d="M79.8750739,46.3651869 L79.8770142,46.4196777 C79.8911743,46.6619263 80.0267334,46.8917847 80.0343018,47.1157227 L80.0343018,48 C80.241862,48.3499756 80.3663127,48.6250407 80.4076538,48.8251953 C80.448995,49.0253499 80.448995,49.2141927 80.4076538,49.3917236 C80.6603394,49.4958903 80.7808838,49.6324463 80.7692871,49.8013916 C81.1072998,49.8909302 81.7108154,50.3071899 82.2067261,51.7529907 L82.3943465,52.3298953 L82.5684537,52.9111818 C82.9404651,54.194712 83.2654637,55.5696676 83.2888243,55.7672119 C83.3170776,56.02771 60.8538818,62.4692383 54.887085,63.227417 C53.1351842,63.4500245 50.5933196,63.516605 47.7245862,63.4736923 L46.7436162,63.4284473 C37.8503964,62.9590319 33.5903173,60.9254284 33.9633789,57.3276367 L35.9731422,57.0854678 C44.5069987,56.1032743 52.4884359,57.0216036 54.2612305,54.7919922 C58.1704102,49.8754883 45.5733322,50.1002825 45.5717773,49.4794922 C45.5667952,47.4903093 54.1796466,41.8107184 55.3378906,44.0541992 C57.8012695,48.8256836 61.9404297,50.3491211 62.7983398,50.9501953 C63.65625,51.5512695 63.7265625,52.3120117 65.1884766,54.1538086 C66.6503906,55.9956055 70.3808594,57.7797852 70.9702148,55.8803711 C71.5595703,53.980957 67.0043945,53.4257812 68.3032227,52.0429687 C69.4916347,50.777712 76.7480653,46.2199547 79.8750739,46.3651869 Z" id="路径" fill="#E5E7E2"></path>
                <path d="M77.2660522,33.3751221 C78.6463013,33.3896484 79.0343018,34.5783691 78.4222412,36.2047119 L78.1378603,36.9387837 L77.8945697,37.531632 C77.6707199,38.0623565 77.5035361,38.4194409 77.3781105,38.7174714 L76.9814345,39.7230527 L76.9417114,39.8586426 L76.9417114,39.8586426 C76.9262492,39.9506022 76.9250895,40.0556437 76.9382324,40.1737671 L76.9875404,40.1953744 C76.8215237,40.3022342 76.2946578,40.4951102 76.1716919,40.4364624 C76.1082397,40.4061993 76.0350342,40.3171777 75.9520752,40.1693976 L75.979248,40.1398926 L76.0990194,39.6140747 C76.1614922,39.3019002 76.1892158,39.0664673 76.1821899,38.9077759 C76.1663818,38.5507202 75.7644653,36.8505249 75.713623,35.9949341 C75.6627808,35.1393433 75.8858032,33.3605957 77.2660522,33.3751221 Z M77.5071411,33.8779297 C76.8840942,33.8323975 76.4080811,34.4651489 76.3222046,35.1766357 C76.2363281,35.8881226 76.4589233,37.2559204 76.5646973,37.7625732 C76.6704712,38.2692261 76.6449585,39.2321777 76.7364502,39.2398682 C76.8279419,39.2475586 76.9310303,38.5150146 77.1091309,37.9641113 C77.2872314,37.413208 77.9254761,35.9709473 78.1535034,35.4821167 C78.3815308,34.9932861 78.130188,33.9234619 77.5071411,33.8779297 Z" id="形状" fill="#454544"></path>
                <path d="M43.609375,62.6138916 C43.9204381,60.5325578 41.8725122,58.8788218 37.4655972,57.6526837 C30.8552246,55.8134766 23.8928981,56.0314941 20.1101454,55.9057617 C16.3273926,55.7800293 12.9228516,55.8117676 12.4711914,56.4960938 C12.0195312,57.1804199 20.9284668,60.2006836 25.2077637,61.3410645 C28.0606283,62.1013184 34.1944987,62.5255941 43.609375,62.6138916 Z" id="路径-727" fill="#D7D5D4"></path>
                <path d="M82.2067261,51.7529907 L82.3943465,52.3298953 L82.6215197,53.0959728 C82.8805637,54.0062497 83.1100928,54.9318252 83.2203788,55.4262335 L82.5619862,55.5138663 C81.8365507,55.5959485 80.669263,55.700587 79.0607641,55.8271778 L78.0427246,55.9057617 L78.7181396,55.0308838 C79.1833089,54.416626 79.635376,53.8664144 80.0743408,53.380249 C80.7327881,52.651001 81.2154541,51.6275635 81.2246094,51.0838623 C81.2291975,50.8113868 81.1671274,50.4250472 81.0383991,49.9248437 C81.3764802,50.1337821 81.8236993,50.6362969 82.2067261,51.7529907 Z" id="路径" fill="#D45C54"></path>
                <path d="M82.2067261,51.7529907 L82.3943465,52.3298953 L82.6215197,53.0959728 L82.8342365,53.8695436 C83.0019891,54.4999527 83.1416031,55.0730847 83.2203788,55.4262335 L82.5619862,55.5138663 C81.9977586,55.577708 81.1662376,55.6551949 80.067725,55.7460428 L78.0427246,55.9057617 L79.116423,54.5165593 L79.116423,54.5165593 L79.665159,54.5752588 C80.3583501,54.6404589 81.0980322,54.6169747 81.4875488,53.7932129 C81.8982998,52.9245441 81.7934576,51.6664734 81.1730221,50.0190011 C81.486084,50.2674286 81.8710554,50.7743608 82.2067261,51.7529907 Z" id="路径" fill="#CC4C43"></path>
                <path d="M82.2067261,51.7529907 L82.3943465,52.3298953 L82.6215197,53.0959728 L82.8342365,53.8695436 C83.0019891,54.4999527 83.1416031,55.0730847 83.2203788,55.4262335 L82.5619862,55.5138663 L81.7001703,55.6024089 C81.0295544,55.6663143 80.1668256,55.7399451 79.1121675,55.8231279 C78.953275,55.6273058 78.8229498,55.3636798 78.7190595,55.0327538 L78.8530595,54.8557965 L78.9720068,54.8456143 C79.354585,54.819747 79.6687256,54.8337879 79.9144287,54.887737 L80.586937,55.0353675 C80.7910919,55.0768127 80.9613953,55.1040955 81.0563354,55.0980225 C81.2462158,55.0858765 82.503479,54.828064 82.5410156,54.4790039 C82.5785522,54.1299438 81.8988037,51.4121094 81.4839478,50.5756836 L81.2223931,50.0640761 L81.2223931,50.0640761 C81.5290589,50.3257019 81.8898585,50.8291804 82.2067261,51.7529907 Z" id="路径" fill="#B43D35"></path>
                <path d="M81.0383991,49.9248437 L81.1923191,50.035637 L81.1923191,50.035637 C81.383684,50.6191571 81.4593245,51.0199578 81.4198608,51.2410278 C81.3413696,51.6807251 80.7985263,52.965271 80.5229509,53.3077393 C80.3024906,53.5817139 79.5543751,54.3267965 79.2086035,54.6952555 L79.0392456,54.887737 C78.9833772,54.9698935 78.8700221,55.0271853 78.6991803,55.0596125 L78.7181396,55.0308838 C79.1833089,54.416626 79.635376,53.8664144 80.0743408,53.380249 C80.7327881,52.651001 81.2154541,51.6275635 81.2246094,51.0838623 C81.2291975,50.8113868 81.1671274,50.4250472 81.0383991,49.9248437 Z" id="路径" fill="#F5C0BC"></path>
                <path d="M45.1540527,62.6138916 C45.0507813,61.5758057 44.5124919,60.2161458 43.5391846,58.5349121 C42.0792236,56.0130615 37.9678345,52.970737 36.329071,52.3454759 C34.6903076,51.7202148 31.6879883,51.1319024 32.2359619,50.655795 C32.6012777,50.33839 33.3999278,49.85112 34.6319122,49.193985 C35.4979095,48.9017828 35.8895264,48.7937972 35.8067627,48.8700283 C35.6826172,48.984375 33.8157959,50.0984192 33.5561523,50.4061279 C33.2965088,50.7138367 36.4549561,51.0935059 38.3095703,52.0372314 C40.1641846,52.980957 43.0339355,54.9068604 44.7202148,57.2064209 C45.844401,58.7394613 46.6252543,60.5419515 47.0627747,62.6138916 L45.1540527,62.6138916 Z" id="路径-713" fill="#DFDFDC"></path>
                <path d="M50.5427246,40.5631104 C48.9385292,41.8521263 47.2118893,43.8691731 46.3099852,45.1405802 C45.4080811,46.4119873 44.6219482,48.8232422 48.0068359,49.1348877 C49.4837354,49.2708653 51.3172069,49.5323031 52.4829102,49.3652344 C53.7166576,49.1884135 54.270713,49.4389902 54.8564453,49.7883301 C55.9956055,50.4677429 57.5591316,52.0999042 58.7970219,53.1474863 C60.0349121,54.1950684 62.2844238,57.3075509 65.4359131,55.7301305 C68.5874023,54.15271 67.4439697,52.8658447 70.4986572,52.651123 C73.5533447,52.4364014 75.6448247,53.2553938 76.9469851,53.6116447 C77.3252853,53.7151417 77.8355154,53.9259777 78.3436279,53.8051758 C79.5845074,53.5101612 80.9346231,52.3887196 81.2058105,51.268158 C81.3106963,50.8347641 81.1983643,50.5510254 81.0268555,49.9267273 C81.003711,49.8424808 80.8703308,49.8074646 80.7695618,49.7913208 C80.6806335,49.4847412 80.4655851,49.3797471 80.3056641,49.4274902 C79.1283309,49.7789739 68.0466858,50.9152787 64.7827423,51.0150124 C61.5187988,51.1147461 58.2811279,49.8725586 57.5656738,47.3470459 C56.8502197,44.8215332 56.6634521,40.3710937 55.4943848,39.2769775 C54.3253174,38.1828613 52.14692,39.2740944 50.5427246,40.5631104 Z" id="路径-725" fill="#CDCFC9"></path>
                <path d="M54.8691142,42.4220746 C55.062203,44.1269251 55.3003255,47.0556798 55.6851807,48.5332031 C56.0700359,50.0107264 57.4990856,51.5543213 58.2762762,52.182373 C59.0534668,52.8104248 62.4028183,54.6884766 63.7808769,54.5697021 C65.1589355,54.4509277 67.6970215,52.8532715 68.5681152,52.5377197 C69.439209,52.222168 71.8620605,51.9797363 72.9735107,52.1612549 C74.0849609,52.3427734 76.1065674,53.2828513 76.4788208,53.4594116 C76.8510742,53.635972 77.927124,54.0601807 78.4245605,53.7113647 C78.9219971,53.3625488 79.2055054,52.9727173 79.3508301,52.7216797 C79.4961548,52.4706421 80.0900269,51.2454834 80.3006592,50.6326294 C80.5112915,50.0197754 80.6353793,49.4785092 80.5259416,49.413632 C80.4165039,49.3487549 72.7849731,50.6384888 70.319397,50.6326294 C67.8538208,50.62677 61.9525757,51.0374756 60.6653442,50.2318726 C59.3781128,49.4262695 56.4614258,43.8772843 56.2717896,42.5161263 C56.0821533,41.1549683 54.6760254,40.7172241 54.8691142,42.4220746 Z" id="路径-726" fill="#949090"></path>
                <path d="M48.4545898,49.2354736 C49.1522217,49.2543945 50.3649376,49.3731111 51.4854736,49.342041 C52.6060097,49.3109709 53.3168945,48.7260742 54.2774658,47.2181396 C55.2380371,45.7102051 55.1177098,40.3432442 52.4504395,40.817627 C49.7831692,41.2920097 44.7187552,47.3049631 45.908755,48.3210607 C47.0987549,49.3371582 47.756958,49.2165527 48.4545898,49.2354736 Z" id="路径-724" fill="#B7B7B7"></path>
                <path d="M52.2329102,43.1468506 C53.3157959,42.8701782 53.3387451,43.5401611 53.6491243,44.5604353 C53.8560437,45.2406181 53.8801349,45.9148903 53.7213978,46.583252 C52.1550574,47.3282064 51.0657158,47.7040507 50.453373,47.7107849 C49.5348589,47.7208862 49.5040283,47.2367554 48.6410522,46.770813 C47.7780762,46.3048706 51.1500244,43.4235229 52.2329102,43.1468506 Z" id="路径" fill="#959595"></path>
                <path d="M53.6491243,40.4220746 C53.9091797,40.5863037 56.8181152,44.2332041 56.5181885,44.2437744 L56.1689699,44.2541921 C55.7059061,44.265955 54.9454281,44.2776945 54.4381541,44.2474902 L54.1685791,44.223999 C53.5761719,44.1489258 49.4290161,44.114502 47.8160706,44.223999 C46.9316182,44.2840413 44.9255209,44.9989839 41.7977787,46.3688269 L42.4911394,45.9479592 C42.8426867,45.7416331 43.2149403,45.5328333 43.5727683,45.335412 C45.3297993,44.5341457 46.7436296,44.0423212 47.8160706,43.8600801 C49.6022644,43.5565501 51.7197673,43.2644314 54.1685791,42.9837238 C53.0328313,41.4450751 52.1985113,40.6992696 51.6656189,40.7463074 C50.9230777,40.8118506 49.2118885,41.438351 48.5591783,41.7289257 L49.2323588,41.1618115 L49.2323588,41.1618115 C49.4312997,41.0589374 49.6241362,40.9657058 49.811332,40.8813477 C50.868988,40.4047241 53.3890689,40.2578455 53.6491243,40.4220746 Z" id="路径" fill="#ACAAAA"></path>
                <path d="M27.4851275,56.0134277 C27.4278492,55.9480794 27.9117292,55.1474851 28.9367676,53.6116447 L48.428886,46.5338745 C49.3935225,47.1035767 50.265166,47.3746338 51.0438164,47.3470459 C52.211792,47.3056641 54.1161197,46.1224365 53.6491243,46.770813 C53.1821289,47.4191895 51.4018555,48.7123135 50.0534668,48.8450928 C48.7050781,48.977872 48.0491333,49.5946932 45.8160706,50.7832475 C43.5830078,51.9718018 41.3150011,53.4729614 41.0362237,53.5303955 C40.7574463,53.5878296 40.8909912,53.4229353 40.4889526,53.6116447 C40.2209269,53.7374509 39.838562,53.9424235 39.3418579,54.2265625 C38.9452515,54.3255208 38.6685791,54.3927002 38.5118408,54.4281006 C38.2767334,54.4812012 34.9935913,56.1914673 33.9874268,57.102356 C32.9812622,58.0132446 31.3425903,59.445598 31.1613159,59.7090661 C30.9800415,59.9725342 30.8939819,59.1984863 31.1270752,58.2208862 C31.2824707,57.5691528 31.5037435,56.7389009 31.7908936,55.7301305 L37.9361572,52.1657715 C35.5793559,52.6610627 33.9717712,53.0562043 33.1134033,53.3511963 C31.8258514,53.7936843 29.767334,54.5292582 29.2880859,54.887737 C28.8088379,55.2462158 27.5710449,56.1114502 27.4851275,56.0134277 Z" id="路径-722" fill="#414C4F"></path>
                <path d="M48.4568452,46.5494859 L48.428886,46.5338745 C48.9797426,46.162261 49.2773323,46.0223887 49.3216553,46.1142578 C49.6120605,46.7161865 50.7009466,47.1056822 51.1103516,47.0750732 C52.0891724,47.0018921 54.1161197,46.1224365 53.6491243,46.770813 C53.1821289,47.4191895 51.4018555,48.7123135 50.0534668,48.8450928 C49.6836456,48.88151 49.3659124,48.9543386 49.0534429,49.0653876 L50.9324229,48.07805 C51.6324562,47.6990595 51.9697549,47.4908971 51.0775452,47.6382446 C50.2631836,47.7727356 49.0336713,47.4124705 48.4568452,46.5494859 Z" id="路径" fill="#797D7E"></path>
                <path d="M55.5593262,37.3292236 C56.1483345,36.9521989 57.374904,36.3920307 58.7879729,36.553887 L58.8073791,38.032715 C58.8370336,39.2724416 58.8965569,40.8940659 58.9831543,41.0595703 C59.1151123,41.3117676 59.1663818,42.4581299 59.2110596,43.1503906 C59.2557373,43.8426514 59.7679443,46.4885254 60.2995605,47.1157227 L60.5964244,47.452262 L60.8988691,47.7622189 C61.8066191,48.6442871 63.5182686,49.8877607 65.8911133,49.5072021 C68.9820557,49.0114746 70.7027588,48.2476807 70.9874268,48.2783203 C71.1341553,47.9864502 71.3040771,47.8555908 71.4907227,47.7895508 L71.808374,47.6849902 L72.1590185,47.5502593 C72.8758192,47.2500199 73.9272442,46.6484638 74.1234131,45.6047363 L74.3083754,44.5244812 L74.4838835,43.4629652 C74.6662132,42.4080955 74.8747057,41.4316145 75.1606445,41.0595703 C75.458252,40.6723438 75.7130159,40.3818939 75.9249363,40.1882207 C76.0863751,40.5043748 76.352466,40.4574392 76.5732451,40.3703595 L76.8516846,40.25 C76.8983002,40.2342941 76.9324537,40.2117158 76.9640739,40.1881097 L76.9382324,40.1737671 C77.2579346,40.3194377 77.485555,40.5002035 77.6210937,40.7160645 C77.7566325,40.9319255 77.8648885,41.4456584 77.9458618,42.2572632 C78.3684285,42.376241 78.6058553,42.6212769 78.6581421,42.9923706 C78.7104289,43.3634644 78.7699178,43.710144 78.8366089,44.0324097 C78.9778442,44.396342 79.0949707,44.6032918 79.1879883,44.6532593 C79.3275146,44.7282104 79.532959,45.6886597 79.6611328,45.734314 C79.7893066,45.7799683 79.862854,46.1774292 79.8770142,46.4196777 C79.8911743,46.6619263 80.0267334,46.8917847 80.0343018,47.1157227 L80.0343018,48 C80.241862,48.3499756 80.3663127,48.6250407 80.4076538,48.8251953 C80.448995,49.0253499 80.448995,49.2141927 80.4076538,49.3917236 L80.5229509,49.443613 C80.1945314,50.4731395 79.3873578,52.4134288 79.0821533,52.9906006 C78.6954346,53.7219238 77.8375244,53.7008057 77.0964355,53.4661865 C76.3553467,53.2315674 75.0404053,52.440918 73.1906738,52.0601807 C71.3409424,51.6794434 69.4110107,52.0611572 66.5299072,52.9906006 C63.6488037,53.9200439 60.5932617,53.1745605 59.2922483,52.5457764 C57.9912348,51.9169922 56.2036133,50.1011963 55.7508545,48.2191162 C55.2980957,46.3370361 55.089611,43.3015059 54.8728107,38.8962402 C54.8366726,38.167654 55.0655111,37.6453151 55.5593262,37.3292236 Z" id="路径" fill="#D0D2CE"></path>
                <path d="M59.4328613,48.9084473 C57.8777354,47.5390782 57.2583008,45.1594238 58.2762762,45.5177207 C58.7852639,45.6968692 59.3739707,46.1171826 60.0294605,46.6284762 C60.1178141,46.8412701 60.208402,47.0081744 60.2995605,47.1157227 L60.5964244,47.452262 L60.8988691,47.7622189 C61.8066191,48.6442871 63.5182686,49.8877607 65.8911133,49.5072021 C66.404744,49.4248257 66.8805376,49.335047 67.3181924,49.2427415 C68.4767696,49.4462939 69.2847394,49.7299509 69.8010369,49.8766679 L69.9810915,49.9248437 C71.1277103,50.2063769 68.079834,50.5219727 65.8632812,50.6626463 C63.6467285,50.80332 60.9879873,50.2778163 59.4328613,48.9084473 Z" id="路径" fill="#E2E2E2"></path>
                <path d="M72.5412212,47.3701641 C72.825454,47.537091 73.1321476,47.7470363 73.461302,48 C72.9132075,48.7400716 71.4787598,49.3266602 69.157959,49.7597656 C67.2587552,50.1141931 65.6855082,50.0427132 64.438218,49.5453258 C64.8903769,49.5959161 65.3751113,49.5899589 65.8911133,49.5072021 C68.9820557,49.0114746 70.7027588,48.2476807 70.9874268,48.2783203 C71.1341553,47.9864502 71.3040771,47.8555908 71.4907227,47.7895508 L71.808374,47.6849902 L72.1590185,47.5502593 L72.3619121,47.4607994 L72.5412212,47.3701641 Z" id="路径" fill="#F2F2F2"></path>
                <path d="M57.7802734,40.2126465 L58.9543728,42.7051434 C59.0431822,42.8983291 59.1335445,43.096142 59.2241107,43.296004 L59.2632457,43.5941493 C59.4137989,44.6089871 59.8497314,46.5850173 60.2995605,47.1157227 L60.3867001,47.217376 C59.2634612,46.3788747 56.0655771,41.8339502 56.1165748,42.1098758 L56.2464903,42.7853799 C56.6408785,44.7435038 57.437765,47.8219014 59.0913086,48.8054199 C61.5019531,50.2392578 64.4257899,51.4191474 68.1306152,50.0839844 L69.60108,49.5466998 C71.2549267,48.9327087 72.3830172,48.4752476 72.9853516,48.1743164 L73.6356873,48.9096732 C75.9385482,51.465801 77.342671,52.4799469 77.8480557,51.9521108 C78.3638296,51.4134239 79.3490608,49.3625507 80.0808081,48.0779216 L80.2434814,48.3840137 C80.328125,48.558042 80.3828491,48.7051025 80.4076538,48.8251953 C80.448995,49.0253499 80.448995,49.2141927 80.4076538,49.3917236 L80.5229509,49.443613 C80.1945314,50.4731395 79.3873578,52.4134288 79.0821533,52.9906006 C78.6954346,53.7219238 77.8375244,53.7008057 77.0964355,53.4661865 C76.3553467,53.2315674 75.0404053,52.440918 73.1906738,52.0601807 C71.3409424,51.6794434 69.4110107,52.0611572 66.5299072,52.9906006 C63.6488037,53.9200439 60.5932617,53.1745605 59.2922483,52.5457764 C57.9912348,51.9169922 56.2036133,50.1011963 55.7508545,48.2191162 C55.3884125,46.7124753 55.1825088,44.4666681 55.0035656,41.3707408 L55.0231934,41.3430176 C56.1335368,40.0032369 57.6683054,39.9737315 57.7802734,40.2126465 Z" id="路径" fill="#BDBDB8"></path>
                <path d="M55.756897,45.0684438 C55.8626709,44.9484253 56.2220459,44.5671886 56.5128784,44.4442139 C56.8037109,44.3212391 57.9003296,44.4388028 58.4789429,44.5604353 C59.0575562,44.6820679 59.3182612,44.0284424 59.2922483,43.8861084 C59.2662354,43.7437744 57.4580078,43.4159779 56.9697266,43.3631098 C56.4814453,43.3102417 55.6549112,44.5642138 55.5632649,44.9013696 C55.4716187,45.2385254 55.651123,45.1884623 55.756897,45.0684438 Z" id="路径-729" fill="#716F6E"></path>
                <path d="M70.9880371,50.454834 C70.7741699,50.1813965 66.1027832,52.0007324 63.6220703,51.657959 C61.1413574,51.3151855 58.7280273,50.479248 58.4104004,50.9726563 C58.0927734,51.4660645 58.9621582,53.0898437 62.706543,53.4484863 C66.4509277,53.8071289 71.2019043,50.7282715 70.9880371,50.454834 Z" id="路径-721" fill="#CBC9C1"></path>
                <path d="M61.1431368,51.8748801 L61.4395048,51.9521108 C64.3242188,52.7658691 66.9189453,52.0662027 66.2961426,52.8620605 L66.1592386,53.0199977 C65.0241032,53.3575462 63.8207575,53.5552074 62.706543,53.4484863 C61.3179711,53.3154869 60.3247783,53.0085019 59.6408784,52.6497004 C59.3106321,52.0844494 59.5448766,51.4953609 61.1431368,51.8748801 L61.1431368,51.8748801 Z" id="路径" fill="#D7D6D2"></path>
                <path d="M55.4541437,42.0090853 C55.5645891,42.0075325 55.6554157,42.0957735 55.6570104,42.2062189 C55.7056821,45.5770157 56.0628603,47.9315765 56.719127,49.2585347 C57.8023867,51.4488644 60.2741504,52.9747658 63.2004116,52.956498 C64.4240314,52.9488593 65.3241294,52.7877622 66.8143751,52.3608319 L67.7820087,52.07514 C69.205742,51.654469 70.0965847,51.4723519 71.1871176,51.4462973 C72.6106631,51.4122864 74.0003316,51.6914334 75.4513095,52.2031787 L76.2918882,52.5236016 C76.7673298,52.7105683 77.2379282,52.8997689 77.3096118,52.9206562 C77.9533572,53.1082324 78.4526759,52.9989712 78.6084927,52.6776309 L78.7357867,52.3803985 C78.8517132,52.0834534 78.9921009,51.6636777 79.1557536,51.1233044 C79.1877695,51.0175891 79.2994228,50.957844 79.405138,50.98986 C79.5108533,51.021876 79.5705983,51.1335292 79.5385824,51.2392445 L79.3484343,51.8453572 C79.1992178,52.3017263 79.0729423,52.6365809 78.9684116,52.8521543 C78.7092388,53.3866453 78.006631,53.5403903 77.1977124,53.3046856 L76.8216145,53.1626593 C76.3759876,52.9878658 75.6636401,52.7022147 75.3182657,52.5804046 C73.9093334,52.0834883 72.5651939,51.8134869 71.1966715,51.8461832 C70.2800434,51.8680829 69.5062884,52.0055774 68.3941192,52.3152983 L67.4486545,52.5918078 C65.6008965,53.1434087 64.6098978,53.3477068 63.2029087,53.3564902 C60.1235453,53.3757138 57.5116531,51.7633063 56.36058,49.4358594 C55.6712216,48.0419904 55.3065184,45.6378242 55.2570101,42.211994 C55.2554574,42.1015486 55.3436983,42.010722 55.4541437,42.0090853 Z" id="路径-728" fill="#878787" fill-rule="nonzero"></path>
                <path d="M76.9197703,40.2183242 L77.0038346,40.2087235 L77.0038346,40.2087235 L76.9382324,40.1737671 C77.2579346,40.3194377 77.485555,40.5002035 77.6210937,40.7160645 C77.7566325,40.9319255 77.8648885,41.4456584 77.9458618,42.2572632 C78.3684285,42.376241 78.6058553,42.6212769 78.6581421,42.9923706 C78.7104289,43.3634644 78.7699178,43.710144 78.8366089,44.0324097 C78.9778442,44.396342 79.0949707,44.6032918 79.1879883,44.6532593 C79.3275146,44.7282104 79.532959,45.6886597 79.6611328,45.734314 C79.7893066,45.7799683 79.862854,46.1774292 79.8770142,46.4196777 C79.8911743,46.6619263 80.0267334,46.8917847 80.0343018,47.1157227 L80.0343018,48 C80.241862,48.3499756 80.3663127,48.6250407 80.4076538,48.8251953 C80.448995,49.0253499 80.448995,49.2141927 80.4076538,49.3917236 L80.5229509,49.443613 C80.1945314,50.4731395 79.3873578,52.4134288 79.0821533,52.9906006 C79.0272518,53.0944248 78.9628535,53.1830837 78.8906409,53.2581194 C78.5360873,53.4394621 78.2241542,53.5601772 77.9928423,53.6024011 L77.9229644,53.6115256 C77.8451259,53.610685 77.7662378,53.6054137 77.686962,53.5963183 C76.8516745,53.3921938 75.5481142,51.9281021 74.8328857,51.1448364 C74.2852631,50.5451202 73.6913948,50.0178452 73.122529,49.5233316 L72.5646362,49.038269 C71.8389282,48.4021606 71.692749,48.3997803 71.3128662,48.3452148 C71.0947853,48.3138902 71.0827505,48.1671871 71.2767617,47.9051054 C71.3467993,47.8513694 71.4174731,47.8154684 71.4907227,47.7895508 L71.808374,47.6849902 L72.1590185,47.5502593 L72.5207616,47.3840125 L72.5207616,47.3840125 L72.7116766,47.2827638 C73.021187,47.1368913 73.3179437,46.9216981 73.5911331,46.6118416 C73.6872093,46.5109138 73.7734172,46.4020332 73.8486021,46.2852319 C74.2082392,45.7587991 74.5156934,45.03068 74.7376983,44.0328933 L74.8275146,43.588562 C75.1366882,41.8987732 75.6158752,41.1782188 75.9692128,40.793211 L76.2696426,40.496582 C76.296143,40.4706243 76.3228211,40.4469828 76.349943,40.4254321 C76.4259618,40.4224036 76.501965,40.3984738 76.5732451,40.3703595 L76.9197703,40.2183242 L76.9197703,40.2183242 Z" id="路径" fill="#DBA921"></path>
                <path d="M80.032689,47.7137671 L80.0343018,48 C80.241862,48.3499756 80.3663127,48.6250407 80.4076538,48.8251953 C80.448995,49.0253499 80.448995,49.2141927 80.4076538,49.3917236 L80.5229509,49.443613 C80.1945314,50.4731395 79.3873578,52.4134288 79.0821533,52.9906006 C79.0272518,53.0944248 78.9628535,53.1830837 78.8906409,53.2581194 C78.5360873,53.4394621 78.2241542,53.5601772 77.9928423,53.6024011 L77.9229644,53.6115256 C77.8451259,53.610685 77.7662378,53.6054137 77.686962,53.5963183 C76.8516745,53.3921938 75.5481142,51.9281021 74.8328857,51.1448364 C74.4221687,50.6950493 73.9854386,50.2860103 73.5527531,49.9009796 L72.5646362,49.038269 C72.2138774,48.7308167 71.9985029,48.5714102 71.826689,48.4826017 C72.3002259,48.472809 72.7720624,48.4876578 73.2426758,48.5273437 C75.3724349,48.7069424 77.3203125,50.2553711 78.2234057,50.4902649 C79.0700556,50.7104778 78.9954827,49.5719105 79.8517122,48.0250182 L80.032689,47.7137671 Z M76.9197703,40.2183242 L77.002689,40.2077671 L76.9382324,40.1737671 C77.2579346,40.3194377 77.485555,40.5002035 77.6210938,40.7160645 C77.7566325,40.9319255 77.8648885,41.4456584 77.9458618,42.2572632 C78.303603,42.3579888 78.5286513,42.5490621 78.6210068,42.8304832 C77.7122895,42.8366678 76.9197343,42.8551029 76.1401367,43.7839355 C75.3605391,44.7127682 74.4981747,46.0433626 73.7678912,46.4006541 L73.8486021,46.2852319 C74.2082392,45.7587991 74.5156934,45.03068 74.7376983,44.0328933 L74.8275146,43.588562 C75.1366882,41.8987732 75.6158752,41.1782188 75.9692128,40.793211 L76.2696426,40.496582 C76.296143,40.4706243 76.3228211,40.4469828 76.349943,40.4254321 C76.4259618,40.4224036 76.501965,40.3984738 76.5732451,40.3703595 L76.9197703,40.2183242 Z" id="形状" fill="#CB9409"></path>
                <path d="M76.9197703,40.2183242 L77.0037522,40.2077671 L76.9382324,40.1737671 C77.1344133,40.2631559 77.2959208,40.3657597 77.422755,40.4815786 C76.7473528,40.5741366 76.333847,40.8506899 76.1748199,41.3107967 C75.8884277,42.1394043 75.2243652,43.4394531 74.8898926,44.6074219 L74.7308916,45.158153 C74.4526557,46.0890983 74.080653,47.0534082 73.2009444,47.5720302 L72.9213867,47.7137671 C71.6403809,48.2658691 72.4702148,48.8425871 72.958252,49.3701172 L72.9877522,49.4057671 L72.5646362,49.038269 C71.8389282,48.4021606 71.692749,48.3997803 71.3128662,48.3452148 C71.0947853,48.3138902 71.0827505,48.1671871 71.2767617,47.9051054 C71.3467993,47.8513694 71.4174731,47.8154684 71.4907227,47.7895508 L71.808374,47.6849902 L72.1590185,47.5502593 L72.5207616,47.3840125 L72.7116766,47.2827638 C73.021187,47.1368913 73.3179437,46.9216981 73.5911331,46.6118416 C73.6872093,46.5109138 73.7734172,46.4020332 73.8486021,46.2852319 C74.2082392,45.7587991 74.5156934,45.03068 74.7376983,44.0328933 L74.8275146,43.588562 C75.1366882,41.8987732 75.6158752,41.1782188 75.9692128,40.793211 L76.2696426,40.496582 C76.296143,40.4706243 76.3228211,40.4469828 76.349943,40.4254321 C76.4259618,40.4224036 76.501965,40.3984738 76.5732451,40.3703595 L76.9197703,40.2183242 Z" id="路径" fill="#FFDD5E"></path>
                <path d="M71.7206421,48.0830739 L71.9231102,48.1877208 C72.2437581,48.3656358 72.824419,48.7284811 73.2922414,49.1663878 L73.991467,49.8781335 C75.0252718,50.917679 77.0222203,52.8492719 77.422755,53.0712891 C77.9091187,53.3408813 78.4180951,53.2819214 78.7677612,53.1754761 L79.0264641,53.0875433 L79.0264641,53.0875433 L79.0821533,52.9906006 C79.0272518,53.0944248 78.9628535,53.1830837 78.8906409,53.2581194 C78.5360873,53.4394621 78.2241542,53.5601772 77.9928423,53.6024011 L77.9229644,53.6115256 C77.8451259,53.610685 77.7662378,53.6054137 77.686962,53.5963183 C76.8516745,53.3921938 75.5481142,51.9281021 74.8328857,51.1448364 C74.4221687,50.6950493 73.9854386,50.2860103 73.5527531,49.9009796 L72.5646362,49.038269 C71.8389282,48.4021606 71.692749,48.3997803 71.3128662,48.3452148 C71.2096672,48.3303916 71.1526085,48.2897314 71.14169,48.2232343 C71.3096399,48.1312987 71.5813749,48.0208588 71.7206421,48.0830739 Z" id="路径" fill="#AC810A"></path>
                <path d="M78.6581421,42.9923706 C78.7104289,43.3634644 78.7699178,43.710144 78.8366089,44.0324097 C78.9778442,44.396342 79.0949707,44.6032918 79.1879883,44.6532593 C79.3275146,44.7282104 79.532959,45.6886597 79.6611328,45.734314 C79.7893066,45.7799683 79.862854,46.1774292 79.8770142,46.4196777 C79.8911743,46.6619263 80.0267334,46.8917847 80.0343018,47.1157227 L80.0359176,47.8960121 L79.9853013,48.1514187 C79.9767902,48.1875285 79.9682417,48.2204093 79.9596558,48.250061 C79.8093262,48.7692261 78.9388428,50.3841553 78.5770264,51.0562134 C78.21521,51.7282715 77.8734741,51.5023804 77.5714722,51.2521973 C77.2694702,51.0020142 75.9455039,49.4666138 75.765625,49.0289307 C75.6114431,48.6537737 75.6402294,48.4717968 75.7627142,48.2214804 L75.8313516,48.0894165 C76.0077959,47.7623291 76.6809082,46.2131348 76.8153687,45.7438965 C76.9498291,45.2746582 77.0510254,43.8724976 77.1079102,43.382019 C77.1647949,42.8915405 77.6695557,42.6281128 77.9599609,42.5257568 C78.062242,42.4897069 78.184352,42.4603785 78.3262908,42.4377716 C78.5147693,42.567964 78.6245849,42.754206 78.6581421,42.9923706 Z" id="路径" fill="#B67B00"></path>
                <path d="M80.0343018,47.1157227 L80.0343018,48 L80.0981822,48.1089165 L80.0342407,48.5194702 L80.0342407,48.5194702 C79.8336792,49.8712158 78.4974976,51.8647461 78.1584473,51.8231201 C77.819397,51.7814941 77.6160278,51.7304688 76.7411499,50.8580933 C75.866272,49.9857178 75.6728516,48.7910767 75.6459961,48.7373657 C75.621582,48.6885376 75.8474626,48.5822053 76.179602,49.154826 L76.2822876,49.3477173 C76.6694336,50.1350708 77.2166138,50.5794067 77.6075439,50.9153442 C77.9984741,51.2512817 78.4950562,50.7122192 78.7641602,50.3082886 C79.0332642,49.9043579 79.475769,49.1135864 79.6538086,48.6057129 C79.7919572,48.2116318 79.9599456,47.4707914 80.0165116,47.0035025 L80.0343018,47.1157227 L80.0343018,47.1157227 Z" id="路径" fill="#885600"></path>
                <path d="M19.574585,55.8536377 C22.9381104,56.9671631 26.4229736,58.4373779 27.913208,59.8365479 C28.9066976,60.7693278 29.4538574,61.4805501 29.5546875,61.9702148 L26.8449844,61.4642653 C22.2329306,60.589417 18.715257,59.845862 16.2919635,59.2336003 C14.6040912,58.7263622 12.8427935,58.1379352 11.0661621,57.4595947 C10.8342357,57.3710423 10.6206127,57.0530491 10.6738281,56.7233887 C10.9269206,55.5073242 11.3543294,54.8292643 11.7075195,54.4714355 C12.0607096,54.1136068 12.5679932,53.9556885 13.2293701,53.9976807 L15.6856312,54.6652892 C16.7355997,54.9603284 18.0609985,55.3525513 19.574585,55.8536377 Z" id="路径" fill="#E3E3E3"></path>
                <path d="M13.4918373,54.0702238 L15.6856312,54.6652892 L17.1804909,55.0990949 C17.9062209,55.3165148 18.7096784,55.5673026 19.574585,55.8536377 C22.9381104,56.9671631 26.4229736,58.4373779 27.913208,59.8365479 C28.8258322,60.6934039 29.3618279,61.3633019 29.5211951,61.846242 C29.3054237,61.820642 29.0719277,61.7871451 28.8195801,61.7438965 C27.5598145,60.3229167 26.3162842,59.2679036 25.0889893,58.5788574 C23.2480469,57.5452881 19.230957,56.07823 16.4648438,55.1694336 L15.0154343,54.6855159 C14.2129691,54.4096145 13.727114,54.2195951 13.4918373,54.0702238 Z" id="路径" fill="#F2F3EE"></path>
                <path d="M12.4546446,55.5223389 C13.493281,56.2375207 14.5228109,56.3379881 16.5037874,56.9849057 L17.0194092,57.1586914 C19.3444824,57.9669189 22.4515381,59.1810645 23.0965576,59.8929004 C23.4206962,60.2506159 22.6015889,60.4176374 21.406254,60.3871178 L19.9323965,60.075627 C18.5238783,59.7718241 17.3111334,59.4911005 16.2919635,59.2336003 C14.6040912,58.7263622 12.8427935,58.1379352 11.0661621,57.4595947 C10.8342357,57.3710423 10.6206127,57.0530491 10.6738281,56.7233887 C10.9269206,55.5073242 11.3543294,54.8292643 11.7075195,54.4714355 C11.8050673,54.3726066 11.9143694,54.2890272 12.035426,54.2206971 C11.7506032,54.700971 11.890447,55.1338451 12.4546446,55.5223389 Z" id="路径" fill="#D6D6D3"></path>
                <path d="M50.708313,39.9343872 C50.9002075,39.8988647 53.7710571,39.9921875 54.734314,40.7507935 C55.6975708,41.5093994 58.3509521,43.635437 58.5095215,43.9732056 C58.6152344,44.1983846 58.5864258,44.3356527 58.4230957,44.3850098 L58.4230957,44.3850098 L53.9719238,43.8815918 L52.9990234,44.807373 L50.1002197,42.2324219 C50.2986654,41.9199626 50.4095052,41.6715291 50.4327393,41.4871216 C50.4559733,41.302714 50.4287516,40.8536377 50.3510742,40.1398926 C50.4613037,40.0265706 50.5803833,39.9580688 50.708313,39.9343872 Z M51.0470581,41.7875977 C50.9575195,41.8967896 52.7500705,43.6255856 53.0488892,43.7692261 C53.3477078,43.9128666 53.6091919,43.203125 53.6484375,42.9387207 C53.6876831,42.6743164 52.0325317,41.329834 51.8737793,41.2521362 C51.7150269,41.1744385 51.1365967,41.6784058 51.0470581,41.7875977 Z" id="形状结合" fill="#716F6E"></path>
                <path d="M50.4442591,41.2229909 C50.5649386,41.2645347 50.6610946,41.271549 50.7327271,41.2440336 C50.8770447,41.1885986 51.2683411,41.0760495 51.2472839,41.2440336 C51.2262268,41.4120178 51.0057373,41.5067444 50.7327271,41.5762634 C50.6186607,41.6053092 50.4992724,41.6427813 50.3745622,41.68868 C50.4246521,41.5415039 50.4369202,41.3544617 50.4442591,41.2229909 Z" id="路径-696" fill="#D9D7D7"></path>
                <path d="M55.7708435,44.0124512 C57.0061085,44.1096089 58.2850952,44.3473206 58.2761841,44.1496277 C58.2672729,43.9519348 55.7713318,43.5667114 55.0877686,43.505249 C54.4042053,43.4437866 54.0529785,43.3215637 54.0537109,43.4413147 C54.0541992,43.5211487 54.0408122,43.6088257 54.0135498,43.7043457 L53.9124146,43.7306213 C53.8816528,43.52005 53.8442179,43.4093221 53.8001099,43.3984375 C53.7339478,43.3821106 53.3209839,43.7562256 53.1682129,43.9219666 C53.0154419,44.0877075 52.8318176,44.340332 52.8517456,44.4467773 C52.8716736,44.5532227 53.0254211,44.5946655 53.0801392,44.5697327 C53.1166178,44.5531108 53.4091492,44.2998556 53.9577332,43.809967 C54.3429634,43.8801846 54.9473335,43.9476793 55.7708435,44.0124512 Z" id="路径-695" fill="#B1B1B1"></path>
                <path d="M31.7237549,54.3466797 C35.1103109,52.6474609 37.4512533,51.5075684 38.746582,50.927002 C40.6895752,50.0561523 47.0262451,46.0527344 47.5714111,45.6374512 C48.1165771,45.222168 50.5588211,42.2926025 50.811332,42.1125488 C51.0638428,41.9324951 53.0469971,43.6009739 53.0523682,43.7882189 C53.0577393,43.9754639 52.8607178,44.5168457 52.6220703,44.807373 C52.3834229,45.0979004 51.1739502,46.5085449 50.0806885,47.5612793 C48.9874268,48.6140137 43.8421631,51.3530273 40.5858154,53.0100098 C37.3294678,54.6669922 30.9744873,58.6722412 30.8795166,58.6413574 C30.8162028,58.6207682 31.0976156,57.189209 31.7237549,54.3466797 Z" id="路径-697" fill="#387089"></path>
                <path d="M50.3111572,41.817627 C50.0294884,42.0089557 45.9746094,45.4194336 44.7182617,46.2601318 C43.4619141,47.1008301 41.4794922,48.1048584 40.854248,48.3297119 C40.2290039,48.5545654 36.4226074,49.7458891 34.3574219,50.370259 C32.2922363,50.9946289 29.7241211,51.8199463 29.5546875,51.892334 C29.3852539,51.9647217 27.1341553,55.4365845 27.3265381,55.4977417 C27.5189209,55.5588989 29.4923096,54.4500122 31.8953857,53.6404419 C34.2984619,52.8308716 42.586792,50.3634644 44.6556396,49.8255005 C46.7244873,49.2875366 48.0331629,48.8993171 48.7863159,48.5360718 C49.1621704,48.3547974 49.9296265,47.8085327 50.5681152,47.1290894 C51.5111429,46.1255731 52.8912283,44.524951 53.0810547,44.3188477 C53.4056396,43.9664307 53.1793213,43.7214966 53.159729,43.6363525 C53.1401367,43.5512085 51.1589966,41.6419678 50.9743042,41.5449219 C50.7896118,41.447876 50.5928261,41.6262982 50.3111572,41.817627 Z" id="路径-698" fill="#0C343E"></path>
                <path d="M50.3111572,41.817627 C50.0294884,42.0089557 45.9746094,45.4194336 44.7182617,46.2601318 C43.4619141,47.1008301 41.4794922,48.1048584 40.854248,48.3297119 C40.2290039,48.5545654 36.4226074,49.7458891 34.3574219,50.370259 C32.2922363,50.9946289 29.7241211,51.8199463 29.5546875,51.892334 C29.3852539,51.9647217 27.3052979,55.0609131 27.4976807,55.1220703 C27.6900635,55.1832275 29.6634521,54.0743408 32.0665283,53.2647705 C34.4696045,52.4552002 42.7579346,49.987793 44.8267822,49.4498291 C46.8956299,48.9118652 48.3209229,47.8026123 48.8666992,47.3435059 C49.4124756,46.8843994 52.3866577,44.3318481 52.6489258,44.0562134 C52.9111938,43.7805786 53.1793213,43.7214966 53.159729,43.6363525 C53.1401367,43.5512085 51.1589966,41.6419678 50.9743042,41.5449219 C50.7896118,41.447876 50.5928261,41.6262982 50.3111572,41.817627 Z" id="路径-698" fill="#297183"></path>
                <path d="M45.131431,46.1445765 C46.8694264,46.1091148 48.1614402,46.3540601 49.3639079,46.5238135 L49.8621668,46.5900564 L49.8323975,46.5751953 L49.091361,47.1654546 L48.5532108,47.5971177 C47.9295093,48.0819191 46.8068641,48.8402314 45.2926772,49.3160983 L43.9426232,49.6903269 L41.7002675,49.7802345 C39.7333106,49.8468721 37.5939414,49.8927522 35.8327021,49.9175462 L40.3821293,48.4885394 C40.5987888,48.4176754 40.7615104,48.3630627 40.854248,48.3297119 C41.4313965,48.1221548 43.1649567,47.2506855 44.4163947,46.4566095 L44.8739674,46.152971 L45.131431,46.1445765 Z" id="路径" fill="#1C5968"></path>
                <path d="M50.9743042,41.5449219 C51.1589966,41.6419678 53.1401367,43.5512085 53.159729,43.6363525 C53.1793213,43.7214966 52.9943237,43.7941895 52.7556763,44.0163574 C52.5170288,44.2385254 50.1215177,46.3807517 49.1598974,47.1129973 L48.6430105,47.5265184 C48.5999951,47.5607229 48.5541429,47.5966223 48.5054993,47.633982 C46.93724,47.4547137 44.4268119,47.6716997 40.9712187,48.2851126 C41.6905184,47.9973903 43.5294471,47.0556396 44.7182617,46.2601318 L45.1051663,45.9863319 C46.6512748,44.8506484 50.0539813,41.9923184 50.3111572,41.817627 L50.5672276,41.6403249 C50.6838116,41.5635495 50.7852405,41.5118808 50.8806132,41.518139 L50.9743042,41.5449219 Z" id="路径" fill="#0A4453"></path>
                <path d="M50.7809525,41.5305321 L53.0661357,43.7659894 L52.8756331,43.9122556 L52.8756331,43.9122556 L52.4383958,44.3032726 L52.4383958,44.3032726 L52.1831489,44.0641421 C51.7363424,43.632984 51.0018473,42.8759113 49.9799805,41.795166 L50.1360899,41.9529655 L50.3111572,41.817627 L50.3111572,41.817627 L50.5672276,41.6403249 C50.6442029,41.5896334 50.7145716,41.5498869 50.7809525,41.5305321 Z" id="路径" fill="#377889"></path>
                <path d="M49.5908508,45.8851929 C50.2882996,45.9186401 50.9056164,45.4186124 50.9296875,44.5354919 C50.9537586,43.6523715 50.1878357,43.2341003 49.5800476,43.2341003 C48.9722595,43.2341003 48.3980593,43.8213028 48.3904724,44.5284119 C48.3828855,45.235521 48.8934021,45.8517456 49.5908508,45.8851929 Z" id="椭圆形" fill="#332B17"></path>
                <path d="M49.6328125,45.7584839 C50.2255249,45.7584839 50.8523327,45.3460111 50.8764038,44.4628906 C50.9004749,43.5797702 50.2263184,43.1468506 49.6185303,43.1468506 C49.0107422,43.1468506 48.436542,43.734053 48.4289551,44.4411621 C48.4213682,45.1482712 49.0401001,45.7584839 49.6328125,45.7584839 Z" id="椭圆形" fill="#CE9200"></path>
                <path d="M49.6185303,43.1468506 C50.2263184,43.1468506 50.9004749,43.5797702 50.8764038,44.4628906 C50.8635476,44.9345572 50.678759,45.2719701 50.4190599,45.4839924 L50.3772888,45.5563049 C50.7358704,44.9815979 50.7964986,44.4475708 50.5591736,43.9542236 C50.203186,43.2142029 49.3318176,43.2743225 48.9075012,43.6823425 C48.4831848,44.0903625 48.5600586,44.7805176 48.8069153,45.1885071 C49.0522387,45.5939625 49.4684317,45.6842777 49.649589,45.7571223 C49.0401001,45.7584839 48.4213682,45.1482712 48.4289551,44.4411621 C48.436542,43.734053 49.0107422,43.1468506 49.6185303,43.1468506 Z" id="路径" fill="#D7BE27"></path>
                <path d="M29.9706421,52.2238464 C29.9418742,52.6766459 30.1038208,52.8269653 30.4564819,52.6748047 C30.9854736,52.4465637 32.8665323,51.4193161 32.9265747,51.4883072 C32.9866171,51.5572984 31.0602228,52.6911305 30.6919556,52.9453735 C30.3236883,53.1996166 29.6965637,53.3751221 29.668335,52.9453735 C29.6495158,52.6588745 29.7502848,52.4183655 29.9706421,52.2238464 Z" id="路径-699" fill="#D8D8D8"></path>
                <polygon id="路径-700" fill="#D8D8D8" points="34.1306152 51.8258362 34.1701355 50.9343262 34.5803833 50.7991943 34.725647 51.0738525 34.7651062 50.7378235 35.1332092 50.6208191 35.0409241 51.5809021 34.6965637 51.64328 34.4804077 51.4060364 34.4490662 51.7507935"></polygon>
                <polygon id="路径-701" fill="#D8D8D8" points="35.2580872 50.6169434 35.6732483 50.5417175 35.6736755 51.4335632 35.2512817 51.4883072"></polygon>
                <polygon id="路径-702" fill="#D8D8D8" points="35.8849792 50.4471436 36.1686096 50.370259 36.2423096 50.4990234 36.6177979 50.2210191 36.721405 50.4259338 36.4624786 50.7788696 36.7731628 51.0052185 36.4232483 51.1073608 36.2860107 50.9228516 36.2423096 51.206604 35.8849792 51.3454759"></polygon>
                <polygon id="路径-703" fill="#D8D8D8" points="36.8430786 50.2209473 37.4891357 50.0093079 37.535675 50.840271 36.9014587 50.9712219"></polygon>
                <path d="M38.2149737,49.6404854 C38.293819,49.5631281 38.4204463,49.5643344 38.4978036,49.6431797 L38.7441432,49.9091081 C38.9074872,50.1029004 38.9672843,50.2348709 38.9332911,50.362884 C38.8729793,50.5900089 38.6503762,50.6137423 38.1709608,50.5694093 C38.0609731,50.5592384 37.9800556,50.4618307 37.9902265,50.351843 C38.0003974,50.2418553 38.0978052,50.1609378 38.2077929,50.1711087 L38.4272247,50.1868141 L38.462,50.192 L38.2122794,49.9233153 C38.1349221,49.84447 38.1361284,49.7178427 38.2149737,49.6404854 Z" id="路径-704" fill="#D5D5D5" fill-rule="nonzero"></path>
                <path d="M39.8976464,49.1203652 C39.6874012,49.158409 39.4634278,49.2958673 39.3316281,49.4637185 C39.1520894,49.6923669 39.1605742,49.9686478 39.4266016,50.1173794 C39.8514798,50.354922 40.8178229,50.1148478 40.8596427,49.6704565 C40.9002411,49.2390446 40.3785508,49.0333457 39.8976464,49.1203652 Z" id="路径-705" fill="#D5D5D5" fill-rule="nonzero"></path>
                <path d="M40.8772962,48.7975777 L41.7977412,48.9884357 L41.9655573,49.2958671 C42.0184806,49.39282 41.9827875,49.5143187 41.8858345,49.5672419 C41.8131199,49.6069343 41.7265982,49.5967801 41.6655551,49.5483201 L41.6144598,49.4875191 L41.5994189,49.2829609 L40.8317492,49.194976 C40.7220107,49.1823986 40.6432461,49.0832419 40.6558235,48.9735034 C40.6652566,48.8911995 40.7233905,48.8263184 40.7981638,48.804328 L40.8772962,48.7975777 Z" id="路径-706" fill="#D5D5D5" fill-rule="nonzero"></path>
                <path d="M42.9992285,47.9013907 C43.311355,47.8562875 43.586851,47.9816621 43.5990921,48.2552511 C43.6018302,48.316447 43.5875855,48.3709438 43.5555482,48.4218893 L43.512,48.474 L43.5841135,48.4822799 C43.666388,48.4919656 43.7310903,48.5502985 43.752851,48.625139 L43.7593583,48.7042917 C43.7496725,48.7865662 43.6913397,48.8512685 43.6164992,48.8730292 L43.5373465,48.8795365 L42.988,48.814 L43.0196124,48.8859225 C43.0299504,48.9368436 43.0199797,48.9901364 42.9919313,49.0338757 L42.9365795,49.0908289 C42.8682271,49.1376357 42.7811229,49.1362378 42.715514,49.0941652 L42.6585608,49.0388133 L42.3056555,48.523463 L42.3440739,48.25563 C42.5981589,48.047876 42.8120434,47.9284395 42.9992285,47.9013907 Z" id="路径-708" fill="#D5D5D5" fill-rule="nonzero"></path>
                <path d="M43.8447913,47.5419248 C43.9147355,47.4975319 44.0017379,47.5019687 44.0658386,47.5463052 L44.1208254,47.6036109 L44.5587832,48.2936439 C44.6179738,48.3869027 44.590356,48.5104874 44.4970971,48.569678 C44.427153,48.6140709 44.3401505,48.6096341 44.2760498,48.5652976 L44.221063,48.5079919 L43.7831052,47.8179589 C43.7239147,47.7247001 43.7515325,47.6011154 43.8447913,47.5419248 Z" id="路径-709" fill="#D5D5D5" fill-rule="nonzero"></path>
                <path d="M45.1668175,46.8315965 C45.018506,46.8918794 44.8287515,47.016266 44.5895562,47.2065085 L44.5460444,47.4715453 L45.0285273,48.2185851 L45.279095,48.2922404 L45.6600864,48.1100827 C45.7133592,48.0827648 45.7615431,48.0569504 45.8046742,48.0326136 C46.0923814,47.8702747 46.1950501,47.3710702 46.0200561,47.0712187 C45.8533594,46.7855845 45.4688124,46.7088474 45.1668175,46.8315965 Z" id="路径-710" fill="#D5D5D5" fill-rule="nonzero"></path>
                <path d="M46.684833,45.6601312 C46.7685626,45.5880889 46.8948406,45.5975633 46.9668829,45.6812929 C47.0209147,45.7440901 47.0290932,45.8308208 46.9944821,45.9006542 L46.9457212,45.9633429 L46.454,46.384 L46.868,46.982 L47.3339039,46.6808541 C47.4033874,46.6357437 47.4904309,46.6392849 47.5549845,46.6829593 L47.6105582,46.7396961 C47.6556686,46.8091797 47.6521275,46.8962231 47.608453,46.9607768 L47.5517162,47.0163504 L46.9241833,47.4237601 L46.6507471,47.3697216 L46.0248011,46.4640209 L46.0588869,46.1987055 L46.684833,45.6601312 Z" id="路径-711" fill="#D5D5D5" fill-rule="nonzero"></path>
                <path d="M58.2518311,30.6959229 C58.4615479,30.770752 58.7701416,31.2463379 58.7857666,31.5352783 L58.7877843,36.9883623 L58.8351767,39.0053968 C58.8684874,39.9922463 58.9182062,40.935442 58.9831543,41.0595703 C59.0564643,41.1996799 59.1048705,41.6157664 59.1410779,42.0766454 L59.2110596,43.1503906 C59.2201243,43.2908441 59.2484347,43.5117177 59.2922483,43.779835 C58.6961426,43.7359291 55.123795,42.9913845 53.1617493,42.3677135 C52.0396824,42.0110447 51.1987432,41.3492756 50.638932,40.3824064 L50.453373,40.0300097 L50.5557787,39.9226387 C51.5859145,38.8042081 53.6166999,36.2780417 54.664644,34.7118863 L54.887085,34.3702393 C55.9040527,32.756958 58.0421143,30.6210938 58.2518311,30.6959229 Z" id="路径" fill="#D5D5D4"></path>
                <path d="M58.2518311,30.6959229 C58.4615479,30.770752 58.7701416,31.2463379 58.7857666,31.5352783 L58.7877843,36.9883623 L58.793373,37.2760097 L58.7740479,37.2849731 C58.6426769,37.2258486 58.3840041,37.1808153 57.9980294,37.1498733 L57.4737549,37.1195068 L56.7559814,37.5131226 L51.5230581,39.5689697 C52.2126014,39.5871175 52.9798364,39.477437 53.8247631,39.2399282 L55.6258325,38.7206943 C56.2774182,38.5268172 56.7940956,38.3634892 56.9030762,38.3047718 C57.0187291,38.2424594 57.1633052,37.9887736 57.3368044,37.5437143 L57.4259644,37.3052368 L58.0596869,37.2369224 C58.158893,37.9293973 57.9443371,38.4597456 57.416019,38.8279672 C57.9157782,39.1005145 58.4777832,40.6809082 57.7781045,40.1737671 C57.0784258,39.666626 55.7763672,39.9633789 54.3360233,40.4220746 C53.210557,40.7804935 53.7747225,41.9466225 53.8015525,42.5607969 L53.1617493,42.3677135 L53.1617493,42.3677135 C52.0396824,42.0110447 51.1987432,41.3492756 50.638932,40.3824064 L50.453373,40.0300097 L50.723373,39.7360097 L51.811332,39.2399282 L56.9030762,37.2369224 C57.2160645,37.0402371 57.2160645,36.1787923 56.9030762,34.6525879 C56.68054,33.5674492 56.0679071,33.3819181 55.0651774,34.0959943 C56.1335035,32.5286039 58.0536537,30.6252111 58.2518311,30.6959229 Z" id="路径" fill="#EAEAEA"></path>
                <path d="M58.784831,33.9681637 L58.7877843,36.9883623 L58.8351767,39.0053968 C58.8651563,39.8935613 58.9084265,40.7463663 58.9641279,40.9985352 L58.9831543,41.0595703 C58.9705407,41.0388224 59.0397417,41.2002294 59.0720825,41.4794922 C59.1277182,41.9599071 59.2052125,42.768745 59.3045654,43.9060059 L59.1495972,43.7844849 C58.8479207,42.100967 58.6850586,41.2180528 58.6610107,41.1357422 C58.4646379,40.4636 58.1005355,40.419375 58.0596869,40.1737671 C58.0049722,39.8447876 58.2223568,39.2322721 57.8938509,39.2235453 L57.7781045,39.2399282 C57.320351,39.3640565 56.7373698,38.8463088 57.3447908,38.6208833 L57.4936523,38.5773926 C58.0537887,38.4496076 58.3679976,38.0027842 58.4362793,37.2369224 C58.4268392,37.0480189 58.4236925,36.8465806 58.4268392,36.6326073 L58.4362793,36.3022461 C58.4476955,36.0283225 58.5638794,35.2502951 58.784831,33.9681637 Z" id="路径" fill="#B2B2AE"></path>
                <path d="M57.7999268,36.9609375 C58.0205648,36.9449544 58.2921924,37.0006346 58.6148096,37.127978 L58.7922197,37.204264 L58.7970219,37.3840049 C58.4108554,37.2860774 58.0738732,37.2621633 57.7860752,37.3122626 L57.5841064,37.3621826 L55.5311689,38.0767942 C54.9344854,38.290369 54.3736027,38.4965006 54.0903731,38.6127658 L53.5162831,38.8562617 C53.0261692,39.0539293 52.1747955,39.3838577 50.962162,39.8460468 L50.4562197,40.038264 L50.453373,40.0300097 L50.7021614,39.759805 L52.8427383,38.8141512 C53.1133654,38.6906948 53.3409246,38.5843149 53.5254161,38.4950112 L53.8369751,38.3391724 C54.59021,37.9447632 57.3862305,36.9909058 57.7999268,36.9609375 Z" id="路径" fill="#9B9B9B"></path>
                <path d="M82.4731445,68.4337769 C82.2777913,69.2214152 82.1136678,69.6717326 81.9807739,69.784729 C81.7814331,69.9542236 78.6987305,70.7277222 76.6350708,70.8952637 C74.5714111,71.0628052 71.9143677,71.010437 71.6868286,70.9713745 C71.5351359,70.9453328 71.4307454,70.7017415 71.3736572,70.2406006 C74.5889486,69.6958415 76.9484863,69.3182983 78.4522705,69.1079712 C79.9560547,68.897644 81.296346,68.6729126 82.4731445,68.4337769 Z" id="路径-720" fill="#A31624"></path>
                <path d="M82.0767753,68.5128793 L82.4731445,68.4337769 L82.3324852,68.9612579 C82.1976814,69.4254913 82.0804443,69.6999817 81.9807739,69.784729 C81.7814331,69.9542236 78.6987305,70.7277222 76.6350708,70.8952637 L75.9293537,70.9432859 C74.0109509,71.0513321 71.8890856,71.0060967 71.6868286,70.9713745 C71.6270267,70.9611081 71.5745764,70.9170306 71.5294777,70.8391419 C73.0057931,70.8351904 74.3584677,70.8055768 75.5909424,70.7460937 C77.6029741,70.6489868 81.1678467,69.8601074 81.4268799,69.7156982 C81.5672834,69.6374243 81.7839152,69.2364846 82.0767753,68.5128793 Z" id="路径" fill="#C83948"></path>
                <path d="M84.9072876,57.6864624 C85.6358705,57.8266805 86.000162,58.0551961 86.000162,58.3720093 C86.000162,58.847229 85.8868197,61.6561564 85.4537248,63.4859761 C85.1649948,64.705856 84.9245605,65.5304362 84.7324219,65.9597168 C85.0028483,66.3406576 85.0028483,66.5683187 84.7324219,66.6427002 C84.4619954,66.7170817 84.1554362,66.8387451 83.8127441,67.0076904 C84.2348633,66.9712321 84.4211019,67.0513509 84.37146,67.2480469 C84.321818,67.4447428 83.9381243,67.7111816 83.2203788,68.0473633 C83.4732806,68.2597656 83.568929,68.4326986 83.5073242,68.5661621 C83.4457194,68.6996257 83.0826416,68.8722738 82.4180908,69.0841064 L81.7185669,69.1696777 C81.6117147,69.3887533 81.4718221,69.4966838 81.2988892,69.4934692 C81.0394897,69.4886475 80.8978882,69.3563843 80.7443848,69.3956299 C80.5908813,69.4348755 80.5136719,69.7150879 80.3190308,69.753418 C80.1243896,69.791748 79.9749146,69.5394897 79.7120361,69.5830078 C79.4491577,69.6265259 79.4624023,69.8496704 79.2836914,69.9088745 C79.1049805,69.9680786 78.7260132,69.6723633 78.4083862,69.753418 C78.0907593,69.8344727 78.0094604,70.1345825 77.7269897,70.1793823 C77.444519,70.2241821 77.2817993,69.8347168 77.0137939,69.9088745 C76.7457886,69.9830322 76.7038574,70.3884888 76.3994751,70.40625 C76.0950928,70.4240112 75.9227295,70.1295166 75.6158447,70.1793823 C75.30896,70.229248 75.2415161,70.5360107 74.9421387,70.5855103 C74.6427612,70.6350098 74.4499512,70.2214966 74.1668091,70.2785645 C73.883667,70.3356323 73.8032227,70.781189 73.3730469,70.8341675 C72.9428711,70.887146 72.7962646,70.43396 72.5275269,70.4908447 C72.2587891,70.5477295 72.0853882,70.902771 71.7436523,70.9445801 C71.4019165,70.9863892 71.0601196,70.8132324 70.7510376,70.8341675 C70.4419556,70.8551025 70.2220459,71.1636963 69.8462524,71.1804199 C69.470459,71.1971436 69.2271118,70.951416 68.9478149,70.9445801 C68.6685181,70.9377441 68.6142578,71.1987915 68.1334839,71.1804199 C67.65271,71.1620483 67.6370277,70.8467407 67.2810078,70.8341675 C66.9249878,70.8215942 66.9208374,71.3513184 66.5533447,71.3858643 C66.1858521,71.4204102 65.774292,70.6055298 65.5907593,70.5855103 C65.4072266,70.5654907 64.4833374,70.6255493 64.2282104,70.40625 C63.9730835,70.1869507 62.1134033,67.9364624 61.5968628,67.5574341 C61.0803223,67.1784058 60.4628296,66.8660889 59.6311646,67.5574341 C58.7994995,68.2487793 58.4382324,68.7717285 58.3895264,69.0841064 C58.3408203,69.3964844 58.4611816,69.5830078 58.2907715,69.753418 C58.1203613,69.9238281 57.7972412,69.9424438 57.6384888,70.1793823 C57.4797363,70.4163208 57.6357422,71.1118774 57.2422485,71.1804199 C56.8487549,71.2489624 56.6514893,70.9611206 56.4736938,71.0442505 C56.2958984,71.1273804 56.1989136,71.8198853 55.923584,71.8901367 C55.6482544,71.9603882 55.2796021,71.4810791 54.9631958,71.50354 C54.6467896,71.526001 54.387085,71.9760132 54.0125732,71.9911499 C53.6380615,72.0062866 53.6264038,71.5232544 53.2769775,71.50354 C52.9275513,71.4838257 52.9822998,71.9911499 52.6116943,71.9911499 C52.2410889,71.9911499 52.015686,71.50354 51.7183228,71.50354 C51.4209595,71.50354 51.3929443,71.9911499 51.0388184,71.9911499 C50.6846924,71.9911499 50.467041,71.50354 50.1685181,71.50354 C49.8699951,71.50354 49.9424438,71.9911499 49.5003662,71.9911499 C49.0582886,71.9911499 49.0161743,71.50354 48.6373291,71.50354 C48.2584839,71.50354 48.3779907,71.9911499 47.9033203,71.9911499 C47.4286499,71.9911499 47.3473511,71.50354 47.0627747,71.50354 C46.7781982,71.50354 46.7977905,71.8901367 46.437439,71.8901367 C46.0770874,71.8901367 44.635437,70.4579468 44.0203247,69.6526489 C43.4052124,68.8473511 42.2999878,68.6151733 41.7133789,68.7263794 C41.12677,68.8375854 40.609314,69.3511353 40.4962769,69.4934692 C40.3832397,69.6358032 40.4468994,69.7807617 40.3085327,69.9088745 C40.170166,70.0369873 39.7719654,70.005127 39.6164209,70.1793823 C39.4608765,70.3536377 39.1873779,71.0495605 38.9997559,71.1529541 C38.8121338,71.2563477 38.4653931,70.9066162 38.2811279,70.9445801 C38.0968628,70.9825439 37.81427,71.4431763 37.3042603,71.3858643 C36.7942505,71.3285522 36.852356,70.7716064 36.4657593,70.6691895 C36.0791626,70.5667725 35.8979492,71.2412109 35.4404907,71.1547852 C34.9830322,71.0683594 35.0944214,70.3200684 34.7197266,70.2785645 C34.3450317,70.2370605 34.2518311,70.720459 33.9309692,70.6691895 C33.6101074,70.6179199 33.4766235,70.2892456 33.1706543,70.1793823 C32.8646851,70.069519 32.5160377,70.3753052 32.1700672,70.2785645 C31.8240967,70.1818237 31.8684082,69.7720337 31.5977173,69.6526489 C31.3270264,69.5332642 30.9899902,70.0279541 30.6178589,69.9088745 C30.2457275,69.7897949 30.3030396,69.4613647 30.0164795,69.2814941 C29.7299194,69.1016235 29.5463867,69.5041504 29.1109009,69.3956299 C28.675415,69.2871094 28.7355957,69.0123901 28.4717407,68.8450317 C28.2078857,68.6776733 27.9501343,69.0240479 27.4517822,68.8450317 C26.9534302,68.6660156 27.1657104,68.3099976 26.8917847,68.1688843 C26.6178589,68.027771 26.3094482,68.5655518 25.7590332,68.2456055 C25.2086182,67.9256592 25.3660889,67.6396484 25.2788696,67.5574341 C25.1916504,67.4752197 24.5460815,67.5183105 24.3445435,67.1601562 C24.1430054,66.802002 23.9752808,65.9567871 23.5426636,65.8401489 C23.1100464,65.7235107 22.5383911,65.6829224 22.3168335,65.9597168 C22.0952759,66.2365112 21.3598022,66.4238281 21.1168213,66.3009644 C20.8738403,66.1781006 20.9743652,65.6322708 20.8141479,65.5823975 C20.6539307,65.5325242 20.1070557,65.9232254 19.7683105,65.7494507 C19.4295654,65.575676 19.5600586,65.1960449 19.3743286,65.0360718 C19.1885986,64.8760986 18.6918335,65.3140869 18.2624512,65.0864258 C17.8330688,64.8587646 18.1433105,64.5404053 17.9165649,64.3565674 C17.6898193,64.1727295 17.1328125,64.624939 16.822876,64.3565674 C16.5129395,64.0881958 16.6021118,63.598173 16.4290771,63.4859761 C16.2560425,63.3737793 15.765686,63.7116984 15.4398193,63.4859761 C15.1139526,63.2602539 15.09198,62.8457642 14.9258423,62.7606201 C14.7597046,62.6754761 14.2677002,62.9310303 13.9783325,62.7606201 C13.6889648,62.59021 13.7935791,62.1903687 13.6094971,62.0558472 C13.425415,61.9213257 12.9936523,62.1339722 12.7315674,61.9702148 C12.4694824,61.8064575 12.4487915,61.2788086 12.3106079,61.1764526 C12.1724243,61.0740967 11.6474609,61.1306763 11.4472656,60.9789429 C11.2470703,60.8272095 11.237854,60.4837588 11.059082,60.3109741 C10.8803101,60.1381895 10.2489624,59.5401611 10.15802,58.8569946 C10.0973918,58.4015503 10.0973918,58.0741984 10.15802,57.874939 C12.7402547,58.796285 14.9618734,59.5404867 16.822876,60.1075439 C19.6143799,60.9581299 30.029541,63.1827393 34.7197266,63.8006592 C39.4099121,64.4185791 44.7275391,65.2458496 49.704834,65.0864258 C54.6821289,64.927002 65.5717773,63.3583984 69.1712646,62.496582 C72.770752,61.6347656 81.526001,59.1168103 82.7070313,58.641535 C83.4943848,58.3246849 84.2278035,58.0063273 84.9072876,57.6864624 Z" id="路径-719" fill="#B1C6D7"></path>
                <path d="M10.1548207,57.8857687 L16.189209,60.2901553 L12.4648119,59.4268718 C11.4130677,59.175178 10.7493413,59.0045264 10.4736328,58.914917 C10.3499469,58.8747172 10.2401348,58.8209674 10.1441964,58.7536675 L10.15802,58.8569946 C10.0984776,58.4097075 10.0974112,58.0859655 10.1548207,57.8857687 Z" id="路径" fill="#637078"></path>
                <path d="M84.9072876,57.6864624 C85.6358705,57.8266805 86.000162,58.0551961 86.000162,58.3720093 L85.9823488,58.9702309 C85.9509446,59.6840038 85.8738521,60.867081 85.7189057,62.0032149 L85.2553378,62.1564638 C83.7804412,62.6146201 80.6212601,63.4127662 81.1883535,63.2080917 L81.4108887,63.1352539 C83.0361328,62.6298828 84.493042,61.7998047 84.7791748,61.5312287 C85.0653076,61.2626527 85.0057373,60.2623291 84.7791748,59.9020996 C84.5526123,59.5418701 83.3198242,59.5158691 82.0888672,59.8929004 L79.8190072,60.5801037 C77.7478974,61.1972299 74.905116,62.0139057 73.3550705,62.3195409 L73.043457,62.3769531 C71.1982992,62.6888346 73.1116309,61.9552854 74.9839511,61.3529972 L75.8313516,61.088623 C76.674449,60.8342085 77.9672268,60.2909759 79.2723921,59.7192174 L81.8599501,58.9320595 C82.2570823,58.8047105 82.5494649,58.7049435 82.7070313,58.641535 C83.4943848,58.3246849 84.2278035,58.0063273 84.9072876,57.6864624 Z" id="路径" fill="#92B0C3"></path>
                <path d="M85.4537248,63.4859761 L85.2683931,64.2406665 C85.0605201,65.0528151 84.8818631,65.6258319 84.7324219,65.9597168 C85.0028483,66.3406576 85.0028483,66.5683187 84.7324219,66.6427002 C84.4619954,66.7170817 84.1554362,66.8387451 83.8127441,67.0076904 C84.2348633,66.9712321 84.4211019,67.0513509 84.37146,67.2480469 C84.321818,67.4447428 83.9381243,67.7111816 83.2203788,68.0473633 C83.4732806,68.2597656 83.568929,68.4326986 83.5073242,68.5661621 C83.4457194,68.6996257 83.0826416,68.8722738 82.4180908,69.0841064 L81.7185669,69.1696777 C81.6117147,69.3887533 81.4718221,69.4966838 81.2988892,69.4934692 C81.0394897,69.4886475 80.8978882,69.3563843 80.7443848,69.3956299 C80.5908813,69.4348755 80.5136719,69.7150879 80.3190308,69.753418 C80.1243896,69.791748 79.9749146,69.5394897 79.7120361,69.5830078 C79.4491577,69.6265259 79.4624023,69.8496704 79.2836914,69.9088745 C79.1049805,69.9680786 78.7260132,69.6723633 78.4083862,69.753418 C78.0907593,69.8344727 78.0094604,70.1345825 77.7269897,70.1793823 C77.444519,70.2241821 77.2817993,69.8347168 77.0137939,69.9088745 C76.7457886,69.9830322 76.7038574,70.3884888 76.3994751,70.40625 C76.0950928,70.4240112 75.9227295,70.1295166 75.6158447,70.1793823 C75.30896,70.229248 75.2415161,70.5360107 74.9421387,70.5855103 C74.6427612,70.6350098 74.4499512,70.2214966 74.1668091,70.2785645 C73.883667,70.3356323 73.8032227,70.781189 73.3730469,70.8341675 C72.9428711,70.887146 72.7962646,70.43396 72.5275269,70.4908447 C72.2587891,70.5477295 72.0853882,70.902771 71.7436523,70.9445801 C71.4019165,70.9863892 71.0601196,70.8132324 70.7510376,70.8341675 C70.4419556,70.8551025 70.2220459,71.1636963 69.8462524,71.1804199 C69.470459,71.1971436 69.2271118,70.951416 68.9478149,70.9445801 C68.6685181,70.9377441 68.6142578,71.1987915 68.1334839,71.1804199 C67.65271,71.1620483 67.6370277,70.8467407 67.2810078,70.8341675 C67.0672074,70.8266169 66.9803036,71.0146378 66.8654016,71.1735421 C65.9050156,70.6009668 64.7226217,69.4717389 64.2979238,69.0202095 L62.8879395,67.3986816 L62.8879395,67.3986816 C68.7355957,66.4782715 73.3329264,65.5524089 76.6799316,64.6210938 L80.7707979,63.4843466 C82.9862472,62.860991 84.6663509,62.3560893 85.7356636,61.9019639 C85.6590611,62.4578871 85.5674088,63.0056629 85.4537248,63.4859761 Z" id="路径" fill="#BDCED8"></path>
                <path d="M82.415455,68.3771777 L83.2913867,68.1153438 L83.2203788,68.0473633 C83.4732806,68.2597656 83.568929,68.4326986 83.5073242,68.5661621 C83.4457194,68.6996257 83.0826416,68.8722738 82.4180908,69.0841064 L81.7185669,69.1696777 C81.6117147,69.3887533 81.4718221,69.4966838 81.2988892,69.4934692 C81.0394897,69.4886475 80.8978882,69.3563843 80.7443848,69.3956299 C80.5908813,69.4348755 80.5136719,69.7150879 80.3190308,69.753418 C80.1243896,69.791748 79.9749146,69.5394897 79.7120361,69.5830078 C79.4491577,69.6265259 79.4624023,69.8496704 79.2836914,69.9088745 C79.1049805,69.9680786 78.7260132,69.6723633 78.4083862,69.753418 C78.0907593,69.8344727 78.0094604,70.1345825 77.7269897,70.1793823 C77.444519,70.2241821 77.2817993,69.8347168 77.0137939,69.9088745 C76.7457886,69.9830322 76.7038574,70.3884888 76.3994751,70.40625 C76.0950928,70.4240112 75.9227295,70.1295166 75.6158447,70.1793823 C75.30896,70.229248 75.2415161,70.5360107 74.9421387,70.5855103 C74.6427612,70.6350098 74.4499512,70.2214966 74.1668091,70.2785645 C73.883667,70.3356323 73.8032227,70.781189 73.3730469,70.8341675 L73.3058952,70.8310129 L73.1534068,70.5091348 C73.0910596,70.3829979 73.0154571,70.236821 72.9213867,70.0670166 C76.1223416,69.8322799 79.287031,69.2690003 82.415455,68.3771777 L82.415455,68.3771777 Z" id="路径" fill="#8B859E"></path>
                <path d="M84.37146,67.2480469 C84.321818,67.4447428 83.9381243,67.7111816 83.2203788,68.0473633 L83.3239064,68.1392586 C81.7173475,68.6559289 80.0795122,69.068921 78.4104004,69.3782349 C76.7412886,69.6875487 74.9116174,69.9171426 72.9213867,70.0670166 L72.3408203,69.3959961 C75.0916748,69.1638184 77.1573283,68.8858846 78.5377808,68.5621948 C80.6084595,68.0766602 81.9518794,67.6564395 83.9354858,66.9813232 C84.2128906,66.991272 84.4044686,67.1172568 84.37146,67.2480469 Z" id="路径" fill="#A0ABB9"></path>
                <path d="M58.2762762,68.0678711 C58.0532227,68.1071777 46.4855223,69.2243652 44.9797363,69.2753906 C45.393034,69.855306 45.8364503,70.4338615 46.3099852,71.0110572 L55.9765625,71.0110572 L56.9372559,70.3703613 C57.9786384,68.8091634 58.4249786,68.0416667 58.2762762,68.0678711 Z" id="路径-723" fill="#BECED6"></path>
                <path d="M11.1709935,60.4743937 C12.2339123,60.8726371 13.3514238,61.358113 14.5235277,61.9308215 L15.4128418,62.376709 C17.9492188,63.6800537 20.8530273,64.7565918 21.4055176,64.8389803 C21.9580078,64.9213689 23.2003174,64.7119141 23.9796143,65.0456543 C24.7589111,65.3793945 25.1719971,66.4659424 25.4487305,66.6455078 L25.6300791,66.7418347 C26.1710042,67.001065 27.6409098,67.5720296 29.3955078,68.1298828 C31.4200439,68.7735596 37.6817627,69.8780518 38.1826172,69.722417 C38.6834717,69.5667823 39.9432373,68.489624 41.2969971,67.7609863 C42.6507568,67.0323486 44.173584,67.8369141 44.6297607,68.1298828 C45.0859375,68.4228516 46.3148193,69.8690186 46.7437744,69.9798584 C47.1727295,70.0906982 55.4819336,70.260376 56.0212402,70.145752 C56.5605469,70.0311279 57.1931152,69.4066162 57.6392822,68.4337769 C58.0854492,67.4609375 59.3588867,66.434082 60.352417,66.133667 C61.3459473,65.833252 62.9871826,66.4490967 63.4182129,66.9403076 C63.8492432,67.4315186 64.8114014,69.2819824 66.1096191,69.4906006 C67.4078369,69.6992188 71.8857422,69.3950195 72.3408203,69.3959961 C72.598415,69.3965489 72.9719089,69.8665652 73.461302,70.8060451 L73.3730469,70.8341675 C72.9428711,70.887146 72.7962646,70.43396 72.5275269,70.4908447 C72.2587891,70.5477295 72.0853882,70.902771 71.7436523,70.9445801 C71.4019165,70.9863892 71.0601196,70.8132324 70.7510376,70.8341675 C70.4419556,70.8551025 70.2220459,71.1636963 69.8462524,71.1804199 C69.470459,71.1971436 69.2271118,70.951416 68.9478149,70.9445801 C68.6685181,70.9377441 68.6142578,71.1987915 68.1334839,71.1804199 C67.65271,71.1620483 67.6370277,70.8467407 67.2810078,70.8341675 C66.9249878,70.8215942 66.9208374,71.3513184 66.5533447,71.3858643 C66.1858521,71.4204102 65.774292,70.6055298 65.5907593,70.5855103 L64.9363327,70.57061 C64.650528,70.5557098 64.3557739,70.5158997 64.2282104,70.40625 C63.9730835,70.1869507 62.1134033,67.9364624 61.5968628,67.5574341 L61.3296557,67.3778169 C60.8685421,67.1021796 60.3242188,66.9813131 59.6311646,67.5574341 C58.7994995,68.2487793 58.4382324,68.7717285 58.3895264,69.0841064 C58.3408203,69.3964844 58.4611816,69.5830078 58.2907715,69.753418 C58.1203613,69.9238281 57.7972412,69.9424438 57.6384888,70.1793823 C57.4797363,70.4163208 57.6357422,71.1118774 57.2422485,71.1804199 C56.8487549,71.2489624 56.6514893,70.9611206 56.4736938,71.0442505 C56.2958984,71.1273804 56.1989136,71.8198853 55.923584,71.8901367 C55.6482544,71.9603882 55.2796021,71.4810791 54.9631958,71.50354 C54.6467896,71.526001 54.387085,71.9760132 54.0125732,71.9911499 C53.6380615,72.0062866 53.6264038,71.5232544 53.2769775,71.50354 C52.9275513,71.4838257 52.9822998,71.9911499 52.6116943,71.9911499 C52.2410889,71.9911499 52.015686,71.50354 51.7183228,71.50354 C51.4209595,71.50354 51.3929443,71.9911499 51.0388184,71.9911499 C50.6846924,71.9911499 50.467041,71.50354 50.1685181,71.50354 C49.8699951,71.50354 49.9424438,71.9911499 49.5003662,71.9911499 C49.0582886,71.9911499 49.0161743,71.50354 48.6373291,71.50354 C48.2584839,71.50354 48.3779907,71.9911499 47.9033203,71.9911499 C47.4286499,71.9911499 47.3473511,71.50354 47.0627747,71.50354 C46.7781982,71.50354 46.7977905,71.8901367 46.437439,71.8901367 C46.0770874,71.8901367 44.635437,70.4579468 44.0203247,69.6526489 C43.4052124,68.8473511 42.2999878,68.6151733 41.7133789,68.7263794 C41.12677,68.8375854 40.609314,69.3511353 40.4962769,69.4934692 C40.3832397,69.6358032 40.4468994,69.7807617 40.3085327,69.9088745 C40.170166,70.0369873 39.7719654,70.005127 39.6164209,70.1793823 C39.4608765,70.3536377 39.1873779,71.0495605 38.9997559,71.1529541 C38.8121338,71.2563477 38.4653931,70.9066162 38.2811279,70.9445801 C38.0968628,70.9825439 37.81427,71.4431763 37.3042603,71.3858643 C36.7942505,71.3285522 36.852356,70.7716064 36.4657593,70.6691895 C36.0791626,70.5667725 35.8979492,71.2412109 35.4404907,71.1547852 C34.9830322,71.0683594 35.0944214,70.3200684 34.7197266,70.2785645 C34.3450317,70.2370605 34.2518311,70.720459 33.9309692,70.6691895 C33.6101074,70.6179199 33.4766235,70.2892456 33.1706543,70.1793823 C32.8646851,70.069519 32.5160377,70.3753052 32.1700672,70.2785645 C31.8240967,70.1818237 31.8684082,69.7720337 31.5977173,69.6526489 C31.3270264,69.5332642 30.9899902,70.0279541 30.6178589,69.9088745 C30.2457275,69.7897949 30.3030396,69.4613647 30.0164795,69.2814941 C29.7299194,69.1016235 29.5463867,69.5041504 29.1109009,69.3956299 C28.675415,69.2871094 28.7355957,69.0123901 28.4717407,68.8450317 C28.2078857,68.6776733 27.9501343,69.0240479 27.4517822,68.8450317 C26.9534302,68.6660156 27.1657104,68.3099976 26.8917847,68.1688843 C26.6178589,68.027771 26.3094482,68.5655518 25.7590332,68.2456055 C25.2086182,67.9256592 25.3660889,67.6396484 25.2788696,67.5574341 C25.1916504,67.4752197 24.5460815,67.5183105 24.3445435,67.1601562 C24.1430054,66.802002 23.9752808,65.9567871 23.5426636,65.8401489 C23.1641235,65.7380905 22.6791325,65.6942577 22.4153731,65.8703249 L22.3168335,65.9597168 C22.0952759,66.2365112 21.3598022,66.4238281 21.1168213,66.3009644 C20.8738403,66.1781006 20.9743652,65.6322708 20.8141479,65.5823975 C20.6539307,65.5325242 20.1070557,65.9232254 19.7683105,65.7494507 C19.4295654,65.575676 19.5600586,65.1960449 19.3743286,65.0360718 C19.1885986,64.8760986 18.6918335,65.3140869 18.2624512,65.0864258 C17.8330688,64.8587646 18.1433105,64.5404053 17.9165649,64.3565674 C17.6898193,64.1727295 17.1328125,64.624939 16.822876,64.3565674 C16.5129395,64.0881958 16.6021118,63.598173 16.4290771,63.4859761 C16.2560425,63.3737793 15.765686,63.7116984 15.4398193,63.4859761 C15.1139526,63.2602539 15.09198,62.8457642 14.9258423,62.7606201 C14.7597046,62.6754761 14.2677002,62.9310303 13.9783325,62.7606201 C13.6889648,62.59021 13.7935791,62.1903687 13.6094971,62.0558472 C13.425415,61.9213257 12.9936523,62.1339722 12.7315674,61.9702148 C12.4694824,61.8064575 12.4487915,61.2788086 12.3106079,61.1764526 C12.1724243,61.0740967 11.6474609,61.1306763 11.4472656,60.9789429 C11.3805339,60.9283651 11.335022,60.8564853 11.2973768,60.7767253 L11.1709935,60.4743937 Z" id="路径" fill="#6094B5"></path>
                <path d="M62.3485107,67.5274658 C62.9737644,68.0204437 63.4512198,68.8162343 63.7808769,69.9148374 L62.7023982,68.6930369 C62.2436565,68.18009 61.8080265,67.7123823 61.5968628,67.5574341 L61.3296557,67.3778169 C61.1041599,67.2430236 60.8587649,67.1452428 60.5858082,67.1478857 C61.1740623,66.9381253 61.7618096,67.0648844 62.3485107,67.5274658 Z" id="路径" fill="#D1E7F2"></path>
                <path d="M86.0004639,57.0759888 C85.9931641,56.7121582 84.2271118,55.5203247 83.7069092,55.225769 C83.1867065,54.9312134 82.867981,55.0634766 82.567688,55.0973511 C82.267395,55.1312256 81.3182373,55.3301392 80.9492188,55.3060303 C80.5802002,55.2819214 79.4125366,54.9232178 78.8527832,54.9204102 C78.2930298,54.9176025 76.8737793,54.6440988 73.3945313,55.7301305 C69.9152832,56.8161621 63.2712641,58.626709 59.2922483,59.6496582 C55.3132324,60.6726074 50.3522949,61.3847656 49.3171387,61.4162598 C48.2819824,61.4477539 45.6877747,61.480957 43.0157013,61.6491699 C40.3436279,61.8173828 28.1159668,60.7680664 24.3615723,60.0083008 C20.6071777,59.2485352 14.3140869,57.7193604 13.3428955,57.4842529 C12.3717041,57.2491455 11.2397461,56.7466125 11.0339966,56.5786438 C10.8282471,56.410675 10.7577209,56.1937561 10.4474487,56.3598022 C10.1371765,56.5258484 9.99889187,56.8110657 9.99889187,57.2878723 C9.99889187,57.764679 9.98699951,58.1138306 10.1862488,58.214447 C10.385498,58.3150635 16.1850586,60.7188721 24.0059814,62.3250732 C31.8269043,63.9312744 41.8967743,65.4512939 44.0164795,65.6176758 C46.1361847,65.7840576 52.4849854,65.7467041 59.9838867,64.7275391 C67.4827881,63.708374 75.6448975,61.3382646 79.1240234,60.352417 C82.6031494,59.3665694 85.3729248,57.9589844 85.5845337,57.8465576 C85.7961426,57.7341309 86.0068359,57.4398193 86.0004639,57.0759888 Z" id="路径-714" fill="#DBD9DE"></path>
                <path d="M73.7765775,55.614288 L73.8563183,55.590309 C77.0010262,54.6684035 78.3184731,54.9177302 78.8527832,54.9204102 C79.4125366,54.9232178 80.5802002,55.2819214 80.9492188,55.3060303 C81.1073696,55.3163627 81.3720765,55.2857317 81.6465959,55.2446846 L82.8338653,55.0564703 C83.066557,55.02274 83.3353359,55.0153721 83.7069092,55.225769 L84.0245247,55.4191475 C84.7288852,55.867445 85.9942871,56.7681321 86.0006049,57.0759888 C86.0068359,57.4398193 85.7961426,57.7341309 85.5845337,57.8465576 L84.9294765,58.1684818 C83.8795512,58.6646761 81.6955513,59.623747 79.1240234,60.352417 L75.9027723,61.2583724 C73.318151,61.9705758 69.9563939,62.8495652 66.4001299,63.597257 C66.6103882,63.3794055 66.9513391,63.1196483 67.4405181,62.8142408 L67.7519531,62.6254883 C71.5381634,60.3929608 73.5463715,58.055894 73.7765775,55.614288 Z" id="路径" fill="#E0DEE4"></path>
                <path d="M73.3945313,55.7301305 C76.8737793,54.6440988 78.2930298,54.9176025 78.8527832,54.9204102 C79.4125366,54.9232178 80.5802002,55.2819214 80.9492188,55.3060303 C81.1073696,55.3163627 81.3720765,55.2857317 81.6465959,55.2446846 L82.8338653,55.0564703 C83.066557,55.02274 83.3353359,55.0153721 83.7069092,55.225769 L84.0245247,55.4191475 C84.7288852,55.867445 85.9942871,56.7681321 86.0004639,57.0759888 C86.0068359,57.4398193 85.7961426,57.7341309 85.5845337,57.8465576 L85.1142023,58.0803955 C84.2753592,58.4841223 82.4197313,59.3239254 80.1436252,60.0460469 L79.686708,60.1181162 C78.8319045,60.2361652 77.0050024,60.4896657 77.5273608,60.2184007 C80.0622457,58.9020141 81.558109,57.1926665 80.8659668,57.1849365 L80.0597795,57.2959041 C79.093735,57.3762521 75.7341723,57.8247957 69.9810915,58.641535 C69.8238699,58.0287728 69.7961543,57.4038163 69.8979447,56.7666657 L71.7836956,56.2185226 L73.3945313,55.7301305 Z" id="路径" fill="#E5E5E5"></path>
                <path d="M10.1236459,56.6718016 C12.4599239,58.8331024 19.2431467,60.5807344 27.3148856,61.9702148 C36.9633215,63.6311101 44.3709555,63.6242278 46.8376736,63.4706267 L47.0317383,63.4575195 C49.2145034,63.2974817 60.9592521,60.2173336 64.4775461,59.5939709 L70.355739,58.7161246 C70.7162446,58.6602654 71.0773913,58.6034242 71.4341701,58.5461037 L74.9073571,57.965888 C77.7276227,57.5117333 78.7879435,57.4329631 79.4281006,57.3303223 C82.7944622,56.7905703 75.703342,60.9939236 70.0019531,62.562283 C66.8651575,63.3112413 63.3320761,64.2724914 59.9838867,64.7275391 C52.9849121,65.6787598 46.987803,65.7747135 44.4958962,65.6480051 L44.0164795,65.6176758 C41.8967743,65.4512939 31.8269043,63.9312744 24.0059814,62.3250732 L22.7560072,62.0581065 C15.5744423,60.4657304 10.3747278,58.3096247 10.1862488,58.214447 C9.98699951,58.1138306 9.99825603,57.764679 9.99825603,57.2878723 C9.99825603,57.0835266 10.0242911,56.9143708 10.0777425,56.7747043 L10.1236459,56.6718016 Z" id="路径" fill="#CFCED2"></path>
                <path d="M70.0019531,62.562283 L66.336523,63.4565323 C64.2413469,63.9609941 62.0765051,64.4431343 59.9838867,64.7275391 C59.3331556,64.815979 58.691085,64.8970257 58.0596869,64.9711875 L59.0901942,64.6907729 C63.0020073,63.6076681 68.2330178,61.9607307 69.9338379,61.0786133 C71.851507,60.0840288 72.3476759,58.8457429 72.0408151,58.442369 L74.9073571,57.965888 L77.2947285,57.6077471 C78.4237457,57.4531573 79.0138813,57.3967369 79.4281006,57.3303223 C82.7944622,56.7905703 75.703342,60.9939236 70.0019531,62.562283 Z" id="路径" fill="#D4D3D7"></path>
                <path d="M70.0019531,62.562283 L66.1302448,63.5060675 C65.6873829,63.612124 65.2416285,63.7169316 64.7943131,63.818844 L66.7257713,63.169345 C69.4261767,62.246512 72.5224158,61.1219218 74.758355,60.1025391 L75.3840536,59.8084812 C78.0092789,58.5324483 78.0638605,57.8939845 75.5477983,57.8930897 L75.5647235,57.8602033 L75.5647235,57.8602033 L76.8066869,57.6752772 C78.2618415,57.4681513 78.9581771,57.4056683 79.4281006,57.3303223 C82.7944622,56.7905703 75.703342,60.9939236 70.0019531,62.562283 Z" id="路径" fill="#D9D6DD"></path>
                <path d="M85.9571617,57.3698839 C85.8856116,57.5940145 85.735305,57.7664536 85.5845337,57.8465576 L84.9294765,58.1684818 C83.8795512,58.6646761 81.6955513,59.623747 79.1240234,60.352417 L75.2878563,61.426897 C71.3871691,62.4899517 65.9605975,63.8525176 60.7617817,64.6174013 L59.9838867,64.7275391 C52.9849121,65.6787598 46.987803,65.7747135 44.4958962,65.6480051 L44.0164795,65.6176758 C41.8967743,65.4512939 31.8269043,63.9312744 24.0059814,62.3250732 L22.7560072,62.0581065 C15.5744423,60.4657304 10.3747278,58.3096247 10.1862488,58.214447 C10.0732292,58.1573747 10.0282352,58.020337 10.0104584,57.8253951 L10.3428756,58.0146422 C10.8551598,58.2896824 11.5007353,58.5686151 12.2796021,58.8514404 C13.8441082,59.4195504 20.5316632,61.2643459 22.6896119,61.7484532 L24.4989769,62.1105856 C27.7374233,62.7384093 34.4613352,64.0013779 37.4883149,64.4782053 L39.1682546,64.7188897 C42.9796023,65.2257561 52.1414395,66.1823937 62.6419028,64.0842833 L63.4318848,63.9211426 C74.3269246,61.5976969 79.4242325,60.1516605 84.6053681,57.9557387 L85.9571617,57.3698839 Z" id="路径" fill="#D7DFE3"></path>
                <path d="M85.757604,56.7193888 C85.9059204,56.8675706 85.9985698,56.9932104 86.0003164,57.0759888 C86.0022615,57.1904438 85.9828498,57.298019 85.9486653,57.3952163 L85.8060067,57.4853614 C85.5332807,57.6430908 85.0775284,57.8422243 84.3154819,58.1422599 L80.0359176,59.7610981 C74.8992463,61.4516791 69.1959008,62.7251903 70.0705346,62.5104686 C76.8647651,60.8699412 83.9908447,57.937561 84.9594116,57.4802246 C85.524409,57.213445 85.7931396,56.9689022 85.7656035,56.7465963 L85.757604,56.7193888 Z" id="路径" fill="#C0C0C0"></path>
                <path d="M73.3945313,55.7301305 C76.8737793,54.6440988 78.2930298,54.9176025 78.8527832,54.9204102 C79.4125366,54.9232178 80.5802002,55.2819214 80.9492188,55.3060303 C81.1073696,55.3163627 81.3720765,55.2857317 81.6465959,55.2446846 L82.8338653,55.0564703 C83.066557,55.02274 83.3353359,55.0153721 83.7069092,55.225769 L84.102993,55.4694695 C84.6694187,55.8353485 85.5240274,56.4425048 85.8586945,56.8269494 C85.8330643,57.0571591 85.4930321,57.2376668 84.7316012,57.5463409 L82.0095942,58.6293921 C79.3659668,59.5900879 74.860786,61.0108484 75.9766235,60.5860596 L77.1940308,60.1975098 C80.0436401,59.171814 85.21875,57.3439331 85.2543335,57.0021973 C85.289917,56.6604614 83.7514648,55.460083 83.2884735,55.3956909 C82.8254822,55.3312988 81.4013062,55.5140381 80.9103394,55.6192627 C80.4193726,55.7244873 80.1505127,55.5532227 79.80896,55.3956909 C79.4674072,55.2381592 78.4827271,55.2250366 76.9469851,55.2662354 C75.4112432,55.3074341 72.901062,56.074479 72.4806519,56.2271118 C72.0602417,56.3797447 71.4473877,56.7327271 71.4197998,56.8994751 C71.3922119,57.0662231 71.918396,57.7791138 72.1147461,57.8930897 C72.2849162,57.9918688 73.8246002,57.8620687 75.0975671,57.7189177 L78.7629223,57.3054907 C79.8349638,57.1987595 80.5901539,57.1465692 79.9645421,57.2855426 L79.3394658,57.4088033 C77.1861998,57.8111342 71.9563739,58.6680493 71.8188477,58.9301758 C71.6864149,59.1825939 71.1454174,59.5380144 70.4855498,59.6704794 L70.2330933,59.7090661 C69.4624023,59.7896532 64.1194458,61.2852783 60.0322876,62.2489624 L57.6903689,62.7801795 C53.8204453,63.6316206 48.9911435,64.591551 47.672798,64.8141911 L47.5211182,64.8389803 C46.2544556,65.0368474 45.9445801,64.7282104 45.6026611,64.0558472 C45.2607422,63.3834839 46.3317871,62.2518921 46.3007202,62.1900635 C46.2696533,62.1282349 45.105835,62.0643921 43.5096436,62.1357422 C41.9134521,62.2070923 40.0845614,62.1027312 38.1813965,61.9902344 C34.0847978,61.7480828 26.4184527,60.9846061 23.1199951,60.237793 C19.8215376,59.4909799 12.5808716,57.7763672 11.6312256,57.3931274 C10.6815796,57.0098877 10.2591858,56.8157959 10.1955261,56.6957092 C10.1318665,56.5756226 10.1894601,56.546335 10.2472509,56.5049747 C10.2896225,56.4746498 10.4459215,56.3003815 10.6080322,56.29776 C10.770143,56.2951385 10.8100586,56.3506165 10.9067993,56.4521484 L11.0339966,56.5786438 C11.2191711,56.7298157 12.1545746,57.1519846 13.0478021,57.4062999 L17.3505077,58.4420594 C19.4597655,58.9380273 21.9871075,59.5180014 23.9499594,59.9240472 L24.3615723,60.0083008 C27.998642,60.7443237 39.5876738,61.7520833 42.7377497,61.6614189 L44.597752,61.563377 C46.6630957,61.4677441 48.4890137,61.4414551 49.3171387,61.4162598 L49.8509082,61.3761563 C51.4525133,61.2169534 55.4086047,60.6087917 58.8103672,59.7708966 L60.7977715,59.2583765 C64.2583612,58.3504126 68.8763071,57.0859101 72.044645,56.1410572 L73.3945313,55.7301305 Z" id="路径" fill="#F0F0F0"></path>
                <path d="M71.5689697,58.6134033 C71.6394653,58.2064819 71.7191162,57.7615051 70.857605,57.2123108 C69.9960937,56.6631165 66.858551,54.9596669 66.0898132,54.8794861 C65.3210754,54.7993052 64.279541,54.7433472 62.9400024,55.4694214 C61.6004639,56.1954956 50.3358154,61.1723022 49.8859253,61.338501 C49.4360352,61.5046997 48.6312866,61.6085815 48.2384644,61.7987061 C47.8456421,61.9888306 46.1204834,62.9307251 46.0065308,63.109314 C45.8925781,63.2879028 45.8607178,63.8764038 46.0065308,64.1729126 C46.1523438,64.4694214 46.348877,64.5402832 46.5151367,64.5778809 C46.6813965,64.6154785 47.9610596,64.4693604 48.74646,64.2928467 C49.5318604,64.116333 59.2061768,62.2226562 64.3607178,60.9331055 C69.5152588,59.6435547 70.2634888,59.4467773 70.5643311,59.3425903 C70.8651733,59.2384033 71.4984741,59.0203247 71.5689697,58.6134033 Z" id="路径-715" fill="#E3BA5B"></path>
                <path d="M62.9400024,55.4694214 C64.279541,54.7433472 65.3210754,54.7993052 66.0898132,54.8794861 C66.858551,54.9596669 69.9960938,56.6631165 70.857605,57.2123108 C71.4201979,57.5709513 71.5814336,57.8851485 71.6059601,58.1733272 L70.2390137,57.1564941 C67.7042871,55.6773433 66.3701172,55.1347656 64.9902344,55.2600098 C63.6103516,55.3852539 51.6477051,61.081543 49.8322754,61.7058105 C48.9349441,62.0143738 47.5415699,62.5335942 46.3186568,62.8762648 C46.8536011,62.5317886 47.9373814,61.9444291 48.2384644,61.7987061 C48.6312866,61.6085815 49.4360352,61.5046997 49.8859253,61.338501 L50.9662764,60.8745586 C53.7035434,59.679417 60.7608658,56.5458881 62.6170115,55.6338403 L62.9400024,55.4694214 Z" id="路径" fill="#FFEBBC"></path>
                <path d="M69.9542643,56.6334093 L70.1906349,56.8154011 L70.726584,57.1306061 C70.7746617,57.1600482 70.8184804,57.1873698 70.857605,57.2123108 C71.7191162,57.7615051 71.6394653,58.2064819 71.5689697,58.6134033 C71.516098,58.9185944 71.1466484,59.1175613 70.8383102,59.2419243 L70.2984678,59.4242148 C69.8517598,59.5510762 68.7978573,59.8213247 65.7788497,60.5780233 L63.4873458,61.1471507 C61.5183773,61.6208001 59.0809268,62.153538 56.7565767,62.6446817 L48.5212133,64.340118 L48.0261819,64.4273743 C47.3458766,64.5353964 46.6360529,64.6052246 46.5151367,64.5778809 C46.348877,64.5402832 46.1523438,64.4694214 46.0065308,64.1729126 C45.8607178,63.8764038 45.8925781,63.2879028 46.0065308,63.109314 C46.1204834,62.9307251 47.8456421,61.9888306 48.2384644,61.7987061 C48.5527222,61.6466064 49.1306128,61.5497021 49.5795425,61.4319307 L49.654755,61.4074093 L49.6711697,61.4280599 L49.0636327,61.6146741 C48.7043522,61.7316727 48.43656,61.8338493 48.2602561,61.921204 L47.0073349,62.6054785 C46.6504537,62.8059442 46.3289292,63.0039854 46.2302517,63.1271159 C46.0082274,63.4041595 46.0391168,64.0938043 46.4191623,64.3026801 C46.7720618,64.4966363 49.1730736,64.0852652 50.0108621,63.8790747 L50.1748047,63.8355035 C50.7433449,63.6678524 52.5725753,63.3835022 53.706437,63.1295834 L67.6010242,59.890198 C68.0745698,59.77547 68.4380113,59.6849129 68.6544596,59.6267555 L69.654332,59.3451827 C70.7027225,59.0320441 71.1410939,58.8258688 71.2641602,58.6526837 C71.4207899,58.4322663 71.3674045,57.9820964 71.2641602,57.7746853 C71.1953306,57.6364113 70.7586986,57.255986 69.9542643,56.6334093 Z" id="路径" fill="#9D771D"></path>
                <path d="M62.2687073,57.0495605 C62.1971741,57.2568054 62.1672668,57.8607178 62.5471497,57.9807434 C62.9270325,58.100769 66.7927246,56.7190247 67.0186462,56.6611633 C67.2445679,56.603302 67.5370789,56.8496704 66.8680725,57.1528625 C66.1990662,57.4560547 64.1440735,58.5883484 63.4221191,58.8944092 C62.7001648,59.20047 61.8824463,59.4242859 61.5429993,58.8740234 C61.2035522,58.323761 61.7937012,57.3071289 61.9594421,57.0906982 C62.1251831,56.8742676 62.3402405,56.8423157 62.2687073,57.0495605 Z" id="路径-716" fill="#DBA83E"></path>
                <path d="M67.2780285,56.7672589 L67.2798426,56.810423 L67.2798426,56.810423 L66.9709047,57.102327 L66.9709047,57.102327 L66.8680725,57.1528625 C66.1990662,57.4560547 64.1440735,58.5883484 63.4221191,58.8944092 L63.0222788,59.0490366 C62.4186232,59.2562682 61.8207286,59.3242382 61.5429993,58.8740234 C61.3771331,58.6051452 61.4332224,58.224914 61.5532961,57.8811 C61.5590897,58.1938307 61.5808266,58.3962842 61.7236328,58.6526837 C61.9146593,58.9956597 62.4895833,59.0315213 63.4270833,58.641535 L63.7645386,58.4945056 C64.0221714,58.3784634 64.3451291,58.2263764 64.7334119,58.0382444 L67.2780285,56.7672589 Z" id="路径" fill="#FDE0A4"></path>
                <path d="M67.2789574,56.7716179 L66.3146777,57.0861597 C65.9842936,57.1971639 65.6759896,57.3042505 65.3897656,57.4074194 L64.9769897,57.5592346 C63.9864502,57.931427 62.9632568,58.2511292 62.5542908,58.2150269 C62.1964455,58.1834373 62.0550303,57.9443665 62.081858,57.5610078 L62.1035156,57.3880615 C62.1271101,57.2555978 62.117185,57.1530214 62.0093791,57.2731279 L61.9470215,57.3526306 C61.7810974,57.5856018 61.5789185,57.8879395 61.5341492,58.4123535 C61.5173378,58.6092763 61.5473014,58.7988988 61.62404,58.9812208 L61.5429993,58.8740234 L61.5429993,58.8740234 C61.2035522,58.323761 61.7937012,57.3071289 61.9594421,57.0906982 C62.1015058,56.9051862 62.279802,56.8552097 62.2827973,56.9752265 L62.2687073,57.0495605 C62.1971741,57.2568054 62.1672668,57.8607178 62.5471497,57.9807434 C62.9270325,58.100769 66.7927246,56.7190247 67.0186462,56.6611633 C67.1316071,56.6322327 67.2612152,56.6793594 67.2789574,56.7716179 Z" id="路径" fill="#B18928"></path>
                <path d="M78.0929565,42.3964233 C77.8679199,42.4142456 77.3017578,42.5131226 77.0512695,43.0648804 C76.8007812,43.6166382 76.8951416,44.4868164 76.7249146,45.3267822 C76.5546875,46.166748 75.8182983,47.7205811 75.6360474,48.0441895 C75.4537964,48.3677979 75.5560303,49.0055542 75.9223633,48.3726807 C76.2886963,47.7398071 76.6727295,47.152832 76.9506836,46.1650391 C77.2286377,45.1772461 77.2085968,43.9383545 77.2696426,43.538269 C77.3306885,43.1381836 77.6914063,42.7382812 78.1063232,42.5872192 C78.5212402,42.4361572 78.3179932,42.3786011 78.0929565,42.3964233 Z" id="路径-718" fill="#E7C335"></path>
            </g>
        </g>
    </g>
</svg>