<svg xmlns="http://www.w3.org/2000/svg" viewBox="0 0 96 96">
  <defs/>
  <defs>
    <path id="a" d="M0 0h96v96H0z"/>
  </defs>
  <g fill="none" fill-rule="evenodd">
    <path fill="#4E4E4E" d="M27 54v-1l2-1 2-1 1-1 2-1 3-1 2-1 7-3 3-2 3-3 3-2h2l2 2-3 3 1 2 5 3h5l5-4-1-2v-2l2-1h2l2 2 1 2v1l1 4 2 3 1 4v4c-11 4-20 6-26 7-9 1-24-4-26-6l-3-5z"/>
    <path fill="#090909" d="M78 36v6l1 3v2l2 3 1 4v4c-11 4-20 6-26 7-9 1-24-4-26-6v-1l-3-4v-1l2-1h1l7-2 12-5 9-6h1l-3 3 1 2 1 1 4 2h5l5-4-1-2v-2l2-1h2v-2l1-3c1 0 2 1 2 3zm-2-2l-1 2 1 3 1 2v-3l1-3-2-1z"/>
    <path fill="#262626" d="M78 36v6l1 3v2l2 3 1 4v4h-1v-2-4l-1-1-3-8c-1-1-2-3-4-2l-1 1-1-1v-2l2-1h2v-2l1-3c1 0 2 1 2 3zm-2-2l-1 2 1 3 1 2v-3l1-3-2-1z"/>
    <path fill="#1E1D1D" d="M51 41h-1v1l1 2h-1l-1 1-1-2v-1h-2v3l-2 2-1-2c1 0 1 0 0 0l-1-1v3l-2 1-1-1-1-1-1 1v2l-2 1h-2v-1l-1 1-1 1-1 1h-1l-2 2 2-1 2-1 2-1h2l3-2v-1l1 2 3-1 1-2a353 353 0 001 2l3-1v-3-1l1 3h1c1 0 3-1 3-3l-1-3z"/>
    <path fill="#717171" d="M38 46a1 1 0 011 1h-1l-1 1-3 2h-1-1-1 1l1-1v1h2l2-1v-2l1-1zm4-2l1 1h1l-1-1-1 1v2l-2 1h-2v-1h1l1 1 2-1v-1-2zm4-2h2v1l-1-1v4l-3 1-1-1v-1l1 1v1l2-2v-3zm4-1h1v3l-2 1h-1l-1-2h1l1 2 1-1h1v-1l-1-2z"/>
    <path fill="#8A8888" d="M71 54l3-5 3-2 1 2v4l-4 1h-3z"/>
    <path fill="#9A9A9A" d="M77 47h1v1l-3 2-2 2c0 1-1 2-1 0l2-3 3-2z"/>
    <path fill="#6A6A6A" d="M78 49v4h-1l-4 1h-1-1l1-3v2h4l2-3v-3 2z"/>
    <path fill="#BFBFBF" d="M77 47l1 1-1-1-3 3c-2 1-2 3-2 3-1 1 0 1 2 1l4-2v1l-4 1h-3l3-5 3-2z"/>
    <path fill="#B4860E" d="M76 50h-2l1 2h2l1-1-1-1h-1z"/>
    <path fill="#A7A79D" d="M78 51v1h-1-2l3-1z"/>
    <path stroke="#131110" stroke-width=".5" d="M76 50h-1v2s0 0 0 0h2s0 0 0 0v-1-1h-1z"/>
    <path fill="#C8C8C8" d="M57 37l2 2-3 3 1 2 5 3h5l5-4-1-2v-2l2-1h1l-1 1v6l-5 3c-2 1-4 0-7-1l-6-4v-2l2-2v-2h-1l-1 1-1 1s-1 0 0 0v1h-2-1 1v-1l3-2h2z"/>
    <path fill="#999" d="M62 47h5l2-1v1l-1 1c-2 1-4 0-7-1l-4-1 1-1h1l3 2z"/>
    <path fill="#E2E2E2" d="M57 37l2 2-3 3 1 2h1l-1 2-2-3v-2l2-2v-2h-1l-1 1-1 1s-1 0 0 0v1h-2-1 1v-1l3-2h2z"/>
    <path fill="#777" d="M71 40l1 1 1 2-4 3c-2 2-4 1-6 1l-3-1h1l1 1h5l5-4-1-2v-1zm-12-1l-3 3 1 2-1-2 2-3v-1l1 1z"/>
    <path fill="#EAEAEA" d="M60 43c3-1 9-2 11 0 2 3 0 5-1 7-1 1-3 4-2 6s5 1 6 1a58 58 0 008-4v4l-11 5-24 4c2-2 2-4 1-6-1-4-11-4-12-4l-4-3h-2l-1 1-1-1 1-1h2l8-2 11-4 10-3zm3 3l-5 2 4 3c2 1 3 0 4-1l1-3c0-1-1-2-4-1z"/>
    <path fill="#D8D8D8" d="M73 60l-13-2c-1 0-3 2-4 7l17-5z"/>
    <path fill="#C5C5C5" d="M60 58l9 1 3 1-7 2-5-1h-1l-1-1 2-2z"/>
    <path fill="#CECECE" d="M34 53l3 1 14-5 3-1v-1h2c1 2 0 3-4 5l-17 4c-2 0-4-2-4-3h3z"/>
    <path fill="#505050" d="M52 49h-1l-1-1h-1l-2 1v1h-3l-2 2-1-1h-2l-2 2-1-1-2 1h-1v1l-2-1 6-2 8-2 6-2 1 2z"/>
    <path fill="#B0B0B0" d="M66 43c2 0 4 0 5 2 0 2-2 4-3 5l-1 3 1 2v1c1 2 5 1 6 1a58 58 0 008-4v4l-6 3h-3c-4 1-9 0-13-1h-6c-1-1 1-4-4-4H37v-2h5v-1l3-1v1h2v-1l2-1 2 1v-2l3-1v-1l-3 1-1-1h2l5-3h1l8-1zm-3 3l-5 2 4 3c2 1 3 0 3-1l1-1 1-2c0-1-1-2-4-1z"/>
    <path fill="#787878" d="M58 49v-1l4 3c2 1 3 0 3-1h1l-2 4-4 5-3 5c-2 0-2-4-2-4l-1-1c-1-2 0-4-4-4H37v-1l3-1h2v-1h5v-1l3-1 1 1v-1l1-1h6z"/>
    <path fill="#9F9F9F" d="M81 54h1v3a42 42 0 01-7 3l-4-3h3l7-3z"/>
    <path fill="#858585" d="M82 54v3l-3 2-3-3 5-2h1z"/>
    <path fill="#262626" d="M62 46l5-1 1 2-2 3v1l-1 1c-1 1-5 0-6-1l-2-3 5-2zm1 0l-5 2 4 3c2 1 3 0 3-1l1-1 1-1v-1c0-1-1-2-4-1z"/>
    <path fill="#CECECE" d="M60 43l1-1c3 0 8-1 10 1 2 3 0 5-1 6v1c-2 2-3 4-2 6s5 1 6 0l7-2 1-1v2l-1 1h-1l-7 2c-2 1-5 1-7-2-1-2 1-5 3-7v-1c2-2 2-4-1-5l-12 2-1 1-11 4-6 2h-1l-5 1h-2l-1 1-1-1 1-1h2l7-2h1l10-3 1-1 10-3z"/>
    <path fill="#222" d="M60 43l1-1c3 0 8-1 10 1 2 3 0 5-1 6v1c-2 2-3 4-2 6s5 1 6 1a58 58 0 008-4v2l-1 1h-1l-7 2c-2 1-5 0-6-2-2-2 0-5 2-7v-1c2-2 2-4-1-5l-12 2h-1l-11 5-6 2h-1l-5 1h-2l-1 1-1-1 1-1h2l7-2h1l10-3 1-1 10-3z"/>
    <path fill="#898989" d="M71 43v1c-1-2-2-2-3-2l-8 1-11 4c-3 2-8 3-10 3l-6 2-3 1h-2l1-1h2l7-2h1l10-3 1-1 10-3 1-1h1c3 0 8-1 9 1z"/>
    <path fill="#D8D8D8" d="M12 60l1-2 2-1 2-1 7-1 2-1h3l2-1 3 1 6 2c2 0 10-1 11 1 1 1 0 4-4 9H25l-13-3v-3z"/>
    <path fill="#E2E2E4" d="M31 53l3 1 2 1h-1l-3 3 8 1c3 1-1 1-6 2h-5c-3 0-10 1-13-1l-4-1 1-1 1-1h1l2-1 7-1 2-1h3l1-1h1z"/>
    <path fill="#C5C5C5" d="M40 56c2 0 10-1 11 1 1 1 0 4-4 9h-2a139 139 0 01-24 0c2-3 8-6 9-6 3-1 5 0 5 1s-2 3 1 3l8-4c0-2-5-1-7-2l-5-1 4-2 4 1z"/>
    <path fill="#B3B3B3" d="M51 57c1 1 0 4-4 9H24l3-1c1-1 8-5 7-3s-3 3-1 3h1c2 0 10-1 13-3 2-2-2-5-2-6h2l4 1z"/>
    <path fill="#878787" d="M51 57c1 1 0 4-4 9v-1l2-5-4-2H33v-1l5-1h2c2 0 10-1 11 1zm-19 3l2 1-2 3-1 1-1 2-4-1 6-6z"/>
    <path fill="#6E6E6E" d="M26 56v1h-1l-2 3h9c2 0 3 1 2 2a39 39 0 01-7 5l-2-1h-1l-12-3v-3l1-2 2-1 1-1-1 1h4l7-1zm0-2l-2 1h-2 2l1-1h1z"/>
    <path fill="#ECECEC" d="M26 56v1h-1l-2 2 2 1h7c2 0 3 1 2 2a41 41 0 01-7 4h-3l-12-3v-3l1-2 2-1 1-1-1 1h4l7-1zm0-2l-2 1h-2 2l1-1h1z"/>
    <path fill="#DBDBDB" d="M16 59l10 2c3 0 9-2 8 0v1a41 41 0 01-7 4h-5l-10-3v-3l1-2 2 1h1z"/>
    <path fill="#C5C5C5" d="M15 62h1l6 2h9l-2 2h-1-4l-11-2c0-2 0-3 2-2z"/>
    <path fill="#252525" d="M86 68l-3 3-7 1H65l-1-1-5-1-25 1-1 1h-1-2l-6-1-2-1-1 1a28 28 0 01-8-4l-3-3v-1-1s1 0 0 0l1-1v-1c-1 0 0 0 0 0l1-1 2 1 3 2v2h-1l3 1 16 2 34-1 12-6c2 1 1 6 1 7l2 1h2z"/>
    <path fill="#090909" d="M82 62v5l2 1h2l-2 1h-3-2l-7-1v-1-1h-1l-4 4h-1l-1 1h3l3-2-1 1-1 1h4l2-2-1 1-1 1h3l1-2-1 2h2l1-1c0-1 0 0 0 0l-1 1h1l1-1h1l-1 1h1l1-1c0-1 0-1 0 0v1l1-1v-1 1h1v-1 1l-1 1-7 1H65h-1v-1l6-4 10-5h2zm-56 5h-1l-3 2h-1l-1 1h2l-1 1-2-1 1-1h1l3-2h2zm-4 0l-2 1-2 1h-1a8 8 0 002-1l2-1h1zm-2 0h-1l-1 1-2 1h-1l3-1v-1h2zm-4 0l-1 1h-1l-1-1h3zm-3-3h-1l-2-2s1 0 0 0l3 2zm-2-3l2 1 1 1h1l-4-2-1 1 1-1z"/>
    <path fill="#272727" d="M39 59l-1 1c0 1 0 2 2 1l7-2v1l-7 3-3-1 2-3z"/>
    <path fill="#E3E3E3" d="M86 68a32 32 0 00-3-11h-1l-10 3-17 4-15 1-12 1-11-2h-5l-1 2 3 1 6-1 8 1v1l-2 1h-1l-2 1h-1l6 2h3l1-1h2a1527 1527 0 0024 0v-1h3l3 2v-1l1-1a276 276 0 0115-8l2 1-1 5 3 1 2-1z"/>
    <path fill="#C6C6C6" d="M24 70h1l1 1h5v1l1-1-1 1h-3l-6-2h2z"/>
    <path fill="#777" d="M23 70l4 2h4l1-1-1 1h-3l-5-2z"/>
    <path fill="#B2B0B0" d="M28 68l-1 1-1 1h-2-1l1-1h2l2-1v-1 1z"/>
    <path fill="#CECCCC" d="M14 65c-1-1 0-1 1-1l8 2h7l-1 1h-1-1v-1H12v-1h2z"/>
    <path fill="#CDCCCC" d="M65 62l7-2c6 0 1 2-2 2l-3 1-10 2h-1v-1l2-1 7-1z"/>
    <path fill="#B8B8B8" d="M64 63l-4 1-4 1v-1l2-1h2l5-1 6-1-7 2z"/>
    <path fill="#C8C8C8" d="M82 56l1 1a30 30 0 013 11l-2 1-3-1 1-5-2-1-3 1-3 1a276 276 0 00-10 7v1l-3-2h-3v1h-1-1l1-6 12-2 12-4 1-2v-1z"/>
    <path fill="#B8B8B8" d="M83 57a30 30 0 013 11l-2 1-3-1 1-5v5h2c2-1 0-5-1-7l-3-2h1l1-2v-1l1 1z"/>
    <path fill="#D3D3D3" d="M66 68h3l-4 2-1 1v1l-3-2h-3v1h-2l1-5 9 2z"/>
    <path fill="#F2F2F2" d="M76 64h-2a276 276 0 00-9 6c2-1 7-5 11-6z"/>
    <path fill="#9E9E9E" d="M57 69l2 1 2 1-1-1h-2v1h-2v-1l1-1z"/>
    <path fill="#8B8B8B" d="M58 70h1l2 1-1-1h-2v1h-1l1-1z"/>
    <path fill="#767575" d="M59 70h1l1 1-1-1h-2v1h-1l2-1z"/>
    <path fill="#141414" d="M33 57h11c3 0 6 0 5 3 0 4-3 7-6 9l-7 2h-3-1l1 1h23l1-1h0-1v-2l2-6 6-10c1-2 2-4-2-5l-14 3-13 4c-1 1-3 1-2 2z"/>
    <path fill="#494949" d="M45 52l6-2 11-2c4 1 3 3 2 5v1-1-4c-1-1-3-1-9 1h-2l-19 6v1h-1l1-1 1-1 10-3z"/>
    <path fill="#353535" d="M62 49c2 0 1 0-3 2l-12 5-11 1c-2 0-4-1 0-2s24-7 26-6z"/>
    <path fill="#272626" d="M54 51l3-1 6-1-4 2-12 5h-5l12-5z"/>
    <path fill="#454444" d="M45 68a2253 2253 0 0011-2l-8-1h-1l-2 3z"/>
    <path fill="#353535" d="M48 65h1l7 1v1h-2l-1-1h-3l-3-1h1z"/>
    <path fill="#272727" d="M48 65h3l5 1v1l-3-1-4-1h-1z"/>
    <path fill="#303030" d="M48 64l9-1 3-5-10 4-2 2z"/>
    <path fill="#232323" d="M50 62l10-4v1l-11 5v-1l1-1z"/>
    <path fill="#303030" d="M44 68l-4 3h15l1-4-12 1z"/>
    <path fill="#353535" d="M40 52v-1l-3-2v-1l-2 2s-1 0 0 0l1 2 1 1 3-1zM42 52l-1-2-2-2 3-1v1l3 3h-1l-1 1h-1zM47 50h-1l-1-2v-2c-1 0 0 0 0 0l1-1 1 1 2 3v1h-1-1zM51 49a56 56 0 00-2-4l2-1 1 1 2 2v1l-2 1h-1z"/>
    <path fill="#D7D7D7" d="M37 50h1v1h-1 1v1h-1v-1z"/>
    <path fill="#D7D7D7" fill-rule="nonzero" d="M43 49v2h-1v-2h1zm-1 1c0-1 0-1 0 0s0 1 0 0zM47 48v1h-1v-1h1zm0 0v0zM51 48v-2l1 1v-1 2-1h-1z"/>
    <path fill="#D6D6D6" d="M43 68l-5 1H28c-2 0-1 1-1 1h13c1 0 5-2 3-2z"/>
    <path fill="#000" fill-rule="nonzero" d="M40 56l2-1c6 0 8 1 9 2 1 2 0 5-1 7l-1 1-1 1-2 2-4 3 3-3 3-2v-1l2-2c1-2 2-4 1-6l-8-1h-3z"/>
    <path fill="#000" fill-rule="nonzero" d="M43 55l2-1h7c2 1 3 3 1 6l-1 2a42 42 0 01-1 2l-1 1-2 3-4 3h-1l5-3v-1l2-2 1-1v-1l2-3c2-3 1-5-1-5h-9z"/>
    <path fill="#000" fill-rule="nonzero" d="M47 54v-1h8c2 0 3 2 1 6l-2 3-1 2-3 3v1a11 11 0 01-4 3h-1a13 13 0 004-3l1-1 2-3 1-1 2-3 1-2c2-3 1-5-1-5h-7l-1 1z"/>
    <path fill="#000" fill-rule="nonzero" d="M51 52h1l6-1c2 0 3 2 1 5a74 74 0 01-3 6l-2 2-2 3a42 42 0 01-2 3l-2 1a11 11 0 003-3l1-1 2-3 1-2h1a96 96 0 003-6c2-3 1-4-1-5l-6 1h-1z"/>
    <path fill="#000" fill-rule="nonzero" d="M56 64l3-6 1-1 1-2 1-1c2-3 2-4-1-4h-5l-1 1v-1h6c3 0 3 1 1 4l-2 3v1l-4 7-1 1-1 1-3 4h-1a22 22 0 005-5v-1l1-1zM55 68v1l-2 1-1 1a20 20 0 002-3h1z"/>
    <path fill="#66253A" d="M78 50h-1 1z"/>
    <path fill="#141313" d="M75 50h1l-1 1h2-2v-1zM75 52h1zM76 52h1z"/>
  </g>
</svg>
