<?xml version="1.0" encoding="UTF-8"?>
<svg width="96px" height="96px" viewBox="0 0 96 96" version="1.1" xmlns="http://www.w3.org/2000/svg" xmlns:xlink="http://www.w3.org/1999/xlink">
    <title>Nike Air Flight 89 EMB</title>
    <defs>
        <rect id="path-1" x="0" y="0" width="96" height="96"></rect>
    </defs>
    <g id="icon" stroke="none" stroke-width="1" fill="none" fill-rule="evenodd">
        <g id="画板" transform="translate(-158.000000, -406.000000)">
            <g id="Nike-Air-Flight-89-EMB" transform="translate(158.000000, 406.000000)">
                <g id="#" opacity="0">
                    <use fill="#FFFFFF" fill-rule="evenodd" xlink:href="#path-1"></use>
                    <rect stroke-opacity="0.5" stroke="#DDDDDD" stroke-width="6" stroke-linejoin="square" x="3" y="3" width="90" height="90"></rect>
                    <rect stroke-opacity="0.507785184" stroke="#DDDDDD" stroke-width="12" stroke-linejoin="square" x="6" y="6" width="84" height="84"></rect>
                    <rect stroke-opacity="0.319406703" stroke="#979797" stroke-width="10" stroke-linejoin="square" x="5" y="5" width="86" height="86"></rect>
                </g>
                <path d="M61.7685547,33.677002 C61.1799316,33.293457 60.1392822,32.6314697 59.4825439,32.875 C59.0447184,33.0373535 58.797404,33.3046875 58.7406006,33.677002 C57.8306885,34.2426758 56.7594401,35.3706462 55.5268555,37.0609131 C53.6779785,39.5963135 52.9287109,41.1751709 52.6138916,41.8393555 C52.2990723,42.50354 52.5678711,42.3068848 51.637207,42.8726807 C50.8806152,43.1052246 50.5056152,43.3898926 50.5056152,43.5603027 C50.5056152,43.7307129 50.2061768,44.2407227 49.9553223,44.4782715 C49.6873779,44.2828369 48.2915039,45.1184082 48.2915039,45.1184082 C48.2915039,45.1184082 48.1943359,45.2592367 48,45.5408936 L46.9257813,46.1488037 C46.9448242,45.9753011 46.869751,45.8885498 46.7005615,45.8885498 C46.4467773,45.8885498 45.3748779,46.2939453 45.1567383,46.5328369 C44.9385986,46.7717285 45.0925293,46.9486084 44.9925537,46.96875 C44.8925781,46.9888916 43.8614502,47.1448975 42.8187256,47.3880615 C41.776001,47.6312256 40.2307129,47.6812744 38.5306396,48.4733887 C36.8305664,49.2655029 36.1873779,49.2893066 35.1636963,50.1744385 C34.1400146,51.0595703 33.3763428,51.4851074 32.2268066,52.1315918 C31.0772705,52.7780762 31.7514648,54.5192871 34.4768066,54.5795898 C37.2021484,54.6398926 49.9650879,54.0839844 55.4570313,50.111084 C60.9489746,46.1381836 64.7431641,40.7138672 65.1142578,39.2663574 C65.4853516,37.8188477 66.2365723,35.1730957 63.5759277,34.3300781 C62.4555664,33.9545898 62.3571777,34.0605469 61.7685547,33.677002 Z" id="路径-517" fill="#FBFAFA"></path>
                <path d="M64.1185973,34.5489122 C66.1260274,35.5632184 65.4575195,37.9274109 65.1142578,39.2663574 C64.9958009,39.7284172 64.5285474,40.5956941 63.7686155,41.69163 C61.1362401,41.5220405 56.5509344,37.9914497 57.4503174,37.2819824 C58.592041,36.3813477 60.8662109,36.4710693 62.1353239,36.1883545 C62.9813993,35.9998779 63.3196734,35.5349935 63.1501465,34.7937012 C63.3946126,34.6736111 63.6742343,34.5952736 63.9890113,34.5586887 L64.1185973,34.5489122 Z" id="路径" fill="#F0E4E7"></path>
                <path d="M65.1142578,39.2663574 C65.0266775,39.6079781 64.7484351,40.171102 64.3022106,40.8843737 C63.3474557,41.2262349 62.4645524,41.3764065 61.8491347,41.1977681 L62.0103444,41.234388 C61.5237691,41.0363317 61.0259261,40.7865488 60.5451232,40.5085686 C59.8887039,39.9122041 59.6141614,39.0303979 59.7208252,37.8626513 L63.2049108,37.4998717 C63.308113,37.4900198 63.4060692,37.4808259 63.4987793,37.47229 C64.7503662,37.3570557 64.4390869,36.0623779 64.3515625,35.4848633 C64.3293643,35.3383922 64.5883983,35.27312 65.0038183,35.2744291 C65.8793102,36.4404265 65.3910466,38.1866989 65.1142578,39.2663574 Z" id="路径" fill="#E3AAA5"></path>
                <path d="M56.9417063,37.8630371 C57.7719623,37.8110352 56.2381592,43.0324707 56.1272964,43.5249023 C56.0164336,44.017334 50.8752441,46.7922363 49.9232755,46.8463135 C49.0273049,46.8972096 50.0980929,45.1422018 50.2750005,44.7240965 L50.3374441,44.5208497 C50.4161712,44.2737714 50.6091635,43.7686114 50.9571533,43.3179932 C51.1883902,43.0185603 51.811315,42.9112605 52.8259277,42.9960938 C52.7065418,42.5371004 52.6589229,42.101723 52.683071,41.6899616 L52.992966,41.0684639 C53.2505056,40.5714833 53.6183368,39.9087605 54.1468927,39.0776289 C55.4478667,37.9379419 56.1780311,37.9108689 56.9417063,37.8630371 Z" id="路径" fill="#CACAD0"></path>
                <path d="M59.4825439,32.875 C60.0079346,32.6801758 60.7790283,33.0648828 61.3678252,33.4229336 L61.7685547,33.677002 C62.3571777,34.0605469 62.4555664,33.9545898 63.5759277,34.3300781 C66.2365723,35.1730957 65.4853516,37.8188477 65.1142578,39.2663574 C65.0667618,39.4516229 64.9631914,39.7020334 64.8071639,40.0062079 L63.4771118,39.3299561 C64.0978394,38.4443359 64.4286092,37.8502401 64.4694214,37.5476685 C64.5306396,37.093811 64.100647,35.8621826 63.7591553,35.50354 C63.4176636,35.1448975 62.1083984,34.6887817 61.8491347,34.6026611 C61.5898709,34.5165405 60.9884033,34.5886841 60.6987915,34.6026611 C60.4091797,34.6166382 59.1109619,33.9525146 58.9512939,33.8134155 C58.8864288,33.7569065 58.8136966,33.6725552 58.7683067,33.5558374 C58.8574009,33.2440251 59.0955521,33.0185035 59.4825439,32.875 Z" id="路径" fill="#DC5F48"></path>
                <path d="M59.1656494,33.6530762 C59.4771118,33.9185181 60.5090018,34.4282837 61.0472255,34.3460693 C61.5085601,34.2755999 61.5777137,34.1695706 61.751325,34.1892595 L61.8491347,34.2103271 C62.1083984,34.2874146 64.1137695,34.8447266 64.3515625,35.4848633 L64.6811835,36.2945664 C64.8746881,36.7759514 65.0452957,37.2795868 64.9920044,37.6538086 C64.9409607,38.0122469 64.6969141,38.7030801 64.2598646,39.7263081 L63.4771118,39.3299561 C64.0978394,38.4443359 64.4286092,37.8502401 64.4694214,37.5476685 C64.5306396,37.093811 64.100647,35.8621826 63.7591553,35.50354 C63.4176636,35.1448975 62.1083984,34.6887817 61.8491347,34.6026611 C61.5898709,34.5165405 60.9884033,34.5886841 60.6987915,34.6026611 C60.4091797,34.6166382 59.1109619,33.9525146 58.9512939,33.8134155 C58.8864288,33.7569065 58.8136966,33.6725552 58.7683067,33.5558374 C58.8059522,33.4240857 58.8702096,33.30774 58.9610628,33.206478 C58.9385838,33.3696894 59.0070248,33.5178894 59.1656494,33.6530762 Z" id="路径" fill="#A42121"></path>
                <path d="M84.2365723,48.954834 C83.3867188,46.4799805 82.8504639,44.959554 82.6278076,44.3935547 C82.2938232,43.5445557 79.4074707,39.3527832 79.3009033,39.2442627 C79.3634033,38.987915 77.3830566,37.6925049 76.4609375,37.3314209 C75.5388184,36.9703369 73.9805908,37.5401611 72.689209,38.7801514 C71.3978271,40.0201416 69.3769531,41.4434814 66.6887207,40.2261963 C64.0004883,39.0089111 61.6705322,36.8673096 60.4663086,36.7080078 C59.262085,36.5487061 57.4359131,36.6654053 56.4599609,37.3314209 C55.4840088,37.9974365 54.6843262,38.8962402 53.5548096,41.9533691 C53.7004395,42.5656738 53.8730469,42.8197021 53.8978271,43.2298584 C53.9226074,43.6400146 54.1691895,43.9223633 53.8978271,43.9464111 C53.6264648,43.970459 51.2893066,44.9969482 50.0640869,45.3200684 C48.8388672,45.6431885 45.3537598,47.0710449 44.456665,47.262085 C43.5595703,47.453125 39.1412354,49.352417 38.1516113,49.5671387 C37.1619873,49.7818604 36.6204834,50.0455322 36.5334473,49.5671387 C36.4464111,49.0887451 35.5611572,49.7338867 35.1636963,50.1744385 C34.7662354,50.6149902 30.9047852,51.862915 30.1582031,52.7677002 C29.4116211,53.6724854 31.4487305,54.3278658 32.9785156,54.5837327 C34.5083008,54.8395996 48.4853516,54.7353365 51.8227539,54.5837327 C54.0476888,54.4826635 64.8522949,52.6063639 84.2365723,48.954834 Z" id="路径-518" fill="#F6F6F7"></path>
                <path d="M54.7473079,42.039098 L54.8650306,42.0447702 C55.738606,42.180849 58.8962402,45.8952637 60.2253418,49.8862027 C61.1383045,52.6275872 59.1510284,53.4313331 56.6513671,53.932394 L54.3120287,54.2921298 C53.2466325,54.4463208 52.4727685,54.5402469 51.9901038,54.5739268 L51.8227539,54.5837327 C50.8807788,54.6265226 49.0912075,54.6655411 46.9731489,54.6937552 C46.4366843,54.6056989 45.8932539,54.4918425 45.3420198,54.3537832 L47.0427854,53.83369 C49.1593403,53.1749233 50.6713643,52.6549205 51.5788574,52.2736816 C53.2804071,51.5588587 53.6639373,50.2777707 53.5773926,49.1950684 C53.5435357,48.7715078 53.0845461,47.6845926 52.3381348,46.7263184 C52.1640255,46.5027895 51.7439469,46.6725108 51.572998,46.4182129 C51.3762361,46.1255162 51.1922672,45.6581081 51.0210915,45.0159885 L51.5923872,44.8072104 C52.5551008,44.4460669 53.5255302,44.0431899 53.8278503,43.9610639 L53.8978271,43.9464111 C54.1352692,43.9253693 53.97616,43.7065659 53.9160719,43.3774211 L53.8978271,43.2298584 C53.8813887,42.9577745 53.7998983,42.7543956 53.7043843,42.4695578 C54.0530761,42.2541548 54.3410647,42.1197734 54.5687293,42.0657115 L54.7473079,42.039098 Z" id="路径" fill="#EBEBF1"></path>
                <path d="M55.0585227,40.0062079 C55.2022505,39.8833874 57.9108887,44.7545166 58.5026855,49.3823222 C59.0765492,53.8698912 56.7596874,53.4300096 53.6704619,54.0053695 L52.8625211,54.1609783 C50.556228,54.5568661 53.6741161,53.2367982 54.7059843,51.923405 C55.5847366,50.8049025 55.3366254,49.643953 55.0482047,48.7059207 L54.8413086,48.0483398 C54.5404763,47.0358544 53.2559846,45.6037506 52.8723145,44.0435791 L53.8507109,43.9551574 C53.8701808,43.9504243 53.8859745,43.9474615 53.8978271,43.9464111 C54.1352692,43.9253693 53.97616,43.7065659 53.9160719,43.3774211 L53.8978271,43.2298584 C53.8800608,42.9357952 53.786308,42.7219854 53.6809894,42.3988551 C54.0730628,41.2011439 54.9582057,40.0919323 55.0585227,40.0062079 Z" id="路径" fill="#D5D5D9"></path>
                <path d="M79.9620247,40.2787666 L79.9997483,40.2385929 L80.7870367,41.4030889 C80.9738292,41.6829899 81.1638191,41.9704339 81.3476146,42.2523412 L81.0464478,42.5370483 L79.697876,40.5628662 L79.697876,40.5628662 C79.6816254,40.5500234 79.7696749,40.4553235 79.9620247,40.2787666 Z" id="路径" fill="#4D4D4D"></path>
                <path d="M60.1585351,36.6728866 L60.4663086,36.7080078 C60.8913287,36.764232 61.4565784,37.0673862 62.1283166,37.4896811 L63.5165542,38.3981432 C64.468589,39.0246459 65.5463026,39.7088866 66.6887207,40.2261963 C69.2547607,41.3881503 71.2127325,40.1440803 72.5085957,38.9501122 L72.689209,38.7801514 C73.9805908,37.5401611 75.5388184,36.9703369 76.4609375,37.3314209 C77.321582,37.6684326 79.1040603,38.8193462 79.2870842,39.1797237 L79.3009033,39.2442627 C79.137085,39.1981201 78.092804,38.3935852 77.3414917,38.0455322 C76.5901794,37.6974792 75.5388184,37.3923035 74.7744751,37.9448853 C74.0101318,38.497467 73.320343,39.4128723 72.861145,39.8175659 C72.401947,40.2222595 70.7529602,41.2221375 69.8052368,41.3330994 C68.8575134,41.4440613 67.2030771,41.4424133 65.5023412,40.6717224 C63.8016052,39.9010315 62.2304688,38.6641541 61.8045959,38.3304443 C61.3787231,37.9967346 59.6540527,37.2746277 59.0827026,37.2192688 L58.5591438,37.1698008 C58.100429,37.1356469 57.6001151,37.1410435 57.1665039,37.3500671 C56.5594482,37.6427002 55.7189026,38.4136047 55.4715881,38.9576111 C55.2242737,39.5016174 54.1494141,41.298584 54.1842041,41.9703674 C54.2189941,42.6421509 55.2840271,43.1202698 54.9431152,43.4283752 C54.6022034,43.7364807 54.8565063,44.5579529 54.5102234,44.6268311 C54.1639404,44.6957092 53.407959,44.6712341 53.3705444,44.5710449 C53.3412364,44.4925634 53.2705815,44.2571798 53.3096961,44.1391636 L53.5625035,44.049247 L53.5625035,44.049247 L54.0521315,44.0083316 C54.21353,43.9900807 54.3460163,43.9646008 54.3682861,43.9240417 C54.4259949,43.8189392 54.5846558,43.2467041 54.4605713,43.0161438 C54.3364868,42.7855835 54.1033325,42.7053528 53.8319702,42.5130005 C53.6261803,42.3671285 53.5960748,42.0243704 53.651719,41.6909097 C54.7319912,38.8430473 55.5129997,37.9776524 56.4599609,37.3314209 C57.0322238,36.9408936 57.8968112,36.7392334 58.7569268,36.6713389 L59.498376,36.6617398 C59.7385007,36.6611007 59.9650771,36.6639193 60.1585351,36.6728866 Z" id="路径" fill="#F47C65"></path>
                <path d="M57.6633575,37.1944771 C57.4923549,37.2244822 57.3249748,37.2736758 57.1665039,37.3500671 C56.5594482,37.6427002 55.7189026,38.4136047 55.4715881,38.9576111 C55.2242737,39.5016174 54.1494141,41.298584 54.1842041,41.9703674 C54.2189941,42.6421509 55.2840271,43.1202698 54.9431152,43.4283752 C54.6022034,43.7364807 54.8565063,44.5579529 54.5102234,44.6268311 C54.1639404,44.6957092 53.407959,44.6712341 53.3705444,44.5710449 C53.3412364,44.4925634 53.2705815,44.2571798 53.3096961,44.1391636 L53.5625035,44.049247 L54.0521315,44.0083316 L54.2623821,43.9745522 C54.3184622,43.960831 54.3571512,43.9443213 54.3682861,43.9240417 C54.4259949,43.8189392 54.5846558,43.2467041 54.4605713,43.0161438 C54.3364868,42.7855835 54.1033325,42.7053528 53.8319702,42.5130005 C53.6261803,42.3671285 53.594014,42.1698051 53.6496582,41.8363444 C53.9887233,40.9424857 54.6370098,39.5546161 55.2499186,38.8164876 C55.3640085,38.6790888 55.6031548,38.3690987 55.759847,38.2332357 C56.0759072,37.9591896 56.7104107,37.6129368 57.6633575,37.1944771 Z" id="路径" fill="#BE4B35"></path>
                <path d="M57.227356,37.1602173 C57.6209487,36.9602661 58.6635742,36.9870605 59.6984432,37.121582 C60.6039535,37.2392883 61.3658214,37.6452255 61.9137839,37.9814745 L62.6102083,38.428462 C63.4040813,38.9483785 64.7260132,39.8267527 65.1994019,40.1333008 C65.7911377,40.5164859 67.6170044,41.0508423 68.9514771,41.0930176 C70.2859497,41.1351929 70.6818848,40.8481445 71.4569702,40.4746094 C71.8797441,40.2708629 72.5878039,39.766713 73.5811495,38.9621597 L74.0587209,38.5681381 C73.5864181,39.0381797 73.171213,39.5443014 72.861145,39.8175659 C72.401947,40.2222595 70.7529602,41.2221375 69.8052368,41.3330994 C68.8575134,41.4440613 67.2030771,41.4424133 65.5023412,40.6717224 C63.8016052,39.9010315 62.2304688,38.6641541 61.8045959,38.3304443 C61.3787231,37.9967346 59.6540527,37.2746277 59.0827026,37.2192688 L58.5591438,37.1698008 C58.100429,37.1356469 57.6001151,37.1410435 57.1665039,37.3500671 C56.5594482,37.6427002 55.7189026,38.4136047 55.4715881,38.9576111 C55.2242737,39.5016174 54.1494141,41.298584 54.1842041,41.9703674 C54.1923311,42.1272973 54.2566783,42.2736589 54.3461901,42.4097538 C54.2177612,42.5481405 53.8358371,42.2796525 53.7948618,42.1977681 C53.7778563,42.1637845 53.8249916,42.0171678 53.8954588,41.8345483 L54.2532959,40.9761963 C54.3463135,40.7368164 55.3869629,38.7453003 55.5605469,38.3812866 C55.7341309,38.0172729 56.8337632,37.3601685 57.227356,37.1602173 Z" id="路径" fill="#BB4832"></path>
                <path d="M83.9018555,48.6445312 C83.3911947,46.2216797 83.0624186,44.8729655 82.9155273,44.5983887 C82.6951904,44.1865234 81.0089111,43.4846191 80.4399414,42.8237305 C79.8709717,42.1628418 79.0341797,40.7397461 79.1462402,40.0895996 C79.2209473,39.6561686 79.2209473,39.3505452 79.1462402,39.1727295 C77.7533366,38.3233643 76.9653727,37.8845622 76.7823486,37.8563232 C76.6121826,38.461792 74.9975586,40.7452393 73.9438477,41.5484619 C72.8901367,42.3516846 71.2573242,43.2458496 67.6407471,41.965332 C65.2296956,41.1116536 62.0607503,39.6744792 58.1339111,37.6538086 C57.6770426,38.6649577 58.311849,39.7916667 60.0383301,41.0339355 C61.7648112,42.2762044 69.7193197,44.8130697 83.9018555,48.6445312 Z" id="路径-519" fill="#E2E1E5"></path>
                <path d="M76.7823486,37.8563232 C76.9653727,37.8845622 77.7533366,38.3233643 79.1462402,39.1727295 C79.2209473,39.3505452 79.2209473,39.6561686 79.1462402,40.0895996 C79.0341797,40.7397461 79.8709717,42.1628418 80.4399414,42.8237305 C81.0089111,43.4846191 82.6951904,44.1865234 82.9155273,44.5983887 C83.0222023,44.7977911 83.2248018,45.5636844 83.5233257,46.8960686 C83.065676,46.5702866 82.5898346,46.2498388 82.096512,45.9350172 L80.0441538,44.6775973 C78.8689898,43.9906268 77.8482294,43.5694141 75.0184288,43.0390026 C74.0400334,42.8556143 73.496547,42.4858361 73.3879698,41.9296679 C73.5931641,41.8068732 73.7758648,41.6765119 73.9438477,41.5484619 C74.9975586,40.7452393 76.6121826,38.461792 76.7823486,37.8563232 Z" id="路径" fill="#ECECEE"></path>
                <path d="M78.8404523,38.9907923 L79.1462402,39.1727295 C79.2209473,39.3505452 79.2209473,39.6561686 79.1462402,40.0895996 C79.0341797,40.7397461 79.8709717,42.1628418 80.4399414,42.8237305 C81.0089111,43.4846191 82.6951904,44.1865234 82.9155273,44.5983887 C82.9616171,44.6845421 83.0256136,44.8764449 83.1075166,45.1740969 C82.8369017,45.0581694 82.6438752,44.9509375 82.529007,44.8540698 L82.4575195,44.7833884 C82.2597656,44.5443159 80.0596924,43.3089896 79.3763428,42.2977295 C78.749939,41.3707411 78.7184584,40.3075855 78.7840375,39.8432957 L78.8039551,39.7320714 C78.8440202,39.5551576 78.8561859,39.3080646 78.8404523,38.9907923 Z M76.7823486,37.8563232 C76.8625875,37.8687034 77.0590955,37.9599936 77.3718727,38.1301939 L77.1420742,38.4795359 C76.8906139,38.8478942 76.4696931,39.4417846 75.8809814,40.2613525 C74.6015625,42.0424805 73.1220703,42.9833984 70.9461831,43.1491699 C68.8480061,43.309021 63.1258556,40.9717245 62.6330167,40.6867538 L62.6002264,40.6637673 C62.5293789,40.5675922 61.2603943,39.913276 60.6067764,38.9000955 L62.0929058,39.6161504 C64.252839,40.6372972 66.1012843,41.4202561 67.6407471,41.965332 C71.2573242,43.2458496 72.8901367,42.3516846 73.9438477,41.5484619 C74.9975586,40.7452393 76.6121826,38.461792 76.7823486,37.8563232 Z" id="形状" fill="#D1D0D5"></path>
                <path d="M80.9421387,46.9074707 C80.5612793,46.0609538 79.7280273,45.5331217 78.4423828,45.3239746 C76.513916,45.0102539 71.9853516,44.3449707 68.8400879,43.1491699 C65.6948242,41.9533691 61.7941895,39.5324707 61.2177734,39.0825195 C60.6413574,38.6325684 58.3147617,37.0705566 57.9905107,37.041748 C57.6662598,37.0129395 55.8405762,38.0974121 55.3457031,39.0825195 C54.8508301,40.067627 54.0100098,42.0112305 53.9477539,42.6530762 C53.885498,43.2949219 55.0166016,45.4794922 55.3457031,46.9074707 C55.6748047,48.3354492 56.4672852,50.9470117 54.2624512,52.4522656 C52.0576172,53.9575195 44.1953125,55.0825195 43.0534668,55.4052734 C41.9116211,55.7280273 44.0617676,56.6384277 48.9785156,56.0332031 C53.8952637,55.4279785 74.800293,51.5979004 77.9160156,50.1279297 C79.9931641,49.1479492 81.0018717,48.0744629 80.9421387,46.9074707 Z" id="路径-520" fill="#C1C0C5"></path>
                <path d="M50.6311035,54.4570312 C50.879581,54.4225025 54.6396809,53.4662282 55.5263834,52.0222376 C56.4130859,50.5782471 56.5112305,49.3515859 55.8138428,46.8565674 C55.1164551,44.3615489 54.5968018,43.3140869 54.53125,42.69104 C54.4656982,42.0679932 55.5912627,39.5068578 56.1272964,38.9286608 C56.6633301,38.3504639 57.6849262,37.6140137 57.9417063,37.6538086 C58.1984863,37.6936035 61.2386654,39.8944092 62.1353239,40.4301758 C63.0319824,40.9659424 66.4287109,42.9505799 68.5653076,43.7031342 C70.7019043,44.4556885 74.9770526,45.4153711 75.7227783,45.5205078 C76.468504,45.6256446 78.6472168,45.8491447 78.9558105,46.154919 C79.2644043,46.4606934 79.9816895,47.764034 78.1827393,49.3823222 C77.1276557,50.3314476 67.6842696,52.614131 60.2404785,53.8195801 C54.9923755,54.669459 50.528358,54.4713089 50.6311035,54.4570312 Z" id="路径-549" fill="#E1E0E5"></path>
                <path d="M57.8645833,37.7602657 C58.3341709,37.7583753 60.7565918,39.3944499 61.1015625,39.7722982 C62.0728162,40.8361177 63.595459,43.2723796 68.7905273,45.9392904 C73.101004,48.1520922 78.041979,47.8883384 79.278214,47.8014714 L79.2308416,47.9526883 L78.5217306,48.280094 C76.5651533,49.1521525 71.9632146,51.0198324 66.387958,52.6781287 C64.3272016,53.104839 62.213593,53.5000535 60.2404785,53.8195801 C57.4066501,54.2784908 54.8014372,54.4318281 53.0203827,54.4735418 L53.724183,54.1839169 C54.5272443,53.845646 55.2359895,53.5123429 55.5230343,53.2499595 C56.8221917,52.0624189 56.8422852,49.65625 56.1856921,47.7822852 L55.6649458,46.3390162 C55.3099904,45.1230489 55.0110672,44.2964231 54.808309,43.7023771 C54.7013166,43.3033612 54.6058465,42.9056005 54.533179,42.5235337 C54.5746172,42.1599398 54.9646243,40.5815303 55.6266276,39.6032715 C56.4535323,38.3813337 57.6037854,37.7613724 57.8645833,37.7602657 Z" id="路径" fill="#D1D0D5"></path>
                <path d="M62.3654785,44.0870361 C62.7979736,44.2719727 62.2626953,46.947998 63.4138184,47.6778564 C64.5649414,48.4077148 70.043335,47.605835 72.7415771,47.1973877 C75.4398193,46.7889404 78.9085693,46.350708 79.1721191,46.4420166 C79.4356689,46.5333252 77.1768799,48.0334473 75.8088379,48.3546143 C74.4407959,48.6757813 68.7155762,50.2851562 66.8852539,50.7854004 C65.0549316,51.2856445 60.4553223,52.4104004 59.0374756,51.3408203 C57.6196289,50.2712402 58.3800049,47.9442058 59.2921143,46.8342285 C60.2042236,45.7242512 61.9329834,43.9020996 62.3654785,44.0870361 Z" id="路径-521" fill="#2C2C2C"></path>
                <path d="M62.3654785,44.0870361 C62.7979736,44.2719727 62.2626953,46.947998 63.4138184,47.6778564 C64.3251241,48.255661 67.9484865,47.8734699 70.757444,47.4864876 L74.1365012,46.9932714 C76.032929,46.7247122 77.9773079,46.4843467 78.7916503,46.4379012 L78.7601441,46.4701718 L72.6937569,47.4899336 L70.5658988,47.8549752 C68.1935945,48.2290791 64.0435685,48.730957 63.2191162,48.1132812 C62.3571888,47.4675293 62.0571306,46.148001 62.0259837,45.3689851 L62.0244141,45.15271 C62.034048,44.8306443 62.0257142,44.5053309 61.9994125,44.1767696 C62.157721,44.0882466 62.2843857,44.0523605 62.3654785,44.0870361 Z" id="路径" fill="#817C7C"></path>
                <path d="M82.9934082,50.279541 C83.092041,49.5710449 83.5356445,49.1022949 81.8190918,48.6445312 C80.1025391,48.1867676 78.9284668,47.9272461 75.5095215,48.6445312 C72.0905762,49.3618164 60.3999023,52.6882324 55.8864746,53.1062012 C51.3730469,53.5241699 39.7067871,53.9768066 37.0070801,53.9901123 C35.2072754,53.9989827 33.6299235,53.8216553 32.2750244,53.4581299 L31.6902909,53.6800537 C30.1417181,53.3684489 29.9007568,52.8530273 30.9674072,52.1337891 C28.2102051,53.171875 25.5905762,54.3209153 23.5480957,54.5159912 C21.5056152,54.7110671 16.079834,55.300293 15.4147949,56.0524902 C14.7497559,56.8046875 20.265625,58.097168 24.777832,58.4545898 C29.2900391,58.8120117 43.9975586,59.4533691 54.2495117,57.5881348 C64.5014648,55.7229004 82.8947754,50.9880371 82.9934082,50.279541 Z" id="路径-522" fill="#EBEBEE"></path>
                <path d="M72.4706527,53.4889777 L72.4289551,53.500061 C66.5368042,55.0054932 59.3754883,56.6555176 54.2495117,57.5881348 C52.6124829,57.8859748 50.8618479,58.1199028 49.0572569,58.3012802 C48.7633497,57.8104337 48.7238029,57.1217471 48.9376054,56.2361414 L52.9975347,55.4970074 C56.4356804,54.856299 58.751169,54.3781183 59.9440002,54.0624652 L60.4320024,53.9224089 C62.3513782,53.3417031 67.1977734,51.6224807 74.971188,48.7647418 L75.5095215,48.6445312 C77.4687801,48.2334843 78.6908291,48.1432177 79.7002232,48.2272127 C81.1135749,48.677661 81.5282638,49.2889313 80.9446433,50.0617595 C80.5031346,50.6464037 76.9623414,51.998463 72.4706527,53.4889777 Z" id="路径" fill="#CECED7"></path>
                <path d="M75.5095215,48.6445313 L76.0960712,48.527793 L75.9191002,48.6928495 C75.3248392,49.2023669 73.7518709,50.266818 71.2001953,51.8862027 C72.3823242,50.4545806 72.4959705,50.0395562 71.7044678,50.2548828 L69.8687744,50.6955566 C66.5057205,51.5604232 61.6094971,52.8574219 57.5997314,53.4770508 C53.5899658,54.0966797 49.7226239,54.084536 43.8789009,54.3546139 L42.9859619,54.3967285 C36.838804,54.6926775 33.9305313,54.4270391 32.8541131,54.1384187 L32.7457282,54.1074317 C32.2387089,53.9524546 31.8591742,53.8041941 31.6071241,53.6626503 L31.6902909,53.6800537 L32.2827148,53.5631104 C33.6376139,53.9266357 35.2453613,54.1349691 37.045166,54.1260986 L39.09729,54.1170654 C43.4073465,53.9997636 52.1395493,53.5784912 55.9477539,53.2258301 C58.2539711,53.0122614 62.2843765,52.1919552 66.2012939,51.159668 C70.1182114,50.1273808 73.7226922,49.1025809 75.5095215,48.6445313 Z" id="路径" fill="#C9C9D0"></path>
                <path d="M77.3690729,48.318085 C77.8496996,49.2174046 78.1705877,50.3942967 78.1643278,51.4591256 C77.0024147,51.92043 75.5438982,52.4473241 73.9105919,53.0046439 L72.4289551,53.500061 C69.5843401,54.2268542 66.443912,54.9873484 63.37951,55.6845474 L61.4187812,55.796998 L69.9449144,50.6020596 L75.5095215,48.6445312 C76.0438647,48.5324275 76.5233742,48.4441835 76.9586908,48.376827 L77.3690729,48.318085 Z" id="路径" fill="#BDBDC5"></path>
                <path d="M15.7437744,56.0402222 C15.7872314,55.8327026 15.6925863,55.7579753 15.4598389,55.81604 C15.0411377,55.8989258 12.9663086,56.9620361 12.2354736,58.4006348 C11.5046387,59.8392334 11.1970215,60.8248291 11.1724854,61.0948486 C11.1479492,61.3648682 11.8953857,63.1204834 15.8413086,63.9990234 C19.7872314,64.8775635 23.105957,65.098877 23.2341309,65.5270996 C23.3623047,65.9553223 24.3354492,68.6806641 26.0634766,68.8679199 C27.2154948,68.9927572 34.1815592,68.8867187 46.9616699,68.5498047 L78.7319336,61.748291 C81.4128042,59.4737142 82.8747699,57.5205892 83.1178307,55.888916 C83.4824219,53.4414063 84.5622559,47.7980957 80.637207,48.6506348 C76.7121582,49.5031738 73.1120605,50.7244824 69.2370605,52.064209 C65.3620605,53.4039355 59.7678223,55.0489502 51.3679199,56.3099365 C42.9680176,57.5709229 35.6750488,58.2438965 27.3745117,57.6171875 C21.8408203,57.1993815 17.9639079,56.6737264 15.7437744,56.0402222 Z" id="路径-523" fill="#E8E7E9"></path>
                <path d="M15.7437744,56.0402222 C15.7872314,55.8327026 15.6925863,55.7579753 15.4598389,55.81604 C15.0411377,55.8989258 12.9663086,56.9620361 12.2354736,58.4006348 C11.5046387,59.8392334 11.1970215,60.8248291 11.1719099,61.0948486 C11.1479492,61.3648682 11.8953857,63.1204834 15.8413086,63.9990234 C19.7872314,64.8775635 23.105957,65.098877 23.2341309,65.5270996 C23.3623047,65.9553223 24.3354492,68.6806641 26.0634766,68.8679199 C27.2154948,68.9927572 34.1815592,68.8867188 46.9616699,68.5498047 L78.7319336,61.748291 C81.4128042,59.4737142 82.8747699,57.5205892 83.1178307,55.888916 C83.4824219,53.4414063 84.6477051,48.0805664 80.7226562,48.9331055 C76.7976074,49.7856445 73.1975098,51.0069531 69.3225098,52.3466797 C65.4475098,53.6864063 59.8532715,55.3314209 51.4533691,56.5924072 C43.0534668,57.8533936 35.4208984,58.381958 27.421875,57.8046875 C22.0891927,57.4198405 18.1964925,56.8316854 15.7437744,56.0402222 Z" id="路径-523" fill="#E4E2E8"></path>
                <path d="M15.4598389,55.81604 C15.6925863,55.7579753 15.7872314,55.8327026 15.7437744,56.0402222 C18.1964925,56.8316854 22.0891927,57.4198405 27.421875,57.8046875 C34.5340572,58.3179568 41.3565367,57.9570033 48.6862615,56.9843015 L49.4052701,57.0839586 C51.7277228,57.4198944 53.2657216,57.7859234 52.7584229,57.9611422 L52.6138465,57.9900312 C50.7894168,58.2585618 34.4121437,58.977205 27.2294553,58.4269635 L26.8254395,58.3937988 C19.6116943,57.7595215 16.9510498,57.0220947 16.0213623,56.706998 C15.6243716,56.5724468 15.3576904,56.30315 15.2213188,55.8991076 L15.3549059,55.8455077 L15.4598389,55.81604 Z" id="路径" fill="#CFCDD2"></path>
                <path d="M80.7226562,48.9331055 C84.6477051,48.0805664 83.4824219,53.4414063 83.1178307,55.888916 C82.8890675,57.4246084 81.5805825,59.2450471 79.1923754,61.350232 L78.7319336,61.748291 L51.3601559,67.6060071 L46.6191657,57.2410737 L46.6191657,57.2410737 C48.2049674,57.0565608 49.8145647,56.8384232 51.4533691,56.5924072 C59.5301983,55.3799204 65.0130334,53.8123777 68.8677028,52.5025791 L69.3225098,52.3466797 C73.1975098,51.0069531 76.7976074,49.7856445 80.7226562,48.9331055 Z" id="路径" fill="#D3D3D7"></path>
                <path d="M74.8938991,50.4911997 C75.0987222,51.6666653 72.0178612,54.2310161 71.6024236,56.3570336 L71.5588842,56.706998 C71.4064759,59.8358709 63.6491477,64.965554 63.4541903,62.709517 C63.259233,60.4534801 66.3174716,55.3299006 67.020473,54.5837327 C67.7234744,53.8375648 57.0546953,56.7304527 55.587358,56.9801136 C54.2926485,57.2004027 54.3894376,57.7010099 54.9423966,58.2280265 L55.1856921,58.4396398 C55.6828297,58.8397406 57.2689324,60.5483997 59.9440002,63.5656171 C54.2050083,61.1107882 51.187188,58.8136243 50.8905391,56.6741255 L51.4533691,56.5924072 C59.5301983,55.3799204 65.0130334,53.8123777 68.8677028,52.5025791 L69.3225098,52.3466797 C70.7756348,51.8442822 72.1901016,51.3585373 73.5975432,50.902647 L74.8938991,50.4911997 Z" id="路径" fill="#CBCBD1"></path>
                <path d="M74.2331688,50.7009801 C73.9537444,51.0327529 73.4713997,51.4459955 72.7861346,51.9407078 L71.1135254,52.3529053 C67.0726189,53.7356699 63.2980203,54.8440287 60.8884277,55.3679199 C58.4788351,55.8918111 54.1062842,56.7830022 50.5931396,57.4239502 C50.1365668,57.1611947 49.8517465,57.1040111 49.5523296,56.864958 C50.1818111,56.7797318 50.8153769,56.6881821 51.4533691,56.5924072 C59.5301983,55.3799204 65.0130334,53.8123777 68.8677028,52.5025791 L69.3225098,52.3466797 C70.7756348,51.8442822 72.1901016,51.3585373 73.5975432,50.902647 L74.2331688,50.7009801 Z" id="路径" fill="#BBBBC5"></path>
                <path d="M16.4121094,59.9462891 C18.9745189,60.4193482 23.3388484,60.8540102 25.2114258,61.901123 C27.0840032,62.9482359 28.6179199,64.9832179 29.277832,66.4680494 C29.9113477,67.8934876 27.8736633,69.0355795 25.8176909,68.6483264 L25.560791,68.5918643 C25.4678159,68.5684558 25.3506976,68.5479051 25.2117225,68.529759 L25.1716716,68.5267724 C24.000226,67.739419 23.3382721,65.8750305 23.2341309,65.5270996 C23.105957,65.098877 19.7872314,64.8775635 15.8413086,63.9990234 C11.8953857,63.1204834 11.1479492,61.3648682 11.1719099,61.0948486 L11.2086592,60.9014231 C11.3113166,60.4837138 11.6264445,59.599467 12.2354736,58.4006348 C12.3732602,58.1294114 12.5610098,57.8665188 12.7767089,57.6176709 C13.0715577,59.0440573 14.9861018,59.6830267 16.4121094,59.9462891 Z" id="路径" fill="#DAD8DF"></path>
                <path d="M12.5362549,60.3005371 C13.1258545,60.9568774 15.5844727,61.7819824 17.40271,62.2978516 C19.2209473,62.8137207 21.3826904,64.2994385 21.6148682,64.8505859 C21.6369617,64.9030318 21.5848567,64.9586346 21.4700242,65.0137269 L18.9783878,64.6056827 C18.0211017,64.4430215 16.9562417,64.2472577 15.8413086,63.9990234 C11.8953857,63.1204834 11.1479492,61.3648682 11.1719099,61.0948486 L11.2086592,60.9014231 L11.3022758,60.577707 C11.4460947,60.1312262 11.7140976,59.4496605 12.1386795,58.5934603 C12.1150372,59.4100781 12.2472216,59.9787862 12.5362549,60.3005371 Z" id="路径" fill="#CAC8CF"></path>
                <path d="M60.2253418,64.3457031 C59.4941406,63.1124674 58.8260091,62.1806437 58.2209473,61.5502319 C57.3133545,60.6046143 50.4455579,54.4844971 49.2388922,53.2878418 C48.0322266,52.0911865 45.2421875,49.6912842 44.2994385,49.0095215 C43.3566895,48.3277588 42.1199951,47.4424435 39.7657471,48.1986387 C37.411499,48.954834 37.3444824,49.2733154 37.277832,49.4589844 C37.2111816,49.6446533 36.8753052,51.0782471 37.1218262,53.4146729 C37.3683472,55.7510986 37.8701782,57.5523071 36.1808472,58.7455444 C34.9157715,59.6890259 33.8660278,59.7267456 32.807373,60.0601807 C31.7487183,60.3936157 29.7883301,61.0940552 28.8682861,62.2990723 C27.9482422,63.5040894 28.0212402,64.3867188 28.0764771,65.0681152 C28.1317139,65.7495117 28.715332,66.897583 31.0174561,67.3660889 C33.3195801,67.8345947 42.0161133,68.3603516 48,67.708252 C51.9892578,67.2735189 56.0643717,66.1526693 60.2253418,64.3457031 Z" id="路径-524" fill="#E9E5F0"></path>
                <path d="M46.6162233,50.9090017 C47.5990094,51.756762 48.6243172,52.6783652 49.2388922,53.2878418 C50.4455579,54.4844971 57.3133545,60.6046143 58.2209473,61.5502319 C58.8260091,62.1806437 59.4941406,63.1124674 60.2253418,64.3457031 C56.0643717,66.1526693 51.9892578,67.2735189 48,67.708252 C42.0161133,68.3603516 33.3195801,67.8345947 31.0174561,67.3660889 C28.715332,66.897583 28.1317139,65.7495117 28.0764771,65.0681152 C28.0212402,64.3867188 27.9482422,63.5040894 28.8682861,62.2990723 C29.4915144,61.4828061 30.5921118,60.8980688 31.5664321,60.5020992 C35.6799149,60.6102545 39.1686182,59.736815 42.032959,57.8842773 C45.0856609,55.9099154 46.6143965,53.5212755 46.6191657,50.7183575 Z" id="形状结合" fill="#E1DFE3"></path>
                <path d="M48.3783221,52.8310145 L48.2031254,52.3125387 L49.0169413,53.071244 L49.0169413,53.071244 L49.5798782,53.615947 C51.3962625,55.332399 57.3781825,60.6721584 58.2209473,61.5502319 C58.8260091,62.1806437 59.4941406,63.1124674 60.2253418,64.3457031 C56.0643717,66.1526693 51.9892578,67.2735189 48,67.708252 L46.8104012,67.8200886 C40.9205956,68.2927503 33.1710559,67.8043685 31.0174561,67.3660889 C28.8507511,66.9251422 28.2063212,65.8822275 28.0919519,65.1929727 L28.0764771,65.0681152 C28.0212402,64.3867188 27.9482422,63.5040894 28.8682861,62.2990723 C29.7883301,61.0940552 31.7487183,60.3936157 32.807373,60.0601807 C33.8660278,59.7267456 34.9157715,59.6890259 36.1808472,58.7455444 C37.5446135,57.7822656 37.4803907,56.4227695 37.2752894,54.7053327 L37.890968,54.3537832 C38.2387366,55.9862475 38.3445792,57.1319509 38.2084961,57.7908936 C38.0043714,58.7793075 36.2788086,60.4755859 35.1323242,60.9038086 L33.7123233,61.4178621 C32.8793541,61.7289255 32.0200135,62.0950057 31.3697755,62.5788694 C30.3293948,63.3530514 36.2302923,62.895511 40.014194,63.1711442 C43.7980957,63.4467773 46.9335988,61.833252 48.596316,59.854248 C49.6040234,58.6548517 49.5313588,56.3137739 48.3783221,52.8310145 Z" id="路径" fill="#DBD9E0"></path>
                <path d="M39.7657471,48.1986387 C42.1199951,47.4424435 43.3566895,48.3277588 44.2994385,49.0095215 C45.1164876,49.6003825 47.3210569,51.4817573 48.6799113,52.7519313 L49.8074177,53.8296189 C51.8488079,55.7365496 57.4105966,60.7059304 58.2209473,61.5502319 C58.8260091,62.1806437 59.4941406,63.1124674 60.2253418,64.3457031 C56.0643717,66.1526693 51.9892578,67.2735189 48,67.708252 L46.8104012,67.8200886 C40.9205956,68.2927503 33.1710559,67.8043685 31.0174561,67.3660889 C28.8507511,66.9251422 28.2063212,65.8822275 28.0919519,65.1929727 L28.0764771,65.0681152 C28.0212402,64.3867188 27.9482422,63.5040894 28.8682861,62.2990723 C29.7883301,61.0940552 31.7487183,60.3936157 32.807373,60.0601807 C33.8660278,59.7267456 34.9157715,59.6890259 36.1808472,58.7455444 C37.8701782,57.5523071 37.3683472,55.7510986 37.1218262,53.4146729 C36.8753052,51.0782471 37.2111816,49.6446533 37.277832,49.4589844 L37.3184328,49.3599024 C37.4226679,49.1618298 37.7832224,48.8354347 39.7657471,48.1986387 Z M42.1512598,48.8421774 C41.6841472,48.6194494 40.7248817,48.847006 39.9565726,49.0867718 L39.0327148,49.4008179 C38.4228516,49.614502 38.0460205,49.7244873 37.8662109,50.4353027 C37.6864014,51.1461182 38.145752,53.616333 38.3920898,55.3251953 C38.6384277,57.0340576 37.765625,58.423584 37.3346291,59.2590332 C36.9036331,60.0944824 34.8186035,60.6677246 33.3549805,61.1311035 C31.8913574,61.5944824 30.6430664,62.3371582 29.9989647,63.4798584 C29.3548629,64.6225586 31.0996094,63.5629883 33.1338501,63.5656171 C35.1680908,63.568246 40.7568359,65.3261719 41.7697754,65.5052054 C42.7827148,65.6842389 42.9187012,65.182373 44.136426,64.4346118 C45.29006,63.7262064 49.8110098,63.794024 51.8280321,63.7163936 L52.1400113,63.7019504 C53.9562921,63.5999457 55.0715332,63.4084473 55.4941406,62.333252 C55.7758789,61.6164551 54.2441813,59.2510986 50.8990479,55.2371826 L49.9557909,54.5225406 C48.9154862,53.7266246 48.0857478,53.0631242 47.4665756,52.5320394 L47.214108,52.3125387 C46.0162286,51.2555706 42.8519287,49.1762695 42.1512598,48.8421774 Z" id="形状" fill="#C3C0C8"></path>
                <path d="M39.7657471,48.1986387 C42.1199951,47.4424435 43.3566895,48.3277588 44.2994385,49.0095215 C45.1164876,49.6003825 47.3210569,51.4817573 48.6799113,52.7519313 L49.8074177,53.8296189 C51.8488079,55.7365496 57.4105966,60.7059304 58.2209473,61.5502319 C58.8260091,62.1806437 59.4941406,63.1124674 60.2253418,64.3457031 L59.4386693,64.6795772 L59.4386693,64.6795772 L58.9284446,64.0236849 C57.3775099,62.0549382 56.1896918,60.7021539 55.3649902,59.965332 L54.1599162,58.8703535 C53.0303663,57.833824 51.6857087,56.5828677 50.8624154,55.8351725 L50.2821045,55.3175049 C49.5713968,54.7076703 46.9974754,52.051988 45.4366888,50.8203338 L43.6396472,49.4723642 C42.942316,48.9620816 42.408384,48.6352915 41.9641651,48.6445312 C41.2423096,48.6595459 39.8692776,48.7895508 38.8088454,49.2941895 C37.7484131,49.7988281 37.649292,50.53532 37.7612305,52.0222376 C37.8731689,53.5091553 38.3010254,55.1957936 38.2081299,56.2361414 C38.1152344,57.2764893 37.1394043,59.4281006 36.0061035,59.965332 C34.8728027,60.5025635 33.0044831,60.7454834 31.6902909,61.3242187 C30.3760986,61.9029541 28.8544922,63.0906982 28.8890381,64.2883301 C28.910269,65.0243594 28.6735461,65.4299845 28.1788694,65.5052054 C28.1168456,65.345395 28.0870259,65.1982449 28.0764771,65.0681152 L28.0520582,64.7100867 C28.0244921,64.0835537 28.1015828,63.3032532 28.8682861,62.2990723 C29.7883301,61.0940552 31.7487183,60.3936157 32.807373,60.0601807 C33.8660278,59.7267456 34.9157715,59.6890259 36.1808472,58.7455444 C37.8701782,57.5523071 37.3683472,55.7510986 37.1218262,53.4146729 C36.8753052,51.0782471 37.2111816,49.6446533 37.277832,49.4589844 L37.3184328,49.3599024 C37.4226679,49.1618298 37.7832224,48.8354347 39.7657471,48.1986387 Z" id="路径" fill="#D4462A"></path>
                <path d="M34.9031372,59.854248 C36.2954305,59.3129069 37.1546427,58.5124715 37.4807739,57.4529419 C37.9699707,55.8636475 37.4271851,53.992981 37.5340576,54.112915 C37.6409302,54.2328491 37.9347534,56.0166626 37.885437,56.4241333 C37.8361206,56.831604 37.7194214,57.555542 37.4266968,58.0419922 C37.1339722,58.5284424 36.367981,59.3225098 35.7427368,59.5802612 C35.3259074,59.7520955 35.0460409,59.8434245 34.9031372,59.854248 Z" id="路径-557" fill="#FA7D50"></path>
                <path d="M37.3764648,51.2019653 C37.2316895,51.2047729 37.4962158,49.6212769 37.6598511,49.4008179 C37.8234863,49.1803589 39.0805664,48.5467782 39.7014771,48.3827336 C40.3223877,48.218689 41.7749023,47.9680176 42.3016111,48.1986387 C42.8283198,48.4292599 44.4010408,49.3509521 45.4846802,50.2080078 C46.5683196,51.0650635 49.1526422,53.4037476 48.9232755,53.3294067 C48.6939087,53.2550659 45.7412599,50.5417319 45.0776612,50.0617595 C44.4140625,49.5817871 42.7143061,48.5308838 42.3016111,48.3605957 C41.888916,48.1903076 40.31073,48.2928467 39.6164551,48.5637817 C38.9221802,48.8347168 37.963623,49.3088989 37.8070068,49.5022583 C37.6503906,49.6956177 37.5212402,51.1991577 37.3764648,51.2019653 Z" id="路径-558" fill="#FA7D50"></path>
                <path d="M62.6586914,63.62146 C64.0893555,60.4704183 65.5717367,57.895752 67.105835,55.8974609 C69.4069824,52.9000244 74.2947998,48.4377441 77.0379639,46.890625 C79.7811279,45.3435059 80.7657471,45.5591467 81.5126953,45.9953039 C82.2596436,46.4314611 84.3278809,48.1806641 84.5187988,48.4366455 C84.7097168,48.692627 85.1018066,50.3752441 85.0582275,51.0178223 C85.0146484,51.6604004 85.4360352,54.1623385 85.4387207,54.5837327 C85.4405111,54.8646622 85.3822835,55.4154651 85.2640381,56.2361414 C85.509318,56.5081572 85.6307216,56.7776693 85.6282487,57.0446777 C85.6241455,57.4451904 85.5712891,58.2956543 85.4387207,58.4245605 C85.3061523,58.5534668 85.2728271,58.5003471 85.2640381,58.8803615 C85.255249,59.260376 85.4619141,60.7087402 85.2640381,61.1119385 C85.0661621,61.5151367 84.5720215,62.1196289 83.3786621,62.2689209 C82.5830892,62.3684489 75.6764323,62.8192952 62.6586914,63.62146 Z" id="路径-525" fill="#7F7F85"></path>
                <path d="M63.2288818,63.4798584 C64.3149007,60.5195671 65.6246745,58.1049948 67.1582031,56.2361414 C69.4584961,53.4328613 74.8977051,48.4360352 77.6408691,46.888916 C80.3840332,45.3417969 80.927002,45.7495117 81.6739502,46.1856689 C82.4208984,46.6218262 84.3278809,48.1806641 84.5187988,48.4366455 C84.7097168,48.692627 85.1018066,50.3752441 85.0582275,51.0178223 C85.0146484,51.6604004 85.4360352,54.1623385 85.4387207,54.5837327 C85.4405111,54.8646622 85.3822835,55.4154651 85.2640381,56.2361414 C85.509318,56.5081572 85.630683,56.7776693 85.628133,57.0446777 C85.6241455,57.4451904 85.5712891,58.2956543 85.4387207,58.4245605 C85.3061523,58.5534668 85.2728271,58.5003471 85.2640381,58.8803615 C85.255249,59.260376 85.4619141,60.7087402 85.2640381,61.1119385 C85.0661621,61.5151367 84.5720215,62.1196289 83.3786621,62.2689209 C82.5830892,62.3684489 75.8664958,62.7720947 63.2288818,63.4798584 Z" id="路径-525" fill="#DADADA"></path>
                <path d="M81.493388,46.0802385 L81.5217958,46.2090886 L80.2821762,47.0810888 C72.8599787,52.3745189 69.5470614,56.1157185 70.3434245,58.3046875 C71.6025391,61.765625 76.3046273,59.0927128 77.9446615,59.3147786 C79.5846957,59.5368445 81.1132931,61.2443274 81.2005267,61.5788694 C81.2223265,61.6624716 80.0976206,62.0699828 78.3731411,62.608502 L64.2251578,63.4240041 C63.8972585,63.4424068 63.5651665,63.4610249 63.2288818,63.4798584 C64.3149007,60.5195671 65.6246745,58.1049948 67.1582031,56.2361414 C69.4584961,53.4328613 74.8977051,48.4360352 77.6408691,46.888916 C80.1595925,45.4683794 80.8234239,45.6958808 81.493388,46.0802385 Z" id="路径" fill="#D6D4D4"></path>
                <path d="M81.6739502,46.1856689 C82.2510853,46.5226691 83.5207603,47.529909 84.1562995,48.0885464 L83.3125013,47.6938256 C81.8606374,47.0275126 80.931602,46.6764587 80.5217958,46.6386638 C79.7010823,46.5629726 76.109267,48.8301674 74.5000835,50.2121057 L73.2368206,51.3656127 C71.4763559,52.9905291 68.7655838,55.5497131 67.5138592,57.21875 C66.5816249,58.4617817 65.5020677,60.5279854 64.2751875,63.4173611 L63.2288818,63.4798584 L63.2288818,63.4798584 C64.3149007,60.5195671 65.6246745,58.1049948 67.1582031,56.2361414 C69.4584961,53.4328613 74.8977051,48.4360352 77.6408691,46.888916 C80.3840332,45.3417969 80.927002,45.7495117 81.6739502,46.1856689 Z" id="路径" fill="#CCCCD3"></path>
                <path d="M85.628133,57.0446777 L85.6062332,57.5585974 C85.585759,57.8473885 85.5501107,58.1502051 85.4952931,58.3153 L84.9849701,58.4294434 L85.1835938,56.706998 L85.4315805,56.4498363 C85.5644961,56.6494785 85.6300136,56.847759 85.628133,57.0446777 Z" id="路径" fill="#413E3E"></path>
                <path d="M85.352747,53.791692 L85.3220034,53.8843721 L85.2637065,54.0236466 C85.2546563,54.0400849 85.2460327,54.0529338 85.2379761,54.0618896 C85.1574097,54.1514486 85.0496928,54.0516762 84.9148254,53.7625726 L85.075609,54.3559507 C85.1651091,54.6622307 85.2192315,54.7899002 85.2379761,54.738959 C85.2570604,54.6870945 85.3383939,54.5758138 85.4305666,54.4549011 L85.4387207,54.5837327 L85.4387207,54.5837327 L85.425557,54.8906209 C85.4023388,55.2014372 85.3484991,55.649944 85.2640381,56.2361414 L85.2786282,56.2550013 C85.1918709,56.3033021 85.1117357,56.3330383 85.0584106,56.338623 C84.895813,56.3556519 84.7125854,56.1160889 84.5916748,55.7722778 C84.5257235,55.5847445 84.5137324,54.9769161 84.5557014,53.9487925 L84.5916748,53.2011108 L84.9148254,53.6069946 L84.8017578,52.8403931 L84.5916748,51.3248901 L85.0626092,51.2267742 L85.0626092,51.2267742 C85.0755101,51.8063002 85.2459719,52.9826722 85.352747,53.791692 Z" id="路径" fill="#C76050"></path>
                <path d="M85.3640747,60.9797668 C85.335144,61.2199605 84.9985453,61.3803101 84.3542786,61.4608154 C83.3878784,61.5815735 82.6665344,61.6968079 82.1169739,61.546051 C81.5674133,61.3952942 80.7005615,60.6463318 79.9913635,60.34198 C79.2821655,60.0376282 76.8270874,60.0582275 72.2895508,60.6848145 C67.7520142,61.3114014 61.8314819,62.616394 60.2855835,63.0466919 C58.7396851,63.4769897 58.6966931,63.6694336 58.251911,63.6312256 C57.8071289,63.5930176 56.2666016,63.7479858 55.27948,64.0887451 C54.6213989,64.315918 54.0592651,64.496521 53.5930786,64.6305542 C46.6506958,66.1862996 42.9436849,66.8741862 42.4720459,66.6942139 C41.7645874,66.4242554 42.5723267,66.4032593 39.4474487,65.5750732 C36.3225708,64.7468872 33.2486572,63.9125977 31.4395752,63.8913574 C29.6304932,63.8701172 29.2492065,63.7716675 28.8224487,64.0070801 C28.3956909,64.2424927 28.2272949,64.0352173 27.9408569,64.2560425 C27.6544189,64.4768677 25.4761963,66.1291504 25.2626343,66.3171387 C25.0490723,66.505127 25.3348389,67.0297241 25.6708984,67.5557251 C26.006958,68.0817261 26.3674316,68.6725464 27.8311157,68.7158203 C28.8069051,68.7446696 33.655009,68.5408732 42.3754272,68.1044312 L59.3062134,67.3166504 C63.2459106,66.3781738 66.0922445,65.9148966 67.8452148,65.9268188 C70.4746704,65.9447021 79.9072266,65.5258789 82.2888794,65.2164917 C84.6705322,64.9071045 85.6907349,63.9619141 85.8190308,63.684845 C85.9473267,63.4077759 85.7622375,61.7441406 85.7325439,61.4608154 C85.7127482,61.271932 85.5899251,61.1115824 85.3640747,60.9797668 Z" id="路径-526" fill="#CC392A"></path>
                <path d="M36.71369,64.8587502 L38.203093,65.245415 L38.203093,65.245415 L40.0747666,65.7449852 C40.5480487,65.8763809 40.9021271,65.9831555 41.1707749,66.0718566 L37.2437495,66.3370429 C36.3066684,66.4061047 35.5465874,66.4859218 34.3787249,66.666761 L32.7986257,66.9191929 C29.7706272,67.3736374 26.606215,67.5531584 26.3266602,66.6821289 C26.0227962,65.7353577 28.2160646,64.6377782 29.3953858,64.4346118 L29.607205,64.417685 C30.5424631,64.3851126 33.691632,64.5856846 36.71369,64.8587502 Z" id="路径" fill="#BF372A"></path>
                <path d="M53.7498779,64.6167603 C53.9547729,64.6465454 54.4713745,64.776123 54.8701172,65.0522461 L55.3075264,65.3401102 C56.1109521,65.8588996 57.6192139,66.8057727 57.7200928,66.8391446 C57.8377848,66.8780784 60.1807872,66.3896458 61.0326215,66.2579601 L61.6309512,66.1709196 C62.5279829,66.0280355 64.163208,65.7312012 65.3286743,65.6118774 L66.1257124,65.5388495 C67.6786404,65.4078176 70.2139703,65.2414397 71.627898,65.2084307 L72.8935744,65.1803282 C75.1071515,65.0987429 79.7607228,64.8137765 81.1925539,64.6439448 L82.4640211,64.4746313 C83.6680342,64.3122538 85.1696635,64.0638568 85.8571227,63.5019763 L85.8344284,63.6396895 C85.8298314,63.6574317 85.8247415,63.672512 85.8190308,63.684845 C85.6907349,63.9619141 84.6705322,64.9071045 82.2888794,65.2164917 C80.1820327,65.4901804 72.5575412,65.8495076 69.0058502,65.9164058 L67.8452148,65.9268188 C66.3113658,65.9163869 63.9404103,66.2697795 60.7323484,66.9869967 L59.3062134,67.3166504 L31.1638659,68.6269217 C29.3560037,68.6984265 28.245087,68.7280594 27.8311157,68.7158203 C26.5926138,68.6792039 26.1439845,68.2505573 25.8316647,67.8008675 L25.6708984,67.5557251 C25.3348389,67.0297241 25.0490723,66.505127 25.2626343,66.3171387 L27.9408569,64.2560425 L27.9408569,64.2560425 C28.1628464,64.084903 28.3139368,64.1708913 28.5693384,64.1086692 L27.6364746,64.8847656 L27.6364746,64.8847656 L26.5388031,65.7159923 C26.0898895,66.0626193 25.6806641,66.403262 25.6792603,66.5113137 C25.6764526,66.727417 25.8874512,67.9368896 26.8776245,68.1323242 C27.8677979,68.3277588 32.4042099,68.0570068 34.2967705,67.90802 L36.0903148,67.7549108 C37.954264,67.5858142 40.0995933,67.3627705 40.4216919,67.2487183 C40.8588257,67.0939331 41.4726882,66.5109696 41.9432533,66.5113137 L42.1344009,66.5175146 C42.2085249,66.5719218 42.2902684,66.6248495 42.4720459,66.6942139 C42.8523999,66.8393528 45.336924,66.4200675 49.9256182,65.4363577 L53.5739108,64.6357623 L53.7201626,64.6173942 C53.7348911,64.6162328 53.7447962,64.6160215 53.7498779,64.6167603 Z" id="路径" fill="#9F1F09"></path>
                <path d="M30.175309,63.9225099 L30.561513,63.8739404 L31.4395752,63.8913574 L31.4395752,63.8913574 C32.8868408,63.9083496 35.1435986,64.4456934 37.5883486,65.0839824 L40.1045143,65.7532552 C41.3861418,66.1100424 41.7801823,66.2834348 41.9790253,66.4076639 C42.0193876,66.6520648 41.2731942,66.9610686 40.6802368,67.1462402 C40.3250965,67.2571452 39.1128177,67.4022862 37.977091,67.524543 L35.5472181,67.7805231 C34.1523226,67.9104873 28.0354321,68.3696899 27.6139526,68.3205566 C27.3672673,68.2917997 26.9759124,68.0653188 26.7096615,67.8971754 L26.612946,67.8339404 L26.7900448,67.8996209 C27.1385269,68.011344 27.6680102,68.1094754 28.0753557,68.1698112 L28.5292969,68.2266235 L28.7346636,68.2205913 C30.1144503,68.1375106 37.55649,67.3490652 39.1276086,67.2151891 L39.3805253,67.1965332 C40.0697054,67.1675415 40.6251831,66.903054 40.7096558,66.6147461 C40.7880947,66.3470316 39.3818661,66.0732268 38.5331219,65.8423018 L38.3480835,65.7897949 C37.5394287,65.5485229 33.5599976,64.6502075 31.6902909,64.2947388 C29.8205842,63.93927 28.5518676,64.5233022 28.6210327,64.4193726 L28.7014408,64.3551292 C28.8796022,64.2439544 29.3474312,64.0445187 30.175309,63.9225099 L30.175309,63.9225099 Z" id="路径" fill="#FFB4A8"></path>
                <path d="M85.3640747,60.9797668 L85.4346688,61.0241681 L85.4346688,61.0241681 L85.3892699,61.1688957 L85.3065712,61.3358154 C85.1144852,61.6436157 84.7070923,61.7904663 84.3883057,61.9237061 C84.069519,62.0569458 82.6501465,62.2051392 82.4888306,62.1737061 C82.4120135,62.1587379 82.2398341,62.0363354 81.9722925,61.8064986 L81.6054688,61.479126 L81.1089903,60.9983223 C81.4849074,61.2437188 81.8409592,61.470334 82.1169739,61.546051 C82.6665344,61.6968079 83.3878784,61.5815735 84.3542786,61.4608154 C84.9985453,61.3803101 85.335144,61.2199605 85.3640747,60.9797668 Z" id="路径" fill="#FF7962"></path>
                <path d="M86,68 C85.9571126,67.1148275 85.9309082,66.5332438 85.9213867,66.255249 C85.9118652,65.9772542 85.8926766,65.7629395 85.8638208,65.6123047 C85.999773,64.2994792 86.0189616,63.5886637 85.9213867,63.4798584 C85.6802979,63.8392944 85.3786621,64.1343384 83.8644409,64.3974609 C82.3502197,64.6605835 79.3551025,65.0533447 74.0274658,65.2692871 C68.6998291,65.4852295 64.8122559,65.9124756 62.026123,66.3780518 C60.1687012,66.6884359 58.532583,66.9511719 57.1177685,67.1662598 L62.6033936,70.6114502 L62,72 C64.785319,72 66.7910156,72 68.0170898,72 C69.8562012,72 80.1293945,71.2767334 82.6412354,70.338501 C84.3157959,69.7130127 85.4353841,68.9335124 86,68 Z" id="路径-527" fill="#D8D8D8"></path>
                <path d="M84.4405642,69.4794234 C83.9365251,69.7923509 83.3367489,70.0787101 82.6412354,70.338501 C80.3026249,71.2120277 71.2362785,71.8992167 68.5126269,71.9898466 L68.0170898,72 L62.2077685,71.9994234 L62.3452699,71.4676514 L70.4496477,71.2849464 C70.544639,71.2849464 70.6007692,71.2748133 70.7301025,71.2804871 L70.8348083,70.7948914 L71.2278442,70.7784729 L71.2661743,71.2785645 L73.104361,71.1926054 C77.974375,70.8924359 81.6875097,70.3424135 84.243765,69.5425381 L84.4405642,69.4794234 Z" id="路径" fill="#C7C7C7"></path>
                <path d="M86.1861572,66.75 L85.9441919,66.8108437 L85.9551728,67.0536808 L85.9551728,67.0536808 C85.2249794,67.2600682 84.3294468,67.4878921 83.2718296,67.7399292 C82.0405737,68.0333455 79.9387741,68.2556518 76.9664307,68.4068481 L80.031133,68.0772193 L80.031133,68.0772193 L80.536438,68.027832 C81.5111694,67.9345703 83.3944092,67.5086263 86.1861572,66.75 Z" id="路径" fill="#BABABA"></path>
                <path d="M85.6797414,65.842848 L85.8931972,65.8178515 L85.9122621,66.0848059 L85.7645059,66.0942692 L85.7645059,66.0942692 L85.6282487,66.1102399 C85.0996094,66.1881104 80.048584,67.2556653 78.7713623,67.5290527 C77.4941406,67.8024402 76.0563965,68.2290591 74.7817383,68.9185457 C73.5070801,69.6080322 72.2523212,70.1549566 71.6350098,70.2939453 C71.4292393,70.3402749 71.2432175,70.3692457 71.0453732,70.3900975 L68.7887137,70.5302364 C67.682814,70.5868813 65.5945726,70.6753012 62.5239893,70.7954962 L62.6033936,70.6114502 L57.1177685,67.1662598 L57.9295922,67.0413905 L57.9295922,67.0413905 L60.2319692,68.6725955 C60.4136141,68.7966563 60.5385499,68.8786397 60.6067764,68.9185457 L62.3585813,69.9906332 C62.782574,70.243472 63.138362,70.4439372 63.2288818,70.4592728 L63.5525777,70.4624361 C64.8117905,70.444386 69.2804108,70.2628565 70.2794189,70.2231328 C71.2942844,70.1827786 72.8026957,69.8699422 73.7372481,69.3708801 L74.0587209,69.1751709 C74.8507307,68.6185303 76.7863046,67.9338188 78.086447,67.5678357 L78.4556477,67.4680494 C79.6595566,67.1577422 84.4143547,66.0135009 85.6797414,65.842848 L85.6797414,65.842848 Z" id="路径" fill="#B5B5B5"></path>
                <path d="M63.2288818,70.8164062 C58.2148844,67.5484212 55.0911458,65.5484212 53.857666,64.8164062 C52.0074463,63.7183838 50.3356201,62.4219971 47.7704102,62.7965088 C45.2052002,63.1710205 44.2297363,64.4006348 43.4733887,65.2879639 C42.717041,66.175293 42.1876221,66.9443359 41.4626465,67.1763916 C40.7376709,67.4084473 31.7418213,68.4481177 30.0357666,68.652832 C28.3297119,68.8575464 26.6044922,69.0610352 25.7073975,67.7399292 C24.8103027,66.4188232 24.5153809,65.203125 23.6420898,64.7749023 C22.7687988,64.3466797 16.7750244,63.5546875 14.541626,62.6123047 C12.3082275,61.6699219 11.3860212,61.098938 11.279541,60.5003052 C11.1763567,60.3243408 10.4460449,60.9915161 10.3773193,61.1868286 C10.3085938,61.3821411 10.5144653,62.0654297 10.3773193,62.168335 C10.2401733,62.2712402 10.2570496,63.1866455 10.2136841,63.3735962 C10.1847738,63.49823 10.1118876,63.7070312 9.99502563,64 C9.99502563,64.5361938 9.99502563,64.9180908 9.99502563,65.1456909 C9.99502563,65.4870911 9.86071777,66.9046734 12.0324707,68.0134939 C14.2042236,69.1223145 18.7841797,70.5617676 20.8469238,70.9572754 C22.909668,71.3527832 28.0114746,72 32,72 C34.6590169,72 44.9761963,72 62.9515381,72 C62.8135783,71.836792 62.7378438,71.7002157 62.7243347,71.590271 C62.7108256,71.4803263 62.7271118,71.3354289 62.7731934,71.1555786 L63.2288818,70.8164062 Z" id="路径-528" fill="#D9D8DD"></path>
                <path d="M41.2086492,68.8391446 C39.1542969,70.3740234 31.8356935,72.3542146 29.3953858,70.7493729 C27.5505132,69.5361126 24.6681554,68.8187173 25.6821704,67.7029515 L25.7073975,67.7399292 C26.4923553,68.8958969 27.9113464,68.8845968 29.3967526,68.7265671 L36.380681,67.8923251 C38.8350942,67.5886647 41.1126583,67.2884185 41.4626465,67.1763916 C42.0486976,66.9888039 42.5069587,66.4503123 43.0606062,65.782094 C42.8553401,67.0518205 42.2369228,68.0708852 41.2086492,68.8391446 Z" id="路径" fill="#D1D0D3"></path>
                <path d="M11.2236871,60.4710739 L11.279541,60.5003052 C11.3860212,61.098938 12.3082275,61.6699219 14.541626,62.6123047 C16.7750244,63.5546875 22.7687988,64.3466797 23.6420898,64.7749023 C24.5153809,65.203125 24.8103027,66.4188232 25.7073975,67.7399292 C26.4923553,68.8958969 27.9113464,68.8845968 29.3967526,68.7265671 L36.380681,67.8923251 C38.8350942,67.5886647 41.1126583,67.2884185 41.4626465,67.1763916 C41.9459635,67.0216878 42.3423665,66.628323 42.7770363,66.1203568 L43.7699671,64.9415095 C44.4984421,64.1065922 45.5258514,63.1242065 47.7704102,62.7965088 C49.6943176,62.515625 51.1156967,63.1746216 52.4867035,63.9849033 L54.824585,65.4077734 C55.7000016,65.9530254 56.9413724,66.7437592 58.5486973,67.779975 L63.2288818,70.8164062 L62.7731934,71.1555786 C62.7488725,71.2504996 62.7328512,71.3356845 62.7251293,71.4111333 L57.4276641,72 L57.4276641,72 L32,72 C28.2109009,72 23.4170654,71.4158868 21.1786094,71.018377 L20.8469238,70.9572754 C20.2147004,70.8360537 19.3460102,70.6167639 18.382667,70.338983 C18.8067528,69.1512329 18.7760225,67.7458626 18.2390137,67.4680494 C17.4907227,67.0809326 19.4848633,67.4798584 19.78125,67.7399292 C20.0776367,68 20.7297363,69.4360352 20.9669189,69.4876709 L21.4398986,69.5524172 C22.2446087,69.6488839 23.7668833,69.8014573 23.8764648,69.7536621 C24.0189209,69.6915283 24.6853027,68.9422607 25.0875244,68.9597168 L27.7244097,69.240307 C29.6523761,69.4332549 32.3402448,69.6552037 34.7955322,69.6582031 L37.1906919,69.639181 C40.6734021,69.5855365 43.8383247,69.4469085 44.2441406,69.5968018 C44.7421875,69.7807617 45.3128662,70.4990678 45.6531982,70.5378418 L46.4366068,70.5486027 C49.4539797,70.5631221 60.1260408,70.5227886 60.9321289,70.5378418 C61.550944,70.5493978 62.1802979,70.6199082 62.8201904,70.7493729 L54.7351576,65.6656204 C53.9845427,65.202071 53.5323731,64.9303928 53.3786489,64.8505859 L53.0386508,64.6856541 C51.9656136,64.1890944 49.3440941,63.1449564 47.9715576,63.4465332 C46.4160163,63.7883203 44.4255448,65.1472562 43.402958,66.0990797 L42.7204501,66.7318236 C42.289422,67.1190843 42.0444197,67.2819364 41.6573691,67.3624534 L41.2324694,67.4261423 C39.5654755,67.6505696 31.1804139,68.7623122 29.8464355,68.8354492 C28.417173,68.9138103 27.2127686,68.9697266 26.3725586,68.5378418 C25.5323486,68.105957 25.1015625,66.9898682 24.869873,66.4233398 C24.6381836,65.8568115 23.0087891,65.0147705 21.4074707,64.6416016 C19.8061523,64.2684326 17.0691051,63.9062516 14.9376221,63.1209717 L14.1648311,62.8281994 C12.4279759,62.1500022 11.1865692,61.5130463 11.095459,61.0574951 C11.0642396,60.901398 11.0810755,60.7125699 11.1459667,60.4910108 L11.2236871,60.4710739 Z" id="路径" fill="#F1F1F1"></path>
                <path d="M38.7529982,70.4592728 L43.5915132,70.2231328 L44.7090983,71.9990637 L32,72 C29.0413243,72 25.4700516,71.6438608 22.9810983,71.2985087 L23.6382854,70.8848662 C24.3492839,70.4458941 24.8654651,70.1594375 25.188946,70.0242142 C25.7591626,69.7858492 30.2805133,69.9308687 38.7529982,70.4592728 Z" id="路径" fill="#000000"></path>
                <path d="M11.3421021,62.4903564 C12.1258545,62.9178467 14.6607666,64.0168872 16.102478,64.430603 C17.5441895,64.8443189 20.1124878,65.3748779 21.9362183,65.5964355 C22.3916016,65.6470947 22.3118896,65.9996338 21.9362183,65.9978308 L21.723363,65.9907147 C20.9991518,65.9553489 18.8988181,65.7771283 16.8719482,65.2106323 C14.5748291,64.5686035 11.9541102,63.3863525 11.1719099,62.9777832 C10.8584089,62.8140312 10.5652294,62.6272854 10.2923712,62.4175458 C10.3059691,62.3318805 10.3221808,62.2624387 10.342818,62.2171535 L10.3773193,62.168335 C10.4374474,62.1232189 10.4316422,61.9665442 10.4119513,61.7883435 C10.6043093,61.9872617 10.9107033,62.2550541 11.3421021,62.4903564 Z" id="路径" fill="#78757A"></path>
                <path d="M10.4838374,61.7188281 C10.72449,61.9676879 11.0254784,62.203749 11.3899863,62.4025664 C12.3342231,62.9175913 14.8613069,63.9703986 16.130061,64.3344824 C17.637277,64.7669955 20.2044616,65.2853162 21.9472746,65.4970486 C22.2033599,65.5255369 22.36563,65.6540406 22.3473095,65.8273207 C22.3335887,65.9570952 22.2200243,66.0530359 22.0603954,66.0856538 L21.932877,66.0977835 L21.7184855,66.0905957 C20.3621712,66.024362 18.4870565,65.7658762 16.8450305,65.3069414 C14.9479141,64.7767106 12.3900905,63.7268994 11.1256119,63.0664201 C10.8866543,62.9416046 10.6592434,62.8035994 10.4274508,62.6123499 L10.2841741,62.4801954 C10.2987331,62.3635668 10.3183945,62.265558 10.3464053,62.2095191 L10.3773193,62.168335 C10.4409943,62.1205575 10.4307279,61.9476719 10.4083324,61.7566018 L10.4838374,61.7188281 Z M10.526,62.034 C10.5249362,62.1024735 10.515469,62.1516332 10.4959669,62.1857122 L10.4338145,62.2586221 C10.4188393,62.2914827 10.4042754,62.3504376 10.3533147,62.3382622 C10.6215396,62.5444403 10.909816,62.728063 11.2182079,62.8891463 C12.470979,63.5435105 15.0160635,64.5880931 16.898866,65.1143233 C18.3214836,65.511935 19.9241102,65.758046 21.2009219,65.8572403 L21.7267043,65.8907706 L21.9366982,65.8978436 C22.0662956,65.898454 22.1438524,65.8494749 22.148418,65.8062923 C22.1526035,65.7667055 22.0856379,65.7136746 21.9241583,65.6957057 C20.1699051,65.4825886 17.5923387,64.9621718 16.0748951,64.5267237 C14.7916758,64.158489 12.2510378,63.1000348 11.2942178,62.5781465 L11.0192088,62.4143804 L11.0192088,62.4143804 L10.768738,62.2381671 L10.526,62.034 Z" id="形状" fill="#E1E1E1" fill-rule="nonzero"></path>
                <path d="M10.475708,64.0264893 C10.8180542,64.2808838 13.1398315,65.3897705 14.303894,65.8354492 C15.4679565,66.2811279 19.1216431,67.0461426 19.5023804,67.3322754 C19.8831177,67.6184082 20.3272705,68.1307373 20.4134521,68.9185457 C20.4709066,69.4437512 20.4366455,69.8123074 20.3106689,70.0242142 C20.2115479,68.9099269 20.0747681,68.2706299 19.9003296,68.1063232 C19.6386719,67.8598633 19.0163574,67.3671265 17.7420654,67.0692749 C16.4677734,66.7714233 15.4715576,66.5072021 14.0413818,65.9939575 C12.6112061,65.4807129 10.7802124,64.5095825 10.3391724,64.237793 C10.2117608,64.159276 10.104322,64.0621577 10.016856,63.9464382 L10.1571949,63.5656171 L10.1571949,63.5656171 C10.2392598,63.7794726 10.346708,63.9306304 10.475708,64.0264893 Z" id="路径" fill="#C2B9C0"></path>
                <path d="M10.1102358,63.7019504 C10.3004203,63.9677654 10.4587434,64.142982 10.5852051,64.2276001 C11.0328979,64.5271606 13.6885376,65.7182617 14.3338623,65.9978239 C14.979187,66.2773861 17.4341431,66.9309082 18.5414429,67.2064209 C19.6487427,67.4819336 19.9733276,68.0008545 20.147583,68.4210205 C20.2739551,68.72573 20.2213663,69.4786321 20.1680501,69.9267578 C20.146599,70.1070557 20.2851895,70.2452664 20.5838216,70.34139 C20.694843,70.6580551 20.7046629,70.8164866 20.6132812,70.8166844 C20.327961,70.8171973 19.505397,70.5138347 19.2637086,70.5818026 C16.9696352,69.9727315 13.7489111,68.8898479 12.0324707,68.0134939 C10.2036261,67.0797503 10.0101044,65.927051 9.9945868,65.3824451 L9.99502563,64 L10.1102358,63.7019504 Z" id="路径" fill="#D7D2DB"></path>
                <path d="M20.3283691,68.9185457 C20.6003418,69.3827607 20.7713216,69.6480713 20.8413086,69.7144775 C20.9462891,69.8140869 23.8361816,70.0246582 24.1036377,69.9005127 C24.3710937,69.7763672 24.3815918,69.5307617 24.7133789,69.3127441 C25.045166,69.0947266 25.0218506,69.2052002 26.0627441,69.3127441 C27.1036377,69.4202881 33.401123,69.8690186 34.6522217,69.9005127 C35.9033203,69.9320068 42.8255615,69.6751709 43.4250488,69.7144775 C44.0245361,69.7537842 44.440918,69.8634033 44.9299316,70.3911133 C45.4189453,70.9188232 46.0430908,70.7275391 46.5266113,70.7275391 C47.0101318,70.7275391 61.3782959,70.6945801 61.8491347,70.7275391 C62.1131244,70.7460185 62.4803983,70.8438174 62.9509564,71.0209359 L62.7731934,71.1555786 C62.7556623,71.2239999 62.7424436,71.2873625 62.7335372,71.3456663 L62.7243347,71.3493652 L62.723667,71.4264146 C62.7182185,71.4876861 62.718441,71.5423049 62.7243347,71.590271 C62.7378438,71.7002157 62.8135783,71.836792 62.9515381,72 L62.9515381,72 L43.2896689,71.9995457 L43.4250488,71.1298828 L42.7745361,70.9731445 L42.4426689,71.9995457 L35.2376689,71.9995457 L35.0648193,71.1298828 L34.6522217,71.1298828 L34.5176689,71.9995457 L32,72 C30.3035073,72 28.4056031,71.8829075 26.6258179,71.7178965 L26.4707031,70.2487793 L25.78125,70.2067871 L25.6747899,71.6241934 C23.6538639,71.4134435 21.8738091,71.154169 20.8469238,70.9572754 C20.829494,70.9539334 20.8118844,70.9505169 20.794098,70.9470267 C20.6987452,70.7472563 20.6764933,70.5257854 20.6734619,70.3911133 C20.6677246,70.1362305 20.3637695,70.2271729 20.3283691,70.0242142 C20.3047689,69.8889085 20.3047689,69.5203523 20.3283691,68.9185457 Z" id="形状结合" fill="#3C3A3A"></path>
                <path d="M81.7897451,70.5853991 C78.4728777,71.3725437 70.2824933,71.9584092 68.2147089,71.9978778 L62.1358291,72.0030172 L62.2077685,71.734314 L68.1699829,71.734314 C69.8314457,71.6422729 70.6853784,71.5799357 70.731781,71.5473022 C70.7781836,71.5146688 70.8211625,71.2854614 70.8607178,70.8596802 L71.1794434,70.8368835 L71.2189331,71.4093018 C71.2250061,71.5690002 71.4173283,71.5391947 71.4900818,71.5406189 L74.9568393,71.3582778 L76.4920044,71.2436962 C77.2722215,71.1795528 78.7691502,70.9966403 80.9827906,70.6949586 L81.7897451,70.5853991 Z" id="路径" fill="#3C3A3A"></path>
                <path d="M73.2788086,66.2355244 C73.0203247,66.0755005 71.3775024,66.2525429 69.925415,66.2355244 C68.4733276,66.2185059 66.4825439,66.3218994 65.0128784,66.5299683 C63.5432129,66.7380371 62.055542,66.7545776 61.8693848,67.1027832 C61.6832275,67.4509888 61.937561,67.7596436 61.7763672,67.7399292 C61.6151733,67.7202148 61.5248413,67.6489971 61.5752563,68.0134939 C61.6256714,68.3779907 62.0756226,68.5587769 62.4044189,68.5888062 C62.7332153,68.6188354 65.6586304,68.4182739 67.6574707,68.3997192 C69.656311,68.3811646 72.7867432,68.4793701 73.0822754,68.3997192 C73.3778076,68.3200684 73.8008423,67.7036133 73.7965152,67.2219849 C73.7920532,66.7403564 73.5372925,66.3955482 73.2788086,66.2355244 Z" id="路径-530" fill="#581011"></path>
                <path d="M71.5909326,66.3611159 L71.7861346,66.3630371 C72.332157,66.3769226 72.8991033,66.3342507 72.984375,67.1382724 C73.0696467,67.942294 72.4026489,68.2602539 71.9117737,68.3166942 C71.4208984,68.3731345 69.7342224,68.3192139 69.354126,68.3166942 C68.9740295,68.3141746 67.4595337,68.3404541 66.6938477,68.3166942 C65.9281616,68.2929344 62.8165588,68.4135437 62.6725769,68.4065552 C62.528595,68.3995667 62.6246329,68.3622973 62.6719656,68.2329027 C62.7192984,68.1035082 64.76105,68.0465092 64.917422,68.0242008 C65.0737941,68.0018925 64.9355469,67.7555542 64.8817139,67.6792908 C64.8278809,67.6030273 63.4558805,67.4865562 62.9493803,67.5615684 C62.44288,67.6365806 62.1880405,67.268355 62.4491183,67.117293 C62.7101962,66.966231 64.6959064,66.72946 65.2394244,66.6779158 C65.7829425,66.6263716 66.2601254,66.5670243 66.8083737,66.5481352 C67.356622,66.5292461 67.2450867,66.5661621 67.3495483,66.6099548 C67.4191895,66.63915 67.4739597,66.8059998 67.5138592,67.1105042 L67.5132699,67.1090074 L67.5413062,67.0003993 C67.5994479,66.7943869 67.6770757,66.6735593 67.7741896,66.6379165 L67.8243705,66.6271938 C68.0315892,66.6126979 68.5926285,66.5406726 69.3526688,66.555597 C70.1127091,66.5705214 69.9481032,66.7460335 70.0081639,66.7583935 C70.0682247,66.7707536 70.1093163,67.0846351 70.0602135,67.1881573 C70.0111107,67.2916795 68.0607738,67.2546252 67.9151482,67.2403442 C67.7695227,67.2260633 67.48172,67.3544617 67.4362488,67.3839278 C67.3907776,67.4133939 67.3756705,67.8265295 67.8238211,67.8111958 C68.2719718,67.7958621 69.8907471,67.5858111 70.1252441,67.5040588 C70.3597412,67.4223065 70.1481628,66.8096008 70.1980286,66.6792908 C70.2478943,66.5489807 70.3068237,66.4204102 70.6060486,66.4156494 C70.9052734,66.4108887 71.2401123,66.3491516 71.7861346,66.3630371 Z" id="形状结合" fill="#762121"></path>
                <path d="M70.8886108,66.5698242 C70.4365845,66.5938314 70.2323405,66.71816 70.2758789,66.9428101 C70.3411865,67.2797852 70.2929077,67.5140381 70.2758789,67.5925903 C70.2588501,67.6711426 70.3023682,67.9289043 70.4800415,68.0134939 C70.6577148,68.0980835 71.5436254,68.0616455 71.6673584,68.0073242 C71.7910914,67.9530029 71.830476,66.8820801 71.5588842,66.7237549 C71.3778231,66.6182048 71.1543986,66.5668945 70.8886108,66.5698242 Z" id="路径-533" fill="#B96A63"></path>
                <path d="M65.4162598,66.8108521 C65.3512573,66.8197021 65.0291138,66.9525757 64.960144,67.2300415 C64.9141642,67.4150187 64.9141642,67.5849813 64.960144,67.7399292 C65.0678507,68.0606893 65.171346,68.2228597 65.2706299,68.2264404 C65.4195557,68.2318115 67.206604,68.2503662 67.307251,68.2264404 C67.4078979,68.2025146 67.4371948,68.0305176 67.4506226,67.9215698 C67.4640503,67.8126221 67.5859375,67.5723877 67.4506226,67.4697876 C67.3153076,67.3671875 67.6216431,66.9415894 67.402832,66.7669678 C67.184021,66.5923462 65.4812622,66.802002 65.4162598,66.8108521 Z" id="路径-531" fill="#E4D1CB"></path>
                <path d="M71.5588842,66.4680494 C71.2745972,66.4709473 70.6758423,66.4856567 70.8886108,66.5698242 C71.1013794,66.6539917 71.4743652,66.7788086 71.3903809,66.9499512 C71.3063965,67.1210938 70.8484497,67.4102173 70.8886108,67.7399292 C70.928772,68.0696411 71.8032837,68.0493267 72.1429443,68.0134939 C72.482605,67.9776611 72.7203369,67.635239 72.7282715,67.2429735 C72.7362061,66.850708 72.491333,66.723999 72.4469604,66.5878296 C72.4025879,66.4516602 71.8431713,66.4651515 71.5588842,66.4680494 Z" id="路径-532" fill="#E4D1CB"></path>
                <path d="M61.7362671,67.6174316 C61.9835625,67.6174316 62.1209106,67.894165 62.4805908,67.8719482 C62.840271,67.8497314 64.7948608,67.7629426 64.960144,67.7455155 C65.1254272,67.7280884 67.6992798,67.54761 68.6187134,67.4680494 C69.538147,67.3884888 69.7294312,67.4152875 70.5551147,67.4226685 C71.3807983,67.4300494 70.6967504,67.7800293 70.0136719,67.8534546 C69.3305934,67.9268799 66.881897,67.8267822 66.468689,67.8719482 C66.055481,67.9171143 64.9157715,67.9605816 64.3259888,68.0134939 C63.7362061,68.0664063 62.5288696,68.3342981 62.1887817,68.249455 C61.8486938,68.1646118 61.728093,68.0393677 61.5612816,67.8719482 C61.3944702,67.7045288 61.4889717,67.6174316 61.7362671,67.6174316 Z" id="路径-534" fill="#AC7272"></path>
                <path d="M44.9672241,53.9424438 C45.1112671,53.694458 45.2609253,53.1030884 44.3505859,52.1793823 C43.4402466,51.2556763 42.1266335,49.8192139 41.9237599,49.6706543 C41.7208862,49.5220947 39.491394,49.8668213 39.1650391,50.1201782 C38.8386841,50.3735352 38.6557007,50.543457 38.8065796,51.4541016 C38.9574585,52.3647461 39.6338501,53.9870605 40.0493164,54.208374 C40.4647827,54.4296875 43.7804565,54.5045776 44.192688,54.4053345 C44.6049194,54.3060913 44.8231812,54.1904297 44.9672241,53.9424438 Z" id="路径-536" fill="#BDBCBC"></path>
                <path d="M44.9499512,53.8408813 C45.0939941,53.5928955 45.3013306,53.1651001 44.3909912,52.241394 C43.4806519,51.317688 42.1670388,49.8812256 41.9641651,49.732666 C41.7612915,49.5841064 39.5472412,49.8582764 39.2208862,50.1116333 C38.8945313,50.3649902 38.7115479,50.5349121 38.8624268,51.4455566 C39.0133057,52.3562012 39.7023315,53.9155273 40.1177979,54.1368408 C40.5332642,54.3581543 43.7631836,54.4030151 44.175415,54.303772 C44.5876465,54.2045288 44.8059082,54.0888672 44.9499512,53.8408813 Z" id="路径-536" fill="#FDF9F9"></path>
                <path d="M44.4911499,53.3499756 C44.769165,53.0877686 43.9667969,52.206543 43.3286743,51.619873 C42.6905518,51.0332031 41.9831543,50.0366821 41.7835083,49.9666748 C41.5838623,49.8966675 39.7000732,50.2158813 39.4754639,50.4631348 C39.2508545,50.7103882 39.4623413,51.5431519 39.7200317,52.3352051 C39.9777222,53.1272583 40.2640381,53.6674805 40.9508667,53.6885986 C41.6376953,53.7097168 44.2131348,53.6121826 44.4911499,53.3499756 Z" id="路径-535" fill="#49434B"></path>
                <path d="M42.5106812,52.0038452 C42.7496307,51.8331117 42.664978,51.3163452 42.2949829,51.3361816 C41.9249878,51.3560181 40.4319458,51.6172195 40.3405762,51.8349609 C40.2492065,52.0527024 40.4559326,52.3974512 40.7329712,52.4522656 C41.0100098,52.5070801 42.2717316,52.1745788 42.5106812,52.0038452 Z" id="路径-537" fill="#262424"></path>
                <path d="M43.350708,52.9927979 C43.4613444,52.6197917 43.3962809,52.4168632 43.1555176,52.3840124 C42.7943726,52.3347362 41.3297729,52.7340006 41.2420654,52.8706665 C41.1543579,53.0073324 41.2233887,53.4363354 41.6412964,53.4653931 C41.9199015,53.4847648 42.4897054,53.3272331 43.350708,52.9927979 Z" id="路径-537" fill="#262424"></path>
                <path d="M40.3179932,51.3666382 C40.7026367,51.3220825 41.8034668,51.0281372 41.8338013,50.8474731 C41.8641357,50.6668091 42.0361178,50.3930054 41.4556199,50.4026489 C40.8751221,50.4122925 40.0359497,50.6217041 39.9530029,50.8118896 C39.8700562,51.0020752 39.9333496,51.4111938 40.3179932,51.3666382 Z" id="路径-538" fill="#262424"></path>
                <path d="M55.9795552,38.656422 C55.5594699,38.9693526 54.7036802,41.2951165 54.7059843,41.9025879 C54.7069047,42.1363557 54.797626,42.4470625 54.8948449,42.6876027 L54.969289,42.860188 C55.00839,42.9431342 55.0570738,43.0345084 55.1457804,43.1948248 L55.4536422,43.7443855 L55.7275108,44.2052819 C55.9041216,44.5030821 56.0186354,44.7079563 56.0867423,44.853158 L56.1293664,44.9513903 C56.4700474,45.8233891 56.7301075,46.3256917 57.1483954,46.4922982 L57.3370715,46.543499 C57.9319819,46.6540811 58.399369,46.5051891 58.6468197,45.8256204 L58.7205326,45.5966545 C58.9313738,44.8592146 59.3652479,44.0325722 59.8031893,43.644251 L60.0735435,43.4205962 L61.2275548,42.5473949 C61.4790759,42.345608 61.4994466,42.2918556 61.5773926,42.1322021 C61.8689693,41.5349783 61.2862953,40.7068455 60.5358688,40.3401599 L59.9992676,40.0625 C59.3604901,39.7250061 58.3291919,39.1792045 57.8652954,38.9215698 L57.6245763,38.785138 C57.1085442,38.4743726 56.4399988,38.3134277 55.9795552,38.656422 Z" id="路径" fill="#707070" fill-rule="nonzero"></path>
                <path d="M56.0081286,38.7364758 C55.5880432,39.0494064 54.7718411,41.2746208 54.7741399,41.8820922 C54.7750656,42.1158599 54.8277854,42.343505 54.9250042,42.5840452 L54.9994483,42.7566306 C55.0385493,42.8395768 55.0872331,42.930951 55.1759397,43.0912673 L55.4838015,43.640828 L55.7576701,44.1017245 C55.9342809,44.3995246 56.0487947,44.6043989 56.1169017,44.7496006 L56.1595257,44.8478328 C56.5002067,45.7198317 56.7602668,46.2221342 57.1785547,46.3887408 L57.3672309,46.4399415 C57.9621412,46.5505237 58.3256774,46.3702618 58.5731281,45.690693 L58.6468409,45.4617272 C58.8576821,44.7242872 59.2613969,44.0012023 59.6993383,43.6128811 L59.9696925,43.3892263 L61.1237038,42.516025 C61.3752249,42.3142381 61.3955956,42.2604857 61.4735416,42.1008323 C61.7651184,41.5036084 61.1678769,40.7405688 60.4174505,40.3738832 L59.8808493,40.0962233 C59.2420717,39.7587294 58.2756119,39.2357599 57.8117155,38.9781252 L57.5709963,38.8416933 C57.0549642,38.530928 56.4685721,38.3934816 56.0081286,38.7364758 Z" id="路径" fill="#CDCACA" fill-rule="nonzero"></path>
                <path d="M61.024231,41.8814697 C61.1519775,41.619812 60.7296753,41.0829468 60.197937,40.8231201 C59.6661987,40.5632935 57.5274048,39.3991089 57.3130493,39.2700195 C57.0986938,39.1409302 56.5982666,38.9203491 56.3068237,39.1374512 C56.0153809,39.3545532 55.272522,41.4524536 55.2741509,41.880188 C55.2758179,42.3079224 55.5405884,42.710083 55.7797852,43.1491699 C56.0189819,43.5882568 56.4754639,44.2825074 56.6252441,44.6658814 C56.7750244,45.0492554 57.1286621,45.8887939 57.4320068,45.9434814 C57.7353516,45.9981689 57.9505547,46.078186 58.1661038,45.3242798 C58.3816528,44.5703735 58.8138428,43.7297974 59.3676147,43.2387695 C59.9213867,42.7477417 60.8964844,42.1431274 61.024231,41.8814697 Z" id="路径-540" fill="#353237"></path>
                <path d="M57.9540154,43.2946167 L58.3668213,43.6174927 C57.9593099,44.3805542 57.7488039,44.7688802 57.7353033,44.7824707 C57.7150524,44.8028564 57.5187378,44.4776001 57.5166016,44.4050293 C57.5151774,44.3566488 57.660982,43.9865112 57.9540154,43.2946167 L57.9540154,43.2946167 Z M57.2372437,42.2913818 C57.2708944,42.2613118 57.3951823,42.3575439 57.6101074,42.5800781 L57.6101074,42.5800781 L56.9540154,43.8035278 C56.7743853,43.678894 56.671814,43.5938721 56.6463013,43.5484619 C56.6080322,43.4803467 57.1867676,42.3364868 57.2372437,42.2913818 Z M58.9540154,41.1983643 L59.4315186,41.6453247 L58.9417063,42.628479 L58.7161865,42.7540283 L58.4564819,42.511228 L58.9540154,41.1983643 Z M58.1148071,40.432312 L58.4989624,40.8496704 C58.1638003,41.6223755 57.9943164,41.9929403 57.9905107,41.9613647 C57.9867051,41.9297892 57.8277588,41.8213298 57.5136719,41.6359863 L58.1148071,40.432312 Z" id="形状结合" fill="#2A0F0F"></path>
                <path d="M33.1338501,51.2813416 L33.6650391,52.4522656 C33.8027344,52.6859357 33.920695,52.8341672 34.0189209,52.8969603 C34.1662598,52.9911499 34.710083,53.0668945 34.8049316,53.0668945 C34.8997803,53.0668945 35.617981,52.7557983 35.7085571,52.6452026 C35.7689412,52.5714722 35.7984686,52.4315389 35.7971391,52.2254028 C34.0943304,50.976298 33.2407481,50.3815104 33.2363922,50.44104 C33.2320363,50.5005697 33.1978556,50.7806702 33.1338501,51.2813416 Z" id="路径-548" fill="#BFBFBF"></path>
                <path d="M33.7017212,48.8421774 L31.3697755,49.690692 L31.5598755,50.1244202 L31.9514771,50.0069885 C32.116394,50.3668315 32.2240397,50.6173503 32.2744141,50.7585449 C32.3499756,50.9703369 32.5513916,51.2753906 32.6651611,51.2793579 C32.7410075,51.2820028 32.8972371,51.2820028 33.1338501,51.2793579 L33.2363922,50.6594849 C33.9094045,49.5344442 34.1986898,48.96993 34.104248,48.9659424 C34.0098063,48.9619548 33.8756307,48.9206998 33.7017212,48.8421774 Z" id="路径-547" fill="#5B5B5B"></path>
                <path d="M35.7940063,52.2254028 C35.7451782,52.0272217 35.3228149,51.3703613 35.0964355,51.069458 C34.945516,50.8688558 34.7219238,50.4979916 34.4256592,49.9568654 L34.1350708,49.5666504 L34.0404663,49.1397095 L32.6879883,49.7768555 L32.3727417,49.5666504 C31.7375692,49.6211141 31.436971,49.6823018 31.4709473,49.7502136 C31.5049235,49.8181254 31.553894,49.9231262 31.6178589,50.0652161 L32.1050415,49.896759 C32.3223267,50.3876648 32.475708,50.6633911 32.5651855,50.723938 C32.6546631,50.7844849 32.8480835,50.7844849 33.1454468,50.723938 C33.4443727,51.4113196 33.5991212,51.7987411 33.6096925,51.8862027 C33.6255493,52.017395 34.045166,52.6234741 34.1350708,52.656189 C34.1950073,52.6779989 34.3591919,52.726766 34.6276245,52.8024902 C34.7992147,52.8596191 34.955485,52.8596191 35.0964355,52.8024902 C35.3078613,52.7167969 35.8428345,52.423584 35.7940063,52.2254028 Z" id="路径-545" fill="#F2F2F2"></path>
                <path d="M34.6481323,50.44104 L34.7662354,49.9568654 L34.4016724,49.1397095 C34.6760864,48.9692371 34.7976074,48.8700597 34.7662354,48.8421774 C34.7348633,48.8142951 34.6749074,48.6537679 34.5863678,48.3605957 L33.1360474,49.0421143 C33.4288705,48.971107 33.620643,48.9453298 33.7113647,48.9647827 C33.8020865,48.9842356 33.8714679,49.0660104 33.919509,49.2101071 L34.6481323,50.44104 Z" id="路径-546" fill="#868686"></path>
                <path d="M45.4985962,49.1397095 C45.3735962,49.2218221 45.3426717,49.3375244 45.4058228,49.4868164 C45.5005493,49.7107544 45.6655884,49.9819391 45.9787598,49.8862027 C46.2919312,49.7904663 46.8311768,49.5992748 46.9741211,49.522843 C47.1170654,49.4464111 47.0471191,48.9220886 46.9317627,48.8666687 C46.8548584,48.8297221 46.3771362,48.9207357 45.4985962,49.1397095 Z" id="路径-552" fill="#BCBBBE"></path>
                <path d="M49.2077637,48.1401209 C49.0827637,48.2222335 49.0518392,48.3379358 49.1149902,48.4872278 C49.2097168,48.7111658 49.3747559,48.9823505 49.6879272,48.8866141 C50.0010986,48.7908777 50.5403442,48.5996863 50.6832886,48.5232544 C50.8262329,48.4468225 50.7562866,47.9225 50.6409302,47.8670801 C50.5640259,47.8301335 50.0863037,47.9211471 49.2077637,48.1401209 Z" id="路径-552" fill="#B5B4B6"></path>
                <path d="M52.4244995,46.9664759 C52.2994995,47.0485885 52.268575,47.1642908 52.3317261,47.3135828 C52.4264526,47.5375208 52.5914917,47.8087054 52.9046631,47.7129691 C53.2178345,47.6172327 53.7570801,47.4260412 53.9000244,47.3496094 C54.0429688,47.2731775 53.9730225,46.748855 53.857666,46.6934351 C53.7807617,46.6564885 53.3030396,46.7475021 52.4244995,46.9664759 Z" id="路径-552" fill="#979797"></path>
                <path d="M41.7467651,47.1928711 C41.9128418,47.1879883 42.229248,47.4259644 42.133606,47.4241943 C42.0379639,47.4224243 42.0637554,47.480835 41.9009573,47.678772 C41.7381592,47.876709 41.6663208,48.7663574 41.5914917,49.307312 C41.5166626,49.8482666 41.4588521,50.6166992 41.4818369,50.7305908 C41.5048218,50.8444824 41.1346172,51.0365601 40.9009573,51.0710449 C40.6672974,51.1055298 40.1555176,51.161438 40.1210938,50.9925232 C40.0866699,50.8236084 39.8988037,48.1635893 40.1210938,47.9087905 C40.3433838,47.6539917 41.5806885,47.1977539 41.7467651,47.1928711 Z M46.9191895,45.8606567 C47.0489502,45.8493856 47.1986203,45.9655295 47.3681996,46.2090886 C47.0694699,46.1327659 46.9197998,46.1634115 46.9191895,46.3010254 C46.9182739,46.5074463 47.0244751,48.5385132 47.0682373,48.6445313 C47.1119995,48.7505493 46.9900513,49.3616333 46.9191895,49.4008179 C46.8483276,49.4400024 45.9556885,49.6168213 45.8228149,49.690692 C45.6899414,49.7645628 45.5750122,49.5274658 45.4473877,49.4008179 C45.3436928,49.2979164 45.3408103,47.9933243 45.3422291,47.4356241 L45.3427229,47.1205947 C45.3450429,46.9498821 45.3638393,46.638637 45.4473877,46.4985352 C45.5448608,46.335083 46.7245483,45.8775635 46.9191895,45.8606567 Z M49.7772827,44.6658814 C49.9671631,44.6192994 50.1644287,45.0177002 50.1894531,45.2775879 C50.2144775,45.5374756 50.6150513,47.3919067 50.6541138,47.5894165 C50.6931763,47.7869263 50.7576904,48.3707886 50.4209595,48.4498901 C50.0842285,48.5289917 49.5704346,48.6709595 49.447937,48.611084 C49.3254395,48.5512085 48.9602661,48.2091675 48.9313965,48.0770874 C48.9025269,47.9450073 48.4111328,46.5933228 48.3399048,46.2890015 C48.2686768,45.9846802 48.0806274,45.7353516 48.3399048,45.6917362 C48.5991821,45.6481209 49.5874023,44.7124634 49.7772827,44.6658814 Z M52.4240723,41.9761963 C52.479248,42.1692505 52.5585327,42.5380859 52.749939,43.3724976 C52.9413452,44.2069092 53.1019254,44.3346569 53.2437744,44.9590454 C53.3856235,45.583434 53.9263916,46.6923218 53.7651367,46.9961548 C53.6038818,47.2999878 53.5715523,47.3519719 53.2888794,47.4552002 C53.0062065,47.5584285 52.6860352,47.5961914 52.5222778,47.5725098 C52.3585205,47.5488281 52.0581665,46.8302002 51.9749756,46.5502319 C51.8917847,46.2702637 51.7648926,45.2061157 51.5323486,44.869751 C51.2998047,44.5333862 50.6464233,43.5991211 50.5723877,43.4681396 C50.4983521,43.3371582 51.0300903,42.9318848 51.1867065,42.8603516 C51.3433228,42.7888184 51.2353516,42.6307323 51.3579102,42.511228 C51.4804688,42.3917236 52.3688965,41.7831421 52.4240723,41.9761963 Z" id="形状结合" fill="#EDEDED"></path>
                <path d="M41.4818369,50.7305908 C41.5048218,50.8444824 41.1346172,51.0365601 40.9009573,51.0710449 L40.6501868,51.1001066 C40.4138196,51.1191244 40.1456822,51.1131766 40.1210938,50.9925232 L40.082426,50.576013 L40.082426,50.576013 C40.20694,50.7469709 40.3334227,50.8357244 40.460612,50.8412272 C40.6194919,50.8481012 40.9585198,50.7530291 41.4776956,50.556011 L41.4779153,50.6928837 C41.4787701,50.7091097 41.4800628,50.7218 41.4818369,50.7305908 Z M47.0682373,48.6445313 C47.1119995,48.7505493 46.9900513,49.3616333 46.9191895,49.4008179 C46.8483276,49.4400024 45.9556885,49.6168213 45.8228149,49.690692 C45.6899414,49.7645628 45.5750122,49.5274658 45.4473877,49.4008179 C45.4135244,49.3672137 45.3904123,49.205454 45.3746902,48.9834023 L45.6523429,49.2025691 C45.7625865,49.2822922 45.8369954,49.3216078 45.8755697,49.320516 L46.0860829,49.2923172 C46.3311228,49.2504654 46.6923014,49.1697475 46.7354329,49.1027832 L47.0588566,48.6150654 L47.0588566,48.6150654 L47.0682373,48.6445313 L47.0682373,48.6445313 Z M50.6095951,47.3758233 L50.6541138,47.5894165 L50.6541138,47.5894165 L50.6815157,47.7960663 C50.7003555,48.0473099 50.6735077,48.390564 50.4209595,48.4498901 L49.935194,48.5653955 C49.7157045,48.6136051 49.5179356,48.6452985 49.447937,48.611084 C49.3254395,48.5512085 48.9602661,48.2091675 48.9313965,48.0770874 L48.9043056,47.9862 L48.9043056,47.9862 L48.8023597,47.930541 C49.2040852,48.1578228 49.504286,48.2471887 49.7029622,48.1986387 C49.9016385,48.1500888 50.1154514,48.0607229 50.344401,47.930541 L50.6095951,47.3758233 Z M53.7651367,46.9961548 C53.6038818,47.2999878 53.5715523,47.3519719 53.2888794,47.4552002 C53.0062065,47.5584285 52.6860352,47.5961914 52.5222778,47.5725098 C52.4253552,47.5584934 52.2805818,47.3010324 52.1613045,47.0351633 L52.421594,47.154517 C52.5294789,47.197547 52.6041178,47.215659 52.6461589,47.2090886 C52.7811686,47.1879883 53.2886291,47.0265767 53.3786489,46.9118886 C53.4344055,46.8408529 53.5416368,46.4483553 53.6385961,46.1635069 L53.7428106,46.5110277 C53.797184,46.7259334 53.8157764,46.9007406 53.7651367,46.9961548 Z" id="形状" fill="#D8D8D8"></path>
                <path d="M54.355957,64.8505859 L56.1272964,64.4346118 C58.0212733,64.0943335 59.2204183,63.858724 59.7247314,63.7277832 C60.4812012,63.5313721 64.4053955,62.3773193 67.1574707,61.9588623 C69.9095459,61.5404053 75.552002,60.8693848 76.8806152,60.8681641 C78.2092285,60.8669434 80.2338257,60.9568481 80.0189819,60.6908569 C79.8041382,60.4248657 79.2362671,60.2122803 77.3440552,60.3010254 C75.4518433,60.3897705 70.0855103,61.1591797 68.8461304,61.366272 C67.6067505,61.5733643 63.8206787,62.3652954 62.4780273,62.7380981 C61.135376,63.1109009 59.3657837,63.5588989 59.2078247,63.6217041 C59.0498657,63.6845093 56.9782715,64.1600952 56.6043091,64.1557007 C56.2303467,64.1513062 55.1832275,64.4559937 54.8145142,64.5200806 C54.4458008,64.5841675 53.8770142,64.5324707 54.0324707,64.6768188 C54.1361084,64.7730509 54.2439372,64.8309733 54.355957,64.8505859 Z" id="路径-539" fill="#FFB8AB"></path>
                <path d="M58.0528229,34.4713975 C58.376687,34.6539587 58.4884889,34.7887573 58.3882284,34.8757935 C58.2378378,35.0063477 58.0126181,35.1951294 57.8984518,35.3173828 C57.822341,35.3988851 57.5986424,35.6628621 57.227356,36.109314 L57.0099031,35.800354 C57.3346298,35.2542928 57.5115195,34.9726156 57.5405722,34.9553223 C57.5696249,34.938029 57.7403752,34.7767207 58.0528229,34.4713975 Z" id="路径-559" fill="#5E5E5E"></path>
                <path d="M55.3251038,37.2825012 C55.4524059,37.1807974 55.8477478,37.3038025 55.6973572,37.4343567 C55.5469666,37.5649109 55.3946838,37.7140808 55.2805176,37.8363342 C55.2044067,37.9178365 55.0122681,38.1765238 54.7041016,38.6123962 C54.6188965,38.4479675 54.6191639,38.3071748 54.7049038,38.1900179 C55.0829947,37.6733863 55.2489237,37.3433628 55.3251038,37.2825012 Z" id="路径-559" fill="#5E5E5E"></path>
                <path d="M56.1272964,41.9386631 C56.2660522,41.9038696 56.6651611,41.6493777 56.4967651,41.5152101 C56.3283691,41.3810425 56.2388916,41.2202759 55.6937256,41.069458 C55.1485596,40.9186401 54.8167081,40.6970215 54.4326782,40.5162354 C54.1766583,40.3957113 53.9829648,40.2257021 53.8515977,40.0062079 C54.0378066,40.2908123 54.3357889,40.4899556 54.7455444,40.6036377 C55.3601778,40.7741609 55.6239624,40.6040849 55.9329834,40.6637673 C56.2420044,40.7234497 56.8137207,40.6989336 56.8571167,40.6637673 C56.9005127,40.6286011 57.1733501,40.4595947 57.0889893,40.135376 C57.0046284,39.8111572 56.6553198,39.5291748 56.1856921,39.4124146 C55.7160645,39.2956543 55.1052867,39.2521462 54.7741399,39.045934 C54.4429932,38.8397217 54.3958594,38.6622314 54.1856921,38.8225708 C53.9755249,38.9829102 53.8588257,39.3960571 53.6992188,39.5220337 C53.5396118,39.6480103 53.3972107,39.5582886 53.0203827,40.135376 C52.6435547,40.7124634 52.4694824,40.7127686 52.7996826,41.069458 C53.1298828,41.4261475 53.1917657,41.7768573 54.1400113,42.0447702 C55.0882568,42.3126831 55.7505493,42.3390168 55.9329834,42.3550248 C56.1154175,42.3710327 56.2385405,42.343046 56.1272964,42.1977681 C56.0160522,42.0524902 55.9885405,41.9734566 56.1272964,41.9386631 Z" id="路径-563" fill="#E3E3E4"></path>
                <path d="M54.1856921,38.8225708 C54.3535808,38.6944863 54.4174321,38.7819828 54.6051342,38.9274885 C54.459089,39.0784279 54.3396689,39.2444839 54.2626953,39.3538818 C54.1707357,39.4845785 54.0758057,39.6448161 53.9779053,39.8345947 C53.6741943,39.9759521 53.4845378,40.1031494 53.4089355,40.2161865 C53.2955322,40.3857422 53.0799561,40.7689209 53.137207,41.1054687 L53.2237816,41.5727785 L53.2237816,41.5727785 C53.1127684,41.4674247 53.0326076,41.3558896 52.943953,41.2418755 L52.7996826,41.069458 C52.5061713,40.7524007 52.6110975,40.716931 52.9026964,40.3076562 L53.0203827,40.135376 C53.3972107,39.5582886 53.5396118,39.6480103 53.6992188,39.5220337 C53.8588257,39.3960571 53.9755249,38.9829102 54.1856921,38.8225708 Z" id="路径" fill="#EDEDEF"></path>
                <path d="M54.7743854,40.6885087 C54.9714368,40.7906402 55.176195,40.8946991 55.4266421,40.9847149 L55.6937256,41.069458 C56.2388916,41.2202759 56.3283691,41.3810425 56.4967651,41.5152101 C56.6441116,41.6326067 56.3569622,41.8421267 56.189917,41.9159813 L56.1272964,41.9386631 C55.9885405,41.9734566 56.0160522,42.0524902 56.1272964,42.1977681 C56.2199998,42.318833 56.1499483,42.3584457 56.0184474,42.3590232 L55.7423984,42.3402853 C55.442076,42.3153831 54.8775356,42.2531469 54.1400113,42.0447702 C53.42518,41.8428051 53.2140545,41.5937878 53.0119713,41.3306268 C53.2007148,41.4944952 53.4359444,41.6491631 53.7165527,41.7952271 C54.2505462,42.0731846 54.7089844,42.0458374 55.2741509,42.0447702 C55.8393175,42.043703 55.5418091,41.9749756 55.6707153,41.8168335 C55.7996216,41.6586914 55.9838257,41.7587891 56.0187988,41.593689 C56.053772,41.4285889 55.6259766,41.3023682 55.1856921,41.065979 C54.9508738,40.9399048 54.8161123,40.8288848 54.7814077,40.732919 L54.7743854,40.6885087 Z M56.0092906,39.417694 L55.8843888,39.3481296 L56.1856921,39.4124146 L56.1856921,39.4124146 C56.6553198,39.5291748 57.0046284,39.8111572 57.0889893,40.135376 C57.1733501,40.4595947 56.9005127,40.6286011 56.8571167,40.6637673 C56.8241539,40.690479 56.4863689,40.7110459 56.1904259,40.6932353 L56.272522,40.6368408 L56.5344238,40.432312 C56.800415,40.2126465 55.9246216,40.2514648 55.4807667,40.1030884 L55.2822251,40.0269501 C55.1296487,39.9534615 55.2537272,39.9347254 55.6540504,39.9819149 L55.8425293,40.0062079 C56.5271606,40.1008557 56.5350952,40.055542 56.5548096,39.8766479 C56.567131,39.7648392 56.2663851,39.5657454 56.0092906,39.417694 Z" id="形状" fill="#9A9AA1" opacity="0.5"></path>
                <path d="M34.1851501,49.6347747 C33.3975525,50.0122914 33.0006612,50.2149353 32.9944763,50.2427063 C32.9882914,50.2704773 32.9882914,50.3646545 32.9944763,50.525238 L34.3339844,49.8321556 L34.1851501,49.6347747 Z" id="路径-564" fill="#BEBEBE"></path>
            </g>
        </g>
    </g>
</svg>