<?xml version="1.0" encoding="UTF-8"?>
<svg width="96px" height="96px" viewBox="0 0 96 96" version="1.1" xmlns="http://www.w3.org/2000/svg" xmlns:xlink="http://www.w3.org/1999/xlink">
    <title>Nike Huarache-Type</title>
    <defs>
        <rect id="path-1" x="0" y="0" width="96" height="96"></rect>
    </defs>
    <g id="icon" stroke="none" stroke-width="1" fill="none" fill-rule="evenodd">
        <g id="画板" transform="translate(-158.000000, -582.000000)">
            <g id="Nike-Huarache-Type" transform="translate(158.000000, 582.000000)">
                <g id="#" opacity="0">
                    <use fill="#FFFFFF" fill-rule="evenodd" xlink:href="#path-1"></use>
                    <rect stroke-opacity="0.5" stroke="#DDDDDD" stroke-width="6" stroke-linejoin="square" x="3" y="3" width="90" height="90"></rect>
                    <rect stroke-opacity="0.507785184" stroke="#DDDDDD" stroke-width="12" stroke-linejoin="square" x="6" y="6" width="84" height="84"></rect>
                    <rect stroke-opacity="0.319406703" stroke="#979797" stroke-width="10" stroke-linejoin="square" x="5" y="5" width="86" height="86"></rect>
                </g>
                <path d="M77.6861572,33.5480957 C78.7280884,32.9745483 79.6455078,33.5986328 79.885498,34.5736694 C80.1254883,35.5487061 79.7668457,36.3399048 79.211731,37.0374146 L78.4817272,37.9634739 C78.0241023,38.5577549 77.582231,39.172735 77.5308838,39.4202271 C77.4501953,39.8091431 77.2716675,41.3268433 77.364502,41.9415894 C77.4573364,42.5563354 78.1578369,43.7010498 78.2751465,44.2313232 L78.451341,45.1935548 C78.5360409,45.6370066 78.6386515,46.0538466 78.7734375,46.1449585 C78.9467337,46.2621024 79.2578573,46.1463785 79.4915837,46.0330746 L79.7211304,45.9133301 C79.9134521,45.8101196 80.6680908,45.4622803 80.8912354,45.5708618 C81.1143799,45.6794434 81.1586914,46.2767944 81.177124,46.6483154 C81.1955566,47.0198364 81.7358398,47.7585449 81.6810608,48.302063 C81.6262817,48.8455811 81.9359741,49.6945801 82.0507202,50.2150879 C82.1654663,50.7355957 82.2069702,51.1870117 82.0228026,51.34198 C81.838635,51.4969482 81.4248047,51.6404419 81.4462891,51.7919312 C81.4677734,51.9434204 82.5143433,54.2676392 82.5841675,54.5587769 C82.630717,54.7528687 82.569987,55.1434937 82.4019775,55.7306519 C82.0654704,55.906189 81.8251648,55.9906006 81.6810608,55.9838867 C81.5171425,55.9762497 80.9800292,54.6968542 80.5366779,53.598088 L80.1564941,52.6496582 L79.9280837,52.1084377 C79.2631636,50.5722418 77.7662735,47.2956848 77.364502,45.9133301 L76.9452989,44.3763902 C76.590436,43.0292856 76.0847846,41.0372247 75.4283447,38.4002075 C75.3260905,37.6393433 75.3827311,36.8931071 75.5982666,36.161499 C75.9215698,35.0640869 76.6442261,34.1216431 77.6861572,33.5480957 Z M76.5115051,35.993927 C76.3384399,37.2527161 76.6861267,39.0209045 76.9350891,39.0538635 C77.1840515,39.0868225 77.4420776,38.5375671 77.7618713,38.0079346 L78.2426713,37.2515883 C78.4661006,36.8798853 78.6742379,36.4580601 78.7539673,35.9752197 C78.8934937,35.130249 78.7034607,34.4967041 78.1040344,34.372345 C77.5046082,34.2479858 76.6845703,34.7351379 76.5115051,35.993927 Z" id="形状" fill="#0B0B0B"></path>
                <path d="M29.1342773,53.09375 C29.9375,52.8162435 30.3983154,52.6115316 30.5167236,52.4796143 C30.6943359,52.2817383 31.0447998,52.0367432 31.4346924,51.9250488 C31.824585,51.8133545 32.4527588,51.602417 33.1208496,51.1274414 C33.7889404,50.6524658 35.8742676,49.25354 36.80896,48.8564453 C37.4320882,48.5917155 38.1376953,48.3062337 38.9257813,48 C39.0515137,47.608724 39.1837972,47.3642578 39.3226318,47.2666016 C39.4614665,47.1689453 39.7230632,47.1689453 40.1074219,47.2666016 C40.3846029,46.3278809 40.6887614,45.7487386 41.0198975,45.5291748 C41.3510335,45.309611 41.5622152,45.309611 41.6534424,45.5291748 C41.8929443,45.4492594 42.1186523,45.4492594 42.3305664,45.5291748 C42.6484375,45.6490479 43.5030518,45.2932129 43.7176514,45.0782471 C43.932251,44.8632812 43.9327393,44.2077637 44.1081543,43.7167969 C44.2835693,43.2258301 44.925293,42.9940186 45.2519531,42.9592285 C45.4697266,42.9360352 45.9450277,43.1132406 46.6778564,43.4908447 L46.8184814,43.243042 C46.5558675,42.5032959 46.449585,42.0084229 46.4996338,41.7584229 C46.5496826,41.5084229 46.805542,41.3036702 47.2672119,41.144165 C47.4993896,40.8444417 47.7057699,40.672526 47.8863525,40.628418 C48.0669352,40.5843099 48.2207031,40.5843099 48.3476563,40.628418 C48.5317383,40.5511068 48.6546631,40.2093506 48.7164307,39.6031494 C48.809082,38.6938477 49.3441162,37.6048584 49.3706055,37.06604 C49.3970947,36.5272217 49.8077393,34.4180908 49.7613525,33.9953613 C49.7149658,33.5726318 49.9657593,33.0020142 50.0115967,32.8931885 C50.0574341,32.7843628 49.9509277,32.0651855 50.0115967,31.7612305 C50.0722656,31.4572754 50.4009399,30.8937378 50.5401611,30.9543457 C50.6793823,31.0149536 51.6109619,31.2489014 52.8643799,32.269104 C54.1177979,33.2893066 55.211792,35.3815308 55.572998,36.5914307 C55.9342041,37.8013306 56.3375854,40.5025024 56.3479614,40.9803467 C56.3583374,41.4581909 56.5598145,44.6992188 56.3479614,46.300415 C56.1361084,47.9016113 53.7084961,55.6206055 53.4089355,56.6099854 C53.2092285,57.2695719 52.7501221,58.700765 52.0316162,60.9035645 L47.8863525,61.8553467 C45.398234,59.4993896 42.7100423,57.5611979 39.8217773,56.0407715 C36.9335124,54.5203451 33.3710124,53.5380046 29.1342773,53.09375 Z" id="路径-766" fill="#121D35"></path>
                <path d="M50.4147422,32.8692455 L50.6533203,32.9907227 C51.4211426,33.3931885 53.727417,34.7923584 53.9852295,36.7834473 L54.1409457,38.0325246 C54.3019793,39.4054076 54.3845486,40.5074599 54.3231201,41.5957031 L54.2748525,42.2723264 C54.1486325,43.8355686 53.8663031,46.5152951 53.8238643,47.7286936 L53.808263,48.3692121 C53.7273426,50.2033699 53.1798377,56.0594858 52.6689453,56.3704834 C52.1154785,56.7073975 46.5769043,58.1669922 45.6801758,57.9748535 C44.8242077,57.7914484 44.3779932,57.2385531 46.1783716,56.5048309 L46.4510498,56.3988037 C48.4412842,55.6587991 50.9534251,54.3161777 51.6303817,53.8360322 L52.0963671,53.4795069 C52.5951898,53.0827393 53.135543,52.4518015 52.1849365,51.0854492 C51.0560913,49.4629059 49.1812701,47.8560133 48.777017,47.197256 L48.7164307,47.0784226 C48.5048828,46.5150146 46.5186768,44.8944786 46.7640381,44.6564678 C47.0093994,44.418457 47.5078125,43.5717773 47.5709229,43.3198242 C47.6129964,43.1518555 47.5203451,42.5771484 47.2929687,41.5957031 L47.4682361,40.9099217 C47.620303,40.753194 47.7596751,40.6593595 47.8863525,40.628418 C48.0669352,40.5843099 48.2207031,40.5843099 48.3476562,40.628418 C48.5317383,40.5511068 48.6546631,40.2093506 48.7164307,39.6031494 C48.809082,38.6938477 49.3441162,37.6048584 49.3706055,37.06604 C49.3946866,36.5762052 49.7362515,34.7885914 49.7633041,34.150016 L49.7613525,33.9953613 C49.7149658,33.5726318 49.9657593,33.0020142 50.0115967,32.8931885 C50.0239227,32.8639244 50.0252326,32.7905251 50.0217393,32.6929328 C50.1335964,32.7364248 50.2648928,32.7955088 50.4147422,32.8692455 L50.4147422,32.8692455 Z" id="路径" fill="#37496F"></path>
                <path d="M50.2309099,34.7915113 C49.987157,34.9959833 50.5339685,35.8529126 51.421875,35.7658691 C52.3097815,35.6788256 52.6745635,35.0329663 52.322998,34.6463623 C51.9714326,34.2597583 50.4746628,34.5870392 50.2309099,34.7915113 Z" id="路径-799" fill="#596B91"></path>
                <path d="M49.8884277,37.4852295 C49.6446748,37.6897016 50.4202881,38.6745605 51.1716309,38.7307129 C51.9229736,38.7868652 52.3922119,37.8425293 52.1976318,37.3157959 C52.0030518,36.7890625 50.1321806,37.2807574 49.8884277,37.4852295 Z" id="路径-799" fill="#596B91"></path>
                <path d="M49.6724854,40.2901611 C49.4801025,40.7155762 50.0709229,41.616333 50.8222656,41.6724854 C51.5736084,41.7286377 52.0113525,40.6638184 51.8167725,40.137085 C51.6221924,39.6103516 49.8648682,39.8647461 49.6724854,40.2901611 Z" id="路径-799" fill="#596B91"></path>
                <path d="M51.8716431,48.2487183 C50.8536377,47.8739014 51.2360821,47.3533252 50.7689209,46.5421753 C50.3806662,45.8680336 50.8960795,45.3279897 50.3690186,45.1456909 C49.6797485,44.9072876 49.4125549,44.7744378 49.0556641,44.2154541 C48.626539,43.5433328 48.8908081,43.2220459 48.8123779,42.8178711 C48.607018,41.7595881 47.6537104,42.4855902 47.5933838,42.0193481 C47.5676007,41.8200802 48.2804909,41.4020297 49.1713257,41.5767822 C50.2097113,41.7804793 51.6475076,42.5058259 51.6502686,42.4788818 C51.7546141,41.4605862 52.0475664,40.6063562 52.1627197,40.2922974 C52.3066406,39.8997803 52.3888819,39.8825648 53.0018921,38.8843994 C53.2935705,38.4094589 53.747399,37.0372648 53.1821289,35.663269 C52.5203047,34.0545801 50.9484201,32.7348242 51.097168,32.821228 C51.3300191,32.9564852 53.2731719,33.8509959 54.0633545,35.4563599 C55.0732337,37.5080676 54.9411307,40.3735013 54.916687,40.5650635 C54.8504639,41.0840454 52.8896484,48.6235352 51.8716431,48.2487183 Z" id="路径-773" fill="#1A2842"></path>
                <path d="M50.5401611,30.9543457 L50.971091,31.1135325 C51.3858471,31.2823468 52.0586112,31.6132595 52.8643799,32.269104 C54.1177979,33.2893066 55.211792,35.3815308 55.572998,36.5914307 C55.9101237,37.7206706 56.2839887,40.1489741 56.3407751,40.8562341 L56.42658,43.0318458 C56.4564296,44.145424 56.4601189,45.4527229 56.3479614,46.300415 C56.3218543,46.4977342 56.2620982,46.7879595 56.1768222,47.1470478 L55.9233398,47.3240233 C55.2543945,47.8560544 54.0931396,47.5498047 54.180542,47.0784226 L54.2648594,46.5084913 C54.4123438,45.4213038 54.6703125,43.2470952 54.6816406,42.6510033 C54.6958008,41.9058885 54.1898193,38.3900146 53.920166,36.7044096 C53.6505127,35.0188046 52.0294189,33.637207 51.2641931,33.1330566 C50.908088,32.8984455 50.4943904,32.7561174 50.0231002,32.7060723 L49.9970954,32.2230859 C49.989603,32.0473495 49.9888615,31.875135 50.0115967,31.7612305 C50.0722656,31.4572754 50.4009399,30.8937378 50.5401611,30.9543457 Z" id="路径" fill="#0A1938"></path>
                <path d="M50.5401611,30.9543457 L50.971091,31.1135325 L51.3285814,31.2730809 C51.7305419,31.4681113 52.2600534,31.7772206 52.8643799,32.269104 C54.1177979,33.2893066 55.211792,35.3815308 55.572998,36.5914307 C55.9101237,37.7206706 56.2839887,40.1489741 56.3407751,40.8562341 L56.3687016,41.592245 C55.8160124,38.3437623 55.1409323,36.0768511 54.3434612,34.7915113 C53.4552729,33.3599562 52.0844225,32.1790847 50.2309099,31.2488968 C50.3414098,31.0631306 50.4669676,30.922482 50.5401611,30.9543457 Z" id="路径" fill="#334365"></path>
                <path d="M52.5772136,52.9413689 L53.3993397,52.947537 L53.3993397,52.947537 L53.2830805,53.8369882 C53.0955343,55.1759354 52.8791411,56.2425301 52.6689453,56.3704834 C52.1154785,56.7073975 46.5769043,58.1669922 45.6801758,57.9748535 C44.8242077,57.7914484 44.3779932,57.2385531 46.1783716,56.5048309 L46.4510498,56.3988037 C48.4412842,55.6587991 50.9534251,54.3161777 51.6303817,53.8360322 L52.0963671,53.4795069 C52.2746744,53.3376799 52.4582881,53.1659318 52.5772136,52.9413689 Z" id="路径" fill="#24314C"></path>
                <path d="M10.4334717,63.2878418 C10.4909261,61.8660482 10.6164144,60.9486084 10.8099365,60.5355225 C11.1002197,59.9158936 12.0310059,59.206543 15.2735596,58.0826416 C18.5161133,56.9587402 26.0297852,54.5644531 27.3574219,53.8599854 C28.0812988,53.3458252 28.3681641,53.0257568 28.9997559,52.8198853 C29.6313477,52.6140137 33.1658936,52.8885498 34.3167725,53.0084839 C35.4676514,53.128418 38.3510742,53.9780273 41.3621826,55.7093506 C43.3695882,56.8635661 45.8210042,58.7772624 48.7164307,61.4504395 C42.3009033,63.9418132 37.1497396,65.3192139 33.2629395,65.5826416 C27.4327393,65.9777832 18.78125,65.3983154 16.2095947,65.151001 C14.4951579,64.9861247 12.5697835,64.3650716 10.4334717,63.2878418 Z" id="路径-765" fill="#E4E7E6"></path>
                <path d="M34.3167725,53.0084839 C35.022929,53.0820731 36.381355,53.4303709 38.0213262,54.0884986 L38.5112305,53.7817383 C35.2874517,55.8844597 31.4773931,57.3956902 27.0810547,58.3154297 L25.9990874,58.5369495 C20.7015417,59.5969393 14.5420764,60.4532533 12.9418093,58.9883773 C13.4424284,58.7623448 14.0552756,58.5172068 14.8062167,58.2474755 L16.0299559,57.8234397 C19.5579336,56.6253207 26.1246164,54.514134 27.3574219,53.8599854 C28.0812988,53.3458252 28.3681641,53.0257568 28.9997559,52.8198853 C29.6313477,52.6140137 33.1658936,52.8885498 34.3167725,53.0084839 Z" id="路径" fill="#F3F6F5"></path>
                <path d="M31.5317383,53.9065835 C33.2655029,54.1414795 36.6882324,54.9251709 38.6972656,55.9384766 C40.7062988,56.9517822 43.1164551,58.5609131 43.5599365,58.923584 C43.9872786,59.2730564 45.3723259,61.8891367 45.2854012,62.7250765 C40.4345139,64.4142145 36.4292067,65.368048 33.2629395,65.5826416 C27.4327393,65.9777832 18.78125,65.3983154 16.2095947,65.151001 C14.4951579,64.9861247 12.5697835,64.3650716 10.4334717,63.2878418 L10.4761084,62.4952881 C10.5438428,61.5192464 10.6551188,60.8659912 10.8099365,60.5355225 C10.9835442,60.1649454 11.3862464,59.7622767 12.3755515,59.2580307 C12.2668021,59.8605967 12.7793998,60.332823 13.9134549,60.6752355 C16.6668701,61.5065918 28.5849334,61.9394531 33.727417,61.6766357 L34.5743541,61.5647895 C37.1252763,61.1990064 36.4476074,55.4849365 35.8120117,55.2303467 C34.7526855,54.8060303 32.5959473,54.0668929 31.5317383,53.9065835 Z" id="路径" fill="#D1D5D4"></path>
                <path d="M13.0117188,61.6333008 C14.394982,62.1821665 21.3114425,63.1816146 24.1322724,63.4020246 L24.746582,63.4401855 C26.9905532,63.5290527 30.1027832,64.1000023 31.2773438,65.276123 C31.4453852,65.4443877 31.2770559,65.5809419 30.8579117,65.6903539 L29.6000467,65.7122371 C24.2926327,65.7646131 18.2802574,65.3501353 16.2095947,65.151001 C14.4951579,64.9861247 12.5697835,64.3650716 10.4334717,63.2878418 L10.4761084,62.4952881 C10.5438428,61.5192464 10.6551188,60.8659912 10.8099365,60.5355225 C10.9180812,60.3046803 11.1151231,60.0613855 11.4874785,59.7888419 C11.5955966,60.3594446 11.9337601,61.2055771 13.0117188,61.6333008 Z" id="路径" fill="#BBC0BE"></path>
                <path d="M34.0809642,52.9849746 L34.3167725,53.0084839 C35.4676514,53.128418 38.3510742,53.9780273 41.3621826,55.7093506 C43.1425602,56.7330298 45.2721964,58.3541167 47.7510912,60.5726111 C47.4391385,60.7380074 46.9925398,60.850824 46.4151128,60.9146105 L45.4875529,60.0412195 C43.2510527,57.9609461 41.6325505,56.6547028 40.6320464,56.1224895 L34.0809642,52.9849746 Z" id="路径" fill="#BAC2BF"></path>
                <path d="M26.7968375,57.2099405 C22.9518923,57.2442402 16.7517734,58.0658616 15.0862608,58.7171706 C14.1905952,59.0674262 13.7770091,59.3111357 13.7198106,59.5884521 C13.6524998,59.9147955 14.0661968,60.1696534 15.0274645,60.461531 C16.6829575,60.964202 22.4565793,62.0296013 25.5284328,62.4247598 L26.5760953,62.5440828 L28.0473458,62.6862007 C30.8803447,62.9338006 32.0607009,62.8385701 33.0361255,62.1954244 C34.382087,61.3079653 35.1349493,58.7660599 34.3032063,58.1315532 C33.5222316,57.5357757 30.6825573,57.1752771 26.7968375,57.2099405 Z M26.7986215,57.4099325 C30.6351893,57.3757076 33.4512971,57.7332145 34.1819012,58.290566 C34.8790955,58.8224304 34.1730628,61.2062239 32.9260327,62.0284526 C32.0006894,62.6385772 30.835589,62.7292443 28.0453603,62.4851039 L26.3471317,62.319406 L25.5519586,62.2261462 C22.4909544,61.8322599 16.7285505,60.7690294 15.0855726,60.2701584 L14.591257,60.1041804 C14.0974954,59.9177764 13.889197,59.7572869 13.9156875,59.6288531 C13.9518652,59.4534522 14.3449992,59.2217942 15.1591006,58.9034349 C16.7973176,58.2627999 22.9758877,57.4440341 26.7986215,57.4099325 Z" id="路径-784" fill="#AB3048" fill-rule="nonzero"></path>
                <path d="M20.6553461,58.043049 L19.6383461,58.1484874 C16.25179,58.5228231 14.6695525,58.9514694 14.5264761,59.3918288 C14.4505487,59.6255174 14.779564,59.7883701 15.4352438,59.9632454 C15.911579,60.090288 16.5477954,60.2100918 17.1094548,60.2850346 C18.1465808,60.4234195 20.5811651,60.610453 22.1609525,60.6692667 C23.8523439,60.7322353 25.2497573,60.2971022 26.267985,59.3581837 C26.8547626,58.8171099 26.5972267,58.3294963 25.6253105,58.0897838 C24.6384226,57.8463788 22.9275857,57.8217591 20.6553461,58.043049 Z M25.5774178,58.2839649 C26.4155056,58.4906701 26.5786859,58.7996325 26.1324057,59.2111522 C25.1560647,60.1114465 23.8102011,60.5305278 22.1683932,60.4694052 L21.320677,60.4302644 C19.8238923,60.349989 17.9943995,60.2013412 17.1359066,60.0867916 C16.5821483,60.012903 15.9540969,59.8946367 15.4867838,59.7700004 C14.9929297,59.6382854 14.7032743,59.4949147 14.716688,59.4536302 C14.8281954,59.1104337 16.5496966,58.6686396 20.1693504,58.2929171 L20.674732,58.2421072 C22.926335,58.0228271 24.6172933,58.0471608 25.5774178,58.2839649 Z" id="路径-785" fill="#AB3048" fill-rule="nonzero"></path>
                <path d="M20.3098755,58.6289673 C20.1904093,59.0605471 20.3080241,59.2612867 20.6627197,59.2311861 C21.1947632,59.1860352 24.8535767,58.387085 24.9958496,58.4522705 C25.1381226,58.5174561 24.7224731,58.6984685 24.1425781,58.8273315 C23.5626831,58.9561946 21.7225952,59.4401245 21.1433716,59.6038818 C20.5641479,59.7676392 19.2644653,60.1305542 19.3632812,59.5995483 C19.4291585,59.2455444 19.7446899,58.9220174 20.3098755,58.6289673 Z" id="路径-786" fill="#AB3048"></path>
                <path d="M27.9202999,53.4411925 L28.2503933,53.4329197 C30.1585965,53.3843172 32.830363,53.4534085 34.4781494,53.9066154 C36.9498291,54.5864258 39.8970947,55.9030762 41.663208,57.0656738 C42.683629,57.7373969 44.2675973,59.0203758 46.4151128,60.9146105 L47.4462891,61.8322754 L47.2473032,62.0097232 L46.1308101,62.4188827 L46.1308101,62.4188827 L45.458306,61.4591807 L45.458306,61.4591807 C43.7454695,59.2230489 39.4040527,56.7155762 37.7064209,55.897583 C36.0087891,55.0795898 33.34021,54.1929932 30.5458984,53.9066154 C29.4835508,53.7977397 28.463416,53.7509529 27.4854943,53.766255 L27.9202999,53.4411925 L27.9202999,53.4411925 Z" id="路径" fill="#8F918F"></path>
                <path d="M50.6533203,61.3875732 C50.6576335,58.6943766 50.9116211,56.5188802 51.4152832,54.861084 C52.1707764,52.3743896 55.460083,46.6879883 56.3496094,45.0609131 C57.2391357,43.4338379 58.5510254,41.9694824 60.380127,41.9191895 C62.2092285,41.8688965 63.7958984,42.7437744 65.5377197,43.887207 C67.279541,45.0306396 69.8839111,45.6397705 71.489502,45.1116943 C73.0950928,44.5836182 73.8361816,43.1099854 74.2368164,41.4570312 C74.6374512,39.8040771 74.8513184,38.322876 75.3602295,37.9682617 C75.8691406,37.6136475 76.3918457,39.2536621 76.4249268,39.7501221 C76.4469808,40.0810954 76.5957031,41.0214437 76.8710938,42.571167 C77.764974,45.6035563 78.2450765,47.2175293 78.3114014,47.4130859 C78.4108887,47.7064209 79.6806641,50.3071289 79.7744141,50.616333 C79.8369141,50.8224691 80.5396322,52.693929 81.8825684,56.2307129 C78.4562988,56.1258952 76.2821859,56.1258952 75.3602295,56.2307129 C73.9772949,56.3879395 67.5795898,59.6452637 64.8027344,60.0930176 C62.0258789,60.5407715 56.3254395,60.0095215 55.168457,60.0930176 C54.3971354,60.1486816 52.8920898,60.5802002 50.6533203,61.3875732 Z" id="路径-767" fill="#D5D0C5"></path>
                <path d="M60.5351563,46.0209961 C61.8873608,45.8738385 66.3837891,48.3540039 66.6601517,50.9022761 C66.7896874,52.0966921 64.5702731,56.2439442 61.5509232,60.2745106 L60.1310106,60.2526527 C57.924102,60.1947584 55.8218211,60.0458662 55.168457,60.0930176 C54.3971354,60.1486816 52.8920898,60.5802002 50.6533203,61.3875732 C50.6576335,58.6943766 50.9116211,56.5188802 51.4152832,54.861084 C51.9125124,53.2244617 53.5834271,50.3419645 54.8692627,48.0028076 L55.5144043,47.3792725 C57.1783624,51.0630173 58.247014,53.7718487 59.3852539,52.7587891 C61.2988281,51.0556641 59.1829517,46.1681537 60.5351563,46.0209961 Z" id="路径" fill="#C9C2B1"></path>
                <path d="M76.4169797,39.6939761 L76.4712358,40.1568947 C76.5375237,40.639338 76.6708097,41.4440955 76.8710938,42.571167 L78.3114014,47.4130859 L78.3114014,47.4130859 L78.5134837,47.8742595 C78.8658412,48.6392853 79.5587633,50.0787497 79.7371795,50.5166769 L81.8825684,56.2307129 L81.8825684,56.2307129 L80.4103236,56.1902613 L80.4103236,56.1902613 C79.7261612,55.9882716 79.2296458,55.8025303 78.9221624,55.6332917 L78.7841797,55.5500488 C78.0119466,55.0327804 75.0362023,53.8392536 73.9868413,53.5119942 L73.1884874,53.2949249 C72.5931838,53.1490601 72.0509001,53.1032532 71.7910156,53.6557617 C71.5600072,54.1468804 71.4004206,55.1017643 71.3122559,56.5204134 L70.1545895,56.3616768 C65.3218433,55.6644974 62.8785982,54.8461436 62.8248543,53.9066154 C62.7380371,52.388916 61.6518555,50.3642578 59.765625,49.1491699 C58.0288958,48.030389 56.1668441,47.280624 55.5732435,46.4476959 L56.3496094,45.0609131 L56.3496094,45.0609131 C56.8384253,44.1667965 57.454785,43.3218175 58.2144279,42.7336278 L59.701678,43.592584 C62.2160001,45.0158783 66.8334443,47.4514136 69.2470703,47.3240233 C72.4396973,47.1555176 74.4631348,45.737793 75.0812988,43.9318848 L75.4514573,42.8131858 C75.7232524,41.9694074 76.0450933,40.9296708 76.4169797,39.6939761 Z" id="路径" fill="#AEAAA1"></path>
                <path d="M63.6842041,52.7455687 C63.0002441,52.4907227 60.7543945,50.0168018 62.2567139,49.5037012 C63.7590332,48.9906006 67.1641846,48.1330865 68.8869629,48.09021 C70.6097412,48.0473335 72.3692627,47.7162352 73.3218994,47.0734863 C74.2745361,46.4307374 75.6345795,44.6043848 75.9207444,44.1190259 C76.2069092,43.633667 78.3498535,46.5630378 78.3994141,46.8954715 C78.4489746,47.2279053 78.1851807,47.928506 78.0383301,48.405232 C77.9404297,48.7230493 78.0980225,49.2356771 78.5111084,49.9431152 L79.9005127,55.6779955 C79.2463542,55.4046633 78.4899394,55.0587192 77.6312683,54.6401631 C76.3432617,54.0123291 73.7919922,53.0428467 72.8759766,53.0460205 C71.9599609,53.0491943 71.5744629,53.3150619 71.4337158,53.9066154 C71.3398844,54.3009844 71.1663005,55.0244954 70.9129639,56.0771484 C66.549764,54.0259927 64.1401774,52.9154661 63.6842041,52.7455687 Z" id="路径-787" fill="#827D73"></path>
                <path d="M76.2638131,39.0391495 L76.1951069,39.5647487 C76.1259164,40.0690435 76.0535477,40.485505 75.9780006,40.8141333 L75.9207444,41.0441358 C75.7182617,41.7915039 75.4633789,44.0166016 74.2567139,45.3227539 C73.0500488,46.6289063 70.9488525,47.5913449 68.5062256,46.9709473 C66.238072,46.3948638 65.0319709,45.4505346 63.9674431,44.8339163 L63.723877,44.6977539 C62.5950527,44.0924336 61.552002,42.9283916 60.4385986,43.5284048 C59.3251953,44.128418 57.8035791,45.8484826 57.1794385,46.7033551 C56.5552979,47.5582275 55.1231243,50.8239746 54.4298096,52.7927246 C53.9675998,54.1052246 53.5638071,55.3477875 53.2184315,56.5204134 L51.2641931,56.9112408 L51.4457581,54.7666906 L51.4457581,54.7666906 L51.4152832,54.861084 C52.1707764,52.3743896 55.460083,46.6879883 56.3496094,45.0609131 C57.2391357,43.4338379 58.5510254,41.9694824 60.380127,41.9191895 C62.2092285,41.8688965 63.7958984,42.7437744 65.5377197,43.887207 C67.279541,45.0306396 69.8839111,45.6397705 71.489502,45.1116943 C73.0950928,44.5836182 73.8361816,43.1099854 74.2368164,41.4570313 L74.6436153,39.6803242 C74.8456099,38.8313465 75.0470534,38.1864859 75.3602295,37.9682617 C75.7089279,37.7252853 76.0641022,38.4187447 76.2638131,39.0391495 Z" id="路径" fill="#C7C4BD"></path>
                <path d="M59.0068772,44.6460256 L58.9286845,44.7181729 C58.29937,45.3279089 57.3081537,46.9372973 56.9265137,47.4332275 C56.0111004,46.8613432 55.8124477,46.5841932 55.7973633,47.0822754 C55.7863938,47.4444816 55.9773929,47.5373007 56.1076651,48.7201119 C55.5036996,50.0215484 54.8384298,51.6323985 54.4298096,52.7927246 C53.9675998,54.1052246 53.5638071,55.3477875 53.2184315,56.5204134 L50.8212891,57.2904053 L51.4441931,54.7708426 L51.5335471,54.5028381 C52.464846,51.8658311 55.500516,46.6140303 56.3496094,45.0609131 C56.7304379,44.3643215 57.1886817,43.697555 57.7317839,43.1588083 C58.4305268,43.5061346 58.854402,44.0021703 59.0068772,44.6460256 Z" id="路径" fill="#A29D94"></path>
                <path d="M75.8229227,38.1205603 L75.8062738,38.250544 C75.7084194,38.851674 75.4717475,39.6679145 75.1622314,40.6785889 C74.7642822,41.9780273 74.2160645,43.3723145 73.2092285,44.4172363 C72.2023926,45.4621582 70.4710693,45.8607037 69.430542,45.8428955 C68.4767253,45.8265713 67.2666812,45.4783999 65.6840067,44.5647612 L65.243042,44.3013916 C63.4415283,43.1904297 61.8127441,42.3347168 60.7922363,42.3078613 C59.7717285,42.2810059 59.0527344,42.5504169 58.5124512,42.9572153 L58.0354209,43.3325777 C57.7079474,43.5971323 57.2763795,43.9550535 56.7407172,44.4063412 C57.6065414,43.0607628 58.8004483,41.9626243 60.380127,41.9191895 C62.2092285,41.8688965 63.7958984,42.7437744 65.5377197,43.887207 C67.279541,45.0306396 69.8839111,45.6397705 71.489502,45.1116943 C73.0950928,44.5836182 73.8361816,43.1099854 74.2368164,41.4570312 L74.6436153,39.6803242 C74.8456099,38.8313465 75.0470534,38.1864859 75.3602295,37.9682617 C75.5181462,37.8582238 75.677391,37.9402447 75.8229227,38.1205603 Z" id="路径" fill="#E1E1E1"></path>
                <path d="M52.9622803,60.1859131 C52.8010661,55.9578044 52.558431,52.8106283 52.234375,50.7443848 C51.748291,47.6450195 50.8793945,43.2806396 50.8682363,42.9534912 C50.8571777,42.6263428 52.7071533,40.9210205 53.348877,40.3457031 C53.7766927,39.9621582 54.3582357,40.0276693 55.0935059,40.5422363 C56.4921875,41.2380371 57.4289551,41.7183838 57.9038086,41.9832764 C58.3786621,42.2481689 59.5902507,43.023112 61.5385742,44.3081055 C62.8341471,45.2195638 63.4848359,45.7239583 63.4906407,45.8212891 C63.4992676,45.9672852 62.0993652,48.7705078 61.855835,48.880127 C61.6123047,48.9897461 58.9429932,47.3775635 58.4349365,46.9074707 C57.9268799,46.4373779 56.4779053,45.5413818 56.0679932,45.5197754 C55.6580811,45.4981689 55.196167,45.7650146 55.2961426,46.7163086 C55.3961182,47.6676025 56.9704492,57.0681152 57.1794385,58.5445557 C57.3187647,59.5288493 57.3187696,60.0759684 57.1794533,60.1859131 L52.9622803,60.1859131 Z" id="路径-768" fill="#E4E7E7"></path>
                <path d="M55.0935059,40.5422363 L56.5502051,41.2737793 C57.0647803,41.535498 57.463877,41.7433533 57.7474951,41.897345 L57.9038086,41.9832764 C58.3786621,42.2481689 59.5902507,43.023112 61.5385742,44.3081055 L62.0907404,44.6998746 C63.0190955,45.3651275 63.485729,45.7389323 63.4906804,45.8212891 C63.4992676,45.9672852 62.0993652,48.7705078 61.855835,48.880127 C61.6275253,48.9828949 59.2671814,47.5723605 58.5544045,47.0082978 L58.4349365,46.9074707 C57.9268799,46.4373779 56.4779053,45.5413818 56.0679932,45.5197754 C55.6580811,45.4981689 55.196167,45.7650146 55.2961426,46.7163086 L55.4490595,47.7763415 C55.5579754,48.4817812 55.7143123,49.4582245 55.8893389,50.5400121 C54.8685877,49.8838405 53.1061617,48.4510231 51.629177,47.2039547 L50.9077347,43.2399442 C50.8834793,43.0916607 50.8695857,42.9930542 50.868187,42.9534912 C50.8571777,42.6263428 52.7071533,40.9210205 53.348877,40.3457031 C53.7766927,39.9621582 54.3582357,40.0276693 55.0935059,40.5422363 Z" id="路径" fill="#D5D9D9"></path>
                <path d="M51.5910645,46.0134277 C52.6298413,46.8059661 53.2952873,47.2645436 53.5874023,47.3891602 C54.8773438,47.9394504 55.061581,47.4421268 55.0549316,47.2807617 C55.0275879,46.6171875 54.8643293,44.9932644 56.0146484,45.3469238 C58.5922852,46.1394043 58.7146623,46.72262 59.3952637,47.1486816 C60.0758651,47.5747433 63.3544922,45.8913574 61.8305664,44.7663574 C60.3066406,43.6413574 56.8885612,41.6327588 56.1513672,41.3337402 C55.4141732,41.0347216 54.5417034,40.3566677 54.0556641,40.3644346 C53.5696248,40.3723362 51.1904355,42.3674363 51.1385527,42.6510033 C51.1039642,42.840048 51.2548014,43.9608561 51.5910645,46.0134277 Z" id="路径-794" fill="#C8CCD1"></path>
                <polygon id="路径-796" fill="#767676" points="55.5146484 43.0053711 55.973938 43.5679932 56.3427734 42.9393311"></polygon>
                <polygon id="路径-795" fill="#F6F6F6" points="55.9273682 42.5921631 55.5146484 43.0053711 55.9724121 43.3404541 56.3427734 42.9393311"></polygon>
                <path d="M53.6689453,42.401123 C54.1846924,43.3360596 52.5666504,46.4327393 52.0217285,46.2028809 C51.6584473,46.0496419 51.4038086,45.4602051 51.2578125,44.4345703 C51.0837417,43.2937742 51.0912122,43.0009374 51.1165771,42.8623047 C51.1426742,42.7196705 53.1531982,41.4661865 53.6689453,42.401123 Z" id="路径" fill="#A3A9AF"></path>
                <path d="M53.4691796,42.4267399 C52.9990868,42.4932988 52.8894715,42.6198423 53.1769201,42.8940852 C53.4643688,43.168328 53.936642,42.790388 53.9981959,42.6508051 C54.0597499,42.5112222 53.9392724,42.3601811 53.4691796,42.4267399 Z" id="路径-800" fill="#4F4E4E" transform="translate(53.516074, 42.700978) rotate(-60.000000) translate(-53.516074, -42.700978) "></path>
                <path d="M58.0692139,60.4708252 C58.9031169,57.8931071 59.8589274,56.0432943 60.9366455,54.9213867 C62.5532227,53.2385254 63.2211914,52.8570557 63.1815186,51.3175049 C63.15507,50.2911377 62.7131755,49.4786784 61.855835,48.880127 C61.6712646,48.940918 61.3648682,48.8065592 60.9366455,48.4770508 C60.2943115,47.9827881 58.8165283,46.7624512 58.7513428,46.5327148 C58.6861572,46.3029785 60.0303955,44.3338623 60.3625488,43.9511719 C60.6947021,43.5684814 60.8886719,43.2416992 61.855835,43.7148438 C62.822998,44.1879883 65.3924561,45.9934082 66.6629639,46.7380371 C67.9334717,47.482666 70.1114502,48.0732422 71.2783203,48.0386963 C72.4451904,48.0041504 74.5001221,47.2906494 75.1593018,46.0958252 C75.8184814,44.901001 76.0267334,43.623291 76.3608398,43.18396 C76.6949463,42.7446289 76.9388123,42.6336365 76.9938354,42.6531067 C77.0488586,42.6725769 78.1549683,46.3757629 78.1488953,46.4935303 C78.1448466,46.5720418 78.1448466,46.6535441 78.1488953,46.7380371 C78.2512512,46.8754679 78.3006388,47.0000305 78.2970581,47.1117249 C78.291687,47.2792664 77.4677124,48.221344 77.3780518,48.5658264 C77.2883911,48.9103088 77.7701721,49.3776245 78.2970581,49.5766602 C78.8239441,49.7756958 79.284729,49.8245239 79.4425354,49.9577942 C79.5477397,50.046641 79.6514181,50.1703898 79.7535706,50.3290405 C79.8031108,50.4755249 79.866984,50.5836995 79.9451904,50.6535645 C80.0625,50.7583618 81.3770142,53.9048767 81.4906616,54.3834534 C81.5664266,54.7025045 81.629893,55.3915812 81.6810608,56.4506836 L80.6231689,56.4828491 C79.5835978,55.5698039 78.6883545,54.9271647 77.937439,54.5549316 C76.8110657,53.996582 74.3327026,52.9467163 73.5872192,52.7332153 C72.8417358,52.5197144 71.6696167,52.5794678 71.295105,53.2662964 C71.0454305,53.7241821 70.9751994,54.9795939 71.0844116,57.0325317 C67.6511027,58.5708618 65.4639486,59.5465698 64.5229492,59.9596558 C63.5819499,60.3727417 61.4307048,60.5431315 58.0692139,60.4708252 Z" id="路径-769" fill="#DFE3E2"></path>
                <path d="M59.1586304,45.7033551 C59.0262655,46.1193394 59.065328,46.4154867 59.2758179,46.5917969 L59.9428214,47.148687 C60.5551893,47.649905 61.3699951,48.2810556 61.5894775,48.2622369 L61.9666214,48.2141621 C62.0250575,48.2093397 62.0669496,48.213181 62.0930416,48.235199 L62.1204224,48.2830477 C62.1518555,48.4107666 63.2875366,49.7765503 63.388916,50.7731934 C63.4565023,51.4376221 63.4241247,51.931722 63.2917834,52.2554932 C63.2559148,51.9841253 63.2188061,51.7340534 63.1804574,51.5052775 L63.1815186,51.3175049 C63.1588414,50.4374901 62.8307501,49.7147291 62.1972448,49.1492219 L62.0361328,48.8353271 L62.0361328,48.8353271 C61.9790039,48.7578735 62.2178955,48.3911133 62.0361328,48.4648437 C61.8543701,48.5385742 61.7732724,48.8080444 61.2883301,48.546875 C60.8033878,48.2857056 59.0603638,46.8400894 58.8756714,46.6276855 C58.7525431,46.486083 58.8468628,46.1779728 59.1586304,45.7033551 Z" id="路径" fill="#F1F1F1"></path>
                <path d="M76.9938354,42.6531067 C77.0488586,42.6725769 78.1549683,46.3757629 78.1488953,46.4935303 C78.1448466,46.5720418 78.1448466,46.6535441 78.1488953,46.7380371 C78.2512512,46.8754679 78.3006388,47.0000305 78.2970581,47.1117249 C78.291687,47.2792664 77.4677124,48.221344 77.3780518,48.5658264 C77.2883911,48.9103088 77.7701721,49.3776245 78.2970581,49.5766602 C78.8239441,49.7756958 79.284729,49.8245239 79.4425354,49.9577942 C79.5477397,50.046641 79.6514181,50.1703898 79.7535706,50.3290405 C79.8031108,50.4755249 79.866984,50.5836995 79.9451904,50.6535645 C80.0625,50.7583618 81.3770142,53.9048767 81.4906616,54.3834534 C81.5664266,54.7025045 81.629893,55.3915812 81.6810608,56.4506836 L80.6231689,56.4828491 C79.5835978,55.5698039 78.6883545,54.9271647 77.937439,54.5549316 C76.8110657,53.996582 74.3327026,52.9467163 73.5872192,52.7332153 C72.8417358,52.5197144 71.6696167,52.5794678 71.295105,53.2662964 C71.0454305,53.7241821 70.9751994,54.9795939 71.0844116,57.0325317 L64.5229492,59.9596558 L64.5229492,59.9596558 C63.5819499,60.3727417 61.4307048,60.5431315 58.0692139,60.4708252 C58.9031169,57.8931071 59.8589274,56.0432943 60.9366455,54.9213867 L62.0921827,53.7438285 C62.4821941,53.3377273 62.7607729,53.0077586 62.938777,52.6430997 C63.489782,52.9060103 64.1220768,53.1653975 64.8316594,53.4196418 C68.1369516,54.6039321 68.9960938,50.8344727 68.4240902,49.5037012 C68.1634352,48.8972848 67.1163032,47.6858331 65.2826943,45.8693459 L66.166266,46.435667 C66.3465499,46.5484581 66.5137189,46.6505665 66.6629639,46.7380371 C67.9334717,47.482666 70.1114502,48.0732422 71.2783203,48.0386963 C72.4451904,48.0041504 74.5001221,47.2906494 75.1593018,46.0958252 C75.8184814,44.901001 76.0267334,43.623291 76.3608398,43.18396 C76.6949463,42.7446289 76.9388123,42.6336365 76.9938354,42.6531067 Z" id="路径" fill="#CED6D4"></path>
                <path d="M76.9938354,42.6531067 C77.0488586,42.6725769 78.1549683,46.3757629 78.1488953,46.4935303 C78.1448466,46.5720418 78.1448466,46.6535441 78.1488953,46.7380371 C78.2512512,46.8754679 78.3006388,47.0000305 78.2970581,47.1117249 C78.291687,47.2792664 77.4677124,48.221344 77.3780518,48.5658264 C77.2883911,48.9103088 77.7701721,49.3776245 78.2970581,49.5766602 C78.8239441,49.7756958 79.284729,49.8245239 79.4425354,49.9577942 C79.5477397,50.046641 79.6514181,50.1703898 79.7535706,50.3290405 C79.8031108,50.4755249 79.866984,50.5836995 79.9451904,50.6535645 C80.0625,50.7583618 81.3770142,53.9048767 81.4906616,54.3834534 C81.5664266,54.7025045 81.629893,55.3915812 81.6810608,56.4506836 L80.6231689,56.4828491 C79.5835978,55.5698039 78.6883545,54.9271647 77.937439,54.5549316 C76.8110657,53.996582 74.3327026,52.9467163 73.5872192,52.7332153 C73.1101888,52.5965973 72.4584662,52.5718673 71.9528202,52.7517311 C71.5309473,51.4218441 71.1557214,50.1134476 70.8249045,48.826431 C70.7582851,48.5672534 70.7361112,48.2971652 70.7583828,48.0161664 C70.9505837,48.0368477 71.1233671,48.0432838 71.2783203,48.0386963 C72.4451904,48.0041504 74.5001221,47.2906494 75.1593018,46.0958252 C75.8184814,44.901001 76.0267334,43.623291 76.3608398,43.18396 C76.6949463,42.7446289 76.9388123,42.6336365 76.9938354,42.6531067 Z" id="路径" fill="#BEC7C5"></path>
                <path d="M76.9938354,42.6531067 C77.0488586,42.6725769 78.1549683,46.3757629 78.1488953,46.4935303 C78.1448466,46.5720418 78.1448466,46.6535441 78.1488953,46.7380371 C78.2512512,46.8754679 78.3006388,47.0000305 78.2970581,47.1117249 C78.291687,47.2792664 77.4677124,48.221344 77.3780518,48.5658264 C77.2883911,48.9103088 77.7701721,49.3776245 78.2970581,49.5766602 C78.8239441,49.7756958 79.284729,49.8245239 79.4425354,49.9577942 C79.5477397,50.046641 79.6514181,50.1703898 79.7535706,50.3290405 C79.8031108,50.4755249 79.866984,50.5836995 79.9451904,50.6535645 C80.0625,50.7583618 81.3770142,53.9048767 81.4906616,54.3834534 C81.5664266,54.7025045 81.629893,55.3915812 81.6810608,56.4506836 L80.6231689,56.4828491 C79.7135442,55.6839345 78.9144204,55.0920496 78.2257977,54.7071943 L77.8730686,54.52289 C76.9098851,51.6779455 75.7320939,49.1611252 74.339695,46.9724293 C74.6861666,46.7216938 74.9764396,46.4272798 75.1593018,46.0958252 C75.8184814,44.901001 76.0267334,43.623291 76.3608398,43.18396 C76.6949463,42.7446289 76.9388123,42.6336365 76.9938354,42.6531067 Z" id="路径" fill="#B1BAB7"></path>
                <path d="M71.0844116,57.0325317 L64.5229492,59.9596558 L64.5229492,59.9596558 C63.5819499,60.3727417 61.4307048,60.5431315 58.0692139,60.4708252 C58.5235601,59.0663734 59.0140951,57.8780032 59.5408188,56.9057145 L59.4184726,56.9112408 C62.4535574,56.8848016 64.697108,56.6067708 66.1491241,56.0771484 L67.2037097,55.6840098 C68.318203,55.2605408 69.6124196,54.7460809 71.0863596,54.1406301 C71.0179614,54.7975988 71.0168451,55.7624367 71.0844116,57.0325317 Z M81.3389585,53.9259627 L81.4703746,54.3101488 C81.4791062,54.3389401 81.4859263,54.3635127 81.4906616,54.3834534 C81.5664266,54.7025045 81.629893,55.3915812 81.6810608,56.4506836 L80.6231689,56.4828491 C79.5835978,55.5698039 78.6883545,54.9271647 77.937439,54.5549316 L77.348107,54.2742317 C77.1280859,54.1725614 76.8879838,54.0642923 76.638289,53.9539391 C76.8981426,53.9474677 77.1313597,53.938148 77.3389579,53.9262833 L77.6312683,53.9066154 C78.744056,53.8190873 80.2684718,53.7948256 81.3389585,53.9259627 Z" id="形状" fill="#C2C8C6"></path>
                <path d="M62.6696363,49.6870117 C63.1691753,50.2215441 63.6167404,50.9882812 63.3844008,52.0812988 C63.0358915,53.7208252 62.0948486,54.0489502 60.8568115,55.6779955 C59.6187744,57.3070407 59.3898926,60.1835937 59.4184726,60.3577774 C59.4224206,60.3818388 59.3897221,60.4270142 59.329436,60.4840333 L58.0692139,60.4708252 L58.0692139,60.4708252 C58.9031169,57.8931071 59.8589274,56.0432943 60.9366455,54.9213867 L61.5332551,54.3118199 C62.7187674,53.116212 63.2159017,52.6517822 63.1815186,51.3175049 C63.1668249,50.7473009 63.0239072,50.2431178 62.7527654,49.8049558 L62.6696363,49.6870117 Z" id="路径" fill="#AFB3B2"></path>
                <path d="M76.9938354,42.6531067 C77.0040849,42.6567335 77.0508051,42.7881786 77.1200141,43.0004587 C76.9327059,43.0796193 76.771767,43.2550571 76.638289,43.5284048 C76.3461914,44.1265869 75.7507568,45.7936584 75.3123169,46.4040527 C74.873877,47.014447 73.3046875,47.9126587 72.0958252,48.2020264 C70.8869629,48.491394 68.6695557,47.942749 67.6868286,47.5456543 C67.0316772,47.2809245 65.0919122,46.0902507 63.6990583,45.2120949 L62.2489014,44.2840576 C61.6668091,43.9000244 61.4916992,43.8273926 61.2302246,43.9663086 C61.0559082,44.0589193 60.7924398,44.2889723 60.4398193,44.6564678 C60.7412923,44.0752272 61.0258382,43.7417603 61.293457,43.6560669 C61.3836656,43.6271815 61.555866,43.6393972 61.8100581,43.6927139 L61.855835,43.7148438 C62.822998,44.1879883 65.3924561,45.9934082 66.6629639,46.7380371 C67.9334717,47.482666 70.1114502,48.0732422 71.2783203,48.0386963 C72.4451904,48.0041504 74.5001221,47.2906494 75.1593018,46.0958252 C75.8184814,44.901001 76.0267334,43.623291 76.3608398,43.18396 C76.6949463,42.7446289 76.9388123,42.6336365 76.9938354,42.6531067 Z" id="路径" fill="#F1F1F1"></path>
                <path d="M72.6569824,52.4158936 C73.6582031,52.3750153 76.7574443,53.5844676 77.7564697,54.130127 C78.6888934,54.639409 80.48647,55.9677947 80.9137493,56.4037203 L80.9717447,56.4717873 L80.6231689,56.4828491 C79.5835978,55.5698039 78.6883545,54.9271647 77.937439,54.5549316 C76.8110657,53.996582 74.3327026,52.9467163 73.5872192,52.7332153 C72.8417358,52.5197144 71.6696167,52.5794678 71.295105,53.2662964 C71.0638012,53.6904915 70.9865059,54.7991687 71.063219,56.5923279 L70.8249045,56.5369942 C70.7150723,55.2996035 70.7323812,54.3569743 70.8768311,53.7091064 C71.0935059,52.7373047 71.6557617,52.4567719 72.6569824,52.4158936 Z M78.1488953,46.4935303 C78.1448466,46.5720418 78.1448466,46.6535441 78.1488953,46.7380371 C78.2512512,46.8754679 78.3006388,47.0000305 78.2970581,47.1117249 C78.291687,47.2792664 77.4677124,48.221344 77.3780518,48.5658264 C77.2883911,48.9103088 77.7701721,49.3776245 78.2970581,49.5766602 C78.8239441,49.7756958 79.284729,49.8245239 79.4425354,49.9577942 C79.4979656,50.004606 79.5529722,50.0611067 79.6075552,50.1272963 C79.2665016,50.0558369 78.9236274,49.9729498 78.5784912,49.8846436 C77.7607422,49.675415 77.1999512,49.1706543 77.1474609,48.7153905 C77.0949707,48.2601267 77.8782959,47.2696533 78.0103779,46.8954715 L78.1444701,46.4757873 L78.1444701,46.4757873 L78.1488953,46.4935303 Z" id="形状" fill="#DDDDDD"></path>
                <path d="M33.6575928,52.623291 C33.4484863,52.5158691 33.6723633,51.7525635 34.4884033,51.2857666 C35.3044434,50.8189697 35.807373,50.6750831 36.2996826,50.1429615 C36.7919922,49.6108398 36.7127686,49.3760986 37.8708496,48.9975586 C39.0289307,48.6190186 41.4443359,46.9833984 41.4899902,47.0827637 C41.5356445,47.1821289 42.3037109,51.4068604 41.4899902,53.1977539 C40.6762695,54.9886475 40.3636475,54.7490234 40.1838379,54.670166 C40.0040283,54.5913086 37.5078125,53.1490479 36.4724121,52.980957 C35.4370117,52.8128662 33.8666992,52.7307129 33.6575928,52.623291 Z" id="路径-770" fill="#3F4871"></path>
                <path d="M51.4563018,35.3879395 C50.8384763,35.4484253 50.0822449,34.8537292 50.0953979,34.4260254 C50.108551,33.9983215 50.5801086,33.7660522 51.0474548,33.6687317 C51.514801,33.5714111 52.2689514,33.6912842 52.369751,34.1451416 C52.4705505,34.598999 52.0741272,35.3274536 51.4563018,35.3879395 Z" id="路径-773" fill="#1A2842"></path>
                <path d="M51.1500244,38.230896 C50.3991089,38.2801514 49.7511597,37.8566284 49.7891206,37.2689819 C49.8270815,36.6813354 50.2438965,36.4797668 50.7112427,36.3824463 C51.1785889,36.2851257 52.0570679,36.354248 52.1862183,36.8370361 C52.3153687,37.3198242 51.9009399,38.1816406 51.1500244,38.230896 Z" id="路径-773" fill="#1A2842"></path>
                <path d="M50.8727417,41.2583008 C50.1218262,41.3075562 49.6109619,40.6432495 49.6426392,40.2042847 C49.6743164,39.7653198 50.1608887,39.4835815 50.7733154,39.4189453 C51.3857422,39.3543091 51.881958,39.6869507 51.8157349,40.2059326 C51.7495117,40.7249146 51.6236572,41.2090454 50.8727417,41.2583008 Z" id="路径-773" fill="#1A2842"></path>
                <path d="M38.2034912,49.7930908 C37.3352661,49.8977661 36.9204102,50.4249268 36.8787842,50.6738281 C36.8371582,50.9227295 37.3006592,51.3088379 38.0753174,51.2878418 C38.8499756,51.2668457 39.0717163,49.6884155 38.2034912,49.7930908 Z" id="路径-771" fill="#091119"></path>
                <path d="M51.7157593,35.3436279 C51.9994629,35.2351028 52.1707764,34.7925415 52.0390625,34.543396 C51.9073486,34.2942505 51.5279541,34.0845947 51.2427368,34.2990112 C50.9575195,34.5134277 50.7344585,34.7400513 50.8682363,34.991272 C51.0020142,35.2424927 51.4320557,35.452153 51.7157593,35.3436279 Z" id="路径-772" fill="#091118"></path>
                <path d="M51.3980103,38.4980469 C51.6817138,38.3895218 51.8530273,37.9469604 51.7213135,37.6978149 C51.5895996,37.4486694 51.2102051,37.2390137 50.9249878,37.4534302 C50.6397705,37.6678467 50.4167095,37.8944702 50.5504873,38.1456909 C50.6842651,38.3969116 51.1143067,38.606572 51.3980103,38.4980469 Z" id="路径-772" fill="#091118"></path>
                <path d="M51.0180054,41.5962524 C51.301709,41.4877273 51.4730225,41.045166 51.3413086,40.7960205 C51.2095947,40.546875 50.8302002,40.3372192 50.5449829,40.5516357 C50.2597656,40.7660522 50.0367046,40.9926758 50.1704824,41.2438965 C50.3042603,41.4951172 50.7343018,41.7047775 51.0180054,41.5962524 Z" id="路径-772" fill="#091118"></path>
                <path d="M50.2506104,44.6711426 C50.5343139,44.5626175 50.7056274,44.1200562 50.5739136,43.8709106 C50.4421997,43.6217651 50.0628052,43.4121094 49.7775879,43.6265259 C49.4923706,43.8409424 49.2693096,44.0675659 49.4030874,44.3187866 C49.5368652,44.5700073 49.9669068,44.7796677 50.2506104,44.6711426 Z" id="路径-772" fill="#091118"></path>
                <path d="M49.9090576,47.3295898 C50.1927612,47.2210648 50.3640747,46.7785034 50.2323608,46.5293579 C50.100647,46.2802124 49.381897,45.8961182 49.0966797,46.1105347 C48.8114624,46.3249512 48.9277568,46.7260132 49.0615347,46.9772339 C49.1953125,47.2284546 49.625354,47.4381149 49.9090576,47.3295898 Z" id="路径-772" fill="#091118"></path>
                <path d="M49.7585479,48.2622369 C49.6853027,47.9127197 48.3126221,45.78125 47.6813965,45.2250977 C47.0501709,44.6689453 45.7976074,43.5527344 45.4125977,43.5317383 C45.0275879,43.5107422 44.7130127,43.5854492 44.5201416,43.8553467 C44.3272705,44.1252441 44.0770264,44.7222637 44.2492676,44.869751 C44.4215088,45.0172382 44.935791,44.2352295 45.4125977,44.4550781 C45.8894043,44.6749268 47.9101989,46.8222656 48.5990204,48 C49.2878418,49.1777344 45.1243896,49.5198598 44.8597412,49.3098145 C44.5950928,49.0997691 43.3765869,46.844079 43.0195312,46.4481625 C42.6624756,46.0522461 42.223877,45.0722516 41.4053955,45.2630615 C40.5869141,45.4538715 40.0523682,47.5814507 39.9924316,48.1826172 C39.952474,48.5833948 39.8540039,49.0735353 39.6970215,49.6530385 C40.0355632,50.2393495 40.2497965,50.4026571 40.3397217,50.1429615 C40.4746094,49.753418 41.1348877,47.5313569 41.2069092,47.0784226 C41.2789307,46.6254883 41.5786795,46.3343143 42.0349121,46.8292236 C42.4911448,47.324133 43.6971436,49.9032959 43.8253174,50.0444824 C43.9534912,50.1856689 44.7868652,50.4128418 46.9561768,50.1179199 C49.1254883,49.822998 49.831793,48.611754 49.7585479,48.2622369 Z" id="路径-774" fill="#EDEEEF"></path>
                <path d="M45.758842,44.2870162 C46.4122314,44.7950439 48.6827387,47.2092346 49.0244748,47.999942 C49.1602827,48.3141736 49.2302928,48.7714721 49.1850881,49.2210836 C48.7476283,49.6002298 48.0317178,49.9716982 46.9561768,50.1179199 C44.7868652,50.4128418 43.9534912,50.1856689 43.8253174,50.0444824 C43.6971436,49.9032959 42.4911448,47.324133 42.0349121,46.8292236 C41.6201552,46.3793061 41.3347237,46.5790441 41.232144,46.9593747 L41.1391016,47.3872773 C41.0228009,47.8575032 40.7914249,48.6635405 40.6034838,49.292752 C40.6351923,48.8190396 40.6887385,48.3841769 40.7630615,47.987793 C41.0299489,46.5644142 41.4211426,46.1077881 41.8620047,46.2150296 C42.3028667,46.3222711 42.7009277,47.1508789 43.4987044,48.1071947 C44.296481,49.0635105 44.244751,50.0703125 45.289316,49.8864746 C45.5689854,49.8372543 45.7693053,49.6568331 45.8902759,49.3452109 L46.333577,49.3000009 C47.5579473,49.147622 49.030514,48.7377599 48.5990204,48 C47.9101989,46.8222656 45.8894043,44.6749268 45.4125977,44.4550781 C45.0937805,44.3080762 44.7582083,44.6089985 44.5193373,44.7804677 C44.9641448,44.1532475 45.3770208,43.99014 45.758842,44.2870162 Z M40.8456377,45.7182049 L40.9160277,45.528719 C40.6077638,46.3157055 40.3938519,47.1467086 40.274292,48.0217285 C40.1945854,48.6050751 40.2142697,49.314247 40.3333448,50.1492442 C40.2431548,50.397516 40.0303387,50.2303015 39.6970215,49.6530385 C39.8226074,49.1894359 39.9107454,48.7830255 39.9614355,48.4338073 L39.9924316,48.1826172 C40.0373205,47.7323801 40.3484224,46.4259629 40.8456377,45.7182049 Z" id="形状" fill="#B6B6BB"></path>
                <path d="M49.5993652,47.4454346 C51.5153809,47.6846924 52.806718,48.3021412 54.1043701,49.8945312 C55.4020222,51.4869213 56.7716064,53.2530518 58.5578613,55.8664551 C59.7486979,57.608724 60.7146403,59.0616862 61.4556885,60.2253418 C58.4759521,59.6296387 56.4657796,59.3786621 55.4251709,59.4724121 C53.8642578,59.6130371 41.2544359,64.0113525 39.2762048,64.6102295 C37.957384,65.0094808 35.585734,65.3783388 32.1612549,65.7168034 C33.0058187,63.1774723 33.7024333,61.0155998 34.2510986,59.2311861 C35.0740967,56.5545654 37.3199877,51.2909278 38.2762048,50.1429615 C39.2324219,48.9949951 41.1623638,47.8985314 42.3189138,47.7033551 C43.4754639,47.5081787 47.6833496,47.2061768 49.5993652,47.4454346 Z M40.918457,53.6855469 C40.5223389,53.546875 39.8613281,53.9221191 39.6383057,54.0240479 C39.4152832,54.1259766 39.3369141,54.3410645 39.1936035,55.0236816 C39.050293,55.7062988 37.6229248,59.6270752 37.4467773,60.1859131 C37.2706299,60.744751 37.2994385,61.1855469 37.5648193,61.310791 C37.8302002,61.4360352 42.5649414,60.1005859 42.8366699,59.7263184 C43.1083984,59.3520508 42.9814453,57.5625 42.6635742,56.5204134 C42.3457031,55.4783267 41.3145752,53.8242188 40.918457,53.6855469 Z M49.0559295,50.9022761 C48.672528,50.9202748 48.1011963,50.9042844 47.1038208,51.5383849 C46.1064453,52.1724854 46.1700439,53.4055176 46.2664795,53.8967285 C46.362915,54.3879395 47.5511475,55.4505615 48.049615,55.8272705 C48.5480825,56.2039795 49.1582031,56.8894043 49.448062,56.9108887 C49.7379209,56.932373 52.2719727,55.9639893 52.5954619,55.8272705 C52.9189512,55.6905518 52.6931152,54.9691162 52.215457,54.4283447 C51.7377988,53.8875732 51.0410156,52.9885254 50.5954619,52.3540039 C50.1499082,51.7194824 49.4393311,50.8842773 49.0559295,50.9022761 Z" id="形状结合" fill="#5B605D"></path>
                <path d="M49.7331543,47.4060059 C51.6491699,47.6452637 52.9405071,48.2627125 54.2381592,49.8551025 C55.5358113,51.4474926 56.9053955,53.213623 58.6916504,55.8270264 C59.882487,57.5692952 60.8484294,59.0222575 61.5894775,60.1859131 C58.6097412,59.59021 56.5995687,59.3392334 55.55896,59.4329834 C53.9980469,59.5736084 40.7975268,64.0113525 38.8192956,64.6102295 C37.5004748,65.0094808 35.1288249,65.3783388 31.7043457,65.7168034 C32.5489095,63.1774723 33.2455241,61.0155998 33.7941895,59.2311861 C34.6171875,56.5545654 36.8630785,51.2909278 37.8192956,50.1429615 C38.7755127,48.9949951 40.7054546,47.8985314 41.8620047,47.7033551 C43.0185547,47.5081787 47.8171387,47.166748 49.7331543,47.4060059 Z M40.4615479,53.6855469 C40.0654297,53.546875 39.4044189,53.9221191 39.1813965,54.0240479 C38.958374,54.1259766 38.8800049,54.3410645 38.7366943,55.0236816 C38.5933838,55.7062988 37.1660156,59.6270752 36.9898682,60.1859131 C36.8137207,60.744751 36.8425293,61.1855469 37.1079102,61.310791 C37.373291,61.4360352 42.1080322,60.1005859 42.3797607,59.7263184 C42.6514893,59.3520508 42.5245361,57.5625 42.206665,56.5204134 C41.8887939,55.4783267 40.857666,53.8242187 40.4615479,53.6855469 Z M48.5990204,50.9022761 C48.2156188,50.9202748 47.6442871,50.9042844 46.6469116,51.5383849 C45.6495361,52.1724854 45.7131348,53.4055176 45.8095703,53.8967285 C45.9060059,54.3879395 47.0942383,55.4505615 47.5927058,55.8272705 C48.0911734,56.2039795 48.7012939,56.8894043 48.9911528,56.9108887 C49.2810117,56.932373 51.8150635,55.9639893 52.1385527,55.8272705 C52.462042,55.6905518 52.2362061,54.9691162 51.7585479,54.4283447 C51.2808896,53.8875732 50.5841064,52.9885254 50.1385527,52.3540039 C49.692999,51.7194824 48.9824219,50.8842773 48.5990204,50.9022761 Z" id="形状结合" fill="#D6D8D7"></path>
                <path d="M49.7331543,47.4060059 C50.6833664,47.5246613 51.4799402,47.736332 52.1998399,48.1138055 C49.6594905,48.2130996 47.1085357,48.7383695 44.5481374,49.6870117 C40.6627823,51.1265579 37.7313444,52.4464939 35.8037558,53.9958476 L36.1591557,53.2071602 C36.807096,51.7977523 37.423612,50.6179911 37.8192956,50.1429615 C38.7755127,48.9949951 40.7054546,47.8985314 41.8620047,47.7033551 C43.0185547,47.5081787 47.8171387,47.166748 49.7331543,47.4060059 Z" id="路径" fill="#DFE1E0"></path>
                <path d="M39.8738098,50.0489197 C39.403717,50.1154785 39.2565918,50.2871999 39.5158386,50.4595027 C39.7750854,50.6318054 40.2200623,50.4712785 40.2816162,50.3316956 C40.3431702,50.1921126 40.3439026,49.9823608 39.8738098,50.0489197 Z" id="路径-800" fill="#4F4E4E"></path>
                <path d="M44.5724182,49.1351318 C44.1023254,49.2016907 43.9552002,49.3734121 44.214447,49.5457148 C44.4736938,49.7180176 44.9186707,49.5574907 44.9802246,49.4179077 C45.0417786,49.2783248 45.042511,49.068573 44.5724182,49.1351318 Z" id="路径-800" fill="#4F4E4E"></path>
                <path d="M49.5619812,49.1515503 C49.0918884,49.2181091 48.9447632,49.3898306 49.20401,49.5621333 C49.4632568,49.734436 49.9082336,49.5739091 49.9697876,49.4343262 C50.0313416,49.2947432 50.032074,49.0849915 49.5619812,49.1515503 Z" id="路径-800" fill="#4F4E4E"></path>
                <path d="M54.2381592,49.8551025 L54.8945756,50.6688942 C55.8929798,51.9206537 56.964165,53.3332859 58.2535678,55.1909373 L59.5426102,57.079483 C60.3514023,58.2776947 61.0336914,59.3131714 61.5894775,60.1859131 L59.9179834,59.8698584 C57.8444548,59.5036084 56.3914469,59.3579834 55.55896,59.4329834 C53.9980469,59.5736084 40.7975268,64.0113525 38.8192956,64.6102295 L38.2356164,64.768309 C36.8493179,65.1073026 34.6722276,65.4234674 31.7043457,65.7168034 L32.7427572,62.5547078 C32.9804416,61.8201037 33.2016873,61.1274394 33.4064941,60.4767151 L33.7941895,59.2311861 C33.9075008,58.8626658 34.0477846,58.4451058 34.2079614,57.9959994 C35.5887146,57.6235342 36.9065629,57.2316284 38.1654435,56.8200707 L36.9898682,60.1859131 L36.9898682,60.1859131 C36.8137207,60.744751 36.8425293,61.1855469 37.1079102,61.310791 C37.373291,61.4360352 42.1080322,60.1005859 42.3797607,59.7263184 C42.6514893,59.3520508 42.5245361,57.5625 42.206665,56.5204134 C42.1151461,56.220384 41.9645029,55.8696222 41.7869132,55.5189017 C43.211672,54.9541761 44.5450036,54.359495 45.7861695,53.7340985 L45.8095703,53.8967285 L45.8095703,53.8967285 C45.8963623,54.3388184 46.8675098,55.2437512 47.4242542,55.6949377 L47.5927058,55.8272705 C48.0911734,56.2039795 48.7012939,56.8894043 48.9911528,56.9108887 C49.2810117,56.932373 51.8150635,55.9639893 52.1385527,55.8272705 C52.462042,55.6905518 52.2362061,54.9691162 51.7585479,54.4283447 C51.3604993,53.9777018 50.8102807,53.2782559 50.3800878,52.6904252 L50.1385527,52.3540039 C49.9626518,52.1035001 49.7454443,51.8217177 49.5233695,51.5735048 C50.8771464,50.6731841 52.0738215,49.7202793 53.1145125,48.7153905 C53.4958912,49.0234671 53.8667666,49.3993549 54.2381592,49.8551025 Z" id="路径" fill="#CECFCB"></path>
                <path d="M52.1459122,55.8799912 C52.5297716,55.8425215 52.8843093,55.8525432 53.2007219,55.9230518 C54.989284,56.2208149 56.7169495,56.4422898 58.3837185,56.5874767 L59.2503457,56.6525585 L59.5426102,57.079483 C60.3514023,58.2776947 61.0336914,59.3131714 61.5894775,60.1859131 L59.9179834,59.8698584 L58.9329291,59.7051188 C57.3773555,59.4611952 56.2526991,59.3704834 55.55896,59.4329834 C53.9980469,59.5736084 40.7975268,64.0113525 38.8192956,64.6102295 L38.2356164,64.768309 C36.8493179,65.1073026 34.6722276,65.4234674 31.7043457,65.7168034 L32.8399782,62.253338 L34.0870482,61.9243846 C34.9682242,61.6855263 35.9384665,61.4106938 36.9346226,61.1187146 C36.970656,61.2080155 37.0287615,61.2734375 37.1079102,61.310791 C37.373291,61.4360352 42.1080322,60.1005859 42.3797607,59.7263184 C42.4295381,59.6577571 42.4659366,59.5417019 42.4902334,59.3914482 L43.4327336,59.0686436 C44.1776345,58.8089314 44.8141744,58.5743761 45.289316,58.3794368 C46.426333,57.9129459 47.6543182,57.3382059 48.837683,56.855374 C48.8965263,56.8893385 48.9474755,56.9076513 48.9911528,56.9108887 C49.2476917,56.9299034 51.2621274,56.1735453 51.9461302,55.9046211 L52.1459122,55.8799912 Z" id="路径" fill="#BFC1BC"></path>
                <path d="M49.7331543,47.4060059 C51.6491699,47.6452637 52.9405071,48.2627125 54.2381592,49.8551025 L54.8945756,50.6688942 C55.8929798,51.9206537 56.964165,53.3332859 58.2535678,55.1909373 L58.6916504,55.8270264 C59.7772964,57.4153948 60.6760247,58.7633101 61.3878354,59.8707722 L61.0462646,59.8116934 L61.0462646,59.8116934 L57.7302111,55.1677537 C55.8524028,52.5596994 54.6403829,50.9274563 54.0941512,50.2710243 L54.0092773,50.1706543 C52.9073486,48.8919678 51.7242999,48.1763916 50.3465576,47.8477783 C48.9688153,47.519165 43.3355996,47.7570801 42.2927246,47.8723145 C41.2498496,47.9875488 39.24861,49.1327748 38.4261475,49.8392334 C37.9534918,50.2452235 37.0109101,51.7922019 35.5984026,54.4801686 C36.4301973,52.5428017 37.3086466,50.7560105 37.8192956,50.1429615 C38.7755127,48.9949951 40.7054546,47.8985314 41.8620047,47.7033551 C43.0185547,47.5081787 47.8171387,47.166748 49.7331543,47.4060059 Z" id="路径" fill="#FFFFFF"></path>
                <path d="M40.0179381,47.2451302 L39.9804535,47.2984437 L39.8959961,47.3447876 C39.7111969,47.4113555 39.9721286,48.929608 40.1224908,49.4292344 L40.1603394,49.5383849 C40.2974243,49.8591184 40.2528076,50.2579346 40.1603394,50.3435059 C40.0678711,50.4290771 39.7478638,50.5549316 39.4810791,50.3435059 C39.2142944,50.1320801 39.0684814,49.1594238 38.9949341,48.512146 C38.9753645,48.3399171 38.9648133,48.1268416 38.9651525,47.8910376 L38.9257812,48 C39.0515137,47.608724 39.1837972,47.3642578 39.3226318,47.2666016 C39.4504111,47.1767216 39.6821799,47.1695645 40.0179381,47.2451302 Z M48.057997,40.5990126 L48.1563042,40.5979353 L48.2515342,40.6042685 L48.3476562,40.628418 L48.3476562,40.628418 L48.3617812,40.6179353 L48.3894043,40.6205444 C48.603894,40.6447144 48.8689648,40.7266064 49.1639175,40.827713 L49.7875324,41.0441358 C50.3301917,41.2268214 51.1720581,41.6660156 51.508667,41.7155151 L51.9085455,41.7912359 C52.4260101,41.8985901 53.2067261,42.0799561 53.4451294,42.1473389 C53.7630005,42.2371826 53.8356323,42.8092041 53.4451294,43.0041504 C53.0546265,43.1990967 51.8612952,42.9834571 51.4105225,42.7735596 C50.9597497,42.563662 50.2525024,42.3060303 49.6412444,42.0441358 C49.0299863,41.7822413 48.4862061,41.7988892 48.2272339,41.7989502 C47.9682617,41.7990112 47.487915,41.6702271 47.3502808,41.7155151 C47.3137817,41.8935547 47.7997433,43.29229 48.0444336,43.9002075 C48.2891239,44.508125 49.4660347,46.7217407 49.6272583,47.3584595 L49.9028394,48.3102261 C50.0110317,48.7148566 50.0710704,49.0860935 49.9334717,49.2609253 C49.6857939,49.5756226 49.3648071,49.5912476 49.1290283,49.4530029 C48.8932495,49.3147583 48.5809937,48.1195068 48.4852295,47.7033551 C48.4031459,47.3466536 48.120304,46.6694513 47.880927,46.0226171 L47.7659912,45.7033551 C47.5398085,45.053169 47.0759714,44.0807747 46.9338937,43.5936503 L46.8967896,43.4353027 C46.8755611,43.293562 46.8370047,43.2107409 46.7964254,43.1778958 L46.8184814,43.243042 C46.5558675,42.5032959 46.449585,42.0084229 46.4996338,41.7584229 C46.5496826,41.5084229 46.805542,41.3036702 47.2672119,41.144165 C47.4993896,40.8444417 47.7057699,40.672526 47.8863525,40.628418 L48.057997,40.5990126 Z M46.6385505,43.4706573 L46.6282395,43.561966 C46.5528652,43.7850803 46.2725045,43.8313947 46.2046509,43.7814331 C46.1254883,43.7231445 45.3510742,43.3847422 45.0802612,43.5336304 C44.8545837,43.6577039 44.88394,44.8213346 44.9447109,45.5659713 L45.0271455,46.4234761 C45.0817236,47.1621655 45.116333,48.2394409 45.0870361,48.512146 L45.0462817,48.8403141 C45.0030767,49.129554 44.9331665,49.4226597 44.8095703,49.4530029 C44.6365356,49.4954834 44.2625732,49.5715942 44.1453247,49.3753662 C44.067159,49.2445475 44.0458238,48.9628499 44.0484597,48.6766401 L44.0662842,48.2622369 C44.0910844,47.9195591 43.9242621,45.6427774 43.8996957,44.6292967 L44.0217446,44.0217888 C44.0457311,43.9169892 44.0735363,43.8136887 44.1081543,43.7167969 C44.2835693,43.2258301 44.925293,42.9940186 45.2519531,42.9592285 C45.4658083,42.9364525 45.9280074,43.1069287 46.6385505,43.4706573 Z" id="形状" fill="#EEEEF1"></path>
                <path d="M38.985717,47.8277199 C39.0544621,48.4162192 39.1701773,49.0527219 39.2810059,49.3450928 C39.4647217,49.8297436 40.0551758,50.1657715 39.970459,49.5669262 C39.923848,49.237443 39.858465,48.6771607 39.8792573,48.1982134 C39.9404249,48.6549796 40.0458288,49.1745006 40.1224908,49.4292344 L40.1603394,49.5383849 C40.2974243,49.8591184 40.2528076,50.2579346 40.1603394,50.3435059 C40.0678711,50.4290771 39.7478638,50.5549316 39.4810791,50.3435059 C39.2142944,50.1320801 39.0684814,49.1594238 38.9949341,48.512146 C38.9753645,48.3399171 38.9648133,48.1268416 38.9651525,47.8910376 L38.985717,47.8277199 Z M46.4893168,41.8535727 C46.6624888,42.3216312 46.8422787,42.8358538 47.0286865,43.3962402 C47.3138079,44.2533831 47.7953379,45.1915109 48.1314169,45.8979775 L48.2857528,46.2304582 C48.6102019,46.9544467 49.173584,48.7893066 49.481384,48.7153905 C49.7052386,48.6616333 49.6386414,48.1391988 49.5368309,47.5347186 L49.4110917,46.7838682 L49.4110917,46.7838682 L49.546116,47.1122959 C49.5644598,47.1607293 49.5805585,47.205735 49.5941647,47.2469 L49.9028394,48.3102261 C50.0110317,48.7148566 50.0710704,49.0860935 49.9334717,49.2609253 C49.6857939,49.5756226 49.3648071,49.5912476 49.1290283,49.4530029 C48.9456448,49.3454793 48.7159974,48.5985318 48.5779301,48.0760624 L48.4852295,47.7033551 C48.4031459,47.3466536 48.120304,46.6694513 47.880927,46.0226171 L47.7659912,45.7033551 C47.5398085,45.053169 47.0759714,44.0807747 46.9338937,43.5936503 L46.8967896,43.4353027 C46.8755611,43.293562 46.8370047,43.2107409 46.7964254,43.1778958 L46.7155039,42.9410002 C46.5598269,42.4625842 46.4839108,42.1091035 46.4877556,41.8805579 L46.4893168,41.8535727 Z M45.0712313,43.5423704 C44.8545837,43.6577039 44.88394,44.8213346 44.9447109,45.5659713 L45.0271455,46.4234761 L45.0600904,46.9535517 C45.0939497,47.6012227 45.1098226,48.300042 45.0870361,48.512146 L45.0462817,48.8403141 C45.0030767,49.129554 44.9331665,49.4226597 44.8095703,49.4530029 C44.6365356,49.4954834 44.2625732,49.5715942 44.1453247,49.3753662 C44.067159,49.2445475 44.0458238,48.9628499 44.0484597,48.6766401 L44.0662842,48.2622369 C44.0910844,47.9195591 43.9242621,45.6427774 43.8996957,44.6292967 L43.9625212,44.3112374 L44.0363754,45.4248665 C44.0605874,45.7446121 44.0843936,46.0128935 44.1077937,46.2297108 L44.1540527,46.5947266 C44.2738037,47.3710953 44.2297363,48.8930664 44.5710449,48.826431 C44.8365072,48.7746035 44.8943173,48.4837125 44.8221774,47.2021219 L44.730331,45.8434645 C44.5976277,44.0345981 44.8439035,43.6258587 45.0712313,43.5423704 Z M47.2891846,41.3359158 C47.7749268,41.3673727 48.1765544,41.4283476 48.4940674,41.5188406 L49.0718858,41.7155895 C49.9164549,41.9937949 51.7023836,42.5195128 52.4563018,42.6510033 C52.9842983,42.7430909 53.265122,42.5729918 53.2987729,42.1407058 L53.2997967,42.1088996 L53.4451294,42.1473389 L53.4451294,42.1473389 C53.7630005,42.2371826 53.8356323,42.8092041 53.4451294,43.0041504 C53.0546265,43.1990967 51.8612952,42.9834571 51.4105225,42.7735596 C50.9597497,42.563662 50.2525024,42.3060303 49.6412444,42.0441358 C49.0299863,41.7822413 48.4862061,41.7988892 48.2272339,41.7989502 C47.9770404,41.7990092 47.5202265,41.6788101 47.3654369,41.7114978 L47.2891846,41.3359158 Z" id="形状" fill="#B8B8BD"></path>
                <path d="M10.8719482,63.4129639 C10.7750244,62.6392008 10.7389323,62.1199951 10.7636719,61.8553467 C10.8007812,61.458374 10.940158,60.6520996 10.7124634,60.5072632 C10.4847688,60.3624268 10.1555786,60.8051147 10.067749,61.5505981 C9.97991943,62.2960815 9.9932251,62.5610352 9.9932251,63.1105957 C9.9932251,63.6601563 10.0003052,65.3356934 11.1306152,66.3917847 C12.2609253,67.447876 14.9616699,69.0463562 15.288269,69.059845 C15.6148682,69.0733337 15.8977661,68.8421631 16.0148926,68.7407837 C16.132019,68.6394043 16.5771484,68.40448 16.5897827,68.2606812 C16.602417,68.1168823 13.4065552,66.5776978 12.3464966,65.7359619 C11.6397909,65.1748047 11.1482747,64.400472 10.8719482,63.4129639 Z" id="路径-779" fill="#AFB0BF"></path>
                <path d="M45.0906067,70.9664917 C45.1500244,70.9883728 45.3980408,71.1359253 45.5118103,71.2617493 C45.6255798,71.3875732 45.6766968,71.9017944 45.7569275,71.9520569 C45.8104146,71.9855652 45.8906657,72.0027568 45.9976807,72.0036316 C51.0171509,72.0036316 53.6956278,72.0036316 54.0331116,72.0036316 C54.5393372,72.0036316 55.1367493,71.9519653 55.2848816,71.2617493 C55.3836365,70.8016052 55.4383545,70.5267436 55.4490356,70.4371643 C48.5038045,70.7754618 45.0509949,70.9519043 45.0906067,70.9664917 Z" id="路径-780" fill="#606060"></path>
                <path d="M11.1627197,63.0748291 C10.6578369,63.0604858 10.493042,63.4459839 10.62146,64.0142822 C10.7498779,64.5825806 11.2646484,65.430603 11.9914551,66.039978 C12.7182617,66.649353 15.8303833,68.4785767 16.03479,68.4870605 C16.2391968,68.4955444 16.62146,68.177063 16.925293,68.4181519 C17.229126,68.6592407 17.9595337,68.4502563 18.0864258,68.536499 C18.2133179,68.6227417 18.0457153,69.0936279 18.3221436,69.2809448 C18.5985718,69.4682617 18.9487305,69.4523926 19.0028687,69.5953369 C19.0570068,69.7382813 19.1893311,70.2521973 19.630188,70.4163818 C20.0710449,70.5805664 22.2713623,71.0505981 22.7723999,71.210022 C23.2734375,71.3694458 25.4743652,71.6914063 25.6782837,71.6599121 C25.8822021,71.628418 26.6080933,70.9215088 26.8884888,70.8138428 C27.1688843,70.7061768 27.4655762,71.057312 27.4654541,71.3433838 C27.465332,71.6294556 29.2416992,71.9743652 30,72 C30.7583008,72.0256348 37.5083618,71.9852905 38.3612671,72 C39.2141724,72.0147095 40.1682129,72.0130005 40.4523926,72 C40.7365723,71.9869995 40.8896484,71.6384277 41.0323486,71.3433838 C41.1750488,71.0483398 42.0808105,70.2044067 42.6824951,70.2389526 C43.2841797,70.2734985 44.3600464,70.9720459 44.6514282,71.0663452 C44.9428101,71.1606445 54.9467163,71.1069336 55.2277222,71.0930786 C55.508728,71.0792236 55.8054199,70.7554321 56.2862549,70.6578369 C56.7670898,70.5602417 57.6988525,70.6427002 57.9744263,70.921936 C58.1052292,71.0544772 58.1849603,71.2473104 58.2136196,71.5004355 C58.225213,71.6028306 58.2225342,71.6657104 58.2814331,71.7555542 C58.340332,71.8453979 58.4888405,71.8356492 58.6199257,71.8348714 C66.1900815,71.7899587 70.0444952,71.7613427 70.1831665,71.7490234 C70.3947754,71.7302246 70.2162476,71.1242676 70.4368286,71.0976563 C70.6574097,71.0710449 70.5109863,71.1998901 70.7781982,71.210022 C71.0454102,71.2201538 71.5368652,71.1011963 71.5776367,71.210022 C71.6184082,71.3188477 71.5430298,71.5720215 72.3258667,71.4200439 C73.1087036,71.2680664 76.7282104,70.2579346 78.0263062,69.7236938 C79.3244019,69.1894531 82.2188721,67.8299626 84.0584717,66.2125244 C85.2848714,65.1342323 85.9320475,64.3967242 86,64 C86,62.5490723 86,61.7327067 86,61.5509033 C86,61.2781982 85.9854736,60.3377332 85.1555176,60.4869818 C84.8339844,60.1348877 84.3963623,59.5924072 84.425415,57.8929443 C84.2954102,56.9602051 83.6275635,55.5297852 83.3387451,55.4134521 C83.0499268,55.2971191 80.9545041,55.3260498 79.0489684,55.0322266 C77.1434326,54.7384033 75.0385742,54.3098145 74.0917969,54.5192871 C73.1450195,54.7287598 68.409668,56.5138875 66.5760498,57.3105936 C64.7424316,58.1072998 62.0380859,59.21875 61.1256104,59.1821289 C60.2131348,59.1455078 56.8728027,58.2712402 56.0524902,58.2567139 C55.2321777,58.2421875 45.1766357,61.5029297 42.2913818,62.3519287 C39.4061279,63.2009277 34.3222656,64.555542 31.7641602,64.7427979 C29.2060547,64.9300537 19.2205811,64.645874 17.0047607,64.3273926 C14.7889404,64.0089111 11.6676025,63.0891724 11.1627197,63.0748291 Z" id="路径-778" fill="#8E8F96"></path>
                <path d="M11.1029053,63.2513428 C10.5980225,63.2369995 10.493042,63.4459839 10.62146,64.0142822 C10.7498779,64.5825806 11.2646484,65.430603 11.9914551,66.039978 C12.7182617,66.649353 15.8303833,68.4785767 16.03479,68.4870605 C16.2391968,68.4955444 16.62146,68.177063 16.925293,68.4181519 C17.229126,68.6592407 17.9595337,68.4502563 18.0864258,68.536499 C18.2133179,68.6227417 18.0457153,69.0936279 18.3221436,69.2809448 C18.5985718,69.4682617 18.9487305,69.4523926 19.0028687,69.5953369 C19.0570068,69.7382813 19.1893311,70.2521973 19.630188,70.4163818 C20.0710449,70.5805664 22.2713623,71.0505981 22.7723999,71.210022 C23.2734375,71.3694458 25.4743652,71.6914063 25.6782837,71.6599121 C25.8822021,71.628418 26.6080933,70.9215088 26.8884888,70.8138428 C27.1688843,70.7061768 27.4655762,71.057312 27.4654541,71.3433838 C27.465332,71.6294556 29.2416992,71.9743652 30,72 C30.7583008,72.0256348 37.5083618,71.9852905 38.3612671,72 C39.2141724,72.0147095 40.1682129,72.0130005 40.4523926,72 C40.7365723,71.9869995 40.8896484,71.6384277 41.0323486,71.3433838 C41.1750488,71.0483398 42.0808105,70.2044067 42.6824951,70.2389526 C43.2841797,70.2734985 44.3600464,70.9720459 44.6514282,71.0663452 C44.9428101,71.1606445 54.9467163,71.1069336 55.2277222,71.0930786 C55.508728,71.0792236 55.8054199,70.7554321 56.2862549,70.6578369 C56.7670898,70.5602417 57.6988525,70.6427002 57.9744263,70.921936 C58.1052292,71.0544772 58.1849603,71.2473104 58.2136196,71.5004355 C58.225213,71.6028306 58.2225342,71.6657104 58.2814331,71.7555542 C58.340332,71.8453979 58.4888405,71.8356492 58.6199257,71.8348714 C66.1900815,71.7899587 70.0444952,71.7613427 70.1831665,71.7490234 C70.3947754,71.7302246 70.2162476,71.1242676 70.4368286,71.0976563 C70.6574097,71.0710449 70.5109863,71.1998901 70.7781982,71.210022 C71.0454102,71.2201538 71.5368652,71.1011963 71.5776367,71.210022 C71.6184082,71.3188477 71.5430298,71.5720215 72.3258667,71.4200439 C73.1087036,71.2680664 76.7282104,70.2579346 78.0263062,69.7236938 C79.3244019,69.1894531 82.2188721,67.8299626 84.0584717,66.2125244 C85.2848714,65.1342323 85.9320475,64.3967242 86,64 C86,62.5490723 86,61.7327067 86,61.5509033 C86,61.2781982 85.9854736,60.3377332 85.1555176,60.4869818 C84.8339844,60.1348877 84.3963623,59.5924072 84.425415,57.8929443 C84.2954102,56.9602051 83.6275635,55.5297852 83.3387451,55.4134521 C83.0499268,55.2971191 80.8946897,55.5025635 78.9891539,55.2087402 C77.0836182,54.914917 74.9787598,54.4863281 74.0319824,54.6958008 C73.0852051,54.9052734 68.3498535,56.6904011 66.5162354,57.4871073 C64.6826172,58.2838135 61.9782715,59.3952637 61.0657959,59.3586426 C60.1533203,59.3220215 56.8129883,58.4477539 55.9926758,58.4332275 C55.1723633,58.4187012 45.1168213,61.6794434 42.2315674,62.5284424 C39.3463135,63.3774414 34.2624512,64.7320557 31.7043457,64.9193115 C29.1462402,65.1065674 19.1607666,64.8223877 16.9449463,64.5039062 C14.729126,64.1854248 11.6077881,63.265686 11.1029053,63.2513428 Z" id="路径-778" fill="#CACBD3"></path>
                <path d="M86.0049799,61.6292999 L85.999291,63.5332999 L85.2768945,63.7747321 C83.4460742,64.3859926 81.5469727,65.0452291 79.5795898,65.7524414 C76.0383008,67.0254236 72.3128789,69.8758175 71.7126429,71.0788342 L71.6541299,71.2203979 C71.644949,71.2495335 71.6285401,71.2781864 71.6049033,71.3063565 L71.5776367,71.210022 L71.5776367,71.210022 C71.5368652,71.1011963 71.0454102,71.2201538 70.7781982,71.210022 C70.5109863,71.1998901 70.6574097,71.0710449 70.4368286,71.0976563 C70.2162476,71.1242676 70.3947754,71.7302246 70.1831665,71.7490234 L58.6199257,71.8348714 C58.4888405,71.8356492 58.340332,71.8453979 58.2814331,71.7555542 C58.2225342,71.6657104 58.225213,71.6028306 58.2136196,71.5004355 C58.1849603,71.2473104 58.1052292,71.0544772 57.9744263,70.921936 C57.6988525,70.6427002 56.7670898,70.5602417 56.2862549,70.6578369 L56.1332176,70.6978027 L56.1332176,70.6978027 C54.7785128,67.8947589 54.7757107,66.088463 56.1264648,65.2797852 C58.5585938,63.8237031 69.8449707,65.317627 75.7800293,64.0561523 C79.4842807,63.2688275 82.8925976,62.4598767 86.0049799,61.6292999 Z" id="路径" fill="#C3C4CF"></path>
                <path d="M19.0242147,69.6651651 C19.8377239,69.9344087 20.6929336,70.1585284 21.5898437,70.3375244 L22.971546,70.5981558 C24.3205624,70.8392998 25.7510091,71.0565641 26.0639648,71.0023069 C26.3798828,70.7124995 27.9725342,69.8917236 28.9241943,70.1690676 C29.5586344,70.3539636 29.9709473,70.7193091 30.1611328,71.2651041 L31.7043457,71.2651041 L31.7043457,71.2651041 L33.2982834,71.2824079 C35.9083769,71.2910892 39.6040401,71.2335158 41.1617131,71.1673361 C41.1181659,71.2135058 41.0851951,71.2556652 41.0613807,71.2924376 L40.8817184,71.6418593 C40.7730306,71.8335232 40.6418457,71.991333 40.4523926,72 L39.4907192,72.0103333 L39.4907192,72.0103333 L36.700883,71.9975793 C34.3943477,72.0018496 30.5604832,72.0189474 30,72 L29.6208307,71.9705686 C28.7704206,71.8770204 27.4653495,71.5885882 27.4654541,71.3433838 C27.4655762,71.057312 27.1688843,70.7061768 26.8884888,70.8138428 C26.6080933,70.9215088 25.8822021,71.628418 25.6782837,71.6599121 C25.4900513,71.6889836 23.6002251,71.4168867 22.9165168,71.2494625 L22.3513719,71.0959646 C21.5294109,70.8897882 19.9908891,70.5507147 19.630188,70.4163818 C19.3152902,70.2991071 19.157807,70.003398 19.0737929,69.7919014 L19.0242147,69.6651651 Z M55.2655616,70.44424 L55.3642578,70.4061279 C55.9597778,70.0534668 57.8227539,70.7393799 58.823381,70.7674561 L60.0431229,70.7660858 C61.6946098,70.750134 64.8796551,70.6954556 69.598259,70.6020508 L70.0956131,70.8008081 C70.4539809,70.949546 70.6721141,71.0560513 70.7500126,71.1203237 C70.7752821,71.1411731 70.7919807,71.1699912 70.8001083,71.206778 L70.7781982,71.210022 C70.5109863,71.1998901 70.6574097,71.0710449 70.4368286,71.0976563 C70.2162476,71.1242676 70.3947754,71.7302246 70.1831665,71.7490234 L58.6199257,71.8348714 C58.4888405,71.8356492 58.340332,71.8453979 58.2814331,71.7555542 C58.2225342,71.6657104 58.225213,71.6028306 58.2136196,71.5004355 C58.1849603,71.2473104 58.1052292,71.0544772 57.9744263,70.921936 C57.6988525,70.6427002 56.7670898,70.5602417 56.2862549,70.6578369 C55.8054199,70.7554321 55.508728,71.0792236 55.2277222,71.0930786 L48.419231,71.1204829 C46.4385376,71.118103 44.767981,71.1040649 44.6514282,71.0663452 C44.5537568,71.034736 44.367941,70.9352338 44.1413861,70.8156046 L45.1213223,70.7017334 C45.3332418,70.6797282 45.5660193,70.6576253 45.8196547,70.6354248 L46.2157512,70.6020508 C47.2055106,70.5216487 54.1996034,70.7407794 55.2655616,70.44424 L55.2655616,70.44424 Z" id="形状" fill="#5B5C65"></path>
                <path d="M82.8123779,57.0648193 C81.8128662,57.2800434 78.7875977,57.6169434 76.6134033,57.8511963 C74.439209,58.0854492 70.232666,58.1289063 69.4915771,58.2346191 C68.7504883,58.340332 67.9971924,59.1728516 68.980957,59.5944824 C69.9647217,60.0161133 71.682373,60.1453857 74.8010254,59.8572998 C77.9196777,59.5692139 81.4575195,58.8564453 82.3319092,58.541748 C83.2062988,58.2270508 83.8118896,56.8495953 82.8123779,57.0648193 Z" id="路径-783" fill="#D8D9DD"></path>
                <path d="M83.5088501,55.78125 C83.5780667,55.8164386 83.674018,55.9021398 83.7835283,56.0209921 C84.0609663,56.5544368 84.3453045,57.3181795 84.425415,57.8929443 C84.3963623,59.5924072 84.8339844,60.1348877 85.1555176,60.4869818 L85.2063353,60.4790568 L85.2063353,60.4790568 L85.2160034,60.5670166 L85.2160034,60.5670166 C85.2992147,60.7908936 85.2214152,60.9416504 84.982605,61.0192871 C84.6243896,61.1357422 84.2931519,59.7329712 83.8366699,59.6004639 C83.380188,59.4679565 82.3652039,59.8685913 81.4346924,60.0424194 L81.00984,60.1125015 C79.5918391,60.3287451 76.0594076,60.7557441 74.3979492,60.8148804 L73.2838672,60.8560896 C71.8156055,60.9078142 70.4453125,60.9268779 69.5239258,60.6759644 C68.3721924,60.3623224 68.3762817,59.7038574 68.4525757,59.3879395 C68.5288696,59.0720215 68.6275635,58.9737549 68.9053955,58.6623535 L68.9056062,58.8364684 C68.9158957,59.1375851 69.0197423,59.479187 69.8751373,59.6491699 C70.9016113,59.8531494 76.6114502,59.5400391 78.133667,59.4172363 C79.6558838,59.2944336 82.3973389,58.7114258 83.0939941,58.534668 C83.7906494,58.3579102 83.980835,57.9395752 84.005249,57.6845703 C84.0296631,57.4295654 83.7891846,56.9815674 83.7711182,56.7108154 C83.7530518,56.4400635 83.3565674,56.2224217 83.2290039,55.9842577 C83.1014404,55.7460938 82.4116211,55.7630053 82.4403076,56.1744385 C82.4632568,56.503585 82.5784717,56.7693784 82.6532334,56.9711548 L82.7833459,57.3740511 C82.8248892,57.5200396 82.8326187,57.6414948 82.678772,57.6194458 C82.4326172,57.5841675 82.3788452,57.2317505 82.1555176,57.1257324 L81.8741568,56.9955625 C81.6632758,56.8911608 81.4365438,56.7484741 81.37854,56.5492554 L81.3147883,56.3184519 C81.2618809,56.0860252 81.2695313,55.8639069 81.5899658,55.7886963 C82.0172119,55.6884155 83.1593628,55.6035767 83.5088501,55.78125 Z" id="路径" fill="#BDBAC2"></path>
                <path d="M82.4681396,56.9575195 C81.7578125,57.0467529 78.6074219,57.3094482 77.1260986,57.4805908 C75.6447754,57.6517334 72.0430908,57.9325144 70.9573975,57.8826904 C69.8717041,57.8328665 73.0609131,55.5657818 71.9182129,55.9716797 C70.7755127,56.3775776 65.465332,58.2143555 66.2679443,58.6103516 C67.0705566,59.0063477 68.5810547,59.1376802 69.0229492,58.9882813 C69.4648437,58.8388823 69.6654053,58.4514371 70.8907471,58.4362793 C72.1160889,58.4211215 75.9780701,58.1262206 77.9125977,57.9390869 C79.8471252,57.7519532 81.9907956,57.4207764 82.6778564,57.2021484 C83.3649173,56.9835205 83.1784668,56.8682861 82.4681396,56.9575195 Z" id="路径-782" fill="#E6E7EC"></path>
                <path d="M86,63.2851992 L86,64 C85.9320475,64.3967242 85.2848714,65.1342323 84.0584717,66.2125244 C82.341512,67.7221334 79.7056429,69.0070413 78.3064247,69.6060105 L78.0263062,69.7236938 C76.7282104,70.2579346 73.1087036,71.2680664 72.3258667,71.4200439 C71.9014867,71.5024318 71.7293174,71.4657545 71.6541299,71.3975544 C71.7523515,70.9141782 71.9894334,70.4328206 72.4365234,70.2203979 C73.1578369,69.8776855 74.6765137,70.1435547 77.2700195,69.2307129 C79.8635254,68.3178711 82.0737305,66.8383789 83.3564453,65.918335 C84.1165726,65.3731237 84.9741472,64.5252826 85.9291691,63.3748116 L86,63.2851992 Z" id="路径" fill="#9A98A5"></path>
                <path d="M85.0454575,60.442896 L85.0419461,60.3577774 L85.1555176,60.4869818 C85.3786661,60.4468537 85.5428673,60.4855008 85.6636878,60.5687643 L85.6359863,60.6628418 C85.4761556,61.0719401 84.5523817,61.4053548 83.0964355,61.820204 L80.4953613,62.6257324 C77.7018433,63.5496826 74.7043457,64.1768188 71.6827504,64.4424633 L70.6014925,64.5327449 C68.6498171,64.6623775 65.9871826,64.7377554 66.8154297,64.7047119 L67.5991563,64.6528403 C69.0963013,64.5352868 71.9546323,64.2491924 73.3025183,64.0048825 L74.1048995,63.8346046 C75.9067194,63.4297925 79.7016635,62.5254639 80.1411133,62.3613281 L83.0528783,61.4315492 C84.037499,61.1068763 84.9075928,60.7929416 84.9886475,60.6628418 C85.0233852,60.6070847 85.0423219,60.5337695 85.0454575,60.442896 Z" id="路径" fill="#FFFFFF"></path>
                <path d="M74.0319824,54.6958008 C74.9787598,54.4863281 77.0836182,54.914917 78.9891539,55.2087402 C80.1236084,55.3836669 81.3465664,55.3816344 82.2114984,55.375894 C81.622266,55.4784822 81.1079978,55.5443106 80.6651611,55.5734863 C79.4904785,55.6508789 77.5751953,55.2814941 76.4821777,55.0748291 C75.3891602,54.8681641 74.0474854,54.8568115 72.9046631,55.3731689 L72.3220204,55.6224757 C70.9935203,56.1697699 68.8207833,56.9651053 68.2347412,57.2156982 L67.4473415,57.5729015 C66.5260211,58.0152007 65.1133219,58.7783854 63.682373,59.9038086 C61.815918,61.3717519 58.9426113,60.2849836 58.1623488,59.6555852 L58.0692139,59.572876 C57.4591064,58.9648438 56.2142334,58.7952881 55.4490356,58.9251709 C55.0919434,58.9857829 54.351905,59.20808 53.4638656,59.4953329 L50.1899414,60.590332 C48.9361313,61.0122181 47.8904771,61.3770456 47.0529785,61.6848145 C48.045223,61.4709293 51.6862666,60.932253 50.798584,61.4484863 C49.9109013,61.9647196 47.2366943,62.9251709 45.3508301,63.1738281 C43.4649658,63.4224854 41.512085,63.814209 40.177124,64.0314941 C38.8421631,64.2487793 35.1537476,65.0994873 33.3450317,65.2583008 L31.0497351,65.4520015 C28.8178827,65.6246832 25.7130981,65.8080159 22.9196777,65.7168034 C20.2592773,65.6299344 17.9106852,65.3884365 15.8739014,64.9923096 C17.9549154,65.4378662 19.7906087,65.7182414 21.3809814,65.8334351 C23.7665405,66.0062256 26.6835327,66.035577 29.7275391,65.838501 L30.7992713,65.7606866 C33.417879,65.5529683 36.7550396,65.1771311 38.5691799,64.9469231 L40.7763697,64.6571423 C42.7019985,64.4171436 45.2492783,64.1575102 45.96521,64.3934937 C46.9014282,64.7020874 47.2332764,65.503479 47.3230591,66.0288696 C47.3829142,66.37913 47.3654378,67.1289063 47.2706299,68.2781982 L47.2824658,67.5487451 C47.2850244,67.2260059 47.2825439,66.9662476 47.2750244,66.7694702 C47.2562256,66.2775269 47.1213379,65.6338844 46.5686035,65.0908203 C46.1079915,64.6382669 43.7158712,64.7891615 40.5726087,65.1627871 L38.605957,65.4106445 C34.5301514,65.9476318 27.3248291,66.3502197 25.163208,66.3374023 C23.0015869,66.324585 18.2752686,65.9372559 16.0977783,65.4106445 C13.9202881,64.8840332 11.781304,63.8366699 11.4125977,63.6401367 C11.2019083,63.527832 10.9658281,63.5847317 10.704357,63.8108359 L10.5990825,63.9061539 C10.5086854,63.4193058 10.6314292,63.2379486 11.1029053,63.2513428 C11.6077881,63.265686 14.729126,64.1854248 16.9449463,64.5039062 C19.1607666,64.8223877 29.1462402,65.1065674 31.7043457,64.9193115 C34.2624512,64.7320557 39.3463135,63.3774414 42.2315674,62.5284424 L46.2207803,61.2981336 C50.2329507,60.0446874 55.4136317,58.4229736 55.9926758,58.4332275 C56.8129883,58.4477539 60.1533203,59.3220215 61.0657959,59.3586426 C61.7501526,59.3861084 63.4424362,58.7677841 65.0193634,58.1207949 L67.1466825,57.2210069 C69.2590381,56.3491321 73.1798828,54.8843262 74.0319824,54.6958008 Z" id="路径" fill="#FAFAFA"></path>
                <path d="M10.6674717,64.1743438 L11.1209721,64.6890674 C11.9989865,65.6580257 12.7223896,66.306958 13.2911814,66.6358643 L14.0344312,67.0501001 C14.9893089,67.567105 16.0265329,68.0829904 16.1779785,68.1531982 C16.3707275,68.2425537 17.4643555,67.9898682 17.7799072,67.7542725 L17.9763118,67.5900278 C18.1873644,67.4011276 18.3288303,67.2605794 18.3347168,67.5761719 C18.3422852,67.9819336 18.9677734,68.7685267 19.5144043,69.0604108 C20.0337036,69.3377007 24.6065411,69.7728494 25.8581522,69.7872035 L26.0270996,69.7858887 C26.9550781,69.7526855 27.4590454,69.8118896 27.8922119,69.7858887 C28.3253784,69.7598877 28.9029541,68.3184814 29.0288696,68.3114014 C29.1547852,68.3043213 29.5174603,69.8661625 30.2301025,69.8532715 C37.6023013,69.5051727 41.4969139,69.3190155 41.9139404,69.2947998 C42.5394802,69.2584763 42.4639282,67.6641846 42.744812,67.5356445 C42.9079581,67.4609845 43.0186199,68.2407987 44.3178711,69.4326782 C44.3752544,69.4853193 44.9080382,69.6602708 45.6873779,69.765564 C47.5156939,70.0125796 52.4386899,70.0908862 53.1135254,70.3444824 C53.5515768,70.5090976 52.3183771,70.6296669 49.8818359,70.6796875 C48.940431,70.6990139 46.2006209,70.6311647 45.5679321,70.6673584 L45.2164138,71.0960561 C44.8919142,71.0883899 44.6893627,71.0786219 44.6514282,71.0663452 C44.3600464,70.9720459 43.2841797,70.2734985 42.6824951,70.2389526 C42.264251,70.214939 41.6990784,70.6154017 41.345407,70.9609174 C40.865939,70.9176947 40.0646139,70.7668539 39.4744873,70.7664795 L34.2217769,70.7439388 C33.4856251,70.7448699 32.8249312,70.7492976 32.3629516,70.759585 L31.4162369,70.7979126 C30.7826462,70.8353271 30.3313599,70.890686 30.0623779,70.9639893 C29.5883382,70.3444417 29.1125081,70.0432943 28.6348877,70.0605469 C28.0208043,70.0827288 27.6991814,70.1419952 27.3327804,70.3575365 L27.1442871,70.4788818 C26.7391222,70.7598606 26.7217852,70.6173246 26.2338228,70.5487449 L25.6313094,70.4826016 C24.2986545,70.3062769 20.6307732,69.6936466 19.996582,69.6555176 C19.277832,69.6123047 18.3399658,68.3684082 17.9995117,68.2818604 C17.7565263,68.2200903 17.2342405,68.3217924 16.8895087,68.4014193 C16.595585,68.1984125 16.2322234,68.495255 16.03479,68.4870605 C15.8303833,68.4785767 12.7182617,66.649353 11.9914551,66.039978 C11.3554993,65.5067749 10.8818836,64.7908573 10.6873865,64.2394937 L10.6674717,64.1743438 Z" id="路径" fill="#DCDCE1"></path>
                <path d="M65.4144287,61.3436279 C67.9024658,61.9177246 70.5584717,62.3220215 74.053833,62.3378906 L76.132238,62.3362731 L79.3411492,62.3110588 C79.652358,62.3134662 79.8992263,62.321239 80.0932617,62.3378906 C80.9040527,62.4074707 76.7807007,63.5812378 74.1300659,63.9445801 C71.4794312,64.3079224 67.2051036,64.6564876 64.5553175,64.9255005 L63.5143873,65.0446809 L62.2206735,65.2298835 C60.0662566,65.6224719 59.092428,66.0348964 58.614502,66.5239258 C58.1311035,67.0185547 59.2692871,68.0067268 59.9993896,68.8564453 C60.7294922,69.7061639 62.3248291,70.1351318 63.4906407,69.0212273 C64.6564522,67.9073228 66.336792,67.0053711 66.8612061,66.9384766 C67.3856201,66.871582 68.2780762,67.093959 69.2399902,67.8134766 C70.095025,68.4530478 70.6143151,69.1730657 70.7347605,69.9814968 L70.7611084,70.2888184 C70.7623342,70.3401374 70.8825989,70.7955017 70.6428223,70.8007812 L68.2501897,70.8574337 L67.390186,70.887775 L66.1062293,70.9408853 L63.8672615,70.99266 C62.2210839,71.021988 60.4176778,71.0403609 59.3560614,71.0443083 L58.3542346,71.0435556 C58.2795713,71.0449959 58.1861981,71.047518 58.0741149,71.051122 C58.0445059,71.0019573 58.0115196,70.9595223 57.9744263,70.921936 C57.6988525,70.6427002 56.7670898,70.5602417 56.2862549,70.6578369 C55.8054199,70.7554321 55.508728,71.0792236 55.2277222,71.0930786 L48.2991688,71.1203237 C47.6488864,71.1193793 47.0352332,71.1171349 46.5031111,71.1131565 L45.8656931,71.0586508 C45.4337717,71.0065561 45.2879194,70.9369973 45.7125244,70.8441162 C46.980957,70.5666504 54.2575912,70.6204834 54.9356804,70.5583496 C55.5738819,70.4998707 54.5675218,70.0194628 53.492308,69.2061753 L53.2902832,69.0498047 C52.1452637,68.1418457 49.5162948,65.9608154 49.7636406,64.6079102 C50.0109863,63.2550049 52.5351738,61.0985974 56.4444668,60.4869818 C60.3537598,59.8753662 62.9263916,60.7695312 65.4144287,61.3436279 Z" id="路径" fill="#CDCCD6"></path>
                <path d="M67.1491241,68.2781982 C68.0780524,68.2948889 69.2816823,68.9615014 70.7600138,70.2780356 L70.7801376,70.4118346 C70.8016658,70.5636039 70.8140913,70.7970101 70.6428223,70.8007812 L68.2501897,70.8574337 L67.390186,70.887775 L66.1062293,70.9408853 L63.8672615,70.99266 C62.2210839,71.021988 60.4176778,71.0403609 59.3560614,71.0443083 L58.3542346,71.0435556 L58.0741149,71.051122 L58.0741149,71.051122 C58.0445059,71.0019573 58.0115196,70.9595223 57.9744263,70.921936 C57.6988525,70.6427002 56.7670898,70.5602417 56.2862549,70.6578369 C55.8054199,70.7554321 55.508728,71.0792236 55.2277222,71.0930786 L48.2991688,71.1203237 L46.5031111,71.1131565 L46.5031111,71.1131565 L45.8656931,71.0586508 L45.623247,71.0212694 C45.3971192,70.9744894 45.3822761,70.916357 45.7125244,70.8441162 C46.980957,70.5666504 54.2575912,70.6204834 54.9356804,70.5583496 C55.2927693,70.5256293 55.1350005,70.360817 54.738388,70.0795112 L55.129287,70.1159424 C55.2374684,70.1280423 55.3224785,70.1400374 55.3811584,70.1517449 L55.4490356,70.1690676 C55.9940186,70.3654789 61.2563477,70.2255859 62.2301008,70.1690676 C63.2038539,70.1125493 65.4846191,68.248291 67.1491241,68.2781982 Z" id="路径" fill="#BEBDC6"></path>
                <path d="M66.6307109,69.4098845 L67.0480957,69.4279785 C68.0667621,69.5161257 69.0852719,69.9778714 70.103625,70.8132154 L68.2501897,70.8574337 L67.390186,70.887775 L66.1062293,70.9408853 L63.8672615,70.99266 C62.2210839,71.021988 60.4176778,71.0403609 59.3560614,71.0443083 L58.3542346,71.0435556 L58.0741149,71.051122 L58.0741149,71.051122 C58.0445059,71.0019573 58.0115196,70.9595223 57.9744263,70.921936 C57.6988525,70.6427002 56.7670898,70.5602417 56.2862549,70.6578369 C55.8054199,70.7554321 55.508728,71.0792236 55.2277222,71.0930786 L48.2991688,71.1203237 L46.5031111,71.1131565 L46.5031111,71.1131565 L45.8656931,71.0586508 L45.623247,71.0212694 C45.3971192,70.9744894 45.3822761,70.916357 45.7125244,70.8441162 C46.980957,70.5666504 54.2575912,70.6204834 54.9356804,70.5583496 C55.0398313,70.5488062 55.1001836,70.5280258 55.1235857,70.4963954 L56.7319654,70.5241811 C59.3504346,70.5602153 62.6484682,70.5642793 63.2917834,70.4476755 C64.2644723,70.2713711 65.0327121,69.4124364 66.6307109,69.4098845 L66.6307109,69.4098845 Z" id="路径" fill="#ADACB6"></path>
                <path d="M45.5727539,68.0866699 C45.9359131,67.8522949 46.1933594,66.1568804 45.2576904,65.7009377 C44.3220215,65.2449951 37.7427575,65.8439941 35.7845459,65.947876 C33.8263343,66.0517578 26.7055664,66.5769043 25.1883545,66.5567627 C23.6711426,66.5366211 17.5247803,66.0523682 17.9824219,66.2467041 C18.4400635,66.44104 21.3305664,67.0888672 21.7896729,67.5305176 C22.2487793,67.972168 22.8222656,68.8816999 23.4317627,68.9127197 C24.0412598,68.9437396 27.6219482,69.152696 27.8726807,68.9368896 C28.1234131,68.7210833 28.9144287,67.161377 29.1342773,67.1633301 C29.354126,67.1652832 29.8765869,68.6513672 30.2104492,68.8321533 C30.5443115,69.0129395 33.8828125,68.8057861 35.9864502,68.7375488 C38.0900879,68.6693115 41.7758892,68.5466309 41.8620047,68.4627686 C41.9481201,68.3789062 42.5162354,66.3671875 42.782959,66.3526611 C43.0496826,66.3381348 43.7095947,68.2006836 43.8339844,68.2781982 C43.958374,68.3557129 45.2095947,68.3210449 45.5727539,68.0866699 Z" id="路径-781" fill="#D8D9DD"></path>
                <path d="M63.2917834,45.8434645 C62.0089229,44.9781763 61.2861125,44.5401204 61.1233521,44.5292969 C60.9605916,44.5184733 60.4602667,45.142903 59.6223771,46.4025858 L59.5339355,46.0993547 C60.3686117,44.8692592 60.8884277,44.254026 61.0933838,44.2536552 C61.4008179,44.2531128 63.247202,45.4450684 63.2917834,45.5487061 C63.3215043,45.6177979 63.3215043,45.7160507 63.2917834,45.8434645 Z" id="路径-797" fill="#F4F4F4"></path>
                <path d="M59.9700317,46.4025858 C60.1669617,46.6006165 61.4339905,47.5718384 61.7037048,47.5433044 C61.9734192,47.5147705 63.1000366,46.0308228 63.12323,45.9390869 C63.1464233,45.8473511 63.1793823,45.6228027 63.12323,45.4971313 C63.3451843,45.6852417 63.4221191,45.8769226 63.3675232,45.9989929 C63.3129272,46.1210632 62.0827332,47.8120786 61.9478455,47.9110747 C61.8129578,48.0100708 61.5661926,48.0475827 61.3284607,47.9110747 C61.0907288,47.7745667 59.6417542,46.599884 59.5822449,46.4872437 C59.5227356,46.3746033 59.5611588,46.116272 59.6495056,45.9796448 C59.6757989,45.9389825 59.8517185,45.7498829 59.87146,45.7511292 C59.89594,45.7526746 59.7248535,46.1633301 59.9700317,46.4025858 Z" id="路径-798" fill="#B9C1BF"></path>
                <path d="M61.1581966,44.0873735 C60.9052011,44.0722301 60.7168681,44.2742838 60.0979767,45.1012778 L59.7839138,45.5349306 C59.4323681,46.0450887 59.3456495,46.3008319 59.4758509,46.5153811 C59.6161548,46.7465775 60.8216751,47.7072242 61.2197502,47.9432552 C61.5920858,48.1640245 61.8653845,48.1775902 62.0832312,47.9287907 L62.2868124,47.6725334 C62.5118083,47.3785966 62.8461423,46.9233648 63.0721318,46.6044177 L63.3845643,46.145323 C63.582039,45.833185 63.5228743,45.5841673 63.0752672,45.2614538 L62.5484879,44.8891941 C61.959193,44.4821385 61.4728485,44.1816843 61.2413598,44.1058015 L61.1581966,44.0873735 Z M61.1462467,44.2870162 C61.3074553,44.2966655 62.1204878,44.8196427 62.9583021,45.4236857 C63.2708802,45.6490466 63.3386277,45.7784393 63.264159,45.9490308 L63.1842753,46.0860629 L62.7623208,46.6937952 C62.4532415,47.1225064 62.0512594,47.6617029 61.93276,47.7970394 C61.7925177,47.957208 61.6210731,47.9486981 61.3217537,47.7712224 C60.9503632,47.5510135 59.7650996,46.6065089 59.6468298,46.4116208 C59.5634625,46.274246 59.6886816,46.005146 60.0931844,45.4450833 L60.2581024,45.2211099 C60.7416188,44.5750109 60.9542689,44.3327177 61.096022,44.2928649 L61.1462467,44.2870162 Z" id="路径-788" fill="#AEAEAE" fill-rule="nonzero"></path>
                <path d="M59.717041,70.024292 C59.8368514,69.7249146 59.5791016,68.9080811 58.8602295,68.2781982 C58.1413574,67.6483154 57.6043701,66.4071045 58.317749,66.0332031 C59.0311279,65.6593018 63.4091797,64.7867533 64.8612061,64.7124684 C66.3132324,64.6381836 72.8866455,63.9752197 75.3789917,63.5476074 C77.0405558,63.2625326 78.4167887,62.9211019 79.5076904,62.5233154 C76.2193304,62.6278668 73.5104681,62.6412131 71.3811035,62.5633545 C68.1870567,62.4465665 63.3898926,61.0829109 61.3864746,60.84021 C59.3830566,60.5975091 55.7001953,60.5528887 54.0880127,61.3190469 C52.4758301,62.0852051 50.5354217,63.51846 50.2869873,64.420166 C50.0385529,65.3218721 50.0758115,66.0870361 50.9911528,66.9868164 C51.9064941,67.8865967 53.9706138,69.2559814 54.3434612,69.4821777 C54.7163086,69.708374 55.1597914,69.956543 55.6186523,70.0159912 C56.0775133,70.0754395 59.5972306,70.3236694 59.717041,70.024292 Z" id="路径-789" fill="#B8B6C2"></path>
                <polygon id="路径-790" fill="#292929" points="65.643158 52.3587646 65.6863098 52.9776001 66.6550903 52.9360962 66.5730896 52.6681824 66.3127136 52.6681824 66.2679443 52.3587646"></polygon>
                <polygon id="路径-791" fill="#292929" points="67.0386353 52.3616638 67.4675903 52.3616638 67.6303101 52.6681824 67.3830872 52.9638062 67.2687683 52.8591919 67.3344727 52.6030884 67.0830994 52.6030884"></polygon>
                <polygon id="路径-792" fill="#292929" points="68.1426392 52.4049072 68.7279059 52.2123413 68.7921143 52.3086243 68.5176086 52.4551392 68.5176086 52.7798767 68.269989 52.7798767 68.2284851 52.5502625 68.1426392 52.5502625"></polygon>
                <polygon id="路径-793" fill="#292929" points="69.3213806 52.2663574 69.8751373 52.2663574 69.8751373 52.496109 69.6928711 52.496109 69.7046509 52.9750366 69.4791565 52.9750366 69.4673767 52.496109 69.3213806 52.496109"></polygon>
            </g>
        </g>
    </g>
</svg>