<?xml version="1.0" encoding="UTF-8"?>
<svg width="96px" height="96px" viewBox="0 0 96 96" version="1.1" xmlns="http://www.w3.org/2000/svg" xmlns:xlink="http://www.w3.org/1999/xlink">
    <title>Nike SB Zoom Blazer Mid PRM</title>
    <defs>
        <rect id="path-1" x="0" y="0" width="96" height="96"></rect>
    </defs>
    <g id="icon" stroke="none" stroke-width="1" fill="none" fill-rule="evenodd">
        <g id="画板" transform="translate(-390.000000, -582.000000)">
            <g id="Nike-SB-Zoom-Blazer-Mid-PRM" transform="translate(390.000000, 582.000000)">
                <g id="#" opacity="0">
                    <use fill="#FFFFFF" fill-rule="evenodd" xlink:href="#path-1"></use>
                    <rect stroke-opacity="0.5" stroke="#DDDDDD" stroke-width="6" stroke-linejoin="square" x="3" y="3" width="90" height="90"></rect>
                    <rect stroke-opacity="0.507785184" stroke="#DDDDDD" stroke-width="12" stroke-linejoin="square" x="6" y="6" width="84" height="84"></rect>
                    <rect stroke-opacity="0.319406703" stroke="#979797" stroke-width="10" stroke-linejoin="square" x="5" y="5" width="86" height="86"></rect>
                </g>
                <path d="M73.9384766,37.3383789 C74.4192708,37.4324951 74.8846436,37.4718018 75.3345947,37.4562988 C76.0095215,37.4330444 78.8009033,37.2557983 80.119751,37.1286621 C81.4385986,37.0015259 82.3497314,37.000061 82.600647,37.1286621 C82.8515625,37.2572632 83.4068604,37.5918579 83.3883667,38.0282593 C83.369873,38.4646606 83.4633789,38.1872559 83.6043701,38.5485229 C83.7453613,38.90979 84.3917236,38.7331543 83.9952393,39.194458 C83.5987549,39.6557617 83.7002563,39.5067749 83.8039551,40.1187134 C83.9076538,40.7306519 83.8309937,40.3887939 83.6043701,40.9094238 C83.3777466,41.4300537 83.0847778,40.7478638 83.2158813,41.463562 C83.3469849,42.1792603 83.7529297,42.4156494 83.6899414,42.78302 C83.6269531,43.1503906 83.3223267,43.2797852 83.3883667,43.7945557 C83.4544067,44.3093262 83.7253418,44.776001 83.8039551,44.8584595 C83.8825684,44.940918 84.3544922,44.7570801 84.4785767,45.3133545 C84.6026611,45.8696289 84.8929443,45.9771118 84.6790771,46.6987915 C84.46521,47.4204712 84.6154785,47.4359741 84.6790771,47.8557739 C84.7426758,48.2755737 84.5878906,48.931553 84.4785767,49.3970204 C84.3692627,49.8624878 84.3974609,50.4130249 83.8039551,50.4165649 C83.2104492,50.420105 77.5542603,51.2960815 76.8288574,51.010376 C76.1034546,50.7246704 74.8573608,50.2012329 74.7702637,48.8297119 C74.6831665,47.4581909 74.6663818,43.4519653 74.6472168,42.3470459 C74.6280518,41.2421265 74.6143799,39.309021 73.9384766,38.7854004 C73.4878743,38.43632 73.4878743,37.9539795 73.9384766,37.3383789 Z" id="路径-847" fill="#C6C6CA"></path>
                <path d="M76.6486816,44.0502035 C77.8226132,43.7641975 80.8090129,43.9668083 83.4748436,44.1766116 C83.5812761,44.5243371 83.7456007,44.7972508 83.8039551,44.8584595 C83.8825684,44.940918 84.3544922,44.7570801 84.4785767,45.3133545 C84.6026611,45.8696289 84.8929443,45.9771118 84.6790771,46.6987915 C84.46521,47.4204712 84.6154785,47.4359741 84.6790771,47.8557739 C84.7172363,48.1076538 84.6767773,48.4445583 84.6146929,48.774322 L84.4785767,49.3970204 C84.3692627,49.8624878 84.3974609,50.4130249 83.8039551,50.4165649 L83.5052546,50.439559 C82.1778036,50.5764209 77.4851743,51.2688715 76.8288574,51.010376 L76.4909885,50.8715963 C75.7710808,50.557809 74.8449184,50.0053013 74.7702637,48.8297119 C74.7146008,47.953187 74.687656,46.0005548 74.6704546,44.4168637 L75.7793773,44.2306301 C76.0525883,44.1821059 76.3428758,44.1247072 76.6486816,44.0502035 Z" id="路径" fill="#BBBBBF"></path>
                <path d="M83.8039551,44.8584595 C83.8825684,44.940918 84.3544922,44.7570801 84.4785767,45.3133545 C84.6026611,45.8696289 84.8929443,45.9771118 84.6790771,46.6987915 C84.4795432,47.3721047 84.5969723,47.4307243 84.665258,47.7764833 C84.4940483,47.971624 84.3095439,48.1188632 84.1326904,48.097168 L83.8604762,48.0793257 C82.6976994,48.0213667 78.4761531,47.9042101 78.0555592,47.8235774 C77.5854835,47.7334585 78.4016113,47.5742187 79.1779894,47.5184287 C79.9543676,47.4626387 82.7833252,47.8511963 83.6849365,47.8235774 C84.2860107,47.8051648 84.5102539,47.5872796 84.357666,47.1699219 L84.4571364,46.3493059 C84.4612981,46.3207823 84.4649658,46.2974956 84.4681396,46.2794457 C84.4967041,46.1169969 84.1213379,45.7868652 83.9608898,45.6404999 C83.8004418,45.4941345 82.4503174,45.7459717 81.5560303,45.864502 C80.7611084,45.9698622 79.4456425,45.6514184 78.3038199,45.4641247 L77.8851318,45.4011212 C76.7198835,45.2448694 78.3658508,45.044777 79.5155165,45.0758468 L81.1526261,45.1386041 C82.2587767,45.1682807 83.4428215,45.1681722 83.6486816,45.0540771 C83.6941876,45.0288561 83.7273576,44.9344903 83.7507966,44.7900048 L83.8039551,44.8584595 L83.8039551,44.8584595 Z M78.9737135,39.2512164 L79.1779894,39.256958 L80.2195541,39.3239189 C80.9260215,39.3775184 81.5984294,39.4406608 81.8873291,39.4630956 C82.201655,39.487505 83.2221816,39.7546122 83.7729469,39.9444702 L83.8039551,40.1187134 C83.8987935,40.678366 83.8427771,40.4402495 83.6591569,40.7937281 C83.5086746,40.2906027 82.5645491,40.004697 82.1843262,39.803833 C81.8820231,39.6441325 80.0634125,39.5360959 78.9238232,39.4893361 L78.0555592,39.4630956 C77.6054582,39.4619258 78.1142867,39.2444539 78.9737135,39.2512164 L78.9737135,39.2512164 Z" id="形状" fill="#D8D8DC"></path>
                <path d="M75.5102539,44.8206787 C75.6139323,46.9188503 75.9956055,48.3527288 76.7070313,48.800293 C77.7741699,49.4716392 81.6002592,49.4568348 82.4846191,49.1396484 C82.9918256,48.9577327 83.7267208,48.6076407 84.6893048,48.0893723 L84.6790771,47.8557739 C84.7172363,48.1076538 84.6767773,48.4445583 84.6146929,48.774322 L84.4785767,49.3970204 C84.3692627,49.8624878 84.3974609,50.4130249 83.8039551,50.4165649 L83.5052546,50.439559 C82.1778036,50.5764209 77.4851743,51.2688715 76.8288574,51.010376 L76.4909885,50.8715963 C75.7710808,50.557809 74.8449184,50.0053013 74.7702637,48.8297119 L74.7418316,48.2320096 C74.7076342,47.308922 74.6876156,45.9321831 74.673747,44.7132408 C75.0501252,44.6995002 74.9676404,44.759701 75.5102539,44.8206787 Z" id="路径" fill="#9F9FA5"></path>
                <path d="M82.600647,37.1286621 L82.8321838,37.2621088 C83.0933495,37.4309235 83.4022369,37.7009583 83.3883667,38.0282593 C83.369873,38.4646606 83.4633789,38.1872559 83.6043701,38.5485229 C83.7137184,38.8287102 84.1270505,38.7853457 84.1221528,38.9669703 L84.0639259,38.9812012 L83.5857957,38.878759 C83.5003759,38.8579237 83.3987105,38.8316027 83.271706,38.7966575 L82.8055815,38.6628113 C81.9650879,38.4138184 81.0410769,38.291943 80.6172181,38.4142821 L79.9987639,38.6111742 C79.5974209,38.7281737 79.1346772,38.8156852 78.7848389,38.6628113 C78.2950653,38.4487877 77.7685993,38.3651734 77.519843,38.3947343 L77.2816044,38.4508692 C77.0292485,38.499768 76.504301,38.5704153 75.706762,38.6628113 L75.0510956,38.5169294 L75.0510956,38.5169294 L74.6617311,38.4142821 C74.4913704,38.3604038 74.1390423,38.3004427 73.6047468,38.2343987 C73.5790935,37.9753028 73.6906144,37.6770015 73.9384766,37.3383789 C74.4192708,37.4324951 74.8846436,37.4718018 75.3345947,37.4562988 L77.4857025,37.3314362 C78.0268838,37.2953731 78.5943476,37.25507 79.1043856,37.2152871 L80.7971702,37.0718048 C81.7480943,37.0052929 82.3953525,37.023443 82.600647,37.1286621 Z" id="路径" fill="#D7D7DC"></path>
                <path d="M74.6766357,39.4630956 C75.7604574,39.8032096 76.6326497,39.9776611 77.2932129,39.9864502 L78.5863515,40.0182365 C79.7052207,40.0598631 80.9869766,40.1507416 81.0300293,40.3499756 C81.0717773,40.5431722 81.4942627,40.7377298 82.2974854,40.9336483 C82.6330757,41.0842213 82.9295328,41.1690326 83.1868568,41.1880819 C83.1806377,41.2353945 83.1899894,41.3222172 83.2158813,41.463562 C83.3469849,42.1792603 83.7529297,42.4156494 83.6899414,42.78302 C83.6269531,43.1503906 83.3223267,43.2797852 83.3883667,43.7945557 C83.4544067,44.3093262 83.7253418,44.776001 83.8039551,44.8584595 C83.8275391,44.883197 83.886521,44.8839679 83.9608898,44.8879451 C83.8136476,45.0796592 83.6149795,45.1883226 83.3665771,45.215332 L82.9995243,45.2366476 C81.7092119,45.2814972 78.1559109,45.2352973 77.836792,45.215332 C77.4777832,45.1928711 76.3641357,45.3285707 76.032959,45.5082795 C75.7017822,45.6879883 75.2331543,45.7615967 75.2213135,45.215332 L75.1790014,44.6051299 C75.1058354,43.7344265 74.9383802,42.0204151 74.6766357,39.4630956 Z" id="路径" fill="#9F9FA5"></path>
                <path d="M77.0400391,42.2872314 C76.5024414,41.97229 77.1987305,42.0740967 77.8882078,42.2872314 C78.4791884,42.4699184 79.1044647,42.4334169 79.9545255,42.5053048 L80.3991699,42.5517977 C81.4844971,42.6884344 82.1732178,42.6358643 83.0253906,42.9336483 L83.4668903,43.0820061 C83.5031199,43.0930855 83.5355146,43.102429 83.564515,43.110102 C83.4591212,43.2881754 83.3454407,43.4599548 83.3883667,43.7945557 C83.4157663,44.0081307 83.4784358,44.2134266 83.5480067,44.3864383 C83.2613118,44.1205086 82.9101473,43.6771776 82.6210938,43.4011212 C82.2856988,43.080807 81.6150415,43.1092627 80.7376369,42.9873774 L80.3991699,42.9336483 C79.3562012,42.7454704 77.5776367,42.6021729 77.0400391,42.2872314 Z M74.6766357,39.4630956 C75.7604574,39.8032096 76.6326497,39.9776611 77.2932129,39.9864502 L78.5863515,40.0182365 L79.3697517,40.0556499 C80.2308339,40.1075774 80.9969119,40.1967187 81.0300293,40.3499756 C81.0717773,40.5431722 81.4942627,40.7377298 82.2974854,40.9336483 C82.6330757,41.0842213 82.9295328,41.1690326 83.1868568,41.1880819 C83.1806377,41.2353945 83.1899894,41.3222172 83.2158813,41.463562 C83.2784917,41.8053538 83.4037844,42.0378308 83.5107499,42.2274639 C83.3597541,42.0355214 83.1817435,41.8617033 83.0253906,41.76908 C82.6769832,41.562684 80.8286104,41.5510087 79.7412496,41.4582626 L79.4865723,41.4332275 C78.5361241,41.3244106 75.9966487,40.9277225 74.9021747,40.0164152 L74.7146728,39.835297 L74.6766357,39.4630956 L74.6766357,39.4630956 Z" id="形状" fill="#939398"></path>
                <path d="M11.9162598,62.1984863 C12.3712565,60.5963542 12.9892171,59.546224 13.7701416,59.0480957 C14.9415283,58.3009033 20.1983643,57.5023193 22.0710449,57.1439209 C23.9437256,56.7855225 26.9311523,55.9587402 29.0126953,55.3140869 C31.0942383,54.6694336 40.6479492,50.7412109 44.6950684,48.8452148 C48.7421875,46.9492188 52.9674072,44.2918701 54.6827393,41.7497559 C56.3980713,39.2076416 57.3078613,36.734375 57.9265137,35.8843994 C58.545166,35.0344238 60.333374,33.3084717 60.8378906,33.3084717 C61.3424072,33.3084717 62.0285645,34.0178223 62.3905029,34.328125 C62.6317952,34.5349935 62.8629964,34.9129639 63.0841064,35.4620361 C63.4102783,36.0273031 63.713501,36.3654378 63.9937744,36.4764404 C64.4141846,36.6429443 65.6107178,36.4072266 66.2304688,36.6582031 C66.8502197,36.9091797 69.354248,37.65979 71.361084,37.4951172 C73.3679199,37.3304443 73.6638184,37.3383789 73.9384766,37.3383789 C74.2131348,37.3383789 75.0415039,38.9180908 75.3411865,40.8895264 C75.6408691,42.8609619 75.4810791,48.2520752 75.6578369,48.8452148 C75.8345947,49.4383545 76.5068359,50.3267822 78.6633301,50.3267822 C80.8198242,50.3267822 83.5092773,49.8508301 83.7670898,49.8508301 C84.0249023,49.8508301 84.5959473,48.8452148 84.5959473,48.8452148 C84.5959473,48.8452148 84.6242065,50.451355 84.7592773,50.9751587 C84.8943481,51.4989624 85.2606812,54.3618164 85.3045654,55.1574707 C85.3484497,55.953125 85.6969604,57.0261841 85.6969604,58 C85.6969604,58.9738159 85.7659912,62.1350708 85.3045654,64.1226807 C82.8718262,64.5799561 61.0344238,65.487793 54.0389404,65.4855691 C47.043457,65.4829102 23.0029297,64.3405762 20.2852783,64.1226807 C18.4735107,63.977417 15.6838379,63.3360189 11.9162598,62.1984863 Z" id="路径-844" fill="#F4F4F5"></path>
                <path d="M75.6578369,48.8452148 C75.8345947,49.4383545 76.5068359,50.3267822 78.6633301,50.3267822 C80.8198242,50.3267822 83.5092773,49.8508301 83.7670898,49.8508301 C84.0249023,49.8508301 84.5959473,48.8452148 84.5959473,48.8452148 L84.6269608,49.7137604 C84.646918,50.1029358 84.6786001,50.5375803 84.7276894,50.8232149 L84.7592773,50.9751587 C84.8943481,51.4989624 85.2606812,54.3618164 85.3045654,55.1574707 C85.3484497,55.953125 85.6969604,57.0261841 85.6969604,58 L85.6988894,59.4512315 C85.6883023,60.8349864 85.6217957,62.7561989 85.3045654,64.1226807 C83.0487527,64.5466997 64.108137,65.3581271 55.7875621,65.472137 L54.0389404,65.4855691 C47.043457,65.4829102 23.0029297,64.3405762 20.2852783,64.1226807 C18.4735107,63.977417 15.6838379,63.3360189 11.9162598,62.1984863 C12.3712565,60.5963542 12.9892171,59.546224 13.7701416,59.0480957 C14.3273181,58.6926896 15.8088196,58.3256562 17.4107963,57.9998972 C18.9672407,58.7909859 21.0995502,59.154576 23.8061523,59.0932617 C29.400618,58.966527 38.9580078,57.4628906 45.0639648,52.2749023 C46.5627955,51.0014057 47.7168459,48.9976801 48.7443979,46.7008355 C51.3045453,45.1715588 75.4810791,48.2520752 75.6578369,48.8452148 Z" id="路径" fill="#EAEAEE"></path>
                <path d="M62.3905029,34.328125 C62.6317952,34.5349935 62.8629964,34.9129639 63.0841064,35.4620361 L63.1187492,35.5172347 L62.8935634,35.4830933 C62.6642456,35.4607544 62.2498779,35.2516479 61.7545166,35.5700073 C61.2591553,35.8883667 60.9818726,36.271821 60.3087158,36.4835205 C59.8599447,36.6246535 59.3613485,36.8838088 58.8129272,37.2609863 C58.8436076,37.0476417 59.1080119,36.5510378 59.6061401,35.7711744 C60.2399654,34.7788655 61.5447001,34.1258289 62.0097049,33.9829589 L62.3905029,34.328125 L62.3905029,34.328125 Z" id="路径" fill="#234C4F"></path>
                <path d="M64.2666016,38.2382475 C66.9272461,39.5820312 67.6757813,41.0745664 70.3642578,41.0492461 C72.0913268,41.0329804 73.8065073,40.3595127 75.1502051,39.9317524 C75.2251874,40.2362968 75.2906918,40.557351 75.3411865,40.8895264 C75.6408691,42.8609619 75.4810791,48.2520752 75.6578369,48.8452148 C75.8345947,49.4383545 76.5068359,50.3267822 78.6633301,50.3267822 C80.8198242,50.3267822 83.5092773,49.8508301 83.7670898,49.8508301 C84.0249023,49.8508301 84.5959473,48.8452148 84.5959473,48.8452148 L84.6269608,49.7137604 C84.646918,50.1029358 84.6786001,50.5375803 84.7276894,50.8232149 L84.8016589,51.1738945 C82.2970851,51.8466621 77.7050506,52.44151 73.6005249,51.8805871 C68.9433594,51.2441406 63.5732422,47.3941384 64.2666016,49.3970204 C64.9599609,51.3999023 70.5285645,54.1524197 74.6766357,54.0356825 L75.843602,53.9980575 C78.2864131,53.9101762 81.3824963,53.7465069 85.1318516,53.5070495 L85.2567208,54.5938457 C85.2803234,54.827176 85.2971045,55.022199 85.3045654,55.1574707 C85.3484497,55.953125 85.6969604,57.0261841 85.6969604,58 L85.6988894,59.4512315 C85.6883023,60.8349864 85.6217957,62.7561989 85.3045654,64.1226807 C83.0487527,64.5466997 64.108137,65.3581271 55.7875621,65.472137 L54.0389404,65.4855691 C47.043457,65.4829102 23.0029297,64.3405762 20.2852783,64.1226807 C18.4735107,63.977417 15.6838379,63.3360189 11.9162598,62.1984863 C12.3712565,60.5963542 12.9892171,59.546224 13.7701416,59.0480957 C14.0869789,58.8459947 14.7027066,58.6401339 15.469514,58.4402408 C15.6846577,59.3688708 16.9469215,60.4927231 20.3916016,60.8259642 C26.4404297,61.4111328 30.6054687,61.1782227 35.8286133,60.2763672 C41.0517578,59.3745117 43.8598173,56.1547692 46.9904555,51.9973065 L47.4143846,51.4556012 C51.0439327,46.9668167 61.7145548,36.949312 64.2666016,38.2382475 Z" id="路径" fill="#E1E1E5"></path>
                <path d="M69.8844637,41.0562837 L70.1087853,41.0469801 L70.3642578,41.0492461 L70.3642578,41.0492461 C72.0913268,41.0329804 73.8065073,40.3595127 75.1502051,39.9317524 C75.2251874,40.2362968 75.2906918,40.557351 75.3411865,40.8895264 C75.6408691,42.8609619 75.4810791,48.2520752 75.6578369,48.8452148 C75.7529968,49.1645394 75.9917651,49.5694487 76.5284258,49.8752401 C76.4239724,50.1317772 76.3038438,50.2887286 76.1711426,50.3212324 C75.0605469,50.5932617 71.6359863,50.7156716 68.986084,49.3970204 C66.3361816,48.0783691 62.5166016,47.4316406 64.0822754,49.484375 C64.3065255,49.7783864 64.5877997,50.0751737 64.9148072,50.367126 C66.6502669,52.183458 71.1708048,54.1343455 74.6766357,54.0356825 L75.843602,53.9980575 L77.2953969,53.9402495 C78.3097303,53.8963196 79.417004,53.8416075 80.6172181,53.7761131 L80.3837891,53.8987807 L80.3837891,53.8987807 C77.8847656,55.0852051 72.5263672,56.4362793 69.9187012,56.3718262 C67.3110352,56.307373 64.5160629,55.3277127 63.1187492,54.0356825 C61.7214355,52.7436523 61.0260055,49.2565129 59.2306541,49.0786959 C57.4353027,48.9008789 52.2178371,49.7429199 54.2218336,48 C56.2258301,46.2570801 60.8839706,43.1989746 61.8981621,41.2646484 C62.7882485,39.5670227 63.7953294,38.3927295 65.1345138,38.7166322 C65.8276139,39.1324941 66.3828988,39.5421835 66.911658,39.8996102 L67.3243169,40.1695381 C67.9504221,40.6752334 68.6588427,41.0901714 69.8844637,41.0562837 Z" id="路径" fill="#D8D8DB"></path>
                <path d="M14.644043,61.1079102 C17.0541992,62.0061798 28.8518873,63.8770261 38.5014648,63.8613281 C48.1510424,63.8456301 54.8669783,63.5217438 64.387207,63.9150391 C68.4607754,64.0833244 71.9508016,64.3847333 74.8572857,64.8192658 L69.7831607,65.0429668 C64.5904309,65.2552459 59.2627229,65.4245198 55.7875621,65.472137 L54.0389404,65.4855691 C47.043457,65.4829102 23.0029297,64.3405762 20.2852783,64.1226807 C18.4735107,63.977417 15.6838379,63.3360189 11.9162598,62.1984863 C12.1554405,61.3562844 12.4396538,60.6666199 12.7688997,60.1294928 C13.2237954,60.4854585 13.8484037,60.8113739 14.644043,61.1079102 Z" id="路径" fill="#CFCFD5"></path>
                <path d="M63.8728027,40.7460938 C64.9873047,38.9914551 64.5996094,41.3491211 67.8500977,42.0222168 C71.1005859,42.6953125 72.9115797,41.7212819 74.6780592,41.3696491 C74.8955184,41.326362 75.1239842,41.3251763 75.3634565,41.366092 L75.4108887,41.7963867 C75.6170479,44.0826703 75.4964493,48.3036526 75.6578369,48.8452148 C75.6895582,48.9516606 75.7372372,49.0676166 75.8065889,49.1862411 L75.7446289,49.2092363 C73.8725586,49.8144687 72.1895032,49.7604058 69.8134766,48.5219727 C67.4374499,47.2835395 67.0727539,46.3251953 64.939453,46.5914382 C62.8061522,46.8576811 62.4575195,48.3735352 62.8935634,49.2340213 C63.3296072,50.0945075 67.3540039,53.0952148 69.6152344,53.6013512 C71.8764648,54.1074876 82.2446289,53.2773437 80.5537109,54.2991782 C78.862793,55.3210126 69.90625,56.0834961 67.5620117,55.0356825 C65.2177734,53.9878689 62.9873047,51.5947266 61.5375977,49.8633273 C60.0878906,48.131928 58.9194336,48.5126953 56.6872603,48.2281056 L56.2809491,48.1600945 C54.8229382,47.835335 57.1777158,47.1252961 58.5898437,46.2368164 C59.6965491,45.5405019 61.1783229,45.0721209 62.4851074,43.4755859 C62.892388,42.9779999 63.6079849,41.1630151 63.8728027,40.7460938 Z" id="路径" fill="#CCCCCF"></path>
                <path d="M85.1318516,53.5070495 L85.2567208,54.5938457 L85.2940903,55.0030761 C85.2985559,55.0606505 85.3020785,55.1123801 85.3045654,55.1574707 C85.3484497,55.953125 85.6969604,57.0261841 85.6969604,58 L85.6988894,59.4512315 C85.6883023,60.8349864 85.6217957,62.7561989 85.3045654,64.1226807 L85.0118164,64.1680141 C82.7929534,64.4633599 73.7790294,64.9097519 65.7146345,65.1994961 C69.4577462,63.6044887 72.8452125,60.648 75.877672,56.3300276 C76.3507155,55.6564526 82.8156939,53.6549739 85.1318516,53.5070495 Z" id="路径" fill="#CECECE"></path>
                <path d="M85.1318516,53.5070495 L85.2567208,54.5938457 L85.3045654,55.1574707 L85.3045654,55.1574707 C85.3484497,55.953125 85.6969604,57.0261841 85.6969604,58 L85.6988894,59.4512315 C85.6883023,60.8349864 85.6217957,62.7561989 85.3045654,64.1226807 L85.0118164,64.1680141 L84.0482523,64.2701015 C82.0685858,64.4479609 78.3051104,64.6610187 74.0301661,64.8587246 C78.9817357,62.5331968 81.8921372,58.8870415 82.7610902,53.9214077 L83.5420574,53.7483173 C84.1662352,53.6199454 84.715935,53.5336125 85.1318516,53.5070495 Z" id="路径" fill="#C2C2C2"></path>
                <path d="M85.1318516,53.5070495 L85.2567208,54.5938457 L85.3045654,55.1574707 C85.3484497,55.953125 85.6969604,57.0261841 85.6969604,58 L85.6988894,59.4512315 C85.6883023,60.8349864 85.6217957,62.7561989 85.3045654,64.1226807 L85.0118164,64.1680141 L84.0482523,64.2701015 L82.8810973,64.3642866 C82.7354062,64.3750391 82.5846157,64.385878 82.4289624,64.396794 L82.4626465,64.2866211 C83.3740343,61.6596265 83.8697326,58.120497 83.9497415,53.6692323 C84.4050144,53.5843759 84.8087908,53.5276822 85.1318516,53.5070495 Z" id="路径" fill="#B9B9B9"></path>
                <path d="M63.9937744,36.4764404 C64.0726013,36.5076599 64.1787138,36.5247388 64.3031938,36.5335366 L64.0880737,36.7817383 C64.2151896,36.8614095 64.3857829,36.8985799 64.5998535,36.8932495 L65.0865029,36.8870981 C65.3697876,36.8895605 65.6969604,36.9060547 65.9957886,36.9623413 C66.4938354,37.0561523 67.9361572,37.8025513 68.8721924,37.8876343 C69.8082275,37.9727173 73.9020386,37.8828735 74.2460937,37.8876343 L74.3991099,37.8995127 L74.3991099,37.8995127 C74.7413653,38.5274089 75.1494654,39.628306 75.3411865,40.8895264 C75.6408691,42.8609619 75.4810791,48.2520752 75.6578369,48.8452148 C75.8345947,49.4383545 76.5068359,50.3267822 78.6633301,50.3267822 C80.8198242,50.3267822 83.5092773,49.8508301 83.7670898,49.8508301 C84.0249023,49.8508301 84.5959473,48.8452148 84.5959473,48.8452148 L84.6269608,49.7137604 C84.646918,50.1029358 84.6786001,50.5375803 84.7276894,50.8232149 L84.7592773,50.9751587 C84.8943481,51.4989624 85.2606812,54.3618164 85.3045654,55.1574707 C85.3484497,55.953125 85.6969604,57.0261841 85.6969604,58 L85.6988894,59.4512315 C85.6883023,60.8349864 85.6217957,62.7561989 85.3045654,64.1226807 L85.0003456,64.1695343 L85.0003456,64.1695343 L84.9810791,64.3968341 L85.0666614,63.1624916 C85.301322,59.6122612 85.337207,57.437207 85.1743164,56.6373291 C84.902832,55.3041992 84.4311523,51.428385 84.3502197,51.0676471 C84.2962646,50.8271552 84.2008334,50.6024577 84.0639259,50.3935547 L82.3565951,50.6587777 C80.0549917,51.0014587 78.4664001,51.1689918 77.5908203,51.161377 C75.9743652,51.1473187 74.4769287,50.1739076 74.4804688,47.5082795 L74.4825077,44.4626018 C74.4731061,42.5613625 74.4265783,40.7636072 74.2460937,40.041748 C74.06014,39.2980143 73.8449504,38.6590011 73.6005249,38.1247084 L72.51071,38.1728791 C70.7949383,38.2371067 69.5820991,38.2210498 68.8721924,38.1247084 C67.5943604,37.9512939 66.550729,37.0151046 65.7146345,37.0327598 C65.1572382,37.04453 64.5807292,37.04453 63.9851074,37.0327598 L63.6245728,36.7817383 L63.9937744,36.4764404 L63.9937744,36.4764404 Z" id="路径" fill="#BABABF"></path>
                <path d="M55.506958,48.5638428 C55.3991699,49.0281982 53.5345459,54.6817627 57.9931641,55.3828125 C62.4517822,56.0838623 70.9992676,55.2244643 74.347168,54.4915771 C77.6950684,53.75869 84.1334229,51.9576416 84.192627,51.8793945 C84.2320964,51.8272298 84.2320964,51.6411758 84.192627,51.3212324 C84.5347785,52.7415682 84.7223875,53.600751 84.755454,53.8987807 C84.7885205,54.1968104 84.7954508,54.5965169 84.7762451,55.0979004 C77.7014014,58.1964672 72.2761215,60.1108629 68.5004054,60.8410875 C62.8368312,61.9364244 53.9484863,63.4355469 49.9152832,61.369751 C45.8820801,59.3039551 46.0529785,55.7573242 47.4975586,53.4902344 C48.9421387,51.2231445 53.2416918,49.0283031 53.9573583,48.555641 C54.6730247,48.0829789 55.6147461,48.0994873 55.506958,48.5638428 Z" id="路径-848" fill="#09201D"></path>
                <path d="M55.296875,48.6230469 C55.1890869,49.0874023 53.3762207,54.8302002 57.8348389,55.53125 C62.293457,56.2322998 71.0411377,55.3608168 74.3890381,54.6279297 C77.7369385,53.8950426 84.1334229,51.9576416 84.192627,51.8793945 C84.2320964,51.8272298 84.2320964,51.6411758 84.192627,51.3212324 C84.5347785,52.7415682 84.7223875,53.600751 84.755454,53.8987807 C84.7885205,54.1968104 84.7885205,54.5301437 84.755454,54.8987807 C77.6806103,57.9973475 72.2553304,59.9117432 68.4796143,60.6419678 C62.81604,61.7373047 54.0755615,63.2947998 50.0423584,61.2290039 C46.0091553,59.163208 46.2208252,55.7554932 47.6654053,53.4884033 C49.1099854,51.2213135 53.2796949,49.2429258 53.9953613,48.7702637 C54.7110278,48.2976016 55.4046631,48.1586914 55.296875,48.6230469 Z" id="路径-848" fill="#1C776A"></path>
                <path d="M55.296875,48.6230469 L55.124349,49.3053079 C54.7445575,50.9572627 54.1630357,54.9539149 57.8348389,55.53125 C62.1151123,56.2042578 70.3481857,55.4280194 73.9619912,54.7164319 L74.3890381,54.6279297 C77.7369385,53.8950426 84.1334229,51.9576416 84.192627,51.8793945 C84.2320964,51.8272298 84.2320964,51.6411758 84.192627,51.3212324 L84.504577,52.6480835 C84.650786,53.2922263 84.7344117,53.7091254 84.755454,53.8987807 C84.7885205,54.1968104 84.7885205,54.5301437 84.755454,54.8987807 C77.9882122,57.8626272 72.7302121,59.7430355 68.9814538,60.5400056 L68.4796143,60.6419678 C62.81604,61.7373047 54.0755615,63.2947998 50.0423584,61.2290039 C49.2588247,60.82768 48.6354974,60.3757106 48.1502927,59.8912975 C50.6238016,60.7585231 59.4816895,61.2355957 60.8901367,60.2504883 C62.298584,59.2653809 61.3774414,58.8774414 55.3884277,57.5878906 C49.3994141,56.2983398 53.8356934,53.1738281 53.6572266,51.498291 C53.5435115,50.430676 51.5084719,51.1560791 47.5521079,53.6745004 L47.6654053,53.4884033 C49.1099854,51.2213135 53.2796949,49.2429258 53.9953613,48.7702637 C54.7110278,48.2976016 55.4046631,48.1586914 55.296875,48.6230469 Z" id="路径" fill="#106A5D"></path>
                <path d="M84.192627,51.3212324 L84.504577,52.6480835 C84.650786,53.2922263 84.7344117,53.7091254 84.755454,53.8987807 C84.7885205,54.1968104 84.7885205,54.5301437 84.755454,54.8987807 L82.7787971,55.7519307 C78.2713492,57.6674163 74.4971615,59.056517 71.4562339,59.9192327 C68.1110233,58.7399018 64.6161143,57.3598008 60.9737372,55.7772015 C65.3889335,55.881778 71.1627003,55.2727751 74.0036088,54.7081993 L74.3890381,54.6279297 C77.7369385,53.8950426 84.1334229,51.9576416 84.192627,51.8793945 C84.2320964,51.8272298 84.2320964,51.6411758 84.192627,51.3212324 Z" id="路径" fill="#0B6053"></path>
                <path d="M84.192627,51.3212324 L84.504577,52.6480835 L84.6580753,53.3510512 C84.7109703,53.6078297 84.7434298,53.7904062 84.755454,53.8987807 C84.7885205,54.1968104 84.7885205,54.5301437 84.755454,54.8987807 L82.7787971,55.7519307 C80.9801005,56.516305 79.2981689,57.1968574 77.7330023,57.7935877 C75.8732119,57.1747406 73.7380745,56.2904411 71.3308645,55.1386195 C72.3644334,54.9989581 73.2793343,54.8521349 74.0036088,54.7081993 L74.3890381,54.6279297 C77.7369385,53.8950426 84.1334229,51.9576416 84.192627,51.8793945 C84.2320964,51.8272298 84.2320964,51.6411758 84.192627,51.3212324 Z" id="路径" fill="#015447"></path>
                <path d="M84.192627,51.3212324 L84.504577,52.6480835 L84.6580753,53.3510512 L84.7426042,53.803587 C84.7481647,53.8399558 84.7524479,53.8716871 84.755454,53.8987807 C84.7885205,54.1968104 84.7885205,54.5301437 84.755454,54.8987807 L83.1394539,55.5953283 C83.1284047,55.0382159 82.9771024,54.563406 82.6855469,54.1708984 C82.3741441,53.7516715 81.7559315,53.3346822 80.8309091,52.9199306 L83.2056518,52.2082312 C83.807763,52.0211905 84.1785796,51.8979602 84.192627,51.8793945 C84.2320964,51.8272298 84.2320964,51.6411758 84.192627,51.3212324 Z" id="路径" fill="#07483E"></path>
                <path d="M56.5890544,43.2295834 L56.8213356,43.2486634 C59.8902739,45.8544064 64.733056,48.9079231 71.3472068,52.4061877 L73.1949825,53.3712844 L73.275705,53.6503422 C73.0031515,54.1202509 72.8208426,54.4345693 72.7287782,54.5932972 C72.7029201,54.6378791 72.5983607,54.7666922 72.4151001,54.9797363 C72.0475663,55.6081214 71.5525305,56.4589718 70.9299927,57.5322876 C69.9961859,59.1422613 69.3674002,60.3821993 69.1271462,60.7914346 C69.0001102,61.0078206 68.872673,61.226086 68.7481079,61.4429932 C67.882637,62.9500515 66.9669367,64.5783593 65.9219013,66.4061542 C65.8670763,66.5020445 65.7448974,66.5353346 65.6490071,66.4805096 C65.5531167,66.4256846 65.5198266,66.3035057 65.5746516,66.2076154 C66.9036051,64.1074771 67.8714173,62.530256 68.4780884,61.4759521 C68.5810313,61.2970527 68.6894415,61.1070606 68.8033189,60.9059757 C69.1783202,60.2437985 69.8486737,59.2330129 70.7902222,57.5811157 C71.819519,55.7752686 71.9814554,55.3241273 72.2707825,54.7612 C72.4636672,54.3859151 72.6474063,54.0081818 72.822,53.628 L72.0736168,53.2398463 C65.2759299,49.6893551 60.2506743,46.5819424 56.9953749,43.9145826 L56.672,43.644 L45.8988755,50.133873 L41.724,52.682 L41.8082589,52.8578087 C42.8565057,55.0764757 44.1450435,58.7030648 45.676085,63.7415321 L46.1822144,65.4287488 C46.2135954,65.5346543 46.1531813,65.645947 46.0472758,65.6773279 C45.9413703,65.7087089 45.8300776,65.6482948 45.7986967,65.5423893 L45.3069942,63.9027168 C43.8562374,59.1250913 42.6247058,55.62012 41.6142965,53.3911946 L41.2856858,52.6954851 L41.3599533,52.4366869 L45.1717486,50.1071992 L56.5890544,43.2295834 Z" id="路径" fill="#BBBBBB" fill-rule="nonzero"></path>
                <path d="M60.8378906,33.3084717 C61.3424072,33.3084717 62.0285645,34.0178223 62.3905029,34.328125 C62.5633691,34.4763293 62.7310559,34.7123524 62.8935634,35.0361944 C62.7724716,35.0442139 62.6338371,35.0632413 62.4786147,35.0946934 L61.5870926,35.3012514 C61.3263859,35.3628216 61.1895641,35.4201783 60.9761701,35.6330784 L60.5059952,36.1412249 C60.3880358,36.2581354 60.324707,36.2912881 60.038147,36.51645 C59.5796509,36.876709 59.25,36.9641724 58.9564819,37.1401367 C58.6629639,37.3161011 58.1078491,37.7178345 57.821167,37.9371338 C57.5344849,38.1564331 57.2764893,38.1578369 56.9766846,38.1685181 C56.9015199,38.171196 56.8065878,38.1929823 56.6918883,38.2338772 L57.3901993,36.8214289 C57.5932391,36.4213092 57.7692795,36.1004258 57.9265137,35.8843994 C58.545166,35.0344238 60.333374,33.3084717 60.8378906,33.3084717 Z" id="路径" fill="#62A299"></path>
                <path d="M60.3442993,34.0945435 C60.2238159,34.1266886 59.9856364,34.1266886 59.6297607,34.0945435 C59.9407161,34.4138794 59.9950378,34.5744019 59.7927258,34.5761108 C59.4892578,34.5786743 59.3037109,34.4199219 59.1773071,34.5761108 C59.0509033,34.7322998 59.173584,34.8276367 59.6297607,34.9592896 C59.9338786,35.0470581 60.0849406,35.19045 60.0829468,35.3894653 L59.5407066,35.2496376 C59.0601692,35.1374626 58.76474,35.1082458 58.6544189,35.1619873 C58.4337769,35.2694702 58.5024414,35.4744873 58.6544189,35.6133423 C58.8063965,35.7521973 58.5423584,36.1486816 58.3902588,36.2775269 C58.2381592,36.4063721 58.1403198,36.3011475 57.9899292,36.2775269 C57.9175189,36.266154 57.7543124,36.3052604 57.6148778,36.390551 C57.7282746,36.1859992 57.8308732,36.0158013 57.9265137,35.8843994 C58.358403,35.2910202 59.3602895,34.2707233 60.0974951,33.708773 C60.3431419,33.9458026 60.4258204,34.0727935 60.3442993,34.0945435 Z" id="路径" fill="#C1E2DD"></path>
                <path d="M23.3103027,64.2087402 C23.9679362,61.5703125 24.6153971,59.7276611 25.2526855,58.6807861 C26.2086182,57.1104736 27.3366699,55.8397217 27.7186279,55.6552734 C28.1005859,55.4708252 32.0091553,53.8891602 33.331665,53.3808594 C34.6541748,52.8725586 44.7124023,48.7443848 46.6416016,47.7651367 C48.5708008,46.7858887 52.5466309,44.6235352 53.949707,42.6481934 C55.3527832,40.6728516 56.2192383,39.3505859 56.7507324,38.9008789 C57.2822266,38.4511719 58.9299316,37.2548828 60.4099121,36.8977051 C61.8898926,36.5405273 63.7836914,36.4462891 63.9937744,36.4764404 C64.1338298,36.4965413 64.2247721,36.7065837 64.2666016,37.1065674 C62.1711426,39.3723551 60.8855794,40.8087158 60.4099121,41.4156494 C59.6964111,42.3260498 56.9703369,44.4031982 56.2821045,45.2947998 C55.5938721,46.1864014 53.255127,47.8546143 50.1020508,49.5556641 C46.9489746,51.2567139 38.0119629,54.9378662 35.1070557,55.8962402 C32.2021484,56.8546143 32.138916,56.9875488 31.9512939,57.0053711 C31.7636719,57.0231934 31.2988281,57.4051514 31.0073242,57.4425049 C30.7158203,57.4798584 30.2576904,57.9212646 30.0351562,58.2545166 C29.8126221,58.5877686 28.9904785,60.1054688 28.6149902,61.7481689 C28.3646647,62.8433024 28.1662191,63.821696 28.0196533,64.6833496 L23.3103027,64.2087402 Z" id="路径-845" fill="#EEEEF2"></path>
                <path d="M28.6149902,61.7481689 C28.3646647,62.8433024 28.1662191,63.821696 28.0196533,64.6833496 L23.3103027,64.2087402 C23.5437175,63.2722794 23.7758507,62.4360676 24.0067025,61.7001047 C25.6011453,61.1209506 27.5129349,60.6025229 29.2718028,59.7645756 C29.0258848,60.3435054 28.7782292,61.0340249 28.6149902,61.7481689 Z M63.9937744,36.4764404 C64.1338298,36.4965413 64.2247721,36.7065837 64.2666016,37.1065674 L62.250885,39.3056641 C61.3208618,40.3329875 60.7072042,41.0363159 60.4099121,41.4156494 C59.7512958,42.256019 57.3778242,44.0905408 56.4752585,45.0690711 L56.2821045,45.2947998 C55.946485,45.7295932 55.2183624,46.3490699 54.1947067,47.0669764 L54.8507158,46.3665662 C57.8641706,43.0505936 60.1603881,39.1712322 59.7927258,38.9324266 C59.489812,38.7356767 57.4676518,39.3570489 55.9002226,39.8978807 L56.2878179,39.3963579 C56.4650928,39.179136 56.6183093,39.0129246 56.7507324,38.9008789 L57.0706198,38.6460841 C57.7852429,38.1029436 59.1576209,37.1999324 60.4099121,36.8977051 C61.8898926,36.5405273 63.7836914,36.4462891 63.9937744,36.4764404 Z" id="形状" fill="#DCDFE0"></path>
                <path d="M63.4334879,36.6084557 L63.4984131,36.9160156 C61.1453157,39.6688351 59.0855283,41.6592608 57.1433105,43.4979248 C55.6760597,44.8869458 54.995443,45.5401239 53.5231934,46.7070312 C52.5416936,47.4849695 51.4554396,48.1973644 50.2644315,48.8442161 C48.0709723,50.125148 42.084783,52.6171197 39.2248625,53.5974524 L37.3065601,54.2351497 L35.7218368,54.7871631 C33.1082091,55.7205378 30.7208898,56.692115 29.8861552,57.2734922 C29.0035627,57.8882015 28.1615558,60.0850291 27.4060837,63.7979877 L27.2875244,64.3968341 L27.2871398,64.6084557 L26.8891398,64.5684557 L26.8911051,64.3591583 C27.4596607,61.3950511 28.07514,59.300454 28.7548265,58.0617892 L28.8451398,57.9044557 L27.0012032,58.319972 C26.2544413,58.4960444 25.8704749,58.6049225 25.8493042,58.6466064 C25.7631267,58.8162848 25.632581,59.000294 25.5645536,59.1603259 L25.3249023,59.7540532 C25.0268715,60.5250587 24.6643401,61.5701289 24.2376309,62.8885535 L23.8011398,64.2584557 L23.4011398,64.2164557 L24.2535632,61.524889 C24.5227113,60.6899188 24.7200623,60.1412537 25.1761475,59.1680298 C25.826124,57.7810682 27.087026,56.3961263 27.7679522,55.6334587 L28.033657,55.5176331 L28.1212158,55.4172363 C27.3064974,56.3914941 26.5791176,57.2971715 26.1135184,58.0877893 L26.1573236,58.085425 C26.2040178,58.0781552 26.2878992,58.0617538 26.4089678,58.0362209 L29.1871398,57.3984557 L29.2007828,57.3832802 C29.3019254,57.2586431 29.4044538,57.1514146 29.5084186,57.0615551 L29.657546,56.9452578 C30.6929972,56.2240852 33.8984422,54.9729094 37.0915737,53.8855618 L38.67701,53.3587524 C41.1649462,52.5527715 47.1436996,50.0937028 49.6901744,48.7082394 C50.8230376,48.1472385 52.025267,47.3702326 53.2968626,46.3772216 C55.204256,44.8877052 55.4152468,44.5830414 56.8683177,43.2074443 C58.6063305,41.5620976 60.4242956,39.8514424 62.497196,37.4652311 L62.8666033,37.034446 L62.7615781,37.0463978 C61.5828229,37.1777667 60.6741824,37.3847984 59.8253776,37.6238862 L59.414747,37.7478953 C58.508454,38.0412839 57.850488,38.4255372 57.4368394,38.89607 L57.2745079,39.102996 L56.945995,38.8747872 C57.0361208,38.7450486 57.1396761,38.6212178 57.2566127,38.5032398 C57.644432,38.2249142 58.1640055,37.8800841 58.7342542,37.5740003 C58.9072705,37.4994979 59.094245,37.4312121 59.2915519,37.3673391 C60.2449278,37.0587085 61.4208454,36.8267581 62.820121,36.6706957 L63.4334879,36.6084557 Z" id="路径" fill="#CCCED1"></path>
                <path d="M64.2666016,37.1065674 L62.250885,39.3056641 C61.3208618,40.3329875 60.7072042,41.0363159 60.4099121,41.4156494 C59.7512958,42.256019 57.3778242,44.0905408 56.4752585,45.0690711 L56.2821045,45.2947998 C55.5938721,46.1864014 53.255127,47.8546143 50.1020508,49.5556641 C47.0750977,51.1886719 38.7176695,54.6465422 35.4838424,55.768467 L33.7865522,56.3413974 C32.1750428,56.8991487 32.1048029,56.9907892 31.9512939,57.0053711 C31.7949422,57.020223 31.4460754,57.2879469 31.1654352,57.3983923 L31.0073242,57.4425049 C30.7158203,57.4798584 30.2576904,57.9212646 30.0351562,58.2545166 L29.908403,58.4627933 C29.6213429,58.962958 29.0630024,60.0840777 28.7194025,61.3340076 L29.1032806,59.8879158 C29.1925964,59.5674895 29.2737839,59.2919063 29.3397827,59.0927124 C29.7165527,57.9555664 30.4049683,56.9749756 32.1019287,56.3413696 L33.2750739,55.9199225 C35.5478701,55.1191005 39.6018677,53.733157 42.7074585,52.4624634 C46.4668579,50.9242554 50.2887573,49.3295898 53.2850342,47.0498657 C56.281311,44.7701416 61.3364258,39.6113281 61.9539795,38.9285278 L63.7702271,36.8627085 C63.8672342,36.7511798 63.9675456,36.6357602 64.0711613,36.51645 C64.1684286,36.5887264 64.2331861,36.7870402 64.2666016,37.1065674 Z" id="路径" fill="#C4C4C4"></path>
                <path d="M30.777832,54.2112427 C31.2814331,54.2003174 31.4174194,54.9622192 31.4379883,55.2214966 C31.4585571,55.4807739 31.046814,55.8916016 30.7911377,55.8583374 C30.5354614,55.8250732 29.9730835,55.2018433 29.951355,54.9130859 C29.9296265,54.6243286 30.274231,54.222168 30.777832,54.2112427 Z M34.0947266,53.0415649 C34.5983276,53.0306396 35.0223999,53.9448853 35.0429688,54.2041626 C35.0635376,54.4634399 34.5146484,54.7869873 34.2589722,54.7537231 C34.0032959,54.720459 33.3956299,53.8797607 33.414978,53.5009155 C33.4343262,53.1220703 33.5911255,53.0524902 34.0947266,53.0415649 Z M37.2829804,51.6212967 L37.3463135,51.6242065 C37.5682373,51.6565552 38.2918701,52.6657715 38.312439,52.9250488 C38.3330078,53.1843262 37.7841187,53.5078735 37.5284424,53.4746094 C37.2727661,53.4413452 36.4587402,52.5682373 36.4780884,52.1893921 C36.4974365,51.8105469 37.1243896,51.5918579 37.3463135,51.6242065 Z M39.5253906,50.9576416 C39.3568115,50.6114502 39.9875488,50.3599854 40.4657593,50.4406128 C40.9439697,50.5212402 41.4113159,51.4821777 41.4318848,51.7414551 C41.4524536,52.0007324 40.9745483,52.2408447 40.5483398,52.2150879 C40.1221313,52.1893311 39.6939697,51.303833 39.5253906,50.9576416 Z M42.9106445,49.4661865 C42.5519409,49.2269287 43.3811646,48.8408813 43.859375,48.9215088 C44.3375854,49.0021362 44.7962036,49.8995972 44.8167725,50.1588745 C44.8373413,50.4181519 44.3952637,50.6473389 43.9690552,50.621582 C43.5428467,50.5958252 43.2693481,49.7054443 42.9106445,49.4661865 Z M47.0960899,47.3699125 L47.1795044,47.3782959 C47.6577148,47.4589233 47.8920288,48.0641479 47.9125977,48.3234253 C47.9331665,48.5827026 47.4910889,48.8118896 47.0648804,48.7861328 C46.6386719,48.760376 46.5079956,48.2562866 46.149292,48.0170288 C45.7905884,47.777771 46.7012939,47.2976685 47.1795044,47.3782959 Z M50.3010926,45.7699765 L50.3806763,45.7778931 C50.8588867,45.8585205 51.2998657,46.5231934 51.3204346,46.7824707 C51.3410034,47.041748 50.8989258,47.2709351 50.4727173,47.2451782 C50.0465088,47.2194214 49.618042,46.6896973 49.2593384,46.4504395 C48.9006348,46.2111816 49.9024658,45.6972656 50.3806763,45.7778931 Z M52.9250932,43.6038197 L53.0007324,43.6082153 C53.4789429,43.6888428 54.0024414,44.211853 53.9754028,44.6466675 C53.9483643,45.0814819 53.4653931,45.2215576 53.0391846,45.1958008 C52.6129761,45.1700439 52.2496948,44.5123901 51.8701172,44.5098877 C51.4905396,44.5073853 52.522522,43.5275879 53.0007324,43.6082153 Z M55.1871991,40.9823284 L55.265564,40.9855957 C55.7437744,41.0662231 56.7137451,41.8949585 56.6867065,42.3297729 C56.659668,42.7645874 55.9633789,42.9088135 55.5371704,42.8830566 C55.1109619,42.8572998 54.6962891,42.0079956 54.3167114,42.0054932 C53.9371338,42.0029907 54.7873535,40.9049683 55.265564,40.9855957 Z M57.3903572,38.414699 L57.5255127,38.4188232 C58.6154175,38.5148315 59.203125,39.2016602 59.1883545,39.7918701 C59.173584,40.3820801 58.7590942,40.4544678 57.9744873,40.5091553 C57.1898804,40.5638428 56.2976685,39.7859497 55.9180908,39.7834473 C55.5385132,39.7809448 56.4356079,38.3228149 57.5255127,38.4188232 Z" id="形状结合" fill="#F4F4F8"></path>
                <path d="M31.4379883,55.2214966 C31.4585571,55.4807739 31.046814,55.8916016 30.7911377,55.8583374 C30.5354614,55.8250732 29.9730835,55.2018433 29.951355,54.9130859 C29.946153,54.8439555 29.9619477,54.7683252 29.9958939,54.6931197 C30.0718134,55.0369156 30.222616,55.1594597 30.3605957,55.2896004 C30.5638428,55.4813004 30.7836914,55.225708 30.9749756,55.0356825 C31.0878139,54.9235867 31.1806876,54.7089939 31.2379854,54.5187859 C31.3760424,54.7563164 31.4261456,55.0722157 31.4379883,55.2214966 Z M35.0429687,54.2041626 C35.0635376,54.4634399 34.5146484,54.7869873 34.2589722,54.7537231 C34.0963258,54.7325624 33.7912377,54.3846524 33.5957339,54.0367473 L33.8624268,54.2000732 L33.8624268,54.2000732 C34.0921631,54.3481445 34.4556885,54.2016602 34.6175537,54.0356825 C34.7095454,53.9413536 34.7252447,53.7104895 34.7055903,53.4585873 C34.9024512,53.7315059 35.0318339,54.0638044 35.0429687,54.2041626 Z M38.312439,52.9250488 C38.3330078,53.1843262 37.7841187,53.5078735 37.5284424,53.4746094 C37.311288,53.446357 36.6913586,52.812269 36.5213369,52.3897272 C36.8578254,52.5812738 37.1363618,52.8111584 37.2226563,52.9162598 C37.3200579,53.0348891 37.7225342,52.8605957 37.9168701,52.5490176 C37.9727138,52.4594836 37.9972496,52.3887721 38.0036335,52.3251855 C38.1699765,52.5728519 38.3037622,52.8156755 38.312439,52.9250488 Z M41.4318848,51.7414551 C41.4524536,52.0007324 40.9745483,52.2408447 40.5483398,52.2150879 C40.1946277,52.1937122 39.8395704,51.5801978 39.6326587,51.1742245 C39.8409928,51.273515 40.0623657,51.4262673 40.1998291,51.5490176 C40.4558105,51.7776006 40.7785645,51.7183838 40.9903564,51.5490176 C41.1050771,51.4572776 41.0795074,51.2185261 41.0875768,50.9756204 C41.2854205,51.271582 41.4210168,51.604461 41.4318848,51.7414551 Z M44.8167725,50.1588745 C44.8373413,50.4181519 44.3952637,50.6473389 43.9690552,50.621582 C43.6034482,50.5994875 43.3502117,49.941166 43.0591701,49.6033795 C43.2296897,49.654218 43.2967171,49.7077348 43.3587963,49.7943477 L43.4852295,49.9921875 C43.6461182,50.2376709 43.9752197,50.1575928 44.2528076,50.0291748 C44.4192026,49.952197 44.4475635,49.6401182 44.4325165,49.3609225 C44.6501251,49.6539324 44.8050149,50.0106664 44.8167725,50.1588745 Z M47.9125977,48.3234253 C47.9331665,48.5827026 47.4910889,48.8118896 47.0648804,48.7861328 C46.6824076,48.763019 46.5379264,48.3547047 46.2530802,48.0982466 C46.6197888,48.1214026 46.7114969,48.2698593 46.8784513,48.3204058 L46.9904555,48.3371987 C47.2459257,48.3401689 47.3615723,48.463623 47.5521079,48.3371987 C47.6924208,48.2440982 47.5026244,47.8820966 47.4837322,47.5175199 C47.759025,47.7327917 47.8970301,48.1271914 47.9125977,48.3234253 Z M51.3204346,46.7824707 C51.3410034,47.041748 50.8989258,47.2709351 50.4727173,47.2451782 C50.1586298,47.2261971 49.843316,46.9335258 49.5555992,46.6851027 C49.9361618,46.7989441 50.3559285,46.9045399 50.6584473,46.7908936 C50.8507203,46.7186629 50.9627975,46.4847174 51.0252776,46.2180777 C51.1962014,46.4247279 51.3102144,46.6536423 51.3204346,46.7824707 Z M53.9754028,44.6466675 C53.9483643,45.0814819 53.4653931,45.2215576 53.0391846,45.1958008 C52.804396,45.1816119 52.5887038,44.975664 52.3788637,44.7931159 C52.7903613,44.9549795 53.1206596,45.0145757 53.0953369,44.7900048 C53.065918,44.5291063 53.2227783,44.6883545 53.583252,44.7112625 C53.7680614,44.7230072 53.8121109,44.4527511 53.7861678,44.125299 C53.9111069,44.2899986 53.9860659,44.4751914 53.9754028,44.6466675 Z M56.6867065,42.3297729 C56.659668,42.7645874 55.9633789,42.9088135 55.5371704,42.8830566 C55.1109619,42.8572998 54.6962891,42.0079956 54.3167114,42.0054932 C54.2583149,42.0051082 54.2290259,41.9787937 54.2230119,41.9348308 L54.4083726,41.9426267 C54.7906729,42.0145102 55.2156049,42.3824694 55.4545469,42.5517977 C55.7333126,42.7493474 55.9272461,42.6129902 55.9051514,42.3018799 C55.8830566,41.9907695 56.2655029,42.1923828 56.260376,41.924767 C56.2586853,41.8365175 56.2053842,41.6781523 56.1231853,41.489691 C56.4400456,41.7643192 56.7009086,42.1013856 56.6867065,42.3297729 Z M59.1883545,39.7918701 C59.173584,40.3820801 58.7590942,40.4544678 57.9744873,40.5091553 C57.2770589,40.5577664 56.4946093,39.9485361 56.0627523,39.8107939 L55.9180908,39.7834473 C55.8684537,39.78312 55.8406485,39.7579007 55.8322514,39.7145198 L55.8919367,39.7056536 L56.0358887,39.6948242 C56.5256348,39.6713867 56.7823486,39.8582764 57.2806954,40.022395 C57.7292075,40.1701018 58.1634447,40.0953967 58.0931921,39.8010652 L58.0504173,39.6948242 C57.8410689,39.3135986 58.4417725,39.7783203 58.4838867,39.4630956 C58.5147155,39.2323429 58.1955199,38.7797072 57.904539,38.4812364 C58.7522187,38.6840918 59.2012889,39.2750265 59.1883545,39.7918701 Z" id="形状" fill="#B6B5BE"></path>
                <path d="M11.2229004,62.4972534 C11.2512207,62.3036499 11.5531616,61.2374268 11.9162598,61.3340076 C12.2793579,61.4305885 15.0377197,62.2600098 17.8515625,62.7460938 C20.6654053,63.2321777 28.0764056,64.0057373 35.8446045,64.1824951 C43.6128034,64.3592529 49.4260254,64.6538086 56.5002441,64.6582031 C63.5744629,64.6625977 75.15625,64.0222168 78.3208008,63.9901123 C81.4853516,63.9580078 85.2341003,63.6580811 85.3479919,63.6236572 C85.4618835,63.5892334 85.2870483,63.2556152 85.5818481,63.3457031 C85.8766479,63.435791 86,64.6225586 86,64.9716187 C86,65.3206787 85.5465088,68.96521 85.4273682,69.9590454 C85.3082275,70.9528809 84.4779053,72.0014648 83.0241699,72.0076904 C81.5704346,72.013916 69.2502441,72.0076904 66,72.0076904 C62.7497559,72.0076904 60.1143799,71.7840576 56.7545166,71.7840576 C53.3946533,71.7840576 48.2818604,72 46,72 C43.7181396,72 38.8729248,72 36.9060059,72 C34.9390869,72 23.0964355,70.5025635 21.8896484,70.3718262 C20.6828613,70.2410889 11.8826904,68.5068359 11.1279297,68.2662354 C10.3731689,68.0256348 9.99291992,67.5530396 9.99937204,67.1572266 C10.0070801,66.7614136 10.3404541,63.5529175 10.5688477,62.9139404 C10.7972412,62.2749634 11.1945801,62.6908569 11.2229004,62.4972534 Z" id="路径-849" fill="#D7D8DF"></path>
                <path d="M11.9162598,61.3340076 L13.351958,61.7327927 C14.4949243,62.0391915 16.1632568,62.4544434 17.8515625,62.7460938 L18.5244723,62.8545028 C20.3754325,63.1349406 23.4624324,63.4799221 27.1306231,63.7528735 C28.6949994,64.4154186 29.990688,65.2053418 30.8691406,66.1791992 C32.7157355,68.2263443 34.2488986,70.1375718 35.4686298,71.9128816 L33.7858925,71.7527106 C32.3774417,71.6089247 30.685825,71.4183624 29.0230902,71.2245848 L21.8896484,70.3718262 C20.6828613,70.2410889 11.8826904,68.5068359 11.1279297,68.2662354 C10.3731689,68.0256348 9.99291992,67.5530396 9.99929129,67.1572266 L10.0396316,66.6252744 C10.1362305,65.5807959 10.3861328,63.4251221 10.5688477,62.9139404 C10.7972412,62.2749634 11.1945801,62.6908569 11.2229004,62.4972534 C11.2512207,62.3036499 11.5531616,61.2374268 11.9162598,61.3340076 Z" id="路径" fill="#CFD0D7"></path>
                <path d="M10.8054921,62.5787382 L13.1032729,63.0825882 C15.2662511,63.5459837 17.0399924,63.8883094 18.4244968,64.1095651 L18.871582,64.178833 C21.7486572,64.6096191 23.6174316,65.1088867 24.8590088,65.685791 C26.1005859,66.2626953 27.0743408,67.7922363 27.4829102,68.4371338 C27.7057662,68.788896 28.0221969,69.5207762 28.4322025,70.6327742 L28.6292049,71.1784821 L21.8896484,70.3718262 C20.6828613,70.2410889 11.8826904,68.5068359 11.1279297,68.2662354 C10.3731689,68.0256348 9.99291992,67.5530396 9.99929129,67.1572266 L10.0396316,66.6252744 C10.1362305,65.5807959 10.3861328,63.4251221 10.5688477,62.9139404 C10.6373657,62.7222473 10.7210889,62.6254926 10.8054921,62.5787382 Z" id="路径" fill="#CCCCD0"></path>
                <path d="M10.8054921,62.5787382 L13.1032729,63.0825882 L15.1365055,63.5056271 C16.4054967,63.7607486 17.5014938,63.9620613 18.4244968,64.1095651 L19.8575784,64.3357301 C20.0149704,64.3623708 20.1689457,64.3892584 20.3195849,64.4163947 L20.3188963,70.1148689 L18.3870135,69.7561263 C15.4092437,69.1900207 11.6122421,68.4206231 11.1279297,68.2662354 C10.3731689,68.0256348 9.99291992,67.5530396 9.99921253,67.1572266 L10.0396316,66.6252744 L10.13738,65.676624 C10.2569824,64.6057397 10.4318115,63.2973267 10.5688477,62.9139404 C10.6373657,62.7222473 10.7210889,62.6254926 10.8054921,62.5787382 Z" id="路径" fill="#C8C8CD"></path>
                <path d="M10.8054921,62.5787382 L13.1032729,63.0825882 L14.5146733,63.3791534 C14.7398992,63.4254681 14.9601213,63.4702265 15.1753397,63.5134285 L14.9945077,64.8556801 C14.778115,66.5654146 14.660534,67.9554267 14.6411126,69.0258945 L12.3311362,68.5462024 C11.7093484,68.4125419 11.2720224,68.3121688 11.1279297,68.2662354 C10.3731689,68.0256348 9.99291992,67.5530396 9.99929129,67.1572266 L10.0396316,66.6252744 L10.13738,65.676624 C10.2569824,64.6057397 10.4318115,63.2973267 10.5688477,62.9139404 C10.6373657,62.7222473 10.7210889,62.6254926 10.8054921,62.5787382 Z" id="路径" fill="#C0C0C5"></path>
                <path d="M10.8054921,62.5787382 L11.8532585,62.8082468 L11.7489858,63.8668212 C11.5337811,66.2172831 11.5152648,67.7309284 11.6934368,68.4077572 L11.1279297,68.2662354 L11.1279297,68.2662354 C10.3731689,68.0256348 9.99291992,67.5530396 9.99929129,67.1572266 L10.0396316,66.6252744 L10.13738,65.676624 C10.2569824,64.6057397 10.4318115,63.2973267 10.5688477,62.9139404 C10.6373657,62.7222473 10.7210889,62.6254926 10.8054921,62.5787382 Z" id="路径" fill="#B6B6BE"></path>
                <path d="M85.5818481,63.3457031 C85.8766479,63.435791 86,64.6225586 86,64.9716187 L85.9824528,65.2219702 C85.8979239,66.1415276 85.5324922,69.0821318 85.4273682,69.9590454 C85.3082275,70.9528809 84.4779053,72.0014648 83.0241699,72.0076904 L66,72.0076904 L66,72.0076904 C62.7497559,72.0076904 60.1143799,71.7840576 56.7545166,71.7840576 L54.9968627,71.7993192 C53.1396376,71.8279875 51.0427572,71.8913118 49.2377466,71.9392124 C50.3310872,70.7094617 48.5438349,68.1998246 43.8789061,64.4102886 L47.4594874,64.5150158 C50.4131486,64.5959944 53.3300798,64.6562338 56.5002441,64.6582031 L57.7927963,64.6525405 C64.4632067,64.5933121 74.051054,64.0894817 77.6776052,64.001837 L79.5266513,63.9665606 C82.3657441,63.8871746 85.2483368,63.6537781 85.3479919,63.6236572 C85.4618835,63.5892334 85.2870483,63.2556152 85.5818481,63.3457031 Z" id="路径" fill="#D0D1D8"></path>
                <path d="M85.5818481,63.3457031 C85.8766479,63.435791 86,64.6225586 86,64.9716187 L85.9824528,65.2219702 L85.8243345,66.6639233 C85.6832258,67.8726315 85.4974509,69.3744363 85.4273682,69.9590454 C85.3082275,70.9528809 84.4779053,72.0014648 83.0241699,72.0076904 L66,72.0076904 C64.835202,72.0076904 63.7493721,71.9789691 62.6808649,71.9421123 C60.3349186,71.2961794 59.4971352,69.057858 57.870251,67.0437261 L57.5554021,66.6691471 C56.7751359,65.7788846 57.0620944,65.1258001 58.0924856,64.6506666 L60.6961796,64.6049154 C66.9947166,64.4622423 74.551268,64.0773928 77.6776052,64.001837 L79.5266513,63.9665606 L81.062573,63.9101329 C83.3219617,63.809023 85.2664559,63.6483016 85.3479919,63.6236572 C85.4618835,63.5892334 85.2870483,63.2556152 85.5818481,63.3457031 Z" id="路径" fill="#C5C6CC"></path>
                <path d="M85.5818481,63.3457031 C85.8766479,63.435791 86,64.6225586 86,64.9716187 L85.9824528,65.2219702 L85.8243345,66.6639233 C85.6832258,67.8726315 85.4974509,69.3744363 85.4273682,69.9590454 C85.3082275,70.9528809 84.4779053,72.0014648 83.0241699,72.0076904 L73.7657332,72.0075252 C72.6402395,69.735271 71.908221,67.1430749 71.5696778,64.2309369 L75.5820694,64.069931 C76.403092,64.039242 77.1126771,64.0154899 77.6776052,64.001837 L79.5266513,63.9665606 L81.062573,63.9101329 L82.2207932,63.8521103 C83.9502378,63.7565355 85.2808446,63.6439526 85.3479919,63.6236572 C85.4618835,63.5892334 85.2870483,63.2556152 85.5818481,63.3457031 Z" id="路径" fill="#C0C1C6"></path>
                <path d="M85.5818481,63.3457031 C85.8766479,63.435791 86,64.6225586 86,64.9716187 L85.9824528,65.2219702 L85.8243345,66.6639233 C85.6832258,67.8726315 85.4974509,69.3744363 85.4273682,69.9590454 C85.3082275,70.9528809 84.4779053,72.0014648 83.0241699,72.0076904 L79.8807881,72.0079265 C80.5235237,71.824037 80.9992263,71.6203857 81.3078959,71.3969727 C82.4314656,70.5837402 82.8130359,67.5373801 83.3779297,66.0407715 C83.6674513,65.2737235 82.9069596,64.5623841 81.0964544,63.9067531 L82.2207932,63.8521103 C83.9502378,63.7565355 85.2808446,63.6439526 85.3479919,63.6236572 C85.4618835,63.5892334 85.2870483,63.2556152 85.5818481,63.3457031 Z" id="路径" fill="#BBBCC1"></path>
                <path d="M17.8515625,62.7460937 L18.4743702,62.8468815 C21.5415278,63.3153171 28.1034252,63.9688569 35.0691323,64.1628627 L39.0635161,64.2642712 C45.2994586,64.43749 50.4366281,64.6544364 56.5002441,64.6582031 L57.7927963,64.6525405 C64.4632067,64.5933121 74.051054,64.0894817 77.6776052,64.001837 L79.5266513,63.9665606 C82.3657441,63.8871746 85.2483368,63.6537781 85.3479919,63.6236572 C85.4618835,63.5892334 85.2870483,63.2556152 85.5818481,63.3457031 C85.8766479,63.435791 86,64.6225586 86,64.9716187 L85.9828838,65.2172722 L85.9828838,65.2172722 C85.7854232,64.7042032 85.7289333,63.8742066 85.6475525,63.8232422 C85.5159821,63.7408468 85.4448654,63.8070285 85.3542175,63.8300171 L85.1353387,63.8741953 C84.1684688,64.0364381 81.4059338,64.1999257 77.236796,64.312863 L52.3407022,64.7929199 L52.3407022,64.7929199 L49.0343284,64.8242569 C45.4020365,64.8027181 34.0046618,64.5380035 27.3165283,64.0601807 L26.0064129,63.9570373 C20.1700723,63.4553713 15.1987694,62.468115 13.7705997,61.843253 L14.8047835,62.1042464 C15.7275178,62.3285187 16.7855588,62.5619444 17.8515625,62.7460937 Z" id="路径" fill="#EFEFEF"></path>
                <path d="M11.211792,62.5241699 C11.5878848,62.5411435 14.4419219,63.3566396 17.3103001,63.8189451 L19.8185344,64.2050122 C22.2881598,64.6104751 24.7727593,65.1523709 25.7727051,66.0616455 C26.9297852,67.1138062 27.5511499,68.1236475 27.9724668,69.0393777 L28.6638999,70.6209541 C28.7417651,70.7937646 28.7883667,70.8930908 28.8026733,70.9207764 L28.8630785,70.9409709 C29.3902033,71.0645494 33.3007044,71.5867435 38.4986968,71.9988737 L36.9060059,72 L36.4441269,71.9841369 C34.9466062,71.901234 31.4197495,71.5071224 28.2014118,71.1282485 L21.8896484,70.3718262 C20.6828613,70.2410889 11.8826904,68.5068359 11.1279297,68.2662354 L10.9774881,68.2101699 L11.3641688,68.3028701 C16.3305135,69.4615873 22.0148693,70.3342227 28.4172363,70.9207764 C28.3419189,70.498291 27.2780762,67.835022 25.9659424,66.72052 L25.4079966,66.245943 C24.5262917,65.5167526 23.7295137,65.0735385 20.6762129,64.5730924 L18.1945576,64.1888741 C14.3046091,63.5513569 11.2810872,62.799235 11.0268555,62.7888184 C10.945326,62.7854778 10.8501452,62.8037933 10.7413132,62.8437648 L10.567662,62.9176679 C10.5921023,62.8488809 10.6534424,62.6632385 10.7474976,62.589386 C10.8415527,62.5155334 10.948761,62.5219727 11.0496952,62.5414588 C11.1011584,62.5492156 11.1455955,62.5584435 11.1767827,62.5517924 L11.211792,62.5241699 Z" id="路径" fill="#EBEBEB"></path>
                <path d="M42.7751387,62.0620843 L42.7633378,62.073448 C42.6618359,62.1711903 42.6587881,62.3327095 42.7565304,62.4342114 C42.7590492,62.4368271 42.7616236,62.4393887 42.7642517,62.4418945 C42.8708286,62.5435096 43.039492,62.5398733 43.1415903,62.4337593 L43.1596114,62.4150294 C43.2553179,62.3155586 43.2522663,62.1573361 43.1527954,62.0616296 C43.1513393,62.0602285 43.1498662,62.0588452 43.1483765,62.0574799 C43.0422631,61.9602264 42.8788206,61.9622427 42.7751387,62.0620843 Z" id="路径-851" fill="#535353"></path>
                <path d="M50.6480024,62.1888848 L50.6362015,62.2002486 C50.5346997,62.2979908 50.5316519,62.4595101 50.6293941,62.5610119 C50.631913,62.5636276 50.6344873,62.5661893 50.6371155,62.5686951 C50.7436923,62.6703101 50.9123558,62.6666738 51.0144541,62.5605598 L51.0324751,62.54183 C51.1281816,62.4423591 51.12513,62.2841366 51.0256592,62.1884301 C51.024203,62.187029 51.0227299,62.1856457 51.0212402,62.1842804 C50.9151268,62.0870269 50.7516844,62.0890432 50.6480024,62.1888848 Z" id="路径-851" fill="#535353"></path>
                <path d="M58.6780317,62.7071954 L58.6662308,62.7185591 C58.564729,62.8163014 58.5616812,62.9778206 58.6594234,63.0793225 C58.6619423,63.0819382 58.6645166,63.0844998 58.6671448,63.0870056 C58.7737216,63.1886207 58.9423851,63.1849844 59.0444834,63.0788703 L59.0625044,63.0601405 C59.1582109,62.9606697 59.1551593,62.8024471 59.0556885,62.7067406 C59.0542323,62.7053396 59.0527592,62.7039563 59.0512695,62.7025909 C58.9451561,62.6053375 58.7817137,62.6073538 58.6780317,62.7071954 Z" id="路径-851" fill="#535353"></path>
            </g>
        </g>
    </g>
</svg>