<?xml version="1.0" encoding="UTF-8"?>
<svg width="96px" height="96px" viewBox="0 0 96 96" version="1.1" xmlns="http://www.w3.org/2000/svg" xmlns:xlink="http://www.w3.org/1999/xlink">
    <title>Nike Lebron 3 LBJ3</title>
    <defs>
        <rect id="path-1" x="0" y="0" width="96" height="96"></rect>
    </defs>
    <g id="icon" stroke="none" stroke-width="1" fill="none" fill-rule="evenodd">
        <g id="画板" transform="translate(-854.000000, -582.000000)">
            <g id="Nike-Lebron-3-LBJ3" transform="translate(854.000000, 582.000000)">
                <g id="#" opacity="0">
                    <use fill="#FFFFFF" fill-rule="evenodd" xlink:href="#path-1"></use>
                    <rect stroke-opacity="0.5" stroke="#DDDDDD" stroke-width="6" stroke-linejoin="square" x="3" y="3" width="90" height="90"></rect>
                    <rect stroke-opacity="0.507785184" stroke="#DDDDDD" stroke-width="12" stroke-linejoin="square" x="6" y="6" width="84" height="84"></rect>
                    <rect stroke-opacity="0.319406703" stroke="#979797" stroke-width="10" stroke-linejoin="square" x="5" y="5" width="86" height="86"></rect>
                </g>
                <path d="M67.6054688,35.1679688 C67.7675781,35.2161458 70.1385091,36.6058757 74.7182617,39.3371582 C72.6873372,43.5593927 71.2281901,45.5371111 70.3408203,45.2703136 C69.0097656,44.8701172 67.8388672,41.3178711 67.7009277,40.1430664 C67.5629883,38.9682617 67.3623047,35.0957031 67.6054688,35.1679688 Z" id="路径-971" fill="#1E1C1E"></path>
                <path d="M67.6054688,35.1679688 L67.8229542,35.2777135 C68.5185551,35.6573619 70.816991,37.0105101 74.7182617,39.3371582 C74.4162557,39.9650201 74.1268933,40.5432495 73.8501745,41.0718464 C72.0091297,40.7093764 69.9681195,40.4619026 67.7284488,40.3262855 L67.7009277,40.1430664 L67.6394463,39.4937762 C67.5147082,37.942323 67.3970424,35.1060268 67.6054688,35.1679688 Z" id="路径" fill="#383738"></path>
                <path d="M67.6054688,35.1679688 L67.8229542,35.2777135 L68.9737483,35.9357755 C70.1434666,36.617013 72.0583044,37.7508072 74.7182617,39.3371582 L74.3131437,40.1648333 C74.2469377,40.2976225 74.1813884,40.4278335 74.116496,40.5554662 L67.5945306,38.8737811 L67.5597399,38.2951235 C67.4782066,36.8097277 67.4440808,35.1200061 67.6054688,35.1679688 Z" id="路径" fill="#494949"></path>
                <path d="M29.2609863,53.2480469 C28.7923991,52.6286684 28.6752523,52.1790834 28.9095459,51.899292 C29.2609863,51.4796049 30.7772217,51.4796049 31.1987305,51.4796049 C31.4797363,51.4796049 31.6337077,51.6195006 31.6606445,51.899292 L32.7434082,51.4796049 C32.933431,51.134559 33.119873,50.8806966 33.3027344,50.7180176 C33.5770264,50.473999 34.0513916,50.4481201 34.3374023,50.5737305 C34.6234131,50.6993408 36.9981689,49.6375732 37.1395264,49.5080566 C37.2808838,49.37854 37.5837402,48.7587891 37.8895264,48.6800537 C38.1953125,48.6013184 38.777832,48.8320312 39.0374756,48.6800537 C39.2971191,48.5280762 40.2995605,48.2434082 40.3394775,48 C40.3793945,47.7565918 41.0333252,46.4572754 41.8701172,46.0344238 C42.7069092,45.6115723 43.1361084,45.7091064 43.4812012,45.6661377 C43.8262939,45.6231689 44.5445557,45.2016602 45.019165,45.1933594 C45.4937744,45.1850586 45.2087402,44.7852783 45.4425049,44.5292969 C45.6762695,44.2733154 46.7958984,43.7792969 47.0057373,43.5567627 C47.2155762,43.3342285 47.4202881,42.7507324 47.4145508,42.4539795 C47.4088135,42.1572266 47.5477295,41.4698486 48,41.3085938 C48.4522705,41.1473389 49.079834,41.2080078 49.2983398,41.0345459 C49.5168457,40.861084 49.9440918,39.8304443 50.0385742,39.2287598 C50.1330566,38.6270752 51.0751953,36.8981934 51.4465332,36.3708496 C51.8178711,35.8435059 53.4144287,33.8133545 53.7701416,33.4724121 C54.1258545,33.1314697 56.0349121,31.786377 56.3359375,31.4488525 C56.6369629,31.1113281 57.3449707,30.5172119 57.7753906,30.050415 C58.2058105,29.5836182 58.5351562,29.5487061 58.9543457,29.5469971 C59.3735352,29.5452881 59.8217773,29.4195557 60.2982178,29.8892822 C60.7746582,30.3590088 61.1444092,30.8834229 61.8450928,31.1420898 C62.5457764,31.4007568 63.5262451,31.9747314 63.8721924,32.1644287 C64.2181396,32.354126 66.2770996,32.3238525 66.9696045,32.3692627 C67.6621094,32.4146729 68.7550049,32.6964111 68.8242187,33.9536133 C68.8359375,34.3344727 68.7476807,35.5699463 68.6915283,36.6022949 C68.635376,37.6346436 68.5864258,39.7456055 68.7016602,40.6468506 C68.8168945,41.5480957 69.3668213,42.3146973 69.47229,42.895874 C69.5777588,43.4770508 70.1611328,43.9468994 70.3121338,43.7709961 C70.4631348,43.5950928 73.0852051,39.2133789 73.3706055,38.5841064 C73.6560059,37.954834 74.2060547,37.3638916 74.6245117,37.5377197 C75.0429687,37.7115479 77.0187988,39.0709229 77.3709717,39.5561523 C77.6057536,39.8796387 77.8533122,40.3125814 78.1136475,40.8549805 C78.6036377,42.0429688 78.6036377,43.4890951 78.1136475,45.1933594 C77.3786621,47.7497559 70.0808105,55.7956543 65.161377,57.3898926 C60.2419434,58.9841309 40.8557129,60.8798828 38.097168,60.8273926 C35.338623,60.7749023 33.1682129,61.8444824 31.6606445,59.338623 C30.655599,57.6680501 29.8557129,55.6378581 29.2609863,53.2480469 Z" id="23" fill="#18181A"></path>
                <path d="M68.7751514,41.0218642 L68.7016602,40.6468506 C68.7976888,41.3978882 69.1955872,42.0554233 69.3865876,42.5900687 L69.47229,42.895874 C69.5618734,43.3895155 69.9962419,43.8028392 70.2175881,43.8083566 C70.068348,43.9229046 69.8666776,44.3495462 69.8119071,44.2731323 L69.6687643,44.0293278 C69.4487005,43.6298436 69.0431824,42.813736 68.8599854,42.0347465 C68.7948486,41.7577724 68.7665706,41.420145 68.7751514,41.0218642 Z M72.6940148,39.8053623 C72.6826459,40.1237027 72.611825,40.5188239 72.5626221,40.7819824 C72.4736938,41.2576091 71.980896,42.130188 71.1895142,43.4346313 C70.4446842,44.6623427 70.445529,43.9538517 70.3344767,43.7939435 L70.3121338,43.7709961 L70.5748427,43.3636863 C70.8591487,42.9049207 71.3313562,42.1220775 71.8088739,41.3174001 L72.6940148,39.8053623 Z" id="形状" fill="#626263"></path>
                <path d="M35.2008057,59.1124268 C34.6430664,57.8239746 33.1749268,52.2913818 33.1350098,51.9272461 C33.0950928,51.5631104 34.2564087,51.3862211 34.5383301,51.3282471 C34.8202515,51.2702731 35.77771,54.5545654 36.2767334,56.3571777 C36.6094157,57.5589193 36.9096273,58.5598958 37.1773682,59.3601074 C37.2767334,59.2949219 37.2767334,59.0355225 37.1773682,58.5819092 C37.0283203,57.9014893 35.553833,52.8082275 35.4516602,52.2104492 C35.3494873,51.6126709 34.8880945,51.225708 35.1929486,50.9678955 C35.4978027,50.710083 36.6531982,50.282959 36.9000244,50.6309814 C37.1468506,50.9790039 38.536499,56.4471436 38.744873,57.2773438 C38.8837891,57.8308105 39.0773112,58.5874837 39.3254395,59.5473633 C39.4453939,59.5539551 39.4453939,59.232137 39.3254395,58.5819092 C39.1455078,57.6065674 38.3565674,54.6491699 38.2427979,54.1954346 C38.1290283,53.7416992 37.2219849,50.7575073 37.1773682,50.6309814 C37.1327515,50.5044556 36.9591064,50.2515259 37.2074585,50.1237793 C37.4558105,49.9960327 38.0296021,50.5025024 38.4336548,51.1356201 C38.8377075,51.7687378 38.7762451,52.7730713 38.9894409,52.7711182 C39.2026367,52.769165 39.701355,52.6594238 39.7762451,52.9249878 C39.8511353,53.1905518 41.2747803,58.7633057 41.3139648,59.1124268 C41.3531494,59.4615479 41.4637451,58.5299072 41.3139648,57.8037109 C41.1641846,57.0775146 40.0251465,53.2435303 40.1810303,53.3428955 C40.3369141,53.4422607 42.0543213,58.2596436 42.1166992,58.8278809 C42.1790771,59.3961182 45.7058105,58.7102051 45.9503174,58.4217529 C46.1948242,58.1333008 44.2608643,55.2528312 44.0620117,54.8256954 C43.8631592,54.3985596 42.0133057,50.4023438 42.748291,51.1356201 C43.4832764,51.8688965 46.9191895,58.0456543 47.1624756,58.4217529 C47.4057617,58.7978516 47.6632324,58.3143311 48.0778809,58.2012939 C48.4925293,58.0882568 47.2763672,55.955334 46.1472168,54.7349854 C45.0180664,53.5146367 43.2036133,50.6193848 42.748291,49.6103516 C42.2929688,48.6013184 41.9642334,48.1104736 42.748291,47.6625977 C43.5323486,47.2147217 43.9301758,47.0668945 44.4676514,47.1989746 C45.005127,47.3310547 45.7042236,47.8276367 46.6029053,49.0144043 C47.5015869,50.2011719 49.0152588,52.4077148 49.0338135,52.7711182 C49.0523682,53.1345215 49.1251221,53.5283203 49.6064453,54.5443115 C50.0877686,55.5603027 51.3770752,58.1862793 51.6088867,58.2012939 C51.8406982,58.2163086 53.0939941,57.8695068 53.083252,57.5574951 C53.0725098,57.2454834 51.6420898,55.456543 51.0726318,54.7349854 C50.5031738,54.0134277 48.260498,50.8320313 47.7745361,49.8763428 C47.2885742,48.9206543 47.6578369,48.4606934 48,48.6986084 C48.3421631,48.9365234 49.6782227,50.8620418 50.1588135,51.4796049 C50.6394043,52.097168 51.1140137,52.8066406 51.276123,53.5684814 C51.4382324,54.3303223 53.2906494,57.4914551 53.9354248,57.9754639 C54.5802002,58.4594727 51.7614746,58.6395264 51.1612549,58.2927246 C50.5610352,57.9459229 49.6591797,55.3787842 48.6657715,54.1954346 C47.6723633,53.012085 46.0030518,51.21521 45.4832764,50.3435059 C44.963501,49.4718018 44.2663574,47.2335205 44.0620117,47.6625977 C43.857666,48.0916748 42.9559326,48.088501 43.1783447,48.2811279 C43.4007568,48.4737549 43.6497803,48.9848633 44.4676514,50.1237793 C45.2855225,51.2626953 48.0405273,55.2894287 48.4584961,56.6151123 C48.7371419,57.4989014 48.9289144,58.3313395 49.0338135,59.1124268 C42.0765381,59.8874919 38.2762451,60.2760824 37.6329346,60.2781982 C36.6679687,60.2813721 35.7585449,60.4008789 35.2008057,59.1124268 Z" id="路径-970" fill="#353434"></path>
                <path d="M45.5350342,55.8232422 C44.5835081,54.541226 43.4735107,52.2010419 42.9990234,51.4554404 C42.5245361,50.7098389 42.0772531,48.5948881 42.141776,48.4458815 C42.2062988,48.296875 42.552124,48.3566895 43.0687256,49.5751953 C43.5853271,50.7937012 45.8699951,53.8532715 45.9411621,53.5056152 C46.0123291,53.157959 43.1949463,48.8431791 42.9990234,48.4458815 C42.8031006,48.048584 43.4456787,47.624001 43.848999,47.5085337 C44.2523193,47.3930664 45.2130127,48.4138184 45.5184326,49.6246338 C45.8238525,50.8354492 48.5936279,54.0241699 48.7104492,53.0568848 C48.8272705,52.0895996 45.6356598,48.1421198 44.8178909,47.5962064 C44.0001221,47.050293 43.8839111,47.2975962 43.2532959,47.5330811 C42.6226807,47.7685659 41.5938131,48.0685537 41.5847608,48.2217158 C41.5758057,48.3748779 42.8210322,52.8720248 43.58233,53.8915178 C44.3436279,54.9110107 46.4865602,57.1052583 45.5350342,55.8232422 Z" id="路径-1006" fill="#737373"></path>
                <path d="M37.9592285,51.258611 C38.1988525,51.2531738 38.7659912,53.2531738 39.0501709,53.1517334 L39.2412331,53.0798108 C39.3630374,53.0370578 39.4071878,53.0489123 39.4927979,53.2027588 C40.0881592,54.2726594 41.0903367,58.201897 40.9011724,58.9573981 C40.8107313,59.3186098 40.3013537,59.7139844 39.3730398,60.1435219 L38.0302855,60.2587468 C37.8469113,60.2714442 37.7145293,60.2779299 37.6329346,60.2781982 L36.9693507,60.2800307 C36.6458866,60.2710262 36.337748,60.2325539 36.0576877,60.0989736 L35.8736529,59.5784844 C35.8099851,59.3882785 35.7440518,59.1813066 35.6760254,58.9573981 L35.4681142,58.2521716 C34.7065565,55.5940041 33.9829508,52.2550833 34.2653809,52.0290177 C34.5734863,51.7824006 36.6152344,58.6594238 36.777832,59.0668945 C36.8533825,59.2562244 37.0087871,59.3324405 37.1636548,59.3196056 L37.1773682,59.3601074 L37.1773682,59.3601074 C37.1947369,59.3487132 37.2090696,59.331385 37.2203663,59.3081228 C37.3782648,59.2758021 37.5255217,59.1491584 37.5738598,58.9573981 C37.6748193,58.556886 36.640625,54.3314099 36.4528809,53.3496094 L36.3875513,52.963811 C36.2485428,52.0340338 36.2146301,50.9779683 36.519043,51.4919591 C36.8669434,52.0793772 38.7561035,58.5383301 38.9318208,58.9573981 C38.9903932,59.0970874 39.1009618,59.1578784 39.2280155,59.1721063 L39.3254395,59.5473633 C39.401482,59.551542 39.429319,59.4237442 39.4089505,59.1639698 C39.6158418,59.1328333 39.8252378,59.023441 39.9040711,58.9573981 C40.0569215,58.8293469 39.0187645,55.2905988 38.6704102,54.1994629 L38.2779558,52.9533041 C38.0139855,52.0831745 37.7994792,51.2623141 37.9592285,51.258611 Z" id="路径" fill="#646464"></path>
                <path d="M54.7799072,58.4381104 C52.908488,56.0525985 51.7613118,54.4790476 51.3383789,53.7174579 C50.7039795,52.5750732 50.0758057,51.0736084 49.2333984,49.8659668 C48.3909912,48.6583252 52.8464355,53.5593262 53.322998,54.1520386 C53.6407064,54.5471802 54.6265055,55.836792 56.2803955,58.020874 C58.9373779,57.233195 60.1257731,56.7125244 59.8455811,56.4588623 C59.425293,56.0783691 58.0704346,54.6604155 57.5681152,54.0567092 C57.0657959,53.4530029 54.8531494,50.8624268 54.984375,50.9804688 C55.1156006,51.0985107 57.338623,52.2523193 58.447998,53.3728027 C59.557373,54.4932861 59.9685059,54.9024658 59.8455811,54.5736084 C59.7226563,54.244751 57.9202881,52.2355957 56.2803955,50.9804688 C54.6405029,49.7253418 55.4618664,50.0371094 54.50669,49.1796875 C53.5515137,48.3222656 54.4749756,47.4771729 55.590332,48.2895508 C56.7056885,49.1019287 59.3500977,51.4245605 60.3354492,52.4262695 C61.3208008,53.4279785 62.0419922,54.4893799 62.2685547,54.8365479 C62.4951172,55.1837158 63.0977783,56.0793457 63.0892334,55.7188721 C63.0806885,55.3583984 62.6937256,54.1809821 61.7025146,53.1994388 C60.7113037,52.2178955 58.6210937,50.2005615 57.5681152,49.3952637 C56.8661296,48.8583984 56.0048828,48.237793 54.984375,47.5334473 C55.9311523,47.1336263 56.5492757,47.0174154 56.8387451,47.1848145 C57.2729492,47.4359131 60.536377,49.5770264 61.2243652,50.3747559 C61.9123535,51.1724854 63.4375,52.8780518 63.6673584,53.3728027 C63.8972168,53.8675537 64.3924561,54.7436523 64.5705566,54.5736084 C64.7486572,54.4035645 65.2119141,53.8834229 63.8730469,52.4262695 C62.5341797,50.9691162 61.2808838,49.4462891 59.5092773,48.2895508 C57.7376709,47.1328125 56.5423758,46.8702393 56.9609462,46.5305176 C57.3795166,46.1907959 58.0574951,45.9901123 58.2873535,46.1936035 C58.5172119,46.3970947 59.0518799,47.2282023 59.5092773,47.1524923 C59.9666748,47.0767822 60.0371094,46.6608887 60.7243652,47.1848145 C61.4116211,47.7087402 63.7331543,49.7016602 64.2423096,50.3747559 C64.7514648,51.0478516 64.0689697,51.2735596 64.5705566,51.9442139 C65.0721436,52.6148682 65.6182861,53.8209021 65.9128418,53.7174579 C66.2073975,53.6140137 67.1953125,53.2803955 67.1694336,52.7709961 C67.1435547,52.2615967 66.704834,51.9313777 65.9128418,51.4796049 C65.1208496,51.027832 64.6932373,50.0955811 63.9196777,49.3898926 C63.1461182,48.6842041 60.9360352,46.9359131 60.3354492,46.5305176 C59.7348633,46.1251221 60.2314453,44.9228516 61.0598145,45.4775391 C61.8881836,46.0322266 64.0266113,47.7961426 64.9997559,48.7510986 C65.9729004,49.7060547 66.1663818,50.1884766 66.5336914,50.6876221 C66.901001,51.1867676 68.3361816,52.4841309 68.5474854,52.4262695 C68.7587891,52.3684082 68.947998,51.5895808 68.7960205,51.4796049 C68.644043,51.3696289 67.2155762,50.3273926 66.9211426,49.8659668 C66.626709,49.404541 65.7523193,48.4302979 65.7088623,48.2895508 C65.6654053,48.1488037 64.4780273,46.9072266 63.0892334,45.668335 C61.7004395,44.4294434 57.5673828,41.3308105 57.6168213,41.1019287 C57.6662598,40.8730469 57.8804932,40.0423584 58.095459,39.5552979 C58.3104248,39.0682373 61.7246094,40.2498779 64.9997559,42.3907471 C68.2749023,44.5316162 69.2481689,45.5097656 70.6314697,46.1936035 C72.0147705,46.8774414 73.8476562,48.0335693 74.3426514,48 C74.8376465,47.9664307 74.4477539,47.2408447 74.1494141,47.1848145 C73.8510742,47.1287842 69.5844727,44.9338379 68.7960205,44.4882812 C68.0075684,44.0427246 66.0679932,42.4035645 64.9997559,41.7618408 C63.9315186,41.1201172 60.0596924,39.397583 59.241333,39.2213135 C58.4229736,39.0450439 59.1203613,38.5255127 59.8455811,38.8636475 C60.5708008,39.2017822 63.8704834,40.6461182 64.9997559,41.1019287 C66.1290283,41.5577393 66.5527344,40.9304199 67.1694336,41.4906006 C67.7861328,42.0507812 68.5843506,42.5102539 68.7185059,42.857666 C68.8526611,43.2050781 69.1518555,43.7611084 69.4420166,44.2232666 C69.7321777,44.6854248 70.3665771,45.5308838 70.8447266,44.8150635 C71.322876,44.0992432 71.560791,44.0662842 72.0748291,44.4882812 C72.5888672,44.9102783 75.1849365,46.4177246 75.4630127,46.3721924 C75.7410889,46.3266602 75.15979,45.9919434 74.7182617,45.668335 C74.2767334,45.3447266 72.0083008,44.1478271 71.7327881,43.9868164 C71.4572754,43.8258057 72.1665039,43.0209961 72.2736816,42.857666 C72.3808594,42.6943359 75.6743164,44.6378174 75.9942627,44.8150635 C76.314209,44.9923096 76.5739746,44.6253662 76.2054443,44.4882812 C75.8369141,44.3511963 72.8781738,42.7122803 72.5198975,42.611084 C72.1616211,42.5098877 72.9418945,41.2681885 73.0585938,41.1019287 C73.175293,40.9356689 74.65979,41.6807861 75.2001953,42.0898437 C75.5604655,42.3625488 76.1542969,42.7760824 76.9816895,43.3304443 L77.2554932,42.611084 C76.806193,42.6594238 76.4561768,42.5859782 76.2054443,42.3907471 C75.8293457,42.0979004 74.3414307,41.3520668 73.6164551,41.0718464 C72.8914795,40.791626 73.418335,40.4580078 73.6164551,40.0407715 C73.8145752,39.6235352 74.2996826,38.3323002 74.3426514,37.8612184 C74.3856201,37.3901367 75.258667,37.3324222 76.2054443,37.8612184 C77.1522217,38.3900146 78.6773682,39.62854 78.4811401,40.3896484 C78.2849121,41.1507568 77.729248,43.590332 76.9816895,45.833252 C76.2341309,48.0761719 70.7987061,52.9044189 68.7960205,54.3291016 C66.793335,55.7537842 59.1113281,59.0031738 57.2108154,58.9569092 C55.943807,58.9260661 55.1335042,58.7531331 54.7799072,58.4381104 Z" id="路径-972" fill="#242326"></path>
                <path d="M66.6453857,41.0718464 C65.7614746,40.50354 61.6522217,38.0326176 60.8475342,37.8612184 C60.0428467,37.6898193 57.5664062,36.9102783 57.2709961,36.8729248 C56.9755859,36.8355713 56.3327637,36.9812012 56.1157227,36.8729248 C55.8986816,36.7646484 56.2275391,35.5876465 56.4493408,35.5404053 C56.6711426,35.4931641 57.0637207,36.0092773 58.2285156,36.3948975 C59.3933105,36.7805176 60.4248047,36.7752496 61.5571289,37.4859524 C62.6894531,38.1966553 64.1744385,38.7669678 65.350708,39.5172119 C66.5269775,40.2674561 67.8618164,41.1381836 66.6453857,39.7692871 C65.4289551,38.4003906 66.1744385,38.3946533 64.9119873,37.6571045 C63.6495361,36.9195557 62.6629639,37.1422119 61.8897705,36.8729248 C61.1165771,36.6036377 59.987793,37.0036621 59.3271484,36.3948975 C58.6665039,35.7861328 57.5252686,35.8817139 56.9559326,35.5404053 C56.3865967,35.1990967 56.0021973,35.2961426 55.8330078,35.5404053 C55.6638184,35.784668 55.8624268,36.7791748 55.5600586,37.1663818 C55.2576904,37.5535889 56.3029785,38.1484682 57.2318115,38.2045898 C58.1606445,38.2607115 59.0539551,38.0690918 59.6096191,38.397583 C60.1652832,38.7260742 61.6917725,39.4700928 62.9581299,39.9793701 C64.2244873,40.4886475 67.5292969,41.6401527 66.6453857,41.0718464 Z" id="路径-973" fill="#464646"></path>
                <path d="M68.3039239,34.1779785 C68.3065186,33.8134766 68.1929932,33.1854248 67.7479248,32.8898926 C67.3028564,32.5943604 66.7938232,32.5426025 66.213623,32.4665527 C65.6334229,32.3905029 64.6658936,32.4117432 64.1047363,32.2320557 C63.5435791,32.0523682 63.1070557,31.7041016 62.5211182,31.5548096 C61.9351807,31.4055176 61.3161621,31.0639648 60.9403076,30.649292 C60.5644531,30.2346191 60.3242188,29.6252441 59.9847412,29.7672119 C59.6452637,29.9091797 58.9462891,29.980957 58.6806641,30.112793 C58.4150391,30.2446289 56.8934326,31.977417 56.6883545,32.6867676 C56.4832764,33.3961182 57.2819824,32.3184814 60.222168,32.574707 C63.1623535,32.8309326 68.3011475,34.5424805 68.3039239,34.1779785 Z" id="路径-974" fill="#626262"></path>
                <path d="M33.1340052,51.3005981 C33.2975464,50.9855957 33.7627563,50.7468872 33.9108887,50.7556763 C34.059021,50.7644653 37.1337891,49.6009521 37.355957,49.4799194 C37.578125,49.3588867 40.383667,47.987793 40.727478,47.8168335 C41.0712891,47.645874 43.2836304,46.6508837 43.9655151,46.2994995 C44.6473999,45.9481153 45.3737793,44.6795044 46.8956911,43.8708496 C48.4176028,43.0621948 52.3656616,40.3062134 52.921814,39.7288818 C53.4779663,39.1515503 55.6707035,37.2120972 55.7989137,36.8562622 C55.927124,36.5004272 55.7545776,34.9836426 56.3201904,33.9607544 C56.8858032,32.9378662 57.4551392,31.9630127 57.8236084,31.270752 C58.1920776,30.5784912 57.2009277,32.7908936 57.0716553,33.3199463 C56.9423828,33.848999 56.3028494,34.9107056 56.2288783,35.7424316 C56.1549072,36.5741577 56.0595093,37.1699219 55.9683838,37.3619385 C55.8772583,37.5539551 53.5492554,39.8262329 52.7265625,40.5110474 C51.9038696,41.1958618 50.3088989,42.3196411 49.7174072,42.6450806 C49.1259155,42.97052 47.6231079,43.8820055 47.0390015,44.1400689 C46.454895,44.3981323 45.8368984,44.9145895 45.5196149,45.2703136 C45.2023315,45.6260376 44.0127563,46.7716675 43.4417725,47.065979 C42.8707886,47.3602905 40.9638062,48.1351318 40.4121704,48.3168945 C39.8605347,48.4986572 37.8354492,49.6156616 36.8891602,49.9783936 C35.9428711,50.3411255 35.2280884,50.737854 34.3139038,51.0713501 C33.3997192,51.4048462 32.970464,51.6156006 33.1340052,51.3005981 Z" id="路径-983" fill="#5D5D5D"></path>
                <path d="M39.4060059,50.6369629 C39.0309448,50.7232666 38.6759644,50.7659302 38.1757812,50.3260498 C37.6755981,49.8861694 37.3741455,49.6906128 37.3932495,49.3095093 C37.4123535,48.9284058 37.9987766,48.4681396 38.3991991,48.6147461 C38.7996216,48.7613525 39.184021,49.4255371 39.6027832,49.3095093 C40.0215454,49.1934814 41.1036987,48.6228224 41.1125488,48.3897705 C41.1213989,48.1567186 40.7092561,47.6523356 40.8871598,47.1524923 C41.0650635,46.6526489 41.670166,45.8924561 42.3986206,45.7269897 C43.1270752,45.5615234 43.6343994,45.7685547 43.7840576,45.704834 C43.9337158,45.6411133 44.3490601,45.2539673 45.019165,45.1933594 C45.68927,45.1327515 46.6496582,45.3441549 46.9898682,45.2703136 C47.3300781,45.1964722 48.7897949,44.3641222 48.704834,44.1400689 C48.619873,43.9160156 47.7368164,42.6993408 47.5296021,42.1934204 C47.3223877,41.6875 47.7599487,41.2271118 48.272522,41.1884766 C48.7850952,41.1498413 49.3209229,41.0838217 49.5430908,40.8715617 C49.7652588,40.6593018 51.0703735,40.7008057 51.8234253,40.7205811 C52.5764771,40.7403564 53.8934937,40.9845175 54.1347046,40.8715617 C54.3759155,40.758606 55.696228,39.0584365 55.6824951,38.9261909 C55.6687622,38.7939453 54.6007996,38.0574805 54.0306549,37.6954883 C53.4605103,37.3334961 52.3974609,36.7148437 52.4257813,36.5059204 C52.4541016,36.2969971 53.4007365,35.1460419 53.6367696,35.3193283 C53.8728027,35.4926147 56.0482639,37.414319 56.5396118,37.8187256 C57.0309598,38.2231321 57.7057495,39.0319214 57.1942749,39.8624878 C56.6828003,40.6930542 55.121582,42.2023315 54.7404785,42.1934204 C54.359375,42.1845093 53.0577393,41.9903564 52.0802002,41.854126 C51.1026611,41.7178955 50.2093506,41.7254639 49.7243042,41.854126 C49.2392578,41.9827881 49.0566406,42.3466187 49.4997559,43.2469482 C49.9428711,44.1472778 50.262085,44.6021118 50.0825806,45.0714111 C49.9030762,45.5407104 48.05896,46.6092529 47.5296021,46.7130737 C47.0002441,46.8168945 46.0601196,46.8532715 45.3837891,46.7130737 C44.7074585,46.572876 44.0395508,46.5243017 43.7840576,46.4660693 C43.5285645,46.4078369 43.1166992,46.447876 42.8561401,46.7054443 C42.5955811,46.9630127 42.4573364,47.6746826 42.5074463,48.3699951 C42.5575562,49.0653076 42.4678955,49.3410645 41.6947632,49.7293701 C40.9216309,50.1176758 39.7810669,50.5506592 39.4060059,50.6369629 Z" id="路径-984" fill="#3C3C3C"></path>
                <path d="M42.7719727,50.5631104 C42.8660075,50.1871338 42.8660075,49.8963623 42.7719727,49.6907959 C42.6309204,49.3824463 42.487915,49.2479248 42.1842041,49.0552368 C41.8804932,48.8625488 41.3091431,48.4858398 41.0753174,48.447876 C40.8414917,48.4099121 39.9971313,48.9249268 39.6958008,49.0552368 C39.3944702,49.1855469 39.2071533,49.4716187 39.2324829,49.7364502 C39.2578125,50.0012817 39.0046997,50.4093018 38.9393921,50.793457 C38.8740845,51.1776123 39.246521,51.5827637 39.4700928,51.9622803 C39.6191406,52.2152913 40.7197673,51.7489014 42.7719727,50.5631104 Z" id="路径-980" fill="#111111"></path>
                <path d="M41.0753174,48.447876 C41.3091431,48.4858398 41.8804932,48.8625488 42.1842041,49.0552368 C42.370897,49.1736833 42.4968652,49.2701507 42.5989828,49.3985257 L42.626709,49.3773193 C42.4542847,49.5487671 39.8760986,50.6960449 39.4877319,50.8438721 C39.2288208,50.9424235 39.1310018,50.8920465 39.1942749,50.692741 L41.7804565,49.5686646 L41.7804565,49.5686646 C42.046875,49.4349976 41.9105835,49.1156006 41.7804565,49.0026245 C41.6503296,48.8896484 41.3513184,48.6791992 41.1724854,48.6860352 C40.9936523,48.6928711 40.086731,49.2264404 39.7969971,49.3773193 C39.6595592,49.4488901 39.4739045,49.5221872 39.240033,49.5972108 C39.2758919,49.376656 39.4469748,49.1628413 39.6958008,49.0552368 C39.9971313,48.9249268 40.8414917,48.4099121 41.0753174,48.447876 Z" id="路径" fill="#767676"></path>
                <path d="M50.0288696,47.2908936 C49.3239136,47.9127952 48.8132935,48.2230693 48.4970093,48.2217158 C48.022583,48.2196045 47.5343628,47.9432373 47.3434448,47.4905396 C47.1525269,47.0378418 47.3248291,46.420105 47.118042,46.0026855 C46.9112549,45.5852661 46.7435303,45.3308105 47.118042,44.8099976 C47.4925537,44.2891846 48.2800903,44.046875 48.6398315,44.1728516 C48.9995728,44.2988281 49.342041,44.5279541 49.7505493,44.5375977 C50.1590576,44.5472412 50.4706421,44.5741577 50.8533325,44.9506226 C51.2360229,45.3270874 51.5073853,45.6557808 51.3748779,45.9049473 C51.2865397,46.0710583 50.8378703,46.5330404 50.0288696,47.2908936 Z" id="路径-981" fill="#111111"></path>
                <path d="M49.6123635,44.5198729 L49.7505493,44.5375977 C49.9256243,44.5417306 50.082897,44.5490361 50.2355941,44.58567 L50.3062495,44.607119 C50.3799303,44.6989475 50.2736613,44.7964274 50.1298218,44.8613281 C49.9140625,44.9586792 48.1256714,46.6489258 47.9831543,46.7625732 C47.8881429,46.8383382 47.8121134,46.9683112 47.7550659,47.1524923 C47.6367798,47.1852302 47.6085409,47.0825195 47.6703491,46.8443604 C47.7630615,46.4871216 48.6965332,45.8043213 49.1952515,45.3584595 C49.6385566,44.9621379 49.6815434,44.6529594 49.6123635,44.5198729 Z M48.3997473,44.1400658 C48.3016389,44.2399668 48.2099455,44.4045078 48.2211304,44.6226196 C48.2417847,45.0253906 47.4696045,45.3181152 47.3846321,45.5656473 C47.3421459,45.6894134 47.2899484,45.8020451 47.2399802,45.8929059 L47.1402925,46.0517914 L46.9914928,45.7438374 C46.8634877,45.4590213 46.8267551,45.2150743 47.118042,44.8099976 C47.3989258,44.4193878 47.9121361,44.1854362 48.3029518,44.1460199 L48.3997473,44.1400658 Z" id="形状" fill="#767676"></path>
                <path d="M56.5361938,42.7948608 C56.3556519,42.9269409 56.3707886,43.1192627 56.0100708,43.0668945 C55.649353,43.0145264 55.6207886,42.6445313 55.3240356,42.6310425 C55.0272827,42.6175537 54.9088745,42.9431152 54.4730225,42.4137573 C54.0371704,41.8843994 54.6062012,42.0651245 54.8313599,42.0186157 C55.0565186,41.9721069 55.1449585,41.7877808 54.8313599,41.3656006 C54.5177612,40.9434204 53.9278936,41.0517578 53.8114199,40.9819946 C53.6949463,40.9122314 53.4183146,40.5736694 53.6367696,40.1383057 C53.8552246,39.7029419 54.4298096,39.1594849 54.8313599,39.0003052 C55.2329102,38.8411255 55.6025391,38.9719849 55.93573,39.0793457 C56.2689209,39.1867065 56.7758179,38.9341431 57.4398804,39.3133545 C58.1039429,39.6925659 58.1057129,40.2521362 57.9750977,40.5823975 C57.8444824,40.9126587 56.7167358,42.6627808 56.5361938,42.7948608 Z" id="路径-982" fill="#111111"></path>
                <path d="M57.4173028,39.3006701 L57.404667,39.3265909 L56.5617065,40.6300659 C55.7395058,41.9343491 55.3943627,41.8406649 55.5663596,41.6047901 L55.607666,41.5560913 C55.8432571,41.3125615 56.8858038,39.6096187 57.1304949,39.1765164 C57.2211086,39.2044601 57.3174059,39.2454679 57.4173028,39.3006701 Z M55.5905603,38.9757645 L55.5026165,39.0138489 C55.2855387,39.150142 55.2687225,39.4266052 55.1156006,39.791626 C54.911438,40.2783203 54.4008789,40.583252 53.890686,40.5554662 C53.7330223,40.5468796 53.6244132,40.4801239 53.5648589,40.355199 C53.5760162,40.2859985 53.5989889,40.2135997 53.6367696,40.1383057 C53.8552246,39.7029419 54.4298096,39.1594849 54.8313599,39.0003052 C55.0990601,38.8941854 55.352573,38.9169718 55.5905603,38.9757645 Z" id="形状" fill="#767676"></path>
                <path d="M61.8686523,32.3721924 C61.7767334,31.7524414 61.4552002,31.049945 60.5415039,31.1378875 C59.6278076,31.2258301 58.2456055,31.0558563 57.0804443,31.3752441 C55.9152832,31.694632 53.8991699,32.6904918 52.7512207,33.6910101 C51.6032715,34.6915283 49.0426426,38.1349746 49.1277056,38.9261909 C49.2127686,39.7174072 49.3843994,40.1437568 49.3054199,40.4321289 C49.2264404,40.720501 49.3552246,41.3636571 50.0793457,40.2305346 C50.8034668,39.0974121 52.125,37.255127 52.493042,36.7703857 C52.861084,36.2856445 54.0866699,34.8898926 54.4833984,34.473877 C54.880127,34.0578613 56.6367187,32.8590088 57.6342773,32.6312256 C58.6318359,32.4034424 60.475708,32.3182373 60.7650146,32.6312256 C61.0543213,32.9442139 61.2436523,33.7294922 59.7999268,33.9904785 C58.3562012,34.2514648 58.660604,33.6743164 57.3768718,33.9916992 C56.0931396,34.309082 55.8780518,34.2386475 55.1069336,34.6308594 C54.5928548,34.892334 54.2340953,35.2157229 54.0306549,35.6010261 L54.8166504,36.4869385 C55.8187663,35.7229309 56.7579753,35.3337275 57.6342773,35.3193283 C58.9487305,35.2977295 59.9061279,35.2466907 60.5415039,34.8951349 C61.1768799,34.5435791 61.9605713,32.9919434 61.8686523,32.3721924 Z" id="路径-986" fill="#333333"></path>
                <path d="M62.0206299,35.0760498 C61.6636731,35.3754476 61.4290481,35.5470378 61.3167551,35.5908203 C61.1483154,35.6564941 60.487915,35.3857422 60.0092773,35.3334351 C59.6901855,35.2985636 59.4580485,35.2430755 59.3128662,35.1669707 C59.7639567,35.0060964 60.0137533,34.8435465 60.0622559,34.6793213 C60.1350098,34.4329834 60.1326904,33.9927979 59.6230469,33.9396973 C59.1134033,33.8865967 59.5726318,33.5174561 59.8470459,33.012207 C60.12146,32.506958 60.2700195,31.8841553 60.666748,31.8155518 C61.0634766,31.7469482 61.9837299,31.7988281 62.2664011,31.8155518 C62.5490723,31.8322754 63.1832275,32.3572706 63.2381592,32.4775245 C63.2747803,32.5576937 62.8689372,33.4238688 62.0206299,35.0760498 Z" id="路径-985" fill="#111111"></path>
                <path d="M62.2664011,31.8155518 L62.3651293,31.839748 C62.0418887,32.4109391 61.7610297,32.7825124 61.5225521,32.9544678 C61.1084586,33.2530518 62.1192627,31.9831543 61.8760447,31.9832764 C61.6328267,31.9833984 60.8466797,32.0625 60.5365684,32.3206746 C60.3987411,32.4354188 60.1715095,32.7114424 59.8548735,33.1487453 L59.3940552,33.8047967 C59.3800903,33.6449299 59.6576066,33.3610011 59.8470459,33.012207 C60.12146,32.506958 60.2700195,31.8841553 60.666748,31.8155518 C61.0634766,31.7469482 61.9837299,31.7988281 62.2664011,31.8155518 Z" id="路径" fill="#6A6A6A"></path>
                <path d="M42.3496094,59.6993408 C41.3909505,56.1583252 40.8123779,54.1508382 40.6138916,53.6768799 C40.4154053,53.2029215 40.0783691,52.4704965 39.6027832,51.4796049 L42.5794678,50.2160645 C43.3818766,51.8697778 43.9003092,53.036909 44.1347656,53.7174579 C44.369222,54.3980068 44.9713542,56.1446535 45.9411621,58.9573981 L42.3496094,59.6993408 Z" id="路径-975" fill="#363636"></path>
                <path d="M44.0960693,53.9172363 C43.7731934,52.7310181 42.9227905,50.8063354 42.7719727,50.5631104 C42.6211548,50.3198853 42.6526489,50.1648406 42.4716187,50.2374496 C42.2905884,50.3100586 40.0209351,51.1917114 39.9172974,51.3027954 C39.8136597,51.4138794 40.3500366,52.020874 40.4491577,52.2327271 C40.5482788,52.4445801 40.7325439,52.5197144 40.6300049,52.2327271 C40.5274658,51.9457397 40.2344971,51.6075252 40.3579102,51.4796049 C40.4813232,51.3516846 42.2452393,50.510437 42.3186035,50.5631104 C42.3919678,50.6157837 43.8148193,53.7695312 44.1577759,54.7826538 C44.5007324,55.7957764 44.4189453,55.1034546 44.0960693,53.9172363 Z" id="路径-998" fill="#8C8C8C"></path>
                <path d="M40.8871598,52.7458516 C40.7302856,52.7301636 40.5553589,52.7818604 40.6495972,52.9742432 C40.7124227,53.1024984 40.7962811,53.2380168 40.9011724,53.3807983 L40.9799194,53.5708008 C40.9018542,53.6458671 40.8658841,53.7138196 40.8720093,53.7746582 C40.881197,53.8659161 42.0543213,57.671814 42.0471802,57.5114746 C42.0400391,57.3511353 41.720459,55.6612309 41.7658691,55.1298098 C41.8112793,54.5983887 42.4190674,54.5913086 42.5118408,54.116333 C42.6046143,53.6413574 42.4903564,53.1735229 42.4160156,53.1721191 C42.3664551,53.1711833 41.9248657,53.3040771 41.0912476,53.5708008 C40.9742228,53.3914388 40.9371134,53.2585449 40.9799194,53.1721191 C41.0441284,53.0424805 41.6307373,52.680481 41.3963623,52.6665649 C41.1619873,52.6526489 41.0440339,52.7615397 40.8871598,52.7458516 Z" id="路径-999" fill="#707070"></path>
                <path d="M56.279541,57.9190674 C53.6132813,54.0542399 51.8297119,51.6017253 50.928833,50.5615234 C49.5775146,49.0012207 47.9788818,47.8664551 48,47.6520996 C48.0140788,47.509196 48.8745931,46.8601074 50.581543,45.704834 C52.2676595,47.3832194 53.6984049,48.9082031 54.8737793,50.2797852 C56.0491536,51.6513672 57.6322428,53.8685303 59.6230469,56.9312744 L56.279541,57.9190674 Z" id="路径-976" fill="#363636"></path>
                <path d="M52.2312622,47.4918823 C51.9849243,47.2033691 50.836792,45.9879921 50.694458,45.8391499 C50.552124,45.6903076 50.2331228,45.6199341 50.330276,45.704834 C50.4274292,45.7897339 50.5537109,46.0676506 50.4578857,46.0959286 C50.3620605,46.1242065 49.1329956,46.9518351 48.7687988,47.1524923 C48.4046021,47.3531494 48.5164185,47.5841064 49.1277056,48.2216752 C49.7389927,48.859244 50.5864553,49.9867554 50.330276,49.3204346 C50.0740967,48.6541138 50.3140869,47.9534602 50.0150757,47.5962064 C49.7160645,47.2389526 49.4562988,47.1541138 49.6049805,46.899231 C49.7536621,46.6443481 50.4006958,46.1165161 50.5582886,46.2590332 C50.7158813,46.4015503 51.8676147,47.4206843 52.1170044,47.5962064 C52.366394,47.7717285 52.4776001,47.7803955 52.2312622,47.4918823 Z" id="路径-1000" fill="#8C8C8C"></path>
                <path d="M70.8024902,51.8933105 C67.2494303,49.1993815 64.9196127,47.4913737 63.8130373,46.7692871 C62.1531743,45.6861572 56.3471609,42.8365479 56.2288783,42.7178955 C56.1105957,42.5992432 56.13366,42.2017822 56.2288783,41.9396973 C56.3240967,41.6776123 57.7827148,40.022583 57.8798828,39.9246826 C57.9770508,39.8267822 59.6606445,40.6463623 60.1019287,40.7719727 C60.5432129,40.897583 65.510799,43.6947021 67.1266153,44.9163818 C68.2038262,45.730835 70.2116292,47.2828369 73.1500244,49.5723877 L70.8024902,51.8933105 Z" id="路径-977" fill="#363636"></path>
                <path d="M62.0184326,41.746761 C61.2287598,41.2492065 59.3787842,40.4800808 59.0266724,40.3364759 C58.6745605,40.1928711 58.0391846,39.7538222 57.8798828,39.916584 C57.7205811,40.0793457 56.756958,41.8815308 57.0113525,41.6543579 C57.2657471,41.4271851 57.7799929,40.1729222 57.9052247,40.2305346 C58.0304565,40.288147 61.5043335,41.7235107 61.7318115,41.8479614 C61.9592896,41.9724121 62.8081055,42.2443154 62.0184326,41.746761 Z" id="路径-1001" fill="#8C8C8C"></path>
                <path d="M60.5305176,40.8729248 C60.2053223,40.8303223 59.0720215,41.7972412 58.4683838,42.2506104 C57.8647461,42.7039795 55.8803711,44.3291016 54.9090576,44.90271 C53.9377441,45.4763184 52.8361816,46.8049316 52.2033691,47.3188477 C51.5705566,47.8327637 49.8648682,48.6654053 49.5429688,48.9541016 C49.2210693,49.2427979 49.5352783,49.4929199 49.5429688,49.7918701 C49.5506592,50.0908203 51.2337646,52.0458984 51.3846436,52.0592041 C51.5355225,52.0725098 51.6276855,51.9890137 51.7325439,51.8119507 C51.8374023,51.6348877 53.5012004,50.9182129 53.6367696,50.7319336 C53.7723389,50.5456543 55.8024902,48.8162842 56.755127,48 C57.7077637,47.1837158 60.0091553,45.2249756 60.8399658,44.7423096 C61.6707764,44.2596436 63.145874,43.3012695 63.3717041,42.9134521 C63.5975342,42.5256348 63.3908691,42.4244385 63.1201172,42.2506104 C62.8493652,42.0767822 60.8557129,40.9155273 60.5305176,40.8729248 Z" id="路径-979" fill="#3C3C3F"></path>
                <path d="M60.5305176,40.8729248 C60.8557129,40.9155273 62.8493652,42.0767822 63.1201172,42.2506104 C63.3908691,42.4244385 63.5975342,42.5256348 63.3717041,42.9134521 C63.145874,43.3012695 61.6707764,44.2596436 60.8399658,44.7423096 C60.0091553,45.2249756 57.7077637,47.1837158 56.755127,48 C55.8024902,48.8162842 53.7723389,50.5456543 53.6367696,50.7319336 C53.511147,50.9045457 52.07332,51.5325786 51.7795806,51.7646858 C51.5030654,51.6121999 51.1862214,51.4071337 51.0923462,51.0980835 C50.9471436,50.6200562 51.0753509,50.2595215 50.4652267,49.9139404 C49.8551025,49.5683594 49.4758301,49.5739136 49.6829834,48.8823242 L49.6993517,48.838107 C50.082068,48.5835066 50.9152316,48.1471668 51.5630647,47.7523443 C51.0308361,48.2412623 50.2798314,48.7744932 50.109314,48.8823242 C49.9075928,49.0098877 49.6140747,49.1867676 49.8352661,49.3572998 C50.0564575,49.527832 51.2924226,49.4061279 51.4089066,49.7366333 C51.5253906,50.0671387 51.4044189,50.9280396 51.5627441,50.9665527 C51.7210693,51.0050659 52.0464478,50.9033203 52.6010742,50.4662476 C53.1557007,50.0291748 55.9732056,48.078186 56.638855,47.3604126 C57.3045044,46.6426392 58.3891602,45.5930786 58.791748,45.2251587 C59.1943359,44.8572388 59.1786499,44.2294922 58.791748,43.9755859 C58.4048462,43.7216797 58.1219118,43.5670166 57.9052247,43.34198 C57.7607666,43.1919556 57.6694946,43.1919556 57.6314087,43.34198 C56.0248979,44.3025114 55.0069982,44.9532176 54.5777096,45.2940985 C54.3056254,45.5101498 54.3619017,45.3830937 54.6315256,45.0848728 L54.6828689,45.0477691 L54.6828689,45.0477691 L54.9090576,44.90271 C55.7095433,44.4299838 57.1980854,43.243085 58.0347912,42.5864536 C58.4419421,42.466326 58.5368097,42.6015598 58.3391724,42.7738037 C57.9976196,43.0714722 58.1494141,43.1967837 59.2231445,43.0757173 C60.296875,42.9546509 60.8514404,43.0472937 60.3284302,43.7191162 C59.8054199,44.3909388 60.4116821,44.2905884 60.7734375,44.1498413 C61.1351929,44.0090942 62.2296143,43.6324463 62.5487061,43.1636353 C62.8677979,42.6948242 63.0361938,42.697876 62.694458,42.3681641 C62.3527222,42.0384521 60.8013916,41.0887611 60.5896606,41.0718464 C60.3779297,41.0549316 59.6258545,41.4530556 59.2231445,41.746761 C59.1474839,41.801942 59.1202789,41.7906229 59.1318513,41.7350895 C59.6895591,41.3002926 60.3047633,40.8433496 60.5305176,40.8729248 Z" id="形状结合" fill="#979797"></path>
                <path d="M63.4678074,42.6406922 L63.4657402,42.6707172 C63.4575882,42.7374573 63.4281616,42.8164978 63.3717041,42.9134521 C63.145874,43.3012695 61.6707764,44.2596436 60.8399658,44.7423096 C60.2647893,45.076463 58.984778,46.1180839 57.9354332,46.9983018 L54.6537248,49.8070512 C54.1180276,50.273582 53.6960812,50.6504364 53.6367696,50.7319336 C53.5012004,50.9182129 51.8374023,51.6348877 51.7325439,51.8119507 C51.6276855,51.9890137 51.5355225,52.0725098 51.3846436,52.0592041 C51.2337646,52.0458984 49.5506592,50.0908203 49.5429687,49.7918701 C49.5352783,49.4929199 49.2210693,49.2427979 49.5429687,48.9541016 C49.5791372,48.9216638 49.6327756,48.8823589 49.700399,48.8374105 C49.6194323,48.960792 49.5945567,49.1391802 49.7515259,49.4533691 C50.057373,50.0655518 51.3177522,51.5195735 51.4089066,51.4796049 L51.5910165,51.3621796 C51.8098257,51.2107918 52.1472691,50.9650007 52.2359009,50.9205322 L52.6151212,50.7320899 C52.9185858,50.5775642 53.3094635,50.3665543 53.4515991,50.2319336 L54.6974947,49.0265626 C55.7780807,47.9983147 57.3093988,46.5945188 58.2746582,45.9577637 L61.8760447,43.5898438 C62.4152832,43.2412109 62.8339233,42.8840332 62.8299561,42.7050171 C62.8261644,42.5339262 63.2290178,42.4229344 63.4678074,42.6406922 Z" id="路径" fill="#262424"></path>
                <path d="M77.6335449,42.9134521 C72.8064779,40.0660566 69.8027344,38.3819787 68.6223145,37.8612184 C66.8516846,37.0800781 64.1638184,36.1373291 63.0783691,35.7658691 C62.3547363,35.5182292 61.7675316,35.4598796 61.3167551,35.5908203 C61.0846471,35.4798088 61.0846471,35.2479136 61.3167551,34.8951349 C61.664917,34.3659668 62.682373,32.7849121 62.8527832,32.5584717 C63.0231934,32.3320312 64.5662842,32.5797119 66.366333,33.3135986 C68.1663818,34.0474854 72.9206543,36.6843262 73.7913818,37.1934814 C74.6621094,37.7026367 75.9713135,38.3044434 76.5871582,38.8259277 C76.9977214,39.173584 77.6290487,39.7500968 78.4811401,40.5554662 L77.6335449,42.9134521 Z" id="路径-978" fill="#363636"></path>
                <path d="M66.366333,33.3135986 C67.2254742,33.6638737 68.7575979,34.4476485 70.2192485,35.2266803 L68.7345108,34.6035329 C66.9437885,33.872337 65.0890695,33.1800282 64.6493038,33.0889282 L64.1814751,33.0010667 C63.6149804,32.9045056 63.0269368,32.8381348 62.9515991,32.9005127 C62.8547363,32.9807129 62.62854,33.3822021 62.6555176,33.7871094 C62.6824951,34.1920166 63.715278,34.234314 63.4678074,34.4795532 C63.2203369,34.7247925 62.6541748,34.2462158 62.4450684,34.3426514 C62.2359619,34.4390869 61.9856567,34.8317737 62.1695557,34.8951349 C62.3534546,34.9584961 63.5787114,35.7622681 63.8130373,35.8150024 C64.0473633,35.8677368 64.7597046,35.1813781 64.824585,35.3016265 C64.8894653,35.421875 64.5950928,35.9539185 64.824585,36.0905151 L64.9775302,36.1661012 C65.3761609,36.346372 66.2325788,36.6712908 65.7709961,36.6018677 C65.4478882,36.5532715 65.0198608,36.4169517 64.6059355,36.2733835 L63.8321533,36.0004272 C63.2617798,35.8046509 61.7028809,35.0888672 61.5359497,35.0231934 C61.3761727,34.9603341 62.6936321,32.8157634 62.9270014,32.5075319 C63.2756419,32.3754891 64.7125381,32.6393402 66.366333,33.3135986 Z" id="路径" fill="#8C8C8C"></path>
                <path d="M29.7900391,52.7485352 C29.5327148,52.7811279 27.8209229,52.9553223 27.286377,53.3475342 C26.6054687,53.3609619 25.5107422,53.5311279 25.3474121,53.9157715 C24.925415,53.918335 23.6020508,54.145752 23.3275146,54.555542 C22.8144531,54.581543 21.7628174,54.4840088 21.2122803,55.1251221 C20.6154785,55.0515137 19.6069336,55.2946777 19.3282471,55.4649658 C18.947998,55.4609375 17.7685547,55.5527344 17.2398682,55.9447021 C16.7037354,55.8999023 15.9243164,55.9244385 15.1228027,56.2888184 C14.3658447,56.253418 13.1437988,56.5443115 12.7728271,57.0413818 C12.4018555,57.5384521 11.0078125,60.5854492 12.9727783,60.5430908 C14.9377441,60.5007324 31.1966553,60.553833 31.7677002,59.9127197 C32.3387451,59.2716064 31.7264404,53.5683594 31.0183105,53.0825195 C30.3101807,52.5966797 30.0473633,52.7159424 29.7900391,52.7485352 Z" id="路径-987" fill="#DFE5E7"></path>
                <path d="M29.7900391,52.7485352 L29.9672289,52.7215581 C30.1861617,52.6928183 30.4675429,52.7046441 31.0183105,53.0825195 C31.1409461,53.1666584 31.2607077,53.4072783 31.3719466,53.7509864 C30.872066,54.6184697 30.0241584,55.1250504 28.8294307,55.2722341 L28.1687491,55.3424559 C26.150452,55.5278 22.8880456,55.5973917 18.3815298,55.5512312 C18.7728573,55.4835191 19.1441836,55.4630159 19.3282471,55.4649658 C19.6069336,55.2946777 20.6154785,55.0515137 21.2122803,55.1251221 C21.7628174,54.4840088 22.8144531,54.581543 23.3275146,54.555542 C23.6020508,54.145752 24.925415,53.918335 25.3474121,53.9157715 C25.5107422,53.5311279 26.6054687,53.3609619 27.286377,53.3475342 C27.8209229,52.9553223 29.5327148,52.7811279 29.7900391,52.7485352 Z" id="路径" fill="#E4E8EA"></path>
                <path d="M28.1060791,55.9799805 C28.3283691,57.5076904 28.9922689,58.8687756 28.7923991,58.9573981 L28.689277,58.9989875 C28.4510648,59.080397 28.0388009,59.0972726 27.7720947,58.0791016 C27.4609375,56.8912354 27.2126872,54.2284949 27.0153402,53.7174579 C26.957668,53.5681137 26.848111,53.4606204 26.7172853,53.3863151 C26.9174435,53.36422 27.1150151,53.3509135 27.286377,53.3475342 C27.4176219,53.2512359 27.6198349,53.1680804 27.8540638,53.0969366 C27.7462123,53.5283306 27.907488,54.6151438 28.1060791,55.9799805 Z M21.508667,56.4036865 L21.5792534,56.7597532 C21.7627274,57.5752263 22.1592771,58.9103143 22.0357345,58.9573981 C22.0008824,58.9706807 21.7494064,59.0106844 21.6461182,58.7587891 C21.322252,57.9689565 21.0119027,56.0277017 20.949707,55.7427979 C20.8703457,55.379262 20.2992377,55.3329568 19.7266045,55.3084418 C20.1533083,55.1809572 20.7872248,55.0726965 21.2122803,55.1251221 C21.2904725,55.0340654 21.378773,54.9579089 21.4742031,54.8941824 C21.3665975,55.3342567 21.4374408,55.9457309 21.508667,56.4036865 Z M23.5066438,55.7693208 C23.5578613,56.4085693 24.2674561,58.3586426 24.2041016,58.6922607 C24.1407471,59.0258789 23.8883057,59.1593018 23.6948242,58.4837646 C23.5013428,57.8082275 22.9508057,55.0142822 22.8804932,54.7617188 C22.8635384,54.7008169 22.8212169,54.6333637 22.759675,54.5697688 L23.3275146,54.555542 L23.3275146,54.555542 C23.393737,54.4566943 23.5209854,54.3684579 23.6818886,54.2914291 C23.5165508,54.5822172 23.4672651,55.2778331 23.5066438,55.7693208 Z M25.6721191,55.3118896 C25.8098895,56.4181661 26.4759521,58.6139669 26.3272705,58.6470947 C26.1785889,58.6802226 25.9611129,59.1163615 25.8274193,58.6444844 L25.7655868,58.3502493 C25.576893,57.3237854 25.151133,54.3283763 24.9108024,54.1480713 C24.7252285,54.0088467 24.4553648,54.0605247 24.202544,54.1067909 C24.642624,53.9822294 25.1227518,53.9171362 25.3474121,53.9157715 C25.3929832,53.8084512 25.5110616,53.7178275 25.6724284,53.6426463 C25.5972535,53.9878929 25.5806124,54.5771036 25.6721191,55.3118896 Z M19.4580186,56.1852827 L19.4926758,56.3531494 C19.53479,56.696836 20.2990485,58.6751709 20.1207157,58.7587891 L20.0193848,58.8089558 C19.9172815,58.852842 19.8562961,58.8170166 19.6759033,58.4025879 C19.4439697,57.869751 19.0310059,55.9783936 18.7202148,55.7427979 C18.616792,55.6643979 18.490578,55.5980154 18.3594766,55.5515448 C18.7598522,55.4842409 19.1409744,55.4629819 19.3282471,55.4649658 L19.3665634,55.4434525 L19.3665634,55.4434525 C19.2835174,55.6202153 19.3947636,55.9389141 19.4580186,56.1852827 L19.4580186,56.1852827 Z M17.6080322,57.3448486 C17.7183295,57.9246434 18.0952148,58.3421631 17.7886963,58.4871826 C17.5057561,58.6210468 17.1506312,57.2883877 17.0568658,56.7455935 L17.0390625,56.6276562 C17.0068734,56.3618302 16.9477575,56.0932934 16.8385351,55.9290761 L16.9958468,55.9305359 L17.2398682,55.9447021 C17.3274931,55.8797371 17.4329942,55.8230178 17.5497702,55.7736138 C17.4515126,56.1450455 17.5193518,56.8786865 17.6080322,57.3448486 Z M15.2891412,56.2178318 C15.0427246,56.397583 15.7779541,57.9504395 15.6293945,58.0791016 C15.480835,58.2077637 15.2237549,58.0914551 15.1085205,57.9223633 C15.0084079,57.7754607 14.8222414,56.8745639 14.7376448,56.2957405 L14.8830789,56.2878669 L15.1228027,56.2888184 L15.2891412,56.2178318 L15.2891412,56.2178318 Z" id="形状" fill="#D7DDDF"></path>
                <path d="M34.3374023,50.5737305 C34.2287191,50.4500326 33.9812012,50.4191081 33.5948486,50.480957 C33.0153198,50.5737305 32.6697388,50.8814087 32.4692993,50.9699097 C32.2688599,51.0584106 31.3251953,51.5119019 30.9532471,51.612793 C30.5812988,51.7136841 30.0356445,52.0234894 29.6206055,52.0290177 C29.2055664,52.0345459 29.0386353,52.553894 29.0656738,52.8241577 C29.0927124,53.0944214 29.713623,55.9192528 29.3457031,56.6276562 C28.9777832,57.3360596 28.1060791,58.0050049 24.1165771,58.0893555 C20.1270752,58.1737061 15.5845947,57.5909424 14.6713867,57.4359131 C13.7581787,57.2808838 12.6515503,56.7373047 12.4365234,56.8070679 C12.2214966,56.8768311 12.2193604,57.3496094 12.1295776,57.4359131 C12.0397949,57.5222168 11.3968506,58.0820312 11.1246338,58.9776611 C10.852417,59.873291 10.7363281,63.1589355 10.7333984,63.5546875 C10.7304688,63.9504395 26.5012207,64.9313965 33.7717285,64.7556152 C41.0422363,64.579834 69.8415527,64.0087891 73.1500244,63.9050293 C76.4584961,63.8012695 83.300415,62.4576416 83.9794312,61.9303589 C84.6584473,61.4030762 83.8603516,55.0051062 83.732666,53.7174579 C83.6049805,52.4298096 82.0635986,47.786286 81.4084473,45.8425293 C80.7532959,43.8987726 79.6326904,41.5446372 79.5968018,40.8715617 C79.5609131,40.1984863 79.6523437,38.644556 80.3455811,37.8612184 C81.0388184,37.0778809 81.515625,36.2685547 81.2969971,36.0479736 C81.0783691,35.8273926 80.0299072,36.3774414 79.2965088,36.9777832 C78.8075765,37.3780111 78.0760498,38.1539714 77.1019287,39.3056641 C77.4718831,39.5776621 77.6785889,39.7813021 77.7220459,39.916584 C77.7872314,40.1195068 77.3776855,42.2385254 77.1019287,42.7390137 C76.8261719,43.239502 73.2338867,48.0259183 72.7696533,48.4458815 C72.3054199,48.8658447 70.0858329,50.8740845 69.6170654,50.9909668 C69.148298,51.1078491 65.8206547,53.3914795 63.8130373,54.3480225 C61.8054199,55.3045654 59.3137207,56.4803467 56.9243164,56.8070679 C54.5349121,57.1337891 45.8349609,58.1582031 43.6252441,58.3615723 C41.4155273,58.5649414 34.7154541,58.9503174 34.0897217,59.2807617 C33.9387207,58.5957031 33.1751429,55.0649921 33.0296631,53.739624 C32.8841833,52.414256 32.6802979,51.5557861 32.8563232,51.2632446 C32.9413015,51.1220169 33.1075465,50.808717 33.5872192,50.6309814 C33.7090384,50.5858432 33.9590994,50.5667595 34.3374023,50.5737305 Z" id="路径-988" fill="#EBEBEB"></path>
                <path d="M79.2965088,36.9777832 C80.0299072,36.3774414 81.0783691,35.8273926 81.2969971,36.0479736 C81.515625,36.2685547 81.0388184,37.0778809 80.3455811,37.8612184 C79.6523438,38.644556 79.5609131,40.1984863 79.5968018,40.8715617 C79.6304474,41.50257 80.6174574,43.6110723 81.2805303,45.4737764 L82.1102573,47.9574792 C82.8108404,50.1070803 83.6404487,52.7874897 83.732666,53.7174579 L83.9908241,56.1636654 C84.2198766,58.4986486 84.4411621,61.5718066 83.9794312,61.9303589 C83.300415,62.4576416 76.4584961,63.8012695 73.1500244,63.9050293 L33.7717285,64.7556152 C26.5012207,64.9313965 10.7304688,63.9504395 10.7333984,63.5546875 L10.7574844,62.7985172 C10.8041306,61.6654892 10.9204712,59.6493835 11.1246338,58.9776611 C11.3968506,58.0820312 12.0397949,57.5222168 12.1295776,57.4359131 C12.2193604,57.3496094 12.2214966,56.8768311 12.4365234,56.8070679 C12.6320024,56.7436468 13.5643422,57.1871202 14.4183496,57.3847516 L14.6713867,57.4359131 C15.3368855,57.5488904 17.929797,57.8890264 20.831509,58.0325934 L22.848317,58.6157304 C25.466493,59.3866899 27.6998596,60.1109967 28.3339673,60.5435282 L29.1059433,61.0523075 C30.6095547,62.0048592 32.3006224,62.8284421 32.9890426,62.14708 L33.0998782,62.0109373 C33.5632676,61.3046762 40.238604,59.4702717 46.2761272,58.0819087 L51.3663315,57.4940534 C53.706847,57.2165309 55.8978651,56.9474223 56.9243164,56.8070679 C59.3137207,56.4803467 61.8054199,55.3045654 63.8130373,54.3480225 C65.7250539,53.4370292 68.8343728,51.3223285 69.5311018,51.0220268 L69.6170654,50.9909668 C70.0858329,50.8740845 72.3054199,48.8658447 72.7696533,48.4458815 C73.2338867,48.0259183 76.8261719,43.239502 77.1019287,42.7390137 C77.3776855,42.2385254 77.7872314,40.1195068 77.7220459,39.916584 C77.6785889,39.7813021 77.4718831,39.5776621 77.1019287,39.3056641 L77.7154029,38.593533 C78.3891928,37.8276548 78.9162281,37.2890715 79.2965088,36.9777832 Z" id="路径" fill="#C3C4CC"></path>
                <path d="M14.4183496,57.3847516 L14.6713867,57.4359131 C15.3368855,57.5488904 17.929797,57.8890264 20.831509,58.0325934 L22.848317,58.6157304 L24.7208215,59.1813726 C26.4832226,59.7306073 27.8583865,60.2191296 28.3339673,60.5435282 L29.1059433,61.0523075 L29.6762601,61.4007815 C31.0166552,62.1872401 32.3866749,62.7432718 32.9890426,62.14708 L33.0998782,62.0109373 C33.3725005,61.5954282 35.9205625,60.778577 39.0985514,59.9026693 C39.4955018,59.7959188 40.3449484,59.5750258 41.6468913,59.2399902 L43.2972819,63.4591471 L33.7717285,64.7556152 C26.5012207,64.9313965 10.7304688,63.9504395 10.7333984,63.5546875 L10.7574844,62.7985172 C10.8041306,61.6654892 10.9204712,59.6493835 11.1246338,58.9776611 C11.3968506,58.0820312 12.0397949,57.5222168 12.1295776,57.4359131 C12.2193604,57.3496094 12.2214966,56.8768311 12.4365234,56.8070679 C12.6320024,56.7436468 13.5643422,57.1871202 14.4183496,57.3847516 Z" id="路径" fill="#CDCED6"></path>
                <path d="M14.4183496,57.3847516 L14.6713867,57.4359131 C15.3368855,57.5488904 17.929797,57.8890264 20.831509,58.0325934 L22.848317,58.6157304 L24.7208215,59.1813726 L25.9620099,59.5802993 C27.1145806,59.9646107 27.9772817,60.3002292 28.3339673,60.5435282 L29.1059433,61.0523075 L29.6762601,61.4007815 C31.0166552,62.1872401 32.3866749,62.7432718 32.9890426,62.14708 L33.0998782,62.0109373 C33.3552384,61.6217377 35.4970339,60.8899451 38.378969,60.0789967 C38.3883696,60.1305554 38.3679517,60.1778169 38.3183594,60.2207031 L37.7646879,60.678823 C36.2772476,61.868725 33.5555454,63.7897856 32.4245062,64.0158758 C31.1318901,64.2742647 28.7229818,61.6214193 26.8860677,60.7887029 C25.0491536,59.9559866 20.5039062,59.561849 18.3681641,59.4896252 C16.5180504,59.4270605 14.6795954,58.4165392 13.2736443,57.0299464 C13.618923,57.1518998 14.0268666,57.294156 14.4183496,57.3847516 Z" id="路径" fill="#DCDCE2"></path>
                <path d="M76.880885,43.079179 C76.0600204,47.1502754 74.6277202,50.4344293 72.5839844,52.9316406 C69.0380859,57.2643229 64.148062,59.6662191 57.1246745,59.4794922 C52.3822206,59.3534072 47.2213257,58.9609458 44.1922517,58.5727198 C44.8890181,58.4047857 45.5867306,58.2404394 46.2761272,58.0819087 L52.9503295,57.3047456 C54.6560678,57.0991837 56.1347385,56.9150328 56.9243164,56.8070679 C59.3137207,56.4803467 61.8054199,55.3045654 63.8130373,54.3480225 C65.7250539,53.4370292 68.8343728,51.3223285 69.5311018,51.0220268 L69.6170654,50.9909668 C70.0858329,50.8740845 72.3054199,48.8658447 72.7696533,48.4458815 C73.1104428,48.1375904 75.1369065,45.4762636 76.299608,43.8847301 L76.880885,43.079179 Z" id="路径" fill="#B8B9C2"></path>
                <path d="M81.3264285,45.6041228 L82.1102573,47.9574792 L82.6818193,49.7471399 C83.2008614,51.4121562 83.66504,53.0354812 83.732666,53.7174579 L83.9908241,56.1636654 L84.0960837,57.3113282 C84.2727281,59.4014424 84.3682572,61.6284202 83.9794312,61.9303589 C83.300415,62.4576416 76.4584961,63.8012695 73.1500244,63.9050293 L68.031568,64.0158758 C68.8509688,62.953928 72.7396254,60.605979 73.4184322,59.6993408 C74.3225414,58.4917806 73.9664068,54.9716821 74.499349,54.3785807 L75.8081806,52.9300255 C76.9146365,51.6877101 78.4530904,49.9017094 79.540488,48.3680977 L79.766276,48.0436198 C80.4562538,47.0318153 80.9749045,46.2222766 81.3264285,45.6041228 Z" id="路径" fill="#B5BBC4"></path>
                <path d="M83.732666,53.7174579 L83.9908241,56.1636654 L84.0960837,57.3113282 L84.154404,58.051341 C84.2885017,59.898793 84.322513,61.6639424 83.9794312,61.9303589 C83.7336393,62.1212259 82.6803149,62.4190596 81.2793653,62.7263318 C81.9578417,61.2574413 82.4500946,60.0000587 82.7561849,58.9544271 C83.0556371,57.9314715 83.135897,55.2068056 82.9969646,50.7804293 L83.2373242,51.6014833 C83.4996441,52.5231688 83.6910916,53.2982001 83.732666,53.7174579 Z" id="路径" fill="#9FA5B0"></path>
                <path d="M79.2965088,36.9777832 C80.0299072,36.3774414 81.0783691,35.8273926 81.2969971,36.0479736 C81.3462558,36.0976725 81.3602116,36.1772583 81.3443429,36.2797002 C81.1575454,36.2768047 81.0034745,36.3004955 80.8805339,36.3534342 C80.5773926,36.4839681 79.4722493,37.6731771 79.0268555,38.2725275 C78.5814616,38.8718779 78.211263,40.2263997 78.0987956,41.0009541 L78.0068693,41.6409876 C77.9269287,42.1147111 77.6182373,42.5372233 77.1697998,43.3249512 C76.5291748,44.4502767 73.9916992,47.9106445 71.9931541,49.6693325 L71.3555338,50.2180507 C69.5233477,51.7566837 66.6183787,53.4045873 62.673584,55.3227539 C58.5402513,57.3325976 55.5456405,57.4176139 51.6738281,57.7432861 L50.8992825,57.8058388 C47.7420623,58.0517088 42.5904388,58.5617085 39.9496817,58.6444844 L43.0087446,58.4141963 L44.3054787,58.2945038 C47.2411296,57.9923125 54.7340291,57.1065623 56.9243164,56.8070679 C59.3137207,56.4803467 61.8054199,55.3045654 63.8130373,54.3480225 C65.7250539,53.4370292 69.0970459,51.2515869 69.6170654,50.9909668 C70.137085,50.7303467 72.3054199,48.8658447 72.7696533,48.4458815 C73.2338867,48.0259183 76.8261719,43.239502 77.1019287,42.7390137 C77.2280144,42.5101729 77.3820706,41.9429558 77.5059279,41.3752422 C77.7646821,40.6844566 77.9934474,39.5361576 78.1180827,39.071696 C78.225592,38.6710554 77.7842094,39.1109862 77.3628495,39.5118691 C77.2903463,39.4479822 77.2021247,39.3793302 77.1019287,39.3056641 L77.7154029,38.593533 C78.3891928,37.8276548 78.9162281,37.2890715 79.2965088,36.9777832 Z" id="路径" fill="#FAFAFA"></path>
                <path d="M56.2343144,57.9645891 L56.2987101,58.0247147 L56.4286241,58.1757433 C56.7734433,58.59767 57.5339676,59.6403766 58.7882428,61.4060979 L60.69,64.1 L64.5942214,64.1005486 L60.0238366,64.1971585 L60.0238366,64.1971585 L57.0322878,59.9838164 L56.1163372,58.7330007 C55.9892359,58.5652377 55.9145289,58.4728147 55.8950801,58.4594831 L51.4556622,58.7758151 L46.37,59.18 L46.4816052,59.5109748 L46.7490148,60.2435116 L47.1318496,61.2431521 L48.0219917,63.4902898 L48.0219917,63.4902898 L48.4046204,64.4397144 L43.2169239,64.548552 L43.2169239,64.548552 L42.6725564,62.8112913 L41.4781871,59.1757992 L41.4781871,59.1757992 L41.3487115,59.1768362 L40.2295353,59.2554153 C38.4078675,59.3979174 35.1452362,59.6860036 34.27314,59.7804344 C34.0481996,59.804791 33.7991927,59.804791 33.5256962,59.7810542 C33.3606313,59.7667282 33.2384333,59.6213031 33.2527593,59.4562382 C33.2670853,59.2911733 33.4125103,59.1689753 33.5775752,59.1833013 C33.735305,59.1969906 33.881422,59.2015538 34.0158007,59.1971743 L34.0696179,59.1914674 L34.0897217,59.2807617 C34.1784913,59.2338832 34.3895112,59.1858992 34.6926179,59.1374861 L39.8628978,58.6828117 C41.0123489,58.5935092 41.5732023,58.5700177 41.6914317,58.6149723 C41.9236375,58.7032645 42.281198,59.6039471 43.0384346,61.9676176 L43.802,64.404 L47.742,64.404 L46.5719333,61.4587829 L46.1872767,60.4543442 C46.0405653,60.0634492 45.927546,59.7500892 45.8479334,59.513248 L45.72966,59.1281483 L45.7105477,59.0454963 C45.6570864,58.7781636 45.6538825,58.6377353 45.9337566,58.6082081 L54.0462328,57.9789986 L55.179331,57.9127132 C55.8499261,57.8839942 56.1432048,57.9021364 56.2343144,57.9645891 Z M70.6410204,51.5730043 L70.8974621,51.7410921 L71.423729,52.0501543 C71.8593098,52.2992262 72.4638042,52.634015 73.2338595,53.0524538 L74.8598309,53.9286192 L75.0013213,54.2924998 C74.8423425,54.7452911 74.4189829,55.2416892 73.7336932,55.8024828 C72.7219888,56.6303914 71.4986695,56.1270892 71.2149542,55.1491389 L71.1813114,55.0230289 C71.1547072,54.915842 71.0514642,54.4379881 71.0240472,54.3231542 C70.879572,53.718033 70.7362018,53.4733899 70.6511518,53.4987101 C70.0924274,53.6650479 69.681029,57.2210961 70.4872091,58.8225013 C71.3084656,60.4538545 72.5215945,60.5076467 74.1604967,59.2445584 C75.0524699,58.5571221 75.9282306,57.475749 76.7830935,55.9998259 L77.1026784,55.4278591 L77.5287558,55.3178493 L77.7381899,55.4330419 L78.0950563,55.5956724 C78.5871231,55.806393 79.3432665,56.0900382 80.3534843,56.4411116 C81.5705583,56.8640721 82.8405609,57.4477749 84.1638032,58.1919745 L84.2092868,58.9135768 L84.2092868,58.9135768 C82.7916932,58.0875477 81.4411913,57.4543133 80.1565255,57.007863 L79.3409161,56.719357 L78.6508094,56.4641605 C78.2322781,56.3049709 77.896532,56.1675025 77.6418047,56.0507844 L77.482,55.974 L77.3317706,56.2494952 C76.5313404,57.6404901 75.7049161,58.7092017 74.8490821,59.455183 L74.5267592,59.7197971 C72.6223927,61.1874764 70.9691405,61.1141685 69.951288,59.0922949 C69.0012743,57.2051771 69.4615262,53.2268485 70.4799517,52.9236532 C71.0441153,52.755696 71.3288155,53.1472815 71.5490246,53.9537072 L71.7911944,54.9819646 C71.9622109,55.5714488 72.6984549,55.8743569 73.3537091,55.3381422 C73.7876493,54.9830357 74.0951429,54.6664066 74.2770828,54.3958309 L74.322,54.32 L71.7209464,52.9066085 L70.961961,52.4769205 C70.8242032,52.397053 70.7070316,52.327588 70.6104109,52.2685056 L70.3210294,52.0780174 L70.0131638,52.2490445 L69.6235675,52.489867 L67.7701818,53.678207 C67.4955161,53.8521838 67.2377591,54.0140792 67.0340703,54.1395714 C66.3825187,54.540991 65.6191478,54.9505421 64.7643254,55.3646929 C63.8110101,55.8265622 62.796099,56.269812 61.7493389,56.6944148 L60.51,57.182 L60.6194995,57.3506661 L61.0313575,57.9303281 L61.6370739,58.7350679 L62.8499539,60.2889056 C63.0853414,60.5863738 63.3373467,60.903086 63.605966,61.239037 L65.8984,64.0726246 L65.1348343,64.0889997 L65.1348343,64.0889997 L62.9651249,61.3981246 C62.7179673,61.0883851 62.4855665,60.7957283 62.2679192,60.5201498 L61.1607777,59.0999541 C60.7649666,58.5832908 60.4588318,58.1703617 60.2416541,57.8600061 L60.1220166,57.6860923 C60.0086879,57.5180104 59.9282849,57.3874803 59.8789542,57.289975 C59.7621774,57.0591581 59.7199214,56.9099263 59.8929685,56.79401 L59.9980857,56.7386046 C59.9783243,56.7470385 60.9534172,56.3697855 61.5238061,56.1384157 C62.5592768,55.7183924 63.5626098,55.280199 64.5027191,54.8247279 C65.34065,54.4187609 66.0868194,54.0184384 66.7193476,53.6287391 L67.7920375,52.9562468 L69.3702466,51.9377097 C70.0575049,51.5039969 70.3114481,51.3965044 70.6410204,51.5730043 Z M81.334718,36.3294674 C81.2718506,36.6038421 81.0268682,37.0149932 80.6861368,37.4520819 C80.3280199,37.703573 80.1031126,37.8983699 80.0148841,38.029069 L79.7798849,38.4009862 L79.4533047,38.9688204 C79.284558,39.2760229 79.1543684,39.5378731 79.1497996,39.5964489 L79.2411111,39.8191121 L79.5891297,40.5714997 L79.5891297,40.5714997 L79.5968018,40.8715617 C79.6304474,41.50257 80.6174574,43.6110723 81.2805303,45.4737764 L81.3376179,45.6374674 L78.05,43.732 L77.8574921,44.0785864 C77.4973413,44.6938115 77.0920963,45.3067789 76.6418084,45.9175076 L76.1765081,46.5274906 L75.8604081,46.916782 L74.8126386,48.1380357 C74.3613064,48.653585 73.9968221,49.0622162 73.990082,49.0814833 C74.0155938,49.0085562 77.593721,51.1643081 77.5871448,51.1661104 C77.7427426,51.123465 80.0370024,48.7507736 80.3598453,48.0899817 C80.6107293,47.5764745 80.8946225,47.2332564 81.191353,47.145523 C81.6459062,47.0111267 81.8965005,47.3891513 81.9256194,47.9853655 C81.9604224,48.6979609 80.9096847,51.0532026 80.2765647,52.0509017 L80.15,52.236 L80.2820041,52.3182951 C80.4763517,52.4321031 80.742166,52.5704181 81.0893497,52.7402699 L82.965938,53.6338781 L83.154007,53.7338815 L83.154007,53.7338815 C83.3153081,53.8261854 83.5243484,53.9824603 83.78279,54.2037549 L83.8816543,55.1006329 L83.8816543,55.1006329 C83.4847599,54.7279258 83.1784494,54.4682774 82.9649449,54.3233105 L82.8560028,54.2546439 L82.4182306,54.0337275 L81.1059796,53.4148206 L80.3444707,53.0369149 L79.9788102,52.8360532 L79.9788102,52.8360532 C79.8160078,52.7407178 79.6958428,52.6594609 79.6142041,52.5855585 C79.4228555,52.4123429 79.3292527,52.178076 79.5905922,51.9893373 C79.8926128,51.7712188 81.3587516,48.6783956 81.3263337,48.0146345 L81.3213294,47.7548029 L81.3213294,47.7548029 L81.33,47.736 L81.3096243,47.750761 C81.2301749,47.8127969 81.1123243,47.9620603 80.9905098,48.1786315 L80.8989438,48.3533688 C80.5076066,49.1543544 78.0955146,51.6489061 77.745741,51.7447703 C77.3570202,51.8513089 73.2508918,49.3774466 73.4237364,48.8833604 C73.4842957,48.710248 75.0910684,46.9351638 75.7053278,46.1560218 C76.3287155,45.3653013 76.8732428,44.5721433 77.3390313,43.7765927 L77.673611,43.1794818 L78.088559,43.0614969 L80.918,44.7 L79.8959651,42.6092785 C78.9911339,40.7393258 78.5848111,39.8283199 78.5532835,39.5860695 L78.5516164,39.5497913 C78.5728712,39.2772905 79.129433,38.2683669 79.5175866,37.6933679 C79.7326904,37.3747197 80.3091475,36.9424745 81.2773538,36.3549645 L81.334718,36.3294674 Z" id="形状" fill="#9898A0"></path>
                <path d="M32.6670998,51.5410339 L32.9752436,54.0436574 L33.4209523,56.8331138 C33.4992857,57.3244951 33.5632933,57.743832 33.6171863,58.1241427 L33.7897054,59.360263 C33.9022671,60.1312447 34.0563481,61.1266194 34.2519138,62.3461146 L34.627801,64.6561736 L34.071351,64.7476022 L34.035351,64.7476022 L33.363757,60.5629771 L32.9661456,57.81688 L32.3411487,53.8342772 L32.1747448,52.4364847 L32.116,51.988 L31.6669147,52.1171266 L31.1999604,52.2698008 L30.1234286,52.6653637 C30.0694766,52.6825367 30.0401628,52.6883469 30.0447097,52.6780752 L30.0525002,52.7332832 L30.1268032,54.5511862 L30.1321839,54.7938546 C30.1523255,55.9135137 30.0990631,56.6482922 29.9144406,57.0200374 C29.3970175,58.0618906 28.345023,58.5793986 26.1130556,58.7132801 C22.4244182,58.934538 19.0269056,58.8965138 16.0641669,58.4161277 L15.0883542,58.2480207 C13.7325716,57.9989657 12.7374355,57.7431682 12.091351,57.4731192 L12.1295776,57.4359131 C12.198139,57.3700084 12.2155901,57.0787348 12.3157624,56.9136577 C13.0329069,57.2189526 14.3217329,57.525769 16.1601983,57.8238626 C19.0694979,58.2955839 22.4290281,58.3331831 26.07713,58.1143566 C28.1154221,57.9920924 28.97072,57.5713455 29.3770634,56.7531559 C29.4999377,56.5057433 29.5503672,55.8100467 29.5322809,54.8046463 L29.4497181,52.5380093 C29.4510382,52.439021 29.4643698,52.482355 29.4861972,52.4529088 C29.5780611,52.2499673 29.9829,52.0631533 30.7153124,51.8032672 L31.0053313,51.7022451 C31.2598869,51.6149516 31.5045147,51.5370709 31.7120901,51.4774174 L31.9063099,51.424166 C32.0408683,51.389361 32.1498227,51.3662126 32.233236,51.3558833 C32.4735145,51.326129 32.6227754,51.3372437 32.6670998,51.5410339 Z" id="路径" fill="#B3B3BC"></path>
                <path d="M32.6670998,51.5410339 L32.9752436,54.0436574 L33.5300931,57.532502 C33.5466093,57.6411703 33.5623348,57.7462543 33.5773394,57.8483001 L32.9948342,58.0274817 L32.9948342,58.0274817 L32.9661456,57.81688 L32.3411487,53.8342772 L32.1747448,52.4364847 L32.116,51.988 L31.6669147,52.1171266 L31.1999604,52.2698008 L30.1234286,52.6653637 C30.0694766,52.6825367 30.0401628,52.6883469 30.0447097,52.6780752 L30.0525002,52.7332832 L30.1268032,54.5511862 L30.1321839,54.7938546 C30.1523255,55.9135137 30.0990631,56.6482922 29.9144406,57.0200374 C29.3970175,58.0618906 28.345023,58.5793986 26.1130556,58.7132801 L25.4273851,58.7495799 C24.3080346,58.6263519 23.0497759,58.4539702 21.7991434,58.2426284 C23.171048,58.2494954 24.6004481,58.2029334 26.07713,58.1143566 C28.1154221,57.9920924 28.97072,57.5713455 29.3770634,56.7531559 C29.4999377,56.5057433 29.5503672,55.8100467 29.5322809,54.8046463 L29.4497181,52.5380093 C29.4510382,52.439021 29.4643698,52.482355 29.4861972,52.4529088 C29.5780611,52.2499673 29.9829,52.0631533 30.7153124,51.8032672 L31.0053313,51.7022451 C31.2598869,51.6149516 31.5045147,51.5370709 31.7120901,51.4774174 L31.9063099,51.424166 C32.0408683,51.389361 32.1498227,51.3662126 32.233236,51.3558833 C32.4735145,51.326129 32.6227754,51.3372437 32.6670998,51.5410339 Z" id="路径" fill="#CBCBCC"></path>
                <path d="M10.9134521,60.3639526 C10.7266235,60.3881226 10,60.5175476 10,62 C10,63.4824524 9.95861816,64.1367187 10.4567261,64.1479492 C10.954834,64.1591797 72.5997314,64.4222412 74.3276367,64.5712891 C76.055542,64.7203369 82.6212158,66.2561035 83.3405762,66.5848389 C84.0599365,66.9135742 85.6087646,68.2103882 85.7398071,68.1536865 C85.8708496,68.0969849 85.5501099,66.1130981 85.2133789,65.298645 C84.8766479,64.4841919 84.5082397,63.6776733 84.4636841,63.2073975 C84.4191284,62.7371216 84.7827148,61.4684448 84.7492676,61.2458496 C84.7158203,61.0232544 84.4758911,60.7344971 84.3388062,60.7435303 C84.2017212,60.7525635 84.1338501,61.3967896 81.9016724,61.8418579 C79.6694946,62.2869263 72.1533203,63.0467529 71.6973267,63.0680542 C71.241333,63.0893555 71.3482056,63.4935913 71.4989014,63.7440796 C71.6495972,63.9945679 33.1826782,63.8187256 32.7908936,63.7440796 C32.3991089,63.6694336 29.336792,62.1123657 28.2449951,61.6186523 C27.1531982,61.124939 26.6343994,60.7701416 26.2547607,60.7435303 C25.8751221,60.7169189 21.1782227,60.6766968 19.7678223,60.6635132 C18.3574219,60.6503296 15.328064,60.5909017 13.9821167,60.5435282 C12.6361694,60.4961548 11.1002808,60.3397827 10.9134521,60.3639526 Z" id="路径-989" fill="#141416"></path>
                <path d="M10.7227783,62.4603271 C11.0739136,62.2472738 15.3289601,62.3191005 17.8844347,62.5277154 L21.3505563,62.8712665 C22.0532786,62.945983 22.6830343,63.0208232 23.0339355,63.0849609 C23.8760986,63.2388916 28.7862933,63.1744962 30.3355713,63.4659424 C31.2388048,63.6358563 31.3125417,64.031272 31.107575,64.251185 L10.4567261,64.1479492 C10.1297868,64.140578 10.0352659,63.8561794 10.0089113,63.242399 C10.3306314,62.8128527 10.567567,62.5545025 10.7227783,62.4603271 Z M25.4330071,60.7873775 L24.9108024,60.7164348 L26.2547607,60.7435303 C26.5584717,60.7648193 26.9512451,60.9961475 27.6552061,61.3406084 L28.8612259,61.9076338 C29.700935,62.309616 30.8973248,62.9023109 31.7571322,63.3054398 L31.2035825,63.2508364 C31.1190431,63.2414058 31.0600189,63.233711 31.0262451,63.227619 C30.6629639,63.1620923 27.0613608,61.4429144 26.343968,61.0646382 L26.244751,61.0101562 C26.0973511,60.9220722 25.8282835,60.8507603 25.4330071,60.7873775 Z M84.6841163,61.0601605 C84.7166441,61.1221511 84.7403291,61.186363 84.7492676,61.2458496 C84.7774337,61.4332982 84.477533,62.4825494 84.4234212,63.0521647 L75.3389486,63.2691243 C76.541748,63.200793 80.712972,63.0345866 81.5855306,62.942627 C82.8943685,62.8046875 83.9870199,62.4552409 84.2505697,62.0704753 C84.3559896,61.916569 84.5917871,61.6988965 84.6449414,61.3841591 L84.6841163,61.0601605 Z" id="形状" fill="#646266"></path>
                <path d="M11.329834,62.6070557 C10.5412598,62.7456055 9.99859987,63.0098267 9.99859987,63.7702637 C9.99859987,64.5307007 10.048645,64.9944458 10.1317139,65.2415771 C10.2147827,65.4887085 12.4810791,67.2263852 14.3518066,68.15549 C16.2225342,69.0845947 17.0649414,69.5423584 17.2386475,69.5340576 C17.4123535,69.5257568 18.078125,69.3529053 18.670166,69.8664551 C19.262207,70.3800049 23.3111572,71.0921631 23.791626,71.1552734 C24.2720947,71.2183838 25.5791016,71.6096191 26.3023682,71.7458496 C27.0256348,71.8820801 29.0881348,72 30,72 C30.9118652,72 47.0298463,72 47.7268066,72 C48.4237669,72 50.8179932,70.9567871 51.9440918,70.9820557 C53.0701904,71.0073242 55.3922119,72 56,72 C56.6077881,72 78.1169434,72 79.4570313,72 C80.7971191,72 83.1784668,71.5473633 83.9755859,71.1552734 C84.7727051,70.7631836 86,69.8251953 86,69.0949707 C86,68.3647461 85.6799316,67.6156006 84.6812744,66.9785156 C84.0155029,66.5537923 83.5957845,66.4487508 83.4221191,66.6633911 C83.445516,66.4696655 83.2548014,66.2938029 82.8499756,66.1358032 C82.2427368,65.8988037 80.2843018,65.3280014 77.7848511,64.8100586 C75.2854004,64.2921158 72.2261963,64 71.9752197,63.9453125 C71.7242432,63.890625 71.6599121,63.2124634 71.4257813,63.1807251 C71.1916504,63.1489868 58.6361084,63.1507568 54.9333496,63.1807251 C51.2305908,63.2106934 34.3846436,63.4691162 33.357666,63.5063477 C32.3306885,63.5435791 23.166748,63.6005859 22.079834,63.387207 C20.9929199,63.1738281 18.1224365,62.9742432 16.4935303,62.8790283 C14.864624,62.7838135 12.1184082,62.4685059 11.329834,62.6070557 Z" id="路径-990" fill="#D3D1D6"></path>
                <path d="M11.329834,62.6070557 C12.0658366,62.4777425 14.5071625,62.7437896 16.1537627,62.8572505 L18.2616489,62.993924 C19.557987,63.0867654 20.9720103,63.2085775 21.7987236,63.3382518 L22.079834,63.387207 C23.0969534,63.5868841 30.9023558,63.5705215 32.7787272,63.5344238 L31.0980225,64.9088135 C30.3915884,65.4590443 29.9708375,65.9298696 29.4513799,66.3141148 C28.9836471,66.660099 28.5916363,66.9388113 28.2752127,67.1502799 L27.4736668,67.6791862 C26.1388799,68.5853492 24.7975791,69.6604812 24.6303347,70.2905828 L24.6131185,70.4278114 C24.6218752,70.6677413 24.3562903,70.9369264 23.9298059,71.179537 L22.9513,71.0139668 C21.5971549,70.7680254 19.1229033,70.2591696 18.670166,69.8664551 C18.078125,69.3529053 17.4123535,69.5257568 17.2386475,69.5340576 C17.0649414,69.5423584 16.2225342,69.0845947 14.3518066,68.15549 C12.4810791,67.2263852 10.2147827,65.4887085 10.1317139,65.2415771 C10.048645,64.9944458 9.99859987,64.5307007 9.99859987,63.7702637 C9.99859987,63.0098267 10.5412598,62.7456055 11.329834,62.6070557 Z" id="路径" fill="#CBC9CE"></path>
                <path d="M11.4242194,62.5936242 C12.2493372,62.4991803 14.5334701,62.7441209 16.114242,62.8545088 L18.2616489,62.993924 C19.557987,63.0867654 20.9720103,63.2085775 21.7987236,63.3382518 L22.079834,63.387207 C23.1279297,63.5929653 31.6864236,63.5473061 33.217235,63.5103992 L55.5202518,63.1766363 C59.8039346,63.1506642 71.2027995,63.1504982 71.4257813,63.1807251 C71.6599121,63.2124634 71.7242432,63.890625 71.9752197,63.9453125 L74.0368576,64.2039648 C75.145462,64.3485725 76.5351257,64.5510872 77.7848511,64.8100586 C79.8517045,65.2383575 81.5486105,65.7028017 82.4174512,65.9847527 L82.8701792,66.1869904 C83.0699271,66.2803527 83.2280521,66.3616026 83.3369099,66.4285916 C83.4037065,66.5029851 83.4319978,66.5815959 83.4221191,66.6633911 C83.4459028,66.6339959 83.4743013,66.6105966 83.5073146,66.593193 C83.5309787,67.0733137 83.3417987,66.7080373 83.2219061,66.5114746 C83.1081486,66.3249703 81.4566643,65.9171569 79.3380082,65.4599592 L78.288454,65.2412031 C75.8811894,64.7644506 72.1301927,64.1703316 71.8197428,64.0683594 C71.4797264,63.9566755 71.3045247,63.4964193 71.2583822,63.2994792 C71.238387,63.2141385 70.8767392,63.1862175 69.9932443,63.1891458 L62.1190582,63.3235747 C59.3148664,63.3834655 56.9925598,63.4902067 55.2659312,63.5834705 L52.2313639,63.7547201 C51.743384,63.7756019 48.7598553,63.7793671 45.2414176,63.7764932 L30.3561065,63.7462978 C27.5962651,63.7251404 22.7733365,63.6654824 22.0817871,63.5491536 L21.6831702,63.4909873 C21.3771348,63.4511442 20.9920155,63.4089964 20.536798,63.3635028 L12.4232582,62.6266257 C12.0733742,62.6012753 11.8298015,62.5906328 11.6236009,62.5915274 L11.4242194,62.5936242 Z" id="路径" fill="#F3F3F3"></path>
                <path d="M29.9268799,66.0372314 L32.7908936,63.7440796 C45.4900309,63.7345581 52.1249186,63.7165934 52.6955566,63.6901855 C53.5515137,63.6505737 55.6906738,63.3830566 58.5291748,63.4429932 C61.3676758,63.5029297 71.0776367,63.2580566 71.1700439,63.4429932 C71.2624512,63.6279297 71.5848389,64.0516357 72.0793457,64.1273193 C72.5738525,64.2030029 78.7272949,65.2404785 79.9342041,65.5322266 C80.7388102,65.7267253 81.3684896,65.8950602 81.8232422,66.0372314 L29.9268799,66.0372314 Z" id="路径-991" fill="#CCCDD4"></path>
                <path d="M71.1700439,63.4429932 C71.2624512,63.6279297 71.5848389,64.0516357 72.0793457,64.1273193 L76.1784715,64.8255124 C77.6423658,65.0824432 79.0913828,65.3457778 79.7583444,65.4919976 L79.9342041,65.5322266 C80.7388102,65.7267253 81.3684896,65.8950602 81.8232422,66.0372314 L29.9268799,66.0372314 L32.7908936,63.7440796 L35.0949559,63.7422006 L35.0949559,63.7422006 C36.0010266,64.3873446 37.4273067,65.120409 39.1756358,65.2259115 C42.1840264,65.4074519 49.1834406,64.9891745 51.1923649,65.19779 L52.0843569,65.3140244 C55.0223668,65.6474717 64.2585227,66.3036518 62.7845052,65.0432943 C61.3598272,63.8251245 56.1421052,64.4381798 52.7126664,63.68842 L54.5099919,63.5535192 C55.4407876,63.4874336 56.6309301,63.4248659 58.005298,63.4354564 L59.4297081,63.4522441 C63.0063212,63.4630631 71.0857903,63.2743746 71.1700439,63.4429932 Z" id="路径" fill="#C7C6CB"></path>
                <path d="M27.6546631,67.6021729 L29.434082,66.4619113 C29.7454427,66.3033845 30.1202799,66.2266032 30.5585938,66.2315674 C31.2160645,66.2390137 44.5165809,66.2715251 49.155599,66.2594401 C53.794617,66.2473551 65.7008057,66.1982422 68.0194092,66.2315674 C70.3380127,66.2648926 81.4881592,65.9287109 81.8232422,66.0372314 C82.1583252,66.145752 83.3383789,66.2944336 83.3407054,66.5848389 C83.3427734,66.8752441 83.2111206,67.4266357 83.065979,67.4074707 C82.9208374,67.3883057 81.7672729,67.4831543 79.1904907,67.5166016 C76.6137085,67.5500488 63.7438965,67.8022461 62.7681885,67.8087158 C61.7924805,67.8151855 54.585083,68.020752 52.359375,67.9730225 C50.133667,67.925293 42.8676699,67.5863037 38.9318208,67.6021729 C36.3079214,67.6127523 32.5488688,67.6127523 27.6546631,67.6021729 Z" id="路径-992" fill="#C8C6CC"></path>
                <path d="M81.8232422,66.0372314 C82.1583252,66.145752 83.3383789,66.2944336 83.3407294,66.5848389 C83.3427734,66.8752441 83.2111206,67.4266357 83.065979,67.4074707 L82.6656579,67.4156857 C82.1646963,67.4368623 81.1904441,67.4841737 79.6305275,67.5100974 L75.0280068,67.5871125 L75.0280068,67.5871125 L73.2392338,67.3296015 C71.6854318,67.115902 70.0306416,66.9104292 68.7016602,66.758138 C65.676473,66.4114746 62.933485,66.8954257 62.1705011,67.3473326 L62.0667318,67.4182943 C61.9397906,67.5212917 61.6613858,67.6666104 61.2799036,67.8364273 L56.739765,67.9369952 L56.739765,67.9369952 C57.9235036,67.3349788 59.1012047,66.6360577 59.989665,66.2251414 L68.7979037,66.2325052 C72.1700088,66.2105286 81.5168806,65.9380127 81.8232422,66.0372314 Z M30.5585937,66.2315674 L41.2942882,66.2577351 L41.2942882,66.2577351 L42.4618923,66.3286665 C43.9477763,66.4330255 45.0894431,66.5724305 45.5742187,66.758138 L47.2088672,67.3854585 C47.6065152,67.5360501 48.021863,67.6906053 48.4444536,67.8421355 L44.87505,67.7174851 C43.0274511,67.6586329 41.1664218,67.6111702 39.6560813,67.6029083 L27.6546631,67.6021729 L27.6546631,67.6021729 L29.434082,66.4619113 C29.7454427,66.3033845 30.1202799,66.2266032 30.5585937,66.2315674 Z" id="形状" fill="#B5B2B9"></path>
                <path d="M30.2398687,67.5360828 L30.1286631,67.6013413 L27.6546631,67.6021729 L29.434082,66.4619113 C29.7454427,66.3033845 30.1202799,66.2266032 30.5585937,66.2315674 L38.4077491,66.2514253 L37.24218,66.3390694 C33.1534573,66.6690149 31.0766806,67.0912683 30.2398687,67.5360828 Z" id="路径" fill="#A7A4AC"></path>
                <path d="M81.8232422,66.0372314 C74.1580946,66.38413 69.2697483,66.5496438 67.1582031,66.5337728 L66.0334502,66.5150906 C63.8179035,66.4571766 61.5527344,66.494873 59.9339095,66.2295497 L68.7979037,66.2325052 C72.1700088,66.2105286 81.5168806,65.9380127 81.8232422,66.0372314 Z" id="路径" fill="#9B97A5"></path>
                <path d="M19.7633853,63.5522281 L20.2400716,63.6158854 C22.736609,63.8886435 29.8723692,64.3235621 30.2109375,64.420166 C30.574585,64.5239258 27.4188232,66.5935059 25.8720703,67.6071777 L24.9723653,68.1865838 C23.6484871,69.0224738 22.2995995,69.7917544 21.9697228,69.6865227 L19.8813973,69.0101097 C18.3404965,68.4969191 16.2466227,67.7667932 14.6074219,67.0700866 L13.7615687,66.6967416 C11.6042344,65.7086372 10.2471714,64.8071906 10.0282358,64.6356151 L10.0081594,64.2977582 C10.005677,64.235361 10.0036507,64.169956 10.0021169,64.1015977 C9.99357096,63.4134115 10.0791411,63.1519287 10.5900879,62.9173991 C11.8329264,62.3469238 17.8586877,63.2294742 19.7633853,63.5522281 Z" id="路径" fill="#B1B1B9"></path>
                <path d="M19.9320944,63.8947754 L20.4087807,63.9584327 L20.9834225,64.0121869 C21.2988276,64.0378453 21.6536547,64.0617205 22.0357345,64.0840152 C20.2574993,65.1156582 18.5639823,66.4177157 16.9535062,67.9878768 C16.1412514,67.6909378 15.3301442,67.377264 14.6074219,67.0700866 L13.7615687,66.6967416 C11.6042344,65.7086372 10.2471714,64.8071906 10.0282358,64.6356151 L10.0081594,64.2977582 C10.005677,64.235361 10.0036507,64.169956 10.0021169,64.1015977 C10.0984503,63.7373308 10.4058683,63.3037439 11.2452393,63.2431641 C12.6744385,63.1400146 18.0273968,63.5720215 19.9320944,63.8947754 Z" id="路径" fill="#ABABB2"></path>
                <path d="M17.4635552,63.589973 L17.440843,63.5990995 C15.9001541,64.3118648 14.4677331,65.2458791 13.14358,66.4011424 L12.4152582,66.0392471 C11.0444496,65.3354332 10.1972413,64.7680614 10.0282358,64.6356151 L10.0081594,64.2977582 C10.005677,64.235361 10.0036507,64.169956 10.0021169,64.1015977 C10.0984503,63.7373308 10.4058683,63.3037439 11.2452393,63.2431641 L11.7400785,63.2277518 C13.0072551,63.2222176 15.4584911,63.390459 17.4635552,63.589973 Z" id="路径" fill="#A1A1A9"></path>
                <path d="M16.8598703,69.0195504 L17.7098173,69.2084099 C18.0687623,69.2949348 18.4622285,69.4077452 18.7256392,69.5426722 L18.8962402,69.6479492 C19.319458,69.9758301 22.7067871,70.597168 23.5336914,70.6986084 L23.8000107,70.7024164 C26.2616693,70.6570676 43.6033832,69.4026825 53.1252848,69.6338506 L70.0637599,70.1155563 C76.2837503,70.3118807 81.3002889,70.5332479 81.1358032,70.7942505 C80.8273926,71.2836304 80.9273682,71.4562378 81.9151611,71.2824097 C82.628145,71.1569414 84.3134975,70.6637227 85.4128434,70.1302791 C84.9892991,70.5543141 84.4166037,70.938344 83.9755859,71.1552734 C83.2397837,71.5172025 81.1541062,71.9307218 79.7835712,71.9921986 L79.4570313,72 L56,72 C55.3922119,72 53.0701904,71.0073242 51.9440918,70.9820557 C50.9046161,70.9587308 48.7846057,71.8458281 47.9164229,71.9824426 L47.7268066,72 L30,72 L29.3347236,71.9866465 C28.3167041,71.9520996 26.8809814,71.854834 26.3023682,71.7458496 C25.6695099,71.6266479 24.5897255,71.3122082 24.0077913,71.1931818 L22.6203514,70.9527165 C21.2284624,70.6904272 19.0880773,70.2289608 18.670166,69.8664551 C18.078125,69.3529053 17.4123535,69.5257568 17.2386475,69.5340576 C17.0649414,69.5423584 16.2225342,69.0845947 14.3518066,68.15549 C13.8999115,67.9310543 13.4249342,67.6594371 12.9632242,67.3730454 L16.2966786,68.7980487 C16.5835635,68.9163023 16.7712878,68.9901457 16.8598703,69.0195504 L16.8598703,69.0195504 Z" id="路径" fill="#8C8C93"></path>
                <path d="M26.9650269,67.824707 C26.7409668,67.8898315 25.2830811,68.8956299 25.1650391,69.0396729 C25.0863444,69.1357015 25.0863444,69.24705 25.1650391,69.3737183 C24.9845785,69.3179728 24.8392537,69.3179728 24.7290649,69.3737183 C24.5637817,69.4573364 23.550415,69.9396362 23.5081787,70.2729492 C23.4659424,70.6062622 24.299469,70.9755859 25.5018311,71.2229614 C26.7041931,71.4703369 29.9967041,71.8477783 30.2686768,71.8313599 C30.5406494,71.8149414 30.7034302,71.4807129 30.7141724,71.5303955 C30.7249146,71.5800781 31.2267456,71.8922119 31.5726318,71.9631348 C31.9185181,72.0340576 37.1265869,72 37.3848267,72 C37.6430664,72 38.0228882,71.5308838 38.2027588,71.5303955 C38.3826294,71.5299072 38.7318726,72.0076904 39.0029297,72.0076904 C39.2739868,72.0076904 44.7405396,72.0076904 44.9277344,72.0076904 C45.1149292,72.0076904 45.427124,71.6115112 45.5140381,71.6547852 C45.6009521,71.6980591 45.6957397,72.0076904 45.9411621,72.0076904 C46.1865845,72.0076904 47.3043823,72.0076904 47.6471558,72.0076904 C47.9899292,72.0076904 50.2686768,71.1122437 51.456543,71.0424194 C52.6444092,70.9725952 53.482666,70.9866333 54.1641846,71.2229614 C54.8457031,71.4592896 56.2345581,71.9738159 56.6708984,72 C57.1072388,72.0261841 61.1604614,72 61.3753052,72 C61.5901489,72 61.9772949,71.5030518 62.0148926,71.5975952 C62.0524902,71.6921387 62.1328125,72 62.2689209,72 C62.4050293,72 68.3625488,72 68.6264038,72 C68.8902588,72 69.2305298,71.6708374 69.2804565,71.6547852 C69.3303833,71.6387329 69.4660034,72.0183716 69.6085205,72.0183716 C69.7510376,72.0183716 74.8961182,72.0183716 75.1206055,72.0183716 C75.3450928,72.0183716 75.5029297,71.6575317 75.5606689,71.6547852 C75.6184082,71.6520386 75.7265015,72 75.8985596,72 C76.0706177,72 77.5700684,72 78.1572266,72 C78.7443848,72 79.8934937,71.9213867 80.6487427,71.5549316 C81.4039917,71.1884766 81.6759644,70.7446899 81.7043457,70.4840088 C81.7327271,70.2233276 82.1983643,70.2252808 82.3865356,70.1619873 C82.574707,70.0986938 83.1063232,69.3917847 83.1523438,68.6483154 C83.1983643,67.9048462 83.2953491,67.5661621 83.1523438,67.5383911 C83.0093384,67.5106201 79.6351318,67.7409668 75.9992065,67.824707 C72.3632812,67.9084473 64.8969116,67.9563817 64.1522827,67.9725952 C63.4076538,67.9888088 59.5438843,67.9978856 57.963501,67.9978856 C56.3831177,67.9978856 53.3741455,68.2199707 52.0161133,68.2199707 C50.6580811,68.2199707 47.8117065,68.043335 46.0290527,67.9725952 C44.2463989,67.9018555 38.8579712,67.8413086 36.9594116,67.8413086 C35.0608521,67.8413086 27.2906494,67.7841797 26.9650269,67.824707 Z" id="路径-993" fill="#390A0F"></path>
                <path d="M27.0808105,67.9978856 C26.7290039,68.1101074 25.3973389,69.0177002 25.4805908,69.2409668 C25.5638428,69.4642334 27.9279785,69.6067624 32.4383545,69.6962035 C36.9487305,69.7856445 41.0032959,70.0584717 42.9572754,70.1716309 C44.9112549,70.28479 47.2685547,70.465332 50.5241699,70.4207764 C53.7797852,70.3762207 63.7717285,70.409668 66.7871094,70.4207764 C69.8024902,70.4318848 80.9234619,70.4555054 81.7885742,70.2527466 C82.6536865,70.0499878 82.8307495,69.4528198 82.9006348,69.0441895 C82.97052,68.6355591 83.1031494,67.8223877 83.0217896,67.8121338 C82.9404297,67.8018799 66.5836182,67.8764648 64.244751,67.9163818 C61.9058838,67.9562988 58.2941895,68.178833 56.1918945,68.2807617 C54.0895996,68.3826904 48.5487064,68.2175962 46.8956911,68.15549 C45.2426758,68.0933838 39.2969334,68.0496826 37.3673096,68.0592041 C35.4376858,68.0687256 27.4326172,67.8856637 27.0808105,67.9978856 Z" id="路径-994" fill="#850610"></path>
                <path d="M26.0407104,68.6734009 C25.8733521,68.9542847 25.4416504,69.1635742 27.1784668,69.1828613 C28.9152832,69.2021484 30.1026616,69.2128775 30.517334,69.1303711 C30.9320063,69.0478647 30.0953369,68.1135922 30.4803467,68.15549 C30.8653564,68.1973877 30.9682007,68.0765744 31.0104675,68.15549 C31.0527344,68.2344055 31.6640625,69.3646851 31.7384644,69.3792725 C31.8128662,69.3938599 32.6561279,68.1017761 32.7670898,68.0708313 C32.8780518,68.0398865 33.5348206,67.9792786 33.4823303,68.0708313 C33.4298401,68.162384 33.0576477,68.8441162 33.0387268,68.9825134 C33.0198059,69.1209106 36.6860657,69.0397644 37.1905212,69.045929 C37.6949768,69.0520935 37.8688049,69.105011 37.759491,68.9024353 C37.650177,68.6998596 37.3374634,68.217291 37.4791565,68.15549 C37.6208496,68.093689 38.0376587,67.9901733 38.1176147,68.0708313 C38.1975708,68.1514893 38.7842407,69.1191406 38.8855591,69.2576294 C38.9868774,69.3961182 39.2225952,69.52948 39.3617554,69.1846008 C39.5009155,68.8397217 39.8697815,68.1892453 39.964447,68.15549 C40.0591125,68.1217346 40.9060974,68.0947571 40.7784424,68.2071533 C40.6507874,68.3195496 40.4285278,68.80896 40.4349976,68.9825134 C40.4414673,69.1560669 40.5710144,69.182251 41.0177612,69.1846008 C41.4645081,69.1869507 44.9373474,69.190979 45.0704956,69.1865845 C45.2036438,69.1821899 44.8914795,68.3848572 44.8249207,68.2764282 C44.7583618,68.1679993 45.3559875,68.1628723 45.4085083,68.2071533 C45.4610291,68.2514343 46.0976563,69.4448853 46.2247314,69.5977173 C46.3518066,69.7505493 46.6845703,69.2331118 46.949585,68.8100373 C47.2145996,68.3869629 47.569397,68.4663696 47.765564,68.4989014 C47.961731,68.5314331 47.3358207,69.3884277 47.4916408,69.3792725 C47.6474609,69.3701172 49.4030151,69.3063965 51.1972046,69.3792725 C52.991394,69.4521484 61.3026123,69.4065552 61.5892334,69.3724365 C61.8758545,69.3383179 61.380249,68.5046997 61.3199463,68.3986816 C61.2596436,68.2926636 61.8388672,68.2746582 61.9650269,68.3986816 C62.0911865,68.5227051 62.7890625,69.3803711 62.9272461,69.5977173 C63.0654297,69.8150635 63.3947144,69.5540771 63.6309204,69.1865845 C63.8671265,68.8190918 63.9537354,68.4404907 64.2191162,68.3986816 C64.4844971,68.3568726 64.8045654,68.4247622 64.6627808,68.8100373 C64.5209961,69.1953125 64.4957275,69.3461304 65.3391113,69.3128052 C66.1824951,69.27948 68.6503906,69.3530273 68.7679443,69.2576294 C68.885498,69.1622314 68.0523071,68.1779843 68.2576294,68.15549 C68.4629517,68.1329956 68.9476929,68.0457153 69.1381226,68.2764282 C69.3285522,68.5071411 69.5725098,69.2365112 69.6491699,69.2576294 C69.7258301,69.2787476 70.4216919,69.3439941 70.6416626,69.3128052 C70.8616333,69.2816162 71.276062,68.3381348 71.3926392,68.2764282 C71.5092163,68.2147217 72.1826782,68.1580811 72.1199951,68.2764282 C72.057312,68.3947754 71.706604,69.2843018 71.8511353,69.3128052 C71.9956665,69.3413086 75.2666626,69.3754272 75.2485962,69.2576294 C75.2305298,69.1398315 74.3676147,68.2213745 74.5779419,68.2071533 C74.788269,68.1929321 75.1517944,67.9781494 75.2485962,68.2071533 C75.3453979,68.4361572 75.9763794,69.1202393 76.1315918,69.3128052 C76.2868042,69.5053711 76.7084961,70.1547852 76.9740601,69.4857788 C77.239624,68.8167725 77.3867188,68.0670776 77.6450195,68.0708313 C77.9033203,68.074585 78.2310791,68.0785246 78.029541,68.6047974 C77.8280029,69.1310701 77.7700195,69.3516846 78.029541,69.3128052 C78.2890625,69.2739258 80.303833,69.2427979 80.303833,69.1865845 C80.303833,69.1303711 79.6098633,68.2401486 79.8355713,68.15549 C80.0612793,68.0708313 80.5925903,68.9089966 80.7414551,69.045929 C80.8903198,69.1828613 80.8731079,69.4870605 81.4539795,69.045929 C82.0348511,68.6047974 82.319397,68.1845951 82.4448853,67.9978856 C82.5703735,67.8111761 82.8170166,67.9303202 82.5388184,68.3986816 C82.2606201,68.8670431 81.9815674,68.9938965 81.8232422,69.1865845 C81.664917,69.3792725 81.5106201,69.4857788 81.5877686,69.4857788 C81.664917,69.4857788 82.3734131,69.2000732 82.5388184,68.9024353 C82.7042236,68.6047974 82.8634033,68.7194214 82.7838135,69.045929 C82.7042236,69.3724365 82.4976807,69.8844604 82.2558594,70.0008545 C82.0140381,70.1172485 82.0587158,70.348877 81.8232422,70.348877 C81.5877686,70.348877 79.3701782,70.4278114 76.9740601,70.4278114 C74.5779419,70.4278114 63.2939453,70.3641357 60.9746094,70.348877 C58.6552734,70.3336182 49.0372314,70.3933105 45.6929932,70.348877 C42.3487549,70.3044434 40.6712646,69.8116566 36.2275391,69.7772272 C31.7838135,69.7427979 27.1830444,69.5515747 26.0726929,69.432373 C25.7163444,69.3941173 25.4559873,69.3599162 25.446128,69.1983643 C25.4265291,68.8565342 26.154358,68.482662 26.0407104,68.6734009 Z" id="路径-995" fill="#943539"></path>
                <path d="M81.4489746,70.517334 C81.5016479,70.6125488 81.3534546,70.9578857 80.8288574,71.1771851 C80.3042603,71.3964844 76.5055542,71.456665 76.3651733,71.4530029 C76.2247925,71.4493408 75.9529419,70.8687102 75.8026123,70.9851974 C75.6522827,71.1016846 75.2775269,71.5402832 75.1368408,71.5576172 C74.9961548,71.5749512 74.774231,71.5522461 74.8365479,71.4530029 C74.8988647,71.3537598 71.0206909,71.4606323 70.8137817,71.4530029 C70.6068726,71.4453735 70.5661621,71.7664185 70.229248,71.7088623 C69.892334,71.6513062 69.6173706,71.0642238 69.4833374,71.116554 C69.3493042,71.1688843 68.8029785,71.6019287 68.5796509,71.7896729 C68.3563232,71.977417 68.2044067,71.7474365 68.3793335,71.5576172 C68.5542603,71.3677979 63.6917725,71.5089722 63.4104004,71.5576172 C63.1290283,71.6062622 63.0905762,71.8224487 62.8470459,71.7088623 C62.6035156,71.5952759 62.3098145,70.8971526 62.1785278,70.9851974 C62.0472412,71.0732422 61.5702515,71.6673584 61.336731,71.7896729 C61.1032104,71.9119873 61.2097168,71.6316528 61.1730347,71.4530029 C61.1363525,71.274353 56.5293579,71.5578388 55.6982422,71.3887329 C54.8671265,71.219627 53.4290161,70.8230591 52.4952393,70.8237915 C51.5614624,70.8245239 50.111145,71.0235596 49.1137695,71.3251343 C48.116394,71.626709 46.9803467,71.8282471 46.7406006,71.8798828 C46.5008545,71.9315186 46.0560913,71.440918 45.9411621,71.3251343 C45.8262329,71.2093506 45.0198364,71.8538818 44.8625488,71.8798828 C44.7052612,71.9058838 44.1132813,71.9326172 44.2035522,71.7367554 C44.2938232,71.5408936 40.1873779,71.5512695 39.8062744,71.5576172 C39.4251709,71.5639648 39.4768066,71.8929443 39.1858521,71.7088623 C38.8948975,71.5247803 38.5803223,70.7132568 38.3760986,70.8237915 C38.171875,70.9343262 37.5510254,71.7241211 37.2565308,71.7367554 C36.9620361,71.7493896 36.8447266,71.4991455 36.8853149,71.3251343 C36.9259033,71.151123 32.8108521,71.3546143 32.4794922,71.3251343 C32.1481323,71.2956543 32.2250977,71.7166138 31.8292847,71.4530029 C31.4334717,71.1893921 31.1448364,70.3530884 30.9031372,70.517334 C30.661438,70.6815796 30.5650034,71.3980103 30.2398687,71.3887329 C29.9147339,71.3794556 30.307373,71.0343165 29.2671509,71.116554 C28.2269287,71.1987915 26.2312452,71.1396453 25.446128,70.9851974 C24.6610107,70.8307495 23.7056885,70.7129836 23.8931885,70.4278114 C24.0806885,70.1426392 25.0884399,69.5253906 25.1735229,69.5054321 C25.258606,69.4854736 26.4716797,69.730785 27.4204712,69.7772272 C28.3692627,69.8236694 31.1415405,69.9073486 31.423584,69.9365234 C31.7056274,69.9656982 31.6381226,70.0983276 31.8292847,70.1066284 C32.0204468,70.1149292 37.9057007,70.0996704 38.1372681,70.1066284 C38.3688354,70.1135864 38.7897339,70.1030884 38.920166,70.213562 C39.0505981,70.3240356 43.0911865,70.5082397 43.8421631,70.517334 C44.5931396,70.5264282 46.2873587,70.6129761 47.4916408,70.6015625 C48.6959229,70.5901489 57.0574951,70.4367995 59.2275391,70.4278114 C61.397583,70.4188232 72.6243896,70.5873413 73.65979,70.6015625 C74.6951904,70.6157837 81.3963013,70.4221191 81.4489746,70.517334 Z" id="路径-996" fill="#641F25"></path>
                <path d="M83.6801758,66.6878662 C83.3717485,67.1073059 83.2455413,67.3815437 83.3015544,67.5105794 C83.3521729,68.3256429 83.2226128,69.0278283 83.0373535,69.4573975 C82.6896159,70.2637126 82.2982381,70.2227987 81.8742269,70.3811849 C81.7143419,70.7835558 81.4474148,71.1308322 81.0734456,71.4230143 C80.7398546,71.6144341 80.6099243,71.712321 80.6836548,71.7166748 C80.7942505,71.7232056 82.8826904,71.5053101 83.6211548,71.2567139 C84.3596191,71.0081177 85.5536296,69.9498698 85.7257487,69.5910645 C85.8978678,69.2322591 85.9857992,69.0283203 85.7132161,68.3563639 C85.5829343,68.0352004 85.1794212,67.5346802 84.5393066,67.1022949 C84.3708124,66.9884803 84.0844355,66.8503374 83.6801758,66.6878662 Z" id="路径-997" fill="#A7A5AC"></path>
                <path d="M84.6126701,67.1528649 C85.2102908,67.5732108 85.587984,68.0476486 85.7132161,68.3563639 C85.9857992,69.0283203 85.8978678,69.2322591 85.7257487,69.5910645 C85.5692768,69.9172511 84.5682666,70.8214895 83.8327387,71.1699747 L83.6911915,71.2271407 C84.0997999,70.9025011 84.4215403,70.5923583 84.6564128,70.2967122 C85.2678223,69.5270996 85.2754074,68.5246156 84.6791683,67.2892603 L84.6126701,67.1528649 Z" id="路径" fill="#C3C1C6"></path>
                <path d="M70.888502,53.3741508 C70.584324,53.3734715 70.2295346,53.9476053 70.0516304,54.7623981 C69.8737262,55.5771909 69.8832428,57.6309137 70.4596241,58.9573981 C71.0360054,60.2838825 72.149069,60.3820482 72.6940148,60.2106827 C73.2389606,60.0393173 75.600034,58.2200238 76.206267,57.2256284 C76.8125,56.231233 79.4608526,52.6940965 79.7528872,52.0728465 C80.0449219,51.4515965 81.561481,48.3097826 81.5346467,48 C81.5078125,47.6902174 81.4890455,47.4532948 81.3216712,47.519786 C81.1542969,47.5862772 78.3310122,50.983356 77.8835768,51.6554008 C77.4361413,52.3274457 75.7424423,53.8847656 75.4498132,53.9334239 C75.1571841,53.9820822 75.0718885,54.1416846 74.9087126,54.3962296 C74.7455367,54.6507747 73.5722656,56.2808254 72.3299932,56.0444124 C71.0877208,55.8079993 71.19268,53.3748302 70.888502,53.3741508 Z" id="路径-1005" fill="#1E151A"></path>
                <path d="M71.2583822,54.8099993 C71.782742,56.2190015 72.6283908,56.5626356 73.7953288,55.8409017 C75.5457357,54.7583008 78.4258219,51.2122479 79.0271403,50.4381145 C79.6284587,49.6639811 80.5717367,48.6493327 78.8483887,50.8885091 C77.1250407,53.1276855 75.111084,55.4016113 73.9412435,56.083252 C72.771403,56.7648926 72.1729329,56.525472 71.8036296,56.1136068 C71.5574273,55.8390299 71.3756782,55.4044941 71.2583822,54.8099993 Z" id="路径-1003" fill="#D8D8D8"></path>
                <path d="M70.4596241,58.3267415 C70.5991211,58.6140951 71.2907715,59.9264323 72.3575846,59.7652995 C73.4243978,59.6041667 75.5205892,57.5392253 76.8671875,55.7760417 C78.2137858,54.0128581 77.3516439,55.5322643 76.3163249,56.8260905 C75.2810059,58.1199167 73.642334,59.6410319 72.7389323,59.9602051 C71.8355306,60.2793783 71.4563802,59.9514974 70.9117839,59.3314616 C70.3671875,58.7114258 70.3201272,58.039388 70.4596241,58.3267415 Z" id="路径-1004" fill="#48363B"></path>
            </g>
        </g>
    </g>
</svg>