<?xml version="1.0" encoding="UTF-8"?>
<svg width="96px" height="96px" viewBox="0 0 96 96" version="1.1" xmlns="http://www.w3.org/2000/svg" xmlns:xlink="http://www.w3.org/1999/xlink">
    <title>Nike Air Max 200 SE</title>
    <defs>
        <rect id="path-1" x="0" y="0" width="96" height="96"></rect>
    </defs>
    <g id="icon" stroke="none" stroke-width="1" fill="none" fill-rule="evenodd">
        <g id="画板" transform="translate(-622.000000, -582.000000)">
            <g id="Nike-Air-Max-200-SE" transform="translate(622.000000, 582.000000)">
                <g id="#" opacity="0">
                    <use fill="#FFFFFF" fill-rule="evenodd" xlink:href="#path-1"></use>
                    <rect stroke-opacity="0.5" stroke="#DDDDDD" stroke-width="6" stroke-linejoin="square" x="3" y="3" width="90" height="90"></rect>
                    <rect stroke-opacity="0.507785184" stroke="#DDDDDD" stroke-width="12" stroke-linejoin="square" x="6" y="6" width="84" height="84"></rect>
                    <rect stroke-opacity="0.319406703" stroke="#979797" stroke-width="10" stroke-linejoin="square" x="5" y="5" width="86" height="86"></rect>
                </g>
                <path d="M60.8521635,43.4771635 C61.923778,42.3392428 62.5875901,41.5533353 62.8435998,41.1194411 C63.2276142,40.4685998 63.4070012,39.1884014 62.495643,37.9441106 C61.8880709,37.1145833 61.156901,36.748748 60.3021334,36.8466046 C60.2434395,36.589393 60.0990084,36.4607873 59.8688401,36.4607873 C59.5235877,36.4607873 58.5289964,36.3052133 57.6385968,36.4607873 C56.7481971,36.6163612 54.2222055,37.9322416 53.5503305,38.8759766 C52.8784555,39.8197115 52.7397837,39.874399 52.1388972,40.4387019 C51.5380108,41.0030048 47.1953125,43.9097055 46.6380709,44.2234075 C46.0808293,44.5371094 43.8517127,45.7620192 43.4451623,45.7620192 C43.0386118,45.7620192 42.0632512,45.968149 41.5241887,46.3338341 C40.9851262,46.6995192 38.4376502,47.8487079 37.3913762,48.8464543 C36.3451022,49.8442007 32.1164363,52.0746695 31.5178786,51.8407452 C30.9193209,51.6068209 30.4798678,51.3970853 30.4798678,51.3970853 C30.4798678,51.3970853 29.7585637,52.2378305 29.7585637,52.4361478 C29.7585637,52.6344651 31.2600661,53.2842548 34.7678786,52.69997 C38.2756911,52.1156851 45.066857,50.7602163 51.1161358,48.5602464 C55.1489884,47.0935998 58.3943309,45.3992388 60.8521635,43.4771635 Z" id="路径-883" fill="#EFF5F5"></path>
                <path d="M61.7796503,37.2201885 C62.034837,37.3995098 62.2735013,37.6408171 62.495643,37.9441106 C63.4070012,39.1884014 63.2276142,40.4685998 62.8435998,41.1194411 C62.5875901,41.5533353 61.923778,42.3392428 60.8521635,43.4771635 C60.3323855,43.8836404 59.7773877,44.2799334 59.1871702,44.6660422 C58.440092,44.6573883 57.7561573,44.4894616 57.3825684,44.1043701 C56.4239251,43.1162109 55.8852539,41.5411377 56.2659912,41.3278809 C56.6467285,41.114624 57.7017822,40.4823352 58.4598389,39.9803467 C59.2178955,39.4783582 60.9367884,39.6717529 61.6174316,39.0524902 C61.9474405,38.7522417 62.0295874,38.2466513 61.8638723,37.5357192 L61.7796503,37.2201885 Z" id="路径" fill="#C8D3DC"></path>
                <path d="M61.7796503,37.2201885 C62.034837,37.3995098 62.2735013,37.6408171 62.495643,37.9441106 C63.4070012,39.1884014 63.2276142,40.4685998 62.8435998,41.1194411 C62.5875901,41.5533353 61.923778,42.3392428 60.8521635,43.4771635 C60.4304455,43.8069556 59.9855431,44.1300437 59.5174563,44.4464279 C59.4245598,44.3674404 59.3357479,44.2680179 59.2476807,44.1485596 L61.6759724,41.3822721 C61.8786694,41.1573605 62.0329364,40.9900197 62.1387732,40.8802495 C62.6944165,40.303956 62.8349609,39.5527344 62.7729663,38.9031982 C62.738658,38.5437394 62.4181155,38.0188784 61.8113388,37.3286152 L61.7796503,37.2201885 Z" id="路径" fill="#ADB2BF"></path>
                <path d="M59.6985797,36.4596109 L59.723584,36.4552311 L59.8688401,36.4607873 L59.8688401,36.4607873 C60.0990084,36.4607873 60.2434395,36.589393 60.3021334,36.8466046 L60.1987826,36.9744242 C60.185501,36.9879441 60.1740765,36.9973185 60.1643372,37.0021667 L60.0495004,37.048371 C59.9793153,37.0856547 59.8733433,37.1664952 59.6905518,37.3757935 C59.3706665,37.7420654 58.8084106,38.9263916 58.6182861,39.2440796 L58.1208344,40.0050888 C57.915802,40.3286743 57.7030945,40.6972656 57.5773315,41.0361328 C57.3258057,41.7138672 51.8755493,42.1663208 51.3642578,42.3970947 C50.8529663,42.6278687 50.6535645,42.7646893 50.2560425,42.9277243 C49.8585205,43.0907593 49.5390785,43.3948975 49.2806477,43.4643555 C49.0222168,43.5338135 48.866333,43.5202026 48.6031494,43.6160278 C48.3399658,43.711853 47.8276367,44.0737915 47.4276733,44.369812 C47.1610311,44.567159 46.7417399,44.6655293 46.1697998,44.6649256 L49.2317041,42.7071133 C51.8114762,41.080519 53.5071737,40.0841939 54.3187964,39.7181381 L54.5685425,39.6151123 C55.9000244,39.1347656 58.7133789,37.0401001 59.3512573,36.6278687 C59.472758,36.5493484 59.5885321,36.4932625 59.6985797,36.4596109 Z" id="路径" fill="#8398AD"></path>
                <path d="M57.6385968,36.4607873 C58.5289964,36.3052133 59.5235877,36.4607873 59.8688401,36.4607873 C60.0171708,36.4607873 60.1298941,36.5141983 60.20701,36.6210205 L60.057251,36.6802979 C59.6550293,36.8880615 58.9842529,38.2541504 58.3967285,38.9595947 C57.8092041,39.6650391 57.067627,40.467286 56.1954346,40.8802495 C55.3232422,41.2932129 52.1499023,42.0996094 51.1951904,42.2764893 C50.2404785,42.4533691 49.6297607,43.2131348 49.0644531,43.423584 C48.6404724,43.5814209 48.2408456,43.7636337 47.7983828,43.9896889 L47.3391528,44.2310791 C46.9756173,44.4266772 46.187235,44.7217503 44.9740059,45.1162984 L46.167089,44.4842279 C46.3678945,44.3744348 46.5328103,44.2826644 46.6380709,44.2234075 L47.1555197,43.9003035 C48.4734047,43.0501978 51.6328876,40.9139044 52.1388972,40.4387019 L52.6225795,39.9924685 C52.8914764,39.7391577 53.1024139,39.5051332 53.5503305,38.8759766 C54.2222055,37.9322416 56.7481971,36.6163612 57.6385968,36.4607873 Z" id="路径" fill="#F3F7FB"></path>
                <path d="M53.0609184,39.52526 L53.1760106,39.6286084 C53.2487355,39.7062402 53.2769794,39.769165 53.2607422,39.8173828 C53.2201491,39.9379272 52.293335,40.7670877 52.234375,40.7955322 C52.1984219,40.8128774 52.195014,40.6692925 52.2241514,40.3647775 L52.6225795,39.9924685 L52.9084354,39.7023872 C52.9570033,39.6485934 53.0072319,39.5903927 53.0609184,39.52526 Z M57.6137695,36.7112427 C57.3956909,36.8618774 57.1989136,36.8051758 56.9439697,36.9190674 C56.6890259,37.032959 56.6069336,37.2451256 56.5385132,37.2201885 C56.4700928,37.1952515 56.4569092,37.0709313 56.2432251,37.2201885 L55.853653,37.4793516 C55.736084,37.5641022 55.6661072,37.6338196 55.7496338,37.6483154 L56.4604379,37.7309846 C56.8366962,37.7812788 57.20176,37.8522117 57.1181641,37.9436646 C56.9649048,38.1113281 55.9415261,37.8274536 55.520995,37.9436646 L54.5837177,38.1922645 C54.3370946,38.2630603 54.1154944,38.3367617 53.9959811,38.4053168 C54.9826238,37.5438731 56.8894764,36.5916763 57.6385968,36.4607873 L57.7214444,36.4520803 C57.7304858,36.5690267 57.6945941,36.6554142 57.6137695,36.7112427 Z" id="形状" fill="#FFB179"></path>
                <path d="M83.0007512,40.2488732 C84.2072699,40.9394134 84.0373579,43.4023118 83.8888138,44.6222715 L83.8615535,44.8357121 C83.7123648,45.9543269 83.6277794,48.5733924 83.6359675,48.8384165 L83.6696772,49.0845341 C83.7914127,49.8160966 84.2025348,51.8291552 84.2458684,52.3432993 C84.4060246,52.5472506 84.5205078,54.0902945 84.4060246,55.5277945 C84.2915415,56.9652945 83.6114032,60.0772987 83.4486929,60.4538011 C83.2941181,60.8114784 81.507084,61.0884106 78.7214763,60.5463099 L78.2734375,60.4538011 C75.2324219,59.7902644 72.523738,58.9378005 68.6167368,59.7859075 L66.9484317,60.1718876 C61.8451457,61.3956608 51.0247253,64.2266312 44.5422175,65.191256 C37.2232572,66.2803486 30.1933594,66.5402644 24.0659555,66.0960036 C17.9385517,65.6517428 11.3164814,63.1623347 10.6422025,62.5443209 C9.96792368,61.9263071 10.3122746,60.6387846 10.3255709,59.4000901 C10.3388672,58.1613957 12.6479492,56.2258489 13.0345177,55.9037335 C13.4210862,55.5816181 18.558143,54.3811631 21.976863,54.0459752 C25.2246469,53.7275467 27.9771135,53.0007167 28.7262565,52.7125538 L28.8276743,52.6708233 C29.3523938,52.4353866 30.671662,52.1070279 32.6699239,51.006832 L33.1084736,50.7590144 C35.0535256,49.6318009 37.5746628,48.4205162 39.1496136,47.7894241 L39.8037861,47.5417668 C41.1475561,47.0713141 44.5932152,45.382817 46.1538928,44.7772502 L46.458019,44.6648999 C47.8198618,44.1944111 49.8392428,43.1567007 50.6560998,42.6509916 C51.4729567,42.1452825 53.8013071,39.5660306 56.6269531,40.4633413 L57.6027174,40.7805516 C59.7016574,41.4860335 60.6803866,42.0209867 63.1574742,43.9015925 C65.9884315,46.0508564 67.6583534,47.9022686 70.3910006,48 C72.9935218,48.0930775 74.0241402,47.2109893 74.3293673,45.3177205 L74.3698167,45.0261418 C74.6163612,42.9319411 75.4386268,40.5754958 76.7571364,40.6501653 C78.075646,40.7248347 80.0458233,41.848107 80.3280499,42.1632362 C80.5162009,42.3733223 80.6386218,42.5359075 80.6953125,42.6509916 C80.6089243,42.0276943 80.6596554,41.4634165 80.847506,40.9581581 C81.1292819,40.2002704 81.7188251,39.5151743 83.0007512,40.2488732 Z M81.7792218,40.3870192 C81.223107,40.50939 81.0410907,41.633113 81.0498798,42.1532452 C81.0586689,42.6733774 81.109375,43.1300331 81.169396,43.3294772 C81.2294171,43.5289213 81.6633113,44.1690956 81.8800331,44.6070463 C82.0967548,45.044997 82.1451949,45.589994 82.3135517,45.8994141 L83.2563852,47.6057692 L83.2563852,47.6057692 L83.5726529,43.8753833 C83.6308068,43.0227269 83.6409029,42.0314002 83.3274489,41.4945162 C82.8796575,40.7275391 82.3353365,40.2646484 81.7792218,40.3870192 Z" id="形状" fill="#D8DEE3"></path>
                <path d="M79.9240465,44.7453161 C80.802582,44.9768758 81.6788874,45.2882432 82.2121694,45.6308847 C82.2383105,45.7338046 82.2723379,45.823668 82.3135517,45.8994141 L83.2563852,47.6057692 L83.5303956,48.4299811 L83.6355586,48.7551665 L83.6359675,48.8384165 L83.6696772,49.0845341 L84.0842955,51.3214978 C84.1657198,51.7711727 84.2301107,52.1563378 84.2458684,52.3432993 C84.4060246,52.5472506 84.5205078,54.0902945 84.4060246,55.5277945 C84.2915415,56.9652945 83.6114032,60.0772987 83.4486929,60.4538011 C83.2941181,60.8114784 81.507084,61.0884106 78.7214763,60.5463099 L78.2734375,60.4538011 C75.2324219,59.7902644 72.523738,58.9378005 68.6167368,59.7859075 L66.9484317,60.1718876 L58.1626357,62.3251292 C53.465866,63.4570325 48.2821259,64.6347417 44.5422175,65.191256 C37.2232572,66.2803486 30.1933594,66.5402644 24.0659555,66.0960036 C17.9385517,65.6517428 11.3164814,63.1623347 10.6422025,62.5443209 C9.96792368,61.9263071 10.3122746,60.6387846 10.3255709,59.4000901 C10.3388672,58.1613957 12.6479492,56.2258489 13.0345177,55.9037335 C13.3072765,55.6764521 15.9450994,55.0118832 18.6755988,54.5225259 C17.1482184,55.8416185 16.3566738,56.7508939 16.2973633,57.2509738 C16.1833649,58.2121581 19.8402276,58.8571675 25.7031318,58.4652666 L26.2773438,58.4240795 C32.4746094,57.949707 33.8842773,58.0775165 32.1621094,60.6972656 C31.1363376,62.2576621 34.4552081,61.3723509 37.9233398,59.03125 C40.2778534,57.4418773 38.6481934,55.4887695 42.6235352,53.7441406 C49.8768777,50.5609197 52.6749611,46.2502192 55.7190723,46.6619748 L56.8828859,46.8357247 C60.154668,47.3631247 65.0749804,48.0587026 63.644165,48.7058105 C61.0962581,49.9393614 61.2542578,50.8841043 64.1181641,51.5400391 C68.7531703,52.6016177 74.5488281,52.7880859 76.7368164,49.7470703 C78.9248047,46.7060547 78.7836398,44.4447338 79.9240465,44.7453161 Z" id="路径" fill="#CDD5DC"></path>
                <path d="M79.9240465,44.7453161 C80.802582,44.9768758 81.6788874,45.2882432 82.2121694,45.6308847 C82.2383105,45.7338046 82.2723379,45.823668 82.3135517,45.8994141 L83.2563852,47.6057692 L83.5303956,48.4299811 L83.6355586,48.7551665 L83.6359675,48.8384165 L83.6696772,49.0845341 L84.0842955,51.3214978 C84.1657198,51.7711727 84.2301107,52.1563378 84.2458684,52.3432993 C84.4060246,52.5472506 84.5205078,54.0902945 84.4060246,55.5277945 C84.2915415,56.9652945 83.6114032,60.0772987 83.4486929,60.4538011 C83.2941181,60.8114784 81.507084,61.0884106 78.7214763,60.5463099 L78.2734375,60.4538011 C75.2324219,59.7902644 72.523738,58.9378005 68.6167368,59.7859075 L66.9484317,60.1718876 L58.1626357,62.3251292 L55.0951995,63.0525283 C51.3105615,63.9332407 47.4807169,64.7539948 44.5422175,65.191256 C37.2232572,66.2803486 30.1933594,66.5402644 24.0659555,66.0960036 C17.9385517,65.6517428 11.3164814,63.1623347 10.6422025,62.5443209 C9.96792368,61.9263071 10.3122746,60.6387846 10.3255709,59.4000901 C10.3342341,58.5930204 11.3174943,57.490126 12.1086011,56.7304142 C13.9204653,56.1007962 16.2246439,56.155281 16.0361328,56.3554033 L15.9059299,56.511308 C15.5628252,56.9552393 14.9043598,58.0229014 15.5125573,58.4240795 C16.2143235,58.8869774 17.4067383,59.144043 20.3410645,59.32063 C23.2753906,59.497217 31.5894156,58.7330469 31.9174805,59.1369629 C32.2455454,59.5408789 30.5750113,62.4351789 31.4445801,62.5429688 C32.3141489,62.6507586 41.0327148,61.7397461 42.7131206,60.9505559 C44.3935263,60.1613657 45.9770396,58.0384103 47.8266602,57.4262695 L48.2003101,57.3144622 C49.3190491,57.0022196 54.5338546,55.6511423 63.8447266,53.2612305 C71.4428711,53.3847656 75.175293,52.1181641 76.9858398,50.1582031 C77.7157012,49.3681105 77.8326672,48.6307524 77.9002596,47.8320722 C78.926251,45.8171168 79.0405833,44.5124576 79.9240465,44.7453161 Z" id="路径" fill="#B2BDC7"></path>
                <path d="M80.7463379,48.7736816 C81.3917788,48.5835514 82.7513919,49.5015814 83.9369654,50.5248489 L84.0842955,51.3214978 C84.1657198,51.7711727 84.2301107,52.1563378 84.2458684,52.3432993 C84.4060246,52.5472506 84.5205078,54.0902945 84.4060246,55.5277945 C84.2915415,56.9652945 83.6114032,60.0772987 83.4486929,60.4538011 C83.2941181,60.8114784 81.507084,61.0884106 78.7214763,60.5463099 L78.2734375,60.4538011 C75.2324219,59.7902644 72.523738,58.9378005 68.6167368,59.7859075 L66.9484317,60.1718876 L58.1626357,62.3251292 L55.0951995,63.0525283 L53.0319974,63.525026 C49.9473567,64.2190193 46.9464443,64.8334968 44.5422175,65.191256 C38.0905172,66.1512966 31.8634331,66.4670245 26.2811503,66.2240615 C26.2977575,65.9546501 26.3587946,65.6855236 26.4110141,65.418928 L26.4760742,65.0212136 C26.6359253,63.6213728 29.4370774,61.1911924 29.2284776,62.5946569 L29.192627,62.7666209 C28.7598389,64.4356333 29.2470769,64.8825957 31.1389951,64.949084 L31.4494629,64.956543 C33.5558837,64.986233 46.7040324,63.2794165 57.8383672,60.7581999 L59.951729,60.2641043 C69.9419227,57.8521467 71.7806207,56.2396105 74.8010254,54.3103027 C77.9619141,52.2912598 79.6987126,49.082285 80.7463379,48.7736816 Z" id="路径" fill="#9BA3B4"></path>
                <path d="M41.0866887,52.9381564 C44.4223257,52.6704835 41.828726,56.8538161 40.3607272,59.2704327 C38.8927284,61.6870493 36.0838341,64.9332933 35.4301382,65.3916767 C34.7764423,65.8500601 32.1571045,66.6024827 31.3348389,65.7727051 C30.549949,64.9806446 32.9987015,62.3285683 34.4532187,60.6843452 L35.305176,59.6998355 C36.37213,58.4435604 36.9223178,57.5827904 36.0168269,56.5988582 C34.9415565,55.4304387 26.7869591,57.5902945 25.5189303,57.8090445 C24.2509014,58.0277945 23.5171274,57.6998197 23.9054988,57.2121394 L24.0910502,57.0035572 C24.6602363,56.4000221 25.9000548,55.2489131 25.1290565,55.080755 C24.2552584,54.8901759 14.2121394,56.2533053 13.1589543,56.1155349 C13.0035187,56.0952018 12.9429591,56.0431028 12.9566714,55.967978 L13.0345177,55.9037335 C13.3924515,55.6054785 17.8231634,54.5541888 21.1914913,54.1339958 L21.976863,54.0459752 C23.6815737,53.8788371 25.2498227,53.5991829 26.4635411,53.3295052 L26.5456731,53.3335337 L27.699402,53.3328557 C28.8762704,53.3432312 29.4360458,53.4260161 29.1154689,53.931142 L29.0332031,54.0459752 C28.425631,54.8158085 28.4873798,55.4323918 30.5042067,55.080755 C32.5210337,54.7291182 37.7510517,53.2058293 41.0866887,52.9381564 Z" id="路径" fill="#F4F5F8"></path>
                <path d="M40.3607272,59.2704327 C38.8927284,61.6870493 36.0838341,64.9332933 35.4301382,65.3916767 C34.7764423,65.8500601 32.1571045,66.6024827 31.3348389,65.7727051 C30.549949,64.9806446 32.9987015,62.3285683 34.4532187,60.6843452 L35.305176,59.6998355 C36.37213,58.4435604 36.9223178,57.5827904 36.0168269,56.5988582 C35.7227787,56.279337 34.8993185,56.2087136 33.832055,56.2792267 C36.31074,55.4268763 39.0221938,54.3339772 41.9625499,53.0034401 C43.8768729,53.5508345 41.6706677,57.1140112 40.3607272,59.2704327 Z" id="路径" fill="#E8EBF0"></path>
                <path d="M35.4301382,65.3916767 C34.7764423,65.8500601 32.1571045,66.6024827 31.3348389,65.7727051 C30.6806252,65.1125147 32.2729493,63.1600987 33.6635653,61.5761597 L34.5131275,61.5104622 C35.7342717,61.4025425 37.3087789,61.2133703 39.2340628,60.9434192 L38.7030121,61.6596461 C37.3524068,63.4383953 35.8802837,65.0760265 35.4301382,65.3916767 Z" id="路径" fill="#D6DBE3"></path>
                <path d="M35.4301382,65.3916767 C34.7764423,65.8500601 32.1571045,66.6024827 31.3348389,65.7727051 C31.0970308,65.5327244 31.1560663,65.121997 31.3943541,64.6202879 C33.515548,64.419953 35.3187296,64.2100769 36.8038989,63.9906594 C36.1753172,64.7052369 35.6643709,65.2274285 35.4301382,65.3916767 Z" id="路径" fill="#B7C1D0"></path>
                <path d="M19.1597377,58.4401507 C19.9151786,58.3689314 22.566755,56.7248884 22.9323382,56.3971122 C23.2979213,56.0693359 22.5886579,55.9429408 20.8842773,56.1517857 C19.1798968,56.3606306 17.4874442,56.7600446 16.604841,56.9795619 C15.7222377,57.1990792 15.1500419,57.5837054 15.7774833,57.9209682 C16.4049247,58.258231 18.4042969,58.51137 19.1597377,58.4401507 Z" id="路径-885" fill="#F8F8F9"></path>
                <path d="M80.1422904,49.6410784 C80.7418998,48.9193987 81.5064261,48.7648926 82.0814819,49.442627 C82.6565377,50.1203613 83.5327323,51.3441685 84.0267334,52.1230469 C84.1792029,52.3634414 84.2181839,52.5176673 84.3228407,52.5664723 C84.4386735,53.0757554 84.5007859,54.337931 84.4060246,55.5277945 C84.2915415,56.9652945 83.6114032,60.0772987 83.4486929,60.4538011 C83.2941181,60.8114784 81.507084,61.0884106 78.7214763,60.5463099 L78.2734375,60.4538011 C75.2324219,59.7902644 72.523738,58.9378005 68.6167368,59.7859075 L67.463622,60.0540525 C66.9881489,59.7590623 67.3188108,59.0901004 67.6450806,58.6609584 C68.0782558,58.091204 68.9834595,57.9853167 69.6168998,57.6200126 L72.6461891,55.9900785 C73.8031939,55.3557774 75.0588292,54.6401437 75.9907837,54.0246582 C78.0617937,52.6569127 79.542681,50.3627581 80.1422904,49.6410784 Z" id="路径" fill="#424E64"></path>
                <path d="M80.2223075,49.7294922 C80.8219169,49.0078125 81.496861,48.8629325 82.0719169,49.5406669 C82.6469727,50.2184012 83.4431501,51.3537946 83.9371512,52.132673 C84.0896207,52.3730675 84.2181839,52.5176673 84.3228407,52.5664723 C84.4386735,53.0757554 84.5007859,54.337931 84.4060246,55.5277945 C84.2915415,56.9652945 83.6114032,60.0772987 83.4486929,60.4538011 C83.2941181,60.8114784 81.507084,61.0884106 78.7214763,60.5463099 L78.2734375,60.4538011 C75.2324219,59.7902644 72.523738,58.9378005 68.6167368,59.7859075 L67.463622,60.0540525 C66.9881489,59.7590623 67.3988279,59.1785142 67.7250977,58.7493722 C68.1582729,58.1796177 69.0634766,58.0737305 69.6969169,57.7084263 L72.7262062,56.0784923 C73.883211,55.4441912 75.1388463,54.7285575 76.0708008,54.113072 C78.1418108,52.7453265 79.6226981,50.4511719 80.2223075,49.7294922 Z" id="路径" fill="#6D7C97"></path>
                <path d="M79.9604001,55.0295884 L80.2521973,54.8798828 C81.6902885,54.1141533 83.2009347,53.724461 84.4421497,53.8054404 C84.4614401,54.3292467 84.4530422,54.9374216 84.4060246,55.5277945 C84.2915415,56.9652945 83.6114032,60.0772987 83.4486929,60.4538011 C83.2941181,60.8114784 81.507084,61.0884106 78.7214763,60.5463099 L78.2734375,60.4538011 C75.2324219,59.7902644 72.523738,58.9378005 68.6167368,59.7859075 L67.463622,60.0540525 C67.3575247,59.9882282 67.2955504,59.9081856 67.2669156,59.8187794 C69.1909987,58.8399383 70.9566883,58.0730899 72.5700684,57.5163574 L73.7795109,57.1097693 C76.8162008,56.115937 78.404028,55.7983513 79.9604001,55.0295884 L79.9604001,55.0295884 Z" id="路径" fill="#68758E"></path>
                <path d="M84.3971681,55.6298149 L84.4060246,55.5277945 C84.2915415,56.9652945 83.6114032,60.0772987 83.4486929,60.4538011 C83.2941181,60.8114784 81.507084,61.0884106 78.7214763,60.5463099 L78.2734375,60.4538011 L76.0940629,59.963861 C73.9296377,59.4946503 71.7442272,59.1688944 68.9453339,59.7179978 C68.98426,59.2800953 69.5430664,58.8511539 70.8288574,58.4772642 C75.3669434,57.1576534 79.2155563,58.7817253 81.7121582,58.0922852 C83.0214844,57.7307129 83.6678467,57.5194092 84.3971681,55.6298149 Z" id="路径" fill="#79879F"></path>
                <path d="M82.0719169,49.5406669 C82.6469727,50.2184012 83.4431501,51.3537946 83.9371512,52.132673 C84.0896207,52.3730675 84.2181839,52.5176673 84.3228407,52.5664723 C84.3404582,52.6439316 84.3568331,52.7388074 84.3716023,52.8481963 C84.2234478,52.8314908 84.038627,52.7243616 83.8234253,52.4112549 C83.4488525,51.866272 82.9522095,50.975647 82.5885882,50.4131267 C82.2249669,49.8506064 81.8519897,49.4507446 81.3468018,49.4186401 C80.8416138,49.3865356 80.3131104,50.1956787 79.6514893,51.1122437 C78.9898682,52.0288086 77.5000178,53.3640096 76.0481567,54.480896 C74.5962957,55.5977824 71.1862183,57.3527832 69.9133301,57.956665 C69.3171655,58.2394966 68.7932105,58.3368732 68.0928459,58.4240795 C68.5611407,58.1170193 69.2094875,57.9895262 69.6969169,57.7084263 L72.7262062,56.0784923 L73.9004466,55.4238018 C74.6843366,54.9782296 75.4494978,54.5233956 76.0708008,54.113072 C78.1418108,52.7453265 79.6226981,50.4511719 80.2223075,49.7294922 C80.8219169,49.0078125 81.496861,48.8629325 82.0719169,49.5406669 Z" id="路径" fill="#ADB6C7"></path>
                <path d="M83.4363079,51.739314 C83.6909434,52.200411 84.0067532,52.6099604 84.3842418,52.9684489 L84.4195171,53.3325666 C84.4243003,53.3987368 84.4285589,53.4673785 84.4323278,53.538086 L84.7493164,53.7829209 C84.0491473,53.2888704 83.4942064,52.671591 83.086153,51.932683 C82.3766777,50.6479566 81.5180695,49.8616472 81.0584233,50.1927389 C80.8501112,50.34279 79.691629,51.8795148 79.6561888,51.9229241 C78.7212755,53.068062 77.6037213,54.1311188 76.0516249,55.2390746 C73.6724544,56.9374328 70.8175838,58.4178536 67.4872455,59.6809594 C67.400674,59.7137936 67.3055307,59.6825892 67.2539439,59.610806 C67.2676197,59.5103631 67.3062652,59.4061769 67.3592047,59.3009879 C70.645032,58.0554944 73.4695641,56.5908061 75.8192247,54.9135133 C78.1866928,53.2235088 80.9541168,49.8770095 80.8483727,49.8565114 L80.8246333,49.8681742 C81.5951655,49.3131455 82.6094418,50.242015 83.4363079,51.739314 Z" id="路径" fill="#505E7A"></path>
                <path d="M16.406808,55.9026228 C16.5380704,56.3264199 16.1507041,56.5144366 15.6872918,56.8759909 L15.2781071,57.2234118 C14.74508,57.6975942 14.100944,58.3702846 14.8337054,58.7322824 L15.1251696,58.8648944 C16.0245275,59.241085 17.5848838,59.6079322 20.7213309,59.6282785 C24.2267718,59.6510184 28.3580336,58.9688895 29.9739118,58.7798549 L30.5498076,58.7199912 C31.6523518,58.6244327 31.8591564,58.7509626 32.1111886,59.10226 C32.3777611,59.4738246 31.7667193,60.2907318 31.2086979,60.9203797 L31.058524,61.0869838 C30.4686802,61.7310268 28.839216,63.7393973 28.500558,65.11649 C28.4112689,65.4795684 28.0310823,65.8810504 27.4474404,66.2648197 C26.2909881,66.2326132 25.1639812,66.1756148 24.0659555,66.0960036 C17.9385517,65.6517428 11.3164814,63.1623347 10.6422025,62.5443209 C9.96792368,61.9263071 10.3122746,60.6387846 10.3255709,59.4000901 C10.3388672,58.1613957 12.6479492,56.2258489 13.0345177,55.9037335 L13.07011,55.8817973 C13.1382536,55.9510417 13.2929435,55.9739108 13.5341797,55.9504046 L13.952434,55.8967329 C14.8828581,55.7602895 16.2802336,55.4939613 16.406808,55.9026228 Z" id="路径" fill="#7288A2"></path>
                <path d="M11.4398752,62.4343283 C13.1019183,62.5459027 14.9953613,63.3859863 19.6047363,64.0603027 C23.1658734,64.5812699 27.1733654,64.3110974 28.8982766,64.1184608 C28.7165918,64.4689723 28.5762953,64.8085177 28.500558,65.11649 C28.4112689,65.4795684 28.0310823,65.8810504 27.4474404,66.2648197 C26.2909881,66.2326132 25.1639812,66.1756148 24.0659555,66.0960036 C18.711276,65.7077683 12.9788274,63.7576859 11.168155,62.8595642 C11.0567123,62.5773896 11.1330364,62.41373 11.4398752,62.4343283 Z" id="路径" fill="#95A6B7"></path>
                <path d="M16.406808,55.9026228 C16.5380704,56.3264199 16.1507041,56.5144366 15.6872918,56.8759909 L15.2781071,57.2234118 L15.0472025,57.4373019 C14.5891411,57.8834508 14.2056242,58.4219986 14.8337054,58.7322824 L15.1251696,58.8648944 L15.4715264,58.9967306 C16.4134846,59.3226061 17.9538776,59.6103259 20.7213309,59.6282785 C24.2267718,59.6510184 28.3580336,58.9688895 29.9739118,58.7798549 L30.5498076,58.7199912 C31.6523518,58.6244327 31.8591564,58.7509626 32.1111886,59.10226 C32.3777611,59.4738246 31.7667193,60.2907318 31.2086979,60.9203797 L31.058524,61.0869838 C30.8571285,61.306885 30.5345337,61.68584 30.1835022,62.1444137 C29.6011754,61.9662072 28.7195912,61.7722075 27.4172655,61.7572446 L26.9674072,61.7591553 C23.8790283,61.8193359 17.1132812,61.3203125 14.6723633,60.6552734 C12.2314453,59.9902344 12.7991943,57.4351734 11.6654053,57.4451904 C11.5840852,57.4459089 11.5087617,57.4372359 11.4398752,57.4197055 L11.8817549,56.9536576 C12.3956367,56.4380145 12.8762353,56.0356253 13.0345177,55.9037335 L13.07011,55.8817973 C13.1382536,55.9510417 13.2929435,55.9739108 13.5341797,55.9504046 L13.952434,55.8967329 L14.8932904,55.7573413 C15.6224689,55.6602995 16.3191796,55.6197033 16.406808,55.9026228 Z" id="路径" fill="#889DB4"></path>
                <path d="M15.8676579,55.8758326 C15.9833544,55.9172927 16.0052935,56.0244278 15.9491285,56.1314214 C15.926252,56.1750009 15.8895594,56.2237995 15.8377361,56.2809917 L15.6817578,56.436488 L15.0322379,57.0167954 C14.9276398,57.1110911 14.8355716,57.1967786 14.7524448,57.277792 L14.6340123,57.3962982 C14.3823843,57.6554343 14.2252135,57.8714496 14.1715124,58.0448431 C13.9850913,58.6467719 14.5306242,59.1397845 15.5199237,59.4287923 C16.658709,59.7614701 19.1981422,60.0073668 21.6016973,59.8990028 L22.4546848,59.8494579 C22.9111068,59.817871 23.4125022,59.776177 23.9592366,59.7248917 L25.5854197,59.5591983 L30.4783828,58.9962575 C31.0670752,58.941342 31.4149804,58.9632007 31.5910612,59.061249 C31.7307843,59.139052 31.7675379,59.2469663 31.7379991,59.3907127 L31.683473,59.5581127 L31.6598501,59.6184612 C31.6387087,59.675109 30.056524,61.4086139 29.3043044,62.4893182 C28.6274363,63.4617658 28.1932622,64.4100173 28.0007656,65.3341241 L27.9330607,65.7286918 L27.7348485,65.7020102 C27.880486,64.6200973 28.3494267,63.5110889 29.1401536,62.3750617 C29.9116477,61.2666661 31.4674034,59.5621179 31.4724741,59.548531 L31.5165841,59.4354757 C31.5618034,59.3141626 31.5577449,59.2716136 31.4937616,59.2359853 C31.3646569,59.1640951 31.046655,59.1441151 30.496959,59.1953929 L25.6069722,59.7580337 L23.9770322,59.9241018 L22.9406534,60.0139967 C22.4525168,60.052387 22.009356,60.0808268 21.6107051,60.0987999 C19.1864765,60.208096 16.6254233,59.9601057 15.463841,59.6207682 C14.3806685,59.3043368 13.7488943,58.7333857 13.9804651,57.9856745 C14.0459195,57.7743311 14.2185627,57.5370506 14.4905275,57.2569708 L14.7473329,57.0065214 L15.6080263,56.2310982 L15.684357,56.1523039 L15.764,56.05 L15.6919283,56.0286683 C15.6412805,56.0206418 15.571314,56.0263494 15.397316,56.0538602 L14.8256214,56.1506249 C14.4942643,56.2074777 14.2035973,56.2429087 13.8757573,56.2594193 C13.3768558,56.2845449 12.9494283,56.2920826 12.5931537,56.2819507 L12.8234251,56.0821102 L12.8234251,56.0821102 C13.1219172,56.0882959 13.4708748,56.0795565 13.8656977,56.0596725 C14.078372,56.0489618 14.2750538,56.0300583 14.4785632,56.0021716 L15.5825426,55.8259638 C15.7339422,55.8111451 15.7517904,55.8343113 15.8676579,55.8758326 Z" id="路径" fill="#41556D"></path>
                <path d="M50.7464324,42.5881463 C49.9507638,43.2477737 49.4124014,43.7753879 49.1313454,44.1709889 L49.0266462,44.3324498 C48.5401786,45.171317 47.2947824,46.5489676 46.1961496,47.3078962 C45.0975167,48.0668248 40.7926897,48.133231 39.3242187,48 C39.0960745,47.979301 38.8173971,48.000643 38.4881864,48.0640259 L39.1496136,47.7894241 L39.1496136,47.7894241 L39.8037861,47.5417668 C41.1475561,47.0713141 44.5932152,45.382817 46.1538928,44.7772502 L46.458019,44.6648999 C47.8198618,44.1944111 49.8392428,43.1567007 50.6560998,42.6509916 L50.7464324,42.5881463 Z" id="路径" fill="#F1F1F2"></path>
                <path d="M44.8827209,46.2668457 C44.6353149,46.5678711 44.6351624,46.8105164 44.8175049,46.9658813 C44.9998474,47.1212463 45.4472351,47.0939941 45.6486206,46.7958679 C45.8500061,46.4977417 45.7092285,46.2516785 45.5890808,46.1797485 C45.4689331,46.1078186 45.130127,45.9658203 44.8827209,46.2668457 Z" id="路径-907" fill="#646E84"></path>
                <path d="M76.7571364,40.6501653 C77.7453247,40.7061281 79.0995617,41.3511024 79.8348975,41.8034215 L80.3492094,42.3519209 C80.6720259,42.7051981 80.9502014,43.0262702 81.1565868,43.2705755 L81.169396,43.3294772 C81.2294171,43.5289213 81.6633113,44.1690956 81.8800331,44.6070463 C82.0967548,45.044997 82.1451949,45.589994 82.3135517,45.8994141 L82.5008225,46.2384353 L82.5885882,46.8691406 L82.1304124,46.1065084 C81.33334,44.8037797 80.7723086,44.0259176 80.4473183,43.772922 L80.1516177,43.5773295 C79.5016155,43.1148217 78.2490389,42.0479601 77.7179129,43.1950335 C77.1203962,44.4854911 77.1117467,47.4401507 75.7982701,48.4598214 L75.2305973,48.8956144 C74.0828114,49.7575819 72.8427934,50.5186344 71.1939174,50.4010882 C69.2702288,50.2639509 65.3505859,48.4066685 64.7205636,48.1823382 C64.0905413,47.9580078 63.3587543,48.2167969 63.1574742,46.8691406 L62.9993385,45.8695871 C62.9217149,45.4090961 62.8462575,45.0075337 62.7729663,44.6648999 L62.7688225,43.6084234 L63.1574742,43.9015925 L63.1574742,43.9015925 C65.9884315,46.0508564 67.6583534,47.9022686 70.3910006,48 C72.9935218,48.0930775 74.0241402,47.2109893 74.3293673,45.3177205 L74.3698167,45.0261418 C74.6163612,42.9319411 75.4386268,40.5754958 76.7571364,40.6501653 Z" id="路径" fill="#7F8FAD"></path>
                <path d="M82.2343052,46.1815709 C81.8505627,45.0222388 81.5012091,44.2905927 81.1862444,43.9866324 C80.7137974,43.530692 79.1583426,42.4789342 78.4242467,42.2913644 C77.6901507,42.1037946 77.0611747,42.1932896 76.8402623,43.4235491 C76.6193499,44.6538086 76.3469587,47.2197266 74.4829102,48.7611607 C72.6188616,50.3025949 70.6791295,50.1005162 69.7770647,49.9388951 C68.875,49.777274 66.3171038,48.8488421 64.9092494,48 C63.5013951,47.1511579 63.0348075,48.2474191 65.1154436,49.1706194 C67.1960798,50.0938198 69.452846,51.0779157 72.8062221,51.1074219 C76.1595982,51.136928 77.8683036,49.6552037 78.6229771,47.7117746 C79.3776507,45.7683454 79.7564174,45.1725725 80.597447,45.7128906 C81.4384766,46.2532087 82.5750558,47.7776925 82.7988281,48.1704799 C83.0226004,48.5632673 83.4801897,48.9335938 83.1142578,48 C82.8703032,47.3776042 82.5769857,46.7714611 82.2343052,46.1815709 Z" id="路径-884" fill="#EEF3F4"></path>
                <path d="M77.8991699,42.4404297 C79.1125488,42.6499023 80.5355748,43.5322155 81.2341309,44.6943359 L81.8790631,45.7515724 C82.371964,46.5785957 82.7947466,47.4071254 82.7988948,48.1704799 L82.7245675,48.0499305 C82.3876784,47.5304464 81.3683908,46.2081822 80.597447,45.7128906 C79.7564174,45.1725725 79.3776507,45.7683454 78.6229771,47.7117746 C77.9520994,49.4394133 76.5272912,50.8021865 73.8633715,51.0627916 C74.6572131,50.6141256 75.4972577,49.8863539 76.2092285,48.697998 C77.4428711,46.638916 76.685791,42.230957 77.8991699,42.4404297 Z" id="路径" fill="#DDE2E7"></path>
                <path d="M65.2890625,45.9312221 C65.5018601,47.0353888 65.3752558,47.7249814 64.9092494,48 C64.21024,48.4125279 59.789481,49.2900391 57.6304408,49.4137835 C55.4714007,49.5375279 52.891183,50.2485861 52.1364397,50.0558639 C51.3816964,49.8631417 52.5089286,48.6934989 53.0813337,48.0256696 C53.6537388,47.3578404 54.8695592,43.0742187 54.7509766,42.4640067 C54.632394,41.8537946 52.5841239,42.3557478 53.0591518,41.6944754 C53.5341797,41.0332031 55.7553013,40.4870257 57.4206194,41.0887277 C58.5308315,41.4898624 61.1536458,43.1040272 65.2890625,45.9312221 Z" id="路径-888" fill="#BAC3D0"></path>
                <path d="M57.4206194,41.0887277 C58.5308315,41.4898624 61.1536458,43.1040272 65.2890625,45.9312221 C65.5018601,47.0353888 65.3752558,47.7249814 64.9092494,48 C64.8078059,48.059868 64.6279779,48.1295291 64.3880539,48.2052582 C63.8527949,48.0762963 63.2276794,47.8759644 62.5127008,47.6057692 C58.9768066,46.2695312 58.8853785,45.6085761 56.1428846,45.1919834 C55.4795616,45.0912227 54.8812051,44.7919739 54.4061071,44.3904059 L54.5510606,43.8063702 C54.702387,43.1585686 54.7864761,42.646683 54.7509766,42.4640067 C54.6747916,42.0719679 53.8021108,42.1389853 53.3137878,42.0616651 C53.3585296,41.7519426 53.4931024,41.4651815 53.7315603,41.2249026 C54.6386302,40.8283441 56.1830895,40.6415913 57.4206194,41.0887277 Z" id="路径" fill="#8592A5"></path>
                <path d="M63.3454159,44.6173837 L65.3836281,46.6545837 C65.4215405,47.3425138 65.2634142,47.7909859 64.9092494,48 L64.8566509,48.0245586 L64.2709251,47.8065116 C63.7419354,47.6028462 63.3831537,47.4423261 63.1945801,47.3249512 C62.8258154,47.0954189 62.8116333,46.1497969 63.1520338,44.4880853 L63.3454159,44.6173837 L63.3454159,44.6173837 Z" id="路径" fill="#A3B3CA"></path>
                <path d="M58.2028809,47.1845703 C58.1724545,45.4499667 61.4760742,46.0637207 62.1387732,46.4287516 L62.9979198,46.9234213 C63.5427758,47.2307598 64.9589568,47.9706647 64.9092494,48 C64.3982275,48.301585 61.8980901,48.8516837 59.7467175,49.1741019 C58.9157031,48.6822366 58.2172698,48.0048821 58.2028809,47.1845703 Z" id="路径" fill="#C4CCD7"></path>
                <path d="M80.6861747,42.9949079 C79.7989444,42.4419875 78.9984189,42.0619652 78.2845982,41.854841 C77.2138672,41.5441546 76.9195731,41.4740513 76.7456752,41.6025391 C76.5717773,41.7310268 76.0389927,42.4010184 75.9349191,42.7912249 C75.8308454,43.1814314 75.8663504,44.5018136 75.4633789,45.8074777 C75.0604074,47.1131417 74.3410882,48.3759766 72.6787054,48.9910714 C71.0163225,49.6061663 69.4543108,49.4550084 67.6399972,48.7325614 C65.8256836,48.0101144 63.4388839,46.3947405 62.6681083,46.03125 C61.8973326,45.6677595 58.1947545,43.6502511 57.4100167,43.3856027 C56.625279,43.1209542 54.8699777,41.6371373 53.937221,41.854841 C53.0044643,42.0725446 52.4497768,42.8184989 52.202846,42.9949079 C51.9559152,43.171317 51.1651088,43.3581194 50.9010882,43.6585519 C50.6370675,43.9589844 49.8108956,44.3810686 49.6338588,44.3463309 C49.456822,44.3115932 49.4776786,43.7875977 50.0940988,43.3820452 C50.710519,42.9764927 52.9432896,41.1907785 54.3913923,40.932966 C55.839495,40.6751535 58.4621931,41.3484933 61.2142857,43.2728795 C63.9663783,45.1972656 67.1187221,47.6948068 68.046596,48.0640259 C68.9744699,48.433245 71.6980329,49.0217634 73.2508371,47.9512416 C74.8036412,46.8807199 74.8819057,45.2836217 75.0225307,44.3463309 C75.1631557,43.4090402 75.5645926,41.3992048 76.4587054,41.1456473 C77.3528181,40.8920898 78.8763951,41.6134905 79.3738839,41.8824637 C79.6308283,42.0213837 80.1287143,42.2795034 80.5126256,42.648298 C80.5870486,42.7197906 80.6448983,42.8353273 80.6861747,42.9949079 Z" id="路径-889" fill="#454C65"></path>
                <path d="M56.6269531,40.4633413 L57.6027174,40.7805516 C59.7016574,41.4860335 60.6803866,42.0209867 63.1574742,43.9015925 C65.9884315,46.0508564 67.6583534,47.9022686 70.3910006,48 C72.9935218,48.0930775 74.0241402,47.2109893 74.3293673,45.3177205 L74.3698167,45.0261418 C74.6163612,42.9319411 75.4386268,40.5754958 76.7571364,40.6501653 C78.075646,40.7248347 80.0458233,41.848107 80.3280499,42.1632362 C80.4731664,42.3252707 80.5791821,42.4590484 80.6460971,42.5645693 L80.742481,42.8502145 C80.7793445,42.9682255 80.7992264,43.0491825 80.8021763,43.0938198 C80.6817801,43.0989118 80.2421177,42.6883371 79.7861328,42.4213867 C79.3301479,42.1544364 77.5267857,41.3729771 76.9213867,41.4288504 C76.3159877,41.4847238 76.2250279,41.914202 75.9432199,42.4213867 C75.6614118,42.9285714 75.6456473,43.9753773 75.5780552,44.6648999 L75.5395321,44.9862132 C75.4134049,45.8704932 74.9951302,47.6136649 73.4768624,48.4737723 C71.7416992,49.4567522 69.9720982,49.3935547 67.9895368,48.6873605 C66.0069754,47.9811663 62.942034,45.402553 61.374442,44.3740234 L60.6000367,43.8794847 C59.1006326,42.9463662 57.2382115,41.9221218 56.2522321,41.7047991 C55.0869838,41.4479632 54.0665458,41.4049247 53.5682199,41.7047991 C53.069894,42.0046735 51.8672573,42.9091099 51.4318499,43.1898717 C50.9964425,43.4706334 50.0095564,43.9824916 49.7486747,44.1103516 C49.487793,44.2382115 49.1896624,43.7850167 49.3069196,43.4700753 C49.3180497,43.4401812 49.3487786,43.3999015 49.3967054,43.3505885 L49.9807439,43.0400437 C50.2498305,42.8927119 50.4806905,42.759586 50.6560998,42.6509916 C51.4729567,42.1452825 53.8013071,39.5660306 56.6269531,40.4633413 Z" id="路径" fill="#F2F4F5"></path>
                <path d="M78.5177002,41.2440186 C79.4301582,41.718958 80.3969537,42.3064119 80.6679071,42.6173351 L80.742481,42.8502145 C80.7793445,42.9682255 80.7992264,43.0491825 80.8021763,43.0938198 C80.6817801,43.0989118 80.2421177,42.6883371 79.7861328,42.4213867 C79.3301479,42.1544364 77.5267857,41.3729771 76.9213867,41.4288504 C76.3159877,41.4847238 76.2250279,41.914202 75.9432199,42.4213867 C75.6614118,42.9285714 75.6456473,43.9753773 75.5780552,44.6648999 L75.5395321,44.9862132 C75.4134049,45.8704932 74.9951302,47.6136649 73.4768624,48.4737723 C71.7416992,49.4567522 69.9720982,49.3935547 67.9895368,48.6873605 C66.0069754,47.9811663 62.942034,45.402553 61.374442,44.3740234 L60.6000367,43.8794847 L59.8258214,43.4094893 C58.5041712,42.6273659 57.0738816,41.8859014 56.2522321,41.7047991 C55.0869838,41.4479632 54.0665458,41.4049247 53.5682199,41.7047991 C53.069894,42.0046735 51.8672573,42.9091099 51.4318499,43.1898717 C50.9964425,43.4706334 50.0095564,43.9824916 49.7486747,44.1103516 C49.487793,44.2382115 49.1896624,43.7850167 49.3069196,43.4700753 C49.3297181,43.6880114 49.4170935,43.8570603 49.7387695,43.7362061 L50.440276,43.4668737 C50.938775,43.263387 51.4370931,43.0182699 51.564209,42.7689209 C51.7548828,42.3948975 51.418335,42.348397 51.564209,42.1012615 C51.6892439,41.889431 52.0780403,41.6263491 52.5248112,41.5239114 L52.7520752,41.4870605 C53.2891846,41.4368896 53.9500732,40.9356689 55.2425537,40.8843994 C56.5350342,40.8331299 59.5350342,41.869873 62.0153809,43.5469971 C64.4957275,45.2241211 66.0244141,46.9344482 67.5657959,47.8115234 C69.1071777,48.6885986 71.2943115,49.2116604 72.717041,48.4365234 C74.1397705,47.6613865 74.9278564,46.8672601 74.9093018,45.3260861 C74.8907471,43.7849121 75.2116699,41.7164307 76.0371094,41.2198486 C76.8625488,40.7232666 77.571167,40.7513428 78.5177002,41.2440186 Z" id="路径" fill="#C4C7D0"></path>
                <path d="M53.1189904,62.6080228 C50.108774,62.9801683 46.8808594,62.6983173 45.7001202,61.7527043 C44.519381,60.8070913 44.8072416,59.6201923 46.0588942,57.050631 C47.3105469,54.4810697 48.984976,51.1856971 51.6158353,50.4238281 C54.2466947,49.6619591 57.1548978,50.026893 62.3856671,52.0491286 C67.6164363,54.0713642 69.2444411,54.9917368 69.0395132,56.0351563 C68.8345853,57.0785757 67.6642127,58.2707332 66.0159255,59.0698618 C64.3676382,59.8689904 56.1292067,62.2358774 53.1189904,62.6080228 Z" id="路径-886" fill="#EAEDF2"></path>
                <path d="M62.3856671,52.0491286 L63.8953031,52.6427001 C67.9336497,54.2631029 69.2232417,55.0996767 69.0395132,56.0351562 C68.8994882,56.7481134 68.3087125,57.530514 67.4227164,58.2095252 C67.1410682,58.4106621 66.5039876,58.5705566 65.5114746,58.689209 C64.0227051,58.8671875 59.4879654,59.4263789 57.1196289,59.9086914 C54.0953608,60.5245846 50.111084,61.6943359 47.2952727,62.4343283 C46.6149981,62.2695042 46.0616146,62.0422126 45.7001202,61.7527043 C44.519381,60.8070913 44.8072416,59.6201923 46.0588942,57.050631 C46.4994885,56.1461196 46.9924695,55.1516721 47.5611141,54.2094532 C51.679535,53.7445761 55.8952796,52.7611575 60.20664,51.2611698 C60.8845778,51.4855195 61.609557,51.7490815 62.3856671,52.0491286 Z" id="路径" fill="#E1E5EC"></path>
                <path d="M63.7976851,52.602656 L64.8123832,53.0169992 C68.1305551,54.3975877 69.2085434,55.1745151 69.0395132,56.0351562 C69.003084,56.220641 68.9361458,56.4108261 68.8414375,56.602668 C66.1749144,56.4574768 62.4173857,56.6044142 58.1633301,57.3549805 C52.4401855,58.3647461 46.9642052,61.3813852 45.7001202,61.7527043 C44.5269176,60.8131272 44.8036266,59.6353344 46.0350443,57.0996667 C49.4157449,56.8806094 59.9578655,53.9807057 63.7976851,52.602656 Z" id="路径" fill="#DBE0E7"></path>
                <path d="M50.0265503,54.3526001 C49.7157244,54.5145002 48.7888794,56.0209351 48.6040039,57.1755371 C48.4191284,58.3301392 48.6969604,59.4589844 49.6525879,59.7266846 C50.6082153,59.9943848 51.8514753,59.7768032 54.9488525,58.3226318 C58.0462298,56.8684605 62.0128174,54.5454102 62.5250244,54.2954712 C63.0372314,54.0455322 62.7732879,53.2473891 62.3594971,53.3966675 C61.9457063,53.5459459 56.3816528,55.3868757 55.3010167,55.7362061 C54.2203805,56.0855364 52.0390974,56.9536656 51.1496582,56.4307861 C50.260219,55.9079067 50.5787354,54.7044678 50.5563354,54.5120239 C50.5339355,54.3195801 50.3373762,54.1907 50.0265503,54.3526001 Z" id="路径-887" fill="#CED1D2"></path>
                <path d="M50.0265503,54.3526001 C49.7157244,54.5145002 48.8744507,56.0046387 48.7592773,57.0084229 C48.644104,58.012207 48.7497733,59.2006487 49.6783447,59.392334 C50.6069162,59.5840193 51.7167271,59.377703 54.8141044,57.9235317 C57.9114816,56.4693604 62.078064,54.3459473 62.590271,54.0960083 C63.102478,53.8460693 62.7732879,53.2473891 62.3594971,53.3966675 C61.9457063,53.5459459 56.3816528,55.3868757 55.3010167,55.7362061 C54.2203805,56.0855364 52.0390974,56.9536656 51.1496582,56.4307861 C50.260219,55.9079067 50.5787354,54.7044678 50.5563354,54.5120239 C50.5339355,54.3195801 50.3373762,54.1907 50.0265503,54.3526001 Z" id="路径-887" fill="#AAB7BE"></path>
                <path d="M50.1201869,54.3989955 C49.809361,54.5608956 49.0517578,55.9004604 48.8747907,56.7814593 C48.6978237,57.6624581 48.8881138,59.0128348 49.8166853,59.2045201 C50.7452567,59.3962054 51.6972656,59.1930804 54.7946429,57.738909 C57.8920201,56.2847377 62.3113142,54.1381208 62.6192104,53.9453823 C62.9271066,53.7526437 62.7310965,53.3467494 62.3962054,53.4675642 C62.0613142,53.5883789 56.3547015,55.5181362 55.2740653,55.8674665 C54.1934291,56.2167969 51.9504743,57.0392718 51.0610352,56.5163923 C50.171596,55.9935128 50.4919085,54.7409319 50.5058594,54.6065151 C50.5198103,54.4720982 50.4310128,54.2370954 50.1201869,54.3989955 Z" id="路径-887" fill="#E1E6E9"></path>
                <path d="M62.3962054,53.4675642 C62.7310965,53.3467494 62.9271066,53.7526437 62.6192104,53.9453823 L62.3567649,54.0860737 C61.3090766,54.624275 57.5346304,56.4525267 54.7946429,57.738909 L53.9276688,58.1384853 C51.5070982,59.2297573 50.6523996,59.3770368 49.8166853,59.2045201 C49.7277107,59.186153 49.6455144,59.1571477 49.56977,59.1189365 C50.3593214,59.0156299 51.2420074,58.6739065 52.2184448,58.0942993 C53.3719188,57.4096043 54.248231,56.6373532 54.9130972,55.9856236 L61.2940532,53.844393 C61.8930272,53.6410304 62.3124826,53.4977679 62.3962054,53.4675642 Z" id="路径" fill="#D3DBDE"></path>
                <path d="M62.1119908,47.0385443 C62.0300293,47.350282 61.7701242,47.8234863 59.3469238,48.1945801 C56.9237235,48.5656738 51.8319266,48.7293876 50.3227888,48.6313825 C48.8136509,48.5333775 48.7227609,47.8563407 49.0316336,47.02982 C49.3405064,46.2032994 51.3473075,43.6408343 52.5265067,42.8902762 C53.7057059,42.1397182 55.16476,41.8441685 56.5017439,42.3602121 C57.8387277,42.8762556 59.9023438,44.0785435 60.8924386,44.8786272 C61.8825335,45.6787109 62.1939523,46.7268066 62.1119908,47.0385443 Z" id="路径-890" fill="#7B8694"></path>
                <path d="M62.1266741,46.6619748 C62.0447126,46.9737125 61.7848075,47.4469169 59.3616071,47.8180106 C56.9384068,48.1891044 51.8466099,48.3528181 50.3374721,48.2548131 C48.8283343,48.156808 48.7374442,47.4797712 49.046317,46.6532506 C49.3551897,45.8267299 51.3473075,43.6408343 52.5265067,42.8902762 C53.7057059,42.1397182 55.16476,41.8441685 56.5017439,42.3602121 C57.8387277,42.8762556 59.9023438,44.0785435 60.8924386,44.8786272 C61.8825335,45.6787109 62.2086356,46.3502372 62.1266741,46.6619748 Z" id="路径-890" fill="#F1F1F2"></path>
                <path d="M56.5017439,42.3602121 C57.8387277,42.8762556 59.9023438,44.0785435 60.8924386,44.8786272 C61.5871531,45.4400176 61.9549619,45.9381148 62.0842765,46.2930396 L61.4620271,45.8269127 C59.8959961,44.8009033 58.4118708,43.9237565 57.3166504,43.4561768 C55.7957826,42.8068764 54.4351403,42.4726725 53.4193418,42.4302854 C54.4034846,42.0442895 55.4877234,41.9688246 56.5017439,42.3602121 Z" id="路径" fill="#D9DCE4"></path>
                <path d="M58.5503278,46.0563442 C58.638637,45.6848319 57.9186663,44.1575753 56.828404,43.6229771 C55.7381417,43.0883789 54.7529994,42.7929688 54.0528739,42.988072 C53.3527483,43.1831752 52.7147391,43.9500384 51.7777972,45.1028704 C50.8408552,46.2557024 51.3997977,46.9591064 51.8723145,47.038208 C52.3448312,47.1173096 56.5639997,46.8805629 57.2845633,46.7995082 C58.005127,46.7184535 58.4620187,46.4278564 58.5503278,46.0563442 Z" id="路径-891" fill="#9AA0AD"></path>
                <path d="M58.5271345,45.8013393 C58.6154436,45.429827 57.9186663,44.1575753 56.828404,43.6229771 C55.7381417,43.0883789 54.7529994,42.7929688 54.0528739,42.988072 C53.3527483,43.1831752 52.6915458,43.6950335 51.7546038,44.8478655 C50.8176618,46.0006975 51.3766044,46.7041016 51.8491211,46.7832031 C52.3216378,46.8623047 56.5408064,46.625558 57.26137,46.5445033 C57.9819336,46.4634487 58.4388253,46.1728516 58.5271345,45.8013393 Z" id="路径-891" fill="#607194"></path>
                <path d="M58.5638951,45.4309431 C58.6522042,45.0594308 57.9186663,44.1575753 56.828404,43.6229771 C55.7381417,43.0883789 54.7529994,42.7929688 54.0528739,42.988072 C53.3527483,43.1831752 52.6915458,43.6950335 51.7546038,44.8478655 C50.8176618,46.0006975 51.413365,46.3337054 51.8858817,46.4128069 C52.3583984,46.4919085 56.577567,46.2551618 57.2981306,46.1741071 C58.0186942,46.0930525 58.4755859,45.8024554 58.5638951,45.4309431 Z" id="路径-891" fill="#8CA7C0"></path>
                <path d="M54.4147644,44.1733398 C54.1702271,44.3968506 54.1471558,44.6658325 54.2966919,44.8103027 C54.446228,44.9547729 54.8139038,45.0234375 55.1038208,44.7555542 C55.3937378,44.4876709 55.1488342,44.0950623 55.0286865,44.0231323 C54.9085388,43.9512024 54.6593018,43.9498291 54.4147644,44.1733398 Z" id="路径-907" fill="#38435C"></path>
                <path d="M57.1966918,43.824874 C58.0794887,44.3619095 58.6418426,45.1030216 58.5638951,45.4309431 C58.4755859,45.8024554 58.0186942,46.0930525 57.2981306,46.1741071 L56.6296136,46.2289727 C55.2051264,46.3288834 52.2750131,46.4779494 51.8858817,46.4128069 L51.7061476,46.3701367 C51.2883868,46.2376437 50.9347796,45.8565935 51.7546038,44.8478655 C52.0342224,44.5038172 52.2892823,44.2168572 52.5281473,43.9783676 C52.1269168,45.1266931 52.1418654,45.7031549 52.5734863,45.7071533 C53.324585,45.7141113 55.5562744,45.4466553 56.9221191,45.2889404 C57.6505697,45.2048258 57.7986556,44.8031331 57.366377,44.0838623 L57.1966918,43.824874 Z" id="路径" fill="#A6B9CB"></path>
                <path d="M54.0526123,43.1086426 C54.7527379,42.9135393 55.6294033,43.2182094 56.7196655,43.7528076 C57.8099278,44.2874058 58.4358433,45.0556728 58.3475342,45.4271851 C58.259225,45.7986973 57.9847238,45.9395752 57.2641602,46.0206299 L56.6118407,46.0767238 C55.2343862,46.1802013 52.4375323,46.3393734 52.0484009,46.274231 L51.8705914,46.238445 C51.4614038,46.1366186 51.1420898,45.8782349 51.9619141,44.8695068 L52.4294281,44.3109302 C53.0719612,43.5737197 53.4797823,43.2682725 54.0526123,43.1086426 Z M56.6316134,43.9323816 C55.5986429,43.4258758 54.9027805,43.2066636 54.3639048,43.2548827 C54.2739406,43.2629328 55.59021,44.2243652 54.8413086,44.7589111 C54.0924072,45.293457 53.2298584,43.8146973 52.7803057,44.2191424 C52.5556347,44.4212701 52.3717963,44.6822873 52.1171193,44.9956469 C51.7284804,45.4738361 51.609103,45.7685634 51.6620455,45.8995923 C51.6934974,45.9774332 51.8212708,46.0334252 52.0814223,46.0769758 C52.4348761,46.1361457 55.8316163,45.954996 57.0417956,45.8421635 L57.2418036,45.8218834 C57.8966286,45.7482235 58.0905822,45.6433357 58.1529557,45.3809334 C58.2204008,45.0971953 57.5703645,44.392688 56.6316134,43.9323816 Z" id="z-z-z" fill="#4A5B7A" fill-rule="nonzero"></path>
                <path d="M41.9528809,50.7211914 C43.5214168,49.8506789 43.7994929,49.3060012 42.7871094,49.0871582 C41.268534,48.7588937 38.8337751,48.8858203 37.9245954,49.2152665 C37.0154157,49.5447126 34.1308594,51.0132533 33.2514648,51.9472656 C32.3720703,52.8812779 32.8781738,53.3920201 34.5224958,53.0840541 C35.6187105,52.8787435 38.0955055,52.0911226 41.9528809,50.7211914 Z" id="路径-892" fill="#7B8694"></path>
                <path d="M42.027274,50.3953683 C43.4968886,49.6371838 43.7255041,49.14867 42.7131206,48.929827 C41.1945452,48.6015625 38.8337751,48.8858203 37.9245954,49.2152665 C37.0154157,49.5447126 34.1308594,51.0132533 33.2514648,51.9472656 C32.3720703,52.8812779 32.952567,53.066197 34.596889,52.758231 C35.6931036,52.5529204 38.1698986,51.7652995 42.027274,50.3953683 Z" id="路径-892" fill="#F1F1F2"></path>
                <path d="M37.776062,50.087616 C37.528656,50.3886414 37.4463119,50.6816101 37.6850891,50.8534546 C37.9238663,51.0252991 38.4479065,50.9642944 38.6681824,50.6267395 C38.8884583,50.2891846 38.7180176,50.0980835 38.5978699,50.0261536 C38.4777222,49.9542236 38.023468,49.7865906 37.776062,50.087616 Z" id="路径-907" fill="#646E84"></path>
                <path d="M37.0993652,71.8101807 C37.9055176,71.8010864 41.6465454,71.8986206 42.944397,71.7885132 C44.2422485,71.6784058 41.2404785,69.9920552 39.8560791,70.0595703 C38.4716797,70.1270854 36.2932129,71.8192749 37.0993652,71.8101807 Z" id="路径-910" fill="#38474F"></path>
                <path d="M83.8639788,58.7630441 C84.0718471,58.7910156 84.6628069,59.0691964 84.6312081,59.6767578 C84.5996094,60.2843192 84.4034598,61.3797433 84.8828125,62.6863839 C85.3621652,63.9930246 86,65.956264 86,67 C86,68.043736 85.8661589,69.0454799 84.4523317,70.0295759 C83.0385045,71.0136719 79.7936663,72 76,72 C72.2063337,72 66.1410435,72 64.0605469,72 C61.9800502,72 58.0043248,71.6788504 56.7071708,71.6664342 C55.4100167,71.6540179 43.4030413,71.9803292 43.0682199,72 C42.8450056,72.0131138 42.6778506,71.9019252 42.566755,71.6664342 C42.1443685,71.7597191 41.8081985,71.7597191 41.558245,71.6664342 C41.1833147,71.5265067 40.7537667,70.8535854 39.983817,70.9086914 C39.2138672,70.9637974 38.6600865,71.4705636 38.4504046,71.5364816 C38.3106166,71.5804269 38.0252279,71.6237444 37.5942383,71.6664342 C37.5292271,71.8888114 37.4609142,72 37.3892997,72 C37.2818778,72 31.7850167,72 31.0913086,72 C30.3976004,72 27.2447684,71.7878767 24.690918,70.9086914 C24.6217215,70.5652204 24.7049386,70.5063477 24.5743583,70.4321289 C24.4437779,70.3579102 23.699986,69.8997628 23.3714425,69.7830636 C23.042899,69.6663644 21.5799386,69.0254604 21.3586775,68.9760742 C21.1374163,68.9266881 21.1043527,69.1175363 20.7038923,68.9760742 C20.3034319,68.8346122 19.9782366,68.8948103 19.8242188,68.9760742 C19.6702009,69.0573382 19.5341797,69.0602679 19.0801479,68.8448661 C18.6261161,68.6294643 14.2797154,66.3919503 12.2587193,65.2774833 C10.2377232,64.1630162 10,61.7972238 10,60.8427037 C10,59.8881836 10.284389,58.5535014 10.4132952,58.4827009 C10.5422015,58.4119004 10.922154,59.0484096 10.86363,59.4718192 C10.805106,59.8952288 10.6625977,60.6085379 10.7110073,61.1697126 C10.7432803,61.5438291 10.7557082,61.8013277 10.748291,61.9422084 C13.912772,63.3299037 16.9659947,64.1774902 19.907959,64.4849679 C24.3209054,64.9461844 27.1388463,64.9797318 27.9856655,64.9940686 C28.8324847,65.0084054 32.3407157,65.0600563 33.9047503,64.8723842 C35.4687849,64.6847121 41.3252479,64.4318848 51.8333217,62.1025739 C62.3413955,59.7732631 66.3418318,58.6760951 67.7263184,58.4358608 C69.110805,58.1956264 72.1533552,58.0148228 75.3022112,58.579834 C78.4510672,59.1448451 80.1523786,59.9274205 81.8635254,59.6682129 C83.5746722,59.4090053 83.7643694,58.9431501 83.8639788,58.7630441 Z" id="路径-893" fill="#646875"></path>
                <path d="M83.8639788,58.7630441 C84.0718471,58.7910156 84.6628069,59.0691964 84.6312081,59.6767578 C84.5996094,60.2843192 84.4034598,61.3797433 84.8828125,62.6863839 C85.3621652,63.9930246 86,65.956264 86,67 C86,68.043736 85.8661589,69.0454799 84.4523317,70.0295759 C83.0385045,71.0136719 79.7936663,72 76,72 C72.2063337,72 66.1410435,72 64.0605469,72 C61.9800502,72 58.0043248,71.6788504 56.7071708,71.6664342 C55.4100167,71.6540179 43.4030413,71.9803292 43.0682199,72 C42.8450056,72.0131138 42.6778506,71.9019252 42.566755,71.6664342 C42.1443685,71.7597191 41.8081985,71.7597191 41.558245,71.6664342 C41.1833147,71.5265067 40.7537667,70.8535854 39.983817,70.9086914 C39.2138672,70.9637974 38.6600865,71.4705636 38.4504046,71.5364816 C38.3106166,71.5804269 38.0252279,71.6237444 37.5942383,71.6664342 C37.5292271,71.8888114 37.4609142,72 37.3892997,72 C37.2818778,72 31.7850167,72 31.0913086,72 C30.3976004,72 27.2447684,71.7878767 24.690918,70.9086914 C24.6217215,70.5652204 24.7049386,70.5063477 24.5743583,70.4321289 C24.4437779,70.3579102 23.699986,69.8997628 23.3714425,69.7830636 C23.042899,69.6663644 21.5799386,69.0254604 21.3586775,68.9760742 C21.1374163,68.9266881 21.1043527,69.1175363 20.7038923,68.9760742 C20.3034319,68.8346122 19.9782366,68.8948103 19.8242188,68.9760742 C19.6702009,69.0573382 19.5341797,69.0602679 19.0801479,68.8448661 C18.6261161,68.6294643 14.2797154,66.3919503 12.2587193,65.2774833 C10.2377232,64.1630162 10,61.7972238 10,60.8427037 C10,59.8881836 10.284389,58.5535014 10.4132952,58.4827009 C10.5422015,58.4119004 10.922154,59.0484096 10.86363,59.4718192 C10.805106,59.8952288 10.6625977,60.6085379 10.7110073,61.1697126 C10.7432803,61.5438291 10.7941546,61.8830218 10.86363,62.1872907 C14.028111,63.574986 17.0813337,64.4225725 20.023298,64.7300502 C24.4362444,65.1912667 27.2541853,65.2248141 28.1010045,65.2391509 C28.9478237,65.2534877 32.4560547,65.3051386 34.0200893,65.1174665 C35.5841239,64.9297944 41.4405869,64.6769671 51.9486607,62.3476562 C62.4567345,60.0183454 66.4571708,58.9211775 67.8416574,58.6809431 C69.226144,58.4407087 72.2686942,58.2599051 75.4175502,58.8249163 C78.5664063,59.3899275 80.2677176,60.1725028 81.9788644,59.9132952 C83.6900112,59.6540876 83.7643694,58.9431501 83.8639788,58.7630441 Z" id="路径-893" fill="#E8E8EA"></path>
                <path d="M60.3021334,63.5055506 C56.6850586,63.6376953 55.0599664,64.379574 51.7070312,65.1137695 C48.3540961,65.847965 45.4550781,66.7430069 38.0947266,67.1870117 C30.734375,67.6310165 25.18058,66.9674756 22.3461914,66.5317383 C19.5118028,66.0960009 12.9414062,64.0324707 13.9570312,64.9570313 C14.9726562,65.8815918 19.6825282,67.794165 20.3540039,67.9353027 C21.0254797,68.0764404 22.1458653,67.386956 23.3457031,67.965332 C24.5455409,68.5437081 25.2963867,69.167456 26.1943359,69.4414062 C27.0922852,69.7153565 34.5753833,69.9272392 37.0258789,69.6899414 C38.296875,69.7426758 38.8774414,68.9116211 40.1420898,68.7485352 C41.4067383,68.5854492 42.2592773,69.4516602 43.3974609,69.2368164 C44.5356445,69.0219727 55.2812315,66.8633683 57.8916016,66.6987305 C60.5019717,66.5340927 81.6009635,67.3183341 82.7988948,66.8311641 C83.9968262,66.3439941 85.0912232,65.59828 83.6046936,64.7879095 C82.1181641,63.9775391 80.0532668,63.049355 77.6811744,62.7666209 C75.309082,62.4838867 63.9192082,63.3734059 60.3021334,63.5055506 Z" id="路径-909" fill="#F0F0F0"></path>
                <path d="M84.6312081,59.6767578 L84.581022,60.3478165 C84.5427148,60.9605831 84.5472656,61.7717355 84.8828125,62.6863839 C85.3621652,63.9930246 86,65.956264 86,67 C86,67.2660638 85.9913028,67.5293988 85.9549228,67.7904084 L85.5321645,67.9157197 C84.0492473,68.3244654 81.3382312,68.8123614 81.435791,68.406007 C81.5584717,67.8950195 83.9854736,67.6467285 84.7701416,66.2585449 C85.5548096,64.8703613 84.0421143,64.0620117 82.8537598,63.614502 C82.0615234,63.3161621 80.5200195,62.8730469 78.229248,62.2851562 C77.1884409,61.8808594 75.5389861,61.6155192 73.2808838,61.4891357 C69.8937303,61.2995605 65.1848145,63.0499268 59.6025391,63.8173828 C54.0202637,64.5848389 49.6577148,63.2595215 49.7583008,62.8494873 C49.7811248,62.756446 54.4924033,61.8689426 55.1252216,61.6362068 L60.851332,60.3164638 C61.9015322,60.0692303 62.8124514,59.8518233 63.6018856,59.6625054 L64.1188309,59.6718994 C65.5252783,59.6642002 67.36604,59.451548 68.8702393,59.32063 C70.6251383,59.1678923 74.5166629,59.410047 76.422461,59.7438328 L77.3990635,59.9407083 C78.197245,60.0943408 78.1010301,60.0042596 78.8450273,59.9995744 L80.074125,60.0253881 C81.5622657,60.0423872 83.23882,59.9514323 83.6046936,59.8166504 C83.9143943,59.7025617 84.3294478,59.500835 84.5368943,59.2549902 C84.6022557,59.3703021 84.6398125,59.5113186 84.6312081,59.6767578 Z" id="路径" fill="#DEDFE3"></path>
                <path d="M86,67 C86,67.2660638 85.9913028,67.5293988 85.9549228,67.7904084 L85.5321645,67.9157197 C84.5158763,68.1958455 82.9227775,68.5131465 82.0522106,68.5543001 C82.0866212,68.5283304 82.1273195,68.504236 82.1733398,68.4825439 C83.714936,67.7559006 85.2745361,67.248291 85.8027344,66.6639404 C85.8660988,66.5938398 85.915795,66.5132901 85.9540428,66.4255052 C85.983265,66.6377478 86,66.8309365 86,67 Z M76.1433105,59.2701416 L79.3806829,60.1403383 C79.808506,60.2237793 80.1668947,60.287935 80.4345703,60.3227539 L81.0504632,60.392317 C82.4156897,60.5194855 83.9307567,60.4565055 84.6146861,59.4806309 L84.6251053,59.519507 C84.6318154,59.5691786 84.6340763,59.6216114 84.6312081,59.6767578 L84.581022,60.3478165 C84.5427148,60.9605831 84.5472656,61.7717355 84.8828125,62.6863839 L85.1921633,63.5633929 C85.2447641,63.7188955 85.2973066,63.8779183 85.3489214,64.0387407 C84.1329481,63.0477772 81.2661021,62.4821346 79.4274141,62.1651608 L79.0225722,62.0963468 C76.9384766,61.7460938 72.7905273,60.7608918 70.5761719,61.0214844 C68.3618164,61.2820769 63.2332799,62.4336324 61.2025774,62.7666209 L60.9194394,62.8055936 C58.7676778,63.0528347 54.1580294,62.6086281 58.5800116,61.3389469 L58.9033203,61.2490234 C61.2383353,60.6189958 63.3633394,60.0546844 65.2597523,59.6292491 C67.1561653,59.2038139 68.673699,58.9268627 69.7983398,58.8289795 C71.5532389,58.6762418 74.2375124,58.9363557 76.1433105,59.2701416 Z" id="形状" fill="#D0D1D8"></path>
                <path d="M67.7626953,59.8818359 C64.3334961,60.1848145 61.0474854,60.887207 59.5247803,61.4234619 C58.0020752,61.9597168 59.8405762,62.1676025 61.3253174,62.0750732 C62.8100586,61.9825439 67.3601815,60.5499743 68.6970585,60.4034661 C70.0339355,60.256958 71.1918945,59.5788574 67.7626953,59.8818359 Z" id="路径-902" fill="#DEDFE3"></path>
                <path d="M61.3741455,63.8370361 C59.2287598,64.3044434 55.1136147,65.6397912 55.794112,64.8125103 C56.4746094,63.9852295 59.8929443,62.8759766 61.3428955,62.4746094 C62.7928467,62.0732422 67.0018966,60.7561273 69.4822998,60.4938965 C71.962703,60.2316657 73.7945557,60.0638428 76.1479492,61.244873 C78.5013428,62.4259033 75.041582,62.1392269 73.0265893,62.0963468 C71.0115967,62.0534668 63.5195313,63.3696289 61.3741455,63.8370361 Z" id="路径-903" fill="#7A7A7A"></path>
                <path d="M10.4132952,58.4827009 C10.5422015,58.4119004 10.922154,59.0484096 10.86363,59.4718192 L10.7706825,60.0907723 C10.7216462,60.4415346 10.6819615,60.8330078 10.7110073,61.1697126 L10.746,61.5132642 L10.7327706,61.6543666 C10.635224,62.9992925 11.4625427,63.9381765 12.5445655,64.6198014 L12.7984794,64.7726004 L13.3324838,65.0702689 C13.839191,65.3464693 14.4818938,65.6841681 15.1236198,66.0169146 L18.4717414,67.7269856 C19.2060656,68.0937073 20.1487355,68.5533305 20.4065988,68.6421596 C20.7611607,68.7642997 20.9888393,68.7402344 21.6714565,68.5861468 C22.3540737,68.4320592 22.9381278,68.6065151 23.3582589,68.8947405 C23.7783901,69.182966 24.0408761,69.9236886 24.4512416,70.104841 C25.4391044,70.4649135 29.2481864,71.184361 29.9162946,71.184361 L38.1441807,71.1922551 C38.232523,71.1900447 38.2863007,71.1874302 38.2997349,71.184361 C38.4810965,71.1429269 39.2656948,70.4728655 39.996861,70.4501953 C40.7280273,70.4275251 41.0544782,70.6738281 41.3687221,70.9109235 C41.682966,71.148019 41.9701451,71.2046596 42.4964425,71.184361 L44.5383464,71.0284885 C46.2711439,70.8860573 48.5140904,70.6913879 48.9008092,70.6462751 L49.8630327,70.5028795 C50.8485846,70.3462065 52.283518,70.1071291 53.1934173,69.9755234 L56.8702743,69.4759226 L56.8702743,69.4759226 L57.5599669,69.3996263 C58.4426508,69.3487371 65.7818276,69.0536049 79.5774972,68.5142299 C79.6493443,68.5815662 79.7903413,68.6242094 80.0004883,68.6421596 L80.2564141,68.6543169 C80.6444871,68.65899 81.3457828,68.6120556 82.7696708,68.3566546 C83.7361886,68.1832915 84.6565755,67.939854 85.5308315,67.6263421 L85.9881038,67.4507932 C85.93441,68.3334464 85.6614542,69.1879649 84.4523317,70.0295759 C83.0385045,71.0136719 79.7936663,72 76,72 L64.0605469,72 C62.1100813,72 58.4938872,71.7177397 56.98066,71.6722264 L56.3840652,71.6675034 C54.0759041,71.6903093 43.3839086,71.9814533 43.0682199,72 C42.8450056,72.0131138 42.6778506,71.9019252 42.566755,71.6664342 C42.1443685,71.7597191 41.8081985,71.7597191 41.558245,71.6664342 C41.1833147,71.5265067 40.7537667,70.8535854 39.983817,70.9086914 C39.2138672,70.9637974 38.6600865,71.4705636 38.4504046,71.5364816 C38.3106166,71.5804269 38.0252279,71.6237444 37.5942383,71.6664342 C37.5292271,71.8888114 37.4609142,72 37.3892997,72 L31.0913086,72 C30.3976004,72 27.2447684,71.7878767 24.690918,70.9086914 C24.6217215,70.5652204 24.7049386,70.5063477 24.5743583,70.4321289 L24.0471366,70.1235264 C23.8646327,70.0197253 23.6682096,69.9129372 23.5121024,69.8414145 L21.664065,69.0843867 C21.5183342,69.0272344 21.4078466,68.9870489 21.3586775,68.9760742 C21.169025,68.9337432 21.1176402,69.067911 20.8546443,69.0180245 L20.7038923,68.9760742 C20.3701753,68.8581892 20.0887257,68.8803459 19.9150484,68.9380338 L19.8242188,68.9760742 C19.6922034,69.045729 19.5734102,69.0578321 19.2562425,68.924222 L18.7176159,68.6643499 C17.5318351,68.0648717 14.0161072,66.2465851 12.2587193,65.2774833 C10.2377232,64.1630162 10,61.7972238 10,60.8427037 C10,59.8881836 10.284389,58.5535014 10.4132952,58.4827009 Z" id="路径" fill="#B0B8BD"></path>
                <path d="M84.4523536,70.0295759 C83.0385045,71.0136719 79.7936663,72 76,72 L64.0605469,72 L63.1336371,71.9842319 C61.1198007,71.9241858 58.2777119,71.7112378 56.98066,71.6722264 L56.3840652,71.6675034 L52.1464491,71.755582 C48.2436554,71.8501635 43.281774,71.9874537 43.0682199,72 C42.8804364,72.0110323 42.7323281,71.9340914 42.623895,71.7691773 L43.9049478,71.6762909 C45.4928751,71.5539353 47.3821782,71.3843062 49.306114,71.1850963 L51.777832,70.9140625 C56.2670583,70.3924206 68.0946458,70.1705454 75.0144348,70.284988 L76.3720703,70.3134766 C80.2078689,70.4133347 81.6037598,70.6008301 84.4523536,70.0295759 Z M24.6591959,70.6095722 C27.0103568,71.3109136 28.7627522,71.6913004 29.9163818,71.7507324 L30.5241072,71.7750524 C32.1614754,71.8276794 35.2292427,71.8522682 37.5224603,71.8655942 C37.4787857,71.9553011 37.4347064,72 37.3892997,72 L31.0913086,72 C30.3976004,72 27.2447684,71.7878767 24.690918,70.9086914 L24.663348,70.7185819 L24.6591959,70.6095722 Z" id="形状" fill="#56666F"></path>
                <path d="M21.4827656,68.9741955 C21.7307589,68.8598249 22.2093167,68.7221171 22.698822,68.9660034 C23.0484687,69.1402079 23.288457,69.4024896 23.4187868,69.7528483 L23.4342631,69.8105497 L21.664065,69.0843867 L21.4342631,68.9986651 L21.4827656,68.9741955 Z" id="路径" fill="#605955"></path>
                <path d="M48.8152577,70.6699219 C49.2023701,68.9441855 50.3334728,67.4883606 52.2085658,66.3024472 C55.0212054,64.523577 59.0009766,63.1583426 61.9542411,62.4164342 C64.9075056,61.6745257 68.3465402,60.5147879 70.1884766,60.4294085 C72.0304129,60.344029 74.0113002,60.4422433 76.0578962,61.1383929 C78.1044922,61.8345424 80.2960038,63.0432478 81.0495784,63.593471 C81.5519614,63.9602865 82.4036665,65.4249442 83.6046936,67.9874442 C84.1055824,67.9553571 84.9040179,67.7368397 86,67.3318917 C85.7119838,67.527553 84.6887834,67.9605887 83.2513741,68.2548131 C81.8139648,68.5490374 80.6514369,68.7124721 80.2863421,68.688058 C80.0429455,68.671782 79.7828311,68.5828451 79.5059989,68.4212472 C65.3675363,69.0524321 58.1605166,69.3887649 57.88494,69.4302455 C57.4715751,69.4924665 56.5694057,69.4961635 55.4679827,69.6435547 C54.3665597,69.7909459 50.2523019,70.4718192 49.6349051,70.5680106 C49.2233073,70.6321382 48.9500915,70.6661086 48.8152577,70.6699219 Z" id="路径-894" fill="#EBEAEC"></path>
                <path d="M60.4022223,62.8383614 L60.7608846,62.7374334 L59.2194279,63.285416 C58.4826444,63.55365 57.6277235,63.8717689 56.6546651,64.2397728 C53.501591,65.4322433 51.5770874,67.0244141 50.6051025,67.8584595 C49.6331177,68.6925049 49.0979614,70.394165 49.0935059,70.5179443 C49.0899414,70.6169678 50.138291,70.4430615 51.2392734,70.2423141 L52.0592651,70.0905659 C53.2424249,69.8696909 56.1097088,69.4894547 56.8844109,69.4037845 L57.069458,69.3863525 C57.2860718,69.3807995 57.559021,69.2646484 57.6637573,69.1344126 C57.7684937,69.0041768 57.8077393,68.8075206 57.9432373,68.664917 C58.0235324,68.5804111 58.1927711,68.8226452 58.4509534,69.3916191 L57.9267761,69.4258606 L57.9267761,69.4258606 L57.88494,69.4302455 C57.5175045,69.4855531 56.7638532,69.4946194 55.8273467,69.5994689 L54.9647447,69.7159059 L54.9647447,69.7159059 L49.6349051,70.5680106 C49.2233073,70.6321382 48.9500915,70.6661086 48.8152577,70.6699219 C49.2023701,68.9441855 50.3334728,67.4883606 52.2085658,66.3024472 C54.5524321,64.8200554 57.7068065,63.6249106 60.4022223,62.8383614 Z" id="路径" fill="#F7F7F7"></path>
                <path d="M75.578125,64.2511858 C76.9075753,64.4375 77.92899,64.7766299 78.8856027,66.3024472 C79.8422154,67.8282645 79.6810128,68.3705357 79.6753627,68.4930943 C79.6697126,68.6156529 79.9324777,68.8401925 79.923838,68.9035296 L79.8878534,70.2344933 C79.8691464,70.6744845 79.8393264,71.0828218 79.7901786,71.2032645 C79.7356523,71.3368877 79.6486502,71.5057131 79.5291724,71.7097406 C78.4430796,71.8926765 77.2513991,72 76,72 L64.0605469,72 C62.1100813,72 58.4938872,71.7177397 56.98066,71.6722264 L56.6546651,71.6643849 L57.0766324,70.9581417 C57.1494712,70.8275738 57.1978203,70.7315005 57.2216797,70.6699219 C57.3458426,70.3494699 57.1293945,69.6063058 57.3367048,69.4559849 C57.5440151,69.3056641 57.757952,69.3551897 57.8385184,68.9548689 C57.9190848,68.554548 58.3465402,67.2357701 58.8557478,66.6072824 L59.1117514,66.3090579 C59.6230848,65.7531303 60.3847495,65.1784051 61.7163086,65.1080497 L64.5121434,64.9320541 C65.837909,64.8418823 67.3084568,64.7355897 68.4566632,64.6454816 L69.3510045,64.5729632 C71.3350307,64.4053432 74.2486747,64.0648717 75.578125,64.2511858 Z" id="路径" fill="#334655"></path>
                <path d="M79.9240465,68.9035296 L79.8878534,70.2344933 L79.8651378,70.6544428 C79.8471189,70.9147211 79.8229438,71.1229694 79.7901786,71.2032645 C79.7356523,71.3368877 79.6486502,71.5057131 79.5291724,71.7097406 C78.4430796,71.8926765 77.2513991,72 76,72 L64.0605469,72 L63.1336371,71.9842319 C61.2876204,71.9291896 58.7456416,71.7456673 57.3357378,71.6854138 L56.6546651,71.6643849 L57.0766324,70.9581417 L57.1896571,70.7429987 C57.2030524,70.714807 57.2137266,70.6904481 57.2216797,70.6699219 C57.3458426,70.3494699 57.1293945,69.6063058 57.3367048,69.4559849 C57.4162608,69.3982988 57.5288899,69.3366823 57.6745918,69.2711354 C58.163542,69.332349 58.5830698,69.3667845 58.9331752,69.374442 L62.0765413,69.3926236 C63.005927,69.3911305 64.0898304,69.3847675 65.273853,69.3701454 L76.4395926,69.214495 C77.530677,69.1891691 79.1717914,68.7983395 79.5786055,68.6821511 L79.7316191,68.6289418 L79.9068849,68.8577664 C79.9187548,68.8769106 79.9253269,68.892614 79.9240465,68.9035296 Z" id="路径" fill="#5B7B95"></path>
                <path d="M57.2077092,70.7035857 L57.2147632,70.6948751 L68.2596436,70.7043457 C70.9724152,70.7048035 74.7448496,70.5380702 79.5769468,70.2041459 L79.8886651,70.1811318 L79.8651378,70.6544428 C79.8471189,70.9147211 79.8229438,71.1229694 79.7901786,71.2032645 C79.7356523,71.3368877 79.6486502,71.5057131 79.5291724,71.7097406 C78.4430796,71.8926765 77.2513991,72 76,72 L64.0605469,72 L63.1336371,71.9842319 C61.2876204,71.9291896 58.7456416,71.7456673 57.3357378,71.6854138 L56.6546651,71.6643849 L57.0766324,70.9581417 L57.2077092,70.7035857 Z" id="路径" fill="#405A76"></path>
                <path d="M57.6257235,69.2923261 C57.5649429,69.4570813 57.5249881,69.6431883 57.5058594,69.850647 C57.4720703,70.2171021 57.4990234,70.4944165 57.4534688,70.7829653 L57.4036255,71.0030518 C57.2909546,71.3786011 57.4204102,71.2868652 57.725708,71.2071533 C58.0310059,71.1274414 58.8016968,71.4240112 59.0429688,71.4249268 C59.2497733,71.4257115 59.3787319,71.2260518 59.4933025,70.9091263 L59.5496826,70.7412765 C59.6798096,70.3286223 59.7548828,70.3704224 59.7167188,70.6377869 L59.6781891,70.9035117 C59.64893,71.1428198 59.6460368,71.3953247 59.8138327,71.4249268 C60.0306766,71.4631817 62.2622698,71.5836066 62.8502905,71.5868813 L62.9609375,71.585144 C63.2736816,71.56604 63.617981,71.5294189 63.7250366,71.0905659 L63.7991323,70.8147409 C63.9078589,70.4416673 64.0434448,70.0928746 64.0514526,70.3144709 C64.0614624,70.5914662 63.8029175,71.5783081 63.956604,71.5864258 L67.7357178,71.5864258 L67.7357178,71.5864258 C67.9213189,71.5758464 68.0486156,71.5790594 68.1446999,71.1032665 L68.1793213,70.9014282 C68.2791138,70.2227783 68.439209,70.1525269 68.4564209,70.3144709 L68.4442238,70.5352746 C68.4094175,70.8998221 68.3272359,71.5522054 68.4564209,71.5845337 L68.8454845,71.6030405 C69.7750212,71.6229186 72.0395851,71.6138992 72.2888794,71.5864258 C72.5518712,71.5574428 72.6279608,71.3977449 72.6791567,71.0759683 L72.7429709,70.6272109 C72.7920005,70.3349565 72.8503961,70.159794 72.9099731,70.3144709 C72.9865723,70.5133412 72.895752,71.2971802 73.0265893,71.519043 C73.1574267,71.7409058 75.4898071,71.5772705 76.151001,71.519043 C76.7460754,71.4666382 77.0499573,71.3535724 77.1724592,70.8285382 L77.2581241,70.3334864 C77.3352071,69.9802968 77.4070268,70.0703601 77.4033813,70.3144709 C77.400411,70.513376 77.3718669,70.8835279 77.317749,71.4249268 C78.5988363,71.2746582 79.3108521,71.1340332 79.4537964,71.0030518 C79.5967407,70.8720703 79.741697,70.4879354 79.8886651,69.850647 L79.8969893,69.85341 L79.8878534,70.2344933 L79.8651378,70.6544428 C79.8471189,70.9147211 79.8229438,71.1229694 79.7901786,71.2032645 C79.7356523,71.3368877 79.6486502,71.5057131 79.5291724,71.7097406 C78.4430796,71.8926765 77.2513991,72 76,72 L64.0605469,72 L63.1336371,71.9842319 C61.2876204,71.9291896 58.7456416,71.7456673 57.3357378,71.6854138 L56.6546651,71.6643849 L57.0766324,70.9581417 L57.2216797,70.6699219 L57.2216797,70.6699219 C57.3458426,70.3494699 57.1293945,69.6063058 57.3367048,69.4559849 L57.4272852,69.3969887 L57.4272852,69.3969887 L57.6257235,69.2923261 Z" id="路径" fill="#27355C"></path>
                <path d="M58.3717651,68.8920898 C58.3602557,68.809082 58.6760864,67.6920166 59.2050171,66.8432617 C59.7339478,65.9945068 60.6737061,65.7203979 61.9034424,65.6764526 C63.1331787,65.6325073 67.8095093,65.3412476 70.7703857,65.1431274 C73.7312622,64.9450073 75.4315796,64.5664062 76.5288696,65.043335 C77.6261597,65.5202637 78.2686768,66.5819092 78.65271,67.2689209 C79.0367432,67.9559326 79.0830078,68.366333 78.9660645,68.4223022 C78.8491211,68.4782715 76.0157471,68.6010742 73.1100464,68.6893311 C70.2043457,68.7775879 62.4728394,68.8517456 61.0187378,68.8928833 C59.5646362,68.934021 58.3832746,68.9750977 58.3717651,68.8920898 Z" id="路径-895" fill="#1F3847"></path>
                <path d="M62.4553152,65.6490152 C62.7049559,65.8943285 62.93753,66.3394473 62.9085083,66.7451782 C62.8742237,67.2244873 62.9741821,67.3664551 63.1549683,67.406007 C63.3357544,67.4455589 64.7654419,67.406007 65.1470947,67.406007 C65.5287476,67.406007 65.5393677,67.0115967 65.5316162,66.5949707 C65.5248337,66.230423 65.757122,65.6775999 65.9660571,65.4869872 L66.0276696,65.446829 L68.1469482,65.3141872 L68.1469482,65.3141872 C68.7592535,65.4752741 69.0445497,66.1890568 68.9972534,66.5949707 C68.9446411,67.0465088 69.0753753,67.3347767 69.1430054,67.3591919 C69.2106355,67.3836071 71.1690674,67.3864124 71.4083862,67.3738403 C71.6477051,67.3612682 71.7168579,66.923645 71.7255249,66.4909668 C71.7341919,66.0582886 72.0385742,65.5714111 72.328125,65.2001953 C72.4208049,65.081376 72.6031679,65.0095743 72.8243713,64.9699811 L73.2031355,64.9355531 L73.2031355,64.9355531 C73.5973733,64.9167087 74.0226746,64.9632616 74.2724609,65.0117188 C74.7623291,65.1067505 75.0029297,65.7392578 75.0735474,66.0029907 C75.144165,66.2667236 75.1782837,67.1373291 75.4146118,67.1893311 C75.6509399,67.241333 77.0649414,67.2164307 78.2576904,67.406007 C78.4962402,67.4439223 78.6743359,67.498146 78.8092246,67.5641267 C79.0471592,68.0745577 79.0648954,68.3750016 78.9660645,68.4223022 L78.8610197,68.4400245 C78.3378403,68.4981215 76.0039262,68.5982271 73.524369,68.6764989 L71.9779767,68.7182019 C68.563732,68.7936597 62.3112725,68.8563165 61.0187378,68.8928833 L58.9605573,68.9402073 C58.5965012,68.9404484 58.3766978,68.9276646 58.3717651,68.8920898 C58.3632615,68.8307604 58.5334475,68.204956 58.8362476,67.5399479 C58.9508169,67.576305 59.0817343,67.6018871 59.236084,67.406007 C59.4185053,67.174502 59.4027007,66.8383553 59.4865997,66.4862755 C59.9766825,65.9773055 60.686885,65.7625508 61.5659694,65.6951202 L62.4553152,65.6490152 Z" id="路径" fill="#1C303C"></path>
                <path d="M73.9117432,67.8718067 L74.5958358,67.8844777 C75.6806066,67.9241716 76.9586071,68.0630216 77.4765625,68.3828735 L77.6811744,68.5155506 L74.258863,68.6525387 L74.258863,68.6525387 L71.9779767,68.7182019 C68.563732,68.7936597 62.3112725,68.8563165 61.0187378,68.8928833 L58.9605573,68.9402039 C58.5965012,68.9404484 58.3766978,68.9276646 58.3717651,68.8920898 L58.38257,68.8150342 L58.38257,68.8150342 C58.7147307,68.6164557 59.5051495,68.4768001 59.9595947,68.3516235 C60.4794312,68.2084351 63.3154417,68.0467364 65.6654348,68.0228874 L67.9044632,67.9984455 C70.23096,67.9571531 73.0069309,67.8721541 73.9117432,67.8718067 Z" id="路径" fill="#3E525F"></path>
                <path d="M61.0161743,65.3551025 C61.3242798,65.3236694 61.2429199,65.5258179 61.3086548,65.536694 C61.3743896,65.5475701 61.7080078,65.5897827 61.9381104,65.536694 C62.1682129,65.4836053 62.0354004,65.7648926 62.0491333,65.8206787 C62.0628662,65.8764648 62.4437256,66.3411255 62.4901123,66.475647 C62.536499,66.6101685 62.5177612,67.1531372 62.3742676,67.2940674 C62.2307739,67.4349976 61.9475098,67.3564453 61.6182251,67.4903564 C61.2889404,67.6242676 60.6536865,67.6467285 60.2952271,67.6229248 C59.9367676,67.5991211 59.7094116,67.3133545 59.7185669,67.0337524 C59.7277222,66.7541504 59.6576538,66.3778076 59.9272461,65.9486084 C60.1968384,65.5194092 60.7080688,65.3865356 61.0161743,65.3551025 Z M67.0354614,65.3239136 C67.352417,65.3132935 67.5791626,65.2937818 67.8181763,65.3845215 C68.0571899,65.4752612 68.4856567,65.9053345 68.5865479,66.4915058 C68.687439,67.0776772 68.4815063,67.1936646 68.2893558,67.1964722 C68.0972053,67.1992798 68.0896606,67.3566895 68.0264698,67.406007 C67.9632789,67.4553245 66.6844482,67.4973145 66.2880249,67.4634399 C65.8916016,67.4295654 65.8539429,67.2250366 65.855896,66.6865234 C65.8578491,66.1480103 65.9716187,65.793396 66.2162476,65.5821533 C66.4608765,65.3709106 66.7185059,65.3345337 67.0354614,65.3239136 Z M72.5949707,65.236084 C72.9213257,64.9927979 73.223938,64.9525757 73.8179932,65.1334839 C74.4120483,65.3143921 74.552063,65.9470215 74.5498657,66.0629883 C74.5476685,66.1789551 74.8301392,66.2033198 74.8459473,66.4223633 C74.8617554,66.6414067 74.7459717,67.0870972 74.5498657,67.2096558 C74.3537598,67.3322144 74.0334473,67.4042347 73.543335,67.4146118 C73.0532227,67.4249889 72.3765259,67.3980103 72.1253662,67.2349243 C71.8742065,67.0718384 71.9539795,66.3277588 72.0402832,66.091608 C72.1265869,65.8554571 72.2686157,65.4793701 72.5949707,65.236084 Z" id="形状结合" fill="#E5ECEB"></path>
                <path d="M61.7875977,65.848999 C62.0731812,66.1813965 62.2438354,66.7297974 62.3010864,66.7954102 C62.3432295,66.8437085 62.3873239,66.5082337 62.3374014,66.2265145 L62.4590667,66.4122092 C62.4736079,66.437494 62.484398,66.4590755 62.4901123,66.475647 C62.536499,66.6101685 62.5177612,67.1531372 62.3742676,67.2940674 C62.2594727,67.4068115 62.0552246,67.3790869 61.8095234,67.4320498 L61.6182251,67.4903564 C61.2889404,67.6242676 60.6536865,67.6467285 60.2952271,67.6229248 C60.0797649,67.6086169 59.9116698,67.4996631 59.8138327,67.3542918 C59.9006586,67.32604 60.0015723,67.3146134 60.1146851,67.3157349 C60.644104,67.3209839 61.3041382,67.4937134 61.4465332,67.1884766 C61.5889282,66.8832397 61.7462769,66.3120728 61.5585937,66.0203247 C61.3709106,65.7285767 61.5020142,65.5166016 61.7875977,65.848999 Z M68.3148804,66.178894 C68.4056298,66.4689244 68.4985899,66.6423047 68.6108105,66.7538193 C68.616732,67.1143583 68.4483272,67.1941493 68.2893558,67.1964722 C68.0972053,67.1992798 68.0896606,67.3566895 68.0264698,67.406007 C67.9632789,67.4553245 66.6844482,67.4973145 66.2880249,67.4634399 C66.0507427,67.4431641 65.9419955,67.3617477 65.8933424,67.1841653 C66.4756709,67.1445952 67.5151182,66.9706147 67.6115723,66.9357374 C67.7248535,66.8947754 67.8305054,65.7680902 67.5126343,65.536694 C67.1947632,65.3052979 68.1509459,65.6549683 68.3148804,66.178894 Z M73.9832399,65.2437567 L74.1911423,65.345856 C74.4745879,65.6052692 74.5514987,65.9768053 74.5498657,66.0629883 C74.5476685,66.1789551 74.8301392,66.2033198 74.8459473,66.4223633 C74.8617554,66.6414067 74.7459717,67.0870972 74.5498657,67.2096558 C74.3537598,67.3322144 74.0334473,67.4042347 73.543335,67.4146118 C73.0532227,67.4249889 72.3765259,67.3980103 72.1253662,67.2349243 C72.0621789,67.1938948 72.0199375,67.116092 71.9934764,67.0188556 L72.7455607,67.0089448 C73.2015308,66.9960531 73.6570679,66.9634168 73.6962891,66.8763588 C73.7616577,66.7312622 73.7971802,65.7384881 73.6962891,65.536694 C73.6054871,65.3550793 73.5992743,65.0820263 73.9832399,65.2437567 L73.9832399,65.2437567 Z" id="形状" fill="#628C8B"></path>
                <path d="M73.5093994,67.1413574 C73.5611165,67.0740763 73.6350301,67.0314636 73.7311401,67.0135193 C73.9821981,66.8174855 74.1170044,66.6171986 74.1355591,66.4126587 C74.1486227,66.2686508 74.1921484,66.089546 74.0956726,65.8642883 C73.986606,65.6096328 73.8029218,65.3903488 73.8237305,65.3597107 C73.8629456,65.3019714 74.0778809,65.4024562 74.2120972,65.5950928 C74.3463135,65.7877293 74.5361938,66.0114462 74.5255127,66.2188884 C74.5148315,66.4263306 74.6268921,66.7836377 74.4384155,67.0194702 C74.249939,67.2553027 73.4318237,67.2422791 73.5093994,67.1413574 Z" id="路径-899" fill="#001B2D"></path>
                <path d="M61.8804321,65.6062012 C62.6134644,65.4645736 65.387085,65.3581823 67.6450195,65.1945025 C69.9029541,65.0308228 75.2486572,64.6917932 75.1184692,64.8125103 C74.9882812,64.9332275 72.4047852,65.211198 70.3059692,65.3144918 C68.2071533,65.4177856 64.5328979,65.5675309 63.5460205,65.6266479 C62.5591431,65.685765 61.1473999,65.7478287 61.8804321,65.6062012 Z" id="路径-900" fill="#D8D8D8"></path>
                <path d="M58.7692871,69.0753784 C59.2493896,69.0556641 62.1216431,68.9907444 64.5869141,68.9274902 C67.0521851,68.8642361 73.5883789,68.7835083 74.8690796,68.7512207 C76.1497803,68.7189331 74.5838623,68.8875732 72.8858643,68.9308472 C71.7538656,68.9596965 68.6429443,69.0149129 63.5531006,69.0964966 C61.6330566,69.1226196 60.4458415,69.1410726 59.9914551,69.1518555 C59.3098755,69.1680298 58.2891846,69.0950928 58.7692871,69.0753784 Z" id="路径-901" fill="#818A97"></path>
                <path d="M38.5525513,50.5222168 C38.2680054,50.8244019 37.9545898,50.8389893 37.7531128,50.7346191 C37.5516357,50.630249 37.6685181,50.0767427 37.8404541,49.3750718 C38.0123901,48.6734009 38.2042847,47.8869019 38.7358398,47.3671875 C39.267395,46.8474731 40.6981201,45.9812012 40.9480591,45.9033203 C41.071228,45.6070557 41.4115601,45.3559323 42.0408936,45.1612549 C42.6702271,44.9665775 44.6940308,44.9025879 44.7814941,44.8827515 C44.8330833,44.8710512 44.853931,45.1068644 44.6871338,45.2799377 C44.5989874,45.3714008 44.4282537,45.4209178 44.2478943,45.4604797 C44.1909263,45.4729757 44.0877875,45.4556956 44.0213013,45.4589958 C43.3460083,45.4925154 43.3275146,45.3431624 42.7855835,45.4589958 C42.2436523,45.5748291 42.7768555,45.6709595 42.8946533,45.6999512 C43.0124512,45.7289429 43.0493164,45.8792725 42.8946533,45.9033203 C42.7399902,45.9273682 42.1369019,45.8706055 42.0408936,46.1870117 C41.9448853,46.503418 41.6082153,46.6037598 41.2677612,46.7956543 C40.9273071,46.9875488 39.9848633,47.4022952 39.4445801,47.9700928 C38.9042969,48.5378903 38.8761597,49.28125 38.8164673,49.6085205 C38.7567749,49.935791 38.8370972,50.2200317 38.5525513,50.5222168 Z" id="路径-904" fill="#E9ECF4"></path>
                <path d="M43.3827811,45.2781067 C43.6419512,45.2648163 43.9382178,45.2704898 44.2715808,45.2951273 L44.6173094,45.3260861 L44.6871338,45.2799377 C44.5989874,45.3714008 44.4282537,45.4209178 44.2478943,45.4604797 C44.1909263,45.4729757 44.0877875,45.4556956 44.0213013,45.4589958 C43.3460083,45.4925154 43.3275146,45.3431624 42.7855835,45.4589958 C42.2436523,45.5748291 42.7768555,45.6709595 42.8946533,45.6999512 C43.0124512,45.7289429 43.0493164,45.8792725 42.8946533,45.9033203 L42.523924,45.9254467 C42.3161945,45.9472557 42.0957554,46.0062081 42.0408936,46.1870117 C41.976888,46.3979492 41.8059218,46.5128581 41.5981807,46.6228841 L40.6837392,47.1018704 C40.2770281,47.3201315 39.7822571,47.6152193 39.4445801,47.9700928 C39.0843913,48.3486245 38.9518229,48.8051838 38.8857784,49.1644666 L38.8164673,49.6085205 C38.7567749,49.935791 38.8370972,50.2200317 38.5525513,50.5222168 C38.2680054,50.8244019 37.9545898,50.8389893 37.7531128,50.7346191 C37.6299879,50.6708374 37.6257565,50.4393227 37.680326,50.1087638 L37.7234497,50.1610413 C37.917572,50.4543762 38.285614,50.3302307 38.4259644,50.1160889 C38.5663147,49.901947 38.6942749,48.6774902 39.3908081,47.9055786 C40.0873413,47.133667 41.3369751,46.6973572 41.5459595,46.5357971 C41.7549438,46.3742371 41.9574585,46.0727539 41.8383179,45.903595 C41.7588908,45.7908223 41.5426432,45.7479655 41.1895752,45.7750244 L41.3609161,45.6836319 C41.4406077,45.6469142 41.5428772,45.6039429 41.6677246,45.554718 C42.0422668,45.4070435 42.8644409,45.3046875 43.3827811,45.2781067 Z" id="路径" fill="#A8ADB8"></path>
                <path d="M45.5307007,46.7451782 C45.4011841,46.9229126 45.0462936,47.0562134 44.8025352,46.7971802 C44.5587769,46.538147 44.5725095,45.74029 44.6173094,45.1919834 C44.6621094,44.6436768 44.7651978,43.4124146 45.2470703,43.352417 C45.7289429,43.2924194 46.2225342,43.4515991 46.4255066,43.6351929 C46.5608215,43.7575887 46.7040304,43.9128927 46.8551331,44.1011047 L46.5832825,44.2832642 L46.2999573,44.4031982 C46.0532939,44.1387329 45.8766886,44.0309957 45.7701416,44.0799866 C45.610321,44.1534729 45.5155029,44.7856961 45.5459595,45.1134338 C45.576416,45.4411716 45.6729126,46.0925598 45.6679688,46.2597961 C45.6630249,46.4270325 45.6602173,46.5674438 45.5307007,46.7451782 Z" id="路径-905" fill="#E9ECF4"></path>
                <path d="M46.0376587,43.9817505 C46.129187,44.0210363 46.2540021,44.0868708 46.412104,44.1792538 L46.5832825,44.2832642 L46.2999573,44.4031982 C46.0532939,44.1387329 45.8766886,44.0309957 45.7701416,44.0799866 C45.610321,44.1534729 45.5155029,44.7856961 45.5459595,45.1134338 L45.6627627,46.1395718 C45.6667989,46.190602 45.6687927,46.2319234 45.6679687,46.2597961 C45.6630249,46.4270325 45.6602173,46.5674438 45.5307007,46.7451782 C45.4011841,46.9229126 45.0462936,47.0562134 44.8025352,46.7971802 C44.6937944,46.6816252 44.6362958,46.4588411 44.6099383,46.1988171 C44.8051794,46.3641373 44.9729413,46.4401669 45.1151123,46.4287516 C45.3961182,46.406189 45.281311,45.3120433 45.3905029,44.7453161 C45.4996948,44.1785889 45.769043,43.8664551 46.0376587,43.9817505 Z" id="路径" fill="#A8ADB8"></path>
                <path d="M55.041626,44.5668335 C55.1626587,44.3481006 55.1373291,44.0576782 54.5556641,43.4472656 C53.973999,42.836853 53.0765381,41.9057617 52.4460449,41.5227661 C51.8155518,41.1397705 51.1539976,41.234314 50.7464324,41.2731323 C50.4747223,41.2990112 50.1980387,41.3371989 49.9163818,41.3876953 C49.6887457,41.2983398 49.4493251,41.3045044 49.1981201,41.406189 C48.8213126,41.5587158 48.7032471,42.0585327 48.781189,42.7578735 C48.8331502,43.2241007 48.8738262,43.5201009 48.9032168,43.645874 L49.6210327,43.2442017 L49.6210327,42.4960938 C49.8042603,42.6382803 49.9766032,42.6689645 50.1380615,42.5881463 C50.380249,42.4669189 51.0794067,41.9110191 51.564209,42.1012615 C52.0490112,42.2915039 52.8244112,42.9015503 53.2359666,43.4472656 C53.647522,43.992981 54.2437744,44.625454 54.4467163,44.6648999 C54.6496582,44.7043457 54.9205933,44.7855664 55.041626,44.5668335 Z" id="路径-906" fill="#E9ECF4"></path>
                <path d="M49.6690674,41.6377563 C49.6575114,41.8401489 49.699646,41.9946273 49.7954712,42.1011914 C49.939209,42.2610375 50.6735229,41.8105469 51.2701858,41.7437134 C51.8668486,41.6768799 52.4291992,42.1633301 52.9552612,42.6796875 L53.7603455,43.5248337 C54.0279236,43.795105 54.2886047,44.0189514 54.5240479,44.0914307 C54.7586901,44.1636634 54.8862528,44.0903042 54.9067358,43.8713532 C55.1404061,44.2079482 55.1302771,44.4066213 55.041626,44.5668335 C54.9205933,44.7855664 54.6496582,44.7043457 54.4467163,44.6648999 C54.2437744,44.625454 53.647522,43.992981 53.2359666,43.4472656 C52.8244112,42.9015503 52.0490112,42.2915039 51.564209,42.1012615 C51.0794067,41.9110191 50.380249,42.4669189 50.1380615,42.5881463 C50.0088949,42.6528009 49.872762,42.6460939 49.7296631,42.5680254 L49.6210327,42.4960937 L49.6210327,43.2442017 L49.3841682,43.3776164 L49.3859863,42.6133423 L49.3859863,42.6133423 C49.3891195,42.2215373 49.4834798,41.896342 49.6690674,41.6377563 Z" id="路径" fill="#A8ADB8"></path>
                <path d="M63.5424805,62.1396484 C59.7963867,63.2495117 58.9746094,63.4251709 58.6464844,64.4700928 C58.4560088,65.0766668 63.8960419,64.6922294 68.7270508,64.3305664 C72.218236,64.0692064 75.2815241,63.9254297 75.609375,63.7634277 C78.1894531,62.4885254 77.2469482,61.7341309 75.1566162,61.1010742 C73.0662842,60.4680176 71.0655607,60.4835205 70.0181319,60.5766602 C68.9707031,60.6697998 67.2885742,61.0297852 63.5424805,62.1396484 Z" id="路径-908" fill="#E2E4E6"></path>
                <path d="M70.0181319,60.5766602 C70.7091591,60.5152125 71.8151101,60.4875564 73.0879758,60.6576336 C74.6378174,60.8970947 75.0125732,61.520752 74.458252,62.4325896 C74.1882023,62.8768112 66.1196314,63.8029078 63.0585014,63.9000146 L62.7688225,63.906884 C61.3356109,63.9277878 60.1014506,63.8866734 59.0663416,63.7835407 C59.4951572,63.3857809 60.2834878,63.1097348 61.8559257,62.6388596 L64.6058189,61.8287028 C67.4512733,61.0086924 68.9087775,60.6955699 69.8560787,60.5926928 L70.0181319,60.5766602 Z" id="路径" fill="#DADBE0"></path>
            </g>
        </g>
    </g>
</svg>