<?xml version="1.0" encoding="UTF-8"?>
<svg width="96px" height="96px" viewBox="0 0 96 96" version="1.1" xmlns="http://www.w3.org/2000/svg" xmlns:xlink="http://www.w3.org/1999/xlink">
    <title>Nike Air Monarch IV </title>
    <defs>
        <rect id="path-1" x="0" y="0" width="96" height="96"></rect>
    </defs>
    <g id="icon" stroke="none" stroke-width="1" fill="none" fill-rule="evenodd">
        <g id="画板" transform="translate(-158.000000, -230.000000)">
            <g id="Nike-Air-Monarch-IV-" transform="translate(158.000000, 230.000000)">
                <g id="#" opacity="0">
                    <use fill="#FFFFFF" fill-rule="evenodd" xlink:href="#path-1"></use>
                    <rect stroke-opacity="0.5" stroke="#DDDDDD" stroke-width="6" stroke-linejoin="square" x="3" y="3" width="90" height="90"></rect>
                    <rect stroke-opacity="0.507785184" stroke="#DDDDDD" stroke-width="12" stroke-linejoin="square" x="6" y="6" width="84" height="84"></rect>
                    <rect stroke-opacity="0.319406703" stroke="#979797" stroke-width="10" stroke-linejoin="square" x="5" y="5" width="86" height="86"></rect>
                </g>
                <path d="M55.7248535,34.0235596 C55.9234619,34.263916 56.8693848,35.8983154 57.1325684,36.4786377 L57.3802313,37.0734171 C57.7088688,37.9194321 58.1514423,39.2848933 58.0654297,40.192627 C58.1212158,40.5501709 61.5402832,43.1512583 66.8508301,45.4311523 C71.4309082,47.6353628 72.1083984,45.8811035 72.4448242,45.4311523 L72.6057663,45.2339081 C73.3093688,44.4087008 75.7480585,41.8384138 76.8591309,42.1008301 C77.6778158,42.2941895 78.4412435,42.6296387 79.1494141,43.1071777 L79.2678581,42.2138596 C79.5432899,40.392402 79.9409424,39.3123671 80.4608154,38.9737549 C81.3605957,38.3876953 83.3625488,38.0328369 84.307251,39.7108154 C85.204718,41.304895 83.2921182,43.2684796 82.8016941,43.9897 L81.934177,45.437316 C81.7436297,45.748344 81.5246853,46.1028612 81.2773438,46.5008676 C81.7848307,48.955286 82.1279297,51.2493083 82.3066406,53.3829346 C82.2679036,53.5209554 82.1925456,53.6523844 82.0805664,53.7772217 L82.3066406,54.5131836 L82.5068359,54.7099609 L83.0266113,58.7056885 L68.538484,63.5464809 C68.2309468,63.6429231 68.0647985,63.6908247 68.0400391,63.6901855 L56.7705078,63.3754883 L56.7705078,63.3754883 L34.4018555,66.236209 L13.2714844,64.6230469 L10.6931152,63.3754883 L11.7553711,59.0415039 L12.0440301,58.4505545 C12.4495133,57.6512946 12.7312234,57.2442738 12.8891602,57.2294922 C13.1580287,57.2043283 15.5147257,56.5329017 16.3213094,56.4470811 L16.4782715,56.4382324 C17.0668945,56.4506836 23.1853027,55.3867187 25.0373535,54.5131836 C25.8597301,54.359375 26.7185523,53.6650935 27.1629232,53.2529717 L27.7529741,52.6697875 C28.1055051,52.3313872 28.5741058,51.9231709 28.7885197,51.9196313 L28.8637695,51.9442738 C29.074707,52.1356201 30.1051025,51.1317139 30.6833496,51.1068115 C31.2615967,51.0819092 31.7581787,51.380127 32.1652832,51.1068115 L32.6927772,50.7647826 C33.2195796,50.4331055 33.9373704,50.009927 34.2797547,49.9270978 L34.4018555,49.9136963 C34.7141385,49.9461399 35.276325,49.2310912 35.6942107,48.9160124 L35.8433838,48.8188477 C36.2659912,48.5970459 36.6691895,47.6751709 36.8762207,47.6916504 C37.083252,47.7081299 38.2717285,47.255249 38.4705811,47.0164795 C38.6694336,46.77771 38.6390381,46.265625 39.6429443,45.7077637 C40.3122152,45.3358561 40.9140625,45.0878499 41.4484863,44.9637451 C41.7739881,44.6264359 42.0431125,44.4034948 42.2558594,44.2949219 C42.4686063,44.186349 42.7682075,44.1190475 43.1546631,44.0930176 L43.3886041,42.7117784 C43.4095097,42.5688567 43.4213732,42.4695774 43.4241943,42.4139404 C43.4368896,42.1635742 45.1704102,40.4158936 45.4128418,40.192627 C45.6552734,39.9693604 47.4401855,39.3568115 47.6325684,39.1516113 L48.6979385,38.1815328 C50.033723,36.9902879 52.2158362,35.0952361 52.8336182,34.7568359 C53.7216797,34.2703857 55.5262451,33.7832031 55.7248535,34.0235596 Z M83.5458984,41.223999 C84.1885986,39.6047974 82.3053589,38.8997192 81.4074097,39.3483276 C80.5842896,39.759552 80.1788979,41.2245598 80.0647707,41.953957 L80.0407715,42.1333008 C80.0045736,42.4712565 79.904821,42.8899154 79.7415137,43.3892773 L79.6071167,43.7789307 L80.9415283,46.1409912 L81.1458638,45.4583702 C81.3398742,44.8470955 81.5029092,44.4498596 81.6349689,44.2666626 L82.2054551,43.5447016 C82.6180175,43.0039835 83.1503906,42.2204308 83.5458984,41.223999 Z" id="形状" fill="#DCD9E6"></path>
                <path d="M55.7248535,34.0235596 C55.9234619,34.263916 56.8693848,35.8983154 57.1325684,36.4786377 L57.3802313,37.0734171 C57.7088688,37.9194321 58.1514423,39.2848933 58.0654297,40.192627 C58.1212158,40.5501709 61.5402832,43.1512583 66.8508301,45.4311523 C70.6634578,47.2660193 71.7717802,46.3578574 72.2302226,45.7424419 L73.45963,46.1596674 C76.0110678,47.0349665 77.8328372,47.7238495 78.9276634,48.2276001 C81.2698777,49.3052979 80.7939453,53.1337891 79.6071167,53.52 C76.1020508,54.0898437 71.2666016,60.6757813 71.1980085,61.1147003 C71.1294154,61.5536193 67.0253906,61.8710938 65.2429029,61.0010915 C63.4604152,60.1310893 68.7841797,55.6152344 71.1980085,53.2687885 C73.4880512,51.0426731 69.3305977,52.1907336 66.3199957,53.3548622 L65.8430421,53.5432503 C62.8237796,54.7617935 66.0014648,51.8354492 66.8712275,50.0685186 C67.7409902,48.3015879 64.3251953,48.5371094 60.2974412,46.4822699 C56.2696871,44.4274305 57.5764161,42.7298517 57.1220703,41.909668 C56.6677246,41.0894842 54.8164063,39.4125977 52.0089181,39.0817871 C49.20143,38.7509766 44.4692383,44.3300781 45.2987688,44.7262061 C46.1282993,45.122334 45.9162598,47.2094727 44.9675293,48.2724609 C44.0187988,49.3354492 42.8760395,49.9783125 37.2836914,53.1567383 C32.9264323,55.9741211 29.4313151,57.8122559 26.7983398,58.6711426 C24.7751465,60.0871582 16.8945125,58.8161331 15.5991211,58.7167084 C14.834742,58.6580403 14.0723145,58.1323217 13.3118386,57.1395526 L15.0627362,56.6993355 C15.5680608,56.5786231 16.0393785,56.4770786 16.3213094,56.4470811 L16.4782715,56.4382324 C17.0668945,56.4506836 23.1853027,55.3867187 25.0373535,54.5131836 C25.8597301,54.359375 26.7185523,53.6650935 27.1629232,53.2529717 L27.7529741,52.6697875 L28.074933,52.3736992 C28.352527,52.1311556 28.6353669,51.9221596 28.7885197,51.9196313 L28.8637695,51.9442738 C29.074707,52.1356201 30.1051025,51.1317139 30.6833496,51.1068115 C31.2615967,51.0819092 31.7581787,51.380127 32.1652832,51.1068115 L32.6927772,50.7647826 L33.1778844,50.4681518 C33.5991004,50.2190728 34.0351945,49.9862615 34.2797547,49.9270978 L34.4018555,49.9136963 C34.7141385,49.9461399 35.276325,49.2310912 35.6942107,48.9160124 L35.8433838,48.8188477 C36.2659912,48.5970459 36.6691895,47.6751709 36.8762207,47.6916504 C37.083252,47.7081299 38.2717285,47.255249 38.4705811,47.0164795 C38.6694336,46.77771 38.6390381,46.265625 39.6429443,45.7077637 C40.3122152,45.3358561 40.9140625,45.0878499 41.4484863,44.9637451 C41.7739881,44.6264359 42.0431125,44.4034948 42.2558594,44.2949219 C42.4686063,44.186349 42.7682075,44.1190475 43.1546631,44.0930176 L43.3886041,42.7117784 L43.4241943,42.4139404 C43.4368896,42.1635742 45.1704102,40.4158936 45.4128418,40.192627 C45.6552734,39.9693604 47.4401855,39.3568115 47.6325684,39.1516113 L48.6979385,38.1815328 L49.901403,37.1212564 C51.0862754,36.0902888 52.3805781,35.004996 52.8336182,34.7568359 C53.7216797,34.2703857 55.5262451,33.7832031 55.7248535,34.0235596 Z" id="路径" fill="#EAE9EF"></path>
                <path d="M68.1024305,52.7179533 L73.7186056,46.2496674 L75.1094693,46.735877 C76.8131715,47.3430534 78.0854894,47.8400996 78.9276634,48.2276001 C81.2698777,49.3052979 80.7939453,53.1337891 79.6071167,53.52 C76.1020508,54.0898438 71.2666016,60.6757813 71.1980085,61.1147003 C71.1294154,61.5536193 67.0253906,61.8710938 65.2429029,61.0010915 C63.4604152,60.1310893 68.7841797,55.6152344 71.1980085,53.2687885 C73.0543201,51.4642965 70.6741465,51.8768893 68.1024305,52.7179533 Z" id="路径" fill="#E2E0EC"></path>
                <path d="M47.7998124,38.9982314 L48.8584928,39.0075469 L50.0805286,39.0347813 L50.7504086,39.0614819 C51.2594967,39.0868404 51.644847,39.1202286 51.8998973,39.1635954 C52.6076486,39.2839359 52.6600918,39.8035041 52.0607352,40.1905813 C51.6506602,40.4554165 50.849554,40.7993343 49.4472136,41.235842 C47.6278634,40.6412659 46.3343768,40.3678923 45.5899622,40.411546 C45.4799704,40.4179962 45.3803505,40.3643387 45.3230967,40.2790232 L45.4128418,40.192627 L45.4128418,40.192627 C45.502022,40.1104967 45.7999289,39.9756893 46.150508,39.8278593 C46.9792346,39.8983087 48.1031194,40.1793273 49.4390164,40.6683358 L50.1575699,40.402349 L50.7579605,40.1630972 C51.0284437,40.0502724 51.2542301,39.9477373 51.434741,39.8558881 L51.654,39.734 L51.2376553,39.6930693 L50.6997888,39.6599553 C50.4011356,39.6452537 50.058398,39.6332609 49.6738052,39.6236433 L48.2719126,39.5999907 L46.7298687,39.587413 L47.1365958,39.4149139 C47.3853836,39.3057107 47.576532,39.211381 47.6325684,39.1516113 L47.7998124,38.9982314 Z" id="路径" fill="#C7C7CB" fill-rule="nonzero"></path>
                <path d="M75.126656,42.8210788 L77.8689977,43.9206861 L81.8061991,49.3616177 C82.0324066,50.7600079 82.1992204,52.1004469 82.3066406,53.3829346 C82.2679036,53.5209554 82.1925456,53.6523844 82.0805664,53.7772217 L82.3066406,54.5131836 L82.5068359,54.7099609 L83.0266113,58.7056885 L78.7113301,60.149085 C78.7067209,60.103038 78.7131818,60.0500878 78.7307129,59.9902344 C79.1088158,58.6993425 79.3391113,56.598877 78.9276634,54.2687885 C78.5162156,51.9387 77.9297477,51.2642179 76.9885555,49.9708541 C76.241979,48.9449264 73.065548,47.0511722 71.6107847,46.2808586 C72.1109416,46.0207739 72.3066493,45.6159537 72.4448242,45.4311523 L72.6057663,45.2339081 L72.9341176,44.8634559 C73.4599466,44.2881773 74.3084662,43.4314999 75.126656,42.8210788 Z" id="路径" fill="#D4D2DC"></path>
                <path d="M84.307251,39.7108154 C85.204718,41.304895 83.2921182,43.2684796 82.8016941,43.9897 L81.934177,45.437316 C81.7436297,45.748344 81.5246853,46.1028612 81.2773438,46.5008676 C81.7848307,48.955286 82.1279297,51.2493083 82.3066406,53.3829346 C82.2679036,53.5209554 82.1925456,53.6523844 82.0805664,53.7772217 L82.3066406,54.5131836 L82.5068359,54.7099609 L83.0266113,58.7056885 L76.2407059,60.9720793 L76.1381836,61.0010915 C78.6584473,59.1302029 80.1584459,58.0411504 80.6381794,57.733934 L80.6872845,57.7030162 C81.3159753,57.3152122 79.4975586,51.8764648 79.128418,49.560622 C78.7592773,47.2447791 74.2353516,46.3374023 73.4345799,45.9035465 C72.6338082,45.4696906 75.9672852,42.972168 77.0689087,43.1432968 C77.1884707,43.1618698 77.3727878,42.8331644 77.6229542,42.3317815 C78.1584428,42.5222483 78.6667621,42.7817121 79.1494141,43.1071777 L79.2678581,42.2138596 C79.5432899,40.392402 79.9409424,39.3123671 80.4608154,38.9737549 C81.3605957,38.3876953 83.3625488,38.0328369 84.307251,39.7108154 Z M81.4074097,39.3483276 C80.5842896,39.759552 80.1788979,41.2245598 80.0647707,41.953957 L80.0407715,42.1333008 C80.0045736,42.4712565 79.904821,42.8899154 79.7415137,43.3892773 L79.6071167,43.7789307 L80.9415283,46.1409912 L81.1458638,45.4583702 C81.3398742,44.8470955 81.5029092,44.4498596 81.6349689,44.2666626 L82.2054551,43.5447016 C82.6180175,43.0039835 83.1503906,42.2204308 83.5458984,41.223999 C84.1885986,39.6047974 82.3053589,38.8997192 81.4074097,39.3483276 Z" id="形状结合" fill="#BEBACB"></path>
                <path d="M79.128418,46.3425002 C79.7792969,47.3884277 81.1727783,52.1511722 81.2512207,52.8129883 L81.3107051,53.4212267 C81.4229518,54.7128171 81.5888629,57.3566215 81.2716553,57.7147671 C81.0148682,58.0046945 79.7858101,58.7709917 77.5844811,60.0136588 L77.5618067,59.9473753 L79.7930168,58.3198698 C80.021609,58.1564532 80.2115645,58.0226441 80.3628834,57.9184426 L80.6872845,57.7030162 C81.3159753,57.3152122 79.4975586,51.8764648 79.128418,49.560622 C78.7592773,47.2447791 74.2353516,46.3374023 73.4345799,45.9035465 C73.0166957,45.677138 73.7246888,44.8887324 74.6538369,44.210866 L75.7655392,44.6139348 C77.3625564,45.2150574 78.8394172,45.8780914 79.128418,46.3425002 Z" id="路径" fill="#CBC9D2"></path>
                <path d="M52.0089181,46.1409912 C52.310805,45.9667969 52.9890137,45.8344727 53.6082764,45.942744 L53.839035,45.9976181 C55.1711145,46.3497943 60.9165447,48.1854248 62.8640765,49.2276001 C64.8832774,50.3081274 63.5156047,53.402911 62.6474069,54.8807498 L62.2195676,55.6019706 C61.7615835,56.3971694 61.0682455,57.6649044 60.1395534,59.4051756 L58.7272744,62.071167 L39.3342285,64.9340758 L36.5118408,62.456279 C34.3408234,60.524389 33.2082144,59.4337271 33.1140137,59.1842933 C32.9206543,58.6722976 33.0249023,56.8647461 34.1689407,56.2064394 L52.0089181,46.1409912 L52.0089181,46.1409912 Z" id="路径" fill="#CCCAD5"></path>
                <path d="M55.4646111,50.9686932 L57.1007065,50.5838466 C63.2018816,49.2052119 63.3413448,50.4347128 63.2368164,51.5043945 C63.1269275,52.6289317 41.4887695,59.4443359 36.8664296,59.8179411 C33.7848697,60.0670112 32.8857067,58.8912264 34.1689407,56.2905867 L34.5643832,55.9825304 L34.5643832,55.9825304 L43.8167444,50.7626123 L44.4891629,50.9479323 C46.5089303,51.4671922 50.3225225,52.1078256 55.4646111,50.9686932 L55.4646111,50.9686932 Z" id="路径" fill="#DAD7E2"></path>
                <path d="M72.0678659,50.9235655 L67.3234863,57.5751714 L59.7572632,62.8485107 L32.8464439,66.1175655 L21.9704439,65.2855655 L16.2932129,64.7431777 L10.7944439,62.9675655 L11.7553711,59.0415039 L12.0440301,58.4505545 C12.4495133,57.6512946 12.7312234,57.2442738 12.8891602,57.2294922 L13.1322987,57.1802307 C13.1718337,57.1709571 13.215111,57.1605627 13.2616999,57.1491933 C13.3827659,58.3137914 13.8542379,58.9126314 14.6796875,58.9451665 L15.3413407,58.9580059 C17.9522503,58.9843698 25.7359325,58.9092196 26.2514365,58.9451665 C26.7905257,58.982758 29.5884565,60.3805142 31.0222118,61.2973194 L31.5258002,61.6308603 L31.7922134,61.7931786 C33.0295741,62.4972699 35.113967,62.9350107 43.4989966,61.6912894 L44.8046875,61.4919434 C47.6046715,61.0529986 52.7472442,60.1285771 56.107666,58.9711914 C59.6465285,57.7523477 64.9665952,55.0698058 72.0678659,50.9235655 Z" id="路径" fill="#D3D1DB"></path>
                <path d="M16.9238281,61.5638355 C22.1635742,61.972168 25.763916,61.1206055 27.7032471,62.3005371 C28.9961344,63.0871582 29.957194,64.0916131 30.5864258,65.3139018 L29.6411152,65.8714522 L13.2714844,64.6230469 L10.6931152,63.3754883 L11.7553711,59.0415039 L11.9116866,58.7254383 C12.2143653,60.3808939 13.8850791,61.3270263 16.9238281,61.5638355 Z" id="路径" fill="#C9C5D7"></path>
                <path d="M51.6678458,40.290352 L51.3514499,40.3540347 L50.5000915,40.8539878 C47.8246313,42.4411093 46.7563429,43.2533725 46.7900736,43.8616674 C46.8288599,44.5611359 47.4988981,44.6680193 49.2931546,44.7164319 L50.0258798,44.7261548 C50.6480569,44.7271976 51.2658297,44.7121938 51.6291791,44.6931633 C52.5792294,44.6434042 55.9977872,42.8242485 55.828311,41.8489673 C55.6885477,41.0446744 54.3962139,40.6470593 51.6678458,40.290352 Z" id="路径" fill="#ACACBB" fill-rule="nonzero"></path>
                <path d="M47.2893066,43.8339844 C47.2701009,43.4876302 48.7080078,42.4716797 51.6030273,40.7861328 C54.0131836,41.101237 55.2574056,41.4840495 55.3356934,41.9345703 C55.453125,42.6103516 52.0039062,44.1728516 51.6030273,44.1938477 C51.2021484,44.2148437 47.3181152,44.3535156 47.2893066,43.8339844 Z" id="路径-333" fill="#DCD9E6"></path>
                <path d="M48.0731812,43.506958 C48.0443726,42.9874268 51.2359619,41.3153687 51.6552734,41.2633667 C52.074585,41.2113647 54.0379028,41.2710571 54.1553345,41.9468384 C54.2727661,42.6226196 51.5239258,43.8760376 51.1230469,43.8970337 C50.722168,43.9180298 48.1019897,44.0264893 48.0731812,43.506958 Z" id="路径-333" fill="#2A2B72"></path>
                <path d="M45.5442303,42.9019646 L46.1989338,43.3617073 L45.5549813,44.2947838 C45.3739871,44.5632097 45.2267063,44.7889357 45.1133096,44.9716615 C45.0242637,45.1151487 44.8996024,45.4294871 44.7354693,45.9155497 L44.2363678,47.4643329 L44.0878924,47.8922161 C44.0442453,48.0091503 44.0056703,48.101966 43.9698496,48.1753885 C43.8182398,48.4861469 43.3487219,48.8253898 42.5351998,49.2967573 L41.7556332,49.7281085 L40.3672789,50.4496678 C40.1522345,50.5665429 39.9457974,50.5888827 39.288324,50.537486 L38.2551394,50.4422151 C37.3122907,50.3528767 36.754512,50.3522796 36.667724,50.4176773 L36.4927054,50.5326451 C36.4161903,50.5789544 36.3208051,50.6337031 36.2044663,50.6982487 L32.1830669,52.81789 C31.3665048,53.2606517 30.8769899,53.5511877 30.7244242,53.6894559 L30.5824368,53.8369731 C30.1612337,54.3128283 29.2446961,55.5899437 27.8648788,57.6299342 L27.2096831,58.6037817 C28.4757306,59.0576803 30.9846039,61.0461742 34.8403653,64.6196843 L35.3342977,65.079245 L34.7882609,65.6639191 L33.3903872,64.3737359 C29.9734902,61.2606721 27.7524554,59.5608059 26.8216349,59.3198535 L26.5647634,59.268183 C25.8350742,59.1539318 24.4289671,59.1503129 21.8944177,59.2279763 L17.455774,59.3692438 C16.1842419,59.3977378 15.5105565,59.3856716 14.9524811,59.33069 C13.5248492,59.1900396 12.7394596,58.5098515 12.68321,57.3838318 C12.7673244,57.2849833 12.8354101,57.2345228 12.8891602,57.2294922 C12.9609873,57.2227697 13.1818163,57.1699255 13.4822884,57.0944456 C13.414806,57.9817474 13.893763,58.4225119 15.0309174,58.5345444 L15.6181267,58.5726142 C16.1740649,58.5930936 16.9312777,58.5855818 18.1506276,58.5509988 L22.7979368,58.4019101 C24.5274937,58.3580707 25.6327445,58.3640239 26.359183,58.43663 L27.4989967,56.7437011 C27.9287577,56.1117931 28.3089641,55.5615365 28.6406553,55.0916869 C26.8831541,55.3126576 25.7047959,55.1089502 24.9549636,54.5976512 L24.9158328,54.5681469 C24.9581408,54.5497505 24.9986774,54.5314255 25.0373535,54.5131836 C25.3291088,54.4586168 25.6254512,54.3360248 25.9062472,54.18214 C26.6186205,54.4308898 27.7078642,54.4670708 29.2958264,54.1825821 C29.7150486,53.6168712 30.0106365,53.2566912 30.1871969,53.096677 C30.3941096,52.9091548 30.88713,52.6108696 31.7390467,52.1479497 L35.1592484,50.3518112 C35.5785536,50.1306497 35.8760611,49.9683165 36.0452549,49.8684266 L36.1862799,49.778763 C36.3814296,49.6317109 36.6420626,49.5699025 37.0736048,49.5672766 L44.2139001,45.007065 C44.2929718,44.8106963 44.3644353,44.6612181 44.4335654,44.5498229 L44.7144866,44.1129271 C44.8229768,43.9486228 44.9463334,43.7656165 45.0846072,43.5638191 L45.5442303,42.9019646 Z M59.9838088,42.310357 L60.2974412,43.0463154 L54.1454439,45.689357 L55.9066312,46.2075652 C57.9889411,46.8327877 59.4465978,47.3045164 60.2833731,47.6241857 C62.1698905,48.3448829 63.6023372,49.2012521 64.2752301,50.2347359 L78.2964439,46.529357 L72.3821191,47.2324155 L72.2878028,46.4379947 L80.5538069,45.456357 L80.9415283,46.1409912 L81.1458638,45.4583702 L81.1698069,45.382357 L81.5949919,45.3330142 L81.6611942,45.8811812 C81.541907,46.0744764 81.4139568,46.2810385 81.2773438,46.5008676 C81.3432347,46.8195437 81.4063544,47.1355158 81.4667029,47.448784 C80.7210661,48.7454322 79.4359081,50.2343906 77.4320068,51.6340332 L73.2783203,54.7298584 C71.1089378,56.2152186 68.9523159,57.6258179 67.7440186,58.3830566 L67.0162399,58.8263369 C65.797138,59.5387798 64.031215,60.7260447 61.6937256,62.8009033 L60.3781738,61.854126 C62.3436867,60.1329525 64.5789262,58.9411364 65.7373616,58.2200461 L66.4729469,57.7765962 C68.3223361,56.6372997 72.139066,54.036397 76.2050364,51.196484 C78.0309875,49.9211323 79.6175893,48.4574079 80.5352229,47.2464153 L63.3706709,54.9032522 C63.2238764,55.1648491 63.0633988,55.4451117 62.8885427,55.7457818 L60.1278689,60.3748207 C59.5466718,61.3660876 59.251893,61.913136 59.0732073,62.329292 L58.9269111,62.7134218 L58.1673272,62.4623594 L58.2395506,62.2569938 C58.421089,61.7714861 58.7080004,61.2153363 59.3996116,60.0342884 L61.974448,55.7231412 C63.1855638,53.660507 63.7701754,52.4995867 63.8745679,51.8780213 C64.0960197,50.5594705 62.5177325,49.3341573 59.9978769,48.3715088 L59.2673417,48.1082971 C58.2307401,47.7510851 56.6674095,47.2637747 54.5802552,46.6474707 L52.9934439,46.184357 L51.2874844,46.9174982 L50.1564312,47.4108922 C46.280298,49.1068258 35.0004868,55.6129845 33.8285925,56.8533204 C32.7580137,57.9864238 32.7702445,58.546846 34.1656303,59.7744176 L35.372227,60.8026354 C37.5105086,62.6410187 39.7885408,64.7289268 40.1735495,65.2827267 L40.216849,65.354068 L39.8248069,65.542357 L39.418827,65.5961957 C38.8955963,64.9821965 35.9996716,62.3655418 33.9115873,60.610661 C31.9301919,58.9454444 31.7741465,57.8628745 33.2470911,56.3039062 C34.5147325,54.9622312 45.8658921,48.414919 49.8357563,46.677975 L54.2614471,44.7597134 L59.9838088,42.310357 Z M16.5805732,61.9778416 L19.7474793,62.1367463 C23.922745,62.3742474 26.0628662,62.4631348 27.7032471,64.9040527 L25.5187988,65.3978271 C24.423464,63.7004575 23.64946,63.1289437 19.1677841,62.907143 L17.103389,62.8128224 C14.5834647,62.6857441 12.6199733,62.1620095 11.2184414,61.2290997 L11.4229009,60.3948994 C12.5981623,61.2696132 14.3155961,61.8013159 16.5805732,61.9778416 Z M52.012421,47.6013983 C56.0261296,47.937891 61.6132027,50.2496549 61.615511,52.5078125 C61.6171089,54.1267694 59.5728474,56.9460153 55.8666572,62.2196911 L54.2207031,62.6271973 C57.8256021,57.4971991 60.3519851,54.1038815 60.3505859,52.7144775 C60.3489967,51.1375324 55.4500529,48.6924016 51.9455868,48.3986017 C50.6598806,48.2908134 40.0911564,54.2594383 36.4971418,56.9009239 C35.5306312,57.6112782 35.3897109,58.1491462 35.8151989,58.739243 C36.1335189,59.1807115 36.6902221,59.6010461 37.6639684,60.1659636 L39.3826697,61.1131656 C40.6702075,61.8258064 41.9213286,62.6052462 43.135992,63.4514492 L44.0401532,64.0986192 L43.5662922,64.7431777 C42.3918909,63.8797915 41.1818742,63.0820467 39.936201,62.3499077 L38.5924286,61.5930405 C38.3144236,61.4418603 38.0093548,61.276621 37.9936511,61.2680511 L37.2247391,60.836471 C36.1733743,60.2250959 35.5639696,59.7586589 35.1662941,59.2071345 C34.4609676,58.228938 34.7284435,57.2080292 36.023366,56.2563027 C39.8184235,53.4670571 50.4384752,47.4694452 52.012421,47.6013983 Z M82.3066406,53.3829346 C82.2679036,53.5209554 82.1925456,53.6523844 82.0805664,53.7772217 L82.3066406,54.5131836 L82.5068359,54.7099609 L82.5888069,55.340357 L82.4868909,55.3765439 C79.098315,56.5496702 78.2561862,56.876012 76.885376,58.0013428 C75.904225,58.806793 75.2504917,60.2588436 74.6890435,61.4921782 L73.0448069,62.040357 L71.3034668,62.071167 C71.9973681,60.3989649 72.887085,58.5 74.5212402,56.7081299 C76.1446614,54.9280299 78.85421,54.0327032 82.2540039,52.8093443 C82.273547,53.0020896 82.2907441,53.1931466 82.3066406,53.3829346 Z M80.87,46.262 L64.4749825,50.5944804 C64.6783831,51.034975 64.7482473,51.5060381 64.6635181,52.0105263 C64.5774479,52.5229985 64.2766526,53.2347807 63.6909112,54.3217864 L80.87,46.658 L80.87,46.262 Z M43.7914439,46.226357 L38.4264439,49.652357 L39.5169068,49.74836 C39.7476682,49.7625963 39.8882634,49.7642857 39.9518263,49.7553943 L39.9852602,49.7467725 L40.0172872,49.7307921 C40.2152824,49.6299973 41.235593,49.1042798 41.6800367,48.8602398 L42.134128,48.6045568 L42.5705413,48.3409346 C42.9628533,48.092925 43.2145522,47.8990192 43.2508535,47.8246115 L43.3584516,47.568251 L43.7914439,46.226357 Z" id="形状结合" fill="#B4B4BD" fill-rule="nonzero"></path>
                <path d="M82.1107043,53.8842314 L82.3066406,54.5131836 L82.4187043,54.6222314 L82.1902681,54.7053274 C78.8703788,55.9004497 76.7037018,57.0748465 75.7052634,58.2005953 C74.7718357,59.2530439 73.9960821,60.438295 73.3776939,61.757463 L73.2867043,61.9582314 L72.5487043,62.2062314 L72.3427043,62.1215928 C73.0366056,60.4493907 73.9581171,58.9648586 75.1067483,57.669766 C76.1450919,56.4990238 78.1980675,55.3462317 81.2780564,54.1883822 L82.1107043,53.8842314 Z" id="路径" fill="#21235A" fill-rule="nonzero"></path>
                <path d="M55.7248535,34.0235596 C55.9234619,34.263916 56.8693848,35.8983154 57.1325684,36.4786377 L57.3802313,37.0734171 C57.7088688,37.9194321 58.1514423,39.2848933 58.0654297,40.192627 C58.0712245,40.2297672 58.1133099,40.2911157 58.1900361,40.3737979 L58.0703125,40.7861328 C57.3401693,40.6450195 56.8036296,40.3129883 56.4606933,39.7900391 C56.9023437,38.2907715 56.4248047,36.5314941 55.8425293,35.689209 L55.3226465,34.9533887 L55.3226465,34.9533887 L54.6870163,34.080381 C55.2078731,33.9558245 55.6340842,33.9137103 55.7248535,34.0235596 Z" id="路径" fill="#2E3975"></path>
                <path d="M57.6709729,39.9597514 L58.0654297,40.192627 C58.1212158,40.5501709 61.5402832,43.1512583 66.8508301,45.4311523 C71.4309082,47.6353628 72.1083984,45.8811035 72.4448242,45.4311523 L72.6057663,45.2339081 L73.0879789,44.6970746 C74.0853871,43.6306247 75.9332372,41.8821498 76.8591309,42.1008301 C77.5853347,42.272347 78.2680603,42.5556652 78.9073076,42.9507845 L79.128418,43.6745605 L78.4924521,43.4398828 C77.7138287,43.1690234 77.2125299,43.0663411 76.9885555,43.1318359 C76.5686035,43.2546387 74.3723145,45.7834473 73.8635254,46.2827148 C73.3547363,46.7819824 71.9487305,47.7897949 70.4990234,47.6362305 C69.0493164,47.482666 61.3774414,44.2280273 60.3054199,43.6745605 C59.2333984,43.1210937 57.482666,41.2209473 56.5437012,40.7861328 C55.6047363,40.3513184 53.4499512,39.6853027 52.4020996,39.7355957 C51.354248,39.7858887 47.6108398,42.0543223 46.8925781,42.5061651 C46.413737,42.8073936 45.9438477,43.3807377 45.4829102,44.2261973 L45.4829102,43.1318359 C48.3166054,40.7258887 50.2602587,39.4205038 51.3138701,39.2156812 C52.8013214,38.9265198 55.5283082,38.7996488 57.6709729,39.9597514 Z" id="路径" fill="#283073"></path>
                <path d="M64.1110032,58.3820879 C64.1674948,58.5378453 64.087024,58.7099071 63.9312666,58.7663987 L62.7483634,59.1844355 C62.6749731,59.2085552 62.6205393,59.2253553 62.5846709,59.2349589 C62.424623,59.2778112 62.2601399,59.1828053 62.2172876,59.0227573 C62.1744354,58.8627094 62.2694413,58.6982263 62.4294892,58.655374 L63.0231326,58.4549652 C63.2149644,58.3870755 63.4499245,58.3027322 63.7266924,58.2023513 C63.8824498,58.1458597 64.0545115,58.2263305 64.1110032,58.3820879 Z M65.8160483,56.0470091 C65.8709267,56.1676633 65.839245,56.3056319 65.7471586,56.3911154 L65.6671765,56.4442964 L63.8909314,57.2522055 C63.7401137,57.3208036 63.5622422,57.2541514 63.4936441,57.1033337 C63.4387657,56.9826796 63.4704474,56.844711 63.5625338,56.7592275 L63.6425159,56.7060464 L65.418761,55.8981374 C65.5695786,55.8295393 65.7474502,55.8961915 65.8160483,56.0470091 Z M67.8677512,53.8956568 C67.9269775,54.0142372 67.90033,54.1532659 67.8114105,54.242039 L67.7334136,54.2980911 L65.6770171,55.3251814 C65.5287916,55.3992142 65.3486157,55.3390693 65.2745828,55.1908438 C65.2153565,55.0722634 65.242004,54.9332347 65.3309235,54.8444616 L65.4089204,54.7884094 L67.4653169,53.7613192 C67.6135423,53.6872863 67.7937183,53.7474313 67.8677512,53.8956568 Z M66.8648226,47.9386291 C66.891938,48.0683743 66.8308027,48.1960518 66.7222271,48.2592869 L66.6325379,48.2936556 L64.4544373,48.7488558 C64.2922558,48.78275 64.133305,48.6787526 64.0994108,48.5165711 C64.0722954,48.3868259 64.1334307,48.2591484 64.2420063,48.1959133 L64.3316955,48.1615446 L66.5097961,47.7063444 C66.6719776,47.6724502 66.8309284,47.7764476 66.8648226,47.9386291 Z M63.7555818,46.6968689 C63.7933492,46.8239228 63.7429978,46.9562247 63.6400321,47.0282345 L63.5534973,47.0699129 L61.7009917,47.6205785 C61.5421743,47.6677876 61.3751568,47.5773113 61.3279477,47.418494 C61.2901803,47.2914401 61.3405317,47.1591381 61.4434974,47.0871284 L61.5300322,47.0454499 L63.3825378,46.4947844 C63.5413552,46.4475752 63.7083727,46.5380515 63.7555818,46.6968689 Z M60.6662421,45.5588127 C60.703252,45.6860893 60.6521135,45.818089 60.5487207,45.8894842 L60.4619393,45.9306464 L59.220118,46.2917472 C59.0610222,46.3380096 58.8945466,46.2465401 58.8482842,46.0874443 C58.8112743,45.9601678 58.8624128,45.828168 58.9658057,45.7567729 L59.0525871,45.7156106 L60.2944084,45.3545098 C60.4535041,45.3082474 60.6199798,45.399717 60.6662421,45.5588127 Z" id="形状结合" fill="#262327" fill-rule="nonzero"></path>
                <path d="M26.8674316,54.2687885 C27.0568677,53.8956456 27.2341952,53.6043486 27.3994141,53.3948975 C27.5646329,53.1854463 27.8297289,52.9158743 28.1947021,52.5861816 L28.4881592,51.9442738 L29.2128906,51.7180176 L29.2128906,52.8309326 L27.7032471,54.0297051 L26.8674316,54.2687885 Z" id="路径-352" fill="#262327"></path>
                <path d="M30.4841309,54.5975342 C30.8367631,54.6150073 31.0715857,54.6012947 31.1885986,54.5563965 C31.5958999,54.4001136 31.7567206,54.1016111 31.8543701,54.0297051 C32.0639648,53.8753662 30.3673096,52.90625 29.2128906,52.8309326 C28.443278,52.780721 28.0523682,53.0751546 28.0401611,53.7142334 L30.4841309,54.5975342 Z" id="路径-353" fill="#D8D8D8"></path>
                <path d="M32.1652832,51.1068115 L34.144104,51.0811768 L35.1592484,50.3518112 C34.9055609,50.0475101 34.5380453,49.9490588 34.0567017,50.0564575 C33.575358,50.1638562 32.9448852,50.5139742 32.1652832,51.1068115 Z" id="路径-354" fill="#D8D8D8"></path>
                <path d="M35.2871094,52.1296387 C35.0678793,51.8157349 35.0647583,50.5252075 35.2415771,49.7398071 C35.418396,48.9544067 36.5114746,47.6373549 36.7836304,47.5992561 C37.0557861,47.5611572 37.5914917,47.9672241 37.3225098,48.2399902 C37.0535278,48.5127563 36.2188084,49.8513465 36.257567,50.560622 C36.2963257,51.2698975 36.5706163,51.4710083 36.3231201,51.8035889 C36.0756239,52.1361694 35.5063395,52.4435425 35.2871094,52.1296387 Z" id="路径-355" fill="#D8D8D8"></path>
                <path d="M37.3960127,48.1635742 C38.2477269,48.000651 38.8103231,48.0523682 39.0838013,48.3187256 C39.2782593,48.1433105 39.9719849,47.8497314 39.8953857,47.6256104 C39.8187866,47.4014893 39.4716797,47.2651367 38.5133057,47.2562866 C37.8743896,47.2503866 37.5019587,47.5528158 37.3960127,48.1635742 Z" id="路径-356" fill="#D8D8D8"></path>
                <path d="M40.7075806,48.6589355 C40.450903,48.3565693 40.5188599,47.5558472 40.7126465,46.8673096 C40.9064331,46.178772 41.6081543,44.6370239 42.0307007,44.3535156 C42.4532471,44.0700073 43.1694946,44.0495605 43.1546631,44.0930176 C43.1398315,44.1364746 42.6699829,44.8789673 42.354248,45.6367798 C42.0385132,46.3945923 41.7963257,47.956604 41.7852173,48.1307983 C41.7741089,48.3049927 40.9642582,48.9613018 40.7075806,48.6589355 Z" id="路径-357" fill="#D8D8D8"></path>
                <path d="M45.6751099,45.9158325 C45.3492432,46.0011597 44.9767965,45.8704224 44.8333995,45.7081909 C44.6900024,45.5459595 44.1557007,43.5144518 44.3093872,42.310357 C44.4630737,41.1062622 44.9750366,40.3743286 45.3795166,40.3479004 C45.7839966,40.3214722 45.762146,40.4194946 45.6751099,40.7861328 C45.5880737,41.152771 45.4678345,42.5963135 45.5844116,43.3502808 C45.7009888,44.104248 46.4870999,45.1722016 46.2815443,45.3459885 C46.0759888,45.5197754 46.0009766,45.8305054 45.6751099,45.9158325 Z" id="路径-358" fill="#D8D8D8"></path>
                <path d="M50.4066772,43.4060669 C50.4190572,43.6248968 49.7215068,43.643309 48.3140259,43.4613037 C47.4115601,42.8864746 46.5125326,42.3841553 45.6169434,41.9543457 C45.5421549,41.692098 45.5615438,41.3026937 45.6751099,40.7861328 C46.8824713,40.9847005 47.7242388,41.2070109 48.2004124,41.453064 C48.9146729,41.8221436 50.3881072,43.0778221 50.4066772,43.4060669 Z" id="路径-359" fill="#D8D8D8"></path>
                <path d="M53.1016235,42.2236938 C53.165015,42.4478083 52.3231201,42.6682739 52.0723267,42.6643066 C51.8215332,42.6603394 51.0431519,42.620337 50.9258423,42.4873536 C50.8085327,42.3543701 51.5150757,41.6502686 51.7818604,41.6373901 C52.048645,41.6245117 53.0382321,41.9995794 53.1016235,42.2236938 Z" id="路径-360" fill="#151450"></path>
                <path d="M83.6769488,58.1842933 C83.4336574,58.028864 83.1527913,57.9244808 82.8343506,57.8711435 C82.3566895,57.7911377 81.4240412,58.0411995 80.3632812,58.4482422 C79.3025213,58.8552849 76.4335937,59.78479 74.7174072,60.3708496 C73.0012207,60.9569092 71.7177734,61.3349536 69.7680664,61.4819336 C67.8183594,61.6289135 63.0942928,61.3437559 61.6960449,61.211792 C60.297797,61.0798281 58.2515278,60.8909971 57.0866699,61.0106201 C55.9218121,61.1302431 51.4191895,61.9528809 47.7923584,62.5540771 C44.1655273,63.1552734 35.641673,64.3664644 34.0092773,64.4731445 C30.1688232,64.9681396 21.2668457,64.3470459 17.1074219,63.6976318 C18.032959,63.9831543 27.1901855,65.3995964 30.5864258,65.4713436 C32.8505859,65.5191751 41.9538664,64.7884115 57.8962672,63.2790527 L74.3394188,62.8485107 L82.5870178,59.5480082 L83.6769488,58.1842933 Z" id="路径-373" fill="#77708B"></path>
                <path d="M57.4230957,61.4631348 C52.5034993,62.2451986 48.7725423,62.8515625 46.2302246,63.2822266 C42.416748,63.9282227 33.9848633,65.2473679 28.8000488,65.0589867 C25.3435059,64.9333992 19.4662272,64.1565755 11.1682129,62.7285156 L10.6931152,63.2701741 C10.989502,64.7970893 11.1478678,65.6984863 11.1682129,65.9743652 C11.1987305,66.3881836 22.072998,69.7600098 23.0349121,70.0856934 C23.9968262,70.411377 32.2558594,68.328125 34.0581055,68.6992188 C35.8603516,69.0703125 46.866333,71.5622559 47.951355,70.8969727 C49.036377,70.2316895 55.3188477,65.737793 56.7094727,64.6384277 C57.636556,63.9055176 57.8744303,62.8470866 57.4230957,61.4631348 Z" id="路径-329" fill="#F4F4F5"></path>
                <path d="M11.218174,62.9063721 C19.3665072,64.5062256 25.4355062,65.3367106 29.4251709,65.3978271 C35.409668,65.489502 43.1909068,64.2064209 46.7893011,63.5640869 C49.1882306,63.1358643 52.3052165,62.6125081 56.1402588,61.9940186 C54.2973769,63.382609 52.8359511,64.4998372 51.7559814,65.3457031 C50.1360269,66.614502 48.322892,67.9057617 46.9025959,68.055542 C45.9557318,68.1553955 42.1807454,67.2694906 35.5776367,65.3978271 C31.4482422,65.5431437 29.2180176,65.631841 28.8869629,65.6639191 C28.3903809,65.7120361 23.6794467,67.5007324 23.4039323,67.5201416 C23.128418,67.5395508 18.7950439,65.9814453 16.8795166,65.3978271 C15.6024984,65.0087484 13.6553548,64.5421956 11.0380859,63.9981689 L11.218174,62.9063721 Z" id="路径-341" fill="#B3B1B9"></path>
                <path d="M52.096946,65.0794953 L51.7559814,65.3457031 C50.1360269,66.614502 48.322892,67.9057617 46.9025959,68.055542 C45.9557318,68.1553955 42.1807454,67.2694906 35.5776367,65.3978271 L34.8673242,65.42293 L34.8673242,65.42293 L34.5388898,65.2120269 L34.5388898,65.2120269 C37.9616246,64.94777 41.4376546,64.4540159 44.097748,64.0229788 L43.8756104,63.7346182 C45.1074605,65.4297785 46.473142,66.2634809 47.9726547,66.2357253 C49.2655613,66.2117939 51.6566858,65.0477542 55.1460282,62.7436063 L52.096946,65.0794953 L52.096946,65.0794953 Z" id="路径" fill="#BEBBC6"></path>
                <path d="M29.4251709,65.3978271 C33.3544703,65.458019 38.0583394,64.9255578 41.8442596,64.3709306 C42.066238,65.5787459 45.02056,66.5912257 46.6263972,67.0196408 C47.3574582,67.2146777 48.3590902,67.1692672 49.6312933,66.8834091 C48.6675575,67.5050413 47.7200162,67.9693392 46.9025959,68.055542 C45.9557318,68.1553955 42.1807454,67.2694906 35.5776367,65.3978271 L28.8869629,65.6639191 C28.3903809,65.7120361 23.6794467,67.5007324 23.4039323,67.5201416 L23.2792531,67.4996937 C23.1554106,67.4702489 24.8934687,66.2356179 24.6960449,66.0258789 C24.2199714,65.5201081 15.7615544,64.0090405 14.069129,63.4475458 C20.7998991,64.6953222 25.9165884,65.3440802 29.4251709,65.3978271 Z" id="路径" fill="#CAC7D6"></path>
                <path d="M29.4251709,65.3978271 C32.8251544,65.4499105 36.8050791,65.0582587 40.2684199,64.5924708 C40.1861816,65.4035411 40.5741869,65.9511293 41.4311549,66.236209 C42.3520601,66.542558 43.6811191,67.0978319 45.4183319,67.9020307 L44.7945463,67.7821623 C42.8896742,67.3945667 39.8163471,66.5992975 35.5776367,65.3978271 L28.8869629,65.6639191 C28.4622268,65.7050745 24.9543935,67.019587 23.775855,67.4112399 C24.1538935,66.8497052 26.1011187,66.1899981 26.0831299,65.967041 C26.0647319,65.7390116 24.5561106,65.6349944 22.2003174,64.7518311 L24.3205566,65.0258789 C27.0933616,65.3903589 27.5609927,65.3692703 29.4251709,65.3978271 Z" id="路径" fill="#DCD9E6"></path>
                <path d="M86,67.0800781 C85.0203451,68.7931315 84.1293132,69.8563639 83.3269043,70.2697754 C82.123291,70.8898926 78.0349121,71.8979492 74,72 C69.9650879,72.1020508 65.2773438,71.9870605 62.4128418,71.9870605 C59.5483398,71.9870605 55.8339844,71.1196289 53.4067383,69.9265137 C52.0041504,69.4882813 47.8195801,71.9870605 46.0961914,71.9870605 C44.3728027,71.9870605 28.4506836,71.9870605 26.9743652,71.9870605 C25.990153,71.9870605 25.1675618,71.6534017 24.5065918,70.986084 L23.1367188,71.5471191 L17.0410156,69.5611532 L16.6152344,69.0495605 L15.6748047,69.0495605 C11.819987,68.0987142 9.91048177,66.818278 9.94628906,65.208252 C9.98209635,63.5982259 10.1529134,62.465332 10.4587402,61.8095703 C10.8093262,59.7709961 11.2669271,58.7382813 11.831543,58.7114258 C11.6313477,59.7871094 11.512085,61.2335205 11.4737549,63.0506592 L11.2946777,64.1433105 C13.0503743,64.5459572 14.6112061,64.9571251 15.9771729,65.3768141 C18.026123,66.0063477 22.3887939,67.9089355 23.397583,67.8013916 C24.4063721,67.6938477 31.6074219,64.1690674 32.6621094,64.1433105 C33.7167969,64.1175537 40.9039307,67.5576172 43.3380127,68.0635986 C45.7720947,68.5695801 47.9956055,69.1517334 52.5288086,65.208252 C55.550944,62.5792643 57.182373,61.3308919 57.4230957,61.4631348 C60.0579427,61.5894368 62.0924072,61.7049154 63.5264893,61.8095703 C65.6776123,61.9665527 69.9256592,62.0153809 71.0178223,61.8095703 C72.1099854,61.6037598 76.5703125,60.1207275 77.8391113,59.7905273 C78.6849772,59.5703939 80.4015706,58.951945 82.9888916,57.9351807 C83.6842041,58.0718994 84.027181,58.3306478 84.0178223,58.7114258 C84.0084635,59.0922038 83.9390055,59.5962321 83.8094482,60.2235107 C84.663859,60.8330485 85.0759277,61.2462565 85.0456543,61.4631348 C85.0153809,61.680013 84.9571126,61.9761149 84.8708496,62.3514404 L84.8708496,62.6540527 C85.2504883,62.8851725 85.4078776,63.1078288 85.3430176,63.3220215 C85.2457275,63.6433105 84.7510986,64.6561279 84.8708496,64.8273926 C84.9906006,64.9986572 85.6120605,65.5727539 85.5531006,65.9560547 C85.5137939,66.2115885 85.5137939,66.4221191 85.5531006,66.5876465 L86,67.0800781 Z" id="路径-327" fill="#9F9DA5"></path>
                <path d="M82.0064616,58.315288 C82.7607394,58.6937725 83.1458739,59.4281947 83.1618652,60.5185547 C83.6884766,60.9532878 83.9822336,61.3017147 84.0431364,61.5638355 C84.1040391,61.8259563 83.8942665,62.4538793 83.4138184,63.4476047 L83.9259971,63.9880957 C84.3863287,64.4873379 84.6911189,64.862834 84.8403678,65.114584 C85.1388654,65.618084 84.1445312,67.2341309 82.0178431,68.0631281 C79.9620447,68.864492 69.6257688,69.5609779 66.1748505,69.4986801 L64.9441946,69.4658605 C62.0297844,69.4174307 58.5608435,69.5563388 57.1604633,68.0644575 C56.2696266,67.1154134 57.6900864,64.9855104 61.4218427,61.6747486 L63.5264893,61.8095703 C65.6776123,61.9665527 69.9256592,62.0153809 71.0178223,61.8095703 C72.0457405,61.6158663 76.0572227,60.2907825 77.5834108,59.8602705 L77.8391113,59.7905273 C78.5721951,59.599745 79.959292,59.1097835 82.000402,58.3206429 L82.0064616,58.315288 Z" id="路径" fill="#B6B4BD"></path>
                <path d="M81.5223242,58.5038894 C81.5670995,58.5081541 81.6070023,58.5137128 81.6420327,58.5205655 C82.7636797,58.7399836 82.9039307,60.1219482 82.9187012,60.6837158 C83.8001709,60.8563232 83.6772461,62.6340332 83.0030518,63.4476047 C83.8746338,63.6400825 84.5581727,64.9781977 84.7938232,65.2049561 C85.0294738,65.4317144 84.3261719,66.3510742 83.6769488,66.4667279 C83.0277256,66.5823816 72.8432617,67.7583008 69.6985404,67.9020307 C66.5538191,68.0457607 61.1694336,69.1816406 60.3781738,67.9020307 C59.9379299,67.1900769 62.734765,65.2029845 68.768679,61.9407536 C69.774329,61.9271705 70.6129365,61.8858682 71.0178223,61.8095703 C72.1099854,61.6037598 76.5703125,60.1207275 77.8391113,59.7905273 C78.492735,59.6204242 79.6662765,59.212484 81.3597359,58.5667066 Z" id="形状结合" fill="#C4C1CB"></path>
                <path d="M59.841794,62.071167 C57.4293615,63.9448187 55.9283046,65.3619825 55.3386234,66.3226582 C54.9224479,67.0006681 53.730701,68.2626999 51.7633826,70.1087535 C49.9213619,70.6567775 47.3536431,71.9870605 46.0961914,71.9870605 L44.5678455,71.986167 L36.2556381,70.5739746 L22.6010828,70.5739746 L19.0608455,69.078125 C21.1776259,68.6340194 23.0509886,68.0646247 24.6809336,67.3699408 C27.0830545,66.4039802 31.8220853,64.163825 32.6621094,64.1433105 C33.1459872,64.1314936 34.9206611,64.8491845 36.934934,65.6783536 C38.7159793,66.8618926 40.6760087,68.1227162 41.4311549,68.4106445 C42.8532715,68.9528809 46.385416,70.5412598 46.9518633,70.5739746 C47.5183105,70.6066895 53.449472,66.0396648 54.6870163,64.9887045 C55.5120458,64.2880642 57.230305,63.3155518 59.841794,62.071167 Z" id="形状结合" fill="#A8A6AE"></path>
                <path d="M32.6621094,64.1433105 C32.9135076,64.1371711 33.5133318,64.3279484 34.3141597,64.6289687 L34.8565347,65.0936008 C36.7805143,66.7879982 39.9618588,69.8291119 47.3026604,70.9313335 L47.9726547,71.0092831 L41.5212613,71.9851667 L41.2735308,71.9857484 L35.8189945,71.507839 L31.1991626,71.1372921 C27.1031161,70.8300522 24.5784258,70.7127329 23.6250917,70.7853344 L23.4039323,70.8098625 C22.4440804,70.9639615 25.8049316,69.8198242 28.3830566,67.322998 C29.6792939,66.0676365 30.291836,65.2584233 30.8319429,64.7422565 C31.7110814,64.3886955 32.390463,64.1499445 32.6621094,64.1433105 Z" id="路径" fill="#B8B6BE"></path>
                <path d="M11.7890908,58.7167084 C11.2424105,60.7680187 11.1023858,63.5943652 11.1402588,64.4436035 C11.1800537,65.3359375 12.8306885,66.8394775 13.7668457,67.241333 L14.1190667,67.3766806 C15.8194351,67.9930276 21.748759,69.8439941 23.0349121,70.0856934 C24.3104359,70.3253951 25.8331269,69.7780963 27.3706754,69.3214928 L27.8321533,69.1881104 C29.5241699,68.7154541 32.9338379,67.1999512 33.3145752,67.241333 C33.6953125,67.2827148 34.6507568,67.7861328 37.3920898,69.1881104 C40.1334229,70.5900879 43.9822998,71.0710449 45.9294434,70.90625 C47.8765869,70.7414551 53.5213623,67.0148926 54.6745605,66.1210938 C55.8277588,65.2272949 56.5031738,66.7576904 56.1239014,67.241333 C55.7446289,67.7249756 55.2786865,68.8721924 55.4500732,69.1881104 C55.6113784,69.4854449 57.8886005,69.8918841 59.7347214,70.05754 L60.0751953,70.0856934 C61.842627,70.2187663 68.339707,70.0622841 74.4303678,70.0792372 L75.727417,70.0856934 C82.1628418,70.1329346 83.331665,68.8149414 84.3764648,68.064209 C84.8918084,67.6939131 85.2758688,67.1269152 85.528646,66.3632154 C85.5275321,66.4447886 85.5370318,66.5199781 85.5531006,66.5876465 L86,67.0800781 C85.0203451,68.7931315 84.1293132,69.8563639 83.3269043,70.2697754 C82.123291,70.8898926 78.0349121,71.8979492 74,72 L72.3570867,72.0300318 C68.747436,72.073431 64.8954102,71.9870605 62.4128418,71.9870605 C59.5483398,71.9870605 55.8339844,71.1196289 53.4067383,69.9265137 C52.0041504,69.4882813 47.8195801,71.9870605 46.0961914,71.9870605 L26.9743652,71.9870605 C25.990153,71.9870605 25.1675618,71.6534017 24.5065918,70.986084 L23.1367188,71.5471191 L17.0410156,69.5611532 L16.6152344,69.0495605 L15.6748047,69.0495605 C11.819987,68.0987142 9.91048177,66.818278 9.94579473,65.208252 C9.98209635,63.5982259 10.1529134,62.465332 10.4587402,61.8095703 C10.7859538,59.906901 11.2063893,58.880447 11.7200467,58.7302083 L11.7890908,58.7167084 Z" id="路径" fill="#262327"></path>
                <path d="M80.1412354,64.5220947 C80.6006718,64.5385312 80.7701867,64.3581113 80.6497803,63.980835 C80.5293738,63.6035586 80.1818193,63.2261172 79.6071167,62.8485107 L79.128418,62.8485107 C73.7038574,63.6720009 69.4375407,64.8012337 66.3294678,66.236209 C65.9316406,66.4344482 66.4525146,66.6402588 66.557373,66.7530518 C66.6622314,66.8658447 67.1928711,67.1768799 68.1265869,66.9216309 C68.6030148,66.7913902 71.7028536,66.0739022 76.1420898,65.2059326 C77.0493242,65.0285481 78.3823727,64.8006021 80.1412354,64.5220947 Z" id="路径-342" fill="#262327"></path>
                <path d="M21.5349218,56.8884719 L21.6136209,56.899146 L22.2956888,57.1358403 C22.400041,57.1720531 22.4552789,57.2860035 22.4190661,57.3903556 C22.3919065,57.4686197 22.3210195,57.5192571 22.2432499,57.524407 L22.1645508,57.5137329 L21.4824829,57.2770386 C21.3781308,57.2408258 21.3228929,57.1268754 21.3591056,57.0225233 C21.3862652,56.9442591 21.4571522,56.8936218 21.5349218,56.8884719 Z M22.9589157,56.5974377 L23.0376149,56.6081118 L23.7196828,56.8448061 C23.8240349,56.8810189 23.8792728,56.9949693 23.8430601,57.0993215 C23.8159005,57.1775856 23.7450135,57.2282229 23.6672439,57.2333728 L23.5885448,57.2226987 L22.9064769,56.9860044 C22.8021247,56.9497916 22.7468868,56.8358412 22.7830996,56.7314891 C22.8102592,56.653225 22.8811462,56.6025876 22.9589157,56.5974377 Z M24.4682869,56.2912829 L24.5445116,56.3135832 L25.3528612,56.7383613 C25.4506399,56.7897428 25.4882522,56.9106611 25.4368707,57.0084398 C25.3983345,57.0817738 25.3206839,57.1212643 25.2430168,57.1147495 L25.1667921,57.0924493 L24.3584425,56.6676712 C24.2606638,56.6162897 24.2230515,56.4953714 24.274433,56.3975927 C24.3129692,56.3242586 24.3906198,56.2847682 24.4682869,56.2912829 Z" id="形状结合" fill="#262327" fill-rule="nonzero"></path>
                <path d="M46.8187256,51.8427734 C47.6937509,51.3614994 45.0276699,55.7345953 47.6333008,56.5928955 C50.2389317,57.4511957 70.918457,49.6258081 71.2473145,50.0882568 C71.5761719,50.5507056 52.0754395,59.5783363 49.9406738,60.4873047 C47.8059082,61.3962731 43.6347656,62.6086426 43.1226807,59.0478516 C42.6105957,55.4870605 45.9437002,52.3240475 46.8187256,51.8427734 Z" id="路径-362" fill="#A9AAAE"></path>
                <path d="M45.1201172,55.8835449 C45.352417,55.8168945 44.5180664,57.4708252 47.8665771,58.0019531 C51.2150879,58.5330811 70.918457,49.6258081 71.2473145,50.0882568 C71.5761719,50.5507056 52.369873,58.88339 50.2351074,59.7923584 C48.1003418,60.7013268 44.2565918,61.8674316 43.9797363,59.8592529 C43.7028809,57.8510742 44.8878174,55.9501953 45.1201172,55.8835449 Z" id="路径-362" fill="#898B95"></path>
                <path d="M71.2473145,50.0882568 C71.5761719,50.5507056 52.0754395,59.5783363 49.9406738,60.4873047 L49.517932,60.6600523 C47.2988086,61.5291741 43.6027603,62.3860931 43.1226807,59.0478516 C42.6105957,55.4870605 45.9437002,52.3240475 46.8187256,51.8427734 C47.6937509,51.3614994 45.0276699,55.7345953 47.6333008,56.5928955 C50.2389317,57.4511957 70.918457,49.6258081 71.2473145,50.0882568 Z M66.24,52.168 L60.8662715,53.9343034 L58.1474669,54.8045082 C52.0671852,56.7182941 48.6214234,57.5500988 47.4455816,57.162774 C46.1550291,56.7376633 45.7245331,55.6532972 45.8909607,54.2032589 C45.9137968,54.0042941 45.9463705,53.8044058 45.9893359,53.5934637 L46.086,53.162 L46.0069089,53.2415966 C44.7475164,54.5268446 43.5677281,56.7049082 43.6826105,58.6262766 L43.7165707,58.962443 C43.9040755,60.2662609 44.6373337,60.8170388 45.935568,60.843866 C46.8778042,60.8633367 48.0285929,60.5912173 49.2019244,60.1395176 L49.7056187,59.9352639 C50.7077855,59.5085482 54.4776556,57.7738982 58.239828,56.0062984 L61.2599511,54.5785918 C62.7833733,53.8533543 64.1746711,53.1830031 65.3978221,52.5841931 L66.24,52.168 Z" id="路径-362" fill="#182062" fill-rule="nonzero"></path>
                <path d="M51.878857,35.4538252 L52.8639433,36.6962755 C53.0136518,36.8764874 53.0940106,36.9629991 53.1050199,36.9558105 L52.0089181,37.6717529 L52.0089181,37.6717529 L50.7719997,36.3719301 L51.5320225,35.7355374 C51.652192,35.6367622 51.7682393,35.5424495 51.878857,35.4538252 Z M53.6082764,34.7617188 L52.4737446,35.3884277 L52.2749251,35.1434861 L52.5960327,34.9081536 C52.690022,34.8428926 52.7700909,34.791634 52.8336182,34.7568359 C53.0160535,34.656904 53.237167,34.5569412 53.47509,34.4632613 L53.6082764,34.7617188 L53.6082764,34.7617188 Z" id="形状" fill="#27377A"></path>
                <path d="M59.8362746,43.3349076 C59.6408691,43.3320312 56.5955378,44.4592621 53.1050199,46.0036789 C49.614502,47.5480957 39.9025879,52.5411377 34.8410645,56.0030518 C37.4499512,54.5047607 45.1982422,49.8430176 52.9017334,46.4090576 C53.3838298,46.5262451 55.3620102,47.0565592 58.8362746,48 L53.309082,46.2827148 C57.7908141,44.3195643 59.966545,43.3369619 59.8362746,43.3349076 Z" id="路径-340" fill="#727289"></path>
                <path d="M66.8215332,62.850708 C66.8680405,63.0097323 66.5886498,63.0430303 66.4379272,63.0986328 C62.7044067,64.4759521 61.2501831,65.8882446 58.3483887,67.8248901 C55.5046301,69.7228027 56.7387614,68.6280236 57.9598947,67.5670273 L58.0346069,67.5021362 C59.2783813,66.4221802 62.4191357,63.9433337 66.2230225,62.8308716 C66.3820468,62.7843643 66.7750259,62.6916837 66.8215332,62.850708 Z M83.8094482,60.2235107 C83.8917248,60.282207 83.9698996,60.3390826 84.0439725,60.3941377 C83.4694365,60.709451 82.8943027,60.9572099 82.3174734,61.1383981 C79.175608,61.9819237 76.6758219,62.6207275 74.8181152,63.0548096 C70.7742628,63.9997185 66.8781738,65.3284912 64.7323608,66.2047729 C62.5865479,67.0810547 59.5221172,68.8167861 61.7103882,67.3583984 C63.8986592,65.9000108 67.1149292,64.6472778 70.9102173,63.6036987 L75.9492798,62.3278198 C79.1180216,61.5243123 81.0051473,61.0242716 81.6106567,60.8276978 C82.3817232,60.5773771 83.2092709,60.3115724 83.8822675,59.8568106 C83.8602358,59.9705057 83.8361151,60.0943974 83.8094482,60.2235107 Z M60.9778401,61.6474702 L60.9281487,61.6914476 C60.9078788,61.7055213 60.885769,61.7171695 60.8622256,61.7259559 L60.7680112,61.7446375 C60.4293501,61.7567784 56.2967971,64.3324529 55.2145386,65.4386597 C55.0986703,65.5570919 54.8696937,65.728136 54.7512614,65.6122677 C54.6328292,65.4963994 54.8252328,65.2939083 54.9411011,65.1754761 C55.9225479,64.1723118 59.0621129,62.250149 60.4103211,61.6138814 C60.6044159,61.6263935 60.7936149,61.6369767 60.9778401,61.6474702 Z" id="形状结合" fill="#797979" fill-rule="nonzero" opacity="0.5"></path>
                <path d="M84.8708496,64.8273926 L85.2389464,65.2609445 L85.2389464,65.2609445 C84.5295163,65.7627665 83.4058273,65.9945932 81.8687744,65.9577637 C79.2528748,65.8950838 73.5583631,67.1614635 69.8750332,67.7941831 L69.2806396,67.8934326 C66.8569743,68.2848714 64.215332,68.8168945 61.3557129,69.489502 C61.6555859,69.1772108 62.2332226,68.9062554 63.088623,68.6766357 C64.2434137,68.3666493 66.1992736,67.9685764 67.9770079,67.6559732 L70.7723525,67.1978219 C74.0892442,66.6746631 79.6907604,65.8347426 81.7381245,65.7137373 L82.0178431,65.7011078 C83.2636434,65.6665531 84.2108988,65.3549321 84.8596094,64.7662447 C84.8559755,64.7957828 84.8615666,64.8141162 84.8708496,64.8273926 Z M84.8708496,62.3514404 L84.8708496,62.6540527 L84.9918731,62.7375899 C84.1002659,63.0021218 83.3810917,63.1334558 82.8343506,63.1315918 C83.6536085,63.0197191 84.3588919,62.6412083 84.9502009,61.9960596 L84.8708496,62.3514404 L84.8708496,62.3514404 Z" id="形状" fill="#808080"></path>
                <path d="M72.8905645,64.4667279 L73.2104969,64.5014354 L73.6073571,65.1820994 C73.6629929,65.2775216 73.6307396,65.3999783 73.5353174,65.4556141 C73.4637507,65.4973409 73.3769772,65.4896302 73.314592,65.4429106 L73.2618027,65.3835744 L73,64.936 L72.3010249,65.6978839 C72.2449218,65.7588376 72.159726,65.7770252 72.0863481,65.7507513 L72.0184247,65.7095942 C71.957471,65.6534911 71.9392834,65.5682953 71.9655573,65.4949174 L72.0067144,65.426994 L72.8905645,64.4667279 Z" id="路径-370" fill="#EAE8EF" fill-rule="nonzero"></path>
                <path d="M74.9600328,64.0269807 C75.0369887,64.0576518 75.0843685,64.1307562 75.0859963,64.2086791 L75.0717742,64.286815 L74.7252165,65.1563524 C74.6843218,65.2589602 74.56799,65.3089885 74.4653822,65.2680937 C74.3884264,65.2374227 74.3410465,65.1643183 74.3394188,65.0863954 L74.3536409,65.0082594 L74.7001985,64.1387221 C74.7308696,64.0617662 74.803974,64.0143863 74.8818969,64.0127586 L74.9600328,64.0269807 Z" id="路径-371" fill="#EAE8EF" fill-rule="nonzero"></path>
                <path d="M77.0689087,63.7616699 L77.2472184,64.052255 L77.0298438,64.392123 L76.716,64.546 L76.7651041,64.6713945 C76.7948377,64.7487174 76.7733371,64.8331379 76.7172342,64.8872407 L76.6502134,64.9298517 C76.5728905,64.9595853 76.48847,64.9380846 76.4343672,64.8819818 L76.3917562,64.8149609 L76.2782003,64.5196561 L76.3763757,64.2685184 L76.662,64.16 L76.328,64.16 L76.0504965,64.9975609 C76.0242001,65.0761193 75.9538748,65.1275339 75.8761666,65.1335395 L75.7973547,65.1237324 C75.7187964,65.097436 75.6673818,65.0271107 75.6613761,64.9494025 L75.6711832,64.8705906 L75.9966837,63.8981848 L76.1863403,63.7616699 L77.0689087,63.7616699 Z" id="路径-372" fill="#EAE8EF" fill-rule="nonzero"></path>
                <path d="M32.4232203,65.4964387 C32.6303345,65.419584 32.8605368,65.5251803 32.9373915,65.7322945 C33.001437,65.9048897 32.9387805,66.0935183 32.7962582,66.1960763 L32.7015356,66.2464657 L25.3905942,68.9593641 C25.1834799,69.0362188 24.9532777,68.9306225 24.876423,68.7235083 C24.8123775,68.550913 24.8750339,68.3622845 25.0175562,68.2597265 L25.1122789,68.2093371 L32.4232203,65.4964387 Z" id="路径-369" fill="#85838C" fill-rule="nonzero"></path>
            </g>
        </g>
    </g>
</svg>