<?xml version="1.0" encoding="UTF-8"?>
<svg width="96px" height="96px" viewBox="0 0 96 96" version="1.1" xmlns="http://www.w3.org/2000/svg" xmlns:xlink="http://www.w3.org/1999/xlink">
    <title>Nike Free Trainer 3.0 x MMW</title>
    <defs>
        <rect id="path-1" x="0" y="0" width="96" height="96"></rect>
    </defs>
    <g id="icon" stroke="none" stroke-width="1" fill="none" fill-rule="evenodd">
        <g id="画板" transform="translate(-622.000000, -54.000000)">
            <g id="Nike-Free-Trainer-3.0-x-MMW" transform="translate(622.000000, 54.000000)">
                <g id="#" opacity="0">
                    <use fill="#FFFFFF" fill-rule="evenodd" xlink:href="#path-1"></use>
                    <rect stroke-opacity="0.5" stroke="#DDDDDD" stroke-width="6" stroke-linejoin="square" x="3" y="3" width="90" height="90"></rect>
                    <rect stroke-opacity="0.507785184" stroke="#DDDDDD" stroke-width="12" stroke-linejoin="square" x="6" y="6" width="84" height="84"></rect>
                </g>
                <path d="M73.0466309,18.1325684 C74.4794922,17.3874512 75.7841797,19.8920898 75.7841797,20.7241211 C75.7841797,21.5561523 73.954223,24.2131348 73.3952637,25.0212402 C72.8363044,25.8293457 75.0478516,34.800293 75.0478516,35.8178711 C75.0478516,36.4962565 75.6480508,38.4905599 76.8484494,41.8007812 C77.6485391,45.5924479 77.6485391,47.6271657 76.8484494,47.9049347 C75.6483148,48.3215882 72.4291992,52.3579102 71.385498,51.8937988 C70.6896973,51.5843913 64.0894799,49.2179362 51.5848461,44.7944336 C52.0681583,44.1289062 52.5026855,42.9690755 52.8884277,41.3149414 C53.467041,38.8337402 52.8884277,30.6502666 52.8884277,29.3466797 C52.8884277,28.0430928 52.5935059,26.9301758 54.4536133,26.9301758 C56.3137207,26.9301758 58.8361816,27.4438477 60.7673655,27.4438477 C62.6985494,27.4438477 70.9084473,25.0068359 72.4291992,24.5129395 C70.6022949,21.4318848 71.6137695,18.8776855 73.0466309,18.1325684 Z M73.7106934,19.3880615 C73.3509115,19.2712809 73.0915527,20.7421468 72.9326172,23.8006592 C73.8033854,22.0890706 74.3187256,21.0629069 74.4786377,20.722168 C74.7185059,20.2110596 74.2503662,19.5632324 73.7106934,19.3880615 Z" id="形状结合" fill="#B0B0B0"></path>
                <path d="M66.6201173,26.1983593 C66.1049511,27.9677655 66.0752364,31.6702587 66.3432617,36.3066406 C66.6870117,42.2529297 66.1040039,46.4106445 61.4628906,45.956543 C56.8217773,45.5024414 56.7304688,30.4072266 56.5608935,29.050293 C56.4667051,28.2966022 55.9133141,27.5931875 54.9007204,26.9400487 L54.4536133,26.9301758 C56.3137207,26.9301758 58.8361816,27.4438477 60.7673655,27.4438477 C61.7094064,27.4438477 64.1454899,26.8639519 66.5703727,26.2125834 Z" id="形状结合" fill="#9C9C9C"></path>
                <path d="M75.0478516,35.8178711 C75.0478516,36.4962565 75.6480508,38.4905599 76.8484494,41.8007812 C77.6485391,45.5924479 77.6485391,47.6271657 76.8484494,47.9049347 C75.6483148,48.3215882 72.4291992,52.3579102 71.385498,51.8937988 C70.6896973,51.5843913 64.0894799,49.2179362 51.5848461,44.7944336 C52.0681583,44.1289062 52.5026855,42.9690755 52.8884277,41.3149414 C53.3342842,39.4030259 53.093022,34.1053096 52.9588407,31.1785155 C54.6593427,35.0730539 55.9045704,37.7966224 56.6943359,39.3500977 C58.0584521,42.0333252 63.2641602,44.484375 65.7016602,44.4272461 C68.1391602,44.3701172 70.5048828,41.6601562 71.644043,39.1772461 C72.3053253,37.7359171 73.1340692,34.9901889 74.1302749,30.9400615 C74.5808828,33.2033389 75.0478516,35.3502829 75.0478516,35.8178711 Z" id="形状结合" fill="#9D9B9B"></path>
                <path d="M57.0932873,27.1302698 C58.1344524,27.249312 59.2044888,27.3854729 60.1699496,27.4293932 C60.7691753,36.9649568 61.2776677,42.3881595 61.6950684,43.6989746 C62.0013842,44.6609361 62.7680947,46.4945464 63.9952,49.1998055 C62.8930302,48.806935 61.6679736,48.3704904 60.3205333,47.8914083 L58.8742676,44.3273926 L51.7007745,44.6238532 C51.9937997,44.1645636 52.2682941,43.5175158 52.5242579,42.6827097 C53.793254,42.5172615 55.7844887,42.2480922 58.4973145,41.8742676 Z" id="形状结合" fill="#C0BDB9"></path>
                <path d="M76.8484494,46.6491381 L66.0175781,51.2900391 C62.7735885,51.1715495 60.6537532,50.5935872 59.6580722,49.5561523 C58.1645508,48 55.5332031,42.3928223 55.5332031,41.6711426 C55.5332031,40.9494629 54.9414062,37.6030273 54.0144043,36.8520508 C53.0874023,36.1010742 51.5302734,35.4694824 51.5302734,35.4694824 C51.5302734,35.4694824 51.5302734,39.2712402 51.5302734,39.9709473 C51.5302734,40.6706543 48.2327922,46.9003906 47.5037252,47.4501953 C46.7746582,48 39.8557129,50.8840332 37.6945801,51.8937988 C35.5334473,52.9035645 31.0236816,53.8476563 30.3022461,54.177002 C29.5808105,54.5063477 24.4892578,55.8718262 23.1694336,55.8718262 C21.8496094,55.8718262 17.0493164,56.1982422 18.6408691,58.2728271 C19.7019043,59.6558838 20.8982747,60.7958984 22.2299805,61.6928711 L66.6494141,59.1125339 L78.4448242,50.0878906 L76.8484494,46.6491381 Z" id="路径-156" fill="#EDEBD4"></path>
                <path d="M51.5293629,37.7382996 L52.3769531,38.1643426 L53.2152498,40.0289307 L51.8136499,42.8757324 L52.3769531,44.0244141 L57.3188343,45.8565337 C58.1023255,47.3669659 58.9930092,48.8631998 59.6580722,49.5561523 C60.6537532,50.5935872 62.7735885,51.1715495 66.0175781,51.2900391 L66.0175781,51.2900391 L67.7943629,50.5282996 L71.1077881,53.5041504 C68.1303455,55.3456865 65.9209344,56.2468596 64.479555,56.2076697 L64.3166504,56.1989746 C62.1634521,56.0252522 59.3483887,54.8759766 56.6694336,52.9455566 C55.5422783,52.1333433 53.9553271,50.6058295 50.3735352,48.7409668 C49.8286135,48.4572529 48.8242662,48.0581124 47.3604932,47.5435451 C47.4215375,47.5070216 47.4694655,47.4760313 47.5037252,47.4501953 C48.2327922,46.9003906 51.5302734,40.6706543 51.5302734,39.9709473 L51.5302734,39.9709473 L51.5293629,37.7382996 Z" id="形状结合" fill="#BEBB95"></path>
                <path d="M50.2412109,42.8757324 L50.2412109,41.3149414 C50.717041,40.2573242 50.875651,39.5088704 50.717041,39.0695801 C50.479126,38.4106445 49.4935638,34.8510742 49.4935638,33.4255371 C49.4935638,32 50.2021484,30.6584473 50.717041,30.6584473 C51.2319336,30.6584473 54.2944336,30.1916504 53.564209,36.3103027 C52.9390462,35.9927572 52.411377,35.7124837 51.9812012,35.4694824 C52.0098566,32.9678548 51.8777382,32.0017904 51.5848461,32.5712891 C51.1455078,33.4255371 51.3786621,37.6533203 51.9812012,39.0695801 C52.3828939,40.0137533 52.3828939,40.762207 51.9812012,41.3149414 L50.2412109,42.8757324 Z" id="路径-157" fill="#C4BFA6"></path>
                <path d="M79.7426758,48.9003906 L76.5993652,40.7998047 C74.3086751,43.3037109 73.347819,47.1665853 73.7167969,52.3884277 L78.5737305,52.2976074 L79.7426758,48.9003906 Z" id="路径-155" fill="#8D8C95"></path>
                <path d="M79.7426758,48.9003906 L76.9135742,41.3149414 C74.6228841,43.8188477 73.662028,47.681722 74.0310059,52.9035645 L78.5737305,52.2976074 L79.7426758,48.9003906 Z" id="路径-155" fill="#DBD6CE"></path>
                <path d="M74.5844727,61.1481934 C65.9422201,57.3838704 60.7875977,55.3519287 59.1206055,55.0523682 C56.6201172,54.6030273 42.9475098,51.8937988 41.8376465,51.8937988 C40.7277832,51.8937988 31.9650879,56.111084 30.8520508,56.5209961 C30.0383301,57.5322266 23.4477539,60.3640137 17.6884766,57.8798828 C16.5294596,57.6697591 17.6884766,59.8041178 21.1655273,64.282959 L47.5037252,64.6518555 L68.7646484,63.7856445 L74.5844727,61.1481934 Z" id="路径-154" fill="#4A3216"></path>
                <path d="M30.3928223,59.7977295 C29.8549805,59.6650391 28.2854004,60.176865 27.8747559,60.1752855 C27.4641113,60.1737061 27.2380371,60.7642563 27.2579346,60.9836906 C27.277832,61.203125 28.29041,61.5743408 29.256958,61.4125977 C30.223506,61.2508545 30.5096436,61.1530109 30.6395264,60.9379557 C30.7694092,60.7229004 30.9306641,59.9304199 30.3928223,59.7977295 Z" id="路径-183" fill="#EDEBD4"></path>
                <path d="M41.8376465,51.8937988 C42.9475098,51.8937988 56.6201172,54.6030273 59.1206055,55.0523682 C59.8477708,55.1830407 61.2385716,55.6433552 63.2930079,56.4333119 L60.7673655,57.8798828 L42.722168,55.0523682 L31.6884766,59.5002354 L28.0244141,60.2784424 L19.4433594,60.9379557 L17.2810097,58.0089579 C17.3353386,57.8835096 17.4711609,57.8404846 17.6884766,57.8798828 C23.4477539,60.3640137 30.0383301,57.5322266 30.8520508,56.5209961 C31.9650879,56.111084 40.7277832,51.8937988 41.8376465,51.8937988 Z" id="形状结合" fill="#776248"></path>
                <path d="M59.5563965,57.4272461 C59.302653,57.2076823 60.2087402,56.6547852 62.2746582,55.7685547 C64.3405762,54.8823242 69.9915365,52.2792155 79.2275391,47.9592285 L73.6352539,61.6928711 L59.5563965,57.4272461 Z" id="路径-153" fill="#968E9E"></path>
                <path d="M59.699707,57.8798828 C59.4459635,57.660319 60.3520508,57.1074219 62.4179687,56.2211914 C64.4838867,55.3349609 70.134847,52.7318522 79.3708496,48.4118652 L73.6352539,61.6928711 L59.699707,57.8798828 Z" id="路径-153" fill="#EFEAE4"></path>
                <path d="M71.8007585,51.9410577 L73.8468018,52.6345215 L76.8646211,54.2130577 L74.5665356,59.5353224 C73.5262531,59.1780257 72.7141033,58.9077832 72.1300861,58.7245947 L71.9775391,58.677124 C70.8997396,58.3446045 67.8777669,57.4254365 62.9116211,55.91962 L63.0286542,55.9552718 C64.6467219,55.2426286 67.5707566,53.9045572 71.8007585,51.9410577 Z" id="Combined-Shape" fill="#D0C4B6"></path>
                <path d="M47.5148926,61.5578613 C48,61.5578613 59.0026855,57.4580078 59.831543,57.4580078 C60.3841146,57.4580078 65.1612142,58.6840007 74.1628418,61.1359863 C72.6800944,64.049235 70.3632812,65.5058594 67.2124023,65.5058594 C62.486084,65.5058594 47.0297852,61.5578613 47.5148926,61.5578613 Z" id="路径-152" fill="#9F9AA4"></path>
                <path d="M47.5148926,61.5578613 C48,61.5578613 58.8708496,57.8798828 59.699707,57.8798828 C60.2522786,57.8798828 65.0293783,59.1058757 74.0310059,61.5578613 C72.6361491,64.18986 70.3632812,65.5058594 67.2124023,65.5058594 C62.486084,65.5058594 47.0297852,61.5578613 47.5148926,61.5578613 Z" id="路径-152" fill="#E8E3DD"></path>
                <path d="M58.9958406,59.0076528 L54.5445013,60.4179803 C54.3194717,60.4892769 54.1181015,60.6204989 53.9619973,60.7975666 C53.4871984,61.3361268 53.5388871,62.1576168 54.0774473,62.6324157 L54.6399867,63.1283548 C58.2315257,65.5259733 61.1975454,66.7906377 63.5825618,66.9390691 C65.8597903,67.0807924 68.8330997,65.943677 72.5203545,63.5409833 L73.676814,62.7673759 L60.3167244,58.9871223 C59.8838953,58.8646528 59.4246545,58.8717908 58.9958406,59.0076528 Z M60.1533671,59.5644562 L72.262,62.99 L71.6086076,63.411957 C68.2928359,65.4926462 65.6248938,66.4650128 63.6198307,66.3402277 C61.3601532,66.1995967 58.4842946,64.9733756 55.004789,62.6537052 L54.4742318,62.1823467 C54.1842378,61.9266857 54.1564054,61.484345 54.4120663,61.194351 C54.4961225,61.0990069 54.6045526,61.0283488 54.7257223,60.9899584 L59.1770617,59.5796309 C59.4940111,59.4792111 59.8334499,59.4739352 60.1533671,59.5644562 Z" id="路径-165" fill="#9F9AA4" fill-rule="nonzero"></path>
                <path d="M85.5129395,64.3554688 C86.7590332,65.4573568 87.3820801,66.0083008 87.3820801,66.0083008 C87.3820801,66.0083008 85.5598145,72 75.7460938,72 C74.9534505,70.9331055 74.4904785,70.2490234 74.3571777,69.9477539 L71.1889648,69.9477539 L70.2697754,72 L61.8930664,72 L59.454834,69.71875 L58.6447754,69.1142578 L47.6149902,69.1142578 L46.1125488,72 L37.8500977,72 L37.2124023,70.6547852 L36.496582,72 L28.7177734,72 L27.7734375,69.71875 L26.7346191,69.71875 L25.4172363,71.3354492 C20.7938639,70.7070412 15.8919271,68.5127866 10.7114258,64.7526855 C11.1075846,64.3985189 11.4054586,64.0761719 11.6050476,63.7856445 C18.0796122,67.3479818 25.1525879,68.9230957 32.8239746,68.5109863 C44.3310547,67.8928223 54.6062012,67.208252 54.9533691,67.208252 C55.1848145,67.208252 62.3382161,67.3236491 76.4135742,67.5544434 C78.9689809,67.3514025 80.7898631,67.058922 81.8762207,66.677002 C82.9625783,66.2950819 84.1748179,65.5212375 85.5129395,64.3554688 Z" id="路径-151" fill="#9E835C" opacity="0.942475818"></path>
                <path d="M78.902832,48 C78.902832,48 79.6899414,47.6335449 80.128418,48.3395996 C80.5668945,49.0456543 83.0405273,54.8862305 83.0405273,54.8862305 C83.0405273,54.8862305 83.398112,54.9911296 84.1132813,55.2009277 L87.3820801,62.8796387 C85.0829264,66.5184326 82.5,68.7133993 79.6333008,69.4645386 C75.333252,70.5912476 60.2897949,70.2810059 60.2897949,70.2810059 C60.2897949,70.2810059 60.0114746,70.0935872 59.454834,69.71875 L58.6643066,69.71875 L58.2059326,69.4645386 L57.3373413,69.4645386 L57.2111206,69.71875 L56.1732178,69.71875 L55.892334,69.4645386 L54.9508667,69.4645386 L54.7579346,69.71875 L53.5842285,69.71875 L53.4126587,69.4645386 L52.6245728,69.5576782 L52.2354736,69.71875 L51.0125732,69.71875 L50.8928223,69.5576782 L50.1078491,69.5576782 L49.8213501,69.8252563 L48.7802734,69.8252563 L48.5107422,69.71875 L47.9169312,69.71875 L47.5772095,70.0723267 C43.1803589,70.2114461 39.6895752,70.2810059 37.1048584,70.2810059 C33.2277832,70.2810059 21.0166016,69.8320312 11.861084,63.9812012 C11.6621094,63.9301758 11.4013672,58.6196289 11.861084,58.1413574 C12.3208008,57.6630859 14.5292969,55.8864746 16.0703125,55.5437012 C17.6113281,55.2009277 23.3728027,55.223877 23.829834,55.5437012 C24.2868652,55.8635254 19.9328613,56.5356445 19.9328613,57.0803223 C19.9328613,57.625 20.7336426,62.8796387 21.9953613,62.8796387 C23.2570801,62.8796387 28.8950195,62.5158691 30.7314453,62.5158691 C31.3445638,62.5100098 31.7512207,62.1454264 31.951416,61.4221191 C30.6491699,59.7121582 30.6491699,58.618571 31.951416,58.1413574 C33.9047852,57.4255371 39.5673828,55.5437012 40.222168,55.5437012 C40.8769531,55.5437012 42.2570801,59.8029785 42.8935547,60.6125488 C43.5300293,61.4221191 46.6436768,61.0273437 47.5772095,61.0273437 C48.5107422,61.0273438 50.8867188,60.3283691 52.2354736,61.4221191 C53.5842285,62.5158691 66.1633301,65.4465332 69.5026855,63.9812012 C72.842041,62.5158691 75.7641602,55.7575684 77.3334961,52.2729492 C78.902832,48.7883301 78.902832,48 78.902832,48 Z" id="路径-150" fill="#C9BDAA"></path>
                <path d="M80.128418,48.3395996 C80.5668945,49.0456543 83.0405273,54.8862305 83.0405273,54.8862305 C83.0405273,54.8862305 83.1161516,54.9084152 83.2674002,54.9527847 C81.1733564,59.4973043 79.3949948,62.4411189 77.9339141,63.7856445 C75.4283751,66.0913086 64.7919922,65.6821289 56.5608935,64.5317201 C48.3297947,63.3813113 50.6694336,65.3396764 40.6977539,66.4819336 C30.7260742,67.6241908 21.1835937,65.4448242 19.4741211,64.9243164 C18.1532912,64.5221443 14.2497659,60.4674694 12.0737514,57.9371683 C12.7991017,57.2891955 14.698992,55.8487287 16.0703125,55.5437012 C17.6113281,55.2009277 23.3728027,55.223877 23.829834,55.5437012 C24.2868652,55.8635254 19.9328613,56.5356445 19.9328613,57.0803223 C19.9328613,57.625 20.7336426,62.8796387 21.9953613,62.8796387 C23.2570801,62.8796387 28.8950195,62.5158691 30.7314453,62.5158691 C31.3445638,62.5100098 31.7512207,62.1454264 31.951416,61.4221191 C30.6491699,59.7121582 30.6491699,58.618571 31.951416,58.1413574 C33.9047852,57.4255371 39.5673828,55.5437012 40.222168,55.5437012 C40.8769531,55.5437012 42.2570801,59.8029785 42.8935547,60.6125488 C43.5300293,61.4221191 46.6436768,61.0273437 47.5772095,61.0273437 C48.5107422,61.0273438 50.8867188,60.3283691 52.2354736,61.4221191 C53.5842285,62.5158691 66.1633301,65.4465332 69.5026855,63.9812012 C72.842041,62.5158691 75.7641602,55.7575684 77.3334961,52.2729492 C78.902832,48.7883301 78.902832,48 78.902832,48 C78.902832,48 79.6899414,47.6335449 80.128418,48.3395996 Z" id="形状结合" fill="#DCD1C1"></path>
                <path d="M23.829834,55.5437012 C24.2868652,55.8635254 19.9328613,56.5356445 19.9328613,57.0803223 C19.9328613,57.625 20.7336426,62.8796387 21.9953613,62.8796387 L22.4969858,62.8694531 C24.3466528,62.8105225 29.0786621,62.5158691 30.7314453,62.5158691 C31.3445638,62.5100098 31.7512207,62.1454264 31.951416,61.4221191 C30.6491699,59.7121582 30.6491699,58.618571 31.951416,58.1413574 L33.8782921,57.4666128 C36.334382,56.6306496 39.7245312,55.5437012 40.222168,55.5437012 C40.8769531,55.5437012 42.2570801,59.8029785 42.8935547,60.6125488 C43.4902496,61.371521 46.2641473,61.0719862 47.3777609,61.0315796 L47.5772095,61.0273438 C48.3547644,61.0273438 50.1330151,60.54243 51.4848995,61.0123962 L49.6255018,61.3492695 C31.7103125,64.5176615 24.6033359,63.4848754 21.7563477,62.9064941 C19.9667183,62.5429211 16.8516676,61.0156361 12.4111954,58.3246392 L12.0743884,57.9379091 L12.0743884,57.9379091 C12.7960384,57.2915185 14.6978866,55.8489746 16.0703125,55.5437012 C17.6113281,55.2009277 23.3728027,55.223877 23.829834,55.5437012 Z" id="路径" fill="#E2DACD"></path>
                <path d="M12.0743884,57.9379091 L12.0827568,57.9298887 L11.9007568,57.7858887 C13.971419,59.4986694 17.1345748,61.060792 21.3902244,62.4722566 C21.5223028,62.6492471 21.6582786,62.7762495 21.8008763,62.8377933 C19.9545687,62.7159249 16.048168,61.0299313 13.5298776,59.5744304 L12.7646724,58.7264943 C12.5206492,58.4520934 12.2891128,58.1875844 12.0743884,57.9379091 Z" id="路径" fill="#D2C7B6"></path>
                <polygon id="Path" fill="#BEB3A1" points="78 60.702769 73.9351807 59.2785645 76.3608398 54.9630525 79.7205811 56.9652374"></polygon>
                <path d="M11.7569867,58.3691052 L12.5139547,59.191577 L13.4547146,60.1799201 C16.5126438,63.3396269 18.7905104,65.151414 20.2675305,65.6087536 C24.2058756,66.8282099 29.8983453,67.5539505 38.1216316,67.4355188 C44.3769032,67.3454304 48.712871,65.5265492 51.1521628,61.9870035 L51.4153911,61.5866402 L51.754301,61.799102 C49.2893032,65.7311596 44.7385881,67.7402629 38.1273918,67.8354773 C29.8639973,67.9544866 24.1299971,67.2234513 20.1492176,65.9908558 C18.5168204,65.4854056 16.0458841,63.4857511 12.7123488,59.9843355 L11.6716474,58.8686204 C11.6937261,58.6674306 11.7218864,58.4972352 11.7569867,58.3691052 Z M87.3323364,62.880188 C87.587382,62.8984985 87.577535,63.1489461 87.3027954,63.6315308 C78.2548218,68.3190308 68.9790039,65.2248535 68.3513184,64.6518555 C74.5611165,66.7792969 80.8881226,66.188741 87.3323364,62.880188 Z" id="形状结合" fill="#BEB3A0"></path>
                <path d="M79.7789691,48.0022577 L79.776792,48.119281 C79.7463493,48.9024231 79.582959,49.6798828 79.2866211,50.4516602 C78.6516113,52.1054687 74.6472168,60.7431641 73.1103516,62.2840576 C71.5734863,63.8249512 70.0202637,66.0656738 63.0688477,64.6518555 C56.1174316,63.2380371 51.5993652,61.1518555 50.53125,61.309082 C49.4631348,61.4663086 43.1491699,61.880127 42.5541992,61.3637695 C41.9592285,60.8474121 40.5617676,56.0401091 40.0810547,56.1050155 C39.6003418,56.1699219 31.652832,58.7099311 31.6884766,59.1125339 C31.7241211,59.5151367 32.5878906,61.1623535 32.3823242,61.65625 C32.2452799,61.9855143 31.7379761,62.2889608 30.8604126,62.5665894 C24.8439738,62.8661499 21.7470907,62.9690552 21.5697632,62.8753052 C21.303772,62.7346802 19.3520508,57.826416 19.1230469,56.9370117 C18.9798791,56.3809773 17.0739712,56.3683429 13.4053232,56.8991084 C14.2387876,56.3159558 15.2492849,55.7263252 16.0703125,55.5437012 C17.6113281,55.2009277 23.3728027,55.223877 23.829834,55.5437012 C24.2868652,55.8635254 19.9328613,56.5356445 19.9328613,57.0803223 C19.9328613,57.625 20.7336426,62.8796387 21.9953613,62.8796387 C23.2570801,62.8796387 28.8950195,62.5158691 30.7314453,62.5158691 C31.3445638,62.5100098 31.7512207,62.1454264 31.951416,61.4221191 C30.6491699,59.7121582 30.6491699,58.618571 31.951416,58.1413574 C33.9047852,57.4255371 39.5673828,55.5437012 40.222168,55.5437012 C40.8769531,55.5437012 42.2570801,59.8029785 42.8935547,60.6125488 C43.5300293,61.4221191 46.6436768,61.0273437 47.5772095,61.0273437 C48.5107422,61.0273438 50.8867188,60.3283691 52.2354736,61.4221191 C53.5842285,62.5158691 66.1633301,65.4465332 69.5026855,63.9812012 C72.842041,62.5158691 75.7641602,55.7575684 77.3334961,52.2729492 C78.902832,48.7883301 78.902832,48 78.902832,48 C78.902832,48 79.3654774,47.7846058 79.7789691,48.0022577 Z M83.0405273,54.8862305 C83.0405273,54.8862305 83.3646315,54.9813079 84.0128398,55.1714628 C83.4541027,55.7983448 82.7844065,56.2602097 82.128418,56.6220703 C82.383291,56.0723299 82.6311842,55.3620023 82.8720975,54.4910876 C82.9783897,54.7395153 83.0405273,54.8862305 83.0405273,54.8862305 Z" id="Combined-Shape" fill="#F5EEE2"></path>
                <path d="M77.0218724,55.4232515 C76.3269515,56.852817 75.5661571,58.3501845 74.8706292,59.5989983 L73.862904,59.2546799 C74.6753196,57.9014144 75.4118782,56.4387357 76.0480646,55.0911264 L77.0218724,55.4232515 L77.0218724,55.4232515 Z" id="Path" fill="#E4D7C3"></path>
                <path d="M80.1359863,56.2868652 L79.7426758,55.4797363 L77.4485167,52.9035645 C65.5619405,47.6630046 58.2131348,44.4773763 55.4020996,43.3466797 C51.1855469,41.6506348 49.9125977,41.3149414 49.9125977,41.3149414 C49.9125977,41.3149414 49.7729197,41.3149414 49.4935638,41.3149414 L47.0664062,46.6491381 C51.9535378,48.3719783 55.2739317,49.6236165 57.0275879,50.4040527 C59.6580722,51.574707 73.9316406,57.4331204 75.1384277,58.2728271 C75.9429525,58.8326317 76.7129821,59.3141177 77.4485167,59.7172852 L78.0141602,60.6552734 L80.1359863,56.2868652 Z" id="路径-159" fill="#EDE4D5"></path>
                <path d="M79.6094062,55.3289414 L79.7426758,55.4797363 L80.1359863,56.2868652 L78.0141602,60.6552734 L77.4744062,59.7589414 L79.6094062,55.3289414 Z" id="形状结合" fill="#B59C7E"></path>
                <path d="M78.3671017,53.9359414 L79.6111017,55.3309414 L77.5041017,59.8099414 L77.4485167,59.7172852 C76.8967093,59.4148238 76.3254874,59.0682832 75.7348509,58.6776635 L78.3671017,53.9359414 Z" id="形状结合" fill="#C9BA9E"></path>
                <path d="M75.999914,52.2651814 C76.4750516,52.4744752 76.9579191,52.6872695 77.4485167,52.9035645 L77.4485167,52.9035645 L78.4504196,54.0287407 L75.8661914,58.7640085 C75.7835128,58.7099818 75.7004501,58.6550828 75.6170032,58.5993116 L75.1384277,58.2728271 C74.8741693,58.0889508 73.9833478,57.6644233 72.7254196,57.1011637 Z" id="形状结合" fill="#DFD3BE"></path>
                <path d="M65.2180896,47.538249 C68.2101652,48.8413152 71.8059433,50.4177683 76.0054239,52.2676084 L72.8107566,57.1394148 C71.8535813,56.7099164 70.6745313,56.1965175 69.392632,55.6459735 Z" id="形状结合" fill="#E5DCC7"></path>
                <path d="M49.9148937,41.3155554 C49.9554484,41.3264735 50.5388431,41.4864324 52.1088412,42.0676042 L56.5580367,50.1997679 C54.7113694,49.4123801 51.5474925,48.2288369 47.0664062,46.6491381 L47.0664062,46.6491381 L49.4935638,41.3149414 L49.4935638,41.3149414 Z" id="形状结合" fill="#E5DEC6"></path>
                <polygon id="路径-160" fill="#F5F5E6" points="39.6865234 58.2728271 38.6098633 56.1818848 37.7883301 52.9035645 37.7883301 51.4743652 37.0810547 51.4743652 32.2004395 52.9035645 31.6884766 53.6635742 31.6884766 54.8735962 32.7197266 58.7363281 33.7785645 60.2749023"></polygon>
                <path d="M38.5164766,55.8093652 L38.6098633,56.1818848 L39.6865234,58.2728271 L33.7785645,60.2749023 L32.7197266,58.7363281 L32.5944766,58.2653652 L38.5164766,55.8093652 Z" id="形状结合" fill="#BAA67E"></path>
                <path d="M37.8602324,53.1903652 L38.5472324,55.9353652 L32.5952324,58.2703652 L31.8302324,55.4023652 L37.8602324,53.1903652 Z" id="形状结合" fill="#D9D0B8"></path>
                <path d="M41.053682,61.1335637 C41.0998413,61.257815 41.0584283,61.3931813 40.9604958,61.4718997 L40.8769343,61.5192582 L35.2455867,63.6112992 C35.0902726,63.6689983 34.9175913,63.5898657 34.8598922,63.4345515 C34.8137329,63.3103002 34.855146,63.1749339 34.9530784,63.0962155 L35.0366399,63.048857 L40.6679875,60.956816 C40.8233017,60.8991169 40.995983,60.9782496 41.053682,61.1335637 Z M82.6253127,57.9737662 L82.7185145,57.9969778 C82.8403924,58.0490819 82.9100182,58.172335 82.8996468,58.2975539 L82.8764353,58.3907557 L81.1615915,62.4019862 C81.0964614,62.5543335 80.920161,62.6250371 80.7678137,62.559907 C80.6459357,62.5078029 80.5763099,62.3845498 80.5866813,62.2593309 L80.6098928,62.1661291 L82.3247366,58.1548986 C82.3768407,58.0330207 82.5000937,57.9633948 82.6253127,57.9737662 Z M40.3624895,59.0086375 C40.4083938,59.1329832 40.3667032,59.2682643 40.2686095,59.3467817 L40.1849511,59.3939687 L34.4273827,61.5194719 C34.2719506,61.5768523 34.0994319,61.4973656 34.0420515,61.3419335 C33.9961472,61.2175878 34.0378378,61.0823067 34.1359315,61.0037893 L34.2195899,60.9566023 L39.9771583,58.8310991 C40.1325904,58.7737187 40.3051091,58.8532054 40.3624895,59.0086375 Z M81.3172148,56.2333187 L81.4096713,56.2593407 C81.5299162,56.31511 81.5957795,56.440414 81.5816227,56.5652616 L81.5556007,56.6577182 L79.643003,60.7814975 C79.5732914,60.9318037 79.3949318,60.9971385 79.2446256,60.9274269 C79.1243806,60.8716576 79.0585173,60.7463535 79.0726742,60.6215059 L79.0986962,60.5290494 L81.0112938,56.4052701 C81.0670631,56.2850252 81.1923672,56.2191619 81.3172148,56.2333187 Z" id="形状结合" fill="#897874" fill-rule="nonzero"></path>
                <path d="M57.013916,62.9255527 C57.1148275,62.9486543 57.1952718,63.032491 57.255249,63.177063 C54.6089681,66.5874634 51.5238851,68.5507812 48,69.0670166 C47.8110758,69.6229248 47.6701457,69.9580282 47.5772095,70.0723267 L47.0534668,70.1755371 L47.5037252,68.7338867 C51.5933641,67.947612 54.7634277,66.0115007 57.013916,62.9255527 Z M58.3427124,63.5336914 L59.0716553,63.7149658 C59.5188915,66.3226993 59.4416286,67.9403618 59.0551798,69.4459375 L58.9249878,69.6932373 C58.7764243,69.7127543 58.6685141,69.715216 58.6012573,69.7006226 C58.5563722,69.6908833 58.4960695,69.6519226 58.4203491,69.5837402 C58.8444118,68.2703178 58.835501,66.4357178 58.4686605,64.0010586 L58.3427124,63.5336914 Z" id="路径-166" fill="#A69894" fill-rule="nonzero"></path>
                <path d="M62.3847656,31.7412109 C62.3717448,32.9104004 62.5755208,33.5213623 62.9960937,33.5740967 C63.4166667,33.6268311 66.1205648,32.2118734 71.1077881,29.3292236 C66.6914469,33.1451416 64.0423177,35.1918945 63.1604004,35.4694824 C61.8375244,35.8858643 61.2336426,34.5921631 61.3552246,33.9711914 C61.4362793,33.5572103 61.7794596,32.8138835 62.3847656,31.7412109 Z" id="路径-169" fill="#262327"></path>
                <path d="M44.5324707,54.2177734 C45.5788574,54.5 55.5834961,55.9330729 54.9780273,56.4158772 C54.3725586,56.8986816 46.5966797,55.5315999 44.4477539,55.2383341 C42.2988281,54.9450684 43.486084,53.9355469 44.5324707,54.2177734 Z" id="路径-170" fill="#CFCFCF"></path>
                <path d="M28.6563721,59.2948608 C26.9523926,59.3804408 21.6409912,60.3187256 22.3515625,60.435791 C23.0621338,60.5528564 27.5521851,60.1426392 28.1144409,60.0464478 C28.6766968,59.9502563 30.3603516,59.2092809 28.6563721,59.2948608 Z" id="路径-171" fill="#CFCFCF"></path>
            </g>
        </g>
    </g>
</svg>