<?xml version="1.0" encoding="UTF-8"?>
<svg width="96px" height="96px" viewBox="0 0 96 96" version="1.1" xmlns="http://www.w3.org/2000/svg" xmlns:xlink="http://www.w3.org/1999/xlink">
    <title>NIKE AIR JORDAN 10</title>
    <defs>
        <rect id="path-1" x="0" y="0" width="96" height="96"></rect>
    </defs>
    <g id="icon" stroke="none" stroke-width="1" fill="none" fill-rule="evenodd">
        <g id="画板" transform="translate(-738.000000, -406.000000)">
            <g id="NIKE-AIR-JORDAN-10" transform="translate(738.000000, 406.000000)">
                <g id="#" opacity="0">
                    <use fill="#FFFFFF" fill-rule="evenodd" xlink:href="#path-1"></use>
                    <rect stroke-opacity="0.5" stroke="#DDDDDD" stroke-width="6" stroke-linejoin="square" x="3" y="3" width="90" height="90"></rect>
                    <rect stroke-opacity="0.507785184" stroke="#DDDDDD" stroke-width="12" stroke-linejoin="square" x="6" y="6" width="84" height="84"></rect>
                    <rect stroke-opacity="0.319406703" stroke="#979797" stroke-width="10" stroke-linejoin="square" x="5" y="5" width="86" height="86"></rect>
                </g>
                <path d="M66.3865967,35.993042 C66.1982829,34.4145915 65.8726807,33.2003174 65.40979,32.3502197 C64.7154541,31.0750732 61.8825684,28.5596924 60.7193604,28.0505371 C59.9438883,27.7111003 59.5411784,27.828776 59.5112305,28.4035645 C59.2369792,28.2823893 59.0087891,28.3578288 58.8266602,28.6298828 C58.5534668,29.0379639 58.12854,30.0111084 58.12854,30.5493164 C57.8900146,30.6601562 57.4957275,31.6826401 57.4754639,31.7562256 C57.4552002,31.829811 56.5534668,33.3233643 56.5534668,33.3233643 C56.5534668,33.3233643 55.3244629,32.80896 54.7790527,33.3233643 C54.2336426,33.8377686 54.9481201,35.0687256 54.9481201,35.5308838 C54.9481201,35.993042 53.8371582,37.7923584 53.637085,37.7923584 C53.4370117,37.7923584 51.989502,37.72229 51.989502,38.4465332 C51.989502,39.1707764 52.7037354,39.7322998 52.7037354,39.9614258 C52.7037354,40.1905518 51.5222168,41.5517578 51.3051758,41.5517578 C51.0881348,41.5517578 50.105957,41.234375 49.8812256,41.234375 C49.6564941,41.234375 49.1149902,41.9893799 49.3857422,42.5999756 C49.6564941,43.2105713 49.2766113,43.3443604 49.0140381,43.5712891 C48.7514648,43.7982178 47.479126,44.8865967 47.3212891,44.8865967 C47.1634521,44.8865967 46.1451416,44.5045166 45.8321533,44.8865967 C45.519165,45.2686768 45.5390625,45.760376 45.2543945,45.9268799 C44.9697266,46.0933838 42.9130859,47.0272217 42.7158203,47.0272217 C42.5185547,47.0272217 41.9050293,46.7191162 41.4489746,47.0272217 C40.9929199,47.3353271 40.857666,47.8043213 40.857666,48 C40.857666,48.1304525 40.0607503,48.5268148 38.4669189,49.1890869 C38.3339437,49.1890869 38.0810547,49.1890869 37.708252,49.1890869 C37.1490479,49.1890869 36.4741211,49.7841797 36.317627,50.1057129 C36.1611328,50.4272461 34.2330322,50.907959 33.8448486,50.907959 C33.456665,50.907959 33.0595703,50.527832 32.5550537,50.7178955 C32.0505371,50.907959 31.9088135,51.2268066 31.3890381,51.2268066 C30.8692627,51.2268066 31.097168,50.7390137 29.8046875,51.2268066 C28.512207,51.7145996 28.0336914,52.3620605 27.5975342,52.3620605 C27.161377,52.3620605 26.5717773,52.0285645 26.0050049,52.3620605 C25.4382324,52.6955566 25.15625,53.0144043 24.6317139,53.2473145 C24.1071777,53.4802246 23.8562012,53.8532715 24.6317139,54.4084473 C25.4072266,54.963623 30.3138428,56.3937988 38.072998,55.9438477 C45.8321533,55.4938965 48.0321045,54.7410889 50.3679199,51.9650879 C52.7037354,49.1890869 53.5957031,48.6227051 56.5534668,49.1890869 C59.5112305,49.7554688 62.6730957,49.1655273 62.5534668,47.0272217 C62.4338379,44.888916 59.3950195,39.59375 60.7193604,38.9863281 C62.0437012,38.3789062 63.8914795,38.4797363 65.0151367,38.3967285 C65.7642415,38.34139 66.2213949,37.5401611 66.3865967,35.993042 Z" id="路径-683" fill="#0C0C0E"></path>
                <path d="M58.8266602,28.6298828 C58.9644614,28.424043 59.128631,28.330758 59.319169,28.3500279 C60.1988476,28.5399276 61.6711204,29.9472413 62.833374,30.8251953 C63.6714274,31.458252 64.365945,32.4880778 64.9169268,33.9146729 C63.5471787,35.7896729 62.0814695,36.9606968 60.519799,37.4277447 L58.9022264,37.9014691 C57.2673274,38.3624548 56.021767,38.630872 56.1226713,38.2195841 C56.2551082,37.6797688 57.3366699,34.8776855 57.8701172,34.3630395 C58.3591105,33.8912806 58.3532918,31.9863662 58.2354378,31.2830614 L58.2008057,31.1230225 C58.1484185,30.9434131 58.1429295,30.5417914 58.1953565,30.0976196 C58.3252684,29.5733067 58.619562,28.9392346 58.8266602,28.6298828 Z" id="路径" fill="#2B2B30"></path>
                <path d="M61.8703613,34.3630395 C60.1393229,33.337159 59.0229696,32.6905518 58.5213013,32.4232178 C57.7687988,32.0222168 57.5181885,31.8953857 57.3651123,31.9825439 C57.2120361,32.0697021 59.6850586,34.0817309 60.1782227,34.3630395 C60.6713867,34.6443481 61.1622925,34.8121948 61.3861694,34.7678833 C61.5354207,34.7383423 61.696818,34.6033944 61.8703613,34.3630395 Z" id="路径-690" fill="#4C4C4C"></path>
                <path d="M57.326416,32.250061 C57.2670252,32.5910034 57.3494023,32.9037882 57.5735474,33.1884155 C57.9097649,33.6153564 60.0653687,34.9807739 60.0803223,35.0863647 C60.0902913,35.1567586 60.1429647,35.2946777 60.2383423,35.5001221 C59.7057105,35.3434245 59.3140891,35.1593018 59.0634778,34.9477539 C58.687561,34.6304321 57.509877,33.5132446 57.3583015,33.2672119 C57.2067261,33.0211792 57.5115356,33.7822266 57.7783813,34.0702515 C58.0452271,34.3582764 59.6526489,35.8751221 60.0803223,35.9859009 C60.5079956,36.0966797 61.5614525,35.3452926 60.6148022,34.7749412 C59.6681519,34.2045898 58.064209,32.9213867 57.7783813,32.7373657 C57.5878296,32.6146851 57.4371745,32.4522502 57.326416,32.250061 Z" id="路径-691" fill="#373636"></path>
                <path d="M59.319169,28.3500279 C60.1988476,28.5399276 61.6711204,29.9472413 62.833374,30.8251953 C63.377558,31.2362661 63.8612207,31.8146332 64.2843621,32.5602965 L64.2870483,32.6115723 C64.2568359,32.7413592 63.6217838,32.2455669 63.0091706,31.724493 L61.1360573,30.0797844 C60.6933537,29.6978597 60.2465737,29.3207442 59.9227052,29.0629354 L59.0634778,28.4009261 L59.0634778,28.4009261 C59.1441073,28.3571167 59.2286635,28.3408747 59.319169,28.3500279 Z" id="路径" fill="#9C9C9C"></path>
                <path d="M55.7243652,39.84021 C55.1877441,39.2054443 54.7178548,38.7744954 54.3146973,38.5473633 C53.709961,38.206665 53.5657959,38.3200684 53.3765869,38.5473633 C53.1873779,38.7746582 54.1156449,39.5574951 54.5176613,39.9320068 C54.9196777,40.3065186 55.7753906,41.5511475 55.5748291,41.7458496 C55.3742676,41.9405518 52.6787109,44.2729492 52.154541,44.2681885 C51.6303711,44.2634277 51.3491211,43.5466309 50.9586182,43.3167725 C50.6982829,43.1635335 50.5073649,43.0283203 50.3858643,42.9111328 C50.1885173,43.3901367 50.028361,43.6675212 49.9053955,43.7432861 C50.2224121,44.1273193 51.5426025,45.3085938 51.5198975,45.4205322 C51.4971924,45.5324707 48.0406339,47.5450439 47.8491744,47.5449219 C47.6577148,47.5447998 46.3245149,46.1811776 46.3069108,46.1055424 C46.2893066,46.0299072 46.1407471,45.782959 46.0106201,45.9105225 C45.8804932,46.0380859 45.373291,46.2232244 45.5179443,46.5223178 C45.6625977,46.8214111 46.701419,47.9182129 46.7932129,48.0629883 C46.8850068,48.2077637 43.7686768,49.7645996 43.4863281,49.7554688 C43.2039795,49.7463379 42.9766846,49.645874 42.8400879,49.3837891 C42.7034912,49.1217041 42.0863037,48.2081299 41.9775391,48.0629883 C41.8687744,47.9178467 41.392334,48.1981201 41.3526611,48.494751 C41.3129883,48.7913818 41.8865967,49.3839844 41.9775391,49.7554688 C42.0381673,50.003125 42.1274821,50.2460124 42.2454834,50.4841309 C40.0187581,51.4851888 38.7677816,51.9802246 38.4925537,51.9692383 C38.0797119,51.9527588 37.9067383,52.0686035 37.7574463,51.4989014 C37.6081543,50.9291992 37.204834,50.8391113 37.2099609,50.4841309 C37.2150879,50.1291504 37.026001,50.1333008 36.8233643,50.4841309 C36.6207275,50.8349609 36.1610107,50.6069336 36.3273926,50.9295654 C36.4383138,51.1446533 36.7325033,51.6967563 37.2099609,52.5858745 C35.0892259,53.0833937 33.8658862,53.3248698 33.5399419,53.3103027 C33.0510254,53.2884521 32.8544922,52.4780273 32.8067627,52.2130127 C32.7590332,51.947998 32.7800293,51.7229004 32.5311279,51.7303467 C32.2822266,51.737793 31.8734131,51.8986816 31.7346191,51.9692383 C31.6420898,52.016276 31.5360921,52.0975342 31.416626,52.2130127 C31.6998291,52.267779 31.8058268,52.3920663 31.7346191,52.5858745 C31.6634115,52.7796828 31.5574137,53.0781657 31.416626,53.4813232 C30.9109294,54.067749 30.9109294,54.4008382 31.416626,54.4805908 C32.1751709,54.6002197 37.9758301,53.807313 40.5146484,52.9449162 C43.0534668,52.0825195 50.9971924,47.8164626 53.2130127,46.4124427 C55.428833,45.0084229 57.232666,42.3950195 56.6917725,41.4980469 C56.3311768,40.9000651 56.0087077,40.3474528 55.7243652,39.84021 Z" id="路径-689" fill="#3C3C3C"></path>
                <path d="M55.4152832,33.8088379 C55.3598633,34.1679687 55.5626221,35.5067139 55.4152832,36.0404053 L55.2513839,36.6479434 C55.0664012,37.2974147 54.7746027,38.1254994 54.3597412,38.2264404 C53.7893066,38.3652344 53.286377,38.0495605 53.237793,38.4436035 C53.189209,38.8376465 53.6400146,39.2642822 53.6989746,39.6838379 C53.7579346,40.1033936 53.4260254,40.9986572 52.9477539,41.4468994 C52.4694824,41.8951416 51.3074951,42.2674389 51.0639648,41.9457922 C50.8204346,41.6241455 50.2681181,41.395752 50.2969009,41.7020264 C50.3256836,42.0083008 50.9349882,42.4974365 50.2969009,43.2697754 L49.8571673,43.7959843 C49.6587999,44.0191108 49.5751139,44.0596924 49.1567383,44.3546143 C48.5291748,44.7969971 47.8358154,45.5036621 47.6341553,45.5205078 C47.4324951,45.5373535 46.548712,45.0362549 46.5509063,45.1968994 C46.5527871,45.3345947 46.5255227,45.7200878 46.3069108,46.1055424 L46.1809082,46.2971191 C45.8461914,46.7387695 45.9155273,47.0031738 45.4372559,47.182251 C44.9589844,47.3613281 43.4906006,48.2733154 42.8265381,48 C42.1624756,47.7266846 42.1201172,47.0622559 41.7713623,47.7324219 C41.4226074,48.4025879 41.5041504,48.8460693 40.9873047,49.0062256 C40.470459,49.1663818 38.5430908,50.0826416 38.0452881,50.0424805 C37.5474854,50.0023193 37.2803955,49.598877 37.0675049,50.0424805 C36.8546143,50.486084 36.7689209,50.559082 36.3273926,50.9295654 C35.8858643,51.3000488 33.9884531,51.5142822 33.5399419,51.4865723 C33.0914307,51.4588623 33.3012695,51.0360107 32.7910156,51.2541504 C32.2807617,51.47229 32.0565186,51.8146973 31.416626,52.0666504 C30.7767334,52.3186035 28.1848145,52.348999 27.9725342,52.3803711 C27.7602539,52.4117432 27.7407227,53.0611684 27.4615479,52.9265803 C27.182373,52.7919922 26.4691162,52.5059814 26.0638428,52.6231689 C25.9544833,52.654791 25.7770974,52.6736136 25.5316853,52.6796368 C25.6659654,52.5777838 25.8203745,52.4706994 26.0050049,52.3620605 C26.5717773,52.0285645 27.161377,52.3620605 27.5975342,52.3620605 C28.0336914,52.3620605 28.512207,51.7145996 29.8046875,51.2268066 C31.097168,50.7390137 30.8692627,51.2268066 31.3890381,51.2268066 C31.9088135,51.2268066 32.0505371,50.907959 32.5550537,50.7178955 C33.0595703,50.527832 33.456665,50.907959 33.8448486,50.907959 C34.2330322,50.907959 36.1611328,50.4272461 36.317627,50.1057129 C36.4567329,49.8199056 37.0054645,49.3179525 37.5184345,49.2099358 L37.708252,49.1890869 L38.4669189,49.1890869 L39.4430228,48.7730735 C40.3861183,48.3580392 40.857666,48.1003481 40.857666,48 C40.857666,47.8043213 40.9929199,47.3353271 41.4489746,47.0272217 C41.9050293,46.7191162 42.5185547,47.0272217 42.7158203,47.0272217 C42.9130859,47.0272217 44.9697266,46.0933838 45.2543945,45.9268799 C45.5390625,45.760376 45.519165,45.2686768 45.8321533,44.8865967 C46.1451416,44.5045166 47.1634521,44.8865967 47.3212891,44.8865967 C47.3930331,44.8865967 47.6950462,44.661725 48.027829,44.3950986 L49.0140381,43.5712891 C49.2766113,43.3443604 49.6564941,43.2105713 49.3857422,42.5999756 C49.1149902,41.9893799 49.6564941,41.234375 49.8812256,41.234375 C50.105957,41.234375 51.0881348,41.5517578 51.3051758,41.5517578 C51.5222168,41.5517578 52.7037354,40.1905518 52.7037354,39.9614258 C52.7037354,39.7322998 51.989502,39.1707764 51.989502,38.4465332 C51.989502,37.72229 53.4370117,37.7923584 53.637085,37.7923584 C53.8371582,37.7923584 54.9481201,35.993042 54.9481201,35.5308838 C54.9481201,35.0687256 54.2336426,33.8377686 54.7790527,33.3233643 C55.1944035,32.9316256 56.0061983,33.1365351 56.3697435,33.2565369 L56.5534668,33.3233643 C55.8316243,33.4075928 55.4522298,33.5694173 55.4152832,33.8088379 Z" id="路径" fill="#434345"></path>
                <path d="M61.9539795,33.2006836 C62.4985352,33.1257324 64.0974121,33.3052979 67.7271729,33.8858643 C71.3569336,34.4664307 73.7913818,36.0998535 74.9219971,36.8494873 L75.4685296,37.2192044 C76.3555908,37.835439 77.160848,38.4945679 78.4442139,39.8370361 L79.0247438,40.458637 C80.2044656,41.7536534 80.8687337,42.6963298 80.864502,42.9798584 C81.0423448,42.9530572 81.2169084,42.4131387 81.259849,41.8214369 L81.2762945,41.2729658 C81.3011612,40.653558 81.4370117,39.9256873 82.383667,39.4296875 C83.5024414,38.8435059 84.2740479,39.4350586 84.8157959,40.1320801 C85.3214274,40.7826335 84.8008024,43.4069043 84.5095034,44.39714 L84.4510498,44.5830078 C84.1809082,45.3741455 83.631958,47.5487061 83.4360352,48.2231445 C83.2401123,48.897583 83.8685303,49.5895996 83.4926758,49.7554688 C83.1168213,49.9213379 80.6708984,49.4992676 78.0021973,48.664917 C75.3334961,47.8305664 65.4337158,49.404541 57.4422607,52.0513916 C49.4508057,54.6982422 44.8554688,55.6843262 37.0866699,56.0300883 C29.3178711,56.3758504 24.6252441,54.6867676 24.1397345,54.2893066 C23.6889041,53.9202358 24.4899587,53.2436112 25.0725065,52.8738036 L25.4457414,52.6534698 C25.9872548,52.347589 26.5643555,52.0755778 26.0638428,52.6231689 C25.4863281,53.2550049 26.7017822,53.3897705 27.4866943,53.4130859 C28.2716064,53.4364014 27.8417969,53.1226807 28.1137695,52.9957275 C28.3857422,52.8687744 29.9873047,52.7255859 30.4295654,52.7841797 C30.8718262,52.8427734 30.9174805,52.9691162 31.2294922,52.9957275 C31.5415039,53.0223389 31.5184326,52.6379395 31.9162598,52.5314941 C32.3140869,52.4250488 32.4632568,52.6437988 32.8327637,52.5314941 C33.2022705,52.4191895 33.2349854,52.9929199 33.3760986,52.9957275 C33.5172119,52.9985352 35.8795166,52.5435791 36.1708984,52.5314941 C36.4622803,52.5194092 36.4040527,52.1722412 36.5489502,52.0513916 C36.6938477,51.930542 37.847168,51.4354248 38.0053711,51.618042 C38.1635742,51.8006592 38.4399414,51.6574707 38.9786377,51.618042 C39.517334,51.5786133 41.0718994,50.651123 41.2628174,50.5651855 C41.4537354,50.479248 41.5548096,50.1590576 41.6387939,50.0018311 C41.7227783,49.8446045 42.6690674,49.3824463 43.1140137,49.2883301 C43.55896,49.1942139 43.4501953,49.5111084 43.8269043,49.5037842 C44.2036133,49.49646 45.5753174,48.2774658 45.9216309,48 C46.2679443,47.7225342 46.2167969,47.6248779 46.585083,47.2321777 C46.9533691,46.8394775 47.123291,47.1488037 47.3218994,47.2321777 C47.5205078,47.3155518 47.8005371,46.9630127 48.2382813,46.6779785 L48.5472033,46.4930228 C49.1907823,46.1233419 50.3710327,45.493103 50.4848633,45.3005371 C50.62146,45.069458 50.6885986,44.692627 51.1234131,44.4207764 C51.5582275,44.1489258 51.5802002,44.3833008 51.769043,44.4207764 C51.9578857,44.458252 52.3953857,44.1208496 52.7425537,43.6960449 C52.973999,43.4128418 53.0795085,43.174113 53.059082,42.9798584 L53.5062103,42.4362442 C53.9051666,41.9480148 54.1596069,41.6259398 54.2695313,41.4700193 C54.416097,41.2621252 54.6019287,41.1036211 54.8270264,40.9945068 C54.9949951,40.2279053 55.1996257,39.5472819 55.440918,38.9526367 C55.8028564,38.0606689 56.3210449,37.3886719 56.5792236,37.0892334 C56.4093018,36.9575195 56.7974854,36.2770996 57.0032959,35.9521484 C57.2091064,35.6271973 57.7139893,35.0192871 58.3100586,34.630249 C58.9061279,34.2412109 61.4094238,33.2756348 61.9539795,33.2006836 Z M83.2681678,39.7179854 L83.1242676,39.7230835 C82.3770701,39.8089091 81.9023577,40.4951969 81.7582381,41.3884983 L81.7271729,41.6369629 C81.6360474,42.6489868 81.3703003,43.2833862 81.2156982,43.3711548 C81.1126302,43.4296672 80.9708252,43.5478923 80.7902832,43.7258301 C81.025472,43.9637858 81.265096,44.3214111 81.5091553,44.7987061 C81.829483,45.4251556 82.3381329,46.6108704 82.5482591,47.3225088 L82.6186169,47.595459 C82.7367978,48.1664185 82.9613577,48.1145026 83.0200826,47.8834562 L83.0830297,47.4429169 C83.162735,46.9730339 83.3179626,46.2378998 83.4233398,45.8846436 L83.7400271,44.8555727 C83.9058535,44.2960461 84.1158259,43.5357478 84.3502197,42.522583 C84.7599164,40.7516731 84.0345028,39.7514703 83.2681678,39.7179854 L83.2681678,39.7179854 Z" id="形状" fill="#29292C"></path>
                <path d="M33.1137695,54.4619141 C33.222168,53.6538086 33.8664551,52.6420898 34.1560059,53.0651855 C34.3310404,53.3209485 34.3473614,54.3207652 34.2049687,56.0646356 C33.7424909,56.060304 33.2958359,56.0447062 32.8637015,56.023035 C32.940946,55.4159095 33.0672549,54.8086786 33.1137695,54.4619141 Z M38.5126725,51.6756378 L38.9019837,51.6240305 L41.1411664,55.7635289 L39.7700672,55.8752922 C39.5367158,55.8922214 39.3007914,55.9083258 39.0620606,55.9236416 C38.7147847,55.2596178 38.3791665,54.4609758 38.3193359,53.7912598 C38.2374196,52.874325 38.3509419,52.0665852 38.5126725,51.6756378 Z M56.5197153,37.7736816 C57.828493,36.715332 61.0549316,38.2978516 62.1312725,38.6818848 C63.2076133,39.065918 64.8693848,41.8286133 66.3865967,44.630505 C67.4658844,46.6236659 65.9643975,48.766853 64.0183042,50.2003562 C61.806467,50.7253709 59.5575147,51.3507981 57.4422607,52.0513916 C52.8799812,53.5624646 49.4245671,54.5322593 45.8536401,55.1506462 L45.2978843,54.7403726 C44.6157167,54.22723 43.8676786,53.6101415 43.6037598,53.0651855 C43.0988409,52.0225977 43.1294653,51.0436675 43.6116033,49.4591819 C43.6631341,49.4854597 43.7284333,49.5056987 43.8269043,49.5037842 C43.8949842,49.5024605 43.9955615,49.4615628 44.1167106,49.3938004 L44.4187723,49.8964517 C45.4833265,51.6103174 47.4795895,54.355687 47.7133789,54.4619141 C48.0087397,54.5961174 50.1384277,53.1853027 48.9055435,51.1315125 C48.172849,49.9109591 47.8134876,48.5284293 47.8274596,46.9839233 C47.9333625,46.9001171 48.0539594,46.8024494 48.1904402,46.709798 L49.9003116,48.2078316 C51.0519036,49.2399409 51.6845282,49.8728831 51.7993729,50.1066207 L51.8172977,50.1567383 C51.8621628,50.4194336 52.7629686,49.9744483 54.5197153,48.8217825 L53.42866,47.7264884 C51.8789252,46.1461303 51.0173473,45.1417912 50.8439263,44.7134713 L50.8305625,44.6736527 C50.904962,44.5846894 50.9991804,44.498448 51.1234131,44.4207764 C51.5582275,44.1489258 51.5802002,44.3833008 51.769043,44.4207764 C51.9575792,44.4581911 52.3939659,44.1219441 52.7408622,43.6981131 C52.9289622,43.7973073 53.1322638,43.9329329 53.350202,44.1088497 L53.572998,44.2983398 C55.5910645,46.0998535 60.1745605,49.4440918 62.7478027,50.1567383 C65.2475237,50.8490234 62.5648738,45.3445348 61.2441097,43.9908564 L61.1312725,43.8824494 C59.859957,42.7495179 55.2109375,38.8320312 56.5197153,37.7736816 Z" id="形状" fill="#0A0A0A"></path>
                <path d="M67.7271729,33.8858643 C71.3569336,34.4664307 73.7913818,36.0998535 74.9219971,36.8494873 L75.4685296,37.2192044 L75.9954291,37.599216 C76.696818,38.1264242 77.4175212,38.7630615 78.4442139,39.8370361 L79.0247438,40.458637 L79.5320732,41.0302015 C80.3930333,42.0281066 80.8680827,42.7399495 80.864502,42.9798584 C81.0423448,42.9530572 81.2169084,42.4131387 81.259849,41.8214369 L81.2762945,41.2729658 C81.3011612,40.653558 81.4370117,39.9256873 82.383667,39.4296875 C83.5024414,38.8435059 84.2740479,39.4350586 84.8157959,40.1320801 C85.2877186,40.7392632 84.8656579,43.0657736 84.5704488,44.1783747 L84.4510498,44.5830078 C84.1809082,45.3741455 83.631958,47.5487061 83.4360352,48.2231445 C83.2401123,48.897583 83.8685303,49.5895996 83.4926758,49.7554688 C83.1168213,49.9213379 80.6708984,49.4992676 78.0021973,48.664917 C77.4200058,48.4828989 76.4936744,48.4154973 75.3180922,48.448847 L74.1053114,47.7217882 C71.8980568,46.3700388 70.2140617,45.1812946 69.8997415,44.8474121 C68.9020221,43.7875977 59.3540039,40.8339844 58.4881172,38.8485989 C57.9915703,37.7100699 57.2008574,36.9368746 56.866718,36.1778323 L57.0032959,35.9521484 L57.0032959,35.9521484 C57.2091064,35.6271973 57.7139893,35.0192871 58.3100586,34.630249 C58.9061279,34.2412109 61.4094238,33.2756348 61.9539795,33.2006836 C62.4985352,33.1257324 64.0974121,33.3052979 67.7271729,33.8858643 Z M83.2681678,39.7179854 L83.1242676,39.7230835 C82.3770701,39.8089091 81.9023577,40.4951969 81.7582381,41.3884983 L81.7271729,41.6369629 C81.6360474,42.6489868 81.3703003,43.2833862 81.2156982,43.3711548 C81.1126302,43.4296672 80.9708252,43.5478923 80.7902832,43.7258301 C81.025472,43.9637858 81.265096,44.3214111 81.5091553,44.7987061 C81.829483,45.4251556 82.3381329,46.6108704 82.5482591,47.3225088 L82.6186169,47.595459 C82.7367978,48.1664185 82.9613577,48.1145026 83.0200826,47.8834562 L83.0830297,47.4429169 L83.2069029,46.793153 C83.278941,46.4460271 83.3601135,46.0965973 83.4233398,45.8846436 L83.7400271,44.8555727 L83.9760052,44.0214513 C84.0903154,43.597917 84.2162804,43.1015343 84.3502197,42.522583 C84.7599164,40.7516731 84.0345028,39.7514703 83.2681678,39.7179854 Z" id="形状" fill="#302E2E"></path>
                <path d="M67.7271729,33.8858643 C71.3569336,34.4664307 73.7913818,36.0998535 74.9219971,36.8494873 L75.4685296,37.2192044 L75.9954291,37.599216 C76.696818,38.1264242 77.4175212,38.7630615 78.4442139,39.8370361 L79.0247438,40.458637 L79.5312904,41.0292942 C80.3128892,41.935126 80.7766389,42.6053766 80.8532257,42.9010948 C80.8403635,42.9702344 80.8192952,43.0227264 80.7902832,43.0594482 C80.6313477,43.2606201 80.4668579,43.2873535 80.3335571,43.2244873 L80.2081346,43.1260778 C79.6321513,42.6386039 77.3124422,40.4960455 76.6032715,39.7179854 C75.8899292,38.9353483 74.5997388,38.0777365 73.1641201,37.2744747 L71.5144711,36.3795052 C70.3890305,35.7840576 69.3512573,35.3066101 68.0865479,35.0922852 L67.338511,34.9760879 C65.5787234,34.7221718 63.0468831,34.466862 62.3114014,34.4561768 C61.4627686,34.4438477 60.7869873,34.5681152 59.815918,34.9277344 C58.9662323,35.2424011 58.2538585,35.659687 57.8566621,36.0148103 L57.7062502,36.1627197 C57.3892137,36.511598 56.4371554,37.317108 56.1226713,37.6883467 C56.3043797,37.4215204 56.4665586,37.2199035 56.5792236,37.0892334 C56.4093018,36.9575195 56.7974854,36.2770996 57.0032959,35.9521484 C57.2091064,35.6271973 57.7139893,35.0192871 58.3100586,34.630249 C58.9061279,34.2412109 61.4094238,33.2756348 61.9539795,33.2006836 C62.4985352,33.1257324 64.0974121,33.3052979 67.7271729,33.8858643 Z" id="路径" fill="#2B5D3C"></path>
                <path d="M67.7271729,33.8858643 C71.3569336,34.4664307 73.7913818,36.0998535 74.9219971,36.8494873 L75.4685296,37.2192044 L75.9954291,37.599216 C76.696818,38.1264242 77.4175212,38.7630615 78.4442139,39.8370361 L79.0247438,40.458637 L79.5312904,41.0292942 L80.0045069,41.5967563 C80.499881,42.2145197 80.7936581,42.6710918 80.8532257,42.9010948 C80.8403635,42.9702344 80.8192952,43.0227264 80.7902832,43.0594482 L80.2769625,42.4679347 L79.4089932,41.4954505 C78.4296645,40.4199436 77.566893,39.5511394 76.8206787,38.8890381 C75.2016602,37.4525146 73.2583008,36.3486328 70.2655029,35.0477295 C67.2727051,33.7468262 63.8474121,33.727417 62.048584,33.6893695 C60.6295085,33.6593542 59.0243826,34.3638205 58.275685,34.653509 L58.3100586,34.630249 C58.9061279,34.2412109 61.4094238,33.2756348 61.9539795,33.2006836 C62.4985352,33.1257324 64.0974121,33.3052979 67.7271729,33.8858643 Z" id="路径" fill="#53996A"></path>
                <path d="M60.1604004,38.2528076 C58.5653483,37.6037191 57.4667155,37.1476237 56.864502,36.8845215 C55.9611816,36.4898682 55.4498291,36.1159668 55.251709,35.9034424 C55.0535889,35.690918 54.534346,35.7020264 54.5176613,36.0638428 C54.5009766,36.4256592 54.056807,37.6505127 54.5176613,38.0102539 C54.9785156,38.3699951 58.538208,39.8435059 59.5422363,40.1375732 C60.5462646,40.4316406 63.7700195,46.1831055 63.2347412,47.2126465 C62.6994629,48.2421875 62.1016846,47.678833 61.642334,47.3894043 C61.1829834,47.0999756 54.583374,42.1443492 54.1411133,41.7845159 C53.6988525,41.4246826 52.5786133,40.2039795 52.637085,40.1375732 C52.6955566,40.071167 52.3991699,40.0561523 52.1278076,40.3144531 C51.8564453,40.5727539 51.1522217,41.1240234 51.1291504,41.3284912 C51.1060791,41.532959 51.5733643,42.4172363 52.4719238,43.1083984 C53.0709635,43.5691732 55.9215902,45.7848633 61.0238037,49.7554688 C58.0176188,49.9128743 56.0095622,49.6949463 54.9996338,49.1016846 C53.4847412,48.211792 49.095459,43.5705566 49.0140381,43.5712891 C48.9597575,43.5717773 49.0428467,43.4174805 49.2633057,43.1083984 C48.9530029,43.1942546 48.6928304,43.2840169 48.4827881,43.3776855 C48.1677246,43.5181885 47.1726074,44.4334954 47.2316895,44.630505 C47.2710775,44.7618448 49.0178223,46.7711995 52.4719238,50.6585693 C51.2212728,52.6327793 50.2489827,53.3887829 49.5550537,52.9265803 C48.5141602,52.2332764 45.0987549,46.8278809 44.9650879,46.4909668 C44.8314209,46.1540527 44.7854004,45.9091797 44.9650879,45.78479 C44.3597412,45.6124268 43.1037598,46.211792 42.909668,46.4909668 C42.7155762,46.7701416 43.0483398,47.5504254 43.8500977,48.8217825 C44.3846029,49.6693539 45.7176284,51.5756022 47.8491744,54.5405273 C45.3775405,55.2572428 44.044515,55.5154215 43.8500977,55.3150635 C43.5584717,55.0145264 41.5854492,51.1386719 41.3094482,50.6585693 C41.0334473,50.1784668 40.4572754,48.9436035 40.5106201,48.5523682 C40.5461833,48.2915446 40.5439046,48.0981445 40.5037842,47.972168 C40.2481689,47.905599 40.0348307,47.905599 39.8637695,47.972168 C39.6071777,48.0720215 38.5437012,48.3858643 38.40271,48.5523682 C38.2617188,48.7188721 38.2805176,49.2683838 38.40271,49.7554688 C38.5249023,50.2425537 41.2674561,55.7667721 41.3094482,56.0764402 C41.3514404,56.3861084 37.4307861,56.2167233 36.9825439,56.0764402 C36.5343018,55.9361572 36.0993652,53.5950889 36.0472412,52.5858745 C35.9951172,51.5766602 35.7359619,50.9544678 35.8475342,50.6585693 C35.9219157,50.4613037 35.9884847,50.2823079 36.0472412,50.121582 C35.8003337,50.1136882 35.4263102,50.1874593 34.9251709,50.3428955 C34.1734619,50.5760498 33.7421875,50.5982666 33.8448486,50.907959 C33.9475098,51.2176514 34.1816406,55.4055176 34.2902832,55.8381348 C34.3627116,56.1265462 33.1123454,56.0509033 30.5391846,55.6112061 C30.5338949,53.5142008 30.5338949,52.3730876 30.5391846,52.1878662 C30.5444743,52.0026449 30.635376,51.7864583 30.8118896,51.5393066 C30.6594645,51.4384766 30.3719076,51.4384766 29.9492188,51.5393066 C29.3151855,51.6905518 29.2094727,51.630127 28.6035156,51.8962402 C27.9975586,52.1623535 28.2126465,52.2006836 28.2636719,52.4102783 C28.2976888,52.5500081 28.2976888,53.616984 28.2636719,55.6112061 C29.1124674,56.2579346 30.0926107,56.6101888 31.2041016,56.6679688 C32.8713379,56.7546387 42.9535429,58.8105469 50.2969009,54.8737793 C57.6402588,50.9370117 64.9249268,50.6176758 64.9169268,49.1016846 C64.9083252,47.5856934 64.2526855,44.2423096 63.2347412,42.1534424 C62.5561117,40.7608643 61.5313314,39.4606527 60.1604004,38.2528076 Z" id="路径-688" fill="#525155"></path>
                <path d="M25.6547852,52.5631104 C25.607605,52.5617065 25.2991333,52.5999756 24.7747192,52.840332 C24.2503052,53.0806885 23.0770264,53.7648926 22.4959717,53.9439087 C21.914917,54.1229248 17.0145264,55.0687256 14.7114258,55.602417 C12.4083252,56.1361084 11.2827148,58.2840576 11.0961914,58.9663086 C10.909668,59.6485596 13.2109375,62.987915 14.0618896,63.7397461 C14.9128418,64.4915771 15.6357422,64.7148438 17.5819092,64.5247803 C19.5280762,64.3347168 25.1706543,64.5465088 28.6723633,65.638916 C32.1740723,66.7313232 36.449707,68.5791016 39.8032227,67.3220215 C43.1567383,66.0649414 46.2617188,63.2149658 48.5135498,63.2927246 C50.7653809,63.3704834 55.0411377,66.1882324 58.0662842,66.1306152 C61.0914307,66.072998 68.2150879,59.7186647 70.6711426,60.1535218 C73.1271973,60.5883789 80.8417969,63.6679688 81.9887695,63.7397461 C83.1357422,63.8115234 84.6838379,63.6428223 84.8937988,63.0935669 C85.1037598,62.5443115 85.2126465,57.7792969 84.9643555,55.7666016 C84.7160645,53.7539062 84.5507813,51.8441162 84.5477295,51.6097412 C84.5446777,51.3753662 84.1542358,49.7194214 83.9109497,49.3485718 C83.6676636,48.9777222 83.4019165,48.8868408 83.3319702,49.1611938 C83.2620239,49.4355469 82.0827637,48.9924316 80.4116211,47.628418 C78.7404785,46.2644043 74.5345459,42.5168457 72.956543,41.3231201 C71.37854,40.1293945 67.4655762,38.0362549 64.161499,37.5668945 C60.8574219,37.0975342 59.7397461,37.888916 59.2336426,38.8453369 C58.7275391,39.8017578 59.9406738,41.3393555 60.2729492,42.1463623 C60.6052246,42.9533691 62.4614258,46.7154541 61.3250732,47.8288574 C60.1887207,48.9422607 58.3601074,48.7619629 57.1809082,48.5533447 C56.001709,48.3447266 53.7099609,47.8621826 52.5140381,48.2862549 C51.3181152,48.7103271 50.5963135,50.5162354 49.5482178,51.6097412 C48.5001221,52.7032471 46.6486816,54.9790039 39.9869385,55.1832275 C33.3251953,55.3874512 30.7470703,55.4116211 28.1241455,54.9705811 C25.5012207,54.529541 25.067688,54.1246338 25.0932617,53.8039551 C25.1188354,53.4832764 26.3913574,53.3581543 26.1634521,53.2941895 C25.9355469,53.2302246 24.8077393,53.621582 25.0932617,53.2941895 C25.3787842,52.9667969 25.7019653,52.5645142 25.6547852,52.5631104 Z" id="路径-685" fill="#D5D5DE"></path>
                <path d="M59.2336426,38.8453369 C59.7397461,37.888916 60.8574219,37.0975342 64.161499,37.5668945 C67.4655762,38.0362549 71.37854,40.1293945 72.956543,41.3231201 C74.5345459,42.5168457 78.7404785,46.2644043 80.4116211,47.628418 C81.5178704,48.5313566 82.4085736,49.0307514 82.9046258,49.1856134 C83.9599195,54.5669102 83.8656961,60.7325702 82.9611217,63.7444959 C82.6300089,63.7609327 82.2950845,63.7589152 81.9887695,63.7397461 C80.8417969,63.6679688 73.1271973,60.5883789 70.6711426,60.1535218 C69.1835173,59.8901301 65.9834931,62.1174822 63.0190015,63.9277447 L60.0570946,63.3869659 C50.4140813,61.5706536 41.3902459,59.3408356 41.8113815,58.8853917 C42.6745209,57.9519357 47.5791016,57.4428711 52.8172977,56.0764402 C58.0554937,54.7100094 63.203125,51.0874023 63.1312725,48.0469135 C63.0887084,46.2457857 62.4518496,45.0526037 61.2206962,44.4673672 C61.0726564,44.040588 60.9096519,43.6297186 60.7590388,43.2695541 L60.2729492,42.1463623 C59.9406738,41.3393555 58.7275391,39.8017578 59.2336426,38.8453369 Z" id="路径" fill="#C8C8D4"></path>
                <path d="M18.0368652,61.8017578 C21.9032593,62.3582254 25.5489151,62.5325825 29.4968262,63.3892331 C31.2055664,63.7600098 34.1823498,64.4919225 35.8818359,65.5427246 C36.3044638,65.8040379 36.3290544,66.4046502 35.9556076,67.3445616 L34.9726933,67.5035657 L34.9726933,67.5035657 C32.8294153,67.0963835 30.629954,66.2496139 28.6723633,65.638916 C25.3298229,64.5961637 20.0366145,64.3557901 17.869659,64.5013983 L17.5819092,64.5247803 C15.6357422,64.7148438 14.9128418,64.4915771 14.0618896,63.7397461 C13.2109375,62.987915 10.909668,59.6485596 11.0961914,58.9663086 C11.1702684,58.6953556 11.3924625,58.1932258 11.7777074,57.6528466 C13.6606493,60.0899107 15.7458742,61.4720288 18.0368652,61.8017578 Z" id="路径" fill="#C4C4CE"></path>
                <path d="M72.0048828,41.71875 C71.1698118,40.8666732 72.1391037,41.0405925 74.1575454,42.4059571 L74.3027702,42.4100777 L75.5551109,43.4714097 C77.32083,44.9820624 79.3641533,46.7734578 80.4116211,47.628418 C82.0827637,48.9924316 83.2620239,49.4355469 83.3319702,49.1611938 C83.4019165,48.8868408 83.6676636,48.9777222 83.9109497,49.3485718 C84.1299072,49.6823364 84.4680609,51.0570282 84.5357268,51.4994883 L84.6154263,52.4973035 C84.6651195,53.0528419 84.7401784,53.8161947 84.8339687,54.6556794 L84.9643555,55.7666016 C85.2126465,57.7792969 85.1037598,62.5443115 84.8937988,63.0935669 C84.6838379,63.6428223 83.1357422,63.8115234 81.9887695,63.7397461 C80.8417969,63.6679688 73.1271973,60.5883789 70.6711426,60.1535218 C69.4004373,59.9285369 66.880315,61.5208727 64.3248001,63.1182538 C62.7578953,62.9584637 61.2710915,62.8338749 59.9354635,62.7721583 L59.1527964,62.7428943 C53.3650123,62.5815817 37.8531152,67.0411443 32.0799561,65.3760986 C34.6804199,62.178833 37.2735796,59.4530075 39.6696777,58.3731689 C43.0419849,56.8533868 46.3930664,56.9586182 50.6629639,58.7344971 C52.6633623,59.5664762 55.0007966,59.5247526 56.7269287,58.4643555 C58.6852661,57.26131 60.399292,55.0560303 64.5477295,53.3395996 C68.696167,51.6231689 72.3530273,53.4509277 74.8137207,54.7877197 C77.2744141,56.1245117 79.0090332,57.5927734 80.1673401,58.5271551 C80.536223,57.451385 80.2418317,55.3069205 79.9916992,53.0300293 C79.6352539,49.7854004 75.6494141,45.4375 72.0048828,41.71875 Z" id="路径" fill="#AFAFBC"></path>
                <path d="M84.5357268,51.4994883 L84.6154263,52.4973035 L84.7799954,54.1621779 C84.7972019,54.3229308 84.8152107,54.4877825 84.8339687,54.6556794 L84.9643555,55.7666016 C85.1929723,57.6198143 85.1187732,61.8064489 84.9416784,62.8870588 C83.3056283,62.2216484 81.6876096,60.6044912 82.4755859,59.7617187 C83.2774658,58.9040759 83.2343538,55.1973553 83.1550293,52.5126953 C83.1166305,51.2131279 83.4405518,50.5264893 84.3321456,50.5873991 L84.4380643,51.0157342 C84.4841342,51.215733 84.5185974,51.3874809 84.5357268,51.4994883 Z" id="路径" fill="#9E9EAB"></path>
                <path d="M59.2336426,38.8453369 C59.7397461,37.888916 60.8574219,37.0975342 64.161499,37.5668945 C67.4655762,38.0362549 71.37854,40.1293945 72.956543,41.3231201 L73.3766317,41.6509707 C73.6086824,41.8363209 73.8718403,42.0519895 74.1575454,42.28979 C73.9562513,42.2732118 73.7290739,42.2241816 73.479322,42.1405943 L73.222168,42.0454102 C68.8215332,40.2670898 63.1386719,39.3447266 61.8212891,39.9824219 C60.5039063,40.6201172 62.456374,43.2739258 63.1745605,46.7104492 C63.8927471,50.1469727 61.581543,51.0537109 57.2700195,50.7373047 C52.9584961,50.4208984 51.4707883,53.1667366 49.1645508,55.0712891 C46.9303832,56.9163242 39.7728234,58.1424984 33.4465048,58.7528455 L32.8408203,58.809082 C26.4528468,59.3785557 15.5664063,59.0517578 13.8930664,57.2812264 C13.5146894,56.8808724 13.4375568,56.4508138 13.6616688,55.9910508 C13.9783632,55.8244199 14.3286302,55.6911212 14.7114258,55.602417 L15.7298551,55.3751634 C18.2194033,54.8350404 21.9907067,54.0995749 22.4959717,53.9439087 C23.0770264,53.7648926 24.2503052,53.0806885 24.7747192,52.840332 C25.2991333,52.5999756 25.607605,52.5617065 25.6547852,52.5631104 C25.7019653,52.5645142 25.3787842,52.9667969 25.0932617,53.2941895 C24.8077393,53.621582 25.9355469,53.2302246 26.1634521,53.2941895 C26.3913574,53.3581543 25.1188354,53.4832764 25.0932617,53.8039551 C25.067688,54.1246338 25.5012207,54.529541 28.1241455,54.9705811 L28.6870196,55.058073 C31.1362087,55.4072496 33.8010341,55.3728638 39.9869385,55.1832275 C46.6486816,54.9790039 48.5001221,52.7032471 49.5482178,51.6097412 C50.5963135,50.5162354 51.3181152,48.7103271 52.5140381,48.2862549 C53.3838002,47.9778387 54.8331723,48.148955 56.0126521,48.3454811 L57.1809082,48.5533447 C58.3601074,48.7619629 60.1887207,48.9422607 61.3250732,47.8288574 C62.4614258,46.7154541 60.6052246,42.9533691 60.2729492,42.1463623 C59.9406738,41.3393555 58.7275391,39.8017578 59.2336426,38.8453369 Z" id="路径" fill="#E0E0E9"></path>
                <path d="M51.4465106,49.0933747 L51.421586,49.1600737 C49.8730917,53.342638 45.8348762,56.2970693 39.3069394,58.0233677 C37.383836,58.3231312 35.376489,58.5666456 33.4465048,58.7528455 L32.8408203,58.809082 C26.4528468,59.3785557 15.5664063,59.0517578 13.8930664,57.2812264 C13.5146894,56.8808724 13.4375568,56.4508138 13.6616688,55.9910508 C13.9783632,55.8244199 14.3286302,55.6911212 14.7114258,55.602417 L15.7298551,55.3751634 C18.2194033,54.8350404 21.9907067,54.0995749 22.4959717,53.9439087 C23.0770264,53.7648926 24.2503052,53.0806885 24.7747192,52.840332 C25.2991333,52.5999756 25.607605,52.5617065 25.6547852,52.5631104 C25.7019653,52.5645142 25.3787842,52.9667969 25.0932617,53.2941895 C24.8077393,53.621582 25.9355469,53.2302246 26.1634521,53.2941895 C26.3913574,53.3581543 25.1188354,53.4832764 25.0932617,53.8039551 C25.067688,54.1246338 25.5012207,54.529541 28.1241455,54.9705811 L28.6870196,55.058073 L29.2575495,55.1319473 C31.5670166,55.4010408 34.2768729,55.3582764 39.9869385,55.1832275 C46.6486816,54.9790039 48.5001221,52.7032471 49.5482178,51.6097412 C50.2469482,50.8807373 50.8006592,49.8351101 51.4465106,49.0933747 Z" id="路径" fill="#E5E5EF"></path>
                <path d="M84.4006726,51.2027283 L84.4643877,51.1315125 L84.524739,51.4328701 C84.5391321,51.5151204 84.5472983,51.576623 84.5477295,51.6097412 L84.5957015,52.2723228 C84.6621895,53.0477843 84.7936554,54.3828735 84.9643555,55.7666016 C85.0512573,56.4710449 85.0944049,57.5126474 85.1047787,58.5926526 L84.7716064,59.8601074 L84.7716064,60.5243637 L83.9641113,59.6348877 L83.9641113,59.3533936 L84.4933989,59.2803955 L84.6472321,58.0071389 C84.7012675,57.588498 84.7427256,57.3097105 84.7716064,57.1707764 C84.8495847,56.7956543 84.671875,54.9801025 84.4933989,54.055542 C84.3149228,53.1309814 84.0582275,52.3764648 84.1830869,51.7384033 C84.2247067,51.5257161 84.2972352,51.3471578 84.4006726,51.2027283 Z" id="路径" fill="#4F4F4F"></path>
                <path d="M59.2336426,38.8453369 C59.7397461,37.888916 60.8574219,37.0975342 64.161499,37.5668945 C67.4655762,38.0362549 71.37854,40.1293945 72.956543,41.3231201 C74.5345459,42.5168457 78.7404785,46.2644043 80.4116211,47.628418 C82.0827637,48.9924316 83.2620239,49.4355469 83.3319702,49.1611938 C83.4019165,48.8868408 83.6676636,48.9777222 83.9109497,49.3485718 C83.9919292,49.4720117 84.0892127,49.7378323 84.1830869,50.0462158 C83.7978885,50.1968348 83.3535711,50.2296895 82.8515625,50.1485596 C81.7795207,49.9753062 77.6168382,46.9079405 75.3134207,44.7930824 L75.0239258,44.5229492 C72.7988281,42.4101563 68.8100586,39.7541504 66.0134277,39.0087891 C63.2167969,38.2634277 61.3378906,38.18396 60.6784668,38.6501465 C60.0697679,39.0804725 60.1742832,40.0417827 60.7104107,41.0626601 L60.8532715,41.3188477 C61.5098877,42.4320068 62.817749,45.5218506 62.6677246,46.565918 C62.5177002,47.6099854 62.401001,48.3859863 61.8322754,48.7005615 L61.5779043,48.8558301 C61.433041,48.9603223 61.4427737,49.0100659 61.5082101,49.0612897 L70.6242676,56.0300883 L70.6242676,56.0300883 L70.2520752,56.2766113 L61.0495605,49.1672363 C60.4786784,49.5097656 59.6564128,49.6241048 58.5827637,49.5102539 L57.8724239,49.4228729 C56.2070448,49.2008295 53.8312581,48.8220296 52.9018555,49.376709 C51.8294678,50.0167236 50.2741699,52.8569336 48.5129395,53.8544922 C46.751709,54.8520508 43.112793,55.7680664 41.3001709,55.8149414 L41.472247,56.0508953 C41.8424599,56.5855925 42.6911884,57.9026932 44.0184326,60.0021973 L43.6628418,60.2158203 L40.8526611,55.8149414 C37.9796956,56.1173082 35.2667643,56.2224514 32.7138672,56.1303711 C29.0668713,55.9988277 26.0817677,55.4003687 25.0421863,54.9772358 L24.2355909,54.6127872 C23.6211433,54.3042145 23.3199005,53.9111328 24.7747192,52.840332 L24.9861149,52.7492213 C25.3819356,52.5898512 25.614345,52.5619071 25.6547852,52.5631104 C25.7019653,52.5645142 25.3787842,52.9667969 25.0932617,53.2941895 C24.8077393,53.621582 25.9355469,53.2302246 26.1634521,53.2941895 C26.3913574,53.3581543 25.1188354,53.4832764 25.0932617,53.8039551 C25.067688,54.1246338 25.5012207,54.529541 28.1241455,54.9705811 L28.6870196,55.058073 C31.1362087,55.4072496 33.8010341,55.3728638 39.9869385,55.1832275 C46.6486816,54.9790039 48.5001221,52.7032471 49.5482178,51.6097412 C50.5963135,50.5162354 51.3181152,48.7103271 52.5140381,48.2862549 C53.3838002,47.9778387 54.8331723,48.148955 56.0126521,48.3454811 L57.1809082,48.5533447 C58.3601074,48.7619629 60.1887207,48.9422607 61.3250732,47.8288574 C62.4614258,46.7154541 60.6052246,42.9533691 60.2729492,42.1463623 C59.9406738,41.3393555 58.7275391,39.8017578 59.2336426,38.8453369 Z" id="路径" fill="#BCBCC6"></path>
                <path d="M82.9591064,63.6793213 C82.3342692,61.8752035 81.4138997,60.3426107 80.197998,59.081543 C78.3741455,57.1899414 72.1236572,52.677124 67.5179443,52.9373779 C62.9122314,53.1976318 58.4726563,57.4507607 57.2687988,58.2839355 C56.0649414,59.1171104 53.7501221,60.2237549 50.0134277,58.6004639 C46.2767334,56.9771729 42.2606201,56.9849854 38.8341064,58.9719238 C35.4075928,60.9588623 32.6049805,65.1662598 32.2504883,65.6708984 C32.0141602,66.0073242 31.7362061,66.4583333 31.416626,67.0239258 C35.5111898,68.1856906 38.3215332,68.4257168 39.8476562,67.7440043 C42.1368408,66.7214355 46.7685547,63.9589844 49.3280029,64.6594238 C51.8874512,65.3598633 58.2650146,66.7203369 63.1688232,64.6594238 C68.0726318,62.5985107 70.2944336,60.8470459 73.6223145,62.159668 C75.8409017,63.0347493 78.9531657,63.5413005 82.9591064,63.6793213 Z" id="路径-686" fill="#D1D1DB"></path>
                <path d="M70.1297134,56.0469772 L70.8110352,56.0681152 C75.2408617,56.2993727 79.1847797,58.627848 82.6427893,63.0535411 L82.8076881,63.2682642 L82.9455508,63.646699 L82.8228391,63.6747138 L82.8228391,63.6747138 C79.1641523,63.5401211 76.2583429,63.0951262 74.1057066,62.3395461 L73.6223145,62.159668 C70.2944336,60.8470459 68.0726318,62.5985107 63.1688232,64.6594238 C58.2650146,66.7203369 51.8874512,65.3598633 49.3280029,64.6594238 C46.7685547,63.9589844 42.1368408,66.7214355 39.8476563,67.7440043 C39.624721,67.8435885 39.3743815,67.9235035 39.0966377,67.9837494 L36.5741954,67.8334968 C35.7152826,67.7792877 34.8383022,67.7208951 33.9433475,67.6581436 C33.3664908,67.5357515 32.7571462,67.3881865 32.113652,67.2161109 L32.5243514,66.8474299 C33.5901519,65.9223422 35.4084442,64.5434405 37.9787598,62.7109375 C42.8858698,59.21242 46.3505859,60.1096191 48.5084738,60.5243637 C50.6663617,60.9391084 54.3674316,63.0942383 57.3077556,61.509295 C60.1500687,59.9771832 63.6474534,55.985022 70.1297134,56.0469772 L70.1297134,56.0469772 Z" id="路径" fill="#C2C2CA"></path>
                <path d="M67.5179443,52.9373779 C72.1236572,52.677124 78.3741455,57.1899414 80.197998,59.081543 C81.4138997,60.3426107 82.3342692,61.8752035 82.9591064,63.6793213 L82.1855828,63.6475595 L82.1855828,63.6475595 L82.3236084,63.9654541 C81.5281982,62.0724691 80.6414388,60.6281331 79.6633301,59.6324463 C78.196167,58.138916 75.677124,56.418335 73.5655518,55.3979492 C71.4539795,54.3775635 69.0909424,53.449585 66.4593506,53.8647461 C63.8277588,54.2799072 59.7764893,57.5180664 57.8693848,58.9995117 C56.0489668,60.4136186 53.7004516,60.7905503 50.2780214,59.6027504 L49.7817383,59.4223633 C46.0878906,58.0206299 43.8060303,57.9951172 41.2364502,58.7921143 C38.6668701,59.5891113 36.5291748,61.3486328 34.6986084,63.7685547 L34.0359545,64.6619552 C33.2179935,65.7896705 32.6623423,66.6634438 32.369001,67.2832752 C32.0619546,67.2034776 31.7433794,67.1166367 31.416626,67.0239258 C31.67229,66.5714518 31.9013135,66.1923112 32.1036963,65.8865039 L32.7136402,65.0110775 C33.7059816,63.6301475 36.0665377,60.5767588 38.8341064,58.9719238 C42.1048695,57.0753007 45.9128504,56.9819722 49.5022282,58.3892488 L50.0134277,58.6004639 C53.7501221,60.2237549 56.0649414,59.1171104 57.2687988,58.2839355 C58.4726563,57.4507607 62.9122314,53.1976318 67.5179443,52.9373779 Z" id="路径" fill="#B7B7C1"></path>
                <path d="M67.5179443,52.9373779 C72.1236572,52.677124 78.3741455,57.1899414 80.197998,59.081543 C80.6617501,59.5625216 81.082511,60.0829992 81.4602806,60.6429756 C80.8290527,59.8552295 80.3637159,59.331863 80.06427,59.072876 C77.9668579,57.2588501 76.3380799,56.0920549 75.0021973,55.3962402 C71.4012451,53.5206299 69.321106,52.8999023 66.7906494,53.1965942 C64.2601929,53.4932861 60.480835,55.8174438 58.2296143,57.739563 C55.9783936,59.6616821 53.9647827,59.5640259 52.8172607,59.4641113 C51.6697388,59.3641968 50.5280113,58.9186785 48.5761719,58.1956787 C47.2469482,57.7033081 44.5742798,57.2261963 41.7485962,57.9152832 C38.9229126,58.6043701 36.8093262,60.4833984 34.6697998,62.7139893 L33.5399419,63.9097337 C34.7479962,62.375014 36.6661776,60.2290445 38.8341064,58.9719238 C42.1048695,57.0753007 45.9128504,56.9819722 49.5022282,58.3892488 L50.0134277,58.6004639 C53.7501221,60.2237549 56.0649414,59.1171104 57.2687988,58.2839355 C58.4726563,57.4507607 62.9122314,53.1976318 67.5179443,52.9373779 Z" id="路径" fill="#DEDEDE"></path>
                <path d="M16.574585,63.7414551 C19.4785156,63.4735107 22.4606934,62.9671725 27.4776611,63.9097337 C32.4946289,64.8522949 34.6323242,65.9613037 37.6821289,65.9681396 C40.7319336,65.9749756 44.4328613,61.4440918 48,61.4753418 C51.5671387,61.5065918 55.1760254,64.3065186 57.8887939,64.2158203 C60.6015625,64.1251221 65.7988281,59.7241211 68.8088379,59.0593262 C71.8188477,58.3945313 74.784668,59.7663574 77.9949951,60.9628906 C81.2053223,62.1594238 82.5012207,62.4709336 83.8969727,62.4609917 C85.2927246,62.4510498 85.819519,63.2280273 85.5882568,64.0322876 C85.3569946,64.8365479 85.0885358,65.7553101 85.1072867,66.3513794 C85.1260376,66.9474487 86.0042631,68.366394 86.0042631,69 C86.0042631,69.633606 85.1744385,70.5163574 82.444458,71.2407227 C79.7144775,71.9650879 74.8363037,72.0000724 72,72.0000724 C69.1636963,72.0000724 62.4847412,71.6478271 59.7416992,71.6478271 C56.9986572,71.6478271 54.467041,72.0000724 46,72.0000724 C37.532959,72.0000724 34.8428955,72.0000724 32.0588379,72.0000724 C29.2747803,72.0000724 24.8520508,71.5632324 19.2492676,69.7103271 C19.0709229,69.4593506 18.6588745,69.6383057 18.3526001,69.5479126 C18.1484172,69.4876506 17.9313761,69.3643799 17.7014771,69.1781006 C17.6736857,69.3219401 17.3357951,69.2625732 16.6878052,69 C15.7158203,68.6061401 15.527771,68.6903687 15.4841919,68.4926147 C15.4406128,68.2948608 15.6298218,68.0419312 14.9126587,67.99823 C14.1954956,67.9545288 14.0864258,67.8465576 13.6103516,67.6141968 C13.1342773,67.3818359 10,65.7967529 10,62 C10,58.2032471 11.0828857,58.3908691 11.2756958,58.4331665 C11.4685059,58.4754639 12.3745117,60.0505371 12.6957397,60.7341309 C12.9379793,61.2496322 13.9961548,63.0784912 14.5895386,63.652771 C14.8184746,63.8743364 15.8605224,63.8073413 16.574585,63.7414551 Z" id="路径-687" fill="#343234"></path>
                <path d="M77.9949951,60.9628906 L79.4499483,61.4900144 C81.348047,62.1524223 82.42268,62.4021912 83.4326572,62.4516269 L83.8969727,62.4609917 C85.2927246,62.4510498 85.819519,63.2280273 85.5882568,64.0322876 L85.388489,64.7394979 C85.2270353,65.3352126 85.0938932,65.9256156 85.1072867,66.3513794 C85.1260376,66.9474487 86.0042631,68.366394 86.0042631,69 C86.0042631,69.4177949 85.6434568,69.9439179 84.6149772,70.4615285 C83.8278073,70.5814727 82.848951,70.50689 81.6772461,70.2407227 L78.7333905,69.5373748 C76.0043668,68.9090737 73.2381727,68.507071 68.2880859,69.253418 L67.0009164,69.4533636 C61.6204609,70.3150588 61.5607739,70.666533 57.1572264,70.6531 C52.4274902,70.6386719 50.229102,69.8187668 45.824634,69.9768883 C41.420166,70.1350098 33.2648926,71.120367 30.2971191,70.9397001 C27.3293457,70.7590332 18.7209614,68.5887204 17.291748,67.6257324 C15.8625347,66.6627445 14.3334961,64.604823 14.0618896,63.7474798 C14.0396558,63.6772971 14.1249531,63.5351261 14.3114286,63.3339339 C14.4119665,63.4647445 14.5054225,63.5713631 14.5895386,63.652771 C14.8184746,63.8743364 15.8605224,63.8073413 16.574585,63.7414551 L18.7977753,63.5221619 C21.0967789,63.3108978 23.7149353,63.2028128 27.4776611,63.9097337 C32.4946289,64.8522949 34.6323242,65.9613037 37.6821289,65.9681396 C40.7319336,65.9749756 44.4328613,61.4440918 48,61.4753418 C51.5671387,61.5065918 55.1760254,64.3065186 57.8887939,64.2158203 C60.6015625,64.1251221 65.7988281,59.7241211 68.8088379,59.0593262 C71.8188477,58.3945312 74.784668,59.7663574 77.9949951,60.9628906 Z" id="路径" fill="#262226"></path>
                <path d="M36.5010376,70.8216553 L38.8550402,70.8216553 L38.8550402,70.8216553 L38.6788301,71.0577979 C38.6103831,71.1575879 38.5714233,71.2299561 38.5619507,71.2749023 C38.5475679,71.3431462 38.5341983,71.713879 38.5536866,72.0016814 L36.1528307,71.9990345 C36.1295335,71.7502446 36.1150279,71.5088673 36.109314,71.2749023 C36.1204224,70.8103638 36.3313599,70.8267822 36.5010376,70.8216553 Z M45.7862605,70.4069214 C45.8606167,70.4391682 45.8269131,70.9696371 45.6851498,71.998328 L41.8113815,72.002444 L41.8489624,71.4656713 C41.8568974,71.2948061 41.8591345,71.1524943 41.852356,71.1002197 L41.8319845,70.9440025 C41.822024,70.8059456 41.851763,70.6623012 42.0874023,70.6188354 L42.3357141,70.5899429 C43.1784207,70.5102282 45.672351,70.3575211 45.7862605,70.4069214 Z M27.1884766,70.6188354 C27.7930094,70.7662356 28.5383301,70.8708499 29.4244385,70.9326782 L31.2732772,71.0695824 C31.4041953,71.0800341 31.5293254,71.0902465 31.6486677,71.1002197 L31.8192139,71.1002197 L31.8185474,71.9977184 L31.6690797,71.9972728 C30.4497623,71.9799167 28.9506669,71.8793186 27.2047752,71.6250568 L27.1884766,71.5122681 C27.1697591,71.2114868 27.1697591,70.9136759 27.1884766,70.6188354 Z M51.3935547,70.2589111 L51.3880086,71.9438009 L49.1092782,71.9826701 L49.1092782,71.9826701 C49.0879168,71.3441375 49.0931112,70.820456 49.1208496,70.4069214 C49.4757894,70.3313599 50.2333577,70.2820231 51.3935547,70.2589111 Z M70.6054077,68.7496948 L70.3328473,71.9748586 L68.5032569,71.9200843 C68.0711829,71.9055437 67.6256283,71.8897426 67.1736296,71.8733184 L67.0324097,68.7496948 L70.6054077,68.7496948 Z M76.9972534,69.3802645 L80.8207207,69.8823376 L80.8207207,69.8823376 C80.9702576,69.9005161 80.9748496,70.4584308 80.8344967,71.5560817 C79.5329623,71.7568447 78.0130432,71.8656573 76.5257812,71.9259354 L76.7297747,70.984788 C76.7695435,70.8215099 76.8009008,70.7121563 76.8238714,70.6565426 L76.8440471,70.6188354 C76.9020359,70.5527547 76.9531047,70.1398978 76.9972534,69.3802645 Z M55.3839722,70.1460872 L56.9304806,70.2589111 L56.9304122,71.7349196 L55.3854583,71.8076894 L55.3854583,71.8076894 L55.3839722,70.1460872 Z M62.4160383,71.5641702 L62.4183832,71.702958 L60.9409059,71.6629897 C60.640111,71.6565574 60.3599287,71.6519626 60.1048732,71.6496141 L59.7305474,71.6477184 L59.6768188,70.0393677 L60.3825025,69.9687337 C61.4597725,69.8504878 62.0426958,69.7296295 62.1312725,69.6061586 C62.250851,69.439473 62.3689452,70.6826527 62.4160383,71.5641702 Z M20.5862427,68.8937378 L22.068183,69.4501822 C22.6015101,69.6466624 23.0901959,69.8110868 23.1771851,69.7783813 C23.3028361,69.7311401 23.4361776,69.6994629 23.5772095,69.6833496 L23.6012919,70.9397001 C22.5556547,70.6958154 21.4509584,70.4001081 20.2916111,70.0431659 L20.305542,69.7783813 L20.305542,69.7783813 L20.3153008,69.2111658 C20.3255276,68.9266154 20.3674113,68.8264364 20.5862427,68.8937378 Z M17.9484535,67.7440043 L17.8698532,68.2747432 C17.7931837,68.8277877 17.7691221,69.1493041 17.7976685,69.2392926 L17.8279495,69.27516 L17.7014771,69.1781006 L17.7014771,69.1781006 C17.6771596,69.3039602 17.4154224,69.2742399 16.9162655,69.0889397 L16.2541462,68.8358782 C16.0067514,68.749422 15.8384949,68.7037907 15.723672,68.6684315 L15.6985474,68.8937378 L15.7838609,68.2590656 C15.8776336,67.5932228 15.9512465,67.1885082 16.0046997,67.0449219 C16.0734253,66.8603109 16.7213432,67.0933383 17.9484535,67.7440043 Z" id="形状" fill="#2A6537"></path>
                <path d="M27.1884766,70.6188354 C27.6721029,70.7367556 28.2458333,70.8272928 28.909668,70.8904469 L31.6486677,71.1002197 L31.6486677,71.1002197 L31.8192139,71.1002197 L31.8193284,71.6010364 C30.1832201,71.5617715 28.5021463,71.346701 27.1741339,71.1217265 L27.1884766,70.6188354 L27.1884766,70.6188354 Z M38.8550402,70.8216553 L38.6788301,71.0577979 L38.5812524,71.2208154 C38.5715421,71.2418913 38.5651082,71.2599202 38.5619507,71.2749023 L38.5510844,71.3898947 L38.5510844,71.3898947 L36.9041949,71.4715138 C36.6368457,71.4834649 36.3737648,71.4946782 36.1160057,71.5052862 L36.109314,71.2749023 L36.109314,71.2749023 C36.1204224,70.8103638 36.3313599,70.8267822 36.5010376,70.8216553 L38.8550402,70.8216553 Z M45.7862605,70.4069214 C45.8326967,70.4270598 45.8369882,70.6415111 45.799135,71.0502752 L41.8571329,71.2352818 L41.8571329,71.2352818 L41.852356,71.1002197 L41.852356,71.1002197 L41.8319845,70.9440025 C41.822024,70.8059456 41.851763,70.6623012 42.0874023,70.6188354 L42.3357141,70.5899429 L43.2856961,70.5158161 C44.339271,70.4431565 45.7027269,70.3706945 45.7862605,70.4069214 Z M55.3839722,70.1460872 L56.9304806,70.2589111 L56.9331832,71.1326672 L55.3858134,71.0990303 L55.3858134,71.0990303 L55.3839722,70.1460872 Z M62.3563611,70.7209869 L60.4847088,70.9320561 C60.2060142,70.9625603 59.9445056,70.9904952 59.7042453,71.0151208 L59.6768188,70.0393677 L60.3825025,69.9687337 L61.0274459,69.8895161 C61.6944373,69.796644 62.0623795,69.7021915 62.1312725,69.6061586 C62.2149774,69.4894787 62.2979551,70.0636328 62.3563611,70.7209869 Z M51.3935547,70.2589111 L51.3902956,70.9985543 C50.6237536,70.9843589 49.8508008,70.9751645 49.0980871,70.9755548 C49.1018396,70.7658796 49.1094362,70.5770764 49.1208496,70.4069214 C49.4757894,70.3313599 50.2333577,70.2820231 51.3935547,70.2589111 Z M76.9972534,69.3802645 L80.8207207,69.8823376 C80.9386619,69.8966752 80.9664383,70.2467626 80.9040498,70.9326 L78.0638237,70.605311 C77.6906785,70.5645094 77.2971777,70.5222813 76.8923153,70.4799248 L76.9291564,70.2349551 C76.9531687,70.0309578 76.976012,69.7457484 76.9972534,69.3802645 Z M20.5862427,68.8937378 L22.068183,69.4501822 C22.6015101,69.6466624 23.0901959,69.8110868 23.1771851,69.7783813 C23.3028361,69.7311401 23.4361776,69.6994629 23.5772095,69.6833496 L23.5920114,70.3394885 L22.3371545,70.0406388 C21.6687876,69.8794022 20.9603379,69.7038883 20.3077669,69.5295792 L20.3153008,69.2111658 C20.3255276,68.9266154 20.3674113,68.8264364 20.5862427,68.8937378 Z M70.6054077,68.7496948 L70.4997207,69.9777184 L70.414768,69.9768883 C69.6789689,69.9752282 68.4744563,70.0687976 67.0997187,70.2032234 L67.0324097,68.7496948 L70.6054077,68.7496948 Z M17.9484535,67.7440043 L17.8698532,68.2747432 L17.818255,68.6809875 L17.818255,68.6809875 C17.2384893,68.3953826 16.5987397,68.0039389 15.9017207,67.5093841 L15.9571343,67.2188242 C15.9743518,67.141544 15.9902612,67.0837067 16.0046997,67.0449219 C16.0734253,66.8603109 16.7213432,67.0933383 17.9484535,67.7440043 Z" id="形状" fill="#1C4727"></path>
                <path d="M36.2103271,68.7526311 C36.1984818,68.8139717 36.1940953,68.967209 36.1936573,69.1688247 L36.2103271,70.8410034 C36.2071097,71.2444371 36.2135278,71.6906549 36.2240681,72.0007936 L35.7038179,72.0023024 C35.8104637,71.5570982 35.8499077,70.9630051 35.835022,70.7366333 L35.7341738,69.3790848 C35.7146335,69.1364814 35.6974284,68.9399211 35.6881104,68.8707275 C35.6601562,68.663147 36.2503052,68.5456064 36.2103271,68.7526311 Z M39.1027222,68.4327393 C39.2016602,68.7561646 39.2585976,69.7350464 39.2163086,70.8606567 C39.2001761,71.2900562 39.1695259,71.6701655 39.1243578,72.0009844 L38.675758,72.0016045 C38.7584452,71.4496098 38.7894051,70.6667535 38.772644,70.4017334 C38.7463989,69.9867554 38.552124,68.6919556 38.4849854,68.5560303 C38.4178467,68.420105 39.0037842,68.109314 39.1027222,68.4327393 Z M41.8312378,68.2058105 C41.9204102,68.4534302 42.1698608,69.7878418 42.0987549,70.9026489 C42.0737975,71.2939336 42.0372626,71.6600782 41.9891501,72.0010826 L41.5081749,72.0002817 C41.6332172,71.4902519 41.6805411,70.8822275 41.6501465,70.1762085 L41.6136768,69.560122 C41.5341656,68.5618602 41.3835684,68.2584504 41.1369629,68.2058105 C41.7136841,68.0736084 41.7420654,67.9581909 41.8312378,68.2058105 Z M45.7849121,67.2832752 L45.8531098,67.4753407 C45.9853603,67.8865599 46.256025,68.9061018 46.2154541,70.1077881 L46.1655473,71.5084856 C46.1616489,71.6956043 46.1615912,71.8599927 46.1678207,72.0023036 L45.5034513,71.9992722 C45.6968325,71.4471793 45.7906527,70.8166846 45.7849121,70.1077881 C45.7767334,69.097819 45.6327515,68.2470296 45.3529663,67.5554199 L45.5797526,67.3772422 C45.703342,67.2876114 45.7717285,67.2562891 45.7849121,67.2832752 Z M31.8236084,68.755188 C31.973938,69.0345393 32.1141357,70.0863037 32.1153564,70.8410034 C32.1159957,71.2362064 32.0670605,71.6665566 32.0459049,72.0016147 L31.67155,72.0032508 L31.6726593,69.9211272 C31.6713292,69.8798619 31.6697555,69.8476841 31.6679077,69.8262952 C31.644043,69.5500488 31.4831543,69.0944824 31.2354126,68.8707275 C30.9876709,68.6469727 31.6732788,68.4758367 31.8236084,68.755188 Z M50.2475715,67.5025455 L50.1991577,67.5554199 C49.8446045,67.8033447 49.2700806,69.50354 49.2486572,70.1762085 C49.2346795,70.6150935 49.2539852,71.4200448 49.3137453,71.9820332 L48.8466761,71.9893453 C48.7927583,71.4624108 48.7410591,70.6863212 48.7814331,70.1077881 C48.8375854,69.3031616 49.1997681,67.8071289 49.0651855,67.5554199 C48.9409555,67.3230732 50.3144026,67.3084247 50.2475715,67.5025455 L50.2475715,67.5025455 Z M70.7720947,66.0836792 L70.7720947,69.1557007 L70.7720947,69.1557007 C70.7588569,69.8018708 70.6241559,71.2729875 70.5694229,71.98148 L70.0574412,71.9677494 L70.0574412,71.9677494 L70.2081681,70.9083911 C70.3106253,70.1223374 70.4010329,69.2971383 70.3834229,69.1557007 C70.354482,68.9232585 70.2035133,68.6040107 70.2123803,68.4346805 L70.2391357,68.3529663 C70.3400269,68.2330933 70.255188,66.3624878 70.1196899,66.1173096 C69.9841919,65.8721313 70.7681274,66.0494995 70.7720947,66.0836792 Z M52.5234575,67.4841073 L52.4581909,67.5554199 C52.0793457,67.8585205 51.6304265,69.1450195 51.6039095,69.9423828 C51.5827793,70.5777677 51.6195684,71.4290247 51.7540714,71.9376624 L51.1519953,71.9490209 L51.1519953,71.9490209 L51.1179125,71.2407773 C51.0991194,70.8540526 51.0856577,70.4416099 51.1133423,70.1077881 L51.1647167,69.6330856 C51.2751898,68.7649965 51.4951883,67.5969459 51.6039095,67.3983774 C51.7235029,67.1799521 52.6600106,67.2392438 52.5234575,67.4841073 Z M77.133667,66.8514404 L77.1636373,68.1995003 C77.1685651,68.6543736 77.1641337,69.2226512 77.133667,69.9423828 L77.0984146,70.5775728 C77.0520859,71.2435671 76.99201,71.655679 76.9649781,71.9066268 L76.5227412,71.9327608 C76.5975122,71.4588254 76.6106532,70.6060567 76.6702239,70.0167681 L76.7124023,69.6999512 C76.8326416,69.0318604 76.7041016,66.9014893 76.7124023,66.7021484 C76.7207031,66.5028076 77.1373901,66.3428345 77.133667,66.8514404 Z M68.54093,66.0224798 L68.4733276,66.0836792 C68.0039673,66.4424438 67.2389822,68.2766724 67.2180934,69.6999512 C67.2046162,70.618235 67.2649271,71.3971867 67.3767779,71.881833 L66.9057759,71.8635431 L66.9057759,71.8635431 L66.8418315,70.9371709 C66.8147475,70.488405 66.7933345,70.0450461 66.7931519,69.8262952 C66.7927246,69.3146362 67.0716848,66.8223267 67.2180934,66.5004883 C67.3547414,66.2001058 68.7386266,65.7848264 68.54093,66.0224798 L68.54093,66.0224798 Z M55.7506714,67.9559937 L55.8578413,68.0715581 C55.9175513,68.1444604 55.9678833,68.2393311 55.925293,68.3529663 C55.8543091,68.5423584 55.4857788,70.223877 55.4865112,70.8606567 C55.4868661,71.1691995 55.5330755,71.5148128 55.5990956,71.8001116 L55.2631541,71.8131618 L55.2631541,71.8131618 L55.1738435,71.1652064 C55.1016727,70.5800666 55.0530713,69.919067 55.1625366,69.4603271 L55.2792737,69.0292246 C55.4683091,68.4025743 55.7028309,67.8984652 55.7506714,67.9559937 Z M56.574707,68.1221472 L57.0432129,68.1221472 L57.1621162,68.9277346 C57.2282059,69.4244928 57.2679376,69.8406508 57.281311,70.1762085 C57.2962666,70.5514639 57.2772862,71.0656978 57.2243696,71.7189102 L56.7684729,71.7426333 L56.7684729,71.7426333 C56.8640944,71.3160574 56.9463113,70.7283063 56.9182129,70.1762085 C56.8856608,69.5366007 56.7711589,68.8519137 56.574707,68.1221472 Z M62.2051392,67.1539307 L62.2807821,67.5258751 C62.4018584,68.1776072 62.6145207,69.476262 62.6003418,69.9423828 L62.5917713,70.5154344 C62.590048,70.8310271 62.5911055,71.2278241 62.594944,71.7058253 L62.1313841,71.6941656 L62.1313841,71.6941656 C62.2149331,71.1155919 62.254,70.2340065 62.2051392,69.8262952 L62.1461318,69.3990416 C62.0326821,68.6455713 61.8202737,67.4863316 61.6879883,67.2832752 C61.5263062,67.0350952 62.1564331,66.984375 62.2051392,67.1539307 Z M60.3104248,67.7440043 C60.144165,68.0015259 59.967041,69.7872925 59.9211426,70.3082275 C59.8941221,70.6149033 59.9301375,71.2035697 59.9963382,71.651553 L59.6314951,71.6485452 C59.5097622,71.127268 59.4019463,70.386811 59.46698,69.8262952 L59.5611351,69.0823178 C59.6552916,68.4137666 59.7767889,67.7918455 59.9211426,67.7440043 L60.1472304,67.657541 C60.2995199,67.600314 60.4212646,67.5723232 60.3104248,67.7440043 Z M28.3694458,68.1221472 C28.3358154,68.3076782 27.9400635,68.4508188 27.7446289,68.7526311 C27.5491943,69.0544434 27.2353516,70.1639404 27.1884766,70.6188354 C27.163923,70.8571138 27.2011309,71.2661405 27.2796702,71.6358168 L26.8063829,71.5650045 L26.8063829,71.5650045 C26.7418304,71.2842594 26.7172871,71.0086863 26.7279663,70.7366333 C26.7595825,69.9312134 27.0662842,68.8503418 27.3610229,68.5560303 C27.6557617,68.2617187 28.4030762,67.9366162 28.3694458,68.1221472 Z M81.0137939,69.0767822 C81.118042,69.0847778 80.9993896,70.0603638 81.0137939,70.6188354 C81.0224413,70.9541022 81.048906,71.2890829 81.1213417,71.5189805 L80.5200997,71.6105947 L80.5689898,71.1330772 C80.6241472,70.5248181 80.669991,69.8003013 80.6778564,69.6187744 C80.690979,69.315918 80.9095459,69.0687866 81.0137939,69.0767822 Z M24.479248,67.5554199 C24.1774902,68.023112 23.9757894,68.4615479 23.8741455,68.8707275 C23.7535339,69.3562641 23.7194585,70.3649276 23.719933,70.9676213 L23.2987895,70.8680851 L23.2987895,70.8680851 L23.3102801,70.1380433 C23.3170801,69.9440647 23.3310934,69.736551 23.361084,69.5307617 C23.4661865,68.8095703 23.6505127,68.0788289 23.8741455,67.7440043 C24.023234,67.5207879 24.2249349,67.4579264 24.479248,67.5554199 Z M21.8630175,66.2806396 C22.2186279,66.3320923 21.671936,66.6550903 21.3171997,66.9610596 C20.9624634,67.2670288 20.5261841,67.902771 20.4647827,68.5239258 C20.4184955,68.9921809 20.3968002,69.6249138 20.4662942,70.0988904 L20.0543644,69.9695026 L20.0543644,69.9695026 C20.0195706,69.7720807 19.9753223,69.5422229 19.9628906,69.3258057 C19.9301758,68.7562866 20.1273193,67.6393654 20.4647827,67.2832752 C20.8022461,66.9271851 21.5074072,66.229187 21.8630175,66.2806396 Z M18.7458496,69.1557007 C19.2033829,69.3495598 19.5339404,69.5945783 19.6543002,69.8417899 L19.2492676,69.7103271 L19.2492676,69.7103271 C19.0709229,69.4593506 18.6588745,69.6383057 18.3526001,69.5479126 L18.2426067,69.5073337 L18.3265861,69.3336567 C18.410666,69.1883871 18.5358261,69.0667127 18.7458496,69.1557007 Z M19.1051636,65.7861328 C18.6017863,66.3032239 18.293457,66.8406387 18.1801758,67.3983774 C18.0223912,68.1752276 17.9493365,68.9392903 18.0547896,69.4239887 C17.9516558,69.3635043 17.8432684,69.2904217 17.7318298,69.2023873 C17.6800487,68.7643331 17.6745228,68.1637742 17.8225098,67.5554199 C17.9685872,66.9549154 18.200236,66.365153 18.5174561,65.7861328 L19.1051636,65.7861328 Z M17.2035559,65.2091268 C16.630802,65.9626274 16.2763601,66.6540102 16.1402301,67.2832752 C16.0316728,67.785085 15.9579386,68.2669078 15.9190277,68.7287436 L15.6708236,68.6520962 C15.5482184,68.6104256 15.5028971,68.5774954 15.4841919,68.4926147 C15.4575162,68.3715654 15.5180644,68.2298421 15.4045621,68.1280878 C15.4939953,67.9578977 15.5803421,67.7374199 15.6787463,67.4652218 L15.8961182,66.8514404 C16.2321777,65.9038086 16.6191406,65.0999756 16.8280029,65.0189209 C16.9672445,64.9648844 17.0924288,65.0282864 17.2035559,65.2091268 Z" id="形状" fill="#111111"></path>
                <path d="M11.2756958,58.4331665 C11.4388428,58.4689566 12.1126211,59.6021779 12.5106843,60.3641532 L12.6957397,60.7341309 C12.8959887,61.1602733 13.6538161,62.483913 14.2457334,63.2544104 C15.3037307,64.9355275 18.1746785,66.4470111 19.8023682,67.0882568 C20.9585368,67.5437419 23.4205729,68.2065837 27.1884766,69.0767822 L26.6654227,69.02415 C25.5149623,68.8798878 23.7383859,68.5016392 21.3356934,67.8894043 C17.1309814,66.8179932 15.1175537,64.8730469 14.0592041,63.7202148 C13.0008545,62.5673828 11.9598389,60.3310547 11.4211426,59.458374 C11.179866,59.0675093 10.8868709,58.8530336 10.5421573,58.8149469 C10.84158,58.3511552 11.1764799,58.4114012 11.2756958,58.4331665 Z" id="路径" fill="#9B9B9B"></path>
                <path d="M19.2620759,63.4814957 C21.4509534,63.3001088 23.9657837,63.2499409 27.4776611,63.9097337 C32.4946289,64.8522949 34.6323242,65.9613037 37.6821289,65.9681396 C40.7319336,65.9749756 44.4328613,61.4440918 48,61.4753418 C51.5671387,61.5065918 55.1760254,64.3065186 57.8887939,64.2158203 C60.6015625,64.1251221 65.7988281,59.7241211 68.8088379,59.0593262 C71.8188477,58.3945313 74.784668,59.7663574 77.9949951,60.9628906 L79.4499483,61.4900144 C81.348047,62.1524223 82.42268,62.4021912 83.4326572,62.4516269 L83.8969727,62.4609917 C85.2927246,62.4510498 85.819519,63.2280273 85.5882568,64.0322876 L85.388489,64.7394979 C85.2270353,65.3352126 85.0938932,65.9256156 85.1072867,66.3513794 C85.1260376,66.9474487 86.0042631,68.366394 86.0042631,69 C86.0042631,69.2215643 85.9027909,69.4735944 85.6540787,69.7386643 C84.9911135,69.8558068 84.5335815,70.1975383 84.2150693,70.079513 L83.6335648,69.8339691 C82.3875241,69.2888319 79.6450991,68.0751397 76.1032715,67.2495569 C71.8157959,66.2501673 68.5773926,66.7367395 63.0007324,68.0859684 C57.4240723,69.4351973 54.4082031,68.7769007 51.4030762,68.4641113 C48.6711426,68.1797574 45.1601784,68.4269753 42.3979428,68.7454701 L40.7776192,68.9420228 C37.6857601,69.3038097 32.2001529,69.7729307 27.3419189,69.0519251 C22.0209961,68.2622522 18.4040527,66.6172327 17.3896484,66.0041956 C16.8824463,65.697677 16.2366219,65.2442735 15.4521751,64.6439852 L14.5895386,63.652771 C14.7930373,63.849718 15.6389946,63.8186666 16.3259818,63.7630609 L19.2620759,63.4814957 Z" id="路径" fill="#111113"></path>
                <path d="M16.3259818,63.7630609 L19.2620759,63.4814957 C21.4509534,63.3001088 23.9657837,63.2499409 27.4776611,63.9097337 C32.4946289,64.8522949 34.6323242,65.9613037 37.6821289,65.9681396 C40.7319336,65.9749756 44.4328613,61.4440918 48,61.4753418 C51.5671387,61.5065918 55.1760254,64.3065186 57.8887939,64.2158203 C60.6015625,64.1251221 65.7988281,59.7241211 68.8088379,59.0593262 C71.8188477,58.3945313 74.784668,59.7663574 77.9949951,60.9628906 L79.4499483,61.4900144 C81.348047,62.1524223 82.42268,62.4021912 83.4326572,62.4516269 L83.8969727,62.4609917 C85.2927246,62.4510498 85.819519,63.2280273 85.5882568,64.0322876 L85.388489,64.7394979 C85.2270353,65.3352126 85.0938932,65.9256156 85.1072867,66.3513794 C85.1260376,66.9474487 86.0042631,68.366394 86.0042631,69 C86.0042631,69.2215643 85.9027909,69.4735944 85.6540787,69.7386643 C84.9911135,69.8558068 84.5015991,69.8555742 84.1830869,69.7375488 L83.6015824,69.492005 C82.3555417,68.9468678 79.6131167,67.7331755 76.0712891,66.9075928 C71.7838135,65.9082031 68.5454102,66.3947754 62.96875,67.7440043 C57.3920898,69.0932332 54.3762207,68.4349365 51.3710938,68.1221472 C48.6391602,67.8377933 45.128196,68.0850112 42.3659604,68.403506 L40.7456368,68.6000586 C37.6537777,68.9618455 32.1681704,69.4309666 27.3099365,68.7099609 C21.9890137,67.9202881 18.3720703,66.2752686 17.357666,65.6622314 C16.8504639,65.3557129 16.2046394,64.9023094 15.4201927,64.302021 L14.5895386,63.652771 C14.7930373,63.849718 15.6389946,63.8186666 16.3259818,63.7630609 L16.3259818,63.7630609 Z" id="路径" fill="#201F24"></path>
                <path d="M75.2794797,61.9076772 L75.9709473,62.0598145 C78.990832,62.756795 82.1849191,63.7982003 81.4182129,64.2661133 C80.5925293,64.7700195 80.5517578,66.0178223 81.4165039,66.9995117 C82.28125,67.9812012 83.7506714,68.8275146 84.2271729,69.010376 C84.6353441,69.167015 85.4003206,69.2250366 85.9919232,68.9004382 L86.0042631,69 L86.0042631,69 C86.0042631,69.2215643 85.9027909,69.4735944 85.6540787,69.7386643 C84.9911135,69.8558068 84.5015991,69.8555742 84.1830869,69.7375488 L83.6015824,69.492005 L82.4825692,69.0099268 C81.0207312,68.3972055 78.7797455,67.5389208 76.0712891,66.9075928 C71.7838135,65.9082031 68.5454102,66.3947754 62.96875,67.7440043 C57.3920898,69.0932332 54.3762207,68.4349365 51.3710938,68.1221472 C48.6391602,67.8377933 45.128196,68.0850112 42.3659604,68.403506 L40.7456368,68.6000586 L39.6932133,68.7163617 C36.5058645,69.0474209 31.6567774,69.3550713 27.3099365,68.7099609 C22.668852,68.0211822 19.3241387,66.6816639 17.8720687,65.9438122 C16.8229505,65.0187932 17.0085099,64.5430849 18.4296875,64.5168457 C20.8830566,64.4715491 25.7971191,64.8618164 29.3303223,65.701416 L31.2781362,66.1540424 C34.4878993,66.876612 38.1068427,67.5457245 39.4558105,66.9995117 C41.0887716,66.3383068 44.8432617,63.9194336 47.6657715,63.8466797 C50.4882813,63.7739258 55.6598635,65.407959 57.5244141,65.6264648 C59.3889646,65.8449707 62.8536377,63.8444824 66.8178711,62.5830078 C70.7821045,61.3215332 72.0868528,61.2407682 75.2794797,61.9076772 Z" id="路径" fill="#343437"></path>
                <path d="M48,61.4753418 C51.0637118,61.5021815 54.1582195,63.5713615 56.689334,64.0974074 C56.2796325,64.038431 55.8823494,63.9535092 55.4914551,63.845459 L54.6464243,63.6001101 C52.5103073,62.9607697 49.3514099,61.9309998 47.8549805,62.1401367 C46.1447754,62.3791504 44.4348145,63.1532067 42.576416,64.1796875 L42.0704614,64.4758482 C40.3820337,65.5087578 38.6259766,66.9154386 35.347168,66.1967773 C31.7404785,65.40625 28.940865,64.451416 25.8188477,63.9921875 L23.8995431,63.698689 C23.2402381,63.5942553 22.5613962,63.4832209 21.8630175,63.3655856 C23.4484841,63.3601826 25.2652152,63.4940712 27.4776611,63.9097337 C32.4946289,64.8522949 34.6323242,65.9613037 37.6821289,65.9681396 C40.7319336,65.9749756 44.4328613,61.4440918 48,61.4753418 Z M75.2574383,59.9319071 L75.9480696,60.1848419 C73.9205647,59.8124938 70.8559607,59.4247473 69.4162598,59.6665039 C67.5029297,59.987793 65.5544434,61.1105957 62.6550293,62.7268066 C61.0955599,63.5960966 59.7327879,64.0173968 58.4881172,64.1331983 C61.3090219,63.5350381 66.0067127,59.6782074 68.8088379,59.0593262 C70.9461978,58.5872659 73.0612765,59.1421094 75.2574383,59.9319071 Z" id="形状" fill="#5F5E62"></path>
                <path d="M63.0218506,34.6049805 C61.6866455,34.5895996 60.7979736,34.6949463 60.6282959,35.0141602 C60.4586182,35.333374 61.4150391,35.0656738 63.0457764,35.0959473 C64.6765137,35.1262207 67.6973877,35.6204834 68.8216553,35.8416748 C69.9459229,36.0628662 70.4078369,35.782959 68.5936279,35.3630371 C66.7794189,34.9431152 64.3570557,34.6203613 63.0218506,34.6049805 Z" id="路径-684" fill="#878587"></path>
                <path d="M59.7922974,35.3093262 C60.4078573,35.6714681 60.6035156,36.0424601 60.3792725,36.4223022 C60.0429077,36.9920654 59.3266245,36.8150024 59.1539917,36.7392578 C58.9813589,36.6635132 58.3815918,35.9279785 57.9501343,35.5891724 C57.5186768,35.2503662 56.9401245,35.0418091 56.3864136,34.932373 C55.8327026,34.822937 55.8881836,35.0867477 55.5079956,34.7749412 C55.1278076,34.4631348 55.2952881,33.7348022 55.5974731,33.6956787 C55.8996582,33.6565552 55.9291382,33.8046265 56.2826538,33.9946899 C56.6361694,34.1847534 57.2903442,34.2135058 57.9501343,34.3630395 C58.6099243,34.5125732 59.8115845,35.6441887 59.8823242,35.7634091 C60.1729329,36.0328307 60.142924,35.8814697 59.7922974,35.3093262 Z" id="路径-692" fill="#3C3C3C"></path>
            </g>
        </g>
    </g>
</svg>