<?xml version="1.0" standalone="no"?><!DOCTYPE svg PUBLIC "-//W3C//DTD SVG 1.1//EN" "http://www.w3.org/Graphics/SVG/1.1/DTD/svg11.dtd"><svg t="1609284656500" class="icon" viewBox="0 0 1024 1024" version="1.1" xmlns="http://www.w3.org/2000/svg" p-id="13682" xmlns:xlink="http://www.w3.org/1999/xlink" width="200" height="200"><defs><style type="text/css"></style></defs><path d="M1000.768 573.36l-121.488-151.36c-7.488-6.72-18.4-7.856-29.344-3.12-10.944 4.752-18.624 13.984-20.688 24.864l-8.416 53.696H492.64c-15.68 0-30.736 12.368-33.648 27.632l-10.496 55.28c-2.912 15.264 7.424 27.648 23.104 27.648H988c13.12 0 18.144-4.912 19.584-13.488 1.44-8.576-0.896-15.84-6.816-21.152M352.272 496h26.848c14.832 0 23.792 12.544 20 28l-13.68 56c-3.776 15.456-18.88 28-33.712 28h-26.848c-14.832 0-23.792-12.544-20-28l13.68-56c3.776-15.456 18.88-28 33.712-28zM208.272 496h26.848c14.832 0 23.792 12.544 20 28l-13.68 56c-3.776 15.456-18.88 28-33.712 28h-26.848c-14.832 0-23.792-12.544-20-28l13.68-56c3.776-15.456 18.88-28 33.712-28zM64.272 496h26.848c14.832 0 23.792 12.544 20 28l-13.68 56C93.664 595.456 78.56 608 63.728 608H36.88c-14.832 0-23.792-12.544-20-28l13.68-56C34.336 508.544 49.44 496 64.272 496z" fill="#FFB744" p-id="13683"></path></svg>